<svg width="28" height="28" viewBox="0 0 28 28" fill="none" xmlns="http://www.w3.org/2000/svg">
<path fill-rule="evenodd" clip-rule="evenodd" d="M14 24.2812C19.6782 24.2812 24.2812 19.6782 24.2812 14C24.2812 8.32182 19.6782 3.71875 14 3.71875C8.32182 3.71875 3.71875 8.32182 3.71875 14C3.71875 19.6782 8.32182 24.2812 14 24.2812ZM6.80068 19.3496C5.68908 17.8561 5.03125 16.0049 5.03125 14C5.03125 9.0467 9.0467 5.03125 14 5.03125C18.9533 5.03125 22.9688 9.0467 22.9688 14C22.9688 16.1028 22.2451 18.0365 21.0333 19.5658C20.2447 17.9355 18.8533 16.8654 16.8994 16.3623C18.1891 15.4513 19.0312 13.949 19.0312 12.25C19.0312 9.47132 16.7787 7.21875 14 7.21875C11.2213 7.21875 8.96875 9.47132 8.96875 12.25C8.96875 13.9252 9.78748 15.4092 11.0466 16.3237C9.06902 16.7877 7.64065 17.797 6.80068 19.3496ZM7.74143 20.4241C9.35745 21.9987 11.5654 22.9688 14 22.9688C16.3334 22.9688 18.4586 22.0777 20.054 20.6173C19.246 18.4245 17.2709 17.3405 13.9735 17.3405C10.6453 17.3175 8.61594 18.3429 7.74143 20.4241ZM10.2812 12.25C10.2812 14.3038 11.9462 15.9688 14 15.9688C16.0538 15.9688 17.7188 14.3038 17.7188 12.25C17.7188 10.1962 16.0538 8.53125 14 8.53125C11.9462 8.53125 10.2812 10.1962 10.2812 12.25Z" fill="#453D98"/>
</svg>
