<svg xmlns="http://www.w3.org/2000/svg" width="37" height="43" viewBox="0 0 37 43">
    <path fill="#465DC8" fill-rule="evenodd" d="M26.12 14.9a4.195 4.195 0 0 1 4.595-4.171c2.172.204 3.788 2.113 3.788 4.294v7.46l2.444 7.395.008.02a.52.52 0 0 1-.486.702h-3.475v9.523c0 1.072-.87 1.942-1.943 1.942h-1.479a1.943 1.943 0 0 1-1.943-1.942v-9.524h-3.475a.518.518 0 0 1-.486-.7l2.453-7.416zM7.348 10.46a3.235 3.235 0 0 1 3.235 3.235v11.525a.81.81 0 0 1-.18.512l-.035.044-.033.053-1.966 3.28v10.764c0 1.072-.87 1.942-1.943 1.942h-1.78a1.943 1.943 0 0 1-1.943-1.942V29.107L.71 25.783l-.04-.05a.81.81 0 0 1-.181-.514V13.694a3.235 3.235 0 0 1 3.235-3.235zm11.758 7.645a2.446 2.446 0 0 1 2.446 2.447v8.715a.612.612 0 0 1-.135.387l-.027.033-.025.04-1.487 2.48v8.14c0 .81-.657 1.468-1.469 1.468h-1.346c-.811 0-1.469-.658-1.469-1.469v-8.14l-1.506-2.513-.031-.038a.613.613 0 0 1-.137-.388V20.55a2.446 2.446 0 0 1 2.447-2.446zm-1.37-7.646a2.64 2.64 0 0 1 2.637 2.637 2.64 2.64 0 0 1-2.637 2.637 2.64 2.64 0 0 1-2.637-2.637 2.64 2.64 0 0 1 2.637-2.637zM30.312.598a3.49 3.49 0 0 1 3.487 3.487 3.491 3.491 0 0 1-3.487 3.487 3.491 3.491 0 0 1-3.487-3.487A3.49 3.49 0 0 1 30.312.598zM5.535.348a3.49 3.49 0 0 1 3.487 3.486A3.491 3.491 0 0 1 5.535 7.32a3.491 3.491 0 0 1-3.487-3.487A3.49 3.49 0 0 1 5.535.347z"/>
</svg>
