<svg width="28" height="28" viewBox="0 0 28 28" fill="none" xmlns="http://www.w3.org/2000/svg">
<path fill-rule="evenodd" clip-rule="evenodd" d="M7.72754 4.81641V3.61659C7.72754 3.27606 8.00359 3 8.34413 3C8.68466 3 8.96071 3.27606 8.96071 3.61659V4.81641H18.415V3.61659C18.415 3.27606 18.6911 3 19.0316 3C19.3722 3 19.6482 3.27606 19.6482 3.61659V4.81641H21.0865C22.9027 4.81641 24.375 6.2887 24.375 8.10487V21.2587C24.375 23.0749 22.9027 24.5472 21.0865 24.5472H6.28846C4.47229 24.5472 3 23.0749 3 21.2587V8.10487C3 6.2887 4.47229 4.81641 6.28846 4.81641H7.72754ZM18.415 6.04962V7.85779C18.415 8.19832 18.6911 8.47437 19.0316 8.47437C19.3722 8.47437 19.6482 8.19832 19.6482 7.85779V6.04962H21.0865C22.2216 6.04962 23.1418 6.96981 23.1418 8.10491V9.54313H4.23317V8.10491C4.23317 6.96981 5.15336 6.04962 6.28846 6.04962H7.72754V7.85779C7.72754 8.19832 8.00359 8.47437 8.34413 8.47437C8.68466 8.47437 8.96071 8.19832 8.96071 7.85779V6.04962H18.415ZM23.1418 10.7763H4.23317V21.2588C4.23317 22.3939 5.15336 23.314 6.28846 23.314H21.0865C22.2216 23.314 23.1418 22.3939 23.1418 21.2588V10.7763ZM7.61058 13.8592C7.33443 13.8592 7.11058 14.0831 7.11058 14.3592V15.8256C7.11058 16.1017 7.33443 16.3256 7.61058 16.3256H9.07692C9.35307 16.3256 9.57692 16.1017 9.57692 15.8256V14.3592C9.57692 14.0831 9.35307 13.8592 9.07692 13.8592H7.61058ZM7.11058 18.4698C7.11058 18.1937 7.33443 17.9698 7.61058 17.9698H9.07692C9.35307 17.9698 9.57692 18.1937 9.57692 18.4698V19.9362C9.57692 20.2123 9.35307 20.4362 9.07692 20.4362H7.61058C7.33443 20.4362 7.11058 20.2123 7.11058 19.9362V18.4698ZM12.8654 14.3592C12.8654 14.0831 13.0892 13.8592 13.3654 13.8592H14.8317C15.1079 13.8592 15.3317 14.0831 15.3317 14.3592V15.8256C15.3317 16.1017 15.1079 16.3256 14.8317 16.3256H13.3654C13.0892 16.3256 12.8654 16.1017 12.8654 15.8256V14.3592ZM17.7981 14.3592C17.7981 14.0831 18.0219 13.8592 18.2981 13.8592H19.7644C20.0406 13.8592 20.2644 14.0831 20.2644 14.3592V15.8256C20.2644 16.1017 20.0406 16.3256 19.7644 16.3256H18.2981C18.0219 16.3256 17.7981 16.1017 17.7981 15.8256V14.3592Z" fill="#453D98"/>
</svg>
