<svg width="28" height="28" viewBox="0 0 28 28" fill="none" xmlns="http://www.w3.org/2000/svg">
<path d="M25.4059 21.1176C25.7294 21.1176 25.9941 21.3824 26 21.7059V25.4059C26 25.7353 25.7353 26 25.4059 26H21.7059C21.3824 26 21.1176 25.7353 21.1176 25.4059V24.1176H6.88235V25.4059C6.88235 25.7294 6.61765 25.9941 6.29412 26H2.59412C2.27059 26 2.00588 25.7353 2 25.4059V21.7059C2 21.3824 2.26471 21.1176 2.59412 21.1176H3.88235V6.88235H2.59412C2.27059 6.88235 2.00588 6.61765 2 6.29412V2.59412C2 2.27059 2.26471 2.00588 2.59412 2H6.29412C6.61765 2 6.88235 2.26471 6.88235 2.59412V3.88235H21.1176V2.59412C21.1176 2.27059 21.3824 2.00588 21.7059 2H25.4059C25.7294 2 25.9941 2.26471 26 2.59412V6.29412C26 6.61765 25.7353 6.88235 25.4059 6.88235H24.1176V21.1176H25.4059ZM3.17647 22.2941V24.8235H5.70588V22.2941H3.17647ZM5.70588 3.17647H3.17647V5.70588H5.70588V3.17647ZM21.1176 6.29412V5.05882H6.88235V6.29412C6.88235 6.61765 6.61765 6.88235 6.29412 6.88235H5.05882V21.1176H6.29412C6.61765 21.1176 6.88235 21.3824 6.88235 21.7059V22.9412H21.1176V21.7059C21.1176 21.3824 21.3824 21.1176 21.7059 21.1176H22.9412V6.88235H21.7059C21.3824 6.88235 21.1176 6.61765 21.1176 6.29412ZM24.8235 5.70588V3.17647H22.2941V5.70588H24.8235ZM22.2941 22.2941V24.8235H24.8235V22.2941H22.2941Z" fill="#453D98"/>
</svg>
