<?xml version="1.0" encoding="utf-8"?>
<!-- Generator: Adobe Illustrator 16.0.0, SVG Export Plug-In . SVG Version: 6.00 Build 0)  -->
<!DOCTYPE svg PUBLIC "-//W3C//DTD SVG 1.1//EN" "http://www.w3.org/Graphics/SVG/1.1/DTD/svg11.dtd">
<svg version="1.1" id="Layer_1" xmlns="http://www.w3.org/2000/svg" xmlns:xlink="http://www.w3.org/1999/xlink" x="0px" y="0px"
	 width="24px" height="24px" viewBox="0 0 24 24" enable-background="new 0 0 24 24" xml:space="preserve">
<g id="Fill">
	<path fill="#475CA7" d="M12,0.605c-6.397,0-11.583,5.186-11.583,11.582C0.417,18.584,5.603,23.77,12,23.77
		c6.396,0,11.583-5.186,11.583-11.583C23.582,5.791,18.396,0.605,12,0.605z M12,22.114c-5.483,0-9.928-4.443-9.928-9.927
		C2.072,6.705,6.517,2.26,12,2.26s9.927,4.445,9.927,9.927C21.927,17.671,17.482,22.114,12,22.114z"/>
	<polygon fill="#475CA7" points="14.928,8.092 12,11.021 9.071,8.092 7.739,9.093 10.667,12.022 7.904,15.116 9.071,16.283 
		12,13.354 14.928,16.283 16.095,15.116 13.166,12.187 16.095,9.259 	"/>
</g>
</svg>
