<?xml version="1.0" encoding="utf-8"?>
<!-- Generator: Adobe Illustrator 16.0.0, SVG Export Plug-In . SVG Version: 6.00 Build 0)  -->
<!DOCTYPE svg PUBLIC "-//W3C//DTD SVG 1.1//EN" "http://www.w3.org/Graphics/SVG/1.1/DTD/svg11.dtd">
<svg version="1.1" id="Layer_1" xmlns="http://www.w3.org/2000/svg" xmlns:xlink="http://www.w3.org/1999/xlink" x="0px" y="0px"
	 width="32px" height="32px" viewBox="0 0 32 32" enable-background="new 0 0 32 32" xml:space="preserve">
<path fill="#FE838D" d="M16,1.25C7.854,1.25,1.25,7.854,1.25,16c0,8.146,6.604,14.75,14.75,14.75c8.146,0,14.75-6.604,14.75-14.75
	C30.75,7.854,24.146,1.25,16,1.25z M16,2.75c7.317,0,13.25,5.932,13.25,13.25c0,7.317-5.933,13.25-13.25,13.25
	C8.682,29.25,2.75,23.317,2.75,16C2.75,8.682,8.682,2.75,16,2.75z M18.53,10.47c0.293,0.293,0.293,0.768,0,1.061L14.061,16
	l4.47,4.47c0.293,0.293,0.293,0.768,0,1.061s-0.768,0.293-1.061,0l-4.929-4.93c-0.332-0.332-0.332-0.87,0-1.202l4.929-4.929
	C17.763,10.177,18.237,10.177,18.53,10.47z"/>
</svg>
