<svg width="32" height="32" viewBox="0 0 32 32" fill="none" xmlns="http://www.w3.org/2000/svg">
<path fill-rule="evenodd" clip-rule="evenodd" d="M16 30.75C24.1462 30.75 30.75 24.1462 30.75 16C30.75 7.8538 24.1462 1.25 16 1.25C7.8538 1.25 1.25 7.8538 1.25 16C1.25 24.1462 7.8538 30.75 16 30.75ZM16 29.25C8.68223 29.25 2.75 23.3178 2.75 16C2.75 8.68223 8.68223 2.75 16 2.75C23.3178 2.75 29.25 8.68223 29.25 16C29.25 23.3178 23.3178 29.25 16 29.25ZM13.4697 21.5303C13.1768 21.2374 13.1768 20.7626 13.4697 20.4697L17.9393 16L13.4697 11.5303C13.1768 11.2374 13.1768 10.7626 13.4697 10.4697C13.7626 10.1768 14.2374 10.1768 14.5303 10.4697L19.4596 15.399C19.7916 15.7309 19.7916 16.2691 19.4596 16.601L14.5303 21.5303C14.2374 21.8232 13.7626 21.8232 13.4697 21.5303Z" fill="#FE838D"/>
</svg>
