<?xml version="1.0" encoding="UTF-8"?>
<svg width="32px" height="32px" viewBox="0 0 32 32" version="1.1" xmlns="http://www.w3.org/2000/svg" xmlns:xlink="http://www.w3.org/1999/xlink">
    <!-- Generator: Sketch 57.1 (83088) - https://sketch.com -->
    <title>icon/add-default-white</title>
    <desc>Created with Sketch.</desc>
    <g id="icon/add-default-white" stroke="none" stroke-width="1" fill="none" fill-rule="evenodd">
        <g id="Group" transform="translate(5.000000, 5.000000)" fill="#FFFFFF" fill-rule="nonzero">
            <g id="Group-2">
                <path d="M11.5,0.25 C17.7132034,0.25 22.75,5.28679656 22.75,11.5 C22.75,17.7132034 17.7132034,22.75 11.5,22.75 C5.28679656,22.75 0.25,17.7132034 0.25,11.5 C0.25,5.28679656 5.28679656,0.25 11.5,0.25 Z M11.5,1.75 C6.11522369,1.75 1.75,6.11522369 1.75,11.5 C1.75,16.8847763 6.11522369,21.25 11.5,21.25 C16.8847763,21.25 21.25,16.8847763 21.25,11.5 C21.25,6.11522369 16.8847763,1.75 11.5,1.75 Z M11.3982294,6.25684662 L11.5,6.25 C11.8796958,6.25 12.193491,6.53215388 12.2431534,6.89822944 L12.25,7 L12.25,10.75 L16,10.75 C16.3796958,10.75 16.693491,11.0321539 16.7431534,11.3982294 L16.75,11.5 C16.75,11.8796958 16.4678461,12.193491 16.1017706,12.2431534 L16,12.25 L12.25,12.25 L12.25,16 C12.25,16.3796958 11.9678461,16.693491 11.6017706,16.7431534 L11.5,16.75 C11.1203042,16.75 10.806509,16.4678461 10.7568466,16.1017706 L10.75,16 L10.75,12.25 L7,12.25 C6.62030423,12.25 6.30650904,11.9678461 6.25684662,11.6017706 L6.25,11.5 C6.25,11.1203042 6.53215388,10.806509 6.89822944,10.7568466 L7,10.75 L10.75,10.75 L10.75,7 C10.75,6.62030423 11.0321539,6.30650904 11.3982294,6.25684662 L11.5,6.25 Z" id="Combined-Shape"></path>
            </g>
        </g>
    </g>
</svg>