<?xml version="1.0" encoding="utf-8"?>
<!-- Generator: Adobe Illustrator 16.0.0, SVG Export Plug-In . SVG Version: 6.00 Build 0)  -->
<!DOCTYPE svg PUBLIC "-//W3C//DTD SVG 1.1//EN" "http://www.w3.org/Graphics/SVG/1.1/DTD/svg11.dtd">
<svg version="1.1" id="Layer_1" xmlns="http://www.w3.org/2000/svg" xmlns:xlink="http://www.w3.org/1999/xlink" x="0px" y="0px"
	 width="16px" height="16px" viewBox="0 0 16 16" enable-background="new 0 0 16 16" xml:space="preserve">
<path fill="#EA5D6C" d="M8.88,7.979l6.467-6.466c0.244-0.244,0.244-0.639,0-0.882c-0.244-0.243-0.637-0.243-0.881,0L8,7.032
	L1.534,0.565c-0.244-0.243-0.638-0.243-0.882,0c-0.242,0.243-0.242,0.637,0,0.881l6.467,6.533l-6.467,6.401
	c-0.242,0.236-0.247,0.625-0.011,0.869c0.004,0.004,0.008,0.008,0.011,0.012c0.112,0.121,0.27,0.188,0.433,0.184
	c0.17,0.004,0.332-0.063,0.45-0.184L8,8.794l6.467,6.467c0.109,0.121,0.268,0.188,0.432,0.184c0.17,0.008,0.334-0.063,0.449-0.184
	c0.244-0.236,0.248-0.627,0.012-0.869c-0.004-0.004-0.008-0.008-0.012-0.012L8.88,7.979z"/>
</svg>
