<svg xmlns="http://www.w3.org/2000/svg" xmlns:xlink="http://www.w3.org/1999/xlink" width="81" height="50" viewBox="0 0 81 50">
    <defs>
        <path id="a" d="M0 .205h79.895V49.02H0z"/>
    </defs>
    <g fill="none" fill-rule="evenodd">
        <path fill="#1D3243" fill-rule="nonzero" d="M58.299 39.5H23.201c-.802 0-1.451.671-1.451 1.5s.65 1.5 1.451 1.5h35.098c.802 0 1.451-.671 1.451-1.5s-.65-1.5-1.451-1.5M58.299 32.5H23.201c-.802 0-1.451.671-1.451 1.5s.65 1.5 1.451 1.5h35.098c.802 0 1.451-.671 1.451-1.5s-.65-1.5-1.451-1.5M71.25 12.5c1.937 0 3.5-1.563 3.5-3.5 0-1.936-1.563-3.5-3.5-3.5a3.495 3.495 0 0 0-3.5 3.5c0 1.937 1.563 3.5 3.5 3.5M58.299 26.5H23.201c-.802 0-1.451.671-1.451 1.5s.65 1.5 1.451 1.5h35.098c.802 0 1.451-.671 1.451-1.5s-.65-1.5-1.451-1.5M73.288 14.5H8.212c-.807 0-1.462.671-1.462 1.5s.655 1.5 1.462 1.5h65.076c.807 0 1.462-.671 1.462-1.5s-.655-1.5-1.462-1.5"/>
        <g transform="translate(.75 .5)">
            <mask id="b" fill="#fff">
                <use xlink:href="#a"/>
            </mask>
            <path fill="#1D3243" fill-rule="nonzero" d="M76.954 37.967c0 4.505-3.738 8.17-8.333 8.17H11.274c-4.595 0-8.333-3.665-8.333-8.17v-26.71c0-4.504 3.738-8.169 8.333-8.169h57.347c4.595 0 8.333 3.665 8.333 8.17v26.709zM68.62.205H11.274C5.057.205 0 5.163 0 11.258v26.709C0 44.06 5.057 49.02 11.274 49.02h57.347c6.216 0 11.274-4.959 11.274-11.053v-26.71C79.895 5.164 74.837.206 68.62.206z" mask="url(#b)"/>
        </g>
    </g>
</svg>
