<svg xmlns="http://www.w3.org/2000/svg" width="56" height="64" viewBox="0 0 56 64">
    <path fill="#1D3243" fill-rule="evenodd" d="M52.975 56.68c0 1.576-.838 3.023-2.244 3.876-.771.417-1.508.62-2.252.62-.787 0-1.49-.182-2.145-.557a1.92 1.92 0 0 0-.237-.15l-.013-.01-13.445-9.723a10.315 10.315 0 0 0-6.082-1.97h-11.02c-6.613 0-11.994-5.38-11.994-11.993v-9.579c0-6.614 5.38-11.994 11.995-11.994h11.02c2.196 0 4.3-.68 6.08-1.969l13.446-9.723.01-.008c.064-.034.149-.084.242-.154 1.272-.727 2.807-.794 4.395.064 1.406.854 2.244 2.301 2.244 3.876V56.68zM52.145 1a.845.845 0 0 0-.05-.028C49.617-.38 46.942-.277 44.814 1a1.311 1.311 0 0 0-.113.075c-.079.042-.19.109-.31.209l-13.39 9.684a7.541 7.541 0 0 1-4.445 1.438h-11.02C7.385 12.406.75 19.04.75 27.194v9.579c0 8.153 6.634 14.787 14.788 14.787h11.02a7.54 7.54 0 0 1 4.444 1.439l13.39 9.683c.118.099.23.166.312.21.036.027.073.051.11.074a7.022 7.022 0 0 0 3.665 1.003c1.214 0 2.43-.328 3.615-.974a.888.888 0 0 0 .05-.029c2.27-1.36 3.624-3.71 3.624-6.286V7.286c0-2.574-1.354-4.924-3.624-6.286zM45.48 42.551c-5.573 0-10.107-4.534-10.107-10.107 0-.992.264-1.968.763-2.824 1.52-2.605 4.906-3.54 7.544-2.083a1.397 1.397 0 0 0 1.954-1.784 11.924 11.924 0 0 0-10.92-7.13h-.738a14.702 14.702 0 0 0-13.885 9.887l-1.66 4.795a13.736 13.736 0 0 1-7.909 8.275 1.397 1.397 0 0 0 1.032 2.596 16.527 16.527 0 0 0 9.517-9.958l1.66-4.795a11.907 11.907 0 0 1 11.245-8.007h.739c2.454 0 4.75.982 6.43 2.646-2.941-.034-5.85 1.456-7.421 4.15a8.4 8.4 0 0 0-1.144 4.232c0 7.113 5.787 12.9 12.9 12.9a1.397 1.397 0 1 0 0-2.793z"/>
</svg>
