<svg xmlns="http://www.w3.org/2000/svg" xmlns:xlink="http://www.w3.org/1999/xlink" width="80" height="68" viewBox="0 0 80 68">
    <defs>
        <path id="a" d="M0 0h78.92v67.52H0z"/>
    </defs>
    <g fill="none" fill-rule="evenodd" transform="translate(.75)">
        <mask id="b" fill="#fff">
            <use xlink:href="#a"/>
        </mask>
        <path fill="#1D3243" fill-rule="nonzero" d="M67.558 53.193l-55.759.601c-4.325.048-7.883-3.389-7.931-7.66-.047-4.269 3.434-7.782 7.76-7.828l55.759-.602c4.324-.047 7.883 3.39 7.93 7.66.047 4.27-3.434 7.782-7.759 7.829zm10.984-21.505a1.678 1.678 0 0 0-1.707-1.648c-.933.01-1.68.764-1.67 1.685l.064 5.732a11.253 11.253 0 0 0-7.88-3.086l-55.759.601a11.25 11.25 0 0 0-7.809 3.256l-.405-36.58A1.677 1.677 0 0 0 1.67 0C.738.01-.01.764 0 1.684l.696 62.82c.01.921.774 1.658 1.706 1.648a1.676 1.676 0 0 0 1.67-1.684L3.957 54.04a11.25 11.25 0 0 0 7.88 3.087l55.758-.602a11.252 11.252 0 0 0 7.81-3.256l.139 12.604c.01.919.774 1.658 1.706 1.647a1.676 1.676 0 0 0 1.67-1.684l-.378-34.149zm-66.298 1.944c3.943-.043 7.093-3.221 7.05-7.115-.043-3.891-3.263-7-7.205-6.958-3.944.043-7.092 3.22-7.05 7.112.044 3.895 3.262 7.003 7.205 6.96z" mask="url(#b)"/>
    </g>
</svg>
