<svg xmlns="http://www.w3.org/2000/svg" xmlns:xlink="http://www.w3.org/1999/xlink" width="69" height="58" viewBox="0 0 69 58">
    <defs>
        <path id="a" d="M0 0h68v58H0z"/>
    </defs>
    <g fill="none" fill-rule="evenodd" transform="translate(.25)">
        <mask id="b" fill="#fff">
            <use xlink:href="#a"/>
        </mask>
        <path fill="#1D3243" fill-rule="nonzero" d="M65.354 47.424c0 4.342-3.461 7.875-7.715 7.875H40.185c-4.254 0-7.715-3.533-7.715-7.875V12.988c0-4.342 3.46-7.875 7.715-7.875h17.454c4.254 0 7.715 3.533 7.715 7.875v34.436zM12.247 18.607h-.001l-1.892.946a4.449 4.449 0 0 1-6.009-2.078l-1.62-3.378a.815.815 0 0 1 .37-1.075l10.461-5.229a.785.785 0 0 1 1.058.361l1.62 3.38a4.601 4.601 0 0 1 .208 3.486 4.552 4.552 0 0 1-2.284 2.632l-1.911.955zM57.639 2.412H40.185c-5.713 0-10.361 4.745-10.361 10.576V33.17c-4.65 1.806-7.779 5.251-9.31 10.256-1.05 3.44-3.526 6.183-6.46 7.16-2.581.86-5.24.333-7.691-1.522-2.316-1.752-3.732-4.38-3.695-6.86.064-4.38 4.364-7.478 7.96-9.305a1.36 1.36 0 0 0 .106-.06c4.683-2.952 5.967-7.116 3.837-12.386l.75-.375a7.217 7.217 0 0 0 3.622-4.176 7.336 7.336 0 0 0-.331-5.556l-1.621-3.38c-.832-1.733-2.896-2.449-4.599-1.599l-1.294.647L8.577.757A1.31 1.31 0 0 0 6.807.14 1.363 1.363 0 0 0 6.2 1.945l2.52 5.257-3.118 1.56L3.08 3.503a1.31 1.31 0 0 0-1.77-.619 1.363 1.363 0 0 0-.606 1.807l2.52 5.257-1.294.647C.226 11.447-.484 13.55.348 15.285l1.621 3.379a7.108 7.108 0 0 0 6.406 4.06c1.057 0 2.13-.239 3.142-.745l.671-.335c1.53 3.903.647 6.675-2.795 8.865C1.733 34.42.067 39.004.021 42.164c-.05 3.383 1.732 6.774 4.766 9.07 2.141 1.62 4.497 2.45 6.856 2.45 1.083 0 2.168-.175 3.232-.53 3.791-1.262 6.845-4.598 8.167-8.924 1.184-3.874 3.412-6.546 6.782-8.13v11.324c0 5.831 4.648 10.576 10.36 10.576H57.64C63.352 58 68 53.255 68 47.424V12.988c0-5.831-4.648-10.576-10.36-10.576zm-4.122 26.443h-6.8l6.907-11.09c.392-.63.21-1.465-.407-1.865a1.307 1.307 0 0 0-1.826.415l-8.2 13.167c-.26.416-.276.942-.044 1.374.233.432.677.7 1.16.7h6.8L44.2 42.649c-.392.63-.21 1.464.406 1.864.22.143.467.211.71.211.437 0 .865-.22 1.117-.625l8.2-13.167c.26-.417.277-.943.044-1.375a1.319 1.319 0 0 0-1.16-.7z" mask="url(#b)"/>
    </g>
</svg>
