<svg xmlns="http://www.w3.org/2000/svg" xmlns:xlink="http://www.w3.org/1999/xlink" width="81" height="49" viewBox="0 0 81 49">
    <defs>
        <path id="a" d="M0 0h80v49H0z"/>
    </defs>
    <g fill="none" fill-rule="evenodd" transform="translate(.75)">
        <mask id="b" fill="#fff">
            <use xlink:href="#a"/>
        </mask>
        <path fill="#1D3243" fill-rule="nonzero" d="M77.055 37.905c0 4.522-3.743 8.2-8.344 8.2H11.289c-4.601 0-8.344-3.678-8.344-8.2v-26.81c0-4.522 3.743-8.2 8.344-8.2h57.422c4.601 0 8.344 3.678 8.344 8.2v26.81zM68.71 0H11.289C5.064 0 0 4.977 0 11.095v26.81C0 44.023 5.064 49 11.289 49h57.422C74.936 49 80 44.023 80 37.905v-26.81C80 4.977 74.936 0 68.711 0zm-7.156 23.053a1.46 1.46 0 0 0-1.472 1.447c0 .8.659 1.448 1.472 1.448h12.453a1.46 1.46 0 0 0 1.473-1.448c0-.8-.66-1.447-1.473-1.447H61.555zM56.728 5.55a1.46 1.46 0 0 0-1.472 1.447v35.006c0 .8.659 1.447 1.472 1.447a1.46 1.46 0 0 0 1.473-1.447V6.997a1.46 1.46 0 0 0-1.473-1.447zM15.123 19.414c1.607 0 2.904-1.276 2.904-2.855 0-1.58-1.297-2.854-2.904-2.854-1.608 0-2.905 1.275-2.905 2.854 0 1.58 1.297 2.855 2.905 2.855zM23.27 5.55c-.813 0-1.472.648-1.472 1.447v35.006c0 .8.66 1.447 1.472 1.447a1.46 1.46 0 0 0 1.473-1.447V6.997A1.46 1.46 0 0 0 23.27 5.55zm-4.826 17.503H5.99A1.46 1.46 0 0 0 4.52 24.5c0 .8.659 1.448 1.472 1.448h12.454a1.46 1.46 0 0 0 1.472-1.448c0-.8-.659-1.447-1.472-1.447z" mask="url(#b)"/>
    </g>
</svg>
