<svg xmlns="http://www.w3.org/2000/svg" xmlns:xlink="http://www.w3.org/1999/xlink" width="77" height="84" viewBox="0 0 77 84">
    <defs>
        <path id="a" d="M0 0h75.873v82.749H0z"/>
    </defs>
    <g fill="none" fill-rule="evenodd" transform="translate(.75 .5)">
        <mask id="b" fill="#fff">
            <use xlink:href="#a"/>
        </mask>
        <path fill="#1D3243" fill-rule="nonzero" d="M26.776 61.055c-4.986 0-9.041-4.058-9.041-9.046 0-4.987 4.055-9.045 9.041-9.045 4.986 0 9.042 4.058 9.042 9.045 0 4.988-4.056 9.046-9.042 9.046zm0-21.259c-6.732 0-12.208 5.479-12.208 12.213 0 6.735 5.476 12.214 12.208 12.214s12.208-5.479 12.208-12.214c0-6.734-5.476-12.213-12.208-12.213zm25.756 17.821a5.613 5.613 0 0 1-5.605-5.607 5.613 5.613 0 0 1 5.605-5.608 5.613 5.613 0 0 1 5.606 5.608 5.613 5.613 0 0 1-5.606 5.607zm0-14.383c-4.837 0-8.772 3.937-8.772 8.776s3.935 8.775 8.772 8.775c4.838 0 8.773-3.936 8.773-8.775 0-4.84-3.935-8.776-8.773-8.776zm15.972 14.338V46.448c2.422.69 4.202 2.92 4.202 5.562 0 2.642-1.78 4.87-4.202 5.562zm-3.167 3.925c0 9.972-8.109 18.084-18.076 18.084H28.612c-9.967 0-18.077-8.112-18.077-18.084V42.84c0-9.971 8.11-18.084 18.077-18.084h18.649c4.82 0 9.356 1.884 12.775 5.304 3.418 3.42 5.301 7.959 5.301 12.78v18.656zM33.193 7.913a4.749 4.749 0 0 1 4.743-4.745 4.75 4.75 0 0 1 4.744 4.745 4.75 4.75 0 0 1-4.744 4.745 4.75 4.75 0 0 1-4.743-4.745zM7.368 57.572c-2.422-.692-4.201-2.92-4.201-5.561a5.794 5.794 0 0 1 4.201-5.563v11.124zm61.136-14.369v-.362c0-5.667-2.212-11.002-6.229-15.02-4.017-4.018-9.35-6.231-15.014-6.231h-7.742v-5.923c3.605-.736 6.327-3.934 6.327-7.754 0-4.364-3.548-7.913-7.91-7.913s-7.91 3.55-7.91 7.913c0 3.82 2.722 7.018 6.327 7.754v5.923h-7.74c-11.715 0-21.245 9.533-21.245 21.251v.362C3.186 43.953 0 47.613 0 52.011c0 4.395 3.186 8.054 7.368 8.805v.68c0 11.72 9.53 21.253 21.244 21.253h18.649c11.713 0 21.243-9.533 21.243-21.252v-.68c4.182-.752 7.369-4.41 7.369-8.807s-3.187-8.056-7.37-8.807z" mask="url(#b)"/>
    </g>
</svg>
