<svg xmlns="http://www.w3.org/2000/svg" xmlns:xlink="http://www.w3.org/1999/xlink" width="48" height="67" viewBox="0 0 48 67">
    <defs>
        <path id="a" d="M0 0h46.44v66.296H0z"/>
    </defs>
    <g fill="none" fill-rule="evenodd">
        <g transform="translate(.75)">
            <mask id="b" fill="#fff">
                <use xlink:href="#a"/>
            </mask>
            <path fill="#1D3243" fill-rule="nonzero" d="M12.604 3.222c-5.175 0-9.385 4.213-9.385 9.391v41.07c0 5.178 4.21 9.392 9.385 9.392h21.233c5.174 0 9.384-4.214 9.384-9.393V12.613c0-5.178-4.21-9.391-9.384-9.391H12.604zm21.233 63.074H12.604C5.654 66.296 0 60.637 0 53.682V12.613C0 5.658 5.654 0 12.604 0h21.233C40.786 0 46.44 5.658 46.44 12.613v41.07c0 6.954-5.655 12.613-12.604 12.613z" mask="url(#b)"/>
        </g>
        <path fill="#1D3243" fill-rule="nonzero" d="M12.846 8.21c-1.579 0-2.864 1.275-2.864 2.844v37.892c0 1.568 1.285 2.845 2.864 2.845h22.807c1.58 0 2.865-1.277 2.865-2.845V11.054c0-1.57-1.285-2.845-2.865-2.845H12.846zM35.653 55H12.846c-3.361 0-6.096-2.716-6.096-6.054V11.054C6.75 7.715 9.485 5 12.846 5h22.807c3.361 0 6.097 2.715 6.097 6.054v37.892c0 3.338-2.736 6.054-6.097 6.054zM31.1 61H17.4c-.911 0-1.65-.671-1.65-1.5s.739-1.5 1.65-1.5h13.7c.911 0 1.65.671 1.65 1.5S32.011 61 31.1 61"/>
    </g>
</svg>
