<svg xmlns="http://www.w3.org/2000/svg" xmlns:xlink="http://www.w3.org/1999/xlink" width="79" height="50" viewBox="0 0 79 50">
    <defs>
        <path id="a" d="M0 0h78v49H0z"/>
    </defs>
    <g fill="none" fill-rule="evenodd" transform="translate(.75 .5)">
        <mask id="b" fill="#fff">
            <use xlink:href="#a"/>
        </mask>
        <path fill="#1D3243" fill-rule="nonzero" d="M69.458 34.678c0 3.241-2.616 5.878-5.83 5.878H14.372c-3.216 0-5.831-2.637-5.831-5.878V14.322c0-3.24 2.615-5.878 5.83-5.878h49.255c3.215 0 5.831 2.637 5.831 5.878v20.356zM63.628 5.55H14.372c-4.799 0-8.703 3.935-8.703 8.772v20.356c0 4.837 3.904 8.772 8.703 8.772h49.254c4.799 0 8.703-3.935 8.703-8.772V14.322c0-4.837-3.904-8.772-8.703-8.772zm11.5 32.355c0 4.522-3.648 8.2-8.135 8.2H11.007c-4.487 0-8.136-3.678-8.136-8.2v-26.81c0-4.522 3.65-8.2 8.136-8.2h55.986c4.487 0 8.136 3.678 8.136 8.2v26.81zM66.994 0H11.007C4.937 0 0 4.977 0 11.095v26.81C0 44.023 4.937 49 11.007 49h55.986C73.063 49 78 44.023 78 37.905v-26.81C78 4.977 73.062 0 66.993 0z" mask="url(#b)"/>
    </g>
</svg>
