<svg width="140" height="48" viewBox="0 0 140 48" fill="none" xmlns="http://www.w3.org/2000/svg">
<path fill-rule="evenodd" clip-rule="evenodd" d="M66.7753 10.1326C73.7753 10.1326 79.0673 15.7326 79.0673 24C79.0673 32.2674 73.7753 37.8674 66.7753 37.8674C63.1937 37.8674 60.6597 36.4869 58.5853 34.0411L58.226 33.6H57.96V48H53.9513V10.6674H57.4257L57.96 14.4H58.226C60.3633 11.68 62.9813 10.1326 66.7753 10.1326ZM28.5787 29.7257C29.3344 31.0419 30.4365 32.1357 31.7702 32.893C33.1039 33.6504 34.6205 34.0437 36.162 34.032C39.2257 34.032 41.8087 32.6309 43.2203 30.1486L43.4443 29.7257H47.761C45.871 34.8937 41.825 37.8011 36.1597 37.8011C30.968 37.8011 26.6 34.9257 24.521 30.2514L24.2993 29.7257H28.5763H28.5787ZM100.529 29.7257C101.285 31.0419 102.387 32.1357 103.721 32.893C105.055 33.6504 106.571 34.0437 108.113 34.032C111.179 34.032 113.759 32.6309 115.171 30.1486L115.395 29.7257H119.712C117.822 34.8937 113.776 37.8011 108.11 37.8011C102.919 37.8011 98.5507 34.9257 96.4717 30.2514L96.25 29.7257H100.529ZM4.00867 0V22.9326L16.03 10.6674H21.1073L8.28333 23.7326L21.6417 37.3326H16.5643L4.00867 24.5326V37.3326H0V0H4.00867ZM129.579 10.6674L130.116 13.3326H130.382C131.385 11.8789 132.393 10.8 134.958 10.6789L135.457 10.6674H140V14.4H135.991C132.351 14.4 130.284 16.3177 130.123 19.8194L130.114 20.2674V37.3326H126.107V10.6674H129.579ZM88.97 0V37.3326H84.9613V0H88.97ZM66.5093 13.8674C61.9663 13.8674 57.96 17.8674 57.96 24C57.96 30.1326 61.9663 34.1326 66.5093 34.1326C71.05 34.1326 75.0587 30.1326 75.0587 24C75.0587 17.8674 71.05 13.8674 66.5093 13.8674ZM36.1597 9.80343C43.2297 9.80343 48.5683 15.1863 48.5683 22.7246C48.5683 23.648 48.489 24.3337 48.433 24.816L48.4073 25.04L48.3047 25.6503H23.3123C23.2465 25.036 23.213 24.4188 23.212 23.8011C23.212 15.4583 28.8773 9.80343 36.162 9.80343H36.1597ZM108.11 9.80343C115.18 9.80343 120.519 15.1863 120.519 22.7246C120.519 23.648 120.44 24.3337 120.384 24.816L120.358 25.04L120.255 25.6503H95.263C95.1971 25.036 95.1636 24.4188 95.1627 23.8011C95.1627 15.4583 100.826 9.80343 108.11 9.80343ZM36.1597 13.5726C31.4137 13.5726 28.0817 16.7931 27.328 21.4331L27.258 21.9177H44.5247C44.254 17.0171 40.7447 13.5726 36.1597 13.5726ZM108.11 13.5726C103.364 13.5726 100.03 16.7931 99.2787 21.4331L99.2087 21.9177H116.475C116.205 17.0171 112.695 13.5726 108.11 13.5726Z" fill="white"/>
</svg>
