<?xml version="1.0" encoding="utf-8"?>
<!-- Generator: Adobe Illustrator 16.0.0, SVG Export Plug-In . SVG Version: 6.00 Build 0)  -->
<!DOCTYPE svg PUBLIC "-//W3C//DTD SVG 1.1//EN" "http://www.w3.org/Graphics/SVG/1.1/DTD/svg11.dtd">
<svg version="1.1" id="Layer_1" xmlns="http://www.w3.org/2000/svg" xmlns:xlink="http://www.w3.org/1999/xlink" x="0px" y="0px"
	 width="133px" height="80px" viewBox="0 0 133 80" enable-background="new 0 0 133 80" xml:space="preserve">
<g>
	<defs>
		<rect id="SVGID_1_" x="41.5" width="56" height="80"/>
	</defs>
	<clipPath id="SVGID_2_">
		<use xlink:href="#SVGID_1_"  overflow="visible"/>
	</clipPath>
	<g clip-path="url(#SVGID_2_)">
		<path fill="#EC778F" fill-opacity="0.2" d="M133.361,11.109c14.541,0,25.535,11.667,25.535,28.891s-10.994,28.891-25.535,28.891
			c-7.441,0-12.705-2.877-17.016-7.972L115.6,60h-0.553v30h-8.328V12.224h7.219L115.047,20h0.553
			C120.039,14.333,125.479,11.109,133.361,11.109z M54.008,51.929c1.569,2.742,3.858,5.021,6.63,6.599
			c2.771,1.578,5.921,2.396,9.124,2.373c6.365,0,11.73-2.92,14.664-8.091l0.465-0.881h8.969
			c-3.928,10.767-12.332,16.823-24.102,16.823c-10.787,0-19.861-5.99-24.18-15.729l-0.461-1.095h8.887H54.008z M203.484,51.929
			c1.57,2.742,3.859,5.021,6.631,6.599s5.92,2.396,9.123,2.373c6.369,0,11.732-2.92,14.664-8.091l0.465-0.881h8.969
			c-3.928,10.767-12.332,16.823-24.102,16.823c-10.787,0-19.859-5.99-24.18-15.729l-0.461-1.095H203.484z M2.964-10v47.776
			l24.974-25.553h10.548L11.844,39.443l27.752,28.333H29.048L2.964,41.109v26.667h-8.328V-10H2.964z M263.836,12.224l1.113,5.553
			h0.555c2.084-3.029,4.178-5.276,9.506-5.529l1.037-0.024h9.438V20h-8.328c-7.563,0-11.857,3.995-12.191,11.291l-0.02,0.933v35.553
			h-8.324V12.224H263.836z M179.471-10v77.776h-8.328V-10H179.471z M132.809,18.891c-9.439,0-17.762,8.333-17.762,21.109
			s8.322,21.109,17.762,21.109c9.432,0,17.76-8.333,17.76-21.109S142.24,18.891,132.809,18.891z M69.758,10.424
			c14.688,0,25.777,11.214,25.777,26.919c0,1.924-0.164,3.353-0.279,4.357l-0.055,0.466l-0.213,1.271H43.067
			c-0.137-1.279-0.207-2.564-0.209-3.852c0-17.381,11.771-29.162,26.904-29.162H69.758z M219.234,10.424
			c14.688,0,25.779,11.214,25.779,26.919c0,1.924-0.166,3.353-0.281,4.357l-0.055,0.466l-0.213,1.271h-51.92
			c-0.139-1.279-0.207-2.564-0.209-3.852C192.336,22.205,204.1,10.424,219.234,10.424z M69.758,18.276
			c-9.861,0-16.783,6.709-18.349,16.376l-0.145,1.01h35.871C86.572,25.453,79.281,18.276,69.758,18.276z M219.234,18.276
			c-9.859,0-16.787,6.709-18.348,16.376l-0.146,1.01h35.871C236.051,25.453,228.76,18.276,219.234,18.276z"/>
	</g>
</g>
</svg>
