<svg width="130" height="45" viewBox="0 0 130 45" fill="none" xmlns="http://www.w3.org/2000/svg">
<path fill-rule="evenodd" clip-rule="evenodd" d="M62.0057 9.42078C68.5057 9.42078 73.4197 14.6274 73.4197 22.314C73.4197 30.0007 68.5057 35.2073 62.0057 35.2073C58.6798 35.2073 56.3268 33.9237 54.4007 31.6498L54.067 31.2397H53.82V44.6281H50.0977V9.91806H53.3238L53.82 13.3884H54.067C56.0517 10.8595 58.4827 9.42078 62.0057 9.42078ZM26.5373 27.6375C27.2391 28.8613 28.2625 29.8782 29.5009 30.5823C30.7393 31.2865 32.1476 31.6522 33.579 31.6413C36.4238 31.6413 38.8223 30.3386 40.1332 28.0307L40.3412 27.6375H44.3495C42.5945 32.4425 38.8375 35.1457 33.5768 35.1457C28.756 35.1457 24.7 32.4723 22.7695 28.1263L22.5637 27.6375H26.5352H26.5373ZM93.3487 27.6375C94.0504 28.8613 95.0738 29.8782 96.3122 30.5823C97.5507 31.2865 98.9589 31.6522 100.39 31.6413C103.237 31.6413 105.634 30.3386 106.945 28.0307L107.153 27.6375H111.161C109.406 32.4425 105.649 35.1457 100.388 35.1457C95.5673 35.1457 91.5113 32.4723 89.5808 28.1263L89.375 27.6375H93.3487ZM3.72233 0V21.3216L14.885 9.91806H19.5997L7.69167 22.0654L20.0958 34.71H15.3812L3.72233 22.8092V34.71H0V0H3.72233ZM120.324 9.91806L120.822 12.396H121.069C122.001 11.0444 122.937 10.0413 125.318 9.92869L125.782 9.91806H130V13.3884H126.278C122.898 13.3884 120.978 15.1714 120.828 18.4272L120.82 18.8437V34.71H117.1V9.91806H120.324ZM82.615 0V34.71H78.8927V0H82.615ZM61.7587 12.8933C57.5402 12.8933 53.82 16.6123 53.82 22.314C53.82 28.0158 57.5402 31.7348 61.7587 31.7348C65.975 31.7348 69.6973 28.0158 69.6973 22.314C69.6973 16.6123 65.975 12.8933 61.7587 12.8933ZM33.5768 9.11476C40.1418 9.11476 45.0992 14.1195 45.0992 21.1282C45.0992 21.9868 45.0255 22.6243 44.9735 23.0727L44.9497 23.281L44.8543 23.8484H21.6472C21.586 23.2773 21.5549 22.7034 21.554 22.1292C21.554 14.3724 26.8147 9.11476 33.579 9.11476H33.5768ZM100.388 9.11476C106.953 9.11476 111.911 14.1195 111.911 21.1282C111.911 21.9868 111.837 22.6243 111.785 23.0727L111.761 23.281L111.666 23.8484H88.4585C88.3973 23.2773 88.3662 22.7034 88.3653 22.1292C88.3653 14.3724 93.6238 9.11476 100.388 9.11476ZM33.5768 12.6191C29.1698 12.6191 26.0758 15.6135 25.376 19.9275L25.311 20.378H41.3443C41.093 15.8217 37.8343 12.6191 33.5768 12.6191ZM100.388 12.6191C95.9812 12.6191 92.885 15.6135 92.1873 19.9275L92.1223 20.378H108.156C107.904 15.8217 104.646 12.6191 100.388 12.6191Z" fill="white"/>
</svg>
