<svg width="21" height="25" viewBox="0 0 21 25" fill="none" xmlns="http://www.w3.org/2000/svg">
<path fill-rule="evenodd" clip-rule="evenodd" d="M9.77735 24.4358C3.67704 19.2702 0.59375 14.4722 0.59375 10.0052C0.59375 3.91335 5.15045 0.103516 10.3057 0.103516C16.1295 0.103516 20.7942 3.36969 20.7942 10.0052C20.7942 15.0194 17.7385 19.8445 11.6995 24.4818C11.1278 24.9207 10.3274 24.9016 9.77735 24.4358ZM10.6255 23.4342C10.7041 23.5007 10.8185 23.5035 10.9001 23.4408C16.6453 19.0291 19.4817 14.5503 19.4817 10.0052C19.4817 4.21511 15.4841 1.41602 10.3057 1.41602C5.82853 1.41602 1.90625 4.69542 1.90625 10.0052C1.90625 14.0049 4.79057 18.4933 10.6255 23.4342ZM10.4375 14.9065C12.9746 14.9065 15.0312 12.8498 15.0312 10.3128C15.0312 7.77572 12.9746 5.71902 10.4375 5.71902C7.90044 5.71902 5.84375 7.77572 5.84375 10.3128C5.84375 12.8498 7.90044 14.9065 10.4375 14.9065ZM10.4375 13.594C8.62532 13.594 7.15625 12.125 7.15625 10.3128C7.15625 8.50059 8.62532 7.03152 10.4375 7.03152C12.2497 7.03152 13.7188 8.50059 13.7188 10.3128C13.7188 12.125 12.2497 13.594 10.4375 13.594Z" fill="#453D98"/>
</svg>
