<svg width="32" height="32" viewBox="0 0 32 32" fill="none" xmlns="http://www.w3.org/2000/svg">
<rect opacity="0.01" width="32" height="32" fill="white"/>
<path fill-rule="evenodd" clip-rule="evenodd" d="M20.7374 9.69029C21.1187 9.30897 21.737 9.30897 22.1183 9.69029C22.4996 10.0716 22.4996 10.6899 22.1183 11.0712L17.2852 15.9043L22.1183 20.7374C22.4996 21.1187 22.4996 21.737 22.1183 22.1183C21.737 22.4996 21.1187 22.4996 20.7374 22.1183L15.9043 17.2852L11.0712 22.1183C10.6899 22.4996 10.0716 22.4996 9.69029 22.1183C9.30897 21.737 9.30897 21.1187 9.69029 20.7374L14.5234 15.9043L9.69029 11.0712C9.30897 10.6899 9.30897 10.0716 9.69029 9.69029C10.0716 9.30897 10.6899 9.30897 11.0712 9.69029L15.9043 14.5234L20.7374 9.69029Z" fill="white"/>
</svg>
