<?xml version="1.0" encoding="UTF-8"?>
<svg width="84px" height="84px" viewBox="0 0 84 84" version="1.1" xmlns="http://www.w3.org/2000/svg" xmlns:xlink="http://www.w3.org/1999/xlink">
    <!-- Generator: Sketch 58 (84663) - https://sketch.com -->
    <title>icon/color-money copy</title>
    <desc>Created with Sketch.</desc>
    <defs>
        <polygon id="path-1" points="0 0.000256701031 82.5976639 0.000256701031 82.5976639 82.5971505 0 82.5971505"></polygon>
    </defs>
    <g id="icon/color-money-copy" stroke="none" stroke-width="1" fill="none" fill-rule="evenodd">
        <g id="Group-4" transform="translate(1.000000, 1.000000)">
            <g id="Group-3">
                <mask id="mask-2" fill="white">
                    <use xlink:href="#path-1"></use>
                </mask>
                <g id="Clip-2"></g>
                <path d="M50.3851072,50.7987381 C50.3851072,54.1392742 47.4920866,56.7473567 43.4379216,57.2992639 L43.4379216,44.0432227 C49.7844268,45.8127485 50.3851072,48.2899134 50.3851072,50.7037588 L50.3851072,50.7987381 Z M39.1595711,38.6225526 C32.813066,36.8530268 32.2123856,34.3758619 32.2123856,31.9620165 L32.2123856,31.8670371 C32.2123856,28.526501 35.1054062,25.9184186 39.1595711,25.3665113 L39.1595711,38.6225526 Z M43.4379216,39.6245423 L43.4379216,25.4264082 C46.1717876,25.8003361 48.3631588,26.8288515 50.8514474,28.8259856 C51.7747155,29.5678515 53.1206845,29.4189649 53.8591278,28.4982639 C54.5984268,27.5758515 54.4512515,26.2298825 53.5305505,25.4905835 C50.2730144,22.8748 47.2020144,21.5399546 43.4379216,21.129233 L43.4379216,16.5556763 C43.4379216,15.3748515 42.4804268,14.416501 41.2987464,14.416501 C40.117066,14.416501 39.1595711,15.3748515 39.1595711,16.5556763 L39.1595711,21.0624907 C32.6590454,21.6965423 27.9340351,26.1246351 27.9340351,31.8670371 L27.9340351,31.9620165 C27.9340351,35.8664392 29.2611794,40.5820371 39.1595711,43.041233 L39.1595711,57.239367 C36.4257052,56.8654392 34.234334,55.8369237 31.7460454,53.8397897 C30.823633,53.0987794 29.4759526,53.2468103 28.7383649,54.168367 C27.999066,55.0899237 28.1462412,56.4358928 29.0669423,57.1751918 C32.3244784,59.7909753 35.3946227,61.1258206 39.1595711,61.5365423 L39.1595711,66.0416454 C39.1595711,67.2233258 40.117066,68.1808206 41.2987464,68.1808206 C42.4804268,68.1808206 43.4379216,67.2233258 43.4379216,66.0416454 L43.4379216,61.6032845 C49.9384474,60.969233 54.6634577,56.5411402 54.6634577,50.7987381 L54.6634577,50.7037588 C54.6634577,46.7993361 53.3363134,42.0837381 43.4379216,39.6245423 L43.4379216,39.6245423 Z M78.3193134,53.8962639 C78.3193134,67.3628 67.3633134,78.3188 53.8967773,78.3188 L28.7015711,78.3188 C15.2350351,78.3188 4.27817938,67.3628 4.27817938,53.8962639 L4.27903505,28.7019134 C4.27903505,15.2345216 15.2350351,4.27852165 28.7015711,4.27852165 L53.8967773,4.27852165 C60.4092825,4.27852165 66.5384474,6.8215732 71.156499,11.4404804 C75.7762619,16.0593876 78.3193134,22.1894082 78.3193134,28.7019134 L78.3193134,53.8962639 Z M74.1821485,8.4156866 C68.7563443,2.9890268 61.5524577,0.000171134021 53.8967773,0.000171134021 L28.7015711,0.000171134021 C12.8759526,0.000171134021 0.000684536082,12.8754392 0.000684536082,28.7019134 L-0.000171134021,53.8962639 C-0.000171134021,69.7218825 12.8750969,82.5971505 28.7015711,82.5971505 L53.8967773,82.5971505 C69.7223959,82.5971505 82.5976639,69.7218825 82.5976639,53.8962639 L82.5976639,28.7019134 C82.5976639,21.0470887 79.6088082,13.8432021 74.1821485,8.4156866 L74.1821485,8.4156866 Z" id="Fill-1" fill="#000000" mask="url(#mask-2)"></path>
            </g>
        </g>
    </g>
</svg>