<svg width="16" height="16" viewBox="0 0 16 16" fill="none" xmlns="http://www.w3.org/2000/svg">
<path fill-rule="evenodd" clip-rule="evenodd" d="M7.62514 2.25C8.03935 2.25 8.37514 2.58579 8.37514 3V7.25005H12.625C13.0392 7.25005 13.375 7.58584 13.375 8.00005C13.375 8.41426 13.0392 8.75005 12.625 8.75005H8.37514V13C8.37514 13.4142 8.03935 13.75 7.62514 13.75C7.21092 13.75 6.87514 13.4142 6.87514 13V8.75005H2.625C2.21079 8.75005 1.875 8.41426 1.875 8.00005C1.875 7.58584 2.21079 7.25005 2.625 7.25005H6.87514V3C6.87514 2.58579 7.21092 2.25 7.62514 2.25Z" fill="#453D98"/>
</svg>
