<svg width="112" height="13" viewBox="0 0 112 13" fill="none" xmlns="http://www.w3.org/2000/svg">
<path fill-rule="evenodd" clip-rule="evenodd" d="M7.7559 2.99976H0V11.1269H1.90408V8.41793H7.7559C9.13096 8.41793 10.2434 7.20504 10.2434 5.70901C10.2434 4.21297 9.12699 2.99976 7.7559 2.99976ZM24.3088 2.99976H30.4538C31.5858 2.99976 32.5012 3.99874 32.5012 5.23178V8.89483C32.5012 10.1282 31.5815 11.1269 30.4538 11.1269H24.3088C23.1769 11.1269 22.2578 10.1282 22.2578 8.89483V5.23178C22.2578 3.99874 23.1769 2.99976 24.3088 2.99976ZM30.7304 5.13257C30.8166 5.24551 30.871 5.39909 30.871 5.57346V8.55506C30.871 8.72496 30.8166 8.88269 30.7304 8.99627C30.8199 8.89101 30.8776 8.72912 30.8776 8.55506V5.57378C30.8776 5.39941 30.8199 5.23783 30.7304 5.13257ZM44.135 6.19725V8.06249H47.6759V6.19725H44.135ZM30.1484 9.12839H24.6051C24.5281 9.12839 24.455 9.11229 24.3856 9.07976C24.3509 9.06333 24.3162 9.04304 24.2855 9.01857C24.2547 9.00214 24.2237 8.9738 24.1969 8.9416C24.0931 8.82759 24.0273 8.66849 24.0273 8.49748V5.4959C24.0273 5.32038 24.0928 5.16579 24.1969 5.05211C24.2237 5.01958 24.2547 4.99091 24.2855 4.97449C24.3162 4.95034 24.3509 4.9294 24.3856 4.9133C24.455 4.88077 24.5281 4.86499 24.6051 4.86499H30.1484C30.31 4.86499 30.4564 4.9381 30.5605 5.05243C30.6643 5.16611 30.7298 5.3207 30.7298 5.49622V8.49748C30.7298 8.66849 30.6643 8.82727 30.5605 8.9416C30.4561 9.05915 30.31 9.12839 30.1484 9.12839ZM18.7576 8.41826L18.7675 8.41791C18.8095 8.41774 18.8512 8.41644 18.8926 8.41402L21.3713 11.1272H18.7714L16.2969 8.41826H18.7576ZM18.8926 8.41402L18.8888 8.40991C18.8265 8.41435 18.7861 8.41702 18.7675 8.41791L18.758 8.41793H12.9023V11.1269H11.0022V2.99976H18.7583C20.1294 2.99976 21.2455 4.21297 21.2455 5.70901C21.2455 7.15577 20.2015 8.33774 18.8926 8.41402ZM1.89648 6.46376H7.61436C8.01692 6.46376 8.346 6.10562 8.346 5.66438C8.346 5.22313 8.01692 4.86499 7.61436 4.86499H1.89648V6.46376ZM12.8984 6.46376H18.6168C19.0191 6.46376 19.348 6.10562 19.348 5.66438C19.348 5.22313 19.0188 4.86499 18.6168 4.86499H12.8984V6.46376ZM50.9074 4.91158H57.7942V2.99976H50.6133C49.4837 2.99976 48.5625 3.99874 48.5625 5.23178V8.89483C48.5625 10.1282 49.4795 11.1269 50.6133 11.1269H57.7942V9.21537H50.9074C50.5821 9.21537 50.319 8.92767 50.319 8.5782V8.1013H57.7942V6.18558H50.319V5.54874C50.319 5.19895 50.5861 4.91158 50.9074 4.91158ZM38.494 4.93994V2.99976H42.9958V8.89474C42.9958 10.1282 42.0847 11.1269 40.9583 11.1269H35.4259C34.2995 11.1269 33.3848 10.1282 33.3848 8.89474V8.10151H35.1337V8.57842C35.1337 8.9279 35.3952 9.21561 35.7184 9.21561H40.6659C40.9893 9.21561 41.2505 8.9279 41.2505 8.57842V4.91165L38.494 4.93994Z" fill="white"/>
<path fill-rule="evenodd" clip-rule="evenodd" d="M97.451 12.9669C97.183 12.9703 96.0194 12.8981 95.6577 12.8607C95.1037 12.7967 94.6428 12.7268 94.1718 12.4559V10.8766C94.6506 10.7588 95.1846 10.6672 95.636 10.6508C96.1243 10.6247 97.767 10.6215 98.2014 10.6247C99.0055 10.6562 99.2975 10.3472 99.3258 9.87267C99.3468 9.59696 99.3383 9.32723 99.3293 9.05458C99.3198 8.65783 99.0055 8.42737 98.4544 8.3169C97.7353 8.19892 95.764 7.87319 94.9043 7.52568C94.6285 7.42055 94.3652 7.28973 94.1257 7.11012C93.6084 6.69874 93.1932 6.13235 93.2309 4.80393C93.3903 3.18514 93.4935 2.40053 94.0856 1.44094C94.5162 0.811638 95.248 0.0564861 96.8549 0C97.1251 0 98.4568 0.0236323 98.5618 0.0358405C101.262 0.233001 102.134 2.27303 102.147 3.5506C102.166 3.90281 102.237 8.37779 102.24 9.06481C102.24 9.08062 102.24 9.10111 102.24 9.12578C102.245 9.42056 102.257 10.3118 102.01 10.9431C101.708 11.8478 100.877 12.8556 99.2239 12.9497C99.0125 12.9756 97.8133 12.9713 97.451 12.9669ZM99.3169 5.88116L99.3169 5.88066C99.3218 4.95439 99.3273 3.92044 99.2866 3.54088C99.2684 3.24184 99.1794 2.57244 98.5163 2.36192C98.3725 2.31663 97.3306 2.27717 97.1872 2.3076C96.6955 2.42535 96.4351 2.80783 96.3174 3.39371C96.2468 3.79445 96.183 4.32448 96.2197 4.75741C96.231 5.22053 96.4686 5.54941 96.7677 5.63322C96.8889 5.66716 97.258 5.73969 97.5955 5.80599L97.5955 5.80599C97.8376 5.85356 98.0634 5.89791 98.1696 5.92252C98.5618 6.01339 98.9552 6.10594 99.3146 6.33846C99.3152 6.19185 99.316 6.03849 99.3169 5.88204L99.3169 5.88162L99.3169 5.88116ZM88.0172 6.34311C87.5925 6.38026 87.0191 6.4892 86.7951 6.55864C86.7957 7.0739 86.7954 7.48905 86.7952 7.85806L86.7949 8.36817C87.3168 8.64566 87.7342 8.69398 88.1483 8.74191L88.1483 8.74191L88.1483 8.74192C88.2099 8.74904 88.2714 8.75616 88.3331 8.76402C89.4538 8.87326 90.9033 8.87819 91.4713 8.8232C91.9585 8.79176 92.3293 8.75559 92.9698 8.59367V6.80717C92.4618 6.49842 91.8633 6.43244 91.2911 6.36937L91.2399 6.36372C90.4248 6.29327 89.2122 6.2301 88.0172 6.34311ZM107.004 12.9962C106.736 12.9996 105.572 12.9274 105.21 12.89C104.656 12.8261 104.195 12.7561 103.725 12.4852V10.9059C104.203 10.7881 104.737 10.6965 105.189 10.6802C105.677 10.6541 107.32 10.6508 107.754 10.654C108.558 10.6855 108.85 10.3766 108.879 9.90197C108.9 9.62626 108.891 9.35652 108.882 9.08391C108.872 8.68717 108.558 8.4567 108.007 8.3462C107.288 8.22822 105.317 7.90252 104.457 7.55502C104.181 7.44988 103.918 7.31903 103.678 7.13945C103.161 6.72807 102.746 6.16168 102.784 4.83327C102.943 3.21443 103.046 2.42986 103.638 1.47023C104.069 0.841009 104.801 0.0858203 106.408 0.0292969C106.678 0.0292969 108.01 0.0529665 108.114 0.0651747C110.815 0.262335 111.687 2.30237 111.7 3.5799C111.719 3.9321 111.789 8.40712 111.793 9.09414C111.793 9.10994 111.793 9.13041 111.793 9.15505C111.797 9.44974 111.81 10.341 111.563 10.9724C111.26 11.8772 110.43 12.8849 108.777 12.9791C108.565 13.0049 107.366 13.0007 107.004 12.9962ZM108.872 5.90733C108.871 6.06516 108.87 6.21988 108.869 6.36773C108.51 6.13522 108.116 6.04267 107.724 5.95183C107.618 5.92721 107.392 5.88285 107.15 5.8353C106.813 5.76899 106.444 5.69645 106.322 5.6625C106.023 5.57872 105.786 5.24985 105.774 4.78668C105.738 4.3538 105.801 3.82377 105.872 3.42303C105.99 2.83714 106.25 2.45462 106.742 2.33687C106.885 2.30648 107.927 2.34594 108.071 2.39123C108.734 2.60176 108.823 3.27111 108.841 3.5702C108.882 3.9494 108.876 4.98175 108.872 5.90733Z" fill="white"/>
</svg>
