<svg width="74" height="74" viewBox="0 0 74 74" fill="none" xmlns="http://www.w3.org/2000/svg">
<path d="M14.4919 54.5749C11.4086 51.1832 9.55859 47.4832 9.55859 41.3165C9.55859 30.5249 17.2669 20.9665 28.0586 16.0332L30.8336 20.0415C20.6586 25.5915 18.5003 32.6832 17.8836 37.3082C19.4253 36.3832 21.5836 36.0749 23.7419 36.3832C29.2919 36.9999 33.6086 41.3165 33.6086 47.1749C33.6086 49.9499 32.3753 52.7249 30.5253 54.8832C28.3669 57.0415 25.9003 57.9665 22.8169 57.9665C19.4253 57.9665 16.3419 56.4249 14.4919 54.5749ZM45.3253 54.5749C42.2419 51.1832 40.3919 47.4832 40.3919 41.3165C40.3919 30.5249 48.1003 20.9665 58.8919 16.0332L61.6669 20.0415C51.4919 25.5915 49.3336 32.6832 48.7169 37.3082C50.2586 36.3832 52.4169 36.0749 54.5753 36.3832C60.1253 36.9999 64.4419 41.3165 64.4419 47.1749C64.4419 49.9499 63.2086 52.7249 61.3586 54.8832C59.5086 57.0415 56.7336 57.9665 53.6503 57.9665C50.2586 57.9665 47.1753 56.4249 45.3253 54.5749Z" fill="#1D3243"/>
</svg>
