<?xml version="1.0" encoding="utf-8"?>
<!-- Generator: Adobe Illustrator 16.0.0, SVG Export Plug-In . SVG Version: 6.00 Build 0)  -->
<!DOCTYPE svg PUBLIC "-//W3C//DTD SVG 1.1//EN" "http://www.w3.org/Graphics/SVG/1.1/DTD/svg11.dtd">
<svg version="1.1" id="Layer_1" xmlns="http://www.w3.org/2000/svg" xmlns:xlink="http://www.w3.org/1999/xlink" x="0px" y="0px"
	 width="31.5px" height="31.583px" viewBox="5.833 5.918 31.5 31.583" enable-background="new 5.833 5.918 31.5 31.583"
	 xml:space="preserve">
<path fill="#453D98" d="M21.656,36.422c8.154,0,14.766-6.611,14.766-14.766c0-8.155-6.611-14.766-14.766-14.766
	c-8.155,0-14.766,6.611-14.766,14.766C6.891,29.811,13.501,36.422,21.656,36.422z M21.656,34.453
	c-7.067,0-12.797-5.729-12.797-12.797S14.589,8.859,21.656,8.859s12.797,5.729,12.797,12.797S28.724,34.453,21.656,34.453z
	 M21.363,20.672h-0.691H15.75c-0.543,0-0.984,0.441-0.984,0.984c0,0.543,0.441,0.984,0.984,0.984h4.922h2.5c0,0-2.059,0-1.516,0
	c0.543,0,0.984,0,0.984,0l0,0h4.922c0.543,0,0.984-0.441,0.984-0.984c0-0.543-0.441-0.984-0.984-0.984h-4.922l0,0
	c-0.734,0-0.191,0-0.734,0C21.363,20.672,22.266,20.672,21.363,20.672z"/>
</svg>
