<svg width="28" height="28" viewBox="0 0 28 28" fill="none" xmlns="http://www.w3.org/2000/svg">
<path fill-rule="evenodd" clip-rule="evenodd" d="M24.2027 21.82L21.665 17.4234V4.08861C23.4304 4.52376 24.7393 6.1136 24.7393 8.00824V19.81C24.7393 20.5418 24.5441 21.2281 24.2027 21.82ZM20.8592 17.8954L23.5905 22.6273C22.9948 23.2369 22.2075 23.6593 21.3257 23.798V21.8957C21.3258 21.889 21.3258 21.8823 21.3257 21.8756V21.7886C21.3257 21.6759 21.2682 21.5741 21.176 21.502L19.0628 17.8954H20.8592ZM20.7305 16.9637V3.97098L20.6898 3.97078H7.13943V16.9637H8.99919L9.894 15.5986C10.0981 15.2872 10.4453 15.0996 10.8175 15.0996H16.792C17.1839 15.0996 17.5465 15.3074 17.7447 15.6457L18.5169 16.9637H20.7305ZM6.19718 21.2383L8.38846 17.8954H6.98418C6.90145 17.9694 6.79209 18.0144 6.67218 18.0144C6.65326 18.0144 6.6346 18.0133 6.61627 18.0111L3.59516 22.0213C4.12058 22.8201 4.92248 23.4219 5.86523 23.6915V21.8856V21.7886C5.86523 21.7412 5.8754 21.6957 5.89403 21.6536C5.90262 21.4629 6.02615 21.3021 6.19718 21.2383ZM2.80593 22.5204C3.6952 23.8803 5.2343 24.7792 6.98399 24.7792H20.69C23.4425 24.7792 25.6739 22.5544 25.6739 19.81V8.00824C25.6739 5.53556 23.8625 3.48471 21.4906 3.10284C21.4105 3.03851 21.3086 3 21.1977 3C21.1235 3 21.0533 3.01726 20.991 3.04798C20.8914 3.04206 20.791 3.03906 20.69 3.03906H6.98399C6.94355 3.03906 6.90322 3.03954 6.86301 3.0405C6.80474 3.01447 6.74015 3 6.67218 3C6.58181 3 6.49744 3.02558 6.42594 3.06986C3.93603 3.34645 2 5.45192 2 8.00824V19.81C2 20.5935 2.18186 21.3346 2.50578 21.9937C2.47321 22.163 2.53657 22.3439 2.68416 22.4545C2.72227 22.4831 2.76333 22.505 2.80593 22.5204ZM3.13766 21.0766C3.00576 20.6783 2.93439 20.2525 2.93439 19.81V8.00824C2.93439 6.04406 4.34115 4.40748 6.20493 4.04541V17.0401C6.16768 17.0669 6.13379 17.0997 6.10476 17.1382L3.13766 21.0766ZM20.3594 23.8475V22.1407H6.83152V23.8447C6.88207 23.8465 6.93286 23.8475 6.98388 23.8475H20.3594ZM15.71 14.5314H11.6875C11.3434 14.5314 11.0645 14.2533 11.0645 13.9102C11.0645 13.5672 11.3434 13.2891 11.6875 13.2891H15.71C16.0541 13.2891 16.333 13.5672 16.333 13.9102C16.333 14.2533 16.0541 14.5314 15.71 14.5314ZM7.34835 21.209H19.9071L16.9281 16.1246C16.8998 16.0762 16.848 16.0466 16.792 16.0466H10.8175C10.7643 16.0466 10.7147 16.0734 10.6855 16.1178L7.34835 21.209Z" fill="#453D98"/>
</svg>
