<svg width="32" height="32" viewBox="0 0 32 32" fill="none" xmlns="http://www.w3.org/2000/svg">
<path fill-rule="evenodd" clip-rule="evenodd" d="M18.8445 25.8925L18.9379 16.672H21.8177L23.0926 12.0081H18.9438V11.2365C18.9438 10.3557 19.6464 9.64158 20.5131 9.64158H23.1277V5H18.3137C16.0287 5 14.1764 6.88256 14.1764 9.20481V12.0081H12V16.672H14.1764V25.8791C14.1764 26.5998 14.7513 27.184 15.4604 27.184H17.5606C18.2645 27.184 18.8372 26.6079 18.8445 25.8925ZM15.3171 25.8793V15.5122H13.1406V13.1682H15.3171V9.20502C15.3171 7.52339 16.6584 6.16016 18.313 6.16016H21.9857V8.48184H20.5124C19.0154 8.48184 17.8018 9.71524 17.8018 11.2367V13.1682H21.5904L20.9496 15.5122H17.8076L17.7025 25.8808C17.7017 25.9602 17.6381 26.0243 17.5599 26.0243H15.4597C15.3809 26.0243 15.3171 25.9593 15.3171 25.8793Z" fill="white"/>
</svg>
