<svg width="32" height="32" viewBox="0 0 32 32" fill="none" xmlns="http://www.w3.org/2000/svg">
<path fill-rule="evenodd" clip-rule="evenodd" d="M27.2103 9.29411C27.2995 9.44456 27.2874 9.63345 27.1798 9.77162L25.1016 12.4408C25.0302 17.08 23.3205 20.6177 19.9781 23.0112C16.5865 25.44 11.6852 25.6105 5.29981 23.5691C4.8629 23.4294 4.91761 22.8017 5.37225 22.738C6.81847 22.5354 8.07572 22.3138 9.14334 22.0736C9.76466 21.9338 10.346 21.7126 10.7831 21.4715C9.87458 21.1661 9.10935 20.6861 8.47871 20.0765C8.07816 19.6893 7.75761 19.2744 7.50877 18.8583C7.42087 18.7113 7.34796 18.574 7.28903 18.4495C7.26787 18.4047 7.25616 18.3786 7.23482 18.329L7.22034 18.2939L7.2138 18.2773C7.10055 17.9791 7.34457 17.6674 7.66596 17.7012L7.6718 17.7018L7.69707 17.7042L7.69724 17.7042C7.73669 17.7078 7.73678 17.7078 7.79707 17.7126L7.80971 17.7135C6.52942 16.672 5.89476 15.278 5.92834 13.5586C5.93523 13.2057 6.34676 13.0122 6.62788 13.2297C6.66268 13.2566 6.69763 13.2825 6.73271 13.3075C5.67114 11.6496 5.7223 9.95306 6.61977 8.27509C6.75697 8.01858 7.10708 7.96854 7.31213 8.17613C10.6189 11.5238 12.6774 12.3281 15.321 12.3372C14.8784 9.74028 16.8453 7 19.7242 7C21.1112 7 21.9734 7.28601 22.5994 7.82999C22.7537 7.96404 23.1042 8.33807 23.0992 8.33328C23.1943 8.42474 23.2387 8.44694 23.3082 8.44694C23.5155 8.44694 23.6546 8.4323 23.7914 8.39808C23.8499 8.38342 24.1171 8.27751 24.4748 8.13573C24.9772 7.93657 25.6582 7.66663 26.1906 7.47934C26.5225 7.36256 26.849 7.66589 26.7517 8.00076C26.5928 8.54825 26.2404 9.03009 25.7243 9.50947C25.9696 9.39879 26.2314 9.25298 26.509 9.07119C26.6763 8.96164 26.8956 8.96936 27.0546 9.09042L27.0547 9.09044C27.1487 9.17979 27.1488 9.1798 27.1856 9.24428L27.2103 9.29411ZM11.3723 22.1223C10.8428 22.4426 10.1157 22.7324 9.3364 22.9077C8.74568 23.0406 8.10017 23.1676 7.39977 23.2888C12.6428 24.6651 16.6605 24.3301 19.4712 22.3173C22.6156 20.0656 24.2028 16.7375 24.2385 12.2889C24.2393 12.1956 24.2708 12.1051 24.3284 12.0312L25.5214 10.4989C25.2261 10.586 24.9429 10.6299 24.6714 10.6299C24.3224 10.6299 24.1159 10.5775 24.0071 10.2861C23.9028 10.0068 24.0053 9.85314 24.2375 9.63712C24.2641 9.61242 24.3699 9.52548 24.5014 9.41741C24.7131 9.2435 24.9913 9.01487 25.1131 8.90282C25.1728 8.84782 25.2296 8.79319 25.2834 8.73886C25.1696 8.78349 25.0578 8.82753 24.9504 8.86984C24.489 9.0516 24.1092 9.20123 24.0047 9.22739C23.7928 9.2804 23.5837 9.30241 23.3091 9.30241C22.9838 9.30241 22.7396 9.18005 22.4966 8.94648C22.4907 8.9408 22.4668 8.91575 22.4323 8.87965C22.3249 8.76714 22.1151 8.54736 22.0288 8.47242C21.5701 8.07381 20.9119 7.85547 19.7251 7.85547C17.248 7.85547 15.5859 10.4304 16.2867 12.6539C16.3789 12.9465 16.1393 13.2374 15.8308 13.2072C15.7182 13.1962 15.6066 13.1936 15.3198 13.1926C12.5733 13.1834 10.3647 12.3661 7.13287 9.2105C6.48561 10.7936 6.76917 12.3351 8.32935 13.9111C8.60566 14.1902 8.39054 14.6594 7.99613 14.6379C7.59266 14.6159 7.20519 14.5204 6.83566 14.3531C7.02818 15.8305 7.88626 16.9496 9.43964 17.7462C9.81844 17.9404 9.71457 18.5021 9.29076 18.5513C8.99935 18.5851 8.68544 18.5974 8.36236 18.5933C8.55723 18.8903 8.79693 19.1853 9.08491 19.4637C9.75936 20.1157 10.612 20.5943 11.6589 20.8262C12.1532 20.923 12.1726 21.3858 11.9202 21.6897C11.8055 21.8279 11.6165 21.9747 11.3723 22.1223Z" fill="white"/>
</svg>
