<svg width="32" height="32" viewBox="0 0 32 32" fill="none" xmlns="http://www.w3.org/2000/svg">
<path fill-rule="evenodd" clip-rule="evenodd" d="M22.5907 10.1526C22.5899 10.8964 22.0128 11.5022 21.2977 11.5098C20.5799 11.5173 19.9704 10.898 19.9657 10.1562C19.9611 9.40954 20.5533 8.80016 21.2838 8.80016C22.0289 8.80016 22.5915 9.38209 22.5907 10.1526Z" fill="white"/>
<path fill-rule="evenodd" clip-rule="evenodd" d="M15.5 20.4452C17.9646 20.4452 19.9625 18.3828 19.9625 15.8387C19.9625 13.2946 17.9646 11.2323 15.5 11.2323C13.0354 11.2323 11.0375 13.2946 11.0375 15.8387C11.0375 18.3828 13.0354 20.4452 15.5 20.4452ZM15.5 19.3613C13.6153 19.3613 12.0875 17.7842 12.0875 15.8387C12.0875 13.8932 13.6153 12.3161 15.5 12.3161C17.3847 12.3161 18.9125 13.8932 18.9125 15.8387C18.9125 17.7842 17.3847 19.3613 15.5 19.3613Z" fill="white"/>
<path fill-rule="evenodd" clip-rule="evenodd" d="M10.25 5H20.75C23.6495 5 26 7.42633 26 10.4194V20.5806C26 23.5737 23.6495 26 20.75 26H10.25C7.35051 26 5 23.5737 5 20.5806V10.4194C5 7.42633 7.35051 5 10.25 5ZM10.25 6.08387C7.9304 6.08387 6.05 8.02493 6.05 10.4194V20.5806C6.05 22.9751 7.9304 24.9161 10.25 24.9161H20.75C23.0696 24.9161 24.95 22.9751 24.95 20.5806V10.4194C24.95 8.02493 23.0696 6.08387 20.75 6.08387H10.25Z" fill="white"/>
</svg>
