<?xml version="1.0" encoding="utf-8"?>
<!-- Generator: Adobe Illustrator 16.0.0, SVG Export Plug-In . SVG Version: 6.00 Build 0)  -->
<!DOCTYPE svg PUBLIC "-//W3C//DTD SVG 1.1//EN" "http://www.w3.org/Graphics/SVG/1.1/DTD/svg11.dtd">
<svg version="1.1" id="Layer_1" xmlns="http://www.w3.org/2000/svg" xmlns:xlink="http://www.w3.org/1999/xlink" x="0px" y="0px"
	 width="28px" height="28px" viewBox="0 0 28 28" enable-background="new 0 0 28 28" xml:space="preserve">
<g id="_34-Time">
	<path fill="#453D98" d="M13.449,3.719c-5.827,0-10.55,4.724-10.55,10.551c0,5.826,4.723,10.55,10.55,10.55S24,20.096,24,14.27
		C24,8.442,19.276,3.719,13.449,3.719z M14.108,23.468v-2.604H12.79v2.604c-4.572-0.332-8.208-3.969-8.539-8.54h2.604v-1.318H4.251
		c0.331-4.571,3.967-8.208,8.539-8.54v2.605h1.318V5.07c4.572,0.332,8.207,3.968,8.539,8.54h-2.604v1.318h2.604
		C22.315,19.499,18.681,23.136,14.108,23.468z"/>
	<path fill="#453D98" d="M14.108,9.653H12.79v4.616c-0.002,0.176,0.068,0.344,0.191,0.467l3.296,3.298l0.93-0.93l-3.099-3.106V9.653
		z"/>
</g>
</svg>
