<?xml version="1.0" encoding="UTF-8"?>
<svg width="84px" height="84px" viewBox="0 0 84 84" version="1.1" xmlns="http://www.w3.org/2000/svg" xmlns:xlink="http://www.w3.org/1999/xlink">
    <!-- Generator: Sketch 58 (84663) - https://sketch.com -->
    <title>icon/color-time copy</title>
    <desc>Created with Sketch.</desc>
    <defs>
        <polygon id="path-1" points="0 0.000256701031 82.5969794 0.000256701031 82.5969794 82.5971505 0 82.5971505"></polygon>
    </defs>
    <g id="icon/color-time-copy" stroke="none" stroke-width="1" fill="none" fill-rule="evenodd">
        <g id="Group-4" transform="translate(1.000000, 1.000000)">
            <g id="Group-3">
                <mask id="mask-2" fill="white">
                    <use xlink:href="#path-1"></use>
                </mask>
                <g id="Clip-2"></g>
                <path d="M59.6244619,49.4082742 L43.4377505,40.063501 L43.4377505,22.5368103 C43.4377505,21.3551299 42.4802557,20.3976351 41.2985753,20.3976351 C40.1168948,20.3976351 39.1594,21.3551299 39.1594,22.5368103 L39.1594,41.298233 C39.1594,42.0632021 39.5675546,42.7691299 40.2289876,43.1516144 L57.4852866,53.1133258 C57.8224206,53.3084186 58.1895031,53.3999753 58.5531629,53.3999753 C59.2916062,53.3999753 60.0112247,53.0166351 60.4074,52.3303876 C60.9978124,51.3070062 60.6469876,49.9986866 59.6244619,49.4082742 L59.6244619,49.4082742 Z M78.3191423,39.1590577 L73.0388021,39.1590577 C71.8571216,39.1590577 70.8996268,40.1174082 70.8996268,41.298233 C70.8996268,42.4799134 71.8571216,43.4374082 73.0388021,43.4374082 L78.3191423,43.4374082 L78.3191423,53.8962639 C78.3191423,67.3628 67.3631423,78.3188 53.8966062,78.3188 L43.4377505,78.3188 L43.4377505,73.0376041 C43.4377505,71.8559237 42.4802557,70.8984289 41.2985753,70.8984289 C40.1168948,70.8984289 39.1594,71.8559237 39.1594,73.0376041 L39.1594,78.3188 L28.7014,78.3188 C15.2348639,78.3188 4.27800825,67.3619443 4.27800825,53.8954082 L4.27886392,43.4374082 L9.55920412,43.4374082 C10.7408845,43.4374082 11.6983794,42.4799134 11.6983794,41.298233 C11.6983794,40.1174082 10.7408845,39.1590577 9.55920412,39.1590577 L4.27886392,39.1590577 L4.27886392,28.7010577 C4.27886392,15.2345216 15.2348639,4.27852165 28.7014,4.27852165 L39.1594,4.27852165 L39.1594,9.55971753 C39.1594,10.7413979 40.1168948,11.6988928 41.2985753,11.6988928 C42.4802557,11.6988928 43.4377505,10.7413979 43.4377505,9.55971753 L43.4377505,4.27852165 L53.8966062,4.27852165 C60.4082557,4.27852165 66.5382763,6.8215732 71.1571835,11.4404804 C75.7752351,16.058532 78.3191423,22.1885526 78.3191423,28.7019134 L78.3191423,39.1590577 Z M74.1819773,8.4156866 C68.7553175,2.9890268 61.5505753,0.000171134021 53.8966062,0.000171134021 L28.7014,0.000171134021 C12.8757814,0.000171134021 0.000513402062,12.8754392 0.000513402062,28.7010577 L0.000513402062,41.2948103 C0.000513402062,41.2965216 -0.000342268041,41.2973773 -0.000342268041,41.298233 C-0.000342268041,41.2999443 0.000513402062,41.3008 0.000513402062,41.3025113 L-0.000342268041,53.8954082 C-0.000342268041,69.7218825 12.8749258,82.5971505 28.7014,82.5971505 L53.8966062,82.5971505 C69.7222247,82.5971505 82.5974928,69.7218825 82.5974928,53.8962639 L82.5974928,28.7019134 C82.5974928,21.046233 79.6077814,13.8423464 74.1819773,8.4156866 L74.1819773,8.4156866 Z" id="Fill-1" fill="#000000" mask="url(#mask-2)"></path>
            </g>
        </g>
    </g>
</svg>