<?xml version="1.0" standalone="no"?>
<!DOCTYPE svg PUBLIC "-//W3C//DTD SVG 1.1//EN" "http://www.w3.org/Graphics/SVG/1.1/DTD/svg11.dtd" >
<svg xmlns="http://www.w3.org/2000/svg" xmlns:xlink="http://www.w3.org/1999/xlink" version="1.1">
<metadata>
Created by FontForge 20170731 at Sat Jul 29 01:07:09 2023
 By Aleksey,,,
Copyright (c) 2019 by TypeType. Designers Ivan Gladkikh, Pavel Emelyanov. Technical designers Marina Khodak, Nadezhda Polomoshnova, Kseniya Karataeva, Olexa Volochay, Nadyr Rakhimov. All rights reserved. |DCNT
</metadata>
<defs>
<font id="TTHoves-DemiBoldItalic" horiz-adv-x="1085" >
  <font-face 
    font-family="TT Hoves DemiBold"
    font-weight="600"
    font-style="italic"
    font-stretch="normal"
    units-per-em="2048"
    panose-1="2 0 5 3 3 0 0 9 0 4"
    ascent="1434"
    descent="-614"
    x-height="1044"
    cap-height="1434"
    bbox="-829 -512 3047 2068"
    underline-thickness="102"
    underline-position="-307"
    slope="-10"
    unicode-range="U+000D-FB04"
  />
<missing-glyph horiz-adv-x="0" 
 />
    <glyph glyph-name="f_f" unicode="ff" horiz-adv-x="1341" 
d="M219 0l139 799h-174l43 245h174l33 179q19 105 93.5 168t183.5 63h225l-41 -225h-129q-75 0 -86 -66l-23 -119h328l33 179q19 105 93 168t183 63h246l-41 -225h-149q-75 0 -86 -66l-23 -119h225l-43 -245h-225l-139 -799h-256l139 799h-328l-139 -799h-256z" />
    <glyph glyph-name="uniFB01" unicode="fi" horiz-adv-x="1191" 
d="M1006 1208l43 246h276l-43 -246h-276zM219 0l139 799h-174l43 245h174l33 179q19 105 93.5 168t183.5 63h215l-41 -225h-119q-75 0 -86 -66l-23 -119h584l-182 -1044h-256l139 799h-328l-139 -799h-256z" />
    <glyph glyph-name="uniFB02" unicode="fl" horiz-adv-x="1208" 
d="M219 0l139 799h-174l43 245h174l33 179q19 105 93.5 168t183.5 63h604l-256 -1454h-256l215 1229h-252q-75 0 -86 -66l-23 -119h205l-43 -245h-205l-139 -799h-256z" />
    <glyph glyph-name="f_f_i" unicode="ffi" horiz-adv-x="1775" 
d="M1589 1208l43 246h277l-43 -246h-277zM219 0l139 799h-174l43 245h174l33 179q19 105 93.5 168t183.5 63h225l-41 -225h-129q-75 0 -86 -66l-23 -119h328l33 179q19 105 93 168t183 63h215l-41 -225h-118q-75 0 -86 -66l-23 -119h584l-183 -1044h-256l140 799h-328
l-139 -799h-256l139 799h-328l-139 -799h-256z" />
    <glyph glyph-name="f_f_l" unicode="ffl" horiz-adv-x="1792" 
d="M219 0l139 799h-174l43 245h174l33 179q19 105 93.5 168t183.5 63h225l-41 -225h-129q-75 0 -86 -66l-23 -119h328l33 179q19 105 93 168t183 63h604l-256 -1454h-256l216 1229h-252q-75 0 -86 -66l-23 -119h205l-43 -245h-205l-139 -799h-256l139 799h-328l-139 -799
h-256z" />
    <glyph glyph-name="f_f_j" unicode="ffj" horiz-adv-x="1775" 
d="M1589 1208l43 246h277l-43 -246h-277zM219 0l139 799h-174l43 245h174l33 179q19 105 93.5 168t183.5 63h225l-41 -225h-129q-75 0 -86 -66l-23 -119h328l33 179q19 105 93 168t183 63h215l-41 -225h-118q-75 0 -86 -66l-23 -119h584l-217 -1230q-17 -100 -92.5 -162
t-184.5 -62h-252l43 236h174q58 0 70 65l160 908h-328l-139 -799h-256l139 799h-328l-139 -799h-256z" />
    <glyph glyph-name="f_j" unicode="fj" horiz-adv-x="1191" 
d="M1006 1208l43 246h276l-43 -246h-276zM496 -410l43 236h174q57 0 69 65l160 908h-328l-139 -799h-256l139 799h-174l43 245h174l33 179q19 105 93.5 168t183.5 63h215l-41 -225h-119q-75 0 -86 -66l-23 -119h584l-217 -1230q-18 -100 -92.5 -162t-183.5 -62h-252z" />
    <glyph glyph-name=".notdef" horiz-adv-x="0" 
 />
    <glyph glyph-name=".null" horiz-adv-x="0" 
 />
    <glyph glyph-name="nonmarkingreturn" horiz-adv-x="682" 
 />
    <glyph glyph-name="NULL" horiz-adv-x="0" 
 />
    <glyph glyph-name="NULL" horiz-adv-x="0" 
 />
    <glyph glyph-name="CR" unicode="&#xd;" horiz-adv-x="0" 
 />
    <glyph glyph-name="space" unicode=" " horiz-adv-x="512" 
 />
    <glyph glyph-name="exclam" unicode="!" horiz-adv-x="593" 
d="M279 420l36 450l101 564h266l-100 -564l-119 -450h-184zM164 0l49 287h266l-49 -287h-266z" />
    <glyph glyph-name="quotedbl" unicode="&#x22;" horiz-adv-x="870" 
d="M666 963l84 471h235l-84 -471h-235zM287 963l84 471h235l-84 -471h-235z" />
    <glyph glyph-name="numbersign" unicode="#" horiz-adv-x="1464" 
d="M217 0l135 348h-270l92 225h266l113 287h-266l90 225h266l133 349h240l-135 -349h245l138 349h239l-135 -349h268l-90 -225h-266l-113 -287h267l-93 -225h-264l-133 -348h-239l135 348h-250l-133 -348h-240zM680 573h248l112 287h-247z" />
    <glyph glyph-name="dollar" unicode="$" horiz-adv-x="1300" 
d="M461 -225l39 229q-175 46 -266 154t-91 252v41h267q0 -91 87 -158.5t240 -67.5q131 0 204 56.5t73 138.5q0 56 -46 95t-159 69l-236 61q-143 37 -214.5 126.5t-71.5 211.5q0 188 126 317.5t343 149.5l37 209h256l-39 -223q173 -36 262.5 -140.5t89.5 -251.5v-61h-266v21
q0 90 -73.5 147t-213.5 57q-127 0 -191.5 -52.5t-64.5 -141.5q0 -52 31 -87t112 -57l236 -61q348 -89 348 -348q0 -101 -36 -187.5t-102.5 -150.5t-166.5 -101.5t-223 -41.5l-35 -205h-256z" />
    <glyph glyph-name="percent" unicode="%" horiz-adv-x="1658" 
d="M256 0l1143 1434h256l-1143 -1434h-256zM584 963q70 0 117 48.5t47 125.5q0 61 -34 97t-89 36q-70 0 -117 -48.5t-47 -125.5q0 -61 34 -97t89 -36zM266 1075q0 160 107 269.5t262 109.5q138 0 222.5 -82.5t84.5 -214.5q0 -160 -107 -269.5t-262 -109.5
q-138 0 -222.5 82.5t-84.5 214.5zM1270 164q70 0 117 48.5t47 125.5q0 61 -34 97t-89 36q-70 0 -117 -48.5t-47 -125.5q0 -61 34 -97t89 -36zM952 276q0 160 107 269.5t262 109.5q138 0 222.5 -82.5t84.5 -214.5q0 -160 -106.5 -269t-261.5 -109q-139 0 -223.5 82.5
t-84.5 213.5z" />
    <glyph glyph-name="ampersand" unicode="&#x26;" horiz-adv-x="1320" 
d="M715 881l67 34q72 37 111 77.5t39 103.5q0 56 -38.5 94.5t-105.5 38.5q-77 0 -125.5 -47t-48.5 -117q0 -49 68 -139zM1065 0l-86 113q-50 -41 -109 -68q-134 -65 -276 -65q-200 0 -320 102t-120 246q0 78 17.5 138.5t54.5 106.5t77.5 78.5t102.5 69.5l94 55l-60 88
q-36 52 -53.5 93.5t-17.5 97.5q0 164 124 281.5t306 117.5q173 0 281 -97.5t108 -240.5q0 -59 -17 -110.5t-41 -86.5t-59.5 -66.5t-64.5 -49t-64 -35.5l-106 -57l206 -275q34 44 50 74q52 99 61 166h246q-18 -156 -119 -303q-48 -70 -100 -119l192 -254h-307zM860 272
l-242 322l-65 -41q-65 -42 -104 -87t-39 -108q0 -73 56.5 -118t168.5 -45q144 0 225 77z" />
    <glyph glyph-name="quotesingle" unicode="'" horiz-adv-x="481" 
d="M287 963l84 471h235l-84 -471h-235z" />
    <glyph glyph-name="parenleft" unicode="(" horiz-adv-x="737" 
d="M573 -410h-249q-56 115 -98 278.5t-42 356.5q0 181 37.5 358t91.5 309.5t128 258.5t132 201.5t119 142.5h281q-29 -29 -62.5 -67t-88 -110.5t-103.5 -151t-101.5 -188.5t-90.5 -223.5t-62.5 -255t-24.5 -284.5q0 -337 133 -625z" />
    <glyph glyph-name="parenright" unicode=")" horiz-adv-x="737" 
d="M209 -410h-281q29 29 62 66.5t87.5 110t103.5 151t102 188.5t91 223.5t62.5 255.5t24.5 285q0 337 -133 625h250q139 -321 139 -635q0 -181 -37.5 -358t-91.5 -309.5t-128 -258.5t-132 -201.5t-119 -142.5z" />
    <glyph glyph-name="asterisk" unicode="*" horiz-adv-x="1003" 
d="M358 748l185 225l-287 61l61 195l277 -103l-21 308h205l-20 -308l276 103l62 -195l-287 -61l184 -225l-153 -123l-164 245l-164 -245z" />
    <glyph glyph-name="plus" unicode="+" horiz-adv-x="1126" 
d="M553 102v379h-348v226h348v378h225v-378h348v-226h-348v-379h-225z" />
    <glyph glyph-name="comma" unicode="," horiz-adv-x="522" 
d="M61 -184l123 471h297l-209 -471h-211z" />
    <glyph glyph-name="hyphen" unicode="-" horiz-adv-x="880" 
d="M174 471l41 236h696l-41 -236h-696z" />
    <glyph glyph-name="period" unicode="." horiz-adv-x="532" 
d="M123 0l49 287h287l-49 -287h-287z" />
    <glyph glyph-name="slash" unicode="/" horiz-adv-x="819" 
d="M-72 -410l897 1905h262l-899 -1905h-260z" />
    <glyph glyph-name="zero" unicode="0" horiz-adv-x="1372" 
d="M881 1198q-75 0 -147 -41t-131 -115.5t-95.5 -194t-36.5 -263.5q0 -163 78.5 -255.5t198.5 -92.5q59 0 117.5 25t111 76.5t92.5 123.5t64 172.5t24 216.5q0 163 -78 255.5t-198 92.5zM727 -20q-227 0 -374.5 159.5t-147.5 423.5q0 200 58.5 370.5t155.5 282.5t222 175
t260 63q227 0 374.5 -160t147.5 -424q0 -201 -58.5 -371.5t-155.5 -282t-222 -174t-260 -62.5z" />
    <glyph glyph-name="one" unicode="1" horiz-adv-x="768" 
d="M348 0l180 1024h-297l45 256h242q55 0 64 55l18 99h266l-252 -1434h-266z" />
    <glyph glyph-name="two" unicode="2" horiz-adv-x="1167" 
d="M113 0l41 236l682 563q64 53 95.5 102t31.5 113q0 81 -48 132.5t-137 51.5q-95 0 -168 -75t-86 -171h-266q30 214 175.5 358t354.5 144t330 -113t121 -286q0 -38 -5.5 -73t-12.5 -63.5t-22 -58t-26.5 -50.5t-34.5 -47.5t-36.5 -41t-42.5 -40t-42.5 -36.5t-46 -36.5
t-44.5 -35.5l-373 -307v-10h577l-45 -256h-972z" />
    <glyph glyph-name="three" unicode="3" horiz-adv-x="1177" 
d="M133 430h266v-10q0 -82 63.5 -133t182.5 -51q115 0 175.5 55t60.5 149q0 71 -58 122.5t-149 51.5h-96l43 236h133q101 0 165 57t64 137q0 66 -57 110t-168 44q-90 0 -149 -47t-77 -127h-262q16 84 61 161t111.5 137.5t159.5 96t197 35.5q210 0 330 -106.5t120 -272.5
q0 -207 -160 -312q-36 -24 -96 -46v-10q46 -31 76 -66q78 -94 78 -211q0 -119 -66 -221.5t-187 -165.5t-269 -63q-232 0 -362 112t-130 287v51z" />
    <glyph glyph-name="four" unicode="4" horiz-adv-x="1157" 
d="M432 532h359l104 584h-41l-420 -573zM92 287l43 237l664 910h418l-160 -902h164l-43 -245h-164l-49 -287h-267l50 287h-656z" />
    <glyph glyph-name="five" unicode="5" horiz-adv-x="1198" 
d="M174 410h266q0 -67 63.5 -120.5t172.5 -53.5q117 0 191.5 74.5t74.5 191.5q0 90 -62.5 147.5t-172.5 57.5q-74 0 -131.5 -31t-77.5 -62h-265l228 820h835l-45 -256h-598l-73 -256h10q61 30 168 30q205 0 327.5 -116.5t122.5 -303.5q0 -151 -73.5 -278t-201 -200.5
t-278.5 -73.5q-225 0 -353 113.5t-128 295.5v21z" />
    <glyph glyph-name="six" unicode="6" horiz-adv-x="1187" 
d="M317 799l523 635h313l-381 -471h25q158 0 279.5 -130t121.5 -311q0 -110 -43.5 -210t-117.5 -173t-176.5 -116t-215.5 -43q-205 0 -338 126.5t-133 313.5q0 210 143 379zM440 440q0 -93 63.5 -154t162.5 -61q107 0 186.5 81.5t79.5 195.5q0 93 -63 154t-162 61
q-107 0 -187 -81.5t-80 -195.5z" />
    <glyph glyph-name="seven" unicode="7" horiz-adv-x="1075" 
d="M205 0l698 1178h-647l45 256h963l-41 -236l-713 -1198h-305z" />
    <glyph glyph-name="eight" unicode="8" horiz-adv-x="1208" 
d="M440 768v10q-33 20 -61 56q-62 78 -62 180q0 181 140.5 310.5t351.5 129.5q209 0 335 -110t126 -269q-1 -192 -153 -304q-55 -39 -93 -50v-10q42 -28 76 -68q78 -94 78 -213q0 -189 -145.5 -319.5t-377.5 -130.5q-223 0 -352 111t-129 278q0 192 133 315q63 57 133 84z
M430 401q0 -82 61.5 -134t174.5 -52t184.5 64.5t71.5 158.5q0 82 -61.5 134.5t-174.5 52.5t-184.5 -65t-71.5 -159zM778 850q97 0 161.5 57.5t64.5 136.5q0 73 -55 124t-150 51q-97 0 -161.5 -58t-64.5 -137q0 -73 54.5 -123.5t150.5 -50.5z" />
    <glyph glyph-name="nine" unicode="9" horiz-adv-x="1187" 
d="M291 0l381 471h-25q-158 0 -279.5 129.5t-121.5 310.5q0 146 73.5 271t201 198.5t278.5 73.5q205 0 338 -126.5t133 -313.5q0 -209 -144 -379l-522 -635h-313zM778 1208q-107 0 -186.5 -81t-79.5 -195q0 -93 63 -154t162 -61q107 0 187 81t80 195q0 93 -63.5 154
t-162.5 61z" />
    <glyph glyph-name="colon" unicode=":" horiz-adv-x="532" 
d="M123 0l49 287h287l-49 -287h-287zM256 758l49 286h287l-49 -286h-287z" />
    <glyph glyph-name="semicolon" unicode=";" horiz-adv-x="532" 
d="M61 -184l123 471h297l-209 -471h-211zM256 758l49 286h287l-49 -286h-287z" />
    <glyph glyph-name="less" unicode="&#x3c;" horiz-adv-x="1126" 
d="M195 471v246l901 358v-256l-604 -225l604 -225v-256z" />
    <glyph glyph-name="equal" unicode="=" horiz-adv-x="1126" 
d="M246 686v225h839v-225h-839zM246 276v226h839v-226h-839z" />
    <glyph glyph-name="greater" unicode="&#x3e;" horiz-adv-x="1126" 
d="M215 113v256l604 225l-604 225v256l901 -358v-246z" />
    <glyph glyph-name="question" unicode="?" 
d="M442 420l17 96q24 139 81.5 208.5t176.5 115.5q39 16 66.5 30t60 38.5t50 59t17.5 76.5q0 72 -53.5 118t-150.5 46q-164 0 -205 -184h-277q30 192 162 311t340 119q209 0 335 -110t126 -269q0 -84 -27 -154t-73.5 -117t-97 -77.5t-109.5 -50.5q-79 -31 -119.5 -73.5
t-50.5 -108.5l-13 -74h-256zM358 0l50 287h276l-49 -287h-277z" />
    <glyph glyph-name="at" unicode="@" horiz-adv-x="1935" 
d="M1004 358q94 0 164.5 75t70.5 181q0 85 -52.5 140t-131.5 55q-94 0 -165 -75t-71 -181q0 -85 53 -140t132 -55zM948 -10h422l-39 -215h-424q-146 0 -277.5 56.5t-227 153t-151.5 231.5t-56 286q0 189 74.5 361t201.5 297.5t303.5 199.5t372.5 74q192 0 348 -52.5
t258.5 -145t157.5 -217.5t55 -271q0 -138 -35.5 -250.5t-97.5 -184.5t-143 -110.5t-174 -38.5q-124 0 -193 55q-36 22 -53 55h-10q-34 -34 -78 -55q-87 -55 -209 -55q-159 0 -264 102t-105 256q0 206 132 344t319 138q99 0 184 -52q31 -17 61 -51h11l41 92h174l-88 -501
q-4 -28 -4 -31q0 -39 28 -65.5t74 -26.5q86 0 145.5 90t59.5 268q0 223 -156 357.5t-448 134.5q-147 0 -280 -56t-228.5 -150t-152 -222.5t-56.5 -268.5q0 -146 70 -268.5t191.5 -193t266.5 -70.5z" />
    <glyph glyph-name="A" unicode="A" horiz-adv-x="1413" 
d="M20 0l764 1434h390l266 -1434h-297l-56 307h-602l-161 -307h-304zM614 553h430l-94 573h-41z" />
    <glyph glyph-name="B" unicode="B" horiz-adv-x="1351" 
d="M154 0l252 1434h692q144 0 240 -98.5t96 -250.5q0 -205 -146 -333q-17 -15 -61 -45l-4 -11q32 -22 53 -57q55 -79 55 -188q0 -190 -127.5 -320.5t-312.5 -130.5h-737zM578 840h387q85 0 138.5 56t53.5 148q0 68 -40 111t-101 43h-375zM471 236h397q79 0 138 60t59 144
q0 76 -39 120t-100 44h-389z" />
    <glyph glyph-name="C" unicode="C" horiz-adv-x="1505" 
d="M1262 512h276q-89 -245 -270 -388.5t-428 -143.5q-136 0 -253 47.5t-198.5 131t-127.5 201t-46 254.5q0 144 42.5 275.5t117 233t172.5 177t213.5 115t234.5 39.5q246 0 407.5 -142t186.5 -380h-272q-76 266 -354 266q-74 0 -144.5 -24.5t-131.5 -74t-107 -117
t-72.5 -160t-26.5 -197.5q0 -179 105.5 -284t283.5 -105q123 0 226 72.5t166 203.5z" />
    <glyph glyph-name="D" unicode="D" horiz-adv-x="1464" 
d="M154 0l252 1434h536q110 0 213 -48t180 -130t123.5 -199t46.5 -248q0 -133 -40 -257t-112.5 -223t-167.5 -173.5t-211 -115t-237 -40.5h-583zM465 256h293q212 0 346.5 144.5t134.5 387.5q0 166 -103.5 278t-244.5 112h-264z" />
    <glyph glyph-name="E" unicode="E" horiz-adv-x="1228" 
d="M154 0l252 1434h962l-43 -246h-696l-62 -348h656l-43 -246h-656l-61 -348h696l-43 -246h-962z" />
    <glyph glyph-name="F" unicode="F" horiz-adv-x="1198" 
d="M154 0l252 1434h952l-43 -246h-686l-62 -348h635l-43 -246h-635l-104 -594h-266z" />
    <glyph glyph-name="G" unicode="G" horiz-adv-x="1576" 
d="M1249 0l6 143h-10q-59 -64 -166 -113.5t-239 -49.5q-136 0 -253 47.5t-198.5 131t-127.5 201t-46 254.5q0 144 42.5 275.5t117 233t172.5 177t213.5 115t234.5 39.5q247 0 408 -137.5t186 -374.5h-272q-73 256 -354 256q-74 0 -144.5 -24.5t-131.5 -74t-107 -117
t-72.5 -160t-26.5 -197.5q0 -179 105.5 -284t283.5 -105q83 0 159.5 29.5t126 73.5t81 89t37.5 82l8 43h-356l37 205h624l-133 -758h-205z" />
    <glyph glyph-name="H" unicode="H" horiz-adv-x="1484" 
d="M154 0l252 1434h266l-101 -574h646l100 574h266l-252 -1434h-266l104 594h-645l-104 -594h-266z" />
    <glyph glyph-name="I" unicode="I" horiz-adv-x="573" 
d="M154 0l252 1434h266l-252 -1434h-266z" />
    <glyph glyph-name="J" unicode="J" horiz-adv-x="839" 
d="M20 0l46 256h325q78 0 98 96l193 1082h266l-207 -1172q-47 -262 -297 -262h-424z" />
    <glyph glyph-name="K" unicode="K" horiz-adv-x="1239" 
d="M154 0l252 1434h266l-115 -646l606 646h338l-678 -717l451 -717h-322l-415 666l-117 -666h-266z" />
    <glyph glyph-name="L" unicode="L" horiz-adv-x="1126" 
d="M154 0l252 1434h266l-207 -1178h676l-45 -256h-942z" />
    <glyph glyph-name="M" unicode="M" horiz-adv-x="1884" 
d="M154 0l252 1434h423l162 -1004h41l514 1004h436l-251 -1434h-267l174 993h-41l-512 -993h-286l-164 993h-41l-174 -993h-266z" />
    <glyph glyph-name="N" unicode="N" horiz-adv-x="1495" 
d="M154 0l252 1434h356l346 -994h43l176 994h266l-252 -1434h-356l-348 993h-43l-174 -993h-266z" />
    <glyph glyph-name="O" unicode="O" horiz-adv-x="1576" 
d="M1352 809q0 179 -105 284t-284 105q-74 0 -144.5 -24.5t-131.5 -74t-107 -117t-72.5 -160t-26.5 -197.5q0 -179 105.5 -284t283.5 -105q96 0 183.5 41t153.5 114.5t105.5 182t39.5 235.5zM840 -20q-136 0 -253 47.5t-198.5 131t-127.5 201t-46 254.5q0 144 42.5 276
t117 233t172 176.5t212.5 115t234 39.5q182 0 325 -81.5t221.5 -226t78.5 -327.5q0 -176 -63 -333t-168.5 -267.5t-248 -174.5t-298.5 -64z" />
    <glyph glyph-name="P" unicode="P" horiz-adv-x="1341" 
d="M154 0l252 1434h661q155 0 261 -113t106 -287q0 -247 -145.5 -405t-356.5 -158h-430l-82 -471h-266zM547 727h395q88 0 156.5 79t68.5 198q0 77 -46 125.5t-113 48.5h-381z" />
    <glyph glyph-name="Q" unicode="Q" horiz-adv-x="1576" 
d="M840 -20h-2q-274 0 -448.5 178t-174.5 456q0 144 42.5 275.5t117 233t172.5 177t213.5 115t234.5 39.5q274 0 448.5 -178.5t174.5 -456.5q0 -206 -81 -379t-224 -288l184 -254h-307l-94 129q-124 -47 -256 -47zM942 242l-180 250h307l98 -140q87 77 136 194t49 263
q0 179 -105 284t-284 105q-74 0 -144.5 -24.5t-131.5 -74t-107 -117t-72.5 -160t-26.5 -197.5q0 -179 105.5 -284t283.5 -105q34 0 72 6z" />
    <glyph glyph-name="R" unicode="R" horiz-adv-x="1361" 
d="M154 0l252 1434h659q157 0 263 -114.5t106 -295.5q0 -122 -42 -225t-112 -168.5t-157.5 -102t-180.5 -36.5h-16l374 -492h-337l-375 492h-82l-86 -492h-266zM549 737h393q88 0 156.5 71.5t68.5 174.5q0 81 -49.5 138t-107.5 57h-383z" />
    <glyph glyph-name="S" unicode="S" horiz-adv-x="1300" 
d="M143 451h267q0 -91 87 -158.5t240 -67.5q131 0 204 56.5t73 138.5q0 56 -46 95t-159 69l-236 61q-143 37 -214.5 126.5t-71.5 211.5q0 206 147 338.5t395 132.5q260 0 396.5 -113t136.5 -297v-61h-266v21q0 90 -73.5 147t-213.5 57q-127 0 -191.5 -52.5t-64.5 -141.5
q0 -52 31 -87t112 -57l236 -61q348 -89 348 -348q0 -214 -148.5 -347.5t-404.5 -133.5q-279 0 -431.5 121.5t-152.5 308.5v41z" />
    <glyph glyph-name="T" unicode="T" horiz-adv-x="1208" 
d="M459 0l207 1178h-430l45 256h1126l-45 -256h-430l-207 -1178h-266z" />
    <glyph glyph-name="U" unicode="U" horiz-adv-x="1474" 
d="M250 637l141 797h266l-145 -822q-8 -36 -8 -77q0 -132 81.5 -215.5t219.5 -83.5q126 0 227 87.5t125 231.5l156 879h266l-160 -902q-29 -170 -120 -296.5t-224 -191t-291 -64.5q-252 0 -400 139t-148 368q0 73 14 150z" />
    <glyph glyph-name="V" unicode="V" horiz-adv-x="1392" 
d="M485 0l-239 1434h291l174 -1106h41l563 1106h303l-744 -1434h-389z" />
    <glyph glyph-name="W" unicode="W" horiz-adv-x="2007" 
d="M362 0l-106 1434h291l69 -1004h41l433 1004h307l80 -1004h41l421 1004h304l-611 -1434h-368l-74 983h-41l-418 -983h-369z" />
    <glyph glyph-name="X" unicode="X" horiz-adv-x="1310" 
d="M-20 0l628 748l-334 686h314l223 -471h41l391 471h326l-592 -707l356 -727h-311l-248 512h-41l-428 -512h-325z" />
    <glyph glyph-name="Y" unicode="Y" horiz-adv-x="1269" 
d="M485 0l86 492l-356 942h291l229 -615h41l447 615h303l-688 -942l-86 -492h-267z" />
    <glyph glyph-name="Z" unicode="Z" horiz-adv-x="1239" 
d="M72 0l41 240l888 938h-712l45 256h1075l-43 -242l-887 -936h733l-45 -256h-1095z" />
    <glyph glyph-name="bracketleft" unicode="[" horiz-adv-x="747" 
d="M92 -410l336 1905h512l-41 -235h-256l-252 -1434h256l-43 -236h-512z" />
    <glyph glyph-name="backslash" unicode="\" horiz-adv-x="819" 
d="M483 -410l-227 1905h250l227 -1905h-250z" />
    <glyph glyph-name="bracketright" unicode="]" horiz-adv-x="747" 
d="M-10 -410l41 236h256l252 1434h-256l41 235h512l-336 -1905h-510z" />
    <glyph glyph-name="asciicircum" unicode="^" horiz-adv-x="911" 
d="M266 850l215 584h297l215 -584h-225l-133 358h-10l-133 -358h-226z" />
    <glyph glyph-name="underscore" unicode="_" horiz-adv-x="798" 
d="M-123 -440l41 235h879l-41 -235h-879z" />
    <glyph glyph-name="grave" unicode="`" horiz-adv-x="600" 
d="M518 1208l-194 297h260l143 -297h-209z" />
    <glyph glyph-name="a" unicode="a" horiz-adv-x="1126" 
d="M788 0l-4 82h-10q-48 -37 -76 -51q-93 -51 -206 -51q-163 0 -261 84.5t-98 211.5q0 158 117 263.5t313 105.5h299q8 31 8 51q0 73 -47.5 118.5t-126.5 45.5t-127.5 -40.5t-62.5 -92.5h-256q20 66 53.5 122.5t85.5 107t131 79.5t176 29q197 0 313.5 -100.5t116.5 -257.5
q0 -20 -12 -82l-110 -625h-216zM819 399l6 52h-250q-91 0 -138.5 -41.5t-47.5 -112.5q0 -55 45.5 -84t128.5 -29q101 0 172.5 58.5t83.5 156.5z" />
    <glyph glyph-name="b" unicode="b" horiz-adv-x="1249" 
d="M143 0l252 1434h256l-84 -482h11q46 40 75 56q90 57 207 57q186 0 303 -123t117 -328q0 -135 -46 -254.5t-122.5 -201.5t-177 -130t-207.5 -48q-69 0 -127 16t-94 40.5t-56.5 46t-29.5 40.5h-10l-41 -123h-226zM717 215q127 0 217 102.5t90 266.5q0 116 -63 180.5
t-173 64.5q-127 0 -217 -102t-90 -266q0 -116 63 -181t173 -65z" />
    <glyph glyph-name="c" unicode="c" horiz-adv-x="1177" 
d="M936 389h260q-63 -180 -206 -294.5t-324 -114.5q-221 0 -356.5 131.5t-135.5 339.5q0 128 47 242.5t126.5 195.5t189.5 128.5t231 47.5q192 0 314.5 -107t142.5 -292h-254q-49 163 -213 163q-133 0 -230.5 -103.5t-97.5 -254.5q0 -116 68 -186t178 -70q94 0 154.5 44.5
t105.5 129.5z" />
    <glyph glyph-name="d" unicode="d" horiz-adv-x="1280" 
d="M901 0l-2 92h-10q-32 -32 -74 -57q-87 -55 -211 -55q-187 0 -308.5 127t-121.5 333q0 135 45 253t120.5 198.5t176.5 127t211 46.5q65 0 117.5 -13.5t90.5 -40.5t51.5 -40t37.5 -39h10l88 502h256l-252 -1434h-225zM666 215q127 0 217 102.5t90 266.5q0 116 -63 180.5
t-173 64.5q-127 0 -217 -102t-90 -266q0 -116 63 -181t173 -65z" />
    <glyph glyph-name="e" unicode="e" horiz-adv-x="1208" 
d="M899 307h264q-67 -143 -201 -235t-296 -92q-221 0 -356.5 131.5t-135.5 339.5q0 128 47 242.5t126.5 195.5t189.5 128.5t231 47.5q216 0 343.5 -133.5t127.5 -368.5q0 -15 -6 -84l-6 -39h-795q11 -106 78.5 -175.5t165.5 -69.5q147 0 223 112zM455 614h526
q-6 106 -62.5 171t-160.5 65q-99 0 -179.5 -63t-123.5 -173z" />
    <glyph glyph-name="f" unicode="f" horiz-adv-x="757" 
d="M219 0l139 799h-174l43 245h174l33 179q19 105 93.5 168t183.5 63h245l-41 -225h-149q-75 0 -86 -66l-23 -119h226l-43 -245h-226l-139 -799h-256z" />
    <glyph glyph-name="g" unicode="g" horiz-adv-x="1239" 
d="M666 287q118 0 202 90t84 227q0 98 -68.5 167t-166.5 69q-118 0 -202.5 -90.5t-84.5 -227.5q0 -98 69 -166.5t167 -68.5zM102 -51h267q5 -26 17.5 -50t37 -49t68.5 -40t102 -15q100 0 169.5 58t86.5 157l27 154h-11q-34 -34 -67 -51q-91 -52 -205 -52q-185 0 -302.5 120
t-117.5 311q0 159 73 291.5t195.5 207t264.5 74.5q144 0 241 -68q45 -34 64 -67h10l41 114h225l-186 -1058q-32 -190 -172 -303t-346 -113q-222 0 -352 109.5t-130 269.5z" />
    <glyph glyph-name="h" unicode="h" horiz-adv-x="1228" 
d="M143 0l252 1434h256l-82 -471h11q50 39 73 51q96 51 197 51q171 0 270 -100.5t99 -278.5q0 -38 -11 -102l-102 -584h-256l102 586q4 20 4 49q0 86 -58 140t-150 54t-156.5 -55.5t-81.5 -148.5l-111 -625h-256z" />
    <glyph glyph-name="i" unicode="i" horiz-adv-x="522" 
d="M133 0l182 1044h256l-182 -1044h-256zM336 1208l43 246h276l-43 -246h-276z" />
    <glyph glyph-name="j" unicode="j" horiz-adv-x="522" 
d="M-174 -410l43 236h174q58 0 70 65l202 1153h256l-217 -1230q-18 -100 -92.5 -162t-183.5 -62h-252zM336 1208l43 246h276l-43 -246h-276z" />
    <glyph glyph-name="k" unicode="k" horiz-adv-x="1075" 
d="M143 0l252 1434h256l-151 -861l471 471h307l-530 -522l352 -522h-291l-324 492l-86 -492h-256z" />
    <glyph glyph-name="l" unicode="l" horiz-adv-x="542" 
d="M143 0l252 1434h256l-252 -1434h-256z" />
    <glyph glyph-name="m" unicode="m" horiz-adv-x="1761" 
d="M133 0l182 1044h236l8 -81h10q52 41 72 51q96 51 178 51q163 0 256 -143h10q29 31 86 71q113 72 232 72q153 0 250.5 -104t97.5 -265q0 -61 -6 -86l-107 -610h-256l107 610q6 25 6 66q0 69 -42.5 111t-111.5 42q-84 0 -142.5 -53t-72.5 -133l-112 -643h-256l106 610
q6 25 6 66q0 69 -42 111t-111 42q-84 0 -142.5 -53t-72.5 -133l-113 -643h-256z" />
    <glyph glyph-name="n" unicode="n" horiz-adv-x="1218" 
d="M133 0l182 1044h236l8 -81h10q48 37 74 51q96 51 197 51q171 0 269.5 -100.5t98.5 -278.5q0 -44 -10 -102l-102 -584h-256l102 586q4 20 4 49q0 86 -58.5 140t-150.5 54t-156 -55.5t-81 -148.5l-111 -625h-256z" />
    <glyph glyph-name="o" unicode="o" horiz-adv-x="1228" 
d="M758 829q-133 0 -230.5 -103.5t-97.5 -254.5q0 -116 68 -186t178 -70q133 0 230.5 103.5t97.5 254.5q0 116 -68 186t-178 70zM666 -20q-221 0 -356.5 131.5t-135.5 339.5q0 128 47 242.5t126.5 195.5t189.5 128.5t231 47.5q221 0 356.5 -131.5t135.5 -339.5
q0 -128 -47 -242.5t-126.5 -195.5t-189.5 -128.5t-231 -47.5z" />
    <glyph glyph-name="p" unicode="p" horiz-adv-x="1249" 
d="M61 -410l256 1454h236l6 -92h10q44 38 76 56q90 57 207 57q186 0 303 -123t117 -328q0 -135 -46 -254.5t-122.5 -201.5t-177 -130t-207.5 -48q-55 0 -103.5 11t-80 27t-56.5 37t-37.5 37t-19.5 31h-10l-95 -533h-256zM709 215q127 0 217 102.5t90 266.5q0 116 -63 180.5
t-173 64.5q-127 0 -217 -102t-90 -266q0 -116 63 -181t173 -65z" />
    <glyph glyph-name="q" unicode="q" horiz-adv-x="1259" 
d="M797 -410l88 502h-11q-27 -34 -65 -57q-83 -55 -205 -55q-187 0 -308.5 127t-121.5 333q0 135 45 253t120.5 198.5t176.5 127t211 46.5q65 0 117.5 -13.5t90.5 -40.5t51.5 -40t37.5 -39h10l39 112h236l-256 -1454h-256zM666 215q127 0 217 102.5t90 266.5
q0 116 -63 180.5t-173 64.5q-127 0 -217 -102t-90 -266q0 -116 63 -181t173 -65z" />
    <glyph glyph-name="r" unicode="r" horiz-adv-x="788" 
d="M133 0l182 1044h215l5 -71h10q26 22 49 35q62 36 131 36h225l-43 -245h-209q-87 0 -134 -41t-64 -137l-111 -621h-256z" />
    <glyph glyph-name="s" unicode="s" horiz-adv-x="1034" 
d="M133 307v10h246v-10q0 -50 56 -86.5t169 -36.5q89 0 131.5 33t42.5 90q0 36 -25.5 61.5t-97.5 41.5l-153 30q-151 30 -219 98t-68 179q0 144 120 246t320 102q208 0 324.5 -96t116.5 -242h-246q0 52 -55.5 92.5t-149.5 40.5q-82 0 -128 -36t-46 -87q0 -32 29 -53.5
t104 -38.5l154 -31q148 -30 212 -101t64 -185q0 -153 -115.5 -250.5t-324.5 -97.5q-113 0 -199 24.5t-134.5 60t-78.5 82.5t-39.5 85t-9.5 75z" />
    <glyph glyph-name="t" unicode="t" horiz-adv-x="798" 
d="M266 268l92 531h-163l43 245h163l54 297h256l-54 -297h236l-43 -245h-236l-86 -496q-2 -6 -2 -27q0 -51 60 -51h164l-39 -225h-230q-99 0 -160 56.5t-61 148.5q0 29 6 63z" />
    <glyph glyph-name="u" unicode="u" horiz-adv-x="1228" 
d="M213 461l102 583h256l-102 -585q-4 -20 -4 -49q0 -86 59 -140.5t152 -54.5q91 0 154.5 56t80.5 149l111 624h256l-182 -1044h-236l-8 82h-10q-48 -37 -74 -51q-89 -51 -195 -51q-171 0 -270.5 100.5t-99.5 277.5q0 45 10 103z" />
    <glyph glyph-name="v" unicode="v" horiz-adv-x="1064" 
d="M350 0l-176 1044h260l119 -727h41l373 727h272l-541 -1044h-348z" />
    <glyph glyph-name="w" unicode="w" horiz-adv-x="1617" 
d="M268 0l-84 1044h260l54 -686h41l295 686h286l54 -686h40l295 686h273l-449 -1044h-338l-55 676h-41l-293 -676h-338z" />
    <glyph glyph-name="x" unicode="x" horiz-adv-x="1034" 
d="M-10 0l448 543l-243 501h282l158 -327h41l272 327h295l-436 -522l250 -522h-281l-166 348h-41l-284 -348h-295z" />
    <glyph glyph-name="y" unicode="y" 
d="M41 -410l43 236h205q54 0 80 51l30 60l-225 1107h260l144 -706h40l369 706h273l-672 -1273q-50 -95 -113.5 -138t-171.5 -43h-262z" />
    <glyph glyph-name="z" unicode="z" horiz-adv-x="972" 
d="M72 0l41 231l608 578h-498l41 235h830l-41 -231l-609 -577h519l-41 -236h-850z" />
    <glyph glyph-name="braceleft" unicode="{" horiz-adv-x="768" 
d="M229 -86l64 360q4 28 4 37q0 44 -31.5 71.5t-91.5 27.5l47 266h25q119 0 137 112l78 435q23 130 105 201t214 71h178l-40 -235h-109q-87 0 -102 -93l-74 -415q-20 -112 -121 -162q-55 -25 -96 -27l-8 -41q33 -7 75 -33q76 -53 76 -141q0 -15 -4 -47l-68 -364
q-4 -12 -4 -39q0 -32 22 -52t62 -20h99l-43 -236h-148q-118 0 -186 66.5t-68 179.5q0 42 8 78z" />
    <glyph glyph-name="bar" unicode="|" horiz-adv-x="747" 
d="M358 -410v1905h256v-1905h-256z" />
    <glyph glyph-name="braceright" unicode="}" horiz-adv-x="768" 
d="M-8 -410l41 236h108q47 0 68.5 22t32.5 72l73 412q20 112 121 162q46 22 96 28l9 41q-33 7 -76 33q-74 47 -74 141q0 15 4 47l64 365q4 16 4 39q0 32 -22 52t-62 20h-94l41 235h149q122 0 188 -64t66 -182q0 -42 -8 -78l-66 -360q-4 -28 -4 -43q0 -41 31 -66.5t94 -25.5
l-47 -266h-27q-64 0 -95 -27t-42 -84l-78 -436q-23 -130 -107 -201.5t-214 -71.5h-174z" />
    <glyph glyph-name="asciitilde" unicode="~" horiz-adv-x="1208" 
d="M430 369h-246q0 201 88.5 305t239.5 104q55 0 101 -18t77.5 -44t59.5 -52t58.5 -44t61.5 -18q56 0 84.5 37t28.5 119h246q0 -201 -88.5 -305.5t-239.5 -104.5q-55 0 -101 18t-77.5 43.5t-59.5 51t-58.5 43.5t-61.5 18q-57 0 -85 -35t-28 -118z" />
    <glyph glyph-name="nbspace" unicode="&#xa0;" horiz-adv-x="512" 
 />
    <glyph glyph-name="exclamdown" unicode="&#xa1;" horiz-adv-x="593" 
d="M102 -389l99 563l121 451h184l-39 -451l-98 -563h-267zM305 758l49 286h267l-50 -286h-266z" />
    <glyph glyph-name="cent" unicode="&#xa2;" horiz-adv-x="1177" 
d="M451 -225l38 229q-148 47 -231.5 165t-83.5 282q0 235 143.5 404t360.5 202l37 213h256l-41 -230q124 -38 201 -135.5t94 -238.5h-254q-49 163 -213 163q-133 0 -230.5 -103.5t-97.5 -254.5q0 -116 68 -186t178 -70q94 0 154.5 44.5t105.5 129.5h260
q-54 -161 -175.5 -269.5t-277.5 -133.5l-36 -211h-256z" />
    <glyph glyph-name="sterling" unicode="&#xa3;" horiz-adv-x="1269" 
d="M72 0l45 256h84q86 0 104 96l45 242h-174l35 205h174l49 264q34 180 161 285.5t316 105.5q211 0 331 -108t120 -281q0 -5 -1 -16.5t-1 -16.5v-18h-264v20q0 71 -52.5 117.5t-142.5 46.5q-85 0 -137 -43.5t-70 -124.5l-43 -231h387l-34 -205h-388l-45 -242
q-10 -47 -47 -76q-8 -7 -35 -20h775l-45 -256h-1147z" />
    <glyph glyph-name="currency" unicode="&#xa4;" horiz-adv-x="1167" 
d="M707 492q87 0 151 66t64 159q0 91 -64.5 158t-150.5 67t-150.5 -67t-64.5 -158q0 -93 64 -159t151 -66zM266 397l113 125q-20 27 -35.5 79.5t-15.5 115.5t15.5 115t35.5 79l-113 125l123 111l113 -113q84 62 205 62q120 0 204 -62l113 113l123 -111l-113 -125
q20 -27 35.5 -79t15.5 -115t-15.5 -115.5t-35.5 -79.5l113 -125l-123 -110l-113 112q-82 -61 -204 -61q-123 0 -205 61l-113 -112z" />
    <glyph glyph-name="yen" unicode="&#xa5;" horiz-adv-x="1269" 
d="M180 246l33 194h348l27 144h-348l34 194h193l-242 656h291l219 -615h41l436 615h304l-472 -656h193l-35 -194h-348l-27 -144h349l-33 -194h-348l-43 -246h-267l43 246h-348z" />
    <glyph glyph-name="brokenbar" unicode="&#xa6;" horiz-adv-x="747" 
d="M358 717v778h256v-778h-256zM358 -410v779h256v-779h-256z" />
    <glyph glyph-name="section" unicode="&#xa7;" horiz-adv-x="1331" 
d="M164 92h266v-20q0 -90 65 -142.5t191 -52.5q112 0 168.5 45.5t56.5 118.5q0 99 -163 154l-216 71q-162 54 -229 123t-67 184q0 136 92 244q42 51 92 84q-20 24 -27 43q-24 53 -24 121q0 160 135 274.5t356 114.5q120 0 218 -32t161.5 -87t98 -127t34.5 -153v-31h-266v10
q0 90 -65 142.5t-191 52.5q-105 0 -160 -45.5t-55 -118.5q0 -47 35 -74t129 -57l182 -57q178 -55 248.5 -129t70.5 -185q0 -145 -92 -260q-43 -56 -92 -88q17 -24 25 -45q26 -58 26 -129q0 -175 -125 -282t-356 -107q-244 0 -383 115t-139 284v41zM666 461l153 -51
q54 -18 92 -35q25 -13 31 -17q21 16 45 43q47 63 47 121q0 98 -143 144l-154 51q-49 14 -98 35q-29 13 -35 16q-32 -21 -51 -43q-51 -59 -51 -121q0 -50 43 -83.5t121 -59.5z" />
    <glyph glyph-name="dieresis" unicode="&#xa8;" horiz-adv-x="737" 
d="M655 1229l43 235h236l-43 -235h-236zM276 1229l43 235h236l-43 -235h-236z" />
    <glyph glyph-name="copyright" unicode="&#xa9;" horiz-adv-x="1720" 
d="M1167 625h174q-4 -23 -15 -54t-38.5 -75.5t-64 -80.5t-97.5 -61.5t-133 -25.5q-162 0 -270.5 110.5t-108.5 278.5t108.5 278.5t270.5 110.5q72 0 133 -24.5t97.5 -58.5t64 -77t38.5 -73.5t15 -53.5h-174q-5 16 -15 33t-29.5 39.5t-53.5 36.5t-76 14q-88 0 -141 -59
t-53 -166t53 -166t141 -59q42 0 76 14.5t53.5 37.5t29.5 42.5t15 38.5zM983 154q246 0 404.5 158.5t158.5 404.5t-158.5 404.5t-404.5 158.5t-404.5 -158.5t-158.5 -404.5t158.5 -404.5t404.5 -158.5zM236 717q0 155 56.5 292t154.5 234.5t237.5 154t298.5 56.5t298 -56.5
t237.5 -154t155.5 -234.5t57 -292t-57 -292t-155.5 -234.5t-237.5 -154t-298 -56.5t-298.5 56.5t-237.5 154t-154.5 234.5t-56.5 292z" />
    <glyph glyph-name="ordfeminine" unicode="&#xaa;" horiz-adv-x="757" 
d="M684 1040l4 25h-158q-100 0 -100 -82q0 -72 113 -72q56 0 93.5 32.5t47.5 96.5zM659 778l-8 51h-10q-21 -18 -45 -30q-60 -31 -119 -31q-101 0 -166 58t-65 137q0 95 73.5 160t194.5 65h197l2 10l4 21q0 41 -26 66.5t-77 25.5q-43 0 -73 -22.5t-37 -49.5h-185
q31 97 107 156t188 59q135 0 206 -59.5t71 -155.5q0 -4 -8 -68l-70 -393h-154z" />
    <glyph glyph-name="guillemotleft" unicode="&#xab;" horiz-adv-x="1198" 
d="M858 102l-223 420l373 420h274l-381 -430l217 -410h-260zM387 102l-223 420l373 420h274l-381 -430l217 -410h-260z" />
    <glyph glyph-name="logicalnot" unicode="&#xac;" horiz-adv-x="1126" 
d="M225 563v225h840v-491h-254v266h-586z" />
    <glyph glyph-name="uni00AD" unicode="&#xad;" horiz-adv-x="880" 
d="M174 471l41 236h696l-41 -236h-696z" />
    <glyph glyph-name="registered" unicode="&#xae;" horiz-adv-x="1720" 
d="M717 348v737h327q115 0 191 -74t76 -182q0 -55 -21 -100t-54.5 -72.5t-64.5 -43.5t-61 -23l221 -242h-205l-215 236h-20v-236h-174zM891 727h143q41 0 72 28.5t31 73.5t-31.5 74t-71.5 29h-143v-205zM983 154q246 0 404.5 158.5t158.5 404.5t-158.5 404.5t-404.5 158.5
t-404.5 -158.5t-158.5 -404.5t158.5 -404.5t404.5 -158.5zM236 717q0 155 56.5 292t154.5 234.5t237.5 154t298.5 56.5t298 -56.5t237.5 -154t155.5 -234.5t57 -292t-57 -292t-155.5 -234.5t-237.5 -154t-298 -56.5t-298.5 56.5t-237.5 154t-154.5 234.5t-56.5 292z" />
    <glyph glyph-name="overscore" unicode="&#xaf;" horiz-adv-x="757" 
d="M287 1260l35 194h634l-34 -194h-635z" />
    <glyph glyph-name="degree" unicode="&#xb0;" horiz-adv-x="798" 
d="M707 1167q0 54 -34.5 88.5t-88.5 34.5t-88.5 -34.5t-34.5 -88.5t34.5 -88.5t88.5 -34.5t88.5 34.5t34.5 88.5zM297 1167q0 117 83 202t204 85t203.5 -85t82.5 -202t-82.5 -201.5t-203.5 -84.5t-204 84.5t-83 201.5z" />
    <glyph glyph-name="plusminus" unicode="&#xb1;" horiz-adv-x="1126" 
d="M553 348v359h-348v225h348v358h225v-358h348v-225h-348v-359h-225zM205 0v225h921v-225h-921z" />
    <glyph glyph-name="uni00B2" unicode="&#xb2;" horiz-adv-x="696" 
d="M256 901l25 133l331 275q3 2 14.5 12t13.5 12t11.5 10t11 10.5t8 10t8 12t5.5 12t5 14t2 15t1 17.5q0 31 -22 51t-60 20q-47 0 -75.5 -27t-36.5 -75h-164q18 106 91 176t185 70q114 0 180 -58t66 -147q0 -78 -37.5 -130.5t-118.5 -117.5l-176 -141l-2 -11h281l-25 -143
h-522z" />
    <glyph glyph-name="uni00B3" unicode="&#xb3;" horiz-adv-x="696" 
d="M256 1126h164v-10q0 -34 27.5 -58t74.5 -24q49 0 76 27.5t27 75.5q0 32 -24.5 51.5t-72.5 19.5h-59l23 133h77q46 0 76.5 28t30.5 65q0 32 -23 51.5t-69 19.5q-31 0 -58 -22.5t-37 -59.5h-163q17 99 93 162.5t175 63.5q120 0 183 -53t63 -142q0 -43 -13 -76.5t-34 -52.5
t-39 -29t-37 -16v-10q26 -9 48.5 -48t22.5 -96q0 -95 -78 -165t-198 -70q-119 0 -187.5 58t-68.5 147v30z" />
    <glyph glyph-name="acute" unicode="&#xb4;" horiz-adv-x="583" 
d="M276 1208l246 297h273l-297 -297h-222z" />
    <glyph glyph-name="uni00B5" unicode="&#xb5;" horiz-adv-x="1228" 
d="M61 -410l256 1454h256l-102 -585q-4 -20 -4 -49q0 -86 59 -140.5t152 -54.5q91 0 154.5 56t80.5 149l111 624h256l-182 -1044h-236l-8 82h-10q-48 -37 -74 -51q-89 -51 -195 -51q-94 0 -180 51l-78 -441h-256z" />
    <glyph glyph-name="paragraph" unicode="&#xb6;" horiz-adv-x="1228" 
d="M553 -205v860q-156 0 -257 107t-101 282t101 282.5t257 107.5h625v-1639h-236v1424h-154v-1424h-235z" />
    <glyph glyph-name="middot" unicode="&#xb7;" horiz-adv-x="512" 
d="M178 410l49 286h287l-49 -286h-287z" />
    <glyph glyph-name="cedilla" unicode="&#xb8;" horiz-adv-x="481" 
d="M-20 -461l24 154h109q36 0 58 20t22 51q0 52 -74 52h-62l15 82l57 92h174l-57 -92q42 -11 81.5 -49t39.5 -105q0 -88 -64.5 -146.5t-171.5 -58.5h-151z" />
    <glyph glyph-name="uni00B9" unicode="&#xb9;" horiz-adv-x="563" 
d="M406 901l86 492h-175l29 153h121q51 0 61 47l9 45h163l-131 -737h-163z" />
    <glyph glyph-name="ordmasculine" unicode="&#xba;" horiz-adv-x="839" 
d="M625 1290q-65 0 -119.5 -63t-54.5 -152q0 -68 40.5 -110.5t102.5 -42.5q65 0 119.5 63t54.5 152q0 68 -40.5 110.5t-102.5 42.5zM276 1055q0 165 110.5 282t258.5 117q131 0 214 -83t83 -214q0 -166 -110 -282.5t-259 -116.5q-131 0 -214 83t-83 214z" />
    <glyph glyph-name="guillemotright" unicode="&#xbb;" horiz-adv-x="1198" 
d="M76 102l387 441l-209 399h252l221 -420l-371 -420h-280zM547 102l387 441l-209 399h252l221 -420l-371 -420h-280z" />
    <glyph glyph-name="onequarter" unicode="&#xbc;" horiz-adv-x="1423" 
d="M133 0l1143 1434h190l-1142 -1434h-191zM381 696l86 492h-174l29 153h120q51 0 62 48l8 45h164l-131 -738h-164zM993 287h154l41 235h-21l-172 -225zM772 143l27 148l348 446h244l-80 -450h82l-27 -144h-82l-24 -143h-164l24 143h-348z" />
    <glyph glyph-name="onehalf" unicode="&#xbd;" horiz-adv-x="1454" 
d="M133 0l1143 1434h190l-1142 -1434h-191zM381 696l86 492h-174l29 153h120q51 0 62 48l8 45h164l-131 -738h-164zM825 0l25 133l332 275q4 3 16 13t15 13t12 11t11.5 11.5t8.5 11.5t7.5 13.5t4.5 14t4 17.5t1 19q0 31 -22.5 51.5t-59.5 20.5q-47 0 -76 -27t-37 -75h-164
q18 105 91.5 175.5t185.5 70.5q114 0 179.5 -58t65.5 -147q0 -78 -37 -130.5t-118 -117.5l-176 -141l-2 -11h280l-24 -143h-523z" />
    <glyph glyph-name="threequarters" unicode="&#xbe;" horiz-adv-x="1546" 
d="M256 0l1143 1434h190l-1143 -1434h-190zM236 922h163v-11q0 -34 28 -58t75 -24q49 0 75.5 27.5t26.5 75.5q0 32 -24 52t-72 20h-59l22 133h78q46 0 76 27.5t30 64.5q0 32 -23 51.5t-69 19.5q-32 0 -58 -22t-36 -59h-164q17 99 93 162t175 63q120 0 183 -53t63 -142
q0 -43 -13 -76.5t-34 -52.5t-39 -29t-37 -16v-10q27 -9 49.5 -47.5t22.5 -95.5q0 -95 -78 -165.5t-198 -70.5q-119 0 -187.5 58t-68.5 147v31zM1116 287h154l41 235h-21l-172 -225zM895 143l27 148l348 446h243l-79 -450h82l-27 -144h-82l-25 -143h-163l24 143h-348z" />
    <glyph glyph-name="questiondown" unicode="&#xbf;" 
d="M768 20h276q-34 -193 -163 -311.5t-338 -118.5t-335 110t-126 269q0 84 27 154t73.5 117t97 78t109.5 51q79 31 119.5 73.5t50.5 108.5l12 74h256l-16 -97q-24 -139 -81.5 -208t-176.5 -115q-39 -16 -66.5 -30.5t-60.5 -39t-50.5 -59t-17.5 -76.5q0 -72 54 -118t151 -46
q164 0 205 184zM586 758l49 286h276l-49 -286h-276z" />
    <glyph glyph-name="Agrave" unicode="&#xc0;" horiz-adv-x="1413" 
d="M20 0l764 1434h390l266 -1434h-297l-56 307h-602l-161 -307h-304zM614 553h430l-94 573h-41zM870 1577l-194 297h260l143 -297h-209z" />
    <glyph glyph-name="Aacute" unicode="&#xc1;" horiz-adv-x="1413" 
d="M20 0l764 1434h390l266 -1434h-297l-56 307h-602l-161 -307h-304zM614 553h430l-94 573h-41zM891 1577l246 297h272l-297 -297h-221z" />
    <glyph glyph-name="Acircumflex" unicode="&#xc2;" horiz-adv-x="1413" 
d="M20 0l764 1434h390l266 -1434h-297l-56 307h-602l-161 -307h-304zM614 553h430l-94 573h-41zM625 1577l297 297h225l194 -297h-229l-96 154l-150 -154h-241z" />
    <glyph glyph-name="Atilde" unicode="&#xc3;" horiz-adv-x="1413" 
d="M20 0l764 1434h390l266 -1434h-297l-56 307h-602l-161 -307h-304zM614 553h430l-94 573h-41zM819 1597h-174q17 116 92 186t176 70q35 0 65.5 -12.5t48.5 -28t42.5 -28t48.5 -12.5q63 0 84 81h174q-17 -116 -92 -186t-176 -70q-44 0 -79.5 20.5t-65.5 41t-60 20.5
q-63 0 -84 -82z" />
    <glyph glyph-name="Adieresis" unicode="&#xc4;" horiz-adv-x="1413" 
d="M20 0l764 1434h390l266 -1434h-297l-56 307h-602l-161 -307h-304zM614 553h430l-94 573h-41zM1075 1608l43 235h236l-43 -235h-236zM696 1608l43 235h236l-43 -235h-236z" />
    <glyph glyph-name="Aring" unicode="&#xc5;" horiz-adv-x="1413" 
d="M20 0l764 1434h390l266 -1434h-297l-56 307h-602l-161 -307h-304zM614 553h430l-94 573h-41zM1024 1823q-38 0 -65 -27t-27 -65q0 -31 22.5 -51.5t59.5 -20.5q38 0 65 27t27 65q0 31 -22.5 51.5t-59.5 20.5zM1004 1536q-92 0 -143.5 49t-51.5 135q0 100 62.5 163
t162.5 63q92 0 143.5 -49t51.5 -136q0 -100 -62.5 -162.5t-162.5 -62.5z" />
    <glyph glyph-name="AE" unicode="&#xc6;" horiz-adv-x="1945" 
d="M-51 0l876 1434h1260l-43 -246h-696l-62 -348h655l-43 -246h-655l-61 -348h696l-43 -246h-963l56 317h-482l-192 -317h-303zM584 553h383l112 635h-106z" />
    <glyph glyph-name="Ccedilla" unicode="&#xc7;" horiz-adv-x="1505" 
d="M545 -461l24 154h109q36 0 58 20t22 51q0 52 -74 52h-61l14 82l59 96q-220 46 -350.5 213t-130.5 407q0 144 42.5 275.5t117 233t172.5 177t213.5 115t234.5 39.5q246 0 407.5 -142t186.5 -380h-272q-76 266 -354 266q-74 0 -144.5 -24.5t-131.5 -74t-107 -117
t-72.5 -160t-26.5 -197.5q0 -179 105.5 -284t283.5 -105q123 0 226 72.5t166 203.5h276q-89 -241 -263 -383t-413 -149l-51 -82q42 -11 81.5 -49t39.5 -105q0 -88 -64.5 -146.5t-171.5 -58.5h-151z" />
    <glyph glyph-name="Egrave" unicode="&#xc8;" horiz-adv-x="1228" 
d="M154 0l252 1434h962l-43 -246h-696l-62 -348h656l-43 -246h-656l-61 -348h696l-43 -246h-962zM809 1577l-195 297h260l144 -297h-209z" />
    <glyph glyph-name="Eacute" unicode="&#xc9;" horiz-adv-x="1228" 
d="M154 0l252 1434h962l-43 -246h-696l-62 -348h656l-43 -246h-656l-61 -348h696l-43 -246h-962zM778 1577l246 297h272l-297 -297h-221z" />
    <glyph glyph-name="Ecircumflex" unicode="&#xca;" horiz-adv-x="1228" 
d="M154 0l252 1434h962l-43 -246h-696l-62 -348h656l-43 -246h-656l-61 -348h696l-43 -246h-962zM532 1577l297 297h226l194 -297h-229l-96 154l-150 -154h-242z" />
    <glyph glyph-name="Edieresis" unicode="&#xcb;" horiz-adv-x="1228" 
d="M154 0l252 1434h962l-43 -246h-696l-62 -348h656l-43 -246h-656l-61 -348h696l-43 -246h-962zM973 1608l43 235h235l-43 -235h-235zM594 1608l43 235h235l-43 -235h-235z" />
    <glyph glyph-name="Igrave" unicode="&#xcc;" horiz-adv-x="573" 
d="M154 0l252 1434h266l-252 -1434h-266zM430 1577l-194 297h260l143 -297h-209z" />
    <glyph glyph-name="Iacute" unicode="&#xcd;" horiz-adv-x="573" 
d="M154 0l252 1434h266l-252 -1434h-266zM451 1577l245 297h273l-297 -297h-221z" />
    <glyph glyph-name="Icircumflex" unicode="&#xce;" horiz-adv-x="573" 
d="M154 0l252 1434h266l-252 -1434h-266zM195 1577l297 297h225l194 -297h-229l-96 154l-150 -154h-241z" />
    <glyph glyph-name="Idieresis" unicode="&#xcf;" horiz-adv-x="573" 
d="M154 0l252 1434h266l-252 -1434h-266zM635 1608l43 235h235l-43 -235h-235zM256 1608l43 235h236l-43 -235h-236z" />
    <glyph glyph-name="Eth" unicode="&#xd0;" horiz-adv-x="1505" 
d="M195 0l106 604h-184l39 225h184l106 605h537q110 0 213 -48t180 -130t123.5 -199t46.5 -248q0 -133 -40 -257t-112.5 -223t-167.5 -173.5t-211 -115t-237 -40.5h-583zM506 256h293q212 0 346.5 144.5t134.5 387.5q0 166 -103.5 278t-244.5 112h-264l-62 -349h318
l-39 -225h-318z" />
    <glyph glyph-name="Ntilde" unicode="&#xd1;" horiz-adv-x="1495" 
d="M154 0l252 1434h356l346 -994h43l176 994h266l-252 -1434h-356l-348 993h-43l-174 -993h-266zM850 1597h-174q17 116 92 186t176 70q35 0 65.5 -12.5t48.5 -28t42.5 -28t48.5 -12.5q63 0 84 81h174q-17 -116 -92 -186t-176 -70q-44 0 -79.5 20.5t-65.5 41t-60 20.5
q-63 0 -84 -82z" />
    <glyph glyph-name="Ograve" unicode="&#xd2;" horiz-adv-x="1576" 
d="M1352 809q0 179 -105 284t-284 105q-74 0 -144.5 -24.5t-131.5 -74t-107 -117t-72.5 -160t-26.5 -197.5q0 -179 105.5 -284t283.5 -105q96 0 183.5 41t153.5 114.5t105.5 182t39.5 235.5zM840 -20q-136 0 -253 47.5t-198.5 131t-127.5 201t-46 254.5q0 144 42.5 276
t117 233t172 176.5t212.5 115t234 39.5q182 0 325 -81.5t221.5 -226t78.5 -327.5q0 -176 -63 -333t-168.5 -267.5t-248 -174.5t-298.5 -64zM922 1577l-195 297h260l143 -297h-208z" />
    <glyph glyph-name="Oacute" unicode="&#xd3;" horiz-adv-x="1576" 
d="M1352 809q0 179 -105 284t-284 105q-74 0 -144.5 -24.5t-131.5 -74t-107 -117t-72.5 -160t-26.5 -197.5q0 -179 105.5 -284t283.5 -105q96 0 183.5 41t153.5 114.5t105.5 182t39.5 235.5zM840 -20q-136 0 -253 47.5t-198.5 131t-127.5 201t-46 254.5q0 144 42.5 276
t117 233t172 176.5t212.5 115t234 39.5q182 0 325 -81.5t221.5 -226t78.5 -327.5q0 -176 -63 -333t-168.5 -267.5t-248 -174.5t-298.5 -64zM932 1577l246 297h272l-297 -297h-221z" />
    <glyph glyph-name="Ocircumflex" unicode="&#xd4;" horiz-adv-x="1576" 
d="M1352 809q0 179 -105 284t-284 105q-74 0 -144.5 -24.5t-131.5 -74t-107 -117t-72.5 -160t-26.5 -197.5q0 -179 105.5 -284t283.5 -105q96 0 183.5 41t153.5 114.5t105.5 182t39.5 235.5zM840 -20q-136 0 -253 47.5t-198.5 131t-127.5 201t-46 254.5q0 144 42.5 276
t117 233t172 176.5t212.5 115t234 39.5q182 0 325 -81.5t221.5 -226t78.5 -327.5q0 -176 -63 -333t-168.5 -267.5t-248 -174.5t-298.5 -64zM686 1577l297 297h225l195 -297h-229l-97 154l-149 -154h-242z" />
    <glyph glyph-name="Otilde" unicode="&#xd5;" horiz-adv-x="1576" 
d="M1352 809q0 179 -105 284t-284 105q-74 0 -144.5 -24.5t-131.5 -74t-107 -117t-72.5 -160t-26.5 -197.5q0 -179 105.5 -284t283.5 -105q96 0 183.5 41t153.5 114.5t105.5 182t39.5 235.5zM840 -20q-136 0 -253 47.5t-198.5 131t-127.5 201t-46 254.5q0 144 42.5 276
t117 233t172 176.5t212.5 115t234 39.5q182 0 325 -81.5t221.5 -226t78.5 -327.5q0 -176 -63 -333t-168.5 -267.5t-248 -174.5t-298.5 -64zM881 1597h-174q17 116 92 186t176 70q35 0 65.5 -12.5t48.5 -28t42.5 -28t48.5 -12.5q63 0 84 81h174q-17 -115 -92.5 -185.5
t-176.5 -70.5q-35 0 -65 13t-48 28t-42.5 28t-48.5 13q-63 0 -84 -82z" />
    <glyph glyph-name="Odieresis" unicode="&#xd6;" horiz-adv-x="1576" 
d="M1352 809q0 179 -105 284t-284 105q-74 0 -144.5 -24.5t-131.5 -74t-107 -117t-72.5 -160t-26.5 -197.5q0 -179 105.5 -284t283.5 -105q96 0 183.5 41t153.5 114.5t105.5 182t39.5 235.5zM840 -20q-136 0 -253 47.5t-198.5 131t-127.5 201t-46 254.5q0 144 42.5 276
t117 233t172 176.5t212.5 115t234 39.5q182 0 325 -81.5t221.5 -226t78.5 -327.5q0 -176 -63 -333t-168.5 -267.5t-248 -174.5t-298.5 -64zM1126 1608l43 235h236l-43 -235h-236zM748 1608l43 235h235l-43 -235h-235z" />
    <glyph glyph-name="multiply" unicode="&#xd7;" horiz-adv-x="1126" 
d="M215 338l266 266l-266 266l174 174l266 -266l267 266l174 -174l-267 -266l267 -266l-174 -174l-267 266l-266 -266z" />
    <glyph glyph-name="Oslash" unicode="&#xd8;" horiz-adv-x="1576" 
d="M229 -72l160 230q-174 177 -174 456q0 144 42.5 275.5t117 233t172.5 177t213.5 115t234.5 39.5q141 0 267 -55l75 106h271l-164 -231q174 -177 174 -455q0 -176 -63 -333t-168.5 -267.5t-248 -174.5t-298.5 -64h-2q-139 0 -267 53l-71 -105h-271zM551 385l555 791
q-71 22 -143 22q-74 0 -144.5 -24.5t-131.5 -74t-107 -117t-72.5 -160t-26.5 -197.5q0 -142 70 -240zM1284 1044l-555 -788q59 -20 141 -20q96 0 183.5 41t153.5 114.5t105.5 182t39.5 235.5q0 135 -68 235z" />
    <glyph glyph-name="Ugrave" unicode="&#xd9;" horiz-adv-x="1474" 
d="M250 637l141 797h266l-145 -822q-8 -36 -8 -77q0 -132 81.5 -215.5t219.5 -83.5q126 0 227 87.5t125 231.5l156 879h266l-160 -902q-29 -170 -120 -296.5t-224 -191t-291 -64.5q-252 0 -400 139t-148 368q0 73 14 150zM891 1577l-195 297h260l144 -297h-209z" />
    <glyph glyph-name="Uacute" unicode="&#xda;" horiz-adv-x="1474" 
d="M250 637l141 797h266l-145 -822q-8 -36 -8 -77q0 -132 81.5 -215.5t219.5 -83.5q126 0 227 87.5t125 231.5l156 879h266l-160 -902q-29 -170 -120 -296.5t-224 -191t-291 -64.5q-252 0 -400 139t-148 368q0 73 14 150zM881 1577l245 297h273l-297 -297h-221z" />
    <glyph glyph-name="Ucircumflex" unicode="&#xdb;" horiz-adv-x="1474" 
d="M250 637l141 797h266l-145 -822q-8 -36 -8 -77q0 -132 81.5 -215.5t219.5 -83.5q126 0 227 87.5t125 231.5l156 879h266l-160 -902q-29 -170 -120 -296.5t-224 -191t-291 -64.5q-252 0 -400 139t-148 368q0 73 14 150zM625 1577l297 297h225l194 -297h-229l-96 154
l-150 -154h-241z" />
    <glyph glyph-name="Udieresis" unicode="&#xdc;" horiz-adv-x="1474" 
d="M250 637l141 797h266l-145 -822q-8 -36 -8 -77q0 -132 81.5 -215.5t219.5 -83.5q126 0 227 87.5t125 231.5l156 879h266l-160 -902q-29 -170 -120 -296.5t-224 -191t-291 -64.5q-252 0 -400 139t-148 368q0 73 14 150zM1055 1608l43 235h235l-43 -235h-235zM676 1608
l43 235h235l-43 -235h-235z" />
    <glyph glyph-name="Yacute" unicode="&#xdd;" horiz-adv-x="1269" 
d="M485 0l86 492l-356 942h291l229 -615h41l447 615h303l-688 -942l-86 -492h-267zM748 1577l245 297h273l-297 -297h-221z" />
    <glyph glyph-name="Thorn" unicode="&#xde;" horiz-adv-x="1464" 
d="M154 0l252 1434h266l-47 -267h501q162 0 270.5 -110.5t108.5 -278.5q0 -222 -142.5 -367t-358.5 -145h-539l-45 -266h-266zM510 522h504q99 0 162 61t63 154q0 77 -48.5 125.5t-123.5 48.5h-487z" />
    <glyph glyph-name="germandbls" unicode="&#xdf;" horiz-adv-x="1198" 
d="M133 0l189 1067q29 179 161.5 283t335.5 104q214 0 332.5 -102t118.5 -267q0 -181 -119 -292q-57 -50 -117 -70v-10q44 -30 76 -64q78 -86 78 -209q0 -194 -130 -317t-345 -123h-150l39 225h80q116 0 183 59.5t67 155.5q0 79 -56 132t-145 53h-69l40 225h93
q96 0 157.5 59t61.5 146q0 72 -54 118t-151 46q-92 0 -157 -48.5t-79 -126.5l-184 -1044h-256z" />
    <glyph glyph-name="agrave" unicode="&#xe0;" horiz-adv-x="1126" 
d="M788 0l-4 82h-10q-48 -37 -76 -51q-93 -51 -206 -51q-163 0 -261 84.5t-98 211.5q0 158 117 263.5t313 105.5h299q8 31 8 51q0 73 -47.5 118.5t-126.5 45.5t-127.5 -40.5t-62.5 -92.5h-256q20 66 53.5 122.5t85.5 107t131 79.5t176 29q197 0 313.5 -100.5t116.5 -257.5
q0 -20 -12 -82l-110 -625h-216zM819 399l6 52h-250q-91 0 -138.5 -41.5t-47.5 -112.5q0 -55 45.5 -84t128.5 -29q101 0 172.5 58.5t83.5 156.5zM666 1188l-195 297h260l143 -297h-208z" />
    <glyph glyph-name="aacute" unicode="&#xe1;" horiz-adv-x="1126" 
d="M788 0l-4 82h-10q-48 -37 -76 -51q-93 -51 -206 -51q-163 0 -261 84.5t-98 211.5q0 158 117 263.5t313 105.5h299q8 31 8 51q0 73 -47.5 118.5t-126.5 45.5t-127.5 -40.5t-62.5 -92.5h-256q20 66 53.5 122.5t85.5 107t131 79.5t176 29q197 0 313.5 -100.5t116.5 -257.5
q0 -20 -12 -82l-110 -625h-216zM819 399l6 52h-250q-91 0 -138.5 -41.5t-47.5 -112.5q0 -55 45.5 -84t128.5 -29q101 0 172.5 58.5t83.5 156.5zM645 1188l246 297h272l-297 -297h-221z" />
    <glyph glyph-name="acircumflex" unicode="&#xe2;" horiz-adv-x="1126" 
d="M788 0l-4 82h-10q-48 -37 -76 -51q-93 -51 -206 -51q-163 0 -261 84.5t-98 211.5q0 158 117 263.5t313 105.5h299q8 31 8 51q0 73 -47.5 118.5t-126.5 45.5t-127.5 -40.5t-62.5 -92.5h-256q20 66 53.5 122.5t85.5 107t131 79.5t176 29q197 0 313.5 -100.5t116.5 -257.5
q0 -20 -12 -82l-110 -625h-216zM819 399l6 52h-250q-91 0 -138.5 -41.5t-47.5 -112.5q0 -55 45.5 -84t128.5 -29q101 0 172.5 58.5t83.5 156.5zM410 1188l297 297h225l194 -297h-229l-96 153l-150 -153h-241z" />
    <glyph glyph-name="atilde" unicode="&#xe3;" horiz-adv-x="1126" 
d="M788 0l-4 82h-10q-48 -37 -76 -51q-93 -51 -206 -51q-163 0 -261 84.5t-98 211.5q0 158 117 263.5t313 105.5h299q8 31 8 51q0 73 -47.5 118.5t-126.5 45.5t-127.5 -40.5t-62.5 -92.5h-256q20 66 53.5 122.5t85.5 107t131 79.5t176 29q197 0 313.5 -100.5t116.5 -257.5
q0 -20 -12 -82l-110 -625h-216zM819 399l6 52h-250q-91 0 -138.5 -41.5t-47.5 -112.5q0 -55 45.5 -84t128.5 -29q101 0 172.5 58.5t83.5 156.5zM614 1208h-174q17 115 92.5 185.5t176.5 70.5q35 0 65 -13t48 -28t42.5 -28t48.5 -13q63 0 84 82h174q-17 -116 -92 -186
t-176 -70q-44 0 -79.5 20.5t-65.5 41t-60 20.5q-63 0 -84 -82z" />
    <glyph glyph-name="adieresis" unicode="&#xe4;" horiz-adv-x="1126" 
d="M788 0l-4 82h-10q-48 -37 -76 -51q-93 -51 -206 -51q-163 0 -261 84.5t-98 211.5q0 158 117 263.5t313 105.5h299q8 31 8 51q0 73 -47.5 118.5t-126.5 45.5t-127.5 -40.5t-62.5 -92.5h-256q20 66 53.5 122.5t85.5 107t131 79.5t176 29q197 0 313.5 -100.5t116.5 -257.5
q0 -20 -12 -82l-110 -625h-216zM819 399l6 52h-250q-91 0 -138.5 -41.5t-47.5 -112.5q0 -55 45.5 -84t128.5 -29q101 0 172.5 58.5t83.5 156.5zM850 1219l43 235h235l-43 -235h-235zM471 1219l43 235h236l-43 -235h-236z" />
    <glyph glyph-name="aring" unicode="&#xe5;" horiz-adv-x="1126" 
d="M788 0l-4 82h-10q-48 -37 -76 -51q-93 -51 -206 -51q-163 0 -261 84.5t-98 211.5q0 158 117 263.5t313 105.5h299q8 31 8 51q0 73 -47.5 118.5t-126.5 45.5t-127.5 -40.5t-62.5 -92.5h-256q20 66 53.5 122.5t85.5 107t131 79.5t176 29q197 0 313.5 -100.5t116.5 -257.5
q0 -20 -12 -82l-110 -625h-216zM819 399l6 52h-250q-91 0 -138.5 -41.5t-47.5 -112.5q0 -55 45.5 -84t128.5 -29q101 0 172.5 58.5t83.5 156.5zM799 1434q-38 0 -65 -27.5t-27 -65.5q0 -31 21.5 -51t59.5 -20t65.5 27t27.5 65q0 31 -22.5 51.5t-59.5 20.5zM778 1147
q-92 0 -143 48.5t-51 135.5q0 100 62.5 162.5t162.5 62.5q92 0 143.5 -49t51.5 -135q0 -100 -63 -162.5t-163 -62.5z" />
    <glyph glyph-name="ae" unicode="&#xe6;" horiz-adv-x="1843" 
d="M563 645h299q8 31 8 51q0 73 -47.5 118.5t-126.5 45.5t-127.5 -40.5t-62.5 -92.5h-256q20 66 53.5 122.5t85.5 107t131 79.5t176 29q112 0 201.5 -39t146.5 -104q71 63 171.5 103t197.5 40q211 0 331 -132t120 -370q0 -15 -6 -84l-7 -39h-764q11 -107 74 -176t160 -69
q127 0 203 112h264q-67 -144 -194 -235.5t-283 -91.5q-261 0 -389 176q-40 -48 -105 -88q-135 -88 -325 -88q-163 0 -261 84.5t-98 211.5q0 158 117 263.5t313 105.5zM819 399l6 52h-250q-91 0 -138.5 -41.5t-47.5 -112.5q0 -55 45.5 -84t128.5 -29q101 0 172.5 58.5
t83.5 156.5zM1110 614h496q-6 106 -57 171t-146 65q-98 0 -173.5 -62.5t-119.5 -173.5z" />
    <glyph glyph-name="ccedilla" unicode="&#xe7;" horiz-adv-x="1177" 
d="M381 -461l25 154h108q36 0 58 20t22 51q0 52 -74 52h-61l14 82l59 96q-166 37 -262 159t-96 298q0 128 47 242.5t126.5 195.5t189.5 128.5t231 47.5q192 0 314.5 -107t142.5 -292h-254q-49 163 -213 163q-133 0 -230.5 -103.5t-97.5 -254.5q0 -116 68 -186t178 -70
q94 0 154.5 44.5t105.5 129.5h260q-59 -171 -194 -283t-304 -124l-51 -84q42 -11 81.5 -49t39.5 -105q0 -88 -64.5 -146.5t-171.5 -58.5h-151z" />
    <glyph glyph-name="egrave" unicode="&#xe8;" horiz-adv-x="1208" 
d="M899 307h264q-67 -143 -201 -235t-296 -92q-221 0 -356.5 131.5t-135.5 339.5q0 128 47 242.5t126.5 195.5t189.5 128.5t231 47.5q216 0 343.5 -133.5t127.5 -368.5q0 -15 -6 -84l-6 -39h-795q11 -106 78.5 -175.5t165.5 -69.5q147 0 223 112zM455 614h526
q-6 106 -62.5 171t-160.5 65q-99 0 -179.5 -63t-123.5 -173zM686 1188l-194 297h260l143 -297h-209z" />
    <glyph glyph-name="eacute" unicode="&#xe9;" horiz-adv-x="1208" 
d="M899 307h264q-67 -143 -201 -235t-296 -92q-221 0 -356.5 131.5t-135.5 339.5q0 128 47 242.5t126.5 195.5t189.5 128.5t231 47.5q216 0 343.5 -133.5t127.5 -368.5q0 -15 -6 -84l-6 -39h-795q11 -106 78.5 -175.5t165.5 -69.5q147 0 223 112zM455 614h526
q-6 106 -62.5 171t-160.5 65q-99 0 -179.5 -63t-123.5 -173zM676 1188l246 297h272l-297 -297h-221z" />
    <glyph glyph-name="ecircumflex" unicode="&#xea;" horiz-adv-x="1208" 
d="M899 307h264q-67 -143 -201 -235t-296 -92q-221 0 -356.5 131.5t-135.5 339.5q0 128 47 242.5t126.5 195.5t189.5 128.5t231 47.5q216 0 343.5 -133.5t127.5 -368.5q0 -15 -6 -84l-6 -39h-795q11 -106 78.5 -175.5t165.5 -69.5q147 0 223 112zM455 614h526
q-6 106 -62.5 171t-160.5 65q-99 0 -179.5 -63t-123.5 -173zM440 1188l297 297h226l194 -297h-229l-97 153l-149 -153h-242z" />
    <glyph glyph-name="edieresis" unicode="&#xeb;" horiz-adv-x="1208" 
d="M899 307h264q-67 -143 -201 -235t-296 -92q-221 0 -356.5 131.5t-135.5 339.5q0 128 47 242.5t126.5 195.5t189.5 128.5t231 47.5q216 0 343.5 -133.5t127.5 -368.5q0 -15 -6 -84l-6 -39h-795q11 -106 78.5 -175.5t165.5 -69.5q147 0 223 112zM455 614h526
q-6 106 -62.5 171t-160.5 65q-99 0 -179.5 -63t-123.5 -173zM881 1219l43 235h235l-43 -235h-235zM502 1219l43 235h235l-43 -235h-235z" />
    <glyph glyph-name="igrave" unicode="&#xec;" horiz-adv-x="522" 
d="M133 0l182 1044h256l-182 -1044h-256zM338 1188l-195 297h260l144 -297h-209z" />
    <glyph glyph-name="iacute" unicode="&#xed;" horiz-adv-x="522" 
d="M133 0l182 1044h256l-182 -1044h-256zM358 1188l246 297h273l-297 -297h-222z" />
    <glyph glyph-name="icircumflex" unicode="&#xee;" horiz-adv-x="522" 
d="M133 0l182 1044h256l-182 -1044h-256zM102 1188l297 297h226l194 -297h-229l-96 153l-150 -153h-242z" />
    <glyph glyph-name="idieresis" unicode="&#xef;" horiz-adv-x="522" 
d="M133 0l182 1044h256l-182 -1044h-256zM532 1219l43 235h236l-43 -235h-236zM154 1219l43 235h235l-43 -235h-235z" />
    <glyph glyph-name="eth" unicode="&#xf0;" horiz-adv-x="1198" 
d="M575 1004l-67 143l225 113q-40 35 -69 55q-72 57 -123 78l200 92q59 -35 119 -88l62 -56l258 123l75 -143l-223 -102q21 -21 47.5 -61.5t60.5 -109t56.5 -170.5t22.5 -212q0 -157 -45 -287.5t-123 -217t-182.5 -134t-223.5 -47.5q-212 0 -346.5 124t-134.5 306
q0 146 70.5 268.5t193 193t268.5 70.5q59 0 107.5 -10t85 -29.5t54.5 -32.5t42 -34l4.5 -4.5t3.5 -2.5h11q-22 88 -70.5 179t-79.5 129zM420 430q0 -94 68.5 -159.5t166.5 -65.5q115 0 201 85.5t86 201.5q0 92 -69 158.5t-166 66.5q-115 0 -201 -85.5t-86 -201.5z" />
    <glyph glyph-name="ntilde" unicode="&#xf1;" horiz-adv-x="1218" 
d="M133 0l182 1044h236l8 -81h10q48 37 74 51q96 51 197 51q171 0 269.5 -100.5t98.5 -278.5q0 -44 -10 -102l-102 -584h-256l102 586q4 20 4 49q0 86 -58.5 140t-150.5 54t-156 -55.5t-81 -148.5l-111 -625h-256zM655 1208h-174q17 115 92.5 185.5t176.5 70.5
q35 0 65.5 -13t48 -28t42 -28t48.5 -13q63 0 84 82h174q-17 -116 -92 -186t-176 -70q-44 0 -79.5 20.5t-65.5 41t-60 20.5q-63 0 -84 -82z" />
    <glyph glyph-name="ograve" unicode="&#xf2;" horiz-adv-x="1228" 
d="M758 829q-133 0 -230.5 -103.5t-97.5 -254.5q0 -116 68 -186t178 -70q133 0 230.5 103.5t97.5 254.5q0 116 -68 186t-178 70zM666 -20q-221 0 -356.5 131.5t-135.5 339.5q0 128 47 242.5t126.5 195.5t189.5 128.5t231 47.5q221 0 356.5 -131.5t135.5 -339.5
q0 -128 -47 -242.5t-126.5 -195.5t-189.5 -128.5t-231 -47.5zM696 1188l-194 297h260l143 -297h-209z" />
    <glyph glyph-name="oacute" unicode="&#xf3;" horiz-adv-x="1228" 
d="M758 829q-133 0 -230.5 -103.5t-97.5 -254.5q0 -116 68 -186t178 -70q133 0 230.5 103.5t97.5 254.5q0 116 -68 186t-178 70zM666 -20q-221 0 -356.5 131.5t-135.5 339.5q0 128 47 242.5t126.5 195.5t189.5 128.5t231 47.5q221 0 356.5 -131.5t135.5 -339.5
q0 -128 -47 -242.5t-126.5 -195.5t-189.5 -128.5t-231 -47.5zM686 1188l246 297h272l-297 -297h-221z" />
    <glyph glyph-name="ocircumflex" unicode="&#xf4;" horiz-adv-x="1228" 
d="M758 829q-133 0 -230.5 -103.5t-97.5 -254.5q0 -116 68 -186t178 -70q133 0 230.5 103.5t97.5 254.5q0 116 -68 186t-178 70zM666 -20q-221 0 -356.5 131.5t-135.5 339.5q0 128 47 242.5t126.5 195.5t189.5 128.5t231 47.5q221 0 356.5 -131.5t135.5 -339.5
q0 -128 -47 -242.5t-126.5 -195.5t-189.5 -128.5t-231 -47.5zM451 1188l297 297h225l194 -297h-229l-96 153l-150 -153h-241z" />
    <glyph glyph-name="otilde" unicode="&#xf5;" horiz-adv-x="1228" 
d="M758 829q-133 0 -230.5 -103.5t-97.5 -254.5q0 -116 68 -186t178 -70q133 0 230.5 103.5t97.5 254.5q0 116 -68 186t-178 70zM666 -20q-221 0 -356.5 131.5t-135.5 339.5q0 128 47 242.5t126.5 195.5t189.5 128.5t231 47.5q221 0 356.5 -131.5t135.5 -339.5
q0 -128 -47 -242.5t-126.5 -195.5t-189.5 -128.5t-231 -47.5zM645 1208h-174q17 116 92 186t176 70q44 0 79.5 -20.5t65.5 -41t60 -20.5q63 0 84 82h174q-17 -116 -92 -186t-176 -70q-44 0 -79.5 20.5t-65.5 41t-60 20.5q-63 0 -84 -82z" />
    <glyph glyph-name="odieresis" unicode="&#xf6;" horiz-adv-x="1228" 
d="M758 829q-133 0 -230.5 -103.5t-97.5 -254.5q0 -116 68 -186t178 -70q133 0 230.5 103.5t97.5 254.5q0 116 -68 186t-178 70zM666 -20q-221 0 -356.5 131.5t-135.5 339.5q0 128 47 242.5t126.5 195.5t189.5 128.5t231 47.5q221 0 356.5 -131.5t135.5 -339.5
q0 -128 -47 -242.5t-126.5 -195.5t-189.5 -128.5t-231 -47.5zM891 1219l43 235h235l-43 -235h-235zM512 1219l43 235h236l-43 -235h-236z" />
    <glyph glyph-name="divide" unicode="&#xf7;" horiz-adv-x="1126" 
d="M205 481v226h901v-226h-901zM522 236q0 61 38.5 97t94.5 36t94.5 -36t38.5 -97t-38.5 -97.5t-94.5 -36.5t-94.5 36.5t-38.5 97.5zM522 952q0 61 38.5 97t94.5 36t94.5 -36t38.5 -97t-38.5 -97t-94.5 -36t-94.5 36t-38.5 97z" />
    <glyph glyph-name="oslash" unicode="&#xf8;" horiz-adv-x="1228" 
d="M174 -72l133 185q-133 124 -133 338q0 128 47 242.5t126.5 195.5t189.5 128.5t231 47.5q108 0 201 -35l61 86h230l-134 -184q134 -134 134 -338q0 -128 -47 -242.5t-126.5 -195.5t-189.5 -128.5t-231 -47.5q-111 0 -201 34l-62 -86h-229zM969 713l-353 -490q31 -8 70 -8
q126 0 222 104t96 254q0 81 -35 140zM471 338l348 483q-31 8 -61 8q-126 0 -222 -104t-96 -254q0 -73 31 -133z" />
    <glyph glyph-name="ugrave" unicode="&#xf9;" horiz-adv-x="1228" 
d="M213 461l102 583h256l-102 -585q-4 -20 -4 -49q0 -86 59 -140.5t152 -54.5q91 0 154.5 56t80.5 149l111 624h256l-182 -1044h-236l-8 82h-10q-48 -37 -74 -51q-89 -51 -195 -51q-171 0 -270.5 100.5t-99.5 277.5q0 45 10 103zM696 1188l-194 297h260l143 -297h-209z" />
    <glyph glyph-name="uacute" unicode="&#xfa;" horiz-adv-x="1228" 
d="M213 461l102 583h256l-102 -585q-4 -20 -4 -49q0 -86 59 -140.5t152 -54.5q91 0 154.5 56t80.5 149l111 624h256l-182 -1044h-236l-8 82h-10q-48 -37 -74 -51q-89 -51 -195 -51q-171 0 -270.5 100.5t-99.5 277.5q0 45 10 103zM686 1188l246 297h272l-297 -297h-221z" />
    <glyph glyph-name="ucircumflex" unicode="&#xfb;" horiz-adv-x="1228" 
d="M213 461l102 583h256l-102 -585q-4 -20 -4 -49q0 -86 59 -140.5t152 -54.5q91 0 154.5 56t80.5 149l111 624h256l-182 -1044h-236l-8 82h-10q-48 -37 -74 -51q-89 -51 -195 -51q-171 0 -270.5 100.5t-99.5 277.5q0 45 10 103zM440 1188l297 297h226l194 -297h-229
l-97 153l-149 -153h-242z" />
    <glyph glyph-name="udieresis" unicode="&#xfc;" horiz-adv-x="1228" 
d="M213 461l102 583h256l-102 -585q-4 -20 -4 -49q0 -86 59 -140.5t152 -54.5q91 0 154.5 56t80.5 149l111 624h256l-182 -1044h-236l-8 82h-10q-48 -37 -74 -51q-89 -51 -195 -51q-171 0 -270.5 100.5t-99.5 277.5q0 45 10 103zM881 1219l43 235h235l-43 -235h-235z
M502 1219l43 235h235l-43 -235h-235z" />
    <glyph glyph-name="yacute" unicode="&#xfd;" 
d="M41 -410l43 236h205q54 0 80 51l30 60l-225 1107h260l144 -706h40l369 706h273l-672 -1273q-50 -95 -113.5 -138t-171.5 -43h-262zM594 1188l246 297h272l-297 -297h-221z" />
    <glyph glyph-name="thorn" unicode="&#xfe;" horiz-adv-x="1259" 
d="M72 -410l325 1844h256l-84 -482h11q46 40 75 56q90 57 207 57q186 0 303 -123t117 -328q0 -135 -46 -254.5t-122.5 -201.5t-177 -130t-207.5 -48q-55 0 -103.5 11t-80 27t-56.5 37t-37.5 37t-19.5 31h-10l-94 -533h-256zM719 215q127 0 217 102.5t90 266.5
q0 116 -62.5 180.5t-172.5 64.5q-127 0 -217.5 -102t-90.5 -266q0 -116 63 -181t173 -65z" />
    <glyph glyph-name="ydieresis" unicode="&#xff;" 
d="M41 -410l43 236h205q54 0 80 51l30 60l-225 1107h260l144 -706h40l369 706h273l-672 -1273q-50 -95 -113.5 -138t-171.5 -43h-262zM799 1219l43 235h235l-43 -235h-235zM420 1219l43 235h235l-43 -235h-235z" />
    <glyph glyph-name="Amacron" unicode="&#x100;" horiz-adv-x="1413" 
d="M20 0l764 1434h390l266 -1434h-297l-56 307h-602l-161 -307h-304zM614 553h430l-94 573h-41zM678 1628l35 195h635l-35 -195h-635z" />
    <glyph glyph-name="amacron" unicode="&#x101;" horiz-adv-x="1126" 
d="M788 0l-4 82h-10q-48 -37 -76 -51q-93 -51 -206 -51q-163 0 -261 84.5t-98 211.5q0 158 117 263.5t313 105.5h299q8 31 8 51q0 73 -47.5 118.5t-126.5 45.5t-127.5 -40.5t-62.5 -92.5h-256q20 66 53.5 122.5t85.5 107t131 79.5t176 29q197 0 313.5 -100.5t116.5 -257.5
q0 -20 -12 -82l-110 -625h-216zM819 399l6 52h-250q-91 0 -138.5 -41.5t-47.5 -112.5q0 -55 45.5 -84t128.5 -29q101 0 172.5 58.5t83.5 156.5zM471 1239l35 195h635l-35 -195h-635z" />
    <glyph glyph-name="Abreve" unicode="&#x102;" horiz-adv-x="1413" 
d="M20 0l764 1434h390l266 -1434h-297l-56 307h-602l-161 -307h-304zM614 553h430l-94 573h-41zM696 1853v21h195q0 -123 123 -123q50 0 87 35t56 88h195q-27 -133 -114 -215t-234 -82q-146 0 -227 75t-81 201z" />
    <glyph glyph-name="abreve" unicode="&#x103;" horiz-adv-x="1126" 
d="M788 0l-4 82h-10q-48 -37 -76 -51q-93 -51 -206 -51q-163 0 -261 84.5t-98 211.5q0 158 117 263.5t313 105.5h299q8 31 8 51q0 73 -47.5 118.5t-126.5 45.5t-127.5 -40.5t-62.5 -92.5h-256q20 66 53.5 122.5t85.5 107t131 79.5t176 29q197 0 313.5 -100.5t116.5 -257.5
q0 -20 -12 -82l-110 -625h-216zM819 399l6 52h-250q-91 0 -138.5 -41.5t-47.5 -112.5q0 -55 45.5 -84t128.5 -29q101 0 172.5 58.5t83.5 156.5zM481 1464v21h195q0 -123 123 -123q50 0 87 35t56 88h195q-27 -132 -114.5 -214.5t-234.5 -82.5q-146 0 -226.5 75t-80.5 201z
" />
    <glyph glyph-name="Aogonek" unicode="&#x104;" horiz-adv-x="1413" 
d="M20 0l764 1434h390l266 -1434h-103q-71 -34 -97 -61q-36 -37 -36 -82q0 -62 72 -62h24l-26 -153h-55q-100 0 -160 51t-60 123q0 80 72 137q25 23 72 47l-56 307h-602l-161 -307h-304zM614 553h430l-94 573h-41z" />
    <glyph glyph-name="aogonek" unicode="&#x105;" horiz-adv-x="1126" 
d="M940 -358h-55q-100 0 -159.5 51t-59.5 123q0 33 14 64.5t34 52t41 36.5t35 23.5t17 7.5h-19l-4 82h-10q-48 -37 -76 -51q-93 -51 -206 -51q-163 0 -261 84.5t-98 211.5q0 158 117 263.5t313 105.5h299q8 31 8 51q0 73 -47.5 118.5t-126.5 45.5t-127.5 -40.5t-62.5 -92.5
h-256q20 66 53.5 122.5t85.5 107t131 79.5t176 29q197 0 313.5 -100.5t116.5 -257.5q0 -20 -12 -82l-110 -625q-70 -34 -96 -59q-37 -38 -38 -84q0 -62 72 -62h25zM819 399l6 52h-250q-91 0 -138.5 -41.5t-47.5 -112.5q0 -55 45.5 -84t128.5 -29q101 0 172.5 58.5
t83.5 156.5z" />
    <glyph glyph-name="Cacute" unicode="&#x106;" horiz-adv-x="1505" 
d="M1262 512h276q-89 -245 -270 -388.5t-428 -143.5q-136 0 -253 47.5t-198.5 131t-127.5 201t-46 254.5q0 144 42.5 275.5t117 233t172.5 177t213.5 115t234.5 39.5q246 0 407.5 -142t186.5 -380h-272q-76 266 -354 266q-74 0 -144.5 -24.5t-131.5 -74t-107 -117
t-72.5 -160t-26.5 -197.5q0 -179 105.5 -284t283.5 -105q123 0 226 72.5t166 203.5zM922 1577l245 297h273l-297 -297h-221z" />
    <glyph glyph-name="cacute" unicode="&#x107;" horiz-adv-x="1177" 
d="M936 389h260q-63 -180 -206 -294.5t-324 -114.5q-221 0 -356.5 131.5t-135.5 339.5q0 128 47 242.5t126.5 195.5t189.5 128.5t231 47.5q192 0 314.5 -107t142.5 -292h-254q-49 163 -213 163q-133 0 -230.5 -103.5t-97.5 -254.5q0 -116 68 -186t178 -70q94 0 154.5 44.5
t105.5 129.5zM676 1188l246 297h272l-297 -297h-221z" />
    <glyph glyph-name="Ccircumflex" unicode="&#x108;" horiz-adv-x="1505" 
d="M1262 512h276q-89 -245 -270 -388.5t-428 -143.5q-136 0 -253 47.5t-198.5 131t-127.5 201t-46 254.5q0 144 42.5 275.5t117 233t172.5 177t213.5 115t234.5 39.5q246 0 407.5 -142t186.5 -380h-272q-76 266 -354 266q-74 0 -144.5 -24.5t-131.5 -74t-107 -117
t-72.5 -160t-26.5 -197.5q0 -179 105.5 -284t283.5 -105q123 0 226 72.5t166 203.5zM674 1577l297 297h225l195 -297h-230l-96 154l-150 -154h-241z" />
    <glyph glyph-name="ccircumflex" unicode="&#x109;" horiz-adv-x="1177" 
d="M936 389h260q-63 -180 -206 -294.5t-324 -114.5q-221 0 -356.5 131.5t-135.5 339.5q0 128 47 242.5t126.5 195.5t189.5 128.5t231 47.5q192 0 314.5 -107t142.5 -292h-254q-49 163 -213 163q-133 0 -230.5 -103.5t-97.5 -254.5q0 -116 68 -186t178 -70q94 0 154.5 44.5
t105.5 129.5zM440 1188l297 297h226l194 -297h-229l-97 153l-149 -153h-242z" />
    <glyph glyph-name="Cdotaccent" unicode="&#x10a;" horiz-adv-x="1505" 
d="M1262 512h276q-89 -245 -270 -388.5t-428 -143.5q-136 0 -253 47.5t-198.5 131t-127.5 201t-46 254.5q0 144 42.5 275.5t117 233t172.5 177t213.5 115t234.5 39.5q246 0 407.5 -142t186.5 -380h-272q-76 266 -354 266q-74 0 -144.5 -24.5t-131.5 -74t-107 -117
t-72.5 -160t-26.5 -197.5q0 -179 105.5 -284t283.5 -105q123 0 226 72.5t166 203.5zM932 1608l43 235h235l-43 -235h-235z" />
    <glyph glyph-name="cdotaccent" unicode="&#x10b;" horiz-adv-x="1177" 
d="M936 389h260q-63 -180 -206 -294.5t-324 -114.5q-221 0 -356.5 131.5t-135.5 339.5q0 128 47 242.5t126.5 195.5t189.5 128.5t231 47.5q192 0 314.5 -107t142.5 -292h-254q-49 163 -213 163q-133 0 -230.5 -103.5t-97.5 -254.5q0 -116 68 -186t178 -70q94 0 154.5 44.5
t105.5 129.5zM686 1219l43 235h236l-43 -235h-236z" />
    <glyph glyph-name="Ccaron" unicode="&#x10c;" horiz-adv-x="1505" 
d="M1262 512h276q-89 -245 -270 -388.5t-428 -143.5q-136 0 -253 47.5t-198.5 131t-127.5 201t-46 254.5q0 144 42.5 275.5t117 233t172.5 177t213.5 115t234.5 39.5q246 0 407.5 -142t186.5 -380h-272q-76 266 -354 266q-74 0 -144.5 -24.5t-131.5 -74t-107 -117
t-72.5 -160t-26.5 -197.5q0 -179 105.5 -284t283.5 -105q123 0 226 72.5t166 203.5zM924 1577l-195 297h229l97 -154l149 154h242l-297 -297h-225z" />
    <glyph glyph-name="ccaron" unicode="&#x10d;" horiz-adv-x="1177" 
d="M936 389h260q-63 -180 -206 -294.5t-324 -114.5q-221 0 -356.5 131.5t-135.5 339.5q0 128 47 242.5t126.5 195.5t189.5 128.5t231 47.5q192 0 314.5 -107t142.5 -292h-254q-49 163 -213 163q-133 0 -230.5 -103.5t-97.5 -254.5q0 -116 68 -186t178 -70q94 0 154.5 44.5
t105.5 129.5zM696 1188l-194 297h229l96 -154l150 154h242l-297 -297h-226z" />
    <glyph glyph-name="Dcaron" unicode="&#x10e;" horiz-adv-x="1464" 
d="M154 0l252 1434h536q110 0 213 -48t180 -130t123.5 -199t46.5 -248q0 -133 -40 -257t-112.5 -223t-167.5 -173.5t-211 -115t-237 -40.5h-583zM465 256h293q212 0 346.5 144.5t134.5 387.5q0 166 -103.5 278t-244.5 112h-264zM840 1577l-195 297h229l97 -154l149 154h242
l-297 -297h-225z" />
    <glyph glyph-name="dcaron" unicode="&#x10f;" horiz-adv-x="1468" 
d="M901 0l-2 92h-10q-32 -32 -74 -57q-87 -55 -211 -55q-187 0 -308.5 127t-121.5 333q0 135 45 253t120.5 198.5t176.5 127t211 46.5q65 0 117.5 -13.5t90.5 -40.5t51.5 -40t37.5 -39h10l88 502h256l-252 -1434h-225zM666 215q127 0 217 102.5t90 266.5q0 116 -63 180.5
t-173 64.5q-127 0 -217 -102t-90 -266q0 -116 63 -181t173 -65zM1413 1085l143 349h242l-184 -349h-201z" />
    <glyph glyph-name="Dcroat" unicode="&#x110;" horiz-adv-x="1505" 
d="M195 0l106 604h-184l39 225h184l106 605h537q110 0 213 -48t180 -130t123.5 -199t46.5 -248q0 -133 -40 -257t-112.5 -223t-167.5 -173.5t-211 -115t-237 -40.5h-583zM506 256h293q212 0 346.5 144.5t134.5 387.5q0 166 -103.5 278t-244.5 112h-264l-62 -349h318
l-39 -225h-318z" />
    <glyph glyph-name="dslash" unicode="&#x111;" horiz-adv-x="1269" 
d="M891 0l-2 92h-10q-32 -32 -74 -57q-87 -55 -211 -55q-193 0 -306.5 113.5t-113.5 295.5q0 155 70 282.5t187.5 199t254.5 71.5q145 0 242 -68q41 -27 65 -65h11l47 276h-328l37 205h327l27 154h256l-27 -154h164l-37 -205h-163l-191 -1085h-225zM655 195
q116 0 201.5 87.5t85.5 209.5q0 108 -62 171.5t-163 63.5q-116 0 -201.5 -87.5t-85.5 -209.5q0 -108 62 -171.5t163 -63.5z" />
    <glyph glyph-name="Emacron" unicode="&#x112;" horiz-adv-x="1228" 
d="M154 0l252 1434h962l-43 -246h-696l-62 -348h656l-43 -246h-656l-61 -348h696l-43 -246h-962zM584 1628l34 195h635l-34 -195h-635z" />
    <glyph glyph-name="emacron" unicode="&#x113;" horiz-adv-x="1208" 
d="M899 307h264q-67 -143 -201 -235t-296 -92q-221 0 -356.5 131.5t-135.5 339.5q0 128 47 242.5t126.5 195.5t189.5 128.5t231 47.5q216 0 343.5 -133.5t127.5 -368.5q0 -15 -6 -84l-6 -39h-795q11 -106 78.5 -175.5t165.5 -69.5q147 0 223 112zM455 614h526
q-6 106 -62.5 171t-160.5 65q-99 0 -179.5 -63t-123.5 -173zM502 1239l35 195h634l-34 -195h-635z" />
    <glyph glyph-name="Ebreve" unicode="&#x114;" horiz-adv-x="1228" 
d="M154 0l252 1434h962l-43 -246h-696l-62 -348h656l-43 -246h-656l-61 -348h696l-43 -246h-962zM604 1853v21h195q0 -123 123 -123q50 0 87 35t56 88h195q-27 -132 -114.5 -214.5t-234.5 -82.5q-146 0 -226.5 75t-80.5 201z" />
    <glyph glyph-name="ebreve" unicode="&#x115;" horiz-adv-x="1208" 
d="M899 307h264q-67 -143 -201 -235t-296 -92q-221 0 -356.5 131.5t-135.5 339.5q0 128 47 242.5t126.5 195.5t189.5 128.5t231 47.5q216 0 343.5 -133.5t127.5 -368.5q0 -15 -6 -84l-6 -39h-795q11 -106 78.5 -175.5t165.5 -69.5q147 0 223 112zM455 614h526
q-6 106 -62.5 171t-160.5 65q-99 0 -179.5 -63t-123.5 -173zM502 1464v21h194q0 -123 123 -123q50 0 87.5 35.5t56.5 87.5h194q-27 -133 -114 -215t-234 -82q-146 0 -226.5 75t-80.5 201z" />
    <glyph glyph-name="Edotaccent" unicode="&#x116;" horiz-adv-x="1228" 
d="M154 0l252 1434h962l-43 -246h-696l-62 -348h656l-43 -246h-656l-61 -348h696l-43 -246h-962zM788 1608l43 235h236l-43 -235h-236z" />
    <glyph glyph-name="edotaccent" unicode="&#x117;" horiz-adv-x="1208" 
d="M899 307h264q-67 -143 -201 -235t-296 -92q-221 0 -356.5 131.5t-135.5 339.5q0 128 47 242.5t126.5 195.5t189.5 128.5t231 47.5q216 0 343.5 -133.5t127.5 -368.5q0 -15 -6 -84l-6 -39h-795q11 -106 78.5 -175.5t165.5 -69.5q147 0 223 112zM455 614h526
q-6 106 -62.5 171t-160.5 65q-99 0 -179.5 -63t-123.5 -173zM686 1219l43 235h236l-43 -235h-236z" />
    <glyph glyph-name="Eogonek" unicode="&#x118;" horiz-adv-x="1228" 
d="M154 0l252 1434h962l-43 -246h-696l-62 -348h656l-43 -246h-656l-61 -348h696l-43 -246q-71 -34 -97 -61q-36 -37 -36 -82q0 -62 72 -62h24l-26 -153h-56q-100 0 -159.5 51t-59.5 123q0 33 14 64.5t34 52t41.5 36.5t35.5 23.5t17 7.5h-766z" />
    <glyph glyph-name="eogonek" unicode="&#x119;" horiz-adv-x="1208" 
d="M715 -358h-56q-100 0 -159.5 51t-59.5 123q0 42 24 81t47 58t50 35q-178 28 -282.5 153t-104.5 308q0 128 47 242.5t126.5 195.5t189.5 128.5t231 47.5q216 0 343.5 -133.5t127.5 -368.5q0 -15 -6 -84l-6 -39h-795q11 -106 78.5 -175.5t165.5 -69.5q147 0 223 112h264
q-62 -127 -169 -212.5t-244 -108.5q-105 -51 -105 -129q0 -62 72 -62h24zM455 614h526q-6 106 -62.5 171t-160.5 65q-99 0 -179.5 -63t-123.5 -173z" />
    <glyph glyph-name="Ecaron" unicode="&#x11a;" horiz-adv-x="1228" 
d="M154 0l252 1434h962l-43 -246h-696l-62 -348h656l-43 -246h-656l-61 -348h696l-43 -246h-962zM788 1577l-194 297h229l97 -154l149 154h242l-297 -297h-226z" />
    <glyph glyph-name="ecaron" unicode="&#x11b;" horiz-adv-x="1208" 
d="M899 307h264q-67 -143 -201 -235t-296 -92q-221 0 -356.5 131.5t-135.5 339.5q0 128 47 242.5t126.5 195.5t189.5 128.5t231 47.5q216 0 343.5 -133.5t127.5 -368.5q0 -15 -6 -84l-6 -39h-795q11 -106 78.5 -175.5t165.5 -69.5q147 0 223 112zM455 614h526
q-6 106 -62.5 171t-160.5 65q-99 0 -179.5 -63t-123.5 -173zM696 1188l-194 297h229l96 -154l150 154h242l-297 -297h-226z" />
    <glyph glyph-name="Gcircumflex" unicode="&#x11c;" horiz-adv-x="1576" 
d="M1249 0l6 143h-10q-59 -64 -166 -113.5t-239 -49.5q-136 0 -253 47.5t-198.5 131t-127.5 201t-46 254.5q0 144 42.5 275.5t117 233t172.5 177t213.5 115t234.5 39.5q247 0 408 -137.5t186 -374.5h-272q-73 256 -354 256q-74 0 -144.5 -24.5t-131.5 -74t-107 -117
t-72.5 -160t-26.5 -197.5q0 -179 105.5 -284t283.5 -105q83 0 159.5 29.5t126 73.5t81 89t37.5 82l8 43h-356l37 205h624l-133 -758h-205zM676 1577l297 297h225l195 -297h-230l-96 154l-149 -154h-242z" />
    <glyph glyph-name="gcircumflex" unicode="&#x11d;" horiz-adv-x="1239" 
d="M666 287q118 0 202 90t84 227q0 98 -68.5 167t-166.5 69q-118 0 -202.5 -90.5t-84.5 -227.5q0 -98 69 -166.5t167 -68.5zM102 -51h267q5 -26 17.5 -50t37 -49t68.5 -40t102 -15q100 0 169.5 58t86.5 157l27 154h-11q-34 -34 -67 -51q-91 -52 -205 -52q-185 0 -302.5 120
t-117.5 311q0 159 73 291.5t195.5 207t264.5 74.5q144 0 241 -68q45 -34 64 -67h10l41 114h225l-186 -1058q-32 -190 -172 -303t-346 -113q-222 0 -352 109.5t-130 269.5zM461 1188l297 297h225l195 -297h-230l-96 153l-150 -153h-241z" />
    <glyph glyph-name="Gbreve" unicode="&#x11e;" horiz-adv-x="1576" 
d="M1249 0l6 143h-10q-59 -64 -166 -113.5t-239 -49.5q-136 0 -253 47.5t-198.5 131t-127.5 201t-46 254.5q0 144 42.5 275.5t117 233t172.5 177t213.5 115t234.5 39.5q247 0 408 -137.5t186 -374.5h-272q-73 256 -354 256q-74 0 -144.5 -24.5t-131.5 -74t-107 -117
t-72.5 -160t-26.5 -197.5q0 -179 105.5 -284t283.5 -105q83 0 159.5 29.5t126 73.5t81 89t37.5 82l8 43h-356l37 205h624l-133 -758h-205zM748 1853v21h194q0 -123 123 -123q50 0 87 35t56 88h195q-27 -133 -114 -215t-234 -82q-146 0 -226.5 75t-80.5 201z" />
    <glyph glyph-name="gbreve" unicode="&#x11f;" horiz-adv-x="1239" 
d="M666 287q118 0 202 90t84 227q0 98 -68.5 167t-166.5 69q-118 0 -202.5 -90.5t-84.5 -227.5q0 -98 69 -166.5t167 -68.5zM102 -51h267q5 -26 17.5 -50t37 -49t68.5 -40t102 -15q100 0 169.5 58t86.5 157l27 154h-11q-34 -34 -67 -51q-91 -52 -205 -52q-185 0 -302.5 120
t-117.5 311q0 159 73 291.5t195.5 207t264.5 74.5q144 0 241 -68q45 -34 64 -67h10l41 114h225l-186 -1058q-32 -190 -172 -303t-346 -113q-222 0 -352 109.5t-130 269.5zM520 1464v21h195q0 -123 123 -123q50 0 87 35t56 88h195q-27 -132 -114.5 -214.5t-234.5 -82.5
q-146 0 -226.5 75t-80.5 201z" />
    <glyph glyph-name="Gdotaccent" unicode="&#x120;" horiz-adv-x="1576" 
d="M1249 0l6 143h-10q-59 -64 -166 -113.5t-239 -49.5q-136 0 -253 47.5t-198.5 131t-127.5 201t-46 254.5q0 144 42.5 275.5t117 233t172.5 177t213.5 115t234.5 39.5q247 0 408 -137.5t186 -374.5h-272q-73 256 -354 256q-74 0 -144.5 -24.5t-131.5 -74t-107 -117
t-72.5 -160t-26.5 -197.5q0 -179 105.5 -284t283.5 -105q83 0 159.5 29.5t126 73.5t81 89t37.5 82l8 43h-356l37 205h624l-133 -758h-205zM932 1608l43 235h235l-43 -235h-235z" />
    <glyph glyph-name="gdotaccent" unicode="&#x121;" horiz-adv-x="1239" 
d="M666 287q118 0 202 90t84 227q0 98 -68.5 167t-166.5 69q-118 0 -202.5 -90.5t-84.5 -227.5q0 -98 69 -166.5t167 -68.5zM102 -51h267q5 -26 17.5 -50t37 -49t68.5 -40t102 -15q100 0 169.5 58t86.5 157l27 154h-11q-34 -34 -67 -51q-91 -52 -205 -52q-185 0 -302.5 120
t-117.5 311q0 159 73 291.5t195.5 207t264.5 74.5q144 0 241 -68q45 -34 64 -67h10l41 114h225l-186 -1058q-32 -190 -172 -303t-346 -113q-222 0 -352 109.5t-130 269.5zM686 1219l43 235h236l-43 -235h-236z" />
    <glyph glyph-name="Gcommaaccent" unicode="&#x122;" horiz-adv-x="1576" 
d="M1249 0l6 143h-10q-59 -64 -166 -113.5t-239 -49.5q-136 0 -253 47.5t-198.5 131t-127.5 201t-46 254.5q0 144 42.5 275.5t117 233t172.5 177t213.5 115t234.5 39.5q247 0 408 -137.5t186 -374.5h-272q-73 256 -354 256q-74 0 -144.5 -24.5t-131.5 -74t-107 -117
t-72.5 -160t-26.5 -197.5q0 -179 105.5 -284t283.5 -105q83 0 159.5 29.5t126 73.5t81 89t37.5 82l8 43h-356l37 205h624l-133 -758h-205zM594 -492l141 349h242l-184 -349h-199z" />
    <glyph glyph-name="gcommaaccent" unicode="&#x123;" horiz-adv-x="1239" 
d="M686 1188l184 348h199l-141 -348h-242zM666 287q118 0 202 90t84 227q0 98 -68.5 167t-166.5 69q-118 0 -202.5 -90.5t-84.5 -227.5q0 -98 69 -166.5t167 -68.5zM102 -51h267q5 -26 17.5 -50t37 -49t68.5 -40t102 -15q100 0 169.5 58t86.5 157l27 154h-11
q-34 -34 -67 -51q-91 -52 -205 -52q-185 0 -302.5 120t-117.5 311q0 159 73 291.5t195.5 207t264.5 74.5q144 0 241 -68q45 -34 64 -67h10l41 114h225l-186 -1058q-32 -190 -172 -303t-346 -113q-222 0 -352 109.5t-130 269.5z" />
    <glyph glyph-name="Hcircumflex" unicode="&#x124;" horiz-adv-x="1484" 
d="M154 0l252 1434h266l-101 -574h646l100 574h266l-252 -1434h-266l104 594h-645l-104 -594h-266zM645 1577l297 297h225l195 -297h-229l-97 154l-149 -154h-242z" />
    <glyph glyph-name="hcircumflex" unicode="&#x125;" horiz-adv-x="1228" 
d="M143 0l252 1434h256l-82 -471h11q50 39 73 51q96 51 197 51q171 0 270 -100.5t99 -278.5q0 -38 -11 -102l-102 -584h-256l102 586q4 20 4 49q0 86 -58 140t-150 54t-156.5 -55.5t-81.5 -148.5l-111 -625h-256zM532 1577l297 297h226l194 -297h-229l-96 154l-150 -154
h-242z" />
    <glyph glyph-name="Hbar" unicode="&#x126;" horiz-adv-x="1587" 
d="M201 0l178 1014h-184l43 246h184l31 174h266l-31 -174h645l31 174h266l-31 -174h185l-43 -246h-185l-178 -1014h-266l105 594h-646l-104 -594h-266zM618 860h646l26 154h-645z" />
    <glyph glyph-name="hbar" unicode="&#x127;" horiz-adv-x="1249" 
d="M166 0l188 1075h-164l39 225h164l25 134h256l-25 -134h328l-39 -225h-328l-41 -235h11q50 39 73 51q96 51 199 51q171 0 269 -100.5t98 -278.5q0 -38 -11 -102l-80 -461h-256l82 463q2 8 2 49q0 87 -57 141t-149 54t-157.5 -56t-82.5 -149l-88 -502h-256z" />
    <glyph glyph-name="Imacron" unicode="&#x12a;" horiz-adv-x="573" 
d="M154 0l252 1434h266l-252 -1434h-266zM236 1628l34 195h635l-35 -195h-634z" />
    <glyph glyph-name="imacron" unicode="&#x12b;" horiz-adv-x="522" 
d="M133 0l182 1044h256l-182 -1044h-256zM154 1239l34 195h635l-35 -195h-634z" />
    <glyph glyph-name="Ibreve" unicode="&#x12c;" horiz-adv-x="573" 
d="M154 0l252 1434h266l-252 -1434h-266zM256 1853v21h195q0 -123 122 -123q50 0 87.5 35.5t56.5 87.5h194q-27 -133 -114 -215t-234 -82q-146 0 -226.5 75t-80.5 201z" />
    <glyph glyph-name="ibreve" unicode="&#x12d;" horiz-adv-x="522" 
d="M135 0l182 1044h256l-182 -1044h-256zM174 1464v21h195q0 -123 123 -123q50 0 87 35t56 88h194q-27 -133 -114 -215t-234 -82q-146 0 -226.5 75t-80.5 201z" />
    <glyph glyph-name="Iogonek" unicode="&#x12e;" horiz-adv-x="573" 
d="M285 -358h-56q-100 0 -159.5 51t-59.5 123q0 80 72 137q25 23 72 47l252 1434h266l-252 -1434h-72q-71 -34 -97 -61q-36 -37 -36 -82q0 -62 72 -62h24z" />
    <glyph glyph-name="iogonek" unicode="&#x12f;" horiz-adv-x="522" 
d="M264 -358h-55q-100 0 -159.5 51t-59.5 123q0 81 71 137q25 23 72 47l182 1044h256l-182 -1044h-61q-71 -34 -97 -61q-36 -37 -36 -82q0 -62 71 -62h25zM336 1208l43 246h276l-43 -246h-276z" />
    <glyph glyph-name="Idot" unicode="&#x130;" horiz-adv-x="573" 
d="M154 0l252 1434h266l-252 -1434h-266zM440 1608l43 235h236l-43 -235h-236z" />
    <glyph glyph-name="dotlessi" unicode="&#x131;" horiz-adv-x="522" 
d="M133 0l182 1044h256l-182 -1044h-256z" />
    <glyph glyph-name="uni0132" unicode="&#x132;" horiz-adv-x="1382" 
d="M154 0l252 1434h266l-252 -1434h-266zM563 0l45 256h326q78 0 98 96l193 1082h266l-207 -1172q-47 -262 -297 -262h-424z" />
    <glyph glyph-name="uni0133" unicode="&#x133;" horiz-adv-x="1044" 
d="M135 0l182 1044h256l-182 -1044h-256zM338 1208l43 246h276l-43 -246h-276zM348 -410l43 236h174q58 0 70 65l203 1153h256l-217 -1230q-17 -100 -92.5 -162t-184.5 -62h-252zM858 1208l43 246h277l-43 -246h-277z" />
    <glyph glyph-name="Jcircumflex" unicode="&#x134;" horiz-adv-x="839" 
d="M20 0l46 256h325q78 0 98 96l193 1082h266l-207 -1172q-47 -262 -297 -262h-424zM481 1577l297 297h226l194 -297h-229l-97 154l-149 -154h-242z" />
    <glyph glyph-name="jcircumflex" unicode="&#x135;" horiz-adv-x="522" 
d="M-172 -410l43 236h174q58 0 70 65l202 1153h256l-217 -1230q-18 -100 -92.5 -162t-183.5 -62h-252zM102 1188l297 297h226l194 -297h-229l-96 153l-150 -153h-242z" />
    <glyph glyph-name="Kcommaaccent" unicode="&#x136;" horiz-adv-x="1239" 
d="M154 0l252 1434h266l-115 -646l606 646h338l-678 -717l451 -717h-322l-415 666l-117 -666h-266zM399 -492l142 349h241l-184 -349h-199z" />
    <glyph glyph-name="kcommaaccent" unicode="&#x137;" horiz-adv-x="1075" 
d="M143 0l252 1434h256l-151 -861l471 471h307l-530 -522l352 -522h-291l-324 492l-86 -492h-256zM317 -492l142 349h241l-184 -349h-199z" />
    <glyph glyph-name="Lacute" unicode="&#x139;" horiz-adv-x="1126" 
d="M154 0l252 1434h266l-207 -1178h676l-45 -256h-942zM451 1577l245 297h273l-297 -297h-221z" />
    <glyph glyph-name="lacute" unicode="&#x13a;" horiz-adv-x="542" 
d="M143 0l252 1434h256l-252 -1434h-256zM440 1577l246 297h272l-296 -297h-222z" />
    <glyph glyph-name="Lcommaaccent" unicode="&#x13b;" horiz-adv-x="1126" 
d="M154 0l252 1434h266l-207 -1178h676l-45 -256h-942zM369 -492l141 349h242l-185 -349h-198z" />
    <glyph glyph-name="lcommaaccent" unicode="&#x13c;" horiz-adv-x="542" 
d="M143 0l252 1434h256l-252 -1434h-256zM-20 -492l141 349h241l-184 -349h-198z" />
    <glyph glyph-name="Lcaron" unicode="&#x13d;" horiz-adv-x="1126" 
d="M154 0l252 1434h266l-207 -1178h676l-45 -256h-942zM717 1085l143 349h242l-184 -349h-201z" />
    <glyph glyph-name="lcaron" unicode="&#x13e;" horiz-adv-x="737" 
d="M143 0l252 1434h256l-252 -1434h-256zM682 1085l143 349h242l-184 -349h-201z" />
    <glyph glyph-name="Ldot" unicode="&#x13f;" horiz-adv-x="1126" 
d="M809 655l49 287h287l-49 -287h-287zM154 0l252 1434h266l-207 -1178h676l-45 -256h-942z" />
    <glyph glyph-name="ldot" unicode="&#x140;" horiz-adv-x="880" 
d="M666 614l49 287h286l-49 -287h-286zM143 0l252 1434h256l-252 -1434h-256z" />
    <glyph glyph-name="Lslash" unicode="&#x141;" horiz-adv-x="1167" 
d="M205 0l96 553l-174 -61l45 256l174 61l111 625h266l-92 -525l350 125l-45 -256l-350 -125l-70 -397h676l-45 -256h-942z" />
    <glyph glyph-name="lslash" unicode="&#x142;" horiz-adv-x="624" 
d="M199 0l98 563l-164 -61l41 235l164 62l113 635h256l-95 -533l164 62l-41 -236l-164 -61l-116 -666h-256z" />
    <glyph glyph-name="Nacute" unicode="&#x143;" horiz-adv-x="1495" 
d="M154 0l252 1434h356l346 -994h43l176 994h266l-252 -1434h-356l-348 993h-43l-174 -993h-266zM891 1577l246 297h272l-297 -297h-221z" />
    <glyph glyph-name="nacute" unicode="&#x144;" horiz-adv-x="1218" 
d="M133 0l182 1044h236l8 -81h10q48 37 74 51q96 51 197 51q171 0 269.5 -100.5t98.5 -278.5q0 -44 -10 -102l-102 -584h-256l102 586q4 20 4 49q0 86 -58.5 140t-150.5 54t-156 -55.5t-81 -148.5l-111 -625h-256zM696 1188l246 297h272l-296 -297h-222z" />
    <glyph glyph-name="Ncommaaccent" unicode="&#x145;" horiz-adv-x="1495" 
d="M154 0l252 1434h356l346 -994h43l176 994h266l-252 -1434h-356l-348 993h-43l-174 -993h-266zM502 -492l141 349h242l-185 -349h-198z" />
    <glyph glyph-name="ncommaaccent" unicode="&#x146;" horiz-adv-x="1218" 
d="M133 0l182 1044h236l8 -81h10q48 37 74 51q96 51 197 51q171 0 269.5 -100.5t98.5 -278.5q0 -44 -10 -102l-102 -584h-256l102 586q4 20 4 49q0 86 -58.5 140t-150.5 54t-156 -55.5t-81 -148.5l-111 -625h-256zM348 -492l141 349h242l-184 -349h-199z" />
    <glyph glyph-name="Ncaron" unicode="&#x147;" horiz-adv-x="1495" 
d="M154 0l252 1434h356l346 -994h43l176 994h266l-252 -1434h-356l-348 993h-43l-174 -993h-266zM901 1577l-194 297h229l96 -154l150 154h241l-297 -297h-225z" />
    <glyph glyph-name="ncaron" unicode="&#x148;" horiz-adv-x="1218" 
d="M133 0l182 1044h236l8 -81h10q48 37 74 51q96 51 197 51q171 0 269.5 -100.5t98.5 -278.5q0 -44 -10 -102l-102 -584h-256l102 586q4 20 4 49q0 86 -58.5 140t-150.5 54t-156 -55.5t-81 -148.5l-111 -625h-256zM707 1188l-195 297h229l97 -154l149 154h242l-297 -297
h-225z" />
    <glyph glyph-name="napostrophe" unicode="&#x149;" horiz-adv-x="1310" 
d="M225 0l183 1044h235l8 -81h11q50 39 73 51q96 51 197 51q171 0 269.5 -100.5t98.5 -278.5q0 -44 -10 -102l-102 -584h-256l102 586q4 20 4 49q0 86 -58.5 140t-150.5 54t-156 -55.5t-81 -148.5l-111 -625h-256zM184 1137l144 348h241l-184 -348h-201z" />
    <glyph glyph-name="Eng" unicode="&#x14a;" horiz-adv-x="1495" 
d="M154 0l252 1434h356l346 -994h43l176 994h266l-286 -1622q-23 -128 -100.5 -195.5t-196.5 -67.5h-322l45 256h219q46 0 70 23t35 72l18 100h-90l-348 993h-43l-174 -993h-266z" />
    <glyph glyph-name="eng" unicode="&#x14b;" horiz-adv-x="1218" 
d="M520 -410l43 236h164q79 0 94 86l121 674q4 20 4 49q0 86 -58.5 140t-150.5 54t-156 -55.5t-81 -148.5l-111 -625h-256l182 1044h236l8 -81h10q48 37 74 51q96 51 197 51q171 0 269.5 -100.5t98.5 -278.5q0 -44 -10 -102l-131 -734q-23 -128 -101 -194t-208 -66h-238z
" />
    <glyph glyph-name="Omacron" unicode="&#x14c;" horiz-adv-x="1576" 
d="M1352 809q0 179 -105 284t-284 105q-74 0 -144.5 -24.5t-131.5 -74t-107 -117t-72.5 -160t-26.5 -197.5q0 -179 105.5 -284t283.5 -105q96 0 183.5 41t153.5 114.5t105.5 182t39.5 235.5zM840 -20q-136 0 -253 47.5t-198.5 131t-127.5 201t-46 254.5q0 144 42.5 276
t117 233t172 176.5t212.5 115t234 39.5q182 0 325 -81.5t221.5 -226t78.5 -327.5q0 -176 -63 -333t-168.5 -267.5t-248 -174.5t-298.5 -64zM748 1628l34 195h635l-35 -195h-634z" />
    <glyph glyph-name="omacron" unicode="&#x14d;" horiz-adv-x="1228" 
d="M758 829q-133 0 -230.5 -103.5t-97.5 -254.5q0 -116 68 -186t178 -70q133 0 230.5 103.5t97.5 254.5q0 116 -68 186t-178 70zM666 -20q-221 0 -356.5 131.5t-135.5 339.5q0 128 47 242.5t126.5 195.5t189.5 128.5t231 47.5q221 0 356.5 -131.5t135.5 -339.5
q0 -128 -47 -242.5t-126.5 -195.5t-189.5 -128.5t-231 -47.5zM502 1239l35 195h634l-34 -195h-635z" />
    <glyph glyph-name="Obreve" unicode="&#x14e;" horiz-adv-x="1576" 
d="M1352 809q0 179 -105 284t-284 105q-74 0 -144.5 -24.5t-131.5 -74t-107 -117t-72.5 -160t-26.5 -197.5q0 -179 105.5 -284t283.5 -105q96 0 183.5 41t153.5 114.5t105.5 182t39.5 235.5zM840 -20q-136 0 -253 47.5t-198.5 131t-127.5 201t-46 254.5q0 144 42.5 276
t117 233t172 176.5t212.5 115t234 39.5q182 0 325 -81.5t221.5 -226t78.5 -327.5q0 -176 -63 -333t-168.5 -267.5t-248 -174.5t-298.5 -64zM748 1853v21h194q0 -123 123 -123q50 0 87 35t56 88h195q-27 -133 -114 -215t-234 -82q-146 0 -226.5 75t-80.5 201z" />
    <glyph glyph-name="obreve" unicode="&#x14f;" horiz-adv-x="1228" 
d="M758 829q-133 0 -230.5 -103.5t-97.5 -254.5q0 -116 68 -186t178 -70q133 0 230.5 103.5t97.5 254.5q0 116 -68 186t-178 70zM666 -20q-221 0 -356.5 131.5t-135.5 339.5q0 128 47 242.5t126.5 195.5t189.5 128.5t231 47.5q221 0 356.5 -131.5t135.5 -339.5
q0 -128 -47 -242.5t-126.5 -195.5t-189.5 -128.5t-231 -47.5zM512 1464v21h195q0 -123 122 -123q50 0 87.5 35.5t56.5 87.5h194q-27 -133 -114 -215t-234 -82q-146 0 -226.5 75t-80.5 201z" />
    <glyph glyph-name="Ohungarumlaut" unicode="&#x150;" horiz-adv-x="1576" 
d="M1352 809q0 179 -105 284t-284 105q-74 0 -144.5 -24.5t-131.5 -74t-107 -117t-72.5 -160t-26.5 -197.5q0 -179 105.5 -284t283.5 -105q96 0 183.5 41t153.5 114.5t105.5 182t39.5 235.5zM840 -20q-136 0 -253 47.5t-198.5 131t-127.5 201t-46 254.5q0 144 42.5 276
t117 233t172 176.5t212.5 115t234 39.5q182 0 325 -81.5t221.5 -226t78.5 -327.5q0 -176 -63 -333t-168.5 -267.5t-248 -174.5t-298.5 -64zM748 1577l256 297h241l-287 -297h-210zM1106 1577l256 297h242l-287 -297h-211z" />
    <glyph glyph-name="ohungarumlaut" unicode="&#x151;" horiz-adv-x="1228" 
d="M758 829q-133 0 -230.5 -103.5t-97.5 -254.5q0 -116 68 -186t178 -70q133 0 230.5 103.5t97.5 254.5q0 116 -68 186t-178 70zM666 -20q-221 0 -356.5 131.5t-135.5 339.5q0 128 47 242.5t126.5 195.5t189.5 128.5t231 47.5q221 0 356.5 -131.5t135.5 -339.5
q0 -128 -47 -242.5t-126.5 -195.5t-189.5 -128.5t-231 -47.5zM522 1188l256 297h242l-287 -297h-211zM881 1188l256 297h241l-286 -297h-211z" />
    <glyph glyph-name="OE" unicode="&#x152;" horiz-adv-x="2252" 
d="M829 236q92 0 177 41t150 114t103.5 182t38.5 236q0 182 -95 285.5t-251 103.5q-92 0 -177.5 -41t-150.5 -114t-104 -182t-39 -236q0 -182 95.5 -285.5t252.5 -103.5zM1167 0l21 123h-8q-45 -45 -152 -94t-229 -49t-229.5 46t-185.5 128t-123.5 201.5t-45.5 258.5
q0 176 62.5 333.5t166.5 267.5t242.5 174.5t286.5 64.5q281 0 405 -194h11l30 174h963l-43 -246h-697l-61 -348h655l-43 -246h-655l-61 -348h696l-43 -246h-963z" />
    <glyph glyph-name="oe" unicode="&#x153;" horiz-adv-x="1955" 
d="M1647 307h264q-67 -144 -194 -235.5t-283 -91.5q-253 0 -385 170q-78 -82 -182 -126t-222 -44q-217 0 -344 127t-127 344q0 132 45.5 247t122.5 195t182.5 126t223.5 46q123 0 220.5 -44.5t159.5 -127.5q83 81 189 126.5t219 45.5q211 0 331 -132t120 -370q0 -3 -7 -84
l-6 -39h-764q11 -107 74 -176t160 -69q127 0 203 112zM655 215q127 0 217.5 100.5t90.5 257.5q0 121 -62 188.5t-164 67.5q-127 0 -217 -100.5t-90 -257.5q0 -121 61.5 -188.5t163.5 -67.5zM1233 614h496q-6 106 -57 171t-146 65q-98 0 -173.5 -62.5t-119.5 -173.5z" />
    <glyph glyph-name="Racute" unicode="&#x154;" horiz-adv-x="1361" 
d="M154 0l252 1434h659q157 0 263 -114.5t106 -295.5q0 -122 -42 -225t-112 -168.5t-157.5 -102t-180.5 -36.5h-16l374 -492h-337l-375 492h-82l-86 -492h-266zM549 737h393q88 0 156.5 71.5t68.5 174.5q0 81 -49.5 138t-107.5 57h-383zM799 1577l245 297h273l-297 -297
h-221z" />
    <glyph glyph-name="racute" unicode="&#x155;" horiz-adv-x="788" 
d="M133 0l182 1044h215l5 -71h10q26 22 49 35q62 36 131 36h225l-43 -245h-209q-87 0 -134 -41t-64 -137l-111 -621h-256zM553 1188l246 297h272l-297 -297h-221z" />
    <glyph glyph-name="Rcommaaccent" unicode="&#x156;" horiz-adv-x="1361" 
d="M154 0l252 1434h659q157 0 263 -114.5t106 -295.5q0 -122 -42 -225t-112 -168.5t-157.5 -102t-180.5 -36.5h-16l374 -492h-337l-375 492h-82l-86 -492h-266zM549 737h393q88 0 156.5 71.5t68.5 174.5q0 81 -49.5 138t-107.5 57h-383zM420 -492l141 349h242l-185 -349
h-198z" />
    <glyph glyph-name="rcommaaccent" unicode="&#x157;" horiz-adv-x="788" 
d="M133 0l182 1044h215l5 -71h10q26 22 49 35q62 36 131 36h225l-43 -245h-209q-87 0 -134 -41t-64 -137l-111 -621h-256zM-20 -492l141 349h241l-184 -349h-198z" />
    <glyph glyph-name="Rcaron" unicode="&#x158;" horiz-adv-x="1361" 
d="M154 0l252 1434h659q157 0 263 -114.5t106 -295.5q0 -122 -42 -225t-112 -168.5t-157.5 -102t-180.5 -36.5h-16l374 -492h-337l-375 492h-82l-86 -492h-266zM549 737h393q88 0 156.5 71.5t68.5 174.5q0 81 -49.5 138t-107.5 57h-383zM821 1577l-194 297h229l96 -154
l150 154h241l-296 -297h-226z" />
    <glyph glyph-name="rcaron" unicode="&#x159;" horiz-adv-x="788" 
d="M133 0l182 1044h215l5 -71h10q26 22 49 35q62 36 131 36h225l-43 -245h-209q-87 0 -134 -41t-64 -137l-111 -621h-256zM553 1188l-195 297h230l96 -154l150 154h241l-297 -297h-225z" />
    <glyph glyph-name="Sacute" unicode="&#x15a;" horiz-adv-x="1300" 
d="M143 451h267q0 -91 87 -158.5t240 -67.5q131 0 204 56.5t73 138.5q0 56 -46 95t-159 69l-236 61q-143 37 -214.5 126.5t-71.5 211.5q0 206 147 338.5t395 132.5q260 0 396.5 -113t136.5 -297v-61h-266v21q0 90 -73.5 147t-213.5 57q-127 0 -191.5 -52.5t-64.5 -141.5
q0 -52 31 -87t112 -57l236 -61q348 -89 348 -348q0 -214 -148.5 -347.5t-404.5 -133.5q-279 0 -431.5 121.5t-152.5 308.5v41zM788 1577l246 297h273l-297 -297h-222z" />
    <glyph glyph-name="sacute" unicode="&#x15b;" horiz-adv-x="1034" 
d="M133 307v10h246v-10q0 -50 56 -86.5t169 -36.5q89 0 131.5 33t42.5 90q0 36 -25.5 61.5t-97.5 41.5l-153 30q-151 30 -219 98t-68 179q0 144 120 246t320 102q208 0 324.5 -96t116.5 -242h-246q0 52 -55.5 92.5t-149.5 40.5q-82 0 -128 -36t-46 -87q0 -32 29 -53.5
t104 -38.5l154 -31q148 -30 212 -101t64 -185q0 -153 -115.5 -250.5t-324.5 -97.5q-113 0 -199 24.5t-134.5 60t-78.5 82.5t-39.5 85t-9.5 75zM594 1188l246 297h272l-297 -297h-221z" />
    <glyph glyph-name="Scircumflex" unicode="&#x15c;" horiz-adv-x="1300" 
d="M143 451h267q0 -91 87 -158.5t240 -67.5q131 0 204 56.5t73 138.5q0 56 -46 95t-159 69l-236 61q-143 37 -214.5 126.5t-71.5 211.5q0 206 147 338.5t395 132.5q260 0 396.5 -113t136.5 -297v-61h-266v21q0 90 -73.5 147t-213.5 57q-127 0 -191.5 -52.5t-64.5 -141.5
q0 -52 31 -87t112 -57l236 -61q348 -89 348 -348q0 -214 -148.5 -347.5t-404.5 -133.5q-279 0 -431.5 121.5t-152.5 308.5v41zM530 1577l297 297h226l194 -297h-229l-96 154l-150 -154h-242z" />
    <glyph glyph-name="scircumflex" unicode="&#x15d;" horiz-adv-x="1034" 
d="M133 307v10h246v-10q0 -50 56 -86.5t169 -36.5q89 0 131.5 33t42.5 90q0 36 -25.5 61.5t-97.5 41.5l-153 30q-151 30 -219 98t-68 179q0 144 120 246t320 102q208 0 324.5 -96t116.5 -242h-246q0 52 -55.5 92.5t-149.5 40.5q-82 0 -128 -36t-46 -87q0 -32 29 -53.5
t104 -38.5l154 -31q148 -30 212 -101t64 -185q0 -153 -115.5 -250.5t-324.5 -97.5q-113 0 -199 24.5t-134.5 60t-78.5 82.5t-39.5 85t-9.5 75zM369 1188l297 297h225l194 -297h-229l-96 153l-150 -153h-241z" />
    <glyph glyph-name="Scedilla" unicode="&#x15e;" horiz-adv-x="1300" 
d="M399 -461l25 154h108q36 0 58 20t22 51q0 52 -73 52h-62l15 82l59 98q-198 36 -303 148.5t-105 265.5v41h267q0 -91 87 -158.5t240 -67.5q131 0 204 56.5t73 138.5q0 56 -46 95t-159 69l-236 61q-143 37 -214.5 126.5t-71.5 211.5q0 206 147 338.5t395 132.5
q260 0 396.5 -113t136.5 -297v-61h-266v21q0 90 -73.5 147t-213.5 57q-127 0 -191.5 -52.5t-64.5 -141.5q0 -52 31 -87t112 -57l236 -61q348 -89 348 -348q0 -214 -148.5 -347.5t-404.5 -133.5h-10l-51 -82q42 -11 81 -49t39 -105q0 -88 -64.5 -146.5t-170.5 -58.5h-152z
" />
    <glyph glyph-name="scedilla" unicode="&#x15f;" horiz-adv-x="1034" 
d="M289 -461l24 154h109q36 0 58 20t22 51q0 52 -74 52h-61l14 82l59 96q-74 14 -131 43t-89.5 61.5t-53 73t-27 72.5t-6.5 63v10h246v-10q0 -50 56 -86.5t169 -36.5q89 0 131.5 33t42.5 90q0 36 -25.5 61.5t-97.5 41.5l-153 30q-151 30 -219 98t-68 179q0 144 120 246
t320 102q208 0 324.5 -96t116.5 -242h-246q0 52 -55.5 92.5t-149.5 40.5q-82 0 -128 -36t-46 -87q0 -32 29 -53.5t104 -38.5l154 -31q148 -30 212 -101t64 -185q0 -150 -112.5 -247t-315.5 -101l-51 -82q42 -11 81.5 -49t39.5 -105q0 -88 -64.5 -146.5t-171.5 -58.5h-151z
" />
    <glyph glyph-name="Scaron" unicode="&#x160;" horiz-adv-x="1300" 
d="M143 451h267q0 -91 87 -158.5t240 -67.5q131 0 204 56.5t73 138.5q0 56 -46 95t-159 69l-236 61q-143 37 -214.5 126.5t-71.5 211.5q0 206 147 338.5t395 132.5q260 0 396.5 -113t136.5 -297v-61h-266v21q0 90 -73.5 147t-213.5 57q-127 0 -191.5 -52.5t-64.5 -141.5
q0 -52 31 -87t112 -57l236 -61q348 -89 348 -348q0 -214 -148.5 -347.5t-404.5 -133.5q-279 0 -431.5 121.5t-152.5 308.5v41zM788 1577l-194 297h229l97 -154l149 154h242l-297 -297h-226z" />
    <glyph glyph-name="scaron" unicode="&#x161;" horiz-adv-x="1034" 
d="M133 307v10h246v-10q0 -50 56 -86.5t169 -36.5q89 0 131.5 33t42.5 90q0 36 -25.5 61.5t-97.5 41.5l-153 30q-151 30 -219 98t-68 179q0 144 120 246t320 102q208 0 324.5 -96t116.5 -242h-246q0 52 -55.5 92.5t-149.5 40.5q-82 0 -128 -36t-46 -87q0 -32 29 -53.5
t104 -38.5l154 -31q148 -30 212 -101t64 -185q0 -153 -115.5 -250.5t-324.5 -97.5q-113 0 -199 24.5t-134.5 60t-78.5 82.5t-39.5 85t-9.5 75zM604 1188l-194 297h229l96 -154l150 154h241l-297 -297h-225z" />
    <glyph glyph-name="uni0162" unicode="&#x162;" horiz-adv-x="1208" 
d="M389 -461l25 154h108q36 0 58 20t22 51q0 52 -74 52h-61l14 82l70 102h-92l207 1178h-430l45 256h1126l-45 -256h-430l-207 -1178l-70 -102q42 -11 81.5 -49t39.5 -105q0 -88 -64.5 -146.5t-170.5 -58.5h-152z" />
    <glyph glyph-name="uni0163" unicode="&#x163;" horiz-adv-x="798" 
d="M231 -461l25 154h109q36 0 57.5 20t21.5 51q0 52 -73 52h-62l15 82l71 114q-63 24 -99 73.5t-36 119.5q0 29 6 63l92 531h-163l43 245h163l54 297h256l-54 -297h236l-43 -245h-236l-86 -496q-2 -6 -2 -27q0 -51 60 -51h164l-39 -225h-150l-63 -102q42 -11 81 -49t39 -105
q0 -88 -64.5 -146.5t-170.5 -58.5h-152z" />
    <glyph glyph-name="Tcaron" unicode="&#x164;" horiz-adv-x="1208" 
d="M459 0l207 1178h-430l45 256h1126l-45 -256h-430l-207 -1178h-266zM737 1577l-194 297h229l96 -154l150 154h242l-297 -297h-226z" />
    <glyph glyph-name="tcaron" unicode="&#x165;" horiz-adv-x="925" 
d="M266 268l92 531h-163l43 245h163l54 297h256l-54 -297h236l-43 -245h-236l-86 -496q-2 -6 -2 -27q0 -51 60 -51h164l-39 -225h-230q-99 0 -160 56.5t-61 148.5q0 29 6 63zM870 1147l144 348h241l-184 -348h-201z" />
    <glyph glyph-name="Tbar" unicode="&#x166;" horiz-adv-x="1208" 
d="M459 0l127 727h-297l45 256h297l35 195h-430l45 256h1126l-45 -256h-430l-35 -195h297l-45 -256h-297l-127 -727h-266z" />
    <glyph glyph-name="tbar" unicode="&#x167;" horiz-adv-x="798" 
d="M266 268l29 172h-162l43 246h162l20 113h-163l43 245h163l54 297h256l-54 -297h236l-43 -245h-236l-20 -113h235l-43 -246h-235l-23 -137q-2 -6 -2 -27q0 -51 60 -51h164l-39 -225h-230q-99 0 -160 56.5t-61 148.5q0 29 6 63z" />
    <glyph glyph-name="Umacron" unicode="&#x16a;" horiz-adv-x="1474" 
d="M250 637l141 797h266l-145 -822q-8 -36 -8 -77q0 -132 81.5 -215.5t219.5 -83.5q126 0 227 87.5t125 231.5l156 879h266l-160 -902q-29 -170 -120 -296.5t-224 -191t-291 -64.5q-252 0 -400 139t-148 368q0 73 14 150zM676 1628l35 195h635l-35 -195h-635z" />
    <glyph glyph-name="umacron" unicode="&#x16b;" horiz-adv-x="1228" 
d="M213 461l102 583h256l-102 -585q-4 -20 -4 -49q0 -86 59 -140.5t152 -54.5q91 0 154.5 56t80.5 149l111 624h256l-182 -1044h-236l-8 82h-10q-48 -37 -74 -51q-89 -51 -195 -51q-171 0 -270.5 100.5t-99.5 277.5q0 45 10 103zM502 1239l35 195h634l-34 -195h-635z" />
    <glyph glyph-name="Ubreve" unicode="&#x16c;" horiz-adv-x="1474" 
d="M250 637l141 797h266l-145 -822q-8 -36 -8 -77q0 -132 81.5 -215.5t219.5 -83.5q126 0 227 87.5t125 231.5l156 879h266l-160 -902q-29 -170 -120 -296.5t-224 -191t-291 -64.5q-252 0 -400 139t-148 368q0 73 14 150zM707 1853v21h194q0 -123 123 -123q50 0 87 35t56 88
h195q-27 -133 -114 -215t-234 -82q-146 0 -226.5 75t-80.5 201z" />
    <glyph glyph-name="ubreve" unicode="&#x16d;" horiz-adv-x="1228" 
d="M213 461l102 583h256l-102 -585q-4 -20 -4 -49q0 -86 59 -140.5t152 -54.5q91 0 154.5 56t80.5 149l111 624h256l-182 -1044h-236l-8 82h-10q-48 -37 -74 -51q-89 -51 -195 -51q-171 0 -270.5 100.5t-99.5 277.5q0 45 10 103zM512 1464v21h195q0 -123 122 -123
q50 0 87.5 35.5t56.5 87.5h194q-27 -133 -114 -215t-234 -82q-146 0 -226.5 75t-80.5 201z" />
    <glyph glyph-name="Uring" unicode="&#x16e;" horiz-adv-x="1474" 
d="M250 637l141 797h266l-145 -822q-8 -36 -8 -77q0 -132 81.5 -215.5t219.5 -83.5q126 0 227 87.5t125 231.5l156 879h266l-160 -902q-29 -170 -120 -296.5t-224 -191t-291 -64.5q-252 0 -400 139t-148 368q0 73 14 150zM1014 1823q-38 0 -65 -27t-27 -65q0 -31 22.5 -51.5
t59.5 -20.5q38 0 65 27t27 65q0 31 -22.5 51.5t-59.5 20.5zM993 1536q-92 0 -143 48.5t-51 135.5q0 100 62.5 163t162.5 63q92 0 143.5 -49t51.5 -136q0 -100 -63 -162.5t-163 -62.5z" />
    <glyph glyph-name="uring" unicode="&#x16f;" horiz-adv-x="1228" 
d="M213 461l102 583h256l-102 -585q-4 -20 -4 -49q0 -86 59 -140.5t152 -54.5q91 0 154.5 56t80.5 149l111 624h256l-182 -1044h-236l-8 82h-10q-48 -37 -74 -51q-89 -51 -195 -51q-171 0 -270.5 100.5t-99.5 277.5q0 45 10 103zM819 1434q-38 0 -65 -27.5t-27 -65.5
q0 -31 22 -51t60 -20t65 27t27 65q0 31 -22.5 51.5t-59.5 20.5zM799 1147q-92 0 -143.5 49t-51.5 135q0 100 62.5 162.5t162.5 62.5q92 0 143.5 -49t51.5 -135q0 -100 -62.5 -162.5t-162.5 -62.5z" />
    <glyph glyph-name="Uhungarumlaut" unicode="&#x170;" horiz-adv-x="1474" 
d="M250 637l141 797h266l-145 -822q-8 -36 -8 -77q0 -132 81.5 -215.5t219.5 -83.5q126 0 227 87.5t125 231.5l156 879h266l-160 -902q-29 -170 -120 -296.5t-224 -191t-291 -64.5q-252 0 -400 139t-148 368q0 73 14 150zM686 1577l256 297h242l-287 -297h-211zM1044 1577
l256 297h242l-287 -297h-211z" />
    <glyph glyph-name="uhungarumlaut" unicode="&#x171;" horiz-adv-x="1228" 
d="M213 461l102 583h256l-102 -585q-4 -20 -4 -49q0 -86 59 -140.5t152 -54.5q91 0 154.5 56t80.5 149l111 624h256l-182 -1044h-236l-8 82h-10q-48 -37 -74 -51q-89 -51 -195 -51q-171 0 -270.5 100.5t-99.5 277.5q0 45 10 103zM502 1188l256 297h241l-286 -297h-211z
M860 1188l256 297h242l-287 -297h-211z" />
    <glyph glyph-name="Uogonek" unicode="&#x172;" horiz-adv-x="1474" 
d="M834 -358h-56q-100 0 -159.5 51t-59.5 123q0 15 2.5 29.5t8.5 27.5t10.5 23t15 21.5t15.5 17.5t17.5 16.5t16.5 13.5t17 12.5t14 10.5q-207 29 -323.5 162t-116.5 337q0 73 14 150l141 797h266l-145 -822q-8 -36 -8 -77q0 -132 81.5 -215.5t219.5 -83.5q126 0 227 87.5
t125 231.5l156 879h266l-160 -902q-43 -237 -191.5 -380t-363.5 -168q-100 -49 -100 -127q0 -62 72 -62h24z" />
    <glyph glyph-name="uogonek" unicode="&#x173;" horiz-adv-x="1228" 
d="M991 -358h-55q-100 0 -159.5 51t-59.5 123q0 81 71 137q25 23 72 47l-8 82h-10q-48 -37 -74 -51q-89 -51 -195 -51q-171 0 -270.5 100.5t-99.5 277.5q0 45 10 103l102 583h256l-102 -585q-4 -20 -4 -49q0 -86 59 -140.5t152 -54.5q91 0 154.5 56t80.5 149l111 624h256
l-182 -1044h-41q-71 -34 -97 -61q-36 -37 -36 -82q0 -62 71 -62h25z" />
    <glyph glyph-name="Wcircumflex" unicode="&#x174;" horiz-adv-x="2007" 
d="M362 0l-106 1434h291l69 -1004h41l433 1004h307l80 -1004h41l421 1004h304l-611 -1434h-368l-74 983h-41l-418 -983h-369zM891 1577l297 297h225l195 -297h-230l-96 154l-149 -154h-242z" />
    <glyph glyph-name="wcircumflex" unicode="&#x175;" horiz-adv-x="1617" 
d="M268 0l-84 1044h260l54 -686h41l295 686h286l54 -686h40l295 686h273l-449 -1044h-338l-55 676h-41l-293 -676h-338zM635 1188l297 297h225l195 -297h-230l-96 153l-149 -153h-242z" />
    <glyph glyph-name="Ycircumflex" unicode="&#x176;" horiz-adv-x="1269" 
d="M485 0l86 492l-356 942h291l229 -615h41l447 615h303l-688 -942l-86 -492h-267zM512 1577l297 297h225l195 -297h-230l-96 154l-149 -154h-242z" />
    <glyph glyph-name="ycircumflex" unicode="&#x177;" 
d="M41 -410l43 236h205q54 0 80 51l30 60l-225 1107h260l144 -706h40l369 706h273l-672 -1273q-50 -95 -113.5 -138t-171.5 -43h-262zM358 1188l297 297h226l194 -297h-229l-96 153l-150 -153h-242z" />
    <glyph glyph-name="Ydieresis" unicode="&#x178;" horiz-adv-x="1269" 
d="M485 0l86 492l-356 942h291l229 -615h41l447 615h303l-688 -942l-86 -492h-267zM942 1608l43 235h236l-43 -235h-236zM563 1608l43 235h236l-43 -235h-236z" />
    <glyph glyph-name="Zacute" unicode="&#x179;" horiz-adv-x="1239" 
d="M72 0l41 240l888 938h-712l45 256h1075l-43 -242l-887 -936h733l-45 -256h-1095zM748 1577l245 297h273l-297 -297h-221z" />
    <glyph glyph-name="zacute" unicode="&#x17a;" horiz-adv-x="972" 
d="M72 0l41 231l608 578h-498l41 235h830l-41 -231l-609 -577h519l-41 -236h-850zM563 1188l246 297h272l-297 -297h-221z" />
    <glyph glyph-name="Zdotaccent" unicode="&#x17b;" horiz-adv-x="1239" 
d="M72 0l41 240l888 938h-712l45 256h1075l-43 -242l-887 -936h733l-45 -256h-1095zM748 1608l43 235h235l-43 -235h-235z" />
    <glyph glyph-name="zdotaccent" unicode="&#x17c;" horiz-adv-x="972" 
d="M72 0l41 231l608 578h-498l41 235h830l-41 -231l-609 -577h519l-41 -236h-850zM573 1219l43 235h236l-43 -235h-236z" />
    <glyph glyph-name="Zcaron" unicode="&#x17d;" horiz-adv-x="1239" 
d="M72 0l41 240l888 938h-712l45 256h1075l-43 -242l-887 -936h733l-45 -256h-1095zM758 1577l-195 297h230l96 -154l149 154h242l-297 -297h-225z" />
    <glyph glyph-name="zcaron" unicode="&#x17e;" horiz-adv-x="972" 
d="M72 0l41 231l608 578h-498l41 235h830l-41 -231l-609 -577h519l-41 -236h-850zM584 1188l-195 297h229l97 -154l149 154h242l-297 -297h-225z" />
    <glyph glyph-name="uni018F" unicode="&#x18f;" horiz-adv-x="1546" 
d="M223 686l23 133h1075q-5 172 -110.5 275.5t-278.5 103.5q-103 0 -197.5 -54.5t-161.5 -160.5h-284q97 225 276 348t398 123q182 0 324.5 -81.5t221 -226t78.5 -327.5q0 -176 -63 -333t-168.5 -267.5t-248 -174.5t-298.5 -64q-143 0 -264 56t-199.5 150.5t-112.5 225.5
t-10 274zM1292 604h-811q0 -178 94 -273t265 -95q152 0 275.5 99t176.5 269z" />
    <glyph glyph-name="florin" unicode="&#x192;" horiz-adv-x="890" 
d="M-215 -410l104 246h115q83 0 117 82l282 717h-190l94 246h195l133 331q104 263 315 263h240l-98 -246h-123q-38 0 -61.5 -23.5t-43.5 -68.5l-100 -256h199l-95 -246h-200l-328 -825q-41 -102 -119 -161t-196 -59h-240z" />
    <glyph glyph-name="Aringacute" unicode="&#x1fa;" horiz-adv-x="1413" 
d="M1026 1925l109 143h245l-196 -200q45 -51 45 -127q0 -100 -62.5 -162.5t-162.5 -62.5q-92 0 -143.5 49t-51.5 135q0 98 59.5 159t157.5 66zM932 1710q0 -31 22.5 -51.5t59.5 -20.5q38 0 65 27.5t27 65.5q0 31 -22 51t-60 20t-65 -27t-27 -65zM20 0l764 1434h390
l266 -1434h-297l-56 307h-602l-161 -307h-304zM614 553h430l-94 573h-41z" />
    <glyph glyph-name="aringacute" unicode="&#x1fb;" horiz-adv-x="1126" 
d="M821 1536l109 143h246l-197 -200q45 -51 45 -127q0 -100 -62.5 -163t-162.5 -63q-92 0 -143.5 49t-51.5 136q0 98 59.5 159t157.5 66zM727 1321q0 -31 22.5 -51.5t59.5 -20.5q38 0 65 27t27 65q0 31 -22.5 51.5t-59.5 20.5q-38 0 -65 -27t-27 -65zM788 0l-4 82h-10
q-48 -37 -76 -51q-93 -51 -206 -51q-163 0 -261 84.5t-98 211.5q0 158 117 263.5t313 105.5h299q8 31 8 51q0 73 -47.5 118.5t-126.5 45.5t-127.5 -40.5t-62.5 -92.5h-256q20 66 53.5 122.5t85.5 107t131 79.5t176 29q197 0 313.5 -100.5t116.5 -257.5q0 -20 -12 -82
l-110 -625h-216zM819 399l6 52h-250q-91 0 -138.5 -41.5t-47.5 -112.5q0 -55 45.5 -84t128.5 -29q101 0 172.5 58.5t83.5 156.5z" />
    <glyph glyph-name="AEacute" unicode="&#x1fc;" horiz-adv-x="1945" 
d="M-51 0l876 1434h1260l-43 -246h-696l-62 -348h655l-43 -246h-655l-61 -348h696l-43 -246h-963l56 317h-482l-192 -317h-303zM584 553h383l112 635h-106zM1178 1577l245 297h273l-297 -297h-221z" />
    <glyph glyph-name="aeacute" unicode="&#x1fd;" horiz-adv-x="1843" 
d="M563 645h299q8 31 8 51q0 73 -47.5 118.5t-126.5 45.5t-127.5 -40.5t-62.5 -92.5h-256q20 66 53.5 122.5t85.5 107t131 79.5t176 29q112 0 201.5 -39t146.5 -104q71 63 171.5 103t197.5 40q211 0 331 -132t120 -370q0 -15 -6 -84l-7 -39h-764q11 -107 74 -176t160 -69
q127 0 203 112h264q-67 -144 -194 -235.5t-283 -91.5q-261 0 -389 176q-40 -48 -105 -88q-135 -88 -325 -88q-163 0 -261 84.5t-98 211.5q0 158 117 263.5t313 105.5zM819 399l6 52h-250q-91 0 -138.5 -41.5t-47.5 -112.5q0 -55 45.5 -84t128.5 -29q101 0 172.5 58.5
t83.5 156.5zM1110 614h496q-6 106 -57 171t-146 65q-98 0 -173.5 -62.5t-119.5 -173.5zM973 1188l246 297h272l-297 -297h-221z" />
    <glyph glyph-name="Oslashacute" unicode="&#x1fe;" horiz-adv-x="1576" 
d="M229 -72l160 230q-174 177 -174 456q0 144 42.5 275.5t117 233t172.5 177t213.5 115t234.5 39.5q141 0 267 -55l75 106h271l-164 -231q174 -177 174 -455q0 -176 -63 -333t-168.5 -267.5t-248 -174.5t-298.5 -64h-2q-139 0 -267 53l-71 -105h-271zM551 385l555 791
q-71 22 -143 22q-74 0 -144.5 -24.5t-131.5 -74t-107 -117t-72.5 -160t-26.5 -197.5q0 -142 70 -240zM1284 1044l-555 -788q59 -20 141 -20q96 0 183.5 41t153.5 114.5t105.5 182t39.5 235.5q0 135 -68 235zM932 1577l246 297h272l-297 -297h-221z" />
    <glyph glyph-name="oslashacute" unicode="&#x1ff;" horiz-adv-x="1228" 
d="M174 -72l133 185q-133 124 -133 338q0 128 47 242.5t126.5 195.5t189.5 128.5t231 47.5q108 0 201 -35l61 86h230l-134 -184q134 -134 134 -338q0 -128 -47 -242.5t-126.5 -195.5t-189.5 -128.5t-231 -47.5q-111 0 -201 34l-62 -86h-229zM969 713l-353 -490q31 -8 70 -8
q126 0 222 104t96 254q0 81 -35 140zM471 338l348 483q-31 8 -61 8q-126 0 -222 -104t-96 -254q0 -73 31 -133zM686 1188l246 297h272l-297 -297h-221z" />
    <glyph glyph-name="Scommaaccent" unicode="&#x218;" horiz-adv-x="1300" 
d="M143 451h267q0 -91 87 -158.5t240 -67.5q131 0 204 56.5t73 138.5q0 56 -46 95t-159 69l-236 61q-143 37 -214.5 126.5t-71.5 211.5q0 206 147 338.5t395 132.5q260 0 396.5 -113t136.5 -297v-61h-266v21q0 90 -73.5 147t-213.5 57q-127 0 -191.5 -52.5t-64.5 -141.5
q0 -52 31 -87t112 -57l236 -61q348 -89 348 -348q0 -214 -148.5 -347.5t-404.5 -133.5q-279 0 -431.5 121.5t-152.5 308.5v41zM430 -492l141 349h242l-184 -349h-199z" />
    <glyph glyph-name="scommaaccent" unicode="&#x219;" horiz-adv-x="1034" 
d="M133 307v10h246v-10q0 -50 56 -86.5t169 -36.5q89 0 131.5 33t42.5 90q0 36 -25.5 61.5t-97.5 41.5l-153 30q-151 30 -219 98t-68 179q0 144 120 246t320 102q208 0 324.5 -96t116.5 -242h-246q0 52 -55.5 92.5t-149.5 40.5q-82 0 -128 -36t-46 -87q0 -32 29 -53.5
t104 -38.5l154 -31q148 -30 212 -101t64 -185q0 -153 -115.5 -250.5t-324.5 -97.5q-113 0 -199 24.5t-134.5 60t-78.5 82.5t-39.5 85t-9.5 75zM287 -492l141 349h242l-185 -349h-198z" />
    <glyph glyph-name="uni021A" unicode="&#x21a;" horiz-adv-x="1208" 
d="M459 0l207 1178h-430l45 256h1126l-45 -256h-430l-207 -1178h-266zM307 -492l142 349h241l-184 -349h-199z" />
    <glyph glyph-name="uni021B" unicode="&#x21b;" horiz-adv-x="798" 
d="M266 268l92 531h-163l43 245h163l54 297h256l-54 -297h236l-43 -245h-236l-86 -496q-2 -6 -2 -27q0 -51 60 -51h164l-39 -225h-230q-99 0 -160 56.5t-61 148.5q0 29 6 63zM195 -492l141 349h242l-185 -349h-198z" />
    <glyph glyph-name="uni0232" unicode="&#x232;" horiz-adv-x="1269" 
d="M485 0l86 492l-356 942h291l229 -615h41l447 615h303l-688 -942l-86 -492h-267zM553 1628l35 195h635l-35 -195h-635z" />
    <glyph glyph-name="uni0233" unicode="&#x233;" 
d="M41 -410l43 236h205q54 0 80 51l30 60l-225 1107h260l144 -706h40l369 706h273l-672 -1273q-50 -95 -113.5 -138t-171.5 -43h-262zM410 1239l34 195h635l-35 -195h-634z" />
    <glyph glyph-name="uni0244" unicode="&#x244;" horiz-adv-x="1597" 
d="M326 637l32 182h-184l43 246h184l66 369h266l-65 -369h655l66 369h266l-66 -369h185l-43 -246h-185l-51 -287q-29 -170 -120 -296.5t-224 -191t-291 -64.5q-252 0 -400.5 139t-148.5 368q0 67 15 150zM625 819l-37 -207q-8 -36 -8 -77q0 -132 81.5 -215.5t219.5 -83.5
q126 0 227 87.5t125 231.5l47 264h-655z" />
    <glyph glyph-name="uni0259" unicode="&#x259;" horiz-adv-x="1208" 
d="M186 604h795q-11 106 -78.5 176t-165.5 70q-146 0 -223 -113h-264q67 143 201.5 235.5t296.5 92.5q221 0 356 -131t135 -340q0 -128 -47 -242.5t-126.5 -195.5t-189.5 -128.5t-231 -47.5q-218 0 -344.5 132.5t-126.5 368.5q0 49 6 84zM958 430h-526q6 -106 62.5 -170.5
t160.5 -64.5q99 0 179.5 63t123.5 172z" />
    <glyph glyph-name="uni0289" unicode="&#x289;" horiz-adv-x="1228" 
d="M215 461l31 174h-133l41 225h131l32 184h256l-32 -184h450l33 184h256l-33 -184h135l-41 -225h-133l-110 -635h-236l-8 82h-10q-48 -37 -74 -51q-89 -51 -195 -51q-171 0 -270.5 100.5t-99.5 277.5q0 45 10 103zM502 635l-31 -176q-4 -20 -4 -49q0 -86 59 -140.5
t152 -54.5q91 0 154.5 56t80.5 149l37 215h-448z" />
    <glyph glyph-name="uni02BC" unicode="&#x2bc;" horiz-adv-x="440" 
d="M246 1085l143 349h242l-185 -349h-200z" />
    <glyph glyph-name="circumflex" unicode="&#x2c6;" horiz-adv-x="839" 
d="M276 1208l297 297h226l194 -297h-229l-96 154l-150 -154h-242z" />
    <glyph glyph-name="caron" unicode="&#x2c7;" horiz-adv-x="839" 
d="M520 1208l-194 297h229l96 -153l150 153h241l-297 -297h-225z" />
    <glyph glyph-name="breve" unicode="&#x2d8;" horiz-adv-x="778" 
d="M297 1475v20h195q0 -123 122 -123q50 0 87.5 35.5t56.5 87.5h194q-27 -133 -114 -215t-234 -82q-146 0 -226.5 75.5t-80.5 201.5z" />
    <glyph glyph-name="dotaccent" unicode="&#x2d9;" horiz-adv-x="358" 
d="M276 1229l43 235h236l-43 -235h-236z" />
    <glyph glyph-name="ring" unicode="&#x2da;" horiz-adv-x="532" 
d="M502 1485q-38 0 -65 -27t-27 -65q0 -31 22.5 -51.5t59.5 -20.5q38 0 65 27t27 65q0 31 -22.5 51.5t-59.5 20.5zM481 1198q-92 0 -143 48.5t-51 135.5q0 100 62.5 163t162.5 63q92 0 143.5 -49t51.5 -136q0 -100 -63 -162.5t-163 -62.5z" />
    <glyph glyph-name="ogonek" unicode="&#x2db;" horiz-adv-x="430" 
d="M285 -358h-56q-100 0 -159.5 51t-59.5 123q0 80 72 137q25 23 72 47v10h194v-10q-71 -34 -97 -61q-36 -37 -36 -82q0 -62 72 -62h24z" />
    <glyph glyph-name="tilde" unicode="&#x2dc;" horiz-adv-x="808" 
d="M451 1219h-175q17 115 92.5 185.5t176.5 70.5q44 0 79.5 -20.5t65.5 -41t60 -20.5q63 0 84 82h174q-17 -115 -92.5 -185.5t-176.5 -70.5q-44 0 -79.5 20.5t-65 40.5t-59.5 20q-63 0 -84 -81z" />
    <glyph glyph-name="hungarumlaut" unicode="&#x2dd;" horiz-adv-x="921" 
d="M276 1208l256 297h242l-287 -297h-211zM635 1208l256 297h242l-287 -297h-211z" />
    <glyph glyph-name="acutecomb" unicode="&#x301;" horiz-adv-x="0" 
d="M-584 1608l246 297h272l-296 -297h-222z" />
    <glyph glyph-name="uni0302" unicode="&#x302;" horiz-adv-x="0" 
d="M-829 1608l297 297h225l194 -297h-229l-96 153l-150 -153h-241z" />
    <glyph glyph-name="uni0304" unicode="&#x304;" horiz-adv-x="0" 
d="M-788 1649l34 194h635l-35 -194h-634z" />
    <glyph glyph-name="uni0306" unicode="&#x306;" horiz-adv-x="0" 
d="M-760 1864v20h195q0 -123 123 -123q50 0 87 35t56 88h195q-27 -132 -114.5 -214.5t-234.5 -82.5q-146 0 -226.5 75.5t-80.5 201.5z" />
    <glyph glyph-name="uni0307" unicode="&#x307;" horiz-adv-x="0" 
d="M-584 1618l41 235h236l-41 -235h-236z" />
    <glyph glyph-name="uni0308" unicode="&#x308;" horiz-adv-x="0" 
d="M-389 1618l41 235h235l-41 -235h-235zM-768 1618l41 235h235l-40 -235h-236z" />
    <glyph glyph-name="uni030A" unicode="&#x30a;" horiz-adv-x="0" 
d="M-532 1772q0 -32 22 -52t59 -20q38 0 65.5 27t27.5 65q0 31 -22.5 51.5t-59.5 20.5q-38 0 -65 -27t-27 -65zM-655 1761q0 100 62.5 163t162.5 63q92 0 143 -49t51 -136q0 -100 -62.5 -162.5t-162.5 -62.5q-92 0 -143 48.5t-51 135.5z" />
    <glyph glyph-name="uni030C" unicode="&#x30c;" horiz-adv-x="0" 
d="M-573 1608l-195 297h229l97 -154l149 154h242l-297 -297h-225z" />
    <glyph glyph-name="uni0326" unicode="&#x326;" horiz-adv-x="440" 
d="M-31 -512l142 348h241l-184 -348h-199z" />
    <glyph glyph-name="uni0400" unicode="&#x400;" horiz-adv-x="1228" 
d="M154 0l252 1434h962l-43 -246h-696l-62 -348h656l-43 -246h-656l-61 -348h696l-43 -246h-962zM809 1577l-195 297h260l144 -297h-209z" />
    <glyph glyph-name="uni0401" unicode="&#x401;" horiz-adv-x="1228" 
d="M154 0l252 1434h962l-43 -246h-696l-62 -348h656l-43 -246h-656l-61 -348h696l-43 -246h-962zM973 1608l43 235h235l-43 -235h-235zM594 1608l43 235h235l-43 -235h-235z" />
    <glyph glyph-name="uni0402" unicode="&#x402;" horiz-adv-x="1515" 
d="M377 0l207 1178h-379l45 256h1024l-45 -256h-379l-55 -314q53 23 73 29q97 29 195 29q204 0 322 -110t118 -290q0 -230 -146.5 -376t-375.5 -146h-164l43 246h115q111 0 186.5 72.5t75.5 173.5q0 82 -63.5 133t-182.5 51q-91 0 -168 -25q-19 -4 -69 -22l-111 -629h-266z
" />
    <glyph glyph-name="uni0403" unicode="&#x403;" horiz-adv-x="1136" 
d="M154 0l252 1434h942l-45 -256h-676l-207 -1178h-266zM768 1577l246 297h272l-297 -297h-221z" />
    <glyph glyph-name="uni0404" unicode="&#x404;" horiz-adv-x="1505" 
d="M512 840h598l-43 -246h-586q11 -166 115 -262t274 -96q123 0 226 72.5t166 203.5h276q-89 -245 -270 -388.5t-428 -143.5q-136 0 -253 47.5t-198.5 131t-127.5 201t-46 254.5q0 144 42.5 275.5t117 233t172.5 177t213.5 115t234.5 39.5q246 0 407.5 -142t186.5 -380h-272
q-76 266 -354 266q-147 0 -273 -95.5t-178 -262.5z" />
    <glyph glyph-name="uni0405" unicode="&#x405;" horiz-adv-x="1300" 
d="M143 451h267q0 -91 87 -158.5t240 -67.5q131 0 204 56.5t73 138.5q0 56 -46 95t-159 69l-236 61q-143 37 -214.5 126.5t-71.5 211.5q0 206 147 338.5t395 132.5q260 0 396.5 -113t136.5 -297v-61h-266v21q0 90 -73.5 147t-213.5 57q-127 0 -191.5 -52.5t-64.5 -141.5
q0 -52 31 -87t112 -57l236 -61q348 -89 348 -348q0 -214 -148.5 -347.5t-404.5 -133.5q-279 0 -431.5 121.5t-152.5 308.5v41z" />
    <glyph glyph-name="uni0406" unicode="&#x406;" horiz-adv-x="573" 
d="M154 0l252 1434h266l-252 -1434h-266z" />
    <glyph glyph-name="uni0407" unicode="&#x407;" horiz-adv-x="573" 
d="M154 0l252 1434h266l-252 -1434h-266zM635 1608l43 235h235l-43 -235h-235zM256 1608l43 235h236l-43 -235h-236z" />
    <glyph glyph-name="uni0408" unicode="&#x408;" horiz-adv-x="839" 
d="M20 0l46 256h325q78 0 98 96l193 1082h266l-207 -1172q-47 -262 -297 -262h-424z" />
    <glyph glyph-name="uni0409" unicode="&#x409;" horiz-adv-x="2101" 
d="M10 -10l45 256h72q60 0 104.5 44t67.5 128l262 1016h942l-90 -512h336q176 -17 274.5 -124.5t98.5 -275.5q0 -229 -141.5 -375.5t-356.5 -146.5h-639l207 1178h-430l-215 -842q-88 -346 -404 -346h-133zM1296 256h338q99 0 160 64t61 172q0 78 -46.5 126t-118.5 48h-322z
" />
    <glyph glyph-name="uni040A" unicode="&#x40a;" horiz-adv-x="2140" 
d="M1335 256h336q92 0 157.5 65.5t65.5 159.5q0 70 -48.5 117t-125.5 47h-317zM154 0l252 1434h266l-94 -533h604l94 533h266l-94 -533h336q161 0 269 -110.5t108 -278.5q0 -222 -142.5 -367t-357.5 -145h-637l111 635h-605l-110 -635h-266z" />
    <glyph glyph-name="uni040B" unicode="&#x40b;" horiz-adv-x="1525" 
d="M377 0l207 1178h-379l45 256h1024l-45 -256h-379l-55 -314q120 58 258 58q207 0 315.5 -97.5t108.5 -271.5q0 -51 -13 -131l-73 -422h-267l72 420q6 47 6 72q0 184 -231 184q-144 0 -217 -51l-111 -625h-266z" />
    <glyph glyph-name="uni040C" unicode="&#x40c;" horiz-adv-x="1239" 
d="M154 0l252 1434h266l-115 -646l606 646h338l-678 -717l451 -717h-322l-415 666l-117 -666h-266zM799 1577l245 297h273l-297 -297h-221z" />
    <glyph glyph-name="uni040D" unicode="&#x40d;" horiz-adv-x="1484" 
d="M154 0l252 1434h266l-176 -994h39l688 994h360l-252 -1434h-266l174 993h-39l-686 -993h-360zM911 1577l-194 297h260l143 -297h-209z" />
    <glyph glyph-name="uni040E" unicode="&#x40e;" horiz-adv-x="1269" 
d="M174 0l43 246h205q34 0 52 12.5t38 40.5l45 70l-336 1065h291l221 -717h41l455 717h303l-797 -1258q-108 -176 -319 -176h-242zM573 1853v21h195q0 -123 123 -123q50 0 87 35t56 88h195q-27 -133 -114 -215t-234 -82q-146 0 -227 75t-81 201z" />
    <glyph glyph-name="uni040F" unicode="&#x40f;" horiz-adv-x="1454" 
d="M154 0l252 1434h266l-207 -1178h614l207 1178h266l-252 -1434h-440l-51 -287h-266l51 287h-440z" />
    <glyph glyph-name="uni0410" unicode="&#x410;" horiz-adv-x="1413" 
d="M20 0l764 1434h390l266 -1434h-297l-56 307h-602l-161 -307h-304zM614 553h430l-94 573h-41z" />
    <glyph glyph-name="uni0411" unicode="&#x411;" horiz-adv-x="1351" 
d="M154 0l252 1434h1024l-44 -246h-757l-58 -328h418q150 0 251 -104.5t101 -263.5q0 -214 -134.5 -353t-336.5 -139h-716zM461 236h413q84 0 142.5 64.5t58.5 170.5q0 68 -40 111t-101 43h-406z" />
    <glyph glyph-name="uni0412" unicode="&#x412;" horiz-adv-x="1351" 
d="M154 0l252 1434h692q144 0 240 -98.5t96 -250.5q0 -205 -146 -333q-17 -15 -61 -45l-4 -11q32 -22 53 -57q55 -79 55 -188q0 -190 -127.5 -320.5t-312.5 -130.5h-737zM578 840h387q85 0 138.5 56t53.5 148q0 68 -40 111t-101 43h-375zM471 236h397q79 0 138 60t59 144
q0 76 -39 120t-100 44h-389z" />
    <glyph glyph-name="uni0413" unicode="&#x413;" horiz-adv-x="1136" 
d="M154 0l252 1434h942l-45 -256h-676l-207 -1178h-266z" />
    <glyph glyph-name="uni0414" unicode="&#x414;" horiz-adv-x="1433" 
d="M-41 -287l94 543h6q50 0 81 7.5t59 31t48 66.5t38 114l252 959h962l-207 -1178h154l-96 -543h-267l52 287h-861l-51 -287h-264zM438 256h588l162 922h-449l-196 -756q-22 -77 -64 -127q-34 -34 -41 -39z" />
    <glyph glyph-name="uni0415" unicode="&#x415;" horiz-adv-x="1228" 
d="M154 0l252 1434h962l-43 -246h-696l-62 -348h656l-43 -246h-656l-61 -348h696l-43 -246h-962z" />
    <glyph glyph-name="uni0416" unicode="&#x416;" horiz-adv-x="1720" 
d="M-20 0l616 737l-311 697h323l275 -646l114 646h267l-115 -646l504 646h336l-574 -717l350 -717h-323l-314 666l-116 -666h-267l117 666l-547 -666h-335z" />
    <glyph glyph-name="uni0417" unicode="&#x417;" horiz-adv-x="1259" 
d="M133 389v41h266v-10q0 -83 74 -139t213 -56q125 0 201 61t76 144q0 80 -58.5 132t-156.5 52h-150l41 226h190q113 0 169.5 46.5t56.5 127.5q0 89 -64.5 141.5t-191.5 52.5q-112 0 -180.5 -56.5t-86.5 -147.5h-266q15 87 54.5 165t104 143t163.5 103.5t221 38.5
q119 0 219 -33.5t165.5 -89.5t101.5 -127.5t36 -148.5q0 -185 -129 -285q-52 -41 -127 -63v-11q42 -22 76 -59q78 -86 78 -207q0 -89 -39.5 -170.5t-109.5 -143.5t-175.5 -99t-228.5 -37q-131 0 -235.5 32.5t-171 88.5t-101.5 129.5t-35 158.5z" />
    <glyph glyph-name="uni0418" unicode="&#x418;" horiz-adv-x="1484" 
d="M154 0l252 1434h266l-176 -994h39l688 994h360l-252 -1434h-266l174 993h-39l-686 -993h-360z" />
    <glyph glyph-name="uni0419" unicode="&#x419;" horiz-adv-x="1484" 
d="M154 0l252 1434h266l-176 -994h39l688 994h360l-252 -1434h-266l174 993h-39l-686 -993h-360zM717 1853v21h194q0 -123 123 -123q50 0 87.5 35.5t56.5 87.5h194q-27 -133 -114 -215t-234 -82q-146 0 -226.5 75t-80.5 201z" />
    <glyph glyph-name="uni041A" unicode="&#x41a;" horiz-adv-x="1239" 
d="M154 0l252 1434h266l-115 -646l606 646h338l-678 -717l451 -717h-322l-415 666l-117 -666h-266z" />
    <glyph glyph-name="uni041B" unicode="&#x41b;" horiz-adv-x="1425" 
d="M10 -10l45 256h72q60 0 104.5 44t67.5 128l262 1016h963l-252 -1434h-266l206 1178h-450l-215 -842q-88 -346 -404 -346h-133z" />
    <glyph glyph-name="uni041C" unicode="&#x41c;" horiz-adv-x="1884" 
d="M154 0l252 1434h423l162 -1004h41l514 1004h436l-251 -1434h-267l174 993h-41l-512 -993h-286l-164 993h-41l-174 -993h-266z" />
    <glyph glyph-name="uni041D" unicode="&#x41d;" horiz-adv-x="1484" 
d="M154 0l252 1434h266l-101 -574h646l100 574h266l-252 -1434h-266l104 594h-645l-104 -594h-266z" />
    <glyph glyph-name="uni041E" unicode="&#x41e;" horiz-adv-x="1576" 
d="M1352 809q0 179 -105 284t-284 105q-74 0 -144.5 -24.5t-131.5 -74t-107 -117t-72.5 -160t-26.5 -197.5q0 -179 105.5 -284t283.5 -105q96 0 183.5 41t153.5 114.5t105.5 182t39.5 235.5zM840 -20q-136 0 -253 47.5t-198.5 131t-127.5 201t-46 254.5q0 144 42.5 276
t117 233t172 176.5t212.5 115t234 39.5q182 0 325 -81.5t221.5 -226t78.5 -327.5q0 -176 -63 -333t-168.5 -267.5t-248 -174.5t-298.5 -64z" />
    <glyph glyph-name="uni041F" unicode="&#x41f;" horiz-adv-x="1474" 
d="M154 0l252 1434h1167l-252 -1434h-266l207 1178h-635l-207 -1178h-266z" />
    <glyph glyph-name="uni0420" unicode="&#x420;" horiz-adv-x="1341" 
d="M154 0l252 1434h661q155 0 261 -113t106 -287q0 -247 -145.5 -405t-356.5 -158h-430l-82 -471h-266zM547 727h395q88 0 156.5 79t68.5 198q0 77 -46 125.5t-113 48.5h-381z" />
    <glyph glyph-name="uni0421" unicode="&#x421;" horiz-adv-x="1505" 
d="M1262 512h276q-89 -245 -270 -388.5t-428 -143.5q-136 0 -253 47.5t-198.5 131t-127.5 201t-46 254.5q0 144 42.5 275.5t117 233t172.5 177t213.5 115t234.5 39.5q246 0 407.5 -142t186.5 -380h-272q-76 266 -354 266q-74 0 -144.5 -24.5t-131.5 -74t-107 -117
t-72.5 -160t-26.5 -197.5q0 -179 105.5 -284t283.5 -105q123 0 226 72.5t166 203.5z" />
    <glyph glyph-name="uni0422" unicode="&#x422;" horiz-adv-x="1208" 
d="M459 0l207 1178h-430l45 256h1126l-45 -256h-430l-207 -1178h-266z" />
    <glyph glyph-name="uni0423" unicode="&#x423;" horiz-adv-x="1269" 
d="M174 0l43 246h205q34 0 52 12.5t38 40.5l45 70l-336 1065h291l221 -717h41l455 717h303l-797 -1258q-108 -176 -319 -176h-242z" />
    <glyph glyph-name="uni0424" unicode="&#x424;" horiz-adv-x="1720" 
d="M801 420h10l111 635h-11q-194 0 -312 -102t-118 -246q0 -115 85 -189t235 -98zM1077 420h10q193 0 311 102t118 246q0 115 -84 189t-234 98h-10zM729 -41l39 225q-266 24 -409.5 160.5t-143.5 331.5q0 168 84.5 308t240 223t351.5 83h74l30 185h267l-31 -185
q265 -24 408 -160t143 -331q0 -125 -50 -237.5t-137 -196t-214 -132.5t-273 -49h-74l-39 -225h-266z" />
    <glyph glyph-name="uni0425" unicode="&#x425;" horiz-adv-x="1310" 
d="M-20 0l628 748l-334 686h314l223 -471h41l391 471h326l-592 -707l356 -727h-311l-248 512h-41l-428 -512h-325z" />
    <glyph glyph-name="uni0426" unicode="&#x426;" horiz-adv-x="1484" 
d="M154 0l252 1434h266l-207 -1178h604l207 1178h266l-207 -1178h154l-96 -543h-267l52 287h-1024z" />
    <glyph glyph-name="uni0427" unicode="&#x427;" horiz-adv-x="1402" 
d="M983 0l90 518q-49 -27 -94 -45q-110 -43 -231 -43q-217 0 -339 109t-122 290q0 56 20 166l78 439h266l-78 -437q-10 -58 -10 -86q0 -112 66.5 -168.5t210.5 -56.5q108 0 200 43q40 17 78 43l117 662h266l-252 -1434h-266z" />
    <glyph glyph-name="uni0428" unicode="&#x428;" horiz-adv-x="1986" 
d="M154 0l252 1434h266l-207 -1178h440l207 1178h266l-207 -1178h441l207 1178h266l-252 -1434h-1679z" />
    <glyph glyph-name="uni0429" unicode="&#x429;" horiz-adv-x="2027" 
d="M154 0l252 1434h266l-207 -1178h440l207 1178h266l-207 -1178h441l207 1178h266l-207 -1178h154l-97 -543h-266l51 287h-1566z" />
    <glyph glyph-name="uni042A" unicode="&#x42a;" horiz-adv-x="1474" 
d="M328 0l207 1178h-318l45 256h584l-84 -471h354q156 0 267.5 -117.5t111.5 -292.5q0 -155 -70 -282.5t-187.5 -199t-254.5 -71.5h-655zM639 256h354q94 0 165 75t71 181q0 84 -50 139.5t-118 55.5h-344z" />
    <glyph glyph-name="uni042B" unicode="&#x42b;" horiz-adv-x="1771" 
d="M1352 0l252 1434h266l-252 -1434h-266zM154 0l252 1434h266l-84 -471h334q156 0 267 -117.5t111 -292.5q0 -155 -70 -282.5t-187.5 -199t-254.5 -71.5h-634zM465 256h334q94 0 164.5 75t70.5 181q0 84 -50 139.5t-118 55.5h-323z" />
    <glyph glyph-name="uni042C" unicode="&#x42c;" horiz-adv-x="1320" 
d="M154 0l252 1434h266l-84 -471h375q156 0 267 -117.5t111 -292.5q0 -155 -70 -282.5t-187.5 -199t-254.5 -71.5h-675zM465 256h375q94 0 164.5 75t70.5 181q0 84 -50 139.5t-118 55.5h-364z" />
    <glyph glyph-name="uni042D" unicode="&#x42d;" horiz-adv-x="1505" 
d="M172 512h272q30 -128 121 -202t234 -74q146 0 271 95.5t177 262.5h-590l43 246h578q-11 165 -114.5 261.5t-272.5 96.5q-248 0 -391 -266h-277q90 237 271.5 379.5t427.5 142.5q182 0 324.5 -81.5t221 -226t78.5 -327.5q0 -179 -65.5 -337.5t-174 -267t-249.5 -171.5
t-291 -63q-254 0 -411.5 145t-182.5 387z" />
    <glyph glyph-name="uni042E" unicode="&#x42e;" horiz-adv-x="2007" 
d="M154 0l252 1434h266l-103 -584h156q45 181 153.5 318.5t258 211.5t317.5 74t303 -78.5t213 -222t78 -324.5q0 -184 -61 -344t-164 -269.5t-241.5 -172.5t-291.5 -63q-168 0 -302 77t-211.5 217t-80.5 320h-172l-104 -594h-266zM1311 236q95 0 180.5 39.5t150 110.5
t102.5 178t38 235q0 181 -98.5 290t-249.5 109q-95 0 -180.5 -39.5t-150 -110.5t-102.5 -178t-38 -235q0 -181 98.5 -290t249.5 -109z" />
    <glyph glyph-name="uni042F" unicode="&#x42f;" horiz-adv-x="1372" 
d="M72 0l557 492q-64 4 -126.5 34t-113 80t-82 125t-31.5 160q0 116 41 218t109.5 173t160 111.5t191.5 40.5h692l-251 -1434h-267l84 481h-75l-545 -481h-344zM707 737h374l78 441h-366q-111 0 -180.5 -70t-69.5 -186q0 -84 46.5 -134.5t117.5 -50.5z" />
    <glyph glyph-name="uni0430" unicode="&#x430;" horiz-adv-x="1126" 
d="M788 0l-4 82h-10q-48 -37 -76 -51q-93 -51 -206 -51q-163 0 -261 84.5t-98 211.5q0 158 117 263.5t313 105.5h299q8 31 8 51q0 73 -47.5 118.5t-126.5 45.5t-127.5 -40.5t-62.5 -92.5h-256q20 66 53.5 122.5t85.5 107t131 79.5t176 29q197 0 313.5 -100.5t116.5 -257.5
q0 -20 -12 -82l-110 -625h-216zM819 399l6 52h-250q-91 0 -138.5 -41.5t-47.5 -112.5q0 -55 45.5 -84t128.5 -29q101 0 172.5 58.5t83.5 156.5z" />
    <glyph glyph-name="uni0431" unicode="&#x431;" horiz-adv-x="1208" 
d="M205 614l6 41q16 107 48.5 200.5t74.5 163.5t94.5 126.5t106 93.5t110.5 61q143 53 348 82q54 7 89.5 43.5t43.5 90.5h236q-32 -179 -98 -256t-189 -103q-18 -3 -53 -10l-76.5 -15t-70.5 -15t-69 -18t-60.5 -21.5t-57 -27t-47.5 -33.5t-43 -42.5t-31 -51.5t-24 -63h10
q103 103 256 103q191 0 305.5 -112.5t114.5 -297.5q0 -155 -76.5 -287.5t-206.5 -209t-280 -76.5q-217 0 -344 130t-127 351q0 85 10 153zM686 205q116 0 201.5 87.5t85.5 209.5q0 98 -69 166.5t-167 68.5q-116 0 -201 -87.5t-85 -209.5q0 -98 68.5 -166.5t166.5 -68.5z" />
    <glyph glyph-name="uni0432" unicode="&#x432;" horiz-adv-x="1116" 
d="M422 195h283q63 0 99 35.5t36 97.5q0 47 -28 74.5t-75 27.5h-272zM498 625h280q55 0 89 36t34 97q0 92 -94 92h-268zM133 0l182 1044h586q117 0 186.5 -69.5t69.5 -186.5q0 -126 -82 -204q-43 -39 -82 -52v-10q30 -20 51 -47q52 -69 52 -147q0 -132 -101 -230t-241 -98
h-621z" />
    <glyph glyph-name="uni0433" unicode="&#x433;" horiz-adv-x="901" 
d="M133 0l182 1044h727l-43 -245h-471l-139 -799h-256z" />
    <glyph glyph-name="uni0434" unicode="&#x434;" horiz-adv-x="1167" 
d="M-41 -246l86 492h6q78 0 114 28t56 103l178 667h779l-140 -798h144l-88 -492h-256l45 246h-625l-45 -246h-254zM406 246h376l99 563h-287l-125 -461q-9 -36 -39 -74z" />
    <glyph glyph-name="uni0435" unicode="&#x435;" horiz-adv-x="1208" 
d="M899 307h264q-67 -143 -201 -235t-296 -92q-221 0 -356.5 131.5t-135.5 339.5q0 128 47 242.5t126.5 195.5t189.5 128.5t231 47.5q216 0 343.5 -133.5t127.5 -368.5q0 -15 -6 -84l-6 -39h-795q11 -106 78.5 -175.5t165.5 -69.5q147 0 223 112zM455 614h526
q-6 106 -62.5 171t-160.5 65q-99 0 -179.5 -63t-123.5 -173z" />
    <glyph glyph-name="uni0436" unicode="&#x436;" horiz-adv-x="1443" 
d="M-10 0l438 543l-223 501h293l204 -471l82 471h256l-82 -471l369 471h305l-415 -522l241 -522h-293l-221 492l-86 -492h-256l86 492l-393 -492h-305z" />
    <glyph glyph-name="uni0437" unicode="&#x437;" horiz-adv-x="1034" 
d="M125 348h254v-10q0 -65 54.5 -109.5t150.5 -44.5q83 0 128.5 38t45.5 95q0 50 -41 81.5t-119 31.5h-113l31 184h139q75 0 119.5 36.5t44.5 86.5t-44.5 86.5t-119.5 36.5q-77 0 -132.5 -40.5t-69.5 -102.5h-248q30 152 151 250t299 98q198 0 309 -88.5t111 -218.5
q0 -132 -92 -201q-38 -33 -92 -45v-10q123 -58 123 -185q0 -146 -116.5 -241.5t-324.5 -95.5q-221 0 -335.5 92.5t-114.5 246.5v21q0 6 2 8z" />
    <glyph glyph-name="uni0438" unicode="&#x438;" horiz-adv-x="1198" 
d="M133 0l182 1044h256l-110 -634h37l417 634h332l-182 -1044h-256l111 635h-37l-418 -635h-332z" />
    <glyph glyph-name="uni0439" unicode="&#x439;" horiz-adv-x="1198" 
d="M133 0l182 1044h256l-110 -634h37l417 634h332l-182 -1044h-256l111 635h-37l-418 -635h-332zM502 1464v21h194q0 -123 123 -123q50 0 87.5 35.5t56.5 87.5h194q-27 -133 -114 -215t-234 -82q-146 0 -226.5 75t-80.5 201z" />
    <glyph glyph-name="uni043A" unicode="&#x43a;" horiz-adv-x="1064" 
d="M133 0l182 1044h256l-82 -471l472 471h307l-531 -522l353 -522h-291l-324 492l-86 -492h-256z" />
    <glyph glyph-name="uni043B" unicode="&#x43b;" horiz-adv-x="1167" 
d="M10 -10l41 235h60q112 0 153 152l176 667h779l-183 -1044h-256l142 809h-287l-131 -492q-43 -164 -133 -245.5t-236 -81.5h-125z" />
    <glyph glyph-name="uni043C" unicode="&#x43c;" horiz-adv-x="1536" 
d="M133 0l182 1044h383l107 -675h41l344 675h395l-182 -1044h-256l117 666h-41l-332 -666h-246l-98 666h-41l-117 -666h-256z" />
    <glyph glyph-name="uni043D" unicode="&#x43d;" horiz-adv-x="1198" 
d="M133 0l182 1044h256l-71 -409h420l71 409h256l-182 -1044h-256l68 389h-420l-68 -389h-256z" />
    <glyph glyph-name="uni043E" unicode="&#x43e;" horiz-adv-x="1228" 
d="M758 829q-133 0 -230.5 -103.5t-97.5 -254.5q0 -116 68 -186t178 -70q133 0 230.5 103.5t97.5 254.5q0 116 -68 186t-178 70zM666 -20q-221 0 -356.5 131.5t-135.5 339.5q0 128 47 242.5t126.5 195.5t189.5 128.5t231 47.5q221 0 356.5 -131.5t135.5 -339.5
q0 -128 -47 -242.5t-126.5 -195.5t-189.5 -128.5t-231 -47.5z" />
    <glyph glyph-name="uni043F" unicode="&#x43f;" horiz-adv-x="1198" 
d="M133 0l182 1044h932l-182 -1044h-256l139 799h-420l-139 -799h-256z" />
    <glyph glyph-name="uni0440" unicode="&#x440;" horiz-adv-x="1249" 
d="M61 -410l256 1454h236l6 -92h10q44 38 76 56q90 57 207 57q186 0 303 -123t117 -328q0 -135 -46 -254.5t-122.5 -201.5t-177 -130t-207.5 -48q-55 0 -103.5 11t-80 27t-56.5 37t-37.5 37t-19.5 31h-10l-95 -533h-256zM709 215q127 0 217 102.5t90 266.5q0 116 -63 180.5
t-173 64.5q-127 0 -217 -102t-90 -266q0 -116 63 -181t173 -65z" />
    <glyph glyph-name="uni0441" unicode="&#x441;" horiz-adv-x="1177" 
d="M936 389h260q-63 -180 -206 -294.5t-324 -114.5q-221 0 -356.5 131.5t-135.5 339.5q0 128 47 242.5t126.5 195.5t189.5 128.5t231 47.5q192 0 314.5 -107t142.5 -292h-254q-49 163 -213 163q-133 0 -230.5 -103.5t-97.5 -254.5q0 -116 68 -186t178 -70q94 0 154.5 44.5
t105.5 129.5z" />
    <glyph glyph-name="uni0442" unicode="&#x442;" horiz-adv-x="993" 
d="M360 0l142 809h-328l41 235h911l-41 -235h-327l-142 -809h-256z" />
    <glyph glyph-name="uni0443" unicode="&#x443;" 
d="M41 -410l43 236h205q54 0 80 51l30 60l-225 1107h260l144 -706h40l369 706h273l-672 -1273q-50 -95 -113.5 -138t-171.5 -43h-262z" />
    <glyph glyph-name="uni0444" unicode="&#x444;" horiz-adv-x="1546" 
d="M584 -410l73 410h-14q-204 0 -331.5 123.5t-127.5 316.5q0 132 44 245t120.5 191.5t184 123t231.5 44.5h76l69 390h256l-69 -390h14q204 0 331.5 -123.5t127.5 -316.5q0 -132 -44 -245t-120.5 -191.5t-184 -123t-231.5 -44.5h-76l-73 -410h-256zM954 236h13
q167 0 256.5 87.5t89.5 249.5q0 109 -64 172.5t-174 63.5h-20zM678 236h20l101 573h-13q-167 0 -256.5 -88t-89.5 -250q0 -109 64 -172t174 -63z" />
    <glyph glyph-name="uni0445" unicode="&#x445;" horiz-adv-x="1034" 
d="M-10 0l448 543l-243 501h282l158 -327h41l272 327h295l-436 -522l250 -522h-281l-166 348h-41l-284 -348h-295z" />
    <glyph glyph-name="uni0446" unicode="&#x446;" horiz-adv-x="1228" 
d="M133 0l182 1044h256l-139 -798h410l139 798h256l-139 -798h143l-88 -492h-256l45 246h-809z" />
    <glyph glyph-name="uni0447" unicode="&#x447;" horiz-adv-x="1146" 
d="M758 0l61 354q-39 -26 -104 -46.5t-142 -20.5q-348 0 -348 317q0 56 11 113l59 327h256l-55 -311q-4 -32 -4 -57q0 -71 47 -112.5t137 -41.5q43 0 80.5 10t57 20t46.5 28l80 464h256l-182 -1044h-256z" />
    <glyph glyph-name="uni0448" unicode="&#x448;" horiz-adv-x="1648" 
d="M133 0l182 1044h256l-139 -798h307l140 798h256l-140 -798h308l139 798h256l-182 -1044h-1383z" />
    <glyph glyph-name="uni0449" unicode="&#x449;" horiz-adv-x="1689" 
d="M133 0l182 1044h256l-139 -798h307l140 798h256l-140 -798h308l139 798h256l-139 -798h143l-88 -492h-256l45 246h-1270z" />
    <glyph glyph-name="uni044A" unicode="&#x44a;" horiz-adv-x="1208" 
d="M276 0l142 809h-256l41 235h512l-58 -327h244q139 0 223 -83.5t84 -223.5q0 -181 -113 -295.5t-280 -114.5h-539zM567 205h217q73 0 120.5 48.5t47.5 125.5q0 61 -34.5 97t-90.5 36h-204z" />
    <glyph glyph-name="uni044B" unicode="&#x44b;" horiz-adv-x="1505" 
d="M1116 0l182 1044h256l-182 -1044h-256zM424 205h217q73 0 120.5 48.5t47.5 125.5q0 61 -34.5 97t-90.5 36h-205zM133 0l182 1044h256l-57 -327h244q140 0 223.5 -83.5t83.5 -223.5q0 -181 -113 -295.5t-280 -114.5h-539z" />
    <glyph glyph-name="uni044C" unicode="&#x44c;" 
d="M424 205h238q73 0 120 48.5t47 125.5q0 61 -34 97t-90 36h-226zM133 0l182 1044h256l-57 -327h264q140 0 223.5 -83.5t83.5 -223.5q0 -181 -113 -295.5t-280 -114.5h-559z" />
    <glyph glyph-name="uni044D" unicode="&#x44d;" horiz-adv-x="1177" 
d="M158 369h254q23 -78 79 -121t134 -43q96 0 175.5 58.5t121.5 156.5h-377l35 205h368q-18 98 -82 156.5t-159 58.5q-94 0 -148.5 -39.5t-99.5 -124.5h-260q57 176 199.5 282.5t318.5 106.5q221 0 356 -131t135 -340q0 -128 -47 -242.5t-126.5 -195.5t-189.5 -128.5
t-231 -47.5q-187 0 -311.5 103.5t-144.5 285.5z" />
    <glyph glyph-name="uni044E" unicode="&#x44e;" horiz-adv-x="1576" 
d="M133 0l182 1044h256l-71 -409h102q58 193 208.5 311.5t336.5 118.5q208 0 334.5 -124.5t126.5 -326.5q0 -135 -46.5 -254t-125 -202t-183.5 -130.5t-219 -47.5q-198 0 -323.5 115t-137.5 304h-114l-70 -399h-256zM1055 215q120 0 208.5 103t88.5 266q0 115 -62 180
t-164 65q-120 0 -208.5 -102.5t-88.5 -265.5q0 -115 62 -180.5t164 -65.5z" />
    <glyph glyph-name="uni044F" unicode="&#x44f;" horiz-adv-x="1126" 
d="M61 0l390 358q-97 8 -171.5 95t-74.5 213q0 155 116 266.5t283 111.5h572l-183 -1044h-256l62 358h-68l-389 -358h-281zM588 553h246l51 287h-258q-71 0 -118.5 -47t-47.5 -117q0 -54 35 -88.5t92 -34.5z" />
    <glyph glyph-name="uni0450" unicode="&#x450;" horiz-adv-x="1208" 
d="M899 307h264q-67 -143 -201 -235t-296 -92q-221 0 -356.5 131.5t-135.5 339.5q0 128 47 242.5t126.5 195.5t189.5 128.5t231 47.5q216 0 343.5 -133.5t127.5 -368.5q0 -15 -6 -84l-6 -39h-795q11 -106 78.5 -175.5t165.5 -69.5q147 0 223 112zM455 614h526
q-6 106 -62.5 171t-160.5 65q-99 0 -179.5 -63t-123.5 -173zM686 1188l-194 297h260l143 -297h-209z" />
    <glyph glyph-name="uni0451" unicode="&#x451;" horiz-adv-x="1208" 
d="M899 307h264q-67 -143 -201 -235t-296 -92q-221 0 -356.5 131.5t-135.5 339.5q0 128 47 242.5t126.5 195.5t189.5 128.5t231 47.5q216 0 343.5 -133.5t127.5 -368.5q0 -15 -6 -84l-6 -39h-795q11 -106 78.5 -175.5t165.5 -69.5q147 0 223 112zM455 614h526
q-6 106 -62.5 171t-160.5 65q-99 0 -179.5 -63t-123.5 -173zM881 1219l43 235h235l-43 -235h-235zM502 1219l43 235h235l-43 -235h-235z" />
    <glyph glyph-name="uni0452" unicode="&#x452;" horiz-adv-x="1249" 
d="M553 -410l43 236h119q59 0 98 33t51 100l90 504q2 8 2 49q0 87 -57 141t-149 54t-157.5 -56t-82.5 -149l-88 -502h-256l188 1075h-164l39 225h164l25 134h256l-25 -134h328l-39 -225h-328l-41 -235h11q50 39 73 51q96 51 199 51q171 0 269 -100.5t98 -278.5
q0 -38 -11 -102l-92 -527q-29 -165 -138.5 -254.5t-277.5 -89.5h-147z" />
    <glyph glyph-name="uni0453" unicode="&#x453;" horiz-adv-x="901" 
d="M133 0l182 1044h727l-43 -245h-471l-139 -799h-256zM573 1188l246 297h273l-297 -297h-222z" />
    <glyph glyph-name="uni0454" unicode="&#x454;" horiz-adv-x="1177" 
d="M461 625h375l-35 -205h-367q17 -98 81.5 -156.5t160.5 -58.5q93 0 153 43.5t103 120.5h260q-60 -172 -202.5 -280.5t-323.5 -108.5q-221 0 -356.5 131.5t-135.5 339.5q0 128 47 242.5t126.5 195.5t189.5 128.5t231 47.5q191 0 314 -105.5t143 -283.5h-254q-25 74 -78 119
t-135 45q-96 0 -175.5 -58.5t-121.5 -156.5z" />
    <glyph glyph-name="uni0455" unicode="&#x455;" horiz-adv-x="1034" 
d="M133 307v10h246v-10q0 -50 56 -86.5t169 -36.5q89 0 131.5 33t42.5 90q0 36 -25.5 61.5t-97.5 41.5l-153 30q-151 30 -219 98t-68 179q0 144 120 246t320 102q208 0 324.5 -96t116.5 -242h-246q0 52 -55.5 92.5t-149.5 40.5q-82 0 -128 -36t-46 -87q0 -32 29 -53.5
t104 -38.5l154 -31q148 -30 212 -101t64 -185q0 -153 -115.5 -250.5t-324.5 -97.5q-113 0 -199 24.5t-134.5 60t-78.5 82.5t-39.5 85t-9.5 75z" />
    <glyph glyph-name="uni0456" unicode="&#x456;" horiz-adv-x="522" 
d="M133 0l182 1044h256l-182 -1044h-256zM336 1208l43 246h276l-43 -246h-276z" />
    <glyph glyph-name="uni0457" unicode="&#x457;" horiz-adv-x="522" 
d="M133 0l182 1044h256l-182 -1044h-256zM532 1219l43 235h236l-43 -235h-236zM154 1219l43 235h235l-43 -235h-235z" />
    <glyph glyph-name="uni0458" unicode="&#x458;" horiz-adv-x="522" 
d="M-174 -410l43 236h174q58 0 70 65l202 1153h256l-217 -1230q-18 -100 -92.5 -162t-183.5 -62h-252zM336 1208l43 246h276l-43 -246h-276z" />
    <glyph glyph-name="uni0459" unicode="&#x459;" horiz-adv-x="1681" 
d="M10 -10l41 235h60q112 0 153 152l176 667h768l-65 -370l2 2h241q136 0 215.5 -78t79.5 -209q0 -176 -105 -282.5t-273 -106.5h-533l141 809h-276l-131 -492q-43 -164 -133 -245.5t-236 -81.5h-125zM1061 205h215q66 0 107.5 42t41.5 111q0 48 -33.5 80.5t-86.5 32.5h-197
z" />
    <glyph glyph-name="uni045A" unicode="&#x45a;" horiz-adv-x="1699" 
d="M133 0l182 1044h256l-63 -368h399l64 368h256l-64 -368h240q130 0 213.5 -81.5t83.5 -205.5q0 -169 -108.5 -279t-274.5 -110h-529l76 430h-399l-76 -430h-256zM1079 205h215q66 0 108 42t42 111q0 48 -34 80.5t-87 32.5h-197z" />
    <glyph glyph-name="uni045B" unicode="&#x45b;" horiz-adv-x="1249" 
d="M166 0l188 1075h-164l39 225h164l25 134h256l-25 -134h328l-39 -225h-328l-41 -235h11q50 39 73 51q96 51 199 51q171 0 269 -100.5t98 -278.5q0 -38 -11 -102l-80 -461h-256l82 463q2 8 2 49q0 87 -57 141t-149 54t-157.5 -56t-82.5 -149l-88 -502h-256z" />
    <glyph glyph-name="uni045C" unicode="&#x45c;" horiz-adv-x="1064" 
d="M133 0l182 1044h256l-82 -471l472 471h307l-531 -522l353 -522h-291l-324 492l-86 -492h-256zM645 1188l246 297h272l-297 -297h-221z" />
    <glyph glyph-name="uni045D" unicode="&#x45d;" horiz-adv-x="1198" 
d="M133 0l182 1044h256l-110 -634h37l417 634h332l-182 -1044h-256l111 635h-37l-418 -635h-332zM686 1188l-194 297h260l143 -297h-209z" />
    <glyph glyph-name="uni045E" unicode="&#x45e;" 
d="M41 -410l43 236h205q54 0 80 51l30 60l-225 1107h260l144 -706h40l369 706h273l-672 -1273q-50 -95 -113.5 -138t-171.5 -43h-262zM410 1464v21h194q0 -123 123 -123q50 0 87 35t56 88h195q-27 -133 -114 -215t-234 -82q-146 0 -226.5 75t-80.5 201z" />
    <glyph glyph-name="uni045F" unicode="&#x45f;" horiz-adv-x="1177" 
d="M133 0l182 1044h256l-141 -808h399l142 808h256l-183 -1044h-327l-45 -246h-256l45 246h-328z" />
    <glyph glyph-name="uni0462" unicode="&#x462;" horiz-adv-x="1392" 
d="M567 256h371q88 0 148.5 61.5t60.5 153.5q0 70 -44 112t-118 42h-354zM256 0l182 1044h-266l45 246h266l25 144h266l-24 -144h389l-45 -246h-389l-29 -163h368q160 0 264.5 -106t104.5 -273q0 -221 -137 -361.5t-346 -140.5h-674z" />
    <glyph glyph-name="uni0463" unicode="&#x463;" horiz-adv-x="1167" 
d="M225 0l154 881h-236l43 235h236l55 318h256l-55 -318h287l-43 -235h-287l-29 -164h258q128 0 215.5 -88.5t87.5 -218.5q0 -183 -111 -296.5t-284 -113.5h-547zM516 205h227q73 0 120.5 49.5t47.5 130.5q0 57 -35 92t-92 35h-213z" />
    <glyph glyph-name="uni046A" unicode="&#x46a;" horiz-adv-x="1669" 
d="M82 0l35 197q91 519 571 618l-332 393l39 226h1393l-39 -226l-492 -407q193 -71 284 -199t91 -319q0 -99 -16 -181l-19 -102h-266l19 113q14 89 14 145q0 156 -74.5 240t-212.5 96l-104 -594h-266l104 594h-31q-153 0 -258.5 -105t-142.5 -315l-31 -174h-266zM981 840
l420 348h-717z" />
    <glyph glyph-name="uni046B" unicode="&#x46b;" horiz-adv-x="1331" 
d="M776 604h10l295 225h-522zM61 0l9 43q47 238 175.5 376.5t291.5 170.5l-246 250l35 204h1075l-35 -204l-352 -262q150 -50 223.5 -160.5t73.5 -294.5q0 -48 -11 -123h-256l5 43q6 75 6 90q0 120 -43.5 179t-134.5 77l-68 -389h-256l68 389q-101 0 -181 -85t-118 -284
l-5 -20h-256z" />
    <glyph glyph-name="uni0472" unicode="&#x472;" horiz-adv-x="1576" 
d="M840 -20h-2q-274 0 -448.5 178t-174.5 456q0 144 42.5 275.5t117 233t172.5 177t213.5 115t234.5 39.5q274 0 448.5 -178.5t174.5 -456.5q0 -176 -63 -333t-168.5 -267.5t-248 -174.5t-298.5 -64zM506 817q111 33 201 33q94 0 233.5 -36t226.5 -36q110 0 185 39
q-5 172 -110.5 276.5t-278.5 104.5q-152 0 -280.5 -103t-176.5 -278zM481 614q5 -173 109 -275.5t280 -102.5q157 0 281.5 101.5t173.5 278.5q-94 -32 -199 -32q-94 0 -232 35.5t-218 35.5q-60 0 -115 -13.5t-80 -27.5z" />
    <glyph glyph-name="uni0473" unicode="&#x473;" horiz-adv-x="1228" 
d="M666 -20q-221 0 -356.5 131.5t-135.5 339.5q0 128 47 242.5t126.5 195.5t189.5 128.5t231 47.5q221 0 356.5 -131.5t135.5 -339.5q0 -128 -47 -242.5t-126.5 -195.5t-189.5 -128.5t-231 -47.5zM457 614q15 6 62.5 13.5t84.5 7.5q51 0 133 -20.5t133 -20.5q35 0 74.5 6.5
t54.5 11.5q-12 99 -77.5 158t-163.5 59t-179 -58t-122 -157zM432 432q12 -99 78.5 -158t165.5 -59q98 0 179.5 58t119.5 155q-3 0 -28.5 -4.5t-60 -9t-57.5 -4.5q-51 0 -133 20.5t-133 20.5q-74 0 -131 -19z" />
    <glyph glyph-name="uni0474" unicode="&#x474;" horiz-adv-x="1454" 
d="M485 0l-239 1434h291l174 -1106h41l401 788q90 177 186.5 252.5t210.5 75.5q54 0 111 -17q12 -5 43 -14l-51 -266q0 2 -9 9t-29.5 14.5t-43.5 7.5q-88 0 -152 -125l-545 -1053h-389z" />
    <glyph glyph-name="uni0475" unicode="&#x475;" horiz-adv-x="1105" 
d="M340 0l-176 1044h260l119 -727h41l233 457q71 140 150 205t172 65q60 0 106 -26q21 -9 37 -25l-41 -215q0 1 -10.5 6t-28 10t-33.5 5q-30 0 -52.5 -14.5t-34.5 -31.5t-31 -53l-363 -700h-348z" />
    <glyph glyph-name="uni048A" unicode="&#x48a;" horiz-adv-x="1515" 
d="M154 0l252 1434h266l-176 -994h39l688 994h360l-207 -1178h205l-8 -41l-252 -502h-205l103 287h-154l174 993h-39l-686 -993h-360zM717 1853v21h194q0 -123 123 -123q50 0 87.5 35.5t56.5 87.5h194q-27 -133 -114 -215t-234 -82q-146 0 -226.5 75t-80.5 201z" />
    <glyph glyph-name="uni048B" unicode="&#x48b;" horiz-adv-x="1228" 
d="M133 0l182 1044h256l-110 -634h37l417 634h332l-139 -798h184l-10 -51l-242 -441h-174l86 246h-143l111 635h-37l-418 -635h-332zM500 1464v21h194q0 -123 123 -123q50 0 87.5 35.5t56.5 87.5h194q-27 -133 -114 -215t-234 -82q-146 0 -226.5 75t-80.5 201z" />
    <glyph glyph-name="uni048C" unicode="&#x48c;" horiz-adv-x="1392" 
d="M567 256h371q88 0 148.5 61.5t60.5 153.5q0 70 -44 112t-118 42h-354zM256 0l182 1044h-266l45 246h266l25 144h266l-24 -144h389l-45 -246h-389l-29 -163h368q160 0 264.5 -106t104.5 -273q0 -221 -137 -361.5t-346 -140.5h-674z" />
    <glyph glyph-name="uni048D" unicode="&#x48d;" horiz-adv-x="1167" 
d="M225 0l154 881h-236l43 235h236l55 318h256l-55 -318h287l-43 -235h-287l-29 -164h258q128 0 215.5 -88.5t87.5 -218.5q0 -183 -111 -296.5t-284 -113.5h-547zM516 205h227q73 0 120.5 49.5t47.5 130.5q0 57 -35 92t-92 35h-213z" />
    <glyph glyph-name="uni048E" unicode="&#x48e;" horiz-adv-x="1341" 
d="M154 0l252 1434h661q155 0 261 -113t106 -287q0 -155 -60.5 -277.5t-163.5 -197.5l64 -119l-180 -92l-72 131q-36 -8 -90 -8h-430l-82 -471h-266zM547 727h344l-66 123l181 92l79 -151q82 85 82 213q0 77 -46 125.5t-113 48.5h-381z" />
    <glyph glyph-name="uni048F" unicode="&#x48f;" horiz-adv-x="1249" 
d="M61 -410l256 1454h236l6 -92h10q44 38 76 56q90 57 207 57q186 0 303 -123t117 -328q0 -160 -61 -291.5t-167 -220.5l76 -143l-168 -82l-69 131q-86 -28 -164 -28q-55 0 -103.5 11t-80 27t-56.5 37t-37.5 37t-19.5 31h-10l-95 -533h-256zM772 221l-80 158l168 82l70 -137
q86 99 86 260q0 116 -63 180.5t-173 64.5q-127 0 -217 -102t-90 -266q0 -116 63 -181t173 -65q33 0 63 6z" />
    <glyph glyph-name="uni0490" unicode="&#x490;" horiz-adv-x="1136" 
d="M154 0l252 1434h677l52 286h264l-96 -542h-676l-207 -1178h-266z" />
    <glyph glyph-name="uni0491" unicode="&#x491;" horiz-adv-x="911" 
d="M133 0l182 1044h502l45 256h236l-88 -501h-482l-139 -799h-256z" />
    <glyph glyph-name="uni0492" unicode="&#x492;" horiz-adv-x="1187" 
d="M225 0l105 594h-205l43 246h205l104 594h922l-43 -246h-656l-61 -348h389l-43 -246h-389l-104 -594h-267z" />
    <glyph glyph-name="uni0493" unicode="&#x493;" horiz-adv-x="917" 
d="M170 0l66 379h-164l39 215h163l78 450h727l-41 -235h-471l-37 -215h338l-39 -215h-337l-66 -379h-256z" />
    <glyph glyph-name="uni0494" unicode="&#x494;" horiz-adv-x="1320" 
d="M154 0l252 1434h942l-45 -256h-676l-68 -387q26 14 66 24q73 25 174 25q227 0 359 -128t132 -343q0 -196 -81 -348.5t-222 -235t-317 -82.5h-58l47 266h25q142 0 241 103t99 256q0 111 -75 178t-212 67q-89 0 -159 -24q-31 -7 -66 -23l-92 -526h-266z" />
    <glyph glyph-name="uni0495" unicode="&#x495;" 
d="M479 -410l43 236q126 0 206.5 88.5t80.5 239.5q0 204 -215 204q-48 0 -109 -18q-6 -2 -20 -7.5t-21 -8.5l-55 -324h-256l182 1044h727l-43 -245h-471l-41 -230q3 1 56 17q79 18 133 18q186 0 287.5 -101.5t101.5 -287.5q0 -301 -144.5 -463t-388.5 -162h-53z" />
    <glyph glyph-name="uni0496" unicode="&#x496;" horiz-adv-x="1740" 
d="M-20 0l616 737l-311 697h323l275 -646l114 646h267l-115 -646l504 646h336l-574 -717l225 -461h164l-43 -248l4 -8h-6l-51 -287h-266l51 287h-51l-314 666l-116 -666h-267l117 666l-547 -666h-335z" />
    <glyph glyph-name="uni0497" unicode="&#x497;" horiz-adv-x="1454" 
d="M-10 0l438 543l-223 501h293l204 -471l82 471h256l-82 -471l369 471h305l-415 -522l126 -276h162l-88 -492h-256l45 246h-41l-221 492l-86 -492h-256l86 492l-393 -492h-305z" />
    <glyph glyph-name="uni0498" unicode="&#x498;" horiz-adv-x="1259" 
d="M430 -287l51 287q-169 40 -258.5 145t-89.5 244v41h266v-10q0 -83 74 -139t213 -56q125 0 201 61t76 144q0 80 -58.5 132t-156.5 52h-150l41 226h190q113 0 169.5 46.5t56.5 127.5q0 89 -64.5 141.5t-191.5 52.5q-112 0 -180.5 -56.5t-86.5 -147.5h-266q15 87 54.5 165
t104 143t163.5 103.5t221 38.5q119 0 219 -33.5t165.5 -89.5t101.5 -127.5t36 -148.5q0 -185 -129 -285q-52 -41 -127 -63v-11q42 -22 76 -59q78 -86 78 -207q0 -169 -134.5 -299t-351.5 -147l-47 -271h-266z" />
    <glyph glyph-name="uni0499" unicode="&#x499;" horiz-adv-x="1034" 
d="M334 -246l43 250q-126 36 -190 118t-64 197v21q0 6 2 8h254v-10q0 -65 54.5 -109.5t150.5 -44.5q83 0 128.5 38t45.5 95q0 50 -41 81.5t-119 31.5h-113l31 184h139q75 0 119.5 36.5t44.5 86.5t-44.5 86.5t-119.5 36.5q-77 0 -132.5 -40.5t-69.5 -102.5h-248
q30 152 151 250t299 98q198 0 309 -88.5t111 -218.5q0 -132 -92 -201q-38 -33 -92 -45v-10q123 -58 123 -185q0 -134 -101.5 -228.5t-283.5 -106.5l-39 -228h-256z" />
    <glyph glyph-name="uni049A" unicode="&#x49a;" horiz-adv-x="1249" 
d="M154 0l252 1434h266l-115 -646l606 646h338l-678 -717l289 -459h172l-96 -545h-266l51 287h-21l-415 666l-117 -666h-266z" />
    <glyph glyph-name="uni049B" unicode="&#x49b;" 
d="M133 0l182 1044h256l-82 -471l472 471h307l-531 -522l187 -276h204l-88 -492h-256l45 246h-30l-324 492l-86 -492h-256z" />
    <glyph glyph-name="uni049C" unicode="&#x49c;" horiz-adv-x="1372" 
d="M154 0l252 1434h266l-105 -594h72l35 204h164l-35 -204h37l460 594h322l-553 -717l330 -717h-303l-269 584h-69l-37 -205h-164l37 205h-72l-102 -584h-266z" />
    <glyph glyph-name="uni049D" unicode="&#x49d;" horiz-adv-x="1146" 
d="M133 0l182 1044h256l-73 -419h61l29 163h133l-29 -163h29l334 419h293l-416 -522l242 -522h-273l-205 451h-34l-31 -175h-133l30 175h-61l-78 -451h-256z" />
    <glyph glyph-name="uni049E" unicode="&#x49e;" horiz-adv-x="1280" 
d="M205 0l190 1085h-194l39 226h194l23 123h266l-23 -123h134l-39 -226h-133l-54 -297l606 646h338l-678 -717l451 -717h-321l-416 666l-117 -666h-266z" />
    <glyph glyph-name="uni049F" unicode="&#x49f;" horiz-adv-x="1095" 
d="M164 0l190 1085h-164l39 226h164l23 123h256l-23 -123h225l-38 -226h-226l-90 -512l471 471h307l-530 -522l352 -522h-291l-323 492l-86 -492h-256z" />
    <glyph glyph-name="uni04A0" unicode="&#x4a0;" horiz-adv-x="1331" 
d="M246 0l207 1178h-246l45 256h512l-115 -646l606 646h338l-678 -717l451 -717h-322l-415 666l-117 -666h-266z" />
    <glyph glyph-name="uni04A1" unicode="&#x4a1;" horiz-adv-x="1146" 
d="M215 0l143 819h-215l39 225h471l-82 -471l471 471h308l-531 -522l352 -522h-290l-324 492l-86 -492h-256z" />
    <glyph glyph-name="uni04A2" unicode="&#x4a2;" horiz-adv-x="1525" 
d="M154 0l252 1434h266l-101 -574h646l100 574h266l-207 -1178h154l-96 -543h-267l52 287h-154l104 594h-645l-104 -594h-266z" />
    <glyph glyph-name="uni04A3" unicode="&#x4a3;" horiz-adv-x="1239" 
d="M133 0l182 1044h256l-71 -409h420l71 409h256l-139 -798h143l-88 -492h-256l45 246h-143l68 389h-420l-68 -389h-256z" />
    <glyph glyph-name="uni04A4" unicode="&#x4a4;" horiz-adv-x="1966" 
d="M154 0l252 1434h266l-101 -574h605l100 574h901l-45 -256h-635l-207 -1178h-266l104 594h-604l-104 -594h-266z" />
    <glyph glyph-name="uni04A5" unicode="&#x4a5;" horiz-adv-x="1515" 
d="M133 0l182 1044h256l-71 -409h399l72 409h686l-43 -245h-430l-140 -799h-256l68 389h-399l-68 -389h-256z" />
    <glyph glyph-name="uni04A6" unicode="&#x4a6;" horiz-adv-x="2150" 
d="M154 0l252 1434h1095l-112 -643q27 15 65 24q73 25 174 25q227 0 359.5 -128t132.5 -343q0 -196 -81.5 -348.5t-222.5 -235t-317 -82.5h-57l47 266h24q142 0 241 103t99 256q0 111 -74.5 178t-211.5 67q-90 0 -160 -24q-31 -7 -66 -23l-92 -526h-266l207 1178h-563
l-207 -1178h-266z" />
    <glyph glyph-name="uni04A7" unicode="&#x4a7;" horiz-adv-x="1689" 
d="M133 0l182 1044h871l-82 -475q7 3 55 17q74 18 131 18q186 0 287.5 -101.5t101.5 -287.5q0 -301 -144 -463t-388 -162h-53l43 236q126 0 206 88.5t80 239.5q0 204 -215 204q-47 0 -108 -18q-6 -2 -20 -7.5t-21 -8.5l-55 -324h-256l139 799h-359l-139 -799h-256z" />
    <glyph glyph-name="uni04A8" unicode="&#x4a8;" horiz-adv-x="1740" 
d="M1628 236l-45 -256q-162 0 -251 14t-144 47q-103 -61 -318 -61q-305 0 -480 169t-175 455q0 176 64 335t169 271t243 178t282 66h31l-48 -266h-10q-89 0 -173.5 -41t-149 -111.5t-103.5 -172.5t-39 -218q0 -182 107.5 -295.5t271.5 -113.5q46 0 88 10q16 2 35 10
q-184 163 -184 430q0 146 48 274t127.5 215t183.5 137t214 50q187 0 308.5 -130t121.5 -341q0 -186 -89.5 -362t-242.5 -277l46 -8q41 -8 112 -8zM1214 330q125 47 223.5 201.5t98.5 338.5q0 236 -184 236q-51 0 -101 -29t-92 -82.5t-68 -139.5t-26 -189q0 -114 40.5 -202
t108.5 -134z" />
    <glyph glyph-name="uni04A9" unicode="&#x4a9;" horiz-adv-x="1351" 
d="M1284 205l-39 -225q-215 0 -313 61q-135 -61 -256 -61q-228 0 -365 131t-137 340q0 128 47.5 242.5t127.5 195.5t190 128.5t231 47.5l-43 -246q-126 0 -211.5 -96t-85.5 -252q0 -117 68.5 -191.5t177.5 -74.5q28 0 51 10l21 10q-103 127 -103 287q0 196 124 328.5
t296 132.5q148 0 238 -92.5t90 -245.5q0 -74 -20.5 -142t-54.5 -120.5t-69.5 -91t-74.5 -68.5q25 -8 110 -8zM956 287q59 34 120 130.5t61 186.5q0 66 -26 99.5t-67 33.5q-52 0 -102.5 -68.5t-50.5 -176.5q0 -67 19 -124t46 -81z" />
    <glyph glyph-name="uni04AA" unicode="&#x4aa;" horiz-adv-x="1505" 
d="M614 -287l50 287q-205 54 -327 220t-122 394q0 144 42.5 275.5t117 233t172.5 177t213.5 115t234.5 39.5q246 0 407.5 -142t186.5 -380h-272q-76 266 -354 266q-74 0 -144.5 -24.5t-131.5 -74t-107 -117t-72.5 -160t-26.5 -197.5q0 -179 105.5 -284t283.5 -105
q123 0 226 72.5t166 203.5h276q-80 -222 -237.5 -362t-372.5 -164l-47 -273h-267z" />
    <glyph glyph-name="uni04AB" unicode="&#x4ab;" horiz-adv-x="1177" 
d="M446 -246l46 250q-149 48 -233.5 165.5t-84.5 281.5q0 128 47 242.5t126.5 195.5t189.5 128.5t231 47.5q192 0 314.5 -107t142.5 -292h-254q-49 163 -213 163q-133 0 -230.5 -103.5t-97.5 -254.5q0 -116 68 -186t178 -70q94 0 154.5 44.5t105.5 129.5h260
q-55 -162 -175 -270.5t-278 -132.5l-41 -232h-256z" />
    <glyph glyph-name="uni04AC" unicode="&#x4ac;" horiz-adv-x="1208" 
d="M561 -287l51 287h-153l207 1178h-430l45 256h1126l-45 -256h-430l-162 -922h154l-97 -543h-266z" />
    <glyph glyph-name="uni04AD" unicode="&#x4ad;" horiz-adv-x="993" 
d="M459 -246l45 246h-144l142 809h-328l41 235h911l-41 -235h-327l-99 -563h144l-88 -492h-256z" />
    <glyph glyph-name="uni04AE" unicode="&#x4ae;" horiz-adv-x="1269" 
d="M485 0l86 492l-356 942h291l229 -615h41l447 615h303l-688 -942l-86 -492h-267z" />
    <glyph glyph-name="uni04AF" unicode="&#x4af;" 
d="M348 -410l74 410h-41l-197 1044h260l127 -737h41l385 737h273l-561 -1044h-31l-74 -410h-256z" />
    <glyph glyph-name="uni04B0" unicode="&#x4b0;" horiz-adv-x="1269" 
d="M485 0l84 481h-338l41 236h213l-270 717h291l229 -615h41l447 615h303l-525 -717h213l-40 -236h-338l-84 -481h-267z" />
    <glyph glyph-name="uni04B1" unicode="&#x4b1;" 
d="M346 -410l74 410h-277l39 225h154l-154 819h260l127 -737h41l385 737h273l-441 -819h154l-39 -225h-266l-74 -410h-256z" />
    <glyph glyph-name="uni04B2" unicode="&#x4b2;" horiz-adv-x="1310" 
d="M-20 0l628 748l-334 686h314l223 -471h41l391 471h326l-592 -707l229 -471h158l-96 -543h-267l52 287h-31l-248 512h-41l-428 -512h-325z" />
    <glyph glyph-name="uni04B3" unicode="&#x4b3;" horiz-adv-x="1054" 
d="M-10 0l448 543l-243 501h282l158 -327h41l272 327h295l-436 -522l131 -276h168l-88 -492h-256l45 246h-31l-166 348h-41l-284 -348h-295z" />
    <glyph glyph-name="uni04B4" unicode="&#x4b4;" horiz-adv-x="1730" 
d="M397 0l207 1178h-368l45 256h993l-45 -256h-359l-161 -922h604l207 1178h266l-207 -1178h154l-97 -543h-266l51 287h-1024z" />
    <glyph glyph-name="uni04B5" unicode="&#x4b5;" horiz-adv-x="1402" 
d="M307 0l142 809h-277l41 235h788l-40 -235h-256l-99 -563h410l139 798h256l-139 -798h143l-88 -492h-256l45 246h-809z" />
    <glyph glyph-name="uni04B6" unicode="&#x4b6;" horiz-adv-x="1443" 
d="M1085 -287l52 287h-154l90 518q-49 -27 -94 -45q-110 -43 -231 -43q-217 0 -339 109t-122 290q0 56 20 166l78 439h266l-78 -437q-10 -58 -10 -86q0 -112 66.5 -168.5t210.5 -56.5q108 0 200 43q40 17 78 43l117 662h266l-207 -1178h154l-96 -543h-267z" />
    <glyph glyph-name="uni04B7" unicode="&#x4b7;" horiz-adv-x="1187" 
d="M856 -246l45 246h-143l61 354q-39 -26 -104 -46.5t-142 -20.5q-348 0 -348 317q0 56 11 113l59 327h256l-55 -311q-4 -32 -4 -57q0 -71 47 -112.5t137 -41.5q43 0 80.5 10t57 20t46.5 28l80 464h256l-139 -798h143l-88 -492h-256z" />
    <glyph glyph-name="uni04B8" unicode="&#x4b8;" horiz-adv-x="1402" 
d="M659 256l31 176q-194 13 -298.5 120t-104.5 277q0 56 20 166l78 439h266l-78 -437q-10 -58 -10 -86q0 -179 172 -217l41 228h164l-41 -232q76 9 158 47q24 11 61 35l117 662h266l-252 -1434h-266l90 518l-61 -31q-87 -36 -158 -47l-31 -184h-164z" />
    <glyph glyph-name="uni04B9" unicode="&#x4b9;" horiz-adv-x="1146" 
d="M530 174l21 113q-326 9 -326 317q0 56 11 113l59 327h256l-55 -311q-4 -32 -4 -57q0 -111 102 -144l35 195h133l-37 -203q71 11 135 56l80 464h256l-182 -1044h-256l61 354q-55 -36 -133 -55l-22 -125h-134z" />
    <glyph glyph-name="uni04BA" unicode="&#x4ba;" horiz-adv-x="1402" 
d="M154 0l252 1434h266l-90 -519q46 24 94 43q114 46 231 46q217 0 339 -109.5t122 -290.5q0 -56 -20 -166l-78 -438h-266l77 436q11 64 11 86q0 112 -66.5 169t-210.5 57q-109 0 -201 -43q-31 -15 -77 -43l-117 -662h-266z" />
    <glyph glyph-name="uni04BB" unicode="&#x4bb;" horiz-adv-x="1228" 
d="M143 0l252 1434h256l-82 -471h11q50 39 73 51q96 51 197 51q171 0 270 -100.5t99 -278.5q0 -38 -11 -102l-102 -584h-256l102 586q4 20 4 49q0 86 -58 140t-150 54t-156.5 -55.5t-81.5 -148.5l-111 -625h-256z" />
    <glyph glyph-name="uni04BC" unicode="&#x4bc;" horiz-adv-x="1771" 
d="M438 614h-41q-252 0 -252 205q0 40 11 86l10 58h215l-4 -25q-1 -6 -2.5 -16.5t-2.5 -18.5t-1 -12q0 -62 78 -62h14q66 276 277 450.5t477 174.5q143 0 263.5 -56t199 -150.5t112.5 -225.5t10 -274l-22 -134h-1075q5 -172 110.5 -275t278.5 -103q103 0 197 54.5t161 160.5
h285q-97 -225 -276.5 -348t-397.5 -123q-136 0 -253 47.5t-198.5 131t-127.5 201t-46 254.5zM733 829h811q0 178 -93.5 273.5t-264.5 95.5q-152 0 -275.5 -99.5t-177.5 -269.5z" />
    <glyph glyph-name="uni04BD" unicode="&#x4bd;" horiz-adv-x="1382" 
d="M348 440h-61q-168 0 -168 164q0 32 8 68l8 45h184l-4 -25q-1 -6 -2.5 -16.5t-2.5 -18.5t-1 -12q0 -31 49 -31h11q50 198 209.5 324.5t363.5 126.5q216 0 343.5 -133.5t127.5 -368.5q0 -15 -6 -84l-6 -39h-795q11 -106 78.5 -175.5t165.5 -69.5q147 0 223 112h264
q-67 -143 -201 -235t-296 -92q-218 0 -352.5 127.5t-139.5 332.5zM629 614h526q-6 106 -62.5 171t-160.5 65q-99 0 -179.5 -63t-123.5 -173z" />
    <glyph glyph-name="uni04BE" unicode="&#x4be;" horiz-adv-x="1771" 
d="M819 -287l51 293q-198 57 -315 220.5t-117 387.5h-41q-252 0 -252 205q0 40 11 86l10 58h215l-4 -25q-1 -6 -2.5 -16.5t-2.5 -18.5t-1 -12q0 -62 78 -62h14q66 276 277 450.5t477 174.5q143 0 263.5 -56t199 -150.5t112.5 -225.5t10 -274l-22 -134h-1075
q5 -172 110.5 -275t278.5 -103q103 0 197 54.5t161 160.5h285q-91 -210 -248 -329t-356 -138l-48 -271h-266zM733 829h811q0 178 -93.5 273.5t-264.5 95.5q-152 0 -275.5 -99.5t-177.5 -269.5z" />
    <glyph glyph-name="uni04BF" unicode="&#x4bf;" horiz-adv-x="1382" 
d="M621 -246l45 250q-147 44 -232 159.5t-86 276.5h-61q-168 0 -168 164q0 32 8 68l8 45h184l-4 -25q-1 -6 -2.5 -16.5t-2.5 -18.5t-1 -12q0 -31 49 -31h11q50 198 209.5 324.5t363.5 126.5q216 0 343.5 -133.5t127.5 -368.5q0 -15 -6 -84l-6 -39h-795q11 -106 78.5 -175.5
t165.5 -69.5q147 0 223 112h264q-62 -127 -171 -212.5t-248 -108.5l-41 -232h-256zM629 614h526q-6 106 -62.5 171t-160.5 65q-99 0 -179.5 -63t-123.5 -173z" />
    <glyph glyph-name="uni04C0" unicode="&#x4c0;" horiz-adv-x="573" 
d="M154 0l252 1434h266l-252 -1434h-266z" />
    <glyph glyph-name="uni04C1" unicode="&#x4c1;" horiz-adv-x="1720" 
d="M-20 0l616 737l-311 697h323l275 -646l114 646h267l-115 -646l504 646h336l-574 -717l350 -717h-323l-314 666l-116 -666h-267l117 666l-547 -666h-335zM850 1853v21h194q0 -123 123 -123q50 0 87.5 35.5t56.5 87.5h194q-27 -133 -114 -215t-234 -82q-146 0 -226.5 75
t-80.5 201z" />
    <glyph glyph-name="uni04C2" unicode="&#x4c2;" horiz-adv-x="1443" 
d="M-10 0l438 543l-223 501h293l204 -471l82 471h256l-82 -471l369 471h305l-415 -522l241 -522h-293l-221 492l-86 -492h-256l86 492l-393 -492h-305zM625 1464v21h194q0 -123 123 -123q50 0 87 35t56 88h195q-27 -133 -114 -215t-234 -82q-146 0 -226.5 75t-80.5 201z" />
    <glyph glyph-name="uni04C3" unicode="&#x4c3;" horiz-adv-x="1310" 
d="M154 0l252 1434h266l-115 -646l606 646h338l-575 -609q179 -35 271.5 -154.5t92.5 -301.5q0 -297 -177 -481.5t-454 -184.5h-67l47 266h39q153 0 249.5 99.5t96.5 259.5q0 118 -73.5 187t-202.5 69q-73 0 -168 -31l-68 -31l-92 -522h-266z" />
    <glyph glyph-name="uni04C4" unicode="&#x4c4;" horiz-adv-x="1116" 
d="M485 -430l45 246q144 0 227 90.5t83 257.5q0 101 -60.5 158t-175.5 57q-57 0 -112 -25q-22 -8 -46 -22l-57 -332h-256l182 1044h256l-82 -471l472 471h307l-459 -452q287 -81 287 -377q0 -301 -155.5 -473t-405.5 -172h-50z" />
    <glyph glyph-name="uni04C5" unicode="&#x4c5;" horiz-adv-x="1456" 
d="M10 -10l45 256h72q60 0 104.5 44t67.5 128l262 1016h963l-207 -1178h205l-9 -41l-251 -502h-205l102 287h-153l206 1178h-450l-215 -842q-88 -346 -404 -346h-133z" />
    <glyph glyph-name="uni04C6" unicode="&#x4c6;" horiz-adv-x="1200" 
d="M10 -10l41 235h60q112 0 153 152l176 667h779l-140 -798h185l-11 -51l-241 -441h-174l86 246h-144l142 809h-287l-131 -492q-43 -164 -133 -245.5t-236 -81.5h-125z" />
    <glyph glyph-name="uni04C7" unicode="&#x4c7;" horiz-adv-x="1484" 
d="M154 0l252 1434h266l-101 -574h646l100 574h266l-258 -1448q-38 -220 -139 -318t-287 -98h-117l49 276h70q135 0 160 142l108 606h-645l-104 -594h-266z" />
    <glyph glyph-name="uni04C8" unicode="&#x4c8;" horiz-adv-x="1198" 
d="M133 0l182 1044h256l-71 -409h420l71 409h256l-203 -1144q-28 -160 -126.5 -245t-237.5 -85h-113l45 246h62q54 0 83 30.5t40 94.5l80 448h-420l-68 -389h-256z" />
    <glyph glyph-name="uni04C9" unicode="&#x4c9;" horiz-adv-x="1515" 
d="M154 0l252 1434h266l-101 -574h646l100 574h266l-207 -1178h205l-8 -41l-252 -502h-205l103 287h-154l104 594h-645l-104 -594h-266z" />
    <glyph glyph-name="uni04CA" unicode="&#x4ca;" horiz-adv-x="1228" 
d="M133 0l182 1044h256l-71 -409h420l71 409h256l-139 -798h184l-10 -51l-242 -441h-174l86 246h-143l68 389h-420l-68 -389h-256z" />
    <glyph glyph-name="uni04CB" unicode="&#x4cb;" horiz-adv-x="1402" 
d="M778 -287l88 502h154l53 303q-49 -27 -94 -45q-110 -43 -231 -43q-217 0 -339 109t-122 290q0 56 20 166l78 439h266l-78 -437q-10 -58 -10 -86q0 -112 66.5 -168.5t210.5 -56.5q108 0 200 43q40 17 78 43l117 662h266l-252 -1434h-153l-52 -287h-266z" />
    <glyph glyph-name="uni04CC" unicode="&#x4cc;" horiz-adv-x="1146" 
d="M569 -246l74 420h143l33 180q-39 -26 -104 -46.5t-142 -20.5q-348 0 -348 317q0 56 11 113l59 327h256l-55 -311q-4 -32 -4 -57q0 -71 47 -112.5t137 -41.5q43 0 80.5 10t57 20t46.5 28l80 464h256l-182 -1044h-144l-45 -246h-256z" />
    <glyph glyph-name="uni04CD" unicode="&#x4cd;" horiz-adv-x="1914" 
d="M154 0l252 1434h423l162 -1004h41l514 1004h436l-206 -1178h204l-8 -41l-252 -502h-204l102 287h-154l174 993h-41l-512 -993h-286l-164 993h-41l-174 -993h-266z" />
    <glyph glyph-name="uni04CE" unicode="&#x4ce;" horiz-adv-x="1566" 
d="M133 0l182 1044h383l107 -675h41l344 675h395l-139 -798h184l-10 -51l-242 -441h-174l86 246h-143l117 666h-41l-332 -666h-246l-98 666h-41l-117 -666h-256z" />
    <glyph glyph-name="uni04CF" unicode="&#x4cf;" horiz-adv-x="542" 
d="M143 0l252 1434h256l-252 -1434h-256z" />
    <glyph glyph-name="uni04D0" unicode="&#x4d0;" horiz-adv-x="1413" 
d="M20 0l764 1434h390l266 -1434h-297l-56 307h-602l-161 -307h-304zM614 553h430l-94 573h-41zM707 1853v21h194q0 -123 123 -123q50 0 87 35t56 88h195q-27 -133 -114 -215t-234 -82q-146 0 -226.5 75t-80.5 201z" />
    <glyph glyph-name="uni04D1" unicode="&#x4d1;" horiz-adv-x="1126" 
d="M788 0l-4 82h-10q-48 -37 -76 -51q-93 -51 -206 -51q-163 0 -261 84.5t-98 211.5q0 158 117 263.5t313 105.5h299q8 31 8 51q0 73 -47.5 118.5t-126.5 45.5t-127.5 -40.5t-62.5 -92.5h-256q20 66 53.5 122.5t85.5 107t131 79.5t176 29q197 0 313.5 -100.5t116.5 -257.5
q0 -20 -12 -82l-110 -625h-216zM819 399l6 52h-250q-91 0 -138.5 -41.5t-47.5 -112.5q0 -55 45.5 -84t128.5 -29q101 0 172.5 58.5t83.5 156.5zM481 1464v21h195q0 -123 123 -123q50 0 87 35t56 88h195q-27 -132 -114.5 -214.5t-234.5 -82.5q-146 0 -226.5 75t-80.5 201z
" />
    <glyph glyph-name="uni04D2" unicode="&#x4d2;" horiz-adv-x="1413" 
d="M20 0l764 1434h390l266 -1434h-297l-56 307h-602l-161 -307h-304zM614 553h430l-94 573h-41zM1075 1608l43 235h236l-43 -235h-236zM696 1608l43 235h236l-43 -235h-236z" />
    <glyph glyph-name="uni04D3" unicode="&#x4d3;" horiz-adv-x="1126" 
d="M788 0l-4 82h-10q-48 -37 -76 -51q-93 -51 -206 -51q-163 0 -261 84.5t-98 211.5q0 158 117 263.5t313 105.5h299q8 31 8 51q0 73 -47.5 118.5t-126.5 45.5t-127.5 -40.5t-62.5 -92.5h-256q20 66 53.5 122.5t85.5 107t131 79.5t176 29q197 0 313.5 -100.5t116.5 -257.5
q0 -20 -12 -82l-110 -625h-216zM819 399l6 52h-250q-91 0 -138.5 -41.5t-47.5 -112.5q0 -55 45.5 -84t128.5 -29q101 0 172.5 58.5t83.5 156.5zM850 1219l43 235h235l-43 -235h-235zM471 1219l43 235h236l-43 -235h-236z" />
    <glyph glyph-name="uni04D6" unicode="&#x4d6;" horiz-adv-x="1228" 
d="M154 0l252 1434h962l-43 -246h-696l-62 -348h656l-43 -246h-656l-61 -348h696l-43 -246h-962zM604 1853v21h195q0 -123 123 -123q50 0 87 35t56 88h195q-27 -132 -114.5 -214.5t-234.5 -82.5q-146 0 -226.5 75t-80.5 201z" />
    <glyph glyph-name="uni04D7" unicode="&#x4d7;" horiz-adv-x="1208" 
d="M899 307h264q-67 -143 -201 -235t-296 -92q-221 0 -356.5 131.5t-135.5 339.5q0 128 47 242.5t126.5 195.5t189.5 128.5t231 47.5q216 0 343.5 -133.5t127.5 -368.5q0 -15 -6 -84l-6 -39h-795q11 -106 78.5 -175.5t165.5 -69.5q147 0 223 112zM455 614h526
q-6 106 -62.5 171t-160.5 65q-99 0 -179.5 -63t-123.5 -173zM502 1464v21h194q0 -123 123 -123q50 0 87.5 35.5t56.5 87.5h194q-27 -133 -114 -215t-234 -82q-146 0 -226.5 75t-80.5 201z" />
    <glyph glyph-name="uni04D8" unicode="&#x4d8;" horiz-adv-x="1548" 
d="M225 686l23 133h1075q-5 172 -110.5 275.5t-278.5 103.5q-103 0 -197.5 -54.5t-161.5 -160.5h-284q97 225 276 348t398 123q182 0 324.5 -81.5t221 -226t78.5 -327.5q0 -176 -63 -333t-168.5 -267.5t-248 -174.5t-298.5 -64q-143 0 -264 56t-199.5 150.5t-112.5 225.5
t-10 274zM1294 604h-811q0 -178 94 -273t265 -95q152 0 275.5 99t176.5 269z" />
    <glyph glyph-name="uni04D9" unicode="&#x4d9;" horiz-adv-x="1208" 
d="M186 604h795q-11 106 -78.5 176t-165.5 70q-146 0 -223 -113h-264q67 143 201.5 235.5t296.5 92.5q221 0 356 -131t135 -340q0 -128 -47 -242.5t-126.5 -195.5t-189.5 -128.5t-231 -47.5q-218 0 -344.5 132.5t-126.5 368.5q0 49 6 84zM958 430h-526q6 -106 62.5 -170.5
t160.5 -64.5q99 0 179.5 63t123.5 172z" />
    <glyph glyph-name="uni04DA" unicode="&#x4da;" horiz-adv-x="1548" 
d="M225 686l23 133h1075q-5 172 -110.5 275.5t-278.5 103.5q-103 0 -197.5 -54.5t-161.5 -160.5h-284q97 225 276 348t398 123q182 0 324.5 -81.5t221 -226t78.5 -327.5q0 -176 -63 -333t-168.5 -267.5t-248 -174.5t-298.5 -64q-143 0 -264 56t-199.5 150.5t-112.5 225.5
t-10 274zM1294 604h-811q0 -178 94 -273t265 -95q152 0 275.5 99t176.5 269zM1116 1608l43 235h236l-43 -235h-236zM737 1608l43 235h236l-43 -235h-236z" />
    <glyph glyph-name="uni04DB" unicode="&#x4db;" horiz-adv-x="1208" 
d="M186 604h795q-11 106 -78.5 176t-165.5 70q-146 0 -223 -113h-264q67 143 201.5 235.5t296.5 92.5q221 0 356 -131t135 -340q0 -128 -47 -242.5t-126.5 -195.5t-189.5 -128.5t-231 -47.5q-218 0 -344.5 132.5t-126.5 368.5q0 49 6 84zM958 430h-526q6 -106 62.5 -170.5
t160.5 -64.5q99 0 179.5 63t123.5 172zM891 1219l43 235h235l-43 -235h-235zM512 1219l43 235h236l-43 -235h-236z" />
    <glyph glyph-name="uni04DC" unicode="&#x4dc;" horiz-adv-x="1720" 
d="M-20 0l616 737l-311 697h323l275 -646l114 646h267l-115 -646l504 646h336l-574 -717l350 -717h-323l-314 666l-116 -666h-267l117 666l-547 -666h-335zM1219 1608l43 235h235l-43 -235h-235zM840 1608l43 235h235l-43 -235h-235z" />
    <glyph glyph-name="uni04DD" unicode="&#x4dd;" horiz-adv-x="1443" 
d="M-10 0l438 543l-223 501h293l204 -471l82 471h256l-82 -471l369 471h305l-415 -522l241 -522h-293l-221 492l-86 -492h-256l86 492l-393 -492h-305zM1004 1219l43 235h235l-43 -235h-235zM625 1219l43 235h235l-43 -235h-235z" />
    <glyph glyph-name="uni04DE" unicode="&#x4de;" horiz-adv-x="1259" 
d="M133 389v41h266v-10q0 -83 74 -139t213 -56q125 0 201 61t76 144q0 80 -58.5 132t-156.5 52h-150l41 226h190q113 0 169.5 46.5t56.5 127.5q0 89 -64.5 141.5t-191.5 52.5q-112 0 -180.5 -56.5t-86.5 -147.5h-266q15 87 54.5 165t104 143t163.5 103.5t221 38.5
q119 0 219 -33.5t165.5 -89.5t101.5 -127.5t36 -148.5q0 -185 -129 -285q-52 -41 -127 -63v-11q42 -22 76 -59q78 -86 78 -207q0 -89 -39.5 -170.5t-109.5 -143.5t-175.5 -99t-228.5 -37q-131 0 -235.5 32.5t-171 88.5t-101.5 129.5t-35 158.5zM973 1608l43 235h235
l-43 -235h-235zM594 1608l43 235h235l-43 -235h-235z" />
    <glyph glyph-name="uni04DF" unicode="&#x4df;" horiz-adv-x="1034" 
d="M125 348h254v-10q0 -65 54.5 -109.5t150.5 -44.5q83 0 128.5 38t45.5 95q0 50 -41 81.5t-119 31.5h-113l31 184h139q75 0 119.5 36.5t44.5 86.5t-44.5 86.5t-119.5 36.5q-77 0 -132.5 -40.5t-69.5 -102.5h-248q30 152 151 250t299 98q198 0 309 -88.5t111 -218.5
q0 -132 -92 -201q-38 -33 -92 -45v-10q123 -58 123 -185q0 -146 -116.5 -241.5t-324.5 -95.5q-221 0 -335.5 92.5t-114.5 246.5v21q0 6 2 8zM799 1219l43 235h235l-43 -235h-235zM420 1219l43 235h235l-43 -235h-235z" />
    <glyph glyph-name="uni04E0" unicode="&#x4e0;" horiz-adv-x="1259" 
d="M133 410h266q0 -76 74.5 -125t231.5 -49q126 0 206 69.5t80 165.5q0 81 -61 132.5t-174 51.5h-305l36 205l476 318h-646l45 256h1024l-38 -220l-494 -333l-2 -11h10q188 -30 286.5 -124t98.5 -265q0 -219 -151.5 -360t-401.5 -141q-137 0 -246 32t-176.5 87t-103 126.5
t-35.5 153.5v31z" />
    <glyph glyph-name="uni04E1" unicode="&#x4e1;" horiz-adv-x="1054" 
d="M51 10h256q0 -205 205 -205q110 0 178 74t68 203q0 81 -60.5 132.5t-167.5 51.5h-229l35 195l418 338h-512l41 225h860l-39 -211l-410 -332l-2 -10q66 -9 122 -35t101.5 -69.5t72 -111.5t26.5 -153q0 -151 -68 -273t-185 -190.5t-259 -68.5q-211 0 -331 108t-120 281v51z
" />
    <glyph glyph-name="uni04E2" unicode="&#x4e2;" horiz-adv-x="1484" 
d="M154 0l252 1434h266l-176 -994h39l688 994h360l-252 -1434h-266l174 993h-39l-686 -993h-360zM696 1628l35 195h635l-35 -195h-635z" />
    <glyph glyph-name="uni04E3" unicode="&#x4e3;" horiz-adv-x="1198" 
d="M133 0l182 1044h256l-110 -634h37l417 634h332l-182 -1044h-256l111 635h-37l-418 -635h-332zM481 1239l35 195h635l-35 -195h-635z" />
    <glyph glyph-name="uni04E4" unicode="&#x4e4;" horiz-adv-x="1484" 
d="M154 0l252 1434h266l-176 -994h39l688 994h360l-252 -1434h-266l174 993h-39l-686 -993h-360zM1085 1608l43 235h236l-43 -235h-236zM707 1608l43 235h235l-43 -235h-235z" />
    <glyph glyph-name="uni04E5" unicode="&#x4e5;" horiz-adv-x="1198" 
d="M133 0l182 1044h256l-110 -634h37l417 634h332l-182 -1044h-256l111 635h-37l-418 -635h-332zM870 1219l43 235h236l-43 -235h-236zM492 1219l43 235h235l-43 -235h-235z" />
    <glyph glyph-name="uni04E6" unicode="&#x4e6;" horiz-adv-x="1576" 
d="M1352 809q0 179 -105 284t-284 105q-74 0 -144.5 -24.5t-131.5 -74t-107 -117t-72.5 -160t-26.5 -197.5q0 -179 105.5 -284t283.5 -105q96 0 183.5 41t153.5 114.5t105.5 182t39.5 235.5zM840 -20q-136 0 -253 47.5t-198.5 131t-127.5 201t-46 254.5q0 144 42.5 276
t117 233t172 176.5t212.5 115t234 39.5q182 0 325 -81.5t221.5 -226t78.5 -327.5q0 -176 -63 -333t-168.5 -267.5t-248 -174.5t-298.5 -64zM1126 1608l43 235h236l-43 -235h-236zM748 1608l43 235h235l-43 -235h-235z" />
    <glyph glyph-name="uni04E7" unicode="&#x4e7;" horiz-adv-x="1228" 
d="M758 829q-133 0 -230.5 -103.5t-97.5 -254.5q0 -116 68 -186t178 -70q133 0 230.5 103.5t97.5 254.5q0 116 -68 186t-178 70zM666 -20q-221 0 -356.5 131.5t-135.5 339.5q0 128 47 242.5t126.5 195.5t189.5 128.5t231 47.5q221 0 356.5 -131.5t135.5 -339.5
q0 -128 -47 -242.5t-126.5 -195.5t-189.5 -128.5t-231 -47.5zM891 1219l43 235h235l-43 -235h-235zM512 1219l43 235h236l-43 -235h-236z" />
    <glyph glyph-name="uni04E8" unicode="&#x4e8;" horiz-adv-x="1576" 
d="M840 -20h-2q-274 0 -448.5 178t-174.5 456q0 144 42.5 275.5t117 233t172.5 177t213.5 115t234.5 39.5q274 0 448.5 -178.5t174.5 -456.5q0 -176 -63 -333t-168.5 -267.5t-248 -174.5t-298.5 -64zM1325 614h-844q5 -173 109 -275.5t280 -102.5q156 0 281 102t174 276z
M506 819h846q-5 172 -110.5 275.5t-278.5 103.5q-153 0 -281 -102t-176 -277z" />
    <glyph glyph-name="uni04E9" unicode="&#x4e9;" horiz-adv-x="1228" 
d="M174 451q0 128 47 242.5t126.5 195.5t189.5 128.5t231 47.5q221 0 356.5 -131.5t135.5 -339.5q0 -128 -47 -242.5t-126.5 -195.5t-189.5 -128.5t-231 -47.5q-221 0 -356.5 131.5t-135.5 339.5zM977 430h-535q12 -98 78.5 -156.5t165.5 -58.5q93 0 173 58.5t118 156.5z
M467 614h532q-12 98 -77.5 156.5t-163.5 58.5q-93 0 -173 -58.5t-118 -156.5z" />
    <glyph glyph-name="uni04EA" unicode="&#x4ea;" horiz-adv-x="1576" 
d="M840 -20h-2q-274 0 -448.5 178t-174.5 456q0 144 42.5 275.5t117 233t172.5 177t213.5 115t234.5 39.5q274 0 448.5 -178.5t174.5 -456.5q0 -176 -63 -333t-168.5 -267.5t-248 -174.5t-298.5 -64zM1325 614h-844q5 -173 109 -275.5t280 -102.5q156 0 281 102t174 276z
M506 819h846q-5 172 -110.5 275.5t-278.5 103.5q-153 0 -281 -102t-176 -277zM1126 1608l43 235h236l-43 -235h-236zM748 1608l43 235h235l-43 -235h-235z" />
    <glyph glyph-name="uni04EB" unicode="&#x4eb;" horiz-adv-x="1228" 
d="M174 451q0 128 47 242.5t126.5 195.5t189.5 128.5t231 47.5q221 0 356.5 -131.5t135.5 -339.5q0 -128 -47 -242.5t-126.5 -195.5t-189.5 -128.5t-231 -47.5q-221 0 -356.5 131.5t-135.5 339.5zM977 430h-535q12 -98 78.5 -156.5t165.5 -58.5q93 0 173 58.5t118 156.5z
M467 614h532q-12 98 -77.5 156.5t-163.5 58.5q-93 0 -173 -58.5t-118 -156.5zM891 1219l43 235h235l-43 -235h-235zM512 1219l43 235h236l-43 -235h-236z" />
    <glyph glyph-name="uni04EC" unicode="&#x4ec;" horiz-adv-x="1505" 
d="M172 512h272q30 -128 121 -202t234 -74q146 0 271 95.5t177 262.5h-590l43 246h578q-11 165 -114.5 261.5t-272.5 96.5q-248 0 -391 -266h-277q90 237 271.5 379.5t427.5 142.5q182 0 324.5 -81.5t221 -226t78.5 -327.5q0 -179 -65.5 -337.5t-174 -267t-249.5 -171.5
t-291 -63q-254 0 -411.5 145t-182.5 387zM1075 1608l43 235h236l-43 -235h-236zM696 1608l43 235h236l-43 -235h-236z" />
    <glyph glyph-name="uni04ED" unicode="&#x4ed;" horiz-adv-x="1177" 
d="M158 369h254q23 -78 79 -121t134 -43q96 0 175.5 58.5t121.5 156.5h-377l35 205h368q-18 98 -82 156.5t-159 58.5q-94 0 -148.5 -39.5t-99.5 -124.5h-260q57 176 199.5 282.5t318.5 106.5q221 0 356 -131t135 -340q0 -128 -47 -242.5t-126.5 -195.5t-189.5 -128.5
t-231 -47.5q-187 0 -311.5 103.5t-144.5 285.5zM860 1219l43 235h236l-43 -235h-236zM481 1219l43 235h236l-43 -235h-236z" />
    <glyph glyph-name="uni04EE" unicode="&#x4ee;" horiz-adv-x="1269" 
d="M174 0l43 246h205q34 0 52 12.5t38 40.5l45 70l-336 1065h291l221 -717h41l455 717h303l-797 -1258q-108 -176 -319 -176h-242zM563 1628l35 195h635l-35 -195h-635z" />
    <glyph glyph-name="uni04EF" unicode="&#x4ef;" 
d="M41 -410l43 236h205q54 0 80 51l30 60l-225 1107h260l144 -706h40l369 706h273l-672 -1273q-50 -95 -113.5 -138t-171.5 -43h-262zM410 1239l34 195h635l-35 -195h-634z" />
    <glyph glyph-name="uni04F0" unicode="&#x4f0;" horiz-adv-x="1269" 
d="M174 0l43 246h205q34 0 52 12.5t38 40.5l45 70l-336 1065h291l221 -717h41l455 717h303l-797 -1258q-108 -176 -319 -176h-242zM952 1608l43 235h236l-43 -235h-236zM573 1608l43 235h236l-43 -235h-236z" />
    <glyph glyph-name="uni04F1" unicode="&#x4f1;" 
d="M41 -410l43 236h205q54 0 80 51l30 60l-225 1107h260l144 -706h40l369 706h273l-672 -1273q-50 -95 -113.5 -138t-171.5 -43h-262zM799 1219l43 235h235l-43 -235h-235zM420 1219l43 235h235l-43 -235h-235z" />
    <glyph glyph-name="uni04F2" unicode="&#x4f2;" horiz-adv-x="1269" 
d="M174 0l43 246h205q34 0 52 12.5t38 40.5l45 70l-336 1065h291l221 -717h41l455 717h303l-797 -1258q-108 -176 -319 -176h-242zM573 1577l256 297h242l-287 -297h-211zM932 1577l256 297h242l-287 -297h-211z" />
    <glyph glyph-name="uni04F3" unicode="&#x4f3;" 
d="M41 -410l43 236h205q54 0 80 51l30 60l-225 1107h260l144 -706h40l369 706h273l-672 -1273q-50 -95 -113.5 -138t-171.5 -43h-262zM420 1188l256 297h242l-287 -297h-211zM778 1188l256 297h242l-287 -297h-211z" />
    <glyph glyph-name="uni04F4" unicode="&#x4f4;" horiz-adv-x="1402" 
d="M983 0l90 518q-49 -27 -94 -45q-110 -43 -231 -43q-217 0 -339 109t-122 290q0 56 20 166l78 439h266l-78 -437q-10 -58 -10 -86q0 -112 66.5 -168.5t210.5 -56.5q108 0 200 43q40 17 78 43l117 662h266l-252 -1434h-266zM1034 1608l43 235h236l-43 -235h-236zM655 1608
l43 235h236l-43 -235h-236z" />
    <glyph glyph-name="uni04F5" unicode="&#x4f5;" horiz-adv-x="1146" 
d="M758 0l61 354q-39 -26 -104 -46.5t-142 -20.5q-348 0 -348 317q0 56 11 113l59 327h256l-55 -311q-4 -32 -4 -57q0 -71 47 -112.5t137 -41.5q43 0 80.5 10t57 20t46.5 28l80 464h256l-182 -1044h-256zM829 1219l43 235h236l-43 -235h-236zM451 1219l43 235h235l-43 -235
h-235z" />
    <glyph glyph-name="uni04F6" unicode="&#x4f6;" horiz-adv-x="1136" 
d="M256 -287l51 287h-153l252 1434h942l-45 -256h-676l-162 -922h153l-96 -543h-266z" />
    <glyph glyph-name="uni04F7" unicode="&#x4f7;" horiz-adv-x="901" 
d="M231 -246l45 246h-143l182 1044h727l-43 -245h-471l-96 -553h143l-88 -492h-256z" />
    <glyph glyph-name="uni04F8" unicode="&#x4f8;" horiz-adv-x="1771" 
d="M1352 0l252 1434h266l-252 -1434h-266zM154 0l252 1434h266l-84 -471h334q156 0 267 -117.5t111 -292.5q0 -155 -70 -282.5t-187.5 -199t-254.5 -71.5h-634zM465 256h334q94 0 164.5 75t70.5 181q0 84 -50 139.5t-118 55.5h-323zM1219 1608l43 235h235l-43 -235h-235z
M840 1608l43 235h235l-43 -235h-235z" />
    <glyph glyph-name="uni04F9" unicode="&#x4f9;" horiz-adv-x="1505" 
d="M1116 0l182 1044h256l-182 -1044h-256zM424 205h217q73 0 120.5 48.5t47.5 125.5q0 61 -34.5 97t-90.5 36h-205zM133 0l182 1044h256l-57 -327h244q140 0 223.5 -83.5t83.5 -223.5q0 -181 -113 -295.5t-280 -114.5h-539zM1024 1219l43 235h236l-43 -235h-236zM645 1219
l43 235h236l-43 -235h-236z" />
    <glyph glyph-name="uni04FA" unicode="&#x4fa;" horiz-adv-x="1187" 
d="M168 -440l45 256h53q73 0 94 96l19 88h-154l105 594h-205l43 246h205l104 594h922l-43 -246h-656l-61 -348h389l-43 -246h-389l-59 -338h153l-57 -317q-36 -205 -120 -292t-241 -87h-104z" />
    <glyph glyph-name="uni04FB" unicode="&#x4fb;" horiz-adv-x="917" 
d="M109 -399l41 235h51q39 0 64 27t38 88l10 49h-143l66 379h-164l39 215h163l78 450h727l-41 -235h-471l-37 -215h338l-39 -215h-337l-35 -195h143l-51 -282q-29 -159 -104.5 -230t-215.5 -71h-120z" />
    <glyph glyph-name="uni04FC" unicode="&#x4fc;" horiz-adv-x="1310" 
d="M-20 0l628 748l-334 686h314l223 -471h41l391 471h326l-592 -707l276 -565q56 -122 56 -223q0 -170 -101 -269.5t-274 -99.5h-123l49 276h55q49 0 78 28t29 75q0 24 -8 52t-17.5 49.5t-33.5 72.5l-189 389h-41l-428 -512h-325z" />
    <glyph glyph-name="uni04FD" unicode="&#x4fd;" horiz-adv-x="1054" 
d="M-10 0l448 543l-243 501h282l158 -327h41l272 327h295l-436 -522l131 -274q84 -178 84 -320q0 -162 -100 -260t-267 -98h-123l46 246h79q65 0 92 23.5t27 78.5q0 89 -67 225l-99 205h-41l-284 -348h-295z" />
    <glyph glyph-name="uni04FE" unicode="&#x4fe;" horiz-adv-x="1310" 
d="M-20 0l524 625h-223l38 223h240l-285 586h314l223 -471h41l391 471h326l-492 -586h246l-39 -223h-258l307 -625h-311l-248 512h-41l-428 -512h-325z" />
    <glyph glyph-name="uni04FF" unicode="&#x4ff;" horiz-adv-x="1054" 
d="M-10 0l354 430h-158l35 205h172l-198 409h282l158 -327h41l272 327h295l-342 -409h160l-35 -205h-176l207 -430h-281l-166 348h-41l-284 -348h-295z" />
    <glyph glyph-name="uni0510" unicode="&#x510;" horiz-adv-x="1269" 
d="M440 758v10q-45 24 -71 53q-72 72 -72 183q0 89 39.5 170.5t108.5 143.5t172 99t223 37q128 0 230.5 -32.5t167.5 -89t99.5 -130t34.5 -158.5v-40h-266v10q0 82 -73 138t-204 56q-125 0 -200.5 -61t-75.5 -143q0 -65 59 -114.5t150 -49.5h143l-41 -226h-182
q-122 0 -192 -56.5t-70 -137.5q0 -76 81.5 -135.5t225.5 -59.5q134 0 202.5 58t82.5 147h266q-10 -91 -50.5 -171t-108.5 -143t-172 -99.5t-230 -36.5q-134 0 -243 33.5t-177.5 89.5t-105.5 127t-37 149q0 200 143 309q64 49 143 70z" />
    <glyph glyph-name="uni0511" unicode="&#x511;" horiz-adv-x="1044" 
d="M358 543v10q-28 12 -57 41q-55 55 -55 133q0 136 121 237t319 101q206 0 323 -95t117 -233v-20h-256q0 57 -53 100t-141 43q-74 0 -124 -41.5t-50 -91.5q0 -49 38 -81t105 -32h117l-31 -184h-158q-88 0 -131 -31t-43 -82q0 -52 55.5 -92.5t149.5 -40.5q84 0 136.5 41.5
t66.5 112.5h256q-10 -68 -45 -130.5t-91 -114t-140 -82.5t-183 -31q-225 0 -343 85.5t-118 210.5q0 58 18 105t42 74t57.5 47.5t54.5 28t43 12.5z" />
    <glyph glyph-name="uni0512" unicode="&#x512;" horiz-adv-x="1425" 
d="M10 -10l45 256h72q60 0 104.5 44t67.5 128l262 1016h963l-256 -1448q-38 -220 -139 -318t-287 -98h-117l49 276h70q135 0 160 142l208 1190h-450l-215 -842q-88 -346 -404 -346h-133z" />
    <glyph glyph-name="uni0513" unicode="&#x513;" horiz-adv-x="1169" 
d="M10 -10l41 235h60q112 0 153 152l176 667h779l-201 -1144q-28 -160 -127 -245t-238 -85h-112l45 246h61q54 0 83 30.5t40 94.5l152 868h-287l-131 -492q-43 -164 -133 -245.5t-236 -81.5h-125z" />
    <glyph glyph-name="Wgrave" unicode="&#x1e80;" horiz-adv-x="2007" 
d="M362 0l-106 1434h291l69 -1004h41l433 1004h307l80 -1004h41l421 1004h304l-611 -1434h-368l-74 983h-41l-418 -983h-369zM1126 1577l-194 297h260l143 -297h-209z" />
    <glyph glyph-name="wgrave" unicode="&#x1e81;" horiz-adv-x="1617" 
d="M268 0l-84 1044h260l54 -686h41l295 686h286l54 -686h40l295 686h273l-449 -1044h-338l-55 676h-41l-293 -676h-338zM860 1188l-194 297h260l143 -297h-209z" />
    <glyph glyph-name="Wacute" unicode="&#x1e82;" horiz-adv-x="2007" 
d="M362 0l-106 1434h291l69 -1004h41l433 1004h307l80 -1004h41l421 1004h304l-611 -1434h-368l-74 983h-41l-418 -983h-369zM1155 1577l246 297h272l-297 -297h-221z" />
    <glyph glyph-name="wacute" unicode="&#x1e83;" horiz-adv-x="1617" 
d="M268 0l-84 1044h260l54 -686h41l295 686h286l54 -686h40l295 686h273l-449 -1044h-338l-55 676h-41l-293 -676h-338zM891 1188l246 297h272l-297 -297h-221z" />
    <glyph glyph-name="Wdieresis" unicode="&#x1e84;" horiz-adv-x="2007" 
d="M362 0l-106 1434h291l69 -1004h41l433 1004h307l80 -1004h41l421 1004h304l-611 -1434h-368l-74 983h-41l-418 -983h-369zM1331 1608l43 235h236l-43 -235h-236zM952 1608l43 235h236l-43 -235h-236z" />
    <glyph glyph-name="wdieresis" unicode="&#x1e85;" horiz-adv-x="1617" 
d="M268 0l-84 1044h260l54 -686h41l295 686h286l54 -686h40l295 686h273l-449 -1044h-338l-55 676h-41l-293 -676h-338zM1065 1219l43 235h235l-43 -235h-235zM686 1219l43 235h236l-43 -235h-236z" />
    <glyph glyph-name="uni1E9E" unicode="&#x1e9e;" horiz-adv-x="1413" 
d="M143 0l189 1069q31 173 143.5 269t284.5 96h772l-43 -242l-391 -342l-2 -10q52 -4 106 -29t102 -69t78.5 -115t30.5 -156q0 -202 -138 -336.5t-349 -134.5h-271l43 246h215q103 0 168.5 57.5t65.5 136.5q0 78 -54.5 131.5t-134.5 53.5h-204l41 225l387 338h-389
q-80 0 -135 -44.5t-68 -123.5l-180 -1020h-267z" />
    <glyph glyph-name="Ygrave" unicode="&#x1ef2;" horiz-adv-x="1269" 
d="M485 0l86 492l-356 942h291l229 -615h41l447 615h303l-688 -942l-86 -492h-267zM768 1577l-195 297h261l143 -297h-209z" />
    <glyph glyph-name="ygrave" unicode="&#x1ef3;" 
d="M41 -410l43 236h205q54 0 80 51l30 60l-225 1107h260l144 -706h40l369 706h273l-672 -1273q-50 -95 -113.5 -138t-171.5 -43h-262zM614 1188l-194 297h260l143 -297h-209z" />
    <glyph glyph-name="endash" unicode="&#x2013;" horiz-adv-x="1167" 
d="M154 471l39 225h1024l-39 -225h-1024z" />
    <glyph glyph-name="emdash" unicode="&#x2014;" horiz-adv-x="1556" 
d="M154 471l39 225h1413l-39 -225h-1413z" />
    <glyph glyph-name="quoteleft" unicode="&#x2018;" horiz-adv-x="501" 
d="M246 973l194 461h211l-123 -461h-282z" />
    <glyph glyph-name="quoteright" unicode="&#x2019;" horiz-adv-x="512" 
d="M276 973l123 461h283l-195 -461h-211z" />
    <glyph glyph-name="quotesinglbase" unicode="&#x201a;" horiz-adv-x="522" 
d="M61 -184l123 471h297l-209 -471h-211z" />
    <glyph glyph-name="quotedblleft" unicode="&#x201c;" horiz-adv-x="890" 
d="M635 973l194 461h211l-122 -461h-283zM246 973l194 461h211l-123 -461h-282z" />
    <glyph glyph-name="quotedblright" unicode="&#x201d;" horiz-adv-x="901" 
d="M666 973l122 461h283l-194 -461h-211zM276 973l123 461h283l-195 -461h-211z" />
    <glyph glyph-name="quotedblbase" unicode="&#x201e;" horiz-adv-x="911" 
d="M451 -184l122 471h297l-208 -471h-211zM61 -184l123 471h297l-209 -471h-211z" />
    <glyph glyph-name="dagger" unicode="&#x2020;" horiz-adv-x="993" 
d="M365 0l157 901h-276l39 225h276l55 308h256l-55 -308h277l-39 -225h-277l-157 -901h-256z" />
    <glyph glyph-name="daggerdbl" unicode="&#x2021;" horiz-adv-x="993" 
d="M365 0l59 348h-277l41 225h277l57 328h-276l39 225h276l55 308h256l-55 -308h277l-39 -225h-277l-57 -328h276l-41 -225h-276l-59 -348h-256z" />
    <glyph glyph-name="bullet" unicode="&#x2022;" horiz-adv-x="991" 
d="M563 307q-98 0 -161.5 65t-63.5 160q0 107 81 187t195 80q98 0 162 -66.5t64 -159.5q0 -107 -81.5 -186.5t-195.5 -79.5z" />
    <glyph glyph-name="ellipsis" unicode="&#x2026;" horiz-adv-x="1576" 
d="M1167 0l50 287h286l-49 -287h-287zM645 0l49 287h287l-49 -287h-287zM123 0l49 287h287l-49 -287h-287z" />
    <glyph glyph-name="perthousand" unicode="&#x2030;" horiz-adv-x="2426" 
d="M2038 164q70 0 117 48.5t47 125.5q0 61 -34 97t-89 36q-70 0 -117 -48.5t-47 -125.5q0 -61 34 -97t89 -36zM1720 276q0 160 107 269.5t262 109.5q138 0 222.5 -82.5t84.5 -214.5q0 -160 -106.5 -269t-261.5 -109q-139 0 -223.5 82.5t-84.5 213.5zM256 0l1143 1434h256
l-1143 -1434h-256zM584 963q70 0 117 48.5t47 125.5q0 61 -34 97t-89 36q-70 0 -117 -48.5t-47 -125.5q0 -61 34 -97t89 -36zM266 1075q0 160 107 269.5t262 109.5q138 0 222.5 -82.5t84.5 -214.5q0 -160 -107 -269.5t-262 -109.5q-138 0 -222.5 82.5t-84.5 214.5zM1270 164
q70 0 117 48.5t47 125.5q0 61 -34 97t-89 36q-70 0 -117 -48.5t-47 -125.5q0 -61 34 -97t89 -36zM952 276q0 160 107 269.5t262 109.5q138 0 222.5 -82.5t84.5 -214.5q0 -160 -106.5 -269t-261.5 -109q-139 0 -223.5 82.5t-84.5 213.5z" />
    <glyph glyph-name="guilsinglleft" unicode="&#x2039;" horiz-adv-x="727" 
d="M387 102l-223 420l373 420h274l-381 -430l217 -410h-260z" />
    <glyph glyph-name="guilsinglright" unicode="&#x203a;" horiz-adv-x="727" 
d="M76 102l387 441l-209 399h252l221 -420l-371 -420h-280z" />
    <glyph glyph-name="uni203D" unicode="&#x203d;" 
d="M442 420l131 743q-54 -51 -71 -139h-277q30 192 162 311t340 119q209 0 335 -110t126 -269q0 -84 -27 -154t-73.5 -117t-97 -77.5t-109.5 -50.5q-79 -31 -119.5 -73.5t-50.5 -108.5l-13 -74h-256zM666 817l51 23q87 40 117 62q77 57 77 142q0 70 -46 113.5t-132 50.5z
M358 0l50 287h276l-49 -287h-277z" />
    <glyph glyph-name="fraction" unicode="&#x2044;" horiz-adv-x="282" 
d="M-399 0l1142 1434h191l-1143 -1434h-190z" />
    <glyph glyph-name="uni2070" unicode="&#x2070;" horiz-adv-x="716" 
d="M604 1505q-62 0 -118 -83t-56 -224q0 -88 26 -126t76 -38q62 0 118.5 83t56.5 224q0 88 -26.5 126t-76.5 38zM522 891q-112 0 -184 80.5t-72 216.5q0 213 101.5 337t246.5 124q112 0 184 -80.5t72 -216.5q0 -213 -101.5 -337t-246.5 -124z" />
    <glyph glyph-name="uni2074" unicode="&#x2074;" horiz-adv-x="655" 
d="M416 1188h153l41 235h-20l-172 -225zM195 1044l26 148l348 446h244l-80 -450h82l-27 -144h-81l-25 -143h-164l25 143h-348z" />
    <glyph glyph-name="uni2075" unicode="&#x2075;" horiz-adv-x="696" 
d="M266 1116h162q25 -72 107 -72q53 0 87.5 32.5t34.5 80.5q0 43 -27.5 69.5t-74.5 26.5q-43 0 -73.5 -17t-45.5 -38h-151l118 440h451l-29 -153h-307l-31 -103h11q34 21 98 21q93 0 154 -63t61 -162q0 -130 -78.5 -208.5t-208.5 -78.5q-121 0 -189.5 61.5t-68.5 163.5z" />
    <glyph glyph-name="uni2076" unicode="&#x2076;" horiz-adv-x="686" 
d="M340 1339l240 299h178l-199 -245h23q99 0 162 -59t63 -146q0 -130 -83.5 -213.5t-213.5 -83.5q-121 0 -188.5 61.5t-67.5 163.5q0 65 20.5 114.5t65.5 108.5zM520 1034q54 0 88.5 34.5t34.5 88.5q0 47 -27.5 75t-74.5 28q-54 0 -88.5 -34.5t-34.5 -88.5q0 -47 27.5 -75
t74.5 -28z" />
    <glyph glyph-name="uni2077" unicode="&#x2077;" horiz-adv-x="604" 
d="M307 901l348 584h-321l28 153h492l-27 -143l-354 -594h-166z" />
    <glyph glyph-name="uni2078" unicode="&#x2078;" horiz-adv-x="716" 
d="M395 1290v10q-17 14 -26 31q-25 41 -25 92q0 87 75.5 156.5t180.5 69.5q113 0 179.5 -56.5t66.5 -138.5q0 -75 -58 -133q-27 -27 -55 -41v-10q22 -15 35 -33q37 -47 37 -111q0 -103 -76 -169t-211 -66q-111 0 -183.5 62t-72.5 143q0 89 66 151q29 29 67 43zM600 1516
q-46 0 -74 -27t-28 -66q0 -82 92 -82q46 0 74 27t28 66q0 82 -92 82zM426 1116q0 -39 28 -65.5t74 -26.5q54 0 83.5 27t29.5 75q0 39 -28 66t-74 27q-53 0 -83 -27.5t-30 -75.5z" />
    <glyph glyph-name="uni2079" unicode="&#x2079;" horiz-adv-x="686" 
d="M346 901l199 246h-23q-99 0 -162 59t-63 146q0 130 83.5 213.5t213.5 83.5q121 0 188.5 -62t67.5 -164q0 -65 -20.5 -114.5t-65.5 -108.5l-240 -299h-178zM584 1505q-54 0 -88.5 -34.5t-34.5 -88.5q0 -47 27.5 -74.5t74.5 -27.5q54 0 88.5 34.5t34.5 88.5
q0 47 -27.5 74.5t-74.5 27.5z" />
    <glyph glyph-name="uni2080" unicode="&#x2080;" horiz-adv-x="716" 
d="M430 399q-62 0 -118 -83t-56 -224q0 -88 26 -126t76 -38q62 0 118 83t56 225q0 88 -26 125.5t-76 37.5zM348 -215q-112 0 -184 80.5t-72 216.5q0 213 101.5 337t246.5 124q112 0 184 -80.5t72 -216.5q0 -213 -101.5 -337t-246.5 -124z" />
    <glyph glyph-name="uni2081" unicode="&#x2081;" horiz-adv-x="563" 
d="M231 -205l86 492h-174l29 153h121q51 0 61 47l8 45h164l-131 -737h-164z" />
    <glyph glyph-name="uni2082" unicode="&#x2082;" horiz-adv-x="696" 
d="M82 -205l24 133l332 275q3 2 14.5 12t13.5 12t11.5 10t11 10.5t8 10t8 12t5.5 12t5 14t2 15t1 17.5q0 31 -22 51t-60 20q-47 0 -75.5 -27t-36.5 -75h-164q18 106 91 176t185 70q114 0 180 -58t66 -147q0 -78 -37.5 -130.5t-118.5 -117.5l-176 -141l-2 -10h281l-25 -144
h-522z" />
    <glyph glyph-name="uni2083" unicode="&#x2083;" horiz-adv-x="686" 
d="M82 20h164v-10q0 -34 27.5 -58t74.5 -24q49 0 76 27.5t27 75.5q0 32 -24.5 51.5t-72.5 19.5h-59l22 134h78q46 0 76.5 27.5t30.5 64.5q0 32 -23 51.5t-69 19.5q-31 0 -58 -22.5t-37 -59.5h-163q17 99 93 162.5t175 63.5q120 0 183 -53t63 -142q0 -43 -13 -76.5t-34 -52.5
t-39 -29t-37 -16v-10q26 -9 48.5 -48t22.5 -96q0 -95 -78 -165t-198 -70q-119 0 -187.5 58t-68.5 147v30z" />
    <glyph glyph-name="uni2084" unicode="&#x2084;" horiz-adv-x="655" 
d="M242 82h153l41 235h-20l-172 -225zM20 -61l27 147l348 446h244l-80 -450h82l-27 -143h-82l-24 -144h-164l25 144h-349z" />
    <glyph glyph-name="uni2085" unicode="&#x2085;" horiz-adv-x="696" 
d="M92 10h162q24 -71 106 -71q54 0 88.5 32t34.5 80q0 43 -27.5 69.5t-74.5 26.5q-43 0 -73.5 -17t-45.5 -38h-151l118 440h451l-29 -153h-307l-31 -103h11q34 21 98 21q93 0 154 -63t61 -162q0 -130 -78.5 -208.5t-208.5 -78.5q-121 0 -189.5 61.5t-68.5 163.5z" />
    <glyph glyph-name="uni2086" unicode="&#x2086;" horiz-adv-x="686" 
d="M166 233l240 299h178l-199 -245h23q99 0 162 -59t63 -146q0 -130 -83.5 -213.5t-213.5 -83.5q-121 0 -188.5 61.5t-67.5 163.5q0 65 20.5 114.5t65.5 108.5zM346 -72q54 0 88.5 34.5t34.5 88.5q0 47 -27.5 75t-74.5 28q-54 0 -88.5 -34.5t-34.5 -88.5q0 -47 27.5 -75
t74.5 -28z" />
    <glyph glyph-name="uni2087" unicode="&#x2087;" horiz-adv-x="604" 
d="M133 -205l348 584h-321l28 153h492l-27 -143l-354 -594h-166z" />
    <glyph glyph-name="uni2088" unicode="&#x2088;" horiz-adv-x="716" 
d="M221 184v11q-18 15 -26 30q-25 41 -25 92q0 87 75.5 156.5t180.5 69.5q113 0 179.5 -56.5t66.5 -138.5q0 -75 -58 -133q-27 -27 -55 -41v-10q22 -15 35 -33q37 -47 37 -111q0 -103 -76 -169t-211 -66q-111 0 -183.5 62t-72.5 143q0 89 66 151q29 29 67 43zM426 410
q-46 0 -74 -27t-28 -66q0 -81 92 -81q46 0 74 26.5t28 65.5q0 82 -92 82zM252 10q0 -39 28 -65.5t74 -26.5q54 0 83.5 27t29.5 75q0 39 -28 66t-74 27q-53 0 -83 -27.5t-30 -75.5z" />
    <glyph glyph-name="uni2089" unicode="&#x2089;" horiz-adv-x="686" 
d="M172 -205l199 246h-23q-99 0 -162 59t-63 146q0 130 83.5 213.5t213.5 83.5q121 0 188.5 -62t67.5 -164q0 -65 -20.5 -114.5t-65.5 -108.5l-240 -299h-178zM410 399q-54 0 -88.5 -34.5t-34.5 -88.5q0 -47 27.5 -74.5t74.5 -27.5q54 0 88.5 34.5t34.5 88.5
q0 47 -27.5 74.5t-74.5 27.5z" />
    <glyph glyph-name="uni20A9" unicode="&#x20a9;" horiz-adv-x="2007" 
d="M430 0l-22 410h-275l35 204h227l-10 205h-180l37 205h133l-21 410h291l2 -410h307l162 410h287l16 -410h310l145 410h303l-166 -410h135l-37 -205h-182l-84 -205h230l-35 -204h-277l-164 -410h-358l-8 410h-293l-150 -410h-358zM1434 614h147l74 205h-228zM647 614h146
l79 205h-225v-205zM1012 614h215l-2 205h-135zM1446 348h41l31 82h-74zM647 348h41l33 82h-72zM1157 1004h66l-2 61h-41z" />
    <glyph glyph-name="Euro" unicode="&#x20ac;" horiz-adv-x="1454" 
d="M133 471l31 174h164l24 143h-164l31 175h195q11 41 46 98.5t100 127t146 128t195.5 98t235.5 39.5q305 0 481 -133l-47 -246q-71 51 -116 74q-142 70 -318 70q-83 0 -158.5 -26t-129.5 -68.5t-89.5 -82t-59.5 -79.5h564l-31 -175h-604l-25 -143h604l-30 -174h-564
q14 -45 40.5 -85t74 -81t129 -65.5t186.5 -24.5q189 0 349 72l-47 -246q-33 -21 -123.5 -41t-208.5 -20q-104 0 -194 18.5t-156 49.5t-120.5 73.5t-90 86.5t-62.5 93.5t-41 90t-22 79.5h-195z" />
    <glyph glyph-name="uni20B4" unicode="&#x20b4;" horiz-adv-x="1331" 
d="M172 471l33 184h1167l-33 -184h-747q-51 -51 -51 -123q0 -65 54 -109t150 -44q92 0 151 46.5t85 116.5h266q-19 -76 -58.5 -142t-100 -120t-149 -85t-194.5 -31q-111 0 -202 28.5t-148.5 76t-89 107.5t-31.5 125q0 77 35 154h-137zM227 778l31 185h764q51 51 51 122
q0 65 -54.5 109.5t-150.5 44.5q-92 0 -150 -47t-85 -117h-266q19 75 59.5 141.5t101.5 120.5t149 85.5t191 31.5q111 0 202 -28.5t148.5 -76t89 -108t31.5 -125.5q0 -78 -34 -153h120l-30 -185h-1168z" />
    <glyph glyph-name="uni20B8" unicode="&#x20b8;" horiz-adv-x="1249" 
d="M254 1178l45 256h1126l-45 -256h-1126zM477 0l137 788h-430l45 256h1127l-45 -256h-430l-138 -788h-266z" />
    <glyph glyph-name="uni20B9" unicode="&#x20b9;" horiz-adv-x="1198" 
d="M164 492l39 225h479q58 0 113 33.5t88 99.5h-656l39 225h633q-17 61 -58 97t-91 36h-459l39 226h1054l-38 -226h-207q4 -21 12 -39q14 -57 20 -94h150l-39 -225h-133q-48 -166 -179 -262t-288 -96h-16l385 -492h-338l-385 492h-164z" />
    <glyph glyph-name="uni20BA" unicode="&#x20ba;" horiz-adv-x="1269" 
d="M238 0l92 532l-197 -71l37 205l197 71l22 133l-196 -71l36 205l197 71l63 359h267l-47 -267l370 133l-35 -204l-372 -133l-23 -134l371 134l-35 -205l-373 -133l-63 -369h102q190 0 282.5 78t121.5 239h266q-26 -118 -61 -205.5t-90 -159.5t-130.5 -116t-181 -68
t-242.5 -24h-378z" />
    <glyph glyph-name="uni20BD" unicode="&#x20bd;" horiz-adv-x="1361" 
d="M633 809h362q87 0 145 64.5t58 170.5q0 69 -41.5 111.5t-109.5 42.5h-345zM225 0l41 236h-174l37 215h174l23 122h-174l41 236h174l110 625h625q156 0 259 -105t103 -264q0 -214 -136 -353t-341 -139h-395l-23 -122h441l-37 -215h-441l-40 -236h-267z" />
    <glyph glyph-name="uni20BF" unicode="&#x20bf;" horiz-adv-x="1351" 
d="M338 -225l39 225h-223l252 1434h223l41 225h204l-40 -225h122l41 225h205l-41 -232q120 -21 196.5 -115t76.5 -227q0 -205 -146 -333q-17 -15 -61 -45l-4 -11q32 -22 53 -57q55 -79 55 -188q0 -188 -121 -315.5t-301 -135.5l-39 -225h-204l39 225h-123l-39 -225h-205z
M471 236h397q79 0 138 60t59 144q0 76 -39 120t-100 44h-389zM578 840h387q85 0 138.5 56t53.5 148q0 68 -40 111t-101 43h-375z" />
    <glyph glyph-name="uni2113" unicode="&#x2113;" horiz-adv-x="849" 
d="M160 442v162q77 0 135 14q42 14 49 17v522q0 145 70.5 221t195.5 76q126 0 201.5 -85t75.5 -243q0 -201 -100.5 -357t-268.5 -247v-246q0 -133 133 -133q43 0 84 15l39 16v-164l-43 -16q-47 -14 -100 -14q-136 0 -211.5 74t-75.5 212v205q-15 -5 -53 -14
q-62 -15 -131 -15zM518 1126v-419q89 63 142 173t53 246q0 164 -103 164q-92 0 -92 -164z" />
    <glyph glyph-name="uni2116" unicode="&#x2116;" horiz-adv-x="2252" 
d="M1987 993q137 0 222 -81t85 -205q0 -154 -107.5 -261.5t-261.5 -107.5q-137 0 -222 81.5t-85 205.5q0 154 107.5 261t261.5 107zM1516 0l34 205h635l-35 -205h-634zM154 0l252 1434h358l336 -994h41l176 994h266l-252 -1434h-358l-338 993h-41l-174 -993h-266zM1812 645
q0 -55 36.5 -89t97.5 -34q70 0 111.5 43.5t41.5 120.5q0 55 -36 89t-97 34q-70 0 -112 -43.5t-42 -120.5z" />
    <glyph glyph-name="uni2117" unicode="&#x2117;" horiz-adv-x="1720" 
d="M983 154q246 0 404.5 158.5t158.5 404.5t-158.5 404.5t-404.5 158.5t-404.5 -158.5t-158.5 -404.5t158.5 -404.5t404.5 -158.5zM236 717q0 155 56.5 292t154.5 234.5t237.5 154t298.5 56.5t298 -56.5t237.5 -154t155.5 -234.5t57 -292t-57 -292t-155.5 -234.5
t-237.5 -154t-298 -56.5t-298.5 56.5t-237.5 154t-154.5 234.5t-56.5 292zM717 348v737h338q123 0 194.5 -69.5t71.5 -186.5t-71.5 -186.5t-194.5 -69.5h-164v-225h-174zM891 727h153q41 0 72 28.5t31 73.5t-31.5 74t-71.5 29h-153v-205z" />
    <glyph glyph-name="trademark" unicode="&#x2122;" horiz-adv-x="1576" 
d="M410 799v461h-195v174h563v-174h-194v-461h-174zM860 799v635h266l123 -390h21l123 390h266v-635h-174v389h-21l-123 -389h-163l-123 389h-21v-389h-174z" />
    <glyph glyph-name="uni2126" unicode="&#x2126;" horiz-adv-x="1679" 
d="M307 0v174h256q-91 54 -160 135q-157 181 -157 428q0 151 55 284.5t149.5 228t228 149.5t284.5 55q202 0 366 -93t257 -257.5t93 -366.5q0 -245 -159 -428q-72 -84 -158 -135h256v-174h-533v172q114 47 205 125q205 173 205 440q0 150 -70.5 275t-193 196.5t-268.5 71.5
q-223 0 -378 -157.5t-155 -385.5q0 -267 205 -440q91 -78 205 -125v-172h-533z" />
    <glyph glyph-name="estimated" unicode="&#x212e;" horiz-adv-x="1720" 
d="M563 778h860v441q-180 163 -430 163t-430 -163v-441zM563 707v-488q49 -47 117 -84q148 -84 334 -84q243 0 428 154q85 69 145 153l62 -51q-75 -98 -164 -164q-217 -163 -471 -163q-158 0 -299 58t-241.5 156.5t-159 235t-58.5 287.5t58 287.5t156.5 235t235 156.5
t287.5 58q202 0 371.5 -98t268 -267.5t98.5 -371.5v-10h-1168z" />
    <glyph glyph-name="uni2150" unicode="&#x2150;" horiz-adv-x="1423" 
d="M133 0l1143 1434h190l-1142 -1434h-191zM381 696l86 492h-174l29 153h120q51 0 62 48l8 45h164l-131 -738h-164zM918 0l348 584h-322l29 153h491l-26 -143l-355 -594h-165z" />
    <glyph glyph-name="uni2151" unicode="&#x2151;" horiz-adv-x="1443" 
d="M133 0l1143 1434h190l-1142 -1434h-191zM381 696l86 492h-174l29 153h120q51 0 62 48l8 45h164l-131 -738h-164zM940 0l199 246h-23q-99 0 -162 59t-63 146q0 131 83.5 214t213.5 83q121 0 188.5 -62t67.5 -164q0 -65 -20.5 -114.5t-65.5 -108.5l-240 -299h-178z
M1178 604q-54 0 -88.5 -34.5t-34.5 -88.5q0 -47 27.5 -74.5t74.5 -27.5q54 0 88.5 34.5t34.5 88.5q0 47 -27.5 74.5t-74.5 27.5z" />
    <glyph glyph-name="uni2152" unicode="&#x2152;" horiz-adv-x="1935" 
d="M133 0l1143 1434h190l-1142 -1434h-191zM381 696l86 492h-174l29 153h120q51 0 62 48l8 45h164l-131 -738h-164zM1001 0l86 492h-174l29 153h121q51 0 61 47l9 45h163l-131 -737h-164zM1638 604q-62 0 -118 -83t-56 -224q0 -88 26.5 -126t76.5 -38q62 0 118 83t56 224
q0 88 -26.5 126t-76.5 38zM1556 -10q-112 0 -184 80.5t-72 216.5q0 212 102 336.5t247 124.5q112 0 184 -80.5t72 -216.5q0 -212 -102 -336.5t-247 -124.5z" />
    <glyph glyph-name="onethird" unicode="&#x2153;" horiz-adv-x="1443" 
d="M133 0l1143 1434h190l-1142 -1434h-191zM381 696l86 492h-174l29 153h120q51 0 62 48l8 45h164l-131 -738h-164zM840 225h164v-10q0 -34 27.5 -58t74.5 -24q49 0 75.5 27.5t26.5 75.5q0 32 -24 51.5t-72 19.5h-59l22 133h78q46 0 76.5 27.5t30.5 64.5q0 32 -24 52t-69 20
q-31 0 -57.5 -22t-36.5 -60h-164q17 99 93.5 162.5t175.5 63.5q120 0 182.5 -53t62.5 -142q0 -43 -13 -76.5t-34 -52.5t-39 -29t-37 -16v-10q27 -9 49.5 -48t22.5 -96q0 -95 -78 -165t-198 -70q-119 0 -187.5 58t-68.5 147v30z" />
    <glyph glyph-name="twothirds" unicode="&#x2154;" horiz-adv-x="1587" 
d="M276 0l1143 1434h191l-1143 -1434h-191zM225 696l25 133l332 275q3 2 14.5 12t13.5 12t11.5 10t11 10.5t8 10t8 12t5.5 12t5 14t2 15t1 17.5q0 31 -22 51t-60 20q-47 0 -76 -27t-37 -75h-164q18 105 91.5 175.5t185.5 70.5q114 0 179.5 -58t65.5 -147q0 -78 -37 -130.5
t-118 -117.5l-176 -141l-2 -10h280l-24 -144h-523zM983 225h164v-10q0 -34 27.5 -58t74.5 -24q49 0 76 27.5t27 75.5q0 32 -24.5 51.5t-72.5 19.5h-59l23 133h77q46 0 76.5 27.5t30.5 64.5q0 32 -23.5 52t-68.5 20q-31 0 -57.5 -22t-36.5 -60h-164q17 99 93 162.5t175 63.5
q120 0 183 -53t63 -142q0 -43 -13 -76.5t-34 -52.5t-39 -29t-37 -16v-10q27 -9 49.5 -48t22.5 -96q0 -95 -78.5 -165t-198.5 -70q-119 0 -187.5 58t-68.5 147v30z" />
    <glyph glyph-name="uni2155" unicode="&#x2155;" horiz-adv-x="1474" 
d="M133 0l1143 1434h190l-1142 -1434h-191zM381 696l86 492h-174l29 153h120q51 0 62 48l8 45h164l-131 -738h-164zM866 215h162q25 -72 107 -72q53 0 87.5 32.5t34.5 80.5q0 43 -27.5 69.5t-74.5 26.5q-43 0 -73.5 -17t-45.5 -38h-151l119 440h450l-29 -153h-307l-31 -103
h11q34 21 98 21q93 0 154 -63.5t61 -162.5q0 -130 -78 -208t-209 -78q-121 0 -189.5 61.5t-68.5 163.5z" />
    <glyph glyph-name="uni2156" unicode="&#x2156;" horiz-adv-x="1617" 
d="M276 0l1143 1434h191l-1143 -1434h-191zM225 696l25 133l332 275q3 2 14.5 12t13.5 12t11.5 10t11 10.5t8 10t8 12t5.5 12t5 14t2 15t1 17.5q0 31 -22 51t-60 20q-47 0 -76 -27t-37 -75h-164q18 105 91.5 175.5t185.5 70.5q114 0 179.5 -58t65.5 -147q0 -78 -37 -130.5
t-118 -117.5l-176 -141l-2 -10h280l-24 -144h-523zM1010 215h161q25 -72 107 -72q53 0 88 32.5t35 80.5q0 43 -28 69.5t-75 26.5q-43 0 -73 -17t-45 -38h-152l119 440h450l-28 -153h-307l-31 -103h10q34 21 98 21q93 0 154 -63.5t61 -162.5q0 -130 -78 -208t-208 -78
q-121 0 -189.5 61.5t-68.5 163.5z" />
    <glyph glyph-name="uni2157" unicode="&#x2157;" horiz-adv-x="1597" 
d="M256 0l1143 1434h190l-1143 -1434h-190zM236 922h163v-11q0 -34 28 -58t75 -24q49 0 75.5 27.5t26.5 75.5q0 32 -24 52t-72 20h-59l22 133h78q46 0 76 27.5t30 64.5q0 32 -23 51.5t-69 19.5q-32 0 -58 -22t-36 -59h-164q17 99 93 162t175 63q120 0 183 -53t63 -142
q0 -43 -13 -76.5t-34 -52.5t-39 -29t-37 -16v-10q27 -9 49.5 -47.5t22.5 -95.5q0 -95 -78 -165.5t-198 -70.5q-119 0 -187.5 58t-68.5 147v31zM989 215h162q25 -72 106 -72q53 0 88 32.5t35 80.5q0 43 -27.5 69.5t-74.5 26.5q-43 0 -73.5 -17t-45.5 -38h-151l118 440h451
l-29 -153h-307l-31 -103h11q34 21 98 21q93 0 154 -63.5t61 -162.5q0 -130 -78 -208t-209 -78q-121 0 -189.5 61.5t-68.5 163.5z" />
    <glyph glyph-name="uni2158" unicode="&#x2158;" horiz-adv-x="1587" 
d="M246 0l1143 1434h190l-1143 -1434h-190zM399 983h154l41 236h-21l-172 -226zM178 840l27 147l348 447h244l-80 -451h82l-27 -143h-82l-24 -144h-164l24 144h-348zM979 215h162q25 -72 106 -72q53 0 88 32.5t35 80.5q0 43 -27.5 69.5t-74.5 26.5q-43 0 -73.5 -17
t-45.5 -38h-152l119 440h451l-29 -153h-307l-31 -103h10q34 21 99 21q93 0 154 -63.5t61 -162.5q0 -130 -78 -208t-209 -78q-121 0 -189.5 61.5t-68.5 163.5z" />
    <glyph glyph-name="uni2159" unicode="&#x2159;" horiz-adv-x="1402" 
d="M133 0l1143 1434h190l-1142 -1434h-191zM381 696l86 492h-174l29 153h120q51 0 62 48l8 45h164l-131 -738h-164zM895 438l240 299h178l-199 -245h23q99 0 162 -59t63 -146q0 -131 -83 -214t-214 -83q-121 0 -188.5 61.5t-67.5 163.5q0 65 20.5 114.5t65.5 108.5z
M1075 133q54 0 88.5 34.5t34.5 88.5q0 47 -27.5 74.5t-74.5 27.5q-54 0 -88.5 -34t-34.5 -88q0 -47 27.5 -75t74.5 -28z" />
    <glyph glyph-name="uni215A" unicode="&#x215a;" horiz-adv-x="1546" 
d="M276 0l1143 1434h191l-1143 -1434h-191zM246 911h162q24 -71 106 -71q54 0 88.5 32t34.5 80q0 43 -27.5 70t-74.5 27q-43 0 -73.5 -17t-45.5 -39h-152l119 441h451l-29 -154h-307l-31 -102h10q32 20 98 20q93 0 154.5 -63t61.5 -162q0 -131 -78.5 -209t-208.5 -78
q-121 0 -189.5 61.5t-68.5 163.5zM1038 438l240 299h178l-199 -245h23q99 0 162 -59t63 -146q0 -131 -83.5 -214t-213.5 -83q-121 0 -188.5 61.5t-67.5 163.5q0 65 20.5 114.5t65.5 108.5zM1219 133q54 0 88 34.5t34 88.5q0 47 -27.5 74.5t-74.5 27.5q-54 0 -88.5 -34
t-34.5 -88q0 -47 28 -75t75 -28z" />
    <glyph glyph-name="oneeighth" unicode="&#x215b;" horiz-adv-x="1464" 
d="M133 0l1143 1434h190l-1142 -1434h-191zM381 696l86 492h-174l29 153h120q51 0 62 48l8 45h164l-131 -738h-164zM983 389v10q-19 15 -27 31q-24 39 -24 92q0 87 75.5 156.5t180.5 69.5q113 0 179.5 -56.5t66.5 -138.5q0 -75 -58 -133q-27 -27 -55 -41v-10q22 -15 35 -33
q37 -47 37 -111q0 -103 -76 -169t-211 -66q-111 0 -183.5 62t-72.5 143q0 90 65 151q28 28 68 43zM1188 614q-46 0 -74.5 -26.5t-28.5 -65.5q0 -82 93 -82q46 0 74 26.5t28 65.5q0 82 -92 82zM1014 215q0 -39 28 -65.5t74 -26.5q54 0 83.5 27t29.5 75q0 39 -28.5 65.5
t-74.5 26.5q-53 0 -82.5 -27t-29.5 -75z" />
    <glyph glyph-name="threeeighths" unicode="&#x215c;" horiz-adv-x="1587" 
d="M256 0l1143 1434h190l-1143 -1434h-190zM236 922h163v-11q0 -34 28 -58t75 -24q49 0 75.5 27.5t26.5 75.5q0 32 -24 52t-72 20h-59l22 133h78q46 0 76 27.5t30 64.5q0 32 -23 51.5t-69 19.5q-32 0 -58 -22t-36 -59h-164q17 99 93 162t175 63q120 0 183 -53t63 -142
q0 -43 -13 -76.5t-34 -52.5t-39 -29t-37 -16v-10q27 -9 49.5 -47.5t22.5 -95.5q0 -95 -78 -165.5t-198 -70.5q-119 0 -187.5 58t-68.5 147v31zM1106 389v10q-19 15 -27 31q-24 39 -24 92q0 87 75.5 156.5t180.5 69.5q113 0 179 -56.5t66 -138.5q0 -76 -57 -133
q-27 -27 -55 -41v-10q22 -15 35 -33q37 -47 37 -111q0 -103 -76 -169t-211 -66q-111 0 -183.5 62t-72.5 143q0 90 65 151q28 28 68 43zM1311 614q-46 0 -74.5 -26.5t-28.5 -65.5q0 -82 92 -82q46 0 74.5 26.5t28.5 65.5q0 82 -92 82zM1137 215q0 -39 28 -65.5t74 -26.5
q54 0 83.5 27t29.5 75q0 39 -28.5 65.5t-74.5 26.5q-53 0 -82.5 -27t-29.5 -75z" />
    <glyph glyph-name="fiveeighths" unicode="&#x215d;" horiz-adv-x="1607" 
d="M276 0l1143 1434h191l-1143 -1434h-191zM246 911h162q24 -71 106 -71q54 0 88.5 32t34.5 80q0 43 -27.5 70t-74.5 27q-43 0 -73.5 -17t-45.5 -39h-152l119 441h451l-29 -154h-307l-31 -102h10q32 20 98 20q93 0 154.5 -63t61.5 -162q0 -131 -78.5 -209t-208.5 -78
q-121 0 -189.5 61.5t-68.5 163.5zM1126 389v10q-18 14 -26 31q-25 41 -25 92q0 87 75.5 156.5t180.5 69.5q113 0 179.5 -56.5t66.5 -138.5q0 -76 -57 -133q-26 -26 -56 -41v-10q22 -15 35 -33q37 -47 37 -111q0 -103 -76 -169t-211 -66q-111 0 -183.5 62t-72.5 143
q0 89 66 151q29 29 67 43zM1331 614q-46 0 -74 -26.5t-28 -65.5q0 -82 92 -82q46 0 74 26.5t28 65.5q0 82 -92 82zM1157 215q0 -39 28.5 -65.5t74.5 -26.5q53 0 82.5 27t29.5 75q0 39 -28 65.5t-74 26.5q-54 0 -83.5 -27t-29.5 -75z" />
    <glyph glyph-name="seveneighths" unicode="&#x215e;" horiz-adv-x="1474" 
d="M143 0l1143 1434h191l-1143 -1434h-191zM303 696l348 584h-321l28 154h492l-27 -144l-354 -594h-166zM993 389v10q-17 14 -26 31q-25 41 -25 92q0 87 75.5 156.5t180.5 69.5q113 0 179.5 -56.5t66.5 -138.5q0 -75 -58 -133q-27 -27 -55 -41v-10q22 -15 35 -33
q37 -47 37 -111q0 -103 -76 -169t-211 -66q-111 0 -183.5 62t-72.5 143q0 89 66 151q29 29 67 43zM1198 614q-46 0 -74 -26.5t-28 -65.5q0 -82 92 -82q46 0 74 26.5t28 65.5q0 82 -92 82zM1024 215q0 -39 28 -65.5t74 -26.5q54 0 83.5 27t29.5 75q0 39 -28 65.5t-74 26.5
q-54 0 -83.5 -27t-29.5 -75z" />
    <glyph glyph-name="uni215F" unicode="&#x215f;" horiz-adv-x="815" 
d="M133 0l1143 1434h190l-1142 -1434h-191zM381 696l86 492h-174l29 153h120q51 0 62 48l8 45h164l-131 -738h-164z" />
    <glyph glyph-name="arrowleft" unicode="&#x2190;" horiz-adv-x="2048" 
d="M410 696v41l378 379h226v-20l-277 -277v-10h1106v-184h-1106v-11l277 -276v-21h-226z" />
    <glyph glyph-name="arrowup" unicode="&#x2191;" horiz-adv-x="2048" 
d="M1028 0v1096h-10l-277 -277h-20v225l389 390h31l389 -390v-225h-21l-276 277h-10v-1096h-195z" />
    <glyph glyph-name="arrowright" unicode="&#x2192;" horiz-adv-x="2048" 
d="M410 625v184h1106v10l-277 277v20h225l379 -379v-41l-379 -379h-225v21l277 276v11h-1106z" />
    <glyph glyph-name="arrowdown" unicode="&#x2193;" horiz-adv-x="2048" 
d="M721 389v225h20l277 -276h10v1096h195v-1096h10l276 276h21v-225l-389 -389h-31z" />
    <glyph glyph-name="uni2196" unicode="&#x2196;" horiz-adv-x="2048" 
d="M584 696v543l20 21h543l153 -164l-10 -11h-389l-10 -10l778 -768l-133 -133l-778 768l-10 -10v-379l-11 -10z" />
    </font>
</defs>
</svg>
