<?xml version="1.0" standalone="no"?>
<!DOCTYPE svg PUBLIC "-//W3C//DTD SVG 1.1//EN" "http://www.w3.org/Graphics/SVG/1.1/DTD/svg11.dtd" >
<svg xmlns="http://www.w3.org/2000/svg" xmlns:xlink="http://www.w3.org/1999/xlink" version="1.1">
<metadata>
Created by FontForge 20170731 at Sat Jul 29 01:07:15 2023
 By Aleksey,,,
Copyright (c) 2019 by TypeType. Designers Ivan Gladkikh, Pavel Emelyanov. Technical designers Marina Khodak, Nadezhda Polomoshnova, Kseniya Karataeva, Olexa Volochay, Nadyr Rakhimov. All rights reserved. |DCNT
</metadata>
<defs>
<font id="TTHoves-MediumItalic" horiz-adv-x="1167" >
  <font-face 
    font-family="TT Hoves Medium"
    font-weight="500"
    font-style="italic"
    font-stretch="normal"
    units-per-em="2048"
    panose-1="2 0 8 3 3 0 0 9 0 4"
    ascent="1434"
    descent="-614"
    x-height="1024"
    cap-height="1434"
    bbox="-801 -512 3099 2028"
    underline-thickness="102"
    underline-position="-307"
    slope="-10"
    unicode-range="U+000D-FB04"
  />
<missing-glyph horiz-adv-x="0" 
 />
    <glyph glyph-name="f_f" unicode="ff" horiz-adv-x="1228" 
d="M215 0l145 829h-163l34 195h164l35 205q17 93 88 143.5t168 50.5h199l-33 -184h-154q-32 0 -48.5 -12.5t-22.5 -42.5l-27 -160h338l35 205q17 93 88 143.5t168 50.5h198l-32 -184h-154q-32 0 -49 -12.5t-23 -42.5l-26 -160h215l-35 -195h-215l-145 -829h-205l145 829
h-338l-145 -829h-205z" />
    <glyph glyph-name="uniFB01" unicode="fi" horiz-adv-x="1095" 
d="M961 1208l36 215h226l-37 -215h-225zM215 0l145 829h-163l34 195h164l35 205q17 93 88 143.5t168 50.5h178l-33 -184h-133q-32 0 -48.5 -12.5t-22.5 -42.5l-27 -160h543l-180 -1024h-205l145 829h-338l-145 -829h-205z" />
    <glyph glyph-name="uniFB02" unicode="fl" horiz-adv-x="1105" 
d="M215 0l145 829h-163l34 195h164l35 205q17 93 88 143.5t168 50.5h526l-249 -1423h-205l217 1239h-277q-32 0 -48.5 -12.5t-22.5 -42.5l-27 -160h195l-35 -195h-195l-145 -829h-205z" />
    <glyph glyph-name="f_f_i" unicode="ffi" horiz-adv-x="1638" 
d="M215 0l145 829h-163l34 195h164l35 205q17 93 88 143.5t168 50.5h199l-33 -184h-154q-32 0 -48.5 -12.5t-22.5 -42.5l-27 -160h338l35 205q17 93 88 143.5t168 50.5h178l-33 -184h-133q-32 0 -49 -12.5t-23 -42.5l-26 -160h543l-181 -1024h-205l146 829h-338l-145 -829
h-205l145 829h-338l-145 -829h-205zM1503 1208l37 215h225l-36 -215h-226z" />
    <glyph glyph-name="f_f_l" unicode="ffl" horiz-adv-x="1648" 
d="M215 0l145 829h-163l34 195h164l35 205q17 93 88 143.5t168 50.5h199l-33 -184h-154q-32 0 -48.5 -12.5t-22.5 -42.5l-27 -160h338l35 205q17 93 88 143.5t168 50.5h526l-250 -1423h-205l218 1239h-277q-32 0 -49 -12.5t-23 -42.5l-26 -160h194l-34 -195h-195l-145 -829
h-205l145 829h-338l-145 -829h-205z" />
    <glyph glyph-name="f_f_j" unicode="ffj" horiz-adv-x="1638" 
d="M215 0l145 829h-163l34 195h164l35 205q17 93 88 143.5t168 50.5h199l-33 -184h-154q-32 0 -48.5 -12.5t-22.5 -42.5l-27 -160h338l35 205q17 93 88 143.5t168 50.5h178l-33 -184h-133q-32 0 -49 -12.5t-23 -42.5l-26 -160h543l-220 -1237q-17 -95 -77.5 -146t-157.5 -51
h-227l32 185h172q50 0 62 61l176 993h-338l-145 -829h-205l145 829h-338l-145 -829h-205zM1503 1208l37 215h225l-36 -215h-226z" />
    <glyph glyph-name="f_j" unicode="fj" horiz-adv-x="1095" 
d="M461 -410l33 185h172q49 0 61 61l176 993h-338l-145 -829h-205l145 829h-163l34 195h164l35 205q17 93 88 143.5t168 50.5h178l-33 -184h-133q-32 0 -48.5 -12.5t-22.5 -42.5l-27 -160h543l-219 -1237q-17 -95 -78 -146t-158 -51h-227zM961 1208l36 215h226l-37 -215
h-225z" />
    <glyph glyph-name=".notdef" horiz-adv-x="0" 
 />
    <glyph glyph-name=".null" horiz-adv-x="0" 
 />
    <glyph glyph-name="nonmarkingreturn" horiz-adv-x="682" 
 />
    <glyph glyph-name="NULL" horiz-adv-x="0" 
 />
    <glyph glyph-name="NULL" horiz-adv-x="0" 
 />
    <glyph glyph-name="CR" unicode="&#xd;" horiz-adv-x="0" 
 />
    <glyph glyph-name="space" unicode=" " horiz-adv-x="481" 
 />
    <glyph glyph-name="exclam" unicode="!" horiz-adv-x="563" 
d="M268 369l56 481l102 584h215l-102 -584l-117 -481h-154zM164 0l41 236h235l-41 -236h-235z" />
    <glyph glyph-name="quotedbl" unicode="&#x22;" horiz-adv-x="778" 
d="M633 983l80 451h194l-80 -451h-194zM295 983l80 451h194l-80 -451h-194z" />
    <glyph glyph-name="numbersign" unicode="#" horiz-adv-x="1433" 
d="M225 0l144 369h-285l74 184h282l129 328h-282l73 184h281l143 369h199l-145 -369h278l146 369h198l-145 -369h284l-73 -184h-283l-127 -328h281l-74 -184h-281l-141 -369h-199l144 369h-281l-141 -369h-199zM637 553h281l126 328h-278z" />
    <glyph glyph-name="dollar" unicode="$" horiz-adv-x="1280" 
d="M481 -225l39 225q-177 41 -271.5 149t-94.5 250v29q0 10 2 12h213v-10q0 -100 96.5 -173t271.5 -73q147 0 227 61.5t80 153.5q0 70 -48.5 117.5t-155.5 77.5l-287 82q-136 40 -196 118t-60 199q0 188 132 317.5t349 141.5l35 207h205l-39 -219q182 -36 277.5 -143
t95.5 -253q0 -5 -1 -16t-1 -16q-2 -6 -2 -19h-218v6q0 3 1.5 7.5t1.5 7.5q0 104 -84 169.5t-240 65.5q-133 0 -215 -67.5t-82 -157.5q0 -115 164 -164l287 -82q160 -47 228.5 -126.5t68.5 -211.5q0 -205 -143.5 -332.5t-395.5 -127.5l-35 -205h-205z" />
    <glyph glyph-name="percent" unicode="%" horiz-adv-x="1607" 
d="M432 1106q0 -62 43 -102.5t111 -40.5q71 0 117.5 50t46.5 134q0 62 -43 102.5t-111 40.5q-71 0 -117.5 -50t-46.5 -134zM924 1167q0 -159 -102.5 -263.5t-256.5 -104.5q-134 0 -220.5 81.5t-86.5 204.5q0 159 102 264t256 105q134 0 221 -82t87 -205zM1087 287
q0 -62 43 -103t111 -41q71 0 117.5 50.5t46.5 134.5q0 62 -43 102.5t-111 40.5q-71 0 -117.5 -50t-46.5 -134zM913 266q0 159 102.5 264t256.5 105q134 0 220.5 -82t86.5 -205q0 -159 -102 -263.5t-256 -104.5q-134 0 -221 82t-87 204zM248 0l1143 1434h204l-1142 -1434
h-205z" />
    <glyph glyph-name="ampersand" unicode="&#x26;" horiz-adv-x="1310" 
d="M877 254l-275 367l-78 -48q-37 -24 -55 -38t-46 -43t-41 -64.5t-13 -79.5q0 -82 65.5 -133t190.5 -51q84 0 150.5 27.5t101.5 62.5zM1075 0l-92 123q-60 -47 -115 -72q-131 -71 -284 -71q-201 0 -315.5 97.5t-114.5 250.5q0 70 18.5 128.5t57 105t79 81t101.5 74.5l86 57
l-64 90q-63 86 -63 180q0 177 116 293.5t293 116.5q166 0 267.5 -93.5t101.5 -234.5q0 -211 -238 -346l-116 -65l231 -305q33 46 49 79q52 94 70 187h215q-22 -152 -121 -301q-48 -71 -92 -115l207 -260h-277zM688 860l90 51q78 44 116 88.5t38 116.5q0 70 -43.5 112
t-120.5 42q-69 0 -126.5 -58t-57.5 -127q0 -55 41 -122z" />
    <glyph glyph-name="quotesingle" unicode="'" horiz-adv-x="440" 
d="M295 983l80 451h194l-80 -451h-194z" />
    <glyph glyph-name="parenleft" unicode="(" horiz-adv-x="686" 
d="M545 -410h-215q-152 346 -152 635q0 344 125 673.5t363 596.5h215q-65 -67 -129.5 -154t-132.5 -212.5t-119 -261.5t-84 -307.5t-33 -344.5q0 -184 45.5 -333.5t116.5 -291.5z" />
    <glyph glyph-name="parenright" unicode=")" horiz-adv-x="686" 
d="M184 -410h-215q65 65 130 152.5t132.5 212.5t119 262t84 308.5t32.5 344.5q0 184 -45.5 333.5t-116.5 291.5h215q152 -346 152 -635q0 -344 -125 -673.5t-363 -596.5z" />
    <glyph glyph-name="asterisk" unicode="*" horiz-adv-x="983" 
d="M340 768l195 225l-297 72l51 164l286 -103l-20 308h184l-20 -308l287 103l51 -164l-297 -72l194 -225l-133 -113l-174 256l-174 -256z" />
    <glyph glyph-name="plus" unicode="+" horiz-adv-x="1116" 
d="M569 113v389h-358v184h358v389h195v-389h358v-184h-358v-389h-195z" />
    <glyph glyph-name="comma" unicode="," horiz-adv-x="481" 
d="M61 -174l113 410h236l-185 -410h-164z" />
    <glyph glyph-name="hyphen" unicode="-" horiz-adv-x="860" 
d="M178 492l33 184h676l-33 -184h-676z" />
    <glyph glyph-name="period" unicode="." horiz-adv-x="481" 
d="M123 0l41 236h235l-41 -236h-235z" />
    <glyph glyph-name="slash" unicode="/" horiz-adv-x="768" 
d="M-72 -410l897 1905h205l-899 -1905h-203z" />
    <glyph glyph-name="zero" unicode="0" horiz-adv-x="1351" 
d="M688 -20q-213 0 -352 155t-139 418q0 164 38 309t103.5 252t152.5 184.5t187 116.5t205 39q213 0 352 -155t139 -418q0 -164 -38 -309t-103.5 -252t-152.5 -184.5t-187 -116.5t-205 -39zM862 1249q-62 0 -125.5 -28t-121.5 -86t-103.5 -137t-72.5 -189.5t-27 -235.5
q0 -185 84 -287t213 -102q62 0 125.5 28t121.5 86t103.5 137t72.5 189.5t27 235.5q0 185 -84 287t-213 102z" />
    <glyph glyph-name="one" unicode="1" horiz-adv-x="716" 
d="M348 0l189 1075h-297l36 205h236q60 0 72 61l16 93h215l-252 -1434h-215z" />
    <glyph glyph-name="two" unicode="2" horiz-adv-x="1126" 
d="M102 0l31 184l686 584q73 63 113.5 127t40.5 149q0 93 -58 149t-157 56q-106 0 -184 -76t-103 -200h-215q30 212 169.5 346.5t342.5 134.5q198 0 314 -108.5t116 -280.5q0 -64 -18.5 -124.5t-43 -103.5t-69.5 -92.5t-76 -77.5t-84 -73l-446 -379l-2 -10h620l-35 -205
h-942z" />
    <glyph glyph-name="three" unicode="3" horiz-adv-x="1146" 
d="M121 379v31h215v-11q0 -90 75 -152.5t201 -62.5q122 0 199.5 69.5t77.5 176.5q0 88 -65 146.5t-173 58.5h-82l35 194h119q116 0 192 68.5t76 167.5q0 80 -66 132t-180 52q-98 0 -174.5 -60t-83.5 -145h-215q25 177 161.5 293.5t322.5 116.5q209 0 329.5 -105t120.5 -264
q0 -181 -133 -292q-57 -51 -133 -76v-10q45 -26 82 -66q82 -94 82 -211q0 -88 -38.5 -170.5t-105.5 -144t-163 -98.5t-205 -37q-106 0 -195 32t-149 86.5t-93.5 127t-33.5 153.5z" />
    <glyph glyph-name="four" unicode="4" horiz-adv-x="1126" 
d="M84 307l31 174l710 953h342l-163 -932h174l-35 -195h-174l-54 -307h-215l54 307h-670zM379 502h409l117 665h-41l-483 -655z" />
    <glyph glyph-name="five" unicode="5" horiz-adv-x="1177" 
d="M160 389h213q8 -85 77.5 -145t190.5 -60q132 0 219.5 91t87.5 237q0 110 -68.5 173t-197.5 63q-66 0 -125 -31t-100 -72h-226l222 789h798l-37 -205h-614l-96 -328h10q90 51 219 51q191 0 310.5 -117.5t119.5 -302.5q0 -156 -71.5 -282.5t-195.5 -198t-275 -71.5
q-212 0 -336.5 114.5t-124.5 294.5z" />
    <glyph glyph-name="six" unicode="6" 
d="M371 440q0 -108 75.5 -182t190.5 -74q129 0 223 94.5t94 223.5q0 108 -75.5 182t-190.5 74q-129 0 -223 -94.5t-94 -223.5zM309 799l516 635h242l-399 -492h10l24 4q42 6 58 6q180 0 294.5 -126t114.5 -304q0 -146 -73 -271t-198 -198t-271 -73q-205 0 -338 126.5
t-133 313.5q0 190 153 379z" />
    <glyph glyph-name="seven" unicode="7" horiz-adv-x="1044" 
d="M233 0l719 1229h-682l37 205h932l-33 -185l-731 -1249h-242z" />
    <glyph glyph-name="eight" unicode="8" 
d="M428 758l2 10q-44 29 -68 63q-67 82 -67 193q0 83 37 161t100.5 137.5t156 95.5t197.5 36q196 0 313.5 -105.5t117.5 -263.5q0 -169 -121 -282q-51 -48 -121 -76l-4 -10q38 -25 76 -70q77 -93 77 -217q0 -188 -145 -319t-367 -131q-209 0 -329.5 111t-120.5 278
q0 190 133 305q63 57 133 84zM500 1024q0 -82 66 -138.5t179 -56.5q121 0 194 67t73 169q0 82 -66.5 138.5t-179.5 56.5q-121 0 -193.5 -67t-72.5 -169zM623 174q120 0 203 77t83 179q0 89 -71.5 152t-184.5 63q-120 0 -203 -77t-83 -179q0 -89 71.5 -152t184.5 -63z" />
    <glyph glyph-name="nine" unicode="9" 
d="M459 932q0 -108 75.5 -182t190.5 -74q129 0 223 94t94 223q0 108 -75.5 182t-190.5 74q-129 0 -223 -94t-94 -223zM346 0l399 492h-10l-26 -7q-32 -4 -56 -4q-180 0 -294.5 126t-114.5 304q0 146 73 271t198 198.5t271 73.5q205 0 338 -126.5t133 -313.5
q0 -190 -153 -379l-516 -635h-242z" />
    <glyph glyph-name="colon" unicode=":" horiz-adv-x="481" 
d="M123 0l41 236h235l-41 -236h-235zM260 788l43 236h236l-43 -236h-236z" />
    <glyph glyph-name="semicolon" unicode=";" horiz-adv-x="481" 
d="M260 788l43 236h236l-43 -236h-236zM61 -174l113 410h236l-185 -410h-164z" />
    <glyph glyph-name="less" unicode="&#x3c;" horiz-adv-x="1116" 
d="M199 492v204l891 369v-215l-635 -256l635 -256v-215z" />
    <glyph glyph-name="equal" unicode="=" horiz-adv-x="1095" 
d="M250 317v185h809v-185h-809zM250 686v184h809v-184h-809z" />
    <glyph glyph-name="greater" unicode="&#x3e;" horiz-adv-x="1116" 
d="M215 123v215l635 256l-635 256v215l891 -369v-204z" />
    <glyph glyph-name="question" unicode="?" horiz-adv-x="1054" 
d="M389 0l41 236h236l-41 -236h-236zM463 369l22 123q25 131 84.5 208.5t167.5 118.5q47 17 75.5 30t60.5 33t49.5 42.5t29 55.5t11.5 75q0 82 -68 138t-188 56q-108 0 -173.5 -59t-84.5 -146h-216q17 83 56 155t99 130t147 91.5t192 33.5q209 0 330 -105t121 -264
q0 -81 -26 -153t-69.5 -123.5t-94.5 -87.5t-107 -55q-161 -56 -185 -195l-18 -102h-215z" />
    <glyph glyph-name="at" unicode="@" horiz-adv-x="1914" 
d="M1006 328q108 0 187 84.5t79 212.5q0 92 -61.5 153.5t-153.5 61.5q-108 0 -187 -84.5t-79 -212.5q0 -92 61.5 -153.5t153.5 -61.5zM934 -31h434l-31 -174h-434q-190 0 -350.5 93t-253 253.5t-92.5 350.5q0 152 45 292.5t129 254t196.5 198t254.5 130.5t296 46
q183 0 336.5 -56t256 -153t159.5 -228t57 -280q0 -107 -24 -196.5t-65 -150.5t-96.5 -103.5t-117 -62t-127.5 -19.5q-134 0 -200 51q-31 19 -45 51h-11q-46 -36 -77 -51q-93 -51 -199 -51q-160 0 -264.5 104t-104.5 264q0 199 132.5 335.5t318.5 136.5q114 0 203 -52
q27 -15 63 -51h10l41 92h154l-92 -522q-6 -30 -6 -41q0 -92 88 -92q95 0 165 91t70 257q0 115 -43.5 216t-123.5 176t-201 118t-267 43q-150 0 -286 -58t-232 -155t-152.5 -229t-56.5 -275q0 -151 73.5 -278.5t198.5 -201t271 -73.5z" />
    <glyph glyph-name="A" unicode="A" horiz-adv-x="1372" 
d="M20 0l775 1434h327l271 -1434h-230l-63 338h-656l-182 -338h-242zM549 532h512l-119 656h-41z" />
    <glyph glyph-name="B" unicode="B" horiz-adv-x="1320" 
d="M510 809h426q90 0 160.5 73.5t70.5 172.5q0 76 -51 130t-117 54h-413zM401 195h439q88 0 156.5 71t68.5 174q0 78 -47.5 131.5t-116.5 53.5h-424zM154 0l252 1434h638q140 0 239 -101t99 -248q0 -172 -112 -292q-52 -51 -113 -86v-11q38 -30 62 -63q61 -85 61 -193
q0 -119 -63 -221t-164 -160.5t-213 -58.5h-686z" />
    <glyph glyph-name="C" unicode="C" horiz-adv-x="1505" 
d="M1319 492h227q-86 -234 -279.5 -373t-430.5 -139q-129 0 -243 47.5t-195.5 130t-129 198.5t-47.5 248q0 184 61.5 344t165.5 270t244.5 173t296.5 63q228 0 392 -138.5t210 -363.5h-221q-41 140 -147 218.5t-254 78.5q-105 0 -201 -44t-170 -122.5t-118 -197.5t-44 -260
q0 -198 117 -319.5t303 -121.5q143 0 267.5 81.5t195.5 226.5z" />
    <glyph glyph-name="D" unicode="D" horiz-adv-x="1427" 
d="M154 0l252 1434h454q168 0 308.5 -77.5t223.5 -217t83 -310.5q0 -180 -62.5 -336.5t-167.5 -263.5t-245 -168t-293 -61h-553zM403 205h324q80 0 157.5 26t145 78t119 123.5t81.5 169t30 207.5q0 189 -119.5 304.5t-300.5 115.5h-256z" />
    <glyph glyph-name="E" unicode="E" horiz-adv-x="1208" 
d="M154 0l252 1434h942l-37 -205h-727l-72 -410h686l-37 -205h-686l-72 -409h727l-34 -205h-942z" />
    <glyph glyph-name="F" unicode="F" 
d="M154 0l252 1434h921l-37 -205h-706l-72 -410h666l-37 -205h-666l-106 -614h-215z" />
    <glyph glyph-name="G" unicode="G" horiz-adv-x="1576" 
d="M1276 0l8 164h-10q-43 -49 -115 -92q-149 -92 -323 -92q-129 0 -243 47.5t-195.5 130t-129 198.5t-47.5 248q0 184 61.5 344t165.5 270t244.5 173t296.5 63q230 0 393 -134t209 -357h-221q-41 138 -146.5 212t-254.5 74q-105 0 -201 -44t-170 -122.5t-118 -197.5
t-44 -260q0 -198 117 -319.5t303 -121.5q180 0 310.5 102t166.5 277l2 10h-399l31 175h614l-131 -748h-174z" />
    <glyph glyph-name="H" unicode="H" horiz-adv-x="1464" 
d="M154 0l252 1434h215l-107 -605h727l107 605h215l-252 -1434h-215l108 625h-727l-108 -625h-215z" />
    <glyph glyph-name="I" unicode="I" horiz-adv-x="522" 
d="M154 0l252 1434h215l-252 -1434h-215z" />
    <glyph glyph-name="J" unicode="J" horiz-adv-x="808" 
d="M20 0l35 205h334q41 0 73.5 24.5t39.5 69.5l200 1135h216l-211 -1188q-43 -246 -277 -246h-410z" />
    <glyph glyph-name="K" unicode="K" horiz-adv-x="1208" 
d="M154 0l252 1434h215l-115 -656l663 656h283l-731 -719l500 -715h-263l-471 676l-118 -676h-215z" />
    <glyph glyph-name="L" unicode="L" horiz-adv-x="1105" 
d="M154 0l252 1434h215l-218 -1229h697l-35 -205h-911z" />
    <glyph glyph-name="M" unicode="M" horiz-adv-x="1843" 
d="M154 0l252 1434h362l180 -1127h41l578 1127h375l-252 -1434h-215l192 1096h-41l-561 -1096h-287l-176 1096h-41l-192 -1096h-215z" />
    <glyph glyph-name="N" unicode="N" horiz-adv-x="1464" 
d="M154 0l252 1434h311l393 -1117h41l197 1117h215l-252 -1434h-312l-393 1116h-41l-196 -1116h-215z" />
    <glyph glyph-name="O" unicode="O" horiz-adv-x="1556" 
d="M856 184q105 0 201 44t170 122.5t118 198t44 260.5q0 198 -117 319t-303 121q-105 0 -201 -44t-170 -122.5t-118 -197.5t-44 -260q0 -198 117 -319.5t303 -121.5zM836 -20q-129 0 -243 47.5t-195.5 130t-129 198.5t-47.5 248q0 184 61.5 344t165.5 270t244.5 173
t296.5 63q129 0 243 -47.5t195.5 -130t129 -199t47.5 -248.5q0 -184 -61.5 -343.5t-165.5 -269.5t-244.5 -173t-296.5 -63z" />
    <glyph glyph-name="P" unicode="P" horiz-adv-x="1310" 
d="M154 0l252 1434h649q143 0 240.5 -108t97.5 -282q0 -112 -39 -212t-104 -169.5t-151.5 -110t-180.5 -40.5h-459l-90 -512h-215zM494 717h432q100 0 176 85t76 212q0 95 -50.5 155t-119.5 60h-424z" />
    <glyph glyph-name="Q" unicode="Q" horiz-adv-x="1556" 
d="M1253 -61l-92 116q-147 -75 -325 -75q-129 0 -243 47.5t-195.5 130t-129 198.5t-47.5 248q0 184 61.5 344t165.5 270t244.5 173t296.5 63q129 0 243 -47.5t195.5 -130t129 -199t47.5 -248.5q0 -206 -73.5 -375t-205.5 -288l180 -227h-252zM1034 217l-231 295h252
l145 -186q89 82 139 205t50 278q0 198 -117 319t-303 121q-105 0 -201 -44t-170 -122.5t-118 -197.5t-44 -260q0 -198 117 -319.5t303 -121.5q99 0 178 33z" />
    <glyph glyph-name="R" unicode="R" horiz-adv-x="1331" 
d="M154 0l252 1434h649q143 0 240.5 -108t97.5 -282q0 -112 -39 -212t-104 -169.5t-151.5 -110t-180.5 -40.5h-84l421 -512h-272l-422 512h-102l-90 -512h-215zM494 717h432q100 0 176 85t76 212q0 95 -50.5 155t-119.5 60h-424z" />
    <glyph glyph-name="S" unicode="S" horiz-adv-x="1280" 
d="M156 440h213v-10q0 -100 96.5 -173t271.5 -73q147 0 227 61.5t80 153.5q0 70 -48.5 117.5t-155.5 77.5l-287 82q-136 40 -196 118t-60 199q0 196 144.5 328.5t377.5 132.5q130 0 233.5 -32.5t168 -89t98 -130t33.5 -158.5q0 -5 -1 -16t-1 -16q-2 -6 -2 -19h-218v6
q0 3 1.5 7.5t1.5 7.5q0 104 -84 169.5t-240 65.5q-133 0 -215 -67.5t-82 -157.5q0 -115 164 -164l287 -82q160 -47 228.5 -126.5t68.5 -211.5q0 -205 -144 -332.5t-399 -127.5q-134 0 -243 33.5t-178 91.5t-105.5 133.5t-36.5 160.5v29q0 10 2 12z" />
    <glyph glyph-name="T" unicode="T" horiz-adv-x="1198" 
d="M481 0l215 1229h-450l37 205h1116l-37 -205h-451l-215 -1229h-215z" />
    <glyph glyph-name="U" unicode="U" horiz-adv-x="1433" 
d="M238 625l143 809h215l-147 -830q-13 -67 -13 -92q0 -154 87 -241t241 -87q141 0 251.5 100t139.5 259l158 891h215l-162 -910q-46 -248 -215.5 -396t-407.5 -148q-236 0 -379 138.5t-143 362.5q0 57 17 144z" />
    <glyph glyph-name="V" unicode="V" horiz-adv-x="1351" 
d="M492 0l-250 1434h229l201 -1188h41l618 1188h242l-754 -1434h-327z" />
    <glyph glyph-name="W" unicode="W" horiz-adv-x="2007" 
d="M358 0l-106 1434h229l78 -1127h41l496 1127h266l98 -1127h41l475 1127h242l-610 -1434h-328l-88 1075h-41l-465 -1075h-328z" />
    <glyph glyph-name="X" unicode="X" horiz-adv-x="1290" 
d="M0 0l651 750l-352 684h240l260 -502h41l436 502h256l-614 -709l376 -725h-239l-285 543h-41l-473 -543h-256z" />
    <glyph glyph-name="Y" unicode="Y" horiz-adv-x="1239" 
d="M492 0l90 512l-361 922h232l260 -666h41l483 666h244l-684 -922l-90 -512h-215z" />
    <glyph glyph-name="Z" unicode="Z" horiz-adv-x="1208" 
d="M72 0l30 184l947 1045h-752l37 205h1044l-32 -185l-947 -1044h772l-34 -205h-1065z" />
    <glyph glyph-name="bracketleft" unicode="[" horiz-adv-x="696" 
d="M90 -410l336 1905h461l-33 -184h-256l-270 -1536h256l-33 -185h-461z" />
    <glyph glyph-name="backslash" unicode="\" horiz-adv-x="768" 
d="M489 -410l-227 1905h205l227 -1905h-205z" />
    <glyph glyph-name="bracketright" unicode="]" horiz-adv-x="696" 
d="M0 -410l31 185h256l270 1536h-256l33 184h461l-336 -1905h-459z" />
    <glyph glyph-name="asciicircum" unicode="^" horiz-adv-x="870" 
d="M274 860l226 574h215l225 -574h-184q-24 68 -72.5 187.5t-71.5 181.5h-10q-23 -62 -71 -181.5t-72 -187.5h-185z" />
    <glyph glyph-name="underscore" unicode="_" horiz-adv-x="778" 
d="M-109 -389l33 184h858l-32 -184h-859z" />
    <glyph glyph-name="grave" unicode="`" horiz-adv-x="552" 
d="M520 1208l-194 297h225l154 -297h-185z" />
    <glyph glyph-name="a" unicode="a" horiz-adv-x="1095" 
d="M848 410l10 61h-287q-105 0 -160 -51t-55 -133q0 -63 49 -98t146 -35q122 0 200 69t97 187zM807 0l-2 92h-10q-35 -35 -78 -57q-90 -55 -217 -55q-165 0 -256.5 79.5t-91.5 206.5q0 171 109 270t300 99h326l4 20q2 6 2 31q0 87 -55 135.5t-154 48.5q-87 0 -141 -46
t-70 -97h-205q32 129 145.5 223t280.5 94q193 0 298.5 -92t105.5 -245q0 -36 -11 -93l-106 -614h-174z" />
    <glyph glyph-name="b" unicode="b" horiz-adv-x="1228" 
d="M143 0l252 1434h205l-88 -502h10q15 15 37.5 31t60.5 36t92.5 32.5t116.5 12.5q186 0 303 -121t117 -319q0 -135 -44.5 -252.5t-119 -198.5t-173 -127t-205.5 -46q-79 0 -142 19t-99.5 48t-55.5 52.5t-27 43.5h-8l-47 -143h-185zM696 164q87 0 166.5 52t130.5 147.5
t51 209.5q0 129 -74 208t-192 79q-87 0 -166.5 -52t-130.5 -147.5t-51 -209.5q0 -129 74 -208t192 -79z" />
    <glyph glyph-name="c" unicode="c" horiz-adv-x="1136" 
d="M934 358h205q-61 -177 -195.5 -277.5t-306.5 -100.5q-215 0 -343 124t-128 326q0 131 45.5 246.5t121.5 195.5t179.5 126t216.5 46q184 0 301.5 -98t143.5 -270h-205q-26 91 -91 137.5t-159 46.5q-143 0 -245.5 -115t-102.5 -294q0 -130 75.5 -208.5t200.5 -78.5
q87 0 163.5 51t123.5 143z" />
    <glyph glyph-name="d" unicode="d" horiz-adv-x="1228" 
d="M891 0v102h-10q-122 -122 -297 -122q-186 0 -303 121t-117 319q0 139 43 257t115.5 197.5t169.5 124.5t204 45q61 0 114.5 -13t84 -27.5t61.5 -40t39 -34.5t23 -28h10l94 533h205l-252 -1434h-184zM625 164q143 0 245.5 115t102.5 294q0 129 -72.5 208t-183.5 79
q-143 0 -245.5 -115t-102.5 -294q0 -129 72.5 -208t183.5 -79z" />
    <glyph glyph-name="e" unicode="e" 
d="M897 297h221q-71 -151 -192.5 -234t-288.5 -83q-215 0 -343 124t-128 326q0 131 45.5 246.5t121.5 195.5t179.5 126t216.5 46q190 0 320.5 -127.5t130.5 -312.5q0 -51 -17 -117q-2 -6 -14 -47h-778q8 -134 78 -210t198 -76q86 0 145 37.5t105 105.5zM391 594h594
q-8 125 -79 200.5t-187 75.5q-115 0 -202 -75t-126 -201z" />
    <glyph glyph-name="f" unicode="f" horiz-adv-x="686" 
d="M215 0l145 829h-163l34 195h164l35 205q17 93 88 143.5t168 50.5h199l-33 -184h-154q-32 0 -48.5 -12.5t-22.5 -42.5l-27 -160h215l-35 -195h-215l-145 -829h-205z" />
    <glyph glyph-name="g" unicode="g" horiz-adv-x="1198" 
d="M106 -61h205q0 -75 66.5 -130t189.5 -55q115 0 194.5 67t98.5 175l31 178h-10q-24 -22 -44 -37t-55.5 -35t-82.5 -30.5t-101 -10.5q-192 0 -306 114t-114 306q0 160 70.5 290t187 201.5t252.5 71.5q77 0 140 -14.5t99.5 -37t57 -43t27.5 -38.5h10l41 113h186l-186 -1044
q-33 -188 -166.5 -299t-339.5 -111q-216 0 -333.5 102t-117.5 267zM639 246q140 0 234 99.5t94 258.5q0 117 -69.5 186.5t-186.5 69.5q-140 0 -234 -99.5t-94 -258.5q0 -117 69.5 -186.5t186.5 -69.5z" />
    <glyph glyph-name="h" unicode="h" horiz-adv-x="1187" 
d="M143 0l252 1434h205l-86 -492h10q48 37 76 51q100 51 205 51q169 0 269 -98t100 -260q0 -78 -9 -113l-100 -573h-205l103 594q6 30 6 51q0 101 -59 158t-167 57q-105 0 -186 -68t-98 -167l-111 -625h-205z" />
    <glyph glyph-name="i" unicode="i" horiz-adv-x="471" 
d="M133 0l180 1024h205l-180 -1024h-205zM338 1219l37 215h225l-37 -215h-225z" />
    <glyph glyph-name="j" unicode="j" horiz-adv-x="471" 
d="M-164 -410l33 185h172q49 0 61 61l211 1188h205l-219 -1237q-17 -95 -78 -146t-158 -51h-227zM338 1219l37 215h225l-37 -215h-225z" />
    <glyph glyph-name="k" unicode="k" horiz-adv-x="1034" 
d="M143 0l252 1434h205l-156 -881l514 471h259l-564 -514l383 -510h-237l-365 492l-86 -492h-205z" />
    <glyph glyph-name="l" unicode="l" horiz-adv-x="491" 
d="M143 0l252 1434h205l-252 -1434h-205z" />
    <glyph glyph-name="m" unicode="m" horiz-adv-x="1730" 
d="M133 0l180 1024h185l6 -82h10q48 37 74 51q96 51 190 51q126 0 205 -67q36 -28 51 -66h10q53 43 101 66q128 67 248 67q154 0 240.5 -88t86.5 -249q0 -70 -6 -93l-106 -614h-205l108 629q5 40 5 57q0 174 -181 174q-88 0 -157 -54t-86 -140l-119 -666h-205l109 629
q4 32 4 57q0 174 -181 174q-88 0 -157 -54t-86 -140l-119 -666h-205z" />
    <glyph glyph-name="n" unicode="n" horiz-adv-x="1177" 
d="M133 0l180 1024h185l6 -82h10q48 37 76 51q100 51 205 51q169 0 268.5 -98t99.5 -260q0 -82 -8 -113l-100 -573h-205l102 594q6 30 6 51q0 101 -58.5 158t-166.5 57q-105 0 -186 -68t-98 -167l-111 -625h-205z" />
    <glyph glyph-name="o" unicode="o" horiz-adv-x="1187" 
d="M647 164q143 0 245.5 115t102.5 294q0 130 -76 208.5t-200 78.5q-143 0 -245.5 -115t-102.5 -294q0 -130 76 -208.5t200 -78.5zM637 -20q-215 0 -343 124t-128 326q0 131 45.5 246.5t121.5 195.5t179.5 126t216.5 46q213 0 342 -124t129 -326q0 -131 -45.5 -246.5
t-121.5 -195.5t-179.5 -126t-216.5 -46z" />
    <glyph glyph-name="p" unicode="p" horiz-adv-x="1218" 
d="M59 -410l254 1434h185l4 -92h10q15 15 37.5 31t60.5 36t92.5 32.5t116.5 12.5q186 0 303 -121t117 -319q0 -135 -44.5 -252.5t-119 -198.5t-173.5 -127t-206 -46q-64 0 -118.5 13.5t-89 32t-61 42.5t-38.5 42t-18 33h-9l-98 -553h-205zM686 164q87 0 166.5 52
t130.5 147.5t51 209.5q0 129 -74 208t-192 79q-87 0 -166.5 -52t-130.5 -147.5t-51 -209.5q0 -129 74 -208t192 -79z" />
    <glyph glyph-name="q" unicode="q" horiz-adv-x="1218" 
d="M795 -410l94 512h-10q-122 -122 -295 -122q-186 0 -303 121t-117 319q0 139 43 257t115.5 197.5t169.5 124.5t204 45q61 0 114.5 -13t84 -27.5t61.5 -40t39 -34.5t23 -28h10l47 143h185l-261 -1454h-204zM625 164q143 0 245.5 115t102.5 294q0 129 -72.5 208t-183.5 79
q-143 0 -245.5 -115t-102.5 -294q0 -129 72.5 -208t183.5 -79z" />
    <glyph glyph-name="r" unicode="r" horiz-adv-x="737" 
d="M133 0l180 1024h174l5 -92h10l11 11l13.5 13.5t14 13t17.5 14t19 12t23 11.5t25 8.5t29 6.5t32 2h211l-33 -184h-194q-185 0 -221 -197l-111 -643h-205z" />
    <glyph glyph-name="s" unicode="s" horiz-adv-x="993" 
d="M115 307h204q0 -56 64 -104.5t182 -48.5q104 0 154.5 39t50.5 104q0 45 -27.5 76t-105.5 47l-174 31q-126 22 -186 92t-60 174q0 139 103.5 233t295.5 94q206 0 318.5 -90.5t112.5 -226.5h-205q0 56 -54 99.5t-172 43.5q-94 0 -144 -35.5t-50 -86.5q0 -50 29.5 -80
t103.5 -43l174 -31q125 -22 185.5 -96.5t60.5 -180.5q0 -151 -108 -244t-302 -93q-98 0 -177.5 22t-129 56.5t-83 79.5t-47 87t-13.5 82z" />
    <glyph glyph-name="t" unicode="t" horiz-adv-x="747" 
d="M256 236l104 593h-163l34 195h164l49 287h205l-49 -287h236l-35 -195h-236l-102 -573q-2 -2 -2 -6v-14q0 -52 51 -52h174l-31 -184h-219q-86 0 -136 47.5t-50 126.5q0 32 6 62z" />
    <glyph glyph-name="u" unicode="u" horiz-adv-x="1187" 
d="M207 451l100 573h205l-102 -594q-7 -35 -7 -51q0 -101 59 -158t167 -57q106 0 184.5 67t99.5 168l111 625h205l-180 -1024h-185l-6 82h-10q-48 -37 -76 -51q-93 -51 -205 -51q-169 0 -268.5 98t-99.5 260q0 82 8 113z" />
    <glyph glyph-name="v" unicode="v" horiz-adv-x="1044" 
d="M348 0l-178 1024h209l135 -799h41l418 799h221l-539 -1024h-307z" />
    <glyph glyph-name="w" unicode="w" horiz-adv-x="1617" 
d="M276 0l-96 1024h209l60 -758h40l336 758h275l65 -758h41l330 758h221l-457 -1024h-296l-66 737h-41l-324 -737h-297z" />
    <glyph glyph-name="x" unicode="x" horiz-adv-x="1013" 
d="M0 0l451 545l-244 479h229l174 -348h41l297 348h246l-436 -504l250 -520h-230l-180 379h-41l-311 -379h-246z" />
    <glyph glyph-name="y" unicode="y" horiz-adv-x="1054" 
d="M39 -410l33 185h192q51 0 82 55l57 107l-223 1087h209l160 -778h41l403 778h221l-684 -1280q-43 -81 -98 -117.5t-145 -36.5h-248z" />
    <glyph glyph-name="z" unicode="z" horiz-adv-x="931" 
d="M61 0l31 184l641 645h-516l35 195h788l-32 -184l-641 -645h536l-33 -195h-809z" />
    <glyph glyph-name="braceleft" unicode="{" horiz-adv-x="706" 
d="M221 -131l78 438q2 6 2 31q0 41 -30 66.5t-93 25.5l39 225h25q121 0 137 103l88 504q19 106 95.5 169.5t185.5 63.5h149l-31 -174h-98q-84 0 -102 -96l-88 -494q-19 -101 -113 -147q-41 -18 -90 -21l-8 -41q37 -6 71 -26q74 -44 74 -127q0 -17 -4 -45l-80 -447
q-4 -28 -4 -31q0 -46 20 -64t66 -18h82l-31 -174h-127q-96 0 -157.5 61t-61.5 154q0 29 6 64z" />
    <glyph glyph-name="bar" unicode="|" horiz-adv-x="696" 
d="M356 -410v1905h205v-1905h-205z" />
    <glyph glyph-name="braceright" unicode="}" horiz-adv-x="706" 
d="M0 -410l31 174h98q84 0 102 97l88 493q17 101 113 148q38 17 90 20l8 41q-38 6 -73 27q-72 42 -72 127q0 17 4 45l80 446q4 28 4 31q0 46 -20 64t-66 18h-82l31 174h127q96 0 157.5 -61t61.5 -154q0 -28 -6 -63l-78 -439q-2 -6 -2 -30q0 -41 30.5 -67t92.5 -26l-39 -225
h-25q-121 0 -137 -102l-88 -504q-19 -106 -95 -170t-185 -64h-150z" />
    <glyph glyph-name="asciitilde" unicode="~" horiz-adv-x="1187" 
d="M393 379h-205q0 188 83.5 283.5t234.5 95.5q55 0 103.5 -19t83 -46t65.5 -54.5t63.5 -46.5t63.5 -19q57 0 90 43t33 132h204q0 -188 -83 -283.5t-234 -95.5q-55 0 -103.5 19t-83 46t-65.5 54t-63.5 46t-63.5 19q-57 0 -90 -42.5t-33 -131.5z" />
    <glyph glyph-name="nbspace" unicode="&#xa0;" horiz-adv-x="481" 
 />
    <glyph glyph-name="exclamdown" unicode="&#xa1;" horiz-adv-x="563" 
d="M100 -410l103 584l116 481h154l-55 -481l-103 -584h-215zM301 788l43 236h236l-43 -236h-236z" />
    <glyph glyph-name="cent" unicode="&#xa2;" horiz-adv-x="1136" 
d="M449 -225l40 223q-154 37 -240.5 151.5t-86.5 280.5q0 248 146 418.5t362 191.5l41 220h204l-43 -236q122 -35 198 -124.5t99 -223.5h-204q-26 91 -91 137.5t-159 46.5q-143 0 -245.5 -115t-102.5 -294q0 -130 75.5 -208.5t200.5 -78.5q87 0 163.5 51t123.5 143h205
q-57 -160 -174.5 -258.5t-270.5 -115.5l-37 -209h-204z" />
    <glyph glyph-name="sterling" unicode="&#xa3;" horiz-adv-x="1239" 
d="M72 0l34 205h76q99 0 117 102l53 297h-174l31 174h174l53 295q29 170 160.5 275.5t314.5 105.5q195 0 307.5 -102.5t112.5 -266.5q0 -16 -4 -36q-2 -6 -2 -15h-209v21q0 88 -59 141t-162 53q-96 0 -163.5 -53.5t-84.5 -140.5l-49 -277h399l-30 -174h-400l-53 -293
q-10 -53 -47 -86q-13 -13 -35 -20h791l-35 -205h-1116z" />
    <glyph glyph-name="currency" unicode="&#xa4;" horiz-adv-x="1187" 
d="M264 399l111 131q-49 87 -49 187q0 97 49 184l-111 133l123 113l107 -117q95 66 211 66q115 0 210 -66l107 117l123 -113l-111 -133q49 -87 49 -184q0 -100 -49 -187l111 -131l-123 -112l-107 116q-94 -65 -210 -65q-117 0 -211 65l-107 -116zM705 942q-93 0 -159.5 -67
t-66.5 -158q0 -94 66 -159.5t160 -65.5q91 0 158 66t67 159q0 91 -67 158t-158 67z" />
    <glyph glyph-name="yen" unicode="&#xa5;" horiz-adv-x="1239" 
d="M199 266l30 174h351l24 144h-348l31 174h215l-250 676h231l240 -666h41l463 666h243l-485 -676h213l-31 -174h-348l-24 -144h346l-31 -174h-346l-47 -266h-215l47 266h-350z" />
    <glyph glyph-name="brokenbar" unicode="&#xa6;" horiz-adv-x="696" 
d="M356 727v768h205v-768h-205zM356 -410v768h205v-768h-205z" />
    <glyph glyph-name="section" unicode="&#xa7;" horiz-adv-x="1290" 
d="M156 82h215v-21q0 -97 77.5 -161t219.5 -64q127 0 191.5 55t64.5 150q0 54 -48 95t-157 79l-174 61q-157 55 -232 128t-75 180q0 140 94 250q35 40 94 79q-18 21 -29 41q-26 50 -26 111q0 103 56.5 191t165.5 143t249 55q231 0 361 -110.5t130 -278.5v-41h-215v10
q0 105 -72.5 170.5t-214.5 65.5q-113 0 -179 -56.5t-66 -138.5q0 -46 46.5 -80t158.5 -73l174 -62q157 -55 227 -123t70 -174q0 -146 -91 -260q-44 -57 -90 -90q19 -23 29 -43q29 -64 29 -129q0 -167 -129.5 -278t-352.5 -111q-116 0 -211.5 32t-158.5 87t-97 127t-34 153
v31zM627 451l174 -62q36 -16 94 -35l49 -16q33 25 51 49q52 69 52 135q0 106 -175 164l-174 62q-25 8 -58.5 21t-39.5 15l-35 15q-29 -18 -57 -49q-55 -59 -55 -136q0 -105 174 -163z" />
    <glyph glyph-name="dieresis" unicode="&#xa8;" horiz-adv-x="696" 
d="M276 1229l37 205h205l-37 -205h-205zM645 1229l37 205h205l-37 -205h-205z" />
    <glyph glyph-name="copyright" unicode="&#xa9;" horiz-adv-x="1720" 
d="M1178 614h153q-7 -33 -22 -69t-44.5 -75.5t-67.5 -70.5t-94 -51t-120 -20q-155 0 -262 111t-107 278t107 278t262 111q80 0 145.5 -27t106 -70t64.5 -88.5t32 -91.5h-153q-52 134 -185 134q-95 0 -155 -66t-60 -180t60 -180t155 -66q139 0 185 143zM246 717
q0 155 56.5 292t154 234.5t234.5 154t292 56.5t292 -56.5t234.5 -154t154 -234.5t56.5 -292t-56.5 -292t-154 -234.5t-234.5 -154t-292 -56.5t-292 56.5t-234.5 154t-154 234.5t-56.5 292zM983 133q245 0 409 166.5t164 417.5t-164 417t-409 166q-163 0 -294 -75
t-205 -208.5t-74 -299.5q0 -252 163 -418t410 -166z" />
    <glyph glyph-name="ordfeminine" unicode="&#xaa;" horiz-adv-x="737" 
d="M657 788l-6 62h-10q-72 -72 -172 -72q-107 0 -166 53.5t-59 141.5q0 95 67 155t185 60h202q0 8 2 12q1 3 2 7.5t2 7t1 4.5q0 48 -31.5 75t-91.5 27q-37 0 -67 -20t-42 -52h-164q32 93 102 149t181 56q126 0 196 -60t70 -155q0 -5 -4 -33q-2 -6 -2 -18l-72 -400h-123z
M672 1049l6 26h-172q-109 0 -109 -92q0 -31 28.5 -51.5t74.5 -20.5q66 0 112 39t60 99z" />
    <glyph glyph-name="guillemotleft" unicode="&#xab;" horiz-adv-x="1085" 
d="M805 102l-213 410l358 410h226l-369 -422l207 -398h-209zM385 102l-213 410l358 410h226l-369 -422l207 -398h-209z" />
    <glyph glyph-name="logicalnot" unicode="&#xac;" horiz-adv-x="1105" 
d="M225 584v184h809v-451h-205v267h-604z" />
    <glyph glyph-name="uni00AD" unicode="&#xad;" horiz-adv-x="860" 
d="M178 492l33 184h676l-33 -184h-676z" />
    <glyph glyph-name="registered" unicode="&#xae;" horiz-adv-x="1720" 
d="M707 348v748h327q115 0 190.5 -74t75.5 -182q0 -95 -67 -166.5t-148 -79.5l236 -246h-184l-236 246h-41v-246h-153zM246 717q0 155 56.5 292t154 234.5t234.5 154t292 56.5t292 -56.5t234.5 -154t154 -234.5t56.5 -292t-56.5 -292t-154 -234.5t-234.5 -154t-292 -56.5
t-292 56.5t-234.5 154t-154 234.5t-56.5 292zM983 133q245 0 409 166.5t164 417.5t-164 417t-409 166q-163 0 -294 -75t-205 -208.5t-74 -299.5q0 -252 163 -418t410 -166zM860 717h174q48 0 80.5 35t32.5 88t-32.5 88t-80.5 35h-174v-246z" />
    <glyph glyph-name="overscore" unicode="&#xaf;" horiz-adv-x="737" 
d="M283 1260l28 163h615l-29 -163h-614z" />
    <glyph glyph-name="degree" unicode="&#xb0;" horiz-adv-x="778" 
d="M580 1311q-60 0 -97 -38.5t-37 -94.5t37 -95t97 -39t96.5 39t36.5 95t-36.5 94.5t-96.5 38.5zM580 901q-121 0 -199 80t-78 197t78 196.5t199 79.5t198.5 -79.5t77.5 -196.5t-77.5 -197t-198.5 -80z" />
    <glyph glyph-name="plusminus" unicode="&#xb1;" horiz-adv-x="1116" 
d="M195 0v184h911v-184h-911zM553 317v369h-358v184h358v369h195v-369h358v-184h-358v-369h-195z" />
    <glyph glyph-name="uni00B2" unicode="&#xb2;" horiz-adv-x="696" 
d="M260 901l21 113l327 276q88 76 88 144q0 45 -25.5 68.5t-66.5 23.5q-52 0 -83.5 -33.5t-39.5 -89.5h-143q19 107 87 176.5t179 69.5q114 0 175 -53t61 -142q0 -82 -38 -137.5t-116 -118.5l-194 -164v-10h292l-22 -123h-502z" />
    <glyph glyph-name="uni00B3" unicode="&#xb3;" horiz-adv-x="696" 
d="M268 1116h142v-10q0 -39 28 -65.5t74 -26.5q54 0 88.5 34.5t34.5 88.5q0 38 -28.5 60t-76.5 22h-61l23 122h75q53 0 86 29.5t33 73.5q0 38 -27.5 60t-74.5 22q-37 0 -66.5 -26.5t-40.5 -65.5h-143q13 90 84 152.5t176 62.5q113 0 174 -51.5t61 -133.5q0 -69 -38 -117.5
t-84 -70.5l-2 -10q29 -14 51 -47t22 -82q0 -101 -76 -173.5t-190 -72.5t-180 58t-66 147v14q0 4 2 6z" />
    <glyph glyph-name="acute" unicode="&#xb4;" horiz-adv-x="552" 
d="M274 1208l256 297h226l-297 -297h-185z" />
    <glyph glyph-name="uni00B5" unicode="&#xb5;" horiz-adv-x="1187" 
d="M59 -410l254 1434h205l-102 -594q-6 -30 -6 -51q0 -101 58.5 -158t166.5 -57q106 0 185 67t100 168l110 625h205l-180 -1024h-185l-6 82h-10q-48 -37 -76 -51q-93 -51 -205 -51q-139 0 -227 71l-82 -461h-205z" />
    <glyph glyph-name="paragraph" unicode="&#xb6;" horiz-adv-x="1146" 
d="M549 -205v901q-148 0 -248 105t-100 264t100 264t248 105h553v-1639h-195v1454h-164v-1454h-194z" />
    <glyph glyph-name="middot" unicode="&#xb7;" horiz-adv-x="481" 
d="M199 430l41 236h235l-41 -236h-235z" />
    <glyph glyph-name="cedilla" unicode="&#xb8;" horiz-adv-x="450" 
d="M-14 -440l20 133h107q45 0 68.5 18t23.5 43q0 27 -19 44.5t-63 17.5h-64l15 82l57 92h154l-58 -92q49 -8 85 -48.5t36 -105.5q0 -80 -58.5 -132t-158.5 -52h-145z" />
    <glyph glyph-name="uni00B9" unicode="&#xb9;" horiz-adv-x="542" 
d="M403 901l91 512h-175l25 133h113q59 0 71 62l7 30h143l-131 -737h-144z" />
    <glyph glyph-name="ordmasculine" unicode="&#xba;" horiz-adv-x="798" 
d="M754 1157q0 69 -42.5 111.5t-111.5 42.5q-72 0 -128 -66.5t-56 -169.5q0 -69 42 -111t111 -42q73 0 129 66t56 169zM907 1167q0 -166 -105 -277.5t-253 -111.5q-131 0 -209 78t-78 209q0 166 105.5 277.5t253.5 111.5q130 0 208 -78t78 -209z" />
    <glyph glyph-name="guillemotright" unicode="&#xbb;" horiz-adv-x="1085" 
d="M518 102l371 422l-209 398h209l215 -410l-361 -410h-225zM98 102l371 422l-209 398h209l215 -410l-360 -410h-226z" />
    <glyph glyph-name="onequarter" unicode="&#xbc;" horiz-adv-x="1382" 
d="M133 0l1137 1434h170l-1137 -1434h-170zM381 696l90 512h-174l25 133h112q60 0 72 62l6 31h143l-131 -738h-143zM772 143l23 123l360 471h207l-82 -461h102l-24 -133h-103l-24 -143h-144l25 143h-340zM975 276h162l47 267h-19l-188 -256z" />
    <glyph glyph-name="onehalf" unicode="&#xbd;" horiz-adv-x="1433" 
d="M133 0l1137 1434h170l-1137 -1434h-170zM381 696l90 512h-174l25 133h112q60 0 72 62l6 31h143l-131 -738h-143zM827 0l21 113l328 276q88 76 88 143q0 45 -26 69t-67 24q-52 0 -83 -33.5t-39 -89.5h-144q19 107 87 176.5t179 69.5q114 0 175 -53t61 -142
q0 -82 -38 -137.5t-116 -118.5l-194 -164v-10h293l-23 -123h-502z" />
    <glyph glyph-name="threequarters" unicode="&#xbe;" horiz-adv-x="1484" 
d="M256 0l1137 1434h170l-1137 -1434h-170zM238 911h141v-10q0 -39 28 -65.5t74 -26.5q54 0 88.5 34.5t34.5 88.5q0 38 -28 60t-76 22h-62l23 123h76q53 0 85.5 29t32.5 73q0 38 -27.5 60t-74.5 22q-37 0 -66.5 -26.5t-40.5 -65.5h-143q13 90 84 152.5t176 62.5
q113 0 174.5 -51.5t61.5 -132.5q0 -69 -38.5 -118t-84.5 -71l-2 -10q30 -14 52 -47t22 -82q0 -101 -76.5 -173.5t-190.5 -72.5t-179.5 58t-65.5 147v14q0 4 2 6zM874 143l23 123l360 471h207l-82 -461h103l-25 -133h-102l-25 -143h-143l24 143h-340zM1077 276h162l47 267
h-18l-189 -256z" />
    <glyph glyph-name="questiondown" unicode="&#xbf;" horiz-adv-x="1054" 
d="M588 788l41 236h235l-41 -236h-235zM805 -20h215q-17 -83 -56.5 -155t-99.5 -130t-147 -91.5t-191 -33.5q-209 0 -329.5 105t-120.5 264q0 81 26 153t69.5 123.5t94.5 87.5t107 55q160 56 184 195l18 102h216l-23 -123q-25 -131 -84.5 -208.5t-167.5 -118.5
q-59 -22 -93 -38.5t-68 -43.5t-49 -64.5t-15 -89.5q0 -82 68 -138t188 -56q108 0 173.5 59t84.5 146z" />
    <glyph glyph-name="Agrave" unicode="&#xc0;" horiz-adv-x="1372" 
d="M20 0l775 1434h327l271 -1434h-230l-63 338h-656l-182 -338h-242zM549 532h512l-119 656h-41zM860 1577l-194 297h225l153 -297h-184z" />
    <glyph glyph-name="Aacute" unicode="&#xc1;" horiz-adv-x="1372" 
d="M20 0l775 1434h327l271 -1434h-230l-63 338h-656l-182 -338h-242zM549 532h512l-119 656h-41zM881 1577l256 297h225l-297 -297h-184z" />
    <glyph glyph-name="Acircumflex" unicode="&#xc2;" horiz-adv-x="1372" 
d="M20 0l775 1434h327l271 -1434h-230l-63 338h-656l-182 -338h-242zM549 532h512l-119 656h-41zM625 1577l297 297h184l194 -297h-188l-113 174l-174 -174h-200z" />
    <glyph glyph-name="Atilde" unicode="&#xc3;" horiz-adv-x="1372" 
d="M20 0l775 1434h327l271 -1434h-230l-63 338h-656l-182 -338h-242zM549 532h512l-119 656h-41zM778 1608h-153q17 109 80 172t155 63q41 0 77 -14.5t56.5 -31.5t48 -31.5t54.5 -14.5q67 0 82 92h153q-17 -109 -80 -172t-155 -63q-42 0 -77.5 14.5t-56 31.5t-47.5 31.5
t-55 14.5q-67 0 -82 -92z" />
    <glyph glyph-name="Adieresis" unicode="&#xc4;" horiz-adv-x="1372" 
d="M20 0l775 1434h327l271 -1434h-230l-63 338h-656l-182 -338h-242zM549 532h512l-119 656h-41zM696 1628l37 205h205l-37 -205h-205zM1065 1628l37 205h205l-37 -205h-205z" />
    <glyph glyph-name="Aring" unicode="&#xc5;" horiz-adv-x="1372" 
d="M20 0l775 1434h327l271 -1434h-230l-63 338h-656l-182 -338h-242zM549 532h512l-119 656h-41zM983 1659q32 0 57 27.5t25 64.5q0 31 -20.5 51.5t-51.5 20.5q-32 0 -57 -27.5t-25 -64.5q0 -31 20.5 -51.5t51.5 -20.5zM973 1546q-85 0 -135 47.5t-50 126.5q0 91 64 153
t152 62q85 0 134.5 -47.5t49.5 -126.5q0 -91 -63.5 -153t-151.5 -62z" />
    <glyph glyph-name="AE" unicode="&#xc6;" horiz-adv-x="1925" 
d="M-31 0l877 1434h1218l-36 -205h-728l-71 -410h686l-37 -205h-686l-72 -409h727l-35 -205h-942l60 338h-514l-205 -338h-242zM532 532h431l122 697h-127z" />
    <glyph glyph-name="Ccedilla" unicode="&#xc7;" horiz-adv-x="1505" 
d="M565 -440l21 133h106q45 0 68.5 18t23.5 43q0 27 -19 44.5t-63 17.5h-63l14 82l58 94q-216 42 -353 210t-137 402q0 184 61.5 344t165.5 270t244.5 173t296.5 63q228 0 392 -138.5t210 -363.5h-221q-41 140 -147 218.5t-254 78.5q-105 0 -201 -44t-170 -122.5
t-118 -197.5t-44 -260q0 -198 117 -319.5t303 -121.5q143 0 267.5 81.5t195.5 226.5h227q-86 -230 -271 -367t-417 -145l-51 -82q49 -8 85 -48.5t36 -105.5q0 -80 -58.5 -132t-158.5 -52h-146z" />
    <glyph glyph-name="Egrave" unicode="&#xc8;" horiz-adv-x="1208" 
d="M154 0l252 1434h942l-37 -205h-727l-72 -410h686l-37 -205h-686l-72 -409h727l-34 -205h-942zM809 1577l-195 297h226l153 -297h-184z" />
    <glyph glyph-name="Eacute" unicode="&#xc9;" horiz-adv-x="1208" 
d="M154 0l252 1434h942l-37 -205h-727l-72 -410h686l-37 -205h-686l-72 -409h727l-34 -205h-942zM788 1577l256 297h226l-297 -297h-185z" />
    <glyph glyph-name="Ecircumflex" unicode="&#xca;" horiz-adv-x="1208" 
d="M154 0l252 1434h942l-37 -205h-727l-72 -410h686l-37 -205h-686l-72 -409h727l-34 -205h-942zM543 1577l297 297h184l195 -297h-189l-112 174l-175 -174h-200z" />
    <glyph glyph-name="Edieresis" unicode="&#xcb;" horiz-adv-x="1208" 
d="M154 0l252 1434h942l-37 -205h-727l-72 -410h686l-37 -205h-686l-72 -409h727l-34 -205h-942zM614 1628l37 205h205l-37 -205h-205zM983 1628l37 205h205l-37 -205h-205z" />
    <glyph glyph-name="Igrave" unicode="&#xcc;" horiz-adv-x="522" 
d="M154 0l252 1434h215l-252 -1434h-215zM430 1577l-194 297h225l153 -297h-184z" />
    <glyph glyph-name="Iacute" unicode="&#xcd;" horiz-adv-x="522" 
d="M154 0l252 1434h215l-252 -1434h-215zM451 1577l256 297h225l-297 -297h-184z" />
    <glyph glyph-name="Icircumflex" unicode="&#xce;" horiz-adv-x="522" 
d="M154 0l252 1434h215l-252 -1434h-215zM195 1577l297 297h184l194 -297h-188l-113 174l-174 -174h-200z" />
    <glyph glyph-name="Idieresis" unicode="&#xcf;" horiz-adv-x="522" 
d="M154 0l252 1434h215l-252 -1434h-215zM256 1628l37 205h205l-37 -205h-205zM625 1628l37 205h204l-37 -205h-204z" />
    <glyph glyph-name="Eth" unicode="&#xd0;" horiz-adv-x="1499" 
d="M225 0l109 625h-195l35 194h195l108 615h455q125 0 238 -46t196 -125t131.5 -192t48.5 -242q0 -180 -62.5 -336.5t-167.5 -263.5t-245 -168t-293 -61h-553zM475 205h324q101 0 195.5 42t170 117t121 191.5t45.5 253.5q0 189 -119.5 304.5t-300.5 115.5h-256l-73 -410h350
l-35 -194h-348z" />
    <glyph glyph-name="Ntilde" unicode="&#xd1;" horiz-adv-x="1464" 
d="M154 0l252 1434h311l393 -1117h41l197 1117h215l-252 -1434h-312l-393 1116h-41l-196 -1116h-215zM829 1608h-153q17 109 80 172t155 63q41 0 77 -14.5t56.5 -31.5t48 -31.5t54.5 -14.5q67 0 82 92h153q-17 -109 -80 -172t-155 -63q-42 0 -77.5 14.5t-56 31.5t-47.5 31.5
t-55 14.5q-67 0 -82 -92z" />
    <glyph glyph-name="Ograve" unicode="&#xd2;" horiz-adv-x="1556" 
d="M856 184q105 0 201 44t170 122.5t118 198t44 260.5q0 198 -117 319t-303 121q-105 0 -201 -44t-170 -122.5t-118 -197.5t-44 -260q0 -198 117 -319.5t303 -121.5zM836 -20q-129 0 -243 47.5t-195.5 130t-129 198.5t-47.5 248q0 184 61.5 344t165.5 270t244.5 173
t296.5 63q129 0 243 -47.5t195.5 -130t129 -199t47.5 -248.5q0 -184 -61.5 -343.5t-165.5 -269.5t-244.5 -173t-296.5 -63zM930 1577l-195 297h226l153 -297h-184z" />
    <glyph glyph-name="Oacute" unicode="&#xd3;" horiz-adv-x="1556" 
d="M856 184q105 0 201 44t170 122.5t118 198t44 260.5q0 198 -117 319t-303 121q-105 0 -201 -44t-170 -122.5t-118 -197.5t-44 -260q0 -198 117 -319.5t303 -121.5zM836 -20q-129 0 -243 47.5t-195.5 130t-129 198.5t-47.5 248q0 184 61.5 344t165.5 270t244.5 173
t296.5 63q129 0 243 -47.5t195.5 -130t129 -199t47.5 -248.5q0 -184 -61.5 -343.5t-165.5 -269.5t-244.5 -173t-296.5 -63zM932 1577l256 297h225l-297 -297h-184z" />
    <glyph glyph-name="Ocircumflex" unicode="&#xd4;" horiz-adv-x="1556" 
d="M856 184q105 0 201 44t170 122.5t118 198t44 260.5q0 198 -117 319t-303 121q-105 0 -201 -44t-170 -122.5t-118 -197.5t-44 -260q0 -198 117 -319.5t303 -121.5zM836 -20q-129 0 -243 47.5t-195.5 130t-129 198.5t-47.5 248q0 184 61.5 344t165.5 270t244.5 173
t296.5 63q129 0 243 -47.5t195.5 -130t129 -199t47.5 -248.5q0 -184 -61.5 -343.5t-165.5 -269.5t-244.5 -173t-296.5 -63zM696 1577l297 297h185l194 -297h-188l-113 174l-174 -174h-201z" />
    <glyph glyph-name="Otilde" unicode="&#xd5;" horiz-adv-x="1556" 
d="M856 184q105 0 201 44t170 122.5t118 198t44 260.5q0 198 -117 319t-303 121q-105 0 -201 -44t-170 -122.5t-118 -197.5t-44 -260q0 -198 117 -319.5t303 -121.5zM836 -20q-129 0 -243 47.5t-195.5 130t-129 198.5t-47.5 248q0 184 61.5 344t165.5 270t244.5 173
t296.5 63q129 0 243 -47.5t195.5 -130t129 -199t47.5 -248.5q0 -184 -61.5 -343.5t-165.5 -269.5t-244.5 -173t-296.5 -63zM860 1608h-153q17 109 80 172t155 63q41 0 77 -14.5t56.5 -31.5t48 -31.5t54.5 -14.5q67 0 82 92h153q-17 -109 -80 -172t-155 -63q-42 0 -77.5 14.5
t-56 31.5t-47.5 31.5t-55 14.5q-67 0 -82 -92z" />
    <glyph glyph-name="Odieresis" unicode="&#xd6;" horiz-adv-x="1556" 
d="M856 184q105 0 201 44t170 122.5t118 198t44 260.5q0 198 -117 319t-303 121q-105 0 -201 -44t-170 -122.5t-118 -197.5t-44 -260q0 -198 117 -319.5t303 -121.5zM836 -20q-129 0 -243 47.5t-195.5 130t-129 198.5t-47.5 248q0 184 61.5 344t165.5 270t244.5 173
t296.5 63q129 0 243 -47.5t195.5 -130t129 -199t47.5 -248.5q0 -184 -61.5 -343.5t-165.5 -269.5t-244.5 -173t-296.5 -63zM758 1628l37 205h204l-36 -205h-205zM1126 1628l37 205h205l-37 -205h-205z" />
    <glyph glyph-name="multiply" unicode="&#xd7;" horiz-adv-x="1105" 
d="M242 328l276 276l-276 277l133 133l276 -277l277 277l133 -133l-277 -277l277 -276l-133 -133l-277 276l-276 -276z" />
    <glyph glyph-name="Oslash" unicode="&#xd8;" horiz-adv-x="1556" 
d="M248 -72l155 224q-182 179 -182 452q0 184 61.5 344t165.5 270t244.5 173t296.5 63t279 -63l82 114h231l-158 -225q181 -181 181 -451q0 -184 -61.5 -343.5t-165.5 -269.5t-244.5 -173t-296.5 -63q-149 0 -277 61l-80 -113h-231zM530 332l615 882q-84 35 -176 35
q-105 0 -201 -44t-170 -122.5t-118 -197.5t-44 -260q0 -175 94 -293zM1296 1098l-614 -881q79 -33 174 -33q105 0 201 44t170 122.5t118 198t44 260.5q0 173 -93 289z" />
    <glyph glyph-name="Ugrave" unicode="&#xd9;" horiz-adv-x="1433" 
d="M238 625l143 809h215l-147 -830q-13 -67 -13 -92q0 -154 87 -241t241 -87q141 0 251.5 100t139.5 259l158 891h215l-162 -910q-46 -248 -215.5 -396t-407.5 -148q-236 0 -379 138.5t-143 362.5q0 57 17 144zM881 1577l-195 297h225l154 -297h-184z" />
    <glyph glyph-name="Uacute" unicode="&#xda;" horiz-adv-x="1433" 
d="M238 625l143 809h215l-147 -830q-13 -67 -13 -92q0 -154 87 -241t241 -87q141 0 251.5 100t139.5 259l158 891h215l-162 -910q-46 -248 -215.5 -396t-407.5 -148q-236 0 -379 138.5t-143 362.5q0 57 17 144zM870 1577l256 297h226l-297 -297h-185z" />
    <glyph glyph-name="Ucircumflex" unicode="&#xdb;" horiz-adv-x="1433" 
d="M238 625l143 809h215l-147 -830q-13 -67 -13 -92q0 -154 87 -241t241 -87q141 0 251.5 100t139.5 259l158 891h215l-162 -910q-46 -248 -215.5 -396t-407.5 -148q-236 0 -379 138.5t-143 362.5q0 57 17 144zM625 1577l297 297h184l194 -297h-188l-113 174l-174 -174h-200
z" />
    <glyph glyph-name="Udieresis" unicode="&#xdc;" horiz-adv-x="1433" 
d="M238 625l143 809h215l-147 -830q-13 -67 -13 -92q0 -154 87 -241t241 -87q141 0 251.5 100t139.5 259l158 891h215l-162 -910q-46 -248 -215.5 -396t-407.5 -148q-236 0 -379 138.5t-143 362.5q0 57 17 144zM676 1628l37 205h205l-37 -205h-205zM1044 1628l37 205h205
l-37 -205h-205z" />
    <glyph glyph-name="Yacute" unicode="&#xdd;" horiz-adv-x="1239" 
d="M492 0l90 512l-361 922h232l260 -666h41l483 666h244l-684 -922l-90 -512h-215zM748 1577l256 297h225l-297 -297h-184z" />
    <glyph glyph-name="Thorn" unicode="&#xde;" horiz-adv-x="1433" 
d="M455 492h559q101 0 178.5 75t77.5 181q0 86 -54.5 140t-140.5 54h-540zM154 0l252 1434h215l-52 -287h555q149 0 255 -109.5t106 -269.5q0 -209 -136 -345t-345 -136h-586l-49 -287h-215z" />
    <glyph glyph-name="germandbls" unicode="&#xdf;" horiz-adv-x="1157" 
d="M133 0l189 1073q29 170 161 275.5t316 105.5q195 0 307.5 -100t112.5 -258q0 -186 -125 -303q-55 -52 -123 -72l-2 -10q45 -23 84 -62q84 -88 84 -209q0 -198 -135.5 -319t-346.5 -121h-123l31 184h84q127 0 206 67.5t79 168.5q0 89 -65.5 152t-168.5 63h-65l35 194h90
q108 0 182 67t74 169q0 87 -63.5 146t-162.5 59t-173 -60.5t-91 -152.5l-186 -1057h-205z" />
    <glyph glyph-name="agrave" unicode="&#xe0;" horiz-adv-x="1095" 
d="M848 410l10 61h-287q-105 0 -160 -51t-55 -133q0 -63 49 -98t146 -35q122 0 200 69t97 187zM807 0l-2 92h-10q-35 -35 -78 -57q-90 -55 -217 -55q-165 0 -256.5 79.5t-91.5 206.5q0 171 109 270t300 99h326l4 20q2 6 2 31q0 87 -55 135.5t-154 48.5q-87 0 -141 -46
t-70 -97h-205q32 129 145.5 223t280.5 94q193 0 298.5 -92t105.5 -245q0 -36 -11 -93l-106 -614h-174zM666 1188l-195 297h225l154 -297h-184z" />
    <glyph glyph-name="aacute" unicode="&#xe1;" horiz-adv-x="1095" 
d="M848 410l10 61h-287q-105 0 -160 -51t-55 -133q0 -63 49 -98t146 -35q122 0 200 69t97 187zM807 0l-2 92h-10q-35 -35 -78 -57q-90 -55 -217 -55q-165 0 -256.5 79.5t-91.5 206.5q0 171 109 270t300 99h326l4 20q2 6 2 31q0 87 -55 135.5t-154 48.5q-87 0 -141 -46
t-70 -97h-205q32 129 145.5 223t280.5 94q193 0 298.5 -92t105.5 -245q0 -36 -11 -93l-106 -614h-174zM645 1188l256 297h225l-297 -297h-184z" />
    <glyph glyph-name="acircumflex" unicode="&#xe2;" horiz-adv-x="1095" 
d="M848 410l10 61h-287q-105 0 -160 -51t-55 -133q0 -63 49 -98t146 -35q122 0 200 69t97 187zM807 0l-2 92h-10q-35 -35 -78 -57q-90 -55 -217 -55q-165 0 -256.5 79.5t-91.5 206.5q0 171 109 270t300 99h326l4 20q2 6 2 31q0 87 -55 135.5t-154 48.5q-87 0 -141 -46
t-70 -97h-205q32 129 145.5 223t280.5 94q193 0 298.5 -92t105.5 -245q0 -36 -11 -93l-106 -614h-174zM420 1188l297 297h184l195 -297h-189l-112 174l-174 -174h-201z" />
    <glyph glyph-name="atilde" unicode="&#xe3;" horiz-adv-x="1095" 
d="M848 410l10 61h-287q-105 0 -160 -51t-55 -133q0 -63 49 -98t146 -35q122 0 200 69t97 187zM807 0l-2 92h-10q-35 -35 -78 -57q-90 -55 -217 -55q-165 0 -256.5 79.5t-91.5 206.5q0 171 109 270t300 99h326l4 20q2 6 2 31q0 87 -55 135.5t-154 48.5q-87 0 -141 -46
t-70 -97h-205q32 129 145.5 223t280.5 94q193 0 298.5 -92t105.5 -245q0 -36 -11 -93l-106 -614h-174zM594 1219h-154q17 109 80.5 172t155.5 63q41 0 76.5 -14.5t56.5 -31.5t48 -31.5t54 -14.5q67 0 82 92h154q-17 -109 -80.5 -172t-155.5 -63q-42 0 -77.5 14.5t-55.5 31.5
t-47 31.5t-55 14.5q-67 0 -82 -92z" />
    <glyph glyph-name="adieresis" unicode="&#xe4;" horiz-adv-x="1095" 
d="M848 410l10 61h-287q-105 0 -160 -51t-55 -133q0 -63 49 -98t146 -35q122 0 200 69t97 187zM807 0l-2 92h-10q-35 -35 -78 -57q-90 -55 -217 -55q-165 0 -256.5 79.5t-91.5 206.5q0 171 109 270t300 99h326l4 20q2 6 2 31q0 87 -55 135.5t-154 48.5q-87 0 -141 -46
t-70 -97h-205q32 129 145.5 223t280.5 94q193 0 298.5 -92t105.5 -245q0 -36 -11 -93l-106 -614h-174zM481 1229l37 205h205l-37 -205h-205zM850 1229l37 205h205l-37 -205h-205z" />
    <glyph glyph-name="aring" unicode="&#xe5;" horiz-adv-x="1095" 
d="M848 410l10 61h-287q-105 0 -160 -51t-55 -133q0 -63 49 -98t146 -35q122 0 200 69t97 187zM807 0l-2 92h-10q-35 -35 -78 -57q-90 -55 -217 -55q-165 0 -256.5 79.5t-91.5 206.5q0 171 109 270t300 99h326l4 20q2 6 2 31q0 87 -55 135.5t-154 48.5q-87 0 -141 -46
t-70 -97h-205q32 129 145.5 223t280.5 94q193 0 298.5 -92t105.5 -245q0 -36 -11 -93l-106 -614h-174zM778 1270q32 0 57 27.5t25 64.5q0 31 -20.5 51.5t-51.5 20.5t-56 -27.5t-25 -65.5q0 -31 20 -51t51 -20zM768 1157q-85 0 -134.5 47.5t-49.5 126.5q0 91 63.5 153
t151.5 62q85 0 134.5 -47.5t49.5 -126.5q0 -91 -63.5 -153t-151.5 -62z" />
    <glyph glyph-name="ae" unicode="&#xe6;" horiz-adv-x="1843" 
d="M1094 604h573q-8 126 -75 201.5t-181 75.5q-107 0 -192.5 -76t-124.5 -201zM848 410l6 41h-287q-101 0 -156 -46t-55 -118q0 -58 50 -95.5t145 -37.5q122 0 201 69t96 187zM557 614h326l8 41q2 6 2 31q0 87 -55 135.5t-154 48.5q-87 0 -141 -46t-70 -97h-205
q32 129 145.5 223t280.5 94q260 0 359 -163q166 163 368 163q184 0 312.5 -125.5t128.5 -304.5q0 -54 -17 -120l-14 -43h-758q8 -135 77 -216t189 -81q81 0 137.5 37.5t102.5 105.5h221q-70 -150 -191 -233.5t-280 -83.5q-263 0 -399 204q-44 -55 -109 -102
q-144 -102 -321 -102q-165 0 -256.5 79.5t-91.5 206.5q0 162 107.5 255t297.5 93z" />
    <glyph glyph-name="ccedilla" unicode="&#xe7;" horiz-adv-x="1136" 
d="M369 -440l20 133h107q45 0 68.5 18t23.5 43q0 27 -19 44.5t-63 17.5h-64l15 82l59 94q-165 35 -257.5 151t-92.5 287q0 131 45.5 246.5t121.5 195.5t179.5 126t216.5 46q184 0 301.5 -98t143.5 -270h-205q-26 91 -91 137.5t-159 46.5q-143 0 -245.5 -115t-102.5 -294
q0 -130 75.5 -208.5t200.5 -78.5q87 0 163.5 51t123.5 143h205q-60 -170 -187 -270t-290 -108l-52 -82q49 -8 85 -48.5t36 -105.5q0 -80 -58.5 -132t-158.5 -52h-145z" />
    <glyph glyph-name="egrave" unicode="&#xe8;" 
d="M897 297h221q-71 -151 -192.5 -234t-288.5 -83q-215 0 -343 124t-128 326q0 131 45.5 246.5t121.5 195.5t179.5 126t216.5 46q190 0 320.5 -127.5t130.5 -312.5q0 -51 -17 -117q-2 -6 -14 -47h-778q8 -134 78 -210t198 -76q86 0 145 37.5t105 105.5zM391 594h594
q-8 125 -79 200.5t-187 75.5q-115 0 -202 -75t-126 -201zM666 1188l-195 297h225l154 -297h-184z" />
    <glyph glyph-name="eacute" unicode="&#xe9;" 
d="M897 297h221q-71 -151 -192.5 -234t-288.5 -83q-215 0 -343 124t-128 326q0 131 45.5 246.5t121.5 195.5t179.5 126t216.5 46q190 0 320.5 -127.5t130.5 -312.5q0 -51 -17 -117q-2 -6 -14 -47h-778q8 -134 78 -210t198 -76q86 0 145 37.5t105 105.5zM391 594h594
q-8 125 -79 200.5t-187 75.5q-115 0 -202 -75t-126 -201zM666 1188l256 297h225l-297 -297h-184z" />
    <glyph glyph-name="ecircumflex" unicode="&#xea;" 
d="M897 297h221q-71 -151 -192.5 -234t-288.5 -83q-215 0 -343 124t-128 326q0 131 45.5 246.5t121.5 195.5t179.5 126t216.5 46q190 0 320.5 -127.5t130.5 -312.5q0 -51 -17 -117q-2 -6 -14 -47h-778q8 -134 78 -210t198 -76q86 0 145 37.5t105 105.5zM391 594h594
q-8 125 -79 200.5t-187 75.5q-115 0 -202 -75t-126 -201zM430 1188l297 297h184l195 -297h-188l-113 174l-174 -174h-201z" />
    <glyph glyph-name="edieresis" unicode="&#xeb;" 
d="M897 297h221q-71 -151 -192.5 -234t-288.5 -83q-215 0 -343 124t-128 326q0 131 45.5 246.5t121.5 195.5t179.5 126t216.5 46q190 0 320.5 -127.5t130.5 -312.5q0 -51 -17 -117q-2 -6 -14 -47h-778q8 -134 78 -210t198 -76q86 0 145 37.5t105 105.5zM391 594h594
q-8 125 -79 200.5t-187 75.5q-115 0 -202 -75t-126 -201zM481 1229l37 205h205l-37 -205h-205zM850 1229l37 205h205l-37 -205h-205z" />
    <glyph glyph-name="igrave" unicode="&#xec;" horiz-adv-x="471" 
d="M133 0l180 1024h205l-180 -1024h-205zM328 1188l-195 297h225l154 -297h-184z" />
    <glyph glyph-name="iacute" unicode="&#xed;" horiz-adv-x="471" 
d="M133 0l180 1024h205l-180 -1024h-205zM358 1188l256 297h226l-297 -297h-185z" />
    <glyph glyph-name="icircumflex" unicode="&#xee;" horiz-adv-x="471" 
d="M131 0l180 1024h205l-180 -1024h-205zM102 1188l297 297h185l194 -297h-188l-113 174l-174 -174h-201z" />
    <glyph glyph-name="idieresis" unicode="&#xef;" horiz-adv-x="471" 
d="M133 0l180 1024h205l-180 -1024h-205zM164 1229l37 205h205l-37 -205h-205zM532 1229l37 205h205l-37 -205h-205z" />
    <glyph glyph-name="eth" unicode="&#xf0;" horiz-adv-x="1157" 
d="M565 1014l-51 123l225 112l-53 49q-42 39 -121 105l164 82q45 -30 121 -101q6 -6 17 -16.5t20 -19.5t16 -17l256 123l62 -133l-226 -102q70 -91 127.5 -239t57.5 -314q0 -157 -45 -288t-121 -217t-176 -133.5t-211 -47.5q-206 0 -333.5 119.5t-127.5 299.5
q0 236 149 389.5t373 153.5q184 0 297 -113h10q-42 145 -164 310zM371 420q0 -108 75.5 -182t190.5 -74q131 0 224 97t93 241q0 108 -75.5 182t-190.5 74q-131 0 -224 -97t-93 -241z" />
    <glyph glyph-name="ntilde" unicode="&#xf1;" horiz-adv-x="1177" 
d="M133 0l180 1024h185l6 -82h10q48 37 76 51q100 51 205 51q169 0 268.5 -98t99.5 -260q0 -82 -8 -113l-100 -573h-205l102 594q6 30 6 51q0 101 -58.5 158t-166.5 57q-105 0 -186 -68t-98 -167l-111 -625h-205zM625 1219h-154q17 109 80.5 172t155.5 63q41 0 76.5 -14.5
t56.5 -31.5t48 -31.5t54 -14.5q67 0 82 92h154q-17 -109 -80.5 -172t-155.5 -63q-42 0 -77.5 14.5t-55.5 31.5t-47 31.5t-55 14.5q-67 0 -82 -92z" />
    <glyph glyph-name="ograve" unicode="&#xf2;" horiz-adv-x="1187" 
d="M647 164q143 0 245.5 115t102.5 294q0 130 -76 208.5t-200 78.5q-143 0 -245.5 -115t-102.5 -294q0 -130 76 -208.5t200 -78.5zM637 -20q-215 0 -343 124t-128 326q0 131 45.5 246.5t121.5 195.5t179.5 126t216.5 46q213 0 342 -124t129 -326q0 -131 -45.5 -246.5
t-121.5 -195.5t-179.5 -126t-216.5 -46zM676 1188l-195 297h226l153 -297h-184z" />
    <glyph glyph-name="oacute" unicode="&#xf3;" horiz-adv-x="1187" 
d="M647 164q143 0 245.5 115t102.5 294q0 130 -76 208.5t-200 78.5q-143 0 -245.5 -115t-102.5 -294q0 -130 76 -208.5t200 -78.5zM637 -20q-215 0 -343 124t-128 326q0 131 45.5 246.5t121.5 195.5t179.5 126t216.5 46q213 0 342 -124t129 -326q0 -131 -45.5 -246.5
t-121.5 -195.5t-179.5 -126t-216.5 -46zM666 1188l256 297h225l-297 -297h-184z" />
    <glyph glyph-name="ocircumflex" unicode="&#xf4;" horiz-adv-x="1187" 
d="M647 164q143 0 245.5 115t102.5 294q0 130 -76 208.5t-200 78.5q-143 0 -245.5 -115t-102.5 -294q0 -130 76 -208.5t200 -78.5zM637 -20q-215 0 -343 124t-128 326q0 131 45.5 246.5t121.5 195.5t179.5 126t216.5 46q213 0 342 -124t129 -326q0 -131 -45.5 -246.5
t-121.5 -195.5t-179.5 -126t-216.5 -46zM440 1188l297 297h185l194 -297h-188l-113 174l-174 -174h-201z" />
    <glyph glyph-name="otilde" unicode="&#xf5;" horiz-adv-x="1187" 
d="M647 164q143 0 245.5 115t102.5 294q0 130 -76 208.5t-200 78.5q-143 0 -245.5 -115t-102.5 -294q0 -130 76 -208.5t200 -78.5zM637 -20q-215 0 -343 124t-128 326q0 131 45.5 246.5t121.5 195.5t179.5 126t216.5 46q213 0 342 -124t129 -326q0 -131 -45.5 -246.5
t-121.5 -195.5t-179.5 -126t-216.5 -46zM604 1219h-153q17 109 80 172t155 63q41 0 77 -14.5t56.5 -31.5t48 -31.5t54.5 -14.5q67 0 82 92h153q-17 -109 -80 -172t-155 -63q-42 0 -77.5 14.5t-56 31.5t-47.5 31.5t-55 14.5q-67 0 -82 -92z" />
    <glyph glyph-name="odieresis" unicode="&#xf6;" horiz-adv-x="1187" 
d="M647 164q143 0 245.5 115t102.5 294q0 130 -76 208.5t-200 78.5q-143 0 -245.5 -115t-102.5 -294q0 -130 76 -208.5t200 -78.5zM637 -20q-215 0 -343 124t-128 326q0 131 45.5 246.5t121.5 195.5t179.5 126t216.5 46q213 0 342 -124t129 -326q0 -131 -45.5 -246.5
t-121.5 -195.5t-179.5 -126t-216.5 -46zM492 1229l36 205h205l-37 -205h-204zM860 1229l37 205h205l-37 -205h-205z" />
    <glyph glyph-name="divide" unicode="&#xf7;" horiz-adv-x="1075" 
d="M528 266q0 52 32 82.5t81 30.5t81 -30.5t32 -82.5t-32 -82t-81 -30t-81 30t-32 82zM211 502v184h870v-184h-870zM528 922q0 52 32 82t81 30t81 -30t32 -82t-32 -82.5t-81 -30.5t-81 30.5t-32 82.5z" />
    <glyph glyph-name="oslash" unicode="&#xf8;" horiz-adv-x="1187" 
d="M166 -72l127 178q-125 125 -125 324q0 131 45.5 246.5t121.5 195.5t179.5 126t216.5 46q118 0 211 -40l66 92h198l-129 -181q125 -125 125 -321q0 -131 -45.5 -246.5t-121.5 -195.5t-179.5 -126t-216.5 -46q-122 0 -211 38l-63 -90h-199zM418 279l407 565q-56 16 -104 16
q-143 0 -245.5 -115t-102.5 -294q0 -101 45 -172zM952 743l-407 -563q35 -16 104 -16q143 0 245.5 115t102.5 294q0 99 -45 170z" />
    <glyph glyph-name="ugrave" unicode="&#xf9;" horiz-adv-x="1187" 
d="M207 451l100 573h205l-102 -594q-7 -35 -7 -51q0 -101 59 -158t167 -57q106 0 184.5 67t99.5 168l111 625h205l-180 -1024h-185l-6 82h-10q-48 -37 -76 -51q-93 -51 -205 -51q-169 0 -268.5 98t-99.5 260q0 82 8 113zM696 1188l-194 297h225l154 -297h-185z" />
    <glyph glyph-name="uacute" unicode="&#xfa;" horiz-adv-x="1187" 
d="M207 451l100 573h205l-102 -594q-7 -35 -7 -51q0 -101 59 -158t167 -57q106 0 184.5 67t99.5 168l111 625h205l-180 -1024h-185l-6 82h-10q-48 -37 -76 -51q-93 -51 -205 -51q-169 0 -268.5 98t-99.5 260q0 82 8 113zM686 1188l256 297h225l-297 -297h-184z" />
    <glyph glyph-name="ucircumflex" unicode="&#xfb;" horiz-adv-x="1187" 
d="M207 451l100 573h205l-102 -594q-7 -35 -7 -51q0 -101 59 -158t167 -57q106 0 184.5 67t99.5 168l111 625h205l-180 -1024h-185l-6 82h-10q-48 -37 -76 -51q-93 -51 -205 -51q-169 0 -268.5 98t-99.5 260q0 82 8 113zM440 1188l297 297h185l194 -297h-188l-113 174
l-174 -174h-201z" />
    <glyph glyph-name="udieresis" unicode="&#xfc;" horiz-adv-x="1187" 
d="M207 451l100 573h205l-102 -594q-7 -35 -7 -51q0 -101 59 -158t167 -57q106 0 184.5 67t99.5 168l111 625h205l-180 -1024h-185l-6 82h-10q-48 -37 -76 -51q-93 -51 -205 -51q-169 0 -268.5 98t-99.5 260q0 82 8 113zM502 1229l37 205h204l-36 -205h-205zM870 1229
l37 205h205l-37 -205h-205z" />
    <glyph glyph-name="yacute" unicode="&#xfd;" horiz-adv-x="1054" 
d="M39 -410l33 185h192q51 0 82 55l57 107l-223 1087h209l160 -778h41l403 778h221l-684 -1280q-43 -81 -98 -117.5t-145 -36.5h-248zM594 1188l256 297h225l-297 -297h-184z" />
    <glyph glyph-name="thorn" unicode="&#xfe;" horiz-adv-x="1228" 
d="M70 -410l323 1844h205l-88 -502h10q22 22 55 44t104 45t150 23q186 0 303 -121t117 -319q0 -135 -44.5 -252.5t-119 -198.5t-173 -127t-205.5 -46q-64 0 -118.5 13t-89 32t-61.5 43t-39 42t-18 33h-10l-97 -553h-204zM696 164q87 0 166.5 52t130.5 147.5t51 209.5
q0 129 -74 208t-192 79q-87 0 -166.5 -52t-130.5 -147.5t-51 -209.5q0 -129 74 -208t192 -79z" />
    <glyph glyph-name="ydieresis" unicode="&#xff;" horiz-adv-x="1054" 
d="M39 -410l33 185h192q51 0 82 55l57 107l-223 1087h209l160 -778h41l403 778h221l-684 -1280q-43 -81 -98 -117.5t-145 -36.5h-248zM420 1229l37 205h205l-37 -205h-205zM788 1229l37 205h205l-37 -205h-205z" />
    <glyph glyph-name="Amacron" unicode="&#x100;" horiz-adv-x="1372" 
d="M20 0l775 1434h327l271 -1434h-230l-63 338h-656l-182 -338h-242zM549 532h512l-119 656h-41zM666 1638l28 164h615l-29 -164h-614z" />
    <glyph glyph-name="amacron" unicode="&#x101;" horiz-adv-x="1095" 
d="M848 410l10 61h-287q-105 0 -160 -51t-55 -133q0 -63 49 -98t146 -35q122 0 200 69t97 187zM807 0l-2 92h-10q-35 -35 -78 -57q-90 -55 -217 -55q-165 0 -256.5 79.5t-91.5 206.5q0 171 109 270t300 99h326l4 20q2 6 2 31q0 87 -55 135.5t-154 48.5q-87 0 -141 -46
t-70 -97h-205q32 129 145.5 223t280.5 94q193 0 298.5 -92t105.5 -245q0 -36 -11 -93l-106 -614h-174zM471 1249l29 164h614l-29 -164h-614z" />
    <glyph glyph-name="Abreve" unicode="&#x102;" horiz-adv-x="1372" 
d="M20 0l775 1434h327l271 -1434h-230l-63 338h-656l-182 -338h-242zM549 532h512l-119 656h-41zM696 1864h164q0 -62 36 -97.5t97 -35.5q54 0 97.5 35.5t66.5 97.5h164q-25 -117 -120 -197t-218 -80q-129 0 -208 74t-79 192v11z" />
    <glyph glyph-name="abreve" unicode="&#x103;" horiz-adv-x="1095" 
d="M848 410l10 61h-287q-105 0 -160 -51t-55 -133q0 -63 49 -98t146 -35q122 0 200 69t97 187zM807 0l-2 92h-10q-35 -35 -78 -57q-90 -55 -217 -55q-165 0 -256.5 79.5t-91.5 206.5q0 171 109 270t300 99h326l4 20q2 6 2 31q0 87 -55 135.5t-154 48.5q-87 0 -141 -46
t-70 -97h-205q32 129 145.5 223t280.5 94q193 0 298.5 -92t105.5 -245q0 -36 -11 -93l-106 -614h-174zM481 1464h164q0 -62 35.5 -97.5t97.5 -35.5q54 0 97.5 35.5t66.5 97.5h164q-25 -117 -120 -196.5t-218 -79.5q-129 0 -208 74t-79 192v10z" />
    <glyph glyph-name="Aogonek" unicode="&#x104;" horiz-adv-x="1372" 
d="M20 0l775 1434h327l271 -1434h-66q-143 -62 -143 -154q0 -25 16.5 -43t46.5 -18h41l-22 -133h-52q-91 0 -142.5 41.5t-51.5 111.5q0 42 17.5 79.5t43 60.5t46.5 36.5t36 18.5l-63 338h-656l-182 -338h-242zM549 532h512l-119 656h-41z" />
    <glyph glyph-name="aogonek" unicode="&#x105;" horiz-adv-x="1095" 
d="M909 -348h-51q-91 0 -142.5 41.5t-51.5 111.5q0 42 17.5 79.5t43 60.5t46.5 36.5t36 18.5l-2 92h-10q-35 -35 -78 -57q-90 -55 -217 -55q-165 0 -256.5 79.5t-91.5 206.5q0 171 109 270t300 99h326l4 20q2 6 2 31q0 87 -55 135.5t-154 48.5q-87 0 -141 -46t-70 -97h-205
q32 129 145.5 223t280.5 94q193 0 298.5 -92t105.5 -245q0 -36 -11 -93l-106 -614h-10q-144 -62 -144 -154q0 -25 17 -43t47 -18h41zM848 410l10 61h-287q-105 0 -160 -51t-55 -133q0 -63 49 -98t146 -35q122 0 200 69t97 187z" />
    <glyph glyph-name="Cacute" unicode="&#x106;" horiz-adv-x="1505" 
d="M1319 492h227q-86 -234 -279.5 -373t-430.5 -139q-129 0 -243 47.5t-195.5 130t-129 198.5t-47.5 248q0 184 61.5 344t165.5 270t244.5 173t296.5 63q228 0 392 -138.5t210 -363.5h-221q-41 140 -147 218.5t-254 78.5q-105 0 -201 -44t-170 -122.5t-118 -197.5t-44 -260
q0 -198 117 -319.5t303 -121.5q143 0 267.5 81.5t195.5 226.5zM932 1577l256 297h225l-297 -297h-184z" />
    <glyph glyph-name="cacute" unicode="&#x107;" horiz-adv-x="1136" 
d="M934 358h205q-61 -177 -195.5 -277.5t-306.5 -100.5q-215 0 -343 124t-128 326q0 131 45.5 246.5t121.5 195.5t179.5 126t216.5 46q184 0 301.5 -98t143.5 -270h-205q-26 91 -91 137.5t-159 46.5q-143 0 -245.5 -115t-102.5 -294q0 -130 75.5 -208.5t200.5 -78.5
q87 0 163.5 51t123.5 143zM666 1188l256 297h225l-297 -297h-184z" />
    <glyph glyph-name="Ccircumflex" unicode="&#x108;" horiz-adv-x="1505" 
d="M1319 492h227q-86 -234 -279.5 -373t-430.5 -139q-129 0 -243 47.5t-195.5 130t-129 198.5t-47.5 248q0 184 61.5 344t165.5 270t244.5 173t296.5 63q228 0 392 -138.5t210 -363.5h-221q-41 140 -147 218.5t-254 78.5q-105 0 -201 -44t-170 -122.5t-118 -197.5t-44 -260
q0 -198 117 -319.5t303 -121.5q143 0 267.5 81.5t195.5 226.5zM696 1577l297 297h185l194 -297h-188l-113 174l-174 -174h-201z" />
    <glyph glyph-name="ccircumflex" unicode="&#x109;" horiz-adv-x="1136" 
d="M934 358h205q-61 -177 -195.5 -277.5t-306.5 -100.5q-215 0 -343 124t-128 326q0 131 45.5 246.5t121.5 195.5t179.5 126t216.5 46q184 0 301.5 -98t143.5 -270h-205q-26 91 -91 137.5t-159 46.5q-143 0 -245.5 -115t-102.5 -294q0 -130 75.5 -208.5t200.5 -78.5
q87 0 163.5 51t123.5 143zM430 1188l297 297h184l195 -297h-188l-113 174l-174 -174h-201z" />
    <glyph glyph-name="Cdotaccent" unicode="&#x10a;" horiz-adv-x="1505" 
d="M1319 492h227q-86 -234 -279.5 -373t-430.5 -139q-129 0 -243 47.5t-195.5 130t-129 198.5t-47.5 248q0 184 61.5 344t165.5 270t244.5 173t296.5 63q228 0 392 -138.5t210 -363.5h-221q-41 140 -147 218.5t-254 78.5q-105 0 -201 -44t-170 -122.5t-118 -197.5t-44 -260
q0 -198 117 -319.5t303 -121.5q143 0 267.5 81.5t195.5 226.5zM932 1628l37 205h205l-37 -205h-205z" />
    <glyph glyph-name="cdotaccent" unicode="&#x10b;" horiz-adv-x="1136" 
d="M934 358h205q-61 -177 -195.5 -277.5t-306.5 -100.5q-215 0 -343 124t-128 326q0 131 45.5 246.5t121.5 195.5t179.5 126t216.5 46q184 0 301.5 -98t143.5 -270h-205q-26 91 -91 137.5t-159 46.5q-143 0 -245.5 -115t-102.5 -294q0 -130 75.5 -208.5t200.5 -78.5
q87 0 163.5 51t123.5 143zM666 1229l36 205h205l-37 -205h-204z" />
    <glyph glyph-name="Ccaron" unicode="&#x10c;" horiz-adv-x="1505" 
d="M1319 492h227q-86 -234 -279.5 -373t-430.5 -139q-129 0 -243 47.5t-195.5 130t-129 198.5t-47.5 248q0 184 61.5 344t165.5 270t244.5 173t296.5 63q228 0 392 -138.5t210 -363.5h-221q-41 140 -147 218.5t-254 78.5q-105 0 -201 -44t-170 -122.5t-118 -197.5t-44 -260
q0 -198 117 -319.5t303 -121.5q143 0 267.5 81.5t195.5 226.5zM932 1577l-195 297h189l112 -174l174 174h201l-297 -297h-184z" />
    <glyph glyph-name="ccaron" unicode="&#x10d;" horiz-adv-x="1136" 
d="M934 358h205q-61 -177 -195.5 -277.5t-306.5 -100.5q-215 0 -343 124t-128 326q0 131 45.5 246.5t121.5 195.5t179.5 126t216.5 46q184 0 301.5 -98t143.5 -270h-205q-26 91 -91 137.5t-159 46.5q-143 0 -245.5 -115t-102.5 -294q0 -130 75.5 -208.5t200.5 -78.5
q87 0 163.5 51t123.5 143zM676 1188l-195 297h189l112 -174l174 174h201l-297 -297h-184z" />
    <glyph glyph-name="Dcaron" unicode="&#x10e;" horiz-adv-x="1427" 
d="M154 0l252 1434h454q168 0 308.5 -77.5t223.5 -217t83 -310.5q0 -180 -62.5 -336.5t-167.5 -263.5t-245 -168t-293 -61h-553zM403 205h324q80 0 157.5 26t145 78t119 123.5t81.5 169t30 207.5q0 189 -119.5 304.5t-300.5 115.5h-256zM840 1577l-195 297h189l112 -174
l174 174h201l-297 -297h-184z" />
    <glyph glyph-name="dcaron" unicode="&#x10f;" horiz-adv-x="1368" 
d="M891 0v102h-10q-122 -122 -297 -122q-186 0 -303 121t-117 319q0 139 43 257t115.5 197.5t169.5 124.5t204 45q61 0 114.5 -13t84 -27.5t61.5 -40t39 -34.5t23 -28h10l94 533h205l-252 -1434h-184zM625 164q143 0 245.5 115t102.5 294q0 129 -72.5 208t-183.5 79
q-143 0 -245.5 -115t-102.5 -294q0 -129 72.5 -208t183.5 -79zM1360 1096l131 338h205l-183 -338h-153z" />
    <glyph glyph-name="Dcroat" unicode="&#x110;" horiz-adv-x="1499" 
d="M225 0l109 625h-195l35 194h195l108 615h455q125 0 238 -46t196 -125t131.5 -192t48.5 -242q0 -180 -62.5 -336.5t-167.5 -263.5t-245 -168t-293 -61h-553zM475 205h324q101 0 195.5 42t170 117t121 191.5t45.5 253.5q0 189 -119.5 304.5t-300.5 115.5h-256l-73 -410h350
l-35 -194h-348z" />
    <glyph glyph-name="dslash" unicode="&#x111;" horiz-adv-x="1228" 
d="M883 0l-2 102h-9q-122 -122 -297 -122q-185 0 -297 114t-112 305q0 155 68 280t185 194t259 69q120 0 198.5 -43t114.5 -100h10l56 307h-328l31 174h327l27 154h205l-27 -154h164l-31 -174h-163l-195 -1106h-184zM371 410q0 -110 70 -178t186 -68q132 0 224.5 98.5
t92.5 249.5q0 110 -70 178t-186 68q-132 0 -224.5 -98.5t-92.5 -249.5z" />
    <glyph glyph-name="Emacron" unicode="&#x112;" horiz-adv-x="1208" 
d="M154 0l252 1434h942l-37 -205h-727l-72 -410h686l-37 -205h-686l-72 -409h727l-34 -205h-942zM594 1638l29 164h614l-29 -164h-614z" />
    <glyph glyph-name="emacron" unicode="&#x113;" 
d="M897 297h221q-71 -151 -192.5 -234t-288.5 -83q-215 0 -343 124t-128 326q0 131 45.5 246.5t121.5 195.5t179.5 126t216.5 46q190 0 320.5 -127.5t130.5 -312.5q0 -51 -17 -117q-2 -6 -14 -47h-778q8 -134 78 -210t198 -76q86 0 145 37.5t105 105.5zM391 594h594
q-8 125 -79 200.5t-187 75.5q-115 0 -202 -75t-126 -201zM481 1249l29 164h614l-28 -164h-615z" />
    <glyph glyph-name="Ebreve" unicode="&#x114;" horiz-adv-x="1208" 
d="M154 0l252 1434h942l-37 -205h-727l-72 -410h686l-37 -205h-686l-72 -409h727l-34 -205h-942zM614 1864h164q0 -62 36 -97.5t97 -35.5q54 0 97.5 35.5t66.5 97.5h164q-25 -117 -120 -197t-218 -80q-129 0 -208 74t-79 192v11z" />
    <glyph glyph-name="ebreve" unicode="&#x115;" 
d="M897 297h221q-71 -151 -192.5 -234t-288.5 -83q-215 0 -343 124t-128 326q0 131 45.5 246.5t121.5 195.5t179.5 126t216.5 46q190 0 320.5 -127.5t130.5 -312.5q0 -51 -17 -117q-2 -6 -14 -47h-778q8 -134 78 -210t198 -76q86 0 145 37.5t105 105.5zM391 594h594
q-8 125 -79 200.5t-187 75.5q-115 0 -202 -75t-126 -201zM481 1464h164q0 -62 35.5 -97.5t97.5 -35.5q54 0 97.5 35.5t66.5 97.5h164q-25 -117 -120 -196.5t-218 -79.5q-129 0 -208 74t-79 192v10z" />
    <glyph glyph-name="Edotaccent" unicode="&#x116;" horiz-adv-x="1208" 
d="M154 0l252 1434h942l-37 -205h-727l-72 -410h686l-37 -205h-686l-72 -409h727l-34 -205h-942zM799 1628l37 205h204l-36 -205h-205z" />
    <glyph glyph-name="edotaccent" unicode="&#x117;" 
d="M897 297h221q-71 -151 -192.5 -234t-288.5 -83q-215 0 -343 124t-128 326q0 131 45.5 246.5t121.5 195.5t179.5 126t216.5 46q190 0 320.5 -127.5t130.5 -312.5q0 -51 -17 -117q-2 -6 -14 -47h-778q8 -134 78 -210t198 -76q86 0 145 37.5t105 105.5zM391 594h594
q-8 125 -79 200.5t-187 75.5q-115 0 -202 -75t-126 -201zM666 1229l36 205h205l-37 -205h-204z" />
    <glyph glyph-name="Eogonek" unicode="&#x118;" horiz-adv-x="1208" 
d="M154 0l252 1434h942l-37 -205h-727l-72 -410h686l-37 -205h-686l-72 -409h727l-34 -205q-144 -62 -144 -154q0 -25 17 -43t47 -18h41l-23 -133h-51q-91 0 -143 41.5t-52 111.5q0 42 17.5 79.5t43.5 60.5t47 36.5t36 18.5h-778z" />
    <glyph glyph-name="eogonek" unicode="&#x119;" 
d="M657 -348h-51q-91 0 -142.5 41.5t-51.5 111.5q0 111 118 185q-169 29 -266.5 147.5t-97.5 292.5q0 131 45.5 246.5t121.5 195.5t179.5 126t216.5 46q190 0 320.5 -127.5t130.5 -312.5q0 -51 -17 -117q-2 -6 -14 -47h-778q8 -134 78 -210t198 -76q86 0 145 37.5t105 105.5
h221q-143 -295 -438 -315q-105 -57 -105 -136q0 -25 17 -43t47 -18h41zM391 594h594q-8 125 -79 200.5t-187 75.5q-115 0 -202 -75t-126 -201z" />
    <glyph glyph-name="Ecaron" unicode="&#x11a;" horiz-adv-x="1208" 
d="M154 0l252 1434h942l-37 -205h-727l-72 -410h686l-37 -205h-686l-72 -409h727l-34 -205h-942zM799 1577l-195 297h189l112 -174l174 174h201l-297 -297h-184z" />
    <glyph glyph-name="ecaron" unicode="&#x11b;" 
d="M897 297h221q-71 -151 -192.5 -234t-288.5 -83q-215 0 -343 124t-128 326q0 131 45.5 246.5t121.5 195.5t179.5 126t216.5 46q190 0 320.5 -127.5t130.5 -312.5q0 -51 -17 -117q-2 -6 -14 -47h-778q8 -134 78 -210t198 -76q86 0 145 37.5t105 105.5zM391 594h594
q-8 125 -79 200.5t-187 75.5q-115 0 -202 -75t-126 -201zM676 1188l-195 297h189l112 -174l174 174h201l-297 -297h-184z" />
    <glyph glyph-name="Gcircumflex" unicode="&#x11c;" horiz-adv-x="1576" 
d="M1276 0l8 164h-10q-43 -49 -115 -92q-149 -92 -323 -92q-129 0 -243 47.5t-195.5 130t-129 198.5t-47.5 248q0 184 61.5 344t165.5 270t244.5 173t296.5 63q230 0 393 -134t209 -357h-221q-41 138 -146.5 212t-254.5 74q-105 0 -201 -44t-170 -122.5t-118 -197.5
t-44 -260q0 -198 117 -319.5t303 -121.5q180 0 310.5 102t166.5 277l2 10h-399l31 175h614l-131 -748h-174zM696 1577l297 297h185l194 -297h-188l-113 174l-174 -174h-201z" />
    <glyph glyph-name="gcircumflex" unicode="&#x11d;" horiz-adv-x="1198" 
d="M106 -61h205q0 -75 66.5 -130t189.5 -55q115 0 194.5 67t98.5 175l31 178h-10q-24 -22 -44 -37t-55.5 -35t-82.5 -30.5t-101 -10.5q-192 0 -306 114t-114 306q0 160 70.5 290t187 201.5t252.5 71.5q77 0 140 -14.5t99.5 -37t57 -43t27.5 -38.5h10l41 113h186l-186 -1044
q-33 -188 -166.5 -299t-339.5 -111q-216 0 -333.5 102t-117.5 267zM639 246q140 0 234 99.5t94 258.5q0 117 -69.5 186.5t-186.5 69.5q-140 0 -234 -99.5t-94 -258.5q0 -117 69.5 -186.5t186.5 -69.5zM461 1188l297 297h184l195 -297h-189l-112 174l-174 -174h-201z" />
    <glyph glyph-name="Gbreve" unicode="&#x11e;" horiz-adv-x="1576" 
d="M1276 0l8 164h-10q-43 -49 -115 -92q-149 -92 -323 -92q-129 0 -243 47.5t-195.5 130t-129 198.5t-47.5 248q0 184 61.5 344t165.5 270t244.5 173t296.5 63q230 0 393 -134t209 -357h-221q-41 138 -146.5 212t-254.5 74q-105 0 -201 -44t-170 -122.5t-118 -197.5
t-44 -260q0 -198 117 -319.5t303 -121.5q180 0 310.5 102t166.5 277l2 10h-399l31 175h614l-131 -748h-174zM748 1864h163q0 -62 35.5 -97.5t97.5 -35.5q54 0 97.5 35.5t66.5 97.5h164q-25 -117 -120 -197t-218 -80q-129 0 -207.5 74t-78.5 192v11z" />
    <glyph glyph-name="gbreve" unicode="&#x11f;" horiz-adv-x="1198" 
d="M106 -61h205q0 -75 66.5 -130t189.5 -55q115 0 194.5 67t98.5 175l31 178h-10q-24 -22 -44 -37t-55.5 -35t-82.5 -30.5t-101 -10.5q-192 0 -306 114t-114 306q0 160 70.5 290t187 201.5t252.5 71.5q77 0 140 -14.5t99.5 -37t57 -43t27.5 -38.5h10l41 113h186l-186 -1044
q-33 -188 -166.5 -299t-339.5 -111q-216 0 -333.5 102t-117.5 267zM639 246q140 0 234 99.5t94 258.5q0 117 -69.5 186.5t-186.5 69.5q-140 0 -234 -99.5t-94 -258.5q0 -117 69.5 -186.5t186.5 -69.5zM512 1464h164q0 -62 36 -97.5t97 -35.5q54 0 97.5 35.5t66.5 97.5h164
q-25 -117 -120 -196.5t-218 -79.5q-129 0 -208 74t-79 192v10z" />
    <glyph glyph-name="Gdotaccent" unicode="&#x120;" horiz-adv-x="1576" 
d="M1276 0l8 164h-10q-43 -49 -115 -92q-149 -92 -323 -92q-129 0 -243 47.5t-195.5 130t-129 198.5t-47.5 248q0 184 61.5 344t165.5 270t244.5 173t296.5 63q230 0 393 -134t209 -357h-221q-41 138 -146.5 212t-254.5 74q-105 0 -201 -44t-170 -122.5t-118 -197.5
t-44 -260q0 -198 117 -319.5t303 -121.5q180 0 310.5 102t166.5 277l2 10h-399l31 175h614l-131 -748h-174zM932 1628l37 205h205l-37 -205h-205z" />
    <glyph glyph-name="gdotaccent" unicode="&#x121;" horiz-adv-x="1198" 
d="M106 -61h205q0 -75 66.5 -130t189.5 -55q115 0 194.5 67t98.5 175l31 178h-10q-24 -22 -44 -37t-55.5 -35t-82.5 -30.5t-101 -10.5q-192 0 -306 114t-114 306q0 160 70.5 290t187 201.5t252.5 71.5q77 0 140 -14.5t99.5 -37t57 -43t27.5 -38.5h10l41 113h186l-186 -1044
q-33 -188 -166.5 -299t-339.5 -111q-216 0 -333.5 102t-117.5 267zM639 246q140 0 234 99.5t94 258.5q0 117 -69.5 186.5t-186.5 69.5q-140 0 -234 -99.5t-94 -258.5q0 -117 69.5 -186.5t186.5 -69.5zM686 1229l37 205h205l-37 -205h-205z" />
    <glyph glyph-name="Gcommaaccent" unicode="&#x122;" horiz-adv-x="1576" 
d="M1276 0l8 164h-10q-43 -49 -115 -92q-149 -92 -323 -92q-129 0 -243 47.5t-195.5 130t-129 198.5t-47.5 248q0 184 61.5 344t165.5 270t244.5 173t296.5 63q230 0 393 -134t209 -357h-221q-41 138 -146.5 212t-254.5 74q-105 0 -201 -44t-170 -122.5t-118 -197.5
t-44 -260q0 -198 117 -319.5t303 -121.5q180 0 310.5 102t166.5 277l2 10h-399l31 175h614l-131 -748h-174zM614 -481l131 338h205l-184 -338h-152z" />
    <glyph glyph-name="gcommaaccent" unicode="&#x123;" horiz-adv-x="1198" 
d="M686 1188l135 358h164l-104 -358h-195zM106 -61h205q0 -75 66.5 -130t189.5 -55q115 0 194.5 67t98.5 175l31 178h-10q-24 -22 -44 -37t-55.5 -35t-82.5 -30.5t-101 -10.5q-192 0 -306 114t-114 306q0 160 70.5 290t187 201.5t252.5 71.5q77 0 140 -14.5t99.5 -37t57 -43
t27.5 -38.5h10l41 113h186l-186 -1044q-33 -188 -166.5 -299t-339.5 -111q-216 0 -333.5 102t-117.5 267zM639 246q140 0 234 99.5t94 258.5q0 117 -69.5 186.5t-186.5 69.5q-140 0 -234 -99.5t-94 -258.5q0 -117 69.5 -186.5t186.5 -69.5z" />
    <glyph glyph-name="Hcircumflex" unicode="&#x124;" horiz-adv-x="1464" 
d="M154 0l252 1434h215l-107 -605h727l107 605h215l-252 -1434h-215l108 625h-727l-108 -625h-215zM655 1577l297 297h185l194 -297h-188l-113 174l-174 -174h-201z" />
    <glyph glyph-name="hcircumflex" unicode="&#x125;" horiz-adv-x="1187" 
d="M143 0l252 1434h205l-86 -492h10q48 37 76 51q100 51 205 51q169 0 269 -98t100 -260q0 -78 -9 -113l-100 -573h-205l103 594q6 30 6 51q0 101 -59 158t-167 57q-105 0 -186 -68t-98 -167l-111 -625h-205zM532 1577l297 297h185l194 -297h-188l-113 174l-174 -174h-201z
" />
    <glyph glyph-name="Hbar" unicode="&#x126;" horiz-adv-x="1566" 
d="M205 0l180 1024h-184l35 205h184l37 205h215l-37 -205h727l37 205h215l-37 -205h184l-35 -205h-184l-180 -1024h-215l108 625h-727l-108 -625h-215zM565 829h727l35 195h-727z" />
    <glyph glyph-name="hbar" unicode="&#x127;" horiz-adv-x="1218" 
d="M164 0l192 1096h-163l32 184h164l27 154h205l-27 -154h328l-33 -184h-328l-45 -256h10q48 37 76 51q100 51 207 51q169 0 269 -98t100 -260q0 -78 -9 -113l-84 -471h-204l86 492q6 30 6 51q0 101 -58.5 158t-166.5 57q-104 0 -187 -68.5t-100 -167.5l-92 -522h-205z" />
    <glyph glyph-name="Imacron" unicode="&#x12a;" horiz-adv-x="522" 
d="M154 0l252 1434h215l-252 -1434h-215zM225 1638l29 164h614l-28 -164h-615z" />
    <glyph glyph-name="imacron" unicode="&#x12b;" horiz-adv-x="471" 
d="M133 0l180 1024h205l-180 -1024h-205zM143 1249l29 164h614l-28 -164h-615z" />
    <glyph glyph-name="Ibreve" unicode="&#x12c;" horiz-adv-x="522" 
d="M154 0l252 1434h215l-252 -1434h-215zM246 1864h164q0 -62 36 -97.5t97 -35.5q54 0 97.5 35.5t66.5 97.5h163q-25 -117 -120 -197t-218 -80q-129 0 -207.5 74t-78.5 192v11z" />
    <glyph glyph-name="ibreve" unicode="&#x12d;" horiz-adv-x="471" 
d="M133 0l180 1024h205l-180 -1024h-205zM164 1464h164q0 -62 36 -97.5t97 -35.5q54 0 97.5 35.5t66.5 97.5h163q-25 -117 -119.5 -196.5t-217.5 -79.5q-129 0 -208 74t-79 192v10z" />
    <glyph glyph-name="Iogonek" unicode="&#x12e;" horiz-adv-x="522" 
d="M256 -348h-51q-91 0 -143 41.5t-52 111.5q0 42 17.5 79.5t43.5 60.5t47 36.5t36 18.5l252 1434h215l-252 -1434h-52q-143 -62 -143 -154q0 -25 17 -43t47 -18h41z" />
    <glyph glyph-name="iogonek" unicode="&#x12f;" horiz-adv-x="471" 
d="M236 -348h-52q-91 0 -142.5 41.5t-51.5 111.5q0 42 17.5 79.5t43 60.5t46.5 36.5t36 18.5l180 1024h205l-180 -1024h-41q-143 -62 -143 -154q0 -25 16.5 -43t46.5 -18h41zM338 1219l37 215h225l-37 -215h-225z" />
    <glyph glyph-name="Idot" unicode="&#x130;" horiz-adv-x="522" 
d="M154 0l252 1434h215l-252 -1434h-215zM440 1628l37 205h205l-37 -205h-205z" />
    <glyph glyph-name="dotlessi" unicode="&#x131;" horiz-adv-x="471" 
d="M133 0l180 1024h205l-180 -1024h-205z" />
    <glyph glyph-name="uni0132" unicode="&#x132;" horiz-adv-x="1310" 
d="M154 0l252 1434h215l-252 -1434h-215zM522 0l35 205h334q41 0 73.5 24.5t39.5 69.5l200 1135h215l-211 -1188q-43 -246 -276 -246h-410z" />
    <glyph glyph-name="uni0133" unicode="&#x133;" horiz-adv-x="921" 
d="M133 0l180 1024h205l-180 -1024h-205zM338 1219l37 215h225l-37 -215h-225zM287 -410l32 185h173q49 0 61 61l211 1188h205l-219 -1237q-17 -95 -78 -146t-158 -51h-227zM788 1219l37 215h226l-37 -215h-226z" />
    <glyph glyph-name="Jcircumflex" unicode="&#x134;" horiz-adv-x="808" 
d="M20 0l35 205h334q41 0 73.5 24.5t39.5 69.5l200 1135h216l-211 -1188q-43 -246 -277 -246h-410zM492 1577l296 297h185l194 -297h-188l-113 174l-174 -174h-200z" />
    <glyph glyph-name="jcircumflex" unicode="&#x135;" horiz-adv-x="491" 
d="M-154 -410l33 185h172q50 0 62 61l211 1188h204l-219 -1237q-17 -95 -77.5 -146t-157.5 -51h-228zM111 1188l297 297h184l194 -297h-188l-113 174l-174 -174h-200z" />
    <glyph glyph-name="Kcommaaccent" unicode="&#x136;" horiz-adv-x="1208" 
d="M154 0l252 1434h215l-115 -656l663 656h283l-731 -719l500 -715h-263l-471 676l-118 -676h-215zM410 -481l131 338h204l-184 -338h-151z" />
    <glyph glyph-name="kcommaaccent" unicode="&#x137;" horiz-adv-x="1034" 
d="M143 0l252 1434h205l-156 -881l514 471h259l-564 -514l383 -510h-237l-365 492l-86 -492h-205zM319 -481l132 338h204l-184 -338h-152z" />
    <glyph glyph-name="Lacute" unicode="&#x139;" horiz-adv-x="1095" 
d="M154 0l252 1434h215l-218 -1229h697l-35 -205h-911zM451 1577l256 297h225l-297 -297h-184z" />
    <glyph glyph-name="lacute" unicode="&#x13a;" horiz-adv-x="491" 
d="M143 0l252 1434h205l-252 -1434h-205zM430 1577l256 297h225l-297 -297h-184z" />
    <glyph glyph-name="Lcommaaccent" unicode="&#x13b;" horiz-adv-x="1095" 
d="M154 0l252 1434h215l-218 -1229h697l-35 -205h-911zM389 -481l131 338h205l-184 -338h-152z" />
    <glyph glyph-name="lcommaaccent" unicode="&#x13c;" horiz-adv-x="491" 
d="M143 0l252 1434h205l-252 -1434h-205zM-10 -481l131 338h205l-185 -338h-151z" />
    <glyph glyph-name="Lcaron" unicode="&#x13d;" horiz-adv-x="1095" 
d="M154 0l252 1434h215l-218 -1229h697l-35 -205h-911zM676 1096l131 338h205l-183 -338h-153z" />
    <glyph glyph-name="lcaron" unicode="&#x13e;" horiz-adv-x="645" 
d="M143 0l252 1434h205l-252 -1434h-205zM647 1096l131 338h205l-182 -338h-154z" />
    <glyph glyph-name="Ldot" unicode="&#x13f;" horiz-adv-x="1095" 
d="M809 676l41 235h235l-41 -235h-235zM154 0l252 1434h215l-218 -1229h697l-35 -205h-911z" />
    <glyph glyph-name="ldot" unicode="&#x140;" horiz-adv-x="798" 
d="M635 614l41 236h235l-41 -236h-235zM143 0l252 1434h205l-252 -1434h-205z" />
    <glyph glyph-name="Lslash" unicode="&#x141;" horiz-adv-x="1146" 
d="M205 0l100 573l-174 -61l35 205l176 61l115 656h215l-101 -574l349 123l-35 -205l-350 -123l-80 -450h696l-35 -205h-911z" />
    <glyph glyph-name="lslash" unicode="&#x142;" horiz-adv-x="593" 
d="M195 0l104 592l-166 -60l37 201l162 60l114 641h205l-100 -562l166 60l-37 -201l-162 -59l-119 -672h-204z" />
    <glyph glyph-name="Nacute" unicode="&#x143;" horiz-adv-x="1464" 
d="M154 0l252 1434h311l393 -1117h41l197 1117h215l-252 -1434h-312l-393 1116h-41l-196 -1116h-215zM891 1577l256 297h225l-297 -297h-184z" />
    <glyph glyph-name="nacute" unicode="&#x144;" horiz-adv-x="1177" 
d="M133 0l180 1024h185l6 -82h10q48 37 76 51q100 51 205 51q169 0 268.5 -98t99.5 -260q0 -82 -8 -113l-100 -573h-205l102 594q6 30 6 51q0 101 -58.5 158t-166.5 57q-105 0 -186 -68t-98 -167l-111 -625h-205zM696 1188l256 297h226l-297 -297h-185z" />
    <glyph glyph-name="Ncommaaccent" unicode="&#x145;" horiz-adv-x="1464" 
d="M154 0l252 1434h311l393 -1117h41l197 1117h215l-252 -1434h-312l-393 1116h-41l-196 -1116h-215zM522 -481l131 338h205l-184 -338h-152z" />
    <glyph glyph-name="ncommaaccent" unicode="&#x146;" horiz-adv-x="1177" 
d="M133 0l180 1024h185l6 -82h10q48 37 76 51q100 51 205 51q169 0 268.5 -98t99.5 -260q0 -82 -8 -113l-100 -573h-205l102 594q6 30 6 51q0 101 -58.5 158t-166.5 57q-105 0 -186 -68t-98 -167l-111 -625h-205zM358 -481l131 338h205l-184 -338h-152z" />
    <glyph glyph-name="Ncaron" unicode="&#x147;" horiz-adv-x="1464" 
d="M154 0l252 1434h311l393 -1117h41l197 1117h215l-252 -1434h-312l-393 1116h-41l-196 -1116h-215zM911 1577l-194 297h188l113 -174l174 174h201l-297 -297h-185z" />
    <glyph glyph-name="ncaron" unicode="&#x148;" horiz-adv-x="1177" 
d="M133 0l180 1024h185l6 -82h10q48 37 76 51q100 51 205 51q169 0 268.5 -98t99.5 -260q0 -82 -8 -113l-100 -573h-205l102 594q6 30 6 51q0 101 -58.5 158t-166.5 57q-105 0 -186 -68t-98 -167l-111 -625h-205zM707 1188l-195 297h188l113 -174l174 174h201l-297 -297
h-184z" />
    <glyph glyph-name="napostrophe" unicode="&#x149;" horiz-adv-x="1249" 
d="M205 0l180 1024h184l6 -82h11q48 37 76 51q100 51 204 51q169 0 269 -98t100 -260q0 -82 -8 -113l-101 -573h-204l102 594q6 30 6 51q0 101 -58.5 158t-166.5 57q-105 0 -186.5 -68t-98.5 -167l-110 -625h-205zM213 1157l131 338h205l-182 -338h-154z" />
    <glyph glyph-name="Eng" unicode="&#x14a;" horiz-adv-x="1464" 
d="M154 0l252 1434h311l393 -1117h41l197 1117h215l-285 -1618q-20 -116 -94 -181t-185 -65h-278l37 205h207q43 0 70.5 25.5t35.5 68.5l25 131h-97l-393 1116h-41l-196 -1116h-215z" />
    <glyph glyph-name="eng" unicode="&#x14b;" horiz-adv-x="1177" 
d="M510 -410l35 195h184q38 0 64.5 23t33.5 69l125 717q6 30 6 51q0 101 -58.5 158t-166.5 57q-105 0 -186 -68t-98 -167l-111 -625h-205l180 1024h185l6 -82h10q48 37 76 51q100 51 205 51q169 0 268.5 -98t99.5 -260q0 -82 -8 -113l-131 -737q-44 -246 -276 -246h-238z
" />
    <glyph glyph-name="Omacron" unicode="&#x14c;" horiz-adv-x="1556" 
d="M856 184q105 0 201 44t170 122.5t118 198t44 260.5q0 198 -117 319t-303 121q-105 0 -201 -44t-170 -122.5t-118 -197.5t-44 -260q0 -198 117 -319.5t303 -121.5zM836 -20q-129 0 -243 47.5t-195.5 130t-129 198.5t-47.5 248q0 184 61.5 344t165.5 270t244.5 173
t296.5 63q129 0 243 -47.5t195.5 -130t129 -199t47.5 -248.5q0 -184 -61.5 -343.5t-165.5 -269.5t-244.5 -173t-296.5 -63zM748 1638l28 164h615l-29 -164h-614z" />
    <glyph glyph-name="omacron" unicode="&#x14d;" horiz-adv-x="1187" 
d="M647 164q143 0 245.5 115t102.5 294q0 130 -76 208.5t-200 78.5q-143 0 -245.5 -115t-102.5 -294q0 -130 76 -208.5t200 -78.5zM637 -20q-215 0 -343 124t-128 326q0 131 45.5 246.5t121.5 195.5t179.5 126t216.5 46q213 0 342 -124t129 -326q0 -131 -45.5 -246.5
t-121.5 -195.5t-179.5 -126t-216.5 -46zM481 1249l29 164h614l-28 -164h-615z" />
    <glyph glyph-name="Obreve" unicode="&#x14e;" horiz-adv-x="1556" 
d="M856 184q105 0 201 44t170 122.5t118 198t44 260.5q0 198 -117 319t-303 121q-105 0 -201 -44t-170 -122.5t-118 -197.5t-44 -260q0 -198 117 -319.5t303 -121.5zM836 -20q-129 0 -243 47.5t-195.5 130t-129 198.5t-47.5 248q0 184 61.5 344t165.5 270t244.5 173
t296.5 63q129 0 243 -47.5t195.5 -130t129 -199t47.5 -248.5q0 -184 -61.5 -343.5t-165.5 -269.5t-244.5 -173t-296.5 -63zM748 1864h163q0 -62 35.5 -97.5t97.5 -35.5q54 0 97.5 35.5t66.5 97.5h164q-25 -117 -120 -197t-218 -80q-129 0 -207.5 74t-78.5 192v11z" />
    <glyph glyph-name="obreve" unicode="&#x14f;" horiz-adv-x="1187" 
d="M647 164q143 0 245.5 115t102.5 294q0 130 -76 208.5t-200 78.5q-143 0 -245.5 -115t-102.5 -294q0 -130 76 -208.5t200 -78.5zM637 -20q-215 0 -343 124t-128 326q0 131 45.5 246.5t121.5 195.5t179.5 126t216.5 46q213 0 342 -124t129 -326q0 -131 -45.5 -246.5
t-121.5 -195.5t-179.5 -126t-216.5 -46zM492 1464h163q0 -62 35.5 -97.5t97.5 -35.5q54 0 97.5 35.5t66.5 97.5h164q-25 -117 -120 -196.5t-218 -79.5q-129 0 -207.5 74t-78.5 192v10z" />
    <glyph glyph-name="Ohungarumlaut" unicode="&#x150;" horiz-adv-x="1556" 
d="M856 184q105 0 201 44t170 122.5t118 198t44 260.5q0 198 -117 319t-303 121q-105 0 -201 -44t-170 -122.5t-118 -197.5t-44 -260q0 -198 117 -319.5t303 -121.5zM836 -20q-129 0 -243 47.5t-195.5 130t-129 198.5t-47.5 248q0 184 61.5 344t165.5 270t244.5 173
t296.5 63q129 0 243 -47.5t195.5 -130t129 -199t47.5 -248.5q0 -184 -61.5 -343.5t-165.5 -269.5t-244.5 -173t-296.5 -63zM768 1577l256 297h205l-287 -297h-174zM1116 1577l256 297h205l-287 -297h-174z" />
    <glyph glyph-name="ohungarumlaut" unicode="&#x151;" horiz-adv-x="1187" 
d="M647 164q143 0 245.5 115t102.5 294q0 130 -76 208.5t-200 78.5q-143 0 -245.5 -115t-102.5 -294q0 -130 76 -208.5t200 -78.5zM637 -20q-215 0 -343 124t-128 326q0 131 45.5 246.5t121.5 195.5t179.5 126t216.5 46q213 0 342 -124t129 -326q0 -131 -45.5 -246.5
t-121.5 -195.5t-179.5 -126t-216.5 -46zM512 1188l256 297h205l-287 -297h-174zM860 1188l256 297h205l-287 -297h-174z" />
    <glyph glyph-name="OE" unicode="&#x152;" horiz-adv-x="2324" 
d="M1204 0l25 143q-70 -67 -183.5 -115t-230.5 -48q-263 0 -428.5 171t-165.5 453q0 180 62.5 339.5t166.5 270.5t242.5 175.5t286.5 64.5q142 0 263.5 -58.5t178.5 -156.5l35 195h942l-37 -205h-727l-71 -410h686l-37 -205h-686l-72 -409h727l-35 -205h-942zM815 184
q103 0 198 45t166.5 126t114.5 201.5t43 262.5q0 197 -107 313.5t-272 116.5q-103 0 -198 -45t-166.5 -126t-114.5 -201.5t-43 -262.5q0 -197 107 -313.5t272 -116.5z" />
    <glyph glyph-name="oe" unicode="&#x153;" horiz-adv-x="1925" 
d="M1655 297h221q-70 -150 -191 -233.5t-280 -83.5q-129 0 -228 50t-161 144q-79 -93 -181.5 -143.5t-218.5 -50.5q-209 0 -329.5 120.5t-120.5 329.5q0 135 43 251t117 195t173 123.5t210 44.5q129 0 226 -50.5t152 -143.5q78 92 185.5 143t224.5 51q185 0 312.5 -128
t127.5 -312q0 -55 -16 -117q-2 -6 -14 -47h-758q8 -133 76.5 -209.5t189.5 -76.5q81 0 137.5 37.5t102.5 105.5zM627 164q136 0 231.5 112t95.5 297q0 138 -68.5 212.5t-187.5 74.5q-136 0 -231.5 -112t-95.5 -297q0 -138 68.5 -212.5t187.5 -74.5zM1169 594h574
q-8 127 -75 207t-181 80q-104 0 -192.5 -81t-125.5 -206z" />
    <glyph glyph-name="Racute" unicode="&#x154;" horiz-adv-x="1331" 
d="M154 0l252 1434h649q143 0 240.5 -108t97.5 -282q0 -112 -39 -212t-104 -169.5t-151.5 -110t-180.5 -40.5h-84l421 -512h-272l-422 512h-102l-90 -512h-215zM494 717h432q100 0 176 85t76 212q0 95 -50.5 155t-119.5 60h-424zM799 1577l256 297h225l-297 -297h-184z" />
    <glyph glyph-name="racute" unicode="&#x155;" horiz-adv-x="737" 
d="M133 0l180 1024h174l5 -92h10l11 11l13.5 13.5t14 13t17.5 14t19 12t23 11.5t25 8.5t29 6.5t32 2h211l-33 -184h-194q-185 0 -221 -197l-111 -643h-205zM543 1188l256 297h225l-297 -297h-184z" />
    <glyph glyph-name="Rcommaaccent" unicode="&#x156;" horiz-adv-x="1331" 
d="M154 0l252 1434h649q143 0 240.5 -108t97.5 -282q0 -112 -39 -212t-104 -169.5t-151.5 -110t-180.5 -40.5h-84l421 -512h-272l-422 512h-102l-90 -512h-215zM494 717h432q100 0 176 85t76 212q0 95 -50.5 155t-119.5 60h-424zM440 -481l131 338h205l-184 -338h-152z" />
    <glyph glyph-name="rcommaaccent" unicode="&#x157;" horiz-adv-x="737" 
d="M133 0l180 1024h174l5 -92h10l11 11l13.5 13.5t14 13t17.5 14t19 12t23 11.5t25 8.5t29 6.5t32 2h211l-33 -184h-194q-185 0 -221 -197l-111 -643h-205zM-10 -481l131 338h205l-185 -338h-151z" />
    <glyph glyph-name="Rcaron" unicode="&#x158;" horiz-adv-x="1331" 
d="M154 0l252 1434h649q143 0 240.5 -108t97.5 -282q0 -112 -39 -212t-104 -169.5t-151.5 -110t-180.5 -40.5h-84l421 -512h-272l-422 512h-102l-90 -512h-215zM494 717h432q100 0 176 85t76 212q0 95 -50.5 155t-119.5 60h-424zM829 1577l-194 297h188l113 -174l174 174
h201l-297 -297h-185z" />
    <glyph glyph-name="rcaron" unicode="&#x159;" horiz-adv-x="737" 
d="M133 0l180 1024h174l5 -92h10l11 11l13.5 13.5t14 13t17.5 14t19 12t23 11.5t25 8.5t29 6.5t32 2h211l-33 -184h-194q-185 0 -221 -197l-111 -643h-205zM543 1188l-195 297h189l112 -174l174 174h201l-297 -297h-184z" />
    <glyph glyph-name="Sacute" unicode="&#x15a;" horiz-adv-x="1280" 
d="M156 440h213v-10q0 -100 96.5 -173t271.5 -73q147 0 227 61.5t80 153.5q0 70 -48.5 117.5t-155.5 77.5l-287 82q-136 40 -196 118t-60 199q0 196 144.5 328.5t377.5 132.5q130 0 233.5 -32.5t168 -89t98 -130t33.5 -158.5q0 -5 -1 -16t-1 -16q-2 -6 -2 -19h-218v6
q0 3 1.5 7.5t1.5 7.5q0 104 -84 169.5t-240 65.5q-133 0 -215 -67.5t-82 -157.5q0 -115 164 -164l287 -82q160 -47 228.5 -126.5t68.5 -211.5q0 -205 -144 -332.5t-399 -127.5q-134 0 -243 33.5t-178 91.5t-105.5 133.5t-36.5 160.5v29q0 10 2 12zM799 1577l256 297h225
l-297 -297h-184z" />
    <glyph glyph-name="sacute" unicode="&#x15b;" horiz-adv-x="993" 
d="M115 307h204q0 -56 64 -104.5t182 -48.5q104 0 154.5 39t50.5 104q0 45 -27.5 76t-105.5 47l-174 31q-126 22 -186 92t-60 174q0 139 103.5 233t295.5 94q206 0 318.5 -90.5t112.5 -226.5h-205q0 56 -54 99.5t-172 43.5q-94 0 -144 -35.5t-50 -86.5q0 -50 29.5 -80
t103.5 -43l174 -31q125 -22 185.5 -96.5t60.5 -180.5q0 -151 -108 -244t-302 -93q-98 0 -177.5 22t-129 56.5t-83 79.5t-47 87t-13.5 82zM573 1188l256 297h226l-297 -297h-185z" />
    <glyph glyph-name="Scircumflex" unicode="&#x15c;" horiz-adv-x="1280" 
d="M156 440h213v-10q0 -100 96.5 -173t271.5 -73q147 0 227 61.5t80 153.5q0 70 -48.5 117.5t-155.5 77.5l-287 82q-136 40 -196 118t-60 199q0 196 144.5 328.5t377.5 132.5q130 0 233.5 -32.5t168 -89t98 -130t33.5 -158.5q0 -5 -1 -16t-1 -16q-2 -6 -2 -19h-218v6
q0 3 1.5 7.5t1.5 7.5q0 104 -84 169.5t-240 65.5q-133 0 -215 -67.5t-82 -157.5q0 -115 164 -164l287 -82q160 -47 228.5 -126.5t68.5 -211.5q0 -205 -144 -332.5t-399 -127.5q-134 0 -243 33.5t-178 91.5t-105.5 133.5t-36.5 160.5v29q0 10 2 12zM543 1577l297 297h184
l195 -297h-189l-112 174l-175 -174h-200z" />
    <glyph glyph-name="scircumflex" unicode="&#x15d;" horiz-adv-x="993" 
d="M115 307h204q0 -56 64 -104.5t182 -48.5q104 0 154.5 39t50.5 104q0 45 -27.5 76t-105.5 47l-174 31q-126 22 -186 92t-60 174q0 139 103.5 233t295.5 94q206 0 318.5 -90.5t112.5 -226.5h-205q0 56 -54 99.5t-172 43.5q-94 0 -144 -35.5t-50 -86.5q0 -50 29.5 -80
t103.5 -43l174 -31q125 -22 185.5 -96.5t60.5 -180.5q0 -151 -108 -244t-302 -93q-98 0 -177.5 22t-129 56.5t-83 79.5t-47 87t-13.5 82zM348 1188l297 297h184l195 -297h-188l-113 174l-174 -174h-201z" />
    <glyph glyph-name="Scedilla" unicode="&#x15e;" horiz-adv-x="1280" 
d="M406 -440l20 133h106q45 0 69 18t24 43q0 27 -19 44.5t-63 17.5h-64l15 82l59 96q-191 36 -295 146.5t-104 258.5v29q0 10 2 12h213v-10q0 -100 96.5 -173t271.5 -73q147 0 227 61.5t80 153.5q0 70 -48.5 117.5t-155.5 77.5l-287 82q-136 40 -196 118t-60 199
q0 196 144.5 328.5t377.5 132.5q130 0 233.5 -32.5t168 -89t98 -130t33.5 -158.5q0 -5 -1 -16t-1 -16q-2 -6 -2 -19h-218v6q0 3 1.5 7.5t1.5 7.5q0 104 -84 169.5t-240 65.5q-133 0 -215 -67.5t-82 -157.5q0 -115 164 -164l287 -82q160 -47 228.5 -126.5t68.5 -211.5
q0 -205 -144 -332.5t-399 -127.5h-19l-51 -82q49 -8 85 -48.5t36 -105.5q0 -80 -58.5 -132t-158.5 -52h-145z" />
    <glyph glyph-name="scedilla" unicode="&#x15f;" horiz-adv-x="993" 
d="M274 -440l21 133h106q45 0 69 18t24 43q0 27 -19 44.5t-63 17.5h-64l14 82l60 96q-82 15 -144 51.5t-96 82t-50.5 91t-16.5 88.5h204q0 -56 64 -104.5t182 -48.5q104 0 154.5 39t50.5 104q0 45 -27.5 76t-105.5 47l-174 31q-126 22 -186 92t-60 174q0 139 103.5 233
t295.5 94q206 0 318.5 -90.5t112.5 -226.5h-205q0 56 -54 99.5t-172 43.5q-94 0 -144 -35.5t-50 -86.5q0 -50 29.5 -80t103.5 -43l174 -31q125 -22 185.5 -96.5t60.5 -180.5q0 -151 -107 -243.5t-301 -93.5l-51 -82q49 -8 85 -48.5t36 -105.5q0 -80 -58.5 -132t-158.5 -52
h-146z" />
    <glyph glyph-name="Scaron" unicode="&#x160;" horiz-adv-x="1280" 
d="M156 440h213v-10q0 -100 96.5 -173t271.5 -73q147 0 227 61.5t80 153.5q0 70 -48.5 117.5t-155.5 77.5l-287 82q-136 40 -196 118t-60 199q0 196 144.5 328.5t377.5 132.5q130 0 233.5 -32.5t168 -89t98 -130t33.5 -158.5q0 -5 -1 -16t-1 -16q-2 -6 -2 -19h-218v6
q0 3 1.5 7.5t1.5 7.5q0 104 -84 169.5t-240 65.5q-133 0 -215 -67.5t-82 -157.5q0 -115 164 -164l287 -82q160 -47 228.5 -126.5t68.5 -211.5q0 -205 -144 -332.5t-399 -127.5q-134 0 -243 33.5t-178 91.5t-105.5 133.5t-36.5 160.5v29q0 10 2 12zM799 1577l-195 297h189
l112 -174l174 174h201l-297 -297h-184z" />
    <glyph glyph-name="scaron" unicode="&#x161;" horiz-adv-x="993" 
d="M115 307h204q0 -56 64 -104.5t182 -48.5q104 0 154.5 39t50.5 104q0 45 -27.5 76t-105.5 47l-174 31q-126 22 -186 92t-60 174q0 139 103.5 233t295.5 94q206 0 318.5 -90.5t112.5 -226.5h-205q0 56 -54 99.5t-172 43.5q-94 0 -144 -35.5t-50 -86.5q0 -50 29.5 -80
t103.5 -43l174 -31q125 -22 185.5 -96.5t60.5 -180.5q0 -151 -108 -244t-302 -93q-98 0 -177.5 22t-129 56.5t-83 79.5t-47 87t-13.5 82zM584 1188l-195 297h189l112 -174l174 174h201l-297 -297h-184z" />
    <glyph glyph-name="uni0162" unicode="&#x162;" horiz-adv-x="1198" 
d="M397 -430l21 133h106q45 0 68.5 18t23.5 43q0 62 -81 62h-64l14 82l58 92h-62l215 1229h-450l37 205h1116l-37 -205h-451l-215 -1229l-57 -92q49 -8 85 -48.5t36 -105.5q0 -80 -58.5 -132t-158.5 -52h-146z" />
    <glyph glyph-name="uni0163" unicode="&#x163;" horiz-adv-x="747" 
d="M221 -440l21 133h106q45 0 68.5 18t23.5 43q0 27 -19 44.5t-63 17.5h-63l14 82l68 108q-60 17 -93.5 61t-33.5 107q0 32 6 62l104 593h-163l34 195h164l49 287h205l-49 -287h236l-35 -195h-236l-102 -573q-2 -2 -2 -6v-14q0 -52 51 -52h174l-31 -184h-129l-63 -102
q49 -8 85 -48.5t36 -105.5q0 -80 -58.5 -132t-158.5 -52h-146z" />
    <glyph glyph-name="Tcaron" unicode="&#x164;" horiz-adv-x="1198" 
d="M481 0l215 1229h-450l37 205h1116l-37 -205h-451l-215 -1229h-215zM758 1577l-195 297h189l112 -174l174 174h201l-297 -297h-184z" />
    <glyph glyph-name="tcaron" unicode="&#x165;" horiz-adv-x="827" 
d="M256 236l104 593h-163l34 195h164l49 287h205l-49 -287h236l-35 -195h-236l-102 -573q-2 -2 -2 -6v-14q0 -52 51 -52h174l-31 -184h-219q-86 0 -136 47.5t-50 126.5q0 32 6 62zM829 1106l132 338h204l-182 -338h-154z" />
    <glyph glyph-name="Tbar" unicode="&#x166;" horiz-adv-x="1198" 
d="M481 0l140 799h-308l37 205h307l39 225h-450l37 205h1116l-37 -205h-451l-39 -225h308l-37 -205h-307l-140 -799h-215z" />
    <glyph glyph-name="tbar" unicode="&#x167;" horiz-adv-x="747" 
d="M256 236l43 245h-164l33 185h164l30 174h-163l32 184h164l51 307h205l-51 -307h236l-33 -184h-236l-32 -174h237l-33 -185h-237l-39 -225q-2 -2 -2 -6v-14q0 -52 51 -52h174l-31 -184h-219q-86 0 -136 47.5t-50 126.5q0 32 6 62z" />
    <glyph glyph-name="Umacron" unicode="&#x16a;" horiz-adv-x="1433" 
d="M238 625l143 809h215l-147 -830q-13 -67 -13 -92q0 -154 87 -241t241 -87q141 0 251.5 100t139.5 259l158 891h215l-162 -910q-46 -248 -215.5 -396t-407.5 -148q-236 0 -379 138.5t-143 362.5q0 57 17 144zM666 1638l28 164h615l-29 -164h-614z" />
    <glyph glyph-name="umacron" unicode="&#x16b;" horiz-adv-x="1187" 
d="M207 451l100 573h205l-102 -594q-7 -35 -7 -51q0 -101 59 -158t167 -57q106 0 184.5 67t99.5 168l111 625h205l-180 -1024h-185l-6 82h-10q-48 -37 -76 -51q-93 -51 -205 -51q-169 0 -268.5 98t-99.5 260q0 82 8 113zM492 1249l28 164h615l-29 -164h-614z" />
    <glyph glyph-name="Ubreve" unicode="&#x16c;" horiz-adv-x="1433" 
d="M238 625l143 809h215l-147 -830q-13 -67 -13 -92q0 -154 87 -241t241 -87q141 0 251.5 100t139.5 259l158 891h215l-162 -910q-46 -248 -215.5 -396t-407.5 -148q-236 0 -379 138.5t-143 362.5q0 57 17 144zM686 1864h164q0 -62 36 -97.5t97 -35.5q54 0 97.5 35.5
t66.5 97.5h164q-25 -117 -120 -197t-218 -80q-129 0 -208 74t-79 192v11z" />
    <glyph glyph-name="ubreve" unicode="&#x16d;" horiz-adv-x="1187" 
d="M207 451l100 573h205l-102 -594q-7 -35 -7 -51q0 -101 59 -158t167 -57q106 0 184.5 67t99.5 168l111 625h205l-180 -1024h-185l-6 82h-10q-48 -37 -76 -51q-93 -51 -205 -51q-169 0 -268.5 98t-99.5 260q0 82 8 113zM502 1464h164q0 -62 36 -97.5t97 -35.5
q54 0 97.5 35.5t66.5 97.5h163q-25 -117 -120 -196.5t-218 -79.5q-129 0 -207.5 74t-78.5 192v10z" />
    <glyph glyph-name="Uring" unicode="&#x16e;" horiz-adv-x="1433" 
d="M238 625l143 809h215l-147 -830q-13 -67 -13 -92q0 -154 87 -241t241 -87q141 0 251.5 100t139.5 259l158 891h215l-162 -910q-46 -248 -215.5 -396t-407.5 -148q-236 0 -379 138.5t-143 362.5q0 57 17 144zM973 1659q32 0 57 27.5t25 64.5q0 31 -20.5 51.5t-51.5 20.5
q-32 0 -57 -27.5t-25 -64.5q0 -31 20.5 -51.5t51.5 -20.5zM963 1546q-85 0 -135 47.5t-50 126.5q0 91 63.5 153t151.5 62q85 0 135 -47.5t50 -126.5q0 -91 -63.5 -153t-151.5 -62z" />
    <glyph glyph-name="uring" unicode="&#x16f;" horiz-adv-x="1187" 
d="M207 451l100 573h205l-102 -594q-7 -35 -7 -51q0 -101 59 -158t167 -57q106 0 184.5 67t99.5 168l111 625h205l-180 -1024h-185l-6 82h-10q-48 -37 -76 -51q-93 -51 -205 -51q-169 0 -268.5 98t-99.5 260q0 82 8 113zM788 1270q32 0 57 27.5t25 64.5q0 31 -20 51.5
t-51 20.5t-56.5 -28t-25.5 -65q0 -31 20 -51t51 -20zM778 1157q-85 0 -134.5 47.5t-49.5 126.5q0 91 63.5 153t151.5 62q85 0 134.5 -47.5t49.5 -126.5q0 -91 -63.5 -153t-151.5 -62z" />
    <glyph glyph-name="Uhungarumlaut" unicode="&#x170;" horiz-adv-x="1433" 
d="M238 625l143 809h215l-147 -830q-13 -67 -13 -92q0 -154 87 -241t241 -87q141 0 251.5 100t139.5 259l158 891h215l-162 -910q-46 -248 -215.5 -396t-407.5 -148q-236 0 -379 138.5t-143 362.5q0 57 17 144zM686 1577l256 297h205l-287 -297h-174zM1034 1577l256 297h205
l-287 -297h-174z" />
    <glyph glyph-name="uhungarumlaut" unicode="&#x171;" horiz-adv-x="1187" 
d="M207 451l100 573h205l-102 -594q-7 -35 -7 -51q0 -101 59 -158t167 -57q106 0 184.5 67t99.5 168l111 625h205l-180 -1024h-185l-6 82h-10q-48 -37 -76 -51q-93 -51 -205 -51q-169 0 -268.5 98t-99.5 260q0 82 8 113zM502 1188l256 297h205l-287 -297h-174zM850 1188
l256 297h205l-287 -297h-174z" />
    <glyph glyph-name="Uogonek" unicode="&#x172;" horiz-adv-x="1433" 
d="M797 -348h-52q-91 0 -142.5 41.5t-51.5 111.5q0 61 34 107.5t77 73.5q-202 25 -320.5 158.5t-118.5 336.5q0 57 17 144l143 809h215l-147 -830q-13 -67 -13 -92q0 -154 87 -241t241 -87q141 0 251.5 100t139.5 259l158 891h215l-162 -910q-39 -226 -185.5 -369.5
t-357.5 -168.5q-110 -62 -110 -140q0 -25 16.5 -43t46.5 -18h41z" />
    <glyph glyph-name="uogonek" unicode="&#x173;" horiz-adv-x="1187" 
d="M967 -348h-52q-91 0 -142.5 41.5t-51.5 111.5q0 42 17.5 79.5t43 60.5t46.5 36.5t36 18.5l-6 82h-10q-48 -37 -76 -51q-93 -51 -205 -51q-169 0 -268.5 98t-99.5 260q0 82 8 113l100 573h205l-102 -594q-7 -35 -7 -51q0 -101 59 -158t167 -57q106 0 184.5 67t99.5 168
l111 625h205l-180 -1024h-21q-143 -62 -143 -154q0 -25 16.5 -43t46.5 -18h41z" />
    <glyph glyph-name="Wcircumflex" unicode="&#x174;" horiz-adv-x="2007" 
d="M358 0l-106 1434h229l78 -1127h41l496 1127h266l98 -1127h41l475 1127h242l-610 -1434h-328l-88 1075h-41l-465 -1075h-328zM901 1577l297 297h184l195 -297h-188l-113 174l-174 -174h-201z" />
    <glyph glyph-name="wcircumflex" unicode="&#x175;" horiz-adv-x="1617" 
d="M276 0l-96 1024h209l60 -758h40l336 758h275l65 -758h41l330 758h221l-457 -1024h-296l-66 737h-41l-324 -737h-297zM635 1188l297 297h184l195 -297h-189l-112 174l-174 -174h-201z" />
    <glyph glyph-name="Ycircumflex" unicode="&#x176;" horiz-adv-x="1239" 
d="M492 0l90 512l-361 922h232l260 -666h41l483 666h244l-684 -922l-90 -512h-215zM512 1577l297 297h184l195 -297h-189l-112 174l-174 -174h-201z" />
    <glyph glyph-name="ycircumflex" unicode="&#x177;" horiz-adv-x="1054" 
d="M39 -410l33 185h192q51 0 82 55l57 107l-223 1087h209l160 -778h41l403 778h221l-684 -1280q-43 -81 -98 -117.5t-145 -36.5h-248zM358 1188l297 297h185l194 -297h-188l-113 174l-174 -174h-201z" />
    <glyph glyph-name="Ydieresis" unicode="&#x178;" horiz-adv-x="1239" 
d="M492 0l90 512l-361 922h232l260 -666h41l483 666h244l-684 -922l-90 -512h-215zM563 1628l37 205h205l-37 -205h-205zM932 1628l37 205h205l-37 -205h-205z" />
    <glyph glyph-name="Zacute" unicode="&#x179;" horiz-adv-x="1208" 
d="M72 0l30 184l947 1045h-752l37 205h1044l-32 -185l-947 -1044h772l-34 -205h-1065zM748 1577l256 297h225l-297 -297h-184z" />
    <glyph glyph-name="zacute" unicode="&#x17a;" horiz-adv-x="931" 
d="M61 0l31 184l641 645h-516l35 195h788l-32 -184l-641 -645h536l-33 -195h-809zM553 1188l256 297h225l-297 -297h-184z" />
    <glyph glyph-name="Zdotaccent" unicode="&#x17b;" horiz-adv-x="1208" 
d="M72 0l30 184l947 1045h-752l37 205h1044l-32 -185l-947 -1044h772l-34 -205h-1065zM758 1628l37 205h204l-36 -205h-205z" />
    <glyph glyph-name="zdotaccent" unicode="&#x17c;" horiz-adv-x="931" 
d="M61 0l31 184l641 645h-516l35 195h788l-32 -184l-641 -645h536l-33 -195h-809zM563 1229l37 205h205l-37 -205h-205z" />
    <glyph glyph-name="Zcaron" unicode="&#x17d;" horiz-adv-x="1208" 
d="M72 0l30 184l947 1045h-752l37 205h1044l-32 -185l-947 -1044h772l-34 -205h-1065zM758 1577l-195 297h189l112 -174l174 174h201l-297 -297h-184z" />
    <glyph glyph-name="zcaron" unicode="&#x17e;" horiz-adv-x="931" 
d="M61 0l31 184l641 645h-516l35 195h788l-32 -184l-641 -645h536l-33 -195h-809zM573 1188l-194 297h188l113 -174l174 174h201l-297 -297h-185z" />
    <glyph glyph-name="uni018F" unicode="&#x18f;" horiz-adv-x="1542" 
d="M236 737l12 72h1126q0 198 -117 319t-303 121q-131 0 -247 -67.5t-189 -188.5h-231q94 212 279.5 336.5t408.5 124.5q172 0 312.5 -81t221 -224.5t80.5 -319.5q0 -184 -61.5 -343.5t-165.5 -269.5t-244.5 -173t-296.5 -63q-266 0 -433 168t-167 436q0 76 15 153z
M1352 625h-918q-2 -2 -2 -13v-28q0 -170 117 -285t293 -115q177 0 319.5 118.5t190.5 322.5z" />
    <glyph glyph-name="florin" unicode="&#x192;" horiz-adv-x="829" 
d="M-205 -410l74 185h125q68 0 102 88l322 813h-187l74 184h187l135 348q36 94 112.5 149.5t178.5 55.5h210l-71 -174h-125q-77 0 -109 -82l-114 -297h211l-74 -184h-211l-344 -875q-82 -211 -293 -211h-203z" />
    <glyph glyph-name="Aringacute" unicode="&#x1fa;" horiz-adv-x="1372" 
d="M1001 1905l107 123h192l-163 -164q61 -49 61 -133q0 -91 -63.5 -153t-151.5 -62q-85 0 -134.5 47.5t-49.5 126.5q0 88 59.5 149t142.5 66zM993 1628q32 0 57 27.5t25 64.5q0 31 -20 51.5t-51 20.5q-32 0 -57 -27.5t-25 -64.5q0 -31 20 -51.5t51 -20.5zM20 0l775 1434h327
l271 -1434h-230l-63 338h-656l-182 -338h-242zM549 532h512l-119 656h-41z" />
    <glyph glyph-name="aringacute" unicode="&#x1fb;" horiz-adv-x="1095" 
d="M807 1516l106 122h193l-164 -163q62 -50 62 -134q0 -91 -64 -153t-152 -62q-85 0 -134.5 47.5t-49.5 126.5q0 88 60 149.5t143 66.5zM799 1239q32 0 57 27.5t25 64.5q0 31 -20.5 51.5t-51.5 20.5q-32 0 -57 -27.5t-25 -64.5q0 -31 20.5 -51.5t51.5 -20.5zM848 410l10 61
h-287q-105 0 -160 -51t-55 -133q0 -63 49 -98t146 -35q122 0 200 69t97 187zM807 0l-2 92h-10q-35 -35 -78 -57q-90 -55 -217 -55q-165 0 -256.5 79.5t-91.5 206.5q0 171 109 270t300 99h326l4 20q2 6 2 31q0 87 -55 135.5t-154 48.5q-87 0 -141 -46t-70 -97h-205
q32 129 145.5 223t280.5 94q193 0 298.5 -92t105.5 -245q0 -36 -11 -93l-106 -614h-174z" />
    <glyph glyph-name="AEacute" unicode="&#x1fc;" horiz-adv-x="1925" 
d="M-31 0l877 1434h1218l-36 -205h-728l-71 -410h686l-37 -205h-686l-72 -409h727l-35 -205h-942l60 338h-514l-205 -338h-242zM532 532h431l122 697h-127zM1178 1577l256 297h225l-297 -297h-184z" />
    <glyph glyph-name="aeacute" unicode="&#x1fd;" horiz-adv-x="1843" 
d="M1094 604h573q-8 126 -75 201.5t-181 75.5q-107 0 -192.5 -76t-124.5 -201zM848 410l6 41h-287q-101 0 -156 -46t-55 -118q0 -58 50 -95.5t145 -37.5q122 0 201 69t96 187zM557 614h326l8 41q2 6 2 31q0 87 -55 135.5t-154 48.5q-87 0 -141 -46t-70 -97h-205
q32 129 145.5 223t280.5 94q260 0 359 -163q166 163 368 163q184 0 312.5 -125.5t128.5 -304.5q0 -54 -17 -120l-14 -43h-758q8 -135 77 -216t189 -81q81 0 137.5 37.5t102.5 105.5h221q-70 -150 -191 -233.5t-280 -83.5q-263 0 -399 204q-44 -55 -109 -102
q-144 -102 -321 -102q-165 0 -256.5 79.5t-91.5 206.5q0 162 107.5 255t297.5 93zM993 1188l256 297h226l-297 -297h-185z" />
    <glyph glyph-name="Oslashacute" unicode="&#x1fe;" horiz-adv-x="1556" 
d="M248 -72l155 224q-182 179 -182 452q0 184 61.5 344t165.5 270t244.5 173t296.5 63t279 -63l82 114h231l-158 -225q181 -181 181 -451q0 -184 -61.5 -343.5t-165.5 -269.5t-244.5 -173t-296.5 -63q-149 0 -277 61l-80 -113h-231zM530 332l615 882q-84 35 -176 35
q-105 0 -201 -44t-170 -122.5t-118 -197.5t-44 -260q0 -175 94 -293zM1296 1098l-614 -881q79 -33 174 -33q105 0 201 44t170 122.5t118 198t44 260.5q0 173 -93 289zM932 1577l256 297h225l-297 -297h-184z" />
    <glyph glyph-name="oslashacute" unicode="&#x1ff;" horiz-adv-x="1187" 
d="M166 -72l127 178q-125 125 -125 324q0 131 45.5 246.5t121.5 195.5t179.5 126t216.5 46q118 0 211 -40l66 92h198l-129 -181q125 -125 125 -321q0 -131 -45.5 -246.5t-121.5 -195.5t-179.5 -126t-216.5 -46q-122 0 -211 38l-63 -90h-199zM418 279l407 565q-56 16 -104 16
q-143 0 -245.5 -115t-102.5 -294q0 -101 45 -172zM952 743l-407 -563q35 -16 104 -16q143 0 245.5 115t102.5 294q0 99 -45 170zM666 1188l256 297h225l-297 -297h-184z" />
    <glyph glyph-name="Scommaaccent" unicode="&#x218;" horiz-adv-x="1280" 
d="M156 440h213v-10q0 -100 96.5 -173t271.5 -73q147 0 227 61.5t80 153.5q0 70 -48.5 117.5t-155.5 77.5l-287 82q-136 40 -196 118t-60 199q0 196 144.5 328.5t377.5 132.5q130 0 233.5 -32.5t168 -89t98 -130t33.5 -158.5q0 -5 -1 -16t-1 -16q-2 -6 -2 -19h-218v6
q0 3 1.5 7.5t1.5 7.5q0 104 -84 169.5t-240 65.5q-133 0 -215 -67.5t-82 -157.5q0 -115 164 -164l287 -82q160 -47 228.5 -126.5t68.5 -211.5q0 -205 -144 -332.5t-399 -127.5q-134 0 -243 33.5t-178 91.5t-105.5 133.5t-36.5 160.5v29q0 10 2 12zM432 -481l131 338h205
l-184 -338h-152z" />
    <glyph glyph-name="scommaaccent" unicode="&#x219;" horiz-adv-x="993" 
d="M115 307h204q0 -56 64 -104.5t182 -48.5q104 0 154.5 39t50.5 104q0 45 -27.5 76t-105.5 47l-174 31q-126 22 -186 92t-60 174q0 139 103.5 233t295.5 94q206 0 318.5 -90.5t112.5 -226.5h-205q0 56 -54 99.5t-172 43.5q-94 0 -144 -35.5t-50 -86.5q0 -50 29.5 -80
t103.5 -43l174 -31q125 -22 185.5 -96.5t60.5 -180.5q0 -151 -108 -244t-302 -93q-98 0 -177.5 22t-129 56.5t-83 79.5t-47 87t-13.5 82zM276 -481l132 338h204l-184 -338h-152z" />
    <glyph glyph-name="uni021A" unicode="&#x21a;" horiz-adv-x="1198" 
d="M481 0l215 1229h-450l37 205h1116l-37 -205h-451l-215 -1229h-215zM328 -481l131 338h205l-185 -338h-151z" />
    <glyph glyph-name="uni021B" unicode="&#x21b;" horiz-adv-x="747" 
d="M256 236l104 593h-163l34 195h164l49 287h205l-49 -287h236l-35 -195h-236l-102 -573q-2 -2 -2 -6v-14q0 -52 51 -52h174l-31 -184h-219q-86 0 -136 47.5t-50 126.5q0 32 6 62zM195 -481l131 338h204l-184 -338h-151z" />
    <glyph glyph-name="uni0232" unicode="&#x232;" horiz-adv-x="1239" 
d="M492 0l90 512l-361 922h232l260 -666h41l483 666h244l-684 -922l-90 -512h-215zM553 1638l29 164h614l-29 -164h-614z" />
    <glyph glyph-name="uni0233" unicode="&#x233;" horiz-adv-x="1054" 
d="M39 -410l33 185h192q51 0 82 55l57 107l-223 1087h209l160 -778h41l403 778h221l-684 -1280q-43 -81 -98 -117.5t-145 -36.5h-248zM399 1249l29 164h614l-28 -164h-615z" />
    <glyph glyph-name="uni0244" unicode="&#x244;" horiz-adv-x="1556" 
d="M313 625l37 215h-182l35 204h184l70 390h215l-70 -390h717l70 390h215l-70 -390h184l-35 -204h-186l-55 -316q-46 -248 -215.5 -396t-407.5 -148q-236 0 -379 138.5t-143 362.5q0 62 16 144zM565 840l-41 -236q-12 -62 -12 -92q0 -154 87 -241t241 -87q141 0 251.5 100
t139.5 259l51 297h-717z" />
    <glyph glyph-name="uni0259" unicode="&#x259;" 
d="M197 584h778q-8 134 -78.5 210t-198.5 76q-86 0 -144.5 -37.5t-104.5 -105.5h-222q71 151 193 234t289 83q213 0 342 -124t129 -326q0 -175 -77.5 -316.5t-206 -219.5t-280.5 -78q-190 0 -320 127.5t-130 312.5q0 63 14 117q2 5 8 22t9 25zM954 430h-594
q8 -124 79.5 -200t187.5 -76q115 0 201.5 75t125.5 201z" />
    <glyph glyph-name="uni0289" unicode="&#x289;" horiz-adv-x="1269" 
d="M254 451l33 194h-154l33 184h153l35 195h205l-35 -195h512l35 195h205l-35 -195h154l-33 -184h-154l-112 -645h-185l-6 82h-10q-48 -37 -76 -51q-93 -51 -205 -51q-169 0 -268.5 98t-99.5 260q0 82 8 113zM494 645l-37 -215q-6 -30 -6 -51q0 -101 58.5 -158t166.5 -57
q106 0 185 67t100 168l43 246h-510z" />
    <glyph glyph-name="uni02BC" unicode="&#x2bc;" horiz-adv-x="399" 
d="M254 1096l131 338h205l-182 -338h-154z" />
    <glyph glyph-name="circumflex" unicode="&#x2c6;" horiz-adv-x="798" 
d="M274 1208l297 297h185l194 -297h-188l-113 174l-174 -174h-201z" />
    <glyph glyph-name="caron" unicode="&#x2c7;" horiz-adv-x="798" 
d="M520 1208l-194 297h188l113 -174l174 174h200l-296 -297h-185z" />
    <glyph glyph-name="breve" unicode="&#x2d8;" horiz-adv-x="737" 
d="M301 1475h164q0 -62 36 -98t97 -36q54 0 97.5 36t66.5 98h164q-25 -117 -120 -197t-218 -80q-129 0 -208 74t-79 192v11z" />
    <glyph glyph-name="dotaccent" unicode="&#x2d9;" horiz-adv-x="327" 
d="M276 1229l37 205h205l-37 -205h-205z" />
    <glyph glyph-name="ring" unicode="&#x2da;" horiz-adv-x="512" 
d="M483 1321q32 0 57 27.5t25 64.5q0 31 -20 51.5t-51 20.5q-32 0 -57 -27.5t-25 -64.5q0 -31 20 -51.5t51 -20.5zM473 1208q-85 0 -134.5 47.5t-49.5 126.5q0 91 63.5 153t151.5 62q85 0 134.5 -47.5t49.5 -126.5q0 -91 -63.5 -153t-151.5 -62z" />
    <glyph glyph-name="ogonek" unicode="&#x2db;" horiz-adv-x="399" 
d="M258 -348h-51q-91 0 -143 41.5t-52 111.5q0 42 17.5 79.5t43.5 60.5t47 36.5t36 18.5l2 20h164l-3 -20q-143 -62 -143 -154q0 -25 17 -43t47 -18h41z" />
    <glyph glyph-name="tilde" unicode="&#x2dc;" horiz-adv-x="788" 
d="M428 1219h-154q17 109 80.5 172t155.5 63q41 0 76.5 -14.5t56.5 -31.5t48 -31.5t54 -14.5q67 0 82 92h154q-17 -109 -80.5 -172t-155.5 -63q-42 0 -77.5 14.5t-55.5 31.5t-47 31.5t-55 14.5q-67 0 -82 -92z" />
    <glyph glyph-name="hungarumlaut" unicode="&#x2dd;" horiz-adv-x="880" 
d="M274 1208l256 297h205l-286 -297h-175zM623 1208l256 297h204l-286 -297h-174z" />
    <glyph glyph-name="acutecomb" unicode="&#x301;" horiz-adv-x="0" 
d="M-553 1618l256 297h225l-297 -297h-184z" />
    <glyph glyph-name="uni0302" unicode="&#x302;" horiz-adv-x="0" 
d="M-801 1608l297 297h185l194 -297h-188l-113 174l-174 -174h-201z" />
    <glyph glyph-name="uni0304" unicode="&#x304;" horiz-adv-x="0" 
d="M-762 1659l29 164h614l-28 -164h-615z" />
    <glyph glyph-name="uni0306" unicode="&#x306;" horiz-adv-x="0" 
d="M-737 1874h164q0 -62 35.5 -97.5t97.5 -35.5q54 0 97.5 35.5t66.5 97.5h163q-25 -117 -121 -197t-217 -80q-129 0 -207.5 74.5t-78.5 192.5v10z" />
    <glyph glyph-name="uni0307" unicode="&#x307;" horiz-adv-x="0" 
d="M-559 1638l35 205h205l-35 -205h-205z" />
    <glyph glyph-name="uni0308" unicode="&#x308;" horiz-adv-x="0" 
d="M-743 1638l34 205h205l-35 -205h-204zM-375 1638l35 205h205l-35 -205h-205z" />
    <glyph glyph-name="uni030A" unicode="&#x30a;" horiz-adv-x="0" 
d="M-440 1710q32 0 57 27.5t25 64.5q0 31 -20.5 51.5t-51.5 20.5q-32 0 -57 -27.5t-25 -64.5q0 -31 20.5 -51.5t51.5 -20.5zM-635 1772q0 91 63.5 153t151.5 62q85 0 134.5 -48t49.5 -127q0 -91 -63.5 -153t-151.5 -62q-85 0 -134.5 48t-49.5 127z" />
    <glyph glyph-name="uni030C" unicode="&#x30c;" horiz-adv-x="0" 
d="M-555 1608l-195 297h189l112 -174l175 174h200l-297 -297h-184z" />
    <glyph glyph-name="uni0326" unicode="&#x326;" horiz-adv-x="399" 
d="M-29 -512l131 338h205l-184 -338h-152z" />
    <glyph glyph-name="uni0400" unicode="&#x400;" horiz-adv-x="1208" 
d="M154 0l252 1434h942l-37 -205h-727l-72 -410h686l-37 -205h-686l-72 -409h727l-34 -205h-942zM809 1577l-195 297h226l153 -297h-184z" />
    <glyph glyph-name="uni0401" unicode="&#x401;" horiz-adv-x="1208" 
d="M154 0l252 1434h942l-37 -205h-727l-72 -410h686l-37 -205h-686l-72 -409h727l-34 -205h-942zM614 1628l37 205h205l-37 -205h-205zM983 1628l37 205h205l-37 -205h-205z" />
    <glyph glyph-name="uni0402" unicode="&#x402;" horiz-adv-x="1464" 
d="M379 0l215 1229h-379l37 205h973l-37 -205h-379l-66 -375q42 19 70 30t89 24.5t122 13.5q204 0 322 -110t118 -290q0 -222 -149 -372t-369 -150h-158l35 205h129q130 0 213.5 81.5t83.5 205.5q0 103 -70.5 164t-205.5 61q-151 0 -264 -55l-115 -662h-215z" />
    <glyph glyph-name="uni0403" unicode="&#x403;" horiz-adv-x="1116" 
d="M154 0l252 1434h921l-37 -205h-706l-215 -1229h-215zM778 1577l256 297h226l-297 -297h-185z" />
    <glyph glyph-name="uni0404" unicode="&#x404;" horiz-adv-x="1505" 
d="M459 819h633l-37 -205h-619q4 -194 120 -312t300 -118q143 0 267.5 81.5t195.5 226.5h227q-86 -234 -279.5 -373t-430.5 -139q-129 0 -243 47.5t-195.5 130t-129 198.5t-47.5 248q0 184 61.5 344t165.5 270t244.5 173t296.5 63q230 0 395 -139t207 -363h-221
q-41 140 -146.5 218.5t-254.5 78.5q-174 0 -315.5 -116.5t-194.5 -313.5z" />
    <glyph glyph-name="uni0405" unicode="&#x405;" horiz-adv-x="1280" 
d="M156 440h213v-10q0 -100 96.5 -173t271.5 -73q147 0 227 61.5t80 153.5q0 70 -48.5 117.5t-155.5 77.5l-287 82q-136 40 -196 118t-60 199q0 196 144.5 328.5t377.5 132.5q130 0 233.5 -32.5t168 -89t98 -130t33.5 -158.5q0 -5 -1 -16t-1 -16q-2 -6 -2 -19h-218v6
q0 3 1.5 7.5t1.5 7.5q0 104 -84 169.5t-240 65.5q-133 0 -215 -67.5t-82 -157.5q0 -115 164 -164l287 -82q160 -47 228.5 -126.5t68.5 -211.5q0 -205 -144 -332.5t-399 -127.5q-134 0 -243 33.5t-178 91.5t-105.5 133.5t-36.5 160.5v29q0 10 2 12z" />
    <glyph glyph-name="uni0406" unicode="&#x406;" horiz-adv-x="522" 
d="M154 0l252 1434h215l-252 -1434h-215z" />
    <glyph glyph-name="uni0407" unicode="&#x407;" horiz-adv-x="522" 
d="M154 0l252 1434h215l-252 -1434h-215zM256 1628l37 205h205l-37 -205h-205zM625 1628l37 205h204l-37 -205h-204z" />
    <glyph glyph-name="uni0408" unicode="&#x408;" horiz-adv-x="808" 
d="M20 0l35 205h334q41 0 73.5 24.5t39.5 69.5l200 1135h216l-211 -1188q-43 -246 -277 -246h-410z" />
    <glyph glyph-name="uni0409" unicode="&#x409;" horiz-adv-x="2099" 
d="M8 -10l37 215h88q123 0 164 153l278 1076h895l-98 -553h369q148 0 253 -109.5t105 -269.5q0 -131 -69 -247.5t-182.5 -185.5t-239.5 -69h-604l215 1229h-480l-237 -922q-83 -317 -363 -317h-131zM1253 205h365q107 0 186.5 81t79.5 195q0 93 -53 144t-152 51h-342
l-10 -49z" />
    <glyph glyph-name="uni040A" unicode="&#x40a;" horiz-adv-x="2129" 
d="M154 0l252 1434h215l-101 -574h666l100 574h215l-100 -574h381q149 0 248.5 -104.5t99.5 -263.5q0 -131 -66.5 -245t-177.5 -180.5t-237 -66.5h-615l115 655h-666l-114 -655h-215zM1284 205h375q100 0 178 80.5t78 185.5q0 86 -51.5 135t-143.5 49h-356z" />
    <glyph glyph-name="uni040B" unicode="&#x40b;" horiz-adv-x="1484" 
d="M379 0l215 1229h-379l37 205h973l-37 -205h-379l-66 -379q43 21 65 31t83.5 25.5t122.5 15.5q204 0 312 -94.5t108 -274.5q0 -86 -11 -143l-71 -410h-215l73 430q9 34 9 72q0 114 -66.5 164.5t-200.5 50.5q-116 0 -243 -58l-115 -659h-215z" />
    <glyph glyph-name="uni040C" unicode="&#x40c;" horiz-adv-x="1208" 
d="M154 0l252 1434h215l-115 -656l663 656h283l-731 -719l500 -715h-263l-471 676l-118 -676h-215zM788 1577l256 297h226l-297 -297h-185z" />
    <glyph glyph-name="uni040D" unicode="&#x40d;" horiz-adv-x="1454" 
d="M154 0l252 1434h215l-197 -1117h41l764 1117h323l-252 -1434h-215l197 1116h-41l-764 -1116h-323zM911 1577l-194 297h225l154 -297h-185z" />
    <glyph glyph-name="uni040E" unicode="&#x40e;" horiz-adv-x="1280" 
d="M174 0l35 205h211q35 0 54.5 12t39.5 39l55 88l-338 1090h230l246 -809h41l501 809h242l-805 -1274q-43 -67 -115.5 -113.5t-167.5 -46.5h-229zM575 1864h164q0 -62 35.5 -97.5t97.5 -35.5q54 0 97.5 35.5t66.5 97.5h164q-25 -117 -120 -197t-218 -80q-129 0 -208 74
t-79 192v11z" />
    <glyph glyph-name="uni040F" unicode="&#x40f;" horiz-adv-x="1423" 
d="M154 0l252 1434h215l-218 -1229h687l217 1229h215l-252 -1434h-451l-51 -287h-215l51 287h-450z" />
    <glyph glyph-name="uni0410" unicode="&#x410;" horiz-adv-x="1372" 
d="M20 0l775 1434h327l271 -1434h-230l-63 338h-656l-182 -338h-242zM549 532h512l-119 656h-41z" />
    <glyph glyph-name="uni0411" unicode="&#x411;" horiz-adv-x="1320" 
d="M154 0l252 1434h993l-37 -205h-778l-68 -389h457q141 0 239.5 -103.5t98.5 -255.5q0 -206 -132 -343.5t-319 -137.5h-706zM401 195h465q97 0 163.5 73t66.5 193q0 84 -46.5 134t-117.5 50h-451z" />
    <glyph glyph-name="uni0412" unicode="&#x412;" horiz-adv-x="1320" 
d="M510 809h426q90 0 160.5 73.5t70.5 172.5q0 76 -51 130t-117 54h-413zM401 195h439q88 0 156.5 71t68.5 174q0 78 -47.5 131.5t-116.5 53.5h-424zM154 0l252 1434h638q140 0 239 -101t99 -248q0 -172 -112 -292q-52 -51 -113 -86v-11q38 -30 62 -63q61 -85 61 -193
q0 -119 -63 -221t-164 -160.5t-213 -58.5h-686z" />
    <glyph glyph-name="uni0413" unicode="&#x413;" horiz-adv-x="1116" 
d="M154 0l252 1434h921l-37 -205h-706l-215 -1229h-215z" />
    <glyph glyph-name="uni0414" unicode="&#x414;" horiz-adv-x="1413" 
d="M379 205h649l180 1024h-512l-225 -867q-19 -75 -59 -126q-14 -20 -33 -31zM-49 -287l84 492h43q74 0 122 62.5t89 217.5l246 949h925l-217 -1229h154l-86 -492h-215l51 287h-932l-51 -287h-213z" />
    <glyph glyph-name="uni0415" unicode="&#x415;" horiz-adv-x="1208" 
d="M154 0l252 1434h942l-37 -205h-727l-72 -410h686l-37 -205h-686l-72 -409h727l-34 -205h-942z" />
    <glyph glyph-name="uni0416" unicode="&#x416;" horiz-adv-x="1689" 
d="M-10 0l659 739l-350 695h250l334 -666l116 666h215l-116 -666l567 666h266l-616 -719l389 -715h-250l-371 686l-120 -686h-215l120 686l-612 -686h-266z" />
    <glyph glyph-name="uni0417" unicode="&#x417;" horiz-adv-x="1239" 
d="M604 625l35 194h174q119 0 192.5 63t73.5 152q0 91 -78.5 153t-218.5 62q-135 0 -208.5 -62.5t-92.5 -162.5h-215q17 86 58.5 161.5t107 136.5t161.5 96.5t210 35.5q231 0 361 -110.5t130 -278.5q0 -184 -135 -293q-61 -48 -133 -72l-4 -10q48 -22 90 -61q90 -82 90 -209
q0 -184 -149 -312t-398 -128q-125 0 -227 32t-166.5 86t-99.5 123.5t-35 147.5q0 22 2 28q0 11 2 13h211v-21q0 -85 84.5 -145t243.5 -60q147 0 232 69t85 167q0 87 -69 146t-177 59h-137z" />
    <glyph glyph-name="uni0418" unicode="&#x418;" horiz-adv-x="1454" 
d="M154 0l252 1434h215l-197 -1117h41l764 1117h323l-252 -1434h-215l197 1116h-41l-764 -1116h-323z" />
    <glyph glyph-name="uni0419" unicode="&#x419;" horiz-adv-x="1454" 
d="M154 0l252 1434h215l-197 -1117h41l764 1117h323l-252 -1434h-215l197 1116h-41l-764 -1116h-323zM717 1864h164q0 -62 35.5 -97.5t97.5 -35.5q54 0 97.5 35.5t66.5 97.5h163q-25 -118 -120 -197.5t-217 -79.5q-129 0 -208 74t-79 192v11z" />
    <glyph glyph-name="uni041A" unicode="&#x41a;" horiz-adv-x="1208" 
d="M154 0l252 1434h215l-115 -656l663 656h283l-731 -719l500 -715h-263l-471 676l-118 -676h-215z" />
    <glyph glyph-name="uni041B" unicode="&#x41b;" horiz-adv-x="1402" 
d="M8 -10l37 215h88q123 0 164 153l278 1076h926l-252 -1434h-215l215 1229h-510l-237 -922q-83 -317 -363 -317h-131z" />
    <glyph glyph-name="uni041C" unicode="&#x41c;" horiz-adv-x="1843" 
d="M154 0l252 1434h362l180 -1127h41l578 1127h375l-252 -1434h-215l192 1096h-41l-561 -1096h-287l-176 1096h-41l-192 -1096h-215z" />
    <glyph glyph-name="uni041D" unicode="&#x41d;" horiz-adv-x="1464" 
d="M154 0l252 1434h215l-107 -605h727l107 605h215l-252 -1434h-215l108 625h-727l-108 -625h-215z" />
    <glyph glyph-name="uni041E" unicode="&#x41e;" horiz-adv-x="1556" 
d="M856 184q105 0 201 44t170 122.5t118 198t44 260.5q0 198 -117 319t-303 121q-105 0 -201 -44t-170 -122.5t-118 -197.5t-44 -260q0 -198 117 -319.5t303 -121.5zM836 -20q-129 0 -243 47.5t-195.5 130t-129 198.5t-47.5 248q0 184 61.5 344t165.5 270t244.5 173
t296.5 63q129 0 243 -47.5t195.5 -130t129 -199t47.5 -248.5q0 -184 -61.5 -343.5t-165.5 -269.5t-244.5 -173t-296.5 -63z" />
    <glyph glyph-name="uni041F" unicode="&#x41f;" horiz-adv-x="1454" 
d="M154 0l252 1434h1146l-252 -1434h-215l215 1229h-716l-215 -1229h-215z" />
    <glyph glyph-name="uni0420" unicode="&#x420;" horiz-adv-x="1310" 
d="M154 0l252 1434h649q143 0 240.5 -108t97.5 -282q0 -112 -39 -212t-104 -169.5t-151.5 -110t-180.5 -40.5h-459l-90 -512h-215zM494 717h432q100 0 176 85t76 212q0 95 -50.5 155t-119.5 60h-424z" />
    <glyph glyph-name="uni0421" unicode="&#x421;" horiz-adv-x="1505" 
d="M1319 492h227q-86 -234 -279.5 -373t-430.5 -139q-129 0 -243 47.5t-195.5 130t-129 198.5t-47.5 248q0 184 61.5 344t165.5 270t244.5 173t296.5 63q228 0 392 -138.5t210 -363.5h-221q-41 140 -147 218.5t-254 78.5q-105 0 -201 -44t-170 -122.5t-118 -197.5t-44 -260
q0 -198 117 -319.5t303 -121.5q143 0 267.5 81.5t195.5 226.5z" />
    <glyph glyph-name="uni0422" unicode="&#x422;" horiz-adv-x="1198" 
d="M481 0l215 1229h-450l37 205h1116l-37 -205h-451l-215 -1229h-215z" />
    <glyph glyph-name="uni0423" unicode="&#x423;" horiz-adv-x="1280" 
d="M174 0l35 205h211q35 0 54.5 12t39.5 39l55 88l-338 1090h230l246 -809h41l501 809h242l-805 -1274q-43 -67 -115.5 -113.5t-167.5 -46.5h-229z" />
    <glyph glyph-name="uni0424" unicode="&#x424;" horiz-adv-x="1669" 
d="M1139 1106l-131 -737h10q137 0 250 47.5t181.5 139.5t68.5 212q0 137 -99.5 237.5t-263.5 100.5h-16zM793 369l131 737h-11q-238 0 -369.5 -112.5t-131.5 -286.5q0 -136 97.5 -233.5t262.5 -104.5h21zM721 -41l39 225h-12q-267 24 -409 158.5t-142 333.5q0 133 48 246.5
t135 194.5t214 127t278 46h84l31 185h215l-31 -185h11q261 -17 406 -151t145 -340q0 -129 -50 -242.5t-138 -195.5t-215 -129.5t-275 -47.5h-80l-39 -225h-215z" />
    <glyph glyph-name="uni0425" unicode="&#x425;" horiz-adv-x="1290" 
d="M0 0l651 750l-352 684h240l260 -502h41l436 502h256l-614 -709l376 -725h-239l-285 543h-41l-473 -543h-256z" />
    <glyph glyph-name="uni0426" unicode="&#x426;" horiz-adv-x="1464" 
d="M154 0l252 1434h215l-218 -1229h676l217 1229h215l-217 -1229h154l-86 -492h-215l51 287h-1044z" />
    <glyph glyph-name="uni0427" unicode="&#x427;" horiz-adv-x="1372" 
d="M1004 0l98 553q-65 -38 -98 -51q-119 -51 -246 -51q-228 0 -344.5 107t-116.5 302q0 78 14 160l74 414h215l-76 -424q-12 -54 -12 -109q0 -246 297 -246q130 0 240 52q32 13 88 51l118 676h215l-251 -1434h-215z" />
    <glyph glyph-name="uni0428" unicode="&#x428;" horiz-adv-x="1955" 
d="M154 0l252 1434h215l-218 -1229h502l217 1229h215l-217 -1229h502l217 1229h215l-252 -1434h-1648z" />
    <glyph glyph-name="uni0429" unicode="&#x429;" horiz-adv-x="2007" 
d="M154 0l252 1434h215l-218 -1229h502l217 1229h215l-217 -1229h502l217 1229h215l-217 -1229h154l-86 -492h-215l51 287h-1587z" />
    <glyph glyph-name="uni042A" unicode="&#x42a;" horiz-adv-x="1443" 
d="M328 0l215 1229h-318l37 205h533l-90 -512h380q149 0 254 -113t105 -287q0 -140 -69.5 -261t-182.5 -191t-240 -70h-624zM578 205h385q108 0 187 84.5t79 212.5q0 215 -205 215h-356z" />
    <glyph glyph-name="uni042B" unicode="&#x42b;" horiz-adv-x="1689" 
d="M1321 0l252 1434h215l-252 -1434h-215zM154 0l252 1434h215l-91 -512h361q149 0 253.5 -113t104.5 -287q0 -140 -69 -261t-182 -191t-240 -70h-604zM403 205h365q108 0 187 84.5t79 212.5q0 215 -205 215h-335z" />
    <glyph glyph-name="uni042C" unicode="&#x42c;" horiz-adv-x="1290" 
d="M154 0l252 1434h215l-91 -512h402q149 0 253.5 -113t104.5 -287q0 -140 -69 -261t-182 -191t-240 -70h-645zM403 205h406q108 0 187 84.5t79 212.5q0 215 -205 215h-376z" />
    <glyph glyph-name="uni042D" unicode="&#x42d;" horiz-adv-x="1495" 
d="M172 492h223q38 -148 142 -228t258 -80q172 0 313.5 115.5t194.5 314.5h-635l37 205h622q-4 194 -120.5 312t-299.5 118q-297 0 -448 -297h-228q89 229 272 365.5t425 136.5q172 0 312.5 -81t221 -224.5t80.5 -319.5q0 -184 -61.5 -343.5t-165.5 -269.5t-244.5 -173
t-296.5 -63q-236 0 -400.5 141t-201.5 371z" />
    <glyph glyph-name="uni042E" unicode="&#x42e;" horiz-adv-x="1959" 
d="M154 0l252 1434h215l-109 -615h199q43 185 151.5 330.5t258 225t313.5 79.5q248 0 410.5 -172.5t162.5 -452.5q0 -180 -62.5 -339.5t-165.5 -270t-239 -175t-280 -64.5q-123 0 -229 44.5t-182 125t-119.5 197.5t-43.5 257v10h-211l-106 -614h-215zM1280 184
q100 0 192.5 45t163.5 124.5t113.5 198.5t42.5 257q0 202 -107 321t-272 119q-100 0 -192.5 -45t-163.5 -124.5t-113.5 -198t-42.5 -256.5q0 -202 107 -321.5t272 -119.5z" />
    <glyph glyph-name="uni042F" unicode="&#x42f;" horiz-adv-x="1341" 
d="M676 717h422l90 512h-430q-108 0 -187 -84.5t-79 -212.5q0 -98 52 -156.5t132 -58.5zM82 0l592 512h-12q-167 0 -276.5 111.5t-109.5 287.5q0 111 41 209.5t109 166.5t157.5 107.5t184.5 39.5h672l-252 -1434h-215l90 512h-109l-592 -512h-280z" />
    <glyph glyph-name="uni0430" unicode="&#x430;" horiz-adv-x="1095" 
d="M848 410l10 61h-287q-105 0 -160 -51t-55 -133q0 -63 49 -98t146 -35q122 0 200 69t97 187zM807 0l-2 92h-10q-35 -35 -78 -57q-90 -55 -217 -55q-165 0 -256.5 79.5t-91.5 206.5q0 171 109 270t300 99h326l4 20q2 6 2 31q0 87 -55 135.5t-154 48.5q-87 0 -141 -46
t-70 -97h-205q32 129 145.5 223t280.5 94q193 0 298.5 -92t105.5 -245q0 -36 -11 -93l-106 -614h-174z" />
    <glyph glyph-name="uni0431" unicode="&#x431;" horiz-adv-x="1177" 
d="M463 850h10q126 102 277 102q191 0 310.5 -117.5t119.5 -302.5q0 -145 -76 -272.5t-204 -203.5t-273 -76q-203 0 -327 128t-124 343q0 45 10 110q0 2 11 64q83 530 419 665q49 19 111 34.5t110 24.5t138 23q64 9 100 34.5t43 88.5h185q-22 -148 -87.5 -218.5
t-179.5 -88.5q-10 -2 -50.5 -8.5t-52 -8.5l-46 -8t-49 -9.5t-42 -9.5t-44 -11t-37 -12t-37.5 -15q-158 -70 -215 -256zM637 164q130 0 234 105.5t104 242.5q0 117 -74.5 191.5t-191.5 74.5q-130 0 -234 -105.5t-104 -242.5q0 -117 74.5 -191.5t191.5 -74.5z" />
    <glyph glyph-name="uni0432" unicode="&#x432;" horiz-adv-x="1095" 
d="M444 604h338q61 0 100.5 36.5t39.5 96.5q0 47 -33 80t-76 33h-326zM367 174h344q66 0 107.5 40.5t41.5 102.5q0 53 -33.5 88t-81.5 35h-331zM133 0l180 1024h566q107 0 177 -68t70 -168q0 -131 -82 -213q-37 -37 -81 -57v-10q29 -16 51 -41q51 -63 51 -150
q0 -131 -97 -224t-241 -93h-594z" />
    <glyph glyph-name="uni0433" unicode="&#x433;" horiz-adv-x="860" 
d="M133 0l180 1024h686l-34 -195h-482l-145 -829h-205z" />
    <glyph glyph-name="uni0434" unicode="&#x434;" horiz-adv-x="1136" 
d="M336 184h442l117 656h-338l-137 -518q-18 -63 -51 -105q-11 -15 -33 -33zM-43 -246l74 430h37q112 0 153 144l185 696h727l-150 -840h143l-75 -430h-205l45 246h-686l-45 -246h-203z" />
    <glyph glyph-name="uni0435" unicode="&#x435;" 
d="M897 297h221q-71 -151 -192.5 -234t-288.5 -83q-215 0 -343 124t-128 326q0 131 45.5 246.5t121.5 195.5t179.5 126t216.5 46q190 0 320.5 -127.5t130.5 -312.5q0 -51 -17 -117q-2 -6 -14 -47h-778q8 -134 78 -210t198 -76q86 0 145 37.5t105 105.5zM391 594h594
q-8 125 -79 200.5t-187 75.5q-115 0 -202 -75t-126 -201z" />
    <glyph glyph-name="uni0436" unicode="&#x436;" horiz-adv-x="1392" 
d="M0 0l489 535l-272 489h229l254 -471l84 471h205l-84 -471l422 471h246l-469 -514l293 -510h-230l-270 502l-88 -502h-205l88 502l-446 -502h-246z" />
    <glyph glyph-name="uni0437" unicode="&#x437;" horiz-adv-x="993" 
d="M109 328h202v-11q0 -67 58.5 -115t167.5 -48q104 0 159.5 44t55.5 109q0 58 -48.5 95.5t-142.5 37.5h-102l30 164h134q88 0 139 38.5t51 94.5q0 57 -55.5 95t-159.5 38q-87 0 -137.5 -43t-65.5 -110h-205q22 131 138 229t290 98q192 0 296 -81.5t104 -204.5
q0 -125 -98 -203q-42 -33 -97 -49l-2 -10q21 -7 41 -19t43 -33.5t37 -57t14 -79.5q0 -137 -115.5 -232t-314.5 -95q-205 0 -312.5 90t-107.5 227v18q0 7 3 13z" />
    <glyph glyph-name="uni0438" unicode="&#x438;" horiz-adv-x="1157" 
d="M133 0l180 1024h205l-131 -737h41l473 737h303l-180 -1024h-205l129 737h-41l-471 -737h-303z" />
    <glyph glyph-name="uni0439" unicode="&#x439;" horiz-adv-x="1157" 
d="M133 0l180 1024h205l-131 -737h41l473 737h303l-180 -1024h-205l129 737h-41l-471 -737h-303zM502 1464h164q0 -62 36 -97.5t97 -35.5q54 0 97.5 35.5t66.5 97.5h163q-25 -117 -120 -196.5t-218 -79.5q-129 0 -207.5 74t-78.5 192v10z" />
    <glyph glyph-name="uni043A" unicode="&#x43a;" horiz-adv-x="1024" 
d="M133 0l180 1024h205l-84 -471l514 471h258l-563 -514l383 -510h-238l-364 492l-86 -492h-205z" />
    <glyph glyph-name="uni043B" unicode="&#x43b;" horiz-adv-x="1126" 
d="M8 -10l33 194h61q55 0 96.5 39t61.5 113l186 688h728l-181 -1024h-205l148 840h-332l-147 -549q-79 -301 -328 -301h-121z" />
    <glyph glyph-name="uni043C" unicode="&#x43c;" horiz-adv-x="1474" 
d="M133 0l180 1024h332l113 -748h41l379 748h344l-181 -1024h-204l131 748h-41l-377 -748h-225l-115 748h-41l-131 -748h-205z" />
    <glyph glyph-name="uni043D" unicode="&#x43d;" horiz-adv-x="1157" 
d="M133 0l180 1024h205l-74 -410h482l73 410h205l-180 -1024h-205l74 420h-481l-74 -420h-205z" />
    <glyph glyph-name="uni043E" unicode="&#x43e;" horiz-adv-x="1187" 
d="M647 164q143 0 245.5 115t102.5 294q0 130 -76 208.5t-200 78.5q-143 0 -245.5 -115t-102.5 -294q0 -130 76 -208.5t200 -78.5zM637 -20q-215 0 -343 124t-128 326q0 131 45.5 246.5t121.5 195.5t179.5 126t216.5 46q213 0 342 -124t129 -326q0 -131 -45.5 -246.5
t-121.5 -195.5t-179.5 -126t-216.5 -46z" />
    <glyph glyph-name="uni043F" unicode="&#x43f;" horiz-adv-x="1157" 
d="M133 0l180 1024h891l-180 -1024h-205l148 840h-482l-147 -840h-205z" />
    <glyph glyph-name="uni0440" unicode="&#x440;" horiz-adv-x="1218" 
d="M59 -410l254 1434h185l4 -92h10q15 15 37.5 31t60.5 36t92.5 32.5t116.5 12.5q186 0 303 -121t117 -319q0 -135 -44.5 -252.5t-119 -198.5t-173.5 -127t-206 -46q-64 0 -118.5 13.5t-89 32t-61 42.5t-38.5 42t-18 33h-9l-98 -553h-205zM686 164q87 0 166.5 52
t130.5 147.5t51 209.5q0 129 -74 208t-192 79q-87 0 -166.5 -52t-130.5 -147.5t-51 -209.5q0 -129 74 -208t192 -79z" />
    <glyph glyph-name="uni0441" unicode="&#x441;" horiz-adv-x="1136" 
d="M934 358h205q-61 -177 -195.5 -277.5t-306.5 -100.5q-215 0 -343 124t-128 326q0 131 45.5 246.5t121.5 195.5t179.5 126t216.5 46q184 0 301.5 -98t143.5 -270h-205q-26 91 -91 137.5t-159 46.5q-143 0 -245.5 -115t-102.5 -294q0 -130 75.5 -208.5t200.5 -78.5
q87 0 163.5 51t123.5 143z" />
    <glyph glyph-name="uni0442" unicode="&#x442;" horiz-adv-x="942" 
d="M369 0l145 829h-338l35 195h881l-35 -195h-338l-146 -829h-204z" />
    <glyph glyph-name="uni0443" unicode="&#x443;" horiz-adv-x="1054" 
d="M39 -410l33 185h192q51 0 82 55l57 107l-223 1087h209l160 -778h41l403 778h221l-684 -1280q-43 -81 -98 -117.5t-145 -36.5h-248z" />
    <glyph glyph-name="uni0444" unicode="&#x444;" horiz-adv-x="1495" 
d="M575 -410l74 410h-12q-202 0 -335.5 127t-133.5 313q0 166 75 299.5t209.5 209t303.5 75.5h73l72 410h205l-72 -410h13q211 0 342 -126t131 -314q0 -263 -162.5 -423.5t-429.5 -160.5h-74l-74 -410h-205zM885 184h67q158 0 260.5 107t102.5 282q0 118 -77.5 192.5
t-205.5 74.5h-31zM653 184h27l117 656h-66q-163 0 -260.5 -102t-97.5 -283q0 -120 77 -195.5t203 -75.5z" />
    <glyph glyph-name="uni0445" unicode="&#x445;" horiz-adv-x="1013" 
d="M0 0l451 545l-244 479h229l174 -348h41l297 348h246l-436 -504l250 -520h-230l-180 379h-41l-311 -379h-246z" />
    <glyph glyph-name="uni0446" unicode="&#x446;" horiz-adv-x="1187" 
d="M133 0l180 1024h205l-149 -840h460l150 840h205l-150 -840h144l-76 -430h-205l45 246h-809z" />
    <glyph glyph-name="uni0447" unicode="&#x447;" horiz-adv-x="1105" 
d="M768 0l63 365q-129 -68 -247 -68q-175 0 -267 82t-92 225q0 26 17 133l51 287h205l-52 -287q-10 -58 -10 -82q0 -81 52 -122t167 -41q104 0 209 63l84 469h205l-180 -1024h-205z" />
    <glyph glyph-name="uni0448" unicode="&#x448;" horiz-adv-x="1617" 
d="M133 0l180 1024h205l-149 -840h368l150 840h205l-150 -840h369l149 840h205l-180 -1024h-1352z" />
    <glyph glyph-name="uni0449" unicode="&#x449;" horiz-adv-x="1669" 
d="M133 0l180 1024h205l-149 -840h368l150 840h205l-150 -840h369l149 840h205l-149 -840h143l-76 -430h-205l45 246h-1290z" />
    <glyph glyph-name="uni044A" unicode="&#x44a;" horiz-adv-x="1177" 
d="M276 0l146 829h-256l35 195h461l-60 -328h281q128 0 211.5 -87t83.5 -214q0 -165 -114 -280t-276 -115h-512zM510 174h270q78 0 135.5 56.5t57.5 144.5q0 65 -41 106t-103 41h-258z" />
    <glyph glyph-name="uni044B" unicode="&#x44b;" horiz-adv-x="1433" 
d="M1096 0l180 1024h205l-181 -1024h-204zM133 0l180 1024h205l-59 -328h270q128 0 211.5 -87t83.5 -214q0 -165 -113.5 -280t-275.5 -115h-502zM367 174h260q78 0 135 56.5t57 144.5q0 65 -40.5 106t-102.5 41h-248z" />
    <glyph glyph-name="uni044C" unicode="&#x44c;" horiz-adv-x="1054" 
d="M133 0l180 1024h205l-59 -328h301q128 0 211.5 -87t83.5 -214q0 -165 -113.5 -280t-275.5 -115h-533zM367 174h290q78 0 135.5 56.5t57.5 144.5q0 65 -40.5 106t-102.5 41h-279z" />
    <glyph glyph-name="uni044D" unicode="&#x44d;" horiz-adv-x="1136" 
d="M131 348h205q55 -184 252 -184q111 0 201 72t126 194h-426l31 174h414q-11 117 -84.5 186.5t-190.5 69.5q-87 0 -159 -44.5t-119 -129.5h-205q73 172 199.5 265t294.5 93q213 0 342 -124t129 -326q0 -131 -45.5 -246.5t-121.5 -195.5t-179.5 -126t-216.5 -46
q-189 0 -303 97t-144 271z" />
    <glyph glyph-name="uni044E" unicode="&#x44e;" horiz-adv-x="1536" 
d="M133 0l180 1024h205l-74 -410h131q54 200 197 315t334 115q206 0 328 -120t122 -320q0 -139 -43 -257t-117.5 -198t-175.5 -124.5t-216 -44.5q-206 0 -328.5 120t-122.5 320h-141l-74 -420h-205zM1014 164q145 0 241.5 112.5t96.5 307.5q0 129 -69 202.5t-187 73.5
q-145 0 -241.5 -113.5t-96.5 -306.5q0 -129 69 -202.5t187 -73.5z" />
    <glyph glyph-name="uni044F" unicode="&#x44f;" horiz-adv-x="1095" 
d="M72 0l422 369q-111 0 -200 88.5t-89 208.5q0 153 113 255.5t276 102.5h549l-180 -1024h-205l63 369h-78l-421 -369h-250zM559 532h291l59 328h-307q-75 0 -133.5 -54t-58.5 -130q0 -62 42 -103t107 -41z" />
    <glyph glyph-name="uni0450" unicode="&#x450;" 
d="M897 297h221q-71 -151 -192.5 -234t-288.5 -83q-215 0 -343 124t-128 326q0 131 45.5 246.5t121.5 195.5t179.5 126t216.5 46q190 0 320.5 -127.5t130.5 -312.5q0 -51 -17 -117q-2 -6 -14 -47h-778q8 -134 78 -210t198 -76q86 0 145 37.5t105 105.5zM391 594h594
q-8 125 -79 200.5t-187 75.5q-115 0 -202 -75t-126 -201zM676 1188l-195 297h226l153 -297h-184z" />
    <glyph glyph-name="uni0451" unicode="&#x451;" 
d="M897 297h221q-71 -151 -192.5 -234t-288.5 -83q-215 0 -343 124t-128 326q0 131 45.5 246.5t121.5 195.5t179.5 126t216.5 46q190 0 320.5 -127.5t130.5 -312.5q0 -51 -17 -117q-2 -6 -14 -47h-778q8 -134 78 -210t198 -76q86 0 145 37.5t105 105.5zM391 594h594
q-8 125 -79 200.5t-187 75.5q-115 0 -202 -75t-126 -201zM481 1229l37 205h205l-37 -205h-205zM850 1229l37 205h205l-37 -205h-205z" />
    <glyph glyph-name="uni0452" unicode="&#x452;" horiz-adv-x="1218" 
d="M541 -410l32 185h119q72 0 117 43t59 121l99 553q6 30 6 51q0 101 -58.5 158t-166.5 57q-104 0 -187 -68.5t-100 -167.5l-92 -522h-205l192 1096h-163l32 184h164l27 154h205l-27 -154h328l-33 -184h-328l-45 -256h10q48 37 76 51q100 51 207 51q169 0 269 -98t100 -260
q0 -78 -9 -113l-98 -553q-30 -156 -126.5 -242t-252.5 -86h-151z" />
    <glyph glyph-name="uni0453" unicode="&#x453;" horiz-adv-x="860" 
d="M133 0l180 1024h686l-34 -195h-482l-145 -829h-205zM573 1188l256 297h226l-297 -297h-185z" />
    <glyph glyph-name="uni0454" unicode="&#x454;" horiz-adv-x="1136" 
d="M393 604h422l-31 -174h-413q6 -123 80 -194.5t196 -71.5q89 0 165 47t122 137h205q-61 -176 -195 -272t-307 -96q-215 0 -343 124t-128 326q0 131 45.5 246.5t121.5 195.5t179.5 126t216.5 46q186 0 302.5 -94t142.5 -264h-205q-50 174 -250 174q-109 0 -197 -69
t-129 -187z" />
    <glyph glyph-name="uni0455" unicode="&#x455;" horiz-adv-x="993" 
d="M115 307h204q0 -56 64 -104.5t182 -48.5q104 0 154.5 39t50.5 104q0 45 -27.5 76t-105.5 47l-174 31q-126 22 -186 92t-60 174q0 139 103.5 233t295.5 94q206 0 318.5 -90.5t112.5 -226.5h-205q0 56 -54 99.5t-172 43.5q-94 0 -144 -35.5t-50 -86.5q0 -50 29.5 -80
t103.5 -43l174 -31q125 -22 185.5 -96.5t60.5 -180.5q0 -151 -108 -244t-302 -93q-98 0 -177.5 22t-129 56.5t-83 79.5t-47 87t-13.5 82z" />
    <glyph glyph-name="uni0456" unicode="&#x456;" horiz-adv-x="471" 
d="M133 0l180 1024h205l-180 -1024h-205zM338 1219l37 215h225l-37 -215h-225z" />
    <glyph glyph-name="uni0457" unicode="&#x457;" horiz-adv-x="471" 
d="M133 0l180 1024h205l-180 -1024h-205zM164 1229l37 205h205l-37 -205h-205zM532 1229l37 205h205l-37 -205h-205z" />
    <glyph glyph-name="uni0458" unicode="&#x458;" horiz-adv-x="471" 
d="M-164 -410l33 185h172q49 0 61 61l211 1188h205l-219 -1237q-17 -95 -78 -146t-158 -51h-227zM338 1219l37 215h225l-37 -215h-225z" />
    <glyph glyph-name="uni0459" unicode="&#x459;" horiz-adv-x="1638" 
d="M8 -10l33 194h61q55 0 96.5 39t61.5 113l186 688h717l-65 -369h245q136 0 215.5 -76t79.5 -204q0 -159 -110.5 -267t-278.5 -108h-471l148 840h-322l-147 -549q-79 -301 -328 -301h-121zM1014 174h227q85 0 139 49.5t54 130.5q0 58 -38 92.5t-106 34.5h-223z" />
    <glyph glyph-name="uni045A" unicode="&#x45a;" horiz-adv-x="1648" 
d="M133 0l180 1024h205l-67 -389h450l68 389h205l-70 -389h239q144 0 225 -76t81 -201q0 -156 -107 -257t-282 -101h-472l78 440h-450l-78 -440h-205zM1024 174h227q90 0 141.5 46.5t51.5 117.5q0 56 -39 89.5t-115 33.5h-217z" />
    <glyph glyph-name="uni045B" unicode="&#x45b;" horiz-adv-x="1218" 
d="M164 0l192 1096h-163l32 184h164l27 154h205l-27 -154h328l-33 -184h-328l-45 -256h10q48 37 76 51q100 51 207 51q169 0 269 -98t100 -260q0 -78 -9 -113l-84 -471h-204l86 492q6 30 6 51q0 101 -58.5 158t-166.5 57q-104 0 -187 -68.5t-100 -167.5l-92 -522h-205z" />
    <glyph glyph-name="uni045C" unicode="&#x45c;" horiz-adv-x="1024" 
d="M133 0l180 1024h205l-84 -471l514 471h258l-563 -514l383 -510h-238l-364 492l-86 -492h-205zM645 1188l256 297h225l-297 -297h-184z" />
    <glyph glyph-name="uni045D" unicode="&#x45d;" horiz-adv-x="1157" 
d="M133 0l180 1024h205l-131 -737h41l473 737h303l-180 -1024h-205l129 737h-41l-471 -737h-303zM686 1188l-194 297h225l153 -297h-184z" />
    <glyph glyph-name="uni045E" unicode="&#x45e;" horiz-adv-x="1054" 
d="M39 -410l33 185h192q51 0 82 55l57 107l-223 1087h209l160 -778h41l403 778h221l-684 -1280q-43 -81 -98 -117.5t-145 -36.5h-248zM420 1464h164q0 -62 36 -97.5t97 -35.5q54 0 97.5 35.5t66.5 97.5h163q-25 -117 -119.5 -196.5t-217.5 -79.5q-129 0 -208 74t-79 192v10z
" />
    <glyph glyph-name="uni045F" unicode="&#x45f;" horiz-adv-x="1136" 
d="M133 0l180 1024h205l-149 -840h460l150 840h205l-180 -1024h-328l-45 -246h-205l45 246h-338z" />
    <glyph glyph-name="uni0462" unicode="&#x462;" horiz-adv-x="1402" 
d="M287 0l188 1075h-287l35 195h287l29 164h215l-29 -164h389l-35 -195h-389l-37 -215h398q150 0 251 -104.5t101 -263.5q0 -214 -134.5 -353t-336.5 -139h-645zM537 205h407q107 0 175.5 72.5t68.5 193.5q0 86 -50 135t-137 49h-385z" />
    <glyph glyph-name="uni0463" unicode="&#x463;" horiz-adv-x="1136" 
d="M236 0l153 881h-235l32 184h236l65 369h205l-65 -369h297l-33 -184h-297l-33 -185h281q128 0 211.5 -87t83.5 -214q0 -165 -113.5 -280t-275.5 -115h-512zM469 174h270q78 0 135.5 56.5t57.5 144.5q0 65 -41 106t-103 41h-258z" />
    <glyph glyph-name="uni046A" unicode="&#x46a;" horiz-adv-x="1617" 
d="M956 840l471 389h-809zM82 0l33 186q49 274 205.5 433.5t400.5 195.5l-371 424l35 195h1362l-35 -195l-538 -440q191 -48 297 -188.5t106 -354.5q0 -90 -16 -176l-15 -80h-215l17 98q14 82 14 148q0 181 -88.5 280t-235.5 99h-8l-108 -625h-215l108 625h-35
q-176 0 -296.5 -116.5t-157.5 -340.5l-29 -168h-215z" />
    <glyph glyph-name="uni046B" unicode="&#x46b;" horiz-adv-x="1290" 
d="M748 594h12l321 256h-569zM266 0h-205q40 231 174 383t316 190l-266 287l28 164h1045l-29 -164l-368 -287q126 -36 212.5 -157t86.5 -303q0 -16 -3.5 -45.5t-3.5 -30.5l-4 -37h-205q11 75 11 113q0 258 -226 297l-71 -410h-205l72 410q-131 -8 -228 -112.5t-131 -297.5z
" />
    <glyph glyph-name="uni0472" unicode="&#x472;" horiz-adv-x="1556" 
d="M836 -20q-129 0 -243 47.5t-195.5 130t-129 198.5t-47.5 248q0 184 61.5 344t165.5 270t244.5 173t296.5 63q129 0 243 -47.5t195.5 -130t129 -199t47.5 -248.5q0 -184 -61.5 -343.5t-165.5 -269.5t-244.5 -173t-296.5 -63zM436 639v-14q0 -198 117 -319.5t303 -121.5
q179 0 322.5 121t191.5 330q-109 -51 -227 -51q-100 0 -258 46t-244 46q-121 0 -205 -37zM1389 799v10q0 198 -117 319t-303 121q-178 0 -321 -119t-191 -323q92 43 225 43q83 0 169.5 -23t168.5 -46t154 -23q142 0 215 41z" />
    <glyph glyph-name="uni0473" unicode="&#x473;" horiz-adv-x="1187" 
d="M166 430q0 131 45.5 246.5t121.5 195.5t179.5 126t216.5 46q213 0 342 -124t129 -326q0 -131 -45.5 -246.5t-121.5 -195.5t-179.5 -126t-216.5 -46q-215 0 -343 124t-128 326zM371 430q6 -123 80 -194.5t196 -71.5q112 0 202 71t126 193q-90 -18 -154 -18
q-57 0 -154 20.5t-153 20.5q-33 0 -64.5 -4.5t-54.5 -10.5t-24 -6zM391 596q48 18 154 18q57 0 154 -20.5t153 -20.5q78 0 143 17q-6 123 -80.5 196.5t-195.5 73.5q-111 0 -200.5 -71t-127.5 -193z" />
    <glyph glyph-name="uni0474" unicode="&#x474;" horiz-adv-x="1413" 
d="M492 0l-250 1434h229l201 -1188h41l463 891q86 162 173.5 234.5t196.5 72.5q54 0 92 -10l31 -11l-41 -215l-22 11q-23 10 -60 10q-41 0 -76.5 -29.5t-74.5 -103.5l-576 -1096h-327z" />
    <glyph glyph-name="uni0475" unicode="&#x475;" horiz-adv-x="1095" 
d="M348 0l-178 1024h209l135 -799h41l307 586q62 120 128.5 176.5t156.5 56.5q56 0 92 -16l25 -14l-31 -174q-8 3 -19 10q-23 10 -47 10q-35 0 -59 -24t-51 -74l-402 -762h-307z" />
    <glyph glyph-name="uni048A" unicode="&#x48a;" horiz-adv-x="1495" 
d="M154 0l252 1434h215l-197 -1117h41l764 1117h323l-217 -1229h205l-6 -31l-234 -461h-163l102 287h-154l197 1116h-41l-764 -1116h-323zM727 1874h164q0 -62 35.5 -97.5t97.5 -35.5q54 0 97.5 35.5t66.5 97.5h164q-25 -117 -120 -197t-218 -80q-129 0 -208 74.5t-79 192.5
v10z" />
    <glyph glyph-name="uni048B" unicode="&#x48b;" horiz-adv-x="1208" 
d="M133 0l180 1024h205l-131 -737h41l473 737h303l-147 -840h182l-4 -30l-215 -400h-143l86 246h-144l129 737h-41l-471 -737h-303zM502 1464h164q0 -62 36 -97.5t97 -35.5q54 0 97.5 35.5t66.5 97.5h163q-25 -117 -120 -196.5t-218 -79.5q-129 0 -207.5 74t-78.5 192v10z
" />
    <glyph glyph-name="uni048C" unicode="&#x48c;" horiz-adv-x="1402" 
d="M287 0l188 1075h-287l35 195h287l29 164h215l-29 -164h389l-35 -195h-389l-37 -215h398q150 0 251 -104.5t101 -263.5q0 -214 -134.5 -353t-336.5 -139h-645zM537 205h407q107 0 175.5 72.5t68.5 193.5q0 86 -50 135t-137 49h-385z" />
    <glyph glyph-name="uni048D" unicode="&#x48d;" horiz-adv-x="1136" 
d="M236 0l153 881h-235l32 184h236l65 369h205l-65 -369h297l-33 -184h-297l-33 -185h281q128 0 211.5 -87t83.5 -214q0 -165 -113.5 -280t-275.5 -115h-512zM469 174h270q78 0 135.5 56.5t57.5 144.5q0 65 -41 106t-103 41h-258z" />
    <glyph glyph-name="uni048E" unicode="&#x48e;" horiz-adv-x="1310" 
d="M154 0l252 1434h649q143 0 240.5 -108t97.5 -282q0 -144 -60 -261.5t-162 -188.5l66 -123l-154 -82l-71 133q-58 -10 -94 -10h-459l-90 -512h-215zM494 717h413l-69 133l153 82l84 -158q103 96 103 240q0 95 -50.5 155t-119.5 60h-424z" />
    <glyph glyph-name="uni048F" unicode="&#x48f;" horiz-adv-x="1218" 
d="M59 -410l254 1434h185l4 -92h10q15 15 37.5 31t60.5 36t92.5 32.5t116.5 12.5q186 0 303 -121t117 -319q0 -162 -60 -293t-165 -215l65 -127l-147 -82l-64 123q-92 -30 -172 -30q-64 0 -118.5 13.5t-89 32t-61 42.5t-38.5 42t-18 33h-9l-98 -553h-205zM780 180l-84 168
l148 82l78 -154q112 119 112 297q0 129 -74 208t-192 79q-87 0 -166.5 -52t-130.5 -147.5t-51 -209.5q0 -129 74 -208t192 -79q41 0 94 16z" />
    <glyph glyph-name="uni0490" unicode="&#x490;" horiz-adv-x="1116" 
d="M154 0l252 1434h706l51 286h215l-88 -491h-706l-215 -1229h-215z" />
    <glyph glyph-name="uni0491" unicode="&#x491;" horiz-adv-x="880" 
d="M133 0l180 1024h523l43 246h184l-78 -441h-502l-145 -829h-205z" />
    <glyph glyph-name="uni0492" unicode="&#x492;" 
d="M215 0l107 614h-195l37 205h194l109 615h901l-37 -205h-686l-72 -410h400l-37 -205h-399l-107 -614h-215z" />
    <glyph glyph-name="uni0493" unicode="&#x493;" horiz-adv-x="901" 
d="M174 0l72 410h-164l33 184h164l75 430h686l-34 -195h-482l-41 -235h348l-32 -184h-348l-72 -410h-205z" />
    <glyph glyph-name="uni0494" unicode="&#x494;" horiz-adv-x="1290" 
d="M154 0l252 1434h921l-37 -205h-706l-80 -457q52 18 74 23q81 24 186 24q224 0 354.5 -125t130.5 -336q0 -182 -77.5 -324.5t-213.5 -221t-307 -78.5h-53l37 215h31q160 0 264 106t104 273q0 132 -80.5 209t-226.5 77q-86 0 -186 -34q-32 -11 -78 -35l-94 -545h-215z" />
    <glyph glyph-name="uni0495" unicode="&#x495;" horiz-adv-x="1054" 
d="M522 -410h-43q12 72 17 93q3 19 7.5 43t6.5 36t2 13q53 0 103.5 21t95 64t71.5 119t27 175q0 114 -61 174.5t-164 60.5q-74 0 -138 -27q-39 -17 -51 -26l-57 -336h-205l180 1024h697l-33 -184h-492l-55 -308q33 18 59 25q75 27 146 27q178 0 278.5 -102t100.5 -287
q0 -141 -40.5 -257t-109.5 -191t-157 -116t-185 -41z" />
    <glyph glyph-name="uni0496" unicode="&#x496;" horiz-adv-x="1699" 
d="M-10 0l659 739l-350 695h250l334 -666l116 666h215l-116 -666l567 666h266l-616 -719l276 -510h154l-86 -492h-215l51 287h-41l-371 686l-120 -686h-215l120 686l-612 -686h-266z" />
    <glyph glyph-name="uni0497" unicode="&#x497;" horiz-adv-x="1392" 
d="M0 0l489 535l-272 489h229l254 -471l84 471h205l-84 -471l422 471h246l-469 -514l186 -326h144l-76 -430h-205l45 246h-31l-270 502l-88 -502h-205l88 502l-446 -502h-246z" />
    <glyph glyph-name="uni0498" unicode="&#x498;" horiz-adv-x="1239" 
d="M442 -287l50 283q-175 36 -271 138.5t-96 234.5q0 22 2 28q0 11 2 13h211v-21q0 -85 84.5 -145t243.5 -60q147 0 232 69t85 167q0 87 -69 146t-177 59h-137l35 194h174q119 0 192.5 63t73.5 152q0 91 -78.5 153t-218.5 62q-135 0 -208.5 -62.5t-92.5 -162.5h-215
q17 86 58.5 161.5t107 136.5t161.5 96.5t210 35.5q231 0 361 -110.5t130 -278.5q0 -184 -135 -293q-61 -48 -133 -72l-4 -10q48 -22 90 -61q90 -82 90 -209q0 -172 -136 -299t-362 -139l-45 -269h-215z" />
    <glyph glyph-name="uni0499" unicode="&#x499;" horiz-adv-x="993" 
d="M328 -246l41 244q-130 30 -196.5 110t-66.5 189v18q0 7 3 13h202v-11q0 -67 58.5 -115t167.5 -48q104 0 159.5 44t55.5 109q0 58 -48.5 95.5t-142.5 37.5h-102l30 164h134q88 0 139 38.5t51 94.5q0 57 -55.5 95t-159.5 38q-87 0 -137.5 -43t-65.5 -110h-205
q22 131 138 229t290 98q192 0 296 -81.5t104 -204.5q0 -125 -98 -203q-42 -33 -97 -49l-2 -10q21 -7 41 -19t43 -33.5t37 -57t14 -79.5q0 -128 -103.5 -220.5t-281.5 -104.5l-39 -228h-204z" />
    <glyph glyph-name="uni049A" unicode="&#x49a;" horiz-adv-x="1208" 
d="M154 0l252 1434h215l-115 -656l663 656h283l-731 -719l356 -510h156l-86 -492h-215l51 287h-25l-471 676l-118 -676h-215z" />
    <glyph glyph-name="uni049B" unicode="&#x49b;" horiz-adv-x="1034" 
d="M133 0l180 1024h205l-84 -471l514 471h258l-563 -514l244 -326h178l-76 -430h-205l45 246h-41l-364 492l-86 -492h-205z" />
    <glyph glyph-name="uni049C" unicode="&#x49c;" horiz-adv-x="1331" 
d="M154 0l252 1434h215l-109 -615h82l39 225h164l-39 -225h63l471 615h277l-582 -715l361 -719h-246l-305 614h-76l-39 -225h-164l39 225h-82l-106 -614h-215z" />
    <glyph glyph-name="uni049D" unicode="&#x49d;" horiz-adv-x="1095" 
d="M133 0l180 1024h205l-74 -410h72l31 174h133l-31 -174h47l324 410h252l-414 -510l244 -514h-221l-215 451h-45l-33 -185h-133l32 185h-71l-78 -451h-205z" />
    <glyph glyph-name="uni049E" unicode="&#x49e;" horiz-adv-x="1259" 
d="M205 0l194 1106h-204l32 184h203l27 144h215l-27 -144h156l-33 -184h-154l-57 -328l664 656h282l-731 -719l500 -715h-262l-471 676l-119 -676h-215z" />
    <glyph glyph-name="uni049F" unicode="&#x49f;" horiz-adv-x="1054" 
d="M164 0l194 1106h-163l32 184h162l27 144h205l-27 -144h237l-32 -184h-238l-96 -553l514 471h258l-563 -514l383 -510h-238l-364 492l-86 -492h-205z" />
    <glyph glyph-name="uni04A0" unicode="&#x4a0;" horiz-adv-x="1300" 
d="M246 0l215 1229h-246l37 205h461l-115 -656l664 656h282l-731 -719l500 -715h-262l-471 676l-119 -676h-215z" />
    <glyph glyph-name="uni04A1" unicode="&#x4a1;" horiz-adv-x="1105" 
d="M215 0l147 840h-215l33 184h420l-84 -471l514 471h258l-563 -514l383 -510h-238l-364 492l-86 -492h-205z" />
    <glyph glyph-name="uni04A2" unicode="&#x4a2;" horiz-adv-x="1515" 
d="M154 0l252 1434h215l-107 -605h727l107 605h215l-217 -1229h153l-86 -492h-215l51 287h-153l108 625h-727l-108 -625h-215z" />
    <glyph glyph-name="uni04A3" unicode="&#x4a3;" horiz-adv-x="1208" 
d="M133 0l180 1024h205l-74 -410h482l73 410h205l-149 -840h143l-76 -430h-204l45 246h-144l74 420h-481l-74 -420h-205z" />
    <glyph glyph-name="uni04A4" unicode="&#x4a4;" horiz-adv-x="1976" 
d="M154 0l252 1434h215l-107 -605h686l107 605h880l-37 -205h-665l-215 -1229h-215l108 625h-686l-108 -625h-215z" />
    <glyph glyph-name="uni04A5" unicode="&#x4a5;" horiz-adv-x="1495" 
d="M133 0l180 1024h205l-74 -410h451l74 410h665l-35 -195h-460l-146 -829h-205l74 420h-450l-74 -420h-205z" />
    <glyph glyph-name="uni04A6" unicode="&#x4a6;" horiz-adv-x="2119" 
d="M154 0l252 1434h1064l-116 -662q39 17 63 23q70 24 180 24q227 0 359.5 -125.5t132.5 -335.5q0 -181 -78 -324t-213 -221.5t-303 -78.5h-47l35 205h22q155 0 262 111t107 278q0 132 -80.5 209t-226.5 77q-85 0 -185 -34q-37 -14 -69 -33l-94 -547h-215l215 1229h-635
l-215 -1229h-215z" />
    <glyph glyph-name="uni04A7" unicode="&#x4a7;" horiz-adv-x="1658" 
d="M133 0l180 1024h820l-86 -485q36 16 59 22q90 23 143 23q177 0 278 -104.5t101 -284.5q0 -138 -40 -253.5t-108 -191.5t-158.5 -118t-191.5 -42h-36l32 185q54 0 106 25t95 71.5t69.5 120t26.5 162.5q0 111 -63 173t-160 62q-68 0 -135 -27q-37 -15 -55 -26l-58 -336
h-204l147 840h-410l-147 -840h-205z" />
    <glyph glyph-name="uni04A8" unicode="&#x4a8;" horiz-adv-x="1669" 
d="M1163 276q152 67 255.5 212.5t103.5 340.5q0 140 -62 218.5t-153 78.5q-54 0 -109.5 -32.5t-102.5 -92.5t-76.5 -156t-29.5 -210q0 -222 174 -359zM1552 184l-34 -204q-280 0 -385 71q-127 -71 -287 -71q-278 0 -446.5 170.5t-168.5 453.5q0 175 64 335t167.5 271.5
t239 177.5t275.5 66h47l-39 -205h-33q-93 0 -184.5 -46.5t-162.5 -125.5t-115 -195.5t-44 -246.5q0 -209 121 -330t330 -121q23 0 33 2l18 4q-85 78 -129.5 195t-44.5 250q0 152 47 284.5t124.5 221t177 139.5t204.5 51q167 0 283 -134.5t116 -356.5q0 -200 -93 -360
t-255 -275q26 -7 49 -10q64 -11 125 -11z" />
    <glyph glyph-name="uni04A9" unicode="&#x4a9;" horiz-adv-x="1259" 
d="M1163 164l-33 -184q-175 0 -282 61q-40 -25 -101.5 -43t-113.5 -18q-206 0 -338.5 130t-132.5 330q0 128 45 241.5t120.5 192.5t176.5 124.5t211 45.5h28l-36 -184q-135 0 -237.5 -113.5t-102.5 -285.5q0 -128 79 -212.5t187 -84.5q15 0 43 4l18 6q-102 164 -102 307
q0 203 115 332t274 129q132 0 214.5 -85.5t82.5 -231.5q0 -79 -21.5 -152t-59 -129t-75 -96t-80.5 -74q31 -10 121 -10zM868 246q81 46 143 150.5t62 207.5q0 75 -31 114.5t-81 39.5q-62 0 -113 -73.5t-51 -203.5q0 -152 71 -235z" />
    <glyph glyph-name="uni04AA" unicode="&#x4aa;" horiz-adv-x="1505" 
d="M641 -287l47 283q-207 50 -337 215.5t-130 392.5q0 184 61.5 344t165.5 270t244.5 173t296.5 63q228 0 392 -138.5t210 -363.5h-221q-41 140 -147 218.5t-254 78.5q-105 0 -201 -44t-170 -122.5t-118 -197.5t-44 -260q0 -198 117 -319.5t303 -121.5q143 0 267.5 81.5
t195.5 226.5h227q-82 -218 -255 -354.5t-390 -153.5l-45 -271h-215z" />
    <glyph glyph-name="uni04AB" unicode="&#x4ab;" horiz-adv-x="1136" 
d="M455 -246l45 244q-154 37 -241 151.5t-87 280.5q0 131 45.5 246.5t121.5 195.5t179.5 126t216.5 46q184 0 301.5 -98t143.5 -270h-205q-26 91 -91 137.5t-159 46.5q-143 0 -245.5 -115t-102.5 -294q0 -130 75.5 -208.5t200.5 -78.5q87 0 163.5 51t123.5 143h205
q-56 -160 -174 -258.5t-269 -115.5l-43 -230h-204z" />
    <glyph glyph-name="uni04AC" unicode="&#x4ac;" horiz-adv-x="1198" 
d="M584 -287l51 287h-154l215 1229h-450l37 205h1116l-37 -205h-451l-180 -1024h154l-86 -492h-215z" />
    <glyph glyph-name="uni04AD" unicode="&#x4ad;" horiz-adv-x="942" 
d="M467 -246l45 246h-143l145 829h-338l35 195h881l-35 -195h-338l-115 -645h144l-76 -430h-205z" />
    <glyph glyph-name="uni04AE" unicode="&#x4ae;" horiz-adv-x="1239" 
d="M492 0l90 512l-361 922h232l260 -666h41l483 666h244l-684 -922l-90 -512h-215z" />
    <glyph glyph-name="uni04AF" unicode="&#x4af;" horiz-adv-x="1044" 
d="M346 -410l74 410h-41l-189 1024h209l142 -778h37l415 778h221l-548 -1024h-41l-74 -410h-205z" />
    <glyph glyph-name="uni04B0" unicode="&#x4b0;" horiz-adv-x="1239" 
d="M492 0l90 512h-328l33 195h219l-285 727h232l260 -666h41l483 666h244l-541 -727h217l-33 -195h-327l-90 -512h-215z" />
    <glyph glyph-name="uni04B1" unicode="&#x4b1;" horiz-adv-x="1044" 
d="M346 -410l74 410h-246l31 184h139l-154 840h209l142 -778h37l415 778h221l-450 -840h137l-31 -184h-245l-74 -410h-205z" />
    <glyph glyph-name="uni04B2" unicode="&#x4b2;" horiz-adv-x="1290" 
d="M0 0l651 750l-352 684h240l260 -502h41l436 502h256l-614 -709l270 -520h147l-86 -492h-215l51 287h-30l-285 543h-41l-473 -543h-256z" />
    <glyph glyph-name="uni04B3" unicode="&#x4b3;" horiz-adv-x="1013" 
d="M0 0l451 545l-244 479h229l174 -348h41l297 348h246l-436 -504l162 -336h135l-76 -430h-205l45 246h-41l-180 379h-41l-311 -379h-246z" />
    <glyph glyph-name="uni04B4" unicode="&#x4b4;" horiz-adv-x="1720" 
d="M410 0l215 1229h-400l37 205h1004l-37 -205h-389l-181 -1024h676l217 1229h215l-217 -1229h154l-86 -492h-215l51 287h-1044z" />
    <glyph glyph-name="uni04B5" unicode="&#x4b5;" horiz-adv-x="1372" 
d="M317 0l148 840h-287l33 184h768l-33 -184h-276l-117 -656h461l149 840h205l-149 -840h143l-76 -430h-205l45 246h-809z" />
    <glyph glyph-name="uni04B6" unicode="&#x4b6;" horiz-adv-x="1423" 
d="M1102 -287l51 287h-154l99 553q-63 -37 -99 -51q-119 -51 -245 -51q-228 0 -344.5 107t-116.5 302q0 78 14 160l74 414h215l-76 -424q-12 -54 -12 -109q0 -246 297 -246q129 0 239 52q34 15 89 51l118 676h215l-217 -1229h154l-86 -492h-215z" />
    <glyph glyph-name="uni04B7" unicode="&#x4b7;" horiz-adv-x="1157" 
d="M866 -246l45 246h-143l63 365q-129 -68 -247 -68q-175 0 -267 82t-92 225q0 26 17 133l51 287h205l-52 -287q-10 -58 -10 -82q0 -81 52 -122t167 -41q104 0 209 63l84 469h205l-147 -840h141l-76 -430h-205z" />
    <glyph glyph-name="uni04B8" unicode="&#x4b8;" horiz-adv-x="1372" 
d="M639 266l33 189q-186 20 -280.5 124.5t-94.5 280.5q0 78 14 160l74 414h215l-76 -424q-12 -54 -12 -109q0 -198 197 -237l47 258h164l-48 -265q96 9 195 58q33 17 70 43l118 676h215l-251 -1434h-215l98 553q-18 -11 -76 -41q-91 -45 -190 -57l-33 -189h-164z" />
    <glyph glyph-name="uni04B9" unicode="&#x4b9;" horiz-adv-x="1105" 
d="M512 184l20 115q-151 12 -229 92.5t-78 212.5q0 26 17 133l51 287h205l-52 -287q-10 -58 -10 -82q0 -64 30.5 -103t100.5 -52l35 196h133l-37 -202q77 10 166 61l84 469h205l-180 -1024h-205l63 365q-85 -46 -165 -62l-21 -119h-133z" />
    <glyph glyph-name="uni04BA" unicode="&#x4ba;" horiz-adv-x="1372" 
d="M154 0l252 1434h215l-99 -553q63 37 99 51q129 51 245 51q228 0 344.5 -107t116.5 -303q0 -77 -14 -159l-74 -414h-215l76 424q12 54 12 108q0 246 -297 246q-130 0 -242 -51q-43 -17 -86 -51l-118 -676h-215z" />
    <glyph glyph-name="uni04BB" unicode="&#x4bb;" horiz-adv-x="1187" 
d="M143 0l252 1434h205l-86 -492h10q48 37 76 51q100 51 205 51q169 0 269 -98t100 -260q0 -78 -9 -113l-100 -573h-205l103 594q6 30 6 51q0 101 -59 158t-167 57q-105 0 -186 -68t-98 -167l-111 -625h-205z" />
    <glyph glyph-name="uni04BC" unicode="&#x4bc;" horiz-adv-x="1720" 
d="M401 604v21h-63q-217 0 -217 174q0 30 10 82l12 71h185l-6 -30q-7 -27 -7 -52q0 -29 26.5 -45t66.5 -16h14q61 289 268 467t479 178q266 0 433 -168t167 -436q0 -82 -14 -154l-12 -71h-1127q0 -198 117 -319.5t303 -121.5q131 0 247.5 67.5t189.5 188.5h231
q-94 -213 -278.5 -336.5t-409.5 -123.5q-129 0 -243 47.5t-195.5 130t-129 198.5t-47.5 248zM639 809h917v12q0 4 1.5 14t1.5 15q0 168 -117 283.5t-293 115.5q-177 0 -319.5 -118t-190.5 -322z" />
    <glyph glyph-name="uni04BD" unicode="&#x4bd;" horiz-adv-x="1331" 
d="M328 430v10h-52q-87 0 -127 37.5t-40 116.5q0 23 10 88l4 25h164l-4 -25q-4 -32 -4 -37q0 -51 59 -51h8q49 202 200 326t345 124q190 0 320 -127.5t130 -312.5q0 -55 -16 -117q-2 -6 -14 -47h-779q8 -134 78.5 -210t198.5 -76q86 0 145 37.5t105 105.5h221
q-71 -151 -192.5 -234t-288.5 -83q-215 0 -343 124t-128 326zM553 594h594q-8 125 -79 200.5t-187 75.5q-115 0 -202 -75t-126 -201z" />
    <glyph glyph-name="uni04BE" unicode="&#x4be;" horiz-adv-x="1720" 
d="M807 -287l51 287q-204 50 -330.5 214t-126.5 390v21h-63q-217 0 -217 174q0 30 10 82l12 71h185l-6 -30q-7 -27 -7 -52q0 -29 26.5 -45t66.5 -16h14q61 289 268 467t479 178q266 0 433 -168t167 -436q0 -82 -14 -154l-12 -71h-1127q0 -198 117 -319.5t303 -121.5
q131 0 247.5 67.5t189.5 188.5h231q-91 -197 -256 -318t-369 -138l-47 -271h-225zM639 809h917v12q0 4 1.5 14t1.5 15q0 168 -117 283.5t-293 115.5q-177 0 -319.5 -118t-190.5 -322z" />
    <glyph glyph-name="uni04BF" unicode="&#x4bf;" horiz-adv-x="1331" 
d="M610 -246l43 244q-154 38 -239.5 152t-85.5 280v10h-52q-87 0 -127 37.5t-40 116.5q0 23 10 88l4 25h164l-4 -25q-4 -32 -4 -37q0 -51 59 -51h8q49 202 200 326t345 124q190 0 320 -127.5t130 -312.5q0 -55 -16 -117q-2 -6 -14 -47h-779q8 -134 78.5 -210t198.5 -76
q86 0 145 37.5t105 105.5h221q-64 -138 -171.5 -219t-252.5 -94l-41 -230h-205zM553 594h594q-8 125 -79 200.5t-187 75.5q-115 0 -202 -75t-126 -201z" />
    <glyph glyph-name="uni04C0" unicode="&#x4c0;" horiz-adv-x="522" 
d="M154 0l252 1434h215l-252 -1434h-215z" />
    <glyph glyph-name="uni04C1" unicode="&#x4c1;" horiz-adv-x="1689" 
d="M-10 0l659 739l-350 695h250l334 -666l116 666h215l-116 -666l567 666h266l-616 -719l389 -715h-250l-371 686l-120 -686h-215l120 686l-612 -686h-266zM840 1864h164q0 -62 36 -97.5t97 -35.5q54 0 97 35.5t66 97.5h164q-25 -117 -120 -197t-218 -80q-129 0 -207.5 74
t-78.5 192v11z" />
    <glyph glyph-name="uni04C2" unicode="&#x4c2;" horiz-adv-x="1392" 
d="M0 0l489 535l-272 489h229l254 -471l84 471h205l-84 -471l422 471h246l-469 -514l293 -510h-230l-270 502l-88 -502h-205l88 502l-446 -502h-246zM614 1464h164q0 -62 36 -97.5t97 -35.5q54 0 97.5 35.5t66.5 97.5h164q-25 -117 -120 -196.5t-218 -79.5q-129 0 -208 74
t-79 192v10z" />
    <glyph glyph-name="uni04C3" unicode="&#x4c3;" horiz-adv-x="1280" 
d="M154 0l252 1434h215l-115 -656l663 656h283l-625 -615q191 0 306.5 -118.5t115.5 -311.5q0 -147 -45.5 -270t-125.5 -207.5t-191.5 -131t-241.5 -46.5h-10v205h31q160 0 264 108t104 301q0 130 -83.5 208.5t-223.5 78.5q-89 0 -186 -33q-30 -11 -72 -33l-100 -569h-215z
" />
    <glyph glyph-name="uni04C4" unicode="&#x4c4;" horiz-adv-x="1095" 
d="M133 0l180 1024h205l-84 -471l514 471h246l-475 -430q156 -24 246 -127.5t90 -271.5q0 -67 -11 -123q-47 -239 -184.5 -365.5t-347.5 -126.5h-55l35 195h30q62 0 119.5 25.5t105 73t75.5 125.5t28 175q0 117 -64.5 181.5t-181.5 64.5q-52 0 -101 -12t-72.5 -23.5
t-29.5 -17.5l-63 -367h-205z" />
    <glyph glyph-name="uni04C5" unicode="&#x4c5;" horiz-adv-x="1443" 
d="M8 -10l37 215h88q123 0 164 153l278 1076h926l-217 -1229h205l-6 -31l-234 -461h-164l103 287h-154l215 1229h-510l-237 -922q-83 -317 -363 -317h-131z" />
    <glyph glyph-name="uni04C6" unicode="&#x4c6;" horiz-adv-x="1177" 
d="M8 -10l33 194h61q55 0 96.5 39t61.5 113l186 688h728l-148 -840h182l-4 -30l-215 -400h-143l86 246h-144l148 840h-332l-147 -549q-79 -301 -328 -301h-121z" />
    <glyph glyph-name="uni04C7" unicode="&#x4c7;" horiz-adv-x="1464" 
d="M154 0l252 1434h215l-107 -605h727l107 605h215l-267 -1506q-32 -184 -120.5 -266t-249.5 -82h-101l39 215h51q143 0 168 144l121 686h-727l-108 -625h-215z" />
    <glyph glyph-name="uni04C8" unicode="&#x4c8;" horiz-adv-x="1157" 
d="M133 0l180 1024h205l-74 -410h482l73 410h205l-200 -1141q-25 -145 -108 -224t-220 -79h-107l35 195h47q126 0 150 129l92 516h-481l-74 -420h-205z" />
    <glyph glyph-name="uni04C9" unicode="&#x4c9;" horiz-adv-x="1505" 
d="M154 0l252 1434h215l-107 -605h727l107 605h215l-217 -1229h204l-6 -31l-233 -461h-164l102 287h-153l108 625h-727l-108 -625h-215z" />
    <glyph glyph-name="uni04CA" unicode="&#x4ca;" horiz-adv-x="1208" 
d="M133 0l180 1024h205l-74 -410h482l73 410h205l-149 -840h184l-4 -30l-215 -400h-143l86 246h-144l74 420h-481l-74 -420h-205z" />
    <glyph glyph-name="uni04CB" unicode="&#x4cb;" horiz-adv-x="1372" 
d="M799 -287l82 471h155l66 369q-65 -38 -98 -51q-119 -51 -246 -51q-228 0 -344.5 107t-116.5 302q0 78 14 160l74 414h215l-76 -424q-12 -54 -12 -109q0 -246 297 -246q130 0 240 52q32 13 88 51l118 676h215l-251 -1434h-154l-51 -287h-215z" />
    <glyph glyph-name="uni04CC" unicode="&#x4cc;" horiz-adv-x="1105" 
d="M569 -246l74 410h154l34 201q-129 -68 -247 -68q-175 0 -267 82t-92 225q0 26 17 133l51 287h205l-52 -287q-10 -58 -10 -82q0 -81 52 -122t167 -41q104 0 209 63l84 469h205l-180 -1024h-144l-45 -246h-215z" />
    <glyph glyph-name="uni04CD" unicode="&#x4cd;" horiz-adv-x="1884" 
d="M154 0l252 1434h368l180 -1127h41l578 1127h369l-218 -1229h205l-6 -31l-233 -461h-164l102 287h-153l192 1096h-41l-561 -1096h-287l-176 1096h-41l-192 -1096h-215z" />
    <glyph glyph-name="uni04CE" unicode="&#x4ce;" horiz-adv-x="1525" 
d="M133 0l180 1024h338l113 -748h41l379 748h338l-150 -840h184l-4 -30l-215 -400h-143l86 246h-143l131 748h-41l-377 -748h-225l-115 748h-41l-131 -748h-205z" />
    <glyph glyph-name="uni04CF" unicode="&#x4cf;" horiz-adv-x="491" 
d="M143 0l252 1434h205l-252 -1434h-205z" />
    <glyph glyph-name="uni04D0" unicode="&#x4d0;" horiz-adv-x="1372" 
d="M20 0l775 1434h327l271 -1434h-230l-63 338h-656l-182 -338h-242zM549 532h512l-119 656h-41zM700 1864h164q0 -62 36 -97.5t97 -35.5q54 0 97.5 35.5t66.5 97.5h164q-25 -117 -120 -197t-218 -80q-129 0 -208 74t-79 192v11z" />
    <glyph glyph-name="uni04D1" unicode="&#x4d1;" horiz-adv-x="1095" 
d="M848 410l10 61h-287q-105 0 -160 -51t-55 -133q0 -63 49 -98t146 -35q122 0 200 69t97 187zM807 0l-2 92h-10q-35 -35 -78 -57q-90 -55 -217 -55q-165 0 -256.5 79.5t-91.5 206.5q0 171 109 270t300 99h326l4 20q2 6 2 31q0 87 -55 135.5t-154 48.5q-87 0 -141 -46
t-70 -97h-205q32 129 145.5 223t280.5 94q193 0 298.5 -92t105.5 -245q0 -36 -11 -93l-106 -614h-174zM481 1464h164q0 -62 35.5 -97.5t97.5 -35.5q54 0 97.5 35.5t66.5 97.5h164q-25 -117 -120 -196.5t-218 -79.5q-129 0 -208 74t-79 192v10z" />
    <glyph glyph-name="uni04D2" unicode="&#x4d2;" horiz-adv-x="1372" 
d="M20 0l775 1434h327l271 -1434h-230l-63 338h-656l-182 -338h-242zM549 532h512l-119 656h-41zM696 1628l37 205h205l-37 -205h-205zM1065 1628l37 205h205l-37 -205h-205z" />
    <glyph glyph-name="uni04D3" unicode="&#x4d3;" horiz-adv-x="1095" 
d="M848 410l10 61h-287q-105 0 -160 -51t-55 -133q0 -63 49 -98t146 -35q122 0 200 69t97 187zM807 0l-2 92h-10q-35 -35 -78 -57q-90 -55 -217 -55q-165 0 -256.5 79.5t-91.5 206.5q0 171 109 270t300 99h326l4 20q2 6 2 31q0 87 -55 135.5t-154 48.5q-87 0 -141 -46
t-70 -97h-205q32 129 145.5 223t280.5 94q193 0 298.5 -92t105.5 -245q0 -36 -11 -93l-106 -614h-174zM481 1229l37 205h205l-37 -205h-205zM850 1229l37 205h205l-37 -205h-205z" />
    <glyph glyph-name="uni04D6" unicode="&#x4d6;" horiz-adv-x="1208" 
d="M154 0l252 1434h942l-37 -205h-727l-72 -410h686l-37 -205h-686l-72 -409h727l-34 -205h-942zM614 1864h164q0 -62 36 -97.5t97 -35.5q54 0 97.5 35.5t66.5 97.5h164q-25 -117 -120 -197t-218 -80q-129 0 -208 74t-79 192v11z" />
    <glyph glyph-name="uni04D7" unicode="&#x4d7;" 
d="M897 297h221q-71 -151 -192.5 -234t-288.5 -83q-215 0 -343 124t-128 326q0 131 45.5 246.5t121.5 195.5t179.5 126t216.5 46q190 0 320.5 -127.5t130.5 -312.5q0 -51 -17 -117q-2 -6 -14 -47h-778q8 -134 78 -210t198 -76q86 0 145 37.5t105 105.5zM391 594h594
q-8 125 -79 200.5t-187 75.5q-115 0 -202 -75t-126 -201zM492 1464h163q0 -62 35.5 -97.5t97.5 -35.5q54 0 97.5 35.5t66.5 97.5h164q-25 -117 -120 -196.5t-218 -79.5q-129 0 -207.5 74t-78.5 192v10z" />
    <glyph glyph-name="uni04D8" unicode="&#x4d8;" horiz-adv-x="1542" 
d="M236 737l12 72h1126q0 198 -117 319t-303 121q-131 0 -247 -67.5t-189 -188.5h-231q94 212 279.5 336.5t408.5 124.5q172 0 312.5 -81t221 -224.5t80.5 -319.5q0 -184 -61.5 -343.5t-165.5 -269.5t-244.5 -173t-296.5 -63q-266 0 -433 168t-167 436q0 76 15 153z
M1352 625h-918q-2 -2 -2 -13v-28q0 -170 117 -285t293 -115q177 0 319.5 118.5t190.5 322.5z" />
    <glyph glyph-name="uni04D9" unicode="&#x4d9;" 
d="M197 584h778q-8 134 -78.5 210t-198.5 76q-86 0 -144.5 -37.5t-104.5 -105.5h-222q71 151 193 234t289 83q213 0 342 -124t129 -326q0 -175 -77.5 -316.5t-206 -219.5t-280.5 -78q-190 0 -320 127.5t-130 312.5q0 63 14 117q2 5 8 22t9 25zM954 430h-594
q8 -124 79.5 -200t187.5 -76q115 0 201.5 75t125.5 201z" />
    <glyph glyph-name="uni04DA" unicode="&#x4da;" horiz-adv-x="1542" 
d="M236 737l12 72h1126q0 198 -117 319t-303 121q-131 0 -247 -67.5t-189 -188.5h-231q94 212 279.5 336.5t408.5 124.5q172 0 312.5 -81t221 -224.5t80.5 -319.5q0 -184 -61.5 -343.5t-165.5 -269.5t-244.5 -173t-296.5 -63q-266 0 -433 168t-167 436q0 76 15 153z
M1352 625h-918q-2 -2 -2 -13v-28q0 -170 117 -285t293 -115q177 0 319.5 118.5t190.5 322.5zM748 1628l36 205h205l-37 -205h-204zM1116 1628l37 205h205l-37 -205h-205z" />
    <glyph glyph-name="uni04DB" unicode="&#x4db;" 
d="M197 584h778q-8 134 -78.5 210t-198.5 76q-86 0 -144.5 -37.5t-104.5 -105.5h-222q71 151 193 234t289 83q213 0 342 -124t129 -326q0 -175 -77.5 -316.5t-206 -219.5t-280.5 -78q-190 0 -320 127.5t-130 312.5q0 63 14 117q2 5 8 22t9 25zM954 430h-594
q8 -124 79.5 -200t187.5 -76q115 0 201.5 75t125.5 201zM492 1229l36 205h205l-37 -205h-204zM860 1229l37 205h205l-37 -205h-205z" />
    <glyph glyph-name="uni04DC" unicode="&#x4dc;" horiz-adv-x="1689" 
d="M-10 0l659 739l-350 695h250l334 -666l116 666h215l-116 -666l567 666h266l-616 -719l389 -715h-250l-371 686l-120 -686h-215l120 686l-612 -686h-266zM840 1628l37 205h204l-37 -205h-204zM1208 1628l37 205h205l-37 -205h-205z" />
    <glyph glyph-name="uni04DD" unicode="&#x4dd;" horiz-adv-x="1392" 
d="M0 0l489 535l-272 489h229l254 -471l84 471h205l-84 -471l422 471h246l-469 -514l293 -510h-230l-270 502l-88 -502h-205l88 502l-446 -502h-246zM625 1229l37 205h204l-37 -205h-204zM993 1229l37 205h205l-37 -205h-205z" />
    <glyph glyph-name="uni04DE" unicode="&#x4de;" horiz-adv-x="1239" 
d="M604 625l35 194h174q119 0 192.5 63t73.5 152q0 91 -78.5 153t-218.5 62q-135 0 -208.5 -62.5t-92.5 -162.5h-215q17 86 58.5 161.5t107 136.5t161.5 96.5t210 35.5q231 0 361 -110.5t130 -278.5q0 -184 -135 -293q-61 -48 -133 -72l-4 -10q48 -22 90 -61q90 -82 90 -209
q0 -184 -149 -312t-398 -128q-125 0 -227 32t-166.5 86t-99.5 123.5t-35 147.5q0 22 2 28q0 11 2 13h211v-21q0 -85 84.5 -145t243.5 -60q147 0 232 69t85 167q0 87 -69 146t-177 59h-137zM590 1628l37 205h204l-36 -205h-205zM958 1628l37 205h205l-37 -205h-205z" />
    <glyph glyph-name="uni04DF" unicode="&#x4df;" horiz-adv-x="993" 
d="M109 328h202v-11q0 -67 58.5 -115t167.5 -48q104 0 159.5 44t55.5 109q0 58 -48.5 95.5t-142.5 37.5h-102l30 164h134q88 0 139 38.5t51 94.5q0 57 -55.5 95t-159.5 38q-87 0 -137.5 -43t-65.5 -110h-205q22 131 138 229t290 98q192 0 296 -81.5t104 -204.5
q0 -125 -98 -203q-42 -33 -97 -49l-2 -10q21 -7 41 -19t43 -33.5t37 -57t14 -79.5q0 -137 -115.5 -232t-314.5 -95q-205 0 -312.5 90t-107.5 227v18q0 7 3 13zM410 1229l36 205h205l-37 -205h-204zM778 1229l37 205h205l-37 -205h-205z" />
    <glyph glyph-name="uni04E0" unicode="&#x4e0;" horiz-adv-x="1218" 
d="M123 389h211v-10q0 -84 81 -139.5t247 -55.5q157 0 242 73t85 194q0 95 -73.5 160t-196.5 65h-297l33 184l534 369h-686l37 205h993l-37 -195l-532 -369v-10h39q181 0 291 -111.5t110 -277.5q0 -219 -148 -355t-405 -136q-266 0 -399 102t-133 266q0 23 2 29q0 10 2 12z
" />
    <glyph glyph-name="uni04E1" unicode="&#x4e1;" horiz-adv-x="1044" 
d="M49 -10h205v-21q0 -95 66 -155t180 -60q118 0 197 85.5t79 221.5q0 102 -65.5 164t-180.5 62h-227l31 174l467 379h-553l33 184h829l-33 -184l-454 -369l-2 -10q162 -18 261 -118t99 -261q0 -222 -143 -367t-359 -145q-197 0 -313.5 107t-116.5 272v41z" />
    <glyph glyph-name="uni04E2" unicode="&#x4e2;" horiz-adv-x="1454" 
d="M154 0l252 1434h215l-197 -1117h41l764 1117h323l-252 -1434h-215l197 1116h-41l-764 -1116h-323zM698 1638l29 164h614l-28 -164h-615z" />
    <glyph glyph-name="uni04E3" unicode="&#x4e3;" horiz-adv-x="1157" 
d="M133 0l180 1024h205l-131 -737h41l473 737h303l-180 -1024h-205l129 737h-41l-471 -737h-303zM481 1249l29 164h614l-28 -164h-615z" />
    <glyph glyph-name="uni04E4" unicode="&#x4e4;" horiz-adv-x="1454" 
d="M154 0l252 1434h215l-197 -1117h41l764 1117h323l-252 -1434h-215l197 1116h-41l-764 -1116h-323zM717 1628l37 205h204l-36 -205h-205zM1085 1628l37 205h205l-37 -205h-205z" />
    <glyph glyph-name="uni04E5" unicode="&#x4e5;" horiz-adv-x="1157" 
d="M133 0l180 1024h205l-131 -737h41l473 737h303l-180 -1024h-205l129 737h-41l-471 -737h-303zM492 1229l36 205h205l-37 -205h-204zM860 1229l37 205h205l-37 -205h-205z" />
    <glyph glyph-name="uni04E6" unicode="&#x4e6;" horiz-adv-x="1556" 
d="M856 184q105 0 201 44t170 122.5t118 198t44 260.5q0 198 -117 319t-303 121q-105 0 -201 -44t-170 -122.5t-118 -197.5t-44 -260q0 -198 117 -319.5t303 -121.5zM836 -20q-129 0 -243 47.5t-195.5 130t-129 198.5t-47.5 248q0 184 61.5 344t165.5 270t244.5 173
t296.5 63q129 0 243 -47.5t195.5 -130t129 -199t47.5 -248.5q0 -184 -61.5 -343.5t-165.5 -269.5t-244.5 -173t-296.5 -63zM758 1628l37 205h204l-36 -205h-205zM1126 1628l37 205h205l-37 -205h-205z" />
    <glyph glyph-name="uni04E7" unicode="&#x4e7;" horiz-adv-x="1187" 
d="M647 164q143 0 245.5 115t102.5 294q0 130 -76 208.5t-200 78.5q-143 0 -245.5 -115t-102.5 -294q0 -130 76 -208.5t200 -78.5zM637 -20q-215 0 -343 124t-128 326q0 131 45.5 246.5t121.5 195.5t179.5 126t216.5 46q213 0 342 -124t129 -326q0 -131 -45.5 -246.5
t-121.5 -195.5t-179.5 -126t-216.5 -46zM492 1229l36 205h205l-37 -205h-204zM860 1229l37 205h205l-37 -205h-205z" />
    <glyph glyph-name="uni04E8" unicode="&#x4e8;" horiz-adv-x="1556" 
d="M836 -20q-129 0 -243 47.5t-195.5 130t-129 198.5t-47.5 248q0 184 61.5 344t165.5 270t244.5 173t296.5 63q129 0 243 -47.5t195.5 -130t129 -199t47.5 -248.5q0 -184 -61.5 -343.5t-165.5 -269.5t-244.5 -173t-296.5 -63zM436 635v-10q0 -198 117 -319.5t303 -121.5
q179 0 322.5 121t191.5 330h-934zM455 799h934v10q0 198 -117 319t-303 121q-181 0 -323.5 -120.5t-190.5 -329.5z" />
    <glyph glyph-name="uni04E9" unicode="&#x4e9;" horiz-adv-x="1187" 
d="M166 430q0 131 45.5 246.5t121.5 195.5t179.5 126t216.5 46q213 0 342 -124t129 -326q0 -131 -45.5 -246.5t-121.5 -195.5t-179.5 -126t-216.5 -46q-215 0 -343 124t-128 326zM977 440h-606q5 -128 79 -202t197 -74q112 0 203.5 74.5t126.5 201.5zM391 594h602
q-6 123 -79.5 194.5t-194.5 71.5q-111 0 -201.5 -72t-126.5 -194z" />
    <glyph glyph-name="uni04EA" unicode="&#x4ea;" horiz-adv-x="1556" 
d="M836 -20q-129 0 -243 47.5t-195.5 130t-129 198.5t-47.5 248q0 184 61.5 344t165.5 270t244.5 173t296.5 63q129 0 243 -47.5t195.5 -130t129 -199t47.5 -248.5q0 -184 -61.5 -343.5t-165.5 -269.5t-244.5 -173t-296.5 -63zM436 635v-10q0 -198 117 -319.5t303 -121.5
q179 0 322.5 121t191.5 330h-934zM455 799h934v10q0 198 -117 319t-303 121q-181 0 -323.5 -120.5t-190.5 -329.5zM758 1628l37 205h204l-36 -205h-205zM1126 1628l37 205h205l-37 -205h-205z" />
    <glyph glyph-name="uni04EB" unicode="&#x4eb;" horiz-adv-x="1187" 
d="M166 430q0 131 45.5 246.5t121.5 195.5t179.5 126t216.5 46q213 0 342 -124t129 -326q0 -131 -45.5 -246.5t-121.5 -195.5t-179.5 -126t-216.5 -46q-215 0 -343 124t-128 326zM977 440h-606q5 -128 79 -202t197 -74q112 0 203.5 74.5t126.5 201.5zM391 594h602
q-6 123 -79.5 194.5t-194.5 71.5q-111 0 -201.5 -72t-126.5 -194zM492 1229l36 205h205l-37 -205h-204zM860 1229l37 205h205l-37 -205h-205z" />
    <glyph glyph-name="uni04EC" unicode="&#x4ec;" horiz-adv-x="1495" 
d="M172 492h223q38 -148 142 -228t258 -80q172 0 313.5 115.5t194.5 314.5h-635l37 205h622q-4 194 -120.5 312t-299.5 118q-297 0 -448 -297h-228q89 229 272 365.5t425 136.5q172 0 312.5 -81t221 -224.5t80.5 -319.5q0 -184 -61.5 -343.5t-165.5 -269.5t-244.5 -173
t-296.5 -63q-236 0 -400.5 141t-201.5 371zM707 1628l36 205h205l-37 -205h-204zM1075 1628l37 205h205l-37 -205h-205z" />
    <glyph glyph-name="uni04ED" unicode="&#x4ed;" horiz-adv-x="1136" 
d="M131 348h205q55 -184 252 -184q111 0 201 72t126 194h-426l31 174h414q-11 117 -84.5 186.5t-190.5 69.5q-87 0 -159 -44.5t-119 -129.5h-205q73 172 199.5 265t294.5 93q213 0 342 -124t129 -326q0 -131 -45.5 -246.5t-121.5 -195.5t-179.5 -126t-216.5 -46
q-189 0 -303 97t-144 271zM461 1229l37 205h204l-36 -205h-205zM829 1229l37 205h205l-37 -205h-205z" />
    <glyph glyph-name="uni04EE" unicode="&#x4ee;" horiz-adv-x="1280" 
d="M174 0l35 205h211q35 0 54.5 12t39.5 39l55 88l-338 1090h230l246 -809h41l501 809h242l-805 -1274q-43 -67 -115.5 -113.5t-167.5 -46.5h-229zM563 1638l29 164h614l-28 -164h-615z" />
    <glyph glyph-name="uni04EF" unicode="&#x4ef;" horiz-adv-x="1054" 
d="M39 -410l33 185h192q51 0 82 55l57 107l-223 1087h209l160 -778h41l403 778h221l-684 -1280q-43 -81 -98 -117.5t-145 -36.5h-248zM399 1249l29 164h614l-28 -164h-615z" />
    <glyph glyph-name="uni04F0" unicode="&#x4f0;" horiz-adv-x="1280" 
d="M174 0l35 205h211q35 0 54.5 12t39.5 39l55 88l-338 1090h230l246 -809h41l501 809h242l-805 -1274q-43 -67 -115.5 -113.5t-167.5 -46.5h-229zM584 1628l37 205h204l-37 -205h-204zM952 1628l37 205h205l-37 -205h-205z" />
    <glyph glyph-name="uni04F1" unicode="&#x4f1;" horiz-adv-x="1054" 
d="M39 -410l33 185h192q51 0 82 55l57 107l-223 1087h209l160 -778h41l403 778h221l-684 -1280q-43 -81 -98 -117.5t-145 -36.5h-248zM420 1229l37 205h205l-37 -205h-205zM788 1229l37 205h205l-37 -205h-205z" />
    <glyph glyph-name="uni04F2" unicode="&#x4f2;" horiz-adv-x="1280" 
d="M174 0l35 205h211q35 0 54.5 12t39.5 39l55 88l-338 1090h230l246 -809h41l501 809h242l-805 -1274q-43 -67 -115.5 -113.5t-167.5 -46.5h-229zM584 1577l256 297h204l-286 -297h-174zM932 1577l256 297h205l-287 -297h-174z" />
    <glyph glyph-name="uni04F3" unicode="&#x4f3;" horiz-adv-x="1054" 
d="M39 -410l33 185h192q51 0 82 55l57 107l-223 1087h209l160 -778h41l403 778h221l-684 -1280q-43 -81 -98 -117.5t-145 -36.5h-248zM430 1188l256 297h205l-287 -297h-174zM778 1188l256 297h205l-287 -297h-174z" />
    <glyph glyph-name="uni04F4" unicode="&#x4f4;" horiz-adv-x="1372" 
d="M1004 0l98 553q-65 -38 -98 -51q-119 -51 -246 -51q-228 0 -344.5 107t-116.5 302q0 78 14 160l74 414h215l-76 -424q-12 -54 -12 -109q0 -246 297 -246q130 0 240 52q32 13 88 51l118 676h215l-251 -1434h-215zM655 1628l37 205h205l-37 -205h-205zM1024 1628l37 205
h205l-37 -205h-205z" />
    <glyph glyph-name="uni04F5" unicode="&#x4f5;" horiz-adv-x="1105" 
d="M768 0l63 365q-129 -68 -247 -68q-175 0 -267 82t-92 225q0 26 17 133l51 287h205l-52 -287q-10 -58 -10 -82q0 -81 52 -122t167 -41q104 0 209 63l84 469h205l-180 -1024h-205zM457 1229l37 205h204l-36 -205h-205zM825 1229l37 205h205l-37 -205h-205z" />
    <glyph glyph-name="uni04F6" unicode="&#x4f6;" horiz-adv-x="1116" 
d="M256 -287l51 287h-153l252 1434h921l-37 -205h-706l-181 -1024h154l-86 -492h-215z" />
    <glyph glyph-name="uni04F7" unicode="&#x4f7;" horiz-adv-x="860" 
d="M231 -246l45 246h-143l180 1024h686l-34 -195h-482l-114 -645h143l-76 -430h-205z" />
    <glyph glyph-name="uni04F8" unicode="&#x4f8;" horiz-adv-x="1689" 
d="M1321 0l252 1434h215l-252 -1434h-215zM154 0l252 1434h215l-91 -512h361q149 0 253.5 -113t104.5 -287q0 -140 -69 -261t-182 -191t-240 -70h-604zM403 205h365q108 0 187 84.5t79 212.5q0 215 -205 215h-335zM829 1628l37 205h205l-37 -205h-205zM1198 1628l37 205h205
l-37 -205h-205z" />
    <glyph glyph-name="uni04F9" unicode="&#x4f9;" horiz-adv-x="1433" 
d="M1096 0l180 1024h205l-181 -1024h-204zM133 0l180 1024h205l-59 -328h270q128 0 211.5 -87t83.5 -214q0 -165 -113.5 -280t-275.5 -115h-502zM367 174h260q78 0 135 56.5t57 144.5q0 65 -40.5 106t-102.5 41h-248zM625 1229l37 205h204l-37 -205h-204zM993 1229l37 205
h205l-37 -205h-205z" />
    <glyph glyph-name="uni04FA" unicode="&#x4fa;" 
d="M168 -430l37 205h41q83 0 102 112l21 113h-154l107 614h-195l37 205h194l109 615h901l-37 -205h-686l-72 -410h400l-37 -205h-399l-72 -409h153l-51 -297q-32 -189 -113 -263.5t-245 -74.5h-41z" />
    <glyph glyph-name="uni04FB" unicode="&#x4fb;" horiz-adv-x="911" 
d="M117 -379l33 184h49q80 0 102 115l16 80h-143l72 410h-164l33 184h164l75 430h686l-34 -195h-482l-41 -235h348l-32 -184h-348l-43 -246h143l-49 -277q-26 -146 -85 -206t-177 -60h-123z" />
    <glyph glyph-name="uni04FC" unicode="&#x4fc;" horiz-adv-x="1290" 
d="M0 0l651 750l-352 684h240l260 -502h41l436 502h256l-614 -709l278 -537q74 -139 74 -260q0 -161 -92 -254.5t-246 -93.5h-107l39 215h68q123 0 123 123q0 92 -86 246l-199 379h-41l-473 -543h-256z" />
    <glyph glyph-name="uni04FD" unicode="&#x4fd;" horiz-adv-x="1013" 
d="M0 0l451 545l-244 479h229l174 -348h41l297 348h246l-436 -504l143 -299q27 -56 42.5 -92t32.5 -100t17 -121q0 -148 -92.5 -238t-245.5 -90h-106l35 195h67q137 0 137 112q0 82 -77 256l-113 236h-41l-311 -379h-246z" />
    <glyph glyph-name="uni04FE" unicode="&#x4fe;" horiz-adv-x="1290" 
d="M0 0l559 645h-252l33 184h270l-311 605h240l260 -502h41l436 502h256l-524 -605h254l-33 -184h-271l336 -645h-239l-285 543h-41l-473 -543h-256z" />
    <glyph glyph-name="uni04FF" unicode="&#x4ff;" horiz-adv-x="1013" 
d="M0 0l373 451h-162l29 163h174l-207 410h229l174 -348h41l297 348h246l-354 -410h157l-28 -163h-178l217 -451h-230l-180 379h-41l-311 -379h-246z" />
    <glyph glyph-name="uni0510" unicode="&#x510;" horiz-adv-x="1239" 
d="M459 737v11q-43 21 -78 59q-76 80 -76 197q0 189 145 319.5t377 130.5q243 0 377.5 -110t134.5 -279v-31h-215v10q0 84 -80.5 144.5t-226.5 60.5q-134 0 -215.5 -69t-81.5 -166q0 -74 61 -134.5t154 -60.5h144l-35 -194h-185q-129 0 -210.5 -63t-81.5 -163
q0 -92 89 -153.5t259 -61.5q144 0 221 60t96 155h215q-13 -83 -51.5 -156t-103.5 -133t-167.5 -95t-230.5 -35q-257 0 -399.5 114.5t-142.5 284.5q0 205 153 299q68 44 154 59z" />
    <glyph glyph-name="uni0511" unicode="&#x511;" horiz-adv-x="1013" 
d="M358 539v10q-32 14 -57 39q-55 55 -55 139q0 140 113 228.5t296 88.5q192 0 306 -89t114 -218v-10h-205q0 59 -57.5 101t-167.5 42q-88 0 -141 -43t-53 -100q0 -50 46 -86.5t124 -36.5h100l-31 -164h-147q-90 0 -142.5 -40t-52.5 -103q0 -59 57.5 -101t167.5 -42
q98 0 162 51t78 112h195q-26 -148 -140.5 -242.5t-304.5 -94.5q-197 0 -308.5 86.5t-111.5 209.5q0 58 16 104t38 72.5t55 46t55.5 27t50.5 13.5z" />
    <glyph glyph-name="uni0512" unicode="&#x512;" horiz-adv-x="1402" 
d="M8 -10l37 215h88q123 0 164 153l278 1076h926l-266 -1506q-32 -184 -121 -266t-250 -82h-100l39 215h51q143 0 168 144l227 1290h-510l-237 -922q-83 -317 -363 -317h-131z" />
    <glyph glyph-name="uni0513" unicode="&#x513;" horiz-adv-x="1126" 
d="M8 -10l33 194h61q55 0 96.5 39t61.5 113l186 688h728l-201 -1141q-25 -145 -108 -224t-220 -79h-106l34 195h48q125 0 149 129l166 936h-332l-147 -549q-79 -301 -328 -301h-121z" />
    <glyph glyph-name="Wgrave" unicode="&#x1e80;" horiz-adv-x="2007" 
d="M358 0l-106 1434h229l78 -1127h41l496 1127h266l98 -1127h41l475 1127h242l-610 -1434h-328l-88 1075h-41l-465 -1075h-328zM1137 1577l-195 297h225l154 -297h-184z" />
    <glyph glyph-name="wgrave" unicode="&#x1e81;" horiz-adv-x="1617" 
d="M276 0l-96 1024h209l60 -758h40l336 758h275l65 -758h41l330 758h221l-457 -1024h-296l-66 737h-41l-324 -737h-297zM860 1188l-194 297h225l153 -297h-184z" />
    <glyph glyph-name="Wacute" unicode="&#x1e82;" horiz-adv-x="2007" 
d="M358 0l-106 1434h229l78 -1127h41l496 1127h266l98 -1127h41l475 1127h242l-610 -1434h-328l-88 1075h-41l-465 -1075h-328zM1157 1577l256 297h225l-297 -297h-184z" />
    <glyph glyph-name="wacute" unicode="&#x1e83;" horiz-adv-x="1617" 
d="M276 0l-96 1024h209l60 -758h40l336 758h275l65 -758h41l330 758h221l-457 -1024h-296l-66 737h-41l-324 -737h-297zM891 1188l256 297h225l-297 -297h-184z" />
    <glyph glyph-name="Wdieresis" unicode="&#x1e84;" horiz-adv-x="2007" 
d="M358 0l-106 1434h229l78 -1127h41l496 1127h266l98 -1127h41l475 1127h242l-610 -1434h-328l-88 1075h-41l-465 -1075h-328zM963 1628l36 205h205l-37 -205h-204zM1331 1628l37 205h205l-37 -205h-205z" />
    <glyph glyph-name="wdieresis" unicode="&#x1e85;" horiz-adv-x="1617" 
d="M276 0l-96 1024h209l60 -758h40l336 758h275l65 -758h41l330 758h221l-457 -1024h-296l-66 737h-41l-324 -737h-297zM696 1229l37 205h205l-37 -205h-205zM1065 1229l37 205h205l-37 -205h-205z" />
    <glyph glyph-name="uni1E9E" unicode="&#x1e9e;" horiz-adv-x="1392" 
d="M143 0l189 1071q29 170 142.5 266.5t283.5 96.5h733l-37 -201l-420 -383v-10q139 -8 243.5 -109t104.5 -260q0 -203 -140 -337t-361 -134h-246l35 205h217q123 0 201.5 72t78.5 174q0 88 -63 146t-164 58h-201l35 195l414 379h-414q-94 0 -155 -51.5t-78 -143.5
l-183 -1034h-215z" />
    <glyph glyph-name="Ygrave" unicode="&#x1ef2;" horiz-adv-x="1239" 
d="M492 0l90 512l-361 922h232l260 -666h41l483 666h244l-684 -922l-90 -512h-215zM768 1577l-195 297h226l153 -297h-184z" />
    <glyph glyph-name="ygrave" unicode="&#x1ef3;" horiz-adv-x="1054" 
d="M39 -410l33 185h192q51 0 82 55l57 107l-223 1087h209l160 -778h41l403 778h221l-684 -1280q-43 -81 -98 -117.5t-145 -36.5h-248zM594 1188l-195 297h226l153 -297h-184z" />
    <glyph glyph-name="endash" unicode="&#x2013;" horiz-adv-x="1136" 
d="M158 492l32 184h994l-33 -184h-993z" />
    <glyph glyph-name="emdash" unicode="&#x2014;" horiz-adv-x="1525" 
d="M158 492l32 184h1383l-33 -184h-1382z" />
    <glyph glyph-name="quoteleft" unicode="&#x2018;" horiz-adv-x="460" 
d="M272 1024l164 410h174l-112 -410h-226z" />
    <glyph glyph-name="quoteright" unicode="&#x2019;" horiz-adv-x="460" 
d="M283 1024l112 410h226l-164 -410h-174z" />
    <glyph glyph-name="quotesinglbase" unicode="&#x201a;" horiz-adv-x="481" 
d="M61 -174l113 410h236l-185 -410h-164z" />
    <glyph glyph-name="quotedblleft" unicode="&#x201c;" horiz-adv-x="798" 
d="M610 1024l164 410h174l-112 -410h-226zM272 1024l164 410h174l-112 -410h-226z" />
    <glyph glyph-name="quotedblright" unicode="&#x201d;" horiz-adv-x="798" 
d="M621 1024l112 410h225l-163 -410h-174zM283 1024l112 410h226l-164 -410h-174z" />
    <glyph glyph-name="quotedblbase" unicode="&#x201e;" horiz-adv-x="819" 
d="M399 -174l113 410h236l-185 -410h-164zM61 -174l113 410h236l-185 -410h-164z" />
    <glyph glyph-name="dagger" unicode="&#x2020;" horiz-adv-x="962" 
d="M379 0l162 922h-287l33 184h286l58 328h205l-58 -328h287l-33 -184h-287l-161 -922h-205z" />
    <glyph glyph-name="daggerdbl" unicode="&#x2021;" horiz-adv-x="962" 
d="M379 0l65 379h-286l32 184h287l64 359h-287l33 184h286l58 328h205l-58 -328h287l-33 -184h-287l-63 -359h287l-33 -184h-287l-65 -379h-205z" />
    <glyph glyph-name="bullet" unicode="&#x2022;" horiz-adv-x="942" 
d="M578 778q86 0 145 -59.5t59 -145.5q0 -100 -74.5 -172.5t-181.5 -72.5q-86 0 -145 59t-59 145q0 101 75 173.5t181 72.5z" />
    <glyph glyph-name="ellipsis" unicode="&#x2026;" horiz-adv-x="1464" 
d="M614 0l41 236h236l-41 -236h-236zM1106 0l41 236h235l-41 -236h-235zM123 0l41 236h235l-41 -236h-235z" />
    <glyph glyph-name="perthousand" unicode="&#x2030;" horiz-adv-x="2375" 
d="M432 1106q0 -62 43 -102.5t111 -40.5q71 0 117.5 50t46.5 134q0 62 -43 102.5t-111 40.5q-71 0 -117.5 -50t-46.5 -134zM258 1085q0 159 102 264t256 105q134 0 221 -82t87 -205q0 -159 -102.5 -263.5t-256.5 -104.5q-134 0 -220.5 81.5t-86.5 204.5zM1087 287
q0 -62 43 -103t111 -41q71 0 117.5 50.5t46.5 134.5q0 62 -43 102.5t-111 40.5q-71 0 -117.5 -50t-46.5 -134zM913 266q0 159 102.5 264t256.5 105q134 0 220.5 -82t86.5 -205q0 -159 -102 -263.5t-256 -104.5q-134 0 -221 82t-87 204zM248 0l1143 1434h204l-1142 -1434
h-205zM1855 287q0 -62 43 -103t111 -41q71 0 117.5 50.5t46.5 134.5q0 62 -43 102.5t-111 40.5q-71 0 -117.5 -50t-46.5 -134zM1681 266q0 159 102.5 264t256.5 105q134 0 220.5 -82t86.5 -205q0 -159 -102 -263.5t-256 -104.5q-134 0 -221 82t-87 204z" />
    <glyph glyph-name="guilsinglleft" unicode="&#x2039;" horiz-adv-x="665" 
d="M385 102l-213 410l358 410h226l-369 -422l207 -398h-209z" />
    <glyph glyph-name="guilsinglright" unicode="&#x203a;" horiz-adv-x="665" 
d="M98 102l371 422l-209 398h209l215 -410l-360 -410h-226z" />
    <glyph glyph-name="uni203D" unicode="&#x203d;" horiz-adv-x="1054" 
d="M463 369l151 866q-68 -22 -110 -74t-55 -117h-216q17 83 56 155t99 130t147 91.5t192 33.5q209 0 330 -105t121 -264q0 -81 -26 -153t-69.5 -123.5t-94.5 -87.5t-107 -55q-161 -56 -185 -195l-18 -102h-215zM782 1241l-77 -436q10 8 32 14q47 17 75.5 30t60.5 33
t49.5 42.5t29 55.5t11.5 75q0 68 -47.5 118.5t-133.5 67.5zM389 0l41 236h236l-41 -236h-236z" />
    <glyph glyph-name="fraction" unicode="&#x2044;" horiz-adv-x="256" 
d="M-399 0l1136 1434h170l-1136 -1434h-170z" />
    <glyph glyph-name="uni2070" unicode="&#x2070;" horiz-adv-x="737" 
d="M539 1024q76 0 135 83t59 234q0 89 -33 132t-90 43q-76 0 -135 -83.5t-59 -234.5q0 -89 33 -131.5t90 -42.5zM621 1649q119 0 187.5 -74.5t68.5 -212.5q0 -108 -30 -198.5t-79.5 -149t-111.5 -91t-128 -32.5q-119 0 -187.5 74.5t-68.5 212.5q0 108 30 198.5t79.5 149
t111.5 91t128 32.5z" />
    <glyph glyph-name="uni2074" unicode="&#x2074;" horiz-adv-x="665" 
d="M203 1044l22 123l361 471h207l-82 -460h102l-25 -134h-102l-24 -143h-144l25 143h-340zM406 1178h161l47 266h-18l-188 -256z" />
    <glyph glyph-name="uni2075" unicode="&#x2075;" horiz-adv-x="696" 
d="M264 1116h144q0 -35 32.5 -63.5t89.5 -28.5q61 0 102.5 39t41.5 94q0 48 -35 80.5t-88 32.5q-59 0 -125 -62h-133l117 430h450l-24 -133h-324l-39 -133h10q50 31 109 31q100 0 162.5 -62.5t62.5 -162.5q0 -124 -83.5 -205.5t-213.5 -81.5q-121 0 -188.5 61.5t-67.5 163.5
z" />
    <glyph glyph-name="uni2076" unicode="&#x2076;" horiz-adv-x="706" 
d="M401 1126q0 -48 31.5 -75t91.5 -27q62 0 103 41t41 102q0 48 -31.5 75.5t-91.5 27.5q-61 0 -102.5 -41t-41.5 -103zM340 1331l254 307h158l-209 -256l14 4q35 7 39 7q86 0 150.5 -64.5t64.5 -150.5q0 -116 -87.5 -201.5t-209.5 -85.5q-115 0 -185.5 66.5t-70.5 168.5
q0 48 15.5 92t29 63.5t37.5 49.5z" />
    <glyph glyph-name="uni2077" unicode="&#x2077;" horiz-adv-x="604" 
d="M307 901l363 604h-330l25 133h481l-25 -133l-362 -604h-152z" />
    <glyph glyph-name="uni2078" unicode="&#x2078;" horiz-adv-x="696" 
d="M389 1290l2 10q-20 16 -33 35q-30 43 -30 99q0 83 77 149t189 66q113 0 179.5 -56.5t66.5 -138.5q0 -83 -62 -137q-33 -26 -59 -37l-2 -10q22 -15 35 -33q36 -46 36 -111q0 -95 -78 -165t-198 -70q-119 0 -187.5 58t-68.5 147t66 151q29 29 67 43zM471 1425
q0 -41 27 -62.5t75 -21.5q52 0 87.5 31t35.5 70q0 41 -27 62.5t-75 21.5q-52 0 -87.5 -31t-35.5 -70zM532 1219q-60 0 -96.5 -32.5t-36.5 -80.5q0 -40 30.5 -66t82.5 -26q60 0 96.5 32t36.5 80q0 40 -30.5 66.5t-82.5 26.5z" />
    <glyph glyph-name="uni2079" unicode="&#x2079;" horiz-adv-x="675" 
d="M434 1372q0 -48 31.5 -75t91.5 -27q61 0 102 41t41 102q0 48 -31 75.5t-91 27.5q-62 0 -103 -41t-41 -103zM350 901l205 252l-12 -4q-8 -2 -37 -2q-86 0 -150.5 64.5t-64.5 150.5q0 116 87.5 201.5t209.5 85.5q115 0 185.5 -67t70.5 -169q0 -48 -15.5 -92t-29 -63.5
t-37.5 -49.5l-254 -307h-158z" />
    <glyph glyph-name="uni2080" unicode="&#x2080;" horiz-adv-x="737" 
d="M365 -82q76 0 135 83.5t59 234.5q0 89 -33 131.5t-90 42.5q-76 0 -135 -83.5t-59 -234.5q0 -89 33 -131.5t90 -42.5zM446 543q119 0 187.5 -74.5t68.5 -212.5q0 -212 -104.5 -341.5t-243.5 -129.5q-119 0 -187.5 74.5t-68.5 212.5q0 108 30 198.5t79 149t111 91t128 32.5
z" />
    <glyph glyph-name="uni2081" unicode="&#x2081;" horiz-adv-x="542" 
d="M229 -205l90 512h-174l25 133h113q59 0 71 62l6 30h144l-131 -737h-144z" />
    <glyph glyph-name="uni2082" unicode="&#x2082;" horiz-adv-x="696" 
d="M86 -205l20 113l328 276q88 76 88 144q0 45 -25.5 68.5t-66.5 23.5q-52 0 -83.5 -33.5t-39.5 -89.5h-143q19 107 87 176.5t179 69.5q114 0 175 -53t61 -142q0 -82 -38 -137.5t-116 -118.5l-195 -164v-10h293l-22 -123h-502z" />
    <glyph glyph-name="uni2083" unicode="&#x2083;" horiz-adv-x="696" 
d="M94 10h142v-10q0 -39 28 -65.5t74 -26.5q54 0 88.5 34.5t34.5 88.5q0 38 -28.5 60t-76.5 22h-61l22 123h76q53 0 86 29t33 73q0 38 -27.5 60t-74.5 22q-37 0 -66.5 -26.5t-40.5 -65.5h-143q13 90 84 152.5t176 62.5q113 0 174 -51.5t61 -133.5q0 -69 -38.5 -117.5
t-84.5 -70.5l-2 -10q30 -14 52 -47t22 -82q0 -101 -76 -173.5t-190 -72.5t-180 58t-66 147v14q0 4 2 6z" />
    <glyph glyph-name="uni2084" unicode="&#x2084;" horiz-adv-x="665" 
d="M29 -61l22 122l361 471h206l-81 -460h102l-25 -133h-102l-25 -144h-143l25 144h-340zM231 72h162l47 266h-18l-189 -256z" />
    <glyph glyph-name="uni2085" unicode="&#x2085;" horiz-adv-x="696" 
d="M90 10h143q0 -35 33 -63.5t90 -28.5q61 0 102.5 39t41.5 94q0 48 -35 80.5t-88 32.5q-59 0 -125 -62h-133l117 430h450l-24 -133h-324l-39 -133h10q50 31 109 31q100 0 162.5 -62.5t62.5 -162.5q0 -124 -83.5 -205.5t-213.5 -81.5q-121 0 -188.5 61.5t-67.5 163.5z" />
    <glyph glyph-name="uni2086" unicode="&#x2086;" horiz-adv-x="706" 
d="M227 20q0 -48 31.5 -75t91.5 -27q62 0 103 41t41 102q0 48 -31.5 75.5t-91.5 27.5q-61 0 -102.5 -41t-41.5 -103zM166 225l254 307h158l-209 -256l14 5q30 6 39 6q86 0 150.5 -64.5t64.5 -150.5q0 -116 -87.5 -201.5t-209.5 -85.5q-115 0 -185.5 66.5t-70.5 168.5
q0 48 15.5 92t29 63.5t37.5 49.5z" />
    <glyph glyph-name="uni2087" unicode="&#x2087;" horiz-adv-x="604" 
d="M133 -205l363 604h-330l24 133h482l-25 -133l-362 -604h-152z" />
    <glyph glyph-name="uni2088" unicode="&#x2088;" horiz-adv-x="696" 
d="M215 184l2 11q-22 18 -33 34q-30 43 -30 99q0 83 77 149t189 66q113 0 179.5 -56.5t66.5 -138.5q0 -83 -62 -137q-33 -26 -59 -37l-2 -10q22 -15 35 -33q36 -46 36 -111q0 -95 -78 -165t-198 -70q-119 0 -187.5 58t-68.5 147q0 90 65 151q28 28 68 43zM297 319
q0 -41 27 -62t75 -21q52 0 87.5 31t35.5 69q0 41 -27 62.5t-75 21.5q-52 0 -87.5 -31t-35.5 -70zM358 113q-60 0 -96.5 -32.5t-36.5 -80.5q0 -40 30.5 -66t82.5 -26q60 0 96.5 32t36.5 80q0 40 -30.5 66.5t-82.5 26.5z" />
    <glyph glyph-name="uni2089" unicode="&#x2089;" horiz-adv-x="675" 
d="M260 266q0 -48 31.5 -75t91.5 -27q61 0 102 41t41 102q0 48 -31.5 75.5t-91.5 27.5q-61 0 -102 -41t-41 -103zM176 -205l205 252l-12 -4q-8 -2 -37 -2q-86 0 -150.5 64.5t-64.5 150.5q0 116 87.5 201.5t209.5 85.5q115 0 185.5 -67t70.5 -169q0 -48 -15.5 -92t-29 -63.5
t-37.5 -49.5l-254 -307h-158z" />
    <glyph glyph-name="uni20A9" unicode="&#x20a9;" horiz-adv-x="2007" 
d="M1423 614h174l80 205h-264zM610 614h174l82 205h-262zM987 614h244l-8 205h-154zM621 307h41l49 123h-95zM1440 307h41l47 123h-94zM1143 1004h71l-2 71h-41zM420 0l-21 430h-262l31 184h221l-8 205h-176l33 185h135l-19 430h230l14 -430h344l174 430h266l21 -430h346
l166 430h242l-172 -430h137l-33 -185h-178l-82 -205h223l-31 -184h-264l-170 -430h-327l-19 430h-323l-170 -430h-328z" />
    <glyph glyph-name="Euro" unicode="&#x20ac;" horiz-adv-x="1454" 
d="M135 481l27 154h166l30 164h-168l27 153h180q17 61 55.5 127t103 133.5t145 121t190 87t227.5 33.5q176 0 297 -41t180 -90l-36 -205q-99 64 -162 90q-128 52 -281 52q-122 0 -224 -46t-164 -113.5t-93 -148.5h616l-26 -153h-639l-33 -164h643l-27 -154h-604
q15 -62 49.5 -115t91 -97.5t143 -69.5t195.5 -25q75 0 152.5 16t116 29.5t92.5 36.5l-37 -205q-52 -28 -142 -49.5t-202 -21.5q-136 0 -249.5 32t-189 82.5t-131 118t-83.5 133.5t-39 135h-197z" />
    <glyph glyph-name="uni20B4" unicode="&#x20b4;" horiz-adv-x="1320" 
d="M176 481l29 164h1136l-28 -164h-781q-61 -61 -61 -143q0 -74 64.5 -124t181.5 -50q99 0 170 53.5t104 130.5h215q-40 -149 -176 -258.5t-323 -109.5q-104 0 -191 28.5t-143 75.5t-86.5 107.5t-30.5 125.5q0 97 51 164h-131zM229 788l29 164h780q62 62 62 144
q0 74 -64.5 124t-181.5 50q-98 0 -169.5 -54t-104.5 -131h-215q40 149 176 259t323 110q104 0 191 -28.5t143 -76t86.5 -108t30.5 -125.5q0 -97 -51 -164h131l-29 -164h-1137z" />
    <glyph glyph-name="uni20B8" unicode="&#x20b8;" horiz-adv-x="1218" 
d="M492 0l153 881h-450l36 204h1117l-37 -204h-451l-153 -881h-215zM256 1229l37 205h1116l-37 -205h-1116z" />
    <glyph glyph-name="uni20B9" unicode="&#x20b9;" 
d="M172 522l35 195h473q69 0 131 44.5t94 119.5h-669l34 194h656q-13 73 -57.5 118.5t-100.5 45.5h-469l35 195h1024l-35 -195h-217q36 -74 39 -164h149l-34 -194h-136q-49 -162 -172 -260.5t-276 -98.5h-96l430 -522h-273l-430 522h-135z" />
    <glyph glyph-name="uni20BA" unicode="&#x20ba;" horiz-adv-x="1228" 
d="M246 0l98 559l-199 -72l33 179l197 71l24 144l-196 -72l33 184l196 72l66 369h215l-51 -295l370 135l-33 -187l-372 -135l-25 -141l373 135l-31 -176l-373 -135l-75 -430h135q114 0 196 25t131 73t74.5 108t36.5 142h215q-13 -128 -53.5 -225.5t-117.5 -173t-203 -115
t-298 -39.5h-172h-194z" />
    <glyph glyph-name="uni20BD" unicode="&#x20bd;" horiz-adv-x="1331" 
d="M580 799h407q100 0 166 70.5t66 185.5q0 77 -48.5 125.5t-123.5 48.5h-392zM225 0l45 266h-174l33 185h174l27 143h-174l34 205h175l112 635h619q141 0 239.5 -103.5t98.5 -255.5q0 -213 -129 -347t-326 -134h-434l-27 -143h440l-32 -185h-441l-45 -266h-215z" />
    <glyph glyph-name="uni20BF" unicode="&#x20bf;" horiz-adv-x="1320" 
d="M338 -225l39 225h-223l252 1434h225l39 225h184l-39 -225h133l39 225h184l-41 -238q108 -30 180 -123.5t72 -212.5q0 -172 -112 -292q-52 -51 -113 -86v-11q38 -30 62 -63q61 -85 61 -193q0 -169 -119 -294.5t-280 -143.5l-41 -227h-185l39 225h-133l-39 -225h-184z
M401 195h439q88 0 156.5 71t68.5 174q0 78 -47.5 131.5t-116.5 53.5h-424zM510 809h426q90 0 160.5 73.5t70.5 172.5q0 76 -51 130t-117 54h-413z" />
    <glyph glyph-name="uni2113" unicode="&#x2113;" horiz-adv-x="839" 
d="M160 451v153q77 0 135 14q42 14 49 17v522q0 145 68 221t188 76q126 0 201.5 -85t75.5 -243q0 -195 -101.5 -355t-267.5 -249v-246q0 -67 40 -105t103 -38q40 0 80 14l33 17v-154l-45 -16q-47 -14 -98 -14q-132 0 -204.5 74t-72.5 212v215q-9 -3 -27 -8t-26 -8
q-58 -14 -131 -14zM508 1137v-435q91 60 148 171t57 253q0 88 -31 131t-82 43q-92 0 -92 -163z" />
    <glyph glyph-name="uni2116" unicode="&#x2116;" horiz-adv-x="2211" 
d="M154 0l252 1434h311l373 -1117h40l197 1117h215l-252 -1434h-311l-373 1116h-41l-196 -1116h-215zM1475 0l30 176h635l-31 -176h-634zM1884 471q78 0 131 53t53 131q0 62 -42.5 103t-110.5 41q-78 0 -131 -53.5t-53 -131.5q0 -62 42.5 -102.5t110.5 -40.5zM1935 963
q130 0 213.5 -81.5t83.5 -205.5q0 -154 -107 -261.5t-261 -107.5q-130 0 -213.5 81.5t-83.5 205.5q0 154 107 261.5t261 107.5z" />
    <glyph glyph-name="uni2117" unicode="&#x2117;" horiz-adv-x="1720" 
d="M891 727h174q113 0 113 113q0 112 -113 112h-174v-225zM246 717q0 155 56.5 292t154 234.5t234.5 154t292 56.5t292 -56.5t234.5 -154t154 -234.5t56.5 -292t-56.5 -292t-154 -234.5t-234.5 -154t-292 -56.5t-292 56.5t-234.5 154t-154 234.5t-56.5 292zM983 133
q245 0 409 166.5t164 417.5t-164 417t-409 166q-163 0 -294 -75t-205 -208.5t-74 -299.5q0 -252 163 -418t410 -166zM737 348v737h338q116 0 186 -67.5t70 -177.5t-70 -178t-186 -68h-184v-246h-154z" />
    <glyph glyph-name="trademark" unicode="&#x2122;" horiz-adv-x="1556" 
d="M422 819v471h-195v144h533v-144h-195v-471h-143zM862 819v615h236l143 -430h21l143 430h235v-615h-143v430h-20l-144 -430h-164l-143 430h-20v-430h-144z" />
    <glyph glyph-name="uni2126" unicode="&#x2126;" horiz-adv-x="1679" 
d="M285 0v164h256q-92 58 -160 137q-158 190 -158 436q0 151 55 284.5t149.5 228t228 149.5t284.5 55t284.5 -55t228 -149.5t149.5 -228t55 -284.5q0 -253 -160 -436q-70 -82 -158 -137h256v-164h-522v164q119 52 205 129q89 76 147 187t58 257q0 156 -72 283t-196 198.5
t-275 71.5t-275 -71.5t-196 -198.5t-72 -283q0 -146 58 -257t147 -187q86 -77 205 -129v-164h-522z" />
    <glyph glyph-name="estimated" unicode="&#x212e;" horiz-adv-x="1740" 
d="M575 778h861v441q-180 163 -430 163q-122 0 -233 -42.5t-198 -120.5v-441zM575 707v-488q49 -47 117 -84q148 -84 334 -84q243 0 428 154q85 69 145 153l62 -51q-75 -98 -164 -164q-217 -163 -471 -163q-158 0 -299 58t-241.5 156.5t-159 235t-58.5 287.5
q0 202 98.5 371.5t268 267.5t371.5 98q151 0 287.5 -58t235 -156.5t156.5 -235t58 -287.5v-10h-1168z" />
    <glyph glyph-name="uni2150" unicode="&#x2150;" horiz-adv-x="1382" 
d="M133 0l1137 1434h170l-1137 -1434h-170zM381 696l90 512h-174l25 133h112q60 0 72 62l6 31h143l-131 -738h-143zM926 0l362 604h-330l25 133h481l-24 -133l-363 -604h-151z" />
    <glyph glyph-name="uni2151" unicode="&#x2151;" horiz-adv-x="1433" 
d="M133 0l1137 1434h170l-1137 -1434h-170zM381 696l90 512h-174l25 133h112q60 0 72 62l6 31h143l-131 -738h-143zM1034 471q0 -48 31.5 -75t91.5 -27q61 0 102 40.5t41 102.5q0 48 -31 75t-91 27q-62 0 -103 -41t-41 -102zM950 0l205 252l-12 -4q-8 -2 -37 -2
q-86 0 -150.5 64.5t-64.5 150.5q0 116 87.5 201.5t209.5 85.5q115 0 185.5 -67t70.5 -169q0 -48 -15.5 -92t-29 -63.5t-37.5 -49.5l-254 -307h-158z" />
    <glyph glyph-name="uni2152" unicode="&#x2152;" horiz-adv-x="1925" 
d="M133 0l1137 1434h170l-1137 -1434h-170zM381 696l90 512h-174l25 133h112q60 0 72 62l6 31h143l-131 -738h-143zM1001 0l91 512h-174l24 133h113q59 0 71 62l7 30h143l-131 -737h-144zM1567 123q76 0 135 83t59 234q0 89 -33 131.5t-90 42.5q-76 0 -135 -83t-59 -234
q0 -89 33 -131.5t90 -42.5zM1649 748q119 0 187.5 -74.5t68.5 -212.5q0 -108 -30 -198.5t-79.5 -149t-111.5 -91t-128 -32.5q-119 0 -187.5 74.5t-68.5 211.5q0 108 30 198.5t79.5 149.5t111.5 91.5t128 32.5z" />
    <glyph glyph-name="onethird" unicode="&#x2153;" horiz-adv-x="1433" 
d="M133 0l1137 1434h170l-1137 -1434h-170zM381 696l90 512h-174l25 133h112q60 0 72 62l6 31h143l-131 -738h-143zM852 215h141v-10q0 -39 28.5 -65.5t74.5 -26.5q54 0 88.5 34.5t34.5 88.5q0 38 -28.5 59.5t-76.5 21.5h-61l22 123h76q53 0 86 29.5t33 73.5q0 38 -28 60
t-75 22q-37 0 -66 -26.5t-40 -66.5h-143q13 90 84 153t176 63q113 0 174 -51.5t61 -133.5q0 -69 -38.5 -117.5t-84.5 -70.5l-2 -10q30 -14 52 -47t22 -82q0 -101 -76 -173.5t-190 -72.5t-180 58t-66 147v14q0 4 2 6z" />
    <glyph glyph-name="twothirds" unicode="&#x2154;" horiz-adv-x="1576" 
d="M276 0l1137 1434h170l-1137 -1434h-170zM225 696l21 113l327 276q89 77 89 144q0 45 -26 68.5t-67 23.5q-52 0 -83.5 -33.5t-39.5 -89.5h-143q19 107 87 176.5t179 69.5q114 0 175 -53t61 -142q0 -82 -38 -137.5t-116 -118.5l-194 -164v-10h293l-23 -123h-502zM995 221
h142v-10q0 -39 28 -65.5t74 -26.5q54 0 88.5 34.5t34.5 88.5q0 38 -28.5 60t-76.5 22h-61l23 122h75q53 0 86 29.5t33 73.5q0 38 -27.5 60t-74.5 22q-37 0 -66.5 -26.5t-40.5 -65.5h-143q13 90 84 152.5t176 62.5q113 0 174 -51.5t61 -133.5q0 -69 -38 -117.5t-84 -70.5
l-2 -10q29 -14 51 -47t22 -82q0 -101 -76 -173.5t-190 -72.5t-180 58t-66 147v14q0 4 2 6z" />
    <glyph glyph-name="uni2155" unicode="&#x2155;" horiz-adv-x="1464" 
d="M133 0l1137 1434h170l-1137 -1434h-170zM381 696l90 512h-174l25 133h112q60 0 72 62l6 31h143l-131 -738h-143zM860 215h144q0 -35 32.5 -63.5t89.5 -28.5q61 0 102.5 39t41.5 94q0 48 -35 80.5t-88 32.5q-59 0 -125 -62h-133l117 430h450l-24 -133h-324l-39 -133h10
q50 31 109 31q100 0 162.5 -63t62.5 -163q0 -124 -83.5 -205t-213.5 -81q-121 0 -188.5 61.5t-67.5 163.5z" />
    <glyph glyph-name="uni2156" unicode="&#x2156;" horiz-adv-x="1607" 
d="M276 0l1137 1434h170l-1137 -1434h-170zM225 696l21 113l327 276q89 77 89 144q0 45 -26 68.5t-67 23.5q-52 0 -83.5 -33.5t-39.5 -89.5h-143q19 107 87 176.5t179 69.5q114 0 175 -53t61 -142q0 -82 -38 -137.5t-116 -118.5l-194 -164v-10h293l-23 -123h-502zM1004 215
h143q0 -35 33 -63.5t90 -28.5q61 0 102 39t41 94q0 48 -35 80.5t-88 32.5q-59 0 -125 -62h-133l117 430h450l-24 -133h-324l-39 -133h11q50 31 108 31q100 0 162.5 -63t62.5 -163q0 -124 -83 -205t-213 -81q-121 0 -188.5 61.5t-67.5 163.5z" />
    <glyph glyph-name="uni2157" unicode="&#x2157;" horiz-adv-x="1587" 
d="M256 0l1137 1434h170l-1137 -1434h-170zM238 911h141v-10q0 -39 28 -65.5t74 -26.5q54 0 88.5 34.5t34.5 88.5q0 38 -28 60t-76 22h-62l23 123h76q53 0 85.5 29t32.5 73q0 38 -27.5 60t-74.5 22q-37 0 -66.5 -26.5t-40.5 -65.5h-143q13 90 84 152.5t176 62.5
q113 0 174.5 -51.5t61.5 -132.5q0 -69 -38.5 -118t-84.5 -71l-2 -10q30 -14 52 -47t22 -82q0 -101 -76.5 -173.5t-190.5 -72.5t-179.5 58t-65.5 147v14q0 4 2 6zM983 215h143q0 -35 33 -63.5t90 -28.5q61 0 102.5 39t41.5 94q0 48 -35 80.5t-88 32.5q-59 0 -125 -62h-133
l116 430h451l-25 -133h-323l-39 -133h10q50 31 109 31q100 0 162.5 -63t62.5 -163q0 -124 -83.5 -205t-213.5 -81q-121 0 -188.5 61.5t-67.5 163.5z" />
    <glyph glyph-name="uni2158" unicode="&#x2158;" horiz-adv-x="1576" 
d="M246 0l1136 1434h170l-1136 -1434h-170zM178 840l23 123l360 471h207l-82 -461h102l-24 -133h-102l-25 -144h-143l24 144h-340zM381 973h162l47 266h-19l-188 -256zM971 215h143q0 -35 33 -63.5t90 -28.5q61 0 102 39t41 94q0 48 -35 80.5t-88 32.5q-58 0 -124 -62h-134
l117 430h451l-25 -133h-323l-39 -133h10q50 31 108 31q100 0 163 -63t63 -163q0 -124 -83.5 -205t-213.5 -81q-121 0 -188.5 61.5t-67.5 163.5z" />
    <glyph glyph-name="uni2159" unicode="&#x2159;" horiz-adv-x="1382" 
d="M133 0l1137 1434h170l-1137 -1434h-170zM381 696l90 512h-174l25 133h112q60 0 72 62l6 31h143l-131 -738h-143zM952 225q0 -48 31.5 -75t91.5 -27q62 0 103 41t41 102q0 48 -31.5 75.5t-91.5 27.5q-62 0 -103 -41.5t-41 -102.5zM891 430l254 307h158l-209 -256l14 4
q35 7 39 7q86 0 150.5 -65t64.5 -151q0 -116 -87.5 -201t-209.5 -85q-115 0 -185.5 66.5t-70.5 168.5q0 48 15.5 92t29 63.5t37.5 49.5z" />
    <glyph glyph-name="uni215A" unicode="&#x215a;" horiz-adv-x="1536" 
d="M276 0l1137 1434h170l-1137 -1434h-170zM246 911h143q0 -35 33 -63.5t90 -28.5q61 0 102 39t41 94q0 48 -35 80.5t-88 32.5q-59 0 -124 -61h-134l117 430h451l-25 -134h-323l-39 -133h10q50 31 108 31q100 0 163 -62.5t63 -162.5q0 -124 -83.5 -205.5t-213.5 -81.5
q-121 0 -188.5 61.5t-67.5 163.5zM1075 225q0 -48 31.5 -75t91.5 -27q62 0 102.5 40.5t40.5 102.5q0 48 -31 75.5t-91 27.5q-61 0 -102.5 -41.5t-41.5 -102.5zM1014 430l254 307h157l-208 -256l14 4q35 7 39 7q86 0 150.5 -65t64.5 -151q0 -116 -87.5 -201t-209.5 -85
q-115 0 -185.5 66.5t-70.5 168.5q0 48 15.5 92t29 63.5t37.5 49.5z" />
    <glyph glyph-name="oneeighth" unicode="&#x215b;" horiz-adv-x="1433" 
d="M133 0l1137 1434h170l-1137 -1434h-170zM381 696l90 512h-174l25 133h112q60 0 72 62l6 31h143l-131 -738h-143zM983 389l2 10q-20 16 -33 35q-30 43 -30 98q0 83 77 149.5t189 66.5q113 0 179.5 -56.5t66.5 -138.5q0 -83 -62 -137q-33 -26 -59 -37l-2 -10q22 -15 35 -33
q36 -46 36 -111q0 -95 -78 -165t-198 -70q-119 0 -187.5 58t-68.5 147q0 90 65 151q28 28 68 43zM1065 524q0 -41 27 -62.5t75 -21.5q52 0 87.5 31t35.5 70q0 41 -27 62.5t-75 21.5q-52 0 -87.5 -31t-35.5 -70zM1126 317q-60 0 -96.5 -32t-36.5 -80q0 -40 30.5 -66t82.5 -26
q60 0 96.5 32t36.5 80q0 40 -30.5 66t-82.5 26z" />
    <glyph glyph-name="threeeighths" unicode="&#x215c;" horiz-adv-x="1556" 
d="M256 0l1137 1434h170l-1137 -1434h-170zM238 911h141v-10q0 -39 28 -65.5t74 -26.5q54 0 88.5 34.5t34.5 88.5q0 38 -28 60t-76 22h-62l23 123h76q53 0 85.5 29t32.5 73q0 38 -27.5 60t-74.5 22q-37 0 -66.5 -26.5t-40.5 -65.5h-143q13 90 84 152.5t176 62.5
q113 0 174.5 -51.5t61.5 -132.5q0 -69 -38.5 -118t-84.5 -71l-2 -10q30 -14 52 -47t22 -82q0 -101 -76.5 -173.5t-190.5 -72.5t-179.5 58t-65.5 147v14q0 4 2 6zM1106 387l2 10q-20 16 -33 35q-31 45 -31 98q0 83 77.5 149t189.5 66q113 0 179 -56t66 -138q0 -84 -61 -137
q-33 -26 -59 -37l-2 -10q20 -13 34 -33q37 -47 37 -111q0 -95 -78 -165t-198 -70q-119 0 -187.5 58t-68.5 147q0 90 65 151q28 28 68 43zM1188 522q0 -41 27 -62.5t75 -21.5q52 0 87.5 31t35.5 70q0 41 -27 62.5t-75 21.5q-52 0 -87.5 -31t-35.5 -70zM1249 315
q-60 0 -96.5 -32t-36.5 -80q0 -40 30.5 -66t82.5 -26q60 0 96.5 32t36.5 80q0 40 -30.5 66t-82.5 26z" />
    <glyph glyph-name="fiveeighths" unicode="&#x215d;" horiz-adv-x="1576" 
d="M276 0l1137 1434h170l-1137 -1434h-170zM246 911h143q0 -35 33 -63.5t90 -28.5q61 0 102 39t41 94q0 48 -35 80.5t-88 32.5q-59 0 -124 -61h-134l117 430h451l-25 -134h-323l-39 -133h10q50 31 108 31q100 0 163 -62.5t63 -162.5q0 -124 -83.5 -205.5t-213.5 -81.5
q-121 0 -188.5 61.5t-67.5 163.5zM1126 387l2 10q-17 14 -32 35q-31 45 -31 98q0 83 77 149t189 66q113 0 179.5 -56.5t66.5 -137.5q0 -84 -61 -137q-32 -25 -60 -37l-2 -10q22 -15 35 -33q37 -47 37 -111q0 -95 -78.5 -165t-198.5 -70q-119 0 -187.5 58t-68.5 147t66 151
q29 29 67 43zM1208 522q0 -41 27.5 -62.5t75.5 -21.5q52 0 87.5 31t35.5 70q0 41 -27.5 62.5t-75.5 21.5q-52 0 -87.5 -31t-35.5 -70zM1270 315q-60 0 -96.5 -32t-36.5 -80q0 -40 30 -66t82 -26q60 0 96.5 32t36.5 80q0 40 -30 66t-82 26z" />
    <glyph glyph-name="seveneighths" unicode="&#x215e;" horiz-adv-x="1454" 
d="M143 0l1137 1434h170l-1137 -1434h-170zM303 696l363 604h-330l24 134h482l-25 -134l-362 -604h-152zM1004 387l2 10q-20 16 -33 35q-31 45 -31 98q0 83 77 149t189 66q113 0 179.5 -56.5t66.5 -137.5q0 -84 -61 -137q-32 -25 -60 -37l-2 -10q22 -15 35 -33
q37 -47 37 -111q0 -95 -78.5 -165t-198.5 -70q-119 0 -187.5 58t-68.5 147t66 151q28 28 68 43zM1085 522q0 -41 27.5 -62.5t75.5 -21.5q52 0 87.5 31t35.5 70q0 41 -27.5 62.5t-75.5 21.5q-52 0 -87.5 -31t-35.5 -70zM1147 315q-60 0 -96.5 -32t-36.5 -80q0 -40 30 -66
t82 -26q60 0 97 32t37 80q0 40 -30.5 66t-82.5 26z" />
    <glyph glyph-name="uni215F" unicode="&#x215f;" horiz-adv-x="788" 
d="M133 0l1137 1434h170l-1137 -1434h-170zM381 696l90 512h-174l25 133h112q60 0 72 62l6 31h143l-131 -738h-143z" />
    <glyph glyph-name="arrowleft" unicode="&#x2190;" horiz-adv-x="2048" 
d="M410 696v41l378 379h226v-20l-277 -277v-10h1106v-184h-1106v-11l277 -276v-21h-226z" />
    <glyph glyph-name="arrowup" unicode="&#x2191;" horiz-adv-x="2048" 
d="M1028 0v1096h-10l-277 -277h-20v225l389 390h31l389 -390v-225h-21l-276 277h-10v-1096h-195z" />
    </font>
</defs>
</svg>
