<?xml version="1.0" standalone="no"?>
<!DOCTYPE svg PUBLIC "-//W3C//DTD SVG 1.1//EN" "http://www.w3.org/Graphics/SVG/1.1/DTD/svg11.dtd" >
<svg xmlns="http://www.w3.org/2000/svg" xmlns:xlink="http://www.w3.org/1999/xlink" version="1.1">
<metadata>
Created by FontForge 20170731 at Sat Jul 29 01:07:06 2023
 By Aleksey,,,
Copyright (c) 2019 by TypeType. Designers Ivan Gladkikh, Pavel Emelyanov. Technical designers Marina Khodak, Nadezhda Polomoshnova, Kseniya Karataeva, Olexa Volochay, Nadyr Rakhimov. All rights reserved. |DCNT
</metadata>
<defs>
<font id="TTHoves-BlackItalic" horiz-adv-x="1228" >
  <font-face 
    font-family="TT Hoves Black"
    font-weight="900"
    font-style="italic"
    font-stretch="normal"
    units-per-em="2048"
    panose-1="2 0 5 3 4 0 0 9 0 4"
    ascent="1434"
    descent="-614"
    x-height="1085"
    cap-height="1434"
    bbox="-901 -573 3045 2118"
    underline-thickness="102"
    underline-position="-307"
    slope="-10"
    unicode-range="U+000D-FB04"
  />
<missing-glyph horiz-adv-x="0" 
 />
    <glyph glyph-name="f_f" unicode="ff" horiz-adv-x="1617" 
d="M205 0l125 717h-164l65 368h164l23 123q58 328 381 328h250l-58 -328h-110q-37 0 -54.5 -16.5t-23.5 -54.5l-8 -52h317l23 123q58 328 381 328h311l-58 -328h-172q-36 0 -53.5 -16t-23.5 -55l-9 -52h236l-66 -368h-235l-125 -717h-399l125 717h-318l-125 -717h-399z" />
    <glyph glyph-name="uniFB01" unicode="fi" horiz-adv-x="1413" 
d="M1135 1208l53 308h399l-53 -308h-399zM205 0l125 717h-164l65 368h164l23 123q58 328 381 328h250l-58 -328h-110q-37 0 -54.5 -16.5t-23.5 -54.5l-8 -52h716l-190 -1085h-399l125 717h-318l-125 -717h-399z" />
    <glyph glyph-name="uniFB02" unicode="fl" horiz-adv-x="1423" 
d="M205 0l125 717h-164l65 368h164l23 123q58 328 381 328h792l-270 -1536h-399l213 1208h-254q-37 0 -54.5 -16.5t-23.5 -54.5l-8 -52h194l-65 -368h-195l-125 -717h-399z" />
    <glyph glyph-name="f_f_i" unicode="ffi" horiz-adv-x="2129" 
d="M1851 1208l54 308h399l-53 -308h-400zM205 0l125 717h-164l65 368h164l23 123q58 328 381 328h250l-58 -328h-110q-37 0 -54.5 -16.5t-23.5 -54.5l-8 -52h317l23 123q58 328 381 328h249l-57 -328h-111q-36 0 -53.5 -16t-23.5 -55l-9 -52h717l-190 -1085h-400l125 717
h-317l-125 -717h-399l125 717h-318l-125 -717h-399z" />
    <glyph glyph-name="f_f_l" unicode="ffl" horiz-adv-x="2140" 
d="M205 0l125 717h-164l65 368h164l23 123q58 328 381 328h250l-58 -328h-110q-37 0 -54.5 -16.5t-23.5 -54.5l-8 -52h317l23 123q58 328 381 328h792l-270 -1536h-400l213 1208h-254q-36 0 -53.5 -16t-23.5 -55l-9 -52h195l-66 -368h-194l-125 -717h-399l125 717h-318
l-125 -717h-399z" />
    <glyph glyph-name="f_f_j" unicode="ffj" horiz-adv-x="2129" 
d="M205 0l125 717h-164l65 368h164l23 123q58 328 381 328h250l-58 -328h-110q-37 0 -54.5 -16.5t-23.5 -54.5l-8 -52h317l23 123q58 328 381 328h249l-57 -328h-111q-36 0 -53.5 -16t-23.5 -55l-9 -52h717l-207 -1167q-55 -328 -383 -328h-278l65 369h142q37 0 52 16t23 56
l121 686h-317l-125 -717h-399l125 717h-318l-125 -717h-399zM1851 1208l54 308h399l-53 -308h-400z" />
    <glyph glyph-name="f_j" unicode="fj" horiz-adv-x="1413" 
d="M205 0l125 717h-164l65 368h164l23 123q58 328 381 328h250l-58 -328h-110q-37 0 -54.5 -16.5t-23.5 -54.5l-8 -52h716l-206 -1167q-55 -328 -383 -328h-279l66 369h141q37 0 52.5 16t23.5 56l121 686h-318l-125 -717h-399zM1135 1208l53 308h399l-53 -308h-399z" />
    <glyph glyph-name=".notdef" horiz-adv-x="0" 
 />
    <glyph glyph-name=".null" horiz-adv-x="0" 
 />
    <glyph glyph-name="nonmarkingreturn" horiz-adv-x="682" 
 />
    <glyph glyph-name="NULL" horiz-adv-x="0" 
 />
    <glyph glyph-name="NULL" horiz-adv-x="0" 
 />
    <glyph glyph-name="CR" unicode="&#xd;" horiz-adv-x="0" 
 />
    <glyph glyph-name="space" unicode=" " horiz-adv-x="593" 
 />
    <glyph glyph-name="exclam" unicode="!" horiz-adv-x="696" 
d="M133 0l72 410h430l-72 -410h-430zM299 553v389l86 492h430l-86 -492l-121 -389h-309z" />
    <glyph glyph-name="quotedbl" unicode="&#x22;" horiz-adv-x="1085" 
d="M281 901l94 533h348l-94 -533h-348zM752 901l94 533h348l-94 -533h-348z" />
    <glyph glyph-name="numbersign" unicode="#" horiz-adv-x="1576" 
d="M195 0l110 287h-235l131 338h235l74 184h-236l132 338h235l113 287h358l-113 -287h164l113 287h358l-112 -287h235l-131 -338h-235l-74 -184h235l-131 -338h-235l-111 -287h-358l110 287h-163l-111 -287h-358zM795 625h163l74 184h-164z" />
    <glyph glyph-name="dollar" unicode="$" horiz-adv-x="1320" 
d="M399 -225l41 235q-161 53 -244 163.5t-83 256.5v62h430v-13q0 -58 51 -94.5t154 -36.5q163 0 163 94q0 67 -159 97l-160 28q-356 70 -356 383q0 190 120 329t340 175l35 205h399l-38 -232q157 -51 244 -161.5t87 -272.5v-51h-440v10q0 63 -44.5 98t-129.5 35
q-143 0 -143 -92q0 -28 36 -51.5t107 -36.5l111 -20q421 -80 421 -393q0 -220 -139.5 -355.5t-367.5 -161.5l-35 -200h-400z" />
    <glyph glyph-name="percent" unicode="%" horiz-adv-x="1771" 
d="M229 0l1143 1434h389l-1143 -1434h-389zM217 1057q0 167 120 282t277 115q138 0 230 -92t92 -227q0 -167 -120 -282.5t-277 -115.5q-137 0 -229.5 92.5t-92.5 227.5zM483 1085q0 -35 23.5 -58t60.5 -23q42 0 72.5 30t30.5 72q0 35 -23.5 58.5t-60.5 23.5
q-42 0 -72.5 -30.5t-30.5 -72.5zM1055 299q0 167 120 282t277 115q138 0 230 -92t92 -227q0 -111 -57 -203.5t-148.5 -143t-192.5 -50.5q-138 0 -229.5 92t-91.5 227zM1321 328q0 -35 23.5 -58.5t60.5 -23.5q42 0 72 30t30 72q0 35 -23.5 58.5t-60.5 23.5q-42 0 -72 -30
t-30 -72z" />
    <glyph glyph-name="ampersand" unicode="&#x26;" horiz-adv-x="1392" 
d="M317 678l111 80l-41 61q-72 95 -72 223q0 79 30.5 152t89 131.5t152.5 93.5t210 35q200 0 320 -102t120 -246q0 -197 -190 -328l-119 -82l108 -143q47 38 64 123h358q-28 -129 -74 -210t-139 -179l217 -287h-440l-57 78q-162 -98 -353 -98q-122 0 -219 31t-155 83
t-88.5 114.5t-30.5 129.5q0 195 198 340zM745 932l46 31q36 27 51.5 46t15.5 46q0 31 -20.5 51t-51.5 20q-42 0 -69 -25.5t-27 -66.5q0 -38 29 -71zM754 348l-133 174l-33 -20q-46 -28 -64 -54.5t-18 -58.5q0 -39 29.5 -65.5t87.5 -26.5q44 0 73 12.5t58 38.5z" />
    <glyph glyph-name="quotesingle" unicode="'" horiz-adv-x="614" 
d="M281 901l94 533h348l-94 -533h-348z" />
    <glyph glyph-name="parenleft" unicode="(" horiz-adv-x="829" 
d="M688 -410h-393q-137 308 -137 641q0 347 123.5 675t365.5 589h451q-254 -254 -397.5 -594.5t-143.5 -701.5q0 -338 131 -609z" />
    <glyph glyph-name="parenright" unicode=")" horiz-adv-x="829" 
d="M389 -410h-450q254 259 397 597t143 700q0 337 -131 608h393q138 -311 138 -641q0 -347 -124 -675t-366 -589z" />
    <glyph glyph-name="asterisk" unicode="*" horiz-adv-x="1044" 
d="M299 707l174 204l-266 82l82 256l266 -102l-20 287h286l-20 -287l266 102l82 -256l-266 -82l174 -204l-215 -175l-164 236l-164 -236z" />
    <glyph glyph-name="plus" unicode="+" horiz-adv-x="1136" 
d="M492 82v328h-297v368h297v328h378v-328h297v-368h-297v-328h-378z" />
    <glyph glyph-name="comma" unicode="," horiz-adv-x="634" 
d="M25 -205l174 635h430l-287 -635h-317z" />
    <glyph glyph-name="hyphen" unicode="-" horiz-adv-x="921" 
d="M162 399l65 369h738l-66 -369h-737z" />
    <glyph glyph-name="period" unicode="." horiz-adv-x="634" 
d="M102 0l76 430h430l-76 -430h-430z" />
    <glyph glyph-name="slash" unicode="/" horiz-adv-x="962" 
d="M-72 -410l897 1905h420l-899 -1905h-418z" />
    <glyph glyph-name="zero" unicode="0" horiz-adv-x="1392" 
d="M776 399q42 0 86 25.5t83.5 73t65 128.5t25.5 179q0 113 -48 171t-124 58q-42 0 -86 -25.5t-83.5 -73t-65 -128t-25.5 -178.5q0 -113 48 -171.5t124 -58.5zM903 1454q252 0 407.5 -163.5t155.5 -438.5q0 -160 -41 -301t-112 -244t-164 -177.5t-198.5 -112t-213.5 -37.5
q-252 0 -407.5 163.5t-155.5 438.5q0 160 41 301t112 244t164 177.5t198.5 112t213.5 37.5z" />
    <glyph glyph-name="one" unicode="1" horiz-adv-x="860" 
d="M317 0l154 881h-266l74 409h194q72 0 84 72l12 72h430l-251 -1434h-431z" />
    <glyph glyph-name="two" unicode="2" horiz-adv-x="1208" 
d="M61 0l66 379l678 471q36 26 51.5 47.5t15.5 54.5q0 38 -28 60t-76 22q-54 0 -93.5 -34.5t-43.5 -88.5h-430q33 249 191 396t407 147q228 0 371 -122t143 -308q0 -71 -19.5 -134t-46.5 -107.5t-73.5 -90.5t-83 -73.5t-93.5 -65.5l-209 -143l-2 -11h410l-70 -399h-1065z
" />
    <glyph glyph-name="three" unicode="3" horiz-adv-x="1218" 
d="M127 502h428q-2 -6 -2 -21q0 -48 33 -80t86 -32q58 0 91.5 29.5t33.5 82.5q0 39 -31 65.5t-84 26.5h-94l57 328h119q45 0 72.5 24.5t27.5 57.5q0 32 -25 57t-65 25q-96 0 -119 -102h-430q30 222 185 361.5t395 139.5q226 0 365 -115t139 -294q0 -159 -117 -260
q-55 -46 -115 -68l-2 -10q39 -20 74 -58q74 -82 74 -219q0 -94 -42 -180.5t-115 -150.5t-178.5 -102t-225.5 -38q-256 0 -397.5 127.5t-141.5 333.5q0 10 4 72z" />
    <glyph glyph-name="four" unicode="4" horiz-adv-x="1259" 
d="M70 225l67 389l586 820h625l-146 -820h133l-67 -389h-133l-39 -225h-430l39 225h-635zM592 614h180l55 308h-28z" />
    <glyph glyph-name="five" unicode="5" 
d="M141 440h430q28 -71 119 -71q61 0 99 34.5t38 88.5q0 41 -34.5 71.5t-81.5 30.5q-49 0 -76 -16.5t-49 -45.5h-418l242 902h931l-69 -390h-553l-29 -112h10l29 10q30 10 84 10q198 0 324.5 -120.5t126.5 -299.5q0 -166 -80 -295.5t-215 -198.5t-299 -69q-134 0 -237.5 37
t-166 101.5t-94 146t-31.5 176.5v10z" />
    <glyph glyph-name="six" unicode="6" 
d="M289 829l495 605h492l-375 -441q162 -25 270.5 -150t108.5 -290q0 -164 -85 -299t-225.5 -210t-303.5 -75q-120 0 -219.5 38t-165.5 102.5t-102 150t-36 180.5q0 213 146 389zM584 485q0 -50 31.5 -83t89.5 -33q62 0 103.5 43.5t41.5 105.5q0 50 -32 83.5t-89 33.5
q-62 0 -103.5 -44t-41.5 -106z" />
    <glyph glyph-name="seven" unicode="7" horiz-adv-x="1136" 
d="M92 0l639 1014h-502l74 420h1024l-67 -379l-656 -1055h-512z" />
    <glyph glyph-name="eight" unicode="8" horiz-adv-x="1208" 
d="M381 748l4 10q-34 21 -61 55q-62 78 -62 186q0 90 38.5 174t108 148.5t174 103.5t228.5 39q120 0 220.5 -35t164 -91.5t98.5 -125.5t35 -141q0 -174 -119 -285q-55 -48 -118 -69l-2 -10q34 -18 69 -58q70 -82 70 -192q0 -139 -74.5 -251t-203.5 -174.5t-287 -62.5
q-246 0 -393.5 117t-147.5 291q0 191 129 299q58 52 129 72zM686 995q0 -36 25.5 -60t68.5 -24q47 0 79 29t32 72q0 36 -25.5 60t-68.5 24q-47 0 -79 -29t-32 -72zM561 451q0 -44 30.5 -73.5t82.5 -29.5q56 0 94.5 35t38.5 88q0 44 -30.5 73t-82.5 29q-56 0 -94.5 -34.5
t-38.5 -87.5z" />
    <glyph glyph-name="nine" unicode="9" 
d="M205 0l375 440q-162 25 -270.5 150.5t-108.5 290.5q0 123 50 232.5t134 185.5t196 120.5t234 44.5q120 0 219.5 -38t165 -102.5t101.5 -149.5t36 -181q0 -214 -145 -389l-496 -604h-491zM631 915q0 -50 31.5 -83t89.5 -33q62 0 103.5 43.5t41.5 105.5q0 50 -32 83.5
t-89 33.5q-62 0 -103.5 -44t-41.5 -106z" />
    <glyph glyph-name="colon" unicode=":" horiz-adv-x="634" 
d="M102 0l76 430h430l-76 -430h-430zM217 655l76 430h430l-76 -430h-430z" />
    <glyph glyph-name="semicolon" unicode=";" horiz-adv-x="634" 
d="M238 655l75 430h430l-75 -430h-430zM25 -205l174 635h430l-287 -635h-317z" />
    <glyph glyph-name="less" unicode="&#x3c;" horiz-adv-x="1136" 
d="M197 420v389l952 358v-399l-502 -154l502 -153v-400z" />
    <glyph glyph-name="equal" unicode="=" horiz-adv-x="1146" 
d="M236 655v349h901v-349h-901zM236 184v348h901v-348h-901z" />
    <glyph glyph-name="greater" unicode="&#x3e;" horiz-adv-x="1136" 
d="M225 61v400l502 153l-502 154v399l953 -358v-389z" />
    <glyph glyph-name="question" unicode="?" horiz-adv-x="1126" 
d="M328 0l71 410h430l-71 -410h-430zM434 553l15 72q16 84 52 141.5t82.5 90.5t121.5 65q57 24 77.5 42.5t20.5 49.5q0 25 -20 43t-56 18q-32 0 -59 -22.5t-33 -59.5h-430q30 213 175 337t378 124q231 0 370.5 -103.5t139.5 -254.5q0 -116 -74.5 -203t-189.5 -135
q-73 -31 -105.5 -63t-44.5 -91l-10 -51h-410z" />
    <glyph glyph-name="at" unicode="@" horiz-adv-x="1955" 
d="M1022 31h371l-52 -297h-331q-254 0 -447 89.5t-299 257t-106 390.5q0 202 74.5 382.5t206 313t322.5 210t413 77.5q154 0 289.5 -37t237 -104t175.5 -156.5t111.5 -196.5t37.5 -223q0 -257 -140 -415t-353 -158q-143 0 -219 55q-38 24 -58 57h-10q-37 -37 -71 -57
q-83 -55 -195 -55q-158 0 -257 104t-99 254q0 137 61 248t165.5 172.5t231.5 61.5q72 0 136 -37q15 -10 45 -35h10l35 61h245l-71 -413q-4 -32 -4 -43q0 -76 86 -76q51 0 96 68t45 188q0 186 -158.5 313t-402.5 127q-192 0 -344.5 -85t-238 -237t-85.5 -343
q0 -205 144.5 -333t402.5 -128zM1055 461q50 0 90.5 40t40.5 103q0 44 -27.5 73.5t-71.5 29.5q-50 0 -90.5 -40.5t-40.5 -103.5q0 -43 27.5 -72.5t71.5 -29.5z" />
    <glyph glyph-name="A" unicode="A" horiz-adv-x="1474" 
d="M-10 0l712 1434h594l209 -1434h-440l-25 215h-471l-98 -215h-481zM737 584h267l-46 389h-40z" />
    <glyph glyph-name="B" unicode="B" horiz-adv-x="1392" 
d="M113 0l252 1434h720q186 0 295 -96.5t109 -241.5q0 -176 -109 -293q-44 -49 -106 -86l-2 -10q32 -28 61 -68q64 -89 64 -188q0 -205 -132.5 -328t-342.5 -123h-809zM604 358h266q39 0 70 30.5t31 72.5q0 37 -24 59.5t-56 22.5h-254zM698 891h244q43 0 72.5 31t29.5 71
q0 37 -24.5 59.5t-56.5 22.5h-232z" />
    <glyph glyph-name="C" unicode="C" horiz-adv-x="1515" 
d="M1124 594h432q-85 -288 -283 -451t-450 -163q-285 0 -463 178t-178 456q0 144 43 276.5t119 233.5t175 176t215.5 114.5t236.5 39.5q127 0 237.5 -40.5t193.5 -116t132 -190.5t53 -257h-426q-12 81 -73 132.5t-156 51.5q-130 0 -225 -107t-95 -270q0 -120 70.5 -189
t179.5 -69q83 0 153.5 52t108.5 143z" />
    <glyph glyph-name="D" unicode="D" horiz-adv-x="1443" 
d="M616 420h152q124 0 220.5 96t96.5 240q0 116 -68 187t-177 71h-119zM113 0l252 1434h526q173 0 315.5 -79t226 -223.5t83.5 -326.5q0 -170 -64.5 -321t-173.5 -256.5t-255 -166.5t-306 -61h-604z" />
    <glyph glyph-name="E" unicode="E" horiz-adv-x="1218" 
d="M113 0l252 1434h1024l-70 -390h-594l-25 -143h553l-65 -369h-553l-25 -143h594l-67 -389h-1024z" />
    <glyph glyph-name="F" unicode="F" horiz-adv-x="1208" 
d="M113 0l252 1434h1024l-70 -390h-594l-29 -163h533l-64 -369h-532l-90 -512h-430z" />
    <glyph glyph-name="G" unicode="G" horiz-adv-x="1536" 
d="M1141 0v102h-11q-49 -53 -145 -87.5t-188 -34.5q-172 0 -312.5 81t-221.5 226.5t-81 326.5q0 144 43 276.5t119 233.5t175 176t215.5 114.5t236.5 39.5q252 0 417 -144.5t197 -408.5h-438q-61 133 -215 133q-130 0 -225 -107t-95 -270q0 -120 70.5 -189t179.5 -69
q63 0 110.5 17.5t68.5 35.5t49 50h-216l50 276h665l-137 -778h-311z" />
    <glyph glyph-name="H" unicode="H" horiz-adv-x="1474" 
d="M113 0l252 1434h430l-86 -492h389l86 492h430l-252 -1434h-430l88 502h-389l-88 -502h-430z" />
    <glyph glyph-name="I" unicode="I" horiz-adv-x="655" 
d="M113 0l252 1434h430l-252 -1434h-430z" />
    <glyph glyph-name="J" unicode="J" horiz-adv-x="921" 
d="M20 0l74 420h295q73 0 88 82l164 932h430l-192 -1086q-31 -171 -128.5 -259.5t-258.5 -88.5h-472z" />
    <glyph glyph-name="K" unicode="K" horiz-adv-x="1341" 
d="M113 0l252 1434h430l-103 -584l410 584h514l-537 -738l291 -696h-479l-242 614l-106 -614h-430z" />
    <glyph glyph-name="L" unicode="L" horiz-adv-x="1136" 
d="M113 0l252 1434h430l-179 -1014h594l-73 -420h-1024z" />
    <glyph glyph-name="M" unicode="M" horiz-adv-x="1925" 
d="M113 0l252 1434h604l86 -676h41l323 676h645l-252 -1434h-430l119 676h-41l-323 -676h-349l-86 676h-40l-119 -676h-430z" />
    <glyph glyph-name="N" unicode="N" horiz-adv-x="1495" 
d="M113 0l252 1434h481l201 -666h40l117 666h430l-252 -1434h-481l-203 666h-41l-114 -666h-430z" />
    <glyph glyph-name="O" unicode="O" horiz-adv-x="1536" 
d="M182 614q0 178 66 336.5t175 267.5t252 172.5t296 63.5q187 0 332.5 -81.5t225 -226t79.5 -327.5q0 -178 -66 -336.5t-175 -267.5t-252 -172t-296 -63q-140 0 -259 47.5t-202 131t-129.5 201t-46.5 254.5zM860 399q125 0 221.5 106t96.5 271q0 121 -68.5 189.5
t-179.5 68.5q-126 0 -222 -106t-96 -271q0 -121 68.5 -189.5t179.5 -68.5z" />
    <glyph glyph-name="P" unicode="P" horiz-adv-x="1402" 
d="M113 0l252 1434h669q196 0 323.5 -119.5t127.5 -323.5q0 -141 -45 -259.5t-122 -197t-179.5 -122t-216.5 -43.5h-316l-63 -369h-430zM680 778h252q48 0 85.5 41.5t37.5 100.5q0 47 -28 75.5t-75 28.5h-229z" />
    <glyph glyph-name="Q" unicode="Q" horiz-adv-x="1536" 
d="M1055 -205l-129 193q-47 -8 -107 -8q-140 0 -259 47.5t-202 131t-129.5 201t-46.5 254.5q0 178 66 336.5t175 267.5t252 172.5t296 63.5q187 0 332.5 -81.5t225 -226t79.5 -327.5q0 -207 -84 -378.5t-230 -288.5l242 -357h-481zM860 399q125 0 221.5 106t96.5 271
q0 121 -68.5 189.5t-179.5 68.5q-126 0 -222 -106t-96 -271q0 -121 68.5 -189.5t179.5 -68.5z" />
    <glyph glyph-name="R" unicode="R" horiz-adv-x="1423" 
d="M680 788h272q55 0 94 40.5t39 101.5q0 47 -27.5 75.5t-74.5 28.5h-258zM113 0l252 1434h700q189 0 320 -124.5t131 -322.5q0 -122 -38 -224.5t-102.5 -170.5t-139.5 -111.5t-159 -62.5l275 -418h-502l-236 410l-71 -410h-430z" />
    <glyph glyph-name="S" unicode="S" horiz-adv-x="1320" 
d="M113 492h430v-13q0 -58 51 -94.5t154 -36.5q163 0 163 94q0 67 -159 97l-160 28q-356 70 -356 383q0 106 38.5 198.5t111.5 163t187 111.5t256 41q175 0 308 -53.5t209.5 -161t76.5 -256.5v-51h-440v10q0 63 -44.5 98t-129.5 35q-143 0 -143 -92q0 -28 36 -51.5
t107 -36.5l111 -20q421 -80 421 -393q0 -124 -47 -224t-129.5 -165t-194.5 -99.5t-243 -34.5q-153 0 -272.5 35.5t-193 99t-111 146t-37.5 180.5v62z" />
    <glyph glyph-name="T" unicode="T" 
d="M389 0l178 1014h-358l74 420h1147l-74 -420h-359l-178 -1014h-430z" />
    <glyph glyph-name="U" unicode="U" horiz-adv-x="1454" 
d="M219 672l135 762h430l-143 -805q-6 -27 -6 -54q0 -80 46.5 -128t125.5 -48q81 0 140.5 51.5t76.5 145.5l150 838h430l-154 -871q-49 -272 -229.5 -427.5t-436.5 -155.5q-271 0 -426 145.5t-155 390.5q0 68 16 156z" />
    <glyph glyph-name="V" unicode="V" horiz-adv-x="1454" 
d="M420 0l-189 1434h441l100 -881h41l412 881h481l-692 -1434h-594z" />
    <glyph glyph-name="W" unicode="W" horiz-adv-x="2027" 
d="M338 0l-96 1434h471v-635h41l266 635h430l41 -635h41l256 635h481l-600 -1434h-481l-47 666h-41l-281 -666h-481z" />
    <glyph glyph-name="X" unicode="X" horiz-adv-x="1372" 
d="M-41 0l590 737l-307 697h471l123 -349h41l245 349h512l-553 -697l332 -737h-471l-149 379h-41l-281 -379h-512z" />
    <glyph glyph-name="Y" unicode="Y" horiz-adv-x="1372" 
d="M461 0l76 430l-336 1004h450l150 -492h41l321 492h492l-688 -1004l-76 -430h-430z" />
    <glyph glyph-name="Z" unicode="Z" horiz-adv-x="1300" 
d="M72 0l67 389l656 635h-533l72 410h1136l-69 -390l-653 -634h552l-71 -410h-1157z" />
    <glyph glyph-name="bracketleft" unicode="[" horiz-adv-x="829" 
d="M59 -410l336 1905h645l-65 -369h-246l-205 -1167h246l-65 -369h-646z" />
    <glyph glyph-name="backslash" unicode="\" horiz-adv-x="962" 
d="M500 -410l-228 1905h390l227 -1905h-389z" />
    <glyph glyph-name="bracketright" unicode="]" horiz-adv-x="829" 
d="M-20 -410l63 369h246l205 1167h-246l65 369h645l-335 -1905h-643z" />
    <glyph glyph-name="asciicircum" unicode="^" horiz-adv-x="993" 
d="M174 819l205 615h481l205 -615h-348l-92 297h-11l-92 -297h-348z" />
    <glyph glyph-name="underscore" unicode="_" horiz-adv-x="860" 
d="M-141 -573l65 368h940l-65 -368h-940z" />
    <glyph glyph-name="grave" unicode="`" horiz-adv-x="706" 
d="M530 1208l-202 308h379l151 -308h-328z" />
    <glyph glyph-name="a" unicode="a" horiz-adv-x="1177" 
d="M741 0l-8 72h-10q-20 -26 -55 -47q-76 -45 -193 -45q-167 0 -270 82.5t-103 213.5q0 176 120 277.5t315 101.5h278l2 9q4 28 4 32q0 43 -30.5 67.5t-79.5 24.5q-76 0 -111 -61h-379q38 175 173 277t347 102q214 0 347 -109.5t133 -279.5q0 -45 -9 -86l-112 -631h-359z
M772 408l2 12h-166q-47 0 -71.5 -20t-24.5 -56q0 -28 27.5 -48t78.5 -20q131 0 154 132z" />
    <glyph glyph-name="b" unicode="b" horiz-adv-x="1300" 
d="M102 0l252 1434h400l-70 -398h10q25 22 56 35q85 35 168 35q190 0 310 -134t120 -339q0 -147 -50.5 -273t-131.5 -207.5t-180.5 -127t-201.5 -45.5q-122 0 -211 51q-29 15 -65 51h-10l-37 -82h-359zM750 348q76 0 137 63.5t61 166.5q0 72 -44 115.5t-111 43.5
q-76 0 -137.5 -63t-61.5 -166q0 -72 44.5 -116t111.5 -44z" />
    <glyph glyph-name="c" unicode="c" horiz-adv-x="1249" 
d="M852 451h418q-28 -96 -78 -178t-123 -149t-177 -105.5t-228 -38.5q-230 0 -376.5 142.5t-146.5 354.5q0 173 87.5 318.5t232 228t309.5 82.5q226 0 369 -125.5t155 -345.5h-407q-11 50 -46 76t-104 26q-76 0 -136 -62t-60 -165q0 -74 44 -118t111 -44q59 0 95 26t61 77z
" />
    <glyph glyph-name="d" unicode="d" horiz-adv-x="1300" 
d="M840 0l-9 72h-10q-19 -25 -59 -47q-80 -45 -189 -45q-190 0 -310 134t-120 339q0 147 50.5 273t131.5 207.5t180.5 127t201.5 45.5q112 0 196 -45q38 -21 66 -43h10l72 416h399l-252 -1434h-358zM698 348q76 0 137.5 63.5t61.5 166.5q0 72 -44.5 115.5t-111.5 43.5
q-76 0 -137 -63t-61 -166q0 -72 44 -116t111 -44z" />
    <glyph glyph-name="e" unicode="e" horiz-adv-x="1239" 
d="M842 338h389q-74 -157 -220.5 -257.5t-346.5 -100.5q-230 0 -376.5 142.5t-146.5 354.5q0 173 87.5 318.5t232 228t309.5 82.5q227 0 369.5 -137.5t142.5 -352.5q0 -52 -12 -118q-7 -32 -10 -58h-742q5 -69 53.5 -111t126.5 -42q72 0 111 24q17 7 33 27zM555 645h358
q0 71 -43.5 117.5t-119.5 46.5q-66 0 -119.5 -41t-75.5 -123z" />
    <glyph glyph-name="f" unicode="f" horiz-adv-x="901" 
d="M205 0l125 717h-164l65 368h164l23 123q58 328 381 328h311l-57 -328h-172q-37 0 -54.5 -16.5t-23.5 -54.5l-8 -52h235l-65 -368h-236l-125 -717h-399z" />
    <glyph glyph-name="g" unicode="g" horiz-adv-x="1249" 
d="M61 0h402q7 -35 43 -58.5t108 -23.5q131 0 154 143l16 93h-10q-18 -21 -47 -37q-64 -35 -154 -35q-114 0 -208.5 49t-153.5 148.5t-59 232.5q0 131 44.5 244t119 188.5t171 118.5t199.5 43q105 0 193 -51q32 -18 63 -49h10l37 79h359l-185 -1044q-81 -461 -569 -461
q-234 0 -383.5 109t-149.5 291v20zM551 567q0 -61 40 -99t99 -38q66 0 120 53t54 138q0 61 -40 99t-99 38q-66 0 -120 -53t-54 -138z" />
    <glyph glyph-name="h" unicode="h" horiz-adv-x="1249" 
d="M102 0l252 1434h400l-70 -396h10q18 16 58 33q85 35 166 35q175 0 274.5 -97t99.5 -259q0 -41 -12 -111l-113 -639h-399l98 561q4 28 4 37q0 51 -31.5 85t-84.5 34q-59 0 -99 -37t-51 -94l-102 -586h-400z" />
    <glyph glyph-name="i" unicode="i" horiz-adv-x="583" 
d="M92 0l191 1085h399l-190 -1085h-400zM305 1208l53 308h400l-53 -308h-400z" />
    <glyph glyph-name="j" unicode="j" horiz-adv-x="583" 
d="M305 1208l53 308h400l-53 -308h-400zM-215 -410l65 369h170q37 0 52.5 16t23.5 56l187 1054h399l-207 -1167q-55 -328 -383 -328h-307z" />
    <glyph glyph-name="k" unicode="k" horiz-adv-x="1218" 
d="M102 0l252 1434h400l-146 -820l371 471h457l-449 -553l252 -532h-430l-221 492l-86 -492h-400z" />
    <glyph glyph-name="l" unicode="l" horiz-adv-x="604" 
d="M102 0l252 1434h400l-252 -1434h-400z" />
    <glyph glyph-name="m" unicode="m" horiz-adv-x="1781" 
d="M92 0l191 1085h358l8 -71h10q23 23 62 45q84 47 190 47q105 0 185 -53q29 -16 61 -52h10q33 33 72 52q96 53 225 53q159 0 260 -92.5t101 -259.5q0 -44 -10 -109l-115 -645h-400l105 584q4 28 4 39q0 94 -94 94q-43 0 -72.5 -30.5t-40.5 -84.5l-106 -602h-400l105 584
q4 28 4 39q0 94 -94 94q-43 0 -72.5 -30.5t-40.5 -84.5l-106 -602h-400z" />
    <glyph glyph-name="n" unicode="n" horiz-adv-x="1239" 
d="M92 0l191 1085h358l8 -71h10q20 22 60 45q84 47 188 47q176 0 275.5 -97t99.5 -259q0 -41 -12 -111l-113 -639h-399l98 561q4 28 4 37q0 51 -32 85t-85 34q-59 0 -98.5 -37t-50.5 -94l-102 -586h-400z" />
    <glyph glyph-name="o" unicode="o" horiz-adv-x="1249" 
d="M141 477q0 173 87.5 318.5t232 228t309.5 82.5q230 0 376 -143t146 -355q0 -130 -51.5 -247.5t-137 -200.5t-200.5 -131.5t-239 -48.5q-230 0 -376.5 142.5t-146.5 354.5zM696 348q76 0 136.5 62t60.5 165q0 73 -44.5 117.5t-111.5 44.5q-76 0 -136 -62t-60 -165
q0 -74 44 -118t111 -44z" />
    <glyph glyph-name="p" unicode="p" horiz-adv-x="1290" 
d="M18 -410l265 1495h358l8 -71h10q20 22 60 45q84 47 188 47q190 0 310 -134t120 -339q0 -119 -32.5 -224.5t-88.5 -182.5t-128 -133.5t-152.5 -84.5t-161.5 -28q-116 0 -196 43q-42 23 -66 45h-10l-84 -478h-400zM739 348q76 0 137.5 63.5t61.5 166.5q0 72 -44.5 115.5
t-111.5 43.5q-76 0 -137 -63t-61 -166q0 -72 44 -116t111 -44z" />
    <glyph glyph-name="q" unicode="q" horiz-adv-x="1290" 
d="M727 -410l80 459h-10q-19 -19 -56 -35q-74 -34 -168 -34q-190 0 -310 134t-120 339q0 147 50.5 273t131.5 207.5t180.5 127t201.5 45.5q115 0 211 -51q29 -15 65 -51h10l37 81h359l-263 -1495h-399zM698 348q76 0 137.5 63.5t61.5 166.5q0 72 -44.5 115.5t-111.5 43.5
q-76 0 -137 -63t-61 -166q0 -72 44 -116t111 -44z" />
    <glyph glyph-name="r" unicode="r" horiz-adv-x="901" 
d="M92 0l191 1085h358l8 -71h10q24 21 50 35q66 36 141 36h190l-65 -368h-197q-85 0 -130 -41t-62 -133l-94 -543h-400z" />
    <glyph glyph-name="s" unicode="s" horiz-adv-x="1085" 
d="M86 338h389v-10q0 -72 127 -72q107 0 107 72q0 25 -19.5 40t-77.5 25l-73 10q-373 51 -373 324q0 78 31 147.5t91 124t157 86t219 31.5t220 -29.5t158 -79.5t91.5 -111t31.5 -128v-20h-389v10q0 32 -28.5 51.5t-83.5 19.5q-51 0 -77 -18t-26 -43q0 -29 21 -44t75 -22
l78 -10q177 -24 274 -105t97 -218q0 -177 -130 -288.5t-374 -111.5q-233 0 -374.5 99.5t-141.5 250.5v19z" />
    <glyph glyph-name="t" unicode="t" horiz-adv-x="942" 
d="M270 381l60 336h-164l65 368h164l58 328h399l-57 -328h235l-65 -368h-236l-47 -264q-4 -15 -4 -35q0 -49 70 -49h155l-63 -369h-236q-173 0 -258.5 76t-85.5 209q0 38 10 96z" />
    <glyph glyph-name="u" unicode="u" horiz-adv-x="1249" 
d="M170 446l113 639h399l-98 -561q-4 -28 -4 -37q0 -51 31.5 -84.5t84.5 -33.5q59 0 99 37t51 94l102 585h400l-191 -1085h-358l-8 72h-11q-19 -25 -59 -47q-80 -45 -189 -45q-176 0 -275 97t-99 259q0 40 12 110z" />
    <glyph glyph-name="v" unicode="v" horiz-adv-x="1187" 
d="M328 0l-148 1085h389l56 -614h41l272 614h430l-528 -1085h-512z" />
    <glyph glyph-name="w" unicode="w" horiz-adv-x="1699" 
d="M266 0l-76 1085h408v-471h41l197 471h348l28 -471h41l187 471h430l-457 -1085h-461l-26 430h-41l-178 -430h-441z" />
    <glyph glyph-name="x" unicode="x" horiz-adv-x="1146" 
d="M-31 0l445 553l-234 532h410l88 -256h41l178 256h451l-422 -532l252 -553h-410l-106 276h-41l-201 -276h-451z" />
    <glyph glyph-name="y" unicode="y" horiz-adv-x="1239" 
d="M49 -410l66 369h223q27 0 43 23q9 9 14 22l-225 1081h410l94 -573h41l264 573h451l-674 -1269q-61 -116 -135 -171t-191 -55h-381z" />
    <glyph glyph-name="z" unicode="z" horiz-adv-x="1085" 
d="M61 0l60 338l469 399h-389l61 348h942l-59 -337l-471 -400h409l-59 -348h-963z" />
    <glyph glyph-name="braceleft" unicode="{" horiz-adv-x="870" 
d="M211 35l22 139q5 40 5 43q0 56 -28.5 85t-98.5 36l71 410q88 0 127.5 38.5t52.5 114.5l35 205q35 189 152 289t291 100h241l-65 -369h-105q-60 0 -90 -29.5t-41 -92.5l-45 -246q-29 -139 -145 -189q-58 -23 -117 -26l-8 -41q45 -8 94 -33q94 -62 94 -166q0 -1 -6 -55
l-26 -160q-1 -5 -2 -12.5t-2 -13t-1 -9.5q0 -45 28.5 -69.5t82.5 -24.5h84l-66 -369h-172q-179 0 -275.5 93t-96.5 245q0 42 10 107z" />
    <glyph glyph-name="bar" unicode="|" horiz-adv-x="890" 
d="M367 -410v1905h399v-1905h-399z" />
    <glyph glyph-name="braceright" unicode="}" horiz-adv-x="870" 
d="M-20 -410l65 369h105q60 0 90 30t41 93l45 246q23 136 145 188q61 24 117 27l8 41q-56 10 -94 32q-94 54 -94 166q0 2 6 56l26 159q4 28 4 35q0 45 -28.5 69.5t-81.5 24.5h-84l65 369h172q179 0 276 -93.5t97 -244.5q0 -41 -10 -106l-23 -140q-4 -32 -4 -43
q0 -56 28.5 -84.5t98.5 -35.5l-71 -410q-88 0 -128 -39t-53 -115l-34 -204q-35 -189 -152.5 -289.5t-290.5 -100.5h-241z" />
    <glyph glyph-name="asciitilde" unicode="~" horiz-adv-x="1259" 
d="M526 317h-368q0 251 100 376.5t268 125.5q67 0 121 -17.5t82.5 -38.5t61.5 -38.5t63 -17.5q92 0 92 102h369q0 -251 -100.5 -376.5t-268.5 -125.5q-67 0 -121 17.5t-82.5 39t-61.5 39t-63 17.5q-92 0 -92 -103z" />
    <glyph glyph-name="nbspace" unicode="&#xa0;" horiz-adv-x="593" 
 />
    <glyph glyph-name="exclamdown" unicode="&#xa1;" horiz-adv-x="696" 
d="M252 676l72 409h430l-72 -409h-430zM72 -348l86 491l118 389h312v-389l-86 -491h-430z" />
    <glyph glyph-name="cent" unicode="&#xa2;" horiz-adv-x="1239" 
d="M391 -225l41 235q-121 38 -208 164.5t-87 286.5q0 128 43.5 240t114.5 188.5t155 126.5t173 69l39 226h399l-41 -236q121 -49 200.5 -164.5t79.5 -275.5h-409q-14 54 -49 78t-103 24q-79 0 -137.5 -64t-58.5 -161q0 -78 44 -121t122 -43q58 0 93 26t60 77h406
q-57 -182 -172 -291t-265 -150l-40 -235h-400z" />
    <glyph glyph-name="sterling" unicode="&#xa3;" horiz-adv-x="1300" 
d="M51 0l68 389h61q38 0 64 22t32 60l13 72h-144l56 307h143l33 178q37 193 178.5 309.5t349.5 116.5q230 0 364 -119t134 -311v-61h-420v20q0 82 -90 82q-76 0 -96 -94l-23 -121h359l-56 -307h-358l-12 -72q-6 -28 -37 -59q-28 -22 -29 -23h676l-68 -389h-1198z" />
    <glyph glyph-name="currency" unicode="&#xa4;" horiz-adv-x="1146" 
d="M891 717q0 86 -54.5 140t-140.5 54t-140 -54t-54 -140t54 -140.5t140 -54.5t140.5 54.5t54.5 140.5zM256 399l102 123q-17 24 -26 51q-25 59 -25 144q0 84 25 143q9 27 26 51l-102 123l133 123l103 -113q25 18 55 31q77 31 149 31q62 0 148 -31l57 -31l103 113l133 -123
l-103 -123q15 -21 25 -51q26 -61 26 -143q0 -83 -26 -144q-10 -30 -25 -51l103 -123l-133 -123l-103 113q-31 -21 -57 -31q-73 -30 -148 -30q-83 0 -149 30q-32 11 -55 31l-103 -113z" />
    <glyph glyph-name="yen" unicode="&#xa5;" horiz-adv-x="1372" 
d="M186 195l47 266h308l20 112h-307l47 267h102l-202 594h450l150 -492h41l321 492h492l-412 -594h103l-48 -267h-307l-20 -112h307l-47 -266h-307l-33 -195h-430l33 195h-308z" />
    <glyph glyph-name="brokenbar" unicode="&#xa6;" horiz-adv-x="890" 
d="M367 696v799h399v-799h-399zM367 -410v799h399v-799h-399z" />
    <glyph glyph-name="section" unicode="&#xa7;" horiz-adv-x="1341" 
d="M115 102h430v-10q0 -112 139 -112q58 0 91.5 26t33.5 64q0 34 -34 58t-122 40l-94 16q-379 65 -379 348q0 118 55.5 207t139.5 142q-36 37 -53 75t-17 109q0 75 35.5 143.5t102 124t174.5 88.5t241 33q252 0 402.5 -112.5t150.5 -297.5v-30h-430v10q0 47 -34 74.5
t-89 27.5q-64 0 -95.5 -26.5t-31.5 -65.5q0 -28 50.5 -47.5t152.5 -38.5l55 -10q181 -35 276 -121.5t95 -210.5q0 -126 -56 -217t-145 -143q36 -29 58 -89.5t22 -117.5q0 -161 -148.5 -274t-406.5 -113q-145 0 -256.5 33.5t-178.5 92.5t-100.5 133t-33.5 161v30zM688 492
l189 -31q57 34 57 92q0 31 -22.5 53t-65.5 29l-189 31q-57 -33 -57 -95q0 -30 22.5 -51t65.5 -28z" />
    <glyph glyph-name="dieresis" unicode="&#xa8;" horiz-adv-x="880" 
d="M715 1219l55 307h317l-55 -307h-317zM274 1219l56 307h317l-55 -307h-318z" />
    <glyph glyph-name="copyright" unicode="&#xa9;" horiz-adv-x="1658" 
d="M195 717q0 207 99 376t272.5 265t385.5 96q159 0 299.5 -56.5t241 -154t159 -234.5t58.5 -292t-58.5 -292t-159 -234.5t-241 -154t-299.5 -56.5q-212 0 -385.5 96t-272.5 265t-99 376zM451 717q0 -212 145.5 -352t355.5 -140t356 140t146 352t-146 351.5t-356 139.5
t-355.5 -139.5t-145.5 -351.5zM1075 655h256q-17 -140 -119 -228.5t-249 -88.5q-161 0 -270 109t-109 270t109 270t270 109q146 0 248 -87.5t120 -220.5h-256q-8 34 -38 58t-74 24q-58 0 -96 -39.5t-38 -113.5t38.5 -114t95.5 -40q45 0 74.5 26t37.5 66z" />
    <glyph glyph-name="ordfeminine" unicode="&#xaa;" horiz-adv-x="788" 
d="M618 748l-2 51h-10q-18 -18 -41 -31q-52 -31 -108 -31q-109 0 -174.5 54t-65.5 141q0 104 73 169.5t208 65.5h174l4 17q2 14 2 22q0 29 -18.5 46.5t-49.5 17.5q-35 0 -52.5 -12.5t-31.5 -38.5h-235q25 119 104.5 177t225.5 58q140 0 220.5 -70t80.5 -172q0 -17 -4 -49
l-74 -415h-226zM647 1024l2 10h-110q-38 0 -57 -21t-19 -50q0 -52 72 -52q88 0 112 113z" />
    <glyph glyph-name="guillemotleft" unicode="&#xab;" horiz-adv-x="1372" 
d="M375 102l-232 430l383 431h416l-410 -461l216 -400h-373zM948 102l-231 430l383 431h416l-410 -461l215 -400h-373z" />
    <glyph glyph-name="logicalnot" unicode="&#xac;" horiz-adv-x="1146" 
d="M236 492v368h901v-614h-379v246h-522z" />
    <glyph glyph-name="uni00AD" unicode="&#xad;" horiz-adv-x="921" 
d="M162 399l65 369h738l-66 -369h-737z" />
    <glyph glyph-name="registered" unicode="&#xae;" horiz-adv-x="1658" 
d="M686 369v706h328q116 0 186 -68t70 -178q0 -116 -78 -182q-36 -28 -76 -43l164 -235h-246l-133 215v-215h-215zM901 748h72q38 0 60 20t22 51t-22.5 51.5t-59.5 20.5h-72v-143zM451 717q0 -212 145.5 -352t355.5 -140t356 140t146 352t-146 351.5t-356 139.5
t-355.5 -139.5t-145.5 -351.5zM195 717q0 207 99 376t272.5 265t385.5 96q159 0 299.5 -56.5t241 -154t159 -234.5t58.5 -292t-58.5 -292t-159 -234.5t-241 -154t-299.5 -56.5q-212 0 -385.5 96t-272.5 265t-99 376z" />
    <glyph glyph-name="overscore" unicode="&#xaf;" horiz-adv-x="860" 
d="M281 1249l47 267h737l-47 -267h-737z" />
    <glyph glyph-name="degree" unicode="&#xb0;" horiz-adv-x="819" 
d="M264 1147q0 129 91 218t216 89t216.5 -89t91.5 -218t-91.5 -218t-216.5 -89t-216 89t-91 218zM571 1055q38 0 65.5 27t27.5 65t-27.5 65t-65.5 27t-65 -27t-27 -65t27 -65t65 -27z" />
    <glyph glyph-name="plusminus" unicode="&#xb1;" horiz-adv-x="1136" 
d="M215 0v369h973v-369h-973zM512 451v307h-297v368h297v308h379v-308h297v-368h-297v-307h-379z" />
    <glyph glyph-name="uni00B2" unicode="&#xb2;" horiz-adv-x="675" 
d="M229 901l31 174l322 256q33 27 49 45t16 37q0 51 -59 51q-30 0 -53.5 -20.5t-24.5 -50.5h-205q18 119 93 187.5t196 68.5q123 0 192.5 -57.5t69.5 -157.5q0 -53 -21.5 -99t-49 -74t-72.5 -63l-131 -102l-2 -11h225l-33 -184h-543z" />
    <glyph glyph-name="uni00B3" unicode="&#xb3;" horiz-adv-x="675" 
d="M238 1147h204v-10q0 -27 18.5 -44.5t47.5 -17.5q36 0 57 18t21 54q0 51 -78 51h-55l28 164h78q27 0 45.5 13.5t18.5 43.5q0 45 -58 45q-55 0 -65 -51h-205q14 103 90 169.5t195 66.5q115 0 184.5 -58.5t69.5 -146.5q0 -77 -50 -127q-25 -25 -49 -33l-2 -10q16 -10 29 -29
q29 -48 29 -98q0 -109 -82 -182.5t-211 -73.5q-125 0 -193.5 63t-68.5 160q0 17 2 33z" />
    <glyph glyph-name="acute" unicode="&#xb4;" horiz-adv-x="706" 
d="M274 1208l258 308h379l-309 -308h-328z" />
    <glyph glyph-name="uni00B5" unicode="&#xb5;" horiz-adv-x="1249" 
d="M18 -410l265 1495h399l-98 -561q-4 -28 -4 -37q0 -51 31.5 -84.5t84.5 -33.5q59 0 99 37t51 94l102 585h400l-191 -1085h-358l-8 72h-11q-26 -40 -76.5 -66t-109.5 -26q-48 0 -78 10q-13 3 -24 10l-74 -410h-400z" />
    <glyph glyph-name="paragraph" unicode="&#xb6;" horiz-adv-x="1361" 
d="M592 -205v778q-178 0 -294 120t-116 311t116 310.5t294 119.5h788v-1639h-327v1311h-123v-1311h-338z" />
    <glyph glyph-name="middot" unicode="&#xb7;" horiz-adv-x="593" 
d="M139 328l76 430h430l-76 -430h-430z" />
    <glyph glyph-name="cedilla" unicode="&#xb8;" horiz-adv-x="563" 
d="M-29 -522l35 215h107q80 0 80 71q0 52 -80 52h-54l17 92l49 82q65 -10 127 -10q61 0 139 10l-49 -82q47 -25 78 -70.5t31 -103.5q0 -116 -82.5 -186t-214.5 -70h-183z" />
    <glyph glyph-name="uni00B9" unicode="&#xb9;" horiz-adv-x="563" 
d="M373 901l80 451h-154l35 194h102q51 0 60 51l8 41h205l-131 -737h-205z" />
    <glyph glyph-name="ordmasculine" unicode="&#xba;" horiz-adv-x="860" 
d="M244 1040q0 116 58 212.5t151 149t198 52.5q147 0 241.5 -92t94.5 -232q0 -116 -58 -212t-151 -148.5t-198 -52.5q-148 0 -242 90.5t-94 232.5zM602 963q51 0 90 40t39 101q0 46 -29 75t-73 29q-51 0 -90 -40t-39 -101q0 -46 29 -75t73 -29z" />
    <glyph glyph-name="guillemotright" unicode="&#xbb;" horiz-adv-x="1372" 
d="M57 102l410 461l-215 400h373l231 -431l-383 -430h-416zM631 102l409 461l-215 400h373l232 -431l-383 -430h-416z" />
    <glyph glyph-name="onequarter" unicode="&#xbc;" horiz-adv-x="1492" 
d="M174 0l1143 1434h246l-1143 -1434h-246zM358 696l80 451h-153l34 194h103q50 0 59 52l8 41h205l-131 -738h-205zM850 133l29 164l333 440h287l-76 -430h72l-31 -174h-71l-25 -133h-205l25 133h-338zM1106 307h113l30 174h-20l-123 -164v-10z" />
    <glyph glyph-name="onehalf" unicode="&#xbd;" horiz-adv-x="1525" 
d="M174 0l1143 1434h246l-1143 -1434h-246zM358 696l80 451h-153l34 194h103q50 0 59 52l8 41h205l-131 -738h-205zM909 0l31 174l322 256q33 27 49 45t16 37q0 51 -59 51q-30 0 -53.5 -20.5t-24.5 -50.5h-205q18 119 93 187.5t196 68.5q123 0 192.5 -58t69.5 -158
q0 -53 -21.5 -98.5t-49 -73.5t-72.5 -63l-131 -102l-2 -11h225l-33 -184h-543z" />
    <glyph glyph-name="threequarters" unicode="&#xbe;" horiz-adv-x="1544" 
d="M225 0l1143 1434h246l-1143 -1434h-246zM203 942h205v-10q0 -27 18 -44.5t47 -17.5q36 0 57 18t21 54q0 51 -78 51h-55l28 164h78q27 0 45.5 13.5t18.5 43.5q0 46 -58 46q-55 0 -65 -52h-205q14 103 90 169.5t195 66.5q115 0 184.5 -58.5t69.5 -146.5q0 -78 -49 -127
q-24 -24 -50 -33l-2 -10q16 -10 29 -29q29 -48 29 -98q0 -109 -82 -182.5t-211 -73.5q-125 0 -193.5 63t-68.5 160q0 17 2 33zM901 133l29 164l334 440h286l-75 -430h71l-30 -174h-72l-25 -133h-205l25 133h-338zM1157 307h113l30 174h-20l-123 -164v-10z" />
    <glyph glyph-name="questiondown" unicode="&#xbf;" horiz-adv-x="1126" 
d="M487 676l72 409h430l-71 -409h-431zM682 92h430q-33 -214 -176.5 -337.5t-376.5 -123.5q-231 0 -370.5 104t-139.5 255q0 116 74.5 203t189.5 135q73 31 106 62.5t44 90.5l10 51h410l-15 -71q-23 -122 -84 -187t-172 -110q-57 -24 -77.5 -42.5t-20.5 -49.5
q0 -25 20 -43.5t56 -18.5q32 0 59 22.5t33 59.5z" />
    <glyph glyph-name="Agrave" unicode="&#xc0;" horiz-adv-x="1474" 
d="M-10 0l712 1434h594l209 -1434h-440l-25 215h-471l-98 -215h-481zM737 584h267l-46 389h-40zM827 1577l-202 307h379l151 -307h-328z" />
    <glyph glyph-name="Aacute" unicode="&#xc1;" horiz-adv-x="1474" 
d="M-10 0l712 1434h594l209 -1434h-440l-25 215h-471l-98 -215h-481zM737 584h267l-46 389h-40zM860 1577l258 307h379l-309 -307h-328z" />
    <glyph glyph-name="Acircumflex" unicode="&#xc2;" horiz-adv-x="1474" 
d="M-10 0l712 1434h594l209 -1434h-440l-25 215h-471l-98 -215h-481zM737 584h267l-46 389h-40zM573 1577l310 307h327l203 -307h-317l-66 102l-98 -102h-359z" />
    <glyph glyph-name="Atilde" unicode="&#xc3;" horiz-adv-x="1474" 
d="M-10 0l712 1434h594l209 -1434h-440l-25 215h-471l-98 -215h-481zM737 584h267l-46 389h-40zM879 1577h-236q14 85 42.5 147t67 95.5t80 49t89.5 15.5q49 0 87 -15t65.5 -30.5t51.5 -15.5q25 0 45.5 16t26.5 45h236q-56 -307 -279 -307q-49 0 -87.5 15.5t-66 30.5
t-51.5 15q-25 0 -46 -16t-25 -45z" />
    <glyph glyph-name="Adieresis" unicode="&#xc4;" horiz-adv-x="1474" 
d="M-10 0l712 1434h594l209 -1434h-440l-25 215h-471l-98 -215h-481zM737 584h267l-46 389h-40zM1075 1577l55 307h318l-55 -307h-318zM635 1577l55 307h318l-56 -307h-317z" />
    <glyph glyph-name="Aring" unicode="&#xc5;" horiz-adv-x="1474" 
d="M-10 0l712 1434h594l209 -1434h-440l-25 215h-471l-98 -215h-481zM737 584h267l-46 389h-40zM772 1729q0 107 82.5 182.5t187.5 75.5q98 0 163 -60.5t65 -152.5q0 -107 -83 -182.5t-188 -75.5q-98 0 -162.5 60.5t-64.5 152.5zM946 1743q0 -29 19.5 -46.5t50.5 -17.5
q32 0 56 23t24 57q0 29 -19.5 46.5t-50.5 17.5q-32 0 -56 -23t-24 -57z" />
    <glyph glyph-name="AE" unicode="&#xc6;" horiz-adv-x="2027" 
d="M-61 0l876 1434h1383l-70 -390h-594l-25 -143h553l-65 -369h-553l-25 -143h594l-67 -389h-1024l47 276h-373l-166 -276h-491zM813 635h219l72 409h-41z" />
    <glyph glyph-name="Ccedilla" unicode="&#xc7;" horiz-adv-x="1515" 
d="M502 -522l35 215h106q80 0 80 71q0 52 -80 52h-53l16 92l53 90q-218 50 -347.5 213.5t-129.5 402.5q0 144 43 276.5t119 233.5t175 176t215.5 114.5t236.5 39.5q127 0 237.5 -40.5t193.5 -116t132 -190.5t53 -257h-426q-12 81 -73 132.5t-156 51.5q-130 0 -225 -107
t-95 -270q0 -120 70.5 -189t179.5 -69q83 0 153.5 52t108.5 143h432q-75 -260 -249 -421.5t-387 -186.5l-48 -78q47 -25 78 -70.5t31 -103.5q0 -116 -82.5 -186t-214.5 -70h-182z" />
    <glyph glyph-name="Egrave" unicode="&#xc8;" horiz-adv-x="1218" 
d="M113 0l252 1434h1024l-70 -390h-594l-25 -143h553l-65 -369h-553l-25 -143h594l-67 -389h-1024zM737 1577l-202 307h378l152 -307h-328z" />
    <glyph glyph-name="Eacute" unicode="&#xc9;" horiz-adv-x="1218" 
d="M113 0l252 1434h1024l-70 -390h-594l-25 -143h553l-65 -369h-553l-25 -143h594l-67 -389h-1024zM727 1577l258 307h379l-309 -307h-328z" />
    <glyph glyph-name="Ecircumflex" unicode="&#xca;" horiz-adv-x="1218" 
d="M113 0l252 1434h1024l-70 -390h-594l-25 -143h553l-65 -369h-553l-25 -143h594l-67 -389h-1024zM471 1577l309 307h328l203 -307h-318l-65 102l-99 -102h-358z" />
    <glyph glyph-name="Edieresis" unicode="&#xcb;" horiz-adv-x="1218" 
d="M113 0l252 1434h1024l-70 -390h-594l-25 -143h553l-65 -369h-553l-25 -143h594l-67 -389h-1024zM952 1577l56 307h317l-55 -307h-318zM512 1577l55 307h318l-56 -307h-317z" />
    <glyph glyph-name="Igrave" unicode="&#xcc;" horiz-adv-x="655" 
d="M113 0l252 1434h430l-252 -1434h-430zM422 1577l-203 307h379l152 -307h-328z" />
    <glyph glyph-name="Iacute" unicode="&#xcd;" horiz-adv-x="655" 
d="M113 0l252 1434h430l-252 -1434h-430zM440 1577l258 307h379l-309 -307h-328z" />
    <glyph glyph-name="Icircumflex" unicode="&#xce;" horiz-adv-x="655" 
d="M113 0l252 1434h430l-252 -1434h-430zM150 1577l309 307h327l203 -307h-317l-66 102l-98 -102h-358z" />
    <glyph glyph-name="Idieresis" unicode="&#xcf;" horiz-adv-x="655" 
d="M113 0l252 1434h430l-252 -1434h-430zM666 1577l55 307h317l-55 -307h-317zM225 1577l56 307h317l-55 -307h-318z" />
    <glyph glyph-name="Eth" unicode="&#xd0;" horiz-adv-x="1495" 
d="M164 0l96 553h-143l57 328h143l99 553h526q173 0 315.5 -79t226 -223.5t83.5 -326.5q0 -170 -64.5 -321t-173.5 -256.5t-255 -166.5t-306 -61h-604zM668 420h151q124 0 221 96t97 240q0 116 -68.5 187t-177.5 71h-119l-24 -133h204l-57 -328h-205z" />
    <glyph glyph-name="Ntilde" unicode="&#xd1;" horiz-adv-x="1495" 
d="M113 0l252 1434h481l201 -666h40l117 666h430l-252 -1434h-481l-203 666h-41l-114 -666h-430zM881 1577h-236q14 85 42.5 147t67 95.5t80 49t89.5 15.5q49 0 87 -15t65.5 -30.5t51.5 -15.5q25 0 45.5 16t26.5 45h236q-56 -307 -279 -307q-49 0 -87.5 15.5t-66 30.5
t-51.5 15q-25 0 -46 -16t-25 -45z" />
    <glyph glyph-name="Ograve" unicode="&#xd2;" horiz-adv-x="1536" 
d="M182 614q0 178 66 336.5t175 267.5t252 172.5t296 63.5q187 0 332.5 -81.5t225 -226t79.5 -327.5q0 -178 -66 -336.5t-175 -267.5t-252 -172t-296 -63q-140 0 -259 47.5t-202 131t-129.5 201t-46.5 254.5zM860 399q125 0 221.5 106t96.5 271q0 121 -68.5 189.5
t-179.5 68.5q-126 0 -222 -106t-96 -271q0 -121 68.5 -189.5t179.5 -68.5zM809 1577l-203 307h379l152 -307h-328z" />
    <glyph glyph-name="Oacute" unicode="&#xd3;" horiz-adv-x="1536" 
d="M182 614q0 178 66 336.5t175 267.5t252 172.5t296 63.5q187 0 332.5 -81.5t225 -226t79.5 -327.5q0 -178 -66 -336.5t-175 -267.5t-252 -172t-296 -63q-140 0 -259 47.5t-202 131t-129.5 201t-46.5 254.5zM860 399q125 0 221.5 106t96.5 271q0 121 -68.5 189.5
t-179.5 68.5q-126 0 -222 -106t-96 -271q0 -121 68.5 -189.5t179.5 -68.5zM829 1577l258 307h379l-309 -307h-328z" />
    <glyph glyph-name="Ocircumflex" unicode="&#xd4;" horiz-adv-x="1536" 
d="M182 614q0 178 66 336.5t175 267.5t252 172.5t296 63.5q187 0 332.5 -81.5t225 -226t79.5 -327.5q0 -178 -66 -336.5t-175 -267.5t-252 -172t-296 -63q-140 0 -259 47.5t-202 131t-129.5 201t-46.5 254.5zM860 399q125 0 221.5 106t96.5 271q0 121 -68.5 189.5
t-179.5 68.5q-126 0 -222 -106t-96 -271q0 -121 68.5 -189.5t179.5 -68.5zM584 1577l309 307h328l202 -307h-317l-66 102l-98 -102h-358z" />
    <glyph glyph-name="Otilde" unicode="&#xd5;" horiz-adv-x="1536" 
d="M182 614q0 178 66 336.5t175 267.5t252 172.5t296 63.5q187 0 332.5 -81.5t225 -226t79.5 -327.5q0 -178 -66 -336.5t-175 -267.5t-252 -172t-296 -63q-140 0 -259 47.5t-202 131t-129.5 201t-46.5 254.5zM860 399q125 0 221.5 106t96.5 271q0 121 -68.5 189.5
t-179.5 68.5q-126 0 -222 -106t-96 -271q0 -121 68.5 -189.5t179.5 -68.5zM879 1567h-236q14 85 42.5 147t67 95.5t80 49t89.5 15.5q49 0 87 -15.5t65.5 -31t51.5 -15.5q25 0 45.5 16.5t26.5 45.5h236q-56 -307 -279 -307q-49 0 -87.5 15.5t-66 30.5t-51.5 15q-25 0 -46 -16
t-25 -45z" />
    <glyph glyph-name="Odieresis" unicode="&#xd6;" horiz-adv-x="1536" 
d="M182 614q0 178 66 336.5t175 267.5t252 172.5t296 63.5q187 0 332.5 -81.5t225 -226t79.5 -327.5q0 -178 -66 -336.5t-175 -267.5t-252 -172t-296 -63q-140 0 -259 47.5t-202 131t-129.5 201t-46.5 254.5zM860 399q125 0 221.5 106t96.5 271q0 121 -68.5 189.5
t-179.5 68.5q-126 0 -222 -106t-96 -271q0 -121 68.5 -189.5t179.5 -68.5zM1073 1577l55 307h318l-55 -307h-318zM633 1577l55 307h318l-56 -307h-317z" />
    <glyph glyph-name="multiply" unicode="&#xd7;" horiz-adv-x="1146" 
d="M184 369l226 225l-226 225l267 266l225 -225l225 225l266 -266l-225 -225l225 -225l-266 -267l-225 226l-225 -226z" />
    <glyph glyph-name="Oslash" unicode="&#xd8;" horiz-adv-x="1556" 
d="M608 596l320 438q-133 0 -229.5 -107t-96.5 -270q0 -33 2 -43zM1202 838l-319 -439q133 0 229 107t96 270q0 15 -4 43q-2 6 -2 19zM135 -72l191 267q-144 178 -144 419q0 179 66 337t176 267t255.5 172.5t301.5 63.5q127 0 225 -33l60 84h409l-190 -266
q143 -177 143 -420q0 -178 -66.5 -336.5t-177 -267.5t-255.5 -172t-300 -63q-130 0 -225 32l-59 -84h-410z" />
    <glyph glyph-name="Ugrave" unicode="&#xd9;" horiz-adv-x="1454" 
d="M219 672l135 762h430l-143 -805q-6 -27 -6 -54q0 -80 46.5 -128t125.5 -48q81 0 140.5 51.5t76.5 145.5l150 838h430l-154 -871q-49 -272 -229.5 -427.5t-436.5 -155.5q-271 0 -426 145.5t-155 390.5q0 68 16 156zM815 1577l-203 307h379l152 -307h-328z" />
    <glyph glyph-name="Uacute" unicode="&#xda;" horiz-adv-x="1454" 
d="M219 672l135 762h430l-143 -805q-6 -27 -6 -54q0 -80 46.5 -128t125.5 -48q81 0 140.5 51.5t76.5 145.5l150 838h430l-154 -871q-49 -272 -229.5 -427.5t-436.5 -155.5q-271 0 -426 145.5t-155 390.5q0 68 16 156zM819 1577l258 307h379l-309 -307h-328z" />
    <glyph glyph-name="Ucircumflex" unicode="&#xdb;" horiz-adv-x="1454" 
d="M219 672l135 762h430l-143 -805q-6 -27 -6 -54q0 -80 46.5 -128t125.5 -48q81 0 140.5 51.5t76.5 145.5l150 838h430l-154 -871q-49 -272 -229.5 -427.5t-436.5 -155.5q-271 0 -426 145.5t-155 390.5q0 68 16 156zM553 1577l309 307h328l203 -307h-318l-65 102l-99 -102
h-358z" />
    <glyph glyph-name="Udieresis" unicode="&#xdc;" horiz-adv-x="1454" 
d="M219 672l135 762h430l-143 -805q-6 -27 -6 -54q0 -80 46.5 -128t125.5 -48q81 0 140.5 51.5t76.5 145.5l150 838h430l-154 -871q-49 -272 -229.5 -427.5t-436.5 -155.5q-271 0 -426 145.5t-155 390.5q0 68 16 156zM1053 1577l55 307h317l-55 -307h-317zM612 1577l56 307
h317l-55 -307h-318z" />
    <glyph glyph-name="Yacute" unicode="&#xdd;" horiz-adv-x="1372" 
d="M461 0l76 430l-336 1004h450l150 -492h41l321 492h492l-688 -1004l-76 -430h-430zM737 1577l258 307h379l-309 -307h-328z" />
    <glyph glyph-name="Thorn" unicode="&#xde;" horiz-adv-x="1505" 
d="M649 614h357q55 0 87.5 31t32.5 84q0 40 -27 65t-85 25h-328zM113 0l252 1434h430l-39 -215h340q97 0 180 -27t146 -79t98.5 -133t35.5 -183q0 -130 -43 -240t-117.5 -184.5t-175.5 -116t-216 -41.5h-424l-37 -215h-430z" />
    <glyph glyph-name="germandbls" unicode="&#xdf;" horiz-adv-x="1280" 
d="M92 0l180 1026q37 212 186 330.5t392 118.5q237 0 382.5 -114.5t145.5 -275.5q0 -168 -102 -278q-51 -54 -100 -78l-2 -10q35 -21 63 -60q63 -83 63 -198q0 -212 -128.5 -336.5t-331.5 -124.5h-205l61 358h62q50 0 81 30.5t31 88.5q0 38 -23 62t-63 24h-51l62 348h45
q47 0 77.5 32.5t30.5 80.5q0 46 -31.5 69t-87.5 23q-53 0 -88 -31.5t-43 -80.5l-176 -1004h-430z" />
    <glyph glyph-name="agrave" unicode="&#xe0;" horiz-adv-x="1177" 
d="M741 0l-8 72h-10q-20 -26 -55 -47q-76 -45 -193 -45q-167 0 -270 82.5t-103 213.5q0 176 120 277.5t315 101.5h278l2 9q4 28 4 32q0 43 -30.5 67.5t-79.5 24.5q-76 0 -111 -61h-379q38 175 173 277t347 102q214 0 347 -109.5t133 -279.5q0 -45 -9 -86l-112 -631h-359z
M772 408l2 12h-166q-47 0 -71.5 -20t-24.5 -56q0 -28 27.5 -48t78.5 -20q131 0 154 132zM633 1208l-203 308h379l152 -308h-328z" />
    <glyph glyph-name="aacute" unicode="&#xe1;" horiz-adv-x="1177" 
d="M741 0l-8 72h-10q-20 -26 -55 -47q-76 -45 -193 -45q-167 0 -270 82.5t-103 213.5q0 176 120 277.5t315 101.5h278l2 9q4 28 4 32q0 43 -30.5 67.5t-79.5 24.5q-76 0 -111 -61h-379q38 175 173 277t347 102q214 0 347 -109.5t133 -279.5q0 -45 -9 -86l-112 -631h-359z
M772 408l2 12h-166q-47 0 -71.5 -20t-24.5 -56q0 -28 27.5 -48t78.5 -20q131 0 154 132zM635 1208l258 308h379l-309 -308h-328z" />
    <glyph glyph-name="acircumflex" unicode="&#xe2;" horiz-adv-x="1177" 
d="M741 0l-8 72h-10q-20 -26 -55 -47q-76 -45 -193 -45q-167 0 -270 82.5t-103 213.5q0 176 120 277.5t315 101.5h278l2 9q4 28 4 32q0 43 -30.5 67.5t-79.5 24.5q-76 0 -111 -61h-379q38 175 173 277t347 102q214 0 347 -109.5t133 -279.5q0 -45 -9 -86l-112 -631h-359z
M772 408l2 12h-166q-47 0 -71.5 -20t-24.5 -56q0 -28 27.5 -48t78.5 -20q131 0 154 132zM397 1208l310 308h327l203 -308h-317l-66 103l-98 -103h-359z" />
    <glyph glyph-name="atilde" unicode="&#xe3;" horiz-adv-x="1177" 
d="M741 0l-8 72h-10q-20 -26 -55 -47q-76 -45 -193 -45q-167 0 -270 82.5t-103 213.5q0 176 120 277.5t315 101.5h278l2 9q4 28 4 32q0 43 -30.5 67.5t-79.5 24.5q-76 0 -111 -61h-379q38 175 173 277t347 102q214 0 347 -109.5t133 -279.5q0 -45 -9 -86l-112 -631h-359z
M772 408l2 12h-166q-47 0 -71.5 -20t-24.5 -56q0 -28 27.5 -48t78.5 -20q131 0 154 132zM684 1208h-235q27 165 102 236.5t176 71.5q49 0 87.5 -15.5t66 -31t51.5 -15.5q25 0 45.5 16.5t26.5 45.5h235q-56 -308 -278 -308q-49 0 -87.5 15.5t-66 31t-51.5 15.5
q-25 0 -46.5 -16.5t-25.5 -45.5z" />
    <glyph glyph-name="adieresis" unicode="&#xe4;" horiz-adv-x="1177" 
d="M741 0l-8 72h-10q-20 -26 -55 -47q-76 -45 -193 -45q-167 0 -270 82.5t-103 213.5q0 176 120 277.5t315 101.5h278l2 9q4 28 4 32q0 43 -30.5 67.5t-79.5 24.5q-76 0 -111 -61h-379q38 175 173 277t347 102q214 0 347 -109.5t133 -279.5q0 -45 -9 -86l-112 -631h-359z
M772 408l2 12h-166q-47 0 -71.5 -20t-24.5 -56q0 -28 27.5 -48t78.5 -20q131 0 154 132zM877 1208l55 308h317l-55 -308h-317zM436 1208l56 308h317l-55 -308h-318z" />
    <glyph glyph-name="aring" unicode="&#xe5;" horiz-adv-x="1177" 
d="M741 0l-8 72h-10q-20 -26 -55 -47q-76 -45 -193 -45q-167 0 -270 82.5t-103 213.5q0 176 120 277.5t315 101.5h278l2 9q4 28 4 32q0 43 -30.5 67.5t-79.5 24.5q-76 0 -111 -61h-379q38 175 173 277t347 102q214 0 347 -109.5t133 -279.5q0 -45 -9 -86l-112 -631h-359z
M772 408l2 12h-166q-47 0 -71.5 -20t-24.5 -56q0 -28 27.5 -48t78.5 -20q131 0 154 132zM578 1360q0 107 82.5 182.5t187.5 75.5q98 0 162.5 -60.5t64.5 -152.5q0 -107 -82.5 -182.5t-187.5 -75.5q-98 0 -162.5 60.5t-64.5 152.5zM752 1374q0 -29 19 -46t50 -17q32 0 56 23
t24 57q0 29 -19.5 46t-50.5 17q-32 0 -55.5 -23t-23.5 -57z" />
    <glyph glyph-name="ae" unicode="&#xe6;" horiz-adv-x="1863" 
d="M537 655h270l2 13q2 16 2 26q0 43 -28 68.5t-78 25.5q-79 0 -113 -61h-379q38 169 173.5 274t344.5 105q107 0 195 -35.5t143 -97.5q39 39 90 65q122 68 258 68q221 0 355.5 -137t134.5 -353q0 -38 -13 -122l-12 -64h-717v-10q0 -64 42 -104t118 -40q66 0 107 25
q17 8 28 27h389q-72 -155 -217.5 -251.5t-337.5 -96.5q-177 0 -284 71q-53 30 -84 72q-45 -45 -95 -72q-115 -71 -294 -71q-200 0 -317.5 83.5t-117.5 223.5q0 162 119 265t316 103zM760 399l4 21h-166q-46 0 -71 -21t-25 -57q0 -29 26 -47.5t80 -18.5q128 0 152 123z
M1202 635h336q0 75 -42.5 119.5t-104.5 44.5q-70 0 -120.5 -46t-68.5 -118z" />
    <glyph glyph-name="ccedilla" unicode="&#xe7;" horiz-adv-x="1249" 
d="M362 -522l35 215h107q80 0 80 71q0 52 -80 52h-53l16 92l53 88q-173 39 -276 172.5t-103 308.5q0 173 87.5 318.5t232 228t309.5 82.5q226 0 369 -125.5t155 -345.5h-407q-11 50 -46 76t-104 26q-76 0 -136 -62t-60 -165q0 -74 44 -118t111 -44q59 0 95 26t61 77h418
q-26 -85 -67 -158.5t-100.5 -137t-141.5 -106.5t-179 -59l-49 -82q47 -25 78 -70.5t31 -103.5q0 -116 -82.5 -186t-214.5 -70h-183z" />
    <glyph glyph-name="egrave" unicode="&#xe8;" horiz-adv-x="1239" 
d="M842 338h389q-74 -157 -220.5 -257.5t-346.5 -100.5q-230 0 -376.5 142.5t-146.5 354.5q0 173 87.5 318.5t232 228t309.5 82.5q227 0 369.5 -137.5t142.5 -352.5q0 -52 -12 -118q-7 -32 -10 -58h-742q5 -69 53.5 -111t126.5 -42q72 0 111 24q17 7 33 27zM555 645h358
q0 71 -43.5 117.5t-119.5 46.5q-66 0 -119.5 -41t-75.5 -123zM643 1208l-203 308h379l152 -308h-328z" />
    <glyph glyph-name="eacute" unicode="&#xe9;" horiz-adv-x="1239" 
d="M842 338h389q-74 -157 -220.5 -257.5t-346.5 -100.5q-230 0 -376.5 142.5t-146.5 354.5q0 173 87.5 318.5t232 228t309.5 82.5q227 0 369.5 -137.5t142.5 -352.5q0 -52 -12 -118q-7 -32 -10 -58h-742q5 -69 53.5 -111t126.5 -42q72 0 111 24q17 7 33 27zM555 645h358
q0 71 -43.5 117.5t-119.5 46.5q-66 0 -119.5 -41t-75.5 -123zM633 1208l258 308h379l-309 -308h-328z" />
    <glyph glyph-name="ecircumflex" unicode="&#xea;" horiz-adv-x="1239" 
d="M842 338h389q-74 -157 -220.5 -257.5t-346.5 -100.5q-230 0 -376.5 142.5t-146.5 354.5q0 173 87.5 318.5t232 228t309.5 82.5q227 0 369.5 -137.5t142.5 -352.5q0 -52 -12 -118q-7 -32 -10 -58h-742q5 -69 53.5 -111t126.5 -42q72 0 111 24q17 7 33 27zM555 645h358
q0 71 -43.5 117.5t-119.5 46.5q-66 0 -119.5 -41t-75.5 -123zM408 1208l309 308h327l203 -308h-317l-66 103l-98 -103h-358z" />
    <glyph glyph-name="edieresis" unicode="&#xeb;" horiz-adv-x="1239" 
d="M842 338h389q-74 -157 -220.5 -257.5t-346.5 -100.5q-230 0 -376.5 142.5t-146.5 354.5q0 173 87.5 318.5t232 228t309.5 82.5q227 0 369.5 -137.5t142.5 -352.5q0 -52 -12 -118q-7 -32 -10 -58h-742q5 -69 53.5 -111t126.5 -42q72 0 111 24q17 7 33 27zM555 645h358
q0 71 -43.5 117.5t-119.5 46.5q-66 0 -119.5 -41t-75.5 -123zM887 1208l55 308h318l-56 -308h-317zM446 1208l56 308h317l-55 -308h-318z" />
    <glyph glyph-name="igrave" unicode="&#xec;" horiz-adv-x="583" 
d="M92 0l191 1085h399l-190 -1085h-400zM326 1208l-203 308h379l151 -308h-327z" />
    <glyph glyph-name="iacute" unicode="&#xed;" horiz-adv-x="583" 
d="M92 0l191 1085h399l-190 -1085h-400zM346 1208l258 308h379l-309 -308h-328z" />
    <glyph glyph-name="icircumflex" unicode="&#xee;" horiz-adv-x="583" 
d="M92 0l191 1085h399l-190 -1085h-400zM61 1208l310 308h327l203 -308h-317l-66 103l-98 -103h-359z" />
    <glyph glyph-name="idieresis" unicode="&#xef;" horiz-adv-x="583" 
d="M92 0l191 1085h399l-190 -1085h-400zM561 1208l55 308h318l-55 -308h-318zM121 1208l55 308h318l-56 -308h-317z" />
    <glyph glyph-name="eth" unicode="&#xf0;" horiz-adv-x="1259" 
d="M557 993l-92 174l211 93q-82 71 -115 96q-21 19 -47 37l277 123q19 -9 53 -31q76 -57 110 -92l279 123l92 -175l-217 -96q54 -65 104 -160q105 -206 105 -409q0 -103 -24.5 -202t-77.5 -189t-129 -157.5t-186 -107.5t-241 -40q-226 0 -375 124.5t-149 305.5
q0 233 149 382.5t386 149.5q123 0 223 -53q30 -14 78 -51h10q-9 41 -27 92q-45 108 -118 186zM535 442q0 -63 44.5 -104t118.5 -41q79 0 134 52.5t55 129.5q0 63 -45 104.5t-119 41.5q-78 0 -133 -52.5t-55 -130.5z" />
    <glyph glyph-name="ntilde" unicode="&#xf1;" horiz-adv-x="1239" 
d="M92 0l191 1085h358l8 -71h10q20 22 60 45q84 47 188 47q176 0 275.5 -97t99.5 -259q0 -41 -12 -111l-113 -639h-399l98 561q4 28 4 37q0 51 -32 85t-85 34q-59 0 -98.5 -37t-50.5 -94l-102 -586h-400zM725 1208h-236q14 85 42.5 147t67 96t80 49.5t89.5 15.5
q49 0 87.5 -15.5t66 -31t51.5 -15.5q25 0 45 16.5t26 45.5h236q-56 -308 -279 -308q-49 0 -87 15.5t-65.5 31t-51.5 15.5q-25 0 -46.5 -16.5t-25.5 -45.5z" />
    <glyph glyph-name="ograve" unicode="&#xf2;" horiz-adv-x="1249" 
d="M141 477q0 173 87.5 318.5t232 228t309.5 82.5q230 0 376 -143t146 -355q0 -130 -51.5 -247.5t-137 -200.5t-200.5 -131.5t-239 -48.5q-230 0 -376.5 142.5t-146.5 354.5zM696 348q76 0 136.5 62t60.5 165q0 73 -44.5 117.5t-111.5 44.5q-76 0 -136 -62t-60 -165
q0 -74 44 -118t111 -44zM633 1208l-203 308h379l152 -308h-328z" />
    <glyph glyph-name="oacute" unicode="&#xf3;" horiz-adv-x="1249" 
d="M141 477q0 173 87.5 318.5t232 228t309.5 82.5q230 0 376 -143t146 -355q0 -130 -51.5 -247.5t-137 -200.5t-200.5 -131.5t-239 -48.5q-230 0 -376.5 142.5t-146.5 354.5zM696 348q76 0 136.5 62t60.5 165q0 73 -44.5 117.5t-111.5 44.5q-76 0 -136 -62t-60 -165
q0 -74 44 -118t111 -44zM633 1208l258 308h379l-309 -308h-328z" />
    <glyph glyph-name="ocircumflex" unicode="&#xf4;" horiz-adv-x="1249" 
d="M141 477q0 173 87.5 318.5t232 228t309.5 82.5q230 0 376 -143t146 -355q0 -130 -51.5 -247.5t-137 -200.5t-200.5 -131.5t-239 -48.5q-230 0 -376.5 142.5t-146.5 354.5zM696 348q76 0 136.5 62t60.5 165q0 73 -44.5 117.5t-111.5 44.5q-76 0 -136 -62t-60 -165
q0 -74 44 -118t111 -44zM406 1208l309 308h327l203 -308h-317l-66 103l-98 -103h-358z" />
    <glyph glyph-name="otilde" unicode="&#xf5;" horiz-adv-x="1249" 
d="M141 477q0 173 87.5 318.5t232 228t309.5 82.5q230 0 376 -143t146 -355q0 -130 -51.5 -247.5t-137 -200.5t-200.5 -131.5t-239 -48.5q-230 0 -376.5 142.5t-146.5 354.5zM696 348q76 0 136.5 62t60.5 165q0 73 -44.5 117.5t-111.5 44.5q-76 0 -136 -62t-60 -165
q0 -74 44 -118t111 -44zM674 1208h-236q14 85 42.5 147t67 96t80 49.5t89.5 15.5q49 0 87.5 -15.5t66 -31t51.5 -15.5q25 0 45 16.5t26 45.5h236q-56 -308 -279 -308q-49 0 -87.5 15.5t-66 31t-51.5 15.5q-25 0 -46 -16.5t-25 -45.5z" />
    <glyph glyph-name="odieresis" unicode="&#xf6;" horiz-adv-x="1249" 
d="M141 477q0 173 87.5 318.5t232 228t309.5 82.5q230 0 376 -143t146 -355q0 -130 -51.5 -247.5t-137 -200.5t-200.5 -131.5t-239 -48.5q-230 0 -376.5 142.5t-146.5 354.5zM696 348q76 0 136.5 62t60.5 165q0 73 -44.5 117.5t-111.5 44.5q-76 0 -136 -62t-60 -165
q0 -74 44 -118t111 -44zM887 1208l55 308h318l-56 -308h-317zM446 1208l56 308h317l-55 -308h-318z" />
    <glyph glyph-name="divide" unicode="&#xf7;" horiz-adv-x="1126" 
d="M502 1014q0 72 51 123t123 51t123 -51t51 -123t-51 -123t-123 -51t-123 51t-51 123zM502 174q0 72 51 123t123 51t123 -51t51 -123t-51 -123t-123 -51t-123 51t-51 123zM195 430v328h962v-328h-962z" />
    <glyph glyph-name="oslash" unicode="&#xf8;" horiz-adv-x="1249" 
d="M485 455l234 331q-99 -8 -169.5 -84t-70.5 -192q0 -31 6 -55zM117 -72l149 213q-125 137 -125 336q0 173 87.5 318.5t232 228t309.5 82.5q84 0 158 -21l49 72h338l-150 -213q125 -138 125 -336q0 -130 -51.5 -247.5t-137 -200.5t-200.5 -131.5t-239 -48.5q-88 0 -158 20
l-49 -72h-338zM946 631l-233 -332q98 5 168.5 83.5t70.5 192.5q0 32 -6 56z" />
    <glyph glyph-name="ugrave" unicode="&#xf9;" horiz-adv-x="1249" 
d="M170 446l113 639h399l-98 -561q-4 -28 -4 -37q0 -51 31.5 -84.5t84.5 -33.5q59 0 99 37t51 94l102 585h400l-191 -1085h-358l-8 72h-11q-19 -25 -59 -47q-80 -45 -189 -45q-176 0 -275 97t-99 259q0 40 12 110zM664 1208l-203 308h379l151 -308h-327z" />
    <glyph glyph-name="uacute" unicode="&#xfa;" horiz-adv-x="1249" 
d="M170 446l113 639h399l-98 -561q-4 -28 -4 -37q0 -51 31.5 -84.5t84.5 -33.5q59 0 99 37t51 94l102 585h400l-191 -1085h-358l-8 72h-11q-19 -25 -59 -47q-80 -45 -189 -45q-176 0 -275 97t-99 259q0 40 12 110zM674 1208l258 308h379l-310 -308h-327z" />
    <glyph glyph-name="ucircumflex" unicode="&#xfb;" horiz-adv-x="1249" 
d="M170 446l113 639h399l-98 -561q-4 -28 -4 -37q0 -51 31.5 -84.5t84.5 -33.5q59 0 99 37t51 94l102 585h400l-191 -1085h-358l-8 72h-11q-19 -25 -59 -47q-80 -45 -189 -45q-176 0 -275 97t-99 259q0 40 12 110zM408 1208l309 308h327l203 -308h-317l-66 103l-98 -103
h-358z" />
    <glyph glyph-name="udieresis" unicode="&#xfc;" horiz-adv-x="1249" 
d="M170 446l113 639h399l-98 -561q-4 -28 -4 -37q0 -51 31.5 -84.5t84.5 -33.5q59 0 99 37t51 94l102 585h400l-191 -1085h-358l-8 72h-11q-19 -25 -59 -47q-80 -45 -189 -45q-176 0 -275 97t-99 259q0 40 12 110zM897 1208l55 308h318l-56 -308h-317zM457 1208l55 308h317
l-55 -308h-317z" />
    <glyph glyph-name="yacute" unicode="&#xfd;" horiz-adv-x="1239" 
d="M49 -410l66 369h223q27 0 43 23q9 9 14 22l-225 1081h410l94 -573h41l264 573h451l-674 -1269q-61 -116 -135 -171t-191 -55h-381zM602 1208l258 308h379l-309 -308h-328z" />
    <glyph glyph-name="thorn" unicode="&#xfe;" horiz-adv-x="1300" 
d="M29 -410l325 1844h379l-74 -420h11q21 23 59 45q84 47 189 47q190 0 310 -134t120 -339q0 -147 -50.5 -273t-131.5 -207.5t-180.5 -127t-201.5 -45.5q-116 0 -196 43q-42 23 -66 45h-10l-84 -478h-399zM750 348q76 0 137 63.5t61 166.5q0 72 -44 115.5t-111 43.5
q-76 0 -137.5 -63t-61.5 -166q0 -72 44.5 -116t111.5 -44z" />
    <glyph glyph-name="ydieresis" unicode="&#xff;" horiz-adv-x="1239" 
d="M49 -410l66 369h223q27 0 43 23q9 9 14 22l-225 1081h410l94 -573h41l264 573h451l-674 -1269q-61 -116 -135 -171t-191 -55h-381zM856 1208l55 308h318l-55 -308h-318zM416 1208l55 308h317l-55 -308h-317z" />
    <glyph glyph-name="Amacron" unicode="&#x100;" horiz-adv-x="1474" 
d="M-10 0l712 1434h594l209 -1434h-440l-25 215h-471l-98 -215h-481zM737 584h267l-46 389h-40zM645 1608l47 266h738l-48 -266h-737z" />
    <glyph glyph-name="amacron" unicode="&#x101;" horiz-adv-x="1177" 
d="M741 0l-8 72h-10q-20 -26 -55 -47q-76 -45 -193 -45q-167 0 -270 82.5t-103 213.5q0 176 120 277.5t315 101.5h278l2 9q4 28 4 32q0 43 -30.5 67.5t-79.5 24.5q-76 0 -111 -61h-379q38 175 173 277t347 102q214 0 347 -109.5t133 -279.5q0 -45 -9 -86l-112 -631h-359z
M772 408l2 12h-166q-47 0 -71.5 -20t-24.5 -56q0 -28 27.5 -48t78.5 -20q131 0 154 132zM453 1239l47 266h737l-47 -266h-737z" />
    <glyph glyph-name="Abreve" unicode="&#x102;" horiz-adv-x="1474" 
d="M-10 0l712 1434h594l209 -1434h-440l-25 215h-471l-98 -215h-481zM737 584h267l-46 389h-40zM666 1894h278q8 -82 86 -82q71 0 98 82h279q-35 -153 -135.5 -235t-249.5 -82q-169 0 -262.5 84t-93.5 219v14z" />
    <glyph glyph-name="abreve" unicode="&#x103;" horiz-adv-x="1177" 
d="M741 0l-8 72h-10q-20 -26 -55 -47q-76 -45 -193 -45q-167 0 -270 82.5t-103 213.5q0 176 120 277.5t315 101.5h278l2 9q4 28 4 32q0 43 -30.5 67.5t-79.5 24.5q-76 0 -111 -61h-379q38 175 173 277t347 102q214 0 347 -109.5t133 -279.5q0 -45 -9 -86l-112 -631h-359z
M772 408l2 12h-166q-47 0 -71.5 -20t-24.5 -56q0 -28 27.5 -48t78.5 -20q131 0 154 132zM469 1526h279q8 -82 86 -82q71 0 98 82h278q-35 -153 -135.5 -235.5t-249.5 -82.5q-169 0 -262.5 84t-93.5 219v15z" />
    <glyph glyph-name="Aogonek" unicode="&#x104;" horiz-adv-x="1474" 
d="M-10 0l712 1434h594l209 -1434h-84q-153 -32 -153 -113q0 -29 24.5 -45t57.5 -16h41l-39 -215h-115q-143 0 -217 52.5t-74 141.5q0 84 60 148q27 30 59 47l-25 215h-471l-98 -215h-481zM737 584h267l-46 389h-40z" />
    <glyph glyph-name="aogonek" unicode="&#x105;" horiz-adv-x="1177" 
d="M1028 -389h-115q-143 0 -216.5 52.5t-73.5 141.5q0 85 59 148q27 30 59 47l-8 72h-10q-20 -26 -55 -47q-76 -45 -193 -45q-167 0 -270 82.5t-103 213.5q0 176 120 277.5t315 101.5h278l2 9q4 28 4 32q0 43 -30.5 67.5t-79.5 24.5q-76 0 -111 -61h-379q38 175 173 277
t347 102q214 0 347 -109.5t133 -279.5q0 -45 -9 -86l-112 -631h-2q-154 -32 -154 -113q0 -29 24.5 -45t57.5 -16h41zM772 408l2 12h-166q-47 0 -71.5 -20t-24.5 -56q0 -28 27.5 -48t78.5 -20q131 0 154 132z" />
    <glyph glyph-name="Cacute" unicode="&#x106;" horiz-adv-x="1515" 
d="M1124 594h432q-85 -288 -283 -451t-450 -163q-285 0 -463 178t-178 456q0 144 43 276.5t119 233.5t175 176t215.5 114.5t236.5 39.5q127 0 237.5 -40.5t193.5 -116t132 -190.5t53 -257h-426q-12 81 -73 132.5t-156 51.5q-130 0 -225 -107t-95 -270q0 -120 70.5 -189
t179.5 -69q83 0 153.5 52t108.5 143zM827 1577l258 307h379l-309 -307h-328z" />
    <glyph glyph-name="cacute" unicode="&#x107;" horiz-adv-x="1249" 
d="M852 451h418q-28 -96 -78 -178t-123 -149t-177 -105.5t-228 -38.5q-230 0 -376.5 142.5t-146.5 354.5q0 173 87.5 318.5t232 228t309.5 82.5q226 0 369 -125.5t155 -345.5h-407q-11 50 -46 76t-104 26q-76 0 -136 -62t-60 -165q0 -74 44 -118t111 -44q59 0 95 26t61 77z
M643 1208l258 308h379l-309 -308h-328z" />
    <glyph glyph-name="Ccircumflex" unicode="&#x108;" horiz-adv-x="1515" 
d="M1124 594h432q-85 -288 -283 -451t-450 -163q-285 0 -463 178t-178 456q0 144 43 276.5t119 233.5t175 176t215.5 114.5t236.5 39.5q127 0 237.5 -40.5t193.5 -116t132 -190.5t53 -257h-426q-12 81 -73 132.5t-156 51.5q-130 0 -225 -107t-95 -270q0 -120 70.5 -189
t179.5 -69q83 0 153.5 52t108.5 143zM584 1577l309 307h328l202 -307h-317l-66 102l-98 -102h-358z" />
    <glyph glyph-name="ccircumflex" unicode="&#x109;" horiz-adv-x="1249" 
d="M852 451h418q-28 -96 -78 -178t-123 -149t-177 -105.5t-228 -38.5q-230 0 -376.5 142.5t-146.5 354.5q0 173 87.5 318.5t232 228t309.5 82.5q226 0 369 -125.5t155 -345.5h-407q-11 50 -46 76t-104 26q-76 0 -136 -62t-60 -165q0 -74 44 -118t111 -44q59 0 95 26t61 77z
M387 1208l309 308h328l203 -308h-318l-65 103l-99 -103h-358z" />
    <glyph glyph-name="Cdotaccent" unicode="&#x10a;" horiz-adv-x="1515" 
d="M1124 594h432q-85 -288 -283 -451t-450 -163q-285 0 -463 178t-178 456q0 144 43 276.5t119 233.5t175 176t215.5 114.5t236.5 39.5q127 0 237.5 -40.5t193.5 -116t132 -190.5t53 -257h-426q-12 81 -73 132.5t-156 51.5q-130 0 -225 -107t-95 -270q0 -120 70.5 -189
t179.5 -69q83 0 153.5 52t108.5 143zM842 1577l55 307h317l-55 -307h-317z" />
    <glyph glyph-name="cdotaccent" unicode="&#x10b;" horiz-adv-x="1249" 
d="M852 451h418q-28 -96 -78 -178t-123 -149t-177 -105.5t-228 -38.5q-230 0 -376.5 142.5t-146.5 354.5q0 173 87.5 318.5t232 228t309.5 82.5q226 0 369 -125.5t155 -345.5h-407q-11 50 -46 76t-104 26q-76 0 -136 -62t-60 -165q0 -74 44 -118t111 -44q59 0 95 26t61 77z
M641 1208l55 308h318l-56 -308h-317z" />
    <glyph glyph-name="Ccaron" unicode="&#x10c;" horiz-adv-x="1515" 
d="M1124 594h432q-85 -288 -283 -451t-450 -163q-285 0 -463 178t-178 456q0 144 43 276.5t119 233.5t175 176t215.5 114.5t236.5 39.5q127 0 237.5 -40.5t193.5 -116t132 -190.5t53 -257h-426q-12 81 -73 132.5t-156 51.5q-130 0 -225 -107t-95 -270q0 -120 70.5 -189
t179.5 -69q83 0 153.5 52t108.5 143zM848 1577l-203 307h318l63 -102l100 102h359l-309 -307h-328z" />
    <glyph glyph-name="ccaron" unicode="&#x10d;" horiz-adv-x="1249" 
d="M852 451h418q-28 -96 -78 -178t-123 -149t-177 -105.5t-228 -38.5q-230 0 -376.5 142.5t-146.5 354.5q0 173 87.5 318.5t232 228t309.5 82.5q226 0 369 -125.5t155 -345.5h-407q-11 50 -46 76t-104 26q-76 0 -136 -62t-60 -165q0 -74 44 -118t111 -44q59 0 95 26t61 77z
M643 1208l-203 308h318l63 -103l101 103h358l-309 -308h-328z" />
    <glyph glyph-name="Dcaron" unicode="&#x10e;" horiz-adv-x="1443" 
d="M616 420h152q124 0 220.5 96t96.5 240q0 116 -68 187t-177 71h-119zM113 0l252 1434h526q173 0 315.5 -79t226 -223.5t83.5 -326.5q0 -170 -64.5 -321t-173.5 -256.5t-255 -166.5t-306 -61h-604zM786 1577l-202 307h317l64 -102l100 102h358l-309 -307h-328z" />
    <glyph glyph-name="dcaron" unicode="&#x10f;" horiz-adv-x="1607" 
d="M840 0l-9 72h-10q-19 -25 -59 -47q-80 -45 -189 -45q-190 0 -310 134t-120 339q0 147 50.5 273t131.5 207.5t180.5 127t201.5 45.5q112 0 196 -45q38 -21 66 -43h10l72 416h399l-252 -1434h-358zM698 348q76 0 137.5 63.5t61.5 166.5q0 72 -44.5 115.5t-111.5 43.5
q-76 0 -137 -63t-61 -166q0 -72 44 -116t111 -44zM1423 1065l158 369h358l-208 -369h-308z" />
    <glyph glyph-name="Dcroat" unicode="&#x110;" horiz-adv-x="1495" 
d="M164 0l96 553h-143l57 328h143l99 553h526q173 0 315.5 -79t226 -223.5t83.5 -326.5q0 -170 -64.5 -321t-173.5 -256.5t-255 -166.5t-306 -61h-604zM668 420h151q124 0 221 96t97 240q0 116 -68.5 187t-177.5 71h-119l-24 -133h204l-57 -328h-205z" />
    <glyph glyph-name="dslash" unicode="&#x111;" horiz-adv-x="1331" 
d="M844 0l-8 72h-11q-19 -25 -59 -47q-80 -45 -188 -45q-189 0 -317 115.5t-128 303.5q0 116 44 218t118 173t173.5 111.5t209.5 40.5q111 0 199 -43q35 -19 65 -43h10l33 178h-328l58 328h327l23 133h399l-22 -133h133l-57 -328h-134l-182 -1034h-358zM532 442
q0 -63 45 -104t119 -41q79 0 134 52.5t55 129.5q0 63 -45 104.5t-119 41.5q-79 0 -134 -53t-55 -130z" />
    <glyph glyph-name="Emacron" unicode="&#x112;" horiz-adv-x="1218" 
d="M113 0l252 1434h1024l-70 -390h-594l-25 -143h553l-65 -369h-553l-25 -143h594l-67 -389h-1024zM526 1608l47 266h738l-47 -266h-738z" />
    <glyph glyph-name="emacron" unicode="&#x113;" horiz-adv-x="1239" 
d="M842 338h389q-74 -157 -220.5 -257.5t-346.5 -100.5q-230 0 -376.5 142.5t-146.5 354.5q0 173 87.5 318.5t232 228t309.5 82.5q227 0 369.5 -137.5t142.5 -352.5q0 -52 -12 -118q-7 -32 -10 -58h-742q5 -69 53.5 -111t126.5 -42q72 0 111 24q17 7 33 27zM555 645h358
q0 71 -43.5 117.5t-119.5 46.5q-66 0 -119.5 -41t-75.5 -123zM463 1239l47 266h737l-47 -266h-737z" />
    <glyph glyph-name="Ebreve" unicode="&#x114;" horiz-adv-x="1218" 
d="M113 0l252 1434h1024l-70 -390h-594l-25 -143h553l-65 -369h-553l-25 -143h594l-67 -389h-1024zM549 1894h278q8 -82 86 -82q72 0 99 82h278q-35 -153 -135.5 -235t-249.5 -82q-169 0 -262.5 84t-93.5 219v14z" />
    <glyph glyph-name="ebreve" unicode="&#x115;" horiz-adv-x="1239" 
d="M842 338h389q-74 -157 -220.5 -257.5t-346.5 -100.5q-230 0 -376.5 142.5t-146.5 354.5q0 173 87.5 318.5t232 228t309.5 82.5q227 0 369.5 -137.5t142.5 -352.5q0 -52 -12 -118q-7 -32 -10 -58h-742q5 -69 53.5 -111t126.5 -42q72 0 111 24q17 7 33 27zM555 645h358
q0 71 -43.5 117.5t-119.5 46.5q-66 0 -119.5 -41t-75.5 -123zM469 1526h279q8 -82 86 -82q71 0 98 82h278q-35 -153 -135.5 -235.5t-249.5 -82.5q-169 0 -262.5 84t-93.5 219v15z" />
    <glyph glyph-name="Edotaccent" unicode="&#x116;" horiz-adv-x="1218" 
d="M113 0l252 1434h1024l-70 -390h-594l-25 -143h553l-65 -369h-553l-25 -143h594l-67 -389h-1024zM737 1577l56 307h317l-55 -307h-318z" />
    <glyph glyph-name="edotaccent" unicode="&#x117;" horiz-adv-x="1239" 
d="M842 338h389q-74 -157 -220.5 -257.5t-346.5 -100.5q-230 0 -376.5 142.5t-146.5 354.5q0 173 87.5 318.5t232 228t309.5 82.5q227 0 369.5 -137.5t142.5 -352.5q0 -52 -12 -118q-7 -32 -10 -58h-742q5 -69 53.5 -111t126.5 -42q72 0 111 24q17 7 33 27zM555 645h358
q0 71 -43.5 117.5t-119.5 46.5q-66 0 -119.5 -41t-75.5 -123zM641 1208l55 308h318l-56 -308h-317z" />
    <glyph glyph-name="Eogonek" unicode="&#x118;" horiz-adv-x="1218" 
d="M113 0l252 1434h1024l-70 -390h-594l-25 -143h553l-65 -369h-553l-25 -143h594l-67 -389q-154 -32 -154 -113q0 -29 24.5 -45t57.5 -16h41l-39 -215h-115q-143 0 -216.5 52.5t-73.5 141.5q0 43 15.5 81t40 62.5t37 34.5t23.5 17h-665z" />
    <glyph glyph-name="eogonek" unicode="&#x119;" horiz-adv-x="1239" 
d="M797 -389h-115q-143 0 -217 52.5t-74 141.5q0 20 3.5 39.5t10 35.5t13.5 30t17 25.5t18 20.5t18.5 17.5t16 12.5t12.5 9l8 5q-167 41 -267 173t-100 304q0 173 87.5 318.5t232 228t309.5 82.5q227 0 369.5 -137.5t142.5 -352.5q0 -52 -12 -118q-7 -32 -10 -58h-742
q5 -69 53.5 -111t126.5 -42q72 0 111 24q17 7 33 27h389q-123 -245 -369 -328q-74 -19 -113.5 -51t-35.5 -72q0 -29 24.5 -45t57.5 -16h41zM555 645h358q0 71 -43.5 117.5t-119.5 46.5q-66 0 -119.5 -41t-75.5 -123z" />
    <glyph glyph-name="Ecaron" unicode="&#x11a;" horiz-adv-x="1218" 
d="M113 0l252 1434h1024l-70 -390h-594l-25 -143h553l-65 -369h-553l-25 -143h594l-67 -389h-1024zM727 1577l-203 307h318l63 -102l101 102h358l-309 -307h-328z" />
    <glyph glyph-name="ecaron" unicode="&#x11b;" horiz-adv-x="1239" 
d="M842 338h389q-74 -157 -220.5 -257.5t-346.5 -100.5q-230 0 -376.5 142.5t-146.5 354.5q0 173 87.5 318.5t232 228t309.5 82.5q227 0 369.5 -137.5t142.5 -352.5q0 -52 -12 -118q-7 -32 -10 -58h-742q5 -69 53.5 -111t126.5 -42q72 0 111 24q17 7 33 27zM555 645h358
q0 71 -43.5 117.5t-119.5 46.5q-66 0 -119.5 -41t-75.5 -123zM643 1208l-203 308h318l63 -103l101 103h358l-309 -308h-328z" />
    <glyph glyph-name="Gcircumflex" unicode="&#x11c;" horiz-adv-x="1536" 
d="M1141 0v102h-11q-49 -53 -145 -87.5t-188 -34.5q-172 0 -312.5 81t-221.5 226.5t-81 326.5q0 144 43 276.5t119 233.5t175 176t215.5 114.5t236.5 39.5q252 0 417 -144.5t197 -408.5h-438q-61 133 -215 133q-130 0 -225 -107t-95 -270q0 -120 70.5 -189t179.5 -69
q63 0 110.5 17.5t68.5 35.5t49 50h-216l50 276h665l-137 -778h-311zM594 1577l309 307h328l203 -307h-318l-65 102l-99 -102h-358z" />
    <glyph glyph-name="gcircumflex" unicode="&#x11d;" horiz-adv-x="1249" 
d="M61 0h402q7 -35 43 -58.5t108 -23.5q131 0 154 143l16 93h-10q-18 -21 -47 -37q-64 -35 -154 -35q-114 0 -208.5 49t-153.5 148.5t-59 232.5q0 131 44.5 244t119 188.5t171 118.5t199.5 43q105 0 193 -51q32 -18 63 -49h10l37 79h359l-185 -1044q-81 -461 -569 -461
q-234 0 -383.5 109t-149.5 291v20zM551 567q0 -61 40 -99t99 -38q66 0 120 53t54 138q0 61 -40 99t-99 38q-66 0 -120 -53t-54 -138zM420 1208l309 308h328l203 -308h-318l-65 103l-99 -103h-358z" />
    <glyph glyph-name="Gbreve" unicode="&#x11e;" horiz-adv-x="1536" 
d="M1141 0v102h-11q-49 -53 -145 -87.5t-188 -34.5q-172 0 -312.5 81t-221.5 226.5t-81 326.5q0 144 43 276.5t119 233.5t175 176t215.5 114.5t236.5 39.5q252 0 417 -144.5t197 -408.5h-438q-61 133 -215 133q-130 0 -225 -107t-95 -270q0 -120 70.5 -189t179.5 -69
q63 0 110.5 17.5t68.5 35.5t49 50h-216l50 276h665l-137 -778h-311zM672 1894h278q8 -82 86 -82q72 0 99 82h278q-35 -153 -135.5 -235t-249.5 -82q-169 0 -262.5 84t-93.5 219v14z" />
    <glyph glyph-name="gbreve" unicode="&#x11f;" horiz-adv-x="1249" 
d="M61 0h402q7 -35 43 -58.5t108 -23.5q131 0 154 143l16 93h-10q-18 -21 -47 -37q-64 -35 -154 -35q-114 0 -208.5 49t-153.5 148.5t-59 232.5q0 131 44.5 244t119 188.5t171 118.5t199.5 43q105 0 193 -51q32 -18 63 -49h10l37 79h359l-185 -1044q-81 -461 -569 -461
q-234 0 -383.5 109t-149.5 291v20zM551 567q0 -61 40 -99t99 -38q66 0 120 53t54 138q0 61 -40 99t-99 38q-66 0 -120 -53t-54 -138zM481 1526h279q8 -82 86 -82q71 0 98 82h279q-35 -153 -135.5 -235.5t-249.5 -82.5q-169 0 -263 84t-94 219v15z" />
    <glyph glyph-name="Gdotaccent" unicode="&#x120;" horiz-adv-x="1536" 
d="M1141 0v102h-11q-49 -53 -145 -87.5t-188 -34.5q-172 0 -312.5 81t-221.5 226.5t-81 326.5q0 144 43 276.5t119 233.5t175 176t215.5 114.5t236.5 39.5q252 0 417 -144.5t197 -408.5h-438q-61 133 -215 133q-130 0 -225 -107t-95 -270q0 -120 70.5 -189t179.5 -69
q63 0 110.5 17.5t68.5 35.5t49 50h-216l50 276h665l-137 -778h-311zM858 1577l55 307h318l-55 -307h-318z" />
    <glyph glyph-name="gdotaccent" unicode="&#x121;" horiz-adv-x="1249" 
d="M61 0h402q7 -35 43 -58.5t108 -23.5q131 0 154 143l16 93h-10q-18 -21 -47 -37q-64 -35 -154 -35q-114 0 -208.5 49t-153.5 148.5t-59 232.5q0 131 44.5 244t119 188.5t171 118.5t199.5 43q105 0 193 -51q32 -18 63 -49h10l37 79h359l-185 -1044q-81 -461 -569 -461
q-234 0 -383.5 109t-149.5 291v20zM551 567q0 -61 40 -99t99 -38q66 0 120 53t54 138q0 61 -40 99t-99 38q-66 0 -120 -53t-54 -138zM674 1208l55 308h318l-56 -308h-317z" />
    <glyph glyph-name="Gcommaaccent" unicode="&#x122;" horiz-adv-x="1536" 
d="M1141 0v102h-11q-49 -53 -145 -87.5t-188 -34.5q-172 0 -312.5 81t-221.5 226.5t-81 326.5q0 144 43 276.5t119 233.5t175 176t215.5 114.5t236.5 39.5q252 0 417 -144.5t197 -408.5h-438q-61 133 -215 133q-130 0 -225 -107t-95 -270q0 -120 70.5 -189t179.5 -69
q63 0 110.5 17.5t68.5 35.5t49 50h-216l50 276h665l-137 -778h-311zM475 -502l154 369h358l-207 -369h-305z" />
    <glyph glyph-name="gcommaaccent" unicode="&#x123;" horiz-adv-x="1249" 
d="M645 1208l268 308h308l-217 -308h-359zM61 0h402q7 -35 43 -58.5t108 -23.5q131 0 154 143l16 93h-10q-18 -21 -47 -37q-64 -35 -154 -35q-114 0 -208.5 49t-153.5 148.5t-59 232.5q0 131 44.5 244t119 188.5t171 118.5t199.5 43q105 0 193 -51q32 -18 63 -49h10l37 79
h359l-185 -1044q-81 -461 -569 -461q-234 0 -383.5 109t-149.5 291v20zM551 567q0 -61 40 -99t99 -38q66 0 120 53t54 138q0 61 -40 99t-99 38q-66 0 -120 -53t-54 -138z" />
    <glyph glyph-name="Hcircumflex" unicode="&#x124;" horiz-adv-x="1474" 
d="M113 0l252 1434h430l-86 -492h389l86 492h430l-252 -1434h-430l88 502h-389l-88 -502h-430zM575 1577l310 307h327l203 -307h-317l-66 102l-98 -102h-359z" />
    <glyph glyph-name="hcircumflex" unicode="&#x125;" horiz-adv-x="1249" 
d="M102 0l252 1434h400l-70 -396h10q18 16 58 33q85 35 166 35q175 0 274.5 -97t99.5 -259q0 -41 -12 -111l-113 -639h-399l98 561q4 28 4 37q0 51 -31.5 85t-84.5 34q-59 0 -99 -37t-51 -94l-102 -586h-400zM492 1577l309 307h327l203 -307h-317l-66 102l-98 -102h-358z
" />
    <glyph glyph-name="Hbar" unicode="&#x126;" horiz-adv-x="1587" 
d="M164 0l180 1024h-143l55 317h143l17 93h430l-17 -93h390l16 93h430l-16 -93h153l-55 -317h-154l-180 -1024h-430l88 502h-389l-88 -502h-430zM754 911h389l20 113h-389z" />
    <glyph glyph-name="hbar" unicode="&#x127;" horiz-adv-x="1300" 
d="M154 0l182 1034h-133l57 328h133l23 133h399l-22 -133h327l-57 -328h-328l-28 -160h10q19 17 57 33q85 35 166 35q175 0 275 -97t100 -259q0 -41 -12 -111l-84 -475h-400l70 397q4 28 4 37q0 51 -32 85t-85 34q-59 0 -98.5 -37t-50.5 -94l-74 -422h-399z" />
    <glyph glyph-name="Imacron" unicode="&#x12a;" horiz-adv-x="655" 
d="M113 0l252 1434h430l-252 -1434h-430zM231 1608l48 266h737l-47 -266h-738z" />
    <glyph glyph-name="imacron" unicode="&#x12b;" horiz-adv-x="583" 
d="M92 0l191 1085h399l-190 -1085h-400zM127 1239l47 266h737l-47 -266h-737z" />
    <glyph glyph-name="Ibreve" unicode="&#x12c;" horiz-adv-x="655" 
d="M113 0l252 1434h430l-252 -1434h-430zM246 1894h278q8 -82 86 -82q72 0 99 82h278q-35 -153 -135.5 -235t-249.5 -82q-169 0 -262.5 84t-93.5 219v14z" />
    <glyph glyph-name="ibreve" unicode="&#x12d;" horiz-adv-x="583" 
d="M92 0l191 1085h399l-190 -1085h-400zM154 1526h278q8 -82 86 -82q71 0 98 82h279q-35 -153 -135.5 -235.5t-249.5 -82.5q-169 0 -262.5 84t-93.5 219v15z" />
    <glyph glyph-name="Iogonek" unicode="&#x12e;" horiz-adv-x="655" 
d="M399 -389h-114q-143 0 -217 52.5t-74 141.5q0 85 59 148q26 29 60 47l252 1434h430l-252 -1434h-74q-154 -32 -154 -113q0 -29 24.5 -45t57.5 -16h41z" />
    <glyph glyph-name="iogonek" unicode="&#x12f;" horiz-adv-x="583" 
d="M379 -389h-115q-143 0 -217 52.5t-74 141.5q0 84 60 148q27 30 59 47l191 1085h399l-190 -1085h-43q-154 -32 -154 -113q0 -29 24.5 -45t57.5 -16h41zM305 1208l53 308h400l-53 -308h-400z" />
    <glyph glyph-name="Idot" unicode="&#x130;" horiz-adv-x="655" 
d="M113 0l252 1434h430l-252 -1434h-430zM438 1577l56 307h317l-55 -307h-318z" />
    <glyph glyph-name="dotlessi" unicode="&#x131;" horiz-adv-x="583" 
d="M92 0l191 1085h399l-190 -1085h-400z" />
    <glyph glyph-name="uni0132" unicode="&#x132;" horiz-adv-x="1536" 
d="M113 0l252 1434h430l-252 -1434h-430zM635 0l74 420h295q73 0 88 82l163 932h431l-193 -1086q-31 -171 -128.5 -259.5t-258.5 -88.5h-471z" />
    <glyph glyph-name="uni0133" unicode="&#x133;" horiz-adv-x="1157" 
d="M92 0l191 1085h399l-190 -1085h-400zM305 1208l53 308h400l-53 -308h-400zM879 1208l53 308h399l-53 -308h-399zM358 -410l66 369h170q37 0 52.5 16t23.5 56l186 1054h399l-206 -1167q-55 -328 -383 -328h-308z" />
    <glyph glyph-name="Jcircumflex" unicode="&#x134;" horiz-adv-x="921" 
d="M20 0l74 420h295q73 0 88 82l164 932h430l-192 -1086q-31 -171 -128.5 -259.5t-258.5 -88.5h-472zM430 1577l309 307h328l203 -307h-318l-65 102l-99 -102h-358z" />
    <glyph glyph-name="jcircumflex" unicode="&#x135;" horiz-adv-x="583" 
d="M-215 -410l65 369h170q37 0 52.5 16t23.5 56l187 1054h399l-207 -1167q-55 -328 -383 -328h-307zM59 1208l310 308h327l203 -308h-317l-66 103l-98 -103h-359z" />
    <glyph glyph-name="Kcommaaccent" unicode="&#x136;" horiz-adv-x="1341" 
d="M113 0l252 1434h430l-103 -584l410 584h514l-537 -738l291 -696h-479l-242 614l-106 -614h-430zM352 -502l154 369h358l-207 -369h-305z" />
    <glyph glyph-name="kcommaaccent" unicode="&#x137;" horiz-adv-x="1218" 
d="M102 0l252 1434h400l-146 -820l371 471h457l-449 -553l252 -532h-430l-221 492l-86 -492h-400zM291 -502l153 369h359l-207 -369h-305z" />
    <glyph glyph-name="Lacute" unicode="&#x139;" horiz-adv-x="1136" 
d="M113 0l252 1434h430l-179 -1014h594l-73 -420h-1024zM440 1577l258 307h379l-309 -307h-328z" />
    <glyph glyph-name="lacute" unicode="&#x13a;" horiz-adv-x="604" 
d="M102 0l252 1434h400l-252 -1434h-400zM420 1577l258 307h379l-309 -307h-328z" />
    <glyph glyph-name="Lcommaaccent" unicode="&#x13b;" horiz-adv-x="1136" 
d="M113 0l252 1434h430l-179 -1014h594l-73 -420h-1024zM311 -502l154 369h358l-207 -369h-305z" />
    <glyph glyph-name="lcommaaccent" unicode="&#x13c;" horiz-adv-x="604" 
d="M102 0l252 1434h400l-252 -1434h-400zM-66 -502l154 369h358l-206 -369h-306z" />
    <glyph glyph-name="Lcaron" unicode="&#x13d;" horiz-adv-x="1136" 
d="M113 0l252 1434h430l-179 -1014h594l-73 -420h-1024zM821 1065l158 369h358l-209 -369h-307z" />
    <glyph glyph-name="lcaron" unicode="&#x13e;" horiz-adv-x="911" 
d="M102 0l252 1434h400l-252 -1434h-400zM739 1065l158 369h358l-208 -369h-308z" />
    <glyph glyph-name="Ldot" unicode="&#x13f;" horiz-adv-x="1136" 
d="M805 676l76 430h430l-76 -430h-430zM113 0l252 1434h430l-179 -1014h594l-73 -420h-1024z" />
    <glyph glyph-name="ldot" unicode="&#x140;" horiz-adv-x="1024" 
d="M702 563l76 430h430l-75 -430h-431zM102 0l252 1434h400l-252 -1434h-400z" />
    <glyph glyph-name="Lslash" unicode="&#x141;" horiz-adv-x="1208" 
d="M184 0l88 502l-176 -62l72 400l174 61l94 533h430l-65 -369l327 113l-69 -400l-328 -112l-43 -246h594l-74 -420h-1024z" />
    <glyph glyph-name="lslash" unicode="&#x142;" horiz-adv-x="747" 
d="M176 0l84 481l-164 -61l66 368l164 62l102 584h399l-73 -420l164 61l-66 -368l-164 -62l-113 -645h-399z" />
    <glyph glyph-name="Nacute" unicode="&#x143;" horiz-adv-x="1495" 
d="M113 0l252 1434h481l201 -666h40l117 666h430l-252 -1434h-481l-203 666h-41l-114 -666h-430zM850 1577l258 307h379l-309 -307h-328z" />
    <glyph glyph-name="nacute" unicode="&#x144;" horiz-adv-x="1239" 
d="M92 0l191 1085h358l8 -71h10q20 22 60 45q84 47 188 47q176 0 275.5 -97t99.5 -259q0 -41 -12 -111l-113 -639h-399l98 561q4 28 4 37q0 51 -32 85t-85 34q-59 0 -98.5 -37t-50.5 -94l-102 -586h-400zM694 1208l258 308h379l-309 -308h-328z" />
    <glyph glyph-name="Ncommaaccent" unicode="&#x145;" horiz-adv-x="1495" 
d="M113 0l252 1434h481l201 -666h40l117 666h430l-252 -1434h-481l-203 666h-41l-114 -666h-430zM440 -502l154 369h358l-207 -369h-305z" />
    <glyph glyph-name="ncommaaccent" unicode="&#x146;" horiz-adv-x="1239" 
d="M92 0l191 1085h358l8 -71h10q20 22 60 45q84 47 188 47q176 0 275.5 -97t99.5 -259q0 -41 -12 -111l-113 -639h-399l98 561q4 28 4 37q0 51 -32 85t-85 34q-59 0 -98.5 -37t-50.5 -94l-102 -586h-400zM281 -502l153 369h359l-207 -369h-305z" />
    <glyph glyph-name="Ncaron" unicode="&#x147;" horiz-adv-x="1495" 
d="M113 0l252 1434h481l201 -666h40l117 666h430l-252 -1434h-481l-203 666h-41l-114 -666h-430zM850 1577l-203 307h318l63 -102l100 102h359l-309 -307h-328z" />
    <glyph glyph-name="ncaron" unicode="&#x148;" horiz-adv-x="1239" 
d="M92 0l191 1085h358l8 -71h10q20 22 60 45q84 47 188 47q176 0 275.5 -97t99.5 -259q0 -41 -12 -111l-113 -639h-399l98 561q4 28 4 37q0 51 -32 85t-85 34q-59 0 -98.5 -37t-50.5 -94l-102 -586h-400zM694 1208l-202 308h317l63 -103l101 103h358l-309 -308h-328z" />
    <glyph glyph-name="napostrophe" unicode="&#x149;" horiz-adv-x="1454" 
d="M307 0l191 1085h358l8 -71h10q20 22 60 45q84 47 188 47q176 0 275.5 -97t99.5 -259q0 -41 -12 -111l-113 -639h-399l98 561q4 28 4 37q0 51 -32 85t-85 34q-59 0 -98.5 -37t-50.5 -94l-102 -586h-400zM139 1085l158 369h358l-209 -369h-307z" />
    <glyph glyph-name="Eng" unicode="&#x14a;" horiz-adv-x="1495" 
d="M113 0l252 1434h481l201 -666h40l117 666h430l-278 -1577q-35 -190 -139.5 -279.5t-284.5 -89.5h-297l65 369h140q54 0 79 24.5t37 87.5l7 31h-62l-203 666h-41l-114 -666h-430z" />
    <glyph glyph-name="eng" unicode="&#x14b;" horiz-adv-x="1239" 
d="M438 -471l66 369h141q51 0 75.5 26t35.5 80l100 557q4 28 4 37q0 51 -32 85t-85 34q-59 0 -98.5 -37t-50.5 -94l-102 -586h-400l191 1085h358l8 -71h10q20 22 60 45q84 47 188 47q176 0 275.5 -97t99.5 -259q0 -41 -12 -111l-133 -741q-36 -189 -136 -279t-284 -90h-279z
" />
    <glyph glyph-name="Omacron" unicode="&#x14c;" horiz-adv-x="1536" 
d="M182 614q0 178 66 336.5t175 267.5t252 172.5t296 63.5q187 0 332.5 -81.5t225 -226t79.5 -327.5q0 -178 -66 -336.5t-175 -267.5t-252 -172t-296 -63q-140 0 -259 47.5t-202 131t-129.5 201t-46.5 254.5zM860 399q125 0 221.5 106t96.5 271q0 121 -68.5 189.5
t-179.5 68.5q-126 0 -222 -106t-96 -271q0 -121 68.5 -189.5t179.5 -68.5zM649 1608l47 266h738l-48 -266h-737z" />
    <glyph glyph-name="omacron" unicode="&#x14d;" horiz-adv-x="1249" 
d="M141 477q0 173 87.5 318.5t232 228t309.5 82.5q230 0 376 -143t146 -355q0 -130 -51.5 -247.5t-137 -200.5t-200.5 -131.5t-239 -48.5q-230 0 -376.5 142.5t-146.5 354.5zM696 348q76 0 136.5 62t60.5 165q0 73 -44.5 117.5t-111.5 44.5q-76 0 -136 -62t-60 -165
q0 -74 44 -118t111 -44zM453 1239l47 266h737l-47 -266h-737z" />
    <glyph glyph-name="Obreve" unicode="&#x14e;" horiz-adv-x="1536" 
d="M182 614q0 178 66 336.5t175 267.5t252 172.5t296 63.5q187 0 332.5 -81.5t225 -226t79.5 -327.5q0 -178 -66 -336.5t-175 -267.5t-252 -172t-296 -63q-140 0 -259 47.5t-202 131t-129.5 201t-46.5 254.5zM860 399q125 0 221.5 106t96.5 271q0 121 -68.5 189.5
t-179.5 68.5q-126 0 -222 -106t-96 -271q0 -121 68.5 -189.5t179.5 -68.5zM678 1894h278q8 -82 86 -82q72 0 99 82h278q-35 -153 -135.5 -235t-249.5 -82q-169 0 -262.5 84t-93.5 219v14z" />
    <glyph glyph-name="obreve" unicode="&#x14f;" horiz-adv-x="1249" 
d="M141 477q0 173 87.5 318.5t232 228t309.5 82.5q230 0 376 -143t146 -355q0 -130 -51.5 -247.5t-137 -200.5t-200.5 -131.5t-239 -48.5q-230 0 -376.5 142.5t-146.5 354.5zM696 348q76 0 136.5 62t60.5 165q0 73 -44.5 117.5t-111.5 44.5q-76 0 -136 -62t-60 -165
q0 -74 44 -118t111 -44zM479 1526h279q8 -82 86 -82q71 0 98 82h279q-35 -153 -135.5 -235.5t-249.5 -82.5q-169 0 -263 84t-94 219v15z" />
    <glyph glyph-name="Ohungarumlaut" unicode="&#x150;" horiz-adv-x="1536" 
d="M182 614q0 178 66 336.5t175 267.5t252 172.5t296 63.5q187 0 332.5 -81.5t225 -226t79.5 -327.5q0 -178 -66 -336.5t-175 -267.5t-252 -172t-296 -63q-140 0 -259 47.5t-202 131t-129.5 201t-46.5 254.5zM860 399q125 0 221.5 106t96.5 271q0 121 -68.5 189.5
t-179.5 68.5q-126 0 -222 -106t-96 -271q0 -121 68.5 -189.5t179.5 -68.5zM625 1577l258 307h338l-310 -307h-286zM1065 1577l258 307h338l-309 -307h-287z" />
    <glyph glyph-name="ohungarumlaut" unicode="&#x151;" horiz-adv-x="1249" 
d="M141 477q0 173 87.5 318.5t232 228t309.5 82.5q230 0 376 -143t146 -355q0 -130 -51.5 -247.5t-137 -200.5t-200.5 -131.5t-239 -48.5q-230 0 -376.5 142.5t-146.5 354.5zM696 348q76 0 136.5 62t60.5 165q0 73 -44.5 117.5t-111.5 44.5q-76 0 -136 -62t-60 -165
q0 -74 44 -118t111 -44zM459 1208l258 308h338l-310 -308h-286zM899 1208l258 308h338l-309 -308h-287z" />
    <glyph glyph-name="OE" unicode="&#x152;" horiz-adv-x="2150" 
d="M1075 0l12 74q-34 -27 -79 -47q-96 -47 -220 -47q-125 0 -237 47.5t-193 130.5t-128.5 201.5t-47.5 254.5q0 180 64.5 338t173.5 267t255.5 172t307.5 63q138 0 250 -55q40 -18 80 -53l14 88h993l-69 -390h-594l-25 -143h553l-65 -369h-553l-25 -143h594l-68 -389h-993z
M860 399q125 0 221.5 106t96.5 271q0 121 -68.5 189.5t-179.5 68.5q-126 0 -222 -106t-96 -271q0 -121 68.5 -189.5t179.5 -68.5z" />
    <glyph glyph-name="oe" unicode="&#x153;" horiz-adv-x="1931" 
d="M1528 328h389q-72 -155 -217.5 -251.5t-337.5 -96.5q-169 0 -281 65q-53 27 -80 68q-84 -67 -169 -100t-209 -33q-200 0 -341 143.5t-141 351.5q0 173 87.5 319.5t229.5 229t302 82.5q72 0 134 -14t99 -34t64 -40.5t38 -34.5l11 -14q47 38 104 67q132 70 275 70
q221 0 355 -137t134 -353q0 -44 -12 -122l-12 -64h-717v-10q0 -64 42 -104t118 -40q65 0 106 25q18 9 29 27zM1270 635h336q0 75 -42.5 119.5t-105.5 44.5q-70 0 -120 -46t-68 -118zM674 348q69 0 124.5 65t55.5 171q0 70 -37.5 111.5t-95.5 41.5q-69 0 -124.5 -64.5
t-55.5 -170.5q0 -71 37.5 -112.5t95.5 -41.5z" />
    <glyph glyph-name="Racute" unicode="&#x154;" horiz-adv-x="1423" 
d="M680 788h272q55 0 94 40.5t39 101.5q0 47 -27.5 75.5t-74.5 28.5h-258zM113 0l252 1434h700q189 0 320 -124.5t131 -322.5q0 -122 -38 -224.5t-102.5 -170.5t-139.5 -111.5t-159 -62.5l275 -418h-502l-236 410l-71 -410h-430zM778 1577l258 307h379l-309 -307h-328z" />
    <glyph glyph-name="racute" unicode="&#x155;" horiz-adv-x="901" 
d="M92 0l191 1085h358l8 -71h10q24 21 50 35q66 36 141 36h190l-65 -368h-197q-85 0 -130 -41t-62 -133l-94 -543h-400zM520 1208l258 308h379l-309 -308h-328z" />
    <glyph glyph-name="Rcommaaccent" unicode="&#x156;" horiz-adv-x="1423" 
d="M680 788h272q55 0 94 40.5t39 101.5q0 47 -27.5 75.5t-74.5 28.5h-258zM113 0l252 1434h700q189 0 320 -124.5t131 -322.5q0 -122 -38 -224.5t-102.5 -170.5t-139.5 -111.5t-159 -62.5l275 -418h-502l-236 410l-71 -410h-430zM369 -502l153 369h359l-207 -369h-305z" />
    <glyph glyph-name="rcommaaccent" unicode="&#x157;" horiz-adv-x="901" 
d="M92 0l191 1085h358l8 -71h10q24 21 50 35q66 36 141 36h190l-65 -368h-197q-85 0 -130 -41t-62 -133l-94 -543h-400zM-66 -502l154 369h358l-206 -369h-306z" />
    <glyph glyph-name="Rcaron" unicode="&#x158;" horiz-adv-x="1423" 
d="M680 788h272q55 0 94 40.5t39 101.5q0 47 -27.5 75.5t-74.5 28.5h-258zM113 0l252 1434h700q189 0 320 -124.5t131 -322.5q0 -122 -38 -224.5t-102.5 -170.5t-139.5 -111.5t-159 -62.5l275 -418h-502l-236 410l-71 -410h-430zM788 1577l-202 307h317l64 -102l100 102h358
l-309 -307h-328z" />
    <glyph glyph-name="rcaron" unicode="&#x159;" horiz-adv-x="901" 
d="M92 0l191 1085h358l8 -71h10q24 21 50 35q66 36 141 36h190l-65 -368h-197q-85 0 -130 -41t-62 -133l-94 -543h-400zM530 1208l-202 308h317l64 -103l100 103h358l-309 -308h-328z" />
    <glyph glyph-name="Sacute" unicode="&#x15a;" horiz-adv-x="1320" 
d="M113 492h430v-13q0 -58 51 -94.5t154 -36.5q163 0 163 94q0 67 -159 97l-160 28q-356 70 -356 383q0 106 38.5 198.5t111.5 163t187 111.5t256 41q175 0 308 -53.5t209.5 -161t76.5 -256.5v-51h-440v10q0 63 -44.5 98t-129.5 35q-143 0 -143 -92q0 -28 36 -51.5
t107 -36.5l111 -20q421 -80 421 -393q0 -124 -47 -224t-129.5 -165t-194.5 -99.5t-243 -34.5q-153 0 -272.5 35.5t-193 99t-111 146t-37.5 180.5v62zM727 1577l258 307h379l-309 -307h-328z" />
    <glyph glyph-name="sacute" unicode="&#x15b;" horiz-adv-x="1085" 
d="M86 338h389v-10q0 -72 127 -72q107 0 107 72q0 25 -19.5 40t-77.5 25l-73 10q-373 51 -373 324q0 78 31 147.5t91 124t157 86t219 31.5t220 -29.5t158 -79.5t91.5 -111t31.5 -128v-20h-389v10q0 32 -28.5 51.5t-83.5 19.5q-51 0 -77 -18t-26 -43q0 -29 21 -44t75 -22
l78 -10q177 -24 274 -105t97 -218q0 -177 -130 -288.5t-374 -111.5q-233 0 -374.5 99.5t-141.5 250.5v19zM541 1208l258 308h379l-310 -308h-327z" />
    <glyph glyph-name="Scircumflex" unicode="&#x15c;" horiz-adv-x="1320" 
d="M113 492h430v-13q0 -58 51 -94.5t154 -36.5q163 0 163 94q0 67 -159 97l-160 28q-356 70 -356 383q0 106 38.5 198.5t111.5 163t187 111.5t256 41q175 0 308 -53.5t209.5 -161t76.5 -256.5v-51h-440v10q0 63 -44.5 98t-129.5 35q-143 0 -143 -92q0 -28 36 -51.5
t107 -36.5l111 -20q421 -80 421 -393q0 -124 -47 -224t-129.5 -165t-194.5 -99.5t-243 -34.5q-153 0 -272.5 35.5t-193 99t-111 146t-37.5 180.5v62zM471 1577l309 307h328l203 -307h-318l-65 102l-99 -102h-358z" />
    <glyph glyph-name="scircumflex" unicode="&#x15d;" horiz-adv-x="1085" 
d="M86 338h389v-10q0 -72 127 -72q107 0 107 72q0 25 -19.5 40t-77.5 25l-73 10q-373 51 -373 324q0 78 31 147.5t91 124t157 86t219 31.5t220 -29.5t158 -79.5t91.5 -111t31.5 -128v-20h-389v10q0 32 -28.5 51.5t-83.5 19.5q-51 0 -77 -18t-26 -43q0 -29 21 -44t75 -22
l78 -10q177 -24 274 -105t97 -218q0 -177 -130 -288.5t-374 -111.5q-233 0 -374.5 99.5t-141.5 250.5v19zM305 1208l309 308h328l203 -308h-318l-65 103l-98 -103h-359z" />
    <glyph glyph-name="Scedilla" unicode="&#x15e;" horiz-adv-x="1320" 
d="M391 -522l35 215h106q80 0 80 71q0 52 -80 52h-53l17 92l45 78q-212 37 -320 156.5t-108 287.5v62h430v-13q0 -58 51 -94.5t154 -36.5q163 0 163 94q0 67 -159 97l-160 28q-356 70 -356 383q0 106 38.5 198.5t111.5 163t187 111.5t256 41q175 0 308 -53.5t209.5 -161
t76.5 -256.5v-51h-440v10q0 63 -44.5 98t-129.5 35q-143 0 -143 -92q0 -28 36 -51.5t107 -36.5l111 -20q421 -80 421 -393q0 -227 -150 -365t-390 -156l-39 -63q47 -25 77.5 -70.5t30.5 -103.5q0 -116 -82.5 -186t-214.5 -70h-182z" />
    <glyph glyph-name="scedilla" unicode="&#x15f;" horiz-adv-x="1085" 
d="M276 -522l35 215h107q80 0 80 71q0 52 -80 52h-53l16 92l47 78q-163 36 -252.5 124.5t-89.5 208.5v19h389v-10q0 -72 127 -72q107 0 107 72q0 25 -19.5 40t-77.5 25l-73 10q-373 51 -373 324q0 78 31 147.5t91 124t157 86t219 31.5t220 -29.5t158 -79.5t91.5 -111
t31.5 -128v-20h-389v10q0 32 -28.5 51.5t-83.5 19.5q-51 0 -77 -18t-26 -43q0 -29 21 -44t75 -22l78 -10q177 -24 274 -105t97 -218q0 -161 -108 -268.5t-312 -127.5l-39 -65q47 -25 78 -70.5t31 -103.5q0 -116 -82.5 -186t-214.5 -70h-183z" />
    <glyph glyph-name="Scaron" unicode="&#x160;" horiz-adv-x="1320" 
d="M113 492h430v-13q0 -58 51 -94.5t154 -36.5q163 0 163 94q0 67 -159 97l-160 28q-356 70 -356 383q0 106 38.5 198.5t111.5 163t187 111.5t256 41q175 0 308 -53.5t209.5 -161t76.5 -256.5v-51h-440v10q0 63 -44.5 98t-129.5 35q-143 0 -143 -92q0 -28 36 -51.5
t107 -36.5l111 -20q421 -80 421 -393q0 -124 -47 -224t-129.5 -165t-194.5 -99.5t-243 -34.5q-153 0 -272.5 35.5t-193 99t-111 146t-37.5 180.5v62zM737 1577l-202 307h317l63 -102l101 102h358l-309 -307h-328z" />
    <glyph glyph-name="scaron" unicode="&#x161;" horiz-adv-x="1085" 
d="M86 338h389v-10q0 -72 127 -72q107 0 107 72q0 25 -19.5 40t-77.5 25l-73 10q-373 51 -373 324q0 78 31 147.5t91 124t157 86t219 31.5t220 -29.5t158 -79.5t91.5 -111t31.5 -128v-20h-389v10q0 32 -28.5 51.5t-83.5 19.5q-51 0 -77 -18t-26 -43q0 -29 21 -44t75 -22
l78 -10q177 -24 274 -105t97 -218q0 -177 -130 -288.5t-374 -111.5q-233 0 -374.5 99.5t-141.5 250.5v19zM541 1208l-203 308h317l64 -103l100 103h359l-310 -308h-327z" />
    <glyph glyph-name="uni0162" unicode="&#x162;" 
d="M391 -522l35 215h106q80 0 80 71q0 52 -80 52h-53l17 92l57 92h-164l178 1014h-358l74 420h1147l-74 -420h-359l-178 -1014l-57 -92q47 -25 77.5 -70.5t30.5 -103.5q0 -116 -82.5 -186t-214.5 -70h-182z" />
    <glyph glyph-name="uni0163" unicode="&#x163;" horiz-adv-x="942" 
d="M248 -522l35 215h106q80 0 80 71q0 52 -80 52h-53l16 92l72 123q-164 67 -164 254q0 38 10 96l60 336h-164l65 368h164l58 328h399l-57 -328h235l-65 -368h-236l-47 -264q-4 -15 -4 -35q0 -49 70 -49h155l-63 -369h-166l-56 -92q47 -25 78 -70.5t31 -103.5
q0 -116 -82.5 -186t-214.5 -70h-182z" />
    <glyph glyph-name="Tcaron" unicode="&#x164;" 
d="M389 0l178 1014h-358l74 420h1147l-74 -420h-359l-178 -1014h-430zM705 1577l-203 307h317l64 -102l100 102h358l-309 -307h-327z" />
    <glyph glyph-name="tcaron" unicode="&#x165;" horiz-adv-x="1114" 
d="M270 381l60 336h-164l65 368h164l58 328h399l-57 -328h235l-65 -368h-236l-47 -264q-4 -15 -4 -35q0 -49 70 -49h155l-63 -369h-236q-173 0 -258.5 76t-85.5 209q0 38 10 96zM903 1126l158 369h358l-209 -369h-307z" />
    <glyph glyph-name="Tbar" unicode="&#x166;" 
d="M389 0l100 573h-256l58 328h256l20 113h-358l74 420h1147l-74 -420h-359l-20 -113h256l-57 -328h-256l-101 -573h-430z" />
    <glyph glyph-name="tbar" unicode="&#x167;" horiz-adv-x="942" 
d="M125 481l49 277h164l8 51h-164l49 276h164l58 328h399l-57 -328h235l-49 -276h-236l-8 -51h236l-49 -277h-236l-6 -28q-4 -15 -4 -35q0 -49 70 -49h155l-63 -369h-236q-173 0 -258.5 76t-85.5 209q0 38 10 96l19 100h-164z" />
    <glyph glyph-name="Umacron" unicode="&#x16a;" horiz-adv-x="1454" 
d="M219 672l135 762h430l-143 -805q-6 -27 -6 -54q0 -80 46.5 -128t125.5 -48q81 0 140.5 51.5t76.5 145.5l150 838h430l-154 -871q-49 -272 -229.5 -427.5t-436.5 -155.5q-271 0 -426 145.5t-155 390.5q0 68 16 156zM618 1608l48 266h737l-47 -266h-738z" />
    <glyph glyph-name="umacron" unicode="&#x16b;" horiz-adv-x="1249" 
d="M170 446l113 639h399l-98 -561q-4 -28 -4 -37q0 -51 31.5 -84.5t84.5 -33.5q59 0 99 37t51 94l102 585h400l-191 -1085h-358l-8 72h-11q-19 -25 -59 -47q-80 -45 -189 -45q-176 0 -275 97t-99 259q0 40 12 110zM483 1239l47 266h738l-47 -266h-738z" />
    <glyph glyph-name="Ubreve" unicode="&#x16c;" horiz-adv-x="1454" 
d="M219 672l135 762h430l-143 -805q-6 -27 -6 -54q0 -80 46.5 -128t125.5 -48q81 0 140.5 51.5t76.5 145.5l150 838h430l-154 -871q-49 -272 -229.5 -427.5t-436.5 -155.5q-271 0 -426 145.5t-155 390.5q0 68 16 156zM637 1894h278q8 -82 86 -82q72 0 99 82h278
q-35 -153 -135.5 -235t-249.5 -82q-169 0 -262.5 84t-93.5 219v14z" />
    <glyph glyph-name="ubreve" unicode="&#x16d;" horiz-adv-x="1249" 
d="M170 446l113 639h399l-98 -561q-4 -28 -4 -37q0 -51 31.5 -84.5t84.5 -33.5q59 0 99 37t51 94l102 585h400l-191 -1085h-358l-8 72h-11q-19 -25 -59 -47q-80 -45 -189 -45q-176 0 -275 97t-99 259q0 40 12 110zM500 1526h278q8 -82 86 -82q72 0 99 82h278
q-35 -153 -135.5 -235.5t-249.5 -82.5q-169 0 -262.5 84t-93.5 219v15z" />
    <glyph glyph-name="Uring" unicode="&#x16e;" horiz-adv-x="1454" 
d="M219 672l135 762h430l-143 -805q-6 -27 -6 -54q0 -80 46.5 -128t125.5 -48q81 0 140.5 51.5t76.5 145.5l150 838h430l-154 -871q-49 -272 -229.5 -427.5t-436.5 -155.5q-271 0 -426 145.5t-155 390.5q0 68 16 156zM756 1729q0 107 82.5 182.5t187.5 75.5
q98 0 162.5 -60.5t64.5 -152.5q0 -107 -82.5 -182.5t-187.5 -75.5q-98 0 -162.5 60.5t-64.5 152.5zM930 1743q0 -29 19 -46.5t50 -17.5q32 0 56 23t24 57q0 29 -19 46.5t-50 17.5q-32 0 -56 -23t-24 -57z" />
    <glyph glyph-name="uring" unicode="&#x16f;" horiz-adv-x="1249" 
d="M170 446l113 639h399l-98 -561q-4 -28 -4 -37q0 -51 31.5 -84.5t84.5 -33.5q59 0 99 37t51 94l102 585h400l-191 -1085h-358l-8 72h-11q-19 -25 -59 -47q-80 -45 -189 -45q-176 0 -275 97t-99 259q0 40 12 110zM598 1360q0 107 82.5 182.5t187.5 75.5q98 0 163 -60.5
t65 -152.5q0 -107 -83 -182.5t-188 -75.5q-98 0 -162.5 60.5t-64.5 152.5zM772 1374q0 -29 19.5 -46t50.5 -17q32 0 56 23t24 57q0 29 -19.5 46t-50.5 17q-32 0 -56 -23t-24 -57z" />
    <glyph glyph-name="Uhungarumlaut" unicode="&#x170;" horiz-adv-x="1454" 
d="M219 672l135 762h430l-143 -805q-6 -27 -6 -54q0 -80 46.5 -128t125.5 -48q81 0 140.5 51.5t76.5 145.5l150 838h430l-154 -871q-49 -272 -229.5 -427.5t-436.5 -155.5q-271 0 -426 145.5t-155 390.5q0 68 16 156zM604 1577l258 307h338l-309 -307h-287zM1044 1577
l259 307h337l-309 -307h-287z" />
    <glyph glyph-name="uhungarumlaut" unicode="&#x171;" horiz-adv-x="1249" 
d="M170 446l113 639h399l-98 -561q-4 -28 -4 -37q0 -51 31.5 -84.5t84.5 -33.5q59 0 99 37t51 94l102 585h400l-191 -1085h-358l-8 72h-11q-19 -25 -59 -47q-80 -45 -189 -45q-176 0 -275 97t-99 259q0 40 12 110zM449 1208l258 308h337l-309 -308h-286zM889 1208l258 308
h338l-309 -308h-287z" />
    <glyph glyph-name="Uogonek" unicode="&#x172;" horiz-adv-x="1454" 
d="M877 -389h-115q-143 0 -217 52.5t-74 141.5q0 85 59 148q29 29 62 49q-193 53 -291 187t-98 327q0 68 16 156l135 762h430l-143 -805q-6 -27 -6 -54q0 -80 46.5 -128t125.5 -48q81 0 140.5 51.5t76.5 145.5l150 838h430l-154 -871q-42 -241 -188.5 -390.5t-360.5 -182.5
q-108 -34 -108 -103q0 -29 24 -45t57 -16h41z" />
    <glyph glyph-name="uogonek" unicode="&#x173;" horiz-adv-x="1249" 
d="M170 446l113 639h399l-98 -561q-4 -28 -4 -37q0 -51 31.5 -84.5t84.5 -33.5q59 0 99 37t51 94l102 585h400l-191 -1085h-2q-154 -32 -154 -113q0 -29 24.5 -45t57.5 -16h41l-39 -215h-114q-143 0 -217 52.5t-74 141.5q0 85 59 148q26 29 60 47l-8 72h-11q-19 -25 -59 -47
q-80 -45 -189 -45q-176 0 -275 97t-99 259q0 40 12 110z" />
    <glyph glyph-name="Wcircumflex" unicode="&#x174;" horiz-adv-x="2027" 
d="M338 0l-96 1434h471v-635h41l266 635h430l41 -635h41l256 635h481l-600 -1434h-481l-47 666h-41l-281 -666h-481zM809 1577l309 307h328l203 -307h-318l-65 102l-99 -102h-358z" />
    <glyph glyph-name="wcircumflex" unicode="&#x175;" horiz-adv-x="1699" 
d="M266 0l-76 1085h408v-471h41l197 471h348l28 -471h41l187 471h430l-457 -1085h-461l-26 430h-41l-178 -430h-441zM592 1208l309 308h328l203 -308h-318l-65 103l-99 -103h-358z" />
    <glyph glyph-name="Ycircumflex" unicode="&#x176;" horiz-adv-x="1372" 
d="M461 0l76 430l-336 1004h450l150 -492h41l321 492h492l-688 -1004l-76 -430h-430zM481 1577l310 307h327l203 -307h-317l-66 102l-98 -102h-359z" />
    <glyph glyph-name="ycircumflex" unicode="&#x177;" horiz-adv-x="1239" 
d="M49 -410l66 369h223q27 0 43 23q9 9 14 22l-225 1081h410l94 -573h41l264 573h451l-674 -1269q-61 -116 -135 -171t-191 -55h-381zM356 1208l310 308h327l203 -308h-317l-66 103l-98 -103h-359z" />
    <glyph glyph-name="Ydieresis" unicode="&#x178;" horiz-adv-x="1372" 
d="M461 0l76 430l-336 1004h450l150 -492h41l321 492h492l-688 -1004l-76 -430h-430zM973 1577l55 307h318l-56 -307h-317zM532 1577l56 307h317l-55 -307h-318z" />
    <glyph glyph-name="Zacute" unicode="&#x179;" horiz-adv-x="1300" 
d="M72 0l67 389l656 635h-533l72 410h1136l-69 -390l-653 -634h552l-71 -410h-1157zM737 1577l258 307h379l-309 -307h-328z" />
    <glyph glyph-name="zacute" unicode="&#x17a;" horiz-adv-x="1085" 
d="M61 0l60 338l469 399h-389l61 348h942l-59 -337l-471 -400h409l-59 -348h-963zM571 1208l258 308h379l-309 -308h-328z" />
    <glyph glyph-name="Zdotaccent" unicode="&#x17b;" horiz-adv-x="1300" 
d="M72 0l67 389l656 635h-533l72 410h1136l-69 -390l-653 -634h552l-71 -410h-1157zM750 1577l55 307h317l-55 -307h-317z" />
    <glyph glyph-name="zdotaccent" unicode="&#x17c;" horiz-adv-x="1085" 
d="M61 0l60 338l469 399h-389l61 348h942l-59 -337l-471 -400h409l-59 -348h-963zM573 1208l56 308h317l-55 -308h-318z" />
    <glyph glyph-name="Zcaron" unicode="&#x17d;" horiz-adv-x="1300" 
d="M72 0l67 389l656 635h-533l72 410h1136l-69 -390l-653 -634h552l-71 -410h-1157zM758 1577l-203 307h317l64 -102l100 102h359l-310 -307h-327z" />
    <glyph glyph-name="zcaron" unicode="&#x17e;" horiz-adv-x="1085" 
d="M61 0l60 338l469 399h-389l61 348h942l-59 -337l-471 -400h409l-59 -348h-963zM571 1208l-202 308h317l64 -103l100 103h358l-309 -308h-328z" />
    <glyph glyph-name="uni018F" unicode="&#x18f;" horiz-adv-x="1505" 
d="M193 766l16 84h930q-23 89 -85 136.5t-145 47.5q-87 0 -159 -47q-38 -26 -54 -45h-463q64 160 179.5 277.5t254 176t283.5 58.5q182 0 325.5 -81.5t222.5 -226t79 -327.5q0 -143 -43.5 -275.5t-118.5 -233t-172.5 -176t-209.5 -115t-224 -39.5q-190 0 -335.5 86.5
t-220.5 230.5t-75 321q0 78 15 148zM1100 573h-486q14 -73 75 -123.5t151 -50.5q82 0 149 46.5t111 127.5z" />
    <glyph glyph-name="florin" unicode="&#x192;" horiz-adv-x="1034" 
d="M-123 -410l115 369h121q46 0 71 22t39 70l148 481h-199l115 369h196l99 318q96 317 415 317h297l-102 -328h-121q-45 0 -68.5 -21t-41.5 -71l-68 -215h203l-115 -369h-201l-190 -624q-96 -318 -416 -318h-297z" />
    <glyph glyph-name="Aringacute" unicode="&#x1fa;" horiz-adv-x="1474" 
d="M1026 1987l117 131h358l-258 -242q27 -50 27 -102q0 -107 -83 -182.5t-188 -75.5q-98 0 -162.5 60.5t-64.5 152.5q0 101 77 175.5t177 82.5zM946 1743q0 -29 19.5 -46.5t50.5 -17.5q32 0 56 23t24 57q0 29 -19.5 46.5t-50.5 17.5q-32 0 -56 -23t-24 -57zM-10 0l712 1434
h594l209 -1434h-440l-25 215h-471l-98 -215h-481zM737 584h267l-46 389h-40z" />
    <glyph glyph-name="aringacute" unicode="&#x1fb;" horiz-adv-x="1177" 
d="M848 1618l117 131h358l-258 -242q27 -49 27 -102q0 -107 -83 -182.5t-188 -75.5q-98 0 -162.5 60.5t-64.5 152.5q0 101 77 175.5t177 82.5zM768 1374q0 -29 19.5 -46t50.5 -17q32 0 56 23t24 57q0 29 -19.5 46t-50.5 17q-32 0 -56 -23t-24 -57zM741 0l-8 72h-10
q-20 -26 -55 -47q-76 -45 -193 -45q-167 0 -270 82.5t-103 213.5q0 176 120 277.5t315 101.5h278l2 9q4 28 4 32q0 43 -30.5 67.5t-79.5 24.5q-76 0 -111 -61h-379q38 175 173 277t347 102q214 0 347 -109.5t133 -279.5q0 -45 -9 -86l-112 -631h-359zM772 408l2 12h-166
q-47 0 -71.5 -20t-24.5 -56q0 -28 27.5 -48t78.5 -20q131 0 154 132z" />
    <glyph glyph-name="AEacute" unicode="&#x1fc;" horiz-adv-x="2027" 
d="M-61 0l876 1434h1383l-70 -390h-594l-25 -143h553l-65 -369h-553l-25 -143h594l-67 -389h-1024l47 276h-373l-166 -276h-491zM813 635h219l72 409h-41zM1239 1577l258 307h379l-309 -307h-328z" />
    <glyph glyph-name="aeacute" unicode="&#x1fd;" horiz-adv-x="1863" 
d="M537 655h270l2 13q2 16 2 26q0 43 -28 68.5t-78 25.5q-79 0 -113 -61h-379q38 169 173.5 274t344.5 105q107 0 195 -35.5t143 -97.5q39 39 90 65q122 68 258 68q221 0 355.5 -137t134.5 -353q0 -38 -13 -122l-12 -64h-717v-10q0 -64 42 -104t118 -40q66 0 107 25
q17 8 28 27h389q-72 -155 -217.5 -251.5t-337.5 -96.5q-177 0 -284 71q-53 30 -84 72q-45 -45 -95 -72q-115 -71 -294 -71q-200 0 -317.5 83.5t-117.5 223.5q0 162 119 265t316 103zM760 399l4 21h-166q-46 0 -71 -21t-25 -57q0 -29 26 -47.5t80 -18.5q128 0 152 123z
M1202 635h336q0 75 -42.5 119.5t-104.5 44.5q-70 0 -120.5 -46t-68.5 -118zM950 1208l258 308h379l-309 -308h-328z" />
    <glyph glyph-name="Oslashacute" unicode="&#x1fe;" horiz-adv-x="1556" 
d="M608 596l320 438q-133 0 -229.5 -107t-96.5 -270q0 -33 2 -43zM1202 838l-319 -439q133 0 229 107t96 270q0 15 -4 43q-2 6 -2 19zM135 -72l191 267q-144 178 -144 419q0 179 66 337t176 267t255.5 172.5t301.5 63.5q127 0 225 -33l60 84h409l-190 -266
q143 -177 143 -420q0 -178 -66.5 -336.5t-177 -267.5t-255.5 -172t-300 -63q-130 0 -225 32l-59 -84h-410zM834 1577l258 307h378l-309 -307h-327z" />
    <glyph glyph-name="oslashacute" unicode="&#x1ff;" horiz-adv-x="1249" 
d="M485 455l234 331q-99 -8 -169.5 -84t-70.5 -192q0 -31 6 -55zM117 -72l149 213q-125 137 -125 336q0 173 87.5 318.5t232 228t309.5 82.5q84 0 158 -21l49 72h338l-150 -213q125 -138 125 -336q0 -130 -51.5 -247.5t-137 -200.5t-200.5 -131.5t-239 -48.5q-88 0 -158 20
l-49 -72h-338zM946 631l-233 -332q98 5 168.5 83.5t70.5 192.5q0 32 -6 56zM633 1208l258 308h379l-309 -308h-328z" />
    <glyph glyph-name="Scommaaccent" unicode="&#x218;" horiz-adv-x="1320" 
d="M113 492h430v-13q0 -58 51 -94.5t154 -36.5q163 0 163 94q0 67 -159 97l-160 28q-356 70 -356 383q0 106 38.5 198.5t111.5 163t187 111.5t256 41q175 0 308 -53.5t209.5 -161t76.5 -256.5v-51h-440v10q0 63 -44.5 98t-129.5 35q-143 0 -143 -92q0 -28 36 -51.5
t107 -36.5l111 -20q421 -80 421 -393q0 -124 -47 -224t-129.5 -165t-194.5 -99.5t-243 -34.5q-153 0 -272.5 35.5t-193 99t-111 146t-37.5 180.5v62zM383 -502l154 369h358l-207 -369h-305z" />
    <glyph glyph-name="scommaaccent" unicode="&#x219;" horiz-adv-x="1085" 
d="M86 338h389v-10q0 -72 127 -72q107 0 107 72q0 25 -19.5 40t-77.5 25l-73 10q-373 51 -373 324q0 78 31 147.5t91 124t157 86t219 31.5t220 -29.5t158 -79.5t91.5 -111t31.5 -128v-20h-389v10q0 32 -28.5 51.5t-83.5 19.5q-51 0 -77 -18t-26 -43q0 -29 21 -44t75 -22
l78 -10q177 -24 274 -105t97 -218q0 -177 -130 -288.5t-374 -111.5q-233 0 -374.5 99.5t-141.5 250.5v19zM240 -502l153 369h359l-207 -369h-305z" />
    <glyph glyph-name="uni021A" unicode="&#x21a;" 
d="M389 0l178 1014h-358l74 420h1147l-74 -420h-359l-178 -1014h-430zM246 -502l153 369h359l-207 -369h-305z" />
    <glyph glyph-name="uni021B" unicode="&#x21b;" horiz-adv-x="942" 
d="M270 381l60 336h-164l65 368h164l58 328h399l-57 -328h235l-65 -368h-236l-47 -264q-4 -15 -4 -35q0 -49 70 -49h155l-63 -369h-236q-173 0 -258.5 76t-85.5 209q0 38 10 96zM188 -502l154 369h358l-206 -369h-306z" />
    <glyph glyph-name="uni0232" unicode="&#x232;" horiz-adv-x="1372" 
d="M461 0l76 430l-336 1004h450l150 -492h41l321 492h492l-688 -1004l-76 -430h-430zM557 1608l47 266h737l-47 -266h-737z" />
    <glyph glyph-name="uni0233" unicode="&#x233;" horiz-adv-x="1239" 
d="M49 -410l66 369h223q27 0 43 23q9 9 14 22l-225 1081h410l94 -573h41l264 573h451l-674 -1269q-61 -116 -135 -171t-191 -55h-381zM426 1239l47 266h737l-47 -266h-737z" />
    <glyph glyph-name="uni0244" unicode="&#x244;" horiz-adv-x="1587" 
d="M158 788l57 318h143l58 328h430l-58 -328h388l59 328h430l-57 -328h153l-57 -318h-154l-39 -225q-49 -273 -229 -428t-436 -155q-271 0 -426.5 145.5t-155.5 390.5q0 62 17 156l20 116h-143zM731 788l-29 -159q-6 -27 -6 -54q0 -80 46.5 -128t125.5 -48q81 0 140.5 51.5
t76.5 145.5l35 192h-389z" />
    <glyph glyph-name="uni0259" unicode="&#x259;" horiz-adv-x="1239" 
d="M162 645h741q-5 69 -53.5 111.5t-126.5 42.5q-67 0 -111 -27q-19 -8 -32 -24h-390q74 157 221 257.5t347 100.5q230 0 376 -143t146 -355q0 -130 -51.5 -247.5t-137.5 -200.5t-201 -131.5t-239 -48.5q-228 0 -370 137t-142 352q0 59 11 119zM866 440h-358
q0 -71 44 -117.5t120 -46.5q66 0 119 41t75 123z" />
    <glyph glyph-name="uni0289" unicode="&#x289;" horiz-adv-x="1372" 
d="M231 446l27 158h-131l51 297h133l33 184h399l-32 -184h266l33 184h399l-33 -184h133l-51 -297h-133l-106 -604h-359l-8 72h-10q-18 -24 -60 -47q-80 -45 -188 -45q-176 0 -275.5 97t-99.5 259q0 40 12 110zM659 604l-14 -80q-4 -28 -4 -37q0 -51 32 -84.5t85 -33.5
q59 0 98.5 37t50.5 94l19 104h-267z" />
    <glyph glyph-name="uni02BC" unicode="&#x2bc;" horiz-adv-x="573" 
d="M248 1065l158 369h358l-209 -369h-307z" />
    <glyph glyph-name="circumflex" unicode="&#x2c6;" horiz-adv-x="962" 
d="M274 1208l310 308h327l203 -308h-317l-66 103l-98 -103h-359z" />
    <glyph glyph-name="caron" unicode="&#x2c7;" horiz-adv-x="962" 
d="M530 1208l-202 308h317l64 -103l100 103h358l-309 -308h-328z" />
    <glyph glyph-name="breve" unicode="&#x2d8;" horiz-adv-x="860" 
d="M305 1516h279q8 -82 86 -82q71 0 98 82h279q-35 -153 -135.5 -235.5t-249.5 -82.5q-169 0 -263 84t-94 219v15z" />
    <glyph glyph-name="dotaccent" unicode="&#x2d9;" horiz-adv-x="440" 
d="M274 1219l56 307h317l-55 -307h-318z" />
    <glyph glyph-name="ring" unicode="&#x2da;" horiz-adv-x="614" 
d="M289 1401q0 107 82.5 182.5t187.5 75.5q98 0 162.5 -60.5t64.5 -152.5q0 -107 -82.5 -182.5t-187.5 -75.5q-98 0 -162.5 60.5t-64.5 152.5zM463 1415q0 -29 19 -46t50 -17q32 0 56 23t24 57q0 29 -19 46t-50 17q-32 0 -56 -23t-24 -57z" />
    <glyph glyph-name="ogonek" unicode="&#x2db;" horiz-adv-x="563" 
d="M414 -389h-115q-143 0 -217 52.5t-74 141.5q0 84 60 148q27 30 59 47h356q-153 -32 -153 -113q0 -29 24.5 -45t57.5 -16h41z" />
    <glyph glyph-name="tilde" unicode="&#x2dc;" horiz-adv-x="860" 
d="M510 1208h-236q14 85 42.5 147t67 96t80 49.5t89.5 15.5q49 0 87.5 -15.5t66 -31t51.5 -15.5q25 0 45 16.5t26 45.5h236q-56 -308 -279 -308q-49 0 -87 15.5t-65.5 31t-51.5 15.5q-25 0 -46.5 -16.5t-25.5 -45.5z" />
    <glyph glyph-name="hungarumlaut" unicode="&#x2dd;" horiz-adv-x="1105" 
d="M274 1208l258 308h338l-309 -308h-287zM715 1208l258 308h338l-310 -308h-286z" />
    <glyph glyph-name="acutecomb" unicode="&#x301;" horiz-adv-x="0" 
d="M-625 1618l258 307h377l-307 -307h-328z" />
    <glyph glyph-name="uni0302" unicode="&#x302;" horiz-adv-x="0" 
d="M-901 1618l309 307h328l203 -307h-318l-63 102l-101 -102h-358z" />
    <glyph glyph-name="uni0304" unicode="&#x304;" horiz-adv-x="0" 
d="M-840 1608l47 266h738l-47 -266h-738z" />
    <glyph glyph-name="uni0306" unicode="&#x306;" horiz-adv-x="0" 
d="M-813 1894h278q8 -82 86 -82q72 0 99 82h278q-35 -153 -135.5 -235t-249.5 -82q-169 0 -262.5 84t-93.5 219v14z" />
    <glyph glyph-name="uni0307" unicode="&#x307;" horiz-adv-x="0" 
d="M-633 1577l55 307h318l-55 -307h-318z" />
    <glyph glyph-name="uni0308" unicode="&#x308;" horiz-adv-x="0" 
d="M-408 1577l56 307h317l-55 -307h-318zM-848 1577l55 307h318l-55 -307h-318z" />
    <glyph glyph-name="uni030A" unicode="&#x30a;" horiz-adv-x="0" 
d="M-698 1780q0 107 82.5 182.5t187.5 75.5q98 0 162.5 -60.5t64.5 -152.5q0 -107 -82.5 -182.5t-187.5 -75.5q-98 0 -162.5 60.5t-64.5 152.5zM-524 1794q0 -29 19 -46t50 -17q32 0 56 22.5t24 56.5q0 29 -19 46.5t-50 17.5q-32 0 -56 -23t-24 -57z" />
    <glyph glyph-name="uni030C" unicode="&#x30c;" horiz-adv-x="0" 
d="M-625 1618l-202 307h317l64 -102l100 102h358l-309 -307h-328z" />
    <glyph glyph-name="uni0326" unicode="&#x326;" horiz-adv-x="573" 
d="M-29 -522l154 368h358l-207 -368h-305z" />
    <glyph glyph-name="uni0400" unicode="&#x400;" horiz-adv-x="1218" 
d="M113 0l252 1434h1024l-70 -390h-594l-25 -143h553l-65 -369h-553l-25 -143h594l-67 -389h-1024zM737 1577l-202 307h378l152 -307h-328z" />
    <glyph glyph-name="uni0401" unicode="&#x401;" horiz-adv-x="1218" 
d="M113 0l252 1434h1024l-70 -390h-594l-25 -143h553l-65 -369h-553l-25 -143h594l-67 -389h-1024zM961 1577l55 307h317l-55 -307h-317zM520 1577l55 307h318l-55 -307h-318z" />
    <glyph glyph-name="uni0402" unicode="&#x402;" horiz-adv-x="1536" 
d="M348 0l182 1034h-358l70 400h1147l-70 -400h-358l-29 -166q25 15 61 27q79 27 185 27q185 0 300 -107t115 -283q0 -238 -145.5 -385t-382.5 -147h-154l66 379h78q40 0 70 22.5t30 59.5q0 38 -33 60t-88 22q-56 0 -121 -21q-29 -11 -45 -20l-90 -502h-430z" />
    <glyph glyph-name="uni0403" unicode="&#x403;" horiz-adv-x="1146" 
d="M113 0l252 1434h983l-74 -420h-553l-178 -1014h-430zM707 1577l258 307h378l-309 -307h-327z" />
    <glyph glyph-name="uni0404" unicode="&#x404;" horiz-adv-x="1515" 
d="M971 532h-338q65 -143 229 -143q83 0 153.5 52t108.5 143h432q-85 -282 -283.5 -443t-449.5 -161q-285 0 -463 178t-178 456q0 144 43 276.5t119 233.5t175 176t215.5 114.5t236.5 39.5q260 0 429.5 -155t186.5 -439h-426q-12 81 -73 132.5t-156 51.5q-75 0 -143.5 -37.5
t-108.5 -105.5h356z" />
    <glyph glyph-name="uni0405" unicode="&#x405;" horiz-adv-x="1320" 
d="M113 492h430v-13q0 -58 51 -94.5t154 -36.5q163 0 163 94q0 67 -159 97l-160 28q-356 70 -356 383q0 106 38.5 198.5t111.5 163t187 111.5t256 41q175 0 308 -53.5t209.5 -161t76.5 -256.5v-51h-440v10q0 63 -44.5 98t-129.5 35q-143 0 -143 -92q0 -28 36 -51.5
t107 -36.5l111 -20q421 -80 421 -393q0 -124 -47 -224t-129.5 -165t-194.5 -99.5t-243 -34.5q-153 0 -272.5 35.5t-193 99t-111 146t-37.5 180.5v62z" />
    <glyph glyph-name="uni0406" unicode="&#x406;" horiz-adv-x="655" 
d="M113 0l252 1434h430l-252 -1434h-430z" />
    <glyph glyph-name="uni0407" unicode="&#x407;" horiz-adv-x="655" 
d="M113 0l252 1434h430l-252 -1434h-430zM666 1577l55 307h317l-55 -307h-317zM225 1577l56 307h317l-55 -307h-318z" />
    <glyph glyph-name="uni0408" unicode="&#x408;" horiz-adv-x="921" 
d="M20 0l74 420h295q73 0 88 82l164 932h430l-192 -1086q-31 -171 -128.5 -259.5t-258.5 -88.5h-472z" />
    <glyph glyph-name="uni0409" unicode="&#x409;" horiz-adv-x="2160" 
d="M-2 -20l70 409h34q85 0 130.5 40t70.5 134l225 871h1076l-72 -410h229q211 0 336 -121t125 -309q0 -135 -45 -248t-122 -188t-179.5 -116.5t-216.5 -41.5h-737l178 1014h-256l-162 -604q-60 -222 -183 -326t-325 -104h-176zM1423 410h246q55 0 89 29.5t34 82.5
q0 41 -28 66.5t-85 25.5h-221z" />
    <glyph glyph-name="uni040A" unicode="&#x40a;" horiz-adv-x="2170" 
d="M113 0l252 1434h430l-80 -451h389l80 451h430l-80 -451h227q211 0 339 -115.5t128 -314.5q0 -237 -160.5 -395t-398.5 -158h-737l100 573h-389l-100 -573h-430zM1430 389h249q50 0 84.5 30.5t34.5 82.5q0 92 -108 92h-224z" />
    <glyph glyph-name="uni040B" unicode="&#x40b;" horiz-adv-x="1536" 
d="M348 0l182 1034h-358l70 400h1147l-70 -400h-358l-29 -166q25 15 61 27q79 27 185 27q175 0 280 -90.5t105 -266.5q0 -55 -15 -141l-73 -424h-431l70 397q2 8 2 29q0 49 -35.5 77.5t-97.5 28.5q-38 0 -84 -16l-31 -14l-90 -502h-430z" />
    <glyph glyph-name="uni040C" unicode="&#x40c;" horiz-adv-x="1341" 
d="M113 0l252 1434h430l-103 -584l410 584h514l-537 -738l291 -696h-479l-242 614l-106 -614h-430zM778 1577l258 307h379l-309 -307h-328z" />
    <glyph glyph-name="uni040D" unicode="&#x40d;" horiz-adv-x="1495" 
d="M113 0l252 1434h430l-113 -635h41l451 635h460l-252 -1434h-430l113 635h-41l-451 -635h-460zM860 1577l-203 307h379l152 -307h-328z" />
    <glyph glyph-name="uni040E" unicode="&#x40e;" horiz-adv-x="1351" 
d="M174 0l68 389h188q36 0 55.5 15t44.5 57l-329 973h450l148 -502h41l303 502h491l-788 -1219q-32 -49 -62 -83t-72.5 -66.5t-97.5 -49t-122 -16.5h-318zM573 1894h279q8 -82 86 -82q71 0 98 82h279q-35 -153 -135.5 -235t-249.5 -82q-169 0 -263 84t-94 219v14z" />
    <glyph glyph-name="uni040F" unicode="&#x40f;" horiz-adv-x="1454" 
d="M113 0l252 1434h430l-179 -1014h369l178 1014h430l-252 -1434h-409l-51 -287h-410l51 287h-409z" />
    <glyph glyph-name="uni0410" unicode="&#x410;" horiz-adv-x="1474" 
d="M-10 0l712 1434h594l209 -1434h-440l-25 215h-471l-98 -215h-481zM737 584h267l-46 389h-40z" />
    <glyph glyph-name="uni0411" unicode="&#x411;" horiz-adv-x="1372" 
d="M113 0l252 1434h1116l-64 -359h-686l-31 -174h293q179 0 293.5 -107t114.5 -282q0 -225 -143.5 -368.5t-356.5 -143.5h-788zM604 358h266q39 0 70 30.5t31 72.5q0 35 -22.5 58.5t-57.5 23.5h-254z" />
    <glyph glyph-name="uni0412" unicode="&#x412;" horiz-adv-x="1392" 
d="M113 0l252 1434h720q186 0 295 -96.5t109 -241.5q0 -176 -109 -293q-44 -49 -106 -86l-2 -10q32 -28 61 -68q64 -89 64 -188q0 -205 -132.5 -328t-342.5 -123h-809zM604 358h266q39 0 70 30.5t31 72.5q0 37 -24 59.5t-56 22.5h-254zM698 891h244q43 0 72.5 31t29.5 71
q0 37 -24.5 59.5t-56.5 22.5h-232z" />
    <glyph glyph-name="uni0413" unicode="&#x413;" horiz-adv-x="1146" 
d="M113 0l252 1434h983l-74 -420h-553l-178 -1014h-430z" />
    <glyph glyph-name="uni0414" unicode="&#x414;" horiz-adv-x="1515" 
d="M-39 -287l123 707q86 0 133 40.5t72 133.5l219 840h1075l-178 -1014h154l-125 -707h-430l51 287h-615l-51 -287h-428zM606 420h369l104 594h-256l-114 -420q-23 -86 -66 -137q-18 -22 -37 -37z" />
    <glyph glyph-name="uni0415" unicode="&#x415;" horiz-adv-x="1218" 
d="M113 0l252 1434h1024l-70 -390h-594l-25 -143h553l-65 -369h-553l-25 -143h594l-67 -389h-1024z" />
    <glyph glyph-name="uni0416" unicode="&#x416;" horiz-adv-x="1894" 
d="M-31 0l492 768l-162 666h481l111 -594l104 594h430l-104 -594l319 594h510l-440 -738l201 -696h-481l-148 625l-108 -625h-431l109 625l-365 -625h-518z" />
    <glyph glyph-name="uni0417" unicode="&#x417;" horiz-adv-x="1310" 
d="M117 502h430v-10q0 -50 49.5 -86.5t130.5 -36.5t122.5 30t41.5 72q0 48 -43 75t-121 27h-145l53 308h194q134 0 134 102q0 34 -41 58t-113 24q-75 0 -111.5 -28t-50.5 -85h-430q38 238 198 375t435 137q126 0 232.5 -33.5t175.5 -89.5t107 -127.5t38 -148.5
q0 -165 -115 -268q-54 -48 -114 -70l-3 -10q39 -20 74 -55q76 -76 76 -201q0 -104 -40.5 -193.5t-116 -156t-190.5 -104.5t-257 -38q-287 0 -445.5 126t-158.5 345q0 41 4 62z" />
    <glyph glyph-name="uni0418" unicode="&#x418;" horiz-adv-x="1495" 
d="M113 0l252 1434h430l-113 -635h41l451 635h460l-252 -1434h-430l113 635h-41l-451 -635h-460z" />
    <glyph glyph-name="uni0419" unicode="&#x419;" horiz-adv-x="1495" 
d="M113 0l252 1434h430l-113 -635h41l451 635h460l-252 -1434h-430l113 635h-41l-451 -635h-460zM684 1894h279q8 -82 86 -82q71 0 98 82h278q-35 -153 -135.5 -235t-249.5 -82q-169 0 -262.5 84t-93.5 219v14z" />
    <glyph glyph-name="uni041A" unicode="&#x41a;" horiz-adv-x="1341" 
d="M113 0l252 1434h430l-103 -584l410 584h514l-537 -738l291 -696h-479l-242 614l-106 -614h-430z" />
    <glyph glyph-name="uni041B" unicode="&#x41b;" horiz-adv-x="1464" 
d="M-2 -20l70 409h34q85 0 130.5 40t70.5 134l225 871h1076l-252 -1434h-430l178 1014h-256l-162 -604q-60 -222 -183 -326t-325 -104h-176z" />
    <glyph glyph-name="uni041C" unicode="&#x41c;" horiz-adv-x="1925" 
d="M113 0l252 1434h604l86 -676h41l323 676h645l-252 -1434h-430l119 676h-41l-323 -676h-349l-86 676h-40l-119 -676h-430z" />
    <glyph glyph-name="uni041D" unicode="&#x41d;" horiz-adv-x="1474" 
d="M113 0l252 1434h430l-86 -492h389l86 492h430l-252 -1434h-430l88 502h-389l-88 -502h-430z" />
    <glyph glyph-name="uni041E" unicode="&#x41e;" horiz-adv-x="1536" 
d="M182 614q0 178 66 336.5t175 267.5t252 172.5t296 63.5q187 0 332.5 -81.5t225 -226t79.5 -327.5q0 -178 -66 -336.5t-175 -267.5t-252 -172t-296 -63q-140 0 -259 47.5t-202 131t-129.5 201t-46.5 254.5zM860 399q125 0 221.5 106t96.5 271q0 121 -68.5 189.5
t-179.5 68.5q-126 0 -222 -106t-96 -271q0 -121 68.5 -189.5t179.5 -68.5z" />
    <glyph glyph-name="uni041F" unicode="&#x41f;" horiz-adv-x="1454" 
d="M113 0l252 1434h1228l-252 -1434h-430l179 1014h-369l-178 -1014h-430z" />
    <glyph glyph-name="uni0420" unicode="&#x420;" horiz-adv-x="1402" 
d="M113 0l252 1434h669q196 0 323.5 -119.5t127.5 -323.5q0 -141 -45 -259.5t-122 -197t-179.5 -122t-216.5 -43.5h-316l-63 -369h-430zM680 778h252q48 0 85.5 41.5t37.5 100.5q0 47 -28 75.5t-75 28.5h-229z" />
    <glyph glyph-name="uni0421" unicode="&#x421;" horiz-adv-x="1515" 
d="M1124 594h432q-85 -288 -283 -451t-450 -163q-285 0 -463 178t-178 456q0 144 43 276.5t119 233.5t175 176t215.5 114.5t236.5 39.5q127 0 237.5 -40.5t193.5 -116t132 -190.5t53 -257h-426q-12 81 -73 132.5t-156 51.5q-130 0 -225 -107t-95 -270q0 -120 70.5 -189
t179.5 -69q83 0 153.5 52t108.5 143z" />
    <glyph glyph-name="uni0422" unicode="&#x422;" 
d="M389 0l178 1014h-358l74 420h1147l-74 -420h-359l-178 -1014h-430z" />
    <glyph glyph-name="uni0423" unicode="&#x423;" horiz-adv-x="1351" 
d="M174 0l68 389h188q36 0 55.5 15t44.5 57l-329 973h450l148 -502h41l303 502h491l-788 -1219q-32 -49 -62 -83t-72.5 -66.5t-97.5 -49t-122 -16.5h-318z" />
    <glyph glyph-name="uni0424" unicode="&#x424;" horiz-adv-x="1802" 
d="M676 -41l39 225q-255 17 -398 152t-143 340q0 181 88 322t239 216.5t339 75.5h71l31 185h430l-31 -185q255 -17 398 -151.5t143 -339.5q0 -181 -87.5 -322t-238.5 -217t-339 -76h-72l-39 -225h-430zM1276 922l-66 -369h27q94 0 154.5 58.5t60.5 156.5q0 139 -176 154z
M780 553l66 369h-27q-94 0 -154.5 -58.5t-60.5 -156.5q0 -139 176 -154z" />
    <glyph glyph-name="uni0425" unicode="&#x425;" horiz-adv-x="1372" 
d="M-41 0l590 737l-307 697h471l123 -349h41l245 349h512l-553 -697l332 -737h-471l-149 379h-41l-281 -379h-512z" />
    <glyph glyph-name="uni0426" unicode="&#x426;" horiz-adv-x="1525" 
d="M113 0l252 1434h430l-179 -1014h369l178 1014h430l-178 -1014h154l-125 -707h-430l51 287h-952z" />
    <glyph glyph-name="uni0427" unicode="&#x427;" horiz-adv-x="1402" 
d="M860 0l74 414q-36 -20 -64 -29q-83 -27 -194 -27q-227 0 -338 111t-111 295q0 65 15 147l92 523h430l-84 -476q-6 -30 -6 -49q0 -63 39 -97t116 -34q78 0 129 23q26 10 46 24l108 609h430l-252 -1434h-430z" />
    <glyph glyph-name="uni0428" unicode="&#x428;" horiz-adv-x="2007" 
d="M113 0l252 1434h430l-179 -1014h246l178 1014h430l-178 -1014h246l178 1014h430l-252 -1434h-1781z" />
    <glyph glyph-name="uni0429" unicode="&#x429;" horiz-adv-x="2078" 
d="M113 0l252 1434h430l-179 -1014h246l178 1014h430l-178 -1014h246l178 1014h430l-178 -1014h154l-125 -707h-430l51 287h-1505z" />
    <glyph glyph-name="uni042A" unicode="&#x42a;" horiz-adv-x="1546" 
d="M307 0l178 1014h-317l74 420h747l-71 -410h229q211 0 336 -121t125 -309q0 -135 -45 -248t-122.5 -188t-180 -116.5t-216.5 -41.5h-737zM809 410h246q55 0 89 29.5t34 82.5q0 41 -28 66.5t-85 25.5h-221z" />
    <glyph glyph-name="uni042B" unicode="&#x42b;" horiz-adv-x="1945" 
d="M1403 0l252 1434h430l-252 -1434h-430zM113 0l252 1434h430l-72 -410h209q211 0 336 -121t125 -309q0 -135 -45 -248t-122.5 -188t-180 -116.5t-216.5 -41.5h-716zM614 410h226q55 0 89 29.5t34 82.5q0 41 -28 66.5t-85 25.5h-201z" />
    <glyph glyph-name="uni042C" unicode="&#x42c;" horiz-adv-x="1372" 
d="M113 0l252 1434h430l-72 -410h250q211 0 336 -121t125 -309q0 -135 -45 -248t-122.5 -188t-180 -116.5t-216.5 -41.5h-757zM614 410h267q55 0 89 29.5t34 82.5q0 41 -28 66.5t-85 25.5h-242z" />
    <glyph glyph-name="uni042D" unicode="&#x42d;" horiz-adv-x="1505" 
d="M172 584h426q11 -89 70 -142t159 -53q75 0 143.5 37.5t108.5 105.5h-356l65 369h338q-65 143 -229 143q-88 0 -156 -51.5t-102 -132.5h-432q85 279 283 436.5t446 157.5q284 0 462.5 -178.5t178.5 -456.5q0 -180 -66.5 -338.5t-176.5 -267t-253 -171t-293 -62.5
q-268 0 -436 159.5t-180 444.5z" />
    <glyph glyph-name="uni042E" unicode="&#x42e;" horiz-adv-x="2058" 
d="M113 0l252 1434h430l-88 -502h114q58 157 168.5 276t249.5 182.5t287 63.5q267 0 436.5 -173t169.5 -450q0 -150 -42 -284.5t-115 -236.5t-169 -177t-208 -114t-228 -39q-247 0 -410 145t-192 387h-135l-90 -512h-430zM1407 399q52 0 104 26.5t95 74.5t69.5 124t26.5 167
q0 114 -59.5 178.5t-153.5 64.5q-52 0 -104 -26.5t-95 -74t-69.5 -123.5t-26.5 -167q0 -114 59.5 -179t153.5 -65z" />
    <glyph glyph-name="uni042F" unicode="&#x42f;" horiz-adv-x="1392" 
d="M31 0l415 442q-231 120 -231 398q0 131 48 244t128 188.5t183 118.5t214 43h754l-252 -1434h-430l72 410h-21l-358 -410h-522zM758 788h239l45 246h-254q-55 0 -94 -41t-39 -102q0 -47 28 -75t75 -28z" />
    <glyph glyph-name="uni0430" unicode="&#x430;" horiz-adv-x="1177" 
d="M741 0l-8 72h-10q-20 -26 -55 -47q-76 -45 -193 -45q-167 0 -270 82.5t-103 213.5q0 176 120 277.5t315 101.5h278l2 9q4 28 4 32q0 43 -30.5 67.5t-79.5 24.5q-76 0 -111 -61h-379q38 175 173 277t347 102q214 0 347 -109.5t133 -279.5q0 -45 -9 -86l-112 -631h-359z
M772 408l2 12h-166q-47 0 -71.5 -20t-24.5 -56q0 -28 27.5 -48t78.5 -20q131 0 154 132z" />
    <glyph glyph-name="uni0431" unicode="&#x431;" horiz-adv-x="1239" 
d="M668 911h10q21 15 53 31q78 31 146 31q192 0 305.5 -121.5t113.5 -296.5q0 -118 -47.5 -224t-129.5 -183.5t-198.5 -122.5t-248.5 -45q-257 0 -391 139t-134 383q0 96 19 194q16 94 41 174.5t52 138.5t65 109.5t68 83.5t73.5 64.5t69.5 48.5t67 39q37 20 97.5 34.5
t97.5 19.5t125 15q70 7 96 31.5t37 81.5h379q-42 -234 -127.5 -334t-270.5 -117q-19 -2 -66 -5t-68.5 -5t-53 -8t-55.5 -16q-71 -32 -101 -84q-13 -24 -24 -56zM588 475q0 -55 35 -91t94 -36q67 0 113.5 48t46.5 122q0 55 -35 91t-94 36q-67 0 -113.5 -48t-46.5 -122z" />
    <glyph glyph-name="uni0432" unicode="&#x432;" horiz-adv-x="1167" 
d="M92 0l191 1085h639q143 0 229 -78t86 -188q0 -127 -84 -215q-36 -36 -84 -61l-2 -11q34 -26 51 -51q53 -69 53 -153q0 -140 -103.5 -234t-268.5 -94h-707zM537 266h139q32 0 56 23t24 59q0 26 -17 44t-53 18h-123zM610 676h119q32 0 55 22.5t23 59.5q0 29 -17 45t-42 16
h-113z" />
    <glyph glyph-name="uni0433" unicode="&#x433;" horiz-adv-x="962" 
d="M92 0l191 1085h819l-66 -368h-420l-124 -717h-400z" />
    <glyph glyph-name="uni0434" unicode="&#x434;" horiz-adv-x="1280" 
d="M-33 -246l107 615q140 0 180 143l152 573h901l-127 -716h143l-109 -615h-399l45 246h-450l-45 -246h-398zM545 369h235l62 348h-144l-55 -205q-21 -75 -61 -115q-14 -17 -37 -28z" />
    <glyph glyph-name="uni0435" unicode="&#x435;" horiz-adv-x="1239" 
d="M842 338h389q-74 -157 -220.5 -257.5t-346.5 -100.5q-230 0 -376.5 142.5t-146.5 354.5q0 173 87.5 318.5t232 228t309.5 82.5q227 0 369.5 -137.5t142.5 -352.5q0 -52 -12 -118q-7 -32 -10 -58h-742q5 -69 53.5 -111t126.5 -42q72 0 111 24q17 7 33 27zM555 645h358
q0 71 -43.5 117.5t-119.5 46.5q-66 0 -119.5 -41t-75.5 -123z" />
    <glyph glyph-name="uni0436" unicode="&#x436;" horiz-adv-x="1648" 
d="M-31 0l365 573l-137 512h436l100 -481l84 481h400l-84 -481l268 481h452l-342 -553l154 -532h-434l-117 502l-88 -502h-399l88 502l-293 -502h-453z" />
    <glyph glyph-name="uni0437" unicode="&#x437;" horiz-adv-x="1126" 
d="M100 379h389v-10q0 -34 36 -58t104 -24q114 0 114 82q0 61 -135 61h-108l43 246h147q101 0 101 82q0 27 -29 44t-82 17q-108 0 -119 -92h-389q21 169 159.5 279t368.5 110q111 0 205 -28.5t155 -75t94.5 -105t33.5 -119.5q0 -114 -88 -186q-37 -34 -86 -49l-2 -10
q29 -18 57 -49q59 -63 59 -156q0 -70 -31.5 -134.5t-92 -118t-160.5 -85t-226 -31.5t-227.5 31.5t-164 85t-95.5 120.5t-33 142q0 25 2 31z" />
    <glyph glyph-name="uni0438" unicode="&#x438;" horiz-adv-x="1239" 
d="M92 0l191 1085h399l-72 -409h41l267 409h419l-190 -1085h-399l71 410h-41l-266 -410h-420z" />
    <glyph glyph-name="uni0439" unicode="&#x439;" horiz-adv-x="1239" 
d="M92 0l191 1085h399l-72 -409h41l267 409h419l-190 -1085h-399l71 410h-41l-266 -410h-420zM489 1526h279q8 -82 86 -82q71 0 98 82h279q-35 -153 -135.5 -235.5t-249.5 -82.5q-169 0 -263 84t-94 219v15z" />
    <glyph glyph-name="uni043A" unicode="&#x43a;" horiz-adv-x="1208" 
d="M92 0l191 1085h399l-84 -471l371 471h456l-448 -553l252 -532h-430l-221 492l-86 -492h-400z" />
    <glyph glyph-name="uni043B" unicode="&#x43b;" horiz-adv-x="1218" 
d="M-2 -20l61 368h43q62 0 100 33.5t58 110.5l156 593h901l-191 -1085h-399l125 717h-143l-95 -348q-56 -212 -159 -300.5t-281 -88.5h-176z" />
    <glyph glyph-name="uni043C" unicode="&#x43c;" horiz-adv-x="1617" 
d="M92 0l191 1085h522l67 -491h41l240 491h563l-190 -1085h-400l80 461h-41l-223 -461h-266l-64 461h-41l-79 -461h-400z" />
    <glyph glyph-name="uni043D" unicode="&#x43d;" horiz-adv-x="1218" 
d="M92 0l191 1085h399l-64 -358h236l64 358h399l-191 -1085h-399l61 358h-235l-61 -358h-400z" />
    <glyph glyph-name="uni043E" unicode="&#x43e;" horiz-adv-x="1249" 
d="M141 477q0 173 87.5 318.5t232 228t309.5 82.5q230 0 376 -143t146 -355q0 -130 -51.5 -247.5t-137 -200.5t-200.5 -131.5t-239 -48.5q-230 0 -376.5 142.5t-146.5 354.5zM696 348q76 0 136.5 62t60.5 165q0 73 -44.5 117.5t-111.5 44.5q-76 0 -136 -62t-60 -165
q0 -74 44 -118t111 -44z" />
    <glyph glyph-name="uni043F" unicode="&#x43f;" horiz-adv-x="1218" 
d="M92 0l191 1085h1034l-191 -1085h-399l125 717h-236l-124 -717h-400z" />
    <glyph glyph-name="uni0440" unicode="&#x440;" horiz-adv-x="1290" 
d="M18 -410l265 1495h358l8 -71h10q20 22 60 45q84 47 188 47q190 0 310 -134t120 -339q0 -119 -32.5 -224.5t-88.5 -182.5t-128 -133.5t-152.5 -84.5t-161.5 -28q-116 0 -196 43q-42 23 -66 45h-10l-84 -478h-400zM739 348q76 0 137.5 63.5t61.5 166.5q0 72 -44.5 115.5
t-111.5 43.5q-76 0 -137 -63t-61 -166q0 -72 44 -116t111 -44z" />
    <glyph glyph-name="uni0441" unicode="&#x441;" horiz-adv-x="1249" 
d="M852 451h418q-28 -96 -78 -178t-123 -149t-177 -105.5t-228 -38.5q-230 0 -376.5 142.5t-146.5 354.5q0 173 87.5 318.5t232 228t309.5 82.5q226 0 369 -125.5t155 -345.5h-407q-11 50 -46 76t-104 26q-76 0 -136 -62t-60 -165q0 -74 44 -118t111 -44q59 0 95 26t61 77z
" />
    <glyph glyph-name="uni0442" unicode="&#x442;" horiz-adv-x="1095" 
d="M338 0l125 717h-307l65 368h1014l-66 -368h-307l-127 -717h-397z" />
    <glyph glyph-name="uni0443" unicode="&#x443;" horiz-adv-x="1239" 
d="M49 -410l66 369h223q27 0 43 23q9 9 14 22l-225 1081h410l94 -573h41l264 573h451l-674 -1269q-61 -116 -135 -171t-191 -55h-381z" />
    <glyph glyph-name="uni0444" unicode="&#x444;" horiz-adv-x="1628" 
d="M537 -410l73 410q-223 7 -357 138t-134 333q0 173 77 312.5t219.5 220.5t323.5 81h62l61 349h400l-62 -349q223 -7 357.5 -138t134.5 -333q0 -129 -45.5 -242.5t-126 -195.5t-197 -129t-252.5 -47h-61l-74 -410h-399zM1135 717l-62 -348h29q78 0 129 54t51 140
q0 141 -147 154zM676 369l61 348h-28q-78 0 -129.5 -54.5t-51.5 -140.5q0 -140 148 -153z" />
    <glyph glyph-name="uni0445" unicode="&#x445;" horiz-adv-x="1146" 
d="M-31 0l445 553l-234 532h410l88 -256h41l178 256h451l-422 -532l252 -553h-410l-106 276h-41l-201 -276h-451z" />
    <glyph glyph-name="uni0446" unicode="&#x446;" horiz-adv-x="1290" 
d="M92 0l191 1085h399l-127 -716h236l127 716h399l-127 -716h143l-108 -615h-400l45 246h-778z" />
    <glyph glyph-name="uni0447" unicode="&#x447;" horiz-adv-x="1167" 
d="M676 0l53 301q-15 -9 -53 -22q-58 -23 -144 -23q-169 0 -263.5 90.5t-94.5 245.5q0 52 10 106l68 387h399l-57 -329q-4 -28 -4 -33q0 -42 24.5 -65t71.5 -23q48 0 80 14q25 15 27 17l73 419h400l-191 -1085h-399z" />
    <glyph glyph-name="uni0448" unicode="&#x448;" horiz-adv-x="1710" 
d="M92 0l191 1085h399l-127 -716h164l127 716h399l-127 -716h164l127 716h399l-190 -1085h-1526z" />
    <glyph glyph-name="uni0449" unicode="&#x449;" horiz-adv-x="1781" 
d="M92 0l191 1085h399l-127 -716h164l127 716h399l-127 -716h164l127 716h399l-127 -716h144l-109 -615h-399l45 246h-1270z" />
    <glyph glyph-name="uni044A" unicode="&#x44a;" horiz-adv-x="1280" 
d="M266 0l125 717h-256l66 368h655l-53 -307h149q167 0 268 -96.5t101 -251.5q0 -183 -128 -306.5t-312 -123.5h-615zM717 297h92q40 0 71 28.5t31 73.5q0 37 -24.5 59.5t-57.5 22.5h-79z" />
    <glyph glyph-name="uni044B" unicode="&#x44b;" horiz-adv-x="1648" 
d="M1157 0l191 1085h399l-191 -1085h-399zM543 297h92q40 0 71 28.5t31 73.5q0 37 -24.5 59.5t-57.5 22.5h-80zM92 0l191 1085h399l-53 -307h149q167 0 268 -96.5t101 -251.5q0 -183 -128 -306.5t-312 -123.5h-615z" />
    <glyph glyph-name="uni044C" unicode="&#x44c;" horiz-adv-x="1126" 
d="M543 297h112q41 0 72 28.5t31 73.5q0 37 -24.5 59.5t-57.5 22.5h-101zM92 0l191 1085h399l-53 -307h170q167 0 267.5 -96.5t100.5 -251.5q0 -183 -128 -306.5t-312 -123.5h-635z" />
    <glyph glyph-name="uni044D" unicode="&#x44d;" horiz-adv-x="1239" 
d="M129 430h381q8 -59 50.5 -96t123.5 -37q43 0 89 26t73 76h-262l51 287h256q-16 51 -61.5 76.5t-104.5 25.5q-64 0 -114 -41t-70 -92h-381q29 95 81 175t126 142.5t175 98t218 35.5q230 0 376 -143t146 -355q0 -130 -51.5 -247.5t-137.5 -200.5t-201 -131.5t-239 -48.5
q-226 0 -366.5 123t-157.5 327z" />
    <glyph glyph-name="uni044E" unicode="&#x44e;" horiz-adv-x="1720" 
d="M92 0l191 1085h399l-64 -358h80q73 173 225 276t332 103q226 0 366 -137.5t140 -352.5q0 -137 -50.5 -257t-135 -202.5t-196 -129.5t-232.5 -47q-190 0 -320.5 103.5t-167.5 274.5h-106l-61 -358h-400zM1180 348q69 0 125.5 64t56.5 170q0 71 -37 113t-94 42
q-69 0 -125.5 -63.5t-56.5 -169.5q0 -71 37 -113.5t94 -42.5z" />
    <glyph glyph-name="uni044F" unicode="&#x44f;" horiz-adv-x="1167" 
d="M10 0l342 375q-51 24 -88 63q-86 94 -86 219q0 183 125.5 305.5t310.5 122.5h672l-190 -1085h-400l60 348l-295 -348h-451zM666 625h139l29 163h-156q-34 0 -62 -25t-28 -65q0 -32 21.5 -52.5t56.5 -20.5z" />
    <glyph glyph-name="uni0450" unicode="&#x450;" horiz-adv-x="1239" 
d="M842 338h389q-74 -157 -220.5 -257.5t-346.5 -100.5q-230 0 -376.5 142.5t-146.5 354.5q0 173 87.5 318.5t232 228t309.5 82.5q227 0 369.5 -137.5t142.5 -352.5q0 -52 -12 -118q-7 -32 -10 -58h-742q5 -69 53.5 -111t126.5 -42q72 0 111 24q17 7 33 27zM555 645h358
q0 71 -43.5 117.5t-119.5 46.5q-66 0 -119.5 -41t-75.5 -123zM631 1208l-203 308h379l151 -308h-327z" />
    <glyph glyph-name="uni0451" unicode="&#x451;" horiz-adv-x="1239" 
d="M842 338h389q-74 -157 -220.5 -257.5t-346.5 -100.5q-230 0 -376.5 142.5t-146.5 354.5q0 173 87.5 318.5t232 228t309.5 82.5q227 0 369.5 -137.5t142.5 -352.5q0 -52 -12 -118q-7 -32 -10 -58h-742q5 -69 53.5 -111t126.5 -42q72 0 111 24q17 7 33 27zM555 645h358
q0 71 -43.5 117.5t-119.5 46.5q-66 0 -119.5 -41t-75.5 -123zM881 1208l55 308h317l-55 -308h-317zM440 1208l56 308h317l-55 -308h-318z" />
    <glyph glyph-name="uni0452" unicode="&#x452;" horiz-adv-x="1300" 
d="M154 0l182 1034h-133l57 328h133l23 133h399l-22 -133h327l-57 -328h-328l-28 -160h10q19 17 57 33q85 35 166 35q175 0 275 -97t100 -259q0 -41 -12 -111l-84 -463q-38 -209 -158 -315.5t-313 -106.5h-177l66 369h80q47 0 75.5 27t36.5 75l60 336q4 28 4 37q0 51 -32 85
t-85 34q-59 0 -98.5 -37t-50.5 -94l-74 -422h-399z" />
    <glyph glyph-name="uni0453" unicode="&#x453;" horiz-adv-x="962" 
d="M92 0l191 1085h819l-66 -368h-420l-124 -717h-400zM532 1208l259 308h378l-309 -308h-328z" />
    <glyph glyph-name="uni0454" unicode="&#x454;" horiz-adv-x="1239" 
d="M788 399h-256q16 -51 61.5 -76.5t104.5 -25.5q64 0 114.5 41t70.5 92h381q-29 -95 -81 -174.5t-126 -142t-175 -98t-218 -35.5q-230 0 -376.5 142.5t-146.5 354.5q0 173 87.5 318.5t232 228t309.5 82.5q226 0 366.5 -123.5t157.5 -327.5h-381q-8 59 -50.5 96t-123.5 37
q-43 0 -88.5 -26t-72.5 -76h262z" />
    <glyph glyph-name="uni0455" unicode="&#x455;" horiz-adv-x="1085" 
d="M86 338h389v-10q0 -72 127 -72q107 0 107 72q0 25 -19.5 40t-77.5 25l-73 10q-373 51 -373 324q0 78 31 147.5t91 124t157 86t219 31.5t220 -29.5t158 -79.5t91.5 -111t31.5 -128v-20h-389v10q0 32 -28.5 51.5t-83.5 19.5q-51 0 -77 -18t-26 -43q0 -29 21 -44t75 -22
l78 -10q177 -24 274 -105t97 -218q0 -177 -130 -288.5t-374 -111.5q-233 0 -374.5 99.5t-141.5 250.5v19z" />
    <glyph glyph-name="uni0456" unicode="&#x456;" horiz-adv-x="583" 
d="M92 0l191 1085h399l-190 -1085h-400zM305 1208l53 308h400l-53 -308h-400z" />
    <glyph glyph-name="uni0457" unicode="&#x457;" horiz-adv-x="583" 
d="M92 0l191 1085h399l-190 -1085h-400zM561 1208l55 308h318l-55 -308h-318zM121 1208l55 308h318l-56 -308h-317z" />
    <glyph glyph-name="uni0458" unicode="&#x458;" horiz-adv-x="583" 
d="M305 1208l53 308h400l-53 -308h-400zM-215 -410l65 369h170q37 0 52.5 16t23.5 56l187 1054h399l-207 -1167q-55 -328 -383 -328h-307z" />
    <glyph glyph-name="uni0459" unicode="&#x459;" horiz-adv-x="1740" 
d="M-2 -20l61 368h43q62 0 100 33.5t58 110.5l156 593h901l-53 -307h149q167 0 268 -96.5t101 -251.5q0 -183 -128.5 -306.5t-312.5 -123.5h-614l125 717h-143l-95 -348q-56 -212 -159 -300.5t-281 -88.5h-176zM1178 297h92q40 0 71 28.5t31 73.5q0 37 -24.5 59.5
t-57.5 22.5h-80z" />
    <glyph glyph-name="uni045A" unicode="&#x45a;" horiz-adv-x="1740" 
d="M1178 297h92q47 0 74.5 25t27.5 67q0 31 -22.5 51.5t-59.5 20.5h-84zM92 0l191 1085h399l-55 -317h235l56 317h399l-57 -327h153q170 0 269.5 -98.5t99.5 -239.5q0 -178 -125 -299t-316 -121h-614l70 399h-236l-69 -399h-400z" />
    <glyph glyph-name="uni045B" unicode="&#x45b;" horiz-adv-x="1300" 
d="M154 0l182 1034h-133l57 328h133l23 133h399l-22 -133h327l-57 -328h-328l-28 -160h10q19 17 57 33q85 35 166 35q175 0 275 -97t100 -259q0 -41 -12 -111l-84 -475h-400l70 397q4 28 4 37q0 51 -32 85t-85 34q-59 0 -98.5 -37t-50.5 -94l-74 -422h-399z" />
    <glyph glyph-name="uni045C" unicode="&#x45c;" horiz-adv-x="1208" 
d="M92 0l191 1085h399l-84 -471l371 471h456l-448 -553l252 -532h-430l-221 492l-86 -492h-400zM645 1208l258 308h379l-309 -308h-328z" />
    <glyph glyph-name="uni045D" unicode="&#x45d;" horiz-adv-x="1239" 
d="M92 0l191 1085h399l-72 -409h41l267 409h419l-190 -1085h-399l71 410h-41l-266 -410h-420zM653 1208l-202 308h378l152 -308h-328z" />
    <glyph glyph-name="uni045E" unicode="&#x45e;" horiz-adv-x="1239" 
d="M49 -410l66 369h223q27 0 43 23q9 9 14 22l-225 1081h410l94 -573h41l264 573h451l-674 -1269q-61 -116 -135 -171t-191 -55h-381zM446 1526h279q8 -82 86 -82q71 0 98 82h279q-35 -153 -135.5 -235.5t-249.5 -82.5q-169 0 -263 84t-94 219v15z" />
    <glyph glyph-name="uni045F" unicode="&#x45f;" horiz-adv-x="1218" 
d="M92 0l191 1085h399l-127 -716h236l127 716h399l-191 -1085h-327l-45 -246h-379l45 246h-328z" />
    <glyph glyph-name="uni0462" unicode="&#x462;" horiz-adv-x="1429" 
d="M213 0l176 1004h-223l55 317h223l21 113h430l-21 -113h371l-55 -317h-371l-10 -62h215q209 0 338 -113t129 -297q0 -236 -154.5 -384t-394.5 -148h-729zM715 410h237q109 0 109 92q0 71 -98 71h-220z" />
    <glyph glyph-name="uni0463" unicode="&#x463;" horiz-adv-x="1259" 
d="M246 0l153 881h-235l61 348h236l37 205h399l-37 -205h277l-62 -348h-276l-17 -103h150q167 0 267.5 -96.5t100.5 -251.5q0 -183 -128 -306.5t-312 -123.5h-614zM696 297h92q41 0 72 28.5t31 73.5q0 37 -24.5 59.5t-57.5 22.5h-80z" />
    <glyph glyph-name="uni046A" unicode="&#x46a;" horiz-adv-x="1761" 
d="M1026 850l264 205h-461zM72 0l39 225q8 45 18.5 87.5t30.5 97t45.5 102t64 97.5t85 89t110.5 71.5t139 49.5l-258 277l60 338h1484l-59 -338l-379 -295q89 -29 152.5 -83t96.5 -121t47.5 -133t14.5 -136q0 -68 -18 -178l-25 -150h-420l29 172q12 86 12 119
q0 105 -40.5 163t-104.5 58l-90 -512h-420l90 512q-88 0 -156.5 -79t-93.5 -228l-34 -205h-420z" />
    <glyph glyph-name="uni046B" unicode="&#x46b;" horiz-adv-x="1474" 
d="M678 768l166 -154h10l223 154h-399zM440 0h-389l21 96q86 404 411 508l-202 184l53 297h1218l-53 -297l-289 -202q258 -111 258 -434q0 -60 -14 -152h-389q20 109 20 184q0 60 -16.5 87.5t-60.5 45.5l-56 -317h-399l55 317q-59 -12 -92.5 -64t-60.5 -181q-3 -13 -8 -37.5
t-7 -34.5z" />
    <glyph glyph-name="uni0472" unicode="&#x472;" horiz-adv-x="1536" 
d="M182 614q0 178 66 336.5t175 267.5t252 172.5t296 63.5q187 0 332.5 -81.5t225 -226t79.5 -327.5q0 -178 -66 -336.5t-175 -267.5t-252 -172t-296 -63q-140 0 -259 47.5t-202 131t-129.5 201t-46.5 254.5zM1194 850q-62 205 -264 205q-96 0 -174 -58t-117 -147l37 10
q38 10 82 10q78 0 155.5 -20.5t141.5 -20.5q51 0 100 11q22 3 39 10zM635 594l-39 -10q62 -205 264 -205q96 0 174 58t117 147q-22 -9 -37 -11q-42 -10 -82 -10q-78 0 -155.5 20.5t-141.5 20.5q-58 0 -100 -10z" />
    <glyph glyph-name="uni0473" unicode="&#x473;" horiz-adv-x="1249" 
d="M141 477q0 173 87.5 318.5t232 228t309.5 82.5q230 0 376 -143t146 -355q0 -130 -51.5 -247.5t-137 -200.5t-200.5 -131.5t-239 -48.5q-230 0 -376.5 142.5t-146.5 354.5zM553 461l-25 -10q20 -61 63.5 -92t104.5 -31q57 0 107.5 31.5t81.5 91.5l-29 -7q-32 -4 -65 -4
q-36 0 -87.5 15.5t-87.5 15.5t-63 -10zM905 635q-41 123 -168 123q-57 0 -107 -31.5t-81 -91.5l29 4q48 6 65 6q36 0 87 -15.5t87 -15.5q31 0 64 11q13 3 24 10z" />
    <glyph glyph-name="uni0474" unicode="&#x474;" horiz-adv-x="1495" 
d="M420 0l-189 1434h441l100 -881h41l279 596q77 164 182.5 234.5t251.5 70.5q76 0 162 -31q41 -18 63 -30l-72 -402l-26 17q-32 16 -56 16q-54 0 -90.5 -35.5t-79.5 -128.5l-413 -860h-594z" />
    <glyph glyph-name="uni0475" unicode="&#x475;" horiz-adv-x="1239" 
d="M328 0l-148 1085h389l56 -614h41l149 338q72 164 155.5 230.5t227.5 66.5q84 0 154 -25q37 -10 63 -24l-61 -348q-18 9 -23 14q-33 14 -51 14q-48 0 -78.5 -27t-66.5 -104l-295 -606h-512z" />
    <glyph glyph-name="uni048A" unicode="&#x48a;" horiz-adv-x="1556" 
d="M113 0l252 1434h430l-113 -635h41l451 635h460l-178 -1014h205l-14 -72l-326 -635h-307l102 287h-164l113 635h-41l-451 -635h-460zM686 1894h279q8 -82 86 -82q71 0 98 82h278q-35 -153 -135.5 -235t-249.5 -82q-169 0 -262.5 84t-93.5 219v14z" />
    <glyph glyph-name="uni048B" unicode="&#x48b;" horiz-adv-x="1310" 
d="M92 0l191 1085h399l-72 -409h41l267 409h419l-125 -716h183l-11 -62l-313 -553h-266l86 246h-143l71 410h-41l-266 -410h-420zM489 1511v15h279q8 -82 86 -82q71 0 98 82h279q-35 -153 -135.5 -235.5t-249.5 -82.5q-169 0 -263 84t-94 219z" />
    <glyph glyph-name="uni048C" unicode="&#x48c;" horiz-adv-x="1429" 
d="M213 0l176 1004h-223l55 317h223l21 113h430l-21 -113h371l-55 -317h-371l-10 -62h215q209 0 338 -113t129 -297q0 -236 -154.5 -384t-394.5 -148h-729zM715 410h237q109 0 109 92q0 71 -98 71h-220z" />
    <glyph glyph-name="uni048D" unicode="&#x48d;" horiz-adv-x="1259" 
d="M246 0l153 881h-235l61 348h236l37 205h399l-37 -205h277l-62 -348h-276l-17 -103h150q167 0 267.5 -96.5t100.5 -251.5q0 -183 -128 -306.5t-312 -123.5h-614zM696 297h92q41 0 72 28.5t31 73.5q0 37 -24.5 59.5t-57.5 22.5h-80z" />
    <glyph glyph-name="uni048E" unicode="&#x48e;" horiz-adv-x="1402" 
d="M113 0l252 1434h669q196 0 323.5 -119.5t127.5 -323.5q0 -183 -69.5 -322t-192.5 -212l65 -129l-227 -113l-78 158q-36 -4 -61 -4h-316l-63 -369h-430zM680 778h100l-37 72l226 113l61 -123q25 31 25 80q0 47 -28 75.5t-75 28.5h-229z" />
    <glyph glyph-name="uni048F" unicode="&#x48f;" horiz-adv-x="1290" 
d="M18 -410l265 1495h358l8 -71h10q20 22 60 45q84 47 188 47q190 0 310 -134t120 -339q0 -178 -67.5 -316.5t-182.5 -224.5l70 -147l-207 -121l-78 166q-41 -10 -98 -10q-116 0 -196 43q-42 23 -66 45h-10l-84 -478h-400zM705 352l-52 109l207 119l53 -115q25 55 25 113
q0 72 -44.5 115.5t-111.5 43.5q-76 0 -137 -63t-61 -166q0 -64 32.5 -104.5t88.5 -51.5z" />
    <glyph glyph-name="uni0490" unicode="&#x490;" horiz-adv-x="1146" 
d="M113 0l252 1434h573l51 286h410l-125 -706h-553l-178 -1014h-430z" />
    <glyph glyph-name="uni0491" unicode="&#x491;" horiz-adv-x="962" 
d="M92 0l191 1085h440l45 256h379l-111 -624h-420l-124 -717h-400z" />
    <glyph glyph-name="uni0492" unicode="&#x492;" horiz-adv-x="1259" 
d="M225 0l90 512h-204l63 369h205l98 553h983l-69 -390h-553l-29 -163h369l-64 -369h-369l-90 -512h-430z" />
    <glyph glyph-name="uni0493" unicode="&#x493;" horiz-adv-x="1044" 
d="M174 0l53 307h-174l53 307h175l84 471h819l-62 -348h-420l-22 -123h297l-53 -307h-297l-54 -307h-399z" />
    <glyph glyph-name="uni0494" unicode="&#x494;" horiz-adv-x="1361" 
d="M113 0l252 1434h1003l-74 -420h-573l-29 -162l41 14q77 15 148 15q232 0 370 -138t138 -374q0 -172 -53.5 -312.5t-147 -233t-220 -142.5t-272.5 -50h-86l74 420h23q114 0 178.5 66.5t64.5 169.5q0 73 -53.5 123.5t-148.5 50.5q-36 0 -93 -15l-37 -14l-75 -432h-430z" />
    <glyph glyph-name="uni0495" unicode="&#x495;" horiz-adv-x="1136" 
d="M465 -430l65 369h23q85 0 129.5 57t44.5 158q0 55 -34.5 83.5t-88.5 28.5q-7 0 -49 -6l-18 -6l-45 -254h-400l191 1085h819l-66 -368h-420l-18 -103l27 11q30 10 82 10q202 0 316 -104t114 -295q0 -303 -162 -484.5t-443 -181.5h-67z" />
    <glyph glyph-name="uni0496" unicode="&#x496;" horiz-adv-x="1945" 
d="M-31 0l492 768l-162 666h481l111 -594l104 594h430l-104 -594l319 594h510l-440 -738l80 -276h246l-125 -707h-430l51 287h-102l-148 625l-108 -625h-431l109 625l-365 -625h-518z" />
    <glyph glyph-name="uni0497" unicode="&#x497;" horiz-adv-x="1720" 
d="M-31 0l365 573l-137 512h436l100 -481l84 481h400l-84 -481l268 481h452l-342 -553l48 -163h247l-108 -615h-400l45 246h-112l-117 502l-88 -502h-399l88 502l-293 -502h-453z" />
    <glyph glyph-name="uni0498" unicode="&#x498;" horiz-adv-x="1310" 
d="M410 -287l51 289q-169 47 -258.5 161t-89.5 277q0 41 4 62h430v-10q0 -50 49.5 -86.5t130.5 -36.5t122.5 30t41.5 72q0 48 -43 75t-121 27h-145l53 308h194q134 0 134 102q0 34 -41 58t-113 24q-75 0 -111.5 -28t-50.5 -85h-430q38 238 198 375t435 137
q126 0 232.5 -33.5t175.5 -89.5t107 -127.5t38 -148.5q0 -165 -115 -268q-54 -48 -114 -70l-3 -10q39 -20 74 -55q76 -76 76 -201q0 -179 -114.5 -310t-319.5 -167l-47 -271h-430z" />
    <glyph glyph-name="uni0499" unicode="&#x499;" horiz-adv-x="1126" 
d="M348 -246l45 246q-144 43 -219.5 137.5t-75.5 210.5q0 25 2 31h389v-10q0 -34 36 -58t104 -24q114 0 114 82q0 61 -135 61h-108l43 246h147q101 0 101 82q0 27 -29 44t-82 17q-108 0 -119 -92h-389q21 169 159.5 279t368.5 110q111 0 205 -28.5t155 -75t94.5 -105
t33.5 -119.5q0 -114 -88 -186q-37 -34 -86 -49l-2 -10q29 -18 57 -49q59 -63 59 -156q0 -120 -87.5 -217.5t-252.5 -132.5l-40 -234h-400z" />
    <glyph glyph-name="uni049A" unicode="&#x49a;" horiz-adv-x="1402" 
d="M113 0l252 1434h430l-103 -584l410 584h514l-537 -738l115 -276h272l-125 -707h-430l52 287h-72l-242 614l-106 -614h-430z" />
    <glyph glyph-name="uni049B" unicode="&#x49b;" horiz-adv-x="1280" 
d="M92 0l191 1085h399l-84 -471l371 471h456l-448 -553l76 -163h301l-109 -615h-399l45 246h-92l-221 492l-86 -492h-400z" />
    <glyph glyph-name="uni049C" unicode="&#x49c;" horiz-adv-x="1495" 
d="M113 0l252 1434h430l-93 -523h41l25 144h164l-25 -144h21l307 523h514l-465 -738l219 -696h-479l-147 502h-41l-29 -154h-164l29 154h-41l-88 -502h-430z" />
    <glyph glyph-name="uni049D" unicode="&#x49d;" horiz-adv-x="1300" 
d="M92 0l191 1085h399l-72 -409h31l18 112h134l-19 -112h10l277 409h455l-396 -553l203 -532h-432l-148 430h-12l-22 -123h-134l23 123h-31l-75 -430h-400z" />
    <glyph glyph-name="uni049E" unicode="&#x49e;" horiz-adv-x="1382" 
d="M154 0l182 1044h-174l57 318h174l13 72h430l-13 -72h82l-57 -318h-82l-33 -194l410 584h514l-537 -738l291 -696h-479l-242 614l-106 -614h-430z" />
    <glyph glyph-name="uni049F" unicode="&#x49f;" horiz-adv-x="1259" 
d="M143 0l179 1014h-144l62 348h143l12 72h400l-13 -72h185l-62 -348h-184l-72 -400l371 471h457l-449 -553l252 -532h-430l-221 492l-86 -492h-400z" />
    <glyph glyph-name="uni04A0" unicode="&#x4a0;" horiz-adv-x="1474" 
d="M225 0l185 1055h-246l67 379h676l-102 -584l409 584h515l-537 -738l291 -696h-479l-242 614l-107 -614h-430z" />
    <glyph glyph-name="uni04A1" unicode="&#x4a1;" horiz-adv-x="1351" 
d="M236 0l129 737h-236l61 348h635l-84 -471l371 471h457l-449 -553l252 -532h-430l-221 492l-86 -492h-399z" />
    <glyph glyph-name="uni04A2" unicode="&#x4a2;" horiz-adv-x="1546" 
d="M113 0l252 1434h430l-86 -492h389l86 492h430l-178 -1014h153l-125 -707h-430l51 287h-153l88 502h-389l-88 -502h-430z" />
    <glyph glyph-name="uni04A3" unicode="&#x4a3;" horiz-adv-x="1290" 
d="M92 0l191 1085h399l-64 -358h236l64 358h399l-127 -716h143l-108 -615h-400l45 246h-143l61 358h-235l-61 -358h-400z" />
    <glyph glyph-name="uni04A4" unicode="&#x4a4;" horiz-adv-x="1894" 
d="M113 0l252 1434h430l-86 -492h358l86 492h942l-74 -420h-512l-178 -1014h-430l88 502h-358l-88 -502h-430z" />
    <glyph glyph-name="uni04A5" unicode="&#x4a5;" horiz-adv-x="1546" 
d="M92 0l191 1085h399l-64 -358h216l63 358h789l-66 -368h-389l-125 -717h-399l61 358h-215l-61 -358h-400z" />
    <glyph glyph-name="uni04A6" unicode="&#x4a6;" horiz-adv-x="2119" 
d="M113 0l252 1434h1198l-103 -582l41 14q77 15 148 15q232 0 370 -138t138 -374q0 -172 -53.5 -312.5t-147 -233t-220 -142.5t-272.5 -50h-86l74 420h23q114 0 178.5 66.5t64.5 169.5q0 73 -53.5 123.5t-148.5 50.5q-36 0 -93 -15l-37 -14l-75 -432h-430l178 1014h-338
l-178 -1014h-430z" />
    <glyph glyph-name="uni04A7" unicode="&#x4a7;" horiz-adv-x="1730" 
d="M92 0l191 1085h1003l-84 -471l27 11q30 10 82 10q202 0 316 -104t114 -295q0 -303 -161.5 -484.5t-442.5 -181.5h-68l66 369h22q85 0 129.5 57t44.5 158q0 55 -34.5 83.5t-88.5 28.5q-7 0 -49 -6l-18 -6l-45 -254h-400l125 717h-205l-124 -717h-400z" />
    <glyph glyph-name="uni04A8" unicode="&#x4a8;" horiz-adv-x="1873" 
d="M1360 512q7 6 19 16.5t42.5 45t53.5 71.5t42 92.5t19 110.5q0 57 -27.5 91t-74.5 34q-67 0 -111.5 -67.5t-44.5 -174.5q0 -90 41 -160q16 -30 41 -59zM1851 399l-73 -419q-203 0 -299 22t-185 80q-62 -36 -106 -51q-136 -51 -297 -51q-325 0 -522 168t-197 456
q0 187 66 348.5t175 270t250 170t291 61.5h19l-74 -420q-135 -23 -211 -117.5t-76 -230.5q0 -52 19 -101.5t55.5 -91.5t98 -68t137.5 -26q27 0 53 11l20 10q-69 66 -104 164.5t-35 203.5q0 138 50.5 254t135 191.5t194 117.5t228.5 42q228 0 372 -126.5t144 -344.5
q0 -142 -81.5 -287.5t-206.5 -214.5q7 -7 26 -10q42 -11 133 -11z" />
    <glyph glyph-name="uni04A9" unicode="&#x4a9;" horiz-adv-x="1556" 
d="M1112 430q23 26 45 62q47 80 47 129q0 65 -47 65q-37 0 -59.5 -35t-22.5 -92q0 -43 19 -90q14 -31 18 -39zM739 1106l-69 -389q-57 -18 -98.5 -71t-41.5 -144q0 -71 44 -112.5t114 -41.5q40 0 53 10q9 3 9 11q-20 18 -35 51q-35 68 -35 174q0 210 142.5 335.5
t357.5 125.5q183 0 308.5 -98.5t125.5 -260.5q0 -137 -82 -247q-38 -48 -82 -80q5 -21 106 -21l-63 -368q-89 0 -131 2t-99.5 11t-100 30.5t-85.5 58.5q-53 -36 -92 -51q-119 -51 -276 -51q-116 0 -219.5 32.5t-184 93t-127.5 155t-47 210.5q0 128 47.5 241t129.5 195
t193.5 134.5t237.5 64.5z" />
    <glyph glyph-name="uni04AA" unicode="&#x4aa;" horiz-adv-x="1515" 
d="M520 -287l55 310q-182 67 -287.5 224t-105.5 367q0 144 43 276.5t119 233.5t175 176t215.5 114.5t236.5 39.5q127 0 237.5 -40.5t193.5 -116t132 -190.5t53 -257h-426q-12 81 -73 132.5t-156 51.5q-130 0 -225 -107t-95 -270q0 -120 70.5 -189t179.5 -69q83 0 153.5 52
t108.5 143h432q-71 -236 -216.5 -389t-340.5 -203l-49 -289h-430z" />
    <glyph glyph-name="uni04AB" unicode="&#x4ab;" horiz-adv-x="1249" 
d="M397 -246l49 264q-142 57 -223.5 179t-81.5 280q0 173 87.5 318.5t232 228t309.5 82.5q226 0 369 -125.5t155 -345.5h-407q-11 50 -46 76t-104 26q-76 0 -136 -62t-60 -165q0 -74 44 -118t111 -44q59 0 95 26t61 77h418q-48 -163 -156.5 -285t-273.5 -164l-43 -248h-400z
" />
    <glyph glyph-name="uni04AC" unicode="&#x4ac;" 
d="M492 -287l51 287h-154l178 1014h-358l74 420h1147l-74 -420h-359l-104 -594h154l-125 -707h-430z" />
    <glyph glyph-name="uni04AD" unicode="&#x4ad;" horiz-adv-x="1095" 
d="M436 -246l45 246h-143l125 717h-307l65 368h1014l-66 -368h-307l-61 -348h143l-108 -615h-400z" />
    <glyph glyph-name="uni04AE" unicode="&#x4ae;" horiz-adv-x="1372" 
d="M461 0l76 430l-336 1004h450l150 -492h41l321 492h492l-688 -1004l-76 -430h-430z" />
    <glyph glyph-name="uni04AF" unicode="&#x4af;" horiz-adv-x="1239" 
d="M330 -451l80 451h-52l-188 1085h389l86 -614h51l303 614h431l-570 -1085h-51l-80 -451h-399z" />
    <glyph glyph-name="uni04B0" unicode="&#x4b0;" horiz-adv-x="1372" 
d="M461 0l69 399h-348l62 349h184l-227 686h450l150 -492h41l321 492h492l-469 -686h184l-61 -349h-348l-70 -399h-430z" />
    <glyph glyph-name="uni04B1" unicode="&#x4b1;" horiz-adv-x="1239" 
d="M330 -451l80 451h-328l59 348h164l-135 737h389l86 -614h51l303 614h431l-398 -737h164l-59 -348h-328l-80 -451h-399z" />
    <glyph glyph-name="uni04B2" unicode="&#x4b2;" horiz-adv-x="1454" 
d="M-41 0l590 737l-307 697h471l123 -349h41l245 349h512l-553 -697l142 -317h295l-125 -707h-430l51 287h-72l-149 379h-41l-281 -379h-512z" />
    <glyph glyph-name="uni04B3" unicode="&#x4b3;" horiz-adv-x="1218" 
d="M-31 0l445 553l-234 532h410l88 -256h41l178 256h451l-422 -532l84 -184h282l-108 -615h-400l45 246h-61l-106 276h-41l-201 -276h-451z" />
    <glyph glyph-name="uni04B4" unicode="&#x4b4;" horiz-adv-x="1740" 
d="M328 0l178 1014h-297l74 420h972l-73 -420h-246l-105 -594h369l178 1014h430l-178 -1014h154l-125 -707h-430l51 287h-952z" />
    <glyph glyph-name="uni04B5" unicode="&#x4b5;" horiz-adv-x="1454" 
d="M256 0l125 717h-225l65 368h789l-66 -368h-164l-61 -348h235l127 716h400l-127 -716h143l-108 -615h-400l45 246h-778z" />
    <glyph glyph-name="uni04B6" unicode="&#x4b6;" horiz-adv-x="1474" 
d="M963 -287l51 287h-154l74 414q-36 -20 -64 -29q-83 -27 -194 -27q-227 0 -338 111t-111 295q0 65 15 147l92 523h430l-84 -476q-6 -30 -6 -49q0 -63 39 -97t116 -34q78 0 129 23q26 10 46 24l108 609h430l-178 -1014h154l-125 -707h-430z" />
    <glyph glyph-name="uni04B7" unicode="&#x4b7;" horiz-adv-x="1239" 
d="M774 -246l45 246h-143l53 301q-15 -9 -53 -22q-58 -23 -144 -23q-169 0 -263.5 90.5t-94.5 245.5q0 52 10 106l68 387h399l-57 -329q-4 -28 -4 -33q0 -42 24.5 -65t71.5 -23q48 0 80 14q25 15 27 17l73 419h400l-127 -716h143l-108 -615h-400z" />
    <glyph glyph-name="uni04B8" unicode="&#x4b8;" horiz-adv-x="1402" 
d="M860 0l74 414l-27 -15q-24 -12 -73 -24l-27 -150h-164l23 133q-113 0 -199 31t-137.5 87t-77 128.5t-25.5 159.5q0 65 15 147l92 523h430l-84 -476q-6 -30 -6 -49q0 -85 69 -114l25 137h164l-27 -146q38 7 74 25l25 14l108 609h430l-252 -1434h-430z" />
    <glyph glyph-name="uni04B9" unicode="&#x4b9;" horiz-adv-x="1167" 
d="M676 0l53 301l-12 -6q-4 -3 -8.5 -5t-12 -4.5t-12.5 -4.5l-25 -138h-122l18 113h-23q-169 0 -263.5 90.5t-94.5 245.5q0 52 10 106l68 387h399l-57 -329q-4 -28 -4 -33q0 -50 35 -74l28 160h123l-28 -166q5 2 12.5 4.5t12.5 4.5t9 5q3 1 11 9l73 419h400l-191 -1085h-399
z" />
    <glyph glyph-name="uni04BA" unicode="&#x4ba;" horiz-adv-x="1382" 
d="M113 0l252 1434h430l-74 -414q29 16 63 27q86 28 195 28q227 0 337.5 -110.5t110.5 -294.5q0 -71 -14 -148l-92 -522h-430l84 475q6 30 6 49q0 62 -39.5 96.5t-116.5 34.5q-76 0 -129 -24q-14 -5 -45 -23l-108 -608h-430z" />
    <glyph glyph-name="uni04BB" unicode="&#x4bb;" horiz-adv-x="1249" 
d="M102 0l252 1434h400l-70 -396h10q18 16 58 33q85 35 166 35q175 0 274.5 -97t99.5 -259q0 -41 -12 -111l-113 -639h-399l98 561q4 28 4 37q0 51 -31.5 85t-84.5 34q-59 0 -99 -37t-51 -94l-102 -586h-400z" />
    <glyph glyph-name="uni04BC" unicode="&#x4bc;" horiz-adv-x="1832" 
d="M502 584h-56q-142 0 -223.5 68.5t-81.5 195.5q0 46 9 92l14 74h297l-8 -41q-4 -28 -4 -35q0 -78 88 -78q77 261 286.5 427.5t446.5 166.5q143 0 263 -50.5t200 -137t124 -203t44 -248.5q0 -77 -15 -147l-16 -84h-930q23 -90 85 -137.5t144 -47.5q92 0 160 45q34 24 53 48
h463q-64 -160 -179.5 -277.5t-254 -176t-283.5 -58.5q-268 0 -441 169t-185 435zM979 860h485q-14 73 -74.5 123.5t-150.5 50.5q-82 0 -149 -46.5t-111 -127.5z" />
    <glyph glyph-name="uni04BD" unicode="&#x4bd;" horiz-adv-x="1454" 
d="M94 651l19 97h215l-4 -21q-1 -5 -3 -16t-2 -15q0 -48 54 -51q59 203 228 332t378 129q236 0 377 -136.5t141 -353.5q0 -52 -12 -118l-12 -58h-746q5 -69 53.5 -111t126.5 -42q72 0 111 24q17 7 33 27h391q-176 -358 -570 -358q-221 0 -365.5 131t-156.5 329h-82
q-83 0 -130.5 48t-47.5 120q0 31 4 43zM764 645h358q0 71 -44 117.5t-120 46.5q-66 0 -119 -41t-75 -123z" />
    <glyph glyph-name="uni04BE" unicode="&#x4be;" horiz-adv-x="1832" 
d="M836 -287l55 307q-175 67 -278.5 215t-110.5 349h-56q-142 0 -223.5 68.5t-81.5 195.5q0 46 9 92l14 74h297l-8 -41q-4 -28 -4 -35q0 -78 88 -78q77 261 286.5 427.5t446.5 166.5q143 0 263 -50.5t200 -137t124 -203t44 -248.5q0 -77 -15 -147l-16 -84h-930
q23 -90 85 -137.5t144 -47.5q92 0 160 45q34 24 53 48h463q-76 -187 -215.5 -312t-310.5 -174l-53 -293h-430zM979 860h485q-14 73 -74.5 123.5t-150.5 50.5q-82 0 -149 -46.5t-111 -127.5z" />
    <glyph glyph-name="uni04BF" unicode="&#x4bf;" horiz-adv-x="1454" 
d="M602 -246l49 266q-133 57 -211.5 167t-89.5 253h-82q-83 0 -130.5 48t-47.5 120q0 31 4 43l19 97h215l-4 -21q-1 -5 -3 -16t-2 -15q0 -48 54 -51q59 203 228 332t378 129q236 0 377 -136.5t141 -353.5q0 -52 -12 -118l-12 -58h-746q5 -69 53.5 -111t126.5 -42
q72 0 111 24q17 7 33 27h391q-132 -275 -395 -338l-46 -246h-399zM764 645h358q0 71 -44 117.5t-120 46.5q-66 0 -119 -41t-75 -123z" />
    <glyph glyph-name="uni04C0" unicode="&#x4c0;" horiz-adv-x="655" 
d="M113 0l252 1434h430l-252 -1434h-430z" />
    <glyph glyph-name="uni04C1" unicode="&#x4c1;" horiz-adv-x="1894" 
d="M-31 0l492 768l-162 666h481l111 -594l104 594h430l-104 -594l319 594h510l-440 -738l201 -696h-481l-148 625l-108 -625h-431l109 625l-365 -625h-518zM885 1894h278q8 -82 86 -82q72 0 99 82h278q-35 -153 -135.5 -235t-249.5 -82q-169 0 -262.5 84t-93.5 219v14z" />
    <glyph glyph-name="uni04C2" unicode="&#x4c2;" horiz-adv-x="1648" 
d="M-31 0l365 573l-137 512h436l100 -481l84 481h400l-84 -481l268 481h452l-342 -553l154 -532h-434l-117 502l-88 -502h-399l88 502l-293 -502h-453zM684 1526h279q8 -82 86 -82q71 0 98 82h278q-35 -153 -135.5 -235.5t-249.5 -82.5q-169 0 -262.5 84t-93.5 219v15z" />
    <glyph glyph-name="uni04C3" unicode="&#x4c3;" horiz-adv-x="1402" 
d="M113 0l252 1434h430l-103 -584l410 584h514l-445 -611q73 -31 127 -82.5t85 -114t46 -129.5t15 -139q0 -156 -50.5 -290.5t-141.5 -231t-223.5 -151t-291.5 -54.5h-65l73 420h23q109 0 172.5 63.5t63.5 172.5q0 76 -55.5 125t-149.5 49q-63 0 -131 -29q-43 -19 -54 -26
l-71 -406h-430z" />
    <glyph glyph-name="uni04C4" unicode="&#x4c4;" horiz-adv-x="1249" 
d="M92 0l191 1085h399l-84 -471l371 471h456l-370 -460q200 -99 200 -369q0 -142 -41.5 -266.5t-118.5 -218t-195.5 -147.5t-264.5 -54h-78l66 369h22q96 0 148.5 64t52.5 161q0 67 -44.5 105t-115.5 38q-61 0 -111 -26q-24 -14 -40 -27l-43 -254h-400z" />
    <glyph glyph-name="uni04C5" unicode="&#x4c5;" horiz-adv-x="1525" 
d="M-2 -20l70 409h34q85 0 130.5 40t70.5 134l225 871h1076l-179 -1014h205l-14 -72l-326 -635h-307l102 287h-163l178 1014h-256l-162 -604q-60 -222 -183 -326t-325 -104h-176z" />
    <glyph glyph-name="uni04C6" unicode="&#x4c6;" horiz-adv-x="1290" 
d="M-2 -20l61 368h43q62 0 100 33.5t58 110.5l156 593h901l-127 -716h184l-10 -62l-313 -553h-267l86 246h-143l125 717h-143l-95 -348q-56 -212 -159 -300.5t-281 -88.5h-176z" />
    <glyph glyph-name="uni04C7" unicode="&#x4c7;" horiz-adv-x="1474" 
d="M113 0l252 1434h430l-86 -492h389l86 492h430l-240 -1352q-53 -287 -189.5 -410t-385.5 -123h-152l74 420h57q74 0 118.5 43.5t55.5 110.5l68 379h-389l-88 -502h-430z" />
    <glyph glyph-name="uni04C8" unicode="&#x4c8;" horiz-adv-x="1218" 
d="M514 -451l64 369h36q95 0 113 92l61 348h-235l-61 -358h-400l191 1085h399l-64 -358h236l64 358h399l-199 -1126q-36 -208 -144 -309t-317 -101h-143z" />
    <glyph glyph-name="uni04C9" unicode="&#x4c9;" horiz-adv-x="1536" 
d="M113 0l252 1434h430l-86 -492h389l86 492h430l-178 -1014h204l-14 -72l-326 -635h-307l103 287h-164l88 502h-389l-88 -502h-430z" />
    <glyph glyph-name="uni04CA" unicode="&#x4ca;" horiz-adv-x="1290" 
d="M92 0l191 1085h399l-64 -358h236l64 358h399l-127 -716h184l-10 -62l-313 -553h-267l86 246h-143l61 358h-235l-61 -358h-400z" />
    <glyph glyph-name="uni04CB" unicode="&#x4cb;" horiz-adv-x="1402" 
d="M614 -287l97 553h196l27 148q-36 -20 -64 -29q-83 -27 -194 -27q-227 0 -338 111t-111 295q0 65 15 147l92 523h430l-84 -476q-6 -30 -6 -49q0 -63 39 -97t116 -34q78 0 129 23q26 10 46 24l108 609h430l-252 -1434h-194l-52 -287h-430z" />
    <glyph glyph-name="uni04CC" unicode="&#x4cc;" horiz-adv-x="1167" 
d="M446 -246l80 451h185l18 96q-15 -9 -53 -22q-58 -23 -144 -23q-169 0 -263.5 90.5t-94.5 245.5q0 52 10 106l68 387h399l-57 -329q-4 -28 -4 -33q0 -42 24.5 -65t71.5 -23q48 0 80 14q25 15 27 17l73 419h400l-191 -1085h-184l-45 -246h-400z" />
    <glyph glyph-name="uni04CD" unicode="&#x4cd;" horiz-adv-x="1986" 
d="M113 0l252 1434h604l86 -676h41l323 676h645l-178 -1014h205l-14 -72l-326 -635h-307l102 287h-164l119 676h-41l-323 -676h-349l-86 676h-40l-119 -676h-430z" />
    <glyph glyph-name="uni04CE" unicode="&#x4ce;" horiz-adv-x="1689" 
d="M92 0l191 1085h522l67 -491h41l240 491h563l-127 -716h185l-11 -62l-313 -553h-266l86 246h-144l80 461h-41l-223 -461h-266l-64 461h-41l-79 -461h-400z" />
    <glyph glyph-name="uni04CF" unicode="&#x4cf;" horiz-adv-x="604" 
d="M102 0l252 1434h400l-252 -1434h-400z" />
    <glyph glyph-name="uni04D0" unicode="&#x4d0;" horiz-adv-x="1474" 
d="M-10 0l712 1434h594l209 -1434h-440l-25 215h-471l-98 -215h-481zM737 584h267l-46 389h-40zM670 1894h278q8 -82 86 -82q72 0 99 82h278q-35 -153 -135.5 -235t-249.5 -82q-169 0 -262.5 84t-93.5 219v14z" />
    <glyph glyph-name="uni04D1" unicode="&#x4d1;" horiz-adv-x="1177" 
d="M741 0l-8 72h-10q-20 -26 -55 -47q-76 -45 -193 -45q-167 0 -270 82.5t-103 213.5q0 176 120 277.5t315 101.5h278l2 9q4 28 4 32q0 43 -30.5 67.5t-79.5 24.5q-76 0 -111 -61h-379q38 175 173 277t347 102q214 0 347 -109.5t133 -279.5q0 -45 -9 -86l-112 -631h-359z
M772 408l2 12h-166q-47 0 -71.5 -20t-24.5 -56q0 -28 27.5 -48t78.5 -20q131 0 154 132zM469 1526h279q8 -82 86 -82q71 0 98 82h278q-35 -153 -135.5 -235.5t-249.5 -82.5q-169 0 -262.5 84t-93.5 219v15z" />
    <glyph glyph-name="uni04D2" unicode="&#x4d2;" horiz-adv-x="1474" 
d="M-10 0l712 1434h594l209 -1434h-440l-25 215h-471l-98 -215h-481zM737 584h267l-46 389h-40zM1073 1577l55 307h318l-55 -307h-318zM633 1577l55 307h318l-56 -307h-317z" />
    <glyph glyph-name="uni04D3" unicode="&#x4d3;" horiz-adv-x="1177" 
d="M741 0l-8 72h-10q-20 -26 -55 -47q-76 -45 -193 -45q-167 0 -270 82.5t-103 213.5q0 176 120 277.5t315 101.5h278l2 9q4 28 4 32q0 43 -30.5 67.5t-79.5 24.5q-76 0 -111 -61h-379q38 175 173 277t347 102q214 0 347 -109.5t133 -279.5q0 -45 -9 -86l-112 -631h-359z
M772 408l2 12h-166q-47 0 -71.5 -20t-24.5 -56q0 -28 27.5 -48t78.5 -20q131 0 154 132zM881 1208l55 308h317l-55 -308h-317zM440 1208l56 308h317l-55 -308h-318z" />
    <glyph glyph-name="uni04D6" unicode="&#x4d6;" horiz-adv-x="1218" 
d="M113 0l252 1434h1024l-70 -390h-594l-25 -143h553l-65 -369h-553l-25 -143h594l-67 -389h-1024zM565 1884h279q8 -82 86 -82q71 0 98 82h279q-35 -153 -135.5 -235t-249.5 -82q-169 0 -263 84t-94 219v14z" />
    <glyph glyph-name="uni04D7" unicode="&#x4d7;" horiz-adv-x="1239" 
d="M842 338h389q-74 -157 -220.5 -257.5t-346.5 -100.5q-230 0 -376.5 142.5t-146.5 354.5q0 173 87.5 318.5t232 228t309.5 82.5q227 0 369.5 -137.5t142.5 -352.5q0 -52 -12 -118q-7 -32 -10 -58h-742q5 -69 53.5 -111t126.5 -42q72 0 111 24q17 7 33 27zM555 645h358
q0 71 -43.5 117.5t-119.5 46.5q-66 0 -119.5 -41t-75.5 -123zM459 1526h278q8 -82 86 -82q72 0 99 82h278q-35 -153 -135.5 -235.5t-249.5 -82.5q-169 0 -262.5 84t-93.5 219v15z" />
    <glyph glyph-name="uni04D8" unicode="&#x4d8;" horiz-adv-x="1505" 
d="M193 766l16 84h930q-23 89 -85 136.5t-145 47.5q-87 0 -159 -47q-38 -26 -54 -45h-463q64 160 179.5 277.5t254 176t283.5 58.5q182 0 325.5 -81.5t222.5 -226t79 -327.5q0 -143 -43.5 -275.5t-118.5 -233t-172.5 -176t-209.5 -115t-224 -39.5q-190 0 -335.5 86.5
t-220.5 230.5t-75 321q0 78 15 148zM1100 573h-486q14 -73 75 -123.5t151 -50.5q82 0 149 46.5t111 127.5z" />
    <glyph glyph-name="uni04D9" unicode="&#x4d9;" horiz-adv-x="1239" 
d="M162 645h741q-5 69 -53.5 111.5t-126.5 42.5q-67 0 -111 -27q-19 -8 -32 -24h-390q74 157 221 257.5t347 100.5q230 0 376 -143t146 -355q0 -130 -51.5 -247.5t-137.5 -200.5t-201 -131.5t-239 -48.5q-228 0 -370 137t-142 352q0 59 11 119zM866 440h-358
q0 -71 44 -117.5t120 -46.5q66 0 119 41t75 123z" />
    <glyph glyph-name="uni04DA" unicode="&#x4da;" horiz-adv-x="1505" 
d="M193 766l16 84h930q-23 89 -85 136.5t-145 47.5q-87 0 -159 -47q-38 -26 -54 -45h-463q64 160 179.5 277.5t254 176t283.5 58.5q182 0 325.5 -81.5t222.5 -226t79 -327.5q0 -143 -43.5 -275.5t-118.5 -233t-172.5 -176t-209.5 -115t-224 -39.5q-190 0 -335.5 86.5
t-220.5 230.5t-75 321q0 78 15 148zM1100 573h-486q14 -73 75 -123.5t151 -50.5q82 0 149 46.5t111 127.5zM1055 1577l55 307h317l-55 -307h-317zM614 1577l56 307h317l-55 -307h-318z" />
    <glyph glyph-name="uni04DB" unicode="&#x4db;" horiz-adv-x="1239" 
d="M162 645h741q-5 69 -53.5 111.5t-126.5 42.5q-67 0 -111 -27q-19 -8 -32 -24h-390q74 157 221 257.5t347 100.5q230 0 376 -143t146 -355q0 -130 -51.5 -247.5t-137.5 -200.5t-201 -131.5t-239 -48.5q-228 0 -370 137t-142 352q0 59 11 119zM866 440h-358
q0 -71 44 -117.5t120 -46.5q66 0 119 41t75 123zM856 1208l55 308h318l-55 -308h-318zM416 1208l55 308h317l-55 -308h-317z" />
    <glyph glyph-name="uni04DC" unicode="&#x4dc;" horiz-adv-x="1894" 
d="M-31 0l492 768l-162 666h481l111 -594l104 594h430l-104 -594l319 594h510l-440 -738l201 -696h-481l-148 625l-108 -625h-431l109 625l-365 -625h-518zM1278 1577l55 307h318l-56 -307h-317zM838 1577l55 307h317l-55 -307h-317z" />
    <glyph glyph-name="uni04DD" unicode="&#x4dd;" horiz-adv-x="1648" 
d="M-31 0l365 573l-137 512h436l100 -481l84 481h400l-84 -481l268 481h452l-342 -553l154 -532h-434l-117 502l-88 -502h-399l88 502l-293 -502h-453zM1081 1208l56 308h317l-55 -308h-318zM641 1208l55 308h318l-56 -308h-317z" />
    <glyph glyph-name="uni04DE" unicode="&#x4de;" horiz-adv-x="1310" 
d="M117 502h430v-10q0 -50 49.5 -86.5t130.5 -36.5t122.5 30t41.5 72q0 48 -43 75t-121 27h-145l53 308h194q134 0 134 102q0 34 -41 58t-113 24q-75 0 -111.5 -28t-50.5 -85h-430q38 238 198 375t435 137q126 0 232.5 -33.5t175.5 -89.5t107 -127.5t38 -148.5
q0 -165 -115 -268q-54 -48 -114 -70l-3 -10q39 -20 74 -55q76 -76 76 -201q0 -104 -40.5 -193.5t-116 -156t-190.5 -104.5t-257 -38q-287 0 -445.5 126t-158.5 345q0 41 4 62zM991 1577l56 307h317l-55 -307h-318zM551 1577l55 307h318l-56 -307h-317z" />
    <glyph glyph-name="uni04DF" unicode="&#x4df;" horiz-adv-x="1126" 
d="M100 379h389v-10q0 -34 36 -58t104 -24q114 0 114 82q0 61 -135 61h-108l43 246h147q101 0 101 82q0 27 -29 44t-82 17q-108 0 -119 -92h-389q21 169 159.5 279t368.5 110q111 0 205 -28.5t155 -75t94.5 -105t33.5 -119.5q0 -114 -88 -186q-37 -34 -86 -49l-2 -10
q29 -18 57 -49q59 -63 59 -156q0 -70 -31.5 -134.5t-92 -118t-160.5 -85t-226 -31.5t-227.5 31.5t-164 85t-95.5 120.5t-33 142q0 25 2 31zM825 1208l56 308h317l-55 -308h-318zM385 1208l55 308h318l-56 -308h-317z" />
    <glyph glyph-name="uni04E0" unicode="&#x4e0;" horiz-adv-x="1280" 
d="M94 481h430v-4q0 -40 50.5 -74t142.5 -34q76 0 119 40t43 103q0 46 -46 74t-116 28h-273l45 256l256 174h-471l70 390h1086l-56 -318l-360 -235l-2 -11q140 -38 216.5 -132.5t76.5 -225.5q0 -116 -39.5 -214t-115.5 -171.5t-195 -115.5t-269 -42q-149 0 -265 37
t-186.5 101.5t-106.5 146.5t-36 176q0 28 2 51z" />
    <glyph glyph-name="uni04E1" unicode="&#x4e1;" horiz-adv-x="1095" 
d="M23 51h389q-2 -6 -2 -18q0 -54 29 -84.5t77 -30.5q64 0 107 48.5t43 137.5q0 65 -43 103.5t-127 38.5h-213l45 256l276 235h-389l61 348h922l-49 -276l-348 -297l-2 -10q5 0 28 -8t63 -34t76 -64t62.5 -107.5t26.5 -155.5q0 -251 -156 -407t-403 -156q-217 0 -346.5 121
t-129.5 309q0 17 3 51z" />
    <glyph glyph-name="uni04E2" unicode="&#x4e2;" horiz-adv-x="1495" 
d="M113 0l252 1434h430l-113 -635h41l451 635h460l-252 -1434h-430l113 635h-41l-451 -635h-460zM657 1608l48 266h737l-47 -266h-738z" />
    <glyph glyph-name="uni04E3" unicode="&#x4e3;" horiz-adv-x="1239" 
d="M92 0l191 1085h399l-72 -409h41l267 409h419l-190 -1085h-399l71 410h-41l-266 -410h-420zM453 1239l47 266h737l-47 -266h-737z" />
    <glyph glyph-name="uni04E4" unicode="&#x4e4;" horiz-adv-x="1495" 
d="M113 0l252 1434h430l-113 -635h41l451 635h460l-252 -1434h-430l113 635h-41l-451 -635h-460zM1083 1577l56 307h317l-55 -307h-318zM643 1577l55 307h318l-55 -307h-318z" />
    <glyph glyph-name="uni04E5" unicode="&#x4e5;" horiz-adv-x="1239" 
d="M92 0l191 1085h399l-72 -409h41l267 409h419l-190 -1085h-399l71 410h-41l-266 -410h-420zM887 1208l55 308h318l-56 -308h-317zM446 1208l56 308h317l-55 -308h-318z" />
    <glyph glyph-name="uni04E6" unicode="&#x4e6;" horiz-adv-x="1536" 
d="M182 614q0 178 66 336.5t175 267.5t252 172.5t296 63.5q187 0 332.5 -81.5t225 -226t79.5 -327.5q0 -178 -66 -336.5t-175 -267.5t-252 -172t-296 -63q-140 0 -259 47.5t-202 131t-129.5 201t-46.5 254.5zM860 399q125 0 221.5 106t96.5 271q0 121 -68.5 189.5
t-179.5 68.5q-126 0 -222 -106t-96 -271q0 -121 68.5 -189.5t179.5 -68.5zM1071 1577l55 307h318l-55 -307h-318zM631 1577l55 307h318l-56 -307h-317z" />
    <glyph glyph-name="uni04E7" unicode="&#x4e7;" horiz-adv-x="1249" 
d="M141 477q0 173 87.5 318.5t232 228t309.5 82.5q230 0 376 -143t146 -355q0 -130 -51.5 -247.5t-137 -200.5t-200.5 -131.5t-239 -48.5q-230 0 -376.5 142.5t-146.5 354.5zM696 348q76 0 136.5 62t60.5 165q0 73 -44.5 117.5t-111.5 44.5q-76 0 -136 -62t-60 -165
q0 -74 44 -118t111 -44zM887 1208l55 308h318l-56 -308h-317zM446 1208l56 308h317l-55 -308h-318z" />
    <glyph glyph-name="uni04E8" unicode="&#x4e8;" horiz-adv-x="1536" 
d="M182 614q0 178 66 336.5t175 267.5t252 172.5t296 63.5q187 0 332.5 -81.5t225 -226t79.5 -327.5q0 -178 -66 -336.5t-175 -267.5t-252 -172t-296 -63q-140 0 -259 47.5t-202 131t-129.5 201t-46.5 254.5zM643 860h547q-59 195 -260 195q-94 0 -173.5 -57t-113.5 -138z
M1147 573h-547q59 -194 260 -194q94 0 173.5 56.5t113.5 137.5z" />
    <glyph glyph-name="uni04E9" unicode="&#x4e9;" horiz-adv-x="1249" 
d="M141 477q0 173 87.5 318.5t232 228t309.5 82.5q230 0 376 -143t146 -355q0 -130 -51.5 -247.5t-137 -200.5t-200.5 -131.5t-239 -48.5q-230 0 -376.5 142.5t-146.5 354.5zM555 645h346q-19 51 -61.5 82t-102.5 31q-56 0 -104.5 -29.5t-77.5 -83.5zM879 440h-347
q18 -51 61 -81.5t103 -30.5q56 0 104.5 29t78.5 83z" />
    <glyph glyph-name="uni04EA" unicode="&#x4ea;" horiz-adv-x="1536" 
d="M182 614q0 178 66 336.5t175 267.5t252 172.5t296 63.5q187 0 332.5 -81.5t225 -226t79.5 -327.5q0 -178 -66 -336.5t-175 -267.5t-252 -172t-296 -63q-140 0 -259 47.5t-202 131t-129.5 201t-46.5 254.5zM643 860h547q-59 195 -260 195q-94 0 -173.5 -57t-113.5 -138z
M1147 573h-547q59 -194 260 -194q94 0 173.5 56.5t113.5 137.5zM1073 1577l55 307h318l-55 -307h-318zM633 1577l55 307h318l-56 -307h-317z" />
    <glyph glyph-name="uni04EB" unicode="&#x4eb;" horiz-adv-x="1249" 
d="M141 477q0 173 87.5 318.5t232 228t309.5 82.5q230 0 376 -143t146 -355q0 -130 -51.5 -247.5t-137 -200.5t-200.5 -131.5t-239 -48.5q-230 0 -376.5 142.5t-146.5 354.5zM555 645h346q-19 51 -61.5 82t-102.5 31q-56 0 -104.5 -29.5t-77.5 -83.5zM879 440h-347
q18 -51 61 -81.5t103 -30.5q56 0 104.5 29t78.5 83zM887 1208l55 308h318l-56 -308h-317zM446 1208l56 308h317l-55 -308h-318z" />
    <glyph glyph-name="uni04EC" unicode="&#x4ec;" horiz-adv-x="1505" 
d="M172 584h426q11 -89 70 -142t159 -53q75 0 143.5 37.5t108.5 105.5h-356l65 369h338q-65 143 -229 143q-88 0 -156 -51.5t-102 -132.5h-432q85 279 283 436.5t446 157.5q284 0 462.5 -178.5t178.5 -456.5q0 -180 -66.5 -338.5t-176.5 -267t-253 -171t-293 -62.5
q-268 0 -436 159.5t-180 444.5zM1051 1577l55 307h317l-55 -307h-317zM610 1577l56 307h317l-55 -307h-318z" />
    <glyph glyph-name="uni04ED" unicode="&#x4ed;" horiz-adv-x="1239" 
d="M129 430h381q8 -59 50.5 -96t123.5 -37q43 0 89 26t73 76h-262l51 287h256q-16 51 -61.5 76.5t-104.5 25.5q-64 0 -114 -41t-70 -92h-381q29 95 81 175t126 142.5t175 98t218 35.5q230 0 376 -143t146 -355q0 -130 -51.5 -247.5t-137.5 -200.5t-201 -131.5t-239 -48.5
q-226 0 -366.5 123t-157.5 327zM872 1208l56 308h317l-55 -308h-318zM432 1208l55 308h318l-55 -308h-318z" />
    <glyph glyph-name="uni04EE" unicode="&#x4ee;" horiz-adv-x="1351" 
d="M174 0l68 389h188q36 0 55.5 15t44.5 57l-329 973h450l148 -502h41l303 502h491l-788 -1219q-32 -49 -62 -83t-72.5 -66.5t-97.5 -49t-122 -16.5h-318zM547 1608l47 266h737l-47 -266h-737z" />
    <glyph glyph-name="uni04EF" unicode="&#x4ef;" horiz-adv-x="1239" 
d="M49 -410l66 369h223q27 0 43 23q9 9 14 22l-225 1081h410l94 -573h41l264 573h451l-674 -1269q-61 -116 -135 -171t-191 -55h-381zM432 1239l47 266h738l-48 -266h-737z" />
    <glyph glyph-name="uni04F0" unicode="&#x4f0;" horiz-adv-x="1351" 
d="M174 0l68 389h188q36 0 55.5 15t44.5 57l-329 973h450l148 -502h41l303 502h491l-788 -1219q-32 -49 -62 -83t-72.5 -66.5t-97.5 -49t-122 -16.5h-318zM971 1577l55 307h317l-55 -307h-317zM530 1577l56 307h317l-55 -307h-318z" />
    <glyph glyph-name="uni04F1" unicode="&#x4f1;" horiz-adv-x="1239" 
d="M49 -410l66 369h223q27 0 43 23q9 9 14 22l-225 1081h410l94 -573h41l264 573h451l-674 -1269q-61 -116 -135 -171t-191 -55h-381zM846 1208l55 308h318l-56 -308h-317zM406 1208l55 308h317l-55 -308h-317z" />
    <glyph glyph-name="uni04F2" unicode="&#x4f2;" horiz-adv-x="1351" 
d="M174 0l68 389h188q36 0 55.5 15t44.5 57l-329 973h450l148 -502h41l303 502h491l-788 -1219q-32 -49 -62 -83t-72.5 -66.5t-97.5 -49t-122 -16.5h-318zM522 1577l258 307h338l-309 -307h-287zM963 1577l258 307h338l-310 -307h-286z" />
    <glyph glyph-name="uni04F3" unicode="&#x4f3;" horiz-adv-x="1239" 
d="M49 -410l66 369h223q27 0 43 23q9 9 14 22l-225 1081h410l94 -573h41l264 573h451l-674 -1269q-61 -116 -135 -171t-191 -55h-381zM410 1208l258 308h338l-310 -308h-286zM850 1208l258 308h338l-309 -308h-287z" />
    <glyph glyph-name="uni04F4" unicode="&#x4f4;" horiz-adv-x="1402" 
d="M860 0l74 414q-36 -20 -64 -29q-83 -27 -194 -27q-227 0 -338 111t-111 295q0 65 15 147l92 523h430l-84 -476q-6 -30 -6 -49q0 -63 39 -97t116 -34q78 0 129 23q26 10 46 24l108 609h430l-252 -1434h-430zM1024 1577l55 307h318l-56 -307h-317zM584 1577l55 307h317
l-55 -307h-317z" />
    <glyph glyph-name="uni04F5" unicode="&#x4f5;" horiz-adv-x="1167" 
d="M676 0l53 301q-15 -9 -53 -22q-58 -23 -144 -23q-169 0 -263.5 90.5t-94.5 245.5q0 52 10 106l68 387h399l-57 -329q-4 -28 -4 -33q0 -42 24.5 -65t71.5 -23q48 0 80 14q25 15 27 17l73 419h400l-191 -1085h-399zM836 1208l55 308h317l-55 -308h-317zM395 1208l56 308
h317l-55 -308h-318z" />
    <glyph glyph-name="uni04F6" unicode="&#x4f6;" horiz-adv-x="1146" 
d="M215 -287l51 287h-153l252 1434h983l-74 -420h-553l-105 -594h154l-125 -707h-430z" />
    <glyph glyph-name="uni04F7" unicode="&#x4f7;" horiz-adv-x="962" 
d="M190 -246l46 246h-144l191 1085h819l-66 -368h-420l-61 -348h143l-108 -615h-400z" />
    <glyph glyph-name="uni04F8" unicode="&#x4f8;" horiz-adv-x="1945" 
d="M1403 0l252 1434h430l-252 -1434h-430zM113 0l252 1434h430l-72 -410h209q211 0 336 -121t125 -309q0 -135 -45 -248t-122.5 -188t-180 -116.5t-216.5 -41.5h-716zM614 410h226q55 0 89 29.5t34 82.5q0 41 -28 66.5t-85 25.5h-201zM1268 1577l55 307h317l-55 -307h-317z
M827 1577l56 307h317l-55 -307h-318z" />
    <glyph glyph-name="uni04F9" unicode="&#x4f9;" horiz-adv-x="1648" 
d="M1157 0l191 1085h399l-191 -1085h-399zM543 297h92q40 0 71 28.5t31 73.5q0 37 -24.5 59.5t-57.5 22.5h-80zM92 0l191 1085h399l-53 -307h149q167 0 268 -96.5t101 -251.5q0 -183 -128 -306.5t-312 -123.5h-615zM1061 1208l55 308h318l-56 -308h-317zM621 1208l55 308
h317l-55 -308h-317z" />
    <glyph glyph-name="uni04FA" unicode="&#x4fa;" horiz-adv-x="1259" 
d="M162 -471l63 358h43q53 0 76 25t35 88h-154l90 512h-204l63 369h205l98 553h983l-69 -390h-553l-29 -163h369l-64 -369h-369l-16 -92h154l-64 -357q-23 -134 -59 -227.5t-97 -165t-154 -106.5t-222 -35h-125z" />
    <glyph glyph-name="uni04FB" unicode="&#x4fb;" horiz-adv-x="1044" 
d="M106 -440l60 338h39q98 0 112 102h-143l53 307h-174l53 307h175l84 471h819l-62 -348h-420l-22 -123h297l-53 -307h-297l-13 -71h144l-53 -299q-32 -186 -142.5 -281.5t-296.5 -95.5h-160z" />
    <glyph glyph-name="uni04FC" unicode="&#x4fc;" horiz-adv-x="1372" 
d="M-41 0l590 737l-307 697h471l123 -349h41l245 349h512l-553 -697l174 -387q60 -134 88.5 -220.5t28.5 -170.5q0 -183 -123.5 -296.5t-316.5 -113.5h-203l74 420h57q30 0 46 17.5t16 44.5q0 20 -9 41l-120 307h-41l-281 -379h-512z" />
    <glyph glyph-name="uni04FD" unicode="&#x4fd;" horiz-adv-x="1146" 
d="M-31 0l445 553l-234 532h410l88 -256h41l178 256h451l-422 -532l110 -246q90 -201 90 -332q0 -200 -117.5 -313t-332.5 -113h-141l63 369h47q57 0 81 25t24 75q0 32 -13 64l-75 194h-41l-201 -276h-451z" />
    <glyph glyph-name="uni04FE" unicode="&#x4fe;" horiz-adv-x="1372" 
d="M-41 0l459 573h-215l55 318h223l-239 543h471l123 -349h41l245 349h512l-432 -543h223l-55 -318h-215l258 -573h-471l-149 379h-41l-281 -379h-512z" />
    <glyph glyph-name="uni04FF" unicode="&#x4ff;" horiz-adv-x="1146" 
d="M-31 0l336 399h-194l53 308h194l-178 378h410l88 -256h41l178 256h451l-314 -378h195l-53 -308h-195l197 -399h-410l-106 276h-41l-201 -276h-451z" />
    <glyph glyph-name="uni0510" unicode="&#x510;" horiz-adv-x="1320" 
d="M379 748l2 10q-39 19 -66 53q-63 74 -63 193q0 93 40.5 176t115.5 146.5t191 100.5t257 37q274 0 430 -124.5t156 -335.5v-41h-434v6q0 39 -43 67.5t-129 28.5q-160 0 -160 -102q0 -34 40 -58t120 -24h133l-54 -308h-192q-77 0 -116.5 -32.5t-39.5 -69.5
q0 -39 50.5 -70.5t125.5 -31.5q93 0 142 35t57 88h430q-13 -89 -43.5 -165t-83.5 -143t-125 -114t-173.5 -74t-223.5 -27q-145 0 -261 34t-189 92t-111.5 133t-38.5 161q0 172 127 283q55 49 129 76z" />
    <glyph glyph-name="uni0511" unicode="&#x511;" horiz-adv-x="1126" 
d="M295 567l2 11q-31 17 -51 40q-49 61 -49 140q0 51 17 100.5t56 96.5t95 82.5t140 57t185 21.5q125 0 227 -31.5t164.5 -83.5t95.5 -114.5t33 -128.5v-10h-389q-14 71 -131 71q-106 0 -106 -82q0 -26 27.5 -43.5t78.5 -17.5h119l-43 -246h-158q-64 0 -89 -21.5t-25 -60.5
q0 -26 31.5 -43.5t101.5 -17.5q54 0 82.5 15.5t52.5 55.5h389q-19 -87 -59 -156t-104.5 -122.5t-160.5 -82t-219 -28.5q-118 0 -217.5 29.5t-162.5 77t-97.5 105t-34.5 116.5q0 132 99 215q44 38 100 55z" />
    <glyph glyph-name="uni0512" unicode="&#x512;" horiz-adv-x="1464" 
d="M-2 -20l70 409h34q85 0 130.5 40t70.5 134l225 871h1076l-240 -1352q-53 -286 -189.5 -409.5t-386.5 -123.5h-151l74 420h57q74 0 118.5 43.5t55.5 110.5l158 891h-256l-162 -604q-60 -222 -183 -326t-325 -104h-176z" />
    <glyph glyph-name="uni0513" unicode="&#x513;" horiz-adv-x="1218" 
d="M-2 -20l61 368h43q62 0 100 33.5t58 110.5l156 593h901l-199 -1126q-36 -207 -145 -308.5t-318 -101.5h-141l64 369h36q95 0 113 92l125 707h-143l-95 -348q-56 -212 -159 -300.5t-281 -88.5h-176z" />
    <glyph glyph-name="Wgrave" unicode="&#x1e80;" horiz-adv-x="2027" 
d="M338 0l-96 1434h471v-635h41l266 635h430l41 -635h41l256 635h481l-600 -1434h-481l-47 666h-41l-281 -666h-481zM1065 1577l-203 307h379l152 -307h-328z" />
    <glyph glyph-name="wgrave" unicode="&#x1e81;" horiz-adv-x="1699" 
d="M266 0l-76 1085h408v-471h41l197 471h348l28 -471h41l187 471h430l-457 -1085h-461l-26 430h-41l-178 -430h-441zM838 1208l-203 308h379l151 -308h-327z" />
    <glyph glyph-name="Wacute" unicode="&#x1e82;" horiz-adv-x="2027" 
d="M338 0l-96 1434h471v-635h41l266 635h430l41 -635h41l256 635h481l-600 -1434h-481l-47 666h-41l-281 -666h-481zM1106 1577l258 307h379l-309 -307h-328z" />
    <glyph glyph-name="wacute" unicode="&#x1e83;" horiz-adv-x="1699" 
d="M266 0l-76 1085h408v-471h41l197 471h348l28 -471h41l187 471h430l-457 -1085h-461l-26 430h-41l-178 -430h-441zM879 1208l258 308h379l-310 -308h-327z" />
    <glyph glyph-name="Wdieresis" unicode="&#x1e84;" horiz-adv-x="2027" 
d="M338 0l-96 1434h471v-635h41l266 635h430l41 -635h41l256 635h481l-600 -1434h-481l-47 666h-41l-281 -666h-481zM1319 1577l55 307h318l-56 -307h-317zM879 1577l55 307h317l-55 -307h-317z" />
    <glyph glyph-name="wdieresis" unicode="&#x1e85;" horiz-adv-x="1699" 
d="M266 0l-76 1085h408v-471h41l197 471h348l28 -471h41l187 471h430l-457 -1085h-461l-26 430h-41l-178 -430h-441zM1081 1208l56 308h317l-55 -308h-318zM641 1208l55 308h318l-56 -308h-317z" />
    <glyph glyph-name="uni1E9E" unicode="&#x1e9e;" horiz-adv-x="1423" 
d="M102 0l183 1044q29 177 157.5 283.5t311.5 106.5h829l-67 -379l-236 -219l-2 -11q43 -24 88 -75q90 -105 90 -258q0 -216 -134.5 -354t-348.5 -138h-287l59 348h160q59 0 90 33t31 90q0 36 -29 59t-82 23h-133l56 307l231 215h-246q-48 0 -81 -27.5t-40 -74.5l-170 -973
h-430z" />
    <glyph glyph-name="Ygrave" unicode="&#x1ef2;" horiz-adv-x="1372" 
d="M461 0l76 430l-336 1004h450l150 -492h41l321 492h492l-688 -1004l-76 -430h-430zM748 1577l-203 307h379l151 -307h-327z" />
    <glyph glyph-name="ygrave" unicode="&#x1ef3;" horiz-adv-x="1239" 
d="M49 -410l66 369h223q27 0 43 23q9 9 14 22l-225 1081h410l94 -573h41l264 573h451l-674 -1269q-61 -116 -135 -171t-191 -55h-381zM623 1208l-203 308h379l151 -308h-327z" />
    <glyph glyph-name="endash" unicode="&#x2013;" 
d="M141 399l66 369h1085l-65 -369h-1086z" />
    <glyph glyph-name="emdash" unicode="&#x2014;" horiz-adv-x="1617" 
d="M141 399l66 369h1474l-65 -369h-1475z" />
    <glyph glyph-name="quoteleft" unicode="&#x2018;" horiz-adv-x="614" 
d="M180 799l287 635h317l-174 -635h-430z" />
    <glyph glyph-name="quoteright" unicode="&#x2019;" horiz-adv-x="614" 
d="M201 799l174 635h430l-287 -635h-317z" />
    <glyph glyph-name="quotesinglbase" unicode="&#x201a;" horiz-adv-x="634" 
d="M25 -205l174 635h430l-287 -635h-317z" />
    <glyph glyph-name="quotedblleft" unicode="&#x201c;" horiz-adv-x="1167" 
d="M180 799l287 635h317l-174 -635h-430zM733 799l287 635h317l-174 -635h-430z" />
    <glyph glyph-name="quotedblright" unicode="&#x201d;" horiz-adv-x="1167" 
d="M201 799l174 635h430l-287 -635h-317zM754 799l174 635h430l-287 -635h-317z" />
    <glyph glyph-name="quotedblbase" unicode="&#x201e;" horiz-adv-x="1187" 
d="M25 -205l174 635h430l-287 -635h-317zM578 -205l174 635h430l-287 -635h-317z" />
    <glyph glyph-name="dagger" unicode="&#x2020;" horiz-adv-x="1075" 
d="M348 0l141 809h-266l62 348h266l49 277h379l-49 -277h266l-61 -348h-267l-141 -809h-379z" />
    <glyph glyph-name="daggerdbl" unicode="&#x2021;" horiz-adv-x="1075" 
d="M348 0l47 276h-266l61 349h267l32 184h-266l62 348h266l49 277h379l-49 -277h266l-61 -348h-267l-32 -184h266l-62 -349h-266l-47 -276h-379z" />
    <glyph glyph-name="bullet" unicode="&#x2022;" horiz-adv-x="1146" 
d="M350 512q0 156 107.5 262.5t251.5 106.5q142 0 221.5 -82.5t79.5 -204.5q0 -156 -107.5 -262.5t-251.5 -106.5q-138 0 -219.5 80.5t-81.5 206.5z" />
    <glyph glyph-name="ellipsis" unicode="&#x2026;" horiz-adv-x="1925" 
d="M748 0l75 430h430l-75 -430h-430zM1393 0l75 430h430l-75 -430h-430zM102 0l76 430h430l-76 -430h-430z" />
    <glyph glyph-name="perthousand" unicode="&#x2030;" horiz-adv-x="2570" 
d="M229 0l1143 1434h389l-1143 -1434h-389zM217 1057q0 167 120 282t277 115q138 0 230 -92t92 -227q0 -167 -120 -282.5t-277 -115.5q-137 0 -229.5 92.5t-92.5 227.5zM483 1085q0 -35 23.5 -58t60.5 -23q42 0 72.5 30t30.5 72q0 35 -23.5 58.5t-60.5 23.5
q-42 0 -72.5 -30.5t-30.5 -72.5zM1055 299q0 167 120 282t277 115q138 0 230 -92t92 -227q0 -111 -57 -203.5t-148.5 -143t-192.5 -50.5q-138 0 -229.5 92t-91.5 227zM1321 328q0 -35 23.5 -58.5t60.5 -23.5q42 0 72 30t30 72q0 35 -23.5 58.5t-60.5 23.5q-42 0 -72 -30
t-30 -72zM1853 299q0 111 57 203.5t148.5 143t192.5 50.5q137 0 229 -92t92 -227q0 -167 -120 -282t-277 -115q-138 0 -230 92t-92 227zM2120 328q0 -35 23.5 -58.5t60.5 -23.5q42 0 72 30t30 72q0 35 -23.5 58.5t-60.5 23.5q-42 0 -72 -30t-30 -72z" />
    <glyph glyph-name="guilsinglleft" unicode="&#x2039;" horiz-adv-x="798" 
d="M375 102l-232 430l383 431h416l-410 -461l216 -400h-373z" />
    <glyph glyph-name="guilsinglright" unicode="&#x203a;" horiz-adv-x="798" 
d="M57 102l410 461l-215 400h373l231 -431l-383 -430h-416z" />
    <glyph glyph-name="uni203D" unicode="&#x203d;" horiz-adv-x="1126" 
d="M434 553l78 440h-307q30 213 175 337t378 124q231 0 370.5 -103.5t139.5 -254.5q0 -116 -74.5 -203t-189.5 -135q-73 -31 -105.5 -63t-44.5 -91l-10 -51h-410zM328 0l71 410h430l-71 -410h-430zM635 993l-21 -116q38 23 91 45q57 24 77.5 42.5t20.5 49.5q0 25 -20 43
t-56 18q-32 0 -59 -22.5t-33 -59.5z" />
    <glyph glyph-name="fraction" unicode="&#x2044;" horiz-adv-x="296" 
d="M-410 0l1143 1434h246l-1143 -1434h-246z" />
    <glyph glyph-name="uni2070" unicode="&#x2070;" horiz-adv-x="737" 
d="M547 1085q47 0 95 63.5t48 180.5q0 61 -21.5 93t-58.5 32q-47 0 -95 -63.5t-48 -180.5q0 -61 21.5 -93t58.5 -32zM895 1352q0 -107 -31.5 -196t-83.5 -146t-117 -88t-135 -31q-121 0 -193.5 76.5t-72.5 220.5q0 107 31.5 196t83.5 146t117 88t135 31q121 0 193.5 -76.5
t72.5 -220.5z" />
    <glyph glyph-name="uni2074" unicode="&#x2074;" horiz-adv-x="675" 
d="M193 1034l28 164l334 440h287l-76 -430h72l-31 -174h-72l-24 -133h-205l24 133h-337zM449 1208h112l31 174h-21l-122 -163v-11z" />
    <glyph glyph-name="uni2075" unicode="&#x2075;" horiz-adv-x="665" 
d="M244 1126h205q9 -51 67 -51q36 0 59 21t23 65q0 28 -19.5 43t-50.5 15q-28 0 -57 -21l-18 -20h-191l123 460h461l-33 -184h-287l-22 -74h10l23 6q49 7 59 7q97 0 152 -62t55 -153q0 -122 -78.5 -204.5t-218.5 -82.5q-126 0 -194 62.5t-68 172.5z" />
    <glyph glyph-name="uni2076" unicode="&#x2076;" horiz-adv-x="675" 
d="M303 1331l250 307h235l-184 -225q97 -17 150 -77t53 -148q0 -130 -87.5 -213.5t-219.5 -83.5q-124 0 -198.5 63.5t-74.5 171.5q0 70 20 115.5t56 89.5zM432 1147q0 -32 19.5 -52t58.5 -20q40 0 66 28.5t26 63.5q0 32 -19.5 52t-58.5 20q-40 0 -66 -28.5t-26 -63.5z" />
    <glyph glyph-name="uni2077" unicode="&#x2077;" horiz-adv-x="604" 
d="M260 901l332 543h-273l35 194h512l-32 -184l-334 -553h-240z" />
    <glyph glyph-name="uni2078" unicode="&#x2078;" horiz-adv-x="696" 
d="M373 1290l2 10q-17 11 -31 29q-29 37 -29 86q0 99 79 166.5t198 67.5q116 0 186 -60t70 -135q0 -80 -55 -135q-20 -20 -54 -37l-2 -10q21 -9 37 -31q37 -47 37 -104q0 -110 -79 -178t-212 -68q-131 0 -207.5 58t-76.5 147q0 96 67 155q30 24 70 39zM520 1417
q0 -19 14 -32t41 -13q68 0 68 58q0 19 -14 32t-41 13q-68 0 -68 -58zM440 1120q0 -55 82 -55q37 0 60.5 17t23.5 51q0 55 -82 55q-37 0 -60.5 -17t-23.5 -51z" />
    <glyph glyph-name="uni2079" unicode="&#x2079;" horiz-adv-x="675" 
d="M317 901l185 225q-97 17 -150 77.5t-53 148.5q0 130 87.5 213.5t219.5 83.5q124 0 198.5 -64t74.5 -172q0 -70 -20 -115.5t-56 -89.5l-250 -307h-236zM504 1372q0 -32 19.5 -52t58.5 -20q40 0 66 29t26 64q0 31 -19.5 51t-58.5 20q-40 0 -66 -28.5t-26 -63.5z" />
    <glyph glyph-name="uni2080" unicode="&#x2080;" horiz-adv-x="737" 
d="M373 -20q47 0 95 63t48 180q0 61 -21.5 93t-58.5 32q-47 0 -95 -63.5t-48 -180.5q0 -61 21.5 -92.5t58.5 -31.5zM721 246q0 -107 -31.5 -196t-83.5 -146t-117 -88t-135 -31q-121 0 -193.5 76.5t-72.5 220.5q0 107 31.5 196t83.5 146t117 88t135 31q121 0 193.5 -76.5
t72.5 -220.5z" />
    <glyph glyph-name="uni2081" unicode="&#x2081;" horiz-adv-x="563" 
d="M199 -205l80 451h-154l35 194h102q51 0 60 52l8 40h205l-132 -737h-204z" />
    <glyph glyph-name="uni2082" unicode="&#x2082;" horiz-adv-x="675" 
d="M45 -205l31 174l321 256q66 52 66 82q0 51 -60 51q-30 0 -53 -20.5t-24 -50.5h-205q18 119 93 187.5t196 68.5q123 0 192.5 -57.5t69.5 -157.5q0 -77 -37 -129.5t-107 -106.5l-131 -102l-2 -10h226l-33 -185h-543z" />
    <glyph glyph-name="uni2083" unicode="&#x2083;" horiz-adv-x="675" 
d="M84 41h205v-10q0 -27 18 -44.5t47 -17.5q36 0 57 18t21 54q0 51 -78 51h-55l29 164h78q27 0 45 13.5t18 43.5q0 45 -57 45q-56 0 -66 -51h-205q14 103 90 169.5t195 66.5q115 0 184.5 -58.5t69.5 -146.5q0 -78 -49 -127q-25 -25 -49 -33l-2 -10q14 -9 28 -29
q29 -48 29 -98q0 -109 -82 -182.5t-211 -73.5q-125 0 -193.5 63t-68.5 160q0 17 2 33z" />
    <glyph glyph-name="uni2084" unicode="&#x2084;" horiz-adv-x="675" 
d="M-2 -72l29 164l333 440h287l-76 -430h72l-31 -174h-71l-25 -133h-205l25 133h-338zM254 102h113l30 174h-20l-123 -163v-11z" />
    <glyph glyph-name="uni2085" unicode="&#x2085;" horiz-adv-x="665" 
d="M70 20h204q9 -51 68 -51q36 0 59 21t23 65q0 28 -19.5 43t-50.5 15q-28 0 -57 -21l-18 -20h-191l123 460h461l-33 -184h-287l-22 -74h10l22 7q42 6 60 6q97 0 152 -62t55 -153q0 -122 -78.5 -204.5t-218.5 -82.5q-126 0 -194 62.5t-68 172.5z" />
    <glyph glyph-name="uni2086" unicode="&#x2086;" horiz-adv-x="675" 
d="M139 225l250 307h236l-185 -225q97 -17 150 -77t53 -148q0 -130 -87.5 -213.5t-219.5 -83.5q-124 0 -198.5 63.5t-74.5 171.5q0 70 20 115.5t56 89.5zM268 41q0 -32 19.5 -52t58.5 -20q40 0 66 28.5t26 63.5q0 32 -19.5 52t-58.5 20q-40 0 -66 -28.5t-26 -63.5z" />
    <glyph glyph-name="uni2087" unicode="&#x2087;" horiz-adv-x="604" 
d="M76 -205l332 543h-273l35 194h512l-33 -184l-334 -553h-239z" />
    <glyph glyph-name="uni2088" unicode="&#x2088;" horiz-adv-x="696" 
d="M199 184l2 11q-18 12 -31 28q-29 37 -29 86q0 99 79 166.5t198 67.5q116 0 186 -60t70 -135q0 -79 -56 -135q-21 -21 -53 -37l-2 -10q21 -9 37 -31q37 -47 37 -104q0 -110 -79 -178t-212 -68q-132 0 -208.5 58t-76.5 147q0 95 68 155q30 24 70 39zM346 311q0 -19 14 -32
t41 -13q68 0 68 58q0 19 -14 32t-41 13q-68 0 -68 -58zM266 14q0 -55 82 -55q37 0 60.5 17t23.5 51q0 55 -82 55q-37 0 -60.5 -17t-23.5 -51z" />
    <glyph glyph-name="uni2089" unicode="&#x2089;" horiz-adv-x="675" 
d="M143 -205l185 225q-97 17 -150 77.5t-53 148.5q0 130 87.5 213.5t219.5 83.5q124 0 198.5 -64t74.5 -172q0 -70 -20 -115.5t-56 -89.5l-250 -307h-236zM330 266q0 -31 19.5 -51t58.5 -20q40 0 66 28.5t26 63.5q0 31 -19.5 51t-58.5 20q-40 0 -66 -28.5t-26 -63.5z" />
    <glyph glyph-name="uni20A9" unicode="&#x20a9;" horiz-adv-x="2088" 
d="M90 338l53 307h236v174h-205l53 307h117v308h426v-308h195l116 308h396v-308h194l96 308h482l-127 -308h133l-53 -307h-205l-72 -174h246l-53 -307h-318l-141 -338h-453v338h-205l-120 -338h-451l-22 338h-318zM752 666h41l57 153h-98v-153zM1489 666h41l47 153h-88v-153
zM1116 645h80v103h-41z" />
    <glyph glyph-name="Euro" unicode="&#x20ac;" horiz-adv-x="1423" 
d="M119 451l37 204h163l23 123h-164l35 205h166q37 82 103 161t158.5 150.5t219.5 115.5t266 44q195 0 342 -57q67 -24 119 -58l-63 -352q-53 34 -103 53q-131 56 -254 56q-140 0 -243 -58q-47 -23 -84 -55h438l-35 -205h-491l-23 -123h492l-37 -204h-385q27 -35 69 -58
q87 -55 238 -55q126 0 233 31q48 13 82 30l-63 -358q-28 -19 -76 -31q-103 -30 -268 -30q-203 0 -346.5 66.5t-225.5 168.5q-86 99 -125 236h-198z" />
    <glyph glyph-name="uni20B4" unicode="&#x20b4;" horiz-adv-x="1351" 
d="M186 768l35 205h690q4 3 10.5 10t18 31t12.5 51q0 33 -26 57.5t-66 24.5q-91 0 -125 -82h-405q46 184 183 286.5t368 102.5q221 0 356 -102t135 -246q0 -33 -10 -66t-19.5 -50t-11.5 -17h139l-34 -205h-1250zM131 461l35 205h1249l-35 -205h-690q-4 -3 -10.5 -10t-18 -31
t-12.5 -51q0 -33 26 -57.5t66 -24.5q91 0 125 82h406q-46 -184 -183 -286.5t-368 -102.5q-221 0 -356.5 102t-135.5 246q0 15 2 30t5.5 28t8 25t8.5 21t8 16t7 10l2 3h-139z" />
    <glyph glyph-name="uni20B8" unicode="&#x20b8;" 
d="M389 0l105 594h-359l68 389h1147l-68 -389h-358l-105 -594h-430zM223 1096l60 338h1147l-60 -338h-1147z" />
    <glyph glyph-name="uni20B9" unicode="&#x20b9;" horiz-adv-x="1269" 
d="M129 389l53 307h443q111 0 174 92h-600l45 246h600q-14 40 -58 66t-110 26h-418l55 308h1147l-55 -308h-145q1 -3 4 -11.5t4 -14.5q7 -33 10 -66h113l-45 -246h-95q-50 -148 -140 -243.5t-253 -149.5l260 -395h-504l-223 389h-262z" />
    <glyph glyph-name="uni20BA" unicode="&#x20ba;" horiz-adv-x="1392" 
d="M215 0l82 471l-174 -61l45 256l174 61l18 102l-174 -61l45 256l175 61l61 349h430l-33 -185l373 133l-47 -256l-371 -133l-18 -102l373 133l-46 -256l-372 -133l-37 -215h49q114 0 181.5 52.5t78.5 141.5h430q-43 -302 -221 -458t-520 -156h-502z" />
    <glyph glyph-name="uni20BD" unicode="&#x20bd;" horiz-adv-x="1402" 
d="M195 0l32 195h-143l47 266h143l21 112h-143l51 287h143l100 574h609q209 0 335 -110t126 -269q0 -212 -144 -347t-379 -135h-268l-20 -112h409l-47 -266h-410l-32 -195h-430zM776 860h176q56 0 94.5 38.5t38.5 105.5q0 43 -28 72.5t-74 29.5h-164z" />
    <glyph glyph-name="uni20BF" unicode="&#x20bf;" horiz-adv-x="1392" 
d="M297 -225l39 225h-223l252 1434h223l41 225h266l-41 -225h113l41 225h266l-43 -244q122 -35 190 -121t68 -198q0 -176 -109 -293q-44 -49 -106 -86l-2 -10q32 -28 61 -68q64 -89 64 -188q0 -190 -114.5 -311t-301.5 -138l-39 -227h-266l39 225h-113l-39 -225h-266z
M604 358h266q39 0 70 30.5t31 72.5q0 37 -24 59.5t-56 22.5h-254zM698 891h244q43 0 72.5 31t29.5 71q0 37 -24.5 59.5t-56.5 22.5h-232z" />
    <glyph glyph-name="uni2113" unicode="&#x2113;" horiz-adv-x="870" 
d="M195 430v195q77 0 124 14q4 2 18.5 7.5t20.5 8.5v502q0 141 78 219t199 78q129 0 208 -81t79 -236q0 -211 -96.5 -373.5t-262.5 -251.5v-205q0 -133 123 -133q50 0 88 14q23 10 35 17v-195q-8 -3 -24 -8t-23 -8q-54 -14 -107 -14q-141 0 -219 74t-78 212v195
q-8 -3 -25 -9t-22 -8q-54 -14 -116 -14zM563 1106v-379q79 70 116.5 160t37.5 219q0 143 -82 143q-34 0 -53 -31.5t-19 -111.5z" />
    <glyph glyph-name="uni2116" unicode="&#x2116;" horiz-adv-x="2314" 
d="M1556 0l54 307h655l-53 -307h-656zM113 0l252 1434h481l201 -666h40l117 666h430l-252 -1434h-481l-203 666h-41l-114 -666h-430zM1657 729q0 110 58.5 203t149 143.5t189.5 50.5q138 0 230 -92t92 -227q0 -110 -58.5 -203t-149.5 -143.5t-190 -50.5q-138 0 -229.5 92
t-91.5 227zM1923 758q0 -35 24.5 -58.5t59.5 -23.5q42 0 72 30t30 72q0 35 -24.5 58.5t-59.5 23.5q-42 0 -72 -30t-30 -72z" />
    <glyph glyph-name="uni2117" unicode="&#x2117;" horiz-adv-x="1658" 
d="M707 369v706h317q123 0 194.5 -69.5t71.5 -186.5t-71.5 -186.5t-194.5 -69.5h-102v-194h-215zM922 748h71q38 0 60 20t22 51t-22.5 51.5t-59.5 20.5h-71v-143zM451 717q0 -212 145.5 -352t355.5 -140t356 140t146 352t-146 351.5t-356 139.5t-355.5 -139.5t-145.5 -351.5
zM195 717q0 207 99 376t272.5 265t385.5 96q159 0 299.5 -56.5t241 -154t159 -234.5t58.5 -292t-58.5 -292t-159 -234.5t-241 -154t-299.5 -56.5q-212 0 -385.5 96t-272.5 265t-99 376z" />
    <glyph glyph-name="trademark" unicode="&#x2122;" horiz-adv-x="1628" 
d="M387 778v420h-184v236h614v-236h-184v-420h-246zM879 778v656h338l81 -256h21l82 256h338v-656h-246v256h-20l-82 -256h-164l-82 256h-21v-256h-245z" />
    <glyph glyph-name="uni2126" unicode="&#x2126;" horiz-adv-x="1720" 
d="M307 0v195h246l-10 7q-10 6 -28 19t-40.5 32t-48.5 46.5t-51.5 59.5t-48.5 73.5t-41 87t-28.5 102t-10.5 115.5q0 155 55 288t151.5 227.5t233.5 148t297 53.5t297 -53.5t233.5 -148t151.5 -227.5t55 -288q0 -59 -10.5 -115.5t-28.5 -102t-41 -87t-48.5 -73.5
t-51.5 -59.5t-48.5 -46.5t-40.5 -32t-28 -19l-10 -7h246v-195h-563v184q119 55 204 131q205 173 205 422q0 159 -71 277t-188.5 176.5t-262.5 58.5t-262.5 -58.5t-188.5 -176.5t-71 -277q0 -249 205 -422q85 -76 204 -131v-184h-563z" />
    <glyph glyph-name="estimated" unicode="&#x212e;" horiz-adv-x="1740" 
d="M573 778h861v441q-180 163 -430 163q-122 0 -233 -42.5t-198 -120.5v-441zM573 707v-488q49 -47 117 -84q148 -84 334 -84q243 0 428 154q85 69 145 153l62 -51q-75 -98 -164 -164q-217 -163 -471 -163q-158 0 -299 58t-241.5 156.5t-159 235t-58.5 287.5
q0 202 98.5 371.5t268 267.5t371.5 98q151 0 287.5 -58t235 -156.5t156.5 -235t58 -287.5v-10h-1168z" />
    <glyph glyph-name="uni2150" unicode="&#x2150;" horiz-adv-x="1515" 
d="M174 0l1143 1434h246l-1143 -1434h-246zM358 696l80 451h-153l34 194h103q50 0 59 52l8 41h205l-131 -738h-205zM991 0l332 543h-272l34 194h512l-32 -184l-334 -553h-240z" />
    <glyph glyph-name="uni2151" unicode="&#x2151;" horiz-adv-x="1536" 
d="M174 0l1143 1434h246l-1143 -1434h-246zM358 696l80 451h-153l34 194h103q50 0 59 52l8 41h205l-131 -738h-205zM987 0l184 225q-97 17 -149.5 77.5t-52.5 148.5q0 130 87.5 213.5t219.5 83.5q124 0 198 -64t74 -172q0 -70 -19.5 -116t-55.5 -89l-250 -307h-236z
M1174 471q0 -32 19 -52t58 -20q40 0 66 29t26 64q0 32 -19 51.5t-58 19.5q-40 0 -66 -28.5t-26 -63.5z" />
    <glyph glyph-name="uni2152" unicode="&#x2152;" horiz-adv-x="2048" 
d="M174 0l1143 1434h246l-1143 -1434h-246zM358 696l80 451h-153l34 194h103q50 0 59 52l8 41h205l-131 -738h-205zM1042 0l80 451h-153l35 194h102q50 0 59 51l9 41h204l-131 -737h-205zM1669 184q47 0 95 63.5t48 180.5q0 61 -21.5 93t-57.5 32q-47 0 -95.5 -63.5
t-48.5 -180.5q0 -61 21.5 -93t58.5 -32zM2017 451q0 -107 -31 -196t-83 -146t-117 -88t-135 -31q-121 0 -194 76.5t-73 220.5q0 107 31.5 196t83.5 146t117 88t135 31q121 0 193.5 -76.5t72.5 -220.5z" />
    <glyph glyph-name="onethird" unicode="&#x2153;" horiz-adv-x="1525" 
d="M174 0l1143 1434h246l-1143 -1434h-246zM358 696l80 451h-153l34 194h103q50 0 59 52l8 41h205l-131 -738h-205zM938 246h205v-10q0 -27 18 -44.5t47 -17.5q36 0 57 18t21 54q0 51 -78 51h-55l29 164h78q27 0 45 13.5t18 43.5q0 45 -57 45q-56 0 -66 -51h-205
q14 103 90 169.5t195 66.5q115 0 184.5 -58.5t69.5 -146.5q0 -78 -49 -127q-25 -25 -49 -33l-2 -10q14 -9 28 -29q29 -48 29 -98q0 -109 -82 -182.5t-211 -73.5q-125 0 -193.5 63t-68.5 160q0 17 2 33z" />
    <glyph glyph-name="twothirds" unicode="&#x2154;" horiz-adv-x="1617" 
d="M266 0l1143 1434h246l-1143 -1434h-246zM205 696l31 174l321 256q66 52 66 82q0 52 -60 52q-30 0 -53.5 -21t-24.5 -51h-204q18 119 92.5 187.5t195.5 68.5q123 0 192.5 -57.5t69.5 -157.5q0 -53 -21.5 -99t-49 -74t-72.5 -63l-131 -102l-2 -10h225l-32 -185h-543z
M1020 246h205v-10q0 -27 18 -44.5t47 -17.5q36 0 57 18t21 54q0 51 -78 51h-55l29 164h77q27 0 45.5 13.5t18.5 43.5q0 45 -57 45q-56 0 -66 -51h-205q14 103 90 169.5t195 66.5q115 0 184.5 -58.5t69.5 -146.5q0 -78 -49 -127q-25 -25 -49 -33l-2 -10q14 -9 28 -29
q29 -48 29 -98q0 -109 -82 -182.5t-211 -73.5q-125 0 -193.5 63t-68.5 160q0 17 2 33z" />
    <glyph glyph-name="uni2155" unicode="&#x2155;" horiz-adv-x="1536" 
d="M174 0l1143 1434h246l-1143 -1434h-246zM358 696l80 451h-153l34 194h103q50 0 59 52l8 41h205l-131 -738h-205zM954 225h205q9 -51 68 -51q36 0 59 21t23 65q0 28 -19.5 42.5t-50.5 14.5q-29 0 -57 -20l-19 -21h-190l123 461h460l-32 -184h-287l-23 -74h11l22 6
q49 7 60 7q97 0 151.5 -62.5t54.5 -153.5q0 -122 -78 -204t-218 -82q-126 0 -194.5 62.5t-68.5 172.5z" />
    <glyph glyph-name="uni2156" unicode="&#x2156;" horiz-adv-x="1628" 
d="M266 0l1143 1434h246l-1143 -1434h-246zM205 696l31 174l321 256q66 52 66 82q0 52 -60 52q-30 0 -53.5 -21t-24.5 -51h-204q18 119 92.5 187.5t195.5 68.5q123 0 192.5 -57.5t69.5 -157.5q0 -53 -21.5 -99t-49 -74t-72.5 -63l-131 -102l-2 -10h225l-32 -185h-543z
M1047 225h204q9 -51 68 -51q36 0 59 21t23 65q0 28 -19.5 42.5t-50.5 14.5q-29 0 -57 -20l-19 -21h-190l123 461h461l-33 -184h-287l-22 -74h10l22 6q49 7 60 7q97 0 152 -62.5t55 -153.5q0 -122 -78.5 -204t-218.5 -82q-126 0 -194 62.5t-68 172.5z" />
    <glyph glyph-name="uni2157" unicode="&#x2157;" horiz-adv-x="1587" 
d="M225 0l1143 1434h246l-1143 -1434h-246zM203 942h205v-10q0 -27 18 -44.5t47 -17.5q36 0 57 18t21 54q0 51 -78 51h-55l28 164h78q27 0 45.5 13.5t18.5 43.5q0 46 -58 46q-55 0 -65 -52h-205q14 103 90 169.5t195 66.5q115 0 184.5 -58.5t69.5 -146.5q0 -78 -49 -127
q-24 -24 -50 -33l-2 -10q16 -10 29 -29q29 -48 29 -98q0 -109 -82 -182.5t-211 -73.5q-125 0 -193.5 63t-68.5 160q0 17 2 33zM1006 225h204q9 -51 68 -51q36 0 59 21t23 65q0 28 -19.5 42.5t-50.5 14.5q-29 0 -57 -20l-19 -21h-190l123 461h461l-33 -184h-287l-22 -74h10
l22 6q49 7 60 7q97 0 152 -62.5t55 -153.5q0 -122 -78.5 -204t-218.5 -82q-126 0 -194 62.5t-68 172.5z" />
    <glyph glyph-name="uni2158" unicode="&#x2158;" horiz-adv-x="1648" 
d="M287 0l1143 1434h245l-1143 -1434h-245zM217 829l29 164l334 441h286l-75 -430h71l-31 -175h-71l-25 -133h-205l25 133h-338zM473 1004h113l30 174h-20l-123 -164v-10zM1067 225h205q9 -51 67 -51q36 0 59 21t23 65q0 28 -19 42.5t-50 14.5q-30 0 -58 -20l-18 -21h-191
l123 461h461l-33 -184h-286l-23 -74h10l23 6q49 7 59 7q97 0 152 -62.5t55 -153.5q0 -122 -78.5 -204t-218.5 -82q-126 0 -194 62.5t-68 172.5z" />
    <glyph glyph-name="uni2159" unicode="&#x2159;" horiz-adv-x="1495" 
d="M174 0l1143 1434h246l-1143 -1434h-246zM358 696l80 451h-153l34 194h103q50 0 59 52l8 41h205l-131 -738h-205zM963 430l249 307h236l-184 -225q97 -17 149.5 -77t52.5 -148q0 -130 -87.5 -213.5t-219.5 -83.5q-124 0 -198 63.5t-74 171.5q0 70 20 115.5t56 89.5z
M1092 246q0 -32 19 -52t58 -20q41 0 67 28.5t26 63.5q0 32 -19.5 52t-58.5 20q-40 0 -66 -28.5t-26 -63.5z" />
    <glyph glyph-name="uni215A" unicode="&#x215a;" horiz-adv-x="1576" 
d="M256 0l1143 1434h246l-1143 -1434h-246zM258 922h205q9 -52 67 -52q36 0 59 21t23 65q0 28 -19 43t-50 15q-29 0 -58 -21l-18 -20h-191l123 461h461l-33 -185h-286l-23 -73h10l23 6q42 6 59 6q97 0 152 -62t55 -153q0 -122 -78.5 -204.5t-218.5 -82.5q-126 0 -194 63
t-68 173zM1044 430l250 307h236l-184 -225q97 -17 149.5 -77t52.5 -148q0 -130 -87.5 -213.5t-219.5 -83.5q-124 0 -198 63.5t-74 171.5q0 71 19.5 116.5t55.5 88.5zM1174 246q0 -32 19 -52t58 -20q40 0 66 28.5t26 63.5q0 32 -19 52t-58 20q-40 0 -66 -28.5t-26 -63.5z" />
    <glyph glyph-name="oneeighth" unicode="&#x215b;" horiz-adv-x="1536" 
d="M174 0l1143 1434h246l-1143 -1434h-246zM358 696l80 451h-153l34 194h103q50 0 59 52l8 41h205l-131 -738h-205zM1063 389l2 10q-17 11 -31 29q-28 36 -28 86q0 99 78.5 166.5t197.5 67.5q116 0 186 -60t70 -135q0 -80 -55 -135q-21 -21 -53 -37l-3 -10q21 -9 37 -31
q37 -47 37 -104q0 -110 -79 -178t-212 -68q-131 0 -207.5 58t-76.5 147q0 96 67 155q30 24 70 39zM1210 516q0 -19 14 -32t42 -13q67 0 67 57q0 19 -14 32t-41 13q-68 0 -68 -57zM1130 219q0 -55 82 -55q38 0 61 16.5t23 50.5q0 56 -82 56q-37 0 -60.5 -17t-23.5 -51z" />
    <glyph glyph-name="threeeighths" unicode="&#x215c;" horiz-adv-x="1587" 
d="M225 0l1143 1434h246l-1143 -1434h-246zM203 942h205v-10q0 -27 18 -44.5t47 -17.5q36 0 57 18t21 54q0 51 -78 51h-55l28 164h78q27 0 45.5 13.5t18.5 43.5q0 46 -58 46q-55 0 -65 -52h-205q14 103 90 169.5t195 66.5q115 0 184.5 -58.5t69.5 -146.5q0 -78 -49 -127
q-24 -24 -50 -33l-2 -10q16 -10 29 -29q29 -48 29 -98q0 -109 -82 -182.5t-211 -73.5q-125 0 -193.5 63t-68.5 160q0 17 2 33zM1114 389l2 10q-17 11 -31 29q-28 36 -28 86q0 99 78.5 166.5t197.5 67.5q116 0 186 -60t70 -135q0 -80 -55 -135q-21 -21 -53 -37l-2 -10
q21 -9 37 -31q36 -46 36 -104q0 -110 -78.5 -178t-211.5 -68q-132 0 -208.5 58t-76.5 147q0 96 67 155q30 24 70 39zM1262 516q0 -19 14 -32t41 -13q67 0 67 57q0 19 -14 32t-41 13q-67 0 -67 -57zM1182 219q0 -55 82 -55q38 0 61 16.5t23 50.5q0 56 -82 56q-37 0 -60.5 -17
t-23.5 -51z" />
    <glyph glyph-name="fiveeighths" unicode="&#x215d;" horiz-adv-x="1617" 
d="M256 0l1143 1434h246l-1143 -1434h-246zM258 922h205q9 -52 67 -52q36 0 59 21t23 65q0 28 -19 43t-50 15q-29 0 -58 -21l-18 -20h-191l123 461h461l-33 -185h-286l-23 -73h10l23 6q42 6 59 6q97 0 152 -62t55 -153q0 -122 -78.5 -204.5t-218.5 -82.5q-126 0 -194 63
t-68 173zM1145 389l2 10q-17 11 -31 29q-29 37 -29 86q0 99 79 166.5t198 67.5q116 0 186 -60t70 -135q0 -80 -55 -135q-20 -20 -54 -37l-2 -10q21 -9 37 -31q37 -47 37 -104q0 -110 -79 -178t-212 -68q-131 0 -207.5 58t-76.5 147q0 96 67 155q30 24 70 39zM1292 516
q0 -19 14 -32t42 -13q67 0 67 57q0 19 -14 32t-41 13q-68 0 -68 -57zM1212 219q0 -55 82 -55q38 0 61 16.5t23 50.5q0 56 -82 56q-37 0 -60.5 -17t-23.5 -51z" />
    <glyph glyph-name="seveneighths" unicode="&#x215e;" horiz-adv-x="1515" 
d="M154 0l1142 1434h246l-1143 -1434h-245zM274 696l332 543h-272l35 195h512l-33 -185l-334 -553h-240zM1042 389l2 10q-15 10 -30 29q-29 37 -29 86q0 99 79 166.5t198 67.5q116 0 186 -60t70 -135q0 -79 -56 -135q-21 -21 -53 -37l-2 -10q21 -9 37 -31q37 -47 37 -104
q0 -110 -79 -178t-212 -68q-132 0 -208.5 58t-76.5 147q0 95 68 155q31 25 69 39zM1190 516q0 -19 14 -32t41 -13q68 0 68 57q0 19 -14 32t-42 13q-67 0 -67 -57zM1110 219q0 -55 82 -55q38 0 61 16.5t23 50.5q0 56 -82 56q-37 0 -60.5 -17t-23.5 -51z" />
    <glyph glyph-name="uni215F" unicode="&#x215f;" horiz-adv-x="880" 
d="M174 0l1143 1434h246l-1143 -1434h-246zM358 696l80 451h-153l34 194h103q50 0 59 52l8 41h205l-131 -738h-205z" />
    <glyph glyph-name="arrowleft" unicode="&#x2190;" horiz-adv-x="2048" 
d="M840 266l-430 430v41l430 430h409v-20l-245 -246v-10h839v-348h-839v-11l245 -245v-21h-409z" />
    <glyph glyph-name="arrowup" unicode="&#x2191;" horiz-adv-x="2048" 
d="M946 0v829h-10l-246 -245h-20v409l440 441h31l440 -441v-409h-20l-246 245h-10v-829h-359z" />
    <glyph glyph-name="arrowright" unicode="&#x2192;" horiz-adv-x="2048" 
d="M410 543v348h839v10l-245 246v20h409l430 -430v-41l-430 -430h-409v21l245 245v11h-839z" />
    <glyph glyph-name="arrowdown" unicode="&#x2193;" horiz-adv-x="2048" 
d="M1110 0l-440 440v410h20l246 -246h10v830h359v-830h10l246 246h20v-410l-440 -440h-31z" />
    <glyph glyph-name="uni2196" unicode="&#x2196;" horiz-adv-x="2048" 
d="M553 655v615l20 20h615l287 -286l-11 -11h-348l-10 -10l594 -594l-246 -246l-594 594l-10 -10v-348l-10 -10z" />
    <glyph glyph-name="uni2197" unicode="&#x2197;" horiz-adv-x="2048" 
d="M553 389l594 594l-10 10h-349l-10 11l287 286h614l21 -20v-615l-287 -286l-10 10v348l-10 10l-594 -594z" />
    <glyph glyph-name="uni2198" unicode="&#x2198;" horiz-adv-x="2048" 
d="M778 430l10 10h349l10 11l-594 593l246 246l594 -594l10 11v348l10 10l287 -287v-614l-21 -21h-614z" />
    <glyph glyph-name="uni2199" unicode="&#x2199;" horiz-adv-x="2048" 
d="M553 164v614l287 287l10 -10v-348l10 -11l594 594l246 -246l-594 -593l10 -11h348l11 -10l-287 -287h-615z" />
    <glyph glyph-name="partialdiff" unicode="&#x2202;" horiz-adv-x="1198" 
d="M481 1157h-215q16 57 46 107t78 94.5t122 70t164 25.5q245 0 378.5 -188t133.5 -570q0 -353 -130 -534.5t-372 -181.5q-88 0 -171.5 35.5t-147.5 97t-103 153t-39 195.5q0 199 130.5 330t330.5 131q119 0 217 -52q39 -20 70 -51h10q-47 441 -317 441q-68 0 -111 -24
t-74 -79zM696 174q128 0 198.5 111.5t78.5 308.5q-37 41 -74 65q-97 68 -203 68q-124 0 -195 -77.5t-71 -188.5q0 -136 73 -211.5t193 -75.5z" />
    <glyph glyph-name="emptyset" unicode="&#x2205;" horiz-adv-x="1740" 
d="M594 389l680 785q-121 75 -270 75q-137 0 -257 -68t-193 -191.5t-73 -272.5q0 -187 113 -328zM256 -10l190 225q-92 111 -136 231t-44 271q0 165 57.5 304.5t157.5 233.5t235 146.5t288 52.5q109 0 216 -29.5t193 -83.5l92 103h246l-190 -225q92 -111 136 -231t44 -271
q0 -220 -99 -389.5t-266 -258.5t-372 -89q-231 0 -410 112l-92 -102h-246zM1413 1044l-680 -784q123 -76 271 -76q137 0 256.5 68.5t192.5 192t73 272.5q0 186 -113 327z" />
    <glyph glyph-name="uni2206" unicode="&#x2206;" horiz-adv-x="1413" 
d="M123 0l522 1434h246l522 -1434h-1290zM420 205h696l-348 983z" />
    <glyph glyph-name="product" unicode="&#x220f;" horiz-adv-x="1536" 
d="M328 -225v1659h1126v-1659h-215v1454h-696v-1454h-215z" />
    <glyph glyph-name="summation" unicode="&#x2211;" 
d="M276 -225v184l441 696l-441 615v184h1004v-205h-737l430 -594l-430 -675h737v-205h-1004z" />
    <glyph glyph-name="minus" unicode="&#x2212;" horiz-adv-x="1136" 
d="M195 410v368h972v-368h-972z" />
    <glyph glyph-name="radical" unicode="&#x221a;" horiz-adv-x="1341" 
d="M635 -225l-154 491h-266v226h420l133 -472h31l481 1639h225l-573 -1884h-297z" />
    <glyph glyph-name="infinity" unicode="&#x221e;" horiz-adv-x="1658" 
d="M848 717q-59 75 -115 114t-121 39q-67 0 -115 -40t-48 -113q0 -74 48 -114t115 -40q65 0 121 39.5t115 114.5zM254 717q0 148 99 243t259 95q103 0 193 -56.5t156 -148.5q66 93 155.5 149t192.5 56q160 0 259 -95t99 -243t-99 -243t-259 -95q-103 0 -192.5 56t-155.5 149
q-66 -92 -156 -148.5t-193 -56.5q-160 0 -259 95t-99 243zM1073 717q59 -75 115 -114.5t121 -39.5q67 0 115.5 40.5t48.5 113.5t-48.5 113t-115.5 40q-65 0 -121 -39t-115 -114z" />
    <glyph glyph-name="integral" unicode="&#x222b;" horiz-adv-x="798" 
d="M215 -225v184h72q79 0 111 36t32 128v1198q0 338 318 338h102v-184h-72q-79 0 -111 -36t-32 -128v-1198q0 -338 -318 -338h-102z" />
    <glyph glyph-name="approxequal" unicode="&#x2248;" horiz-adv-x="1259" 
d="M532 92h-368q0 212 97 321t271 109q67 0 121 -16t82.5 -35t61.5 -35t63 -16q92 0 92 102h369q0 -212 -97.5 -321t-271.5 -109q-67 0 -121 16t-82 35.5t-61 35.5t-63 16q-93 0 -93 -103zM532 604h-368q0 212 97 321t271 109q67 0 121 -16t82.5 -35t61.5 -35t63 -16
q92 0 92 102h369q0 -212 -97.5 -321t-271.5 -109q-67 0 -121 16t-82 35.5t-61 35.5t-63 16q-93 0 -93 -103z" />
    <glyph glyph-name="notequal" unicode="&#x2260;" horiz-adv-x="1146" 
d="M281 20l61 164h-106v348h235l45 123h-280v349h409l62 163h385l-62 -163h107v-349h-236l-45 -123h281v-348h-410l-61 -164h-385z" />
    <glyph glyph-name="lessequal" unicode="&#x2264;" horiz-adv-x="1136" 
d="M215 0v307h952v-307h-952zM215 563v430l952 195v-318l-501 -92l501 -92v-317z" />
    <glyph glyph-name="greaterequal" unicode="&#x2265;" horiz-adv-x="1136" 
d="M203 0v307h952v-307h-952zM203 369v317l502 92l-502 92v318l952 -195v-430z" />
    <glyph glyph-name="uni2318" unicode="&#x2318;" horiz-adv-x="1658" 
d="M860 604h205v225h-205v-225zM1260 1014h92q143 0 143 123q0 52 -32 82t-81 30q-122 0 -122 -143v-92zM573 604h93v225h-93q-161 0 -249 80t-88 228q0 132 85.5 214.5t231.5 82.5q147 0 227 -88t80 -250v-82h205v82q0 162 80 250t227 88q146 0 232 -82.5t86 -214.5
q0 -148 -88.5 -228t-249.5 -80h-92v-225h92q162 0 250 -80t88 -227q0 -132 -86 -214.5t-232 -82.5q-147 0 -227 88t-80 250v82h-205v-82q0 -162 -80 -250t-227 -88q-146 0 -231.5 82.5t-85.5 214.5q0 148 88 227.5t249 79.5zM573 1014h93v92q0 143 -123 143q-49 0 -81 -30
t-32 -82q0 -123 143 -123zM666 328v92h-93q-143 0 -143 -123q0 -52 32 -82.5t81 -30.5q123 0 123 144zM1260 420v-92q0 -144 122 -144q49 0 81 30.5t32 82.5q0 123 -143 123h-92z" />
    <glyph glyph-name="uni2460" unicode="&#x2460;" horiz-adv-x="2048" 
d="M1147 61q289 0 467 182.5t178 473.5t-178 473t-467 182q-290 0 -467.5 -181.5t-177.5 -473.5t177.5 -474t467.5 -182zM246 717q0 193 68 360.5t186.5 286t286 186.5t360.5 68t360.5 -68t286 -186.5t186.5 -286t68 -360.5t-68 -360.5t-186.5 -286t-286 -186.5t-360.5 -68
t-360.5 68t-286 186.5t-186.5 286t-68 360.5zM1075 348v451h-153v194h102q51 0 51 51v41h205v-737h-205z" />
    </font>
</defs>
</svg>
