<?xml version="1.0" standalone="no"?>
<!DOCTYPE svg PUBLIC "-//W3C//DTD SVG 1.1//EN" "http://www.w3.org/Graphics/SVG/1.1/DTD/svg11.dtd" >
<svg xmlns="http://www.w3.org/2000/svg" xmlns:xlink="http://www.w3.org/1999/xlink" version="1.1">
<metadata>
Created by FontForge 20170731 at Sat Jul 29 01:07:13 2023
 By Aleksey,,,
Copyright (c) 2019 by TypeType. Designers Ivan Gladkikh, Pavel Emelyanov. Technical designers Marina Khodak, Nadezhda Polomoshnova, Kseniya Karataeva, Olexa Volochay, Nadyr Rakhimov. All rights reserved. |DCNT
</metadata>
<defs>
<font id="TTHoves-ExtraLightItalic" horiz-adv-x="1126" >
  <font-face 
    font-family="TT Hoves ExtraLight"
    font-weight="275"
    font-style="italic"
    font-stretch="normal"
    units-per-em="2048"
    panose-1="2 0 8 3 2 0 0 9 0 4"
    ascent="1434"
    descent="-614"
    x-height="1024"
    cap-height="1434"
    bbox="-737 -481 3047 1987"
    underline-thickness="102"
    underline-position="-307"
    slope="-10"
    unicode-range="U+000D-FB04"
  />
<missing-glyph horiz-adv-x="0" 
 />
    <glyph glyph-name="f_f" unicode="ff" horiz-adv-x="1105" 
d="M236 0l163 932h-163l16 92h164l33 195q14 88 58 131t128 43h182l-16 -93h-176q-39 0 -58 -17.5t-26 -63.5l-33 -195h379l33 195q14 88 58 131t128 43h182l-16 -93h-176q-39 0 -58 -17.5t-26 -63.5l-33 -195h246l-17 -92h-245l-164 -932h-92l163 932h-378l-164 -932h-92z
" />
    <glyph glyph-name="uniFB01" unicode="fi" horiz-adv-x="983" 
d="M236 0l163 932h-163l16 92h164l33 195q14 88 58 131t128 43h162l-17 -93h-155q-39 0 -58 -17.5t-26 -63.5l-33 -195h471l-180 -1024h-92l163 932h-378l-164 -932h-92zM922 1280l18 113h113l-19 -113h-112z" />
    <glyph glyph-name="uniFB02" unicode="fl" horiz-adv-x="993" 
d="M236 0l163 932h-163l16 92h164l33 195q14 89 57 131.5t127 42.5h409l-243 -1393h-92l227 1300h-309q-39 0 -58 -17.5t-26 -63.5l-33 -195h225l-16 -92h-225l-164 -932h-92z" />
    <glyph glyph-name="f_f_i" unicode="ffi" horiz-adv-x="1454" 
d="M236 0l163 932h-163l16 92h164l33 195q14 88 58 131t128 43h182l-16 -93h-176q-39 0 -58 -17.5t-26 -63.5l-33 -195h379l33 195q14 88 58 131t128 43h182l-16 -93h-176q-39 0 -58 -17.5t-26 -63.5l-33 -195h471l-180 -1024h-92l163 932h-378l-164 -932h-92l163 932h-378
l-164 -932h-92zM1393 1280l18 113h113l-19 -113h-112z" />
    <glyph glyph-name="f_f_l" unicode="ffl" horiz-adv-x="1464" 
d="M236 0l163 932h-163l16 92h164l33 195q14 88 58 131t128 43h182l-16 -93h-176q-39 0 -58 -17.5t-26 -63.5l-33 -195h379l33 195q14 89 57 131.5t127 42.5h409l-243 -1393h-92l227 1300h-309q-39 0 -58 -17.5t-26 -63.5l-33 -195h225l-16 -92h-225l-164 -932h-92l163 932
h-378l-164 -932h-92z" />
    <glyph glyph-name="f_f_j" unicode="ffj" horiz-adv-x="1454" 
d="M236 0l163 932h-163l16 92h164l33 195q14 88 58 131t128 43h182l-16 -93h-176q-39 0 -58 -17.5t-26 -63.5l-33 -195h379l33 195q14 88 58 131t128 43h162l-17 -93h-155q-39 0 -58 -17.5t-26 -63.5l-33 -195h471l-225 -1270q-33 -164 -181 -164h-184l17 93h178q38 0 55 17
t25 60l206 1172h-378l-164 -932h-92l163 932h-378l-164 -932h-92zM1393 1280l18 113h113l-19 -113h-112z" />
    <glyph glyph-name="f_j" unicode="fj" horiz-adv-x="983" 
d="M389 -410l17 93h178q38 0 55 17t25 60l206 1172h-378l-164 -932h-92l163 932h-163l16 92h164l33 195q14 88 58 131t128 43h162l-17 -93h-155q-39 0 -58 -17.5t-26 -63.5l-33 -195h471l-225 -1270q-33 -164 -181 -164h-184zM922 1280l18 113h113l-19 -113h-112z" />
    <glyph glyph-name=".notdef" horiz-adv-x="0" 
 />
    <glyph glyph-name=".null" horiz-adv-x="0" 
 />
    <glyph glyph-name="nonmarkingreturn" horiz-adv-x="682" 
 />
    <glyph glyph-name="NULL" horiz-adv-x="0" 
 />
    <glyph glyph-name="NULL" horiz-adv-x="0" 
 />
    <glyph glyph-name="CR" unicode="&#xd;" horiz-adv-x="0" 
 />
    <glyph glyph-name="space" unicode=" " horiz-adv-x="450" 
 />
    <glyph glyph-name="exclam" unicode="!" horiz-adv-x="522" 
d="M279 307l75 492l113 635h92l-113 -635l-96 -492h-71zM205 0l20 123h113l-21 -123h-112z" />
    <glyph glyph-name="quotedbl" unicode="&#x22;" horiz-adv-x="614" 
d="M287 1034l69 400h93l-70 -400h-92zM563 1034l70 400h92l-70 -400h-92z" />
    <glyph glyph-name="numbersign" unicode="#" horiz-adv-x="1413" 
d="M258 0l152 399h-318l37 93h317l183 450h-328l37 92h328l151 400h92l-151 -400h368l152 400h92l-151 -400h317l-37 -92h-317l-183 -450h328l-37 -93h-327l-152 -399h-92l151 399h-368l-152 -399h-92zM539 492h368l183 450h-369z" />
    <glyph glyph-name="dollar" unicode="$" horiz-adv-x="1280" 
d="M537 -225l36 213q-176 29 -282.5 137t-106.5 244q0 5 4 51h91q-3 -9 -3 -31q0 -131 113.5 -224t310.5 -93q112 0 196 28t131.5 77t70 107t22.5 126q0 95 -72 159t-212 88l-144 25q-180 31 -273 115.5t-93 218.5q0 193 135.5 315.5t361.5 122.5h8l37 205h93l-37 -211
q184 -24 287.5 -134.5t103.5 -258.5q0 -23 -2 -41h-92q2 14 2 30q0 136 -110 227t-306 91q-179 0 -284 -92t-105 -246q0 -200 293 -250l141 -24q173 -31 266.5 -114t93.5 -206q0 -97 -31 -177t-94 -142t-165.5 -96.5t-237.5 -34.5h-20l-35 -205h-92z" />
    <glyph glyph-name="percent" unicode="%" horiz-adv-x="1576" 
d="M276 0l1154 1434h116l-1153 -1434h-117zM631 1454q124 0 202 -77.5t78 -196.5q0 -155 -103 -258t-243 -103q-124 0 -202 78t-78 197q0 155 103 257.5t243 102.5zM623 1362q-96 0 -169 -72.5t-73 -183.5q0 -86 54.5 -140.5t142.5 -54.5q96 0 168.5 72t72.5 184
q0 87 -54.5 141t-141.5 54zM911 254q0 155 103 257.5t243 102.5q124 0 202.5 -77.5t78.5 -196.5q0 -155 -103 -257.5t-243 -102.5q-124 0 -202.5 77.5t-78.5 196.5zM1004 266q0 -86 54 -140t142 -54q96 0 169 72.5t73 183.5q0 86 -54.5 140t-142.5 54q-96 0 -168.5 -72
t-72.5 -184z" />
    <glyph glyph-name="ampersand" unicode="&#x26;" horiz-adv-x="1280" 
d="M410 633l161 115l-86 112q-88 115 -88 232q0 152 108 257t275 105q140 0 232 -80.5t92 -212.5q0 -58 -16 -104.5t-48.5 -85t-70.5 -68t-95 -63.5l-172 -103l318 -424q31 33 70 93q72 117 104 270h92q-32 -179 -127 -322q-46 -68 -90 -112l191 -242h-123l-131 170
q-60 -57 -125 -96q-160 -94 -308 -94q-163 0 -270.5 86.5t-107.5 224.5q0 111 54 189t161 153zM956 242l-333 444l-129 -92q-80 -59 -119 -95.5t-63.5 -87t-24.5 -116.5q0 -96 82.5 -159.5t224.5 -63.5q139 0 262 84q53 36 100 86zM651 799l185 112q36 22 53.5 34t45.5 36
t41.5 45.5t24.5 54t11 70.5q0 86 -67.5 148.5t-180.5 62.5q-116 0 -195.5 -76.5t-79.5 -179.5q0 -88 80 -195z" />
    <glyph glyph-name="quotesingle" unicode="'" horiz-adv-x="337" 
d="M287 1034l69 400h93l-70 -400h-92z" />
    <glyph glyph-name="parenleft" unicode="(" horiz-adv-x="665" 
d="M492 -410h-101q-35 70 -74 187q-71 213 -71 479q0 465 262 899q112 187 262 340h117q-156 -143 -275 -330q-119 -185 -196.5 -418t-77.5 -501q0 -255 76 -479q36 -103 78 -177z" />
    <glyph glyph-name="parenright" unicode=")" horiz-adv-x="665" 
d="M80 -410h-117q156 143 275 330q274 430 274 920q0 249 -78 479q-33 95 -76 176h101q26 -53 71 -186q74 -222 74 -480q0 -461 -262 -899q-112 -187 -262 -340z" />
    <glyph glyph-name="asterisk" unicode="*" horiz-adv-x="942" 
d="M358 758l195 266l-307 92l20 82l318 -102v338h82v-338l317 102l21 -82l-308 -92l195 -266l-72 -51l-194 276l-195 -276z" />
    <glyph glyph-name="plus" unicode="+" horiz-adv-x="1116" 
d="M614 143v410h-389v92h389v410h93v-410h389v-92h-389v-410h-93z" />
    <glyph glyph-name="comma" unicode="," horiz-adv-x="430" 
d="M82 -174l102 297h113l-133 -297h-82z" />
    <glyph glyph-name="hyphen" unicode="-" horiz-adv-x="880" 
d="M195 543l16 92h655l-16 -92h-655z" />
    <glyph glyph-name="period" unicode="." horiz-adv-x="430" 
d="M154 0l20 123h123l-21 -123h-122z" />
    <glyph glyph-name="slash" unicode="/" horiz-adv-x="655" 
d="M-113 -410l897 1905h99l-899 -1905h-97z" />
    <glyph glyph-name="zero" unicode="0" horiz-adv-x="1331" 
d="M889 1454q192 0 318 -150t126 -411q0 -246 -86.5 -456t-237 -333.5t-329.5 -123.5q-192 0 -318 150t-126 411q0 246 86.5 456t237 333.5t329.5 123.5zM879 1362q-151 0 -278.5 -116.5t-199 -302.5t-71.5 -390q0 -225 103 -353t257 -128q151 0 278.5 116.5t199 302.5
t71.5 390q0 225 -103 353t-257 128z" />
    <glyph glyph-name="one" unicode="1" horiz-adv-x="675" 
d="M369 0l206 1178h-307l17 92h245q60 0 72 61l19 103h92l-252 -1434h-92z" />
    <glyph glyph-name="two" unicode="2" horiz-adv-x="1105" 
d="M113 0l14 82l682 606q140 127 183.5 201.5t43.5 187.5q0 129 -80.5 207t-216.5 78q-138 0 -239.5 -100.5t-130.5 -268.5h-93q29 207 163 334t317 127q162 0 268 -99t106 -261q0 -85 -18.5 -153t-58 -123t-76.5 -92.5t-96 -89.5q-7 -6 -11 -9l-598 -525l-2 -10h717
l-14 -92h-860z" />
    <glyph glyph-name="three" unicode="3" horiz-adv-x="1136" 
d="M166 379h92q-2 -14 -2 -37q0 -115 92.5 -192.5t253.5 -77.5q173 0 276 98t103 244q0 117 -91 194.5t-247 77.5h-76l17 92h129q166 0 266 90.5t100 223.5q0 119 -88.5 194.5t-230.5 75.5t-243.5 -83.5t-113.5 -213.5h-92q25 172 151 280.5t314 108.5q90 0 165 -28.5
t125 -77t77.5 -112t27.5 -134.5q0 -188 -149 -303q-63 -51 -148 -76l-2 -10q50 -22 101 -66q100 -96 100 -227q0 -188 -135.5 -314t-351.5 -126q-190 0 -306 103.5t-116 254.5q0 23 2 41z" />
    <glyph glyph-name="four" unicode="4" horiz-adv-x="1095" 
d="M133 348l17 82l749 1004h184l-176 -994h215l-16 -92h-215l-60 -348h-92l60 348h-666zM268 440h547l160 901h-35l-670 -890z" />
    <glyph glyph-name="five" unicode="5" horiz-adv-x="1157" 
d="M193 379h92v-10q0 -51 23 -103t64.5 -95.5t106.5 -71t142 -27.5q186 0 304.5 121.5t118.5 316.5q0 135 -92 227t-247 92q-133 0 -232 -67q-41 -25 -70 -66h-122l213 738h727l-17 -93h-645l-151 -522h10q37 33 76 51q106 52 229 52q178 0 296 -112t118 -286
q0 -120 -40.5 -222.5t-110.5 -172.5t-166 -109.5t-204 -39.5q-98 0 -180 34.5t-134 90.5t-80.5 124.5t-28.5 139.5v10z" />
    <glyph glyph-name="six" unicode="6" horiz-adv-x="1146" 
d="M346 780l559 654h115l-490 -566l11 -2l45 17q70 18 123 18q189 0 308.5 -114t119.5 -287q0 -147 -69.5 -267t-187.5 -186.5t-257 -66.5q-201 0 -321 113t-120 292q0 208 164 395zM274 393q0 -141 97 -231t260 -90q174 0 293.5 118t119.5 297q0 141 -96.5 231.5
t-259.5 90.5q-174 0 -294 -118.5t-120 -297.5z" />
    <glyph glyph-name="seven" unicode="7" horiz-adv-x="1003" 
d="M246 0l768 1341h-750l17 93h860l-13 -72l-782 -1362h-100z" />
    <glyph glyph-name="eight" unicode="8" horiz-adv-x="1167" 
d="M532 754l5 10q-55 22 -95 59q-92 84 -92 215q0 171 135.5 293.5t323.5 122.5q175 0 283 -102.5t108 -247.5q0 -192 -151 -301q-71 -52 -150 -72l-2 -10q55 -25 104 -68q105 -97 105 -237q0 -86 -36.5 -165.5t-99.5 -139.5t-155 -95.5t-197 -35.5q-190 0 -306.5 108
t-116.5 260q0 201 167 326q73 52 170 80zM442 1057q0 -110 86 -189.5t228 -79.5q150 0 251 90.5t101 215.5q0 110 -85.5 189t-227.5 79q-150 0 -251.5 -90t-101.5 -215zM287 360q0 -123 93 -205.5t251 -82.5q164 0 273.5 99.5t109.5 236.5q0 123 -93 205.5t-251 82.5
q-164 0 -273.5 -99.5t-109.5 -236.5z" />
    <glyph glyph-name="nine" unicode="9" horiz-adv-x="1146" 
d="M375 0l489 565l-10 2l-45 -18q-66 -17 -123 -17q-189 0 -308.5 114.5t-119.5 287.5q0 147 69.5 267t187.5 186.5t257 66.5q201 0 320.5 -112.5t119.5 -292.5q0 -210 -163 -396l-560 -653h-114zM350 946q0 -141 97 -231t260 -90q174 0 293.5 118t119.5 297
q0 141 -96.5 231.5t-259.5 90.5q-174 0 -294 -118.5t-120 -297.5z" />
    <glyph glyph-name="colon" unicode=":" horiz-adv-x="430" 
d="M154 0l20 123h123l-21 -123h-122zM311 901l23 123h123l-23 -123h-123z" />
    <glyph glyph-name="semicolon" unicode=";" horiz-adv-x="430" 
d="M311 901l23 123h123l-23 -123h-123zM82 -174l102 297h113l-133 -297h-82z" />
    <glyph glyph-name="less" unicode="&#x3c;" horiz-adv-x="1116" 
d="M205 553v82l839 369v-93l-727 -317l727 -318v-92z" />
    <glyph glyph-name="equal" unicode="=" horiz-adv-x="1105" 
d="M287 389v92h737v-92h-737zM287 707v92h737v-92h-737z" />
    <glyph glyph-name="greater" unicode="&#x3e;" horiz-adv-x="1116" 
d="M276 184v92l728 318l-728 317v93l840 -369v-82z" />
    <glyph glyph-name="question" unicode="?" horiz-adv-x="1044" 
d="M473 328l21 123q10 73 39.5 124.5t74.5 84.5t119 67q93 45 150.5 90t93 112.5t35.5 155.5q0 119 -87.5 198t-236.5 79q-143 0 -241.5 -90t-110.5 -217h-94q30 180 153 289.5t309 109.5q171 0 285.5 -105t114.5 -255q0 -83 -22 -149.5t-66.5 -117t-96 -87t-125.5 -74.5
q-103 -51 -146.5 -96t-55.5 -119l-21 -123h-92zM406 0l20 123h113l-21 -123h-112z" />
    <glyph glyph-name="at" unicode="@" horiz-adv-x="1894" 
d="M965 -92h372l-16 -92h-367q-208 0 -371.5 83t-255 236t-91.5 352q0 197 70.5 370t191 294.5t285 191.5t347.5 70q171 0 316.5 -54t242.5 -145.5t151 -213t54 -257.5q0 -114 -23.5 -211.5t-62.5 -163.5t-90 -113t-105 -69t-108 -22q-121 0 -170 76q-21 35 -24 77h-11
q-33 -41 -81 -77q-107 -76 -236 -76q-167 0 -270 100.5t-103 263.5q0 210 131.5 353t323.5 143q67 0 123.5 -18t93.5 -47t60.5 -57.5t35.5 -57.5h11l49 160h71l-102 -580q-6 -38 -6 -64q0 -55 27.5 -79.5t89.5 -24.5q108 0 196 130.5t88 340.5q0 119 -47 226.5t-133.5 189.5
t-218 130t-289.5 48q-159 0 -303 -61t-250.5 -167.5t-169.5 -260.5t-63 -330q0 -268 177 -431t460 -163zM705 541q0 -129 79.5 -206t210.5 -77q143 0 250 109t107 282q0 128 -81 205.5t-212 77.5q-143 0 -248.5 -109t-105.5 -282z" />
    <glyph glyph-name="A" unicode="A" horiz-adv-x="1269" 
d="M41 0l795 1434h143l291 -1434h-88l-82 399h-742l-221 -399h-96zM408 492h675l-170 839h-41z" />
    <glyph glyph-name="B" unicode="B" horiz-adv-x="1310" 
d="M205 0l252 1434h526q163 0 264 -95t101 -233q0 -195 -136 -309q-58 -52 -135 -76l-2 -10q49 -21 86 -58q88 -84 88 -215q0 -199 -121 -318.5t-309 -119.5h-614zM432 768h490q147 0 239 94.5t92 224.5q0 107 -76.5 180.5t-203.5 73.5h-441zM311 92h508q154 0 246 92
t92 246q0 112 -73.5 179t-202.5 67h-465z" />
    <glyph glyph-name="C" unicode="C" horiz-adv-x="1536" 
d="M1415 471h101q-62 -139 -160 -246q-93 -107 -226 -176t-299 -69q-261 0 -428 171t-167 447q0 125 29.5 241.5t82 209.5t124 169.5t155 128t177 79.5t187.5 28q313 0 477 -242q73 -112 99 -239h-92q-27 108 -89 194q-143 195 -401 195q-124 0 -242 -54t-210.5 -150
t-148.5 -239.5t-56 -310.5q0 -243 143.5 -389.5t372.5 -146.5q252 0 438 198q80 86 133 201z" />
    <glyph glyph-name="D" unicode="D" horiz-adv-x="1443" 
d="M205 0l252 1434h403q272 0 441 -160.5t169 -433.5q0 -192 -60 -351.5t-164 -265.5t-242.5 -164.5t-296.5 -58.5h-502zM311 92h406q134 0 254 51t210.5 143.5t143.5 232t53 306.5q0 232 -139.5 374t-388.5 142h-318z" />
    <glyph glyph-name="E" unicode="E" horiz-adv-x="1239" 
d="M205 0l252 1434h891l-17 -93h-799l-100 -573h758l-16 -92h-758l-105 -584h799l-14 -92h-891z" />
    <glyph glyph-name="F" unicode="F" horiz-adv-x="1218" 
d="M205 0l252 1434h870l-16 -93h-779l-100 -573h737l-16 -92h-737l-119 -676h-92z" />
    <glyph glyph-name="G" unicode="G" horiz-adv-x="1576" 
d="M1327 0l31 236h-10q-85 -109 -223.5 -182.5t-297.5 -73.5q-260 0 -425.5 171.5t-165.5 446.5q0 125 29.5 241.5t82 209.5t124 169.5t155 128t177 79.5t187.5 28q308 0 467 -225q71 -100 101 -225h-99l-14 47q-58 153 -186 236q-117 75 -275 75q-123 0 -240.5 -54
t-210 -149.5t-149.5 -240t-57 -310.5q0 -241 143.5 -388.5t370.5 -147.5q91 0 182.5 32.5t170 90t136.5 146.5t78 194l16 90h-481l17 92h573l-125 -717h-82z" />
    <glyph glyph-name="H" unicode="H" horiz-adv-x="1484" 
d="M205 0l252 1434h92l-115 -656h891l115 656h92l-252 -1434h-92l121 686h-891l-121 -686h-92z" />
    <glyph glyph-name="I" unicode="I" horiz-adv-x="501" 
d="M205 0l252 1434h92l-252 -1434h-92z" />
    <glyph glyph-name="J" unicode="J" horiz-adv-x="808" 
d="M41 0l14 92h365q53 0 90.5 34t48.5 89l215 1219h92l-217 -1225q-18 -94 -76 -151.5t-153 -57.5h-379z" />
    <glyph glyph-name="K" unicode="K" horiz-adv-x="1177" 
d="M205 0l252 1434h92l-119 -676l805 676h133l-852 -715l625 -719h-117l-606 696l-121 -696h-92z" />
    <glyph glyph-name="L" unicode="L" horiz-adv-x="1075" 
d="M205 0l252 1434h92l-238 -1342h748l-15 -92h-839z" />
    <glyph glyph-name="M" unicode="M" horiz-adv-x="1853" 
d="M205 0l252 1434h190l275 -1342h30l750 1342h199l-252 -1434h-93l236 1341h-41l-747 -1341h-154l-277 1341h-41l-235 -1341h-92z" />
    <glyph glyph-name="N" unicode="N" horiz-adv-x="1484" 
d="M205 0l252 1434h184l516 -1342h45l238 1342h92l-252 -1434h-184l-518 1341h-46l-235 -1341h-92z" />
    <glyph glyph-name="O" unicode="O" horiz-adv-x="1576" 
d="M993 1454q260 0 425 -174t165 -449q0 -187 -65.5 -349.5t-172.5 -270.5t-242.5 -169.5t-277.5 -61.5q-260 0 -424.5 173.5t-164.5 448.5q0 151 42.5 286.5t116 237t169 176.5t206 113.5t223.5 38.5zM983 1362q-121 0 -238 -54t-210 -149t-150 -239t-57 -310
q0 -238 143 -388t365 -150q97 0 192 33.5t178 99t147 155t101 209.5t37 254q0 238 -143 388.5t-365 150.5z" />
    <glyph glyph-name="P" unicode="P" horiz-adv-x="1341" 
d="M205 0l252 1434h547q168 0 273 -100t105 -263q0 -219 -135.5 -358.5t-345.5 -139.5h-504l-100 -573h-92zM414 666h508q160 0 264 110t104 281q0 123 -78.5 203.5t-207.5 80.5h-472z" />
    <glyph glyph-name="Q" unicode="Q" horiz-adv-x="1576" 
d="M1364 -20l-123 141q-196 -141 -416 -141q-260 0 -424.5 173.5t-164.5 448.5q0 151 42.5 286.5t116 237t169 176.5t206 113.5t223.5 38.5q260 0 425 -174t165 -449q0 -204 -73 -371t-201 -284l172 -196h-117zM1184 188l-297 344h117l247 -288q111 103 175.5 250.5
t64.5 328.5q0 238 -143 388.5t-365 150.5q-121 0 -238 -54t-210 -149t-150 -239t-57 -310q0 -238 143 -388t365 -150q186 0 348 116z" />
    <glyph glyph-name="R" unicode="R" horiz-adv-x="1351" 
d="M205 0l252 1434h547q168 0 273 -100t105 -263q0 -219 -135.5 -358.5t-345.5 -139.5h-176l504 -573h-119l-504 573h-209l-100 -573h-92zM414 666h508q160 0 264 110t104 281q0 123 -78.5 203.5t-207.5 80.5h-472z" />
    <glyph glyph-name="S" unicode="S" horiz-adv-x="1280" 
d="M188 420h91q-3 -9 -3 -31q0 -131 113.5 -224t310.5 -93q112 0 196 28t131.5 77t70 107t22.5 126q0 95 -72 159t-212 88l-144 25q-180 31 -273 115.5t-93 218.5q0 193 135.5 315.5t361.5 122.5q230 0 361 -115t131 -284q0 -23 -2 -41h-92q2 14 2 30q0 136 -110 227
t-306 91q-179 0 -284 -92t-105 -246q0 -200 293 -250l141 -24q173 -31 266.5 -114t93.5 -206q0 -97 -31 -177t-94 -142t-165.5 -96.5t-237.5 -34.5q-219 0 -359.5 115t-140.5 274q0 5 4 51z" />
    <glyph glyph-name="T" unicode="T" horiz-adv-x="1208" 
d="M522 0l236 1341h-502l16 93h1096l-16 -93h-502l-236 -1341h-92z" />
    <glyph glyph-name="U" unicode="U" horiz-adv-x="1454" 
d="M289 596l147 838h92l-149 -844q-10 -65 -10 -109q0 -187 115 -298t286 -111q184 0 322.5 126.5t175.5 325.5l162 910h92l-160 -908q-29 -164 -118.5 -289.5t-216.5 -191t-273 -65.5q-205 0 -341.5 136t-136.5 355q0 55 13 125z" />
    <glyph glyph-name="V" unicode="V" horiz-adv-x="1269" 
d="M526 0l-260 1434h90l242 -1342h41l717 1342h98l-764 -1434h-164z" />
    <glyph glyph-name="W" unicode="W" horiz-adv-x="1884" 
d="M383 0l-107 1434h89l96 -1342h45l575 1342h164l101 -1342h45l571 1342h96l-610 -1434h-176l-103 1341h-41l-573 -1341h-172z" />
    <glyph glyph-name="X" unicode="X" horiz-adv-x="1249" 
d="M31 0l631 737l-349 697h105l309 -625h41l530 625h121l-594 -697l373 -737h-104l-334 666h-41l-567 -666h-121z" />
    <glyph glyph-name="Y" unicode="Y" horiz-adv-x="1198" 
d="M522 0l92 532l-372 902h94l315 -768h51l586 768h111l-692 -902l-93 -532h-92z" />
    <glyph glyph-name="Z" unicode="Z" horiz-adv-x="1187" 
d="M102 0l15 82l1073 1259h-842l17 93h962l-14 -82l-1075 -1260h862l-15 -92h-983z" />
    <glyph glyph-name="bracketleft" unicode="[" horiz-adv-x="665" 
d="M143 -410l336 1905h389l-16 -92h-297l-303 -1720h297l-17 -93h-389z" />
    <glyph glyph-name="backslash" unicode="\" horiz-adv-x="655" 
d="M504 -410l-228 1905h89l227 -1905h-88z" />
    <glyph glyph-name="bracketright" unicode="]" horiz-adv-x="665" 
d="M0 -410l14 93h297l303 1720h-297l17 92h389l-336 -1905h-387z" />
    <glyph glyph-name="asciicircum" unicode="^" horiz-adv-x="829" 
d="M287 881l225 553h92l225 -553h-92l-174 450h-10l-174 -450h-92z" />
    <glyph glyph-name="underscore" unicode="_" horiz-adv-x="696" 
d="M-61 -297l16 92h776l-16 -92h-776z" />
    <glyph glyph-name="grave" unicode="`" horiz-adv-x="399" 
d="M408 1229l-152 246h102l131 -246h-81z" />
    <glyph glyph-name="a" unicode="a" horiz-adv-x="1095" 
d="M862 0l10 184h-10q-26 -51 -84 -102q-118 -102 -284 -102q-143 0 -229.5 78t-86.5 192q0 163 105.5 258.5t302.5 95.5h360l6 37q9 41 9 80q0 108 -69.5 169.5t-211.5 61.5q-233 0 -299 -225h-94q89 317 409 317q169 0 264 -83t95 -224q0 -47 -11 -104l-110 -633h-72z
M922 461l10 51h-367q-143 0 -219 -67t-76 -177q0 -82 60.5 -139t163.5 -57q160 0 275.5 105.5t152.5 283.5z" />
    <glyph glyph-name="b" unicode="b" horiz-adv-x="1218" 
d="M195 0l251 1434h93l-105 -590h10q33 48 91 100q129 100 282 100q182 0 291 -122t109 -314q0 -140 -45 -260t-120 -199.5t-170 -124t-196 -44.5q-172 0 -280 112q-48 51 -74 113h-10l-56 -205h-71zM694 72q79 0 155 36.5t137.5 101.5t99.5 166.5t38 221.5q0 161 -93 257.5
t-236 96.5q-75 0 -150 -37.5t-137.5 -103.5t-101.5 -168.5t-39 -222.5q0 -157 92 -252.5t235 -95.5z" />
    <glyph glyph-name="c" unicode="c" horiz-adv-x="1105" 
d="M975 338h94q-38 -104 -100 -180q-142 -178 -363 -178q-190 0 -306 118t-116 318q0 142 46 262.5t121.5 199t172 122.5t199.5 44q231 0 338 -174q44 -73 57 -174h-92q-12 73 -49 127q-88 129 -264 129q-82 0 -160 -35.5t-140 -100.5t-99.5 -166t-37.5 -222
q0 -164 92.5 -260t243.5 -96q172 0 283 133q54 61 80 133z" />
    <glyph glyph-name="d" unicode="d" horiz-adv-x="1218" 
d="M956 0l17 193h-10q-44 -64 -93 -107q-121 -106 -286 -106q-182 0 -291 122t-109 314q0 140 45 260t120 199.5t170 124t196 44.5q168 0 280 -112q48 -55 74 -113h10l109 615h92l-252 -1434h-72zM606 72q75 0 150 37.5t137.5 103.5t101.5 168.5t39 222.5q0 157 -92 252.5
t-235 95.5q-79 0 -155 -36.5t-138 -101.5t-100 -166.5t-38 -221.5q0 -161 93.5 -257.5t236.5 -96.5z" />
    <glyph glyph-name="e" unicode="e" horiz-adv-x="1146" 
d="M971 287h92q-44 -94 -102 -154q-138 -153 -353 -153q-191 0 -307.5 117.5t-116.5 318.5q0 140 46 260.5t121.5 199.5t172.5 123.5t199 44.5q186 0 303 -119t117 -315q0 -57 -8 -98l-7 -41h-852v-39q0 -170 92 -265t248 -95q161 0 271 106q45 40 84 109zM291 563h760v31
q0 165 -93.5 261.5t-248.5 96.5q-86 0 -159.5 -34t-124.5 -91t-85 -124t-49 -140z" />
    <glyph glyph-name="f" unicode="f" horiz-adv-x="634" 
d="M236 0l163 932h-163l16 92h164l33 195q14 88 58 131t128 43h182l-16 -93h-176q-39 0 -58 -17.5t-26 -63.5l-33 -195h246l-17 -92h-245l-164 -932h-92z" />
    <glyph glyph-name="g" unicode="g" horiz-adv-x="1208" 
d="M137 -82h94q6 -114 90 -185t234 -71q156 0 254 90.5t125 247.5l39 236h-10q-41 -56 -93 -99q-123 -96 -276 -96q-180 0 -292 120.5t-112 303.5q0 128 45 239t118.5 184t165.5 114.5t188 41.5q174 0 286 -112q51 -54 74 -113h10l58 205h71l-180 -1024q-37 -210 -163 -320
t-328 -110q-177 0 -287.5 101t-110.5 237v10zM612 133q77 0 153 36.5t135.5 99t96.5 153.5t37 192q0 149 -93 243.5t-236 94.5q-80 0 -156 -34t-135 -94.5t-95 -151t-36 -195.5q0 -151 93 -247.5t236 -96.5z" />
    <glyph glyph-name="h" unicode="h" horiz-adv-x="1208" 
d="M195 0l251 1434h93l-101 -574h11q30 53 81 92q108 92 265 92q150 0 251 -101t101 -265q0 -45 -10 -100l-103 -578h-92l105 586q6 27 6 82q0 128 -77.5 206t-201.5 78q-142 0 -248.5 -101.5t-132.5 -246.5l-106 -604h-92z" />
    <glyph glyph-name="i" unicode="i" horiz-adv-x="460" 
d="M184 0l181 1024h92l-181 -1024h-92zM401 1290l19 113h112l-18 -113h-113z" />
    <glyph glyph-name="j" unicode="j" horiz-adv-x="460" 
d="M401 1290l19 113h112l-18 -113h-113zM-133 -410l16 93h178q38 0 55 17t25 60l224 1264h92l-226 -1270q-33 -164 -180 -164h-184z" />
    <glyph glyph-name="k" unicode="k" horiz-adv-x="983" 
d="M195 0l251 1434h93l-156 -881l616 471h131l-671 -508l497 -516h-116l-467 492l-86 -492h-92z" />
    <glyph glyph-name="l" unicode="l" horiz-adv-x="481" 
d="M195 0l251 1434h93l-252 -1434h-92z" />
    <glyph glyph-name="m" unicode="m" horiz-adv-x="1740" 
d="M184 0l181 1024h71l-6 -143h10q22 37 70 82q93 81 217 81q146 0 234 -104q37 -46 55 -104h10q27 53 78 104q112 104 258 104q143 0 232 -83t89 -238q0 -52 -10 -111l-106 -612h-92l112 623q10 58 10 92q0 112 -62 174.5t-183 62.5q-116 0 -201.5 -71t-110.5 -211
l-118 -670h-93l113 623q10 58 10 92q0 112 -62 174.5t-183 62.5q-110 0 -202 -82.5t-116 -222.5l-113 -647h-92z" />
    <glyph glyph-name="n" unicode="n" horiz-adv-x="1198" 
d="M184 0l181 1024h71l-8 -164h10q29 51 82 92q108 92 264 92q150 0 251.5 -101t101.5 -265q0 -40 -11 -100l-102 -578h-92l104 586q6 27 6 82q0 128 -77 206t-201 78q-142 0 -248.5 -101.5t-132.5 -246.5l-107 -604h-92z" />
    <glyph glyph-name="o" unicode="o" horiz-adv-x="1146" 
d="M725 1044q186 0 303 -119.5t117 -318.5q0 -140 -46 -260t-122.5 -199t-173.5 -123t-199 -44q-186 0 -303 119.5t-117 318.5q0 140 46 260t122.5 199t173.5 123t199 44zM614 72q83 0 161 35.5t140.5 100.5t100 166t37.5 222q0 163 -94 259.5t-244 96.5q-83 0 -161 -35.5
t-140.5 -100.5t-100 -166t-37.5 -222q0 -163 94 -259.5t244 -96.5z" />
    <glyph glyph-name="p" unicode="p" horiz-adv-x="1208" 
d="M111 -410l251 1434h72l-16 -193h10q46 66 92 107q121 106 287 106q182 0 290.5 -122t108.5 -314q0 -140 -45 -260t-119.5 -199.5t-169.5 -124t-196 -44.5q-173 0 -281 112q-46 49 -73 113h-11l-108 -615h-92zM684 72q79 0 155 36.5t137.5 101.5t99.5 166.5t38 221.5
q0 161 -93.5 257.5t-236.5 96.5q-75 0 -150 -37.5t-137.5 -103.5t-101.5 -168.5t-39 -222.5q0 -157 92.5 -252.5t235.5 -95.5z" />
    <glyph glyph-name="q" unicode="q" horiz-adv-x="1208" 
d="M862 -410l105 590h-11q-39 -56 -92 -100q-124 -100 -280 -100q-182 0 -291 122t-109 314q0 140 45 260t120 199.5t170 124t196 44.5q168 0 280 -112q48 -55 74 -113h10l56 205h71l-252 -1434h-92zM606 72q75 0 150 37.5t137.5 103.5t101.5 168.5t39 222.5
q0 157 -92 252.5t-235 95.5q-79 0 -155 -36.5t-138 -101.5t-100 -166.5t-38 -221.5q0 -161 93.5 -257.5t236.5 -96.5z" />
    <glyph glyph-name="r" unicode="r" horiz-adv-x="727" 
d="M184 0l181 1024h71l-8 -102h10q19 34 41 51q63 51 166 51h211l-16 -92h-215q-92 0 -149.5 -58t-76.5 -167l-123 -707h-92z" />
    <glyph glyph-name="s" unicode="s" horiz-adv-x="962" 
d="M143 297h90v-10q0 -92 86 -153.5t213 -61.5q145 0 216 61.5t71 155.5q0 63 -33 99t-116 54l-211 47q-219 47 -219 228q0 138 99 232.5t275 94.5q162 0 264.5 -80t102.5 -216v-21h-92v16q0 87 -74.5 148t-216.5 61q-131 0 -198.5 -64.5t-67.5 -152.5q0 -61 33.5 -98
t117.5 -55l213 -47q215 -48 215 -226q0 -142 -99.5 -235.5t-289.5 -93.5q-89 0 -162.5 25.5t-120 67.5t-71.5 94.5t-25 108.5v21z" />
    <glyph glyph-name="t" unicode="t" horiz-adv-x="696" 
d="M256 188l133 744h-164l17 92h164l49 287h92l-49 -287h266l-16 -92h-267l-133 -746q-4 -28 -4 -36q0 -27 15.5 -42.5t58.5 -15.5h180l-14 -92h-166q-168 0 -168 139q0 24 6 49z" />
    <glyph glyph-name="u" unicode="u" horiz-adv-x="1198" 
d="M252 446l102 578h92l-104 -586q-6 -40 -6 -82q0 -128 77 -206t201 -78q142 0 248.5 101.5t132.5 246.5l107 604h92l-180 -1024h-72l8 164h-10q-35 -54 -82 -92q-112 -92 -264 -92q-150 0 -251 101t-101 265q0 45 10 100z" />
    <glyph glyph-name="v" unicode="v" horiz-adv-x="983" 
d="M401 0l-208 1024h88l184 -922h41l512 922h96l-569 -1024h-144z" />
    <glyph glyph-name="w" unicode="w" horiz-adv-x="1495" 
d="M309 0l-96 1024h88l82 -922h41l399 922h164l72 -922h41l409 922h97l-457 -1024h-164l-74 922h-41l-397 -922h-164z" />
    <glyph glyph-name="x" unicode="x" horiz-adv-x="921" 
d="M20 0l433 522l-242 502h102l213 -440h41l369 440h115l-422 -502l252 -522h-103l-221 461h-41l-381 -461h-115z" />
    <glyph glyph-name="y" unicode="y" horiz-adv-x="942" 
d="M31 -410l16 93h160q38 0 59 16t47 65l95 181l-215 1079h88l178 -901h41l477 901h96l-692 -1311q-35 -67 -73 -95t-111 -28h-166z" />
    <glyph glyph-name="z" unicode="z" horiz-adv-x="880" 
d="M72 0l12 72l745 860h-583l16 92h717l-14 -72l-746 -860h604l-14 -92h-737z" />
    <glyph glyph-name="braceleft" unicode="{" horiz-adv-x="665" 
d="M229 -199l93 525q4 28 4 41q0 108 -131 114l22 123q86 0 125.5 35t52.5 109l99 567q30 180 200 180h119l-16 -92h-113q-47 0 -67 -19t-31 -73l-101 -580q-19 -108 -108 -151q-43 -19 -86 -19l-8 -41q35 -3 67 -22q68 -47 68 -127q0 -17 -4 -49l-95 -529q-6 -24 -6 -47
q0 -32 23.5 -47.5t81.5 -15.5h76l-17 -93h-69q-92 0 -139.5 38t-47.5 110q0 32 8 63z" />
    <glyph glyph-name="bar" unicode="|" horiz-adv-x="583" 
d="M369 -410v1905h92v-1905h-92z" />
    <glyph glyph-name="braceright" unicode="}" horiz-adv-x="665" 
d="M31 -410l16 93h113q47 0 67 19t31 73l100 579q17 107 109 152q41 18 86 18l8 41q-37 3 -67 23q-68 45 -68 127q0 17 4 49l94 528q6 24 6 47q0 32 -23 48t-81 16h-76l17 92h69q187 0 187 -147q0 -30 -9 -64l-92 -524q-4 -28 -4 -41q0 -109 131 -115l-22 -123
q-87 0 -126 -35t-52 -108l-99 -567q-30 -181 -200 -181h-119z" />
    <glyph glyph-name="asciitilde" unicode="~" horiz-adv-x="1157" 
d="M297 420h-92q0 136 72 216.5t184 80.5q54 0 102.5 -22t85.5 -53.5t72 -63.5t76 -54t84 -22q163 0 163 205h93q0 -136 -72 -216.5t-184 -80.5q-46 0 -88.5 16t-73.5 40t-64 51.5t-60.5 51.5t-62.5 40t-71 16q-164 0 -164 -205z" />
    <glyph glyph-name="nbspace" unicode="&#xa0;" horiz-adv-x="450" 
 />
    <glyph glyph-name="exclamdown" unicode="&#xa1;" horiz-adv-x="522" 
d="M143 -410l113 635l96 492h72l-76 -492l-112 -635h-93zM365 901l22 123h113l-23 -123h-112z" />
    <glyph glyph-name="cent" unicode="&#xa2;" horiz-adv-x="1095" 
d="M481 -225l39 213q-156 25 -246 137.5t-90 290.5q0 139 44 257.5t117 197t166.5 124t193.5 49.5l36 205h93l-39 -209q188 -28 274 -188q37 -69 49 -156h-92q-12 73 -49 127q-88 129 -264 129q-82 0 -160 -35.5t-140 -100.5t-99.5 -166t-37.5 -222q0 -164 92.5 -260
t243.5 -96q172 0 283 133q54 61 80 133h94q-39 -105 -100 -178q-142 -177 -359 -180l-37 -205h-92z" />
    <glyph glyph-name="sterling" unicode="&#xa3;" horiz-adv-x="1208" 
d="M113 0l14 92h51q114 0 135 123l76 430h-164l17 92h164l59 332q32 171 157 278t293 107q176 0 284 -99t108 -249q0 -8 -1 -19t-1 -16v-16h-93v8q0 2 1 14t1 21q0 109 -85 186.5t-222 77.5q-133 0 -228.5 -82t-121.5 -217l-59 -326h440l-16 -92h-441l-75 -430
q-10 -58 -44 -96q-22 -23 -30 -27h829l-14 -92h-1034z" />
    <glyph glyph-name="currency" unicode="&#xa4;" horiz-adv-x="1146" 
d="M983 717q0 123 -82 205t-205 82t-204.5 -82t-81.5 -205t81.5 -205t204.5 -82t205 82t82 205zM287 369l119 120q-26 29 -39 60q-39 66 -39 168t39 168q12 29 39 59l-119 121l71 61l117 -118q22 19 60 39q82 38 161 38q80 0 162 -38q38 -20 60 -39l116 118l72 -61
l-119 -121q20 -23 39 -59q39 -84 39 -168t-39 -168q-20 -38 -39 -60l119 -120l-72 -62l-116 119q-29 -26 -60 -39q-66 -39 -162 -39q-95 0 -161 39q-31 13 -60 39l-117 -119z" />
    <glyph glyph-name="yen" unicode="&#xa5;" horiz-adv-x="1157" 
d="M174 287l16 92h379l39 215h-379l17 92h307l-299 748h94l299 -748h31l561 748h111l-562 -748h308l-17 -92h-379l-38 -215h378l-16 -92h-379l-49 -287h-92l49 287h-379z" />
    <glyph glyph-name="brokenbar" unicode="&#xa6;" horiz-adv-x="583" 
d="M369 737v758h92v-758h-92zM369 -410v758h92v-758h-92z" />
    <glyph glyph-name="section" unicode="&#xa7;" horiz-adv-x="1269" 
d="M586 389l237 -51q47 -10 83 -23.5t48 -20.5l13 -7l6 4q153 86 153 241q0 75 -54.5 131.5t-176.5 84.5l-238 51q-66 12 -102 28l-23 13l-6 -4q-7 -3 -17 -9t-24 -14.5t-28.5 -20.5t-29 -26t-27.5 -32.5t-23.5 -38t-16.5 -44t-6 -49.5q0 -160 232 -213zM186 72h93
q-3 -21 -3 -35q0 -124 99.5 -208.5t279.5 -84.5q91 0 160.5 23.5t110 64t60.5 90t20 105.5q0 185 -228 229l-209 41q-156 31 -231.5 107.5t-75.5 183.5q0 60 20.5 113t49 86t57.5 58t49 35l21 11q-20 20 -35 47q-33 64 -33 135q0 78 28.5 146t83.5 121t143 83.5t200 30.5
q196 0 315 -107.5t119 -271.5q0 -16 -2 -41h-92q2 18 2 37q0 121 -99 206t-260 85q-166 0 -256 -75t-90 -193q0 -76 56 -133t163 -80l209 -41q156 -31 232 -107.5t76 -185.5q0 -133 -95 -236q-37 -42 -94 -75q17 -17 33 -46q35 -68 35 -153q0 -169 -121.5 -277t-325.5 -108
q-222 0 -344.5 107.5t-122.5 271.5q0 14 1 24t1 17z" />
    <glyph glyph-name="dieresis" unicode="&#xa8;" horiz-adv-x="583" 
d="M256 1290l18 113h113l-18 -113h-113zM604 1290l19 113h112l-18 -113h-113z" />
    <glyph glyph-name="copyright" unicode="&#xa9;" horiz-adv-x="1740" 
d="M983 -20q-156 0 -290.5 55t-230.5 151.5t-151 233.5t-55 297t55 297t151 233.5t230.5 151.5t290.5 55t290.5 -55t230.5 -151.5t151 -233.5t55 -297t-55 -297t-151 -233.5t-230.5 -151.5t-290.5 -55zM983 72q137 0 255 48t201.5 132t131 204.5t47.5 260.5t-47.5 260.5
t-131 204.5t-201.5 132t-255 48t-255 -48t-201.5 -132t-131 -204.5t-47.5 -260.5t47.5 -260.5t131 -204.5t201.5 -132t255 -48zM1229 594h92q-23 -72 -68 -133q-96 -133 -260 -133q-148 0 -253 111.5t-105 277.5t105 277.5t253 111.5q160 0 260 -129q44 -56 68 -127h-102
q-18 39 -52 82q-78 82 -174 82q-108 0 -187 -84.5t-79 -212.5t79 -212.5t187 -84.5q105 0 183 86q31 34 53 88z" />
    <glyph glyph-name="ordfeminine" unicode="&#xaa;" horiz-adv-x="696" 
d="M653 809l-4 92h-10q-25 -33 -49 -51q-62 -51 -154 -51q-89 0 -144.5 51t-55.5 125q0 97 67 160t168 63h221l2 10q2 14 2 29q0 57 -39 91t-112 34q-60 0 -95 -25.5t-57 -76.5h-94q30 89 98.5 141.5t165.5 52.5q106 0 167 -57t61 -146q0 -9 -5 -49l-71 -393h-62zM674 1096
l2 10h-205q-143 0 -143 -113q0 -45 36.5 -73.5t98.5 -28.5q82 0 137.5 57.5t73.5 147.5z" />
    <glyph glyph-name="guillemotleft" unicode="&#xab;" horiz-adv-x="952" 
d="M403 133l-208 379l342 379h110l-350 -387l205 -371h-99zM731 133l-209 379l342 379h111l-350 -387l204 -371h-98z" />
    <glyph glyph-name="logicalnot" unicode="&#xac;" horiz-adv-x="1105" 
d="M266 655v93h758v-410h-92v317h-666z" />
    <glyph glyph-name="uni00AD" unicode="&#xad;" horiz-adv-x="880" 
d="M195 543l16 92h655l-16 -92h-655z" />
    <glyph glyph-name="registered" unicode="&#xae;" horiz-adv-x="1740" 
d="M707 338v768h317q137 0 206.5 -63.5t69.5 -182.5q0 -109 -64 -174t-181 -72l266 -276h-123l-266 276h-133v-276h-92zM799 707h225q98 0 141 37t43 116t-43 116.5t-141 37.5h-225v-307zM983 -20q-156 0 -290.5 55t-230.5 151.5t-151 233.5t-55 297t55 297t151 233.5
t230.5 151.5t290.5 55t290.5 -55t230.5 -151.5t151 -233.5t55 -297t-55 -297t-151 -233.5t-230.5 -151.5t-290.5 -55zM983 72q137 0 255 48t201.5 132t131 204.5t47.5 260.5t-47.5 260.5t-131 204.5t-201.5 132t-255 48t-255 -48t-201.5 -132t-131 -204.5t-47.5 -260.5
t47.5 -260.5t131 -204.5t201.5 -132t255 -48z" />
    <glyph glyph-name="overscore" unicode="&#xaf;" horiz-adv-x="675" 
d="M256 1280l16 92h553l-16 -92h-553z" />
    <glyph glyph-name="degree" unicode="&#xb0;" horiz-adv-x="798" 
d="M584 922q-108 0 -182 75.5t-74 190.5t74 190.5t182 75.5t182 -75.5t74 -190.5t-74 -190.5t-182 -75.5zM584 1014q70 0 117 48.5t47 125.5t-47 125.5t-117 48.5t-117 -48.5t-47 -125.5t47 -125.5t117 -48.5z" />
    <glyph glyph-name="plusminus" unicode="&#xb1;" horiz-adv-x="1116" 
d="M236 0v92h849v-92h-849zM614 287v399h-389v92h389v410h93v-410h389v-92h-389v-399h-93z" />
    <glyph glyph-name="uni00B2" unicode="&#xb2;" horiz-adv-x="686" 
d="M276 901l15 82l352 307q28 25 42.5 40.5t31 49t16.5 70.5q0 49 -34 77.5t-91 28.5q-62 0 -104 -37t-55 -106h-93q17 111 92.5 173.5t174.5 62.5q85 0 143.5 -53t58.5 -142q0 -65 -28 -110.5t-99 -110.5l-260 -229l-2 -11h318l-17 -92h-461z" />
    <glyph glyph-name="uni00B3" unicode="&#xb3;" horiz-adv-x="675" 
d="M256 1106h94v-12q0 -49 36.5 -80t117.5 -31q68 0 106.5 39.5t38.5 103.5q0 52 -38.5 82.5t-106.5 30.5h-49l16 92h84q62 0 102.5 33.5t40.5 87.5q0 48 -35 76t-100 28q-125 0 -143 -112h-92q11 89 78 147t172 58q95 0 155 -53t60 -128q0 -84 -74 -143q-38 -26 -72 -39
l-2 -10q21 -13 47 -39q49 -53 49 -115q0 -100 -75.5 -165.5t-182.5 -65.5q-103 0 -165 53t-62 141v21z" />
    <glyph glyph-name="acute" unicode="&#xb4;" horiz-adv-x="399" 
d="M256 1229l217 246h109l-238 -246h-88z" />
    <glyph glyph-name="uni00B5" unicode="&#xb5;" horiz-adv-x="1208" 
d="M111 -410l254 1434h92l-105 -586q-6 -40 -6 -82q0 -128 77.5 -206t201.5 -78q142 0 248.5 101.5t132.5 246.5l106 604h92l-180 -1024h-72l9 164h-11q-35 -54 -82 -92q-112 -92 -264 -92q-147 0 -237 90q-43 43 -62 90l-102 -570h-92z" />
    <glyph glyph-name="paragraph" unicode="&#xb6;" horiz-adv-x="1034" 
d="M543 -205v963q-131 0 -224.5 97t-93.5 241t93.5 241t224.5 97h389v-1639h-92v1546h-205v-1546h-92z" />
    <glyph glyph-name="middot" unicode="&#xb7;" horiz-adv-x="450" 
d="M242 485l20 123h123l-20 -123h-123z" />
    <glyph glyph-name="cedilla" unicode="&#xb8;" horiz-adv-x="378" 
d="M-20 -399l12 82h98q39 0 64.5 21t25.5 56q0 27 -23 46.5t-67 19.5h-41l12 72l58 92h82l-58 -92q59 -10 89 -42.5t30 -80.5q0 -75 -49 -124.5t-133 -49.5h-100z" />
    <glyph glyph-name="uni00B9" unicode="&#xb9;" horiz-adv-x="532" 
d="M387 901l94 533h-194l16 92h133q60 0 72 61l10 51h92l-131 -737h-92z" />
    <glyph glyph-name="ordmasculine" unicode="&#xba;" horiz-adv-x="757" 
d="M524 799q-118 0 -188 72t-70 194q0 89 28.5 164t75 123.5t105.5 75t121 26.5q118 0 188 -72t70 -194q0 -89 -28.5 -164t-75 -123.5t-105.5 -75t-121 -26.5zM762 1178q0 90 -47 137t-131 47q-91 0 -158.5 -77.5t-67.5 -209.5q0 -90 47.5 -137t131.5 -47q91 0 158 77
t67 210z" />
    <glyph glyph-name="guillemotright" unicode="&#xbb;" horiz-adv-x="952" 
d="M154 133l350 387l-205 371h98l209 -379l-342 -379h-110zM481 133l350 387l-204 371h98l209 -379l-342 -379h-111z" />
    <glyph glyph-name="onequarter" unicode="&#xbc;" horiz-adv-x="1320" 
d="M133 0l1133 1434h110l-1134 -1434h-109zM397 696l95 533h-195l16 92h133q60 0 72 61l10 52h93l-132 -738h-92zM725 164l14 82l375 491h154l-86 -481h102l-16 -92h-103l-28 -164h-93l29 164h-348zM860 256h230l67 379h-14l-281 -369z" />
    <glyph glyph-name="onehalf" unicode="&#xbd;" horiz-adv-x="1372" 
d="M133 0l1133 1434h110l-1134 -1434h-109zM397 696l95 533h-195l16 92h133q60 0 72 61l10 52h93l-132 -738h-92zM809 0l14 82l353 307q28 25 42.5 40.5t31 49t16.5 70.5q0 49 -34 77.5t-91 28.5q-62 0 -104.5 -37.5t-55.5 -105.5h-92q17 111 92.5 173.5t173.5 62.5
q85 0 144 -53t59 -142q0 -65 -28 -110.5t-99 -110.5l-260 -230l-2 -10h317l-16 -92h-461z" />
    <glyph glyph-name="threequarters" unicode="&#xbe;" horiz-adv-x="1443" 
d="M256 0l1133 1434h110l-1134 -1434h-109zM242 901h94v-12q0 -49 36 -80t117 -31q68 0 107 40t39 104q0 51 -39 81.5t-107 30.5h-49l17 92h84q62 0 102.5 33.5t40.5 87.5q0 48 -35 76.5t-100 28.5q-125 0 -143 -113h-93q11 89 78 147t172 58q95 0 155 -53t60 -127
q0 -86 -73 -144q-38 -26 -72 -39l-2 -10q21 -13 47 -39q49 -53 49 -114q0 -100 -75.5 -166t-182.5 -66q-103 0 -165 53.5t-62 141.5v20zM846 164l14 82l375 491h154l-86 -481h102l-16 -92h-103l-29 -164h-92l29 164h-348zM981 256h229l68 379h-14l-281 -369z" />
    <glyph glyph-name="questiondown" unicode="&#xbf;" horiz-adv-x="1044" 
d="M901 -31h94q-30 -180 -153.5 -289.5t-309.5 -109.5q-171 0 -285 105t-114 255q0 83 22 149.5t66 117t95.5 87t125.5 74.5q104 51 147.5 96t55.5 119l21 123h92l-21 -123q-19 -109 -70 -165.5t-163 -110.5q-140 -66 -209.5 -148t-69.5 -210q0 -119 87.5 -198t236.5 -79
q143 0 241.5 90t110.5 217zM692 901l21 123h112l-20 -123h-113z" />
    <glyph glyph-name="Agrave" unicode="&#xc0;" horiz-adv-x="1269" 
d="M41 0l795 1434h143l291 -1434h-88l-82 399h-742l-221 -399h-96zM408 492h675l-170 839h-41zM860 1608l-151 245h102l131 -245h-82z" />
    <glyph glyph-name="Aacute" unicode="&#xc1;" horiz-adv-x="1269" 
d="M41 0l795 1434h143l291 -1434h-88l-82 399h-742l-221 -399h-96zM408 492h675l-170 839h-41zM883 1608l217 245h108l-237 -245h-88z" />
    <glyph glyph-name="Acircumflex" unicode="&#xc2;" horiz-adv-x="1269" 
d="M41 0l795 1434h143l291 -1434h-88l-82 399h-742l-221 -399h-96zM408 492h675l-170 839h-41zM645 1608l268 245h103l182 -245h-96l-139 194l-209 -194h-109z" />
    <glyph glyph-name="Atilde" unicode="&#xc3;" horiz-adv-x="1269" 
d="M41 0l795 1434h143l291 -1434h-88l-82 399h-742l-221 -399h-96zM408 492h675l-170 839h-41zM696 1638h-92q13 86 67.5 135.5t133.5 49.5q48 0 91.5 -23t82 -46t72.5 -23q83 0 98 92h92q-13 -86 -67.5 -135.5t-133.5 -49.5q-38 0 -74 14.5t-59.5 32t-53.5 32t-58 14.5
q-84 0 -99 -93z" />
    <glyph glyph-name="Adieresis" unicode="&#xc4;" horiz-adv-x="1269" 
d="M41 0l795 1434h143l291 -1434h-88l-82 399h-742l-221 -399h-96zM408 492h675l-170 839h-41zM707 1690l18 112h113l-19 -112h-112zM1055 1690l18 112h113l-19 -112h-112z" />
    <glyph glyph-name="Aring" unicode="&#xc5;" horiz-adv-x="1269" 
d="M41 0l795 1434h143l291 -1434h-88l-82 399h-742l-221 -399h-96zM408 492h675l-170 839h-41zM764 1731q0 77 57.5 135.5t136.5 58.5q70 0 114 -45.5t44 -107.5q0 -77 -57.5 -136t-136.5 -59q-70 0 -114 46t-44 108zM846 1737q0 -36 22.5 -57t65.5 -21q46 0 73 30.5
t27 75.5q0 36 -22.5 57t-65.5 21q-46 0 -73 -30.5t-27 -75.5z" />
    <glyph glyph-name="AE" unicode="&#xc6;" horiz-adv-x="1914" 
d="M10 0l877 1434h1136l-16 -93h-799l-100 -573h758l-17 -92h-757l-105 -584h799l-14 -92h-891l73 420h-589l-259 -420h-96zM422 512h549l145 829h-190z" />
    <glyph glyph-name="Ccedilla" unicode="&#xc7;" horiz-adv-x="1536" 
d="M616 -399l13 82h98q39 0 64.5 21t25.5 56q0 27 -23 46.5t-67 19.5h-41l12 72l54 86q-229 25 -372.5 193t-143.5 421q0 125 29.5 241.5t82 209.5t124 169.5t155 128t177 79.5t187.5 28q313 0 477 -242q73 -112 99 -239h-92q-27 108 -89 194q-143 195 -401 195
q-124 0 -242 -54t-210.5 -150t-148.5 -239.5t-56 -310.5q0 -243 143.5 -389.5t372.5 -146.5q252 0 438 198q80 86 133 201h101q-62 -139 -160 -246q-93 -107 -226 -176t-299 -69l-51 -82q59 -10 89 -42.5t30 -80.5q0 -75 -49 -124.5t-133 -49.5h-101z" />
    <glyph glyph-name="Egrave" unicode="&#xc8;" horiz-adv-x="1239" 
d="M205 0l252 1434h891l-17 -93h-799l-100 -573h758l-16 -92h-758l-105 -584h799l-14 -92h-891zM889 1608l-152 245h103l131 -245h-82z" />
    <glyph glyph-name="Eacute" unicode="&#xc9;" horiz-adv-x="1239" 
d="M205 0l252 1434h891l-17 -93h-799l-100 -573h758l-16 -92h-758l-105 -584h799l-14 -92h-891zM870 1608l217 245h109l-238 -245h-88z" />
    <glyph glyph-name="Ecircumflex" unicode="&#xca;" horiz-adv-x="1239" 
d="M205 0l252 1434h891l-17 -93h-799l-100 -573h758l-16 -92h-758l-105 -584h799l-14 -92h-891zM645 1608l268 245h103l182 -245h-96l-139 194l-209 -194h-109z" />
    <glyph glyph-name="Edieresis" unicode="&#xcb;" horiz-adv-x="1239" 
d="M205 0l252 1434h891l-17 -93h-799l-100 -573h758l-16 -92h-758l-105 -584h799l-14 -92h-891zM705 1690l18 112h113l-19 -112h-112zM1053 1690l18 112h113l-19 -112h-112z" />
    <glyph glyph-name="Igrave" unicode="&#xcc;" horiz-adv-x="501" 
d="M205 0l252 1434h92l-252 -1434h-92zM471 1608l-152 245h103l131 -245h-82z" />
    <glyph glyph-name="Iacute" unicode="&#xcd;" horiz-adv-x="501" 
d="M205 0l252 1434h92l-252 -1434h-92zM481 1608l217 245h109l-238 -245h-88z" />
    <glyph glyph-name="Icircumflex" unicode="&#xce;" horiz-adv-x="501" 
d="M205 0l252 1434h92l-252 -1434h-92zM246 1608l268 245h102l183 -245h-97l-139 194l-209 -194h-108z" />
    <glyph glyph-name="Idieresis" unicode="&#xcf;" horiz-adv-x="501" 
d="M205 0l252 1434h92l-252 -1434h-92zM317 1690l19 112h113l-19 -112h-113zM666 1690l18 112h113l-19 -112h-112z" />
    <glyph glyph-name="Eth" unicode="&#xd0;" horiz-adv-x="1495" 
d="M256 0l119 676h-205l16 92h205l117 666h403q272 0 441.5 -160.5t169.5 -433.5q0 -192 -60.5 -351.5t-164 -265.5t-242.5 -164.5t-297 -58.5h-502zM362 92h406q134 0 254.5 51t211 143.5t143.5 232t53 306.5q0 232 -140 374t-389 142h-317l-101 -573h420l-16 -92h-420z
" />
    <glyph glyph-name="Ntilde" unicode="&#xd1;" horiz-adv-x="1484" 
d="M205 0l252 1434h184l516 -1342h45l238 1342h92l-252 -1434h-184l-518 1341h-46l-235 -1341h-92zM819 1638h-92q13 86 67.5 135.5t133.5 49.5q48 0 91.5 -23t82 -46t72.5 -23q83 0 98 92h92q-13 -86 -67.5 -135.5t-133.5 -49.5q-38 0 -74 14.5t-59.5 32t-53.5 32t-58 14.5
q-84 0 -99 -93z" />
    <glyph glyph-name="Ograve" unicode="&#xd2;" horiz-adv-x="1576" 
d="M993 1454q260 0 425 -174t165 -449q0 -187 -65.5 -349.5t-172.5 -270.5t-242.5 -169.5t-277.5 -61.5q-260 0 -424.5 173.5t-164.5 448.5q0 151 42.5 286.5t116 237t169 176.5t206 113.5t223.5 38.5zM983 1362q-121 0 -238 -54t-210 -149t-150 -239t-57 -310
q0 -238 143 -388t365 -150q97 0 192 33.5t178 99t147 155t101 209.5t37 254q0 238 -143 388.5t-365 150.5zM981 1608l-152 245h103l131 -245h-82z" />
    <glyph glyph-name="Oacute" unicode="&#xd3;" horiz-adv-x="1576" 
d="M993 1454q260 0 425 -174t165 -449q0 -187 -65.5 -349.5t-172.5 -270.5t-242.5 -169.5t-277.5 -61.5q-260 0 -424.5 173.5t-164.5 448.5q0 151 42.5 286.5t116 237t169 176.5t206 113.5t223.5 38.5zM983 1362q-121 0 -238 -54t-210 -149t-150 -239t-57 -310
q0 -238 143 -388t365 -150q97 0 192 33.5t178 99t147 155t101 209.5t37 254q0 238 -143 388.5t-365 150.5zM993 1608l217 245h109l-238 -245h-88z" />
    <glyph glyph-name="Ocircumflex" unicode="&#xd4;" horiz-adv-x="1576" 
d="M993 1454q260 0 425 -174t165 -449q0 -187 -65.5 -349.5t-172.5 -270.5t-242.5 -169.5t-277.5 -61.5q-260 0 -424.5 173.5t-164.5 448.5q0 151 42.5 286.5t116 237t169 176.5t206 113.5t223.5 38.5zM983 1362q-121 0 -238 -54t-210 -149t-150 -239t-57 -310
q0 -238 143 -388t365 -150q97 0 192 33.5t178 99t147 155t101 209.5t37 254q0 238 -143 388.5t-365 150.5zM760 1608l268 245h102l183 -245h-96l-140 194l-209 -194h-108z" />
    <glyph glyph-name="Otilde" unicode="&#xd5;" horiz-adv-x="1576" 
d="M993 1454q260 0 425 -174t165 -449q0 -187 -65.5 -349.5t-172.5 -270.5t-242.5 -169.5t-277.5 -61.5q-260 0 -424.5 173.5t-164.5 448.5q0 151 42.5 286.5t116 237t169 176.5t206 113.5t223.5 38.5zM983 1362q-121 0 -238 -54t-210 -149t-150 -239t-57 -310
q0 -238 143 -388t365 -150q97 0 192 33.5t178 99t147 155t101 209.5t37 254q0 238 -143 388.5t-365 150.5zM829 1638h-92q13 86 67.5 135.5t133.5 49.5q48 0 91.5 -23t82 -46t72.5 -23q83 0 98 92h92q-13 -86 -67.5 -135.5t-132.5 -49.5q-38 0 -74 14.5t-60 32t-54 32
t-58 14.5q-84 0 -99 -93z" />
    <glyph glyph-name="Odieresis" unicode="&#xd6;" horiz-adv-x="1576" 
d="M993 1454q260 0 425 -174t165 -449q0 -187 -65.5 -349.5t-172.5 -270.5t-242.5 -169.5t-277.5 -61.5q-260 0 -424.5 173.5t-164.5 448.5q0 151 42.5 286.5t116 237t169 176.5t206 113.5t223.5 38.5zM983 1362q-121 0 -238 -54t-210 -149t-150 -239t-57 -310
q0 -238 143 -388t365 -150q97 0 192 33.5t178 99t147 155t101 209.5t37 254q0 238 -143 388.5t-365 150.5zM827 1690l19 112h112l-18 -112h-113zM1176 1690l18 112h113l-19 -112h-112z" />
    <glyph glyph-name="multiply" unicode="&#xd7;" horiz-adv-x="1105" 
d="M287 297l307 307l-307 307l61 62l307 -307l308 307l61 -62l-307 -307l307 -307l-61 -61l-308 307l-307 -307z" />
    <glyph glyph-name="Oslash" unicode="&#xd8;" horiz-adv-x="1576" 
d="M489 201l764 1087q-120 74 -270 74q-121 0 -238 -54t-210 -149t-150 -239t-57 -310q0 -260 161 -409zM299 -72l135 193q-198 179 -198 481q0 151 42.5 286.5t116 237t169 176.5t206 113.5t223.5 38.5q180 0 318 -86l96 137h113l-136 -192q199 -180 199 -482
q0 -187 -65.5 -349.5t-172.5 -270.5t-242.5 -169.5t-277.5 -61.5q-178 0 -317 86l-96 -138h-113zM1329 1233l-764 -1088q118 -73 271 -73q97 0 192 33.5t178 99t147 155t101 209.5t37 254q0 260 -162 410z" />
    <glyph glyph-name="Ugrave" unicode="&#xd9;" horiz-adv-x="1454" 
d="M289 596l147 838h92l-149 -844q-10 -65 -10 -109q0 -187 115 -298t286 -111q184 0 322.5 126.5t175.5 325.5l162 910h92l-160 -908q-29 -164 -118.5 -289.5t-216.5 -191t-273 -65.5q-205 0 -341.5 136t-136.5 355q0 55 13 125zM961 1608l-152 245h102l131 -245h-81z" />
    <glyph glyph-name="Uacute" unicode="&#xda;" horiz-adv-x="1454" 
d="M289 596l147 838h92l-149 -844q-10 -65 -10 -109q0 -187 115 -298t286 -111q184 0 322.5 126.5t175.5 325.5l162 910h92l-160 -908q-29 -164 -118.5 -289.5t-216.5 -191t-273 -65.5q-205 0 -341.5 136t-136.5 355q0 55 13 125zM932 1608l217 245h108l-237 -245h-88z" />
    <glyph glyph-name="Ucircumflex" unicode="&#xdb;" horiz-adv-x="1454" 
d="M289 596l147 838h92l-149 -844q-10 -65 -10 -109q0 -187 115 -298t286 -111q184 0 322.5 126.5t175.5 325.5l162 910h92l-160 -908q-29 -164 -118.5 -289.5t-216.5 -191t-273 -65.5q-205 0 -341.5 136t-136.5 355q0 55 13 125zM707 1608l268 245h102l183 -245h-97
l-139 194l-209 -194h-108z" />
    <glyph glyph-name="Udieresis" unicode="&#xdc;" horiz-adv-x="1454" 
d="M289 596l147 838h92l-149 -844q-10 -65 -10 -109q0 -187 115 -298t286 -111q184 0 322.5 126.5t175.5 325.5l162 910h92l-160 -908q-29 -164 -118.5 -289.5t-216.5 -191t-273 -65.5q-205 0 -341.5 136t-136.5 355q0 55 13 125zM778 1690l19 112h112l-18 -112h-113z
M1126 1690l19 112h112l-18 -112h-113z" />
    <glyph glyph-name="Yacute" unicode="&#xdd;" horiz-adv-x="1198" 
d="M522 0l92 532l-372 902h94l315 -768h51l586 768h111l-692 -902l-93 -532h-92zM770 1608l217 245h109l-238 -245h-88z" />
    <glyph glyph-name="Thorn" unicode="&#xde;" horiz-adv-x="1443" 
d="M205 0l252 1434h92l-60 -338h596q167 0 263 -89.5t96 -234.5q0 -192 -120 -313t-300 -121h-668l-59 -338h-92zM373 430h661q144 0 231 94t87 236q0 115 -73 179.5t-202 64.5h-604z" />
    <glyph glyph-name="germandbls" unicode="&#xdf;" horiz-adv-x="1136" 
d="M174 0l191 1083q30 163 149.5 267t284.5 104q168 0 273.5 -95.5t105.5 -248.5q0 -105 -40 -181t-100 -122q-62 -50 -139 -74l-2 -10q58 -18 104 -55q107 -84 107 -236q0 -128 -62.5 -227.5t-167.5 -152t-233 -52.5h-127l14 92h113q183 0 277 94.5t94 243.5
q0 111 -91.5 183.5t-248.5 72.5h-43l16 92h99q145 0 240 94.5t95 233.5q0 113 -77.5 184.5t-223.5 71.5q-131 0 -217 -81t-108 -198l-191 -1083h-92z" />
    <glyph glyph-name="agrave" unicode="&#xe0;" horiz-adv-x="1095" 
d="M862 0l10 184h-10q-26 -51 -84 -102q-118 -102 -284 -102q-143 0 -229.5 78t-86.5 192q0 163 105.5 258.5t302.5 95.5h360l6 37q9 41 9 80q0 108 -69.5 169.5t-211.5 61.5q-233 0 -299 -225h-94q89 317 409 317q169 0 264 -83t95 -224q0 -47 -11 -104l-110 -633h-72z
M922 461l10 51h-367q-143 0 -219 -67t-76 -177q0 -82 60.5 -139t163.5 -57q160 0 275.5 105.5t152.5 283.5zM725 1208l-152 246h103l131 -246h-82z" />
    <glyph glyph-name="aacute" unicode="&#xe1;" horiz-adv-x="1095" 
d="M862 0l10 184h-10q-26 -51 -84 -102q-118 -102 -284 -102q-143 0 -229.5 78t-86.5 192q0 163 105.5 258.5t302.5 95.5h360l6 37q9 41 9 80q0 108 -69.5 169.5t-211.5 61.5q-233 0 -299 -225h-94q89 317 409 317q169 0 264 -83t95 -224q0 -47 -11 -104l-110 -633h-72z
M922 461l10 51h-367q-143 0 -219 -67t-76 -177q0 -82 60.5 -139t163.5 -57q160 0 275.5 105.5t152.5 283.5zM717 1208l217 246h108l-237 -246h-88z" />
    <glyph glyph-name="acircumflex" unicode="&#xe2;" horiz-adv-x="1095" 
d="M862 0l10 184h-10q-26 -51 -84 -102q-118 -102 -284 -102q-143 0 -229.5 78t-86.5 192q0 163 105.5 258.5t302.5 95.5h360l6 37q9 41 9 80q0 108 -69.5 169.5t-211.5 61.5q-233 0 -299 -225h-94q89 317 409 317q169 0 264 -83t95 -224q0 -47 -11 -104l-110 -633h-72z
M922 461l10 51h-367q-143 0 -219 -67t-76 -177q0 -82 60.5 -139t163.5 -57q160 0 275.5 105.5t152.5 283.5zM492 1208l268 246h102l182 -246h-96l-139 195l-209 -195h-108z" />
    <glyph glyph-name="atilde" unicode="&#xe3;" horiz-adv-x="1095" 
d="M862 0l10 184h-10q-26 -51 -84 -102q-118 -102 -284 -102q-143 0 -229.5 78t-86.5 192q0 163 105.5 258.5t302.5 95.5h360l6 37q9 41 9 80q0 108 -69.5 169.5t-211.5 61.5q-233 0 -299 -225h-94q89 317 409 317q169 0 264 -83t95 -224q0 -47 -11 -104l-110 -633h-72z
M922 461l10 51h-367q-143 0 -219 -67t-76 -177q0 -82 60.5 -139t163.5 -57q160 0 275.5 105.5t152.5 283.5zM563 1239h-92q13 86 67.5 135t133.5 49q48 0 91.5 -23t82 -46t72.5 -23q83 0 98 92h92q-13 -86 -67.5 -135t-133.5 -49q-48 0 -91.5 23t-81.5 46t-72 23
q-84 0 -99 -92z" />
    <glyph glyph-name="adieresis" unicode="&#xe4;" horiz-adv-x="1095" 
d="M862 0l10 184h-10q-26 -51 -84 -102q-118 -102 -284 -102q-143 0 -229.5 78t-86.5 192q0 163 105.5 258.5t302.5 95.5h360l6 37q9 41 9 80q0 108 -69.5 169.5t-211.5 61.5q-233 0 -299 -225h-94q89 317 409 317q169 0 264 -83t95 -224q0 -47 -11 -104l-110 -633h-72z
M922 461l10 51h-367q-143 0 -219 -67t-76 -177q0 -82 60.5 -139t163.5 -57q160 0 275.5 105.5t152.5 283.5zM553 1290l18 113h113l-18 -113h-113zM901 1290l19 113h112l-18 -113h-113z" />
    <glyph glyph-name="aring" unicode="&#xe5;" horiz-adv-x="1095" 
d="M862 0l10 184h-10q-26 -51 -84 -102q-118 -102 -284 -102q-143 0 -229.5 78t-86.5 192q0 163 105.5 258.5t302.5 95.5h360l6 37q9 41 9 80q0 108 -69.5 169.5t-211.5 61.5q-233 0 -299 -225h-94q89 317 409 317q169 0 264 -83t95 -224q0 -47 -11 -104l-110 -633h-72z
M922 461l10 51h-367q-143 0 -219 -67t-76 -177q0 -82 60.5 -139t163.5 -57q160 0 275.5 105.5t152.5 283.5zM610 1331q0 77 58 136t137 59q70 0 114 -46t44 -108q0 -77 -58 -135.5t-137 -58.5q-70 0 -114 45.5t-44 107.5zM692 1337q0 -36 22.5 -56.5t65.5 -20.5
q46 0 73.5 31t27.5 75q0 36 -22.5 57t-65.5 21q-46 0 -73.5 -31t-27.5 -76z" />
    <glyph glyph-name="ae" unicode="&#xe6;" horiz-adv-x="1857" 
d="M381 727h-90q39 152 141.5 234.5t265.5 82.5q188 0 287 -124q40 -52 55 -123q38 67 101 123q134 124 307 124q180 0 293.5 -119t113.5 -311q0 -45 -8 -102l-6 -41h-825q-2 -23 -2 -51q0 -158 92 -253t237 -95q157 0 263 106q50 47 80 109h92q-34 -83 -95 -154
q-130 -153 -348 -153q-207 0 -315 145q-50 65 -70 145q-38 -83 -100 -145q-141 -145 -354 -145q-143 0 -230.5 72.5t-87.5 180.5q0 147 99 238.5t290 91.5h375l14 76q9 38 9 80q0 108 -70.5 170.5t-212.5 62.5q-120 0 -195 -60t-106 -165zM924 461l2 10h-369
q-287 0 -287 -219q0 -82 64 -131t172 -49q164 0 270.5 97t147.5 292zM1034 563h729v31q0 163 -90 260.5t-225 97.5q-143 0 -258.5 -105.5t-155.5 -283.5z" />
    <glyph glyph-name="ccedilla" unicode="&#xe7;" horiz-adv-x="1105" 
d="M403 -399l13 82h98q39 0 64.5 21t25.5 56q0 27 -23 46.5t-67 19.5h-41l12 72l54 86q-162 21 -258.5 135.5t-96.5 296.5q0 142 46 262.5t121.5 199t172 122.5t199.5 44q231 0 338 -174q44 -73 57 -174h-92q-12 73 -49 127q-88 129 -264 129q-82 0 -160 -35.5t-140 -100.5
t-99.5 -166t-37.5 -222q0 -164 92.5 -260t243.5 -96q172 0 283 133q54 61 80 133h94q-39 -102 -98 -176q-143 -175 -353 -182l-51 -82q59 -10 89 -42.5t30 -80.5q0 -75 -49 -124.5t-133 -49.5h-101z" />
    <glyph glyph-name="egrave" unicode="&#xe8;" horiz-adv-x="1146" 
d="M971 287h92q-44 -94 -102 -154q-138 -153 -353 -153q-191 0 -307.5 117.5t-116.5 318.5q0 140 46 260.5t121.5 199.5t172.5 123.5t199 44.5q186 0 303 -119t117 -315q0 -57 -8 -98l-7 -41h-852v-39q0 -170 92 -265t248 -95q161 0 271 106q45 40 84 109zM291 563h760v31
q0 165 -93.5 261.5t-248.5 96.5q-86 0 -159.5 -34t-124.5 -91t-85 -124t-49 -140zM721 1208l-152 246h103l131 -246h-82z" />
    <glyph glyph-name="eacute" unicode="&#xe9;" horiz-adv-x="1146" 
d="M971 287h92q-44 -94 -102 -154q-138 -153 -353 -153q-191 0 -307.5 117.5t-116.5 318.5q0 140 46 260.5t121.5 199.5t172.5 123.5t199 44.5q186 0 303 -119t117 -315q0 -57 -8 -98l-7 -41h-852v-39q0 -170 92 -265t248 -95q161 0 271 106q45 40 84 109zM291 563h760v31
q0 165 -93.5 261.5t-248.5 96.5q-86 0 -159.5 -34t-124.5 -91t-85 -124t-49 -140zM717 1208l217 246h108l-237 -246h-88z" />
    <glyph glyph-name="ecircumflex" unicode="&#xea;" horiz-adv-x="1146" 
d="M971 287h92q-44 -94 -102 -154q-138 -153 -353 -153q-191 0 -307.5 117.5t-116.5 318.5q0 140 46 260.5t121.5 199.5t172.5 123.5t199 44.5q186 0 303 -119t117 -315q0 -57 -8 -98l-7 -41h-852v-39q0 -170 92 -265t248 -95q161 0 271 106q45 40 84 109zM291 563h760v31
q0 165 -93.5 261.5t-248.5 96.5q-86 0 -159.5 -34t-124.5 -91t-85 -124t-49 -140zM492 1208l268 246h102l182 -246h-96l-139 195l-209 -195h-108z" />
    <glyph glyph-name="edieresis" unicode="&#xeb;" horiz-adv-x="1146" 
d="M971 287h92q-44 -94 -102 -154q-138 -153 -353 -153q-191 0 -307.5 117.5t-116.5 318.5q0 140 46 260.5t121.5 199.5t172.5 123.5t199 44.5q186 0 303 -119t117 -315q0 -57 -8 -98l-7 -41h-852v-39q0 -170 92 -265t248 -95q161 0 271 106q45 40 84 109zM291 563h760v31
q0 165 -93.5 261.5t-248.5 96.5q-86 0 -159.5 -34t-124.5 -91t-85 -124t-49 -140zM553 1290l18 113h113l-18 -113h-113zM901 1290l19 113h112l-18 -113h-113z" />
    <glyph glyph-name="igrave" unicode="&#xec;" horiz-adv-x="460" 
d="M184 0l181 1024h92l-181 -1024h-92zM367 1208l-152 246h102l132 -246h-82z" />
    <glyph glyph-name="iacute" unicode="&#xed;" horiz-adv-x="460" 
d="M184 0l181 1024h92l-181 -1024h-92zM389 1208l217 246h109l-238 -246h-88z" />
    <glyph glyph-name="icircumflex" unicode="&#xee;" horiz-adv-x="460" 
d="M184 0l181 1024h92l-181 -1024h-92zM164 1208l268 246h103l182 -246h-96l-140 195l-209 -195h-108z" />
    <glyph glyph-name="idieresis" unicode="&#xef;" horiz-adv-x="460" 
d="M184 0l181 1024h92l-181 -1024h-92zM225 1290l19 113h112l-18 -113h-113zM573 1290l19 113h113l-19 -113h-113z" />
    <glyph glyph-name="eth" unicode="&#xf0;" horiz-adv-x="1116" 
d="M530 1044l-26 72l274 133q-39 42 -141 123l-64 45l91 41l59 -41q65 -51 137 -129l258 125l29 -72l-236 -112q203 -259 203 -625q0 -96 -21 -186.5t-65 -170t-106 -139t-149 -94t-189 -34.5q-181 0 -290.5 115t-109.5 290q0 123 43.5 229.5t115 177t160.5 110.5t181 40
q150 0 248 -78q41 -32 69 -78h11q-53 256 -187 404zM602 72q79 0 152.5 33t129.5 91.5t90 146t34 189.5q0 138 -90 228t-236 90q-79 0 -152.5 -32.5t-129.5 -90t-90 -143t-34 -185.5q0 -144 90 -235.5t236 -91.5z" />
    <glyph glyph-name="ntilde" unicode="&#xf1;" horiz-adv-x="1198" 
d="M184 0l181 1024h71l-8 -164h10q29 51 82 92q108 92 264 92q150 0 251.5 -101t101.5 -265q0 -40 -11 -100l-102 -578h-92l104 586q6 27 6 82q0 128 -77 206t-201 78q-142 0 -248.5 -101.5t-132.5 -246.5l-107 -604h-92zM594 1239h-92q13 86 67 135t133 49q48 0 91.5 -23
t82 -46t72.5 -23q84 0 99 92h92q-13 -86 -67.5 -135t-133.5 -49q-48 0 -91.5 23t-82 46t-72.5 23q-83 0 -98 -92z" />
    <glyph glyph-name="ograve" unicode="&#xf2;" horiz-adv-x="1146" 
d="M725 1044q186 0 303 -119.5t117 -318.5q0 -140 -46 -260t-122.5 -199t-173.5 -123t-199 -44q-186 0 -303 119.5t-117 318.5q0 140 46 260t122.5 199t173.5 123t199 44zM614 72q83 0 161 35.5t140.5 100.5t100 166t37.5 222q0 163 -94 259.5t-244 96.5q-83 0 -161 -35.5
t-140.5 -100.5t-100 -166t-37.5 -222q0 -163 94 -259.5t244 -96.5zM725 1208l-152 246h103l131 -246h-82z" />
    <glyph glyph-name="oacute" unicode="&#xf3;" horiz-adv-x="1146" 
d="M725 1044q186 0 303 -119.5t117 -318.5q0 -140 -46 -260t-122.5 -199t-173.5 -123t-199 -44q-186 0 -303 119.5t-117 318.5q0 140 46 260t122.5 199t173.5 123t199 44zM614 72q83 0 161 35.5t140.5 100.5t100 166t37.5 222q0 163 -94 259.5t-244 96.5q-83 0 -161 -35.5
t-140.5 -100.5t-100 -166t-37.5 -222q0 -163 94 -259.5t244 -96.5zM727 1208l217 246h109l-238 -246h-88z" />
    <glyph glyph-name="ocircumflex" unicode="&#xf4;" horiz-adv-x="1146" 
d="M725 1044q186 0 303 -119.5t117 -318.5q0 -140 -46 -260t-122.5 -199t-173.5 -123t-199 -44q-186 0 -303 119.5t-117 318.5q0 140 46 260t122.5 199t173.5 123t199 44zM614 72q83 0 161 35.5t140.5 100.5t100 166t37.5 222q0 163 -94 259.5t-244 96.5q-83 0 -161 -35.5
t-140.5 -100.5t-100 -166t-37.5 -222q0 -163 94 -259.5t244 -96.5zM502 1208l268 246h102l183 -246h-97l-139 195l-209 -195h-108z" />
    <glyph glyph-name="otilde" unicode="&#xf5;" horiz-adv-x="1146" 
d="M725 1044q186 0 303 -119.5t117 -318.5q0 -140 -46 -260t-122.5 -199t-173.5 -123t-199 -44q-186 0 -303 119.5t-117 318.5q0 140 46 260t122.5 199t173.5 123t199 44zM614 72q83 0 161 35.5t140.5 100.5t100 166t37.5 222q0 163 -94 259.5t-244 96.5q-83 0 -161 -35.5
t-140.5 -100.5t-100 -166t-37.5 -222q0 -163 94 -259.5t244 -96.5zM573 1239h-92q13 86 67.5 135t133.5 49q48 0 91.5 -23t82 -46t72.5 -23q83 0 98 92h92q-13 -86 -67 -135t-133 -49q-48 0 -91.5 23t-82 46t-72.5 23q-84 0 -99 -92z" />
    <glyph glyph-name="odieresis" unicode="&#xf6;" horiz-adv-x="1146" 
d="M725 1044q186 0 303 -119.5t117 -318.5q0 -140 -46 -260t-122.5 -199t-173.5 -123t-199 -44q-186 0 -303 119.5t-117 318.5q0 140 46 260t122.5 199t173.5 123t199 44zM614 72q83 0 161 35.5t140.5 100.5t100 166t37.5 222q0 163 -94 259.5t-244 96.5q-83 0 -161 -35.5
t-140.5 -100.5t-100 -166t-37.5 -222q0 -163 94 -259.5t244 -96.5zM553 1290l18 113h113l-18 -113h-113zM901 1290l19 113h112l-18 -113h-113z" />
    <glyph glyph-name="divide" unicode="&#xf7;" horiz-adv-x="1105" 
d="M573 266q0 25 16.5 43.5t45.5 18.5t45 -18.5t16 -43.5t-16 -43t-45 -18t-45.5 18t-16.5 43zM236 553v92h798v-92h-798zM573 932q0 25 16.5 43t45.5 18t45 -18t16 -43t-16 -43.5t-45 -18.5t-45.5 18.5t-16.5 43.5z" />
    <glyph glyph-name="oslash" unicode="&#xf8;" horiz-adv-x="1146" 
d="M197 -72l114 162q-127 121 -127 328q0 140 46 260t122.5 199t173.5 123t199 44q130 0 225 -59l78 111h105l-115 -162q127 -127 127 -328q0 -140 -46 -260t-122.5 -199t-173.5 -123t-199 -44q-130 0 -225 59l-78 -111h-104zM369 170l524 737q-77 45 -178 45
q-83 0 -161 -35.5t-140.5 -100.5t-100 -166t-37.5 -222q0 -162 93 -258zM961 854l-525 -737q77 -45 178 -45q83 0 161 35.5t140.5 100.5t100 166t37.5 222q0 163 -92 258z" />
    <glyph glyph-name="ugrave" unicode="&#xf9;" horiz-adv-x="1198" 
d="M252 446l102 578h92l-104 -586q-6 -40 -6 -82q0 -128 77 -206t201 -78q142 0 248.5 101.5t132.5 246.5l107 604h92l-180 -1024h-72l8 164h-10q-35 -54 -82 -92q-112 -92 -264 -92q-150 0 -251 101t-101 265q0 45 10 100zM758 1208l-152 246h103l131 -246h-82z" />
    <glyph glyph-name="uacute" unicode="&#xfa;" horiz-adv-x="1198" 
d="M252 446l102 578h92l-104 -586q-6 -40 -6 -82q0 -128 77 -206t201 -78q142 0 248.5 101.5t132.5 246.5l107 604h92l-180 -1024h-72l8 164h-10q-35 -54 -82 -92q-112 -92 -264 -92q-150 0 -251 101t-101 265q0 45 10 100zM750 1208l217 246h108l-237 -246h-88z" />
    <glyph glyph-name="ucircumflex" unicode="&#xfb;" horiz-adv-x="1198" 
d="M252 446l102 578h92l-104 -586q-6 -40 -6 -82q0 -128 77 -206t201 -78q142 0 248.5 101.5t132.5 246.5l107 604h92l-180 -1024h-72l8 164h-10q-35 -54 -82 -92q-112 -92 -264 -92q-150 0 -251 101t-101 265q0 45 10 100zM514 1208l268 246h103l182 -246h-96l-140 195
l-208 -195h-109z" />
    <glyph glyph-name="udieresis" unicode="&#xfc;" horiz-adv-x="1198" 
d="M252 446l102 578h92l-104 -586q-6 -40 -6 -82q0 -128 77 -206t201 -78q142 0 248.5 101.5t132.5 246.5l107 604h92l-180 -1024h-72l8 164h-10q-35 -54 -82 -92q-112 -92 -264 -92q-150 0 -251 101t-101 265q0 45 10 100zM586 1290l18 113h113l-19 -113h-112zM934 1290
l18 113h113l-18 -113h-113z" />
    <glyph glyph-name="yacute" unicode="&#xfd;" horiz-adv-x="942" 
d="M31 -410l16 93h160q38 0 59 16t47 65l95 181l-215 1079h88l178 -901h41l477 901h96l-692 -1311q-35 -67 -73 -95t-111 -28h-166zM588 1208l217 246h108l-237 -246h-88z" />
    <glyph glyph-name="thorn" unicode="&#xfe;" horiz-adv-x="1208" 
d="M111 -410l325 1844h92l-104 -590h10q34 51 90 100q129 100 283 100q182 0 290.5 -122t108.5 -314q0 -140 -45 -260t-119.5 -199.5t-169.5 -124t-196 -44.5q-173 0 -281 112q-46 49 -73 113h-11l-108 -615h-92zM684 72q79 0 155 36.5t137.5 101.5t99.5 166.5t38 221.5
q0 161 -93.5 257.5t-236.5 96.5q-75 0 -150 -37.5t-137.5 -103.5t-101.5 -168.5t-39 -222.5q0 -157 92.5 -252.5t235.5 -95.5z" />
    <glyph glyph-name="ydieresis" unicode="&#xff;" horiz-adv-x="942" 
d="M31 -410l16 93h160q38 0 59 16t47 65l95 181l-215 1079h88l178 -901h41l477 901h96l-692 -1311q-35 -67 -73 -95t-111 -28h-166zM418 1290l18 113h113l-19 -113h-112zM766 1290l18 113h113l-18 -113h-113z" />
    <glyph glyph-name="Amacron" unicode="&#x100;" horiz-adv-x="1269" 
d="M41 0l795 1434h143l291 -1434h-88l-82 399h-742l-221 -399h-96zM408 492h675l-170 839h-41zM655 1679l17 93h553l-17 -93h-553z" />
    <glyph glyph-name="amacron" unicode="&#x101;" horiz-adv-x="1095" 
d="M862 0l10 184h-10q-26 -51 -84 -102q-118 -102 -284 -102q-143 0 -229.5 78t-86.5 192q0 163 105.5 258.5t302.5 95.5h360l6 37q9 41 9 80q0 108 -69.5 169.5t-211.5 61.5q-233 0 -299 -225h-94q89 317 409 317q169 0 264 -83t95 -224q0 -47 -11 -104l-110 -633h-72z
M922 461l10 51h-367q-143 0 -219 -67t-76 -177q0 -82 60.5 -139t163.5 -57q160 0 275.5 105.5t152.5 283.5zM496 1280l16 92h553l-16 -92h-553z" />
    <glyph glyph-name="Abreve" unicode="&#x102;" horiz-adv-x="1269" 
d="M41 0l795 1434h143l291 -1434h-88l-82 399h-742l-221 -399h-96zM408 492h675l-170 839h-41zM676 1843h92q13 -143 166 -143q141 0 182 143h94q-23 -108 -101 -171.5t-187 -63.5q-113 0 -179.5 64.5t-66.5 160.5v10z" />
    <glyph glyph-name="abreve" unicode="&#x103;" horiz-adv-x="1095" 
d="M862 0l10 184h-10q-26 -51 -84 -102q-118 -102 -284 -102q-143 0 -229.5 78t-86.5 192q0 163 105.5 258.5t302.5 95.5h360l6 37q9 41 9 80q0 108 -69.5 169.5t-211.5 61.5q-233 0 -299 -225h-94q89 317 409 317q169 0 264 -83t95 -224q0 -47 -11 -104l-110 -633h-72z
M922 461l10 51h-367q-143 0 -219 -67t-76 -177q0 -82 60.5 -139t163.5 -57q160 0 275.5 105.5t152.5 283.5zM532 1444h93q13 -144 166 -144q74 0 118.5 39.5t63.5 104.5h94q-23 -108 -101.5 -172t-187.5 -64q-113 0 -179.5 65t-66.5 161v10z" />
    <glyph glyph-name="Aogonek" unicode="&#x104;" horiz-adv-x="1269" 
d="M41 0l795 1434h143l291 -1434h-6q-80 -36 -117 -71.5t-37 -92.5q0 -72 92 -72h19l-15 -81h-24q-76 0 -117 36t-41 97q0 71 47 117t111 67l-82 399h-742l-221 -399h-96zM408 492h675l-170 839h-41z" />
    <glyph glyph-name="aogonek" unicode="&#x105;" horiz-adv-x="1095" 
d="M877 -317h-25q-76 0 -117 36t-41 97q0 70 50.5 116.5t117.5 67.5l10 184h-10q-26 -51 -84 -102q-118 -102 -284 -102q-143 0 -229.5 78t-86.5 192q0 163 105.5 258.5t302.5 95.5h360l6 37q9 41 9 80q0 108 -69.5 169.5t-211.5 61.5q-233 0 -299 -225h-94q89 317 409 317
q169 0 264 -83t95 -224q0 -47 -11 -104l-110 -633q-80 -36 -117 -71.5t-37 -92.5q0 -72 92 -72h19zM922 461l10 51h-367q-143 0 -219 -67t-76 -177q0 -82 60.5 -139t163.5 -57q160 0 275.5 105.5t152.5 283.5z" />
    <glyph glyph-name="Cacute" unicode="&#x106;" horiz-adv-x="1536" 
d="M1415 471h101q-62 -139 -160 -246q-93 -107 -226 -176t-299 -69q-261 0 -428 171t-167 447q0 125 29.5 241.5t82 209.5t124 169.5t155 128t177 79.5t187.5 28q313 0 477 -242q73 -112 99 -239h-92q-27 108 -89 194q-143 195 -401 195q-124 0 -242 -54t-210.5 -150
t-148.5 -239.5t-56 -310.5q0 -243 143.5 -389.5t372.5 -146.5q252 0 438 198q80 86 133 201zM973 1608l217 245h108l-237 -245h-88z" />
    <glyph glyph-name="cacute" unicode="&#x107;" horiz-adv-x="1105" 
d="M975 338h94q-38 -104 -100 -180q-142 -178 -363 -178q-190 0 -306 118t-116 318q0 142 46 262.5t121.5 199t172 122.5t199.5 44q231 0 338 -174q44 -73 57 -174h-92q-12 73 -49 127q-88 129 -264 129q-82 0 -160 -35.5t-140 -100.5t-99.5 -166t-37.5 -222
q0 -164 92.5 -260t243.5 -96q172 0 283 133q54 61 80 133zM713 1208l217 246h108l-237 -246h-88z" />
    <glyph glyph-name="Ccircumflex" unicode="&#x108;" horiz-adv-x="1536" 
d="M1415 471h101q-62 -139 -160 -246q-93 -107 -226 -176t-299 -69q-261 0 -428 171t-167 447q0 125 29.5 241.5t82 209.5t124 169.5t155 128t177 79.5t187.5 28q313 0 477 -242q73 -112 99 -239h-92q-27 108 -89 194q-143 195 -401 195q-124 0 -242 -54t-210.5 -150
t-148.5 -239.5t-56 -310.5q0 -243 143.5 -389.5t372.5 -146.5q252 0 438 198q80 86 133 201zM741 1608l269 245h102l182 -245h-96l-139 194l-209 -194h-109z" />
    <glyph glyph-name="ccircumflex" unicode="&#x109;" horiz-adv-x="1105" 
d="M975 338h94q-38 -104 -100 -180q-142 -178 -363 -178q-190 0 -306 118t-116 318q0 142 46 262.5t121.5 199t172 122.5t199.5 44q231 0 338 -174q44 -73 57 -174h-92q-12 73 -49 127q-88 129 -264 129q-82 0 -160 -35.5t-140 -100.5t-99.5 -166t-37.5 -222
q0 -164 92.5 -260t243.5 -96q172 0 283 133q54 61 80 133zM492 1208l268 246h102l182 -246h-96l-139 195l-209 -195h-108z" />
    <glyph glyph-name="Cdotaccent" unicode="&#x10a;" horiz-adv-x="1536" 
d="M1415 471h101q-62 -139 -160 -246q-93 -107 -226 -176t-299 -69q-261 0 -428 171t-167 447q0 125 29.5 241.5t82 209.5t124 169.5t155 128t177 79.5t187.5 28q313 0 477 -242q73 -112 99 -239h-92q-27 108 -89 194q-143 195 -401 195q-124 0 -242 -54t-210.5 -150
t-148.5 -239.5t-56 -310.5q0 -243 143.5 -389.5t372.5 -146.5q252 0 438 198q80 86 133 201zM971 1690l18 112h113l-19 -112h-112z" />
    <glyph glyph-name="cdotaccent" unicode="&#x10b;" horiz-adv-x="1105" 
d="M975 338h94q-38 -104 -100 -180q-142 -178 -363 -178q-190 0 -306 118t-116 318q0 142 46 262.5t121.5 199t172 122.5t199.5 44q231 0 338 -174q44 -73 57 -174h-92q-12 73 -49 127q-88 129 -264 129q-82 0 -160 -35.5t-140 -100.5t-99.5 -166t-37.5 -222
q0 -164 92.5 -260t243.5 -96q172 0 283 133q54 61 80 133zM717 1290l18 113h113l-19 -113h-112z" />
    <glyph glyph-name="Ccaron" unicode="&#x10c;" horiz-adv-x="1536" 
d="M1415 471h101q-62 -139 -160 -246q-93 -107 -226 -176t-299 -69q-261 0 -428 171t-167 447q0 125 29.5 241.5t82 209.5t124 169.5t155 128t177 79.5t187.5 28q313 0 477 -242q73 -112 99 -239h-92q-27 108 -89 194q-143 195 -401 195q-124 0 -242 -54t-210.5 -150
t-148.5 -239.5t-56 -310.5q0 -243 143.5 -389.5t372.5 -146.5q252 0 438 198q80 86 133 201zM975 1608l-182 245h96l141 -194l207 194h109l-269 -245h-102z" />
    <glyph glyph-name="ccaron" unicode="&#x10d;" horiz-adv-x="1105" 
d="M975 338h94q-38 -104 -100 -180q-142 -178 -363 -178q-190 0 -306 118t-116 318q0 142 46 262.5t121.5 199t172 122.5t199.5 44q231 0 338 -174q44 -73 57 -174h-92q-12 73 -49 127q-88 129 -264 129q-82 0 -160 -35.5t-140 -100.5t-99.5 -166t-37.5 -222
q0 -164 92.5 -260t243.5 -96q172 0 283 133q54 61 80 133zM711 1208l-183 246h97l141 -194l207 194h108l-268 -246h-102z" />
    <glyph glyph-name="Dcaron" unicode="&#x10e;" horiz-adv-x="1443" 
d="M205 0l252 1434h403q272 0 441 -160.5t169 -433.5q0 -192 -60 -351.5t-164 -265.5t-242.5 -164.5t-296.5 -58.5h-502zM311 92h406q134 0 254 51t210.5 143.5t143.5 232t53 306.5q0 232 -139.5 374t-388.5 142h-318zM903 1608l-182 245h96l141 -194l207 194h109l-268 -245
h-103z" />
    <glyph glyph-name="dcaron" unicode="&#x10f;" horiz-adv-x="1239" 
d="M956 0l17 193h-10q-44 -64 -93 -107q-121 -106 -286 -106q-182 0 -291 122t-109 314q0 140 45 260t120 199.5t170 124t196 44.5q168 0 280 -112q48 -55 74 -113h10l109 615h92l-252 -1434h-72zM606 72q75 0 150 37.5t137.5 103.5t101.5 168.5t39 222.5q0 157 -92 252.5
t-235 95.5q-79 0 -155 -36.5t-138 -101.5t-100 -166.5t-38 -221.5q0 -161 93.5 -257.5t236.5 -96.5zM1341 1147l123 287h107l-158 -287h-72z" />
    <glyph glyph-name="Dcroat" unicode="&#x110;" horiz-adv-x="1495" 
d="M256 0l119 676h-205l16 92h205l117 666h403q272 0 441.5 -160.5t169.5 -433.5q0 -192 -60.5 -351.5t-164 -265.5t-242.5 -164.5t-297 -58.5h-502zM362 92h406q134 0 254.5 51t211 143.5t143.5 232t53 306.5q0 232 -140 374t-389 142h-317l-101 -573h420l-16 -92h-420z
" />
    <glyph glyph-name="dslash" unicode="&#x111;" horiz-adv-x="1187" 
d="M942 0l10 174h-10q-32 -52 -88 -98q-116 -96 -281 -96q-174 0 -281.5 115t-107.5 290q0 123 43.5 229.5t115 177t160.5 110.5t181 40q180 0 285 -113q47 -53 67 -112h11l77 440h-358l16 92h359l33 185h92l-33 -185h174l-16 -92h-174l-203 -1157h-72zM602 72
q79 0 152.5 33t129.5 91.5t90 146t34 189.5q0 138 -90 228t-236 90q-79 0 -152.5 -32.5t-129.5 -90t-90 -143t-34 -185.5q0 -144 90 -235.5t236 -91.5z" />
    <glyph glyph-name="Emacron" unicode="&#x112;" horiz-adv-x="1239" 
d="M205 0l252 1434h891l-17 -93h-799l-100 -573h758l-16 -92h-758l-105 -584h799l-14 -92h-891zM645 1679l17 93h552l-16 -93h-553z" />
    <glyph glyph-name="emacron" unicode="&#x113;" horiz-adv-x="1146" 
d="M971 287h92q-44 -94 -102 -154q-138 -153 -353 -153q-191 0 -307.5 117.5t-116.5 318.5q0 140 46 260.5t121.5 199.5t172.5 123.5t199 44.5q186 0 303 -119t117 -315q0 -57 -8 -98l-7 -41h-852v-39q0 -170 92 -265t248 -95q161 0 271 106q45 40 84 109zM291 563h760v31
q0 165 -93.5 261.5t-248.5 96.5q-86 0 -159.5 -34t-124.5 -91t-85 -124t-49 -140zM502 1280l16 92h553l-16 -92h-553z" />
    <glyph glyph-name="Ebreve" unicode="&#x114;" horiz-adv-x="1239" 
d="M205 0l252 1434h891l-17 -93h-799l-100 -573h758l-16 -92h-758l-105 -584h799l-14 -92h-891zM676 1843h92q13 -143 166 -143q141 0 182 143h94q-23 -108 -101 -171.5t-187 -63.5q-113 0 -179.5 64.5t-66.5 160.5v10z" />
    <glyph glyph-name="ebreve" unicode="&#x115;" horiz-adv-x="1146" 
d="M971 287h92q-44 -94 -102 -154q-138 -153 -353 -153q-191 0 -307.5 117.5t-116.5 318.5q0 140 46 260.5t121.5 199.5t172.5 123.5t199 44.5q186 0 303 -119t117 -315q0 -57 -8 -98l-7 -41h-852v-39q0 -170 92 -265t248 -95q161 0 271 106q45 40 84 109zM291 563h760v31
q0 165 -93.5 261.5t-248.5 96.5q-86 0 -159.5 -34t-124.5 -91t-85 -124t-49 -140zM522 1444h92q13 -144 166 -144q74 0 119 39.5t64 104.5h94q-23 -108 -101.5 -172t-187.5 -64q-113 0 -179.5 65t-66.5 161v10z" />
    <glyph glyph-name="Edotaccent" unicode="&#x116;" horiz-adv-x="1239" 
d="M205 0l252 1434h891l-17 -93h-799l-100 -573h758l-16 -92h-758l-105 -584h799l-14 -92h-891zM891 1690l18 112h113l-18 -112h-113z" />
    <glyph glyph-name="edotaccent" unicode="&#x117;" horiz-adv-x="1146" 
d="M971 287h92q-44 -94 -102 -154q-138 -153 -353 -153q-191 0 -307.5 117.5t-116.5 318.5q0 140 46 260.5t121.5 199.5t172.5 123.5t199 44.5q186 0 303 -119t117 -315q0 -57 -8 -98l-7 -41h-852v-39q0 -170 92 -265t248 -95q161 0 271 106q45 40 84 109zM291 563h760v31
q0 165 -93.5 261.5t-248.5 96.5q-86 0 -159.5 -34t-124.5 -91t-85 -124t-49 -140zM727 1290l18 113h113l-18 -113h-113z" />
    <glyph glyph-name="Eogonek" unicode="&#x118;" horiz-adv-x="1239" 
d="M205 0l252 1434h891l-17 -93h-799l-100 -573h758l-16 -92h-758l-105 -584h799l-14 -92q-80 -36 -117 -71.5t-37 -92.5q0 -72 92 -72h19l-15 -81h-24q-76 0 -117 36t-41 97q0 71 47 117t111 67h-809z" />
    <glyph glyph-name="eogonek" unicode="&#x119;" horiz-adv-x="1146" 
d="M641 -317h-25q-76 0 -116.5 35.5t-40.5 97.5q0 106 110 166q-173 12 -279 128.5t-106 305.5q0 140 46 260.5t121.5 199.5t172.5 123.5t199 44.5q186 0 302 -119t116 -315q0 -67 -6 -98l-7 -41h-852v-39q0 -170 92 -265t248 -95q161 0 271 106q45 40 84 109h92
q-35 -79 -90 -142q-125 -143 -311 -163q-61 -32 -89 -63.5t-28 -82.5q0 -72 92 -72h18zM291 563h760v31q0 165 -93.5 261.5t-248.5 96.5q-86 0 -159.5 -34t-124.5 -91t-85 -124t-49 -140z" />
    <glyph glyph-name="Ecaron" unicode="&#x11a;" horiz-adv-x="1239" 
d="M205 0l252 1434h891l-17 -93h-799l-100 -573h758l-16 -92h-758l-105 -584h799l-14 -92h-891zM879 1608l-183 245h97l141 -194l207 194h108l-268 -245h-102z" />
    <glyph glyph-name="ecaron" unicode="&#x11b;" horiz-adv-x="1146" 
d="M971 287h92q-44 -94 -102 -154q-138 -153 -353 -153q-191 0 -307.5 117.5t-116.5 318.5q0 140 46 260.5t121.5 199.5t172.5 123.5t199 44.5q186 0 303 -119t117 -315q0 -57 -8 -98l-7 -41h-852v-39q0 -170 92 -265t248 -95q161 0 271 106q45 40 84 109zM291 563h760v31
q0 165 -93.5 261.5t-248.5 96.5q-86 0 -159.5 -34t-124.5 -91t-85 -124t-49 -140zM711 1208l-183 246h97l141 -194l207 194h108l-268 -246h-102z" />
    <glyph glyph-name="Gcircumflex" unicode="&#x11c;" horiz-adv-x="1576" 
d="M1327 0l31 236h-10q-85 -109 -223.5 -182.5t-297.5 -73.5q-260 0 -425.5 171.5t-165.5 446.5q0 125 29.5 241.5t82 209.5t124 169.5t155 128t177 79.5t187.5 28q308 0 467 -225q71 -100 101 -225h-99l-14 47q-58 153 -186 236q-117 75 -275 75q-123 0 -240.5 -54
t-210 -149.5t-149.5 -240t-57 -310.5q0 -241 143.5 -388.5t370.5 -147.5q91 0 182.5 32.5t170 90t136.5 146.5t78 194l16 90h-481l17 92h573l-125 -717h-82zM748 1608l268 245h102l182 -245h-96l-139 194l-209 -194h-108z" />
    <glyph glyph-name="gcircumflex" unicode="&#x11d;" horiz-adv-x="1208" 
d="M137 -82h94q6 -114 90 -185t234 -71q156 0 254 90.5t125 247.5l39 236h-10q-41 -56 -93 -99q-123 -96 -276 -96q-180 0 -292 120.5t-112 303.5q0 128 45 239t118.5 184t165.5 114.5t188 41.5q174 0 286 -112q51 -54 74 -113h10l58 205h71l-180 -1024q-37 -210 -163 -320
t-328 -110q-177 0 -287.5 101t-110.5 237v10zM612 133q77 0 153 36.5t135.5 99t96.5 153.5t37 192q0 149 -93 243.5t-236 94.5q-80 0 -156 -34t-135 -94.5t-95 -151t-36 -195.5q0 -151 93 -247.5t236 -96.5zM512 1208l268 246h103l182 -246h-96l-140 195l-208 -195h-109z
" />
    <glyph glyph-name="Gbreve" unicode="&#x11e;" horiz-adv-x="1576" 
d="M1327 0l31 236h-10q-85 -109 -223.5 -182.5t-297.5 -73.5q-260 0 -425.5 171.5t-165.5 446.5q0 125 29.5 241.5t82 209.5t124 169.5t155 128t177 79.5t187.5 28q308 0 467 -225q71 -100 101 -225h-99l-14 47q-58 153 -186 236q-117 75 -275 75q-123 0 -240.5 -54
t-210 -149.5t-149.5 -240t-57 -310.5q0 -241 143.5 -388.5t370.5 -147.5q91 0 182.5 32.5t170 90t136.5 146.5t78 194l16 90h-481l17 92h573l-125 -717h-82zM778 1843h92q13 -143 166 -143q74 0 119 39t64 104h94q-23 -108 -101.5 -171.5t-187.5 -63.5q-113 0 -179.5 64.5
t-66.5 160.5v10z" />
    <glyph glyph-name="gbreve" unicode="&#x11f;" horiz-adv-x="1208" 
d="M137 -82h94q6 -114 90 -185t234 -71q156 0 254 90.5t125 247.5l39 236h-10q-41 -56 -93 -99q-123 -96 -276 -96q-180 0 -292 120.5t-112 303.5q0 128 45 239t118.5 184t165.5 114.5t188 41.5q174 0 286 -112q51 -54 74 -113h10l58 205h71l-180 -1024q-37 -210 -163 -320
t-328 -110q-177 0 -287.5 101t-110.5 237v10zM612 133q77 0 153 36.5t135.5 99t96.5 153.5t37 192q0 149 -93 243.5t-236 94.5q-80 0 -156 -34t-135 -94.5t-95 -151t-36 -195.5q0 -151 93 -247.5t236 -96.5zM543 1444h92q13 -144 166 -144q74 0 118.5 39.5t63.5 104.5h94
q-23 -108 -101.5 -172t-187.5 -64q-113 0 -179 65t-66 161v10z" />
    <glyph glyph-name="Gdotaccent" unicode="&#x120;" horiz-adv-x="1576" 
d="M1327 0l31 236h-10q-85 -109 -223.5 -182.5t-297.5 -73.5q-260 0 -425.5 171.5t-165.5 446.5q0 125 29.5 241.5t82 209.5t124 169.5t155 128t177 79.5t187.5 28q308 0 467 -225q71 -100 101 -225h-99l-14 47q-58 153 -186 236q-117 75 -275 75q-123 0 -240.5 -54
t-210 -149.5t-149.5 -240t-57 -310.5q0 -241 143.5 -388.5t370.5 -147.5q91 0 182.5 32.5t170 90t136.5 146.5t78 194l16 90h-481l17 92h573l-125 -717h-82zM973 1690l18 112h113l-19 -112h-112z" />
    <glyph glyph-name="gdotaccent" unicode="&#x121;" horiz-adv-x="1208" 
d="M137 -82h94q6 -114 90 -185t234 -71q156 0 254 90.5t125 247.5l39 236h-10q-41 -56 -93 -99q-123 -96 -276 -96q-180 0 -292 120.5t-112 303.5q0 128 45 239t118.5 184t165.5 114.5t188 41.5q174 0 286 -112q51 -54 74 -113h10l58 205h71l-180 -1024q-37 -210 -163 -320
t-328 -110q-177 0 -287.5 101t-110.5 237v10zM612 133q77 0 153 36.5t135.5 99t96.5 153.5t37 192q0 149 -93 243.5t-236 94.5q-80 0 -156 -34t-135 -94.5t-95 -151t-36 -195.5q0 -151 93 -247.5t236 -96.5zM737 1290l19 113h112l-18 -113h-113z" />
    <glyph glyph-name="Gcommaaccent" unicode="&#x122;" horiz-adv-x="1576" 
d="M1327 0l31 236h-10q-85 -109 -223.5 -182.5t-297.5 -73.5q-260 0 -425.5 171.5t-165.5 446.5q0 125 29.5 241.5t82 209.5t124 169.5t155 128t177 79.5t187.5 28q308 0 467 -225q71 -100 101 -225h-99l-14 47q-58 153 -186 236q-117 75 -275 75q-123 0 -240.5 -54
t-210 -149.5t-149.5 -240t-57 -310.5q0 -241 143.5 -388.5t370.5 -147.5q91 0 182.5 32.5t170 90t136.5 146.5t78 194l16 90h-481l17 92h573l-125 -717h-82zM645 -461l121 287h102l-153 -287h-70z" />
    <glyph glyph-name="gcommaaccent" unicode="&#x123;" horiz-adv-x="1208" 
d="M737 1198l152 287h72l-121 -287h-103zM137 -82h94q6 -114 90 -185t234 -71q156 0 254 90.5t125 247.5l39 236h-10q-41 -56 -93 -99q-123 -96 -276 -96q-180 0 -292 120.5t-112 303.5q0 128 45 239t118.5 184t165.5 114.5t188 41.5q174 0 286 -112q51 -54 74 -113h10
l58 205h71l-180 -1024q-37 -210 -163 -320t-328 -110q-177 0 -287.5 101t-110.5 237v10zM612 133q77 0 153 36.5t135.5 99t96.5 153.5t37 192q0 149 -93 243.5t-236 94.5q-80 0 -156 -34t-135 -94.5t-95 -151t-36 -195.5q0 -151 93 -247.5t236 -96.5z" />
    <glyph glyph-name="Hcircumflex" unicode="&#x124;" horiz-adv-x="1484" 
d="M205 0l252 1434h92l-115 -656h891l115 656h92l-252 -1434h-92l121 686h-891l-121 -686h-92zM737 1608l269 245h102l182 -245h-96l-139 194l-209 -194h-109z" />
    <glyph glyph-name="hcircumflex" unicode="&#x125;" horiz-adv-x="1208" 
d="M195 0l251 1434h93l-101 -574h11q30 53 81 92q108 92 265 92q150 0 251 -101t101 -265q0 -45 -10 -100l-103 -578h-92l105 586q6 27 6 82q0 128 -77.5 206t-201.5 78q-142 0 -248.5 -101.5t-132.5 -246.5l-106 -604h-92zM573 1608l269 245h102l182 -245h-96l-139 194
l-209 -194h-109z" />
    <glyph glyph-name="Hbar" unicode="&#x126;" horiz-adv-x="1484" 
d="M205 0l186 1065h-164l17 92h164l49 277h92l-49 -277h891l49 277h92l-49 -277h164l-17 -92h-164l-186 -1065h-92l121 686h-891l-121 -686h-92zM434 778h891l49 287h-891z" />
    <glyph glyph-name="hbar" unicode="&#x127;" horiz-adv-x="1198" 
d="M195 0l202 1157h-184l16 92h185l32 185h93l-33 -185h368l-16 -92h-369l-73 -420h10q29 51 82 92q109 93 264 93q150 0 251 -101.5t101 -265.5q0 -45 -10 -100l-80 -455h-92l82 463q6 27 6 82q0 128 -77 206t-201 78q-142 0 -248.5 -101.5t-132.5 -246.5l-84 -481h-92z
" />
    <glyph glyph-name="Imacron" unicode="&#x12a;" horiz-adv-x="501" 
d="M205 0l252 1434h92l-252 -1434h-92zM266 1679l17 93h553l-17 -93h-553z" />
    <glyph glyph-name="imacron" unicode="&#x12b;" horiz-adv-x="460" 
d="M184 0l181 1024h92l-181 -1024h-92zM174 1280l16 92h553l-16 -92h-553z" />
    <glyph glyph-name="Ibreve" unicode="&#x12c;" horiz-adv-x="501" 
d="M205 0l252 1434h92l-252 -1434h-92zM287 1843h92q13 -143 166 -143q141 0 182 143h94q-23 -108 -101.5 -171.5t-187.5 -63.5q-113 0 -179 64.5t-66 160.5v10z" />
    <glyph glyph-name="ibreve" unicode="&#x12d;" horiz-adv-x="460" 
d="M184 0l181 1024h92l-181 -1024h-92zM205 1444h92q13 -144 166 -144q74 0 118.5 39.5t63.5 104.5h94q-23 -109 -101 -172.5t-187 -63.5q-113 0 -179.5 65t-66.5 161v10z" />
    <glyph glyph-name="Iogonek" unicode="&#x12e;" horiz-adv-x="501" 
d="M229 -317h-24q-76 0 -117 36t-41 97q0 71 47 117t111 67l252 1434h92l-252 -1434h-10q-80 -36 -117 -71.5t-37 -92.5q0 -72 92 -72h19z" />
    <glyph glyph-name="iogonek" unicode="&#x12f;" horiz-adv-x="460" 
d="M209 -317h-25q-76 0 -116.5 35.5t-40.5 97.5q0 71 46.5 117t110.5 67l181 1024h92l-181 -1024h-10q-80 -36 -116.5 -71.5t-36.5 -92.5q0 -72 92 -72h18zM401 1290l19 113h112l-18 -113h-113z" />
    <glyph glyph-name="Idot" unicode="&#x130;" horiz-adv-x="501" 
d="M205 0l252 1434h92l-252 -1434h-92zM487 1690l19 112h112l-18 -112h-113z" />
    <glyph glyph-name="dotlessi" unicode="&#x131;" horiz-adv-x="460" 
d="M184 0l181 1024h92l-181 -1024h-92z" />
    <glyph glyph-name="uni0132" unicode="&#x132;" horiz-adv-x="1167" 
d="M205 0l252 1434h92l-252 -1434h-92zM399 0l15 92h364q53 0 91 34t49 89l215 1219h92l-217 -1225q-18 -94 -76.5 -151.5t-153.5 -57.5h-379z" />
    <glyph glyph-name="uni0133" unicode="&#x133;" horiz-adv-x="890" 
d="M184 0l181 1024h92l-181 -1024h-92zM401 1290l19 113h112l-18 -113h-113zM831 1290l19 113h113l-19 -113h-113zM297 -410l16 93h179q38 0 54.5 17t24.5 60l224 1264h92l-225 -1270q-33 -164 -181 -164h-184z" />
    <glyph glyph-name="Jcircumflex" unicode="&#x134;" horiz-adv-x="808" 
d="M41 0l14 92h365q53 0 90.5 34t48.5 89l215 1219h92l-217 -1225q-18 -94 -76 -151.5t-153 -57.5h-379zM553 1608l268 245h103l182 -245h-96l-140 194l-208 -194h-109z" />
    <glyph glyph-name="jcircumflex" unicode="&#x135;" horiz-adv-x="460" 
d="M-133 -410l16 93h162q48 0 68.5 17t27.5 64l224 1260h92l-224 -1260q-30 -174 -204 -174h-162zM164 1208l268 246h103l182 -246h-96l-140 195l-209 -195h-108z" />
    <glyph glyph-name="Kcommaaccent" unicode="&#x136;" horiz-adv-x="1177" 
d="M205 0l252 1434h92l-119 -676l805 676h133l-852 -715l625 -719h-117l-606 696l-121 -696h-92zM440 -459l121 287h103l-154 -287h-70z" />
    <glyph glyph-name="kcommaaccent" unicode="&#x137;" horiz-adv-x="983" 
d="M195 0l251 1434h93l-156 -881l616 471h131l-671 -508l497 -516h-116l-467 492l-86 -492h-92zM340 -463l121 287h102l-153 -287h-70z" />
    <glyph glyph-name="Lacute" unicode="&#x139;" horiz-adv-x="1075" 
d="M205 0l252 1434h92l-238 -1342h748l-15 -92h-839zM481 1608l217 245h109l-238 -245h-88z" />
    <glyph glyph-name="lacute" unicode="&#x13a;" horiz-adv-x="481" 
d="M195 0l251 1434h93l-252 -1434h-92zM471 1608l217 245h109l-238 -245h-88z" />
    <glyph glyph-name="Lcommaaccent" unicode="&#x13b;" horiz-adv-x="1075" 
d="M205 0l252 1434h92l-238 -1342h748l-15 -92h-839zM461 -459l121 287h102l-154 -287h-69z" />
    <glyph glyph-name="lcommaaccent" unicode="&#x13c;" horiz-adv-x="481" 
d="M195 0l251 1434h93l-252 -1434h-92zM43 -459l121 287h102l-153 -287h-70z" />
    <glyph glyph-name="Lcaron" unicode="&#x13d;" horiz-adv-x="1075" 
d="M205 0l252 1434h92l-238 -1342h748l-15 -92h-839zM645 1147l123 287h106l-157 -287h-72z" />
    <glyph glyph-name="lcaron" unicode="&#x13e;" horiz-adv-x="512" 
d="M195 0l251 1434h93l-252 -1434h-92zM594 1147l123 287h106l-157 -287h-72z" />
    <glyph glyph-name="Ldot" unicode="&#x13f;" horiz-adv-x="1075" 
d="M840 707l20 122h123l-20 -122h-123zM205 0l252 1434h92l-238 -1342h748l-15 -92h-839z" />
    <glyph glyph-name="ldot" unicode="&#x140;" horiz-adv-x="604" 
d="M594 666l20 122h123l-20 -122h-123zM195 0l251 1434h93l-252 -1434h-92z" />
    <glyph glyph-name="Lslash" unicode="&#x141;" horiz-adv-x="1116" 
d="M236 0l112 635l-186 -66l16 97l184 65l125 703h93l-119 -668l383 135l-17 -96l-381 -135l-104 -578h748l-15 -92h-839z" />
    <glyph glyph-name="lslash" unicode="&#x142;" horiz-adv-x="542" 
d="M223 0l117 662l-186 -72l16 96l186 72l119 676h92l-114 -646l188 72l-16 -96l-189 -72l-121 -692h-92z" />
    <glyph glyph-name="Nacute" unicode="&#x143;" horiz-adv-x="1484" 
d="M205 0l252 1434h184l516 -1342h45l238 1342h92l-252 -1434h-184l-518 1341h-46l-235 -1341h-92zM963 1608l217 245h108l-237 -245h-88z" />
    <glyph glyph-name="nacute" unicode="&#x144;" horiz-adv-x="1198" 
d="M184 0l181 1024h71l-8 -164h10q29 51 82 92q108 92 264 92q150 0 251.5 -101t101.5 -265q0 -40 -11 -100l-102 -578h-92l104 586q6 27 6 82q0 128 -77 206t-201 78q-142 0 -248.5 -101.5t-132.5 -246.5l-107 -604h-92zM758 1208l217 246h108l-237 -246h-88z" />
    <glyph glyph-name="Ncommaaccent" unicode="&#x145;" horiz-adv-x="1484" 
d="M205 0l252 1434h184l516 -1342h45l238 1342h92l-252 -1434h-184l-518 1341h-46l-235 -1341h-92zM573 -459l121 287h103l-154 -287h-70z" />
    <glyph glyph-name="ncommaaccent" unicode="&#x146;" horiz-adv-x="1198" 
d="M184 0l181 1024h71l-8 -164h10q29 51 82 92q108 92 264 92q150 0 251.5 -101t101.5 -265q0 -40 -11 -100l-102 -578h-92l104 586q6 27 6 82q0 128 -77 206t-201 78q-142 0 -248.5 -101.5t-132.5 -246.5l-107 -604h-92zM430 -461l121 287h102l-153 -287h-70z" />
    <glyph glyph-name="Ncaron" unicode="&#x147;" horiz-adv-x="1484" 
d="M205 0l252 1434h184l516 -1342h45l238 1342h92l-252 -1434h-184l-518 1341h-46l-235 -1341h-92zM961 1608l-183 245h96l142 -194l207 194h108l-268 -245h-102z" />
    <glyph glyph-name="ncaron" unicode="&#x148;" horiz-adv-x="1198" 
d="M184 0l181 1024h71l-8 -164h10q29 51 82 92q108 92 264 92q150 0 251.5 -101t101.5 -265q0 -40 -11 -100l-102 -578h-92l104 586q6 27 6 82q0 128 -77 206t-201 78q-142 0 -248.5 -101.5t-132.5 -246.5l-107 -604h-92zM752 1217l-183 245h97l141 -194l207 194h108
l-268 -245h-102z" />
    <glyph glyph-name="napostrophe" unicode="&#x149;" horiz-adv-x="1198" 
d="M182 0l180 1024h72l-8 -164h10q29 51 82 92q108 92 264 92q150 0 251.5 -101t101.5 -265q0 -40 -11 -100l-102 -578h-92l104 586q6 27 6 82q0 128 -77 206t-201 78q-142 0 -248.5 -101.5t-132.5 -246.5l-107 -604h-92zM225 1167l123 287h107l-158 -287h-72z" />
    <glyph glyph-name="Eng" unicode="&#x14a;" horiz-adv-x="1484" 
d="M205 0l252 1434h184l516 -1342h45l238 1342h92l-289 -1635q-18 -94 -76 -151.5t-153 -57.5h-185l15 93h170q53 0 90.5 33.5t48.5 88.5l35 195h-92l-518 1341h-46l-235 -1341h-92z" />
    <glyph glyph-name="eng" unicode="&#x14b;" horiz-adv-x="1198" 
d="M184 0l181 1024h71l-8 -164h10q29 51 82 92q108 92 264 92q150 0 251.5 -101t101.5 -265q0 -40 -11 -100l-141 -791q-37 -197 -217 -197h-156l17 93h139q107 0 125 104l143 799q6 27 6 82q0 128 -77 206t-201 78q-142 0 -248.5 -101.5t-132.5 -246.5l-107 -604h-92z" />
    <glyph glyph-name="Omacron" unicode="&#x14c;" horiz-adv-x="1576" 
d="M993 1454q260 0 425 -174t165 -449q0 -187 -65.5 -349.5t-172.5 -270.5t-242.5 -169.5t-277.5 -61.5q-260 0 -424.5 173.5t-164.5 448.5q0 151 42.5 286.5t116 237t169 176.5t206 113.5t223.5 38.5zM983 1362q-121 0 -238 -54t-210 -149t-150 -239t-57 -310
q0 -238 143 -388t365 -150q97 0 192 33.5t178 99t147 155t101 209.5t37 254q0 238 -143 388.5t-365 150.5zM778 1679l17 93h553l-17 -93h-553z" />
    <glyph glyph-name="omacron" unicode="&#x14d;" horiz-adv-x="1146" 
d="M725 1044q186 0 303 -119.5t117 -318.5q0 -140 -46 -260t-122.5 -199t-173.5 -123t-199 -44q-186 0 -303 119.5t-117 318.5q0 140 46 260t122.5 199t173.5 123t199 44zM614 72q83 0 161 35.5t140.5 100.5t100 166t37.5 222q0 163 -94 259.5t-244 96.5q-83 0 -161 -35.5
t-140.5 -100.5t-100 -166t-37.5 -222q0 -163 94 -259.5t244 -96.5zM502 1280l16 92h553l-16 -92h-553z" />
    <glyph glyph-name="Obreve" unicode="&#x14e;" horiz-adv-x="1576" 
d="M993 1454q260 0 425 -174t165 -449q0 -187 -65.5 -349.5t-172.5 -270.5t-242.5 -169.5t-277.5 -61.5q-260 0 -424.5 173.5t-164.5 448.5q0 151 42.5 286.5t116 237t169 176.5t206 113.5t223.5 38.5zM983 1362q-121 0 -238 -54t-210 -149t-150 -239t-57 -310
q0 -238 143 -388t365 -150q97 0 192 33.5t178 99t147 155t101 209.5t37 254q0 238 -143 388.5t-365 150.5zM788 1843h93q13 -143 166 -143q141 0 182 143h94q-23 -108 -101.5 -171.5t-187.5 -63.5q-113 0 -179.5 64.5t-66.5 160.5v10z" />
    <glyph glyph-name="obreve" unicode="&#x14f;" horiz-adv-x="1146" 
d="M725 1044q186 0 303 -119.5t117 -318.5q0 -140 -46 -260t-122.5 -199t-173.5 -123t-199 -44q-186 0 -303 119.5t-117 318.5q0 140 46 260t122.5 199t173.5 123t199 44zM614 72q83 0 161 35.5t140.5 100.5t100 166t37.5 222q0 163 -94 259.5t-244 96.5q-83 0 -161 -35.5
t-140.5 -100.5t-100 -166t-37.5 -222q0 -163 94 -259.5t244 -96.5zM522 1444h92q13 -144 166 -144q74 0 119 39.5t64 104.5h94q-23 -108 -101.5 -172t-187.5 -64q-113 0 -179.5 65t-66.5 161v10z" />
    <glyph glyph-name="Ohungarumlaut" unicode="&#x150;" horiz-adv-x="1576" 
d="M993 1454q260 0 425 -174t165 -449q0 -187 -65.5 -349.5t-172.5 -270.5t-242.5 -169.5t-277.5 -61.5q-260 0 -424.5 173.5t-164.5 448.5q0 151 42.5 286.5t116 237t169 176.5t206 113.5t223.5 38.5zM983 1362q-121 0 -238 -54t-210 -149t-150 -239t-57 -310
q0 -238 143 -388t365 -150q97 0 192 33.5t178 99t147 155t101 209.5t37 254q0 238 -143 388.5t-365 150.5zM850 1608l217 245h109l-238 -245h-88zM1116 1608l217 245h109l-238 -245h-88z" />
    <glyph glyph-name="ohungarumlaut" unicode="&#x151;" horiz-adv-x="1146" 
d="M725 1044q186 0 303 -119.5t117 -318.5q0 -140 -46 -260t-122.5 -199t-173.5 -123t-199 -44q-186 0 -303 119.5t-117 318.5q0 140 46 260t122.5 199t173.5 123t199 44zM614 72q83 0 161 35.5t140.5 100.5t100 166t37.5 222q0 163 -94 259.5t-244 96.5q-83 0 -161 -35.5
t-140.5 -100.5t-100 -166t-37.5 -222q0 -163 94 -259.5t244 -96.5zM594 1208l217 246h109l-238 -246h-88zM860 1208l217 246h109l-238 -246h-88z" />
    <glyph glyph-name="OE" unicode="&#x152;" horiz-adv-x="2326" 
d="M1292 0l47 279h-10q-60 -89 -135 -150q-176 -149 -403 -149q-243 0 -399 162t-156 436q0 161 40.5 302.5t111 245t162.5 178.5t197.5 112.5t213.5 37.5q263 0 413 -194q66 -88 96 -195h11l63 369h891l-16 -93h-799l-100 -573h757l-16 -92h-758l-104 -584h799l-15 -92
h-891zM805 72q93 0 183 32.5t170 98t140.5 156.5t96 217.5t35.5 271.5q0 238 -131.5 376t-346.5 138q-117 0 -227.5 -52.5t-199.5 -148t-143 -245.5t-54 -330q0 -239 130.5 -376.5t346.5 -137.5z" />
    <glyph glyph-name="oe" unicode="&#x153;" horiz-adv-x="1925" 
d="M1751 287h92q-34 -85 -94 -154q-130 -153 -348 -153q-206 0 -314 141q-51 66 -71 143q-43 -79 -107 -143q-141 -141 -329 -141q-172 0 -284 119.5t-112 316.5q0 140 46 260.5t120.5 199.5t167 123.5t187.5 44.5q68 0 127 -19t99.5 -49t72 -69t49 -76.5t26.5 -74.5
q57 119 174 203.5t260 84.5q181 0 294.5 -119.5t113.5 -310.5q0 -45 -8 -102l-6 -41h-826q-2 -23 -2 -51q0 -158 92.5 -253t237.5 -95q156 0 262 106q50 47 80 109zM1100 563h729v31q0 163 -90.5 260.5t-225.5 97.5q-142 0 -257.5 -105.5t-155.5 -283.5zM588 72
q76 0 150.5 36.5t135 101.5t97.5 167t37 223q0 160 -88 256t-224 96q-77 0 -151.5 -36.5t-134.5 -101.5t-97 -167t-37 -223q0 -160 88 -256t224 -96z" />
    <glyph glyph-name="Racute" unicode="&#x154;" horiz-adv-x="1351" 
d="M205 0l252 1434h547q168 0 273 -100t105 -263q0 -219 -135.5 -358.5t-345.5 -139.5h-176l504 -573h-119l-504 573h-209l-100 -573h-92zM414 666h508q160 0 264 110t104 281q0 123 -78.5 203.5t-207.5 80.5h-472zM860 1608l217 245h109l-238 -245h-88z" />
    <glyph glyph-name="racute" unicode="&#x155;" horiz-adv-x="727" 
d="M184 0l181 1024h71l-8 -102h10q19 34 41 51q63 51 166 51h211l-16 -92h-215q-92 0 -149.5 -58t-76.5 -167l-123 -707h-92zM604 1208l217 246h109l-238 -246h-88z" />
    <glyph glyph-name="Rcommaaccent" unicode="&#x156;" horiz-adv-x="1351" 
d="M205 0l252 1434h547q168 0 273 -100t105 -263q0 -219 -135.5 -358.5t-345.5 -139.5h-176l504 -573h-119l-504 573h-209l-100 -573h-92zM414 666h508q160 0 264 110t104 281q0 123 -78.5 203.5t-207.5 80.5h-472zM502 -459l121 287h102l-154 -287h-69z" />
    <glyph glyph-name="rcommaaccent" unicode="&#x157;" horiz-adv-x="727" 
d="M184 0l181 1024h71l-8 -102h10q19 34 41 51q63 51 166 51h211l-16 -92h-215q-92 0 -149.5 -58t-76.5 -167l-123 -707h-92zM41 -461l121 287h102l-153 -287h-70z" />
    <glyph glyph-name="Rcaron" unicode="&#x158;" horiz-adv-x="1351" 
d="M205 0l252 1434h547q168 0 273 -100t105 -263q0 -219 -135.5 -358.5t-345.5 -139.5h-176l504 -573h-119l-504 573h-209l-100 -573h-92zM414 666h508q160 0 264 110t104 281q0 123 -78.5 203.5t-207.5 80.5h-472zM889 1608l-182 245h96l141 -194l207 194h109l-269 -245
h-102z" />
    <glyph glyph-name="rcaron" unicode="&#x159;" horiz-adv-x="727" 
d="M184 0l181 1024h71l-8 -102h10q19 34 41 51q63 51 166 51h211l-16 -92h-215q-92 0 -149.5 -58t-76.5 -167l-123 -707h-92zM582 1208l-183 246h97l141 -194l207 194h108l-268 -246h-102z" />
    <glyph glyph-name="Sacute" unicode="&#x15a;" horiz-adv-x="1280" 
d="M188 420h91q-3 -9 -3 -31q0 -131 113.5 -224t310.5 -93q112 0 196 28t131.5 77t70 107t22.5 126q0 95 -72 159t-212 88l-144 25q-180 31 -273 115.5t-93 218.5q0 193 135.5 315.5t361.5 122.5q230 0 361 -115t131 -284q0 -23 -2 -41h-92q2 14 2 30q0 136 -110 227
t-306 91q-179 0 -284 -92t-105 -246q0 -200 293 -250l141 -24q173 -31 266.5 -114t93.5 -206q0 -97 -31 -177t-94 -142t-165.5 -96.5t-237.5 -34.5q-219 0 -359.5 115t-140.5 274q0 5 4 51zM840 1608l217 245h108l-237 -245h-88z" />
    <glyph glyph-name="sacute" unicode="&#x15b;" horiz-adv-x="962" 
d="M143 297h90v-10q0 -92 86 -153.5t213 -61.5q145 0 216 61.5t71 155.5q0 63 -33 99t-116 54l-211 47q-219 47 -219 228q0 138 99 232.5t275 94.5q162 0 264.5 -80t102.5 -216v-21h-92v16q0 87 -74.5 148t-216.5 61q-131 0 -198.5 -64.5t-67.5 -152.5q0 -61 33.5 -98
t117.5 -55l213 -47q215 -48 215 -226q0 -142 -99.5 -235.5t-289.5 -93.5q-89 0 -162.5 25.5t-120 67.5t-71.5 94.5t-25 108.5v21zM600 1208l217 246h109l-238 -246h-88z" />
    <glyph glyph-name="Scircumflex" unicode="&#x15c;" horiz-adv-x="1280" 
d="M188 420h91q-3 -9 -3 -31q0 -131 113.5 -224t310.5 -93q112 0 196 28t131.5 77t70 107t22.5 126q0 95 -72 159t-212 88l-144 25q-180 31 -273 115.5t-93 218.5q0 193 135.5 315.5t361.5 122.5q230 0 361 -115t131 -284q0 -23 -2 -41h-92q2 14 2 30q0 136 -110 227
t-306 91q-179 0 -284 -92t-105 -246q0 -200 293 -250l141 -24q173 -31 266.5 -114t93.5 -206q0 -97 -31 -177t-94 -142t-165.5 -96.5t-237.5 -34.5q-219 0 -359.5 115t-140.5 274q0 5 4 51zM614 1608l269 245h102l182 -245h-96l-139 194l-209 -194h-109z" />
    <glyph glyph-name="scircumflex" unicode="&#x15d;" horiz-adv-x="962" 
d="M143 297h90v-10q0 -92 86 -153.5t213 -61.5q145 0 216 61.5t71 155.5q0 63 -33 99t-116 54l-211 47q-219 47 -219 228q0 138 99 232.5t275 94.5q162 0 264.5 -80t102.5 -216v-21h-92v16q0 87 -74.5 148t-216.5 61q-131 0 -198.5 -64.5t-67.5 -152.5q0 -61 33.5 -98
t117.5 -55l213 -47q215 -48 215 -226q0 -142 -99.5 -235.5t-289.5 -93.5q-89 0 -162.5 25.5t-120 67.5t-71.5 94.5t-25 108.5v21zM385 1208l268 246h103l182 -246h-96l-140 195l-208 -195h-109z" />
    <glyph glyph-name="Scedilla" unicode="&#x15e;" horiz-adv-x="1280" 
d="M489 -399l13 82h98q39 0 64.5 21t25.5 56q0 27 -23 46.5t-67 19.5h-41l12 72l52 84q-198 20 -318.5 130.5t-120.5 256.5q0 5 4 51h91q-3 -9 -3 -31q0 -131 113.5 -224t310.5 -93q112 0 196 28t131.5 77t70 107t22.5 126q0 95 -72 159t-212 88l-144 25q-180 31 -273 115.5
t-93 218.5q0 193 135.5 315.5t361.5 122.5q230 0 361 -115t131 -284q0 -23 -2 -41h-92q2 14 2 30q0 136 -110 227t-306 91q-179 0 -284 -92t-105 -246q0 -200 293 -250l141 -24q173 -31 266.5 -114t93.5 -206q0 -94 -30 -173t-90 -141t-159 -98t-228 -38l-52 -82
q59 -10 89 -42.5t30 -80.5q0 -75 -49 -124.5t-133 -49.5h-101z" />
    <glyph glyph-name="scedilla" unicode="&#x15f;" horiz-adv-x="962" 
d="M332 -399l12 82h98q39 0 64.5 21t25.5 56q0 27 -23 46.5t-67 19.5h-41l13 72l51 84q-151 17 -236.5 100.5t-85.5 193.5v21h90v-10q0 -92 86 -153.5t213 -61.5q145 0 216 61.5t71 155.5q0 63 -33 99t-116 54l-211 47q-219 47 -219 228q0 138 99 232.5t275 94.5
q162 0 264.5 -80t102.5 -216v-21h-92v16q0 87 -74.5 148t-216.5 61q-131 0 -198.5 -64.5t-67.5 -152.5q0 -61 33.5 -98t117.5 -55l213 -47q215 -48 215 -226q0 -138 -93.5 -230t-270.5 -99l-51 -82q118 -21 118 -123q0 -75 -49 -124.5t-133 -49.5h-100z" />
    <glyph glyph-name="Scaron" unicode="&#x160;" horiz-adv-x="1280" 
d="M188 420h91q-3 -9 -3 -31q0 -131 113.5 -224t310.5 -93q112 0 196 28t131.5 77t70 107t22.5 126q0 95 -72 159t-212 88l-144 25q-180 31 -273 115.5t-93 218.5q0 193 135.5 315.5t361.5 122.5q230 0 361 -115t131 -284q0 -23 -2 -41h-92q2 14 2 30q0 136 -110 227
t-306 91q-179 0 -284 -92t-105 -246q0 -200 293 -250l141 -24q173 -31 266.5 -114t93.5 -206q0 -97 -31 -177t-94 -142t-165.5 -96.5t-237.5 -34.5q-219 0 -359.5 115t-140.5 274q0 5 4 51zM838 1608l-183 245h97l141 -194l207 194h108l-268 -245h-102z" />
    <glyph glyph-name="scaron" unicode="&#x161;" horiz-adv-x="962" 
d="M143 297h90v-10q0 -92 86 -153.5t213 -61.5q145 0 216 61.5t71 155.5q0 63 -33 99t-116 54l-211 47q-219 47 -219 228q0 138 99 232.5t275 94.5q162 0 264.5 -80t102.5 -216v-21h-92v16q0 87 -74.5 148t-216.5 61q-131 0 -198.5 -64.5t-67.5 -152.5q0 -61 33.5 -98
t117.5 -55l213 -47q215 -48 215 -226q0 -142 -99.5 -235.5t-289.5 -93.5q-89 0 -162.5 25.5t-120 67.5t-71.5 94.5t-25 108.5v21zM598 1208l-182 246h96l141 -194l207 194h109l-269 -246h-102z" />
    <glyph glyph-name="uni0162" unicode="&#x162;" horiz-adv-x="1208" 
d="M383 -399l12 82h99q39 0 64.5 21t25.5 56q0 27 -23 46.5t-67 19.5h-41l12 72l67 102h-10l236 1341h-502l16 93h1096l-16 -93h-502l-236 -1341l-67 -102q59 -10 89 -42.5t30 -80.5q0 -74 -49.5 -124t-133.5 -50h-100z" />
    <glyph glyph-name="uni0163" unicode="&#x163;" horiz-adv-x="696" 
d="M229 -399l13 82h98q39 0 64.5 21t25.5 56q0 27 -23 46.5t-67 19.5h-41l12 72l66 104q-127 21 -127 137q0 24 6 49l133 744h-164l17 92h164l49 287h92l-49 -287h266l-16 -92h-267l-133 -746q-4 -28 -4 -36q0 -27 15.5 -42.5t58.5 -15.5h180l-14 -92h-127l-64 -102
q59 -10 89 -42.5t30 -80.5q0 -75 -49 -124.5t-133 -49.5h-101z" />
    <glyph glyph-name="Tcaron" unicode="&#x164;" horiz-adv-x="1208" 
d="M522 0l236 1341h-502l16 93h1096l-16 -93h-502l-236 -1341h-92zM791 1608l-183 245h97l141 -194l207 194h108l-268 -245h-102z" />
    <glyph glyph-name="tcaron" unicode="&#x165;" horiz-adv-x="696" 
d="M256 188l133 744h-164l17 92h164l49 287h92l-49 -287h266l-16 -92h-267l-133 -746q-4 -28 -4 -36q0 -27 15.5 -42.5t58.5 -15.5h180l-14 -92h-166q-168 0 -168 139q0 24 6 49zM737 1147l123 287h107l-158 -287h-72z" />
    <glyph glyph-name="Tbar" unicode="&#x166;" horiz-adv-x="1208" 
d="M522 0l158 901h-338l16 92h338l62 348h-502l16 93h1096l-16 -93h-502l-62 -348h338l-16 -92h-338l-158 -901h-92z" />
    <glyph glyph-name="tbar" unicode="&#x167;" horiz-adv-x="696" 
d="M256 188l59 334h-163l16 92h164l57 318h-164l17 92h164l49 287h92l-49 -287h266l-16 -92h-267l-57 -318h266l-16 -92h-266l-60 -336q-4 -28 -4 -36q0 -27 15.5 -42.5t58.5 -15.5h180l-14 -92h-166q-168 0 -168 139q0 24 6 49z" />
    <glyph glyph-name="Umacron" unicode="&#x16a;" horiz-adv-x="1454" 
d="M289 596l147 838h92l-149 -844q-10 -65 -10 -109q0 -187 115 -298t286 -111q184 0 322.5 126.5t175.5 325.5l162 910h92l-160 -908q-29 -164 -118.5 -289.5t-216.5 -191t-273 -65.5q-205 0 -341.5 136t-136.5 355q0 55 13 125zM725 1679l16 93h553l-16 -93h-553z" />
    <glyph glyph-name="umacron" unicode="&#x16b;" horiz-adv-x="1198" 
d="M252 446l102 578h92l-104 -586q-6 -40 -6 -82q0 -128 77 -206t201 -78q142 0 248.5 101.5t132.5 246.5l107 604h92l-180 -1024h-72l8 164h-10q-35 -54 -82 -92q-112 -92 -264 -92q-150 0 -251 101t-101 265q0 45 10 100zM522 1280l17 92h553l-17 -92h-553z" />
    <glyph glyph-name="Ubreve" unicode="&#x16c;" horiz-adv-x="1454" 
d="M289 596l147 838h92l-149 -844q-10 -65 -10 -109q0 -187 115 -298t286 -111q184 0 322.5 126.5t175.5 325.5l162 910h92l-160 -908q-29 -164 -118.5 -289.5t-216.5 -191t-273 -65.5q-205 0 -341.5 136t-136.5 355q0 55 13 125zM748 1843h92q13 -143 166 -143
q141 0 182 143h94q-23 -108 -101.5 -171.5t-187.5 -63.5q-113 0 -179 64.5t-66 160.5v10z" />
    <glyph glyph-name="ubreve" unicode="&#x16d;" horiz-adv-x="1198" 
d="M252 446l102 578h92l-104 -586q-6 -40 -6 -82q0 -128 77 -206t201 -78q142 0 248.5 101.5t132.5 246.5l107 604h92l-180 -1024h-72l8 164h-10q-35 -54 -82 -92q-112 -92 -264 -92q-150 0 -251 101t-101 265q0 45 10 100zM543 1444h92q13 -144 166 -144q74 0 118.5 39.5
t63.5 104.5h94q-23 -108 -101.5 -172t-187.5 -64q-113 0 -179 65t-66 161v10z" />
    <glyph glyph-name="Uring" unicode="&#x16e;" horiz-adv-x="1454" 
d="M289 596l147 838h92l-149 -844q-10 -65 -10 -109q0 -187 115 -298t286 -111q184 0 322.5 126.5t175.5 325.5l162 910h92l-160 -908q-29 -164 -118.5 -289.5t-216.5 -191t-273 -65.5q-205 0 -341.5 136t-136.5 355q0 55 13 125zM829 1731q0 77 58 135.5t137 58.5
q70 0 114 -45.5t44 -107.5q0 -77 -58 -136t-137 -59q-70 0 -114 46t-44 108zM911 1737q0 -36 22.5 -57t65.5 -21q46 0 73.5 31t27.5 75q0 36 -22.5 57t-65.5 21q-46 0 -73.5 -31t-27.5 -75z" />
    <glyph glyph-name="uring" unicode="&#x16f;" horiz-adv-x="1198" 
d="M252 446l102 578h92l-104 -586q-6 -40 -6 -82q0 -128 77 -206t201 -78q142 0 248.5 101.5t132.5 246.5l107 604h92l-180 -1024h-72l8 164h-10q-35 -54 -82 -92q-112 -92 -264 -92q-150 0 -251 101t-101 265q0 45 10 100zM625 1331q0 77 57.5 136t136.5 59q70 0 114 -46
t44 -108q0 -77 -58 -135.5t-137 -58.5q-70 0 -113.5 45.5t-43.5 107.5zM707 1337q0 -36 22.5 -56.5t65.5 -20.5q46 0 73 30.5t27 75.5q0 36 -22.5 57t-65.5 21q-46 0 -73 -31t-27 -76z" />
    <glyph glyph-name="Uhungarumlaut" unicode="&#x170;" horiz-adv-x="1454" 
d="M289 596l147 838h92l-149 -844q-10 -65 -10 -109q0 -187 115 -298t286 -111q184 0 322.5 126.5t175.5 325.5l162 910h92l-160 -908q-29 -164 -118.5 -289.5t-216.5 -191t-273 -65.5q-205 0 -341.5 136t-136.5 355q0 55 13 125zM778 1608l217 245h109l-238 -245h-88z
M1044 1608l218 245h108l-237 -245h-89z" />
    <glyph glyph-name="uhungarumlaut" unicode="&#x171;" horiz-adv-x="1198" 
d="M252 446l102 578h92l-104 -586q-6 -40 -6 -82q0 -128 77 -206t201 -78q142 0 248.5 101.5t132.5 246.5l107 604h92l-180 -1024h-72l8 164h-10q-35 -54 -82 -92q-112 -92 -264 -92q-150 0 -251 101t-101 265q0 45 10 100zM604 1208l217 246h109l-238 -246h-88zM870 1208
l217 246h109l-238 -246h-88z" />
    <glyph glyph-name="Uogonek" unicode="&#x172;" horiz-adv-x="1454" 
d="M797 -317h-25q-76 0 -117 36t-41 97q0 103 109 164q-194 12 -320.5 145.5t-126.5 345.5q0 55 13 125l147 838h92l-149 -844q-10 -65 -10 -109q0 -187 115 -298t286 -111q184 0 322.5 126.5t175.5 325.5l162 910h92l-160 -908q-40 -228 -192 -374.5t-353 -167.5
q-61 -32 -89 -64.5t-28 -83.5q0 -72 93 -72h18z" />
    <glyph glyph-name="uogonek" unicode="&#x173;" horiz-adv-x="1198" 
d="M956 -317h-24q-76 0 -117 36t-41 97q0 70 50.5 116.5t117.5 67.5l8 164h-10q-35 -54 -82 -92q-112 -92 -264 -92q-150 0 -251 101t-101 265q0 45 10 100l102 578h92l-104 -586q-6 -40 -6 -82q0 -128 77 -206t201 -78q142 0 248.5 101.5t132.5 246.5l107 604h92
l-180 -1024q-80 -36 -117 -71.5t-37 -92.5q0 -72 92 -72h19z" />
    <glyph glyph-name="Wcircumflex" unicode="&#x174;" horiz-adv-x="1884" 
d="M383 0l-107 1434h89l96 -1342h45l575 1342h164l101 -1342h45l571 1342h96l-610 -1434h-176l-103 1341h-41l-573 -1341h-172zM901 1608l268 245h103l182 -245h-96l-139 194l-209 -194h-109z" />
    <glyph glyph-name="wcircumflex" unicode="&#x175;" horiz-adv-x="1495" 
d="M309 0l-96 1024h88l82 -922h41l399 922h164l72 -922h41l409 922h97l-457 -1024h-164l-74 922h-41l-397 -922h-164zM635 1208l268 246h103l182 -246h-96l-140 195l-209 -195h-108z" />
    <glyph glyph-name="Ycircumflex" unicode="&#x176;" horiz-adv-x="1198" 
d="M522 0l92 532l-372 902h94l315 -768h51l586 768h111l-692 -902l-93 -532h-92zM553 1608l268 245h103l182 -245h-96l-140 194l-208 -194h-109z" />
    <glyph glyph-name="ycircumflex" unicode="&#x177;" horiz-adv-x="942" 
d="M31 -410l16 93h160q38 0 59 16t47 65l95 181l-215 1079h88l178 -901h41l477 901h96l-692 -1311q-35 -67 -73 -95t-111 -28h-166zM362 1208l269 246h102l182 -246h-96l-139 195l-209 -195h-109z" />
    <glyph glyph-name="Ydieresis" unicode="&#x178;" horiz-adv-x="1198" 
d="M522 0l92 532l-372 902h94l315 -768h51l586 768h111l-692 -902l-93 -532h-92zM614 1690l19 112h112l-18 -112h-113zM963 1690l18 112h113l-19 -112h-112z" />
    <glyph glyph-name="Zacute" unicode="&#x179;" horiz-adv-x="1187" 
d="M102 0l15 82l1073 1259h-842l17 93h962l-14 -82l-1075 -1260h862l-15 -92h-983zM778 1608l217 245h109l-238 -245h-88z" />
    <glyph glyph-name="zacute" unicode="&#x17a;" horiz-adv-x="880" 
d="M72 0l12 72l745 860h-583l16 92h717l-14 -72l-746 -860h604l-14 -92h-737zM584 1208l217 246h108l-237 -246h-88z" />
    <glyph glyph-name="Zdotaccent" unicode="&#x17b;" horiz-adv-x="1187" 
d="M102 0l15 82l1073 1259h-842l17 93h962l-14 -82l-1075 -1260h862l-15 -92h-983zM797 1690l18 112h113l-19 -112h-112z" />
    <glyph glyph-name="zdotaccent" unicode="&#x17c;" horiz-adv-x="880" 
d="M72 0l12 72l745 860h-583l16 92h717l-14 -72l-746 -860h604l-14 -92h-737zM584 1290l18 113h113l-19 -113h-112z" />
    <glyph glyph-name="Zcaron" unicode="&#x17d;" horiz-adv-x="1187" 
d="M102 0l15 82l1073 1259h-842l17 93h962l-14 -82l-1075 -1260h862l-15 -92h-983zM807 1608l-182 245h96l141 -194l207 194h109l-269 -245h-102z" />
    <glyph glyph-name="zcaron" unicode="&#x17e;" horiz-adv-x="880" 
d="M72 0l12 72l745 860h-583l16 92h717l-14 -72l-746 -860h604l-14 -92h-737zM592 1208l-182 246h96l141 -194l207 194h109l-269 -246h-102z" />
    <glyph glyph-name="uni018F" unicode="&#x18f;" horiz-adv-x="1566" 
d="M250 709l8 49h1219q4 15 4 61q0 241 -139.5 392t-370.5 151q-179 0 -327.5 -99.5t-229.5 -258.5h-99q92 196 267.5 323t398.5 127q259 0 425.5 -174.5t166.5 -448.5q0 -149 -42.5 -284.5t-116 -237t-169 -177t-205 -114t-219.5 -38.5q-124 0 -232 46t-184 126t-119.5 193
t-43.5 243q0 88 8 121zM1466 666h-1120q-4 -36 -4 -70q0 -118 39.5 -217.5t106 -166t155.5 -103.5t188 -37q220 0 399.5 164t235.5 430z" />
    <glyph glyph-name="florin" unicode="&#x192;" horiz-adv-x="757" 
d="M-113 -410l29 93h131q87 0 109 81l290 973h-194l29 92h194l117 400q26 90 70.5 127t140.5 37h162l-29 -93h-143q-87 0 -109 -81l-117 -390h226l-29 -92h-225l-291 -983q-26 -90 -71 -127t-140 -37h-150z" />
    <glyph glyph-name="Aringacute" unicode="&#x1fa;" horiz-adv-x="1269" 
d="M967 1864l96 123h92l-121 -138q37 -18 60.5 -54t23.5 -81q0 -79 -56 -138.5t-134 -59.5q-75 0 -117.5 42.5t-42.5 106.5q0 74 55.5 136.5t143.5 62.5zM850 1673q0 -33 22 -54.5t64 -21.5q46 0 73 31.5t27 77.5q0 33 -22 54.5t-64 21.5q-46 0 -73 -31.5t-27 -77.5zM41 0
l795 1434h143l291 -1434h-88l-82 399h-742l-221 -399h-96zM408 492h675l-170 839h-41z" />
    <glyph glyph-name="aringacute" unicode="&#x1fb;" horiz-adv-x="1095" 
d="M813 1495l96 123h99l-127 -139q37 -18 60.5 -54t23.5 -82q0 -78 -56.5 -137t-134.5 -59q-75 0 -117.5 44t-42.5 109q0 74 56 134.5t143 60.5zM797 1413q-46 0 -73.5 -31t-27.5 -77q0 -33 22 -54.5t64 -21.5q46 0 73.5 31t27.5 77q0 33 -22 54.5t-64 21.5zM862 0l10 184
h-10q-26 -51 -84 -102q-118 -102 -284 -102q-143 0 -229.5 78t-86.5 192q0 163 105.5 258.5t302.5 95.5h360l6 37q9 41 9 80q0 108 -69.5 169.5t-211.5 61.5q-233 0 -299 -225h-94q89 317 409 317q169 0 264 -83t95 -224q0 -47 -11 -104l-110 -633h-72zM922 461l10 51h-367
q-143 0 -219 -67t-76 -177q0 -82 60.5 -139t163.5 -57q160 0 275.5 105.5t152.5 283.5z" />
    <glyph glyph-name="AEacute" unicode="&#x1fc;" horiz-adv-x="1914" 
d="M10 0l877 1434h1136l-16 -93h-799l-100 -573h758l-17 -92h-757l-105 -584h799l-14 -92h-891l73 420h-589l-259 -420h-96zM422 512h549l145 829h-190zM1167 1608l217 245h109l-238 -245h-88z" />
    <glyph glyph-name="aeacute" unicode="&#x1fd;" horiz-adv-x="1857" 
d="M381 727h-90q39 152 141.5 234.5t265.5 82.5q188 0 287 -124q40 -52 55 -123q38 67 101 123q134 124 307 124q180 0 293.5 -119t113.5 -311q0 -45 -8 -102l-6 -41h-825q-2 -23 -2 -51q0 -158 92 -253t237 -95q157 0 263 106q50 47 80 109h92q-34 -83 -95 -154
q-130 -153 -348 -153q-207 0 -315 145q-50 65 -70 145q-38 -83 -100 -145q-141 -145 -354 -145q-143 0 -230.5 72.5t-87.5 180.5q0 147 99 238.5t290 91.5h375l14 76q9 38 9 80q0 108 -70.5 170.5t-212.5 62.5q-120 0 -195 -60t-106 -165zM924 461l2 10h-369
q-287 0 -287 -219q0 -82 64 -131t172 -49q164 0 270.5 97t147.5 292zM1034 563h729v31q0 163 -90 260.5t-225 97.5q-143 0 -258.5 -105.5t-155.5 -283.5zM1044 1208l218 246h108l-237 -246h-89z" />
    <glyph glyph-name="Oslashacute" unicode="&#x1fe;" horiz-adv-x="1576" 
d="M489 201l764 1087q-120 74 -270 74q-121 0 -238 -54t-210 -149t-150 -239t-57 -310q0 -260 161 -409zM299 -72l135 193q-198 179 -198 481q0 151 42.5 286.5t116 237t169 176.5t206 113.5t223.5 38.5q180 0 318 -86l96 137h113l-136 -192q199 -180 199 -482
q0 -187 -65.5 -349.5t-172.5 -270.5t-242.5 -169.5t-277.5 -61.5q-178 0 -317 86l-96 -138h-113zM1329 1233l-764 -1088q118 -73 271 -73q97 0 192 33.5t178 99t147 155t101 209.5t37 254q0 260 -162 410zM993 1608l217 245h109l-238 -245h-88z" />
    <glyph glyph-name="oslashacute" unicode="&#x1ff;" horiz-adv-x="1146" 
d="M197 -72l114 162q-127 121 -127 328q0 140 46 260t122.5 199t173.5 123t199 44q130 0 225 -59l78 111h105l-115 -162q127 -127 127 -328q0 -140 -46 -260t-122.5 -199t-173.5 -123t-199 -44q-130 0 -225 59l-78 -111h-104zM369 170l524 737q-77 45 -178 45
q-83 0 -161 -35.5t-140.5 -100.5t-100 -166t-37.5 -222q0 -162 93 -258zM961 854l-525 -737q77 -45 178 -45q83 0 161 35.5t140.5 100.5t100 166t37.5 222q0 163 -92 258zM727 1208l217 246h109l-238 -246h-88z" />
    <glyph glyph-name="Scommaaccent" unicode="&#x218;" horiz-adv-x="1280" 
d="M188 420h91q-3 -9 -3 -31q0 -131 113.5 -224t310.5 -93q112 0 196 28t131.5 77t70 107t22.5 126q0 95 -72 159t-212 88l-144 25q-180 31 -273 115.5t-93 218.5q0 193 135.5 315.5t361.5 122.5q230 0 361 -115t131 -284q0 -23 -2 -41h-92q2 14 2 30q0 136 -110 227
t-306 91q-179 0 -284 -92t-105 -246q0 -200 293 -250l141 -24q173 -31 266.5 -114t93.5 -206q0 -97 -31 -177t-94 -142t-165.5 -96.5t-237.5 -34.5q-219 0 -359.5 115t-140.5 274q0 5 4 51zM481 -461l121 287h103l-154 -287h-70z" />
    <glyph glyph-name="scommaaccent" unicode="&#x219;" horiz-adv-x="962" 
d="M143 297h90v-10q0 -92 86 -153.5t213 -61.5q145 0 216 61.5t71 155.5q0 63 -33 99t-116 54l-211 47q-219 47 -219 228q0 138 99 232.5t275 94.5q162 0 264.5 -80t102.5 -216v-21h-92v16q0 87 -74.5 148t-216.5 61q-131 0 -198.5 -64.5t-67.5 -152.5q0 -61 33.5 -98
t117.5 -55l213 -47q215 -48 215 -226q0 -142 -99.5 -235.5t-289.5 -93.5q-89 0 -162.5 25.5t-120 67.5t-71.5 94.5t-25 108.5v21zM317 -459l121 287h103l-154 -287h-70z" />
    <glyph glyph-name="uni021A" unicode="&#x21a;" horiz-adv-x="1208" 
d="M522 0l236 1341h-502l16 93h1096l-16 -93h-502l-236 -1341h-92zM369 -459l120 287h103l-154 -287h-69z" />
    <glyph glyph-name="uni021B" unicode="&#x21b;" horiz-adv-x="696" 
d="M256 188l133 744h-164l17 92h164l49 287h92l-49 -287h266l-16 -92h-267l-133 -746q-4 -28 -4 -36q0 -27 15.5 -42.5t58.5 -15.5h180l-14 -92h-166q-168 0 -168 139q0 24 6 49zM215 -461l121 287h102l-153 -287h-70z" />
    <glyph glyph-name="uni0232" unicode="&#x232;" horiz-adv-x="1198" 
d="M522 0l92 532l-372 902h94l315 -768h51l586 768h111l-692 -902l-93 -532h-92zM563 1679l17 93h553l-17 -93h-553z" />
    <glyph glyph-name="uni0233" unicode="&#x233;" horiz-adv-x="942" 
d="M31 -410l16 93h160q38 0 59 16t47 65l95 181l-215 1079h88l178 -901h41l477 901h96l-692 -1311q-35 -67 -73 -95t-111 -28h-166zM367 1280l16 92h553l-16 -92h-553z" />
    <glyph glyph-name="uni0244" unicode="&#x244;" horiz-adv-x="1474" 
d="M295 596l53 305h-164l17 92h164l77 441h93l-78 -441h901l78 441h92l-78 -441h164l-17 -92h-163l-66 -375q-29 -164 -118.5 -289.5t-216.5 -191t-273 -65.5q-205 0 -341 136t-136 355q0 61 12 125zM440 901l-55 -311q-10 -65 -10 -109q0 -187 115 -298t286 -111
q184 0 322.5 126.5t175.5 325.5l67 377h-901z" />
    <glyph glyph-name="uni0259" unicode="&#x259;" horiz-adv-x="1146" 
d="M195 512l6 41h852v39q0 170 -92 265t-248 95q-159 0 -271 -108q-44 -39 -84 -107h-92q43 92 103 154q145 153 352 153q191 0 307.5 -117.5t116.5 -318.5q0 -141 -46 -261.5t-121.5 -199.5t-172 -123t-199.5 -44q-186 0 -302 119t-116 315q0 62 7 98zM1038 461h-759v-31
q0 -165 93.5 -261.5t248.5 -96.5q86 0 159.5 34t124.5 91t84.5 124t48.5 140z" />
    <glyph glyph-name="uni0289" unicode="&#x289;" horiz-adv-x="1187" 
d="M236 446l40 230h-133l17 92h133l45 256h92l-45 -256h655l45 256h93l-45 -256h133l-17 -92h-133l-119 -676h-71l8 164h-10q-35 -54 -82 -92q-112 -92 -264 -92q-150 0 -251.5 101t-101.5 265q0 40 11 100zM369 676l-43 -238q-7 -47 -7 -82q0 -128 77.5 -206t201.5 -78
q142 0 248.5 101.5t132.5 246.5l45 256h-655z" />
    <glyph glyph-name="uni02BC" unicode="&#x2bc;" horiz-adv-x="296" 
d="M256 1147l123 287h106l-157 -287h-72z" />
    <glyph glyph-name="circumflex" unicode="&#x2c6;" horiz-adv-x="675" 
d="M256 1229l268 246h103l182 -246h-96l-140 194l-208 -194h-109z" />
    <glyph glyph-name="caron" unicode="&#x2c7;" horiz-adv-x="675" 
d="M438 1229l-182 246h96l142 -195l206 195h109l-268 -246h-103z" />
    <glyph glyph-name="breve" unicode="&#x2d8;" horiz-adv-x="655" 
d="M256 1444h92q13 -144 166 -144q74 0 118.5 39.5t63.5 104.5h95q-23 -108 -101.5 -172t-187.5 -64q-113 0 -179.5 65t-66.5 161v10z" />
    <glyph glyph-name="dotaccent" unicode="&#x2d9;" horiz-adv-x="235" 
d="M256 1290l18 113h113l-18 -113h-113z" />
    <glyph glyph-name="ring" unicode="&#x2da;" horiz-adv-x="471" 
d="M256 1362q0 77 58 135.5t137 58.5q70 0 113.5 -45.5t43.5 -107.5q0 -77 -57.5 -136t-136.5 -59q-70 0 -114 46t-44 108zM338 1368q0 -36 22.5 -57t65.5 -21q46 0 73 31t27 76q0 36 -22.5 57t-65.5 21q-46 0 -73 -31t-27 -76z" />
    <glyph glyph-name="ogonek" unicode="&#x2db;" horiz-adv-x="327" 
d="M182 -317h-24q-76 0 -117 36t-41 97q0 71 47 117t111 67l2 20h82l-2 -20q-80 -36 -117 -71.5t-37 -92.5q0 -72 92 -72h19z" />
    <glyph glyph-name="tilde" unicode="&#x2dc;" horiz-adv-x="727" 
d="M348 1239h-92q13 86 67.5 135t133.5 49q48 0 91.5 -23t81.5 -46t72 -23q84 0 99 92h92q-13 -86 -67.5 -135t-133.5 -49q-48 0 -91.5 23t-82 46t-72.5 23q-83 0 -98 -92z" />
    <glyph glyph-name="hungarumlaut" unicode="&#x2dd;" horiz-adv-x="665" 
d="M256 1229l217 246h109l-238 -246h-88zM522 1229l217 246h109l-238 -246h-88z" />
    <glyph glyph-name="acutecomb" unicode="&#x301;" horiz-adv-x="0" 
d="M-522 1618l217 246h102l-237 -246h-82z" />
    <glyph glyph-name="uni0302" unicode="&#x302;" horiz-adv-x="0" 
d="M-737 1618l268 246h102l183 -246h-97l-141 194l-207 -194h-108z" />
    <glyph glyph-name="uni0304" unicode="&#x304;" horiz-adv-x="0" 
d="M-737 1690l16 92h553l-16 -92h-553z" />
    <glyph glyph-name="uni0306" unicode="&#x306;" horiz-adv-x="0" 
d="M-717 1843h92q13 -143 166 -143q74 0 119 39t64 104h94q-23 -108 -101.5 -171.5t-187.5 -63.5q-113 0 -179.5 64.5t-66.5 160.5v10z" />
    <glyph glyph-name="uni0307" unicode="&#x307;" horiz-adv-x="0" 
d="M-512 1690l20 112h113l-20 -112h-113z" />
    <glyph glyph-name="uni0308" unicode="&#x308;" horiz-adv-x="0" 
d="M-696 1690l20 112h113l-21 -112h-112zM-348 1690l20 112h113l-21 -112h-112z" />
    <glyph glyph-name="uni030A" unicode="&#x30a;" horiz-adv-x="0" 
d="M-635 1772q0 77 58 135.5t137 58.5q70 0 113.5 -45.5t43.5 -108.5q0 -77 -57.5 -135.5t-136.5 -58.5q-70 0 -114 46t-44 108zM-553 1778q0 -36 22.5 -57t65.5 -21q46 0 73 30.5t27 75.5q0 36 -22.5 57t-65.5 21q-46 0 -73 -30.5t-27 -75.5z" />
    <glyph glyph-name="uni030C" unicode="&#x30c;" horiz-adv-x="0" 
d="M-535 1618l-182 246h96l142 -195l207 195h108l-268 -246h-103z" />
    <glyph glyph-name="uni0326" unicode="&#x326;" horiz-adv-x="296" 
d="M-41 -481l121 286h102l-153 -286h-70z" />
    <glyph glyph-name="uni0400" unicode="&#x400;" horiz-adv-x="1239" 
d="M205 0l252 1434h891l-17 -93h-799l-100 -573h758l-16 -92h-758l-105 -584h799l-14 -92h-891zM889 1608l-152 245h103l131 -245h-82z" />
    <glyph glyph-name="uni0401" unicode="&#x401;" horiz-adv-x="1239" 
d="M205 0l252 1434h891l-17 -93h-799l-100 -573h758l-16 -92h-758l-105 -584h799l-14 -92h-891zM705 1690l18 112h113l-19 -112h-112zM1053 1690l18 112h113l-19 -112h-112z" />
    <glyph glyph-name="uni0402" unicode="&#x402;" horiz-adv-x="1413" 
d="M369 0l235 1341h-399l16 93h891l-16 -93h-400l-92 -522q37 26 76 41q91 41 227 41q205 0 327 -112t122 -281q0 -141 -64.5 -256.5t-183.5 -183.5t-268 -68h-133l14 92h119q182 0 303 116t121 284q0 142 -99 229.5t-274 87.5q-142 0 -229 -41q-42 -16 -74 -41l-127 -727
h-92z" />
    <glyph glyph-name="uni0403" unicode="&#x403;" horiz-adv-x="1116" 
d="M205 0l252 1434h850l-17 -93h-758l-235 -1341h-92zM840 1608l217 245h108l-237 -245h-88z" />
    <glyph glyph-name="uni0404" unicode="&#x404;" horiz-adv-x="1536" 
d="M340 768h768l-16 -92h-762q-2 -23 -2 -68q0 -243 143.5 -389.5t372.5 -146.5q252 0 438 198q80 86 133 201h101q-62 -139 -160 -246q-93 -107 -226 -176t-299 -69q-261 0 -428 171t-167 447q0 125 29.5 241.5t82 209.5t124 169.5t155 128t177 79.5t187.5 28
q313 0 477 -242q73 -112 99 -239h-92q-27 108 -89 194q-143 195 -401 195q-146 0 -280.5 -71t-233.5 -208.5t-131 -314.5z" />
    <glyph glyph-name="uni0405" unicode="&#x405;" horiz-adv-x="1280" 
d="M188 420h91q-3 -9 -3 -31q0 -131 113.5 -224t310.5 -93q112 0 196 28t131.5 77t70 107t22.5 126q0 95 -72 159t-212 88l-144 25q-180 31 -273 115.5t-93 218.5q0 193 135.5 315.5t361.5 122.5q230 0 361 -115t131 -284q0 -23 -2 -41h-92q2 14 2 30q0 136 -110 227
t-306 91q-179 0 -284 -92t-105 -246q0 -200 293 -250l141 -24q173 -31 266.5 -114t93.5 -206q0 -97 -31 -177t-94 -142t-165.5 -96.5t-237.5 -34.5q-219 0 -359.5 115t-140.5 274q0 5 4 51z" />
    <glyph glyph-name="uni0406" unicode="&#x406;" horiz-adv-x="501" 
d="M205 0l252 1434h92l-252 -1434h-92z" />
    <glyph glyph-name="uni0407" unicode="&#x407;" horiz-adv-x="501" 
d="M205 0l252 1434h92l-252 -1434h-92zM317 1690l19 112h113l-19 -112h-113zM666 1690l18 112h113l-19 -112h-112z" />
    <glyph glyph-name="uni0408" unicode="&#x408;" horiz-adv-x="808" 
d="M41 0l14 92h365q53 0 90.5 34t48.5 89l215 1219h92l-217 -1225q-18 -94 -76 -151.5t-153 -57.5h-379z" />
    <glyph glyph-name="uni0409" unicode="&#x409;" horiz-adv-x="2109" 
d="M10 -10l17 92h57q90 0 143 51t80 154l305 1147h799l-104 -594h426q160 0 259 -96.5t99 -249.5q0 -113 -37 -207t-99.5 -156t-143.5 -96.5t-171 -34.5h-573l236 1341h-625l-279 -1054q-42 -160 -118 -228.5t-207 -68.5h-64zM1174 92h477q154 0 251 106t97 277
q0 126 -70.5 199.5t-206.5 73.5h-432z" />
    <glyph glyph-name="uni040A" unicode="&#x40a;" horiz-adv-x="2140" 
d="M205 0l252 1434h92l-113 -635h799l113 635h92l-113 -635h445q162 0 253 -92.5t91 -237.5q0 -211 -122.5 -340t-303.5 -129h-594l123 707h-799l-123 -707h-92zM1202 92h498q141 0 232 100t91 263q0 116 -67 184t-184 68h-461z" />
    <glyph glyph-name="uni040B" unicode="&#x40b;" horiz-adv-x="1433" 
d="M369 0l235 1341h-399l16 93h891l-16 -93h-400l-92 -522q37 26 76 41q91 41 227 41q99 0 180 -30.5t134 -83.5t81.5 -122t28.5 -147q0 -52 -8 -88l-74 -430h-92l76 438q6 23 6 70q0 127 -90 214t-258 87q-142 0 -229 -41q-38 -16 -74 -41l-127 -727h-92z" />
    <glyph glyph-name="uni040C" unicode="&#x40c;" horiz-adv-x="1177" 
d="M205 0l252 1434h92l-119 -676l805 676h133l-852 -715l625 -719h-117l-606 696l-121 -696h-92zM840 1608l217 245h108l-237 -245h-88z" />
    <glyph glyph-name="uni040D" unicode="&#x40d;" horiz-adv-x="1495" 
d="M205 0l252 1434h92l-238 -1342h35l1012 1342h184l-252 -1434h-92l236 1341h-35l-1010 -1341h-184zM961 1608l-152 245h102l131 -245h-81z" />
    <glyph glyph-name="uni040E" unicode="&#x40e;" horiz-adv-x="1208" 
d="M178 0l15 92h167q51 0 75.5 15.5t51.5 56.5l103 168l-324 1102h96l283 -953h45l596 953h107l-828 -1321q-36 -59 -75.5 -86t-116.5 -27h-195zM594 1843h92q13 -143 166 -143q141 0 182 143h94q-23 -108 -101 -171.5t-187 -63.5q-113 0 -179.5 64.5t-66.5 160.5v10z" />
    <glyph glyph-name="uni040F" unicode="&#x40f;" horiz-adv-x="1464" 
d="M205 0l252 1434h92l-238 -1344h871l237 1344h92l-251 -1434h-482l-51 -287h-92l51 287h-481z" />
    <glyph glyph-name="uni0410" unicode="&#x410;" horiz-adv-x="1269" 
d="M41 0l795 1434h143l291 -1434h-88l-82 399h-742l-221 -399h-96zM408 492h675l-170 839h-41z" />
    <glyph glyph-name="uni0411" unicode="&#x411;" horiz-adv-x="1310" 
d="M205 0l252 1434h921l-16 -93h-830l-92 -522h482q160 0 258 -95.5t98 -246.5q0 -214 -129.5 -345.5t-319.5 -131.5h-624zM311 92h529q145 0 245.5 99t100.5 270q0 120 -74.5 193t-210.5 73h-477z" />
    <glyph glyph-name="uni0412" unicode="&#x412;" horiz-adv-x="1310" 
d="M205 0l252 1434h526q163 0 264 -95t101 -233q0 -195 -136 -309q-58 -52 -135 -76l-2 -10q49 -21 86 -58q88 -84 88 -215q0 -199 -121 -318.5t-309 -119.5h-614zM432 768h490q147 0 239 94.5t92 224.5q0 107 -76.5 180.5t-203.5 73.5h-441zM311 92h508q154 0 246 92
t92 246q0 112 -73.5 179t-202.5 67h-465z" />
    <glyph glyph-name="uni0413" unicode="&#x413;" horiz-adv-x="1116" 
d="M205 0l252 1434h850l-17 -93h-758l-235 -1341h-92z" />
    <glyph glyph-name="uni0414" unicode="&#x414;" horiz-adv-x="1372" 
d="M-41 -297l66 389q108 0 164.5 47.5t86.5 157.5l304 1137h829l-238 -1342h154l-68 -389h-92l54 297h-1117l-53 -297h-90zM240 92h839l221 1249h-655l-276 -1044q-31 -110 -82 -168q-21 -24 -47 -37z" />
    <glyph glyph-name="uni0415" unicode="&#x415;" horiz-adv-x="1239" 
d="M205 0l252 1434h891l-17 -93h-799l-100 -573h758l-16 -92h-758l-105 -584h799l-14 -92h-891z" />
    <glyph glyph-name="uni0416" unicode="&#x416;" horiz-adv-x="1628" 
d="M6 0l785 739l-472 695h115l463 -686l121 686h92l-121 -686l705 686h131l-738 -715l512 -719h-116l-502 707l-123 -707h-92l123 707l-748 -707h-135z" />
    <glyph glyph-name="uni0417" unicode="&#x417;" horiz-adv-x="1239" 
d="M166 389h92q-2 -14 -2 -29q0 -122 107 -205t292 -83q104 0 187.5 28t136 75.5t80.5 109t28 129.5q0 114 -86 188t-223 74h-157l16 92h213q137 0 230.5 91t93.5 216q0 127 -95.5 207t-267.5 80q-171 0 -273.5 -82t-125.5 -236h-93q29 190 157.5 300t350.5 110
q194 0 316.5 -101t122.5 -270q0 -59 -15 -111.5t-39 -89t-54 -66.5t-59.5 -48.5t-54.5 -31t-40.5 -17.5t-16.5 -4l-2 -10q55 -22 96 -60q99 -95 99 -233q0 -90 -35.5 -168t-100.5 -137t-165.5 -93t-223.5 -34q-233 0 -362 101.5t-129 266.5q0 18 2 41z" />
    <glyph glyph-name="uni0418" unicode="&#x418;" horiz-adv-x="1495" 
d="M205 0l252 1434h92l-238 -1342h35l1012 1342h184l-252 -1434h-92l236 1341h-35l-1010 -1341h-184z" />
    <glyph glyph-name="uni0419" unicode="&#x419;" horiz-adv-x="1495" 
d="M205 0l252 1434h92l-238 -1342h35l1012 1342h184l-252 -1434h-92l236 1341h-35l-1010 -1341h-184zM768 1843h92q13 -143 166 -143q141 0 182 143h95q-23 -108 -101.5 -171.5t-187.5 -63.5q-113 0 -179.5 64.5t-66.5 160.5v10z" />
    <glyph glyph-name="uni041A" unicode="&#x41a;" horiz-adv-x="1177" 
d="M205 0l252 1434h92l-119 -676l805 676h133l-852 -715l625 -719h-117l-606 696l-121 -696h-92z" />
    <glyph glyph-name="uni041B" unicode="&#x41b;" horiz-adv-x="1394" 
d="M10 -10l17 92h57q90 0 143 51t80 154l305 1147h830l-252 -1434h-92l235 1341h-655l-279 -1054q-42 -160 -118 -228.5t-207 -68.5h-64z" />
    <glyph glyph-name="uni041C" unicode="&#x41c;" horiz-adv-x="1853" 
d="M205 0l252 1434h190l275 -1342h30l750 1342h199l-252 -1434h-93l236 1341h-41l-747 -1341h-154l-277 1341h-41l-235 -1341h-92z" />
    <glyph glyph-name="uni041D" unicode="&#x41d;" horiz-adv-x="1484" 
d="M205 0l252 1434h92l-115 -656h891l115 656h92l-252 -1434h-92l121 686h-891l-121 -686h-92z" />
    <glyph glyph-name="uni041E" unicode="&#x41e;" horiz-adv-x="1576" 
d="M993 1454q260 0 425 -174t165 -449q0 -187 -65.5 -349.5t-172.5 -270.5t-242.5 -169.5t-277.5 -61.5q-260 0 -424.5 173.5t-164.5 448.5q0 151 42.5 286.5t116 237t169 176.5t206 113.5t223.5 38.5zM983 1362q-121 0 -238 -54t-210 -149t-150 -239t-57 -310
q0 -238 143 -388t365 -150q97 0 192 33.5t178 99t147 155t101 209.5t37 254q0 238 -143 388.5t-365 150.5z" />
    <glyph glyph-name="uni041F" unicode="&#x41f;" horiz-adv-x="1495" 
d="M205 0l252 1434h1085l-252 -1434h-92l236 1341h-902l-235 -1341h-92z" />
    <glyph glyph-name="uni0420" unicode="&#x420;" horiz-adv-x="1341" 
d="M205 0l252 1434h547q168 0 273 -100t105 -263q0 -219 -135.5 -358.5t-345.5 -139.5h-504l-100 -573h-92zM414 666h508q160 0 264 110t104 281q0 123 -78.5 203.5t-207.5 80.5h-472z" />
    <glyph glyph-name="uni0421" unicode="&#x421;" horiz-adv-x="1536" 
d="M1415 471h101q-62 -139 -160 -246q-93 -107 -226 -176t-299 -69q-261 0 -428 171t-167 447q0 125 29.5 241.5t82 209.5t124 169.5t155 128t177 79.5t187.5 28q313 0 477 -242q73 -112 99 -239h-92q-27 108 -89 194q-143 195 -401 195q-124 0 -242 -54t-210.5 -150
t-148.5 -239.5t-56 -310.5q0 -243 143.5 -389.5t372.5 -146.5q252 0 438 198q80 86 133 201z" />
    <glyph glyph-name="uni0422" unicode="&#x422;" horiz-adv-x="1208" 
d="M522 0l236 1341h-502l16 93h1096l-16 -93h-502l-236 -1341h-92z" />
    <glyph glyph-name="uni0423" unicode="&#x423;" horiz-adv-x="1208" 
d="M178 0l15 92h167q51 0 75.5 15.5t51.5 56.5l103 168l-324 1102h96l283 -953h45l596 953h107l-828 -1321q-36 -59 -75.5 -86t-116.5 -27h-195z" />
    <glyph glyph-name="uni0424" unicode="&#x424;" horiz-adv-x="1648" 
d="M764 -41l39 225h-19q-253 0 -406 132t-153 346q0 136 45.5 251t129 198.5t209 131t278.5 47.5h112l31 185h92l-30 -185h18q252 0 405.5 -132t153.5 -345q0 -136 -45.5 -251t-128.5 -199t-208.5 -131.5t-278.5 -47.5h-113l-39 -225h-92zM911 276h117q251 0 400 145
t149 378q0 179 -128.5 289t-348.5 110h-25zM795 276h24l164 922h-117q-250 0 -399.5 -145t-149.5 -377q0 -179 129 -289.5t349 -110.5z" />
    <glyph glyph-name="uni0425" unicode="&#x425;" horiz-adv-x="1249" 
d="M31 0l631 737l-349 697h105l309 -625h41l530 625h121l-594 -697l373 -737h-104l-334 666h-41l-567 -666h-121z" />
    <glyph glyph-name="uni0426" unicode="&#x426;" horiz-adv-x="1464" 
d="M205 0l252 1434h92l-238 -1342h860l238 1342h92l-237 -1342h163l-67 -389h-92l53 297h-1116z" />
    <glyph glyph-name="uni0427" unicode="&#x427;" horiz-adv-x="1382" 
d="M1085 0l107 616q-46 -30 -121 -57q-147 -57 -315 -57q-437 0 -437 370q0 65 17 162l70 400h92l-72 -408q-16 -102 -16 -143q0 -144 88 -216.5t274 -72.5q172 0 322 61q67 27 116 64l127 715h93l-252 -1434h-93z" />
    <glyph glyph-name="uni0428" unicode="&#x428;" horiz-adv-x="1976" 
d="M205 0l252 1434h92l-238 -1342h645l238 1342h92l-237 -1342h645l237 1342h92l-251 -1434h-1567z" />
    <glyph glyph-name="uni0429" unicode="&#x429;" horiz-adv-x="1986" 
d="M205 0l252 1434h92l-238 -1342h645l238 1342h92l-237 -1342h645l237 1342h92l-237 -1342h164l-68 -389h-92l53 297h-1638z" />
    <glyph glyph-name="uni042A" unicode="&#x42a;" horiz-adv-x="1392" 
d="M338 0l235 1343h-317l16 91h410l-98 -553h409q174 0 277.5 -102t103.5 -263q0 -95 -25.5 -178t-70.5 -144t-104.5 -105.5t-129 -66.5t-143.5 -22h-563zM444 92h467q157 0 264 114.5t107 295.5q0 128 -78 207t-221 79h-416z" />
    <glyph glyph-name="uni042B" unicode="&#x42b;" horiz-adv-x="1638" 
d="M1341 0l252 1434h93l-252 -1434h-93zM205 0l252 1434h92l-98 -553h389q174 0 277.5 -102t103.5 -263q0 -95 -25.5 -178t-70.5 -144t-104.5 -105.5t-129 -66.5t-143.5 -22h-543zM311 92h447q157 0 263.5 114.5t106.5 295.5q0 128 -78 207t-221 79h-395z" />
    <glyph glyph-name="uni042C" unicode="&#x42c;" horiz-adv-x="1280" 
d="M205 0l252 1434h92l-98 -553h430q174 0 277.5 -102t103.5 -263q0 -118 -39.5 -217t-105.5 -163.5t-151 -100t-178 -35.5h-583zM311 92h488q157 0 263.5 114.5t106.5 295.5q0 128 -78 207t-221 79h-436z" />
    <glyph glyph-name="uni042D" unicode="&#x42d;" horiz-adv-x="1536" 
d="M209 471h92q23 -111 86 -201q145 -198 406 -198q151 0 288 75t233.5 214t125.5 315h-768l16 92h760q2 18 2 57q0 243 -143.5 390t-372.5 147q-255 0 -438 -195q-80 -83 -134 -194h-100q61 131 160 239q218 242 524 242q262 0 429 -171t167 -447q0 -187 -65 -349.5
t-171 -272t-242 -172t-278 -62.5q-322 0 -481 245q-68 105 -96 246z" />
    <glyph glyph-name="uni042E" unicode="&#x42e;" horiz-adv-x="1947" 
d="M205 0l252 1434h92l-117 -666h236q20 129 70.5 240t120.5 192t156.5 139t182 86.5t193.5 28.5q118 0 219.5 -39t178.5 -112t121 -188t44 -259q0 -199 -63 -367.5t-166 -277.5t-233 -170t-267 -61q-270 0 -422 164t-152 434q0 36 4 98h-239l-119 -676h-92zM1233 72
q118 0 229.5 52t201 147t144 245t54.5 330q0 240 -133 378t-351 138q-126 0 -241 -54t-202.5 -151.5t-139.5 -245.5t-52 -323q0 -241 133 -378.5t357 -137.5z" />
    <glyph glyph-name="uni042F" unicode="&#x42f;" horiz-adv-x="1320" 
d="M92 0l674 573h-102q-165 0 -269 102.5t-104 258.5q0 222 135 361t332 139h610l-252 -1434h-92l100 573h-225l-674 -573h-133zM676 666h465l119 675h-502q-163 0 -269 -108t-106 -285q0 -130 77.5 -206t215.5 -76z" />
    <glyph glyph-name="uni0430" unicode="&#x430;" horiz-adv-x="1095" 
d="M862 0l10 184h-10q-26 -51 -84 -102q-118 -102 -284 -102q-143 0 -229.5 78t-86.5 192q0 163 105.5 258.5t302.5 95.5h360l6 37q9 41 9 80q0 108 -69.5 169.5t-211.5 61.5q-233 0 -299 -225h-94q89 317 409 317q169 0 264 -83t95 -224q0 -47 -11 -104l-110 -633h-72z
M922 461l10 51h-367q-143 0 -219 -67t-76 -177q0 -82 60.5 -139t163.5 -57q160 0 275.5 105.5t152.5 283.5z" />
    <glyph glyph-name="uni0431" unicode="&#x431;" 
d="M213 522l8 41q26 144 59.5 250.5t81 186.5t103 133t135 89t166.5 56t207 33q87 7 123 44t51 130h92q-24 -139 -85 -196t-177 -70q-81 -10 -135.5 -19.5t-114.5 -26t-101 -37.5t-83 -53t-73 -75.5t-60 -102.5t-54 -135h11q34 43 86 80q114 82 270 82q173 0 289 -110
t116 -294q0 -101 -29 -189.5t-79 -153t-115.5 -111.5t-139.5 -70.5t-149 -23.5q-193 0 -305 114.5t-112 298.5q0 57 14 129zM287 395q0 -143 94 -233t246 -90q79 0 153 32t131 88.5t91 141t34 182.5q0 143 -93.5 233.5t-244.5 90.5q-79 0 -153 -32t-131.5 -88.5t-92 -141.5
t-34.5 -183z" />
    <glyph glyph-name="uni0432" unicode="&#x432;" horiz-adv-x="1085" 
d="M184 0l181 1024h487q116 0 181 -64.5t65 -179.5q0 -136 -90 -211q-42 -39 -88 -53v-10q34 -15 57 -41q57 -57 57 -158q0 -135 -90 -221t-217 -86h-543zM291 92h446q92 0 148.5 62t56.5 161q0 71 -47 113.5t-137 42.5h-400zM375 563h434q88 0 143.5 57t55.5 154
q0 76 -47.5 117t-120.5 41h-400z" />
    <glyph glyph-name="uni0433" unicode="&#x433;" horiz-adv-x="849" 
d="M184 0l181 1024h614l-16 -92h-523l-164 -932h-92z" />
    <glyph glyph-name="uni0434" unicode="&#x434;" horiz-adv-x="1085" 
d="M-33 -246l58 338q163 0 204 164l197 768h645l-166 -932h154l-60 -338h-92l45 246h-850l-45 -246h-90zM209 92h604l150 840h-471l-170 -676q-7 -27 -17 -50.5t-20.5 -39.5t-21.5 -29.5t-20.5 -21.5t-17.5 -13.5t-12 -7.5z" />
    <glyph glyph-name="uni0435" unicode="&#x435;" horiz-adv-x="1146" 
d="M971 287h92q-44 -94 -102 -154q-138 -153 -353 -153q-191 0 -307.5 117.5t-116.5 318.5q0 140 46 260.5t121.5 199.5t172.5 123.5t199 44.5q186 0 303 -119t117 -315q0 -57 -8 -98l-7 -41h-852v-39q0 -170 92 -265t248 -95q161 0 271 106q45 40 84 109zM291 563h760v31
q0 165 -93.5 261.5t-248.5 96.5q-86 0 -159.5 -34t-124.5 -91t-85 -124t-49 -140z" />
    <glyph glyph-name="uni0436" unicode="&#x436;" horiz-adv-x="1290" 
d="M10 0l590 528l-367 496h109l354 -481l86 481h92l-86 -481l527 481h119l-557 -508l397 -516h-109l-383 502l-88 -502h-92l88 502l-559 -502h-121z" />
    <glyph glyph-name="uni0437" unicode="&#x437;" horiz-adv-x="952" 
d="M145 317h93q-2 -14 -2 -28q0 -101 75.5 -159t214.5 -58q74 0 131 19t89.5 51t48.5 68t16 75q0 77 -64 131.5t-192 54.5h-82l16 92h127q119 0 190 61t71 142q0 74 -69 130t-190 56q-118 0 -192 -65t-94 -170h-92q20 150 128.5 238.5t258.5 88.5q153 0 247.5 -79t94.5 -183
q0 -137 -107 -213q-48 -36 -104 -53v-10q35 -13 71 -41q74 -59 74 -166q0 -139 -105 -229t-288 -90q-173 0 -270 84.5t-97 211.5q0 23 2 41z" />
    <glyph glyph-name="uni0438" unicode="&#x438;" horiz-adv-x="1177" 
d="M184 0l181 1024h92l-166 -932h37l661 932h185l-181 -1024h-92l164 932h-37l-659 -932h-185z" />
    <glyph glyph-name="uni0439" unicode="&#x439;" horiz-adv-x="1177" 
d="M184 0l181 1024h92l-166 -932h37l661 932h185l-181 -1024h-92l164 932h-37l-659 -932h-185zM543 1444h92q13 -144 166 -144q74 0 118.5 39.5t63.5 104.5h94q-23 -108 -101.5 -172t-187.5 -64q-113 0 -179 65t-66 161v10z" />
    <glyph glyph-name="uni043A" unicode="&#x43a;" horiz-adv-x="972" 
d="M184 0l181 1024h92l-84 -471l616 471h131l-671 -508l497 -516h-117l-467 492l-86 -492h-92z" />
    <glyph glyph-name="uni043B" unicode="&#x43b;" horiz-adv-x="1116" 
d="M10 -10l17 92h47q85 0 129 40t69 134l197 768h645l-180 -1024h-92l164 932h-471l-170 -676q-34 -136 -98 -201t-183 -65h-74z" />
    <glyph glyph-name="uni043C" unicode="&#x43c;" horiz-adv-x="1495" 
d="M184 0l181 1024h190l182 -932h41l514 932h199l-180 -1024h-92l163 932h-41l-512 -932h-163l-185 932h-41l-164 -932h-92z" />
    <glyph glyph-name="uni043D" unicode="&#x43d;" horiz-adv-x="1177" 
d="M184 0l181 1024h92l-84 -471h624l84 471h93l-181 -1024h-92l80 461h-625l-80 -461h-92z" />
    <glyph glyph-name="uni043E" unicode="&#x43e;" horiz-adv-x="1146" 
d="M725 1044q186 0 303 -119.5t117 -318.5q0 -140 -46 -260t-122.5 -199t-173.5 -123t-199 -44q-186 0 -303 119.5t-117 318.5q0 140 46 260t122.5 199t173.5 123t199 44zM614 72q83 0 161 35.5t140.5 100.5t100 166t37.5 222q0 163 -94 259.5t-244 96.5q-83 0 -161 -35.5
t-140.5 -100.5t-100 -166t-37.5 -222q0 -163 94 -259.5t244 -96.5z" />
    <glyph glyph-name="uni043F" unicode="&#x43f;" horiz-adv-x="1177" 
d="M184 0l181 1024h809l-181 -1024h-92l164 932h-625l-164 -932h-92z" />
    <glyph glyph-name="uni0440" unicode="&#x440;" horiz-adv-x="1208" 
d="M111 -410l251 1434h72l-16 -193h10q46 66 92 107q121 106 287 106q182 0 290.5 -122t108.5 -314q0 -140 -45 -260t-119.5 -199.5t-169.5 -124t-196 -44.5q-173 0 -281 112q-46 49 -73 113h-11l-108 -615h-92zM684 72q79 0 155 36.5t137.5 101.5t99.5 166.5t38 221.5
q0 161 -93.5 257.5t-236.5 96.5q-75 0 -150 -37.5t-137.5 -103.5t-101.5 -168.5t-39 -222.5q0 -157 92.5 -252.5t235.5 -95.5z" />
    <glyph glyph-name="uni0441" unicode="&#x441;" horiz-adv-x="1105" 
d="M975 338h94q-38 -104 -100 -180q-142 -178 -363 -178q-190 0 -306 118t-116 318q0 142 46 262.5t121.5 199t172 122.5t199.5 44q231 0 338 -174q44 -73 57 -174h-92q-12 73 -49 127q-88 129 -264 129q-82 0 -160 -35.5t-140 -100.5t-99.5 -166t-37.5 -222
q0 -164 92.5 -260t243.5 -96q172 0 283 133q54 61 80 133z" />
    <glyph glyph-name="uni0442" unicode="&#x442;" horiz-adv-x="880" 
d="M369 0l163 932h-358l16 92h809l-16 -92h-358l-164 -932h-92z" />
    <glyph glyph-name="uni0443" unicode="&#x443;" horiz-adv-x="942" 
d="M31 -410l16 93h160q38 0 59 16t47 65l95 181l-215 1079h88l178 -901h41l477 901h96l-692 -1311q-35 -67 -73 -95t-111 -28h-166z" />
    <glyph glyph-name="uni0444" unicode="&#x444;" horiz-adv-x="1423" 
d="M594 -410l74 410h-15q-130 0 -235 49t-169.5 148t-64.5 233q0 130 44.5 242t120.5 188.5t179 120t217 43.5h103l72 410h92l-72 -410h14q130 0 235 -49t169.5 -148t64.5 -233q0 -130 -44.5 -242t-120.5 -188.5t-179 -120t-217 -43.5h-102l-74 -410h-92zM774 92h88
q208 0 338.5 134.5t130.5 351.5q0 157 -100.5 255.5t-286.5 98.5h-20zM664 92h20l150 840h-89q-208 0 -338.5 -134.5t-130.5 -351.5q0 -158 101 -256t287 -98z" />
    <glyph glyph-name="uni0445" unicode="&#x445;" horiz-adv-x="921" 
d="M20 0l433 522l-242 502h102l213 -440h41l369 440h115l-422 -502l252 -522h-103l-221 461h-41l-381 -461h-115z" />
    <glyph glyph-name="uni0446" unicode="&#x446;" horiz-adv-x="1167" 
d="M184 0l181 1024h92l-166 -932h604l166 932h92l-166 -932h154l-60 -338h-92l45 246h-850z" />
    <glyph glyph-name="uni0447" unicode="&#x447;" horiz-adv-x="1095" 
d="M819 0l72 406q-33 -20 -76 -35q-101 -33 -221 -33q-166 0 -254 80.5t-88 218.5q0 45 10 100l51 287h93l-54 -295q-8 -41 -8 -82q0 -217 270 -217q114 0 215 37q28 9 76 39l94 518h93l-181 -1024h-92z" />
    <glyph glyph-name="uni0448" unicode="&#x448;" horiz-adv-x="1628" 
d="M184 0l181 1024h92l-166 -932h491l166 932h92l-166 -932h492l166 932h92l-180 -1024h-1260z" />
    <glyph glyph-name="uni0449" unicode="&#x449;" horiz-adv-x="1638" 
d="M184 0l181 1024h92l-166 -932h491l166 932h92l-166 -932h492l166 932h92l-166 -932h154l-60 -338h-92l45 246h-1321z" />
    <glyph glyph-name="uni044A" unicode="&#x44a;" horiz-adv-x="1105" 
d="M266 0l164 932h-256l16 92h349l-66 -369h315q148 0 229 -79t81 -203q0 -167 -104.5 -270t-256.5 -103h-471zM373 92h364q118 0 193.5 72.5t75.5 193.5q0 90 -58.5 147.5t-169.5 57.5h-321z" />
    <glyph glyph-name="uni044B" unicode="&#x44b;" horiz-adv-x="1372" 
d="M1096 0l180 1024h92l-180 -1024h-92zM184 0l181 1024h92l-66 -369h285q148 0 228.5 -79t80.5 -203q0 -167 -104 -270t-256 -103h-441zM291 92h334q118 0 193 72.5t75 193.5q0 90 -58 147.5t-169 57.5h-291z" />
    <glyph glyph-name="uni044C" unicode="&#x44c;" horiz-adv-x="1034" 
d="M184 0l181 1024h92l-66 -369h326q148 0 228.5 -79t80.5 -203q0 -167 -104 -270t-256 -103h-482zM291 92h375q118 0 193 72.5t75 193.5q0 90 -58 147.5t-169 57.5h-332z" />
    <glyph glyph-name="uni044D" unicode="&#x44d;" horiz-adv-x="1105" 
d="M168 338h92q12 -75 49 -133q84 -133 266 -133q67 0 133 25.5t124 72.5t102.5 122.5t64.5 168.5h-493l16 92h490v43q0 164 -92.5 260t-243.5 96q-162 0 -279 -129q-53 -56 -80 -127h-94q41 102 101 174q142 174 358 174q190 0 306 -118t116 -318q0 -142 -46 -262.5
t-121.5 -199t-172 -122.5t-199.5 -44q-130 0 -214 50.5t-126 127.5q-45 77 -57 180z" />
    <glyph glyph-name="uni044E" unicode="&#x44e;" horiz-adv-x="1474" 
d="M184 0l181 1024h92l-84 -471h190q40 222 185.5 356.5t328.5 134.5q80 0 151.5 -29.5t126 -83.5t86.5 -137.5t32 -185.5q0 -135 -44 -254t-116.5 -200t-167 -127.5t-193.5 -46.5q-178 0 -289.5 120t-111.5 316q0 13 1 27.5t1 17.5h-197l-80 -461h-92zM956 72q76 0 150 36
t135.5 100.5t99 167t37.5 224.5q0 160 -87.5 256t-223.5 96q-76 0 -150 -36.5t-135 -101.5t-99 -167.5t-38 -222.5q0 -160 87.5 -256t223.5 -96z" />
    <glyph glyph-name="uni044F" unicode="&#x44f;" horiz-adv-x="1064" 
d="M82 0l457 389h-37q-128 0 -205.5 78.5t-77.5 196.5q0 106 50.5 189.5t130.5 127t173 43.5h488l-180 -1024h-93l68 389h-184l-457 -389h-133zM532 481h340l80 451h-389q-108 0 -180 -70.5t-72 -185.5q0 -85 58 -140t163 -55z" />
    <glyph glyph-name="uni0450" unicode="&#x450;" horiz-adv-x="1146" 
d="M971 287h92q-44 -94 -102 -154q-138 -153 -353 -153q-191 0 -307.5 117.5t-116.5 318.5q0 140 46 260.5t121.5 199.5t172.5 123.5t199 44.5q186 0 303 -119t117 -315q0 -57 -8 -98l-7 -41h-852v-39q0 -170 92 -265t248 -95q161 0 271 106q45 40 84 109zM291 563h760v31
q0 165 -93.5 261.5t-248.5 96.5q-86 0 -159.5 -34t-124.5 -91t-85 -124t-49 -140zM721 1208l-152 246h103l131 -246h-82z" />
    <glyph glyph-name="uni0451" unicode="&#x451;" horiz-adv-x="1146" 
d="M971 287h92q-44 -94 -102 -154q-138 -153 -353 -153q-191 0 -307.5 117.5t-116.5 318.5q0 140 46 260.5t121.5 199.5t172.5 123.5t199 44.5q186 0 303 -119t117 -315q0 -57 -8 -98l-7 -41h-852v-39q0 -170 92 -265t248 -95q161 0 271 106q45 40 84 109zM291 563h760v31
q0 165 -93.5 261.5t-248.5 96.5q-86 0 -159.5 -34t-124.5 -91t-85 -124t-49 -140zM553 1290l18 113h113l-18 -113h-113zM901 1290l19 113h112l-18 -113h-113z" />
    <glyph glyph-name="uni0452" unicode="&#x452;" horiz-adv-x="1198" 
d="M561 -410l17 93h118q91 0 148.5 52t75.5 146l104 582q6 27 6 82q0 128 -77 206t-201 78q-142 0 -248.5 -101.5t-132.5 -246.5l-84 -481h-92l202 1157h-184l16 92h185l32 185h93l-33 -185h368l-16 -92h-369l-73 -420h10q29 51 82 92q109 93 264 93q150 0 251 -101.5
t101 -265.5q0 -45 -10 -100l-106 -602q-21 -109 -106.5 -186t-205.5 -77h-135z" />
    <glyph glyph-name="uni0453" unicode="&#x453;" horiz-adv-x="849" 
d="M184 0l181 1024h614l-16 -92h-523l-164 -932h-92zM645 1208l217 246h109l-238 -246h-88z" />
    <glyph glyph-name="uni0454" unicode="&#x454;" horiz-adv-x="1105" 
d="M276 461v-33q0 -164 92.5 -260t243.5 -96q172 0 283 133q54 61 80 133h94q-38 -104 -100 -180q-142 -178 -363 -178q-190 0 -306 118t-116 318q0 142 46 262.5t121.5 199t172 122.5t199.5 44q231 0 338 -174q44 -73 57 -174h-92q-12 73 -49 127q-88 129 -264 129
q-148 0 -269 -107.5t-157 -291.5h495l-16 -92h-490z" />
    <glyph glyph-name="uni0455" unicode="&#x455;" horiz-adv-x="962" 
d="M143 297h90v-10q0 -92 86 -153.5t213 -61.5q145 0 216 61.5t71 155.5q0 63 -33 99t-116 54l-211 47q-219 47 -219 228q0 138 99 232.5t275 94.5q162 0 264.5 -80t102.5 -216v-21h-92v16q0 87 -74.5 148t-216.5 61q-131 0 -198.5 -64.5t-67.5 -152.5q0 -61 33.5 -98
t117.5 -55l213 -47q215 -48 215 -226q0 -142 -99.5 -235.5t-289.5 -93.5q-89 0 -162.5 25.5t-120 67.5t-71.5 94.5t-25 108.5v21z" />
    <glyph glyph-name="uni0456" unicode="&#x456;" horiz-adv-x="460" 
d="M184 0l181 1024h92l-181 -1024h-92zM401 1290l19 113h112l-18 -113h-113z" />
    <glyph glyph-name="uni0457" unicode="&#x457;" horiz-adv-x="460" 
d="M184 0l181 1024h92l-181 -1024h-92zM225 1290l19 113h112l-18 -113h-113zM573 1290l19 113h113l-19 -113h-113z" />
    <glyph glyph-name="uni0458" unicode="&#x458;" horiz-adv-x="460" 
d="M401 1290l19 113h112l-18 -113h-113zM-133 -410l16 93h178q38 0 55 17t25 60l224 1264h92l-226 -1270q-33 -164 -180 -164h-184z" />
    <glyph glyph-name="uni0459" unicode="&#x459;" horiz-adv-x="1593" 
d="M10 -10l17 92h47q85 0 129 40t69 134l197 768h625l-76 -430h295q119 0 195.5 -71t76.5 -187q0 -144 -94.5 -240t-239.5 -96h-430l164 932h-450l-170 -676q-34 -136 -98 -201t-183 -65h-74zM928 92h334q101 0 166 63.5t65 166.5q0 85 -54 132.5t-147 47.5h-291z" />
    <glyph glyph-name="uni045A" unicode="&#x45a;" horiz-adv-x="1632" 
d="M184 0l181 1024h92l-76 -430h584l75 430h93l-76 -430h284q132 0 207.5 -72.5t75.5 -185.5q0 -150 -96 -243t-238 -93h-430l88 502h-583l-89 -502h-92zM967 92h333q101 0 166.5 63.5t65.5 166.5q0 82 -54.5 131t-146.5 49h-291z" />
    <glyph glyph-name="uni045B" unicode="&#x45b;" horiz-adv-x="1198" 
d="M195 0l202 1157h-184l16 92h185l32 185h93l-33 -185h368l-16 -92h-369l-73 -420h10q29 51 82 92q109 93 264 93q150 0 251 -101.5t101 -265.5q0 -45 -10 -100l-80 -455h-92l82 463q6 27 6 82q0 128 -77 206t-201 78q-142 0 -248.5 -101.5t-132.5 -246.5l-84 -481h-92z
" />
    <glyph glyph-name="uni045C" unicode="&#x45c;" horiz-adv-x="972" 
d="M184 0l181 1024h92l-84 -471l616 471h131l-671 -508l497 -516h-117l-467 492l-86 -492h-92zM676 1208l217 246h108l-237 -246h-88z" />
    <glyph glyph-name="uni045D" unicode="&#x45d;" horiz-adv-x="1177" 
d="M184 0l181 1024h92l-166 -932h37l661 932h185l-181 -1024h-92l164 932h-37l-659 -932h-185zM735 1208l-151 246h102l131 -246h-82z" />
    <glyph glyph-name="uni045E" unicode="&#x45e;" horiz-adv-x="942" 
d="M31 -410l16 93h160q38 0 59 16t47 65l95 181l-215 1079h88l178 -901h41l477 901h96l-692 -1311q-35 -67 -73 -95t-111 -28h-166zM399 1444h93q13 -144 165 -144q74 0 119 39.5t64 104.5h94q-23 -108 -101.5 -172t-187.5 -64q-113 0 -179.5 65t-66.5 161v10z" />
    <glyph glyph-name="uni045F" unicode="&#x45f;" horiz-adv-x="1157" 
d="M184 0l181 1024h92l-166 -932h604l166 932h92l-180 -1024h-348l-45 -246h-93l45 246h-348z" />
    <glyph glyph-name="uni0462" unicode="&#x462;" horiz-adv-x="1341" 
d="M303 0l197 1126h-307l16 93h307l39 215h92l-39 -215h389l-16 -93h-389l-53 -307h409q161 0 268 -98.5t107 -253.5q0 -203 -133 -335t-334 -132h-553zM410 92h456q160 0 262.5 102t102.5 257q0 119 -78.5 197.5t-214.5 78.5h-416z" />
    <glyph glyph-name="uni0463" unicode="&#x463;" horiz-adv-x="1073" 
d="M233 0l164 932h-233l16 92h234l71 410h93l-72 -410h295l-17 -92h-295l-49 -277h318q135 0 221 -75.5t86 -206.5q0 -162 -106.5 -267.5t-262.5 -105.5h-463zM340 92h367q111 0 188.5 71t77.5 195q0 90 -57.5 147.5t-167.5 57.5h-324z" />
    <glyph glyph-name="uni046A" unicode="&#x46a;" horiz-adv-x="1546" 
d="M926 829l606 512h-1034zM102 0l29 164q48 299 235 468t453 187l-440 522l16 93h1280l-16 -93l-625 -522q223 -47 343 -192.5t120 -366.5q0 -78 -18 -184l-15 -76h-92l17 84q16 102 16 160q0 214 -127 344.5t-322 138.5l-127 -727h-92l127 727q-118 0 -221 -34.5
t-187.5 -102.5t-144.5 -176.5t-86 -249.5l-30 -164h-93z" />
    <glyph glyph-name="uni046B" unicode="&#x46b;" horiz-adv-x="1239" 
d="M715 553h10l436 379h-747zM184 0h-92q38 248 176 392t348 151l-309 389l17 92h972l-16 -92l-453 -393q169 -29 261 -139t92 -287q0 -51 -9 -113h-92q8 36 8 92q0 162 -81.5 257t-249.5 112l-80 -461h-92l80 461q-206 0 -324 -120.5t-156 -340.5z" />
    <glyph glyph-name="uni0472" unicode="&#x472;" horiz-adv-x="1576" 
d="M1491 778q0 7 1 21.5t1 21.5q0 238 -143 389.5t-367 151.5q-150 0 -287 -75.5t-234 -217.5t-124 -321q140 61 289 61q104 0 287.5 -46t279.5 -46q151 0 297 61zM825 -20q-260 0 -424.5 173.5t-164.5 448.5q0 151 42.5 286.5t116 237t169 176.5t206 113.5t223.5 38.5
q260 0 425 -174t165 -449q0 -187 -65.5 -349.5t-172.5 -270.5t-242.5 -169.5t-277.5 -61.5zM1481 686q-140 -61 -289 -61q-105 0 -287.5 46t-279.5 46q-149 0 -297 -62q0 -7 -1 -21.5t-1 -21.5q0 -238 143 -389t367 -151q150 0 286.5 75.5t233 217t125.5 321.5z" />
    <glyph glyph-name="uni0473" unicode="&#x473;" horiz-adv-x="1146" 
d="M285 532q21 12 55 21q70 20 149 20q77 0 180.5 -20.5t180.5 -20.5q82 0 149 19q40 12 54 18v27q0 163 -94.5 259.5t-243.5 96.5q-161 0 -281 -117.5t-149 -302.5zM604 -20q-186 0 -303 119.5t-117 318.5q0 140 46 260t122.5 199t173.5 123t199 44q186 0 303 -119.5
t117 -318.5q0 -140 -46 -260t-122.5 -199t-173.5 -123t-199 -44zM1044 492q-27 -12 -57 -21q-78 -20 -147 -20q-77 0 -180.5 20.5t-180.5 20.5q-66 0 -149 -19q-40 -12 -54 -18v-27q0 -163 94.5 -259.5t243.5 -96.5q161 0 281 117.5t149 302.5z" />
    <glyph glyph-name="uni0474" unicode="&#x474;" horiz-adv-x="1310" 
d="M526 0l-260 1434h88l244 -1342h41l565 1055q84 161 152.5 224t138.5 63q31 0 66 -15l18 -12l-16 -90l-19 12q-28 12 -45 12q-96 0 -199 -194l-610 -1147h-164z" />
    <glyph glyph-name="uni0475" unicode="&#x475;" horiz-adv-x="1024" 
d="M401 0l-208 1024h88l184 -922h41l383 686q72 131 125 183.5t114 52.5q31 0 64 -14l16 -13l-16 -92l-14 13q-23 14 -43 14q-79 0 -154 -144l-436 -788h-144z" />
    <glyph glyph-name="uni048A" unicode="&#x48a;" horiz-adv-x="1495" 
d="M205 0l252 1434h92l-238 -1342h35l1012 1342h184l-237 -1342h184l-4 -31l-197 -358h-61l125 297h-154l236 1341h-35l-1010 -1341h-184zM748 1843h92q13 -143 166 -143q141 0 182 143h94q-23 -108 -101.5 -171.5t-187.5 -63.5q-113 0 -179 64.5t-66 160.5v10z" />
    <glyph glyph-name="uni048B" unicode="&#x48b;" horiz-adv-x="1177" 
d="M184 0l181 1024h92l-166 -932h37l661 932h185l-166 -932h174l-2 -20l-160 -318h-62l97 246h-154l164 932h-37l-659 -932h-185zM543 1444h92q13 -144 166 -144q74 0 118.5 39.5t63.5 104.5h94q-23 -108 -101.5 -172t-187.5 -64q-113 0 -179 65t-66 161v10z" />
    <glyph glyph-name="uni048C" unicode="&#x48c;" horiz-adv-x="1341" 
d="M303 0l197 1126h-307l16 93h307l39 215h92l-39 -215h389l-16 -93h-389l-53 -307h409q161 0 268 -98.5t107 -253.5q0 -203 -133 -335t-334 -132h-553zM410 92h456q160 0 262.5 102t102.5 257q0 119 -78.5 197.5t-214.5 78.5h-416z" />
    <glyph glyph-name="uni048D" unicode="&#x48d;" horiz-adv-x="1073" 
d="M233 0l164 932h-233l16 92h234l71 410h93l-72 -410h295l-17 -92h-295l-49 -277h318q135 0 221 -75.5t86 -206.5q0 -162 -106.5 -267.5t-262.5 -105.5h-463zM340 92h367q111 0 188.5 71t77.5 195q0 90 -57.5 147.5t-167.5 57.5h-324z" />
    <glyph glyph-name="uni048E" unicode="&#x48e;" horiz-adv-x="1341" 
d="M205 0l252 1434h547q168 0 273 -100t105 -263q0 -146 -62 -259t-173 -175l67 -135l-77 -47l-74 143q-77 -25 -162 -25h-504l-100 -573h-92zM414 666h508q54 0 100 12l-68 135l78 47l74 -147q87 48 135.5 138t48.5 206q0 123 -78.5 203.5t-207.5 80.5h-472z" />
    <glyph glyph-name="uni048F" unicode="&#x48f;" horiz-adv-x="1208" 
d="M111 -410l251 1434h72l-16 -193h10q46 66 92 107q121 106 287 106q182 0 290.5 -122t108.5 -314q0 -162 -58.5 -293.5t-158.5 -216.5l68 -127l-78 -49l-66 123q-115 -65 -237 -65q-173 0 -281 112q-46 49 -73 113h-11l-108 -615h-92zM870 123l-86 164l78 49l84 -158
q78 71 123 178t45 242q0 161 -93.5 257.5t-236.5 96.5q-75 0 -150 -37.5t-137.5 -103.5t-101.5 -168.5t-39 -222.5q0 -157 92.5 -252.5t235.5 -95.5q97 0 186 51z" />
    <glyph glyph-name="uni0490" unicode="&#x490;" 
d="M205 0l252 1434h768l51 286h92l-68 -379h-768l-235 -1341h-92z" />
    <glyph glyph-name="uni0491" unicode="&#x491;" horiz-adv-x="860" 
d="M184 0l181 1024h532l43 246h92l-59 -338h-533l-164 -932h-92z" />
    <glyph glyph-name="uni0492" unicode="&#x492;" horiz-adv-x="1095" 
d="M205 0l121 686h-164l16 92h164l115 656h829l-16 -93h-738l-98 -563h400l-17 -92h-399l-121 -686h-92z" />
    <glyph glyph-name="uni0493" unicode="&#x493;" horiz-adv-x="849" 
d="M184 0l80 461h-143l16 92h144l84 471h614l-16 -92h-523l-67 -379h370l-16 -92h-371l-80 -461h-92z" />
    <glyph glyph-name="uni0494" unicode="&#x494;" horiz-adv-x="1228" 
d="M205 0l252 1434h850l-17 -93h-758l-110 -622q51 22 76 29q105 30 223 30q223 0 348 -115t125 -305q0 -137 -44 -251t-118 -188t-171.5 -114.5t-205.5 -40.5h-43l17 93h37q183 0 309.5 134.5t126.5 356.5q0 153 -101.5 245.5t-295.5 92.5q-117 0 -222 -37q-26 -8 -77 -35
l-109 -614h-92z" />
    <glyph glyph-name="uni0495" unicode="&#x495;" horiz-adv-x="993" 
d="M459 -410l16 93h17q69 0 137 33.5t122 92.5t87.5 148.5t33.5 192.5q0 150 -81.5 235.5t-217.5 85.5q-78 0 -157 -27q-45 -14 -66 -26l-74 -418h-92l181 1024h614l-16 -92h-523l-75 -428q20 14 57 24q70 25 166 25q102 0 187 -45t137.5 -135t52.5 -209q0 -123 -40 -231.5
t-106.5 -183t-154.5 -117t-183 -42.5h-22z" />
    <glyph glyph-name="uni0496" unicode="&#x496;" horiz-adv-x="1648" 
d="M6 0l785 739l-472 695h115l463 -686l121 686h92l-121 -686l705 686h131l-738 -715l447 -627h137l-67 -389h-93l54 297h-82l-502 707l-123 -707h-92l123 707l-748 -707h-135z" />
    <glyph glyph-name="uni0497" unicode="&#x497;" horiz-adv-x="1310" 
d="M10 0l590 528l-367 496h109l354 -481l86 481h92l-86 -481l527 481h119l-557 -508l325 -424h131l-59 -338h-92l45 246h-62l-383 502l-88 -502h-92l88 502l-559 -502h-121z" />
    <glyph glyph-name="uni0498" unicode="&#x498;" horiz-adv-x="1239" 
d="M541 -297l49 279q-198 12 -312 114t-114 252q0 18 2 41h92q-2 -14 -2 -29q0 -122 107 -205t292 -83q104 0 187.5 28t136 75.5t80.5 109t28 129.5q0 114 -86 188t-223 74h-157l16 92h213q137 0 230.5 91t93.5 216q0 127 -95.5 207t-267.5 80q-171 0 -273.5 -82
t-125.5 -236h-93q29 190 157.5 300t350.5 110q194 0 316.5 -101t122.5 -270q0 -59 -15 -111.5t-39 -89t-54 -66.5t-59.5 -48.5t-54.5 -31t-40.5 -17.5t-16.5 -4l-2 -10q55 -22 96 -60q99 -95 99 -233q0 -181 -132 -303t-366 -129l-49 -277h-92z" />
    <glyph glyph-name="uni0499" unicode="&#x499;" horiz-adv-x="952" 
d="M408 -246l41 230q-146 11 -226 94t-80 198q0 23 2 41h93q-2 -14 -2 -28q0 -101 75.5 -159t214.5 -58q74 0 131 19t89.5 51t48.5 68t16 75q0 77 -64 131.5t-192 54.5h-82l16 92h127q119 0 190 61t71 142q0 74 -69 130t-190 56q-118 0 -192 -65t-94 -170h-92
q20 150 128.5 238.5t258.5 88.5q153 0 247.5 -79t94.5 -183q0 -137 -107 -213q-48 -36 -104 -53v-10q35 -13 71 -41q74 -59 74 -166q0 -133 -96 -221t-266 -98l-41 -226h-92z" />
    <glyph glyph-name="uni049A" unicode="&#x49a;" horiz-adv-x="1177" 
d="M205 0l252 1434h92l-119 -676l805 676h133l-852 -715l541 -627h145l-67 -389h-93l54 297h-72l-606 696l-121 -696h-92z" />
    <glyph glyph-name="uni049B" unicode="&#x49b;" horiz-adv-x="983" 
d="M184 0l181 1024h92l-84 -471l616 471h131l-661 -508l397 -424h141l-59 -338h-92l45 246h-62l-467 492l-86 -492h-92z" />
    <glyph glyph-name="uni049C" unicode="&#x49c;" horiz-adv-x="1228" 
d="M205 0l252 1434h92l-117 -666h123l39 225h92l-39 -225h103l557 666h112l-606 -721l379 -713h-107l-352 676h-102l-41 -225h-92l41 225h-123l-119 -676h-92z" />
    <glyph glyph-name="uni049D" unicode="&#x49d;" horiz-adv-x="1003" 
d="M184 0l181 1024h92l-80 -451h82l28 164h93l-29 -164h61l428 451h109l-485 -508l315 -516h-109l-295 481h-40l-31 -174h-92l30 174h-82l-84 -481h-92z" />
    <glyph glyph-name="uni049E" unicode="&#x49e;" horiz-adv-x="1177" 
d="M205 0l201 1147h-164l16 92h164l35 195h92l-35 -195h154l-17 -92h-153l-68 -389l805 676h133l-852 -715l625 -719h-117l-606 696l-121 -696h-92z" />
    <glyph glyph-name="uni049F" unicode="&#x49f;" horiz-adv-x="962" 
d="M174 0l201 1147h-164l16 92h164l35 195h92l-35 -195h226l-17 -92h-225l-105 -594l617 471h131l-672 -508l498 -516h-117l-467 492l-86 -492h-92z" />
    <glyph glyph-name="uni04A0" unicode="&#x4a0;" horiz-adv-x="1198" 
d="M225 0l236 1341h-205l16 93h297l-118 -676l804 676h134l-852 -715l624 -719h-117l-606 696l-121 -696h-92z" />
    <glyph glyph-name="uni04A1" unicode="&#x4a1;" horiz-adv-x="993" 
d="M205 0l164 932h-205l16 92h297l-84 -471l617 471h131l-672 -508l498 -516h-117l-467 492l-86 -492h-92z" />
    <glyph glyph-name="uni04A2" unicode="&#x4a2;" horiz-adv-x="1515" 
d="M205 0l252 1434h92l-115 -656h891l115 656h92l-238 -1342h164l-67 -389h-93l54 297h-164l121 686h-891l-121 -686h-92z" />
    <glyph glyph-name="uni04A3" unicode="&#x4a3;" horiz-adv-x="1198" 
d="M184 0l181 1024h92l-84 -471h624l84 471h93l-166 -932h153l-59 -338h-92l45 246h-154l80 461h-625l-80 -461h-92z" />
    <glyph glyph-name="uni04A4" unicode="&#x4a4;" horiz-adv-x="2017" 
d="M205 0l252 1434h92l-115 -656h850l115 656h809l-17 -93h-716l-236 -1341h-92l121 686h-850l-121 -686h-92z" />
    <glyph glyph-name="uni04A5" unicode="&#x4a5;" horiz-adv-x="1495" 
d="M184 0l181 1024h92l-84 -471h583l84 471h584l-16 -92h-492l-164 -932h-92l80 461h-584l-80 -461h-92z" />
    <glyph glyph-name="uni04A6" unicode="&#x4a6;" horiz-adv-x="2088" 
d="M205 0l252 1434h973l-127 -715q52 23 75 29q105 30 224 30q223 0 348 -115t125 -305q0 -137 -44 -251t-118 -188t-171.5 -114.5t-205.5 -40.5h-43l16 93h37q183 0 309.5 134.5t126.5 356.5q0 153 -101.5 245.5t-295.5 92.5q-116 0 -221 -37q-29 -9 -78 -35l-108 -614h-93
l236 1341h-789l-235 -1341h-92z" />
    <glyph glyph-name="uni04A7" unicode="&#x4a7;" horiz-adv-x="1607" 
d="M184 0l181 1024h716l-92 -520q20 14 58 24q70 25 165 25q102 0 187 -45t137.5 -135t52.5 -209q0 -164 -68 -297t-178 -205t-237 -72h-23l17 93h16q69 0 137 33.5t122.5 92.5t88 148.5t33.5 192.5q0 150 -81.5 235.5t-217.5 85.5q-79 0 -158 -27q-43 -14 -65 -26l-74 -418
h-92l164 932h-533l-164 -932h-92z" />
    <glyph glyph-name="uni04A8" unicode="&#x4a8;" horiz-adv-x="1597" 
d="M1407 72l-16 -92q-137 0 -240 30q-46 12 -78 31q-29 -20 -65 -31q-81 -30 -187 -30q-116 0 -221.5 44.5t-183.5 122.5t-124 190.5t-46 240.5q0 138 31.5 261.5t86 218t128 170.5t158.5 125t175.5 75t180.5 26h30l-16 -92h-45q-84 0 -172 -31t-171 -95.5t-148 -153.5
t-104.5 -215.5t-39.5 -270.5q0 -151 64.5 -271.5t175 -186.5t243.5 -66q64 0 111 14l43 16q-116 86 -181 219.5t-65 282.5q0 158 44 292.5t117.5 224.5t170.5 140t203 50q148 0 255 -121.5t107 -315.5q0 -254 -118.5 -459t-317.5 -313q13 -6 53 -16q61 -14 162 -14z
M1087 143q193 90 321 284.5t128 434.5q0 170 -82 263.5t-205 93.5q-74 0 -148 -40.5t-136 -113.5t-101 -189.5t-39 -254.5q0 -158 69.5 -285t192.5 -193z" />
    <glyph glyph-name="uni04A9" unicode="&#x4a9;" horiz-adv-x="1146" 
d="M1026 72l-16 -92q-149 0 -226 49q-40 -23 -93.5 -36t-92.5 -13q-175 0 -291.5 120t-116.5 308q0 145 46 267.5t122 201.5t172 123t197 44h29l-17 -92h-18q-86 0 -165 -36t-140 -102t-97 -167t-36 -223q0 -161 94 -256.5t237 -95.5q51 0 72 8q2 0 25 8q-58 58 -92.5 143.5
t-34.5 176.5q0 123 29.5 221.5t78.5 158.5t108.5 91.5t123.5 31.5q101 0 167 -75t66 -205q0 -172 -71 -313t-201 -232q31 -14 106 -14h35zM801 133q105 64 184.5 193t79.5 282q0 95 -42 153t-101 58q-98 0 -172 -107.5t-74 -287.5q0 -188 125 -291z" />
    <glyph glyph-name="uni04AA" unicode="&#x4aa;" horiz-adv-x="1536" 
d="M715 -297l49 281q-235 20 -381.5 189t-146.5 425q0 125 29.5 241.5t82 209.5t124 169.5t155 128t177 79.5t187.5 28q313 0 477 -242q73 -112 99 -239h-92q-27 108 -89 194q-143 195 -401 195q-124 0 -242 -54t-210.5 -150t-148.5 -239.5t-56 -310.5q0 -243 143.5 -389.5
t372.5 -146.5q252 0 438 198q80 86 133 201h101q-62 -132 -156 -240q-221 -242 -504 -249l-49 -279h-92z" />
    <glyph glyph-name="uni04AB" unicode="&#x4ab;" horiz-adv-x="1105" 
d="M494 -246l41 232q-162 21 -256.5 134.5t-94.5 295.5q0 142 46 262.5t121.5 199t172 122.5t199.5 44q231 0 338 -174q44 -73 57 -174h-92q-12 73 -49 127q-88 129 -264 129q-82 0 -160 -35.5t-140 -100.5t-99.5 -166t-37.5 -222q0 -164 92.5 -260t243.5 -96q172 0 283 133
q54 61 80 133h94q-37 -100 -96 -174q-144 -177 -346 -184l-41 -226h-92z" />
    <glyph glyph-name="uni04AC" unicode="&#x4ac;" horiz-adv-x="1208" 
d="M633 -297l53 297h-164l236 1341h-502l16 93h1096l-16 -93h-502l-221 -1249h164l-68 -389h-92z" />
    <glyph glyph-name="uni04AD" unicode="&#x4ad;" horiz-adv-x="880" 
d="M477 -246l45 246h-153l163 932h-358l16 92h809l-16 -92h-358l-150 -840h154l-60 -338h-92z" />
    <glyph glyph-name="uni04AE" unicode="&#x4ae;" horiz-adv-x="1198" 
d="M522 0l92 532l-372 902h94l315 -768h51l586 768h111l-692 -902l-93 -532h-92z" />
    <glyph glyph-name="uni04AF" unicode="&#x4af;" horiz-adv-x="972" 
d="M348 -410l74 410h-21l-208 1024h90l184 -922h31l512 922h94l-569 -1024h-21l-74 -410h-92z" />
    <glyph glyph-name="uni04B0" unicode="&#x4b0;" horiz-adv-x="1198" 
d="M522 0l92 532h-297l17 93h244l-336 809h94l315 -768h51l586 768h111l-623 -809h244l-16 -93h-297l-93 -532h-92z" />
    <glyph glyph-name="uni04B1" unicode="&#x4b1;" horiz-adv-x="972" 
d="M348 -410l74 410h-215l14 92h162l-190 932h90l184 -922h31l512 922h94l-520 -932h159l-14 -92h-215l-74 -410h-92z" />
    <glyph glyph-name="uni04B2" unicode="&#x4b2;" horiz-adv-x="1280" 
d="M31 0l631 737l-349 697h105l309 -625h41l530 625h121l-594 -697l326 -645h133l-67 -389h-93l54 297h-84l-334 666h-41l-567 -666h-121z" />
    <glyph glyph-name="uni04B3" unicode="&#x4b3;" horiz-adv-x="956" 
d="M20 0l433 522l-242 502h102l213 -440h41l369 440h115l-422 -502l207 -430h125l-60 -338h-92l45 246h-76l-221 461h-41l-381 -461h-115z" />
    <glyph glyph-name="uni04B4" unicode="&#x4b4;" horiz-adv-x="1720" 
d="M481 0l236 1341h-461l16 93h1014l-16 -93h-461l-221 -1249h819l238 1342h92l-238 -1342h164l-68 -389h-92l53 297h-1075z" />
    <glyph glyph-name="uni04B5" unicode="&#x4b5;" horiz-adv-x="1320" 
d="M328 0l164 932h-318l16 92h707l-16 -92h-297l-150 -840h604l166 932h92l-166 -932h154l-59 -338h-92l45 246h-850z" />
    <glyph glyph-name="uni04B6" unicode="&#x4b6;" horiz-adv-x="1413" 
d="M1196 -297l53 297h-164l107 616q-46 -30 -121 -57q-147 -57 -315 -57q-437 0 -437 370q0 65 17 162l70 400h92l-72 -408q-16 -102 -16 -143q0 -144 88 -216.5t274 -72.5q172 0 322 61q67 27 116 64l127 715h93l-238 -1342h164l-68 -389h-92z" />
    <glyph glyph-name="uni04B7" unicode="&#x4b7;" horiz-adv-x="1116" 
d="M928 -246l45 246h-154l72 406q-33 -20 -76 -35q-101 -33 -221 -33q-166 0 -254 80.5t-88 218.5q0 45 10 100l51 287h93l-54 -295q-8 -41 -8 -82q0 -217 270 -217q114 0 215 37q28 9 76 39l94 518h93l-166 -932h153l-59 -338h-92z" />
    <glyph glyph-name="uni04B8" unicode="&#x4b8;" horiz-adv-x="1382" 
d="M662 276l40 228q-192 10 -287.5 104t-95.5 264q0 65 17 162l70 400h92l-72 -408q-16 -102 -16 -143q0 -267 309 -287l51 295h92l-53 -297q162 8 295 65q62 27 106 60l127 715h93l-252 -1434h-93l107 616q-57 -35 -111 -53q-144 -54 -288 -61l-39 -226h-92z" />
    <glyph glyph-name="uni04B9" unicode="&#x4b9;" horiz-adv-x="1095" 
d="M516 205l25 135q-143 13 -216 92t-73 205q0 45 10 100l51 287h93l-54 -295q-8 -41 -8 -82q0 -191 213 -215l33 193h82l-33 -195q96 2 197 41q28 10 69 35l94 518h93l-181 -1024h-92l72 406q-31 -17 -68 -31q-102 -35 -200 -37l-25 -133h-82z" />
    <glyph glyph-name="uni04BA" unicode="&#x4ba;" horiz-adv-x="1361" 
d="M205 0l252 1434h92l-107 -617q46 30 121 57q142 58 316 58q436 0 436 -371q0 -65 -17 -162l-69 -399h-92l71 408q17 108 17 143q0 143 -88.5 216t-274.5 73q-164 0 -321 -64q-69 -28 -117 -61l-127 -715h-92z" />
    <glyph glyph-name="uni04BB" unicode="&#x4bb;" horiz-adv-x="1208" 
d="M195 0l251 1434h93l-101 -574h11q30 53 81 92q108 92 265 92q150 0 251 -101t101 -265q0 -45 -10 -100l-103 -578h-92l105 586q6 27 6 82q0 128 -77.5 206t-201.5 78q-142 0 -248.5 -101.5t-132.5 -246.5l-106 -604h-92z" />
    <glyph glyph-name="uni04BC" unicode="&#x4bc;" horiz-adv-x="1648" 
d="M330 676h-23q-83 0 -123.5 36t-40.5 99q0 24 7 51l10 49h86l-6 -34q-4 -28 -4 -37q0 -72 92 -72h14q35 203 149 361.5t268.5 241.5t319.5 83q166 0 298.5 -78t207 -217t74.5 -313q0 -88 -8 -121l-9 -49h-1218q-4 -15 -4 -62q0 -241 139.5 -391.5t370.5 -150.5
q180 0 329 99t228 259h98q-92 -196 -267 -323t-398 -127q-259 0 -425.5 174t-166.5 448q0 51 2 74zM434 768h1120q5 45 5 70q0 118 -39.5 217.5t-106.5 166t-156 103.5t-188 37q-220 0 -399.5 -164t-235.5 -430z" />
    <glyph glyph-name="uni04BD" unicode="&#x4bd;" horiz-adv-x="1228" 
d="M268 471h-16q-76 0 -114 31.5t-38 87.5q0 23 6 47l7 29h92l-2 -17q-2 -14 -2 -31q0 -30 13 -42.5t48 -12.5h19q40 218 191 349.5t333 131.5q186 0 303 -119t117 -315q0 -57 -8 -98l-7 -41h-852v-39q0 -170 92 -265t248 -95q161 0 271 106q45 40 84 109h92
q-43 -92 -103 -154q-138 -153 -352 -153q-191 0 -307.5 117.5t-116.5 318.5q0 37 2 55zM373 563h760v31q0 165 -93.5 261.5t-248.5 96.5q-86 0 -159.5 -34t-124.5 -91t-85 -124t-49 -140z" />
    <glyph glyph-name="uni04BE" unicode="&#x4be;" horiz-adv-x="1648" 
d="M786 -297l52 283q-227 25 -368.5 195.5t-141.5 420.5q0 51 2 74h-23q-83 0 -123.5 36t-40.5 99q0 24 7 51l10 49h86l-6 -34q-4 -28 -4 -37q0 -72 92 -72h14q35 203 149 361.5t268.5 241.5t319.5 83q166 0 298.5 -78t207 -217t74.5 -313q0 -88 -8 -121l-9 -49h-1218
q-4 -15 -4 -62q0 -241 139.5 -391.5t370.5 -150.5q180 0 329 99t228 259h98q-59 -126 -152.5 -224.5t-226 -160.5t-280.5 -65l-47 -277h-93zM434 768h1120q5 45 5 70q0 118 -39.5 217.5t-106.5 166t-156 103.5t-188 37q-220 0 -399.5 -164t-235.5 -430z" />
    <glyph glyph-name="uni04BF" unicode="&#x4bf;" horiz-adv-x="1228" 
d="M565 -246l41 232q-156 25 -248 138.5t-92 291.5q0 37 2 55h-16q-76 0 -114 31.5t-38 87.5q0 23 6 47l7 29h92l-2 -17q-2 -14 -2 -31q0 -30 13 -42.5t48 -12.5h19q40 218 191 349.5t333 131.5q186 0 303 -119t117 -315q0 -57 -8 -98l-7 -41h-852v-39q0 -170 92 -265
t248 -95q161 0 271 106q45 40 84 109h92q-44 -89 -101 -152q-145 -153 -346 -155l-41 -226h-92zM373 563h760v31q0 165 -93.5 261.5t-248.5 96.5q-86 0 -159.5 -34t-124.5 -91t-85 -124t-49 -140z" />
    <glyph glyph-name="uni04C0" unicode="&#x4c0;" horiz-adv-x="501" 
d="M205 0l252 1434h92l-252 -1434h-92z" />
    <glyph glyph-name="uni04C1" unicode="&#x4c1;" horiz-adv-x="1628" 
d="M6 0l785 739l-472 695h115l463 -686l121 686h92l-121 -686l705 686h131l-738 -715l512 -719h-116l-502 707l-123 -707h-92l123 707l-748 -707h-135zM860 1843h92q13 -143 166 -143q141 0 182 143h95q-23 -108 -101.5 -171.5t-187.5 -63.5q-113 0 -179.5 64.5t-66.5 160.5
v10z" />
    <glyph glyph-name="uni04C2" unicode="&#x4c2;" horiz-adv-x="1290" 
d="M10 0l590 528l-367 496h109l354 -481l86 481h92l-86 -481l527 481h119l-557 -508l397 -516h-109l-383 502l-88 -502h-92l88 502l-559 -502h-121zM614 1444h93q13 -144 165 -144q74 0 119 39.5t64 104.5h94q-23 -108 -101.5 -172t-187.5 -64q-113 0 -179.5 65t-66.5 161
v10z" />
    <glyph glyph-name="uni04C3" unicode="&#x4c3;" horiz-adv-x="1228" 
d="M205 0l252 1434h92l-119 -676l805 676h133l-721 -605l21 5q42 6 82 6q207 0 329.5 -115t122.5 -315q0 -152 -44.5 -276.5t-120 -204t-171 -122.5t-200.5 -43h-54l17 93h37q193 0 318.5 150.5t125.5 381.5q0 174 -104 266.5t-279 92.5q-192 0 -313 -84l-117 -664h-92z" />
    <glyph glyph-name="uni04C4" unicode="&#x4c4;" horiz-adv-x="1013" 
d="M428 -410l16 93h27q82 0 158 33t136.5 94t97 158t36.5 216q0 149 -92 238.5t-234 89.5t-217 -49l-80 -463h-92l181 1024h92l-84 -471l616 471h131l-561 -434q6 0 12 2q2 0 16 1t27 1q164 0 270.5 -108t106.5 -285q0 -136 -44 -253t-116.5 -194t-166 -120.5t-193.5 -43.5
h-43z" />
    <glyph glyph-name="uni04C5" unicode="&#x4c5;" horiz-adv-x="1394" 
d="M10 -10l17 92h57q90 0 143 51t80 154l305 1147h830l-238 -1342h185l-5 -31l-196 -358h-62l125 297h-153l235 1341h-655l-279 -1054q-42 -160 -118 -228.5t-207 -68.5h-64z" />
    <glyph glyph-name="uni04C6" unicode="&#x4c6;" horiz-adv-x="1116" 
d="M10 -10l17 92h47q85 0 129 40t69 134l197 768h645l-166 -932h174l-2 -20l-159 -318h-62l96 246h-153l164 932h-471l-170 -676q-34 -136 -98 -201t-183 -65h-74z" />
    <glyph glyph-name="uni04C7" unicode="&#x4c7;" horiz-adv-x="1484" 
d="M205 0l252 1434h92l-115 -656h891l115 656h92l-279 -1577q-25 -140 -87.5 -203.5t-172.5 -63.5h-53l16 93h37q71 0 112 43t58 141l146 819h-891l-121 -686h-92z" />
    <glyph glyph-name="uni04C8" unicode="&#x4c8;" horiz-adv-x="1177" 
d="M184 0l181 1024h92l-84 -471h624l84 471h93l-205 -1157q-26 -146 -89 -211.5t-173 -65.5h-54l17 93h37q70 0 111 43t59 141l104 594h-625l-80 -461h-92z" />
    <glyph glyph-name="uni04C9" unicode="&#x4c9;" horiz-adv-x="1484" 
d="M205 0l252 1434h92l-115 -656h891l115 656h92l-238 -1342h185l-4 -31l-197 -358h-61l124 297h-153l121 686h-891l-121 -686h-92z" />
    <glyph glyph-name="uni04CA" unicode="&#x4ca;" horiz-adv-x="1177" 
d="M184 0l181 1024h92l-84 -471h624l84 471h93l-166 -932h174l-2 -20l-160 -318h-62l97 246h-154l80 461h-625l-80 -461h-92z" />
    <glyph glyph-name="uni04CB" unicode="&#x4cb;" horiz-adv-x="1382" 
d="M868 -297l68 389h164l92 524q-46 -30 -121 -57q-147 -57 -315 -57q-437 0 -437 370q0 65 17 162l70 400h92l-72 -408q-16 -102 -16 -143q0 -144 88 -216.5t274 -72.5q172 0 322 61q67 27 116 64l127 715h93l-252 -1434h-164l-53 -297h-93z" />
    <glyph glyph-name="uni04CC" unicode="&#x4cc;" horiz-adv-x="1095" 
d="M621 -246l59 338h156l55 314q-33 -20 -76 -35q-101 -33 -221 -33q-166 0 -254 80.5t-88 218.5q0 45 10 100l51 287h93l-54 -295q-8 -41 -8 -82q0 -217 270 -217q114 0 215 37q28 9 76 39l94 518h93l-181 -1024h-153l-45 -246h-92z" />
    <glyph glyph-name="uni04CD" unicode="&#x4cd;" horiz-adv-x="1853" 
d="M205 0l252 1434h190l275 -1342h30l750 1342h199l-238 -1342h184l-4 -31l-196 -358h-62l125 297h-154l236 1341h-41l-747 -1341h-154l-277 1341h-41l-235 -1341h-92z" />
    <glyph glyph-name="uni04CE" unicode="&#x4ce;" horiz-adv-x="1495" 
d="M184 0l181 1024h190l182 -932h41l514 932h199l-166 -932h174l-2 -20l-160 -318h-61l96 246h-153l163 932h-41l-512 -932h-163l-185 932h-41l-164 -932h-92z" />
    <glyph glyph-name="uni04CF" unicode="&#x4cf;" horiz-adv-x="481" 
d="M195 0l251 1434h93l-252 -1434h-92z" />
    <glyph glyph-name="uni04D0" unicode="&#x4d0;" horiz-adv-x="1269" 
d="M41 0l795 1434h143l291 -1434h-88l-82 399h-742l-221 -399h-96zM408 492h675l-170 839h-41zM676 1843h92q13 -143 166 -143q141 0 182 143h94q-23 -108 -101 -171.5t-187 -63.5q-113 0 -179.5 64.5t-66.5 160.5v10z" />
    <glyph glyph-name="uni04D1" unicode="&#x4d1;" horiz-adv-x="1095" 
d="M862 0l10 184h-10q-26 -51 -84 -102q-118 -102 -284 -102q-143 0 -229.5 78t-86.5 192q0 163 105.5 258.5t302.5 95.5h360l6 37q9 41 9 80q0 108 -69.5 169.5t-211.5 61.5q-233 0 -299 -225h-94q89 317 409 317q169 0 264 -83t95 -224q0 -47 -11 -104l-110 -633h-72z
M922 461l10 51h-367q-143 0 -219 -67t-76 -177q0 -82 60.5 -139t163.5 -57q160 0 275.5 105.5t152.5 283.5zM532 1444h93q13 -144 166 -144q74 0 118.5 39.5t63.5 104.5h94q-23 -108 -101.5 -172t-187.5 -64q-113 0 -179.5 65t-66.5 161v10z" />
    <glyph glyph-name="uni04D2" unicode="&#x4d2;" horiz-adv-x="1269" 
d="M41 0l795 1434h143l291 -1434h-88l-82 399h-742l-221 -399h-96zM408 492h675l-170 839h-41zM707 1690l18 112h113l-19 -112h-112zM1055 1690l18 112h113l-19 -112h-112z" />
    <glyph glyph-name="uni04D3" unicode="&#x4d3;" horiz-adv-x="1095" 
d="M862 0l10 184h-10q-26 -51 -84 -102q-118 -102 -284 -102q-143 0 -229.5 78t-86.5 192q0 163 105.5 258.5t302.5 95.5h360l6 37q9 41 9 80q0 108 -69.5 169.5t-211.5 61.5q-233 0 -299 -225h-94q89 317 409 317q169 0 264 -83t95 -224q0 -47 -11 -104l-110 -633h-72z
M922 461l10 51h-367q-143 0 -219 -67t-76 -177q0 -82 60.5 -139t163.5 -57q160 0 275.5 105.5t152.5 283.5zM553 1290l18 113h113l-18 -113h-113zM901 1290l19 113h112l-18 -113h-113z" />
    <glyph glyph-name="uni04D6" unicode="&#x4d6;" horiz-adv-x="1239" 
d="M205 0l252 1434h891l-17 -93h-799l-100 -573h758l-16 -92h-758l-105 -584h799l-14 -92h-891zM666 1843h92q13 -143 166 -143q141 0 182 143h94q-23 -108 -101.5 -171.5t-187.5 -63.5q-113 0 -179 64.5t-66 160.5v10z" />
    <glyph glyph-name="uni04D7" unicode="&#x4d7;" horiz-adv-x="1146" 
d="M971 287h92q-44 -94 -102 -154q-138 -153 -353 -153q-191 0 -307.5 117.5t-116.5 318.5q0 140 46 260.5t121.5 199.5t172.5 123.5t199 44.5q186 0 303 -119t117 -315q0 -57 -8 -98l-7 -41h-852v-39q0 -170 92 -265t248 -95q161 0 271 106q45 40 84 109zM291 563h760v31
q0 165 -93.5 261.5t-248.5 96.5q-86 0 -159.5 -34t-124.5 -91t-85 -124t-49 -140zM522 1444h92q13 -144 166 -144q74 0 119 39.5t64 104.5h94q-23 -108 -101.5 -172t-187.5 -64q-113 0 -179.5 65t-66.5 161v10z" />
    <glyph glyph-name="uni04D8" unicode="&#x4d8;" horiz-adv-x="1566" 
d="M250 709l8 49h1219q4 15 4 61q0 241 -139.5 392t-370.5 151q-179 0 -327.5 -99.5t-229.5 -258.5h-99q92 196 267.5 323t398.5 127q259 0 425.5 -174.5t166.5 -448.5q0 -149 -42.5 -284.5t-116 -237t-169 -177t-205 -114t-219.5 -38.5q-124 0 -232 46t-184 126t-119.5 193
t-43.5 243q0 88 8 121zM1466 666h-1120q-4 -36 -4 -70q0 -118 39.5 -217.5t106 -166t155.5 -103.5t188 -37q220 0 399.5 164t235.5 430z" />
    <glyph glyph-name="uni04D9" unicode="&#x4d9;" horiz-adv-x="1146" 
d="M195 512l6 41h852v39q0 170 -92 265t-248 95q-159 0 -271 -108q-44 -39 -84 -107h-92q43 92 103 154q145 153 352 153q191 0 307.5 -117.5t116.5 -318.5q0 -141 -46 -261.5t-121.5 -199.5t-172 -123t-199.5 -44q-186 0 -302 119t-116 315q0 62 7 98zM1038 461h-759v-31
q0 -165 93.5 -261.5t248.5 -96.5q86 0 159.5 34t124.5 91t84.5 124t48.5 140z" />
    <glyph glyph-name="uni04DA" unicode="&#x4da;" horiz-adv-x="1566" 
d="M250 709l8 49h1219q4 15 4 61q0 241 -139.5 392t-370.5 151q-179 0 -327.5 -99.5t-229.5 -258.5h-99q92 196 267.5 323t398.5 127q259 0 425.5 -174.5t166.5 -448.5q0 -149 -42.5 -284.5t-116 -237t-169 -177t-205 -114t-219.5 -38.5q-124 0 -232 46t-184 126t-119.5 193
t-43.5 243q0 88 8 121zM1466 666h-1120q-4 -36 -4 -70q0 -118 39.5 -217.5t106 -166t155.5 -103.5t188 -37q220 0 399.5 164t235.5 430zM817 1690l19 112h112l-18 -112h-113zM1165 1690l19 112h112l-18 -112h-113z" />
    <glyph glyph-name="uni04DB" unicode="&#x4db;" horiz-adv-x="1146" 
d="M195 512l6 41h852v39q0 170 -92 265t-248 95q-159 0 -271 -108q-44 -39 -84 -107h-92q43 92 103 154q145 153 352 153q191 0 307.5 -117.5t116.5 -318.5q0 -141 -46 -261.5t-121.5 -199.5t-172 -123t-199.5 -44q-186 0 -302 119t-116 315q0 62 7 98zM1038 461h-759v-31
q0 -165 93.5 -261.5t248.5 -96.5q86 0 159.5 34t124.5 91t84.5 124t48.5 140zM553 1290l18 113h113l-18 -113h-113zM901 1290l19 113h112l-18 -113h-113z" />
    <glyph glyph-name="uni04DC" unicode="&#x4dc;" horiz-adv-x="1628" 
d="M6 0l785 739l-472 695h115l463 -686l121 686h92l-121 -686l705 686h131l-738 -715l512 -719h-116l-502 707l-123 -707h-92l123 707l-748 -707h-135zM881 1690l18 112h113l-19 -112h-112zM1229 1690l18 112h113l-19 -112h-112z" />
    <glyph glyph-name="uni04DD" unicode="&#x4dd;" horiz-adv-x="1290" 
d="M10 0l590 528l-367 496h109l354 -481l86 481h92l-86 -481l527 481h119l-557 -508l397 -516h-109l-383 502l-88 -502h-92l88 502l-559 -502h-121zM641 1290l18 113h113l-18 -113h-113zM989 1290l19 113h112l-18 -113h-113z" />
    <glyph glyph-name="uni04DE" unicode="&#x4de;" horiz-adv-x="1239" 
d="M166 389h92q-2 -14 -2 -29q0 -122 107 -205t292 -83q104 0 187.5 28t136 75.5t80.5 109t28 129.5q0 114 -86 188t-223 74h-157l16 92h213q137 0 230.5 91t93.5 216q0 127 -95.5 207t-267.5 80q-171 0 -273.5 -82t-125.5 -236h-93q29 190 157.5 300t350.5 110
q194 0 316.5 -101t122.5 -270q0 -59 -15 -111.5t-39 -89t-54 -66.5t-59.5 -48.5t-54.5 -31t-40.5 -17.5t-16.5 -4l-2 -10q55 -22 96 -60q99 -95 99 -233q0 -90 -35.5 -168t-100.5 -137t-165.5 -93t-223.5 -34q-233 0 -362 101.5t-129 266.5q0 18 2 41zM645 1690l19 112h112
l-18 -112h-113zM993 1690l19 112h112l-18 -112h-113z" />
    <glyph glyph-name="uni04DF" unicode="&#x4df;" horiz-adv-x="952" 
d="M145 317h93q-2 -14 -2 -28q0 -101 75.5 -159t214.5 -58q74 0 131 19t89.5 51t48.5 68t16 75q0 77 -64 131.5t-192 54.5h-82l16 92h127q119 0 190 61t71 142q0 74 -69 130t-190 56q-118 0 -192 -65t-94 -170h-92q20 150 128.5 238.5t258.5 88.5q153 0 247.5 -79t94.5 -183
q0 -137 -107 -213q-48 -36 -104 -53v-10q35 -13 71 -41q74 -59 74 -166q0 -139 -105 -229t-288 -90q-173 0 -270 84.5t-97 211.5q0 23 2 41zM461 1290l18 113h113l-19 -113h-112zM809 1290l18 113h113l-18 -113h-113z" />
    <glyph glyph-name="uni04E0" unicode="&#x4e0;" horiz-adv-x="1198" 
d="M125 369h92v-21q0 -120 107 -198t297 -78q183 0 299 106t116 273q0 129 -99.5 213t-277.5 84h-186l16 92l625 501h-762l17 93h901l-17 -93l-612 -491l-2 -10h41q207 0 327.5 -101.5t120.5 -267.5q0 -225 -143.5 -358t-376.5 -133q-235 0 -360 101.5t-125 256.5q0 8 2 31z
" />
    <glyph glyph-name="uni04E1" unicode="&#x4e1;" horiz-adv-x="983" 
d="M74 -31h92q-2 -18 -2 -30q0 -111 86.5 -194t220.5 -83q153 0 260 113.5t107 275.5q0 132 -94.5 209.5t-262.5 77.5h-114l16 92l551 502h-627l17 92h747l-16 -92l-541 -492v-10q199 -8 307.5 -103.5t108.5 -265.5q0 -213 -137.5 -352t-341.5 -139q-163 0 -271 103
t-108 245q0 28 2 51z" />
    <glyph glyph-name="uni04E2" unicode="&#x4e2;" horiz-adv-x="1495" 
d="M205 0l252 1434h92l-238 -1342h35l1012 1342h184l-252 -1434h-92l236 1341h-35l-1010 -1341h-184zM727 1679l16 93h553l-16 -93h-553z" />
    <glyph glyph-name="uni04E3" unicode="&#x4e3;" horiz-adv-x="1177" 
d="M184 0l181 1024h92l-166 -932h37l661 932h185l-181 -1024h-92l164 932h-37l-659 -932h-185zM522 1280l17 92h553l-17 -92h-553z" />
    <glyph glyph-name="uni04E4" unicode="&#x4e4;" horiz-adv-x="1495" 
d="M205 0l252 1434h92l-238 -1342h35l1012 1342h184l-252 -1434h-92l236 1341h-35l-1010 -1341h-184zM788 1690l19 112h113l-19 -112h-113zM1137 1690l18 112h113l-19 -112h-112z" />
    <glyph glyph-name="uni04E5" unicode="&#x4e5;" horiz-adv-x="1177" 
d="M184 0l181 1024h92l-166 -932h37l661 932h185l-181 -1024h-92l164 932h-37l-659 -932h-185zM573 1290l19 113h113l-19 -113h-113zM922 1290l18 113h113l-19 -113h-112z" />
    <glyph glyph-name="uni04E6" unicode="&#x4e6;" horiz-adv-x="1576" 
d="M993 1454q260 0 425 -174t165 -449q0 -187 -65.5 -349.5t-172.5 -270.5t-242.5 -169.5t-277.5 -61.5q-260 0 -424.5 173.5t-164.5 448.5q0 151 42.5 286.5t116 237t169 176.5t206 113.5t223.5 38.5zM983 1362q-121 0 -238 -54t-210 -149t-150 -239t-57 -310
q0 -238 143 -388t365 -150q97 0 192 33.5t178 99t147 155t101 209.5t37 254q0 238 -143 388.5t-365 150.5zM827 1690l19 112h112l-18 -112h-113zM1176 1690l18 112h113l-19 -112h-112z" />
    <glyph glyph-name="uni04E7" unicode="&#x4e7;" horiz-adv-x="1146" 
d="M725 1044q186 0 303 -119.5t117 -318.5q0 -140 -46 -260t-122.5 -199t-173.5 -123t-199 -44q-186 0 -303 119.5t-117 318.5q0 140 46 260t122.5 199t173.5 123t199 44zM614 72q83 0 161 35.5t140.5 100.5t100 166t37.5 222q0 163 -94 259.5t-244 96.5q-83 0 -161 -35.5
t-140.5 -100.5t-100 -166t-37.5 -222q0 -163 94 -259.5t244 -96.5zM553 1290l18 113h113l-18 -113h-113zM901 1290l19 113h112l-18 -113h-113z" />
    <glyph glyph-name="uni04E8" unicode="&#x4e8;" horiz-adv-x="1576" 
d="M825 -20q-260 0 -424.5 173.5t-164.5 448.5q0 151 42.5 286.5t116 237t169 176.5t206 113.5t223.5 38.5q260 0 425 -174t165 -449q0 -187 -65.5 -349.5t-172.5 -270.5t-242.5 -169.5t-277.5 -61.5zM340 758h1149q2 25 2 65q0 238 -143 388.5t-365 150.5q-108 0 -214 -43
t-193.5 -119.5t-150.5 -191.5t-85 -250zM1479 676h-1149q-2 -25 -2 -66q0 -238 143 -388t365 -150q146 0 280.5 71.5t233.5 211.5t129 321z" />
    <glyph glyph-name="uni04E9" unicode="&#x4e9;" horiz-adv-x="1146" 
d="M604 -20q-186 0 -303 119.5t-117 318.5q0 140 46 260t122.5 199t173.5 123t199 44q186 0 303 -119.5t117 -318.5q0 -140 -46 -260t-122.5 -199t-173.5 -123t-199 -44zM287 553h764q0 7 1 21.5t1 21.5q0 163 -94 259.5t-244 96.5q-97 0 -184.5 -45.5t-153.5 -137.5
t-90 -216zM1042 471h-763q0 -7 -1.5 -21.5t-1.5 -21.5q0 -163 94 -259.5t244 -96.5q97 0 184.5 45.5t153.5 137.5t90 216z" />
    <glyph glyph-name="uni04EA" unicode="&#x4ea;" horiz-adv-x="1576" 
d="M825 -20q-260 0 -424.5 173.5t-164.5 448.5q0 151 42.5 286.5t116 237t169 176.5t206 113.5t223.5 38.5q260 0 425 -174t165 -449q0 -187 -65.5 -349.5t-172.5 -270.5t-242.5 -169.5t-277.5 -61.5zM340 758h1149q2 25 2 65q0 238 -143 388.5t-365 150.5q-108 0 -214 -43
t-193.5 -119.5t-150.5 -191.5t-85 -250zM1479 676h-1149q-2 -25 -2 -66q0 -238 143 -388t365 -150q146 0 280.5 71.5t233.5 211.5t129 321zM827 1690l19 112h112l-18 -112h-113zM1176 1690l18 112h113l-19 -112h-112z" />
    <glyph glyph-name="uni04EB" unicode="&#x4eb;" horiz-adv-x="1146" 
d="M604 -20q-186 0 -303 119.5t-117 318.5q0 140 46 260t122.5 199t173.5 123t199 44q186 0 303 -119.5t117 -318.5q0 -140 -46 -260t-122.5 -199t-173.5 -123t-199 -44zM287 553h764q0 7 1 21.5t1 21.5q0 163 -94 259.5t-244 96.5q-97 0 -184.5 -45.5t-153.5 -137.5
t-90 -216zM1042 471h-763q0 -7 -1.5 -21.5t-1.5 -21.5q0 -163 94 -259.5t244 -96.5q97 0 184.5 45.5t153.5 137.5t90 216zM553 1290l18 113h113l-18 -113h-113zM901 1290l19 113h112l-18 -113h-113z" />
    <glyph glyph-name="uni04EC" unicode="&#x4ec;" horiz-adv-x="1536" 
d="M209 471h92q23 -111 86 -201q145 -198 406 -198q151 0 288 75t233.5 214t125.5 315h-768l16 92h760q2 18 2 57q0 243 -143.5 390t-372.5 147q-255 0 -438 -195q-80 -83 -134 -194h-100q61 131 160 239q218 242 524 242q262 0 429 -171t167 -447q0 -187 -65 -349.5
t-171 -272t-242 -172t-278 -62.5q-322 0 -481 245q-68 105 -96 246zM776 1690l19 112h112l-18 -112h-113zM1124 1690l19 112h112l-18 -112h-113z" />
    <glyph glyph-name="uni04ED" unicode="&#x4ed;" horiz-adv-x="1105" 
d="M168 338h92q12 -75 49 -133q84 -133 266 -133q67 0 133 25.5t124 72.5t102.5 122.5t64.5 168.5h-493l16 92h490v43q0 164 -92.5 260t-243.5 96q-162 0 -279 -129q-53 -56 -80 -127h-94q41 102 101 174q142 174 358 174q190 0 306 -118t116 -318q0 -142 -46 -262.5
t-121.5 -199t-172 -122.5t-199.5 -44q-130 0 -214 50.5t-126 127.5q-45 77 -57 180zM516 1290l19 113h112l-18 -113h-113zM864 1290l19 113h112l-18 -113h-113z" />
    <glyph glyph-name="uni04EE" unicode="&#x4ee;" horiz-adv-x="1208" 
d="M178 0l15 92h167q51 0 75.5 15.5t51.5 56.5l103 168l-324 1102h96l283 -953h45l596 953h107l-828 -1321q-36 -59 -75.5 -86t-116.5 -27h-195zM561 1679l17 93h552l-16 -93h-553z" />
    <glyph glyph-name="uni04EF" unicode="&#x4ef;" horiz-adv-x="942" 
d="M31 -410l16 93h160q38 0 59 16t47 65l95 181l-215 1079h88l178 -901h41l477 901h96l-692 -1311q-35 -67 -73 -95t-111 -28h-166zM367 1280l16 92h553l-16 -92h-553z" />
    <glyph glyph-name="uni04F0" unicode="&#x4f0;" horiz-adv-x="1208" 
d="M178 0l15 92h167q51 0 75.5 15.5t51.5 56.5l103 168l-324 1102h96l283 -953h45l596 953h107l-828 -1321q-36 -59 -75.5 -86t-116.5 -27h-195zM604 1690l19 112h112l-18 -112h-113zM952 1690l19 112h112l-18 -112h-113z" />
    <glyph glyph-name="uni04F1" unicode="&#x4f1;" horiz-adv-x="942" 
d="M31 -410l16 93h160q38 0 59 16t47 65l95 181l-215 1079h88l178 -901h41l477 901h96l-692 -1311q-35 -67 -73 -95t-111 -28h-166zM418 1290l18 113h113l-19 -113h-112zM766 1290l18 113h113l-18 -113h-113z" />
    <glyph glyph-name="uni04F2" unicode="&#x4f2;" horiz-adv-x="1208" 
d="M178 0l15 92h167q51 0 75.5 15.5t51.5 56.5l103 168l-324 1102h96l283 -953h45l596 953h107l-828 -1321q-36 -59 -75.5 -86t-116.5 -27h-195zM614 1608l217 245h109l-238 -245h-88zM881 1608l217 245h108l-237 -245h-88z" />
    <glyph glyph-name="uni04F3" unicode="&#x4f3;" horiz-adv-x="942" 
d="M31 -410l16 93h160q38 0 59 16t47 65l95 181l-215 1079h88l178 -901h41l477 901h96l-692 -1311q-35 -67 -73 -95t-111 -28h-166zM455 1217l217 245h108l-237 -245h-88zM721 1217l217 245h109l-238 -245h-88z" />
    <glyph glyph-name="uni04F4" unicode="&#x4f4;" horiz-adv-x="1382" 
d="M1085 0l107 616q-46 -30 -121 -57q-147 -57 -315 -57q-437 0 -437 370q0 65 17 162l70 400h92l-72 -408q-16 -102 -16 -143q0 -144 88 -216.5t274 -72.5q172 0 322 61q67 27 116 64l127 715h93l-252 -1434h-93zM727 1690l18 112h113l-18 -112h-113zM1075 1690l19 112h112
l-18 -112h-113z" />
    <glyph glyph-name="uni04F5" unicode="&#x4f5;" horiz-adv-x="1095" 
d="M819 0l72 406q-33 -20 -76 -35q-101 -33 -221 -33q-166 0 -254 80.5t-88 218.5q0 45 10 100l51 287h93l-54 -295q-8 -41 -8 -82q0 -217 270 -217q114 0 215 37q28 9 76 39l94 518h93l-181 -1024h-92zM512 1290l18 113h113l-18 -113h-113zM860 1290l19 113h112l-18 -113
h-113z" />
    <glyph glyph-name="uni04F6" unicode="&#x4f6;" horiz-adv-x="1116" 
d="M315 -297l54 297h-164l252 1434h850l-17 -93h-758l-221 -1249h164l-67 -389h-93z" />
    <glyph glyph-name="uni04F7" unicode="&#x4f7;" horiz-adv-x="849" 
d="M293 -246l45 246h-154l181 1024h614l-16 -92h-523l-149 -840h153l-59 -338h-92z" />
    <glyph glyph-name="uni04F8" unicode="&#x4f8;" horiz-adv-x="1638" 
d="M1341 0l252 1434h93l-252 -1434h-93zM205 0l252 1434h92l-98 -553h389q174 0 277.5 -102t103.5 -263q0 -95 -25.5 -178t-70.5 -144t-104.5 -105.5t-129 -66.5t-143.5 -22h-543zM311 92h447q157 0 263.5 114.5t106.5 295.5q0 128 -78 207t-221 79h-395zM868 1690l19 112
h112l-18 -112h-113zM1217 1690l18 112h113l-19 -112h-112z" />
    <glyph glyph-name="uni04F9" unicode="&#x4f9;" horiz-adv-x="1372" 
d="M1096 0l180 1024h92l-180 -1024h-92zM184 0l181 1024h92l-66 -369h285q148 0 228.5 -79t80.5 -203q0 -167 -104 -270t-256 -103h-441zM291 92h334q118 0 193 72.5t75 193.5q0 90 -58 147.5t-169 57.5h-291zM668 1290l18 113h113l-19 -113h-112zM1016 1290l18 113h113
l-19 -113h-112z" />
    <glyph glyph-name="uni04FA" unicode="&#x4fa;" horiz-adv-x="1095" 
d="M178 -379l15 82h32q49 0 74.5 31.5t42.5 122.5l27 143h-164l121 686h-164l16 92h164l115 656h829l-16 -93h-738l-98 -563h400l-17 -92h-399l-107 -594h164l-41 -235q-24 -136 -70 -186t-139 -50h-47z" />
    <glyph glyph-name="uni04FB" unicode="&#x4fb;" horiz-adv-x="849" 
d="M164 -340l16 94h21q50 0 76 27.5t38 95.5l23 123h-154l80 461h-143l16 92h144l84 471h614l-16 -92h-523l-67 -379h370l-16 -92h-371l-65 -369h153l-38 -231q-19 -109 -67.5 -155t-123.5 -46h-51z" />
    <glyph glyph-name="uni04FC" unicode="&#x4fc;" horiz-adv-x="1249" 
d="M31 0l631 737l-349 697h105l309 -625h41l530 625h121l-594 -697l281 -553q86 -174 86 -297q0 -135 -68 -216t-202 -81h-64l16 93h58q158 0 158 190q0 122 -91 311l-239 482h-41l-567 -666h-121z" />
    <glyph glyph-name="uni04FD" unicode="&#x4fd;" horiz-adv-x="921" 
d="M20 0l433 522l-242 502h102l213 -440h41l369 440h115l-422 -502l190 -393q58 -119 58 -244q0 -135 -75 -215t-198 -80h-53l16 93h45q89 0 130.5 53t41.5 160q0 89 -55 206l-172 359h-41l-381 -461h-115z" />
    <glyph glyph-name="uni04FE" unicode="&#x4fe;" horiz-adv-x="1249" 
d="M31 0l596 696h-271l17 82h270l-330 656h105l309 -625h41l530 625h121l-559 -656h270l-16 -82h-270l354 -696h-104l-334 666h-41l-567 -666h-121z" />
    <glyph glyph-name="uni04FF" unicode="&#x4ff;" horiz-adv-x="921" 
d="M20 0l392 471h-176l16 92h182l-223 461h102l213 -440h41l369 440h115l-387 -461h182l-17 -92h-176l228 -471h-103l-221 461h-41l-381 -461h-115z" />
    <glyph glyph-name="uni0510" unicode="&#x510;" horiz-adv-x="1239" 
d="M477 731l2 10q-59 27 -111.5 101.5t-52.5 187.5q0 83 35.5 159t99 135t161 94.5t212.5 35.5q217 0 337 -104.5t120 -253.5q0 -17 -2 -31h-92v20q0 115 -98.5 196t-284.5 81q-176 0 -285.5 -95.5t-109.5 -242.5q0 -108 75 -182t207 -74h156l-17 -92h-200q-157 0 -263 -91
t-106 -218q0 -58 25.5 -110t75 -93.5t130 -66.5t181.5 -25q182 0 287.5 82.5t132.5 214.5h92q-14 -80 -50.5 -147.5t-96.5 -123t-154 -87t-213 -31.5q-244 0 -373 104.5t-129 271.5q0 77 28.5 144t76 112t99 74.5t105.5 44.5z" />
    <glyph glyph-name="uni0511" unicode="&#x511;" horiz-adv-x="952" 
d="M385 526v11q-40 15 -68 43q-67 59 -67 159q0 124 100.5 214.5t278.5 90.5q165 0 258.5 -82.5t93.5 -203.5v-21h-94v11q0 78 -70.5 141t-204.5 63q-135 0 -202.5 -62.5t-67.5 -141.5q0 -75 60 -130t180 -55h77l-16 -92h-123q-138 0 -211 -61t-73 -146q0 -80 75 -136
t221 -56q117 0 196 59t99 166h93q-23 -149 -129 -233t-275 -84q-180 0 -276.5 80t-96.5 196q0 148 121 223q53 35 121 47z" />
    <glyph glyph-name="uni0512" unicode="&#x512;" horiz-adv-x="1394" 
d="M10 -10l17 92h57q90 0 143 51t80 154l305 1147h830l-279 -1577q-25 -140 -87.5 -203.5t-172.5 -63.5h-53l16 93h37q70 0 111 43t59 141l260 1474h-655l-279 -1054q-42 -160 -118 -228.5t-207 -68.5h-64z" />
    <glyph glyph-name="uni0513" unicode="&#x513;" horiz-adv-x="1116" 
d="M10 -10l17 92h47q85 0 129 40t69 134l197 768h645l-205 -1157q-26 -146 -89 -211.5t-173 -65.5h-53l16 93h37q70 0 111 43t59 141l189 1065h-471l-170 -676q-34 -136 -98 -201t-183 -65h-74z" />
    <glyph glyph-name="Wgrave" unicode="&#x1e80;" horiz-adv-x="1884" 
d="M383 0l-107 1434h89l96 -1342h45l575 1342h164l101 -1342h45l571 1342h96l-610 -1434h-176l-103 1341h-41l-573 -1341h-172zM1114 1608l-151 245h102l131 -245h-82z" />
    <glyph glyph-name="wgrave" unicode="&#x1e81;" horiz-adv-x="1495" 
d="M309 0l-96 1024h88l82 -922h41l399 922h164l72 -922h41l409 922h97l-457 -1024h-164l-74 922h-41l-397 -922h-164zM848 1208l-152 246h103l131 -246h-82z" />
    <glyph glyph-name="Wacute" unicode="&#x1e82;" horiz-adv-x="1884" 
d="M383 0l-107 1434h89l96 -1342h45l575 1342h164l101 -1342h45l571 1342h96l-610 -1434h-176l-103 1341h-41l-573 -1341h-172zM1137 1608l217 245h108l-237 -245h-88z" />
    <glyph glyph-name="wacute" unicode="&#x1e83;" horiz-adv-x="1495" 
d="M309 0l-96 1024h88l82 -922h41l399 922h164l72 -922h41l409 922h97l-457 -1024h-164l-74 922h-41l-397 -922h-164zM874 1208l218 246h108l-237 -246h-89z" />
    <glyph glyph-name="Wdieresis" unicode="&#x1e84;" horiz-adv-x="1884" 
d="M383 0l-107 1434h89l96 -1342h45l575 1342h164l101 -1342h45l571 1342h96l-610 -1434h-176l-103 1341h-41l-573 -1341h-172zM952 1690l19 112h112l-18 -112h-113zM1300 1690l19 112h113l-19 -112h-113z" />
    <glyph glyph-name="wdieresis" unicode="&#x1e85;" horiz-adv-x="1495" 
d="M309 0l-96 1024h88l82 -922h41l399 922h164l72 -922h41l409 922h97l-457 -1024h-164l-74 922h-41l-397 -922h-164zM696 1290l19 113h112l-18 -113h-113zM1044 1290l19 113h113l-19 -113h-113z" />
    <glyph glyph-name="uni1E9E" unicode="&#x1e9e;" horiz-adv-x="1382" 
d="M195 0l186 1055q32 185 139.5 282t278.5 97h671l-14 -82l-567 -523l-2 -10h35q189 0 302 -100.5t113 -255.5q0 -97 -34 -181.5t-96 -147t-154.5 -98.5t-202.5 -36h-225l14 92h221q179 0 282 100.5t103 253.5q0 125 -93.5 203t-240.5 78h-159l18 102l555 512h-537
q-131 0 -210.5 -72.5t-104.5 -213.5l-186 -1055h-92z" />
    <glyph glyph-name="Ygrave" unicode="&#x1ef2;" horiz-adv-x="1198" 
d="M522 0l92 532l-372 902h94l315 -768h51l586 768h111l-692 -902l-93 -532h-92zM786 1608l-151 245h102l131 -245h-82z" />
    <glyph glyph-name="ygrave" unicode="&#x1ef3;" horiz-adv-x="942" 
d="M31 -410l16 93h160q38 0 59 16t47 65l95 181l-215 1079h88l178 -901h41l477 901h96l-692 -1311q-35 -67 -73 -95t-111 -28h-166zM586 1208l-152 246h103l131 -246h-82z" />
    <glyph glyph-name="endash" unicode="&#x2013;" horiz-adv-x="1146" 
d="M174 543l16 92h963l-16 -92h-963z" />
    <glyph glyph-name="emdash" unicode="&#x2014;" horiz-adv-x="1505" 
d="M174 543l16 92h1321l-16 -92h-1321z" />
    <glyph glyph-name="quoteleft" unicode="&#x2018;" horiz-adv-x="430" 
d="M297 1137l135 297h82l-104 -297h-113z" />
    <glyph glyph-name="quoteright" unicode="&#x2019;" horiz-adv-x="430" 
d="M317 1137l105 297h113l-136 -297h-82z" />
    <glyph glyph-name="quotesinglbase" unicode="&#x201a;" horiz-adv-x="430" 
d="M82 -174l102 297h113l-133 -297h-82z" />
    <glyph glyph-name="quotedblleft" unicode="&#x201c;" horiz-adv-x="645" 
d="M297 1137l135 297h82l-104 -297h-113zM512 1137l135 297h82l-104 -297h-113z" />
    <glyph glyph-name="quotedblright" unicode="&#x201d;" horiz-adv-x="645" 
d="M317 1137l105 297h113l-136 -297h-82zM532 1137l105 297h113l-136 -297h-82z" />
    <glyph glyph-name="quotedblbase" unicode="&#x201e;" horiz-adv-x="645" 
d="M82 -174l102 297h113l-133 -297h-82zM297 -174l102 297h113l-133 -297h-82z" />
    <glyph glyph-name="dagger" unicode="&#x2020;" horiz-adv-x="972" 
d="M410 0l172 983h-328l16 92h328l64 359h92l-64 -359h328l-17 -92h-327l-172 -983h-92z" />
    <glyph glyph-name="daggerdbl" unicode="&#x2021;" horiz-adv-x="972" 
d="M410 0l75 430h-327l14 92h328l82 461h-328l16 92h328l64 359h92l-64 -359h328l-17 -92h-327l-82 -461h328l-15 -92h-327l-76 -430h-92z" />
    <glyph glyph-name="bullet" unicode="&#x2022;" horiz-adv-x="778" 
d="M338 535q0 68 47 114.5t111 46.5q60 0 96.5 -34.5t36.5 -90.5q0 -68 -47 -114.5t-111 -46.5q-60 0 -96.5 34.5t-36.5 90.5z" />
    <glyph glyph-name="ellipsis" unicode="&#x2026;" horiz-adv-x="1269" 
d="M154 0l20 123h123l-21 -123h-122zM573 0l21 123h123l-21 -123h-123zM993 0l21 123h123l-21 -123h-123z" />
    <glyph glyph-name="perthousand" unicode="&#x2030;" horiz-adv-x="2334" 
d="M276 0l1154 1434h116l-1153 -1434h-117zM631 1454q124 0 202 -77.5t78 -196.5q0 -155 -103 -258t-243 -103q-124 0 -202 78t-78 197q0 155 103 257.5t243 102.5zM623 1362q-96 0 -169 -72.5t-73 -183.5q0 -86 54.5 -140.5t142.5 -54.5q96 0 168.5 72t72.5 184
q0 87 -54.5 141t-141.5 54zM911 254q0 155 103 257.5t243 102.5q124 0 202.5 -77.5t78.5 -196.5q0 -155 -103 -257.5t-243 -102.5q-124 0 -202.5 77.5t-78.5 196.5zM1004 266q0 -86 54 -140t142 -54q96 0 169 72.5t73 183.5q0 86 -54.5 140t-142.5 54q-96 0 -168.5 -72
t-72.5 -184zM1667 254q0 155 103 257.5t243 102.5q124 0 202.5 -77.5t78.5 -196.5q0 -155 -103 -257.5t-243 -102.5q-124 0 -202.5 77.5t-78.5 196.5zM1759 266q0 -86 54.5 -140t142.5 -54q96 0 169 72.5t73 183.5q0 86 -54.5 140t-142.5 54q-96 0 -169 -72.5t-73 -183.5z
" />
    <glyph glyph-name="guilsinglleft" unicode="&#x2039;" horiz-adv-x="624" 
d="M403 133l-208 379l342 379h110l-350 -387l205 -371h-99z" />
    <glyph glyph-name="guilsinglright" unicode="&#x203a;" horiz-adv-x="624" 
d="M154 133l350 387l-205 371h98l209 -379l-342 -379h-110z" />
    <glyph glyph-name="uni203D" unicode="&#x203d;" horiz-adv-x="1044" 
d="M473 328l182 1032q-133 -7 -225 -96.5t-100 -208.5h-94q30 180 153 289.5t309 109.5q171 0 285.5 -105t114.5 -255q0 -83 -22 -149.5t-66.5 -117t-96 -87t-125.5 -74.5q-103 -51 -146.5 -96t-55.5 -119l-21 -123h-92zM745 1358l-120 -688q43 27 102 57q93 45 150.5 90
t93 112.5t35.5 155.5q0 105 -69.5 180t-191.5 93zM406 0l20 123h113l-21 -123h-112z" />
    <glyph glyph-name="fraction" unicode="&#x2044;" horiz-adv-x="245" 
d="M-389 0l1132 1434h111l-1135 -1434h-108z" />
    <glyph glyph-name="uni2070" unicode="&#x2070;" horiz-adv-x="716" 
d="M612 1649q108 0 173 -72t65 -207q0 -116 -30.5 -210t-80 -151t-107.5 -87.5t-118 -30.5q-108 0 -173 71.5t-65 206.5q0 116 30.5 210t80 151.5t108 88t117.5 30.5zM522 983q40 0 80 22.5t76 66t59 120.5t23 174q0 94 -43 142t-113 48q-40 0 -80 -22.5t-76 -66t-58.5 -120
t-22.5 -173.5q0 -94 43 -142.5t112 -48.5z" />
    <glyph glyph-name="uni2074" unicode="&#x2074;" horiz-adv-x="634" 
d="M215 1065l14 82l375 491h154l-86 -481h102l-16 -92h-103l-28 -164h-92l28 164h-348zM350 1157h230l67 379h-14l-281 -369z" />
    <glyph glyph-name="uni2075" unicode="&#x2075;" horiz-adv-x="675" 
d="M266 1106h92q7 -60 50 -91.5t112 -31.5q76 0 126 52t50 126q0 66 -42.5 102.5t-116.5 36.5q-58 0 -107 -30q-14 -10 -35 -31h-96l113 399h419l-16 -92h-338l-53 -190h10q10 7 31 18q55 19 98 19q97 0 161 -61.5t64 -157.5q0 -120 -81.5 -201.5t-202.5 -81.5
q-108 0 -173 59.5t-65 149.5v6z" />
    <glyph glyph-name="uni2076" unicode="&#x2076;" horiz-adv-x="655" 
d="M338 1335l256 303h102l-237 -268h10l14 6q30 6 47 6q103 0 167.5 -61.5t64.5 -155.5q0 -112 -81 -193t-198 -81q-107 0 -172 64t-65 155q0 115 92 225zM516 1290q-77 0 -127.5 -50t-50.5 -120q0 -58 41.5 -97.5t112.5 -39.5q77 0 127.5 50t50.5 120q0 58 -41.5 97.5
t-112.5 39.5z" />
    <glyph glyph-name="uni2077" unicode="&#x2077;" horiz-adv-x="614" 
d="M297 901l401 645h-350l17 92h460l-14 -71l-403 -666h-111z" />
    <glyph glyph-name="uni2078" unicode="&#x2078;" horiz-adv-x="696" 
d="M424 1296l2 11q-27 16 -39 32q-39 39 -39 103q0 84 70 145.5t182 61.5q102 0 163.5 -53t61.5 -128q0 -86 -67 -149q-30 -24 -68 -39l-4 -10q24 -17 41 -37q43 -47 43 -115q0 -98 -70.5 -162.5t-185.5 -64.5q-110 0 -174 56.5t-64 135.5q0 103 74 166q42 33 74 47z
M440 1434q0 -44 37.5 -73.5t106.5 -29.5q65 0 106 35.5t41 87.5q0 44 -37 73t-106 29q-65 0 -106.5 -35t-41.5 -87zM369 1100q0 -54 40 -85.5t111 -31.5q74 0 116 38t42 101q0 54 -40 85.5t-112 31.5q-74 0 -115.5 -38t-41.5 -101z" />
    <glyph glyph-name="uni2079" unicode="&#x2079;" horiz-adv-x="645" 
d="M362 901l238 268h-10l-15 -6q-15 -6 -47 -6q-103 0 -167 61.5t-64 155.5q0 112 80.5 193.5t197.5 81.5q107 0 172.5 -64t65.5 -155q0 -116 -92 -226l-256 -303h-103zM389 1386q0 -58 41.5 -97.5t112.5 -39.5q77 0 127.5 50t50.5 120q0 58 -41.5 97.5t-112.5 39.5
q-77 0 -127.5 -50t-50.5 -120z" />
    <glyph glyph-name="uni2080" unicode="&#x2080;" horiz-adv-x="716" 
d="M438 543q108 0 173 -72t65 -207q0 -116 -30.5 -210t-80 -151t-107.5 -87.5t-118 -30.5q-108 0 -173 71.5t-65 206.5q0 116 30.5 210t80 151.5t108 88t117.5 30.5zM348 -123q40 0 80 22.5t76 66t59 120.5t23 174q0 94 -43 142.5t-113 48.5q-40 0 -80 -22.5t-76 -66
t-58.5 -120.5t-22.5 -174q0 -94 43 -142.5t112 -48.5z" />
    <glyph glyph-name="uni2081" unicode="&#x2081;" horiz-adv-x="532" 
d="M244 -205l94 533h-195l17 92h133q60 0 72 61l10 51h92l-131 -737h-92z" />
    <glyph glyph-name="uni2082" unicode="&#x2082;" horiz-adv-x="686" 
d="M113 -205l14 82l352 307q28 25 42.5 40.5t31 49t16.5 70.5q0 49 -34 78t-91 29q-62 0 -104 -37.5t-55 -106.5h-92q17 111 92.5 173.5t173.5 62.5q85 0 144 -53t59 -142q0 -65 -28 -110.5t-99 -110.5l-261 -229l-2 -11h318l-17 -92h-460z" />
    <glyph glyph-name="uni2083" unicode="&#x2083;" horiz-adv-x="675" 
d="M113 0h94v-12q0 -49 36 -80t117 -31q68 0 107 39.5t39 103.5q0 52 -39 82.5t-107 30.5h-49l17 92h84q62 0 102.5 33.5t40.5 87.5q0 48 -35 76.5t-100 28.5t-100.5 -31t-43.5 -82h-92q11 89 78 147t172 58q95 0 155 -53t60 -128q0 -84 -74 -143q-39 -27 -71 -39l-2 -10
q21 -13 47 -39q49 -53 49 -115q0 -100 -75.5 -165.5t-182.5 -65.5q-103 0 -165 53.5t-62 141.5v20z" />
    <glyph glyph-name="uni2084" unicode="&#x2084;" horiz-adv-x="634" 
d="M41 -41l14 82l375 491h154l-86 -481h102l-16 -92h-103l-28 -164h-93l29 164h-348zM176 51h230l67 379h-14l-281 -369z" />
    <glyph glyph-name="uni2085" unicode="&#x2085;" horiz-adv-x="675" 
d="M102 0h93q7 -60 49.5 -91.5t111.5 -31.5q76 0 126 52t50 126q0 66 -42.5 103t-116.5 37q-56 0 -107 -31q-14 -10 -35 -31h-96l113 399h420l-17 -92h-338l-53 -190h10q10 8 31 18q55 19 98 19q97 0 161.5 -61.5t64.5 -157.5q0 -120 -82 -201.5t-203 -81.5
q-108 0 -173 59.5t-65 149.5v6z" />
    <glyph glyph-name="uni2086" unicode="&#x2086;" horiz-adv-x="655" 
d="M184 229l256 303h103l-238 -268h10l15 6q30 6 47 6q103 0 167 -61.5t64 -155.5q0 -112 -80.5 -193t-197.5 -81q-107 0 -172.5 64t-65.5 155q0 115 92 225zM362 184q-77 0 -127.5 -50t-50.5 -120q0 -58 41.5 -97.5t112.5 -39.5q77 0 127.5 50t50.5 120q0 58 -41.5 97.5
t-112.5 39.5z" />
    <glyph glyph-name="uni2087" unicode="&#x2087;" horiz-adv-x="614" 
d="M123 -205l401 645h-350l16 92h461l-14 -71l-404 -666h-110z" />
    <glyph glyph-name="uni2088" unicode="&#x2088;" horiz-adv-x="696" 
d="M270 190l2 11q-27 16 -39 32q-38 38 -38 103q0 84 69.5 145.5t181.5 61.5q102 0 164 -53t62 -128q0 -85 -68 -149q-30 -24 -67 -39l-5 -10q24 -17 41 -37q43 -47 43 -115q0 -98 -70.5 -162.5t-185.5 -64.5q-110 0 -173.5 56t-63.5 136q0 103 74 166q43 34 73 47zM287 328
q0 -44 37 -73.5t106 -29.5q65 0 106.5 35.5t41.5 87.5q0 44 -37.5 73.5t-106.5 29.5q-65 0 -106 -35.5t-41 -87.5zM215 -6q0 -54 40 -85.5t112 -31.5q74 0 115.5 38t41.5 101q0 54 -40 85.5t-111 31.5q-74 0 -116 -38t-42 -101z" />
    <glyph glyph-name="uni2089" unicode="&#x2089;" horiz-adv-x="645" 
d="M188 -205l238 268h-10l-15 -6q-15 -6 -47 -6q-103 0 -167 61.5t-64 155.5q0 112 80.5 193.5t197.5 81.5q107 0 172.5 -64t65.5 -155q0 -116 -92 -226l-256 -303h-103zM215 281q0 -58 41.5 -98t112.5 -40q77 0 127.5 50t50.5 120q0 58 -41.5 98t-112.5 40
q-77 0 -127.5 -50t-50.5 -120z" />
    <glyph glyph-name="uni20A9" unicode="&#x20a9;" horiz-adv-x="1843" 
d="M416 0l-23 492h-250l17 92h229l-12 266h-170l16 92h150l-23 492h88l23 -492h418l194 492h164l23 -492h419l193 492h96l-194 -492h149l-16 -92h-170l-107 -266h230l-17 -92h-250l-194 -492h-176l-23 492h-418l-194 -492h-172zM473 584h262l107 266h-379zM1276 584h260
l106 266h-378zM819 584h377l-12 266h-258zM1296 92h45l158 400h-219zM494 92h45l159 400h-221zM963 942h217l-19 399h-41z" />
    <glyph glyph-name="Euro" unicode="&#x20ac;" horiz-adv-x="1454" 
d="M133 512l17 92h190v31q0 51 6 82q11 78 14 86l7 26h-179l17 93h188q44 114 112 209t158 168t207 114t248 41q170 0 316 -61q63 -26 114 -62l-16 -92q-42 31 -113 61q-148 62 -317 62q-211 0 -373.5 -123t-239.5 -317h699l-17 -93h-712l-6 -26q-4 -13 -15 -86
q-6 -47 -6 -82v-31h701l-17 -92h-678q17 -95 55.5 -173t101 -139t157 -94.5t213.5 -33.5q155 0 290 43q59 18 107 43l-16 -99q-60 -27 -105 -41q-112 -38 -293 -38q-257 0 -417 147.5t-185 384.5h-213z" />
    <glyph glyph-name="uni20B4" unicode="&#x20b4;" horiz-adv-x="1320" 
d="M258 819l16 92h801q30 27 49 58q50 78 50 153q0 99 -88.5 169.5t-239.5 70.5q-87 0 -151.5 -19t-107.5 -57t-69.5 -83t-46.5 -107h-94q92 358 485 358q171 0 287.5 -91.5t116.5 -236.5q-1 -37 -9.5 -72.5t-20.5 -60t-24.5 -44t-19.5 -29.5l-8 -9h145l-16 -92h-1055z
M205 522l16 92h1055l-16 -92h-801q-31 -28 -49 -57q-50 -78 -50 -154q0 -99 88 -169t240 -70q87 0 151.5 19t107.5 57t69.5 83t46.5 107h94q-92 -358 -485 -358q-171 0 -287.5 91t-116.5 236q1 37 9.5 72.5t20.5 60t24.5 44t19.5 28.5l8 10h-145z" />
    <glyph glyph-name="uni20B8" unicode="&#x20b8;" horiz-adv-x="1208" 
d="M522 0l187 1065h-502l16 92h1096l-16 -92h-502l-187 -1065h-92zM256 1341l16 93h1096l-16 -93h-1096z" />
    <glyph glyph-name="uni20B9" unicode="&#x20b9;" horiz-adv-x="1105" 
d="M195 573l16 93h436q143 0 241 76t128 221h-754l14 81h750v11q0 125 -79 205.5t-208 80.5h-409l16 93h942l-16 -93h-271q35 -28 58 -63q59 -82 59 -203v-31h101l-15 -81h-96q-34 -172 -162 -281t-309 -109h-176l504 -573h-119l-504 573h-147z" />
    <glyph glyph-name="uni20BA" unicode="&#x20ba;" horiz-adv-x="1064" 
d="M217 0l111 635l-174 -62l16 93l174 61l33 184l-174 -61l16 92l174 62l76 430h92l-69 -400l370 133l-16 -92l-371 -133l-33 -184l371 133l-16 -92l-371 -133l-102 -574h157q242 0 351.5 87t142.5 292h92q-37 -250 -174.5 -360.5t-425.5 -110.5h-158h-92z" />
    <glyph glyph-name="uni20BD" unicode="&#x20bd;" horiz-adv-x="1361" 
d="M254 0l53 307h-184l16 92h185l36 215h-184l17 93h184l129 727h553q156 0 256 -94.5t100 -245.5q0 -216 -127.5 -348t-316.5 -132h-518l-37 -215h491l-16 -92h-492l-53 -307h-92zM469 707h512q143 0 242.5 101.5t99.5 270.5q0 117 -73 189.5t-208 72.5h-460z" />
    <glyph glyph-name="uni20BF" unicode="&#x20bf;" horiz-adv-x="1310" 
d="M399 -225l41 225h-235l252 1434h233l41 225h92l-39 -225h195l39 225h92l-41 -234q131 -24 205 -111.5t74 -207.5q0 -195 -136 -309q-58 -52 -135 -76l-2 -10q49 -21 86 -58q88 -84 88 -215q0 -199 -121 -318.5t-309 -119.5l-41 -225h-92l41 225h-195l-40 -225h-93z
M311 92h508q154 0 246 92t92 246q0 112 -73.5 179t-202.5 67h-465zM432 768h490q147 0 239 94.5t92 224.5q0 107 -76.5 180.5t-203.5 73.5h-441z" />
    <glyph glyph-name="uni2113" unicode="&#x2113;" horiz-adv-x="686" 
d="M317 266v266l-51 -16q-54 -14 -112 -14v92q58 0 112 14l51 17v542q0 147 52 217t143 70q205 0 205 -307q0 -222 -77.5 -364t-229.5 -230v-287q0 -97 41 -145.5t112 -48.5q40 0 72 14l31 16v-92l-33 -16q-40 -14 -80 -14q-112 0 -174 71t-62 215zM410 1157v-491
q89 52 152 172.5t63 308.5q0 111 -31 163t-82 52q-43 0 -72.5 -49t-29.5 -156z" />
    <glyph glyph-name="uni2116" unicode="&#x2116;" horiz-adv-x="2170" 
d="M1444 0l14 92h594l-14 -92h-594zM205 0l252 1434h184l496 -1342h45l237 1342h92l-251 -1434h-185l-497 1341h-46l-235 -1341h-92zM1880 922q123 0 201 -77.5t78 -199.5q0 -154 -102 -256t-240 -102q-123 0 -201 77t-78 199q0 154 102 256.5t240 102.5zM1872 829
q-96 0 -169 -72.5t-73 -183.5q0 -87 54 -140.5t141 -53.5q96 0 168.5 72t72.5 184q0 87 -53.5 140.5t-140.5 53.5z" />
    <glyph glyph-name="uni2117" unicode="&#x2117;" horiz-adv-x="1740" 
d="M983 -20q-156 0 -290.5 55t-230.5 151.5t-151 233.5t-55 297t55 297t151 233.5t230.5 151.5t290.5 55t290.5 -55t230.5 -151.5t151 -233.5t55 -297t-55 -297t-151 -233.5t-230.5 -151.5t-290.5 -55zM983 72q137 0 255 48t201.5 132t131 204.5t47.5 260.5t-47.5 260.5
t-131 204.5t-201.5 132t-255 48t-255 -48t-201.5 -132t-131 -204.5t-47.5 -260.5t47.5 -260.5t131 -204.5t201.5 -132t255 -48zM840 707h184q98 0 141 37t43 116t-43 116.5t-141 37.5h-184v-307zM748 338v768h276q137 0 206.5 -63.5t69.5 -182.5t-69.5 -182.5t-206.5 -63.5
h-184v-276h-92z" />
    <glyph glyph-name="trademark" unicode="&#x2122;" horiz-adv-x="1474" 
d="M410 819v533h-195v82h471v-82h-194v-533h-82zM799 819v615h153l185 -512h20l184 512h154v-615h-82v533h-20l-195 -533h-102l-195 533h-20v-533h-82z" />
    <glyph glyph-name="uni2126" unicode="&#x2126;" horiz-adv-x="1679" 
d="M317 0v92h308l-13 6q-13 7 -35.5 21t-51.5 34t-61.5 50t-64.5 66t-61.5 84.5t-52 103t-36 124.5t-13.5 146q0 158 54.5 294.5t148.5 231t224.5 148t278.5 53.5t278.5 -53.5t225 -148t149 -231t54.5 -294.5q0 -75 -13.5 -145t-36 -124.5t-52 -103.5t-61.5 -85t-64.5 -66.5
t-61.5 -50.5t-52 -34t-36 -20l-12 -6h307v-92h-471v92q123 44 229 133q231 197 231 502q0 186 -81 331.5t-220.5 224.5t-312.5 79t-312.5 -79t-220.5 -224.5t-81 -331.5q0 -307 229 -502q106 -89 231 -133v-92h-471z" />
    <glyph glyph-name="estimated" unicode="&#x212e;" horiz-adv-x="1740" 
d="M573 707v-514q48 -43 119 -82q156 -80 332 -80q251 0 438 153q86 70 146 154l51 -31q-66 -94 -160 -164q-211 -163 -475 -163q-158 0 -299 58t-241.5 156.5t-159 235t-58.5 287.5q0 202 98.5 371.5t268 267.5t371.5 98q151 0 287.5 -58t235 -157.5t156.5 -238t58 -293.5
h-1168zM573 768h861v473q-179 162 -430 162q-252 0 -431 -162v-473z" />
    <glyph glyph-name="uni2150" unicode="&#x2150;" horiz-adv-x="1361" 
d="M133 0l1133 1434h110l-1134 -1434h-109zM397 696l95 533h-195l16 92h133q60 0 72 61l10 52h93l-132 -738h-92zM881 0l401 645h-350l16 92h461l-14 -71l-404 -666h-110z" />
    <glyph glyph-name="uni2151" unicode="&#x2151;" horiz-adv-x="1368" 
d="M133 0l1133 1434h110l-1134 -1434h-109zM397 696l95 533h-195l16 92h133q60 0 72 61l10 52h93l-132 -738h-92zM926 0l237 268h-10l-14 -6q-15 -6 -47 -6q-103 0 -167.5 61.5t-64.5 155.5q0 112 81 193.5t198 81.5q107 0 172 -64.5t65 -155.5q0 -115 -92 -225l-256 -303
h-102zM952 485q0 -58 41.5 -97.5t112.5 -39.5q77 0 127.5 50t50.5 120q0 58 -41.5 97.5t-112.5 39.5q-77 0 -127.5 -50t-50.5 -120z" />
    <glyph glyph-name="uni2152" unicode="&#x2152;" horiz-adv-x="1859" 
d="M133 0l1133 1434h110l-1134 -1434h-109zM397 696l95 533h-195l16 92h133q60 0 72 61l10 52h93l-132 -738h-92zM989 0l94 532h-194l16 93h133q60 0 72 61l10 51h92l-131 -737h-92zM1620 748q108 0 173 -72t65 -207q0 -116 -30.5 -210t-80 -151t-107.5 -87.5t-118 -30.5
q-108 0 -173 71.5t-65 206.5q0 116 30.5 210t80 151.5t108 88t117.5 30.5zM1530 82q40 0 80 22.5t76 66t58.5 120.5t22.5 174q0 94 -42.5 142t-112.5 48q-40 0 -80 -22.5t-76 -66t-59 -120.5t-23 -174q0 -94 43 -142t113 -48z" />
    <glyph glyph-name="onethird" unicode="&#x2153;" horiz-adv-x="1372" 
d="M133 0l1133 1434h110l-1134 -1434h-109zM397 696l95 533h-195l16 92h133q60 0 72 61l10 52h93l-132 -738h-92zM823 205h95v-12q0 -49 36 -80t117 -31q68 0 107 39.5t39 103.5q0 52 -39 82.5t-107 30.5h-49l16 92h84q62 0 103 34t41 87q0 48 -35.5 76t-100.5 28
q-125 0 -143 -112h-92q11 89 78 147t172 58q95 0 155 -53t60 -128q0 -84 -74 -143q-38 -26 -72 -39l-2 -10q24 -15 48 -39q49 -53 49 -115q0 -100 -75.5 -165.5t-182.5 -65.5q-103 0 -165.5 53t-62.5 141v21z" />
    <glyph glyph-name="twothirds" unicode="&#x2154;" horiz-adv-x="1515" 
d="M276 0l1133 1434h111l-1135 -1434h-109zM233 696l15 82l352 307q28 25 42.5 40.5t31 49t16.5 70.5q0 49 -34 78t-91 29q-62 0 -104 -37.5t-55 -106.5h-93q17 111 92.5 173.5t174.5 62.5q85 0 143.5 -53t58.5 -142q0 -65 -28 -110.5t-99 -110.5l-260 -229l-2 -11h318
l-17 -92h-461zM967 205h94v-12q0 -49 36 -80t117 -31q68 0 107 39.5t39 103.5q0 52 -39 82.5t-107 30.5h-49l17 92h84q62 0 102.5 33.5t40.5 87.5q0 48 -35 76t-100 28q-126 0 -144 -112h-92q11 89 78 147t172 58q95 0 155 -53t60 -128q0 -85 -73 -143q-38 -26 -72 -39
l-2 -10q21 -13 47 -39q49 -53 49 -115q0 -100 -75.5 -165.5t-182.5 -65.5q-103 0 -165 53t-62 141v21z" />
    <glyph glyph-name="uni2155" unicode="&#x2155;" horiz-adv-x="1386" 
d="M133 0l1133 1434h110l-1134 -1434h-109zM397 696l95 533h-195l16 92h133q60 0 72 61l10 52h93l-132 -738h-92zM827 205h93q7 -60 49.5 -91.5t111.5 -31.5q76 0 126 52t50 126q0 66 -42.5 102.5t-116.5 36.5q-58 0 -107 -30q-14 -10 -35 -31h-96l113 399h420l-17 -92h-338
l-53 -190h10q10 7 31 18q55 19 98 19q97 0 161.5 -62t64.5 -158q0 -120 -82 -201t-203 -81q-108 0 -173 59.5t-65 149.5v6z" />
    <glyph glyph-name="uni2156" unicode="&#x2156;" horiz-adv-x="1529" 
d="M276 0l1133 1434h111l-1135 -1434h-109zM233 696l15 82l352 307q28 25 42.5 40.5t31 49t16.5 70.5q0 49 -34 78t-91 29q-62 0 -104 -37.5t-55 -106.5h-93q17 111 92.5 173.5t174.5 62.5q85 0 143.5 -53t58.5 -142q0 -65 -28 -110.5t-99 -110.5l-260 -229l-2 -11h318
l-17 -92h-461zM973 205h92q7 -60 50 -91.5t112 -31.5q76 0 126 52t50 126q0 65 -43 102t-117 37q-57 0 -106 -30q-14 -10 -35 -31h-96l112 399h420l-16 -92h-338l-54 -190h11q12 9 30 18q55 19 99 19q97 0 161 -62t64 -158q0 -120 -82 -201t-203 -81q-108 0 -172.5 59.5
t-64.5 149.5v6z" />
    <glyph glyph-name="uni2157" unicode="&#x2157;" horiz-adv-x="1513" 
d="M256 0l1133 1434h110l-1134 -1434h-109zM242 901h94v-12q0 -49 36 -80t117 -31q68 0 107 40t39 104q0 51 -39 81.5t-107 30.5h-49l17 92h84q62 0 102.5 33.5t40.5 87.5q0 48 -35 76.5t-100 28.5q-125 0 -143 -113h-93q11 89 78 147t172 58q95 0 155 -53t60 -127
q0 -86 -73 -144q-38 -26 -72 -39l-2 -10q21 -13 47 -39q49 -53 49 -114q0 -100 -75.5 -166t-182.5 -66q-103 0 -165 53.5t-62 141.5v20zM954 205h93q7 -60 49.5 -91.5t111.5 -31.5q76 0 126 52t50 126q0 66 -42.5 102.5t-116.5 36.5q-58 0 -107 -30q-14 -10 -35 -31h-96
l113 399h420l-17 -92h-338l-53 -190h10q10 7 31 18q55 19 98 19q97 0 161.5 -62t64.5 -158q0 -120 -82 -201t-203 -81q-108 0 -173 59.5t-65 149.5v6z" />
    <glyph glyph-name="uni2158" unicode="&#x2158;" horiz-adv-x="1499" 
d="M246 0l1132 1434h111l-1135 -1434h-108zM193 860l14 82l375 492h153l-86 -482h103l-17 -92h-102l-29 -164h-92l29 164h-348zM328 952h229l68 379h-15l-280 -368zM942 205h92q7 -60 50 -91.5t112 -31.5q76 0 126 52t50 126q0 65 -43 102t-117 37q-57 0 -106 -30
q-14 -10 -35 -31h-96l112 399h420l-16 -92h-338l-53 -190h10q10 7 31 18q55 19 98 19q97 0 161 -62t64 -158q0 -120 -81.5 -201t-202.5 -81q-108 0 -173 59.5t-65 149.5v6z" />
    <glyph glyph-name="uni2159" unicode="&#x2159;" horiz-adv-x="1300" 
d="M133 0l1133 1434h110l-1134 -1434h-109zM397 696l95 533h-195l16 92h133q60 0 72 61l10 52h93l-132 -738h-92zM840 434l256 303h102l-237 -268h10l14 6q30 6 47 6q103 0 167.5 -61.5t64.5 -155.5q0 -112 -81 -193t-198 -81q-107 0 -172 64t-65 155q0 115 92 225z
M1018 389q-77 0 -127.5 -50t-50.5 -120q0 -58 41 -97.5t112 -39.5q77 0 127.5 50t50.5 120q0 58 -41 97.5t-112 39.5z" />
    <glyph glyph-name="uni215A" unicode="&#x215a;" horiz-adv-x="1449" 
d="M279 0l1132 1434h111l-1135 -1434h-108zM240 901h92q7 -60 50 -91.5t112 -31.5q76 0 126 52t50 126q0 66 -43 103t-117 37q-56 0 -107 -31q-11 -7 -34 -31h-97l113 400h420l-17 -93h-337l-54 -190h11q12 9 30 18q55 19 99 19q97 0 161 -61.5t64 -157.5q0 -120 -82 -201.5
t-203 -81.5q-108 0 -172.5 59.5t-64.5 149.5v6zM989 434l256 303h103l-238 -268h10l15 6q30 6 47 6q103 0 167 -61.5t64 -155.5q0 -112 -80.5 -193t-197.5 -81q-107 0 -172.5 64t-65.5 155q0 115 92 225zM1167 389q-77 0 -127.5 -50t-50.5 -120q0 -58 41.5 -97.5
t112.5 -39.5q77 0 127.5 50t50.5 120q0 58 -41.5 97.5t-112.5 39.5z" />
    </font>
</defs>
</svg>
