<?xml version="1.0" standalone="no"?>
<!DOCTYPE svg PUBLIC "-//W3C//DTD SVG 1.1//EN" "http://www.w3.org/Graphics/SVG/1.1/DTD/svg11.dtd" >
<svg xmlns="http://www.w3.org/2000/svg" xmlns:xlink="http://www.w3.org/1999/xlink" version="1.1">
<metadata>
Created by FontForge 20170731 at Sat Jul 29 01:07:21 2023
 By Aleksey,,,
Copyright (c) 2019 by TypeType. Designers Ivan Gladkikh, Pavel Emelyanov. Technical designers Marina Khodak, Nadezhda Polomoshnova, Kseniya Karataeva, Olexa Volochay, Nadyr Rakhimov. All rights reserved. |DCNT
</metadata>
<defs>
<font id="TTHoves-ThinItalic" horiz-adv-x="1105" >
  <font-face 
    font-family="TT Hoves Thin"
    font-weight="250"
    font-style="italic"
    font-stretch="normal"
    units-per-em="2048"
    panose-1="2 0 5 3 2 0 0 9 0 4"
    ascent="1434"
    descent="-614"
    x-height="1024"
    cap-height="1434"
    bbox="-737 -471 3047 1987"
    underline-thickness="102"
    underline-position="-307"
    slope="-10"
    unicode-range="U+000D-FB04"
  />
<missing-glyph horiz-adv-x="0" 
 />
    <glyph glyph-name="f_f" unicode="ff" horiz-adv-x="1075" 
d="M236 0l165 952h-163l14 72h164l35 205q13 76 56.5 120.5t115.5 43.5h174l-13 -72h-170q-75 0 -92 -92l-35 -205h400l35 205q13 76 56.5 120.5t115.5 43.5h174l-13 -72h-170q-75 0 -92 -92l-35 -205h246l-14 -72h-246l-166 -952h-71l165 952h-399l-166 -952h-71z" />
    <glyph glyph-name="uniFB01" unicode="fi" horiz-adv-x="962" 
d="M236 0l165 952h-163l14 72h164l35 205q13 76 56.5 120.5t115.5 43.5h163l-12 -72h-160q-75 0 -92 -92l-35 -205h471l-180 -1024h-71l165 952h-399l-166 -952h-71zM924 1300l16 93h92l-16 -93h-92z" />
    <glyph glyph-name="uniFB02" unicode="fl" horiz-adv-x="972" 
d="M236 0l165 952h-163l14 72h164l35 205q13 75 55.5 120t116.5 44h399l-244 -1393h-71l231 1321h-324q-75 0 -92 -92l-35 -205h236l-14 -72h-236l-166 -952h-71z" />
    <glyph glyph-name="f_f_i" unicode="ffi" horiz-adv-x="1433" 
d="M1395 1300l16 93h92l-16 -93h-92zM236 0l165 952h-163l14 72h164l35 205q13 76 56.5 120.5t115.5 43.5h174l-13 -72h-170q-75 0 -92 -92l-35 -205h400l35 205q13 76 56.5 120.5t115.5 43.5h163l-12 -72h-160q-75 0 -92 -92l-35 -205h472l-181 -1024h-71l165 952h-399
l-166 -952h-71l165 952h-399l-166 -952h-71z" />
    <glyph glyph-name="f_f_l" unicode="ffl" horiz-adv-x="1443" 
d="M236 0l165 952h-163l14 72h164l35 205q13 76 56.5 120.5t115.5 43.5h174l-13 -72h-170q-75 0 -92 -92l-35 -205h400l35 205q13 76 56.5 120.5t115.5 43.5h399l-244 -1393h-71l231 1321h-324q-75 0 -92 -92l-35 -205h236l-14 -72h-236l-166 -952h-71l165 952h-399
l-166 -952h-71z" />
    <glyph glyph-name="f_f_j" unicode="ffj" horiz-adv-x="1433" 
d="M1395 1300l16 93h92l-16 -93h-92zM236 0l165 952h-163l14 72h164l35 205q13 76 56.5 120.5t115.5 43.5h174l-13 -72h-170q-75 0 -92 -92l-35 -205h400l35 205q13 76 56.5 120.5t115.5 43.5h163l-12 -72h-160q-75 0 -92 -92l-35 -205h472l-226 -1270q-27 -164 -176 -164
h-178l12 72h178q76 0 93 92l210 1198h-399l-166 -952h-71l165 952h-399l-166 -952h-71z" />
    <glyph glyph-name="f_j" unicode="fj" horiz-adv-x="962" 
d="M924 1300l16 93h92l-16 -93h-92zM379 -410l12 72h178q76 0 93 92l210 1198h-399l-166 -952h-71l165 952h-163l14 72h164l35 205q13 76 56.5 120.5t115.5 43.5h163l-12 -72h-160q-75 0 -92 -92l-35 -205h471l-225 -1270q-27 -164 -176 -164h-178z" />
    <glyph glyph-name=".notdef" horiz-adv-x="0" 
 />
    <glyph glyph-name=".null" horiz-adv-x="0" 
 />
    <glyph glyph-name="nonmarkingreturn" horiz-adv-x="682" 
 />
    <glyph glyph-name="NULL" horiz-adv-x="0" 
 />
    <glyph glyph-name="NULL" horiz-adv-x="0" 
 />
    <glyph glyph-name="CR" unicode="&#xd;" horiz-adv-x="0" 
 />
    <glyph glyph-name="space" unicode=" " horiz-adv-x="440" 
 />
    <glyph glyph-name="exclam" unicode="!" horiz-adv-x="501" 
d="M276 297l76 481l115 656h72l-115 -656l-96 -481h-52zM205 0l14 92h92l-14 -92h-92z" />
    <glyph glyph-name="quotedbl" unicode="&#x22;" horiz-adv-x="624" 
d="M592 1044l70 390h71l-69 -390h-72zM326 1044l69 390h72l-70 -390h-71z" />
    <glyph glyph-name="numbersign" unicode="#" horiz-adv-x="1413" 
d="M274 0l166 420h-338l29 72h334l178 450h-336l29 72h334l164 420h71l-164 -420h389l164 420h72l-164 -420h336l-29 -72h-333l-179 -450h336l-28 -72h-332l-166 -420h-72l166 420h-389l-166 -420h-72zM537 492h389l178 450h-389z" />
    <glyph glyph-name="dollar" unicode="$" horiz-adv-x="1259" 
d="M541 -225l37 207q-187 36 -290.5 149t-103.5 262q0 13 2 27h74q-2 -2 -2 -12v-7q0 -149 115 -249.5t321 -100.5q192 0 304 101.5t112 244.5q2 99 -66.5 171t-191.5 98l-190 30q-146 24 -234 118.5t-88 203.5q0 188 132.5 311t344.5 123h21l34 207h72l-35 -207
q189 -32 288 -136.5t99 -266.5q0 -29 -2 -35h-71v28q0 148 -108 244t-306 96q-179 0 -288 -101t-109 -257q0 -85 67 -159t197 -97l188 -31q156 -30 237 -118t81 -218q0 -83 -34.5 -159t-97 -134.5t-157 -93t-207.5 -34.5h-37l-37 -205h-71z" />
    <glyph glyph-name="percent" unicode="%" horiz-adv-x="1566" 
d="M289 0l1153 1434h82l-1153 -1434h-82zM565 817q-116 0 -191 78t-75 197q0 153 101.5 256.5t232.5 103.5q117 0 191.5 -77.5t74.5 -196.5q0 -153 -101.5 -257t-232.5 -104zM569 889q99 0 177.5 80t78.5 200q0 92 -55 151.5t-141 59.5q-99 0 -177.5 -80t-78.5 -200
q0 -92 55 -151.5t141 -59.5zM1182 -20q-117 0 -192 77.5t-75 196.5q0 153 101.5 256.5t232.5 103.5q117 0 192 -77.5t75 -196.5q0 -153 -101.5 -256.5t-232.5 -103.5zM1186 51q98 0 177 80.5t79 200.5q0 92 -55.5 151.5t-141.5 59.5q-98 0 -177 -80.5t-79 -200.5
q0 -92 55.5 -151.5t141.5 -59.5z" />
    <glyph glyph-name="ampersand" unicode="&#x26;" horiz-adv-x="1259" 
d="M653 778l195 123q182 123 182 248q0 102 -68.5 167.5t-183.5 65.5q-124 0 -208.5 -80t-84.5 -202q0 -54 15.5 -96t52.5 -93zM1165 0l-139 180q-51 -53 -123 -100q-157 -100 -319 -100q-173 0 -274 89.5t-101 217.5q0 88 38.5 165t94 128t129.5 92l59 35l64 34l-105 140
q-43 61 -59.5 108.5t-15.5 108.5q0 153 109 254.5t261 101.5q145 0 232.5 -83.5t87.5 -211.5q0 -173 -219 -313l-191 -119l336 -434q62 71 111.5 170t66.5 213h72q-11 -131 -75 -251t-132 -194l180 -231h-88zM981 240l-344 450l-119 -67q-115 -67 -177 -142t-62 -184
q0 -100 83.5 -173t227.5 -73q130 0 274 94q59 37 117 95z" />
    <glyph glyph-name="quotesingle" unicode="'" horiz-adv-x="358" 
d="M326 1044l69 390h72l-70 -390h-71z" />
    <glyph glyph-name="parenleft" unicode="(" horiz-adv-x="655" 
d="M479 -410h-76q-67 123 -115 296.5t-48 379.5q0 174 37.5 344t94.5 300.5t132 250t141 197t131 137.5h82q-46 -46 -87.5 -91.5t-99 -119.5t-104.5 -148t-96 -174t-82 -202t-54.5 -227.5t-21.5 -253.5q0 -369 166 -689z" />
    <glyph glyph-name="parenright" unicode=")" horiz-adv-x="655" 
d="M61 -410h-81q46 46 87.5 91.5t98.5 119.5t104 148.5t96 174.5t82.5 202t54.5 227.5t21 253.5q0 368 -166 688h76q67 -124 115.5 -297t48.5 -379q0 -174 -37.5 -344t-94.5 -300.5t-132.5 -250t-141.5 -197t-131 -137.5z" />
    <glyph glyph-name="asterisk" unicode="*" horiz-adv-x="942" 
d="M369 748l204 276l-327 102l20 62l328 -103v349h61v-349l328 103l21 -62l-328 -102l205 -276l-52 -41l-204 276l-205 -276z" />
    <glyph glyph-name="plus" unicode="+" horiz-adv-x="1095" 
d="M621 143v420h-390v72h390v416h71v-416h389v-72h-389v-420h-71z" />
    <glyph glyph-name="comma" unicode="," horiz-adv-x="399" 
d="M72 -174l98 276h92l-129 -276h-61z" />
    <glyph glyph-name="hyphen" unicode="-" horiz-adv-x="880" 
d="M209 553l12 72h656l-13 -72h-655z" />
    <glyph glyph-name="period" unicode="." horiz-adv-x="399" 
d="M154 0l14 92h92l-14 -92h-92z" />
    <glyph glyph-name="slash" unicode="/" horiz-adv-x="634" 
d="M-51 -410l897 1905h72l-898 -1905h-71z" />
    <glyph glyph-name="zero" unicode="0" horiz-adv-x="1310" 
d="M670 -20q-189 0 -311.5 144t-122.5 402q0 107 24 236q32 169 97 303.5t148.5 218t179 127t194.5 43.5q189 0 311.5 -145t122.5 -402q0 -101 -25 -235q-34 -171 -98 -305t-147 -217.5t-177.5 -126.5t-195.5 -43zM680 51q85 0 166.5 38.5t154.5 113.5t130.5 197.5
t87.5 277.5q22 132 22 221q0 230 -105 356.5t-268 126.5q-85 0 -167 -38.5t-154.5 -113t-129.5 -196.5t-87 -278q-23 -138 -23 -221q0 -231 105.5 -357.5t267.5 -126.5z" />
    <glyph glyph-name="one" unicode="1" horiz-adv-x="655" 
d="M379 0l211 1198h-307l12 72h250q34 0 48 14t19 47l19 103h71l-251 -1434h-72z" />
    <glyph glyph-name="two" unicode="2" horiz-adv-x="1095" 
d="M123 0l10 61l664 590q10 10 39.5 38.5t41.5 41t37.5 41.5t37.5 48.5t30 51t26 60.5t14.5 67.5t6.5 79.5q0 133 -83 218t-218 85q-132 0 -239 -98t-140 -260h-71q32 192 162 311t294 119q166 0 267.5 -103t101.5 -264q0 -58 -9 -110t-29.5 -96.5t-37 -75t-50 -67.5
t-47.5 -51.5t-50 -47.5q-11 -11 -17 -16l-604 -541l-2 -10h717l-12 -72h-840z" />
    <glyph glyph-name="three" unicode="3" horiz-adv-x="1126" 
d="M156 379h73q-2 -14 -2 -37q0 -126 104 -208.5t253 -82.5q174 0 284.5 100t110.5 244q0 131 -87.5 216t-246.5 85h-80l15 72h137q164 0 267 94.5t103 231.5q0 122 -89.5 205t-239.5 83q-74 0 -140.5 -27.5t-114 -72t-78.5 -101t-40 -116.5h-72q26 162 150 275.5t301 113.5
q181 0 288 -102.5t107 -251.5q0 -73 -22.5 -136t-56.5 -104t-76.5 -71t-79 -44.5t-66.5 -17.5v-10q30 -13 59 -34.5t61 -57.5t51.5 -93t19.5 -126q0 -185 -134.5 -305.5t-336.5 -120.5q-180 0 -302 102t-122 254q0 25 2 43z" />
    <glyph glyph-name="four" unicode="4" horiz-adv-x="1075" 
d="M123 358l14 72l760 1004h154l-177 -1004h216l-15 -72h-215l-61 -358h-72l61 358h-665zM229 430h574l164 932h-41l-697 -922v-10z" />
    <glyph glyph-name="five" unicode="5" horiz-adv-x="1126" 
d="M195 379h71v-8q7 -154 104.5 -237t239.5 -83q83 0 160 32.5t135.5 90.5t93.5 143.5t35 184.5q0 152 -94 246t-256 94q-152 0 -307 -135h-103l211 727h707l-14 -72h-635l-172 -574h10q27 27 61.5 51t103 48t142.5 24q190 0 305 -109.5t115 -291.5q0 -116 -41 -216.5
t-110 -168.5t-160.5 -106.5t-190.5 -38.5q-175 0 -291 109t-120 282v8z" />
    <glyph glyph-name="six" unicode="6" horiz-adv-x="1126" 
d="M319 758l558 676h88l-492 -594h10q91 61 230 61q176 0 288.5 -112.5t112.5 -286.5q0 -111 -41 -209t-110 -166t-161 -107.5t-192 -39.5q-191 0 -308.5 112.5t-117.5 290.5q0 189 135 375zM575 53q14 -2 41 -2q171 0 297.5 127t126.5 316q0 146 -98 241.5t-256 95.5
q-175 0 -302.5 -126t-127.5 -314q0 -141 86 -233.5t233 -104.5z" />
    <glyph glyph-name="seven" unicode="7" horiz-adv-x="983" 
d="M238 0l780 1362h-748l11 72h841l-8 -41l-797 -1393h-79z" />
    <glyph glyph-name="eight" unicode="8" horiz-adv-x="1146" 
d="M530 750l2 10q-182 91 -182 280q0 166 131 290t310 124q169 0 273.5 -101.5t104.5 -246.5q0 -76 -25.5 -140t-59.5 -102t-79.5 -68.5t-72.5 -42t-51 -18.5l-2 -10q25 -17 32.5 -21.5t35.5 -25.5t40.5 -35t34 -41t32 -52t19 -60.5t8.5 -73.5q0 -177 -139 -306.5
t-332 -129.5q-183 0 -297 107t-114 259q0 82 28.5 151t66 109.5t90 74.5t83 46t63.5 23zM420 1049q0 -117 87 -195t236 -78t252 94t103 228q0 116 -88.5 200t-225.5 84q-130 0 -234 -81.5t-124 -196.5q-6 -27 -6 -55zM270 356q0 -127 95 -216t249 -89q163 0 278.5 105
t115.5 247q0 127 -94 216.5t-248 89.5q-146 0 -255.5 -85.5t-134.5 -211.5q-6 -27 -6 -56z" />
    <glyph glyph-name="nine" unicode="9" horiz-adv-x="1126" 
d="M410 0l487 594h-10q-93 -62 -230 -62q-176 0 -288.5 113t-112.5 287q0 111 41 209t110 166t161 107.5t192 39.5q190 0 308 -113.5t118 -289.5q0 -189 -135 -375l-557 -676h-84zM795 1380q-14 2 -41 2q-111 0 -208 -56t-156.5 -158.5t-59.5 -227.5q0 -147 98 -242.5
t256 -95.5q175 0 302.5 126t127.5 314q0 141 -86 233.5t-233 104.5z" />
    <glyph glyph-name="colon" unicode=":" horiz-adv-x="399" 
d="M154 0l14 92h92l-14 -92h-92zM317 932l17 92h92l-16 -92h-93z" />
    <glyph glyph-name="semicolon" unicode=";" horiz-adv-x="399" 
d="M72 -174l98 276h92l-129 -276h-61zM317 932l17 92h92l-16 -92h-93z" />
    <glyph glyph-name="less" unicode="&#x3c;" horiz-adv-x="1095" 
d="M201 563v62l829 358v-72l-737 -317l737 -318v-71z" />
    <glyph glyph-name="equal" unicode="=" horiz-adv-x="1085" 
d="M285 717v71h716v-71h-716zM285 399v72h716v-72h-716z" />
    <glyph glyph-name="greater" unicode="&#x3e;" horiz-adv-x="1095" 
d="M266 205v71l738 318l-738 317v72l830 -358v-62z" />
    <glyph glyph-name="question" unicode="?" horiz-adv-x="1024" 
d="M485 328l21 123q20 98 71.5 158.5t145.5 97.5q70 30 118.5 60t90.5 73t63 102.5t21 136.5q0 124 -91 213.5t-229 89.5q-156 0 -254 -93.5t-125 -233.5h-71q10 80 47 151.5t94.5 127t139.5 88t175 32.5q170 0 277.5 -105.5t107.5 -258.5q0 -304 -311 -431
q-98 -41 -142.5 -84t-55.5 -124l-21 -123h-72zM432 0l14 92h93l-15 -92h-92z" />
    <glyph glyph-name="at" unicode="@" horiz-adv-x="1873" 
d="M907 -113h410l-12 -71h-410q-80 0 -166 23t-173 76t-155.5 128.5t-111.5 190.5t-43 253q0 199 68 372t185.5 294.5t279.5 190.5t345 69q169 0 310 -54t236.5 -147.5t148.5 -221.5t53 -275q0 -120 -23.5 -217t-61 -158t-85.5 -102t-94.5 -57.5t-91.5 -16.5q-97 0 -154 45
t-57 113v6h-11q-29 -45 -75 -82q-110 -82 -246 -82q-159 0 -258 103.5t-99 264.5q0 107 37.5 200t100 156.5t143 99.5t166.5 36q123 0 201 -54t118 -130h11l39 164h51l-103 -584q-8 -43 -8 -76q0 -52 40.5 -80t88.5 -28q43 0 82.5 13t79.5 46.5t69 85t47.5 135.5t18.5 191
q0 133 -48 248.5t-135 201t-217.5 135t-287.5 49.5q-159 0 -303 -61.5t-252 -170.5t-172 -268.5t-64 -344.5q0 -120 36 -222.5t95 -172t136 -119t158.5 -72.5t162.5 -23zM983 236q70 0 136.5 30.5t118.5 83.5t84 132t32 169q0 134 -83 217.5t-214 83.5q-147 0 -257 -115
t-110 -296q0 -125 79 -215t214 -90z" />
    <glyph glyph-name="A" unicode="A" horiz-adv-x="1269" 
d="M57 0l795 1434h123l291 -1434h-68l-82 410h-758l-225 -410h-76zM399 481h701l-176 871h-41z" />
    <glyph glyph-name="B" unicode="B" horiz-adv-x="1300" 
d="M410 758h487q83 0 153.5 28.5t116.5 75t71.5 105t25.5 120.5q0 115 -83.5 195t-213.5 80h-451zM289 72h499q94 0 167.5 28.5t119 78t69 112.5t23.5 135q0 113 -79.5 186.5t-221.5 73.5h-469zM205 0l252 1434h506q164 0 268 -94.5t104 -241.5q0 -212 -175 -326
q-49 -32 -118 -55v-10q52 -20 99 -60q98 -86 98 -221q0 -182 -122.5 -304t-340.5 -122h-571z" />
    <glyph glyph-name="C" unicode="C" horiz-adv-x="1505" 
d="M1423 471h82q-25 -57 -60 -115.5t-95.5 -128.5t-131.5 -122.5t-173 -88.5t-214 -36q-127 0 -236 42t-189.5 120.5t-126.5 200t-46 271.5q0 144 42.5 276.5t116 233.5t168 176t203 114.5t216.5 39.5q311 0 479 -242q75 -114 103 -239h-72q-31 117 -98 205
q-149 204 -420 204q-122 0 -241 -56t-213.5 -154.5t-153 -246t-58.5 -315.5q0 -255 147.5 -407t383.5 -152q110 0 210 40.5t172.5 106t123 134.5t81.5 139z" />
    <glyph glyph-name="D" unicode="D" horiz-adv-x="1443" 
d="M289 72h373q149 0 281 53t230.5 149t155.5 239.5t57 315.5q0 236 -137 384.5t-368 148.5h-365zM205 0l252 1434h424q176 0 308.5 -78.5t201.5 -213t69 -304.5q0 -189 -64 -348t-173 -265.5t-254 -165.5t-307 -59h-457z" />
    <glyph glyph-name="E" unicode="E" horiz-adv-x="1228" 
d="M205 0l252 1434h880l-12 -72h-809l-106 -604h768l-13 -72h-768l-108 -614h809l-13 -72h-880z" />
    <glyph glyph-name="F" unicode="F" horiz-adv-x="1187" 
d="M205 0l252 1434h860l-12 -72h-789l-106 -604h747l-12 -72h-748l-121 -686h-71z" />
    <glyph glyph-name="G" unicode="G" horiz-adv-x="1556" 
d="M1341 0l35 260h-10q-35 -44 -83.5 -87.5t-118 -89.5t-161.5 -74.5t-188 -28.5q-256 0 -419 171.5t-163 446.5q0 125 30 241.5t82 209.5t124 169.5t155 128t175.5 79.5t185.5 28q121 0 222 -40.5t161 -95.5t104.5 -123.5t62 -113.5t24.5 -77h-72q-149 378 -506 378
q-101 0 -199.5 -35t-184 -103.5t-151 -161t-103.5 -215.5t-38 -259q0 -250 145 -403.5t379 -153.5q129 0 261.5 66.5t226.5 180.5t110 241l17 106h-502l12 72h574l-125 -717h-62z" />
    <glyph glyph-name="H" unicode="H" horiz-adv-x="1484" 
d="M205 0l252 1434h71l-116 -666h931l117 666h72l-252 -1434h-72l121 696h-932l-121 -696h-71z" />
    <glyph glyph-name="I" unicode="I" horiz-adv-x="481" 
d="M205 0l252 1434h71l-252 -1434h-71z" />
    <glyph glyph-name="J" unicode="J" horiz-adv-x="808" 
d="M41 0l12 72h363q75 0 113 34t49 99l217 1229h71l-217 -1229q-18 -105 -72 -155t-167 -50h-369z" />
    <glyph glyph-name="K" unicode="K" horiz-adv-x="1157" 
d="M205 0l252 1434h71l-118 -678l825 678h108l-870 -713l645 -721h-94l-625 698l-123 -698h-71z" />
    <glyph glyph-name="L" unicode="L" horiz-adv-x="1075" 
d="M205 0l252 1434h71l-239 -1362h768l-13 -72h-839z" />
    <glyph glyph-name="M" unicode="M" horiz-adv-x="1822" 
d="M205 0l252 1434h159l283 -1362h41l762 1362h168l-252 -1434h-72l240 1362h-41l-762 -1362h-143l-283 1362h-41l-240 -1362h-71z" />
    <glyph glyph-name="N" unicode="N" horiz-adv-x="1474" 
d="M205 0l252 1434h147l559 -1362h47l240 1362h72l-252 -1434h-154l-559 1362h-41l-240 -1362h-71z" />
    <glyph glyph-name="O" unicode="O" horiz-adv-x="1556" 
d="M987 1454q258 0 422 -173t164 -447q0 -186 -65.5 -349t-172 -272t-242 -171t-276.5 -62q-256 0 -420 173.5t-164 446.5q0 150 42.5 285.5t116 237.5t169.5 177.5t205.5 114.5t220.5 39zM821 51q101 0 200 35t185.5 103t152.5 160t104 215t38 259q0 249 -146.5 404
t-371.5 155q-126 0 -247.5 -56t-217.5 -154t-154.5 -245.5t-58.5 -316.5q0 -249 146 -404t370 -155z" />
    <glyph glyph-name="P" unicode="P" horiz-adv-x="1310" 
d="M393 666h477q179 0 299.5 111t120.5 294q0 128 -80 209.5t-219 81.5h-475zM205 0l252 1434h534q163 0 268 -101.5t105 -253.5q0 -108 -41 -200.5t-110 -154t-158 -96t-185 -34.5h-489l-105 -594h-71z" />
    <glyph glyph-name="Q" unicode="Q" horiz-adv-x="1556" 
d="M1307 -20l-107 120q-176 -120 -383 -120q-256 0 -420 173.5t-164 446.5q0 150 42.5 285.5t116 237.5t169.5 177.5t205.5 114.5t220.5 39q258 0 422 -173t164 -447q0 -219 -84 -396t-227 -295q49 -57 147 -163h-102zM1155 152l-326 380h103q150 -186 285 -335
q130 104 207 265.5t77 360.5q0 249 -146.5 404t-371.5 155q-126 0 -247.5 -56t-217.5 -154t-154.5 -245.5t-58.5 -316.5q0 -249 146 -404t370 -155q180 0 334 101z" />
    <glyph glyph-name="R" unicode="R" horiz-adv-x="1331" 
d="M516 1362l-123 -696h479q178 0 298 111t120 294q0 128 -80 209.5t-219 81.5h-475zM205 0l252 1434h534q163 0 268 -101.5t105 -253.5q0 -108 -41 -200.5t-110 -154t-158 -96t-185 -34.5h-178l527 -594h-95l-524 594h-219l-105 -594h-71z" />
    <glyph glyph-name="S" unicode="S" horiz-adv-x="1259" 
d="M186 420h72v-23q0 -146 118 -246t316 -100q195 0 306.5 102t111.5 250q0 93 -65.5 164t-194.5 99l-191 30q-140 25 -229.5 116.5t-89.5 209.5q0 183 133.5 307.5t345.5 124.5q221 0 349 -113t128 -282l-2 -45h-71v37q0 141 -111 236t-303 95q-180 0 -288.5 -101.5
t-108.5 -250.5q0 -94 68 -166t194 -96l186 -31q148 -24 235 -114.5t87 -212.5q0 -181 -135 -305.5t-361 -124.5q-230 0 -366 117.5t-136 291.5v25q0 4 2 6z" />
    <glyph glyph-name="T" unicode="T" horiz-adv-x="1218" 
d="M543 0l239 1362h-512l13 72h1095l-12 -72h-512l-240 -1362h-71z" />
    <glyph glyph-name="U" unicode="U" horiz-adv-x="1433" 
d="M279 563l153 871h72l-154 -871q-6 -31 -6 -80q0 -192 115 -312t295 -120q191 0 336 144t182 368l153 871h72l-154 -871q-37 -253 -205.5 -418t-394.5 -165q-206 0 -338.5 137.5t-132.5 355.5q0 54 7 90z" />
    <glyph glyph-name="V" unicode="V" horiz-adv-x="1249" 
d="M543 0l-260 1434h73l246 -1362h41l725 1362h82l-764 -1434h-143z" />
    <glyph glyph-name="W" unicode="W" horiz-adv-x="1843" 
d="M399 0l-106 1434h69l99 -1362h41l588 1362h143l108 -1362h41l578 1362h74l-611 -1434h-143l-109 1362h-41l-587 -1362h-144z" />
    <glyph glyph-name="X" unicode="X" horiz-adv-x="1228" 
d="M41 0l627 737l-344 697h75l326 -656h41l555 656h88l-590 -697l369 -737h-76l-350 696h-41l-592 -696h-88z" />
    <glyph glyph-name="Y" unicode="Y" horiz-adv-x="1198" 
d="M543 0l92 532l-373 902h78l322 -789h51l600 789h86l-692 -902l-93 -532h-71z" />
    <glyph glyph-name="Z" unicode="Z" horiz-adv-x="1177" 
d="M102 0l11 61l1093 1301h-854l13 72h952l-10 -62l-1094 -1300h874l-12 -72h-973z" />
    <glyph glyph-name="bracketleft" unicode="[" horiz-adv-x="655" 
d="M141 -410l336 1905h379l-12 -72h-307l-312 -1761h307l-12 -72h-379z" />
    <glyph glyph-name="backslash" unicode="\" horiz-adv-x="634" 
d="M510 -410l-227 1905h71l228 -1905h-72z" />
    <glyph glyph-name="bracketright" unicode="]" horiz-adv-x="655" 
d="M-10 -410l10 72h307l311 1761h-307l13 72h378l-335 -1905h-377z" />
    <glyph glyph-name="asciicircum" unicode="^" horiz-adv-x="808" 
d="M297 881l225 553h72l225 -553h-71l-185 471h-10l-184 -471h-72z" />
    <glyph glyph-name="underscore" unicode="_" horiz-adv-x="686" 
d="M-57 -276l12 71h766l-12 -71h-766z" />
    <glyph glyph-name="grave" unicode="`" horiz-adv-x="368" 
d="M461 1229l-142 235h82l121 -235h-61z" />
    <glyph glyph-name="a" unicode="a" horiz-adv-x="1075" 
d="M913 0h-51q4 38 13.5 113t11.5 92h-10q-12 -25 -29.5 -51t-51 -58.5t-73.5 -57t-100 -41.5t-127 -17q-152 0 -235 70t-83 194q0 151 108.5 250.5t274.5 99.5h385l12 72q7 47 4.5 91.5t-23 83.5t-53 68t-85 45.5t-119.5 16.5q-248 0 -317 -244h-72q27 128 134 222.5
t261 94.5q100 0 174 -33t113.5 -87.5t53.5 -120.5t1 -137zM922 461l10 61h-377q-136 0 -220.5 -78t-84.5 -190q0 -94 66 -148.5t188 -54.5q164 0 276.5 110.5t141.5 299.5z" />
    <glyph glyph-name="b" unicode="b" horiz-adv-x="1198" 
d="M195 0l251 1434h72l-104 -594h10q39 53 98 102q126 102 283 102q172 0 282.5 -119.5t110.5 -314.5q0 -142 -45 -262.5t-119 -199.5t-167.5 -123.5t-192.5 -44.5q-43 0 -82.5 9t-70 23t-58 33t-48 39t-37.5 40.5t-28 38.5t-18.5 32t-11.5 22l-3 8h-10l-61 -225h-51z
M1126 600q0 168 -89 270.5t-246 102.5q-79 0 -157 -38.5t-142 -107t-104 -174.5t-40 -229q0 -168 94 -270.5t236 -102.5q84 0 163.5 38t143 106t102.5 174t39 231z" />
    <glyph glyph-name="c" unicode="c" horiz-adv-x="1085" 
d="M979 338h72q-13 -37 -34.5 -78t-62 -93t-90 -92t-123 -67.5t-155.5 -27.5q-179 0 -292.5 119t-113.5 315q0 140 46 261t121.5 200t170 124t193.5 45q83 0 152 -26.5t111.5 -65.5t73.5 -89t44.5 -90.5t19.5 -76.5h-72q-5 32 -18.5 66t-41 72.5t-64 68.5t-92.5 50t-122 20
q-83 0 -163 -38.5t-144 -107t-103.5 -174t-39.5 -229.5q0 -169 96.5 -271t239.5 -102q264 0 391 287z" />
    <glyph glyph-name="d" unicode="d" horiz-adv-x="1198" 
d="M952 0l19 195h-10q-42 -64 -99 -109q-127 -106 -293 -106t-277.5 119.5t-111.5 312.5q0 145 47 267.5t122.5 200.5t167 121t183.5 43q176 0 283 -122q52 -55 78 -123h10l113 635h71l-251 -1434h-52zM588 51q80 0 158.5 38.5t141.5 107t102.5 174t39.5 229.5
q0 168 -93.5 270.5t-236.5 102.5q-84 0 -163.5 -38t-143 -107t-102.5 -175.5t-39 -232.5q0 -159 88.5 -264t247.5 -105z" />
    <glyph glyph-name="e" unicode="e" horiz-adv-x="1126" 
d="M961 287h71q-8 -26 -27.5 -61t-57.5 -79.5t-86 -80.5t-119.5 -61t-151.5 -25q-181 0 -295.5 119t-114.5 317q0 140 46 260.5t121.5 199.5t172.5 123.5t199 44.5q133 0 232 -71.5t141.5 -189t21.5 -251.5l-8 -51h-852v-41q0 -183 94.5 -286t249.5 -103q77 0 144.5 26.5
t111 67.5t69.5 76.5t38 65.5zM266 553h778q18 179 -73 299.5t-260 120.5q-166 0 -293 -120t-152 -300z" />
    <glyph glyph-name="f" unicode="f" horiz-adv-x="604" 
d="M236 0l165 952h-163l14 72h164l35 205q13 76 56.5 120.5t115.5 43.5h20h154l-13 -72h-153h-17q-75 0 -92 -92l-35 -205h246l-14 -72h-246l-166 -952h-71z" />
    <glyph glyph-name="g" unicode="g" horiz-adv-x="1187" 
d="M141 -82h74q0 -115 88.5 -195.5t251.5 -80.5q164 0 259.5 97.5t121.5 260.5l41 236h-10q-33 -54 -88 -99q-123 -96 -293 -96q-161 0 -277 116.5t-116 309.5q0 102 30 194.5t81 161t117 119.5t139 76.5t145 25.5q55 0 105 -14t85 -36t65 -48t48.5 -52t31.5 -47.5t19 -34.5
l6 -13h10l23 84q20 69 39 141h51l-180 -1024q-26 -187 -150 -308.5t-319 -121.5q-94 0 -171 28.5t-126 76.5t-75 108.5t-26 126.5v8zM614 113q78 0 153.5 36.5t135 99.5t96.5 158.5t37 204.5q0 159 -91 260t-238 101q-78 0 -156 -35t-142 -97t-103.5 -157.5t-39.5 -206.5
q0 -166 92.5 -265t255.5 -99z" />
    <glyph glyph-name="h" unicode="h" horiz-adv-x="1187" 
d="M195 0l251 1434h72l-102 -574h8q25 49 78 92q108 92 270 92t257 -100t95 -258q0 -21 -4 -57l-4 -31l-102 -598h-72q87 492 94 541q9 64 13 73q4 18 4 58q0 140 -79.5 220.5t-211.5 80.5q-150 0 -257 -101.5t-132 -257.5l-107 -614h-71z" />
    <glyph glyph-name="i" unicode="i" horiz-adv-x="440" 
d="M184 0l181 1024h71l-180 -1024h-72zM403 1311l17 92h92l-16 -92h-93z" />
    <glyph glyph-name="j" unicode="j" horiz-adv-x="440" 
d="M403 1311l17 92h92l-16 -92h-93zM-143 -410l12 72h178q75 0 92 92l226 1270h71l-225 -1270q-27 -164 -176 -164h-178z" />
    <glyph glyph-name="k" unicode="k" horiz-adv-x="962" 
d="M195 0l251 1434h72l-156 -887l648 477h106l-688 -506l520 -518h-98l-498 498l-86 -498h-71z" />
    <glyph glyph-name="l" unicode="l" horiz-adv-x="460" 
d="M195 0l251 1434h72l-252 -1434h-71z" />
    <glyph glyph-name="m" unicode="m" horiz-adv-x="1720" 
d="M184 0l181 1024h53l-10 -143h10q29 63 106 113t185 50q46 0 85.5 -10t67 -23.5t51 -36t37 -40t25.5 -42t16.5 -35.5t9.5 -28h11q16 36 44.5 71t71.5 69t105 54.5t133 20.5q127 0 210.5 -77.5t90.5 -214.5q0 -22 -4 -72l-4 -45l-113 -635h-71l110 627q10 65 10 100
q0 122 -72.5 184t-183.5 62q-121 0 -204 -85.5t-115 -211.5l-119 -676h-72l111 631q9 41 4 98q-2 49 -16.5 90.5t-42.5 77t-77 56t-114 20.5q-124 0 -212 -89.5t-113 -236.5l-113 -647h-72z" />
    <glyph glyph-name="n" unicode="n" horiz-adv-x="1177" 
d="M184 0l181 1024h53l-12 -164h8q25 49 78 92q108 92 270 92t257 -100t95 -258q0 -21 -4 -57l-4 -31l-102 -598h-72q87 492 94 541q9 67 12 73q4 18 4 58q0 140 -79 220.5t-211 80.5q-150 0 -257.5 -101.5t-132.5 -257.5l-106 -614h-72z" />
    <glyph glyph-name="o" unicode="o" horiz-adv-x="1126" 
d="M713 1044q179 0 294 -119.5t115 -316.5q0 -113 -30 -214t-82 -175.5t-120 -129t-145.5 -82t-156.5 -27.5q-180 0 -294 119t-114 317q0 140 46 260.5t121.5 199.5t170.5 123.5t195 44.5zM707 973q-84 0 -164.5 -38t-145 -106t-104 -173.5t-39.5 -229.5q0 -171 95.5 -273
t246.5 -102q84 0 164.5 38t145 106t104 173.5t39.5 229.5q0 171 -95.5 273t-246.5 102z" />
    <glyph glyph-name="p" unicode="p" horiz-adv-x="1187" 
d="M109 -410l251 1434h52l-19 -195h10q44 63 99 107q130 108 293 108q166 0 277.5 -119.5t111.5 -312.5q0 -145 -47 -267.5t-122.5 -200.5t-167 -121t-183.5 -43q-176 0 -283 122q-52 55 -78 123h-10l-113 -635h-71zM664 51q84 0 163.5 38t143 107t102.5 175.5t39 232.5
q0 159 -88.5 264t-247.5 105q-80 0 -158.5 -38.5t-141.5 -107t-102.5 -174t-39.5 -229.5q0 -168 93.5 -270.5t236.5 -102.5z" />
    <glyph glyph-name="q" unicode="q" horiz-adv-x="1187" 
d="M860 -410l105 594h-11q-39 -53 -98 -102q-126 -102 -283 -102q-172 0 -282.5 119.5t-110.5 314.5q0 142 45 262.5t119.5 199.5t168 123.5t192.5 44.5q43 0 82.5 -9t70 -23t58 -33t47.5 -39t37 -40.5t28 -38.5t18.5 -32.5t11.5 -22.5l3 -7h10l62 225h51l-252 -1434h-72z
M252 424q0 -167 89.5 -270t246.5 -103q79 0 156.5 38t141.5 106t104 174t40 231q0 168 -94 270.5t-236 102.5q-84 0 -163.5 -38.5t-143 -107t-102.5 -174t-39 -229.5z" />
    <glyph glyph-name="r" unicode="r" horiz-adv-x="716" 
d="M184 0l181 1024h61l-8 -102h10q15 35 66 68.5t120 33.5h27h205l-15 -72h-204h-19q-79 0 -143.5 -63.5t-81.5 -161.5l-127 -727h-72z" />
    <glyph glyph-name="s" unicode="s" horiz-adv-x="942" 
d="M147 297h72v-14q0 -99 77 -165.5t222 -66.5q144 0 222.5 68.5t78.5 167.5q0 60 -39 102.5t-114 61.5l-197 41q-104 24 -164.5 84t-60.5 145q0 133 101 228t263 95q161 0 257 -84.5t96 -211.5v-21h-72v14q0 102 -78 167t-219 65q-131 0 -203 -68t-72 -176q0 -68 48.5 -110
t115.5 -56l197 -41q105 -23 160 -84.5t55 -146.5q0 -128 -105.5 -219.5t-277.5 -91.5q-170 0 -266.5 82.5t-96.5 205.5v29z" />
    <glyph glyph-name="t" unicode="t" horiz-adv-x="675" 
d="M266 176l135 776h-163l14 72h164l49 287h72l-50 -287h277l-14 -72h-277l-137 -788q-2 -14 -2 -23q0 -60 78 -69h184l-12 -72h-187q-65 6 -100 41.5t-35 93.5q0 19 2 27q0 10 2 14z" />
    <glyph glyph-name="u" unicode="u" horiz-adv-x="1177" 
d="M250 426l102 598h72q-91 -517 -94 -541q-9 -64 -13 -73q-4 -18 -4 -58q0 -140 79.5 -220.5t211.5 -80.5q150 0 257 101.5t132 257.5l107 614h71l-180 -1024h-53l12 164h-8q-25 -49 -78 -92q-108 -92 -270 -92t-257 99.5t-95 258.5q0 19 4 55z" />
    <glyph glyph-name="v" unicode="v" horiz-adv-x="962" 
d="M414 0l-209 1024h74l190 -952h33l526 952h78l-569 -1024h-123z" />
    <glyph glyph-name="w" unicode="w" horiz-adv-x="1454" 
d="M332 0l-96 1024h67l84 -942h35l422 942h127l90 -942h35l415 942h76l-457 -1024h-122l-95 952h-32l-426 -952h-123z" />
    <glyph glyph-name="x" unicode="x" horiz-adv-x="901" 
d="M31 0l436 522l-246 502h78l225 -461h41l389 461h86l-426 -502l256 -522h-77l-234 481h-41l-401 -481h-86z" />
    <glyph glyph-name="y" unicode="y" horiz-adv-x="921" 
d="M33 -410l12 72h150q38 0 59.5 19.5t50.5 72.5l105 195l-215 1075h69l185 -922h36l492 922h78l-705 -1321q-33 -58 -69.5 -85.5t-94.5 -27.5h-153z" />
    <glyph glyph-name="z" unicode="z" horiz-adv-x="860" 
d="M72 0l8 51l766 901h-598l14 72h696l-10 -51l-766 -901h619l-13 -72h-716z" />
    <glyph glyph-name="braceleft" unicode="{" horiz-adv-x="645" 
d="M256 -219l100 557q10 66 -23 102t-106 41l23 123h22q64 0 104 38t52 106l98 563q18 92 62 138t131 46h117l-13 -72h-114q-53 0 -76.5 -25t-34.5 -87l-96 -566q-9 -49 -33 -85.5t-48.5 -54t-53.5 -28t-43 -12.5t-21 -2l-8 -41q33 -7 76 -33q75 -52 57 -155l-100 -559
q-2 -14 -2 -31q0 -82 100 -82h86l-12 -72h-58q-190 0 -190 146q0 30 4 45z" />
    <glyph glyph-name="bar" unicode="|" horiz-adv-x="563" 
d="M358 -410v1905h72v-1905h-72z" />
    <glyph glyph-name="braceright" unicode="}" horiz-adv-x="645" 
d="M0 -410l12 72h115q53 0 76.5 25.5t34.5 87.5l96 565q9 49 33 85.5t48.5 54t53 28t42.5 12.5t21 2l9 41q-33 7 -76 33q-74 52 -57 156l100 559q2 14 2 30q0 82 -100 82h-86l12 72h57q191 0 191 -145q0 -30 -4 -45l-101 -557q-10 -66 23.5 -102.5t105.5 -41.5l-22 -123h-23
q-64 0 -103.5 -37.5t-51.5 -105.5l-99 -563q-18 -92 -62 -138.5t-130 -46.5h-117z" />
    <glyph glyph-name="asciitilde" unicode="~" horiz-adv-x="1126" 
d="M266 420h-71q0 144 66.5 220.5t178.5 76.5q54 0 102 -24.5t84 -59t70.5 -69t76.5 -59t87 -24.5q81 0 127.5 56.5t46.5 169.5h72q0 -144 -67 -220.5t-179 -76.5q-54 0 -102 24t-84 59t-70.5 69.5t-76.5 58.5t-87 24q-81 0 -127.5 -56t-46.5 -169z" />
    <glyph glyph-name="nbspace" unicode="&#xa0;" horiz-adv-x="440" 
 />
    <glyph glyph-name="exclamdown" unicode="&#xa1;" horiz-adv-x="501" 
d="M141 -410l117 656l94 481h51l-73 -481l-117 -656h-72zM369 932l16 92h92l-16 -92h-92z" />
    <glyph glyph-name="cent" unicode="&#xa2;" horiz-adv-x="1077" 
d="M481 -225l37 211q-154 21 -246 135t-92 293q0 139 45 258.5t119.5 198.5t168 125t192.5 48l36 205h72l-37 -209q69 -9 126 -39.5t91.5 -68.5t60 -84t36.5 -83t14 -69h-72q-3 31 -15.5 65.5t-38.5 73t-62 68.5t-91.5 50t-122.5 20q-83 0 -163 -38.5t-144 -107t-103.5 -174
t-39.5 -229.5q0 -171 95 -272t247 -101q64 0 121.5 20.5t98 50.5t76.5 71.5t57 75t38 69.5h72q-16 -38 -37.5 -77t-64 -92.5t-91 -93t-121.5 -67.5t-153 -28l-37 -205h-72z" />
    <glyph glyph-name="sterling" unicode="&#xa3;" horiz-adv-x="1208" 
d="M92 0l12 72h52h14q93 0 119 123l82 460h-164l12 72h164l53 307q32 197 159 311t292 109q172 -4 274.5 -106.5t102.5 -249.5q0 -15 -4 -43h-72q0 2 1 11t1 17q0 127 -86 213t-227 86t-244 -97t-123 -251l-55 -307h450l-12 -72h-451l-82 -460q-7 -40 -24 -71.5t-27.5 -41.5
t-9.5 -10h829l-12 -72h-1024z" />
    <glyph glyph-name="currency" unicode="&#xa4;" horiz-adv-x="1126" 
d="M276 369l113 114q-27 35 -41 64q-41 73 -41 170t41 170q13 27 41 63l-113 115l52 51l112 -112q33 23 68 40q77 41 168 41t168 -41q31 -15 67 -40l113 112l51 -51l-112 -115q28 -36 41 -63q40 -71 40 -170t-40 -170q-14 -29 -41 -64l112 -114l-51 -52l-113 113
q-40 -28 -67 -41q-77 -41 -168 -41t-168 41q-30 14 -68 41l-112 -113zM676 1024q-130 0 -218.5 -88t-88.5 -219t88.5 -219t218.5 -88t218.5 88t88.5 219t-88.5 219t-218.5 88z" />
    <glyph glyph-name="yen" unicode="&#xa5;" horiz-adv-x="1136" 
d="M174 287l12 71h389l43 236h-389l13 72h327l-305 768h78l305 -768h31l575 768h86l-575 -768h328l-13 -72h-389l-43 -236h389l-12 -71h-389l-49 -287h-72l49 287h-389z" />
    <glyph glyph-name="brokenbar" unicode="&#xa6;" horiz-adv-x="563" 
d="M358 737v758h72v-758h-72zM358 -410v758h72v-758h-72z" />
    <glyph glyph-name="section" unicode="&#xa7;" horiz-adv-x="1249" 
d="M580 379l237 -51q55 -12 103 -41q16 -9 32 -25q61 32 108.5 97.5t47.5 166.5q0 29 -9.5 59.5t-32 65t-67 63.5t-106.5 44l-227 51q-66 13 -109 39q-16 7 -35 22q-80 -38 -135 -107t-55 -163q0 -73 65 -131t183 -90zM174 72h74q-2 -14 -2 -33q0 -137 101.5 -226t275.5 -89
q164 0 262 87t98 216q0 88 -53.5 152t-165.5 87l-197 41q-146 30 -227.5 105.5t-81.5 175.5q0 42 9.5 81t21 67t34.5 57.5t35.5 44.5t40 36.5t33 25t27.5 18.5q-64 64 -64 165q0 156 119 263.5t311 107.5q140 0 242.5 -58t149 -153t34.5 -209h-71q13 146 -84 247t-277 101
q-157 0 -253.5 -82t-96.5 -202q0 -77 57.5 -141t169.5 -87l209 -41q75 -15 131 -47.5t86 -73.5t44 -82t14 -83q0 -207 -183 -332q23 -23 40.5 -69t17.5 -99q0 -166 -121 -278.5t-320 -112.5q-202 0 -322 106.5t-120 270.5q0 13 1 21t1 22z" />
    <glyph glyph-name="dieresis" unicode="&#xa8;" horiz-adv-x="563" 
d="M639 1311l16 92h93l-17 -92h-92zM291 1311l16 92h92l-16 -92h-92z" />
    <glyph glyph-name="copyright" unicode="&#xa9;" horiz-adv-x="1720" 
d="M973 -20q-203 0 -366.5 93.5t-257 262.5t-93.5 381t93.5 381t257 262.5t366.5 93.5t366.5 -93.5t257 -262.5t93.5 -381t-93.5 -381t-257 -262.5t-366.5 -93.5zM973 51q137 0 256.5 50t205 137t134.5 211t49 268q0 191 -84 343.5t-231 237t-330 84.5t-330 -84.5t-231 -237
t-84 -343.5q0 -144 49 -268t134.5 -211t205 -137t256.5 -50zM1229 594h71q-8 -31 -22 -63.5t-40.5 -70t-60.5 -66t-84.5 -47.5t-109.5 -19q-141 0 -244.5 112t-103.5 277t103.5 277t244.5 112q58 0 109 -19t84.5 -47t60.5 -64.5t41 -67t22 -58.5h-71q-13 42 -41.5 81t-83 71
t-121.5 32q-118 0 -197 -87t-79 -230t79 -230.5t197 -87.5q96 0 160.5 60.5t85.5 134.5z" />
    <glyph glyph-name="ordfeminine" unicode="&#xaa;" horiz-adv-x="675" 
d="M676 1096l4 20h-227q-70 0 -108 -36.5t-38 -98.5q0 -49 37 -80t107 -31q175 0 225 226zM655 809l-2 102h-10q-2 -2 -17 -18t-24 -24.5t-29.5 -24t-38.5 -23.5t-45 -15t-55 -7q-87 0 -142.5 50.5t-55.5 125.5q0 93 59 153t156 60h241l4 24q4 28 4 35q0 63 -41 99t-116 36
q-118 0 -166 -122h-72q19 87 85.5 140.5t162.5 53.5q103 0 162 -55t59 -144v-10q0 -1 -0.5 -4t-1.5 -8.5t-2 -11.5l-74 -412h-41z" />
    <glyph glyph-name="guillemotleft" unicode="&#xab;" horiz-adv-x="911" 
d="M711 133l-209 379l342 379h90l-350 -387l204 -371h-77zM403 133l-208 379l342 379h90l-351 -387l205 -371h-78z" />
    <glyph glyph-name="logicalnot" unicode="&#xac;" horiz-adv-x="1085" 
d="M287 676v72h737v-410h-72v338h-665z" />
    <glyph glyph-name="uni00AD" unicode="&#xad;" horiz-adv-x="880" 
d="M209 553l12 72h656l-13 -72h-655z" />
    <glyph glyph-name="registered" unicode="&#xae;" horiz-adv-x="1720" 
d="M778 696h246q90 0 142.5 46.5t52.5 117.5q0 79 -52 126.5t-143 47.5h-246v-338zM973 -20q-203 0 -366.5 93.5t-257 262.5t-93.5 381t93.5 381t257 262.5t366.5 93.5t366.5 -93.5t257 -262.5t93.5 -381t-93.5 -381t-257 -262.5t-366.5 -93.5zM973 51q137 0 256.5 50
t205 137t134.5 211t49 268q0 191 -84 343.5t-231 237t-330 84.5t-330 -84.5t-231 -237t-84 -343.5q0 -144 49 -268t134.5 -211t205 -137t256.5 -50zM707 338v768h317q122 0 194 -68t72 -178q0 -102 -72.5 -168.5t-193.5 -66.5l276 -287h-92l-276 287h-154v-287h-71z" />
    <glyph glyph-name="overscore" unicode="&#xaf;" horiz-adv-x="675" 
d="M289 1290l12 72h553l-12 -72h-553z" />
    <glyph glyph-name="degree" unicode="&#xb0;" horiz-adv-x="778" 
d="M563 993q79 0 126.5 52t47.5 143t-47.5 142.5t-126.5 51.5t-126.5 -51.5t-47.5 -142.5t47.5 -143t126.5 -52zM563 922q-110 0 -178 72t-68 194t68 194t178 72t178 -72t68 -194t-68 -194t-178 -72z" />
    <glyph glyph-name="plusminus" unicode="&#xb1;" horiz-adv-x="1095" 
d="M252 0v72h829v-72h-829zM631 287v409h-389v72h389v420h71v-420h390v-72h-390v-409h-71z" />
    <glyph glyph-name="uni00B2" unicode="&#xb2;" horiz-adv-x="675" 
d="M246 901l12 72l352 307q37 33 54.5 51.5t33.5 52t15 72.5q-1 55 -38 88t-93 33q-71 0 -121.5 -47.5t-63.5 -116.5h-71q18 98 89 167t173 69q86 0 142 -51t56 -130q0 -19 -2.5 -36.5t-5 -31.5t-10 -29.5t-11 -24.5t-14.5 -23.5t-14.5 -20t-17 -19l-15.5 -15.5t-17 -16
l-15 -13l-291 -256l-2 -10h338l-13 -72h-450z" />
    <glyph glyph-name="uni00B3" unicode="&#xb3;" horiz-adv-x="665" 
d="M266 1106h74v-14q0 -56 41.5 -92.5t116.5 -36.5q77 0 124.5 47t47.5 120q0 53 -32 86t-93 33h-78l12 72h119q39 0 81 39t42 104q0 50 -35.5 81.5t-105.5 31.5q-76 0 -117 -37.5t-53 -95.5h-72q8 84 75 144.5t175 60.5q93 0 149 -52t56 -127q0 -39 -11.5 -71.5t-27 -52
t-35.5 -34t-33.5 -20.5t-23.5 -8l-3 -10q32 -16 57 -51.5t25 -94.5q0 -101 -73 -169t-179 -68q-103 0 -163 55t-60 137v23z" />
    <glyph glyph-name="acute" unicode="&#xb4;" horiz-adv-x="368" 
d="M276 1229l207 235h82l-227 -235h-62z" />
    <glyph glyph-name="uni00B5" unicode="&#xb5;" horiz-adv-x="1187" 
d="M113 -410l254 1434h71l-106 -614q-4 -28 -4 -58q0 -136 78 -218.5t212 -82.5q145 0 254 98t136 261l106 614h72l-180 -1024h-54l13 164h-9q-26 -50 -77 -92q-108 -92 -273 -92q-72 0 -130.5 21.5t-91 52.5t-54.5 62t-30 52l-7 22l-109 -600h-71z" />
    <glyph glyph-name="paragraph" unicode="&#xb6;" horiz-adv-x="1003" 
d="M532 -205v963q-139 0 -233 96.5t-94 241.5t94 241.5t233 96.5h349v-1639h-72v1567h-205v-1567h-72z" />
    <glyph glyph-name="middot" unicode="&#xb7;" horiz-adv-x="440" 
d="M262 502l14 92h93l-15 -92h-92z" />
    <glyph glyph-name="cedilla" unicode="&#xb8;" horiz-adv-x="368" 
d="M-6 -389l8 61h82q56 0 86.5 25t30.5 67q0 40 -27 61t-70 21h-41l11 52l57 92h72l-58 -92q55 -6 87 -38t32 -85q0 -74 -51.5 -119t-134.5 -45h-84z" />
    <glyph glyph-name="uni00B9" unicode="&#xb9;" horiz-adv-x="522" 
d="M385 901l96 543h-205l13 72h143q34 0 50 14.5t22 46.5l12 61h72l-131 -737h-72z" />
    <glyph glyph-name="ordmasculine" unicode="&#xba;" horiz-adv-x="737" 
d="M532 799q-115 0 -180 72.5t-65 191.5q0 88 27 163.5t72 124t101.5 76t116.5 27.5q115 0 180.5 -72.5t65.5 -191.5q0 -88 -27.5 -163.5t-72.5 -124t-101.5 -76t-116.5 -27.5zM532 870q99 0 172.5 84t73.5 226q0 95 -47.5 148.5t-126.5 53.5q-99 0 -172.5 -83.5
t-73.5 -225.5q0 -95 47.5 -149t126.5 -54z" />
    <glyph glyph-name="guillemotright" unicode="&#xbb;" horiz-adv-x="911" 
d="M461 133l350 387l-205 371h78l209 -379l-342 -379h-90zM154 133l350 387l-205 371h78l209 -379l-342 -379h-90z" />
    <glyph glyph-name="onequarter" unicode="&#xbc;" horiz-adv-x="1300" 
d="M143 0l1133 1434h82l-1133 -1434h-82zM410 696l96 543h-205l12 72h144q34 0 49.5 14.5t21.5 46.5l13 62h71l-131 -738h-71zM725 174l10 62l387 501h123l-88 -491h103l-13 -72h-102l-31 -174h-72l31 174h-348zM829 246h256l74 420h-20l-308 -410z" />
    <glyph glyph-name="onehalf" unicode="&#xbd;" horiz-adv-x="1361" 
d="M143 0l1133 1434h82l-1133 -1434h-82zM410 696l96 543h-205l12 72h144q34 0 49.5 14.5t21.5 46.5l13 62h71l-131 -738h-71zM834 0l12 72l352 307q36 33 54 51.5t33.5 52t14.5 72.5q-1 55 -38 88t-93 33q-71 0 -121 -47.5t-63 -116.5h-72q18 98 89.5 167t173.5 69
q86 0 142 -51t56 -130q0 -19 -2.5 -36.5t-5.5 -31.5t-10 -29t-11 -25t-14.5 -23.5t-15 -20t-16.5 -18.5t-16 -15.5t-17 -15.5t-15 -14l-290 -256l-3 -10h338l-12 -72h-450z" />
    <glyph glyph-name="threequarters" unicode="&#xbe;" horiz-adv-x="1433" 
d="M272 0l1133 1434h82l-1133 -1434h-82zM229 901h74v-14q0 -56 41.5 -92.5t116.5 -36.5q77 0 124.5 47.5t47.5 120.5q0 53 -32 85.5t-93 32.5h-78l12 72h119q38 0 80.5 39.5t42.5 104.5q0 50 -35.5 81t-105.5 31q-76 0 -117 -37.5t-53 -95.5h-72q8 84 75 144.5t175 60.5
q94 0 149.5 -51.5t55.5 -126.5q0 -48 -16.5 -85.5t-40.5 -58t-42 -30.5t-32 -13l-2 -10q82 -40 82 -145q0 -101 -73 -169.5t-179 -68.5q-103 0 -163.5 55.5t-60.5 137.5v22zM856 174l10 62l387 501h123l-88 -491h103l-13 -72h-102l-31 -174h-71l30 174h-348zM961 246h256
l73 420h-20l-307 -410z" />
    <glyph glyph-name="questiondown" unicode="&#xbf;" horiz-adv-x="1024" 
d="M889 -31h72q-10 -80 -47 -151.5t-95 -127t-140 -88t-175 -32.5q-170 0 -277.5 105.5t-107.5 258.5q0 304 311 431q99 41 143.5 84t55.5 124l20 123h72l-21 -123q-20 -98 -71.5 -158.5t-145.5 -97.5q-70 -28 -119.5 -59t-91 -74.5t-62 -103t-20.5 -135.5q0 -124 91 -213.5
t229 -89.5q156 0 254 93.5t125 233.5zM668 932l14 92h92l-14 -92h-92z" />
    <glyph glyph-name="Agrave" unicode="&#xc0;" horiz-adv-x="1269" 
d="M57 0l795 1434h123l291 -1434h-68l-82 410h-758l-225 -410h-76zM399 481h701l-176 871h-41zM868 1608l-141 235h82l121 -235h-62z" />
    <glyph glyph-name="Aacute" unicode="&#xc1;" horiz-adv-x="1269" 
d="M57 0l795 1434h123l291 -1434h-68l-82 410h-758l-225 -410h-76zM399 481h701l-176 871h-41zM901 1608l207 235h82l-227 -235h-62z" />
    <glyph glyph-name="Acircumflex" unicode="&#xc2;" horiz-adv-x="1269" 
d="M57 0l795 1434h123l291 -1434h-68l-82 410h-758l-225 -410h-76zM399 481h701l-176 871h-41zM666 1608l258 235h82l172 -235h-76l-139 194l-209 -194h-88z" />
    <glyph glyph-name="Atilde" unicode="&#xc3;" horiz-adv-x="1269" 
d="M57 0l795 1434h123l291 -1434h-68l-82 410h-758l-225 -410h-76zM399 481h701l-176 871h-41zM707 1638h-72q17 86 68 135.5t120 49.5q35 0 69.5 -17.5t58.5 -39t56.5 -39t63.5 -17.5q39 0 69 30t40 83h71q-17 -87 -64.5 -136t-115.5 -49q-39 0 -75 17.5t-59 39t-54 39
t-60 17.5q-43 0 -74.5 -30t-41.5 -83z" />
    <glyph glyph-name="Adieresis" unicode="&#xc4;" horiz-adv-x="1269" 
d="M57 0l795 1434h123l291 -1434h-68l-82 410h-758l-225 -410h-76zM399 481h701l-176 871h-41zM1065 1710l16 92h93l-17 -92h-92zM717 1710l16 92h92l-16 -92h-92z" />
    <glyph glyph-name="Aring" unicode="&#xc5;" horiz-adv-x="1269" 
d="M57 0l795 1434h123l291 -1434h-68l-82 410h-758l-225 -410h-76zM399 481h701l-176 871h-41zM926 1597h2q-67 0 -108.5 42t-41.5 106q0 76 54.5 128t125.5 52q67 0 108.5 -41.5t41.5 -105.5q0 -76 -55.5 -128.5t-126.5 -52.5zM936 1659q41 0 69 25.5t39 68.5
q11 48 -15 79.5t-79 31.5q-40 0 -68.5 -25.5t-39.5 -69.5q-11 -48 15 -79t79 -31z" />
    <glyph glyph-name="AE" unicode="&#xc6;" horiz-adv-x="1863" 
d="M-31 0l877 1434h1126l-12 -72h-809l-107 -604h768l-12 -72h-768l-108 -614h809l-13 -72h-876l76 430h-613l-262 -430h-76zM350 502h582l151 860h-204z" />
    <glyph glyph-name="Ccedilla" unicode="&#xc7;" horiz-adv-x="1505" 
d="M584 -389l10 61h90q55 0 83 27.5t28 64.5q0 33 -25.5 55.5t-73.5 26.5h-41l11 52l53 92q-218 34 -352 196t-134 428q0 144 42.5 276.5t116 233.5t168 176t203 114.5t216.5 39.5q311 0 479 -242q75 -114 103 -239h-72q-31 117 -98 205q-149 204 -420 204q-122 0 -241 -56
t-213.5 -154.5t-153 -246t-58.5 -315.5q0 -255 147.5 -407t383.5 -152q110 0 210 40.5t172.5 106t123 134.5t81.5 139h82q-25 -57 -60 -115.5t-95.5 -128.5t-131.5 -122.5t-173 -88.5t-214 -36q-29 0 -43 2l-51 -84q57 -10 88 -42.5t31 -80.5q0 -72 -51 -118t-127 -46h-94z
" />
    <glyph glyph-name="Egrave" unicode="&#xc8;" horiz-adv-x="1228" 
d="M205 0l252 1434h880l-12 -72h-809l-106 -604h768l-13 -72h-768l-108 -614h809l-13 -72h-880zM889 1608l-141 235h81l121 -235h-61z" />
    <glyph glyph-name="Eacute" unicode="&#xc9;" horiz-adv-x="1228" 
d="M205 0l252 1434h880l-12 -72h-809l-106 -604h768l-13 -72h-768l-108 -614h809l-13 -72h-880zM870 1608l207 235h82l-227 -235h-62z" />
    <glyph glyph-name="Ecircumflex" unicode="&#xca;" horiz-adv-x="1228" 
d="M205 0l252 1434h880l-12 -72h-809l-106 -604h768l-13 -72h-768l-108 -614h809l-13 -72h-880zM655 1608l258 235h82l172 -235h-75l-140 194l-209 -194h-88z" />
    <glyph glyph-name="Edieresis" unicode="&#xcb;" horiz-adv-x="1228" 
d="M205 0l252 1434h880l-12 -72h-809l-106 -604h768l-13 -72h-768l-108 -614h809l-13 -72h-880zM1055 1710l16 92h92l-16 -92h-92zM707 1710l16 92h92l-16 -92h-92z" />
    <glyph glyph-name="Igrave" unicode="&#xcc;" horiz-adv-x="481" 
d="M205 0l252 1434h71l-252 -1434h-71zM469 1608l-141 235h82l120 -235h-61z" />
    <glyph glyph-name="Iacute" unicode="&#xcd;" horiz-adv-x="481" 
d="M205 0l252 1434h71l-252 -1434h-71zM492 1608l206 235h82l-227 -235h-61z" />
    <glyph glyph-name="Icircumflex" unicode="&#xce;" horiz-adv-x="481" 
d="M205 0l252 1434h71l-252 -1434h-71zM256 1608l258 235h82l172 -235h-76l-139 194l-209 -194h-88z" />
    <glyph glyph-name="Idieresis" unicode="&#xcf;" horiz-adv-x="481" 
d="M205 0l252 1434h71l-252 -1434h-71zM668 1710l16 92h92l-16 -92h-92zM319 1710l17 92h92l-16 -92h-93z" />
    <glyph glyph-name="Eth" unicode="&#xd0;" horiz-adv-x="1495" 
d="M256 0l121 686h-215l12 72h215l119 676h424q176 0 308.5 -78.5t201.5 -213t69 -304.5q0 -189 -64 -348t-173 -265.5t-254 -165.5t-307 -59h-457zM340 72h373q149 0 281.5 53t231 149t155.5 239.5t57 315.5q0 235 -137.5 384t-368.5 149h-365l-106 -604h420l-13 -72h-419z
" />
    <glyph glyph-name="Ntilde" unicode="&#xd1;" horiz-adv-x="1474" 
d="M205 0l252 1434h147l559 -1362h47l240 1362h72l-252 -1434h-154l-559 1362h-41l-240 -1362h-71zM809 1638h-72q17 86 68.5 135.5t120.5 49.5q35 0 69.5 -17.5t58.5 -39t56.5 -39t63.5 -17.5q39 0 68.5 30t39.5 83h72q-17 -87 -64.5 -136t-115.5 -49q-39 0 -75 17.5
t-59 39t-54 39t-60 17.5q-43 0 -75 -30t-42 -83z" />
    <glyph glyph-name="Ograve" unicode="&#xd2;" horiz-adv-x="1556" 
d="M987 1454q258 0 422 -173t164 -447q0 -186 -65.5 -349t-172 -272t-242 -171t-276.5 -62q-256 0 -420 173.5t-164 446.5q0 150 42.5 285.5t116 237.5t169.5 177.5t205.5 114.5t220.5 39zM821 51q101 0 200 35t185.5 103t152.5 160t104 215t38 259q0 249 -146.5 404
t-371.5 155q-126 0 -247.5 -56t-217.5 -154t-154.5 -245.5t-58.5 -316.5q0 -249 146 -404t370 -155zM1004 1608l-142 235h82l121 -235h-61z" />
    <glyph glyph-name="Oacute" unicode="&#xd3;" horiz-adv-x="1556" 
d="M987 1454q258 0 422 -173t164 -447q0 -186 -65.5 -349t-172 -272t-242 -171t-276.5 -62q-256 0 -420 173.5t-164 446.5q0 150 42.5 285.5t116 237.5t169.5 177.5t205.5 114.5t220.5 39zM821 51q101 0 200 35t185.5 103t152.5 160t104 215t38 259q0 249 -146.5 404
t-371.5 155q-126 0 -247.5 -56t-217.5 -154t-154.5 -245.5t-58.5 -316.5q0 -249 146 -404t370 -155zM1014 1608l207 235h82l-228 -235h-61z" />
    <glyph glyph-name="Ocircumflex" unicode="&#xd4;" horiz-adv-x="1556" 
d="M987 1454q258 0 422 -173t164 -447q0 -186 -65.5 -349t-172 -272t-242 -171t-276.5 -62q-256 0 -420 173.5t-164 446.5q0 150 42.5 285.5t116 237.5t169.5 177.5t205.5 114.5t220.5 39zM821 51q101 0 200 35t185.5 103t152.5 160t104 215t38 259q0 249 -146.5 404
t-371.5 155q-126 0 -247.5 -56t-217.5 -154t-154.5 -245.5t-58.5 -316.5q0 -249 146 -404t370 -155zM778 1608l258 235h82l172 -235h-76l-139 194l-209 -194h-88z" />
    <glyph glyph-name="Otilde" unicode="&#xd5;" horiz-adv-x="1556" 
d="M987 1454q258 0 422 -173t164 -447q0 -186 -65.5 -349t-172 -272t-242 -171t-276.5 -62q-256 0 -420 173.5t-164 446.5q0 150 42.5 285.5t116 237.5t169.5 177.5t205.5 114.5t220.5 39zM821 51q101 0 200 35t185.5 103t152.5 160t104 215t38 259q0 249 -146.5 404
t-371.5 155q-126 0 -247.5 -56t-217.5 -154t-154.5 -245.5t-58.5 -316.5q0 -249 146 -404t370 -155zM829 1638h-71q17 86 68 135.5t120 49.5q35 0 69.5 -17.5t58.5 -39t56.5 -39t63.5 -17.5q39 0 69 30t40 83h71q-17 -87 -64.5 -136t-115.5 -49q-39 0 -75 17.5t-59 39
t-54 39t-60 17.5q-43 0 -75 -30t-42 -83z" />
    <glyph glyph-name="Odieresis" unicode="&#xd6;" horiz-adv-x="1556" 
d="M987 1454q258 0 422 -173t164 -447q0 -186 -65.5 -349t-172 -272t-242 -171t-276.5 -62q-256 0 -420 173.5t-164 446.5q0 150 42.5 285.5t116 237.5t169.5 177.5t205.5 114.5t220.5 39zM821 51q101 0 200 35t185.5 103t152.5 160t104 215t38 259q0 249 -146.5 404
t-371.5 155q-126 0 -247.5 -56t-217.5 -154t-154.5 -245.5t-58.5 -316.5q0 -249 146 -404t370 -155zM1188 1710l16 92h92l-16 -92h-92zM840 1710l16 92h92l-16 -92h-92z" />
    <glyph glyph-name="multiply" unicode="&#xd7;" horiz-adv-x="1085" 
d="M307 297l307 307l-307 307l51 52l308 -308l307 308l51 -52l-307 -307l307 -307l-51 -51l-307 307l-308 -307z" />
    <glyph glyph-name="Oslash" unicode="&#xd8;" horiz-adv-x="1556" 
d="M305 -72l131 187q-203 178 -203 485q0 150 42.5 285.5t116 237.5t169.5 177.5t205.5 114.5t220.5 39q187 0 330 -98l106 149h88l-137 -192q199 -180 199 -479q0 -186 -65.5 -349t-172 -272t-242 -171t-276.5 -62q-182 0 -321 92l-103 -144h-88zM481 176l793 1120
q-127 86 -291 86q-126 0 -247.5 -56t-217.5 -154t-154.5 -245.5t-58.5 -316.5q0 -281 176 -434zM1331 1249l-792 -1118q125 -80 282 -80q101 0 200 35t185.5 103t152.5 160t104 215t38 259q0 132 -45 241.5t-125 184.5z" />
    <glyph glyph-name="Ugrave" unicode="&#xd9;" horiz-adv-x="1433" 
d="M279 563l153 871h72l-154 -871q-6 -31 -6 -80q0 -192 115 -312t295 -120q191 0 336 144t182 368l153 871h72l-154 -871q-37 -253 -205.5 -418t-394.5 -165q-206 0 -338.5 137.5t-132.5 355.5q0 54 7 90zM961 1608l-142 235h82l121 -235h-61z" />
    <glyph glyph-name="Uacute" unicode="&#xda;" horiz-adv-x="1433" 
d="M279 563l153 871h72l-154 -871q-6 -31 -6 -80q0 -192 115 -312t295 -120q191 0 336 144t182 368l153 871h72l-154 -871q-37 -253 -205.5 -418t-394.5 -165q-206 0 -338.5 137.5t-132.5 355.5q0 54 7 90zM922 1608l206 235h82l-227 -235h-61z" />
    <glyph glyph-name="Ucircumflex" unicode="&#xdb;" horiz-adv-x="1433" 
d="M279 563l153 871h72l-154 -871q-6 -31 -6 -80q0 -192 115 -312t295 -120q191 0 336 144t182 368l153 871h72l-154 -871q-37 -253 -205.5 -418t-394.5 -165q-206 0 -338.5 137.5t-132.5 355.5q0 54 7 90zM717 1608l258 235h82l172 -235h-76l-139 194l-209 -194h-88z" />
    <glyph glyph-name="Udieresis" unicode="&#xdc;" horiz-adv-x="1433" 
d="M279 563l153 871h72l-154 -871q-6 -31 -6 -80q0 -192 115 -312t295 -120q191 0 336 144t182 368l153 871h72l-154 -871q-37 -253 -205.5 -418t-394.5 -165q-206 0 -338.5 137.5t-132.5 355.5q0 54 7 90zM1126 1710l17 92h92l-16 -92h-93zM778 1710l17 92h92l-17 -92h-92z
" />
    <glyph glyph-name="Yacute" unicode="&#xdd;" horiz-adv-x="1198" 
d="M543 0l92 532l-373 902h78l322 -789h51l600 789h86l-692 -902l-93 -532h-71zM799 1608l207 235h81l-227 -235h-61z" />
    <glyph glyph-name="Thorn" unicode="&#xde;" horiz-adv-x="1413" 
d="M350 420h615h45q150 0 241.5 93.5t91.5 252.5q0 115 -79.5 181.5t-210.5 66.5h-598zM205 0l252 1434h71l-61 -349h598q151 0 250.5 -90t99.5 -231q0 -181 -120.5 -298.5t-297.5 -117.5h-36h-625l-60 -348h-71z" />
    <glyph glyph-name="germandbls" unicode="&#xdf;" horiz-adv-x="1116" 
d="M174 0l184 1055q25 172 142 285.5t286 113.5q168 0 269.5 -96.5t101.5 -241.5q0 -211 -175 -328q-46 -30 -114 -55l-2 -10q20 -9 31.5 -14.5t38 -21.5t44 -30.5t40.5 -39.5t36.5 -51t23.5 -62.5t10 -77.5q0 -184 -129 -305t-320 -121h-68h-65l12 72h66h53
q166 0 271.5 96.5t105.5 247.5q0 70 -30.5 126t-79.5 88.5t-104 49t-110 16.5h-69l14 72h102q145 0 244.5 100t99.5 242q0 116 -83 194t-220 78q-140 0 -232 -91.5t-118 -235.5l-184 -1055h-72z" />
    <glyph glyph-name="agrave" unicode="&#xe0;" horiz-adv-x="1075" 
d="M913 0h-51q4 38 13.5 113t11.5 92h-10q-12 -25 -29.5 -51t-51 -58.5t-73.5 -57t-100 -41.5t-127 -17q-152 0 -235 70t-83 194q0 151 108.5 250.5t274.5 99.5h385l12 72q7 47 4.5 91.5t-23 83.5t-53 68t-85 45.5t-119.5 16.5q-248 0 -317 -244h-72q27 128 134 222.5
t261 94.5q100 0 174 -33t113.5 -87.5t53.5 -120.5t1 -137zM922 461l10 61h-377q-136 0 -220.5 -78t-84.5 -190q0 -94 66 -148.5t188 -54.5q164 0 276.5 110.5t141.5 299.5zM715 1208l-142 236h82l121 -236h-61z" />
    <glyph glyph-name="aacute" unicode="&#xe1;" horiz-adv-x="1075" 
d="M913 0h-51q4 38 13.5 113t11.5 92h-10q-12 -25 -29.5 -51t-51 -58.5t-73.5 -57t-100 -41.5t-127 -17q-152 0 -235 70t-83 194q0 151 108.5 250.5t274.5 99.5h385l12 72q7 47 4.5 91.5t-23 83.5t-53 68t-85 45.5t-119.5 16.5q-248 0 -317 -244h-72q27 128 134 222.5
t261 94.5q100 0 174 -33t113.5 -87.5t53.5 -120.5t1 -137zM922 461l10 61h-377q-136 0 -220.5 -78t-84.5 -190q0 -94 66 -148.5t188 -54.5q164 0 276.5 110.5t141.5 299.5zM717 1208l207 236h82l-228 -236h-61z" />
    <glyph glyph-name="acircumflex" unicode="&#xe2;" horiz-adv-x="1075" 
d="M913 0h-51q4 38 13.5 113t11.5 92h-10q-12 -25 -29.5 -51t-51 -58.5t-73.5 -57t-100 -41.5t-127 -17q-152 0 -235 70t-83 194q0 151 108.5 250.5t274.5 99.5h385l12 72q7 47 4.5 91.5t-23 83.5t-53 68t-85 45.5t-119.5 16.5q-248 0 -317 -244h-72q27 128 134 222.5
t261 94.5q100 0 174 -33t113.5 -87.5t53.5 -120.5t1 -137zM922 461l10 61h-377q-136 0 -220.5 -78t-84.5 -190q0 -94 66 -148.5t188 -54.5q164 0 276.5 110.5t141.5 299.5zM502 1208l258 236h82l172 -236h-76l-139 195l-209 -195h-88z" />
    <glyph glyph-name="atilde" unicode="&#xe3;" horiz-adv-x="1075" 
d="M913 0h-51q4 38 13.5 113t11.5 92h-10q-12 -25 -29.5 -51t-51 -58.5t-73.5 -57t-100 -41.5t-127 -17q-152 0 -235 70t-83 194q0 151 108.5 250.5t274.5 99.5h385l12 72q7 47 4.5 91.5t-23 83.5t-53 68t-85 45.5t-119.5 16.5q-248 0 -317 -244h-72q27 128 134 222.5
t261 94.5q100 0 174 -33t113.5 -87.5t53.5 -120.5t1 -137zM922 461l10 61h-377q-136 0 -220.5 -78t-84.5 -190q0 -94 66 -148.5t188 -54.5q164 0 276.5 110.5t141.5 299.5zM543 1239h-72q17 86 68 135t120 49q35 0 69.5 -17.5t58.5 -38.5t56.5 -38.5t63.5 -17.5
q39 0 69 29.5t40 82.5h71q-17 -87 -64 -135.5t-116 -48.5q-39 0 -75 17.5t-59 39t-54 39t-60 17.5q-43 0 -74.5 -30t-41.5 -83z" />
    <glyph glyph-name="adieresis" unicode="&#xe4;" horiz-adv-x="1075" 
d="M913 0h-51q4 38 13.5 113t11.5 92h-10q-12 -25 -29.5 -51t-51 -58.5t-73.5 -57t-100 -41.5t-127 -17q-152 0 -235 70t-83 194q0 151 108.5 250.5t274.5 99.5h385l12 72q7 47 4.5 91.5t-23 83.5t-53 68t-85 45.5t-119.5 16.5q-248 0 -317 -244h-72q27 128 134 222.5
t261 94.5q100 0 174 -33t113.5 -87.5t53.5 -120.5t1 -137zM922 461l10 61h-377q-136 0 -220.5 -78t-84.5 -190q0 -94 66 -148.5t188 -54.5q164 0 276.5 110.5t141.5 299.5zM901 1311l17 92h92l-17 -92h-92zM553 1311l16 92h93l-17 -92h-92z" />
    <glyph glyph-name="aring" unicode="&#xe5;" horiz-adv-x="1075" 
d="M913 0h-51q4 38 13.5 113t11.5 92h-10q-12 -25 -29.5 -51t-51 -58.5t-73.5 -57t-100 -41.5t-127 -17q-152 0 -235 70t-83 194q0 151 108.5 250.5t274.5 99.5h385l12 72q7 47 4.5 91.5t-23 83.5t-53 68t-85 45.5t-119.5 16.5q-248 0 -317 -244h-72q27 128 134 222.5
t261 94.5q100 0 174 -33t113.5 -87.5t53.5 -120.5t1 -137zM922 461l10 61h-377q-136 0 -220.5 -78t-84.5 -190q0 -94 66 -148.5t188 -54.5q164 0 276.5 110.5t141.5 299.5zM752 1188h2q-67 0 -108.5 41.5t-41.5 105.5q0 76 54.5 128.5t125.5 52.5q67 0 108.5 -42t41.5 -106
q0 -76 -55.5 -128t-126.5 -52zM762 1249q41 0 69 25.5t39 68.5q11 48 -15 79.5t-79 31.5q-41 0 -69 -25.5t-39 -68.5q-11 -48 15 -79.5t79 -31.5z" />
    <glyph glyph-name="ae" unicode="&#xe6;" horiz-adv-x="1832" 
d="M1016 563h758q8 111 -25 202t-114.5 149.5t-200.5 58.5q-156 0 -265.5 -114.5t-152.5 -295.5zM928 471l4 21h-387q-43 0 -83 -7.5t-79 -26t-67.5 -46t-46 -69.5t-17.5 -95q0 -88 62 -142t180 -55q91 0 166 32t128 89.5t88.5 133t51.5 165.5zM358 727h-71q27 133 131 225
t268 92q85 0 150 -23t104 -63t60.5 -86t27.5 -100q26 48 60 90.5t84.5 86t121.5 69.5t152 26q125 0 219.5 -62t140.5 -161.5t41 -216.5q-1 -23 -14 -112h-832q-4 -26 -4 -82q0 -175 87 -267t243 -92q232 0 367 236h71q-65 -144 -178.5 -225.5t-263.5 -81.5q-92 0 -166 31.5
t-118 81t-67.5 106.5t-23.5 114q-14 -43 -36.5 -85t-62.5 -88.5t-90.5 -80.5t-124 -56.5t-159.5 -22.5q-129 0 -213 72.5t-84 189.5q0 82 32.5 145.5t87.5 100.5t121 56t138 19h387l19 103q4 15 4 67q0 116 -79 178t-210 62q-127 0 -211 -67t-109 -179z" />
    <glyph glyph-name="ccedilla" unicode="&#xe7;" horiz-adv-x="1085" 
d="M379 -389l10 61h90q55 0 83 27.5t28 64.5q0 33 -25 55.5t-73 26.5h-41l10 52l53 88q-152 24 -243 138t-91 290q0 140 46 261t121.5 200t170 124t193.5 45q83 0 152 -26.5t111.5 -65.5t73.5 -89t44.5 -90.5t19.5 -76.5h-72q-5 32 -18.5 66t-41 72.5t-64 68.5t-92.5 50
t-122 20q-83 0 -163 -38.5t-144 -107t-103.5 -174t-39.5 -229.5q0 -169 96.5 -271t239.5 -102q264 0 391 287h72q-13 -37 -34.5 -78t-62 -93t-90 -92t-123 -67.5t-155.5 -27.5h-2l-52 -82q57 -10 88 -42.5t31 -80.5q0 -72 -51 -118t-127 -46h-94z" />
    <glyph glyph-name="egrave" unicode="&#xe8;" horiz-adv-x="1126" 
d="M961 287h71q-8 -26 -27.5 -61t-57.5 -79.5t-86 -80.5t-119.5 -61t-151.5 -25q-181 0 -295.5 119t-114.5 317q0 140 46 260.5t121.5 199.5t172.5 123.5t199 44.5q133 0 232 -71.5t141.5 -189t21.5 -251.5l-8 -51h-852v-41q0 -183 94.5 -286t249.5 -103q77 0 144.5 26.5
t111 67.5t69.5 76.5t38 65.5zM266 553h778q18 179 -73 299.5t-260 120.5q-166 0 -293 -120t-152 -300zM725 1208l-141 236h82l120 -236h-61z" />
    <glyph glyph-name="eacute" unicode="&#xe9;" horiz-adv-x="1126" 
d="M961 287h71q-8 -26 -27.5 -61t-57.5 -79.5t-86 -80.5t-119.5 -61t-151.5 -25q-181 0 -295.5 119t-114.5 317q0 140 46 260.5t121.5 199.5t172.5 123.5t199 44.5q133 0 232 -71.5t141.5 -189t21.5 -251.5l-8 -51h-852v-41q0 -183 94.5 -286t249.5 -103q77 0 144.5 26.5
t111 67.5t69.5 76.5t38 65.5zM266 553h778q18 179 -73 299.5t-260 120.5q-166 0 -293 -120t-152 -300zM717 1208l207 236h82l-228 -236h-61z" />
    <glyph glyph-name="ecircumflex" unicode="&#xea;" horiz-adv-x="1126" 
d="M961 287h71q-8 -26 -27.5 -61t-57.5 -79.5t-86 -80.5t-119.5 -61t-151.5 -25q-181 0 -295.5 119t-114.5 317q0 140 46 260.5t121.5 199.5t172.5 123.5t199 44.5q133 0 232 -71.5t141.5 -189t21.5 -251.5l-8 -51h-852v-41q0 -183 94.5 -286t249.5 -103q77 0 144.5 26.5
t111 67.5t69.5 76.5t38 65.5zM266 553h778q18 179 -73 299.5t-260 120.5q-166 0 -293 -120t-152 -300zM492 1208l258 236h81l173 -236h-76l-140 195l-208 -195h-88z" />
    <glyph glyph-name="edieresis" unicode="&#xeb;" horiz-adv-x="1126" 
d="M961 287h71q-8 -26 -27.5 -61t-57.5 -79.5t-86 -80.5t-119.5 -61t-151.5 -25q-181 0 -295.5 119t-114.5 317q0 140 46 260.5t121.5 199.5t172.5 123.5t199 44.5q133 0 232 -71.5t141.5 -189t21.5 -251.5l-8 -51h-852v-41q0 -183 94.5 -286t249.5 -103q77 0 144.5 26.5
t111 67.5t69.5 76.5t38 65.5zM266 553h778q18 179 -73 299.5t-260 120.5q-166 0 -293 -120t-152 -300zM901 1311l17 92h92l-17 -92h-92zM553 1311l16 92h93l-17 -92h-92z" />
    <glyph glyph-name="igrave" unicode="&#xec;" horiz-adv-x="440" 
d="M184 0l181 1024h71l-180 -1024h-72zM377 1208l-141 236h81l121 -236h-61z" />
    <glyph glyph-name="iacute" unicode="&#xed;" horiz-adv-x="440" 
d="M184 0l181 1024h71l-180 -1024h-72zM389 1208l207 236h82l-227 -236h-62z" />
    <glyph glyph-name="icircumflex" unicode="&#xee;" horiz-adv-x="440" 
d="M184 0l181 1024h71l-180 -1024h-72zM174 1208l258 236h82l172 -236h-76l-139 195l-209 -195h-88z" />
    <glyph glyph-name="idieresis" unicode="&#xef;" horiz-adv-x="440" 
d="M184 0l181 1024h71l-180 -1024h-72zM573 1311l17 92h92l-16 -92h-93zM225 1311l17 92h92l-17 -92h-92z" />
    <glyph glyph-name="eth" unicode="&#xf0;" horiz-adv-x="1095" 
d="M514 1055l-20 55l282 137q-63 75 -127 129l-63 54l67 30l62 -51q58 -49 127 -131l256 125l24 -57l-243 -117q204 -279 204 -594q0 -147 -41 -271t-110.5 -207.5t-163 -130t-197.5 -46.5q-172 0 -281.5 113.5t-109.5 293.5q0 121 42.5 227t113 177.5t160.5 112t184 40.5
q188 0 281 -126q14 -19 32 -56l11 -2q-17 107 -67.5 224t-121.5 214zM580 51q78 0 152.5 34t133 94.5t94 151t35.5 195.5q0 64 -19 123.5t-56.5 109.5t-100.5 80.5t-143 30.5t-156 -34t-135.5 -94t-96 -150.5t-36.5 -194.5q0 -152 92.5 -249t235.5 -97z" />
    <glyph glyph-name="ntilde" unicode="&#xf1;" horiz-adv-x="1177" 
d="M184 0l181 1024h53l-12 -164h8q25 49 78 92q108 92 270 92t257 -100t95 -258q0 -21 -4 -57l-4 -31l-102 -598h-72q87 492 94 541q9 67 12 73q4 18 4 58q0 140 -79 220.5t-211 80.5q-150 0 -257.5 -101.5t-132.5 -257.5l-106 -614h-72zM573 1239h-71q17 86 68 135t120 49
q35 0 69.5 -17.5t58.5 -38.5t56.5 -38.5t63.5 -17.5q39 0 69 29.5t40 82.5h71q-17 -87 -64 -135.5t-116 -48.5q-39 0 -75 17.5t-59 39t-54 39t-60 17.5q-43 0 -75 -30t-42 -83z" />
    <glyph glyph-name="ograve" unicode="&#xf2;" horiz-adv-x="1126" 
d="M713 1044q179 0 294 -119.5t115 -316.5q0 -113 -30 -214t-82 -175.5t-120 -129t-145.5 -82t-156.5 -27.5q-180 0 -294 119t-114 317q0 140 46 260.5t121.5 199.5t170.5 123.5t195 44.5zM707 973q-84 0 -164.5 -38t-145 -106t-104 -173.5t-39.5 -229.5q0 -171 95.5 -273
t246.5 -102q84 0 164.5 38t145 106t104 173.5t39.5 229.5q0 171 -95.5 273t-246.5 102zM725 1208l-141 236h82l120 -236h-61z" />
    <glyph glyph-name="oacute" unicode="&#xf3;" horiz-adv-x="1126" 
d="M713 1044q179 0 294 -119.5t115 -316.5q0 -113 -30 -214t-82 -175.5t-120 -129t-145.5 -82t-156.5 -27.5q-180 0 -294 119t-114 317q0 140 46 260.5t121.5 199.5t170.5 123.5t195 44.5zM707 973q-84 0 -164.5 -38t-145 -106t-104 -173.5t-39.5 -229.5q0 -171 95.5 -273
t246.5 -102q84 0 164.5 38t145 106t104 173.5t39.5 229.5q0 171 -95.5 273t-246.5 102zM717 1208l207 236h82l-228 -236h-61z" />
    <glyph glyph-name="ocircumflex" unicode="&#xf4;" horiz-adv-x="1126" 
d="M713 1044q179 0 294 -119.5t115 -316.5q0 -113 -30 -214t-82 -175.5t-120 -129t-145.5 -82t-156.5 -27.5q-180 0 -294 119t-114 317q0 140 46 260.5t121.5 199.5t170.5 123.5t195 44.5zM707 973q-84 0 -164.5 -38t-145 -106t-104 -173.5t-39.5 -229.5q0 -171 95.5 -273
t246.5 -102q84 0 164.5 38t145 106t104 173.5t39.5 229.5q0 171 -95.5 273t-246.5 102zM502 1208l258 236h82l172 -236h-76l-139 195l-209 -195h-88z" />
    <glyph glyph-name="otilde" unicode="&#xf5;" horiz-adv-x="1126" 
d="M713 1044q179 0 294 -119.5t115 -316.5q0 -113 -30 -214t-82 -175.5t-120 -129t-145.5 -82t-156.5 -27.5q-180 0 -294 119t-114 317q0 140 46 260.5t121.5 199.5t170.5 123.5t195 44.5zM707 973q-84 0 -164.5 -38t-145 -106t-104 -173.5t-39.5 -229.5q0 -171 95.5 -273
t246.5 -102q84 0 164.5 38t145 106t104 173.5t39.5 229.5q0 171 -95.5 273t-246.5 102zM543 1239h-72q17 86 68 135t120 49q35 0 69.5 -17.5t58.5 -38.5t56.5 -38.5t63.5 -17.5q39 0 69 29.5t40 82.5h71q-17 -87 -64 -135.5t-116 -48.5q-39 0 -75 17.5t-59 39t-54 39
t-60 17.5q-43 0 -74.5 -30t-41.5 -83z" />
    <glyph glyph-name="odieresis" unicode="&#xf6;" horiz-adv-x="1126" 
d="M713 1044q179 0 294 -119.5t115 -316.5q0 -113 -30 -214t-82 -175.5t-120 -129t-145.5 -82t-156.5 -27.5q-180 0 -294 119t-114 317q0 140 46 260.5t121.5 199.5t170.5 123.5t195 44.5zM707 973q-84 0 -164.5 -38t-145 -106t-104 -173.5t-39.5 -229.5q0 -171 95.5 -273
t246.5 -102q84 0 164.5 38t145 106t104 173.5t39.5 229.5q0 171 -95.5 273t-246.5 102zM891 1311l16 92h92l-16 -92h-92zM543 1311l16 92h92l-16 -92h-92z" />
    <glyph glyph-name="divide" unicode="&#xf7;" horiz-adv-x="1085" 
d="M262 563v72h778v-72h-778zM600 276q0 23 14 37.5t37 14.5t37 -14.5t14 -37.5t-14 -37t-37 -14t-37 14t-14 37zM600 922q0 23 14 37t37 14t37 -14t14 -37t-14 -37.5t-37 -14.5t-37 14.5t-14 37.5z" />
    <glyph glyph-name="oslash" unicode="&#xf8;" horiz-adv-x="1126" 
d="M201 -72l108 156q-129 123 -129 332q0 140 46 260.5t121.5 199.5t170.5 123.5t195 44.5q132 0 227 -65l82 117h84l-113 -160q129 -123 129 -328q0 -113 -30 -214t-82 -175.5t-120 -129t-145.5 -82t-156.5 -27.5q-124 0 -223 61l-80 -113h-84zM354 147l543 771
q-82 55 -190 55q-84 0 -164.5 -38t-145 -106t-104 -173.5t-39.5 -229.5q0 -179 100 -279zM950 874l-542 -772q74 -51 188 -51q84 0 164.5 38t145 106t104 173.5t39.5 229.5q0 172 -99 276z" />
    <glyph glyph-name="ugrave" unicode="&#xf9;" horiz-adv-x="1177" 
d="M250 426l102 598h72q-91 -517 -94 -541q-9 -64 -13 -73q-4 -18 -4 -58q0 -140 79.5 -220.5t211.5 -80.5q150 0 257 101.5t132 257.5l107 614h71l-180 -1024h-53l12 164h-8q-25 -49 -78 -92q-108 -92 -270 -92t-257 99.5t-95 258.5q0 19 4 55zM756 1208l-142 236h82
l121 -236h-61z" />
    <glyph glyph-name="uacute" unicode="&#xfa;" horiz-adv-x="1177" 
d="M250 426l102 598h72q-91 -517 -94 -541q-9 -64 -13 -73q-4 -18 -4 -58q0 -140 79.5 -220.5t211.5 -80.5q150 0 257 101.5t132 257.5l107 614h71l-180 -1024h-53l12 164h-8q-25 -49 -78 -92q-108 -92 -270 -92t-257 99.5t-95 258.5q0 19 4 55zM748 1208l206 236h82
l-227 -236h-61z" />
    <glyph glyph-name="ucircumflex" unicode="&#xfb;" horiz-adv-x="1177" 
d="M250 426l102 598h72q-91 -517 -94 -541q-9 -64 -13 -73q-4 -18 -4 -58q0 -140 79.5 -220.5t211.5 -80.5q150 0 257 101.5t132 257.5l107 614h71l-180 -1024h-53l12 164h-8q-25 -49 -78 -92q-108 -92 -270 -92t-257 99.5t-95 258.5q0 19 4 55zM522 1208l258 236h82
l172 -236h-76l-139 195l-209 -195h-88z" />
    <glyph glyph-name="udieresis" unicode="&#xfc;" horiz-adv-x="1177" 
d="M250 426l102 598h72q-91 -517 -94 -541q-9 -64 -13 -73q-4 -18 -4 -58q0 -140 79.5 -220.5t211.5 -80.5q150 0 257 101.5t132 257.5l107 614h71l-180 -1024h-53l12 164h-8q-25 -49 -78 -92q-108 -92 -270 -92t-257 99.5t-95 258.5q0 19 4 55zM922 1311l16 92h92l-16 -92
h-92zM573 1311l17 92h92l-16 -92h-93z" />
    <glyph glyph-name="yacute" unicode="&#xfd;" horiz-adv-x="921" 
d="M33 -410l12 72h150q38 0 59.5 19.5t50.5 72.5l105 195l-215 1075h69l185 -922h36l492 922h78l-705 -1321q-33 -58 -69.5 -85.5t-94.5 -27.5h-153zM594 1208l207 236h82l-228 -236h-61z" />
    <glyph glyph-name="thorn" unicode="&#xfe;" horiz-adv-x="1187" 
d="M109 -410l325 1844h72l-107 -605h11q41 65 92 107q124 108 297 108q162 0 273.5 -120.5t111.5 -313.5q0 -142 -46 -263.5t-120 -200t-165.5 -122.5t-184.5 -44q-177 0 -287 122q-50 50 -78 123h-10l-113 -635h-71zM670 51q79 0 157 38.5t141.5 107t103.5 175t40 230.5
q0 170 -92.5 270.5t-241.5 100.5q-81 0 -160 -38.5t-142.5 -107t-102.5 -174t-39 -229.5q0 -71 20 -135.5t59 -118.5t105.5 -86.5t151.5 -32.5z" />
    <glyph glyph-name="ydieresis" unicode="&#xff;" horiz-adv-x="921" 
d="M33 -410l12 72h150q38 0 59.5 19.5t50.5 72.5l105 195l-215 1075h69l185 -922h36l492 922h78l-705 -1321q-33 -58 -69.5 -85.5t-94.5 -27.5h-153zM768 1311l16 92h93l-17 -92h-92zM420 1311l16 92h92l-16 -92h-92z" />
    <glyph glyph-name="Amacron" unicode="&#x100;" horiz-adv-x="1269" 
d="M57 0l795 1434h123l291 -1434h-68l-82 410h-758l-225 -410h-76zM399 481h701l-176 871h-41zM666 1690l12 71h553l-12 -71h-553z" />
    <glyph glyph-name="amacron" unicode="&#x101;" horiz-adv-x="1075" 
d="M913 0h-51q4 38 13.5 113t11.5 92h-10q-12 -25 -29.5 -51t-51 -58.5t-73.5 -57t-100 -41.5t-127 -17q-152 0 -235 70t-83 194q0 151 108.5 250.5t274.5 99.5h385l12 72q7 47 4.5 91.5t-23 83.5t-53 68t-85 45.5t-119.5 16.5q-248 0 -317 -244h-72q27 128 134 222.5
t261 94.5q100 0 174 -33t113.5 -87.5t53.5 -120.5t1 -137zM922 461l10 61h-377q-136 0 -220.5 -78t-84.5 -190q0 -94 66 -148.5t188 -54.5q164 0 276.5 110.5t141.5 299.5zM492 1290l12 72h553l-13 -72h-552z" />
    <glyph glyph-name="Abreve" unicode="&#x102;" horiz-adv-x="1269" 
d="M57 0l795 1434h123l291 -1434h-68l-82 410h-758l-225 -410h-76zM399 481h701l-176 871h-41zM696 1843h72v-10q0 -63 43.5 -108.5t126.5 -45.5q152 0 199 164h71q-22 -99 -95.5 -167t-184.5 -68q-101 0 -166.5 63.5t-65.5 171.5z" />
    <glyph glyph-name="abreve" unicode="&#x103;" horiz-adv-x="1075" 
d="M913 0h-51q4 38 13.5 113t11.5 92h-10q-12 -25 -29.5 -51t-51 -58.5t-73.5 -57t-100 -41.5t-127 -17q-152 0 -235 70t-83 194q0 151 108.5 250.5t274.5 99.5h385l12 72q7 47 4.5 91.5t-23 83.5t-53 68t-85 45.5t-119.5 16.5q-248 0 -317 -244h-72q27 128 134 222.5
t261 94.5q100 0 174 -33t113.5 -87.5t53.5 -120.5t1 -137zM922 461l10 61h-377q-136 0 -220.5 -78t-84.5 -190q0 -94 66 -148.5t188 -54.5q164 0 276.5 110.5t141.5 299.5zM532 1444h72v-10q0 -63 43.5 -108.5t126.5 -45.5q152 0 199 164h71q-22 -100 -95.5 -168t-184.5 -68
q-101 0 -166.5 64t-65.5 172z" />
    <glyph glyph-name="Aogonek" unicode="&#x104;" horiz-adv-x="1269" 
d="M57 0l795 1434h123l291 -1434q-74 -32 -113 -72t-39 -98q0 -35 22 -55.5t58 -20.5h27l-11 -61h-16q-68 0 -111 30.5t-43 83.5q0 78 45.5 125.5t112.5 67.5l-82 410h-758l-225 -410h-76zM399 481h701l-176 871h-41z" />
    <glyph glyph-name="aogonek" unicode="&#x105;" horiz-adv-x="1075" 
d="M922 461l10 61h-377q-136 0 -220.5 -78t-84.5 -190q0 -94 66 -148.5t188 -54.5q164 0 276.5 110.5t141.5 299.5zM858 -307h-16q-68 0 -111 30.5t-43 83.5q0 45 16 80.5t43 57.5t55.5 35t59.5 20q4 38 13.5 113t11.5 92h-10q-12 -25 -29.5 -51t-51 -58.5t-73.5 -57
t-100 -41.5t-127 -17q-152 0 -235 70t-83 194q0 151 108.5 250.5t274.5 99.5h385l12 72q7 47 4.5 91.5t-23 83.5t-53 68t-85 45.5t-119.5 16.5q-248 0 -317 -244h-72q27 128 134 222.5t261 94.5q100 0 174 -33t113.5 -87.5t53.5 -120.5t1 -137l-117 -666
q-74 -31 -112.5 -71.5t-38.5 -98.5q0 -35 22 -55.5t58 -20.5h26z" />
    <glyph glyph-name="Cacute" unicode="&#x106;" horiz-adv-x="1505" 
d="M1423 471h82q-25 -57 -60 -115.5t-95.5 -128.5t-131.5 -122.5t-173 -88.5t-214 -36q-127 0 -236 42t-189.5 120.5t-126.5 200t-46 271.5q0 144 42.5 276.5t116 233.5t168 176t203 114.5t216.5 39.5q311 0 479 -242q75 -114 103 -239h-72q-31 117 -98 205
q-149 204 -420 204q-122 0 -241 -56t-213.5 -154.5t-153 -246t-58.5 -315.5q0 -255 147.5 -407t383.5 -152q110 0 210 40.5t172.5 106t123 134.5t81.5 139zM983 1608l207 235h82l-228 -235h-61z" />
    <glyph glyph-name="cacute" unicode="&#x107;" horiz-adv-x="1085" 
d="M979 338h72q-13 -37 -34.5 -78t-62 -93t-90 -92t-123 -67.5t-155.5 -27.5q-179 0 -292.5 119t-113.5 315q0 140 46 261t121.5 200t170 124t193.5 45q83 0 152 -26.5t111.5 -65.5t73.5 -89t44.5 -90.5t19.5 -76.5h-72q-5 32 -18.5 66t-41 72.5t-64 68.5t-92.5 50t-122 20
q-83 0 -163 -38.5t-144 -107t-103.5 -174t-39.5 -229.5q0 -169 96.5 -271t239.5 -102q264 0 391 287zM717 1208l207 236h82l-228 -236h-61z" />
    <glyph glyph-name="Ccircumflex" unicode="&#x108;" horiz-adv-x="1505" 
d="M1423 471h82q-25 -57 -60 -115.5t-95.5 -128.5t-131.5 -122.5t-173 -88.5t-214 -36q-127 0 -236 42t-189.5 120.5t-126.5 200t-46 271.5q0 144 42.5 276.5t116 233.5t168 176t203 114.5t216.5 39.5q311 0 479 -242q75 -114 103 -239h-72q-31 117 -98 205
q-149 204 -420 204q-122 0 -241 -56t-213.5 -154.5t-153 -246t-58.5 -315.5q0 -255 147.5 -407t383.5 -152q110 0 210 40.5t172.5 106t123 134.5t81.5 139zM768 1608l258 235h82l172 -235h-76l-139 194l-209 -194h-88z" />
    <glyph glyph-name="ccircumflex" unicode="&#x109;" horiz-adv-x="1085" 
d="M979 338h72q-13 -37 -34.5 -78t-62 -93t-90 -92t-123 -67.5t-155.5 -27.5q-179 0 -292.5 119t-113.5 315q0 140 46 261t121.5 200t170 124t193.5 45q83 0 152 -26.5t111.5 -65.5t73.5 -89t44.5 -90.5t19.5 -76.5h-72q-5 32 -18.5 66t-41 72.5t-64 68.5t-92.5 50t-122 20
q-83 0 -163 -38.5t-144 -107t-103.5 -174t-39.5 -229.5q0 -169 96.5 -271t239.5 -102q264 0 391 287zM492 1208l258 236h81l173 -236h-76l-140 195l-208 -195h-88z" />
    <glyph glyph-name="Cdotaccent" unicode="&#x10a;" horiz-adv-x="1505" 
d="M1423 471h82q-25 -57 -60 -115.5t-95.5 -128.5t-131.5 -122.5t-173 -88.5t-214 -36q-127 0 -236 42t-189.5 120.5t-126.5 200t-46 271.5q0 144 42.5 276.5t116 233.5t168 176t203 114.5t216.5 39.5q311 0 479 -242q75 -114 103 -239h-72q-31 117 -98 205
q-149 204 -420 204q-122 0 -241 -56t-213.5 -154.5t-153 -246t-58.5 -315.5q0 -255 147.5 -407t383.5 -152q110 0 210 40.5t172.5 106t123 134.5t81.5 139zM983 1710l16 92h93l-17 -92h-92z" />
    <glyph glyph-name="cdotaccent" unicode="&#x10b;" horiz-adv-x="1085" 
d="M979 338h72q-13 -37 -34.5 -78t-62 -93t-90 -92t-123 -67.5t-155.5 -27.5q-179 0 -292.5 119t-113.5 315q0 140 46 261t121.5 200t170 124t193.5 45q83 0 152 -26.5t111.5 -65.5t73.5 -89t44.5 -90.5t19.5 -76.5h-72q-5 32 -18.5 66t-41 72.5t-64 68.5t-92.5 50t-122 20
q-83 0 -163 -38.5t-144 -107t-103.5 -174t-39.5 -229.5q0 -169 96.5 -271t239.5 -102q264 0 391 287zM717 1311l16 92h92l-16 -92h-92z" />
    <glyph glyph-name="Ccaron" unicode="&#x10c;" horiz-adv-x="1505" 
d="M1423 471h82q-25 -57 -60 -115.5t-95.5 -128.5t-131.5 -122.5t-173 -88.5t-214 -36q-127 0 -236 42t-189.5 120.5t-126.5 200t-46 271.5q0 144 42.5 276.5t116 233.5t168 176t203 114.5t216.5 39.5q311 0 479 -242q75 -114 103 -239h-72q-31 117 -98 205
q-149 204 -420 204q-122 0 -241 -56t-213.5 -154.5t-153 -246t-58.5 -315.5q0 -255 147.5 -407t383.5 -152q110 0 210 40.5t172.5 106t123 134.5t81.5 139zM981 1608l-172 235h76l139 -194l209 194h88l-258 -235h-82z" />
    <glyph glyph-name="ccaron" unicode="&#x10d;" horiz-adv-x="1085" 
d="M979 338h72q-13 -37 -34.5 -78t-62 -93t-90 -92t-123 -67.5t-155.5 -27.5q-179 0 -292.5 119t-113.5 315q0 140 46 261t121.5 200t170 124t193.5 45q83 0 152 -26.5t111.5 -65.5t73.5 -89t44.5 -90.5t19.5 -76.5h-72q-5 32 -18.5 66t-41 72.5t-64 68.5t-92.5 50t-122 20
q-83 0 -163 -38.5t-144 -107t-103.5 -174t-39.5 -229.5q0 -169 96.5 -271t239.5 -102q264 0 391 287zM705 1208l-173 236h76l140 -195l208 195h88l-258 -236h-81z" />
    <glyph glyph-name="Dcaron" unicode="&#x10e;" horiz-adv-x="1443" 
d="M289 72h373q149 0 281 53t230.5 149t155.5 239.5t57 315.5q0 236 -137 384.5t-368 148.5h-365zM205 0l252 1434h424q176 0 308.5 -78.5t201.5 -213t69 -304.5q0 -189 -64 -348t-173 -265.5t-254 -165.5t-307 -59h-457zM909 1608l-172 235h76l139 -194l209 194h88
l-258 -235h-82z" />
    <glyph glyph-name="dcaron" unicode="&#x10f;" horiz-adv-x="1222" 
d="M952 0l19 195h-10q-42 -64 -99 -109q-127 -106 -293 -106t-277.5 119.5t-111.5 312.5q0 145 47 267.5t122.5 200.5t167 121t183.5 43q176 0 283 -122q52 -55 78 -123h10l113 635h71l-251 -1434h-52zM588 51q80 0 158.5 38.5t141.5 107t102.5 174t39.5 229.5
q0 168 -93.5 270.5t-236.5 102.5q-84 0 -163.5 -38t-143 -107t-102.5 -175.5t-39 -232.5q0 -159 88.5 -264t247.5 -105zM1343 1167l119 267h82l-149 -267h-52z" />
    <glyph glyph-name="Dcroat" unicode="&#x110;" horiz-adv-x="1495" 
d="M256 0l121 686h-215l12 72h215l119 676h424q176 0 308.5 -78.5t201.5 -213t69 -304.5q0 -189 -64 -348t-173 -265.5t-254 -165.5t-307 -59h-457zM340 72h373q149 0 281.5 53t231 149t155.5 239.5t57 315.5q0 235 -137.5 384t-368.5 149h-365l-106 -604h420l-13 -72h-419z
" />
    <glyph glyph-name="dslash" unicode="&#x111;" horiz-adv-x="1167" 
d="M938 0l18 184h-10q-37 -53 -92 -102q-126 -102 -283 -102q-172 0 -281.5 113.5t-109.5 291.5q0 121 42 227t111.5 177.5t159 112t183.5 40.5q165 0 278 -113q54 -57 78 -112h10l80 450h-368l12 72h369l34 195h72l-35 -195h174l-12 -72h-174l-205 -1167h-51zM580 51
q80 0 157 35t137 95.5t97 151.5t37 195q0 159 -92 250.5t-248 91.5q-108 0 -202.5 -58t-154 -168t-59.5 -249q0 -153 92.5 -248.5t235.5 -95.5z" />
    <glyph glyph-name="Emacron" unicode="&#x112;" horiz-adv-x="1228" 
d="M205 0l252 1434h880l-12 -72h-809l-106 -604h768l-13 -72h-768l-108 -614h809l-13 -72h-880zM645 1690l12 71h553l-12 -71h-553z" />
    <glyph glyph-name="emacron" unicode="&#x113;" horiz-adv-x="1126" 
d="M961 287h71q-8 -26 -27.5 -61t-57.5 -79.5t-86 -80.5t-119.5 -61t-151.5 -25q-181 0 -295.5 119t-114.5 317q0 140 46 260.5t121.5 199.5t172.5 123.5t199 44.5q133 0 232 -71.5t141.5 -189t21.5 -251.5l-8 -51h-852v-41q0 -183 94.5 -286t249.5 -103q77 0 144.5 26.5
t111 67.5t69.5 76.5t38 65.5zM266 553h778q18 179 -73 299.5t-260 120.5q-166 0 -293 -120t-152 -300zM502 1290l12 72h553l-12 -72h-553z" />
    <glyph glyph-name="Ebreve" unicode="&#x114;" horiz-adv-x="1228" 
d="M205 0l252 1434h880l-12 -72h-809l-106 -604h768l-13 -72h-768l-108 -614h809l-13 -72h-880zM676 1843h72v-10q0 -63 43.5 -108.5t126.5 -45.5q151 0 198 164h72q-22 -99 -96 -167t-185 -68q-101 0 -166 63.5t-65 171.5z" />
    <glyph glyph-name="ebreve" unicode="&#x115;" horiz-adv-x="1126" 
d="M961 287h71q-8 -26 -27.5 -61t-57.5 -79.5t-86 -80.5t-119.5 -61t-151.5 -25q-181 0 -295.5 119t-114.5 317q0 140 46 260.5t121.5 199.5t172.5 123.5t199 44.5q133 0 232 -71.5t141.5 -189t21.5 -251.5l-8 -51h-852v-41q0 -183 94.5 -286t249.5 -103q77 0 144.5 26.5
t111 67.5t69.5 76.5t38 65.5zM266 553h778q18 179 -73 299.5t-260 120.5q-166 0 -293 -120t-152 -300zM532 1444h72v-10q0 -63 43.5 -108.5t126.5 -45.5q152 0 199 164h71q-22 -100 -95.5 -168t-184.5 -68q-101 0 -166.5 64t-65.5 172z" />
    <glyph glyph-name="Edotaccent" unicode="&#x116;" horiz-adv-x="1228" 
d="M205 0l252 1434h880l-12 -72h-809l-106 -604h768l-13 -72h-768l-108 -614h809l-13 -72h-880zM891 1710l16 92h92l-16 -92h-92z" />
    <glyph glyph-name="edotaccent" unicode="&#x117;" horiz-adv-x="1126" 
d="M961 287h71q-8 -26 -27.5 -61t-57.5 -79.5t-86 -80.5t-119.5 -61t-151.5 -25q-181 0 -295.5 119t-114.5 317q0 140 46 260.5t121.5 199.5t172.5 123.5t199 44.5q133 0 232 -71.5t141.5 -189t21.5 -251.5l-8 -51h-852v-41q0 -183 94.5 -286t249.5 -103q77 0 144.5 26.5
t111 67.5t69.5 76.5t38 65.5zM266 553h778q18 179 -73 299.5t-260 120.5q-166 0 -293 -120t-152 -300zM717 1311l16 92h92l-16 -92h-92z" />
    <glyph glyph-name="Eogonek" unicode="&#x118;" horiz-adv-x="1228" 
d="M205 0l252 1434h880l-12 -72h-809l-106 -604h768l-13 -72h-768l-108 -614h809l-11 -72q-74 -31 -112.5 -71.5t-38.5 -98.5q0 -35 22 -55.5t58 -20.5h26l-10 -61h-16q-68 0 -111 30.5t-43 83.5q0 78 45.5 125.5t112.5 67.5h-815z" />
    <glyph glyph-name="eogonek" unicode="&#x119;" horiz-adv-x="1126" 
d="M618 -307h-16q-68 0 -110.5 30.5t-42.5 83.5q0 117 106 175q-169 12 -272 128t-103 306q0 140 46 260.5t121.5 199.5t172.5 123.5t199 44.5q133 0 232 -71.5t141.5 -189t21.5 -251.5l-8 -51h-852v-41q0 -183 94.5 -286t249.5 -103q77 0 144.5 26.5t111 67.5t69.5 76.5
t38 65.5h71q-8 -25 -25.5 -57.5t-52 -74.5t-77.5 -77t-106.5 -62t-135.5 -34q-45 -19 -79 -56.5t-34 -95.5q0 -35 22 -55.5t58 -20.5h27zM266 553h778q18 179 -73 299.5t-260 120.5q-166 0 -293 -120t-152 -300z" />
    <glyph glyph-name="Ecaron" unicode="&#x11a;" horiz-adv-x="1228" 
d="M205 0l252 1434h880l-12 -72h-809l-106 -604h768l-13 -72h-768l-108 -614h809l-13 -72h-880zM879 1608l-172 235h75l140 -194l208 194h89l-258 -235h-82z" />
    <glyph glyph-name="ecaron" unicode="&#x11b;" horiz-adv-x="1126" 
d="M961 287h71q-8 -26 -27.5 -61t-57.5 -79.5t-86 -80.5t-119.5 -61t-151.5 -25q-181 0 -295.5 119t-114.5 317q0 140 46 260.5t121.5 199.5t172.5 123.5t199 44.5q133 0 232 -71.5t141.5 -189t21.5 -251.5l-8 -51h-852v-41q0 -183 94.5 -286t249.5 -103q77 0 144.5 26.5
t111 67.5t69.5 76.5t38 65.5zM266 553h778q18 179 -73 299.5t-260 120.5q-166 0 -293 -120t-152 -300zM705 1208l-173 236h76l140 -195l208 195h88l-258 -236h-81z" />
    <glyph glyph-name="Gcircumflex" unicode="&#x11c;" horiz-adv-x="1556" 
d="M1341 0l35 260h-10q-35 -44 -83.5 -87.5t-118 -89.5t-161.5 -74.5t-188 -28.5q-256 0 -419 171.5t-163 446.5q0 125 30 241.5t82 209.5t124 169.5t155 128t175.5 79.5t185.5 28q121 0 222 -40.5t161 -95.5t104.5 -123.5t62 -113.5t24.5 -77h-72q-149 378 -506 378
q-101 0 -199.5 -35t-184 -103.5t-151 -161t-103.5 -215.5t-38 -259q0 -250 145 -403.5t379 -153.5q129 0 261.5 66.5t226.5 180.5t110 241l17 106h-502l12 72h574l-125 -717h-62zM758 1608l258 235h82l172 -235h-76l-139 194l-209 -194h-88z" />
    <glyph glyph-name="gcircumflex" unicode="&#x11d;" horiz-adv-x="1187" 
d="M141 -82h74q0 -115 88.5 -195.5t251.5 -80.5q164 0 259.5 97.5t121.5 260.5l41 236h-10q-33 -54 -88 -99q-123 -96 -293 -96q-161 0 -277 116.5t-116 309.5q0 102 30 194.5t81 161t117 119.5t139 76.5t145 25.5q55 0 105 -14t85 -36t65 -48t48.5 -52t31.5 -47.5t19 -34.5
l6 -13h10l23 84q20 69 39 141h51l-180 -1024q-26 -187 -150 -308.5t-319 -121.5q-94 0 -171 28.5t-126 76.5t-75 108.5t-26 126.5v8zM614 113q78 0 153.5 36.5t135 99.5t96.5 158.5t37 204.5q0 159 -91 260t-238 101q-78 0 -156 -35t-142 -97t-103.5 -157.5t-39.5 -206.5
q0 -166 92.5 -265t255.5 -99zM522 1208l258 236h82l172 -236h-76l-139 195l-209 -195h-88z" />
    <glyph glyph-name="Gbreve" unicode="&#x11e;" horiz-adv-x="1556" 
d="M1341 0l35 260h-10q-35 -44 -83.5 -87.5t-118 -89.5t-161.5 -74.5t-188 -28.5q-256 0 -419 171.5t-163 446.5q0 125 30 241.5t82 209.5t124 169.5t155 128t175.5 79.5t185.5 28q121 0 222 -40.5t161 -95.5t104.5 -123.5t62 -113.5t24.5 -77h-72q-149 378 -506 378
q-101 0 -199.5 -35t-184 -103.5t-151 -161t-103.5 -215.5t-38 -259q0 -250 145 -403.5t379 -153.5q129 0 261.5 66.5t226.5 180.5t110 241l17 106h-502l12 72h574l-125 -717h-62zM778 1843h72v-10q0 -63 43.5 -108.5t126.5 -45.5q152 0 199 164h71q-22 -99 -95.5 -167
t-184.5 -68q-101 0 -166.5 63.5t-65.5 171.5z" />
    <glyph glyph-name="gbreve" unicode="&#x11f;" horiz-adv-x="1187" 
d="M141 -82h74q0 -115 88.5 -195.5t251.5 -80.5q164 0 259.5 97.5t121.5 260.5l41 236h-10q-33 -54 -88 -99q-123 -96 -293 -96q-161 0 -277 116.5t-116 309.5q0 102 30 194.5t81 161t117 119.5t139 76.5t145 25.5q55 0 105 -14t85 -36t65 -48t48.5 -52t31.5 -47.5t19 -34.5
l6 -13h10l23 84q20 69 39 141h51l-180 -1024q-26 -187 -150 -308.5t-319 -121.5q-94 0 -171 28.5t-126 76.5t-75 108.5t-26 126.5v8zM614 113q78 0 153.5 36.5t135 99.5t96.5 158.5t37 204.5q0 159 -91 260t-238 101q-78 0 -156 -35t-142 -97t-103.5 -157.5t-39.5 -206.5
q0 -166 92.5 -265t255.5 -99zM553 1444h72v-10q0 -63 43.5 -108.5t126.5 -45.5q151 0 198 164h72q-22 -99 -96 -167.5t-185 -68.5q-101 0 -166 64t-65 172z" />
    <glyph glyph-name="Gdotaccent" unicode="&#x120;" horiz-adv-x="1556" 
d="M1341 0l35 260h-10q-35 -44 -83.5 -87.5t-118 -89.5t-161.5 -74.5t-188 -28.5q-256 0 -419 171.5t-163 446.5q0 125 30 241.5t82 209.5t124 169.5t155 128t175.5 79.5t185.5 28q121 0 222 -40.5t161 -95.5t104.5 -123.5t62 -113.5t24.5 -77h-72q-149 378 -506 378
q-101 0 -199.5 -35t-184 -103.5t-151 -161t-103.5 -215.5t-38 -259q0 -250 145 -403.5t379 -153.5q129 0 261.5 66.5t226.5 180.5t110 241l17 106h-502l12 72h574l-125 -717h-62zM983 1710l16 92h93l-17 -92h-92z" />
    <glyph glyph-name="gdotaccent" unicode="&#x121;" horiz-adv-x="1187" 
d="M141 -82h74q0 -115 88.5 -195.5t251.5 -80.5q164 0 259.5 97.5t121.5 260.5l41 236h-10q-33 -54 -88 -99q-123 -96 -293 -96q-161 0 -277 116.5t-116 309.5q0 102 30 194.5t81 161t117 119.5t139 76.5t145 25.5q55 0 105 -14t85 -36t65 -48t48.5 -52t31.5 -47.5t19 -34.5
l6 -13h10l23 84q20 69 39 141h51l-180 -1024q-26 -187 -150 -308.5t-319 -121.5q-94 0 -171 28.5t-126 76.5t-75 108.5t-26 126.5v8zM614 113q78 0 153.5 36.5t135 99.5t96.5 158.5t37 204.5q0 159 -91 260t-238 101q-78 0 -156 -35t-142 -97t-103.5 -157.5t-39.5 -206.5
q0 -166 92.5 -265t255.5 -99zM737 1311l17 92h92l-17 -92h-92z" />
    <glyph glyph-name="Gcommaaccent" unicode="&#x122;" horiz-adv-x="1556" 
d="M1341 0l35 260h-10q-35 -44 -83.5 -87.5t-118 -89.5t-161.5 -74.5t-188 -28.5q-256 0 -419 171.5t-163 446.5q0 125 30 241.5t82 209.5t124 169.5t155 128t175.5 79.5t185.5 28q121 0 222 -40.5t161 -95.5t104.5 -123.5t62 -113.5t24.5 -77h-72q-149 378 -506 378
q-101 0 -199.5 -35t-184 -103.5t-151 -161t-103.5 -215.5t-38 -259q0 -250 145 -403.5t379 -153.5q129 0 261.5 66.5t226.5 180.5t110 241l17 106h-502l12 72h574l-125 -717h-62zM641 -451l117 267h82l-150 -267h-49z" />
    <glyph glyph-name="gcommaaccent" unicode="&#x123;" horiz-adv-x="1187" 
d="M739 1198l150 277h51l-119 -277h-82zM141 -82h74q0 -115 88.5 -195.5t251.5 -80.5q164 0 259.5 97.5t121.5 260.5l41 236h-10q-33 -54 -88 -99q-123 -96 -293 -96q-161 0 -277 116.5t-116 309.5q0 102 30 194.5t81 161t117 119.5t139 76.5t145 25.5q55 0 105 -14t85 -36
t65 -48t48.5 -52t31.5 -47.5t19 -34.5l6 -13h10l23 84q20 69 39 141h51l-180 -1024q-26 -187 -150 -308.5t-319 -121.5q-94 0 -171 28.5t-126 76.5t-75 108.5t-26 126.5v8zM614 113q78 0 153.5 36.5t135 99.5t96.5 158.5t37 204.5q0 159 -91 260t-238 101q-78 0 -156 -35
t-142 -97t-103.5 -157.5t-39.5 -206.5q0 -166 92.5 -265t255.5 -99z" />
    <glyph glyph-name="Hcircumflex" unicode="&#x124;" horiz-adv-x="1484" 
d="M205 0l252 1434h71l-116 -666h931l117 666h72l-252 -1434h-72l121 696h-932l-121 -696h-71zM758 1608l258 235h82l172 -235h-76l-139 194l-209 -194h-88z" />
    <glyph glyph-name="hcircumflex" unicode="&#x125;" horiz-adv-x="1187" 
d="M195 0l251 1434h72l-102 -574h8q25 49 78 92q108 92 270 92t257 -100t95 -258q0 -21 -4 -57l-4 -31l-102 -598h-72q87 492 94 541q9 64 13 73q4 18 4 58q0 140 -79.5 220.5t-211.5 80.5q-150 0 -257 -101.5t-132 -257.5l-107 -614h-71zM604 1608l258 235h82l172 -235h-76
l-139 194l-209 -194h-88z" />
    <glyph glyph-name="Hbar" unicode="&#x126;" horiz-adv-x="1484" 
d="M205 0l188 1075h-153l12 72h154l51 287h71l-51 -287h922l51 287h72l-52 -287h164l-12 -72h-164l-188 -1075h-72l121 696h-922l-121 -696h-71zM412 768h921l53 307h-921z" />
    <glyph glyph-name="hbar" unicode="&#x127;" horiz-adv-x="1177" 
d="M193 0l206 1167h-194l12 72h195l34 195h72l-35 -195h379l-12 -72h-381l-76 -430h8q25 49 78 92q109 93 271 93q161 0 256.5 -100.5t95.5 -258.5q0 -21 -4 -57l-4 -31l-82 -475h-72q32 187 54 313t28 157t6 32q2 23 2 47q0 140 -79.5 220.5t-211.5 80.5q-150 0 -257 -101
t-132 -257l-86 -492h-71z" />
    <glyph glyph-name="Imacron" unicode="&#x12a;" horiz-adv-x="481" 
d="M205 0l252 1434h71l-252 -1434h-71zM260 1690l12 71h553l-12 -71h-553z" />
    <glyph glyph-name="imacron" unicode="&#x12b;" horiz-adv-x="440" 
d="M184 0l181 1024h71l-180 -1024h-72zM164 1290l12 72h553l-12 -72h-553z" />
    <glyph glyph-name="Ibreve" unicode="&#x12c;" horiz-adv-x="481" 
d="M205 0l252 1434h71l-252 -1434h-71zM287 1843h71v-10q0 -63 43.5 -108.5t126.5 -45.5q152 0 199 164h72q-22 -99 -96 -167t-185 -68q-101 0 -166 63.5t-65 171.5z" />
    <glyph glyph-name="ibreve" unicode="&#x12d;" horiz-adv-x="440" 
d="M184 0l181 1024h71l-180 -1024h-72zM195 1444h71v-10q0 -63 43.5 -108.5t126.5 -45.5q152 0 199 164h72q-22 -99 -96 -167.5t-185 -68.5q-101 0 -166 64t-65 172z" />
    <glyph glyph-name="Iogonek" unicode="&#x12e;" horiz-adv-x="481" 
d="M221 -307h-16q-68 0 -111 30.5t-43 83.5q0 141 154 193l252 1434h71l-252 -1434q-74 -31 -112.5 -71.5t-38.5 -98.5q0 -35 22 -55.5t58 -20.5h26z" />
    <glyph glyph-name="iogonek" unicode="&#x12f;" horiz-adv-x="440" 
d="M201 -307h-17q-68 0 -110.5 30.5t-42.5 83.5q0 141 153 193l181 1024h71l-180 -1024q-74 -32 -113 -72t-39 -98q0 -35 22 -55.5t58 -20.5h27zM403 1311l17 92h92l-16 -92h-93z" />
    <glyph glyph-name="Idot" unicode="&#x130;" horiz-adv-x="481" 
d="M205 0l252 1434h71l-252 -1434h-71zM494 1710l16 92h92l-16 -92h-92z" />
    <glyph glyph-name="dotlessi" unicode="&#x131;" horiz-adv-x="440" 
d="M184 0l181 1024h71l-180 -1024h-72z" />
    <glyph glyph-name="uni0132" unicode="&#x132;" horiz-adv-x="1146" 
d="M205 0l252 1434h71l-252 -1434h-71zM379 0l12 72h363q75 0 112.5 34t48.5 99l218 1229h71l-217 -1229q-18 -105 -72 -155t-167 -50h-369z" />
    <glyph glyph-name="uni0133" unicode="&#x133;" horiz-adv-x="880" 
d="M184 0l181 1024h71l-180 -1024h-72zM403 1311l17 92h92l-16 -92h-93zM844 1311l16 92h92l-16 -92h-92zM297 -410l12 72h178q76 0 93 92l225 1270h72l-226 -1270q-27 -164 -176 -164h-178z" />
    <glyph glyph-name="Jcircumflex" unicode="&#x134;" horiz-adv-x="808" 
d="M41 0l12 72h363q75 0 113 34t49 99l217 1229h71l-217 -1229q-18 -105 -72 -155t-167 -50h-369zM594 1608l258 235h82l172 -235h-76l-139 194l-209 -194h-88z" />
    <glyph glyph-name="jcircumflex" unicode="&#x135;" horiz-adv-x="440" 
d="M-143 -410l12 72h178q75 0 92 92l226 1270h71l-225 -1270q-27 -164 -176 -164h-178zM164 1208l258 236h82l172 -236h-76l-139 195l-209 -195h-88z" />
    <glyph glyph-name="Kcommaaccent" unicode="&#x136;" horiz-adv-x="1157" 
d="M205 0l252 1434h71l-118 -678l825 678h108l-870 -713l645 -721h-94l-625 698l-123 -698h-71zM451 -451l116 267h82l-149 -267h-49z" />
    <glyph glyph-name="kcommaaccent" unicode="&#x137;" horiz-adv-x="962" 
d="M195 0l251 1434h72l-156 -887l648 477h106l-688 -506l520 -518h-98l-498 498l-86 -498h-71zM358 -451l117 267h82l-149 -267h-50z" />
    <glyph glyph-name="Lacute" unicode="&#x139;" horiz-adv-x="1075" 
d="M205 0l252 1434h71l-239 -1362h768l-13 -72h-839zM481 1608l207 235h82l-227 -235h-62z" />
    <glyph glyph-name="lacute" unicode="&#x13a;" horiz-adv-x="460" 
d="M195 0l251 1434h72l-252 -1434h-71zM481 1608l207 235h82l-227 -235h-62z" />
    <glyph glyph-name="Lcommaaccent" unicode="&#x13b;" horiz-adv-x="1075" 
d="M205 0l252 1434h71l-239 -1362h768l-13 -72h-839zM467 -451l117 267h82l-150 -267h-49z" />
    <glyph glyph-name="lcommaaccent" unicode="&#x13c;" horiz-adv-x="460" 
d="M195 0l251 1434h72l-252 -1434h-71zM41 -451l117 267h82l-150 -267h-49z" />
    <glyph glyph-name="Lcaron" unicode="&#x13d;" horiz-adv-x="1075" 
d="M205 0l252 1434h71l-239 -1362h768l-13 -72h-839zM651 1167l119 267h82l-150 -267h-51z" />
    <glyph glyph-name="lcaron" unicode="&#x13e;" horiz-adv-x="460" 
d="M195 0l251 1434h72l-252 -1434h-71zM582 1167l118 267h82l-149 -267h-51z" />
    <glyph glyph-name="Ldot" unicode="&#x13f;" horiz-adv-x="1075" 
d="M850 717l14 92h92l-14 -92h-92zM205 0l252 1434h71l-239 -1362h768l-13 -72h-839z" />
    <glyph glyph-name="ldot" unicode="&#x140;" horiz-adv-x="645" 
d="M614 686l15 92h92l-14 -92h-93zM195 0l251 1434h72l-252 -1434h-71z" />
    <glyph glyph-name="Lslash" unicode="&#x141;" 
d="M246 0l114 655l-196 -71l12 71l197 72l125 707h71l-118 -678l380 135l-12 -72l-383 -135l-106 -612h757l-12 -72h-829z" />
    <glyph glyph-name="lslash" unicode="&#x142;" horiz-adv-x="522" 
d="M225 0l121 686l-188 -72l14 72l186 72l119 676h72l-115 -656l187 72l-13 -72l-188 -71l-123 -707h-72z" />
    <glyph glyph-name="Nacute" unicode="&#x143;" horiz-adv-x="1474" 
d="M205 0l252 1434h147l559 -1362h47l240 1362h72l-252 -1434h-154l-559 1362h-41l-240 -1362h-71zM967 1608l207 235h81l-227 -235h-61z" />
    <glyph glyph-name="nacute" unicode="&#x144;" horiz-adv-x="1177" 
d="M184 0l181 1024h53l-12 -164h8q25 49 78 92q108 92 270 92t257 -100t95 -258q0 -21 -4 -57l-4 -31l-102 -598h-72q87 492 94 541q9 67 12 73q4 18 4 58q0 140 -79 220.5t-211 80.5q-150 0 -257.5 -101.5t-132.5 -257.5l-106 -614h-72zM758 1208l207 236h82l-228 -236h-61
z" />
    <glyph glyph-name="Ncommaaccent" unicode="&#x145;" horiz-adv-x="1474" 
d="M205 0l252 1434h147l559 -1362h47l240 1362h72l-252 -1434h-154l-559 1362h-41l-240 -1362h-71zM580 -451l116 267h82l-149 -267h-49z" />
    <glyph glyph-name="ncommaaccent" unicode="&#x146;" horiz-adv-x="1177" 
d="M184 0l181 1024h53l-12 -164h8q25 49 78 92q108 92 270 92t257 -100t95 -258q0 -21 -4 -57l-4 -31l-102 -598h-72q87 492 94 541q9 67 12 73q4 18 4 58q0 140 -79 220.5t-211 80.5q-150 0 -257.5 -101.5t-132.5 -257.5l-106 -614h-72zM440 -451l117 267h82l-150 -267h-49
z" />
    <glyph glyph-name="Ncaron" unicode="&#x147;" horiz-adv-x="1474" 
d="M205 0l252 1434h147l559 -1362h47l240 1362h72l-252 -1434h-154l-559 1362h-41l-240 -1362h-71zM961 1608l-173 235h76l140 -194l208 194h88l-258 -235h-81z" />
    <glyph glyph-name="ncaron" unicode="&#x148;" horiz-adv-x="1177" 
d="M184 0l181 1024h53l-12 -164h8q25 49 78 92q108 92 270 92t257 -100t95 -258q0 -21 -4 -57l-4 -31l-102 -598h-72q87 492 94 541q9 67 12 73q4 18 4 58q0 140 -79 220.5t-211 80.5q-150 0 -257.5 -101.5t-132.5 -257.5l-106 -614h-72zM745 1208l-172 236h76l139 -195
l209 195h88l-258 -236h-82z" />
    <glyph glyph-name="napostrophe" unicode="&#x149;" horiz-adv-x="1177" 
d="M184 0l181 1024h53l-12 -164h8q25 49 78 92q108 92 270 92t257 -100t95 -258q0 -21 -4 -57l-4 -31l-102 -598h-72q87 492 94 541q9 67 12 73q4 18 4 58q0 140 -79 220.5t-211 80.5q-150 0 -257.5 -101.5t-132.5 -257.5l-106 -614h-72zM256 1178l119 266h82l-150 -266h-51
z" />
    <glyph glyph-name="Eng" unicode="&#x14a;" horiz-adv-x="1474" 
d="M205 0l252 1434h147l559 -1362h47l240 1362h72l-289 -1639q-16 -104 -70.5 -154.5t-132.5 -50.5h-39h-153l12 72h154h14q117 0 143 133l37 205h-82l-559 1362h-41l-240 -1362h-71z" />
    <glyph glyph-name="eng" unicode="&#x14b;" horiz-adv-x="1177" 
d="M184 0l181 1024h53l-12 -164h8q25 49 78 92q108 92 270 92t257 -100t95 -258q0 -21 -4 -57l-4 -31l-102 -598l-39 -215q-18 -90 -70 -142.5t-137 -52.5h-156l12 72h154q102 0 125 123l39 215q87 492 94 541q9 67 12 73q4 18 4 58q0 140 -79 220.5t-211 80.5
q-150 0 -257.5 -101.5t-132.5 -257.5l-106 -614h-72z" />
    <glyph glyph-name="Omacron" unicode="&#x14c;" horiz-adv-x="1556" 
d="M987 1454q258 0 422 -173t164 -447q0 -186 -65.5 -349t-172 -272t-242 -171t-276.5 -62q-256 0 -420 173.5t-164 446.5q0 150 42.5 285.5t116 237.5t169.5 177.5t205.5 114.5t220.5 39zM821 51q101 0 200 35t185.5 103t152.5 160t104 215t38 259q0 249 -146.5 404
t-371.5 155q-126 0 -247.5 -56t-217.5 -154t-154.5 -245.5t-58.5 -316.5q0 -249 146 -404t370 -155zM788 1690l13 71h553l-13 -71h-553z" />
    <glyph glyph-name="omacron" unicode="&#x14d;" horiz-adv-x="1126" 
d="M713 1044q179 0 294 -119.5t115 -316.5q0 -113 -30 -214t-82 -175.5t-120 -129t-145.5 -82t-156.5 -27.5q-180 0 -294 119t-114 317q0 140 46 260.5t121.5 199.5t170.5 123.5t195 44.5zM707 973q-84 0 -164.5 -38t-145 -106t-104 -173.5t-39.5 -229.5q0 -171 95.5 -273
t246.5 -102q84 0 164.5 38t145 106t104 173.5t39.5 229.5q0 171 -95.5 273t-246.5 102zM502 1290l12 72h553l-12 -72h-553z" />
    <glyph glyph-name="Obreve" unicode="&#x14e;" horiz-adv-x="1556" 
d="M987 1454q258 0 422 -173t164 -447q0 -186 -65.5 -349t-172 -272t-242 -171t-276.5 -62q-256 0 -420 173.5t-164 446.5q0 150 42.5 285.5t116 237.5t169.5 177.5t205.5 114.5t220.5 39zM821 51q101 0 200 35t185.5 103t152.5 160t104 215t38 259q0 249 -146.5 404
t-371.5 155q-126 0 -247.5 -56t-217.5 -154t-154.5 -245.5t-58.5 -316.5q0 -249 146 -404t370 -155zM809 1843h72v-10q0 -63 43.5 -108.5t126.5 -45.5q151 0 198 164h72q-22 -99 -96 -167t-185 -68q-101 0 -166 63.5t-65 171.5z" />
    <glyph glyph-name="obreve" unicode="&#x14f;" horiz-adv-x="1126" 
d="M713 1044q179 0 294 -119.5t115 -316.5q0 -113 -30 -214t-82 -175.5t-120 -129t-145.5 -82t-156.5 -27.5q-180 0 -294 119t-114 317q0 140 46 260.5t121.5 199.5t170.5 123.5t195 44.5zM707 973q-84 0 -164.5 -38t-145 -106t-104 -173.5t-39.5 -229.5q0 -171 95.5 -273
t246.5 -102q84 0 164.5 38t145 106t104 173.5t39.5 229.5q0 171 -95.5 273t-246.5 102zM524 1444h72v-10q0 -63 43.5 -108.5t126.5 -45.5q152 0 199 164h71q-22 -100 -95.5 -168t-184.5 -68q-101 0 -166.5 64t-65.5 172z" />
    <glyph glyph-name="Ohungarumlaut" unicode="&#x150;" horiz-adv-x="1556" 
d="M987 1454q258 0 422 -173t164 -447q0 -186 -65.5 -349t-172 -272t-242 -171t-276.5 -62q-256 0 -420 173.5t-164 446.5q0 150 42.5 285.5t116 237.5t169.5 177.5t205.5 114.5t220.5 39zM821 51q101 0 200 35t185.5 103t152.5 160t104 215t38 259q0 249 -146.5 404
t-371.5 155q-126 0 -247.5 -56t-217.5 -154t-154.5 -245.5t-58.5 -316.5q0 -249 146 -404t370 -155zM881 1608l206 235h82l-227 -235h-61zM1126 1608l207 235h82l-227 -235h-62z" />
    <glyph glyph-name="ohungarumlaut" unicode="&#x151;" horiz-adv-x="1126" 
d="M713 1044q179 0 294 -119.5t115 -316.5q0 -113 -30 -214t-82 -175.5t-120 -129t-145.5 -82t-156.5 -27.5q-180 0 -294 119t-114 317q0 140 46 260.5t121.5 199.5t170.5 123.5t195 44.5zM707 973q-84 0 -164.5 -38t-145 -106t-104 -173.5t-39.5 -229.5q0 -171 95.5 -273
t246.5 -102q84 0 164.5 38t145 106t104 173.5t39.5 229.5q0 171 -95.5 273t-246.5 102zM594 1208l207 236h82l-228 -236h-61zM840 1208l207 236h81l-227 -236h-61z" />
    <glyph glyph-name="OE" unicode="&#x152;" horiz-adv-x="2324" 
d="M797 51q120 0 236 55.5t208 154.5t148.5 250t56.5 327q0 249 -136.5 396.5t-353.5 147.5q-119 0 -234.5 -56t-208 -155t-149.5 -249.5t-57 -325.5q0 -108 32.5 -205.5t92.5 -173.5t154.5 -121t210.5 -45zM1311 0l53 307h-10q-26 -43 -57 -82t-83.5 -85.5t-111.5 -80
t-142.5 -56.5t-175.5 -23q-241 0 -396 168.5t-155 439.5q0 130 29 248.5t80.5 212.5t121.5 171t151 128t170.5 78.5t179.5 27.5q98 0 181 -28.5t138.5 -72.5t98 -102t65 -113t33.5 -110h10l72 406h870l-12 -72h-799l-106 -604h757l-12 -72h-758l-108 -614h798l-12 -72h-870z
" />
    <glyph glyph-name="oe" unicode="&#x153;" horiz-adv-x="1918" 
d="M1081 563h756q11 114 -25.5 207.5t-117 148t-189.5 54.5q-164 0 -270.5 -111t-153.5 -299zM569 51q76 0 152.5 38t140 106t103 174t39.5 231q0 168 -91 270.5t-225 102.5q-77 0 -154 -38.5t-140 -107t-102.5 -175.5t-39.5 -232q0 -68 19.5 -132t57 -118t100 -86.5
t140.5 -32.5zM1759 287h72q-24 -57 -62.5 -109t-92.5 -97.5t-127.5 -73t-155.5 -27.5q-94 0 -168 28t-118.5 76t-68.5 104t-28 119q-43 -98 -101 -164q-143 -163 -344 -163q-167 0 -276 117.5t-109 314.5q0 142 46 263.5t120.5 200.5t165 123.5t182.5 44.5q86 0 156 -31.5
t113 -83t68.5 -108t31.5 -114.5q18 42 39 79.5t61.5 87t87 85t116 60.5t149.5 25q135 0 233 -73t138 -187t20 -241l-9 -51h-833q0 -13 -1 -32t-1 -30q-2 -81 16 -148.5t56.5 -120t103.5 -81.5t152 -29q120 0 213 62t155 174z" />
    <glyph glyph-name="Racute" unicode="&#x154;" horiz-adv-x="1331" 
d="M516 1362l-123 -696h479q178 0 298 111t120 294q0 128 -80 209.5t-219 81.5h-475zM205 0l252 1434h534q163 0 268 -101.5t105 -253.5q0 -108 -41 -200.5t-110 -154t-158 -96t-185 -34.5h-178l527 -594h-95l-524 594h-219l-105 -594h-71zM870 1608l207 235h82l-227 -235
h-62z" />
    <glyph glyph-name="racute" unicode="&#x155;" horiz-adv-x="716" 
d="M184 0l181 1024h61l-8 -102h10q15 35 66 68.5t120 33.5h27h205l-15 -72h-204h-19q-79 0 -143.5 -63.5t-81.5 -161.5l-127 -727h-72zM604 1208l207 236h82l-227 -236h-62z" />
    <glyph glyph-name="Rcommaaccent" unicode="&#x156;" horiz-adv-x="1331" 
d="M516 1362l-123 -696h479q178 0 298 111t120 294q0 128 -80 209.5t-219 81.5h-475zM205 0l252 1434h534q163 0 268 -101.5t105 -253.5q0 -108 -41 -200.5t-110 -154t-158 -96t-185 -34.5h-178l527 -594h-95l-524 594h-219l-105 -594h-71zM512 -451l117 267h82l-150 -267
h-49z" />
    <glyph glyph-name="rcommaaccent" unicode="&#x157;" horiz-adv-x="716" 
d="M184 0l181 1024h61l-8 -102h10q15 35 66 68.5t120 33.5h27h205l-15 -72h-204h-19q-79 0 -143.5 -63.5t-81.5 -161.5l-127 -727h-72zM41 -451l117 267h82l-150 -267h-49z" />
    <glyph glyph-name="Rcaron" unicode="&#x158;" horiz-adv-x="1331" 
d="M516 1362l-123 -696h479q178 0 298 111t120 294q0 128 -80 209.5t-219 81.5h-475zM205 0l252 1434h534q163 0 268 -101.5t105 -253.5q0 -108 -41 -200.5t-110 -154t-158 -96t-185 -34.5h-178l527 -594h-95l-524 594h-219l-105 -594h-71zM899 1608l-172 235h76l139 -194
l209 194h88l-258 -235h-82z" />
    <glyph glyph-name="rcaron" unicode="&#x159;" horiz-adv-x="716" 
d="M184 0l181 1024h61l-8 -102h10q15 35 66 68.5t120 33.5h27h205l-15 -72h-204h-19q-79 0 -143.5 -63.5t-81.5 -161.5l-127 -727h-72zM582 1208l-172 236h75l140 -195l209 195h88l-258 -236h-82z" />
    <glyph glyph-name="Sacute" unicode="&#x15a;" horiz-adv-x="1259" 
d="M186 420h72v-23q0 -146 118 -246t316 -100q195 0 306.5 102t111.5 250q0 93 -65.5 164t-194.5 99l-191 30q-140 25 -229.5 116.5t-89.5 209.5q0 183 133.5 307.5t345.5 124.5q221 0 349 -113t128 -282l-2 -45h-71v37q0 141 -111 236t-303 95q-180 0 -288.5 -101.5
t-108.5 -250.5q0 -94 68 -166t194 -96l186 -31q148 -24 235 -114.5t87 -212.5q0 -181 -135 -305.5t-361 -124.5q-230 0 -366 117.5t-136 291.5v25q0 4 2 6zM850 1608l207 235h82l-228 -235h-61z" />
    <glyph glyph-name="sacute" unicode="&#x15b;" horiz-adv-x="942" 
d="M147 297h72v-14q0 -99 77 -165.5t222 -66.5q144 0 222.5 68.5t78.5 167.5q0 60 -39 102.5t-114 61.5l-197 41q-104 24 -164.5 84t-60.5 145q0 133 101 228t263 95q161 0 257 -84.5t96 -211.5v-21h-72v14q0 102 -78 167t-219 65q-131 0 -203 -68t-72 -176q0 -68 48.5 -110
t115.5 -56l197 -41q105 -23 160 -84.5t55 -146.5q0 -128 -105.5 -219.5t-277.5 -91.5q-170 0 -266.5 82.5t-96.5 205.5v29zM614 1208l207 236h82l-227 -236h-62z" />
    <glyph glyph-name="Scircumflex" unicode="&#x15c;" horiz-adv-x="1259" 
d="M186 420h72v-23q0 -146 118 -246t316 -100q195 0 306.5 102t111.5 250q0 93 -65.5 164t-194.5 99l-191 30q-140 25 -229.5 116.5t-89.5 209.5q0 183 133.5 307.5t345.5 124.5q221 0 349 -113t128 -282l-2 -45h-71v37q0 141 -111 236t-303 95q-180 0 -288.5 -101.5
t-108.5 -250.5q0 -94 68 -166t194 -96l186 -31q148 -24 235 -114.5t87 -212.5q0 -181 -135 -305.5t-361 -124.5q-230 0 -366 117.5t-136 291.5v25q0 4 2 6zM635 1608l258 235h82l172 -235h-76l-139 194l-209 -194h-88z" />
    <glyph glyph-name="scircumflex" unicode="&#x15d;" horiz-adv-x="942" 
d="M147 297h72v-14q0 -99 77 -165.5t222 -66.5q144 0 222.5 68.5t78.5 167.5q0 60 -39 102.5t-114 61.5l-197 41q-104 24 -164.5 84t-60.5 145q0 133 101 228t263 95q161 0 257 -84.5t96 -211.5v-21h-72v14q0 102 -78 167t-219 65q-131 0 -203 -68t-72 -176q0 -68 48.5 -110
t115.5 -56l197 -41q105 -23 160 -84.5t55 -146.5q0 -128 -105.5 -219.5t-277.5 -91.5q-170 0 -266.5 82.5t-96.5 205.5v29zM410 1208l258 236h82l172 -236h-76l-139 195l-209 -195h-88z" />
    <glyph glyph-name="Scedilla" unicode="&#x15e;" horiz-adv-x="1259" 
d="M446 -389l11 61h90q55 0 82.5 27.5t27.5 64.5q0 33 -25 55.5t-73 26.5h-41l10 52l56 90q-183 24 -291.5 137.5t-108.5 263.5v25q0 4 2 6h72v-23q0 -146 118 -246t316 -100q195 0 306.5 102t111.5 250q0 93 -65.5 164t-194.5 99l-191 30q-140 25 -229.5 116.5t-89.5 209.5
q0 183 133.5 307.5t345.5 124.5q221 0 349 -113t128 -282l-2 -45h-71v37q0 141 -111 236t-303 95q-180 0 -288.5 -101.5t-108.5 -250.5q0 -94 68 -166t194 -96l186 -31q148 -24 235 -114.5t87 -212.5q0 -181 -135 -305.5t-361 -124.5h-35l-51 -82q57 -10 88 -42.5t31 -80.5
q0 -72 -51 -118t-127 -46h-23h-72z" />
    <glyph glyph-name="scedilla" unicode="&#x15f;" horiz-adv-x="942" 
d="M305 -389l10 61h91q55 0 82.5 27.5t27.5 64.5q0 33 -25 55.5t-73 26.5h-41l10 52l53 86q-137 17 -215 96.5t-78 187.5v29h72v-14q0 -99 77 -165.5t222 -66.5q144 0 222.5 68.5t78.5 167.5q0 60 -39 102.5t-114 61.5l-197 41q-104 24 -164.5 84t-60.5 145q0 133 101 228
t263 95q161 0 257 -84.5t96 -211.5v-21h-72v14q0 102 -78 167t-219 65q-131 0 -203 -68t-72 -176q0 -68 48.5 -110t115.5 -56l197 -41q105 -23 160 -84.5t55 -146.5q0 -128 -105.5 -219.5t-277.5 -91.5h-2l-49 -82q57 -10 88 -42.5t31 -80.5q0 -72 -51.5 -118t-127.5 -46
h-22h-72z" />
    <glyph glyph-name="Scaron" unicode="&#x160;" horiz-adv-x="1259" 
d="M186 420h72v-23q0 -146 118 -246t316 -100q195 0 306.5 102t111.5 250q0 93 -65.5 164t-194.5 99l-191 30q-140 25 -229.5 116.5t-89.5 209.5q0 183 133.5 307.5t345.5 124.5q221 0 349 -113t128 -282l-2 -45h-71v37q0 141 -111 236t-303 95q-180 0 -288.5 -101.5
t-108.5 -250.5q0 -94 68 -166t194 -96l186 -31q148 -24 235 -114.5t87 -212.5q0 -181 -135 -305.5t-361 -124.5q-230 0 -366 117.5t-136 291.5v25q0 4 2 6zM838 1608l-172 235h75l140 -194l209 194h88l-258 -235h-82z" />
    <glyph glyph-name="scaron" unicode="&#x161;" horiz-adv-x="942" 
d="M147 297h72v-14q0 -99 77 -165.5t222 -66.5q144 0 222.5 68.5t78.5 167.5q0 60 -39 102.5t-114 61.5l-197 41q-104 24 -164.5 84t-60.5 145q0 133 101 228t263 95q161 0 257 -84.5t96 -211.5v-21h-72v14q0 102 -78 167t-219 65q-131 0 -203 -68t-72 -176q0 -68 48.5 -110
t115.5 -56l197 -41q105 -23 160 -84.5t55 -146.5q0 -128 -105.5 -219.5t-277.5 -91.5q-170 0 -266.5 82.5t-96.5 205.5v29zM612 1208l-172 236h76l139 -195l209 195h88l-258 -236h-82z" />
    <glyph glyph-name="uni0162" unicode="&#x162;" horiz-adv-x="1218" 
d="M391 -389l10 61h91q55 0 82.5 27.5t27.5 64.5q0 33 -25 55.5t-73 26.5h-41l10 52l70 102l239 1362h-512l13 72h1095l-12 -72h-512l-240 -1362l-69 -102q57 -10 88 -42.5t31 -80.5q0 -72 -51.5 -118t-127.5 -46h-22h-72z" />
    <glyph glyph-name="uni0163" unicode="&#x163;" horiz-adv-x="675" 
d="M227 -389l11 61h90q55 0 82.5 27.5t27.5 64.5q0 33 -25 55.5t-73 26.5h-41l10 52l66 106q-113 21 -113 131q0 19 2 27q0 10 2 14l135 776h-163l14 72h164l49 287h72l-50 -287h277l-14 -72h-277l-137 -788q-2 -14 -2 -23q0 -60 78 -69h184l-12 -72h-142l-61 -102
q57 -10 88 -42.5t31 -80.5q0 -72 -51 -118t-127 -46h-95z" />
    <glyph glyph-name="Tcaron" unicode="&#x164;" horiz-adv-x="1218" 
d="M543 0l239 1362h-512l13 72h1095l-12 -72h-512l-240 -1362h-71zM807 1608l-172 235h76l139 -194l209 194h88l-258 -235h-82z" />
    <glyph glyph-name="tcaron" unicode="&#x165;" horiz-adv-x="675" 
d="M266 176l135 776h-163l14 72h164l49 287h72l-50 -287h277l-14 -72h-277l-137 -788q-2 -14 -2 -23q0 -60 78 -69h184l-12 -72h-187q-65 6 -100 41.5t-35 93.5q0 19 2 27q0 10 2 14zM737 1167l119 267h82l-150 -267h-51z" />
    <glyph glyph-name="Tbar" unicode="&#x166;" horiz-adv-x="1218" 
d="M543 0l159 911h-337l12 72h338l67 379h-512l13 72h1095l-12 -72h-512l-68 -379h338l-12 -72h-338l-160 -911h-71z" />
    <glyph glyph-name="tbar" unicode="&#x167;" horiz-adv-x="686" 
d="M264 164l64 368h-164l14 72h164l59 348h-163l14 72h164l49 287h72l-50 -287h277l-14 -72h-277l-59 -348h276l-14 -72h-277l-63 -368q-2 -14 -2 -23q0 -60 78 -69h184l-12 -72h-187q-65 6 -100 41.5t-35 93.5v21q0 6 2 8z" />
    <glyph glyph-name="Umacron" unicode="&#x16a;" horiz-adv-x="1433" 
d="M279 563l153 871h72l-154 -871q-6 -31 -6 -80q0 -192 115 -312t295 -120q191 0 336 144t182 368l153 871h72l-154 -871q-37 -253 -205.5 -418t-394.5 -165q-206 0 -338.5 137.5t-132.5 355.5q0 54 7 90zM727 1690l12 71h553l-12 -71h-553z" />
    <glyph glyph-name="umacron" unicode="&#x16b;" horiz-adv-x="1177" 
d="M250 426l102 598h72q-91 -517 -94 -541q-9 -64 -13 -73q-4 -18 -4 -58q0 -140 79.5 -220.5t211.5 -80.5q150 0 257 101.5t132 257.5l107 614h71l-180 -1024h-53l12 164h-8q-25 -49 -78 -92q-108 -92 -270 -92t-257 99.5t-95 258.5q0 19 4 55zM522 1290l13 72h552l-12 -72
h-553z" />
    <glyph glyph-name="Ubreve" unicode="&#x16c;" horiz-adv-x="1433" 
d="M279 563l153 871h72l-154 -871q-6 -31 -6 -80q0 -192 115 -312t295 -120q191 0 336 144t182 368l153 871h72l-154 -871q-37 -253 -205.5 -418t-394.5 -165q-206 0 -338.5 137.5t-132.5 355.5q0 54 7 90zM758 1843h71v-10q0 -63 43.5 -108.5t126.5 -45.5q152 0 199 164h72
q-22 -99 -96 -167t-185 -68q-101 0 -166 63.5t-65 171.5z" />
    <glyph glyph-name="ubreve" unicode="&#x16d;" horiz-adv-x="1177" 
d="M250 426l102 598h72q-91 -517 -94 -541q-9 -64 -13 -73q-4 -18 -4 -58q0 -140 79.5 -220.5t211.5 -80.5q150 0 257 101.5t132 257.5l107 614h71l-180 -1024h-53l12 164h-8q-25 -49 -78 -92q-108 -92 -270 -92t-257 99.5t-95 258.5q0 19 4 55zM543 1444h71v-10
q0 -63 43.5 -108.5t126.5 -45.5q152 0 199 164h72q-22 -99 -96 -167.5t-185 -68.5q-101 0 -166 64t-65 172z" />
    <glyph glyph-name="Uring" unicode="&#x16e;" horiz-adv-x="1433" 
d="M279 563l153 871h72l-154 -871q-6 -31 -6 -80q0 -192 115 -312t295 -120q191 0 336 144t182 368l153 871h72l-154 -871q-37 -253 -205.5 -418t-394.5 -165q-206 0 -338.5 137.5t-132.5 355.5q0 54 7 90zM987 1587h2q-67 0 -108 42t-41 106q0 76 54.5 128t125.5 52
q67 0 108 -42t41 -106q0 -76 -55.5 -128t-126.5 -52zM997 1649q41 0 69.5 25.5t39.5 68.5q11 48 -15 79t-79 31q-41 0 -69.5 -25.5t-39.5 -68.5q-11 -48 15 -79t79 -31z" />
    <glyph glyph-name="uring" unicode="&#x16f;" horiz-adv-x="1177" 
d="M250 426l102 598h72q-91 -517 -94 -541q-9 -64 -13 -73q-4 -18 -4 -58q0 -140 79.5 -220.5t211.5 -80.5q150 0 257 101.5t132 257.5l107 614h71l-180 -1024h-53l12 164h-8q-25 -49 -78 -92q-108 -92 -270 -92t-257 99.5t-95 258.5q0 19 4 55zM772 1188h2q-67 0 -108 41.5
t-41 105.5q0 76 54.5 128.5t125.5 52.5q67 0 108 -42t41 -106q0 -76 -55.5 -128t-126.5 -52zM782 1249q41 0 69.5 25.5t39.5 68.5q11 48 -15 79.5t-79 31.5q-41 0 -69.5 -25.5t-39.5 -68.5q-11 -48 15 -79.5t79 -31.5z" />
    <glyph glyph-name="Uhungarumlaut" unicode="&#x170;" horiz-adv-x="1433" 
d="M279 563l153 871h72l-154 -871q-6 -31 -6 -80q0 -192 115 -312t295 -120q191 0 336 144t182 368l153 871h72l-154 -871q-37 -253 -205.5 -418t-394.5 -165q-206 0 -338.5 137.5t-132.5 355.5q0 54 7 90zM809 1608l207 235h82l-228 -235h-61zM1055 1608l207 235h81
l-227 -235h-61z" />
    <glyph glyph-name="uhungarumlaut" unicode="&#x171;" horiz-adv-x="1177" 
d="M250 426l102 598h72q-91 -517 -94 -541q-9 -64 -13 -73q-4 -18 -4 -58q0 -140 79.5 -220.5t211.5 -80.5q150 0 257 101.5t132 257.5l107 614h71l-180 -1024h-53l12 164h-8q-25 -49 -78 -92q-108 -92 -270 -92t-257 99.5t-95 258.5q0 19 4 55zM604 1208l207 236h82
l-227 -236h-62zM850 1208l207 236h82l-228 -236h-61z" />
    <glyph glyph-name="Uogonek" unicode="&#x172;" horiz-adv-x="1433" 
d="M770 -307h-16q-68 0 -111 30.5t-43 83.5q0 117 107 175q-193 12 -314 147t-121 344q0 54 7 90l153 871h72l-154 -871q-6 -31 -6 -80q0 -192 115 -312t295 -120q191 0 336 144t182 368l153 871h72l-154 -871q-37 -242 -193 -405.5t-368 -175.5q-108 -53 -108 -152
q0 -35 22 -55.5t58 -20.5h26z" />
    <glyph glyph-name="uogonek" unicode="&#x173;" horiz-adv-x="1177" 
d="M936 -307h-16q-68 0 -111 30.5t-43 83.5q0 45 15.5 80.5t42.5 57.5t55 35t59 20l12 164h-8q-25 -49 -78 -92q-108 -92 -270 -92t-257 99.5t-95 258.5q0 19 4 55l4 33l102 598h72q-91 -517 -94 -541q-9 -64 -13 -73q-4 -18 -4 -58q0 -140 79.5 -220.5t211.5 -80.5
q150 0 257 101.5t132 257.5l107 614h71l-180 -1024q-74 -31 -112.5 -71.5t-38.5 -98.5q0 -35 22 -55.5t58 -20.5h26z" />
    <glyph glyph-name="Wcircumflex" unicode="&#x174;" horiz-adv-x="1843" 
d="M399 0l-106 1434h69l99 -1362h41l588 1362h143l108 -1362h41l578 1362h74l-611 -1434h-143l-109 1362h-41l-587 -1362h-144zM922 1608l258 235h82l172 -235h-76l-139 194l-209 -194h-88z" />
    <glyph glyph-name="wcircumflex" unicode="&#x175;" horiz-adv-x="1454" 
d="M332 0l-96 1024h67l84 -942h35l422 942h127l90 -942h35l415 942h76l-457 -1024h-122l-95 952h-32l-426 -952h-123zM655 1208l258 236h82l172 -236h-75l-140 195l-209 -195h-88z" />
    <glyph glyph-name="Ycircumflex" unicode="&#x176;" horiz-adv-x="1198" 
d="M543 0l92 532l-373 902h78l322 -789h51l600 789h86l-692 -902l-93 -532h-71zM594 1608l258 235h82l172 -235h-76l-139 194l-209 -194h-88z" />
    <glyph glyph-name="ycircumflex" unicode="&#x177;" horiz-adv-x="921" 
d="M33 -410l12 72h150q38 0 59.5 19.5t50.5 72.5l105 195l-215 1075h69l185 -922h36l492 922h78l-705 -1321q-33 -58 -69.5 -85.5t-94.5 -27.5h-153zM369 1208l258 236h82l172 -236h-76l-139 195l-209 -195h-88z" />
    <glyph glyph-name="Ydieresis" unicode="&#x178;" horiz-adv-x="1198" 
d="M543 0l92 532l-373 902h78l322 -789h51l600 789h86l-692 -902l-93 -532h-71zM983 1710l16 92h93l-17 -92h-92zM635 1710l16 92h92l-16 -92h-92z" />
    <glyph glyph-name="Zacute" unicode="&#x179;" horiz-adv-x="1177" 
d="M102 0l11 61l1093 1301h-854l13 72h952l-10 -62l-1094 -1300h874l-12 -72h-973zM799 1608l207 235h81l-227 -235h-61z" />
    <glyph glyph-name="zacute" unicode="&#x17a;" horiz-adv-x="860" 
d="M72 0l8 51l766 901h-598l14 72h696l-10 -51l-766 -901h619l-13 -72h-716zM584 1208l207 236h81l-227 -236h-61z" />
    <glyph glyph-name="Zdotaccent" unicode="&#x17b;" horiz-adv-x="1177" 
d="M102 0l11 61l1093 1301h-854l13 72h952l-10 -62l-1094 -1300h874l-12 -72h-973zM809 1710l16 92h93l-17 -92h-92z" />
    <glyph glyph-name="zdotaccent" unicode="&#x17c;" horiz-adv-x="860" 
d="M72 0l8 51l766 901h-598l14 72h696l-10 -51l-766 -901h619l-13 -72h-716zM594 1311l16 92h92l-16 -92h-92z" />
    <glyph glyph-name="Zcaron" unicode="&#x17d;" horiz-adv-x="1177" 
d="M102 0l11 61l1093 1301h-854l13 72h952l-10 -62l-1094 -1300h874l-12 -72h-973zM817 1608l-172 235h76l139 -194l209 194h88l-258 -235h-82z" />
    <glyph glyph-name="zcaron" unicode="&#x17e;" horiz-adv-x="860" 
d="M72 0l8 51l766 901h-598l14 72h696l-10 -51l-766 -901h619l-13 -72h-716zM592 1208l-172 236h76l139 -195l209 195h88l-258 -236h-82z" />
    <glyph glyph-name="uni018F" unicode="&#x18f;" horiz-adv-x="1495" 
d="M207 696l8 52h1219q6 39 6 98q0 120 -40 221t-109 169.5t-163.5 107t-201.5 38.5q-190 0 -332.5 -104.5t-220.5 -273.5h-82q86 198 256 324t387 126q258 0 417.5 -170t159.5 -446q0 -127 -34.5 -252t-101 -233.5t-156 -192.5t-207 -132t-246.5 -48q-159 0 -288.5 77.5
t-204 217t-74.5 313.5q0 67 8 108zM1421 676h-1147q-4 -62 -4 -84q0 -238 144 -389.5t358 -151.5q236 0 420.5 175.5t228.5 449.5z" />
    <glyph glyph-name="florin" unicode="&#x192;" horiz-adv-x="737" 
d="M-133 -410l22 72h158q78 0 105 92l294 994h-208l32 71h197l123 410q26 89 70 126.5t135 37.5h151l-22 -72h-158q-77 0 -104 -92l-123 -410h223l-33 -71h-211l-295 -994q-26 -89 -70 -126.5t-135 -37.5h-151z" />
    <glyph glyph-name="Aringacute" unicode="&#x1fa;" horiz-adv-x="1269" 
d="M956 1843l111 144h72l-127 -152q43 -13 67.5 -50t24.5 -85q0 -81 -51.5 -132.5t-130.5 -51.5q-68 0 -107 40t-39 103q0 79 52 130.5t128 53.5zM840 1665q0 -38 24.5 -63t67.5 -25q45 0 76.5 33.5t31.5 83.5q0 38 -24.5 63t-67.5 25q-45 0 -76.5 -33.5t-31.5 -83.5zM57 0
l795 1434h123l291 -1434h-68l-82 410h-758l-225 -410h-76zM399 481h701l-176 871h-41z" />
    <glyph glyph-name="aringacute" unicode="&#x1fb;" horiz-adv-x="1075" 
d="M805 1485l106 143h82l-131 -153q42 -18 66 -52.5t24 -81.5q0 -80 -56 -132t-132 -52q-66 0 -107 40t-41 103q0 80 56.5 132.5t132.5 52.5zM678 1309q0 -39 25.5 -64.5t72.5 -25.5q49 0 82 33t33 81q0 39 -25.5 64.5t-74.5 25.5t-81 -33t-32 -81zM913 0h-51q4 38 13.5 113
t11.5 92h-10q-12 -25 -29.5 -51t-51 -58.5t-73.5 -57t-100 -41.5t-127 -17q-152 0 -235 70t-83 194q0 151 108.5 250.5t274.5 99.5h385l12 72q7 47 4.5 91.5t-23 83.5t-53 68t-85 45.5t-119.5 16.5q-248 0 -317 -244h-72q27 128 134 222.5t261 94.5q100 0 174 -33
t113.5 -87.5t53.5 -120.5t1 -137zM922 461l10 61h-377q-136 0 -220.5 -78t-84.5 -190q0 -94 66 -148.5t188 -54.5q164 0 276.5 110.5t141.5 299.5z" />
    <glyph glyph-name="AEacute" unicode="&#x1fc;" horiz-adv-x="1863" 
d="M-31 0l877 1434h1126l-12 -72h-809l-107 -604h768l-12 -72h-768l-108 -614h809l-13 -72h-876l76 430h-613l-262 -430h-76zM350 502h582l151 860h-204zM1137 1608l206 235h82l-227 -235h-61z" />
    <glyph glyph-name="aeacute" unicode="&#x1fd;" horiz-adv-x="1832" 
d="M1016 563h758q8 111 -25 202t-114.5 149.5t-200.5 58.5q-156 0 -265.5 -114.5t-152.5 -295.5zM928 471l4 21h-387q-43 0 -83 -7.5t-79 -26t-67.5 -46t-46 -69.5t-17.5 -95q0 -88 62 -142t180 -55q91 0 166 32t128 89.5t88.5 133t51.5 165.5zM358 727h-71q27 133 131 225
t268 92q85 0 150 -23t104 -63t60.5 -86t27.5 -100q26 48 60 90.5t84.5 86t121.5 69.5t152 26q125 0 219.5 -62t140.5 -161.5t41 -216.5q-1 -23 -14 -112h-832q-4 -26 -4 -82q0 -175 87 -267t243 -92q232 0 367 236h71q-65 -144 -178.5 -225.5t-263.5 -81.5q-92 0 -166 31.5
t-118 81t-67.5 106.5t-23.5 114q-14 -43 -36.5 -85t-62.5 -88.5t-90.5 -80.5t-124 -56.5t-159.5 -22.5q-129 0 -213 72.5t-84 189.5q0 82 32.5 145.5t87.5 100.5t121 56t138 19h387l19 103q4 15 4 67q0 116 -79 178t-210 62q-127 0 -211 -67t-109 -179zM1044 1208l207 236
h82l-227 -236h-62z" />
    <glyph glyph-name="Oslashacute" unicode="&#x1fe;" horiz-adv-x="1556" 
d="M305 -72l131 187q-203 178 -203 485q0 150 42.5 285.5t116 237.5t169.5 177.5t205.5 114.5t220.5 39q187 0 330 -98l106 149h88l-137 -192q199 -180 199 -479q0 -186 -65.5 -349t-172 -272t-242 -171t-276.5 -62q-182 0 -321 92l-103 -144h-88zM481 176l793 1120
q-127 86 -291 86q-126 0 -247.5 -56t-217.5 -154t-154.5 -245.5t-58.5 -316.5q0 -281 176 -434zM1331 1249l-792 -1118q125 -80 282 -80q101 0 200 35t185.5 103t152.5 160t104 215t38 259q0 132 -45 241.5t-125 184.5zM1004 1608l206 235h82l-227 -235h-61z" />
    <glyph glyph-name="oslashacute" unicode="&#x1ff;" horiz-adv-x="1126" 
d="M201 -72l108 156q-129 123 -129 332q0 140 46 260.5t121.5 199.5t170.5 123.5t195 44.5q132 0 227 -65l82 117h84l-113 -160q129 -123 129 -328q0 -113 -30 -214t-82 -175.5t-120 -129t-145.5 -82t-156.5 -27.5q-124 0 -223 61l-80 -113h-84zM354 147l543 771
q-82 55 -190 55q-84 0 -164.5 -38t-145 -106t-104 -173.5t-39.5 -229.5q0 -179 100 -279zM950 874l-542 -772q74 -51 188 -51q84 0 164.5 38t145 106t104 173.5t39.5 229.5q0 172 -99 276zM717 1208l207 236h82l-228 -236h-61z" />
    <glyph glyph-name="Scommaaccent" unicode="&#x218;" horiz-adv-x="1259" 
d="M186 420h72v-23q0 -146 118 -246t316 -100q195 0 306.5 102t111.5 250q0 93 -65.5 164t-194.5 99l-191 30q-140 25 -229.5 116.5t-89.5 209.5q0 183 133.5 307.5t345.5 124.5q221 0 349 -113t128 -282l-2 -45h-71v37q0 141 -111 236t-303 95q-180 0 -288.5 -101.5
t-108.5 -250.5q0 -94 68 -166t194 -96l186 -31q148 -24 235 -114.5t87 -212.5q0 -181 -135 -305.5t-361 -124.5q-230 0 -366 117.5t-136 291.5v25q0 4 2 6zM481 -451l117 267h82l-150 -267h-49z" />
    <glyph glyph-name="scommaaccent" unicode="&#x219;" horiz-adv-x="942" 
d="M147 297h72v-14q0 -99 77 -165.5t222 -66.5q144 0 222.5 68.5t78.5 167.5q0 60 -39 102.5t-114 61.5l-197 41q-104 24 -164.5 84t-60.5 145q0 133 101 228t263 95q161 0 257 -84.5t96 -211.5v-21h-72v14q0 102 -78 167t-219 65q-131 0 -203 -68t-72 -176q0 -68 48.5 -110
t115.5 -56l197 -41q105 -23 160 -84.5t55 -146.5q0 -128 -105.5 -219.5t-277.5 -91.5q-170 0 -266.5 82.5t-96.5 205.5v29zM317 -451l117 267h82l-149 -267h-50z" />
    <glyph glyph-name="uni021A" unicode="&#x21a;" horiz-adv-x="1218" 
d="M543 0l239 1362h-512l13 72h1095l-12 -72h-512l-240 -1362h-71zM389 -451l117 267h82l-150 -267h-49z" />
    <glyph glyph-name="uni021B" unicode="&#x21b;" horiz-adv-x="675" 
d="M266 176l135 776h-163l14 72h164l49 287h72l-50 -287h277l-14 -72h-277l-137 -788q-2 -14 -2 -23q0 -60 78 -69h184l-12 -72h-187q-65 6 -100 41.5t-35 93.5q0 19 2 27q0 10 2 14zM215 -451l117 267h82l-150 -267h-49z" />
    <glyph glyph-name="uni0232" unicode="&#x232;" horiz-adv-x="1198" 
d="M543 0l92 532l-373 902h78l322 -789h51l600 789h86l-692 -902l-93 -532h-71zM573 1690l13 71h553l-13 -71h-553z" />
    <glyph glyph-name="uni0233" unicode="&#x233;" horiz-adv-x="921" 
d="M33 -410l12 72h150q38 0 59.5 19.5t50.5 72.5l105 195l-215 1075h69l185 -922h36l492 922h78l-705 -1321q-33 -58 -69.5 -85.5t-94.5 -27.5h-153zM369 1290l12 72h553l-12 -72h-553z" />
    <glyph glyph-name="uni0244" unicode="&#x244;" horiz-adv-x="1433" 
d="M279 563l61 348h-154l13 72h153l80 451h72l-80 -451h922l79 451h72l-80 -451h154l-12 -72h-154l-62 -348q-37 -253 -205.5 -418t-394.5 -165q-206 0 -338.5 137.5t-132.5 355.5q0 54 7 90zM412 911l-62 -348q-6 -31 -6 -80q0 -192 115 -312t295 -120q191 0 336 144
t182 368l61 348h-921z" />
    <glyph glyph-name="uni0259" unicode="&#x259;" horiz-adv-x="1126" 
d="M188 492l9 51h852v41q0 183 -94.5 286t-249.5 103q-77 0 -144.5 -26.5t-111 -67.5t-69.5 -76.5t-38 -65.5h-72q8 26 27.5 61t58 79.5t86.5 80.5t119.5 61t151.5 25q181 0 295 -119t114 -317q0 -141 -45.5 -261t-121.5 -199t-172.5 -123.5t-198.5 -44.5q-136 0 -235 71.5
t-140.5 188.5t-20.5 252zM1036 471h-778q-18 -181 73 -300.5t261 -119.5q166 0 292.5 120t151.5 300z" />
    <glyph glyph-name="uni0289" unicode="&#x289;" horiz-adv-x="1187" 
d="M262 426l43 260h-133l12 72h133l48 266h71l-47 -266h676l47 266h72l-47 -266h133l-13 -72h-133l-120 -686h-54l13 164h-9q-26 -50 -77 -92q-108 -92 -271 -92q-162 0 -257 99.5t-95 258.5q0 19 4 55zM1006 410l47 276h-676l-43 -244q-6 -30 -4 -32q-4 -18 -4 -58
q0 -140 79 -220.5t211 -80.5q150 0 257.5 101.5t132.5 257.5z" />
    <glyph glyph-name="uni02BC" unicode="&#x2bc;" horiz-adv-x="276" 
d="M266 1167l119 267h82l-150 -267h-51z" />
    <glyph glyph-name="circumflex" unicode="&#x2c6;" horiz-adv-x="634" 
d="M276 1229l259 235h81l172 -235h-75l-140 194l-208 -194h-89z" />
    <glyph glyph-name="caron" unicode="&#x2c7;" horiz-adv-x="634" 
d="M492 1229l-173 235h76l140 -194l208 194h88l-258 -235h-81z" />
    <glyph glyph-name="breve" unicode="&#x2d8;" horiz-adv-x="634" 
d="M303 1444h72v-10q0 -63 43.5 -108.5t126.5 -45.5q151 0 198 164h72q-22 -100 -95.5 -168t-184.5 -68q-101 0 -166.5 64t-65.5 172z" />
    <glyph glyph-name="dotaccent" unicode="&#x2d9;" horiz-adv-x="215" 
d="M291 1311l16 92h92l-16 -92h-92z" />
    <glyph glyph-name="ring" unicode="&#x2da;" horiz-adv-x="450" 
d="M434 1208h2q-67 0 -108 42t-41 106q0 76 54.5 128t125.5 52q67 0 108 -41.5t41 -105.5q0 -76 -55.5 -128.5t-126.5 -52.5zM444 1270q41 0 69.5 25.5t39.5 68.5q11 48 -15 79.5t-79 31.5q-41 0 -69.5 -26t-39.5 -69q-11 -48 15 -79t79 -31z" />
    <glyph glyph-name="ogonek" unicode="&#x2db;" horiz-adv-x="317" 
d="M190 -307h-30q-67 0 -106.5 30t-39.5 78q0 78 45 127t115 72l2 20h72l-2 -20q-75 -32 -114.5 -73t-39.5 -103q0 -28 21 -49t57 -21h31z" />
    <glyph glyph-name="tilde" unicode="&#x2dc;" horiz-adv-x="706" 
d="M352 1239h-71q17 86 68 135t120 49q35 0 69.5 -17.5t58.5 -38.5t56.5 -38.5t63.5 -17.5q39 0 68.5 29.5t39.5 82.5h72q-17 -87 -64 -135.5t-116 -48.5q-39 0 -75 17.5t-59 39t-54 39t-60 17.5q-43 0 -75 -30t-42 -83z" />
    <glyph glyph-name="hungarumlaut" unicode="&#x2dd;" horiz-adv-x="614" 
d="M276 1229l207 235h82l-227 -235h-62zM522 1229l207 235h82l-227 -235h-62z" />
    <glyph glyph-name="acutecomb" unicode="&#x301;" horiz-adv-x="0" 
d="M-512 1618l205 235h82l-226 -235h-61z" />
    <glyph glyph-name="uni0302" unicode="&#x302;" horiz-adv-x="0" 
d="M-737 1618l266 235h82l184 -235h-76l-149 194l-219 -194h-88z" />
    <glyph glyph-name="uni0304" unicode="&#x304;" horiz-adv-x="0" 
d="M-735 1690l12 71h553l-12 -71h-553z" />
    <glyph glyph-name="uni0306" unicode="&#x306;" horiz-adv-x="0" 
d="M-690 1843h72v-10q0 -73 35.5 -113.5t121.5 -40.5q73 0 129.5 47.5t81.5 116.5h72q-40 -103 -115 -169t-178 -66q-90 0 -154.5 52t-64.5 159v24z" />
    <glyph glyph-name="uni0307" unicode="&#x307;" horiz-adv-x="0" 
d="M-496 1710l17 92h92l-16 -92h-93z" />
    <glyph glyph-name="uni0308" unicode="&#x308;" horiz-adv-x="0" 
d="M-332 1710l17 92h92l-17 -92h-92zM-680 1710l16 92h93l-17 -92h-92z" />
    <glyph glyph-name="uni030A" unicode="&#x30a;" horiz-adv-x="0" 
d="M-467 1679q46 0 84.5 35t38.5 84q0 42 -28 69t-72 27q-46 0 -84.5 -34.5t-38.5 -83.5q0 -42 28 -69.5t72 -27.5zM-438 1956h2q68 0 112.5 -45.5t44.5 -108.5q0 -73 -60 -128.5t-136 -55.5q-68 0 -113 45.5t-45 108.5q0 73 60.5 128.5t134.5 55.5z" />
    <glyph glyph-name="uni030C" unicode="&#x30c;" horiz-adv-x="0" 
d="M-512 1618l-184 235h75l150 -194l219 194h88l-266 -235h-82z" />
    <glyph glyph-name="uni0326" unicode="&#x326;" horiz-adv-x="276" 
d="M-66 -471l117 266h82l-149 -266h-50z" />
    <glyph glyph-name="uni0400" unicode="&#x400;" horiz-adv-x="1228" 
d="M205 0l252 1434h880l-12 -72h-809l-106 -604h768l-13 -72h-768l-108 -614h809l-13 -72h-880zM889 1608l-141 235h81l121 -235h-61z" />
    <glyph glyph-name="uni0401" unicode="&#x401;" horiz-adv-x="1228" 
d="M205 0l252 1434h880l-12 -72h-809l-106 -604h768l-13 -72h-768l-108 -614h809l-13 -72h-880zM1053 1710l16 92h92l-16 -92h-92zM705 1710l16 92h92l-16 -92h-92z" />
    <glyph glyph-name="uni0402" unicode="&#x402;" horiz-adv-x="1392" 
d="M430 0l240 1362h-400l13 72h870l-12 -72h-400l-98 -547q111 62 287 62q204 0 328 -119.5t124 -294.5q0 -130 -66 -236.5t-180.5 -166.5t-254.5 -60h-123l12 72h109q99 0 182.5 32.5t137 86t83 122t29.5 142.5q0 147 -105.5 249.5t-279.5 102.5q-170 0 -297 -74l-127 -733
h-72z" />
    <glyph glyph-name="uni0403" unicode="&#x403;" horiz-adv-x="1095" 
d="M205 0l252 1434h829l-12 -72h-758l-240 -1362h-71zM840 1608l207 235h81l-227 -235h-61z" />
    <glyph glyph-name="uni0404" unicode="&#x404;" horiz-adv-x="1505" 
d="M317 758h777l-13 -72h-774q-2 -25 -2 -76q0 -255 147.5 -407t383.5 -152q110 0 210 40.5t172.5 106t123 134.5t81.5 139h82q-25 -57 -60 -115.5t-95.5 -128.5t-131.5 -122.5t-173 -88.5t-214 -36q-127 0 -236 42t-189.5 120.5t-126.5 200t-46 271.5q0 144 42.5 276.5
t116 233.5t168 176t203 114.5t216.5 39.5q311 0 479 -242q75 -114 103 -239h-72q-31 117 -98 205q-149 204 -420 204q-108 0 -215 -44.5t-195.5 -124t-154 -198t-89.5 -257.5z" />
    <glyph glyph-name="uni0405" unicode="&#x405;" horiz-adv-x="1259" 
d="M186 420h72v-23q0 -146 118 -246t316 -100q195 0 306.5 102t111.5 250q0 93 -65.5 164t-194.5 99l-191 30q-140 25 -229.5 116.5t-89.5 209.5q0 183 133.5 307.5t345.5 124.5q221 0 349 -113t128 -282l-2 -45h-71v37q0 141 -111 236t-303 95q-180 0 -288.5 -101.5
t-108.5 -250.5q0 -94 68 -166t194 -96l186 -31q148 -24 235 -114.5t87 -212.5q0 -181 -135 -305.5t-361 -124.5q-230 0 -366 117.5t-136 291.5v25q0 4 2 6z" />
    <glyph glyph-name="uni0406" unicode="&#x406;" horiz-adv-x="481" 
d="M205 0l252 1434h71l-252 -1434h-71z" />
    <glyph glyph-name="uni0407" unicode="&#x407;" horiz-adv-x="481" 
d="M205 0l252 1434h71l-252 -1434h-71zM670 1710l16 92h92l-16 -92h-92zM322 1710l16 92h92l-16 -92h-92z" />
    <glyph glyph-name="uni0408" unicode="&#x408;" horiz-adv-x="808" 
d="M41 0l12 72h363q75 0 113 34t49 99l217 1229h71l-217 -1229q-18 -105 -72 -155t-167 -50h-369z" />
    <glyph glyph-name="uni0409" unicode="&#x409;" horiz-adv-x="2103" 
d="M1159 72h477q152 0 263.5 110.5t111.5 280.5q0 128 -84.5 211.5t-208.5 83.5h-438zM0 -10l10 71h60q94 0 148 49.5t85 165.5l307 1158h789l-107 -605h434q154 0 256.5 -102t102.5 -256q0 -135 -64.5 -244.5t-168.5 -168t-224 -58.5h-553l240 1362h-656l-284 -1086
q-37 -148 -112.5 -217t-199.5 -69h-63z" />
    <glyph glyph-name="uni040A" unicode="&#x40a;" horiz-adv-x="2123" 
d="M1180 72h503q67 0 130 25.5t112.5 71.5t79 117.5t29.5 157.5q0 131 -87.5 207t-215.5 76h-437zM205 0l252 1434h71l-112 -635h819l113 635h71l-112 -635h438q155 0 257.5 -95.5t102.5 -248.5q0 -139 -61.5 -244t-161 -158t-219.5 -53h-567l127 727h-820l-127 -727h-71z
" />
    <glyph glyph-name="uni040B" unicode="&#x40b;" horiz-adv-x="1433" 
d="M430 0l240 1362h-400l13 72h870l-12 -72h-400l-98 -547q33 23 108 42.5t183 19.5q207 0 321.5 -101.5t114.5 -275.5q0 -46 -4 -66l-76 -434h-71l75 434q4 28 4 58q0 148 -98 231.5t-276 83.5q-168 0 -295 -74l-127 -733h-72z" />
    <glyph glyph-name="uni040C" unicode="&#x40c;" horiz-adv-x="1157" 
d="M205 0l252 1434h71l-118 -678l825 678h108l-870 -713l645 -721h-94l-625 698l-123 -698h-71zM840 1608l207 235h81l-227 -235h-61z" />
    <glyph glyph-name="uni040D" unicode="&#x40d;" horiz-adv-x="1484" 
d="M205 0l252 1434h71l-239 -1362h39l1048 1362h156l-252 -1434h-72l240 1362h-39l-1049 -1362h-155zM961 1608l-142 235h82l121 -235h-61z" />
    <glyph glyph-name="uni040E" unicode="&#x40e;" horiz-adv-x="1187" 
d="M184 0l13 72h163q55 0 76.5 11t46.5 50l129 205l-340 1096h78l301 -983h31l610 983h86l-827 -1321q-42 -67 -83 -90t-120 -23h-164zM604 1843h72v-10q0 -63 43.5 -108.5t126.5 -45.5q151 0 198 164h72q-22 -99 -96.5 -167t-185.5 -68q-101 0 -165.5 63.5t-64.5 171.5z
" />
    <glyph glyph-name="uni040F" unicode="&#x40f;" horiz-adv-x="1464" 
d="M205 0l252 1434h71l-239 -1362h911l240 1362h71l-251 -1434h-492l-51 -287h-72l51 287h-491z" />
    <glyph glyph-name="uni0410" unicode="&#x410;" horiz-adv-x="1269" 
d="M57 0l795 1434h123l291 -1434h-68l-82 410h-758l-225 -410h-76zM399 481h701l-176 871h-41z" />
    <glyph glyph-name="uni0411" unicode="&#x411;" horiz-adv-x="1300" 
d="M289 72h510q179 0 282 106t103 287q0 121 -81 202t-206 81h-489zM205 0l252 1434h901l-12 -72h-830l-96 -543h489q151 0 248.5 -99.5t97.5 -248.5q0 -214 -127 -342.5t-342 -128.5h-581z" />
    <glyph glyph-name="uni0412" unicode="&#x412;" horiz-adv-x="1300" 
d="M410 758h487q83 0 153.5 28.5t116.5 75t71.5 105t25.5 120.5q0 115 -83.5 195t-213.5 80h-451zM289 72h499q94 0 167.5 28.5t119 78t69 112.5t23.5 135q0 113 -79.5 186.5t-221.5 73.5h-469zM205 0l252 1434h506q164 0 268 -94.5t104 -241.5q0 -212 -175 -326
q-49 -32 -118 -55v-10q52 -20 99 -60q98 -86 98 -221q0 -182 -122.5 -304t-340.5 -122h-571z" />
    <glyph glyph-name="uni0413" unicode="&#x413;" horiz-adv-x="1095" 
d="M205 0l252 1434h829l-12 -72h-758l-240 -1362h-71z" />
    <glyph glyph-name="uni0414" unicode="&#x414;" horiz-adv-x="1361" 
d="M-31 -297l64 369q110 0 165 46.5t87 168.5l305 1147h809l-240 -1362h154l-66 -369h-71l53 297h-1137l-53 -297h-70zM252 72h835l228 1290h-676l-283 -1075q-36 -129 -69 -174q-12 -18 -35 -41z" />
    <glyph glyph-name="uni0415" unicode="&#x415;" horiz-adv-x="1228" 
d="M205 0l252 1434h880l-12 -72h-809l-106 -604h768l-13 -72h-768l-108 -614h809l-13 -72h-880z" />
    <glyph glyph-name="uni0416" unicode="&#x416;" horiz-adv-x="1607" 
d="M10 0l809 733l-502 701h84l494 -686l121 686h71l-120 -686l735 686h98l-766 -713l541 -721h-84l-533 707l-122 -707h-72l123 707l-778 -707h-99z" />
    <glyph glyph-name="uni0417" unicode="&#x417;" horiz-adv-x="1208" 
d="M160 389h71v-22q0 -132 109.5 -224t302.5 -92q196 0 317 104t121 255q0 115 -87 195.5t-238 80.5h-148l13 72h190q164 0 258 90t94 235q0 131 -100 216t-277 85q-154 0 -265.5 -99.5t-137.5 -240.5h-72q30 172 163.5 291t318.5 119q209 0 325.5 -101.5t116.5 -260.5
q0 -80 -24 -146.5t-58 -106.5t-76 -69.5t-72.5 -41t-52.5 -15.5l-2 -11q22 -5 52.5 -22.5t67 -50t61 -88.5t24.5 -123q0 -192 -138 -315t-362 -123q-231 0 -363 106t-132 266v37z" />
    <glyph glyph-name="uni0418" unicode="&#x418;" horiz-adv-x="1484" 
d="M205 0l252 1434h71l-239 -1362h39l1048 1362h156l-252 -1434h-72l240 1362h-39l-1049 -1362h-155z" />
    <glyph glyph-name="uni0419" unicode="&#x419;" horiz-adv-x="1484" 
d="M205 0l252 1434h71l-239 -1362h39l1048 1362h156l-252 -1434h-72l240 1362h-39l-1049 -1362h-155zM778 1843h72v-10q0 -63 43.5 -108.5t126.5 -45.5q152 0 199 164h71q-22 -99 -96.5 -167t-185.5 -68q-101 0 -165.5 63.5t-64.5 171.5z" />
    <glyph glyph-name="uni041A" unicode="&#x41a;" horiz-adv-x="1157" 
d="M205 0l252 1434h71l-118 -678l825 678h108l-870 -713l645 -721h-94l-625 698l-123 -698h-71z" />
    <glyph glyph-name="uni041B" unicode="&#x41b;" horiz-adv-x="1372" 
d="M0 -10l10 71h60q94 0 148 49.5t85 165.5l307 1158h809l-252 -1434h-71l239 1362h-676l-284 -1086q-37 -148 -112.5 -217t-199.5 -69h-63z" />
    <glyph glyph-name="uni041C" unicode="&#x41c;" horiz-adv-x="1822" 
d="M205 0l252 1434h159l283 -1362h41l762 1362h168l-252 -1434h-72l240 1362h-41l-762 -1362h-143l-283 1362h-41l-240 -1362h-71z" />
    <glyph glyph-name="uni041D" unicode="&#x41d;" horiz-adv-x="1484" 
d="M205 0l252 1434h71l-116 -666h931l117 666h72l-252 -1434h-72l121 696h-932l-121 -696h-71z" />
    <glyph glyph-name="uni041E" unicode="&#x41e;" horiz-adv-x="1556" 
d="M987 1454q258 0 422 -173t164 -447q0 -186 -65.5 -349t-172 -272t-242 -171t-276.5 -62q-256 0 -420 173.5t-164 446.5q0 150 42.5 285.5t116 237.5t169.5 177.5t205.5 114.5t220.5 39zM821 51q101 0 200 35t185.5 103t152.5 160t104 215t38 259q0 249 -146.5 404
t-371.5 155q-126 0 -247.5 -56t-217.5 -154t-154.5 -245.5t-58.5 -316.5q0 -249 146 -404t370 -155z" />
    <glyph glyph-name="uni041F" unicode="&#x41f;" horiz-adv-x="1484" 
d="M205 0l252 1434h1075l-252 -1434h-72l240 1362h-932l-240 -1362h-71z" />
    <glyph glyph-name="uni0420" unicode="&#x420;" horiz-adv-x="1310" 
d="M393 666h477q179 0 299.5 111t120.5 294q0 128 -80 209.5t-219 81.5h-475zM205 0l252 1434h534q163 0 268 -101.5t105 -253.5q0 -108 -41 -200.5t-110 -154t-158 -96t-185 -34.5h-489l-105 -594h-71z" />
    <glyph glyph-name="uni0421" unicode="&#x421;" horiz-adv-x="1505" 
d="M1423 471h82q-25 -57 -60 -115.5t-95.5 -128.5t-131.5 -122.5t-173 -88.5t-214 -36q-127 0 -236 42t-189.5 120.5t-126.5 200t-46 271.5q0 144 42.5 276.5t116 233.5t168 176t203 114.5t216.5 39.5q311 0 479 -242q75 -114 103 -239h-72q-31 117 -98 205
q-149 204 -420 204q-122 0 -241 -56t-213.5 -154.5t-153 -246t-58.5 -315.5q0 -255 147.5 -407t383.5 -152q110 0 210 40.5t172.5 106t123 134.5t81.5 139z" />
    <glyph glyph-name="uni0422" unicode="&#x422;" horiz-adv-x="1218" 
d="M543 0l239 1362h-512l13 72h1095l-12 -72h-512l-240 -1362h-71z" />
    <glyph glyph-name="uni0423" unicode="&#x423;" horiz-adv-x="1187" 
d="M184 0l13 72h163q55 0 76.5 11t46.5 50l129 205l-340 1096h78l301 -983h31l610 983h86l-827 -1321q-42 -67 -83 -90t-120 -23h-164z" />
    <glyph glyph-name="uni0424" unicode="&#x424;" horiz-adv-x="1648" 
d="M786 256h31l168 963h-31h-90q-252 0 -408.5 -153t-156.5 -396q0 -83 29.5 -153t78 -117t112.5 -80.5t131.5 -48.5t135.5 -15zM760 -41l43 225h-37q-108 0 -205.5 32.5t-171.5 92t-118 151.5t-44 202q0 134 46.5 250.5t129 199.5t200 130.5t253.5 47.5h113h30l31 185h72
l-31 -185h37q146 0 267 -55t196.5 -165.5t75.5 -256.5q0 -179 -79.5 -322.5t-223.5 -225t-326 -81.5h-144l-43 -225h-71zM1057 1219l-168 -963h121q252 0 408.5 153t156.5 396q0 83 -29.5 153t-78.5 117t-113 80.5t-131.5 48.5t-135.5 15h-30z" />
    <glyph glyph-name="uni0425" unicode="&#x425;" horiz-adv-x="1228" 
d="M41 0l627 737l-344 697h75l326 -656h41l555 656h88l-590 -697l369 -737h-76l-350 696h-41l-592 -696h-88z" />
    <glyph glyph-name="uni0426" unicode="&#x426;" horiz-adv-x="1484" 
d="M205 0l252 1434h71l-239 -1362h891l239 1362h72l-240 -1362h164l-65 -369h-72l53 297h-1126z" />
    <glyph glyph-name="uni0427" unicode="&#x427;" horiz-adv-x="1331" 
d="M1055 0l114 655q-59 -35 -127 -59q-147 -57 -309 -57q-224 0 -337 99.5t-103 297.5q1 22 10 92l72 406h71l-69 -406q-6 -29 -8 -72q-13 -181 84 -264.5t299 -83.5q161 0 313 70q71 32 121 70l121 686h71l-252 -1434h-71z" />
    <glyph glyph-name="uni0428" unicode="&#x428;" horiz-adv-x="1955" 
d="M205 0l252 1434h71l-239 -1362h665l240 1362h72l-240 -1362h666l239 1362h72l-252 -1434h-1546z" />
    <glyph glyph-name="uni0429" unicode="&#x429;" horiz-adv-x="1996" 
d="M205 0l252 1434h71l-239 -1362h665l240 1362h72l-240 -1362h666l239 1362h72l-240 -1362h164l-65 -369h-72l53 297h-1638z" />
    <glyph glyph-name="uni042A" unicode="&#x42a;" horiz-adv-x="1372" 
d="M424 72h457q171 0 286 118t115 314q0 130 -85 212.5t-230 82.5h-416zM340 0l240 1362h-318l12 72h390l-101 -564h418q165 0 269 -106t104 -262q0 -224 -138.5 -363t-347.5 -139h-528z" />
    <glyph glyph-name="uni042B" unicode="&#x42b;" horiz-adv-x="1617" 
d="M1341 0l252 1434h72l-252 -1434h-72zM289 72h450q167 0 282.5 118.5t115.5 313.5q0 129 -86 212t-224 83h-411zM205 0l252 1434h71l-100 -564h416q159 0 261.5 -106t102.5 -262q0 -148 -65 -263.5t-174 -177t-242 -61.5h-522z" />
    <glyph glyph-name="uni042C" unicode="&#x42c;" horiz-adv-x="1259" 
d="M289 72h481q173 0 286 119.5t113 314.5q0 134 -86.5 213.5t-232.5 79.5h-434zM205 0l252 1434h71l-100 -564h434q168 0 273.5 -103.5t105.5 -262.5q0 -225 -137.5 -364.5t-345.5 -139.5h-553z" />
    <glyph glyph-name="uni042D" unicode="&#x42d;" horiz-adv-x="1505" 
d="M193 471h73q11 -53 34.5 -107.5t67 -111.5t99.5 -101t138 -72t177 -28q121 0 236 52t201 139t144.5 203t74.5 241h-785l13 72h782q12 126 -18 239t-96 199t-173.5 136t-242.5 50q-96 0 -183 -31t-148.5 -77.5t-111 -104.5t-77 -106.5t-40.5 -89.5h-73q12 44 38.5 98.5
t81 124t123.5 125.5t174.5 94.5t225.5 38.5q264 0 429 -171.5t165 -457.5q0 -182 -65.5 -342.5t-171.5 -269t-240.5 -171t-272.5 -62.5q-119 0 -218 38t-160.5 93t-106.5 126t-65.5 127.5t-28.5 106.5z" />
    <glyph glyph-name="uni042E" unicode="&#x42e;" horiz-adv-x="1914" 
d="M205 0l252 1434h71l-118 -676h245q26 157 98 290t170.5 220.5t215.5 136.5t235 49q159 0 285.5 -75.5t199 -215.5t72.5 -321q0 -192 -64.5 -357t-168.5 -273.5t-234 -170t-264 -61.5q-159 0 -285.5 75.5t-199 215.5t-72.5 321q0 32 4 94h-250l-121 -686h-71zM1214 51
q95 0 189 34t176.5 102t145.5 162t100 222t37 273q0 251 -137 394.5t-365 143.5q-95 0 -188.5 -34t-176 -102t-146 -161.5t-100 -221.5t-36.5 -273q0 -252 136.5 -395.5t364.5 -143.5z" />
    <glyph glyph-name="uni042F" unicode="&#x42f;" horiz-adv-x="1320" 
d="M709 645h456l127 717h-528q-159 0 -268 -116t-109 -298q0 -131 87 -217t235 -86zM113 0l673 573h-92q-173 0 -277 105t-104 262q0 107 36.5 200t98 157t145 100.5t175.5 36.5h606l-252 -1434h-71l100 573h-266l-674 -573h-98z" />
    <glyph glyph-name="uni0430" unicode="&#x430;" horiz-adv-x="1075" 
d="M913 0h-51q4 38 13.5 113t11.5 92h-10q-12 -25 -29.5 -51t-51 -58.5t-73.5 -57t-100 -41.5t-127 -17q-152 0 -235 70t-83 194q0 151 108.5 250.5t274.5 99.5h385l12 72q7 47 4.5 91.5t-23 83.5t-53 68t-85 45.5t-119.5 16.5q-248 0 -317 -244h-72q27 128 134 222.5
t261 94.5q100 0 174 -33t113.5 -87.5t53.5 -120.5t1 -137zM922 461l10 61h-377q-136 0 -220.5 -78t-84.5 -190q0 -94 66 -148.5t188 -54.5q164 0 276.5 110.5t141.5 299.5z" />
    <glyph glyph-name="uni0431" unicode="&#x431;" 
d="M205 512l6 31q28 141 62.5 246.5t82.5 186t104 135t135 93.5t167.5 61.5t208.5 37.5q51 8 85.5 27t51.5 48.5t23.5 51t11.5 55.5h71q-24 -121 -81.5 -181.5t-165.5 -72.5q-106 -12 -184 -31t-152 -54t-127.5 -86t-97.5 -128.5t-74 -181.5l10 -2q46 62 144.5 118t218.5 56
q176 0 285.5 -112.5t109.5 -291.5q0 -116 -42.5 -217.5t-112.5 -171t-161.5 -109.5t-189.5 -40q-180 0 -290.5 113t-110.5 296q0 59 12 123zM604 51q82 0 159 34t135 93.5t93 146t35 185.5q0 150 -93.5 246t-244.5 96q-82 0 -159 -34t-135.5 -93.5t-94 -146t-35.5 -185.5
q0 -145 91 -243.5t249 -98.5z" />
    <glyph glyph-name="uni0432" unicode="&#x432;" horiz-adv-x="1064" 
d="M340 481l-72 -409h457q94 0 153.5 68.5t59.5 168.5q0 73 -51.5 122.5t-132.5 49.5h-414zM184 0l181 1024h466q108 0 179 -65t71 -173q0 -35 -6.5 -67t-17 -56.5t-24.5 -45.5t-28.5 -35.5t-30 -26.5t-28.5 -19.5t-23.5 -12.5t-16.5 -7l-5 -2v-10q28 -17 55 -47
q56 -68 56 -148q0 -135 -87 -222t-210 -87h-531zM422 952l-70 -399h436q95 0 157.5 63t62.5 164q0 78 -54.5 125t-136.5 47h-395z" />
    <glyph glyph-name="uni0433" unicode="&#x433;" horiz-adv-x="819" 
d="M184 0l181 1024h593l-14 -72h-522l-166 -952h-72z" />
    <glyph glyph-name="uni0434" unicode="&#x434;" horiz-adv-x="1064" 
d="M-16 -246l55 318h20q72 0 116.5 43t68.5 131l198 778h625l-168 -952h154l-58 -318h-71l45 246h-871l-45 -246h-69zM225 72h602l154 880h-492l-174 -706q-11 -45 -24.5 -79.5t-25 -51.5t-20.5 -27.5t-15 -13.5z" />
    <glyph glyph-name="uni0435" unicode="&#x435;" horiz-adv-x="1126" 
d="M961 287h71q-8 -26 -27.5 -61t-57.5 -79.5t-86 -80.5t-119.5 -61t-151.5 -25q-181 0 -295.5 119t-114.5 317q0 140 46 260.5t121.5 199.5t172.5 123.5t199 44.5q133 0 232 -71.5t141.5 -189t21.5 -251.5l-8 -51h-852v-41q0 -183 94.5 -286t249.5 -103q77 0 144.5 26.5
t111 67.5t69.5 76.5t38 65.5zM266 553h778q18 179 -73 299.5t-260 120.5q-166 0 -293 -120t-152 -300z" />
    <glyph glyph-name="uni0436" unicode="&#x436;" horiz-adv-x="1259" 
d="M10 0l608 528l-387 496h88l375 -481l86 481h72l-86 -481l547 481h98l-577 -508l417 -516h-88l-403 502l-88 -502h-72l88 502l-579 -502h-99z" />
    <glyph glyph-name="uni0437" unicode="&#x437;" horiz-adv-x="931" 
d="M150 317h71q-2 -2 -2 -8v-20q0 -104 82 -171t209 -67q138 0 221.5 69t83.5 171q0 77 -70.5 133.5t-187.5 56.5h-88l12 72h103h32q68 0 121 21t83.5 55.5t45.5 74t15 80.5q0 32 -15 63.5t-44 60.5t-80.5 47t-116.5 18q-126 0 -208.5 -71t-101.5 -185h-71q22 140 124 233.5
t267 93.5q144 0 230.5 -75t86.5 -181q0 -56 -17.5 -103t-42.5 -76t-56.5 -50.5t-55.5 -31t-43 -13.5v-10q46 -10 98 -68.5t52 -142.5q0 -133 -107.5 -223t-275.5 -90q-155 0 -256 85t-101 216v26q0 7 3 10z" />
    <glyph glyph-name="uni0438" unicode="&#x438;" horiz-adv-x="1157" 
d="M184 0l181 1024h71l-168 -952h39l690 952h156l-180 -1024h-72l166 952h-39l-688 -952h-156z" />
    <glyph glyph-name="uni0439" unicode="&#x439;" horiz-adv-x="1157" 
d="M184 0l181 1024h71l-168 -952h39l690 952h156l-180 -1024h-72l166 952h-39l-688 -952h-156zM553 1444h72v-10q0 -63 43.5 -108.5t126.5 -45.5q151 0 198 164h72q-22 -99 -96 -167.5t-185 -68.5q-101 0 -166 64t-65 172z" />
    <glyph glyph-name="uni043A" unicode="&#x43a;" horiz-adv-x="952" 
d="M184 0l181 1024h71l-84 -477l647 477h109l-690 -506l520 -518h-98l-498 498l-86 -498h-72z" />
    <glyph glyph-name="uni043B" unicode="&#x43b;" horiz-adv-x="1095" 
d="M0 -10l10 71h64q143 0 192 181l201 782h625l-181 -1024h-71l166 952h-490l-180 -716q-35 -128 -99 -187t-163 -59h-74z" />
    <glyph glyph-name="uni043C" unicode="&#x43c;" horiz-adv-x="1474" 
d="M184 0l181 1024h159l201 -952h41l537 952h167l-180 -1024h-71l165 952h-41l-534 -952h-143l-203 952h-41l-166 -952h-72z" />
    <glyph glyph-name="uni043D" unicode="&#x43d;" horiz-adv-x="1167" 
d="M184 0l181 1024h71l-86 -481h656l86 481h71l-180 -1024h-72l82 471h-655l-82 -471h-72z" />
    <glyph glyph-name="uni043E" unicode="&#x43e;" horiz-adv-x="1126" 
d="M713 1044q179 0 294 -119.5t115 -316.5q0 -113 -30 -214t-82 -175.5t-120 -129t-145.5 -82t-156.5 -27.5q-180 0 -294 119t-114 317q0 140 46 260.5t121.5 199.5t170.5 123.5t195 44.5zM707 973q-84 0 -164.5 -38t-145 -106t-104 -173.5t-39.5 -229.5q0 -171 95.5 -273
t246.5 -102q84 0 164.5 38t145 106t104 173.5t39.5 229.5q0 171 -95.5 273t-246.5 102z" />
    <glyph glyph-name="uni043F" unicode="&#x43f;" horiz-adv-x="1167" 
d="M184 0l181 1024h798l-180 -1024h-72l166 952h-655l-166 -952h-72z" />
    <glyph glyph-name="uni0440" unicode="&#x440;" horiz-adv-x="1187" 
d="M109 -410l251 1434h52l-19 -195h10q44 63 99 107q130 108 293 108q166 0 277.5 -119.5t111.5 -312.5q0 -145 -47 -267.5t-122.5 -200.5t-167 -121t-183.5 -43q-176 0 -283 122q-52 55 -78 123h-10l-113 -635h-71zM664 51q84 0 163.5 38t143 107t102.5 175.5t39 232.5
q0 159 -88.5 264t-247.5 105q-80 0 -158.5 -38.5t-141.5 -107t-102.5 -174t-39.5 -229.5q0 -168 93.5 -270.5t236.5 -102.5z" />
    <glyph glyph-name="uni0441" unicode="&#x441;" horiz-adv-x="1085" 
d="M979 338h72q-13 -37 -34.5 -78t-62 -93t-90 -92t-123 -67.5t-155.5 -27.5q-179 0 -292.5 119t-113.5 315q0 140 46 261t121.5 200t170 124t193.5 45q83 0 152 -26.5t111.5 -65.5t73.5 -89t44.5 -90.5t19.5 -76.5h-72q-5 32 -18.5 66t-41 72.5t-64 68.5t-92.5 50t-122 20
q-83 0 -163 -38.5t-144 -107t-103.5 -174t-39.5 -229.5q0 -169 96.5 -271t239.5 -102q264 0 391 287z" />
    <glyph glyph-name="uni0442" unicode="&#x442;" horiz-adv-x="870" 
d="M389 0l166 952h-358l14 72h788l-14 -72h-358l-166 -952h-72z" />
    <glyph glyph-name="uni0443" unicode="&#x443;" horiz-adv-x="921" 
d="M33 -410l12 72h150q38 0 59.5 19.5t50.5 72.5l105 195l-215 1075h69l185 -922h36l492 922h78l-705 -1321q-33 -58 -69.5 -85.5t-94.5 -27.5h-153z" />
    <glyph glyph-name="uni0444" unicode="&#x444;" horiz-adv-x="1402" 
d="M580 -410l73 410h-10q-90 0 -172.5 30t-146.5 84t-102 137t-38 181q0 131 44.5 243t121 188t180 118.5t220.5 42.5h84l71 410h72l-72 -410h13q121 0 223.5 -50.5t167.5 -151t65 -230.5q0 -131 -45 -243t-121.5 -188t-180 -118.5t-218.5 -42.5h-84l-74 -410h-71zM653 72
h13l153 880h-78q-206 0 -345.5 -141t-139.5 -369q0 -114 56.5 -199.5t146 -128t194.5 -42.5zM737 72h80q100 0 189 36.5t154.5 101.5t104 161.5t38.5 210.5q0 112 -57.5 198t-147.5 129t-193 43h-12z" />
    <glyph glyph-name="uni0445" unicode="&#x445;" horiz-adv-x="901" 
d="M31 0l436 522l-246 502h78l225 -461h41l389 461h86l-426 -502l256 -522h-77l-234 481h-41l-401 -481h-86z" />
    <glyph glyph-name="uni0446" unicode="&#x446;" horiz-adv-x="1167" 
d="M184 0l181 1024h71l-168 -952h635l168 952h72l-168 -952h153l-57 -318h-72l45 246h-860z" />
    <glyph glyph-name="uni0447" unicode="&#x447;" horiz-adv-x="1095" 
d="M834 0l71 416q-20 -12 -52 -25.5t-96 -28t-128 -14.5q-182 0 -273.5 73t-91.5 214q0 41 6 72l58 317h71l-57 -317q-6 -31 -6 -64q0 -113 75 -168t234 -55q98 0 169.5 24.5t105.5 51.5l94 528h71l-180 -1024h-71z" />
    <glyph glyph-name="uni0448" unicode="&#x448;" horiz-adv-x="1607" 
d="M184 0l181 1024h71l-168 -952h512l168 952h72l-168 -952h512l168 952h72l-181 -1024h-1239z" />
    <glyph glyph-name="uni0449" unicode="&#x449;" horiz-adv-x="1628" 
d="M184 0l181 1024h71l-168 -952h512l168 952h72l-168 -952h512l168 952h72l-168 -952h153l-57 -318h-72l45 246h-1321z" />
    <glyph glyph-name="uni044A" unicode="&#x44a;" horiz-adv-x="1116" 
d="M371 72h354q125 0 208 79t83 207q0 92 -66 153.5t-184 61.5h-307zM287 0l166 952h-256l14 72h328l-68 -379h307q139 0 225.5 -79t86.5 -199q0 -162 -107 -264.5t-266 -102.5h-430z" />
    <glyph glyph-name="uni044B" unicode="&#x44b;" horiz-adv-x="1351" 
d="M1096 0l180 1024h72l-181 -1024h-71zM184 0l181 1024h71l-67 -379h260q131 0 219 -76.5t88 -201.5q0 -162 -107 -264.5t-266 -102.5h-379zM268 72h307q128 0 209.5 79t81.5 207q0 100 -74 157.5t-174 57.5h-262z" />
    <glyph glyph-name="uni044C" unicode="&#x44c;" horiz-adv-x="1005" 
d="M184 0l181 1024h71l-67 -379h299q135 0 223 -76.5t88 -199.5q0 -163 -107 -266t-268 -103h-420zM268 72h348q125 0 209 78.5t84 205.5q0 100 -71.5 158.5t-180.5 58.5h-301z" />
    <glyph glyph-name="uni044D" unicode="&#x44d;" horiz-adv-x="1085" 
d="M147 338h72q5 -37 19.5 -74.5t42.5 -76t65 -68.5t91.5 -49t117.5 -19q86 0 164 36t133.5 95t92.5 134t50 155h-508l13 72h508l1 19q1 18 1 34q0 170 -95.5 273.5t-244.5 103.5q-68 0 -128 -21t-100 -51t-74.5 -71t-52 -71.5t-32.5 -62.5h-72q5 27 26.5 67.5t62.5 90
t93 91.5t126.5 70.5t154.5 28.5q181 0 294 -119t113 -317q0 -140 -46 -260.5t-121 -199.5t-169.5 -123.5t-193.5 -44.5q-82 0 -149.5 26t-110 64t-74.5 89t-47 94t-23 85z" />
    <glyph glyph-name="uni044E" unicode="&#x44e;" horiz-adv-x="1454" 
d="M911 41q6 -2 31 -2q76 0 152.5 38.5t139.5 107t102.5 175t39.5 230.5q0 168 -89 268t-226 100q-77 0 -154 -38t-140 -105.5t-102.5 -173.5t-39.5 -231q0 -160 79.5 -258.5t206.5 -110.5zM184 0l181 1024h71l-86 -481h215q40 209 181.5 349t320.5 140q166 0 274.5 -119.5
t108.5 -314.5q0 -141 -46 -262.5t-120 -200.5t-165.5 -123.5t-184.5 -44.5q-167 0 -274 119t-107 320q0 42 2 65h-217l-82 -471h-72z" />
    <glyph glyph-name="uni044F" unicode="&#x44f;" horiz-adv-x="1054" 
d="M92 0l457 389h-27q-126 0 -208.5 76.5t-82.5 202.5q0 153 103.5 254.5t253.5 101.5h463l-181 -1024h-71l67 389h-219l-457 -389h-98zM516 461h363l86 491h-365q-131 0 -214 -77.5t-83 -200.5q0 -88 56.5 -147t156.5 -66z" />
    <glyph glyph-name="uni0450" unicode="&#x450;" horiz-adv-x="1126" 
d="M961 287h71q-8 -26 -27.5 -61t-57.5 -79.5t-86 -80.5t-119.5 -61t-151.5 -25q-181 0 -295.5 119t-114.5 317q0 140 46 260.5t121.5 199.5t172.5 123.5t199 44.5q133 0 232 -71.5t141.5 -189t21.5 -251.5l-8 -51h-852v-41q0 -183 94.5 -286t249.5 -103q77 0 144.5 26.5
t111 67.5t69.5 76.5t38 65.5zM266 553h778q18 179 -73 299.5t-260 120.5q-166 0 -293 -120t-152 -300zM725 1208l-141 236h82l120 -236h-61z" />
    <glyph glyph-name="uni0451" unicode="&#x451;" horiz-adv-x="1126" 
d="M961 287h71q-8 -26 -27.5 -61t-57.5 -79.5t-86 -80.5t-119.5 -61t-151.5 -25q-181 0 -295.5 119t-114.5 317q0 140 46 260.5t121.5 199.5t172.5 123.5t199 44.5q133 0 232 -71.5t141.5 -189t21.5 -251.5l-8 -51h-852v-41q0 -183 94.5 -286t249.5 -103q77 0 144.5 26.5
t111 67.5t69.5 76.5t38 65.5zM266 553h778q18 179 -73 299.5t-260 120.5q-166 0 -293 -120t-152 -300zM901 1311l17 92h92l-17 -92h-92zM553 1311l16 92h93l-17 -92h-92z" />
    <glyph glyph-name="uni0452" unicode="&#x452;" horiz-adv-x="1175" 
d="M571 -410l13 72h129q174 0 213 195l24 143q32 187 54 313t28 157t6 32q2 23 2 47q0 140 -79 220.5t-211 80.5q-150 0 -257.5 -101t-132.5 -257l-86 -492h-71l207 1167h-195l12 72h195l35 195h71l-34 -195h378l-12 -72h-381l-76 -430h9q26 50 77 92q109 93 271 93
q161 0 256.5 -100.5t95.5 -258.5q0 -21 -4 -57l-4 -31l-82 -475l-25 -143q-22 -133 -99.5 -200t-180.5 -67h-146z" />
    <glyph glyph-name="uni0453" unicode="&#x453;" horiz-adv-x="819" 
d="M184 0l181 1024h593l-14 -72h-522l-166 -952h-72zM645 1208l207 236h82l-227 -236h-62z" />
    <glyph glyph-name="uni0454" unicode="&#x454;" horiz-adv-x="1085" 
d="M262 543h506l-12 -72h-502q-2 -25 -2 -39q0 -178 93.5 -279.5t248.5 -101.5q250 0 385 287h72q-15 -41 -38 -83.5t-64 -93.5t-90 -89.5t-121 -65t-152 -26.5q-179 0 -292.5 119t-113.5 315q0 140 46 261t121.5 200t170 124t193.5 45q65 0 121.5 -16t95.5 -41t71 -59.5
t51 -66.5t33.5 -67t20 -57.5t8.5 -40.5h-72q-10 38 -25 74t-43 74t-63.5 65.5t-89 45.5t-117.5 18q-160 0 -286 -123.5t-154 -306.5z" />
    <glyph glyph-name="uni0455" unicode="&#x455;" horiz-adv-x="942" 
d="M147 297h72v-14q0 -99 77 -165.5t222 -66.5q144 0 222.5 68.5t78.5 167.5q0 60 -39 102.5t-114 61.5l-197 41q-104 24 -164.5 84t-60.5 145q0 133 101 228t263 95q161 0 257 -84.5t96 -211.5v-21h-72v14q0 102 -78 167t-219 65q-131 0 -203 -68t-72 -176q0 -68 48.5 -110
t115.5 -56l197 -41q105 -23 160 -84.5t55 -146.5q0 -128 -105.5 -219.5t-277.5 -91.5q-170 0 -266.5 82.5t-96.5 205.5v29z" />
    <glyph glyph-name="uni0456" unicode="&#x456;" horiz-adv-x="440" 
d="M184 0l181 1024h71l-180 -1024h-72zM403 1311l17 92h92l-16 -92h-93z" />
    <glyph glyph-name="uni0457" unicode="&#x457;" horiz-adv-x="440" 
d="M184 0l181 1024h71l-180 -1024h-72zM578 1311l16 92h92l-16 -92h-92zM229 1311l17 92h92l-16 -92h-93z" />
    <glyph glyph-name="uni0458" unicode="&#x458;" horiz-adv-x="440" 
d="M403 1311l17 92h92l-16 -92h-93zM-143 -410l12 72h178q75 0 92 92l226 1270h71l-225 -1270q-27 -164 -176 -164h-178z" />
    <glyph glyph-name="uni0459" unicode="&#x459;" horiz-adv-x="1591" 
d="M903 72h318q125 0 197.5 71.5t72.5 184.5q0 89 -58.5 141.5t-140.5 52.5h-311zM0 -10l10 71h64q143 0 192 181l201 782h604l-76 -430h308q114 0 188 -72t74 -188q0 -140 -97.5 -237t-253.5 -97h-395l166 952h-469l-180 -716q-35 -128 -99 -187t-163 -59h-74z" />
    <glyph glyph-name="uni045A" unicode="&#x45a;" horiz-adv-x="1632" 
d="M944 72h318q125 0 197.5 71.5t72.5 184.5q0 89 -58.5 141.5t-140.5 52.5h-311zM184 0l181 1024h71l-76 -430h605l75 430h72l-76 -430h307q114 0 188.5 -72t74.5 -188q0 -140 -97.5 -237t-253.5 -97h-395l90 522h-604l-90 -522h-72z" />
    <glyph glyph-name="uni045B" unicode="&#x45b;" horiz-adv-x="1175" 
d="M203 0l207 1167h-195l12 72h195l35 195h71l-34 -195h378l-12 -72h-381l-76 -430h9q26 50 77 92q109 93 271 93q161 0 256.5 -100.5t95.5 -258.5q0 -21 -4 -57l-4 -31l-82 -475h-72q32 187 54 313t28 157t6 32q2 23 2 47q0 140 -79 220.5t-211 80.5q-150 0 -257.5 -101
t-132.5 -257l-86 -492h-71z" />
    <glyph glyph-name="uni045C" unicode="&#x45c;" horiz-adv-x="952" 
d="M184 0l181 1024h71l-84 -477l647 477h109l-690 -506l520 -518h-98l-498 498l-86 -498h-72zM686 1208l207 236h82l-227 -236h-62z" />
    <glyph glyph-name="uni045D" unicode="&#x45d;" horiz-adv-x="1157" 
d="M184 0l181 1024h71l-168 -952h39l690 952h156l-180 -1024h-72l166 952h-39l-688 -952h-156zM735 1208l-141 236h82l121 -236h-62z" />
    <glyph glyph-name="uni045E" unicode="&#x45e;" horiz-adv-x="921" 
d="M33 -410l12 72h150q38 0 59.5 19.5t50.5 72.5l105 195l-215 1075h69l185 -922h36l492 922h78l-705 -1321q-33 -58 -69.5 -85.5t-94.5 -27.5h-153zM399 1444h72v-10q0 -63 43.5 -108.5t126.5 -45.5q152 0 199 164h71q-22 -100 -95.5 -168t-184.5 -68q-101 0 -166.5 64
t-65.5 172z" />
    <glyph glyph-name="uni045F" unicode="&#x45f;" horiz-adv-x="1146" 
d="M184 0l181 1024h71l-168 -952h635l168 952h72l-180 -1024h-349l-45 -246h-71l45 246h-359z" />
    <glyph glyph-name="uni0462" unicode="&#x462;" horiz-adv-x="1351" 
d="M307 0l199 1137h-307l14 71h307l39 226h72l-39 -226h389l-14 -71h-389l-58 -328h426q159 0 265 -100.5t106 -253.5q0 -129 -63 -234t-167.5 -163t-226.5 -58h-553zM508 737l-117 -665h467q170 0 278.5 108t108.5 264q0 129 -88 211t-225 82h-424z" />
    <glyph glyph-name="uni0463" unicode="&#x463;" horiz-adv-x="1075" 
d="M330 72h362q125 0 209 78.5t84 205.5q0 100 -71.5 158.5t-180.5 58.5h-315zM246 0l166 952h-236l14 72h236l72 408h71l-71 -408h297l-15 -72h-297l-53 -307h313q135 0 223.5 -76.5t88.5 -199.5q0 -163 -107 -266t-268 -103h-434z" />
    <glyph glyph-name="uni046A" unicode="&#x46a;" horiz-adv-x="1566" 
d="M920 829l632 533h-1075zM102 0l29 158q24 133 78 244t125 186t157 127.5t173.5 77t175.5 26.5q-258 302 -457 543l12 72h1280l-12 -72l-649 -543q222 -38 352.5 -186.5t130.5 -388.5q0 -112 -16 -170l-17 -74h-71l18 80q14 66 14 158q0 114 -36.5 207.5t-101.5 156
t-150.5 100t-186.5 46.5l-131 -748h-71l131 748h-5q-115 0 -222 -37.5t-198 -110t-157 -188t-94 -260.5l-29 -152h-72z" />
    <glyph glyph-name="uni046B" unicode="&#x46b;" horiz-adv-x="1218" 
d="M702 543h11l461 409h-789zM164 0h-72q36 249 181 390.5t352 141.5l-326 420l14 72h973l-14 -72l-473 -420q157 -25 257.5 -132t100.5 -263q0 -76 -10 -137h-72q10 59 10 135q0 138 -102.5 234.5t-245.5 101.5l-82 -471h-71l82 471h-25q-192 0 -317 -124t-160 -347z" />
    <glyph glyph-name="uni0472" unicode="&#x472;" horiz-adv-x="1556" 
d="M1499 768q2 18 2 55q0 249 -146.5 404t-371.5 155q-115 0 -226.5 -46.5t-203 -128.5t-156 -205.5t-84.5 -268.5q37 22 119 44t189 22q103 0 289 -46t288 -46q87 0 172 20t129 41zM1493 700q-23 -13 -57.5 -25.5t-104.5 -26t-145 -13.5q-102 0 -289 46t-289 46
q-90 0 -177 -21.5t-124 -43.5q0 -8 -1 -26t-1 -26q0 -249 146 -404t370 -155q117 0 229 46t203 128.5t155.5 205.5t84.5 269zM987 1454q258 0 422 -173t164 -447q0 -186 -65.5 -349t-172 -272t-242 -171t-276.5 -62q-256 0 -420 173.5t-164 446.5q0 150 42.5 285.5
t116 237.5t169.5 177.5t205.5 114.5t220.5 39z" />
    <glyph glyph-name="uni0473" unicode="&#x473;" horiz-adv-x="1126" 
d="M1049 561v37q0 171 -95.5 273t-246.5 102q-76 0 -150 -31t-135 -88t-104.5 -143.5t-57.5 -190.5q26 12 62 21q86 22 155 22q83 0 181.5 -20.5t179.5 -20.5t155 19q39 10 56 20zM713 1044q179 0 294 -119.5t115 -316.5q0 -113 -30 -214t-82 -175.5t-120 -129t-145.5 -82
t-156.5 -27.5q-180 0 -294 119t-114 317q0 140 46 260.5t121.5 199.5t170.5 123.5t195 44.5zM1042 502q-26 -13 -57 -21q-78 -20 -158 -20q-81 0 -179 20.5t-181 20.5q-64 0 -154 -23q-34 -9 -59 -20v-33q0 -171 95.5 -273t246.5 -102q74 0 147.5 31t135 87t105.5 142.5
t58 190.5z" />
    <glyph glyph-name="uni0474" unicode="&#x474;" horiz-adv-x="1290" 
d="M543 0l-260 1434h73l246 -1362h41l574 1075q92 161 152.5 224t135.5 63q29 0 47 -11l17 -8l-13 -69q0 1 -6.5 5t-18.5 7.5t-24 3.5q-93 0 -211 -215l-610 -1147h-143z" />
    <glyph glyph-name="uni0475" unicode="&#x475;" horiz-adv-x="1013" 
d="M414 0l-209 1024h74l190 -952h33l395 716q76 129 129.5 182.5t118.5 53.5q25 0 53 -12l16 -13l-14 -69l-14 10q-20 12 -43 12q-41 0 -77.5 -35.5t-90.5 -128.5l-438 -788h-123z" />
    <glyph glyph-name="uni048A" unicode="&#x48a;" horiz-adv-x="1484" 
d="M205 0l252 1434h71l-239 -1362h39l1048 1362h156l-240 -1362h185l-7 -31l-182 -338h-51l125 297h-154l240 1362h-39l-1049 -1362h-155zM776 1843h72v-10q0 -63 43.5 -108.5t126.5 -45.5q152 0 199 164h71q-22 -99 -96.5 -167t-185.5 -68q-101 0 -165.5 63.5t-64.5 171.5z
" />
    <glyph glyph-name="uni048B" unicode="&#x48b;" horiz-adv-x="1157" 
d="M184 0l181 1024h71l-168 -952h39l690 952h156l-168 -952h184l-4 -21l-155 -297h-52l107 246h-164l166 952h-39l-688 -952h-156zM543 1444h71v-10q0 -63 43.5 -108.5t126.5 -45.5q152 0 199 164h72q-22 -99 -96 -167.5t-185 -68.5q-101 0 -166 64t-65 172z" />
    <glyph glyph-name="uni048C" unicode="&#x48c;" horiz-adv-x="1351" 
d="M307 0l199 1137h-307l14 71h307l39 226h72l-39 -226h389l-14 -71h-389l-58 -328h426q159 0 265 -100.5t106 -253.5q0 -129 -63 -234t-167.5 -163t-226.5 -58h-553zM508 737l-117 -665h467q170 0 278.5 108t108.5 264q0 129 -88 211t-225 82h-424z" />
    <glyph glyph-name="uni048D" unicode="&#x48d;" horiz-adv-x="1075" 
d="M330 72h362q125 0 209 78.5t84 205.5q0 100 -71.5 158.5t-180.5 58.5h-315zM246 0l166 952h-236l14 72h236l72 408h71l-71 -408h297l-15 -72h-297l-53 -307h313q135 0 223.5 -76.5t88.5 -199.5q0 -163 -107 -266t-268 -103h-434z" />
    <glyph glyph-name="uni048E" unicode="&#x48e;" horiz-adv-x="1310" 
d="M205 0l252 1434h534q163 0 268 -101.5t105 -253.5q0 -143 -65.5 -251.5t-178.5 -170.5l68 -125l-68 -40l-69 133q-88 -31 -181 -31h-489l-105 -594h-71zM393 666h477q83 0 148 22l-74 141l68 41l78 -151q94 51 147 141t53 211q0 128 -80 209.5t-219 81.5h-475z" />
    <glyph glyph-name="uni048F" unicode="&#x48f;" horiz-adv-x="1187" 
d="M111 -410l251 1434h52l-19 -195h11q45 65 98 107q130 108 293 108q166 0 277.5 -119.5t111.5 -312.5q0 -166 -58.5 -297t-156.5 -215h2l69 -120l-59 -41l-68 118h-2q-121 -77 -247 -77q-176 0 -283 122q-52 55 -78 123h-10l-113 -635h-71zM883 119l-86 157l59 41l82 -155
q82 76 129 188t47 254q0 159 -88.5 264t-247.5 105q-80 0 -158.5 -38.5t-141.5 -107t-102.5 -174t-39.5 -229.5q0 -168 93.5 -270.5t236.5 -102.5q114 0 217 68z" />
    <glyph glyph-name="uni0490" unicode="&#x490;" 
d="M205 0l252 1434h778l51 286h72l-64 -358h-778l-240 -1362h-71z" />
    <glyph glyph-name="uni0491" unicode="&#x491;" horiz-adv-x="829" 
d="M184 0l181 1024h532l43 246h72l-58 -318h-532l-166 -952h-72z" />
    <glyph glyph-name="uni0492" unicode="&#x492;" horiz-adv-x="1085" 
d="M205 0l121 696h-154l14 72h154l117 666h819l-12 -72h-748l-104 -594h399l-14 -72h-400l-121 -696h-71z" />
    <glyph glyph-name="uni0493" unicode="&#x493;" horiz-adv-x="819" 
d="M184 0l82 471h-143l12 72h144l86 481h593l-14 -72h-522l-72 -409h369l-12 -72h-369l-82 -471h-72z" />
    <glyph glyph-name="uni0494" unicode="&#x494;" horiz-adv-x="1239" 
d="M205 0l252 1434h827l-12 -72h-756l-117 -666q32 23 74 37q106 39 211 39q225 0 360.5 -125.5t135.5 -324.5q0 -129 -43.5 -236t-116.5 -176.5t-166.5 -107.5t-196.5 -38h-45l13 72h34q191 0 320 129.5t129 351.5q0 171 -114 277t-314 106q-127 0 -223 -49
q-38 -19 -74 -47l-107 -604h-71z" />
    <glyph glyph-name="uni0495" unicode="&#x495;" horiz-adv-x="1003" 
d="M449 -410l12 72h28q66 0 134 32t126 90t95 150t37 201q0 149 -87 247.5t-231 98.5q-103 0 -176 -41q-31 -15 -61 -41l-70 -399h-72l181 1024h593l-14 -72h-522l-82 -467q29 19 63 33q90 35 172 35q171 0 275 -117.5t104 -290.5q0 -102 -28.5 -192.5t-76.5 -155.5
t-109.5 -112.5t-127.5 -71t-131 -23.5h-32z" />
    <glyph glyph-name="uni0496" unicode="&#x496;" horiz-adv-x="1597" 
d="M10 0l809 733l-502 701h84l494 -686l121 686h71l-120 -686l735 686h98l-766 -713l488 -649h135l-66 -369h-71l53 297h-82l-533 707l-122 -707h-72l123 707l-778 -707h-99z" />
    <glyph glyph-name="uni0497" unicode="&#x497;" horiz-adv-x="1300" 
d="M10 0l608 528l-387 496h88l375 -481l86 481h72l-86 -481l547 481h98l-577 -508l358 -444h127l-57 -318h-72l45 246h-72l-403 502l-88 -502h-72l88 502l-579 -502h-99z" />
    <glyph glyph-name="uni0498" unicode="&#x498;" horiz-adv-x="1208" 
d="M506 -297l49 283q-187 24 -291 124.5t-104 241.5v37h71v-22q0 -132 109.5 -224t302.5 -92q196 0 317 104t121 255q0 115 -87 195.5t-238 80.5h-148l13 72h190q164 0 258 90t94 235q0 131 -100 216t-277 85q-154 0 -265.5 -99.5t-137.5 -240.5h-72q30 172 163.5 291
t318.5 119q209 0 325.5 -101.5t116.5 -260.5q0 -80 -24 -146.5t-58 -106.5t-76 -69.5t-72.5 -41t-52.5 -15.5l-2 -11q22 -5 52.5 -22.5t67 -50t61 -88.5t24.5 -123q0 -192 -138 -315t-362 -123h-30l-47 -277h-72z" />
    <glyph glyph-name="uni0499" unicode="&#x499;" horiz-adv-x="931" 
d="M391 -246l41 232q-130 19 -207.5 99t-77.5 196v26q0 7 3 10h71q-2 -2 -2 -8v-20q0 -104 82 -171t209 -67q138 0 221.5 69t83.5 171q0 77 -70.5 133.5t-187.5 56.5h-88l12 72h135q68 0 121 21t83.5 55.5t45.5 74t15 80.5q0 32 -15 63.5t-44 60.5t-80.5 47t-116.5 18
q-126 0 -208.5 -71t-101.5 -185h-71q22 140 124 233.5t267 93.5q144 0 230.5 -75t86.5 -181q0 -56 -17.5 -103t-42.5 -76t-56.5 -50.5t-55.5 -31t-43 -13.5v-10q46 -10 98 -68.5t52 -142.5q0 -133 -107.5 -223t-275.5 -90l-41 -226h-72z" />
    <glyph glyph-name="uni049A" unicode="&#x49a;" horiz-adv-x="1177" 
d="M205 0l252 1434h71l-118 -678l825 678h108l-870 -713l582 -649h135l-66 -369h-71l53 297h-82l-625 698l-123 -698h-71z" />
    <glyph glyph-name="uni049B" unicode="&#x49b;" horiz-adv-x="983" 
d="M184 0l181 1024h71l-84 -477l647 477h109l-690 -506l448 -446h129l-57 -318h-72l45 246h-71l-498 498l-86 -498h-72z" />
    <glyph glyph-name="uni049C" unicode="&#x49c;" horiz-adv-x="1198" 
d="M205 0l252 1434h71l-118 -676h133l39 225h71l-39 -225h103l569 676h90l-604 -717l379 -717h-86l-360 686h-103l-39 -215h-71l38 215h-133l-121 -686h-71z" />
    <glyph glyph-name="uni049D" unicode="&#x49d;" horiz-adv-x="962" 
d="M184 0l181 1024h71l-82 -461h92l29 164h72l-29 -164h60l448 461h92l-495 -506l325 -518h-82l-309 492h-51l-31 -175h-72l31 175h-92l-86 -492h-72z" />
    <glyph glyph-name="uni049E" unicode="&#x49e;" horiz-adv-x="1157" 
d="M205 0l203 1157h-164l12 72h164l37 205h71l-36 -205h153l-12 -72h-154l-69 -401l825 678h108l-870 -713l645 -721h-94l-625 698l-123 -698h-71z" />
    <glyph glyph-name="uni049F" unicode="&#x49f;" horiz-adv-x="952" 
d="M184 0l203 1157h-164l13 72h163l37 205h72l-37 -205h225l-12 -72h-225l-107 -610l647 477h109l-690 -506l520 -518h-98l-498 498l-86 -498h-72z" />
    <glyph glyph-name="uni04A0" unicode="&#x4a0;" horiz-adv-x="1177" 
d="M225 0l240 1362h-195l13 72h266l-119 -678l825 678h109l-870 -713l645 -721h-95l-624 698l-123 -698h-72z" />
    <glyph glyph-name="uni04A1" unicode="&#x4a1;" horiz-adv-x="972" 
d="M205 0l168 952h-207l14 72h277l-84 -477l647 477h108l-690 -506l520 -518h-98l-498 498l-86 -498h-71z" />
    <glyph glyph-name="uni04A2" unicode="&#x4a2;" horiz-adv-x="1515" 
d="M205 0l252 1434h71l-116 -666h921l117 666h72l-240 -1362h164l-66 -369h-71l53 297h-164l121 696h-922l-121 -696h-71z" />
    <glyph glyph-name="uni04A3" unicode="&#x4a3;" horiz-adv-x="1167" 
d="M184 0l181 1024h71l-86 -481h656l86 481h71l-168 -952h154l-57 -318h-72l45 246h-154l82 471h-655l-82 -471h-72z" />
    <glyph glyph-name="uni04A4" unicode="&#x4a4;" horiz-adv-x="2017" 
d="M205 0l252 1434h71l-116 -666h880l117 666h799l-13 -72h-727l-239 -1362h-72l121 696h-881l-121 -696h-71z" />
    <glyph glyph-name="uni04A5" unicode="&#x4a5;" horiz-adv-x="1474" 
d="M184 0l181 1024h71l-86 -481h615l86 481h563l-15 -72h-491l-166 -952h-72l82 471h-614l-82 -471h-72z" />
    <glyph glyph-name="uni04A6" unicode="&#x4a6;" horiz-adv-x="2119" 
d="M205 0l252 1434h962l-129 -738q37 22 74 35q101 37 233 37q216 0 341.5 -122t125.5 -318q0 -132 -44 -241t-117.5 -178.5t-167 -107t-195.5 -37.5h-47l12 72h41q69 0 134.5 20t122.5 61t100 99t67.5 139.5t24.5 176.5q0 168 -110 266t-308 98q-135 0 -231 -45
q-44 -21 -72 -43l-107 -608h-71l239 1362h-819l-240 -1362h-71z" />
    <glyph glyph-name="uni04A7" unicode="&#x4a7;" horiz-adv-x="1628" 
d="M184 0l181 1024h706l-96 -539q7 7 33 21.5t83.5 30.5t118.5 16q171 0 275 -117.5t104 -290.5q0 -102 -28.5 -192.5t-76.5 -155.5t-109.5 -112.5t-127.5 -71t-131 -23.5h-33l13 72h28q66 0 134 32t126 90t95 150t37 201q0 149 -87 247.5t-231 98.5q-65 0 -124.5 -21
t-81 -36t-31.5 -25l-70 -399h-72l166 952h-563l-166 -952h-72z" />
    <glyph glyph-name="uni04A8" unicode="&#x4a8;" horiz-adv-x="1568" 
d="M1364 45l-12 -65q-110 0 -201 26q-30 6 -78 27q-40 -20 -72 -27q-87 -26 -204 -26q-114 0 -217 45t-179.5 125t-122 196.5t-45.5 251.5q0 187 66 351t172 272.5t238 170.5t266 62h49l-12 -72h-45q-118 0 -235.5 -56.5t-212.5 -154.5t-154.5 -247t-59.5 -318
q0 -248 142.5 -401.5t361.5 -153.5q59 0 125 12l55 13q-117 71 -202 220t-85 296q0 131 32 245.5t85.5 195t122.5 139t143 86.5t146 28q150 0 252 -119t102 -327q0 -131 -36 -254.5t-97 -219.5t-135.5 -170t-155.5 -120q59 -31 203 -31zM1067 104q89 40 168.5 109t143 162
t100.5 215t37 256q0 176 -82 272t-209 96q-77 0 -154.5 -40t-144 -114t-108.5 -195t-42 -267q0 -88 32 -174.5t80.5 -149.5t94.5 -106t84 -64z" />
    <glyph glyph-name="uni04A9" unicode="&#x4a9;" horiz-adv-x="1136" 
d="M788 102q111 61 191 191.5t80 304.5q0 105 -45 164t-109 59q-41 0 -84.5 -27t-82 -77.5t-63 -133t-24.5 -182.5q0 -170 137 -299zM983 41l-12 -61q-109 0 -191 40q-16 -7 -59 -20q-70 -20 -127 -20q-183 0 -297.5 118t-114.5 318q0 140 46 260.5t121.5 199.5t170 123.5
t193.5 44.5h24l-12 -71h-23q-83 0 -162.5 -38.5t-142.5 -107t-102 -174t-39 -229.5q0 -175 97 -274t253 -99q55 0 111 21q-137 141 -137 338q0 114 31 209t80 153t106 89.5t114 31.5q91 0 155 -77t64 -212q0 -185 -81 -326t-195 -217q43 -20 121 -20h8z" />
    <glyph glyph-name="uni04AA" unicode="&#x4aa;" horiz-adv-x="1505" 
d="M682 -297l49 285q-224 30 -361 193.5t-137 432.5q0 144 42.5 276.5t116 233.5t168 176t203 114.5t216.5 39.5q311 0 479 -242q75 -114 103 -239h-72q-31 117 -98 205q-149 204 -420 204q-122 0 -241 -56t-213.5 -154.5t-153 -246t-58.5 -315.5q0 -255 147.5 -407
t383.5 -152q110 0 210 40.5t172.5 106t123 134.5t81.5 139h82q-25 -57 -60 -115.5t-95.5 -128.5t-131.5 -122.5t-173 -88.5t-214 -36h-28l-49 -277h-72z" />
    <glyph glyph-name="uni04AB" unicode="&#x4ab;" horiz-adv-x="1085" 
d="M477 -246l41 232q-154 21 -246 135t-92 293q0 140 46 261t121.5 200t170 124t193.5 45q83 0 152 -26.5t111.5 -65.5t73.5 -89t44.5 -90.5t19.5 -76.5h-72q-5 32 -18.5 66t-41 72.5t-64 68.5t-92.5 50t-122 20q-83 0 -163 -38.5t-144 -107t-103.5 -174t-39.5 -229.5
q0 -169 96.5 -271t239.5 -102q264 0 391 287h72q-13 -37 -34.5 -78.5t-62.5 -93t-90.5 -91.5t-122 -67.5t-153.5 -27.5l-41 -226h-70z" />
    <glyph glyph-name="uni04AC" unicode="&#x4ac;" horiz-adv-x="1218" 
d="M653 -297l54 297h-164l239 1362h-512l13 72h1095l-12 -72h-512l-227 -1290h164l-66 -369h-72z" />
    <glyph glyph-name="uni04AD" unicode="&#x4ad;" horiz-adv-x="870" 
d="M498 -246l45 246h-154l166 952h-358l14 72h788l-14 -72h-358l-154 -880h154l-58 -318h-71z" />
    <glyph glyph-name="uni04AE" unicode="&#x4ae;" horiz-adv-x="1198" 
d="M543 0l92 532l-373 902h78l322 -789h51l600 789h86l-692 -902l-93 -532h-71z" />
    <glyph glyph-name="uni04AF" unicode="&#x4af;" horiz-adv-x="952" 
d="M350 -410l74 410h-21l-208 1024h69l193 -942h26l525 942h77l-569 -1024h-20l-74 -410h-72z" />
    <glyph glyph-name="uni04B0" unicode="&#x4b0;" horiz-adv-x="1198" 
d="M543 0l92 532h-297l14 72h254l-344 830h78l322 -789h51l600 789h86l-637 -830h256l-14 -72h-297l-93 -532h-71z" />
    <glyph glyph-name="uni04B1" unicode="&#x4b1;" horiz-adv-x="952" 
d="M350 -410l74 410h-205l12 72h156l-192 952h69l193 -942h26l525 942h77l-530 -952h158l-13 -72h-204l-74 -410h-72z" />
    <glyph glyph-name="uni04B2" unicode="&#x4b2;" horiz-adv-x="1269" 
d="M41 0l627 737l-344 697h75l326 -656h41l555 656h88l-590 -697l332 -665h131l-65 -369h-72l53 297h-86l-350 696h-41l-592 -696h-88z" />
    <glyph glyph-name="uni04B3" unicode="&#x4b3;" horiz-adv-x="942" 
d="M31 0l436 522l-246 502h78l225 -461h41l389 461h86l-426 -502l220 -450h120l-57 -318h-72l45 246h-77l-234 481h-41l-401 -481h-86z" />
    <glyph glyph-name="uni04B4" unicode="&#x4b4;" horiz-adv-x="1730" 
d="M502 0l239 1362h-471l13 72h1003l-12 -72h-461l-227 -1290h839l240 1362h72l-240 -1362h164l-66 -369h-71l53 297h-1075z" />
    <glyph glyph-name="uni04B5" unicode="&#x4b5;" horiz-adv-x="1331" 
d="M348 0l166 952h-328l15 72h696l-14 -72h-297l-154 -880h635l168 952h72l-168 -952h153l-57 -318h-72l45 246h-860z" />
    <glyph glyph-name="uni04B6" unicode="&#x4b6;" horiz-adv-x="1355" 
d="M1165 -297l54 297h-164l114 655q-59 -35 -127 -59q-147 -57 -309 -57q-224 0 -337 99.5t-103 297.5q1 22 10 92l72 406h71l-69 -406q-6 -29 -8 -72q-13 -181 84 -264.5t299 -83.5q161 0 313 70q71 32 121 70l121 686h71l-239 -1362h164l-66 -369h-72z" />
    <glyph glyph-name="uni04B7" unicode="&#x4b7;" horiz-adv-x="1116" 
d="M942 -246l45 246h-153l71 416q-20 -12 -52 -25.5t-96 -28t-128 -14.5q-182 0 -273.5 73t-91.5 214q0 41 6 72l58 317h71l-57 -317q-6 -31 -6 -64q0 -113 75 -168t234 -55q98 0 169.5 24.5t105.5 51.5l94 528h71l-167 -952h153l-57 -318h-72z" />
    <glyph glyph-name="uni04B8" unicode="&#x4b8;" horiz-adv-x="1331" 
d="M631 276l47 265q-198 12 -296.5 110.5t-88.5 284.5q1 22 10 92l72 406h71l-69 -406q-6 -29 -8 -72q-13 -168 69 -251.5t252 -94.5l47 271h72l-47 -273q153 0 305 70q71 33 119 70l121 686h71l-252 -1434h-71l114 655q-48 -31 -120 -57q-138 -56 -299 -59l-48 -263h-71z
" />
    <glyph glyph-name="uni04B9" unicode="&#x4b9;" horiz-adv-x="1095" 
d="M530 205l27 145q-293 30 -293 285q0 41 6 72l58 317h71l-57 -317q-6 -31 -6 -64q0 -100 56.5 -154.5t176.5 -66.5l33 192h62l-33 -194h14q98 0 169.5 24.5t105.5 51.5l94 528h71l-180 -1024h-71l71 416q-20 -12 -52 -25.5t-96 -28t-128 -14.5h-13l-24 -143h-62z" />
    <glyph glyph-name="uni04BA" unicode="&#x4ba;" horiz-adv-x="1361" 
d="M205 0l252 1434h71l-112 -648q43 33 119 72q152 74 333 74q432 0 432 -367q0 -63 -16 -164l-76 -401h-71l75 408q17 100 17 151q0 156 -94 228.5t-283 72.5q-195 0 -346 -88q-68 -40 -109 -86l-121 -686h-71z" />
    <glyph glyph-name="uni04BB" unicode="&#x4bb;" horiz-adv-x="1187" 
d="M195 0l251 1434h72l-102 -574h8q25 49 78 92q108 92 270 92t257 -100t95 -258q0 -21 -4 -57l-4 -31l-102 -598h-72q87 492 94 541q9 64 13 73q4 18 4 58q0 140 -79.5 220.5t-211.5 80.5q-150 0 -257 -101.5t-132 -257.5l-107 -614h-71z" />
    <glyph glyph-name="uni04BC" unicode="&#x4bc;" horiz-adv-x="1617" 
d="M147 854l9 47h71l-6 -33q-4 -28 -4 -37q0 -73 96 -73h23q22 148 89.5 277.5t164.5 221t219.5 144.5t251.5 53q244 0 406.5 -172t162.5 -436q0 -68 -8 -109l-8 -51h-1219q-6 -39 -6 -98q0 -120 40 -221t109 -170t163.5 -107.5t201.5 -38.5q190 0 332 105t221 274h82
q-86 -198 -256 -324t-387 -126q-169 0 -301.5 78t-204.5 216.5t-72 313.5q0 48 7 98h-29q-73 0 -112.5 36.5t-39.5 94.5q0 17 4 37zM408 758h1146q5 78 5 84q0 238 -144 389t-358 151q-154 0 -291.5 -78.5t-232.5 -221.5t-125 -324z" />
    <glyph glyph-name="uni04BD" unicode="&#x4bd;" horiz-adv-x="1218" 
d="M274 481h-26q-60 0 -92.5 30.5t-32.5 84.5q0 4 1 11t2.5 16t2.5 14l6 29h72q-8 -47 -8 -56q0 -31 17.5 -44t66.5 -13h2q27 148 107 261.5t189 171.5t230 58q133 0 232 -71.5t141.5 -189t21.5 -251.5l-8 -51h-852v-41q0 -183 94.5 -286t249.5 -103q77 0 144.5 26.5
t111 67.5t69.5 76.5t38 65.5h71q-8 -26 -27.5 -61t-57.5 -79.5t-86 -80.5t-119.5 -61t-151.5 -25q-181 0 -295.5 119t-114.5 317q0 42 2 65zM358 553h779q18 179 -73.5 299.5t-260.5 120.5q-166 0 -293 -120t-152 -300z" />
    <glyph glyph-name="uni04BE" unicode="&#x4be;" horiz-adv-x="1617" 
d="M774 -297l49 281q-229 25 -367.5 190.5t-138.5 413.5q0 48 7 98h-29q-73 0 -112.5 36.5t-39.5 94.5q0 17 4 37l9 47h71l-6 -33q-4 -28 -4 -37q0 -73 96 -73h23q22 148 89.5 277.5t164.5 221t219.5 144.5t251.5 53q244 0 406.5 -172t162.5 -436q0 -68 -8 -109l-8 -51
h-1219q-6 -39 -6 -98q0 -120 40 -221t109 -170t163.5 -107.5t201.5 -38.5q190 0 332 105t221 274h82q-86 -198 -256 -324t-387 -126l-49 -277h-72zM408 758h1146q5 78 5 84q0 238 -144 389t-358 151q-154 0 -291.5 -78.5t-232.5 -221.5t-125 -324z" />
    <glyph glyph-name="uni04BF" unicode="&#x4bf;" horiz-adv-x="1218" 
d="M578 -246l40 230q-158 21 -252 135.5t-94 296.5q0 42 2 65h-26q-60 0 -92.5 30.5t-32.5 84.5q0 4 1 11t2.5 16t2.5 14l6 29h72q-8 -47 -8 -56q0 -31 17.5 -44t66.5 -13h2q27 148 107 261.5t189 171.5t230 58q133 0 232 -71.5t141.5 -189t21.5 -251.5l-8 -51h-852v-41
q0 -183 94.5 -286t249.5 -103q77 0 144.5 26.5t111 67.5t69.5 76.5t38 65.5h71q-8 -27 -27.5 -61.5t-57 -78t-84.5 -79.5t-117 -61t-148 -27l-41 -226h-71zM358 553h779q18 179 -73.5 299.5t-260.5 120.5q-166 0 -293 -120t-152 -300z" />
    <glyph glyph-name="uni04C0" unicode="&#x4c0;" horiz-adv-x="481" 
d="M205 0l252 1434h71l-252 -1434h-71z" />
    <glyph glyph-name="uni04C1" unicode="&#x4c1;" horiz-adv-x="1607" 
d="M10 0l809 733l-502 701h84l494 -686l121 686h71l-120 -686l735 686h98l-766 -713l541 -721h-84l-533 707l-122 -707h-72l123 707l-778 -707h-99zM850 1843h72v-10q0 -63 43.5 -108.5t126.5 -45.5q151 0 198 164h72q-22 -99 -97 -167t-186 -68q-100 0 -164.5 63.5
t-64.5 171.5z" />
    <glyph glyph-name="uni04C2" unicode="&#x4c2;" horiz-adv-x="1259" 
d="M10 0l608 528l-387 496h88l375 -481l86 481h72l-86 -481l547 481h98l-577 -508l417 -516h-88l-403 502l-88 -502h-72l88 502l-579 -502h-99zM614 1444h72v-10q0 -63 43.5 -108.5t126.5 -45.5q152 0 199 164h71q-22 -100 -95.5 -168t-184.5 -68q-101 0 -166.5 64
t-65.5 172z" />
    <glyph glyph-name="uni04C3" unicode="&#x4c3;" horiz-adv-x="1239" 
d="M205 0l252 1434h71l-118 -680l825 680h108l-757 -621l45 12q67 15 88 15q213 0 338 -126.5t125 -326.5q0 -121 -30 -224t-81.5 -175.5t-119.5 -123.5t-144 -75.5t-156 -24.5h-49l12 72h43q85 0 164 34t144 98.5t104 171.5t39 241q0 179 -108.5 283t-299.5 104
q-127 0 -231 -51q-39 -18 -76 -51l-117 -666h-71z" />
    <glyph glyph-name="uni04C4" unicode="&#x4c4;" horiz-adv-x="1003" 
d="M418 -410l12 72h37q85 0 157 32t120 85t82 121.5t49.5 139.5t15.5 142q0 155 -95 251.5t-251 96.5q-31 0 -59 -3.5t-46.5 -8t-37.5 -12.5t-27 -12.5t-21.5 -13t-15.5 -9.5l-82 -471h-72l181 1024h71l-84 -471l647 471h103l-631 -457l35 13q54 14 88 14q153 0 261 -116.5
t108 -291.5q0 -141 -45.5 -257.5t-119.5 -188.5t-163 -111t-180 -39h-37z" />
    <glyph glyph-name="uni04C5" unicode="&#x4c5;" horiz-adv-x="1372" 
d="M0 -10l10 71h60q94 0 148 49.5t85 165.5l307 1158h809l-239 -1362h184l-6 -31l-182 -338h-52l125 297h-153l239 1362h-676l-284 -1086q-37 -148 -112.5 -217t-199.5 -69h-63z" />
    <glyph glyph-name="uni04C6" unicode="&#x4c6;" horiz-adv-x="1095" 
d="M0 -10l10 71h64q143 0 192 181l201 782h625l-168 -952h184l-4 -21l-156 -297h-51l107 246h-164l166 952h-490l-180 -716q-35 -128 -99 -187t-163 -59h-74z" />
    <glyph glyph-name="uni04C7" unicode="&#x4c7;" horiz-adv-x="1474" 
d="M205 0l252 1434h71l-116 -666h921l117 666h72l-279 -1577q-47 -267 -242 -267h-30h-21l13 72h20q79 0 122.5 42t65.5 153l148 839h-922l-121 -696h-71z" />
    <glyph glyph-name="uni04C8" unicode="&#x4c8;" horiz-adv-x="1167" 
d="M184 0l181 1024h71l-86 -481h656l86 481h71l-207 -1167q-48 -267 -239 -267h-53l12 72h47q124 0 162 195l108 614h-655l-82 -471h-72z" />
    <glyph glyph-name="uni04C9" unicode="&#x4c9;" horiz-adv-x="1474" 
d="M205 0l252 1434h71l-116 -666h921l117 666h72l-240 -1362h184l-6 -31l-182 -338h-51l125 297h-154l121 696h-922l-121 -696h-71z" />
    <glyph glyph-name="uni04CA" unicode="&#x4ca;" horiz-adv-x="1167" 
d="M184 0l181 1024h71l-86 -481h656l86 481h71l-168 -952h185l-4 -21l-156 -297h-51l106 246h-164l82 471h-655l-82 -471h-72z" />
    <glyph glyph-name="uni04CB" unicode="&#x4cb;" horiz-adv-x="1331" 
d="M838 -297l65 369h164l102 583q-59 -35 -127 -59q-147 -57 -309 -57q-224 0 -337 99.5t-103 297.5q1 22 10 92l72 406h71l-69 -406q-6 -29 -8 -72q-13 -181 84 -264.5t299 -83.5q161 0 313 70q71 32 121 70l121 686h71l-252 -1434h-163l-54 -297h-71z" />
    <glyph glyph-name="uni04CC" unicode="&#x4cc;" horiz-adv-x="1095" 
d="M635 -246l57 318h154l59 344q-20 -12 -52 -25.5t-96 -28t-128 -14.5q-182 0 -273.5 73t-91.5 214q0 41 6 72l58 317h71l-57 -317q-6 -31 -6 -64q0 -113 75 -168t234 -55q98 0 169.5 24.5t105.5 51.5l94 528h71l-180 -1024h-153l-45 -246h-72z" />
    <glyph glyph-name="uni04CD" unicode="&#x4cd;" horiz-adv-x="1822" 
d="M205 0l252 1434h159l283 -1362h41l762 1362h168l-240 -1362h185l-7 -31l-182 -338h-51l125 297h-154l240 1362h-41l-762 -1362h-143l-283 1362h-41l-240 -1362h-71z" />
    <glyph glyph-name="uni04CE" unicode="&#x4ce;" horiz-adv-x="1474" 
d="M184 0l181 1024h159l201 -952h41l537 952h167l-167 -952h184l-4 -21l-156 -297h-51l106 246h-163l165 952h-41l-534 -952h-143l-203 952h-41l-166 -952h-72z" />
    <glyph glyph-name="uni04CF" unicode="&#x4cf;" horiz-adv-x="460" 
d="M195 0l251 1434h72l-252 -1434h-71z" />
    <glyph glyph-name="uni04D0" unicode="&#x4d0;" horiz-adv-x="1269" 
d="M57 0l795 1434h123l291 -1434h-68l-82 410h-758l-225 -410h-76zM399 481h701l-176 871h-41zM696 1843h72v-10q0 -63 43.5 -108.5t126.5 -45.5q152 0 199 164h71q-22 -99 -96.5 -167t-185.5 -68q-101 0 -165.5 63.5t-64.5 171.5z" />
    <glyph glyph-name="uni04D1" unicode="&#x4d1;" horiz-adv-x="1075" 
d="M913 0h-51q4 38 13.5 113t11.5 92h-10q-12 -25 -29.5 -51t-51 -58.5t-73.5 -57t-100 -41.5t-127 -17q-152 0 -235 70t-83 194q0 151 108.5 250.5t274.5 99.5h385l12 72q7 47 4.5 91.5t-23 83.5t-53 68t-85 45.5t-119.5 16.5q-248 0 -317 -244h-72q27 128 134 222.5
t261 94.5q100 0 174 -33t113.5 -87.5t53.5 -120.5t1 -137zM922 461l10 61h-377q-136 0 -220.5 -78t-84.5 -190q0 -94 66 -148.5t188 -54.5q164 0 276.5 110.5t141.5 299.5zM532 1444h72v-10q0 -63 43.5 -108.5t126.5 -45.5q152 0 199 164h71q-22 -100 -95.5 -168t-184.5 -68
q-101 0 -166.5 64t-65.5 172z" />
    <glyph glyph-name="uni04D2" unicode="&#x4d2;" horiz-adv-x="1269" 
d="M57 0l795 1434h123l291 -1434h-68l-82 410h-758l-225 -410h-76zM399 481h701l-176 871h-41zM1075 1710l17 92h92l-17 -92h-92zM727 1710l16 92h93l-17 -92h-92z" />
    <glyph glyph-name="uni04D3" unicode="&#x4d3;" horiz-adv-x="1075" 
d="M913 0h-51q4 38 13.5 113t11.5 92h-10q-12 -25 -29.5 -51t-51 -58.5t-73.5 -57t-100 -41.5t-127 -17q-152 0 -235 70t-83 194q0 151 108.5 250.5t274.5 99.5h385l12 72q7 47 4.5 91.5t-23 83.5t-53 68t-85 45.5t-119.5 16.5q-248 0 -317 -244h-72q27 128 134 222.5
t261 94.5q100 0 174 -33t113.5 -87.5t53.5 -120.5t1 -137zM922 461l10 61h-377q-136 0 -220.5 -78t-84.5 -190q0 -94 66 -148.5t188 -54.5q164 0 276.5 110.5t141.5 299.5zM891 1311l16 92h92l-16 -92h-92zM543 1311l16 92h92l-16 -92h-92z" />
    <glyph glyph-name="uni04D6" unicode="&#x4d6;" horiz-adv-x="1228" 
d="M205 0l252 1434h880l-12 -72h-809l-106 -604h768l-13 -72h-768l-108 -614h809l-13 -72h-880zM676 1843h72v-10q0 -63 43.5 -108.5t126.5 -45.5q151 0 198 164h72q-22 -99 -97 -167t-186 -68q-100 0 -164.5 63.5t-64.5 171.5z" />
    <glyph glyph-name="uni04D7" unicode="&#x4d7;" horiz-adv-x="1126" 
d="M961 287h71q-8 -26 -27.5 -61t-57.5 -79.5t-86 -80.5t-119.5 -61t-151.5 -25q-181 0 -295.5 119t-114.5 317q0 140 46 260.5t121.5 199.5t172.5 123.5t199 44.5q133 0 232 -71.5t141.5 -189t21.5 -251.5l-8 -51h-852v-41q0 -183 94.5 -286t249.5 -103q77 0 144.5 26.5
t111 67.5t69.5 76.5t38 65.5zM266 553h778q18 179 -73 299.5t-260 120.5q-166 0 -293 -120t-152 -300zM532 1444h72v-10q0 -63 43.5 -108.5t126.5 -45.5q152 0 199 164h71q-22 -100 -95.5 -168t-184.5 -68q-101 0 -166.5 64t-65.5 172z" />
    <glyph glyph-name="uni04D8" unicode="&#x4d8;" horiz-adv-x="1495" 
d="M207 696l8 52h1219q6 39 6 98q0 120 -40 221t-109 169.5t-163.5 107t-201.5 38.5q-190 0 -332.5 -104.5t-220.5 -273.5h-82q86 198 256 324t387 126q258 0 417.5 -170t159.5 -446q0 -127 -34.5 -252t-101 -233.5t-156 -192.5t-207 -132t-246.5 -48q-159 0 -288.5 77.5
t-204 217t-74.5 313.5q0 67 8 108zM1421 676h-1147q-4 -62 -4 -84q0 -238 144 -389.5t358 -151.5q236 0 420.5 175.5t228.5 449.5z" />
    <glyph glyph-name="uni04D9" unicode="&#x4d9;" horiz-adv-x="1126" 
d="M188 492l9 51h852v41q0 183 -94.5 286t-249.5 103q-77 0 -144.5 -26.5t-111 -67.5t-69.5 -76.5t-38 -65.5h-72q8 26 27.5 61t58 79.5t86.5 80.5t119.5 61t151.5 25q181 0 295 -119t114 -317q0 -141 -45.5 -261t-121.5 -199t-172.5 -123.5t-198.5 -44.5q-136 0 -235 71.5
t-140.5 188.5t-20.5 252zM1036 471h-778q-18 -181 73 -300.5t261 -119.5q166 0 292.5 120t151.5 300z" />
    <glyph glyph-name="uni04DA" unicode="&#x4da;" horiz-adv-x="1495" 
d="M207 696l8 52h1219q6 39 6 98q0 120 -40 221t-109 169.5t-163.5 107t-201.5 38.5q-190 0 -332.5 -104.5t-220.5 -273.5h-82q86 198 256 324t387 126q258 0 417.5 -170t159.5 -446q0 -127 -34.5 -252t-101 -233.5t-156 -192.5t-207 -132t-246.5 -48q-159 0 -288.5 77.5
t-204 217t-74.5 313.5q0 67 8 108zM1421 676h-1147q-4 -62 -4 -84q0 -238 144 -389.5t358 -151.5q236 0 420.5 175.5t228.5 449.5zM1126 1710l17 92h92l-16 -92h-93zM778 1710l17 92h92l-17 -92h-92z" />
    <glyph glyph-name="uni04DB" unicode="&#x4db;" horiz-adv-x="1126" 
d="M188 492l9 51h852v41q0 183 -94.5 286t-249.5 103q-77 0 -144.5 -26.5t-111 -67.5t-69.5 -76.5t-38 -65.5h-72q8 26 27.5 61t58 79.5t86.5 80.5t119.5 61t151.5 25q181 0 295 -119t114 -317q0 -141 -45.5 -261t-121.5 -199t-172.5 -123.5t-198.5 -44.5q-136 0 -235 71.5
t-140.5 188.5t-20.5 252zM1036 471h-778q-18 -181 73 -300.5t261 -119.5q166 0 292.5 120t151.5 300zM911 1311l17 92h92l-16 -92h-93zM563 1311l17 92h92l-17 -92h-92z" />
    <glyph glyph-name="uni04DC" unicode="&#x4dc;" horiz-adv-x="1607" 
d="M10 0l809 733l-502 701h84l494 -686l121 686h71l-120 -686l735 686h98l-766 -713l541 -721h-84l-533 707l-122 -707h-72l123 707l-778 -707h-99zM1219 1710l16 92h92l-16 -92h-92zM870 1710l17 92h92l-16 -92h-93z" />
    <glyph glyph-name="uni04DD" unicode="&#x4dd;" horiz-adv-x="1259" 
d="M10 0l608 528l-387 496h88l375 -481l86 481h72l-86 -481l547 481h98l-577 -508l417 -516h-88l-403 502l-88 -502h-72l88 502l-579 -502h-99zM983 1311l16 92h93l-17 -92h-92zM635 1311l16 92h92l-16 -92h-92z" />
    <glyph glyph-name="uni04DE" unicode="&#x4de;" horiz-adv-x="1208" 
d="M160 389h71v-22q0 -132 109.5 -224t302.5 -92q196 0 317 104t121 255q0 115 -87 195.5t-238 80.5h-148l13 72h190q164 0 258 90t94 235q0 131 -100 216t-277 85q-154 0 -265.5 -99.5t-137.5 -240.5h-72q30 172 163.5 291t318.5 119q209 0 325.5 -101.5t116.5 -260.5
q0 -80 -24 -146.5t-58 -106.5t-76 -69.5t-72.5 -41t-52.5 -15.5l-2 -11q22 -5 52.5 -22.5t67 -50t61 -88.5t24.5 -123q0 -192 -138 -315t-362 -123q-231 0 -363 106t-132 266v37zM1014 1710l16 92h92l-16 -92h-92zM666 1710l16 92h92l-16 -92h-92z" />
    <glyph glyph-name="uni04DF" unicode="&#x4df;" horiz-adv-x="931" 
d="M150 317h71q-2 -2 -2 -8v-20q0 -104 82 -171t209 -67q138 0 221.5 69t83.5 171q0 77 -70.5 133.5t-187.5 56.5h-88l12 72h103h32q68 0 121 21t83.5 55.5t45.5 74t15 80.5q0 32 -15 63.5t-44 60.5t-80.5 47t-116.5 18q-126 0 -208.5 -71t-101.5 -185h-71q22 140 124 233.5
t267 93.5q144 0 230.5 -75t86.5 -181q0 -56 -17.5 -103t-42.5 -76t-56.5 -50.5t-55.5 -31t-43 -13.5v-10q46 -10 98 -68.5t52 -142.5q0 -133 -107.5 -223t-275.5 -90q-155 0 -256 85t-101 216v26q0 7 3 10zM829 1311l17 92h92l-16 -92h-93zM481 1311l17 92h92l-17 -92h-92z
" />
    <glyph glyph-name="uni04E0" unicode="&#x4e0;" horiz-adv-x="1177" 
d="M145 369h70v-19q0 -128 108 -213.5t298 -85.5q195 0 312.5 110t117.5 290q0 142 -103 224.5t-268 82.5h-178l12 71l641 533h-782l12 72h891l-12 -72l-629 -522l-2 -11h59q192 0 311 -100.5t119 -263.5q0 -216 -141 -350.5t-369 -134.5q-224 0 -346.5 102t-122.5 258v18
q0 9 2 11z" />
    <glyph glyph-name="uni04E1" unicode="&#x4e1;" horiz-adv-x="972" 
d="M51 -31h74q-2 -2 -2 -10v-25q0 -122 97.5 -207t228.5 -85q74 0 142.5 30t120.5 82.5t83.5 131t31.5 169.5q0 139 -97.5 216t-264.5 77h-109l15 72l559 532h-631l14 72h727l-14 -72l-551 -522l-2 -10q203 0 314.5 -94.5t111.5 -262.5q0 -108 -38 -201t-101 -156.5
t-146 -99.5t-172 -36q-75 0 -144.5 24t-125 69t-88.5 117t-33 161v28z" />
    <glyph glyph-name="uni04E2" unicode="&#x4e2;" horiz-adv-x="1484" 
d="M205 0l252 1434h71l-239 -1362h39l1048 1362h156l-252 -1434h-72l240 1362h-39l-1049 -1362h-155zM748 1690l12 71h553l-13 -71h-552z" />
    <glyph glyph-name="uni04E3" unicode="&#x4e3;" horiz-adv-x="1157" 
d="M184 0l181 1024h71l-168 -952h39l690 952h156l-180 -1024h-72l166 952h-39l-688 -952h-156zM512 1290l12 72h553l-12 -72h-553z" />
    <glyph glyph-name="uni04E4" unicode="&#x4e4;" horiz-adv-x="1484" 
d="M205 0l252 1434h71l-239 -1362h39l1048 1362h156l-252 -1434h-72l240 1362h-39l-1049 -1362h-155zM1157 1710l17 92h92l-17 -92h-92zM809 1710l16 92h93l-17 -92h-92z" />
    <glyph glyph-name="uni04E5" unicode="&#x4e5;" horiz-adv-x="1157" 
d="M184 0l181 1024h71l-168 -952h39l690 952h156l-180 -1024h-72l166 952h-39l-688 -952h-156zM922 1311l16 92h92l-16 -92h-92zM573 1311l17 92h92l-16 -92h-93z" />
    <glyph glyph-name="uni04E6" unicode="&#x4e6;" horiz-adv-x="1556" 
d="M987 1454q258 0 422 -173t164 -447q0 -186 -65.5 -349t-172 -272t-242 -171t-276.5 -62q-256 0 -420 173.5t-164 446.5q0 150 42.5 285.5t116 237.5t169.5 177.5t205.5 114.5t220.5 39zM821 51q101 0 200 35t185.5 103t152.5 160t104 215t38 259q0 249 -146.5 404
t-371.5 155q-126 0 -247.5 -56t-217.5 -154t-154.5 -245.5t-58.5 -316.5q0 -249 146 -404t370 -155zM1188 1710l16 92h92l-16 -92h-92zM840 1710l16 92h92l-16 -92h-92z" />
    <glyph glyph-name="uni04E7" unicode="&#x4e7;" horiz-adv-x="1126" 
d="M713 1044q179 0 294 -119.5t115 -316.5q0 -113 -30 -214t-82 -175.5t-120 -129t-145.5 -82t-156.5 -27.5q-180 0 -294 119t-114 317q0 140 46 260.5t121.5 199.5t170.5 123.5t195 44.5zM707 973q-84 0 -164.5 -38t-145 -106t-104 -173.5t-39.5 -229.5q0 -171 95.5 -273
t246.5 -102q84 0 164.5 38t145 106t104 173.5t39.5 229.5q0 171 -95.5 273t-246.5 102zM911 1311l17 92h92l-16 -92h-93zM563 1311l17 92h92l-17 -92h-92z" />
    <glyph glyph-name="uni04E8" unicode="&#x4e8;" horiz-adv-x="1556" 
d="M817 -20q-256 0 -420 173.5t-164 446.5q0 150 42.5 285.5t116 237.5t169.5 177.5t205.5 114.5t220.5 39q258 0 422 -173t164 -447q0 -186 -65.5 -349t-172 -272t-242 -171t-276.5 -62zM315 748h1182q4 50 4 75q0 249 -146.5 404t-371.5 155q-114 0 -224 -45t-201 -125.5
t-156 -201t-87 -262.5zM1491 686h-1184q-2 -25 -2 -76q0 -249 146 -404t370 -155q114 0 224.5 45t202 126t156.5 201.5t87 262.5z" />
    <glyph glyph-name="uni04E9" unicode="&#x4e9;" horiz-adv-x="1126" 
d="M588 -20q-180 0 -294 119t-114 317q0 140 46 260.5t121.5 199.5t170.5 123.5t195 44.5q179 0 294 -119.5t115 -316.5q0 -113 -30 -214t-82 -175.5t-120 -129t-145.5 -82t-156.5 -27.5zM262 543h785q0 9 1 27.5t1 27.5q0 171 -95.5 273t-246.5 102q-153 0 -281 -117.5
t-164 -312.5zM1038 481h-782q-2 -18 -2 -55q0 -171 95.5 -273t246.5 -102q99 0 191 49.5t161 149.5t90 231z" />
    <glyph glyph-name="uni04EA" unicode="&#x4ea;" horiz-adv-x="1556" 
d="M817 -20q-256 0 -420 173.5t-164 446.5q0 150 42.5 285.5t116 237.5t169.5 177.5t205.5 114.5t220.5 39q258 0 422 -173t164 -447q0 -186 -65.5 -349t-172 -272t-242 -171t-276.5 -62zM315 748h1182q4 50 4 75q0 249 -146.5 404t-371.5 155q-114 0 -224 -45t-201 -125.5
t-156 -201t-87 -262.5zM1491 686h-1184q-2 -25 -2 -76q0 -249 146 -404t370 -155q114 0 224.5 45t202 126t156.5 201.5t87 262.5zM1178 1710l16 92h92l-16 -92h-92zM829 1710l17 92h92l-16 -92h-93z" />
    <glyph glyph-name="uni04EB" unicode="&#x4eb;" horiz-adv-x="1126" 
d="M588 -20q-180 0 -294 119t-114 317q0 140 46 260.5t121.5 199.5t170.5 123.5t195 44.5q179 0 294 -119.5t115 -316.5q0 -113 -30 -214t-82 -175.5t-120 -129t-145.5 -82t-156.5 -27.5zM262 543h785q0 9 1 27.5t1 27.5q0 171 -95.5 273t-246.5 102q-153 0 -281 -117.5
t-164 -312.5zM1038 481h-782q-2 -18 -2 -55q0 -171 95.5 -273t246.5 -102q99 0 191 49.5t161 149.5t90 231zM911 1311l17 92h92l-16 -92h-93zM563 1311l17 92h92l-17 -92h-92z" />
    <glyph glyph-name="uni04EC" unicode="&#x4ec;" horiz-adv-x="1505" 
d="M193 471h73q11 -53 34.5 -107.5t67 -111.5t99.5 -101t138 -72t177 -28q121 0 236 52t201 139t144.5 203t74.5 241h-785l13 72h782q12 126 -18 239t-96 199t-173.5 136t-242.5 50q-96 0 -183 -31t-148.5 -77.5t-111 -104.5t-77 -106.5t-40.5 -89.5h-73q12 44 38.5 98.5
t81 124t123.5 125.5t174.5 94.5t225.5 38.5q264 0 429 -171.5t165 -457.5q0 -182 -65.5 -342.5t-171.5 -269t-240.5 -171t-272.5 -62.5q-119 0 -218 38t-160.5 93t-106.5 126t-65.5 127.5t-28.5 106.5zM1126 1710l17 92h92l-16 -92h-93zM778 1710l17 92h92l-17 -92h-92z" />
    <glyph glyph-name="uni04ED" unicode="&#x4ed;" horiz-adv-x="1085" 
d="M147 338h72q5 -37 19.5 -74.5t42.5 -76t65 -68.5t91.5 -49t117.5 -19q86 0 164 36t133.5 95t92.5 134t50 155h-508l13 72h508l1 19q1 18 1 34q0 170 -95.5 273.5t-244.5 103.5q-68 0 -128 -21t-100 -51t-74.5 -71t-52 -71.5t-32.5 -62.5h-72q5 27 26.5 67.5t62.5 90
t93 91.5t126.5 70.5t154.5 28.5q181 0 294 -119t113 -317q0 -140 -46 -260.5t-121 -199.5t-169.5 -123.5t-193.5 -44.5q-82 0 -149.5 26t-110 64t-74.5 89t-47 94t-23 85zM870 1311l17 92h92l-16 -92h-93zM522 1311l17 92h92l-17 -92h-92z" />
    <glyph glyph-name="uni04EE" unicode="&#x4ee;" horiz-adv-x="1187" 
d="M184 0l13 72h163q55 0 76.5 11t46.5 50l129 205l-340 1096h78l301 -983h31l610 983h86l-827 -1321q-42 -67 -83 -90t-120 -23h-164zM573 1690l13 71h553l-13 -71h-553z" />
    <glyph glyph-name="uni04EF" unicode="&#x4ef;" horiz-adv-x="921" 
d="M33 -410l12 72h150q38 0 59.5 19.5t50.5 72.5l105 195l-215 1075h69l185 -922h36l492 922h78l-705 -1321q-33 -58 -69.5 -85.5t-94.5 -27.5h-153zM369 1290l12 72h553l-12 -72h-553z" />
    <glyph glyph-name="uni04F0" unicode="&#x4f0;" horiz-adv-x="1187" 
d="M184 0l13 72h163q55 0 76.5 11t46.5 50l129 205l-340 1096h78l301 -983h31l610 983h86l-827 -1321q-42 -67 -83 -90t-120 -23h-164zM983 1710l16 92h93l-17 -92h-92zM635 1710l16 92h92l-16 -92h-92z" />
    <glyph glyph-name="uni04F1" unicode="&#x4f1;" horiz-adv-x="921" 
d="M33 -410l12 72h150q38 0 59.5 19.5t50.5 72.5l105 195l-215 1075h69l185 -922h36l492 922h78l-705 -1321q-33 -58 -69.5 -85.5t-94.5 -27.5h-153zM770 1311l16 92h93l-17 -92h-92zM422 1311l16 92h92l-16 -92h-92z" />
    <glyph glyph-name="uni04F2" unicode="&#x4f2;" horiz-adv-x="1187" 
d="M184 0l13 72h163q55 0 76.5 11t46.5 50l129 205l-340 1096h78l301 -983h31l610 983h86l-827 -1321q-42 -67 -83 -90t-120 -23h-164zM645 1608l207 235h82l-227 -235h-62zM891 1608l207 235h82l-228 -235h-61z" />
    <glyph glyph-name="uni04F3" unicode="&#x4f3;" horiz-adv-x="921" 
d="M33 -410l12 72h150q38 0 59.5 19.5t50.5 72.5l105 195l-215 1075h69l185 -922h36l492 922h78l-705 -1321q-33 -58 -69.5 -85.5t-94.5 -27.5h-153zM471 1208l207 236h82l-228 -236h-61zM717 1208l207 236h82l-228 -236h-61z" />
    <glyph glyph-name="uni04F4" unicode="&#x4f4;" horiz-adv-x="1331" 
d="M1055 0l114 655q-59 -35 -127 -59q-147 -57 -309 -57q-224 0 -337 99.5t-103 297.5q1 22 10 92l72 406h71l-69 -406q-6 -29 -8 -72q-13 -181 84 -264.5t299 -83.5q161 0 313 70q71 32 121 70l121 686h71l-252 -1434h-71zM1044 1710l17 92h92l-16 -92h-93zM696 1710l17 92
h92l-17 -92h-92z" />
    <glyph glyph-name="uni04F5" unicode="&#x4f5;" horiz-adv-x="1095" 
d="M834 0l71 416q-20 -12 -52 -25.5t-96 -28t-128 -14.5q-182 0 -273.5 73t-91.5 214q0 41 6 72l58 317h71l-57 -317q-6 -31 -6 -64q0 -113 75 -168t234 -55q98 0 169.5 24.5t105.5 51.5l94 528h71l-180 -1024h-71zM870 1311l17 92h92l-16 -92h-93zM522 1311l17 92h92
l-17 -92h-92z" />
    <glyph glyph-name="uni04F6" unicode="&#x4f6;" horiz-adv-x="1095" 
d="M315 -297l54 297h-164l252 1434h829l-12 -72h-758l-227 -1290h164l-66 -369h-72z" />
    <glyph glyph-name="uni04F7" unicode="&#x4f7;" horiz-adv-x="819" 
d="M293 -246l45 246h-154l181 1024h593l-14 -72h-522l-154 -880h154l-57 -318h-72z" />
    <glyph glyph-name="uni04F8" unicode="&#x4f8;" horiz-adv-x="1617" 
d="M1341 0l252 1434h72l-252 -1434h-72zM289 72h450q167 0 282.5 118.5t115.5 313.5q0 129 -86 212t-224 83h-411zM205 0l252 1434h71l-100 -564h416q159 0 261.5 -106t102.5 -262q0 -148 -65 -263.5t-174 -177t-242 -61.5h-522zM1219 1710l16 92h92l-16 -92h-92zM870 1710
l17 92h92l-16 -92h-93z" />
    <glyph glyph-name="uni04F9" unicode="&#x4f9;" horiz-adv-x="1351" 
d="M1096 0l180 1024h72l-181 -1024h-71zM184 0l181 1024h71l-67 -379h260q131 0 219 -76.5t88 -201.5q0 -162 -107 -264.5t-266 -102.5h-379zM268 72h307q128 0 209.5 79t81.5 207q0 100 -74 157.5t-174 57.5h-262zM1014 1311l16 92h92l-16 -92h-92zM666 1311l16 92h92
l-16 -92h-92z" />
    <glyph glyph-name="uni04FA" unicode="&#x4fa;" horiz-adv-x="1085" 
d="M178 -379l12 72h31h10q43 0 67.5 36t41.5 126l29 145h-164l121 696h-154l14 72h154l117 666h819l-12 -72h-748l-104 -594h399l-14 -72h-400l-108 -624h164l-43 -232q-23 -116 -69 -167.5t-122 -51.5h-41z" />
    <glyph glyph-name="uni04FB" unicode="&#x4fb;" horiz-adv-x="819" 
d="M166 -328l12 72h37q39 0 63.5 31.5t36.5 101.5l23 123h-154l82 471h-143l12 72h144l86 481h593l-14 -72h-522l-72 -409h369l-12 -72h-369l-70 -399h154l-35 -195q-21 -108 -60.5 -156.5t-113.5 -48.5h-47z" />
    <glyph glyph-name="uni04FC" unicode="&#x4fc;" horiz-adv-x="1228" 
d="M41 0l627 737l-344 697h75l326 -656h41l555 656h88l-590 -697l277 -553q53 -104 74.5 -189.5t5.5 -178.5q-42 -226 -246 -226h-51l12 72h51q76 0 112 36.5t50 117.5q17 98 -7.5 183.5t-76.5 184.5l-258 512h-41l-592 -696h-88z" />
    <glyph glyph-name="uni04FD" unicode="&#x4fd;" horiz-adv-x="901" 
d="M31 0l436 522l-246 502h78l225 -461h41l389 461h86l-426 -502l181 -368q68 -133 71 -269q0 -132 -70 -213.5t-180 -81.5h-45l13 72h45q75 0 120.5 56.5t45.5 158.5q0 115 -66 256l-170 348h-41l-401 -481h-86z" />
    <glyph glyph-name="uni04FE" unicode="&#x4fe;" horiz-adv-x="1228" 
d="M41 0l600 707h-272l12 61h272l-329 666h75l326 -656h41l555 656h88l-565 -666h274l-12 -61h-270l352 -707h-76l-350 696h-41l-592 -696h-88z" />
    <glyph glyph-name="uni04FF" unicode="&#x4ff;" horiz-adv-x="901" 
d="M31 0l403 481h-186l12 72h195l-234 471h78l225 -461h41l389 461h86l-401 -471h195l-13 -72h-188l237 -481h-77l-234 481h-41l-401 -481h-86z" />
    <glyph glyph-name="uni0510" unicode="&#x510;" horiz-adv-x="1208" 
d="M494 735l2 10q-18 3 -45 20t-57 47.5t-51 84t-21 117.5q0 190 138.5 315t342.5 125q203 0 329 -101.5t134 -246.5q0 -32 -4 -41h-72v10q0 3 1 11t1 14q-8 123 -112.5 202.5t-280.5 79.5q-174 0 -290 -103t-116 -261q0 -117 76.5 -188.5t218.5 -71.5h152l-13 -72h-217
q-166 0 -264 -90t-98 -229q0 -140 104 -228t314 -88q99 0 178.5 27.5t130.5 73.5t81.5 101t41.5 116h71q-26 -169 -160.5 -279t-353.5 -110q-232 0 -356.5 103t-124.5 265q0 83 27 152t64.5 109.5t85 69.5t82 40.5t61.5 15.5z" />
    <glyph glyph-name="uni0511" unicode="&#x511;" horiz-adv-x="942" 
d="M391 526v11q-18 7 -38 22t-42.5 39.5t-37.5 62.5t-15 82q0 128 97 214.5t257 86.5q146 0 249.5 -76t103.5 -188q0 -27 -2 -43h-70v21q0 66 -43 116t-108 74.5t-138 24.5q-131 0 -202.5 -64t-71.5 -161q0 -83 65.5 -139t188.5 -56h69l-12 -72h-139q-131 0 -205 -62.5
t-74 -156.5q0 -90 75 -150.5t216 -60.5q139 0 223 71t97 175h71q-19 -132 -123.5 -224.5t-273.5 -92.5q-171 0 -264.5 77.5t-93.5 194.5q0 57 20 104.5t48 76t64 50t62 30.5t47 13z" />
    <glyph glyph-name="uni0512" unicode="&#x512;" horiz-adv-x="1372" 
d="M0 -10l10 71h62q94 0 148 49.5t85 165.5l305 1158h809l-278 -1577q-47 -267 -242 -267h-31h-20l12 72h21q79 0 122.5 42t65.5 153l266 1505h-676l-282 -1086q-37 -148 -112 -217t-199 -69h-66z" />
    <glyph glyph-name="uni0513" unicode="&#x513;" horiz-adv-x="1095" 
d="M0 -10l10 71h64q143 0 192 181l201 782h625l-207 -1167q-24 -129 -82.5 -198t-149.5 -69h-61l12 72h45q68 0 107.5 47.5t56.5 147.5l193 1095h-490l-180 -716q-35 -128 -99 -187t-163 -59h-74z" />
    <glyph glyph-name="Wgrave" unicode="&#x1e80;" horiz-adv-x="1843" 
d="M399 0l-106 1434h69l99 -1362h41l588 1362h143l108 -1362h41l578 1362h74l-611 -1434h-143l-109 1362h-41l-587 -1362h-144zM1126 1608l-141 235h82l121 -235h-62z" />
    <glyph glyph-name="wgrave" unicode="&#x1e81;" horiz-adv-x="1454" 
d="M332 0l-96 1024h67l84 -942h35l422 942h127l90 -942h35l415 942h76l-457 -1024h-122l-95 952h-32l-426 -952h-123zM858 1208l-141 236h82l121 -236h-62z" />
    <glyph glyph-name="Wacute" unicode="&#x1e82;" horiz-adv-x="1843" 
d="M399 0l-106 1434h69l99 -1362h41l588 1362h143l108 -1362h41l578 1362h74l-611 -1434h-143l-109 1362h-41l-587 -1362h-144zM1147 1608l207 235h82l-228 -235h-61z" />
    <glyph glyph-name="wacute" unicode="&#x1e83;" horiz-adv-x="1454" 
d="M332 0l-96 1024h67l84 -942h35l422 942h127l90 -942h35l415 942h76l-457 -1024h-122l-95 952h-32l-426 -952h-123zM891 1208l207 236h82l-228 -236h-61z" />
    <glyph glyph-name="Wdieresis" unicode="&#x1e84;" horiz-adv-x="1843" 
d="M399 0l-106 1434h69l99 -1362h41l588 1362h143l108 -1362h41l578 1362h74l-611 -1434h-143l-109 1362h-41l-587 -1362h-144zM1311 1710l16 92h92l-16 -92h-92zM963 1710l16 92h92l-16 -92h-92z" />
    <glyph glyph-name="wdieresis" unicode="&#x1e85;" horiz-adv-x="1454" 
d="M332 0l-96 1024h67l84 -942h35l422 942h127l90 -942h35l415 942h76l-457 -1024h-122l-95 952h-32l-426 -952h-123zM1055 1311l16 92h92l-16 -92h-92zM707 1311l16 92h92l-16 -92h-92z" />
    <glyph glyph-name="uni1E9E" unicode="&#x1e9e;" horiz-adv-x="1361" 
d="M195 0l182 1034q25 182 133 291t270 109h56h624l-10 -62l-598 -543l-2 -10h51q172 0 289 -98.5t117 -261.5q0 -196 -135 -327.5t-334 -131.5h-39h-185l13 72h184h37q172 0 280.5 106t108.5 281q0 134 -97.5 211.5t-250.5 77.5h-144l15 81l586 533h-529h-45
q-133 0 -216 -86.5t-107 -241.5l-183 -1034h-71z" />
    <glyph glyph-name="Ygrave" unicode="&#x1ef2;" horiz-adv-x="1198" 
d="M543 0l92 532l-373 902h78l322 -789h51l600 789h86l-692 -902l-93 -532h-71zM819 1608l-141 235h82l121 -235h-62z" />
    <glyph glyph-name="ygrave" unicode="&#x1ef3;" horiz-adv-x="921" 
d="M33 -410l12 72h150q38 0 59.5 19.5t50.5 72.5l105 195l-215 1075h69l185 -922h36l492 922h78l-705 -1321q-33 -58 -69.5 -85.5t-94.5 -27.5h-153zM592 1208l-141 236h81l121 -236h-61z" />
    <glyph glyph-name="endash" unicode="&#x2013;" horiz-adv-x="1146" 
d="M188 553l13 72h962l-12 -72h-963z" />
    <glyph glyph-name="emdash" unicode="&#x2014;" horiz-adv-x="1495" 
d="M188 553l13 72h1310l-12 -72h-1311z" />
    <glyph glyph-name="quoteleft" unicode="&#x2018;" horiz-adv-x="399" 
d="M326 1157l131 277h61l-100 -277h-92z" />
    <glyph glyph-name="quoteright" unicode="&#x2019;" horiz-adv-x="399" 
d="M346 1157l100 277h93l-131 -277h-62z" />
    <glyph glyph-name="quotesinglbase" unicode="&#x201a;" horiz-adv-x="399" 
d="M72 -174l98 276h92l-129 -276h-61z" />
    <glyph glyph-name="quotedblleft" unicode="&#x201c;" horiz-adv-x="593" 
d="M520 1157l131 277h62l-101 -277h-92zM326 1157l131 277h61l-100 -277h-92z" />
    <glyph glyph-name="quotedblright" unicode="&#x201d;" horiz-adv-x="593" 
d="M541 1157l100 277h92l-131 -277h-61zM346 1157l100 277h93l-131 -277h-62z" />
    <glyph glyph-name="quotedblbase" unicode="&#x201e;" horiz-adv-x="593" 
d="M266 -174l99 276h92l-129 -276h-62zM72 -174l98 276h92l-129 -276h-61z" />
    <glyph glyph-name="dagger" unicode="&#x2020;" horiz-adv-x="972" 
d="M440 0l174 993h-338l13 72h338l65 369h72l-66 -369h338l-12 -72h-338l-174 -993h-72z" />
    <glyph glyph-name="daggerdbl" unicode="&#x2021;" horiz-adv-x="972" 
d="M440 0l76 440h-338l15 72h337l84 481h-338l13 72h338l65 369h72l-66 -369h338l-12 -72h-338l-84 -481h338l-14 -72h-338l-76 -440h-72z" />
    <glyph glyph-name="bullet" unicode="&#x2022;" horiz-adv-x="716" 
d="M328 526q0 59 34 94t89 35q49 0 76.5 -26.5t27.5 -69.5q0 -59 -34 -94t-89 -35q-49 0 -76.5 26.5t-27.5 69.5z" />
    <glyph glyph-name="ellipsis" unicode="&#x2026;" horiz-adv-x="1198" 
d="M553 0l14 92h92l-14 -92h-92zM952 0l15 92h92l-15 -92h-92zM154 0l14 92h92l-14 -92h-92z" />
    <glyph glyph-name="perthousand" unicode="&#x2030;" horiz-adv-x="2308" 
d="M1931 -20q-117 0 -191.5 77.5t-74.5 196.5q0 153 101.5 256.5t232.5 103.5q117 0 191.5 -77.5t74.5 -196.5q0 -153 -101.5 -256.5t-232.5 -103.5zM1935 51q98 0 177 80.5t79 200.5q0 92 -55 151.5t-141 59.5q-98 0 -177 -80.5t-79 -200.5q0 -92 55 -151.5t141 -59.5z
M289 0l1153 1434h82l-1153 -1434h-82zM565 817q-116 0 -191 78t-75 197q0 153 101.5 256.5t232.5 103.5q117 0 191.5 -77.5t74.5 -196.5q0 -153 -101.5 -257t-232.5 -104zM569 889q99 0 177.5 80t78.5 200q0 92 -55 151.5t-141 59.5q-99 0 -177.5 -80t-78.5 -200
q0 -92 55 -151.5t141 -59.5zM1182 -20q-117 0 -192 77.5t-75 196.5q0 153 101.5 256.5t232.5 103.5q117 0 192 -77.5t75 -196.5q0 -153 -101.5 -256.5t-232.5 -103.5zM1186 51q98 0 177 80.5t79 200.5q0 92 -55.5 151.5t-141.5 59.5q-98 0 -177 -80.5t-79 -200.5
q0 -92 55.5 -151.5t141.5 -59.5z" />
    <glyph glyph-name="guilsinglleft" unicode="&#x2039;" horiz-adv-x="604" 
d="M403 133l-208 379l342 379h90l-351 -387l205 -371h-78z" />
    <glyph glyph-name="guilsinglright" unicode="&#x203a;" horiz-adv-x="604" 
d="M154 133l350 387l-205 371h78l209 -379l-342 -379h-90z" />
    <glyph glyph-name="uni203D" unicode="&#x203d;" horiz-adv-x="1024" 
d="M430 0l14 92h93l-15 -92h-92zM483 328l185 1052q-118 0 -222.5 -91t-128.5 -234h-71q26 166 151 282.5t308 116.5q168 0 275 -105.5t107 -258.5q0 -167 -82 -269t-227 -162q-98 -39 -143.5 -83t-59.5 -125q-1 -2 -2 -12t-3 -25.5t-5 -28.5l-10 -57h-72zM741 1382
l-131 -739q47 35 115 64q140 54 215.5 141t75.5 231q0 112 -75.5 197.5t-199.5 105.5z" />
    <glyph glyph-name="fraction" unicode="&#x2044;" horiz-adv-x="245" 
d="M-358 0l1132 1434h82l-1132 -1434h-82z" />
    <glyph glyph-name="uni2070" unicode="&#x2070;" horiz-adv-x="716" 
d="M526 891q-119 0 -179 76.5t-60 201.5q0 116 29.5 210t78 151.5t106 88t117.5 30.5q119 0 179.5 -77t60.5 -202q0 -116 -29.5 -210t-78 -151t-106.5 -87.5t-118 -30.5zM532 963q43 0 86.5 24.5t82 71t63 126t24.5 179.5q0 106 -48.5 159.5t-127.5 53.5q-43 0 -86.5 -24.5
t-82 -71t-63 -126t-24.5 -179.5q0 -106 48.5 -159.5t127.5 -53.5z" />
    <glyph glyph-name="uni2074" unicode="&#x2074;" horiz-adv-x="614" 
d="M215 1075l10 62l387 501h123l-88 -491h103l-13 -72h-102l-31 -174h-72l31 174h-348zM319 1147h256l74 420h-20l-307 -410z" />
    <glyph glyph-name="uni2075" unicode="&#x2075;" horiz-adv-x="665" 
d="M266 1106h72v-12q0 -52 44.5 -91.5t123.5 -39.5q82 0 140.5 56.5t58.5 135.5q0 77 -47 123.5t-121 46.5q-31 0 -56.5 -8t-47.5 -26t-29 -25.5t-23 -26.5h-82l113 399h409l-14 -71h-348l-64 -224h11q17 17 36 25q45 25 113 25q101 0 160 -62.5t59 -171.5q0 -114 -82 -191
t-196 -77q-93 0 -161.5 56t-68.5 151v8z" />
    <glyph glyph-name="uni2076" unicode="&#x2076;" horiz-adv-x="655" 
d="M322 1300l270 338h82l-221 -274h8q1 0 8.5 3.5t13.5 4.5q23 10 70 10q97 0 157 -64t60 -153q0 -112 -80.5 -193t-197.5 -81q-107 0 -171.5 63t-64.5 154q0 108 66 192zM328 1118q0 -65 45 -110t123 -45q85 0 143.5 58t58.5 134q0 65 -46.5 110.5t-125.5 45.5
q-74 0 -128 -45.5t-66 -112.5q-4 -28 -4 -35z" />
    <glyph glyph-name="uni2077" unicode="&#x2077;" horiz-adv-x="604" 
d="M293 901l403 666h-370l14 71h451l-15 -71l-403 -666h-80z" />
    <glyph glyph-name="uni2078" unicode="&#x2078;" horiz-adv-x="696" 
d="M428 1436q0 -51 42 -84t118 -33q74 0 120 37.5t46 99.5q0 50 -42.5 85.5t-117.5 35.5q-63 0 -114.5 -38t-51.5 -103zM350 1092q0 -57 43.5 -93t126.5 -36q81 0 130.5 43.5t49.5 113.5q0 58 -45 93.5t-129 35.5q-74 0 -125 -43.5t-51 -113.5zM436 1288l2 10
q-82 50 -82 142q0 85 69.5 147t176.5 62q102 0 164.5 -53t62.5 -128q0 -41 -14.5 -75.5t-38.5 -56t-46.5 -34.5t-45.5 -20l-2 -10q88 -59 88 -152q0 -96 -69.5 -162.5t-182.5 -66.5t-177.5 53.5t-64.5 134.5q0 86 50.5 142.5t109.5 66.5z" />
    <glyph glyph-name="uni2079" unicode="&#x2079;" horiz-adv-x="645" 
d="M715 1386q4 28 4 35q0 65 -45 110.5t-123 45.5q-85 0 -144 -58.5t-59 -134.5q0 -64 46.5 -109.5t125.5 -45.5q74 0 128.5 45t66.5 112zM373 901l221 275h-8q-13 -8 -23 -11q-21 -8 -69 -8q-97 0 -157.5 64t-60.5 153q0 112 81 193.5t198 81.5q107 0 171.5 -63t64.5 -154
q0 -109 -66 -193l-270 -338h-82z" />
    <glyph glyph-name="uni2080" unicode="&#x2080;" horiz-adv-x="716" 
d="M356 -215q-119 0 -179 76.5t-60 201.5q0 116 29.5 210t78 151.5t106.5 88t118 30.5q119 0 179 -77t60 -202q0 -116 -29.5 -210t-78 -151t-106.5 -87.5t-118 -30.5zM362 -143q43 0 86.5 24.5t82 71t63 126t24.5 179.5q0 106 -48.5 159.5t-127.5 53.5q-43 0 -86.5 -24.5
t-82 -71t-63 -126t-24.5 -179.5q0 -106 48.5 -159.5t127.5 -53.5z" />
    <glyph glyph-name="uni2081" unicode="&#x2081;" horiz-adv-x="522" 
d="M248 -205l96 543h-205l13 72h143q34 0 50 14.5t22 46.5l12 61h72l-132 -737h-71z" />
    <glyph glyph-name="uni2082" unicode="&#x2082;" horiz-adv-x="675" 
d="M102 -205l13 72l352 307q36 33 54 51.5t33.5 52t14.5 72.5q-1 55 -38 88t-93 33q-71 0 -121 -47.5t-63 -116.5h-72q18 98 89 167t173 69q87 0 143 -51t56 -130q0 -19 -2.5 -36.5t-5.5 -31.5t-10 -29t-11 -25t-14.5 -23.5t-15 -20t-16.5 -18.5t-16 -15.5t-17 -15.5
t-15 -14l-291 -256l-2 -10h338l-12 -72h-451z" />
    <glyph glyph-name="uni2083" unicode="&#x2083;" horiz-adv-x="665" 
d="M102 0h74v-14q0 -56 41.5 -92.5t116.5 -36.5q77 0 124.5 47.5t47.5 120.5q0 53 -32 85.5t-93 32.5h-78l12 72h119q39 0 81 39t42 104q0 50 -35.5 81.5t-105.5 31.5q-76 0 -117 -37.5t-53 -95.5h-72q8 84 75 144.5t175 60.5q94 0 149.5 -51.5t55.5 -126.5
q0 -48 -16.5 -85.5t-40.5 -58t-42 -30.5t-32 -13l-2 -10q82 -40 82 -145q0 -101 -73 -169.5t-179 -68.5q-103 0 -163.5 55t-60.5 137v23z" />
    <glyph glyph-name="uni2084" unicode="&#x2084;" horiz-adv-x="614" 
d="M41 -31l10 62l387 501h123l-88 -491h102l-12 -72h-102l-31 -174h-72l31 174h-348zM145 41h256l74 420h-20l-308 -410z" />
    <glyph glyph-name="uni2085" unicode="&#x2085;" horiz-adv-x="675" 
d="M113 0h71v-12q0 -52 44.5 -91.5t123.5 -39.5q82 0 140.5 56.5t58.5 135.5q0 77 -47 123.5t-121 46.5q-31 0 -56.5 -8t-47.5 -26t-29 -25.5t-23 -26.5h-82l113 399h410l-15 -71h-348l-63 -223h10q14 14 37 24q45 25 112 25q101 0 160.5 -62.5t59.5 -171.5
q0 -114 -82.5 -191t-196.5 -77q-93 0 -161 56t-68 151v8z" />
    <glyph glyph-name="uni2086" unicode="&#x2086;" horiz-adv-x="655" 
d="M168 195l270 337h82l-221 -274h8l9 4q8 3 14 4q23 10 69 10q97 0 157 -64t60 -153q0 -112 -80.5 -193t-197.5 -81q-107 0 -171.5 63t-64.5 154q0 109 66 193zM174 12q0 -65 45 -110t123 -45q86 0 144.5 58t58.5 134q0 65 -46.5 110.5t-125.5 45.5q-74 0 -128.5 -45.5
t-66.5 -112.5q-4 -28 -4 -35z" />
    <glyph glyph-name="uni2087" unicode="&#x2087;" horiz-adv-x="604" 
d="M129 -205l403 666h-370l14 71h451l-15 -71l-403 -666h-80z" />
    <glyph glyph-name="uni2088" unicode="&#x2088;" horiz-adv-x="696" 
d="M264 330q0 -51 42 -84t118 -33q74 0 120 37.5t46 99.5q0 50 -42.5 85.5t-117.5 35.5q-63 0 -114.5 -38t-51.5 -103zM186 -14q0 -57 43.5 -93t126.5 -36q81 0 131 44t50 113q0 58 -45.5 93.5t-129.5 35.5q-74 0 -125 -43.5t-51 -113.5zM272 182l2 11q-81 49 -81 141
q0 85 69 147t176 62q102 0 165 -53t63 -128q0 -41 -15 -75.5t-39 -56t-46.5 -34.5t-45.5 -20l-2 -10q88 -59 88 -152q0 -96 -69.5 -162.5t-182.5 -66.5t-177 53.5t-64 134.5q0 86 50 142.5t109 66.5z" />
    <glyph glyph-name="uni2089" unicode="&#x2089;" horiz-adv-x="645" 
d="M571 281q4 28 4 34q0 65 -44.5 110.5t-122.5 45.5q-86 0 -144.5 -58t-58.5 -134q0 -65 46.5 -110.5t125.5 -45.5q74 0 128 45.5t66 112.5zM229 -205l222 275h-9q-13 -9 -22 -11q-21 -8 -70 -8q-97 0 -157 64t-60 153q0 112 81 193.5t198 81.5q107 0 171 -63t64 -154
q0 -110 -65 -193l-271 -338h-82z" />
    <glyph glyph-name="uni20A9" unicode="&#x20a9;" horiz-adv-x="1792" 
d="M567 0h-143q-6 104 -25 502h-245l12 71h231l-12 287h-168l12 72h152l-23 502h70l23 -502h417l201 502h141l21 -502h422l198 502h74l-199 -502h152l-12 -72h-168l-115 -287h232l-13 -71h-246q-32 -76 -65.5 -159t-73.5 -186.5t-61 -156.5h-144q-2 29 -24 502h-420
q-23 -54 -201 -502zM467 573h258q12 30 51.5 131t63.5 156h-385q3 -48 6 -143.5t6 -143.5zM1249 573h260l115 287h-387q3 -48 6 -143.5t6 -143.5zM795 573h391l-12 287h-263zM1272 72h43l168 430h-232zM485 72h37l174 430h-227zM938 932h231l-18 430h-43q-55 -135 -170 -430
z" />
    <glyph glyph-name="Euro" unicode="&#x20ac;" horiz-adv-x="1433" 
d="M154 520l14 72h172q0 105 16 180l13 66h-158l12 71h166q45 136 126 242.5t179.5 171.5t205 98t212.5 33q270 0 449 -139l-15 -72q-2 1 -23.5 15t-28 18t-30 17.5t-36.5 19t-39 17.5t-46 17t-50 13.5t-58 12t-62.5 6.5t-70.5 3q-94 0 -187 -28.5t-179.5 -84.5
t-157.5 -148.5t-113 -211.5h723l-12 -71h-734l-16 -76q-18 -114 -16 -170h723l-15 -72h-704q29 -222 186 -345.5t391 -123.5q75 0 145.5 12.5t104 24t90.5 33.5l-14 -72q-141 -69 -338 -69q-95 0 -183 20.5t-166 64t-138 106.5t-99 152.5t-49 196.5h-190z" />
    <glyph glyph-name="uni20B4" unicode="&#x20b4;" horiz-adv-x="1300" 
d="M268 829l13 72h802q28 19 64.5 82.5t36.5 134.5q0 110 -93 187t-253 77q-157 0 -252 -80t-127 -206h-72q35 154 153 256t308 102q188 0 297.5 -95t109.5 -231q0 -78 -29 -138.5t-57 -88.5h146l-12 -72h-1035zM215 532l12 72h1035l-13 -72h-803q-27 -19 -63.5 -82.5
t-36.5 -134.5q0 -110 93 -187t253 -77q157 0 252 80.5t127 206.5h72q-35 -154 -153 -256t-308 -102q-189 0 -298.5 94.5t-109.5 230.5q0 78 29 138.5t57 88.5h-145z" />
    <glyph glyph-name="uni20B8" unicode="&#x20b8;" horiz-adv-x="1218" 
d="M539 0l192 1096h-512l12 71h1096l-12 -71h-512l-193 -1096h-71zM266 1362l13 72h1095l-12 -72h-1096z" />
    <glyph glyph-name="uni20B9" unicode="&#x20b9;" horiz-adv-x="1095" 
d="M184 594l13 72h397q170 0 278.5 82t141.5 225h-764l12 71h760q17 147 -67 232.5t-246 85.5h-390l13 72h921l-12 -72h-297q24 -10 50 -33.5t51 -61t39 -96.5t8 -127h92l-13 -71h-86q-44 -176 -169 -277.5t-320 -101.5h-186l520 -594h-103l-510 594h-133z" />
    <glyph glyph-name="uni20BA" unicode="&#x20ba;" horiz-adv-x="1034" 
d="M233 0l115 651l-164 -57l13 72l163 57l35 197l-164 -60l13 72l164 59l77 443h72l-74 -416l361 129l-13 -72l-360 -129l-35 -194l361 129l-13 -72l-360 -129l-107 -608h140q86 0 154 10t117 26t86.5 43.5t61.5 56t42 71.5t28.5 80.5t20.5 91.5h71q-19 -101 -44 -169.5
t-68 -125.5t-108 -89.5t-160 -49.5t-228 -17h-197z" />
    <glyph glyph-name="uni20BD" unicode="&#x20bd;" horiz-adv-x="1331" 
d="M438 696h500h27q151 0 254.5 108t103.5 277q0 137 -88.5 209t-216.5 72h-461zM246 0l55 317h-184l12 72h184l41 236h-184l12 71h185l131 738h534q98 0 179 -38t133.5 -118.5t52.5 -190.5q0 -133 -59.5 -239.5t-158.5 -164.5t-218 -58h-35h-500l-41 -236h502l-13 -72h-501
l-56 -317h-71z" />
    <glyph glyph-name="uni20BF" unicode="&#x20bf;" horiz-adv-x="1300" 
d="M399 -225l41 225h-235l252 1434h235l39 225h72l-39 -225h215l39 225h72l-41 -234q130 -25 208 -113t78 -214q0 -212 -175 -326q-49 -32 -118 -55v-10q52 -20 99 -60q98 -86 98 -221q0 -84 -29 -159t-83 -134t-139 -95t-189 -38l-41 -225h-72l41 225h-215l-41 -225h-72z
M289 72h499q94 0 167.5 28.5t119 78t69 112.5t23.5 135q0 113 -79.5 186.5t-221.5 73.5h-469zM410 758h487q83 0 153.5 28.5t116.5 75t71.5 105t25.5 120.5q0 115 -83.5 195t-213.5 80h-451z" />
    <glyph glyph-name="uni2113" unicode="&#x2113;" horiz-adv-x="634" 
d="M307 266v287q-35 -9 -49 -14q-66 -17 -104 -17v72q42 0 104 16q22 8 49 15v542q0 287 174 287q84 0 134.5 -74.5t50.5 -232.5q0 -216 -72 -354t-215 -220v-307q0 -215 153 -215q40 0 74 15q4 2 14 7.5t15 8.5v-72l-33 -16q-40 -14 -80 -14q-97 0 -156 72t-59 214z
M379 1157v-502q98 58 156.5 180t58.5 312q0 235 -113 235q-43 0 -72.5 -52.5t-29.5 -172.5z" />
    <glyph glyph-name="uni2116" unicode="&#x2116;" horiz-adv-x="2150" 
d="M1444 0l12 72h574l-13 -72h-573zM205 0l252 1434h149l529 -1362h45l239 1362h72l-252 -1434h-154l-528 1362h-41l-240 -1362h-71zM1794 287q-112 0 -186 77.5t-74 196.5q0 153 103 257t241 104q112 0 186 -79.5t74 -195.5q0 -153 -103 -256.5t-241 -103.5zM1808 358
q102 0 181 80t79 199q0 93 -56.5 153t-147.5 60q-102 0 -181 -80t-79 -199q0 -93 56.5 -153t147.5 -60z" />
    <glyph glyph-name="uni2117" unicode="&#x2117;" horiz-adv-x="1720" 
d="M819 696h205q97 0 151 46t54 118q0 80 -53.5 127t-151.5 47h-205v-338zM973 -20q-203 0 -366.5 93.5t-257 262.5t-93.5 381t93.5 381t257 262.5t366.5 93.5t366.5 -93.5t257 -262.5t93.5 -381t-93.5 -381t-257 -262.5t-366.5 -93.5zM973 51q137 0 256.5 50t205 137
t134.5 211t49 268q0 191 -84 343.5t-231 237t-330 84.5t-330 -84.5t-231 -237t-84 -343.5q0 -144 49 -268t134.5 -211t205 -137t256.5 -50zM748 338v768h276q128 0 202 -67.5t74 -178.5q0 -103 -74.5 -169t-201.5 -66h-205v-287h-71z" />
    <glyph glyph-name="trademark" unicode="&#x2122;" horiz-adv-x="1454" 
d="M801 819v615h123l204 -523h21l205 523h123v-615h-62v543h-20l-215 -543h-82l-215 543h-21v-543h-61zM412 819v543h-205v72h471v-72h-205v-543h-61z" />
    <glyph glyph-name="uni2126" unicode="&#x2126;" horiz-adv-x="1679" 
d="M348 0v72h318q-115 53 -205 143q-205 205 -205 512q0 206 93 373t255 260.5t359 93.5t358.5 -93.5t254.5 -260.5t93 -373q0 -307 -205 -512q-91 -91 -204 -143h317v-72h-461v72q132 46 240 135q241 196 241 520q0 186 -83.5 336.5t-228.5 234.5t-322 84
q-133 0 -250 -49.5t-202 -135.5t-134 -208t-49 -262q0 -176 67.5 -306t171.5 -214q109 -89 242 -135v-72h-461z" />
    <glyph glyph-name="estimated" unicode="&#x212e;" horiz-adv-x="1761" 
d="M584 707v-523q48 -43 121 -80q158 -77 329 -77q249 0 443 155q84 64 151 156l41 -31q-66 -94 -160 -164q-211 -163 -475 -163q-158 0 -299 58t-241.5 156.5t-159 235t-58.5 287.5q0 202 98.5 371.5t268 267.5t371.5 98q151 0 287.5 -58t235 -157.5t156.5 -238t58 -293.5
h-1167zM584 768h860v481q-175 158 -430 158t-430 -158v-481z" />
    <glyph glyph-name="uni2150" unicode="&#x2150;" horiz-adv-x="1341" 
d="M143 0l1133 1434h82l-1133 -1434h-82zM410 696l96 543h-205l12 72h144q34 0 49.5 14.5t21.5 46.5l13 62h71l-131 -738h-71zM901 0l404 666h-371l14 71h451l-15 -71l-403 -666h-80z" />
    </font>
</defs>
</svg>
