<?xml version="1.0" standalone="no"?>
<!DOCTYPE svg PUBLIC "-//W3C//DTD SVG 1.1//EN" "http://www.w3.org/Graphics/SVG/1.1/DTD/svg11.dtd" >
<svg xmlns="http://www.w3.org/2000/svg" xmlns:xlink="http://www.w3.org/1999/xlink" version="1.1">
<metadata>
Created by FontForge 20170731 at Sat Jul 29 01:07:18 2023
 By Aleksey,,,
Copyright (c) 2019 by TypeType. Designers Ivan Gladkikh, Pavel Emelyanov. Technical designers Marina Khodak, Nadezhda Polomoshnova, Kseniya Karataeva, Olexa Volochay, Nadyr Rakhimov. All rights reserved. |DCNT
</metadata>
<defs>
<font id="TTHoves-Medium" horiz-adv-x="1167" >
  <font-face 
    font-family="TT Hoves Medium"
    font-weight="500"
    font-stretch="normal"
    units-per-em="2048"
    panose-1="2 0 8 3 3 0 0 2 0 4"
    ascent="1434"
    descent="-614"
    x-height="1024"
    cap-height="1434"
    bbox="-1075 -512 2945 2028"
    underline-thickness="102"
    underline-position="-307"
    unicode-range="U+000D-FB04"
  />
<missing-glyph horiz-adv-x="0" 
 />
    <glyph glyph-name="f_f" unicode="ff" horiz-adv-x="1228" 
d="M215 0v829h-164v195h164v184q0 92 61.5 153.5t153.5 61.5h205v-184h-154q-61 0 -61 -61v-154h338v184q0 92 61.5 153.5t153.5 61.5h205v-184h-154q-61 0 -61 -61v-154h215v-195h-215v-829h-205v829h-338v-829h-205z" />
    <glyph glyph-name="uniFB01" unicode="fi" horiz-adv-x="1095" 
d="M215 0v829h-164v195h164v184q0 92 61.5 153.5t153.5 61.5h184v-184h-133q-61 0 -61 -61v-154h543v-1024h-205v829h-338v-829h-205zM748 1208v215h225v-215h-225z" />
    <glyph glyph-name="uniFB02" unicode="fl" horiz-adv-x="1105" 
d="M215 0v829h-164v195h164v184q0 100 57.5 157.5t157.5 57.5h533v-1423h-205v1239h-277q-61 0 -61 -61v-154h194v-195h-194v-829h-205z" />
    <glyph glyph-name="f_f_i" unicode="ffi" horiz-adv-x="1638" 
d="M1290 1208v215h226v-215h-226zM215 0v829h-164v195h164v184q0 92 61.5 153.5t153.5 61.5h205v-184h-154q-61 0 -61 -61v-154h338v184q0 92 61.5 153.5t153.5 61.5h184v-184h-133q-61 0 -61 -61v-154h542v-1024h-205v829h-337v-829h-205v829h-338v-829h-205z" />
    <glyph glyph-name="f_f_l" unicode="ffl" horiz-adv-x="1648" 
d="M215 0v829h-164v195h164v184q0 92 61.5 153.5t153.5 61.5h205v-184h-154q-61 0 -61 -61v-154h338v184q0 100 57.5 157.5t157.5 57.5h532v-1423h-205v1239h-276q-61 0 -61 -61v-154h194v-195h-194v-829h-205v829h-338v-829h-205z" />
    <glyph glyph-name="f_f_j" unicode="ffj" horiz-adv-x="1638" 
d="M215 0v829h-164v195h164v184q0 92 61.5 153.5t153.5 61.5h205v-184h-154q-61 0 -61 -61v-154h338v184q0 92 61.5 153.5t153.5 61.5h184v-184h-133q-61 0 -61 -61v-154h542v-1219q0 -101 -58.5 -158t-166.5 -57h-205v185h164q61 0 61 71v983h-337v-829h-205v829h-338v-829
h-205zM1290 1208v215h226v-215h-226z" />
    <glyph glyph-name="f_j" unicode="fj" horiz-adv-x="1095" 
d="M532 -410v185h164q62 0 62 71v983h-338v-829h-205v829h-164v195h164v184q0 92 61.5 153.5t153.5 61.5h184v-184h-133q-61 0 -61 -61v-154h543v-1219q0 -101 -59 -158t-167 -57h-205zM748 1208v215h225v-215h-225z" />
    <glyph glyph-name=".notdef" horiz-adv-x="0" 
 />
    <glyph glyph-name=".null" horiz-adv-x="0" 
 />
    <glyph glyph-name="nonmarkingreturn" horiz-adv-x="682" 
 />
    <glyph glyph-name="NULL" horiz-adv-x="0" 
 />
    <glyph glyph-name="NULL" horiz-adv-x="0" 
 />
    <glyph glyph-name="CR" unicode="&#xd;" horiz-adv-x="0" 
 />
    <glyph glyph-name="space" unicode=" " horiz-adv-x="481" 
 />
    <glyph glyph-name="exclam" unicode="!" horiz-adv-x="563" 
d="M205 369l-31 481v584h215v-584l-31 -481h-153zM164 0v236h235v-236h-235z" />
    <glyph glyph-name="quotedbl" unicode="&#x22;" horiz-adv-x="778" 
d="M461 983v451h194v-451h-194zM123 983v451h194v-451h-194z" />
    <glyph glyph-name="numbersign" unicode="#" horiz-adv-x="1433" 
d="M225 0l80 369h-285l41 184h283l72 328h-283l41 184h281l77 369h195l-80 -369h287l80 369h194l-80 -369h285l-41 -184h-282l-70 -328h280l-40 -184h-281l-78 -369h-194l79 369h-288l-78 -369h-195zM537 553h288l70 328h-287z" />
    <glyph glyph-name="dollar" unicode="$" horiz-adv-x="1280" 
d="M522 -225v213q-139 19 -240 84.5t-150.5 160t-49.5 207.5h215q0 -104 97 -180t251 -76q169 0 248.5 58.5t79.5 156.5q0 159 -246 205l-276 51q-167 30 -252.5 129t-85.5 250q0 159 110.5 273.5t298.5 138.5v213h205v-211q212 -28 326 -152t114 -303h-215
q0 105 -89.5 180.5t-237.5 75.5q-140 0 -218.5 -62t-78.5 -153q0 -151 215 -194l225 -41q217 -38 318.5 -134t101.5 -266q0 -169 -120.5 -283.5t-340.5 -131.5v-209h-205z" />
    <glyph glyph-name="percent" unicode="%" horiz-adv-x="1607" 
d="M256 0l891 1434h205l-891 -1434h-205zM399 1290q-70 0 -111.5 -43.5t-41.5 -120.5t41.5 -120t111.5 -43t112 43t42 120t-42 120.5t-112 43.5zM72 1126q0 138 94.5 233t232.5 95t233 -95t95 -233t-95 -232.5t-233 -94.5t-232.5 94.5t-94.5 232.5zM1208 143q70 0 112 43.5
t42 120.5t-42 120.5t-112 43.5t-111.5 -43.5t-41.5 -120.5t41.5 -120.5t111.5 -43.5zM881 307q0 138 94.5 233t232.5 95t233 -95t95 -233t-95 -232.5t-233 -94.5t-232.5 94.5t-94.5 232.5z" />
    <glyph glyph-name="ampersand" unicode="&#x26;" horiz-adv-x="1310" 
d="M276 696l72 62l-82 82q-63 63 -87.5 119.5t-24.5 146.5q0 150 107.5 249t281.5 99q166 0 277.5 -105t111.5 -253q0 -172 -174 -297l-113 -82l287 -307q27 61 35 84q37 101 37 182h215q0 -149 -72 -297q-39 -72 -72 -113l256 -266h-276l-123 133q-50 -43 -111 -78
q-138 -75 -278 -75q-216 0 -338.5 106t-122.5 272q0 114 46.5 188.5t147.5 149.5zM522 860l82 62q62 47 87.5 82t25.5 92q0 78 -48 126t-126 48q-80 0 -127 -53.5t-47 -120.5q0 -69 71 -144zM809 256l-328 358l-61 -51q-61 -42 -92 -87.5t-31 -117.5q0 -76 65.5 -135
t180.5 -59q88 0 156.5 25.5t109.5 66.5z" />
    <glyph glyph-name="quotesingle" unicode="'" horiz-adv-x="440" 
d="M123 983v451h194v-451h-194z" />
    <glyph glyph-name="parenleft" unicode="(" horiz-adv-x="686" 
d="M645 -410h-215q-287 421 -287 953q0 531 287 952h215q-56 -78 -103.5 -167.5t-94 -209t-73 -268.5t-26.5 -307t26.5 -307t73 -269t94 -209.5t103.5 -167.5z" />
    <glyph glyph-name="parenright" unicode=")" horiz-adv-x="686" 
d="M256 -410h-215q56 78 103.5 167.5t94 209.5t73 269t26.5 307t-26.5 307t-73 268.5t-94 209t-103.5 167.5h215q287 -421 287 -952q0 -532 -287 -953z" />
    <glyph glyph-name="asterisk" unicode="*" horiz-adv-x="983" 
d="M184 768l195 225l-297 72l51 164l287 -103l-21 308h185l-21 -308l287 103l51 -164l-297 -72l195 -225l-133 -113l-174 256l-175 -256z" />
    <glyph glyph-name="plus" unicode="+" horiz-adv-x="1116" 
d="M461 113v389h-359v184h359v389h194v-389h359v-184h-359v-389h-194z" />
    <glyph glyph-name="comma" unicode="," horiz-adv-x="481" 
d="M92 -174l41 410h236l-113 -410h-164z" />
    <glyph glyph-name="hyphen" unicode="-" horiz-adv-x="860" 
d="M92 492v184h676v-184h-676z" />
    <glyph glyph-name="period" unicode="." horiz-adv-x="481" 
d="M123 0v236h235v-236h-235z" />
    <glyph glyph-name="slash" unicode="/" horiz-adv-x="768" 
d="M0 -410l563 1905h205l-563 -1905h-205z" />
    <glyph glyph-name="zero" unicode="0" horiz-adv-x="1351" 
d="M1034 717q0 130 -29.5 233.5t-80 167.5t-114 97.5t-134.5 33.5t-134.5 -33.5t-114.5 -97.5t-80.5 -167.5t-29.5 -233.5t29.5 -233.5t80.5 -168t114.5 -98t134.5 -33.5t134.5 33.5t114 98t80 168t29.5 233.5zM676 1454q116 0 219.5 -50t182.5 -142t125 -233t46 -312
t-46 -312t-125 -233t-182.5 -142t-219.5 -50t-219.5 50t-182.5 142t-125.5 233t-46.5 312t46.5 312t125.5 233t182.5 142t219.5 50z" />
    <glyph glyph-name="one" unicode="1" horiz-adv-x="716" 
d="M348 0v1075h-297v205h236q61 0 61 61v93h215v-1434h-215z" />
    <glyph glyph-name="two" unicode="2" horiz-adv-x="1126" 
d="M102 0v184l590 594q59 59 83 106t24 120q0 116 -63 180.5t-173 64.5q-109 0 -182.5 -77.5t-73.5 -198.5h-215q0 214 131.5 347.5t339.5 133.5t334.5 -124t126.5 -326q0 -62 -16 -117.5t-49 -105.5t-63 -85t-77 -82l-399 -399v-10h624v-205h-942z" />
    <glyph glyph-name="three" unicode="3" horiz-adv-x="1146" 
d="M72 410h215q0 -89 78.5 -157.5t197.5 -68.5q127 0 196.5 61.5t69.5 164.5q0 96 -74.5 160.5t-201.5 64.5h-92v194h92q120 0 188 60t68 155q0 89 -66 147t-180 58q-115 0 -185.5 -58.5t-70.5 -146.5h-215q0 172 130 291t341 119q204 0 332.5 -119t128.5 -291
q0 -139 -102 -237q-47 -44 -103 -70v-10q63 -28 113 -72q112 -104 112 -256q0 -179 -134.5 -299t-346.5 -120q-218 0 -354.5 124t-136.5 306z" />
    <glyph glyph-name="four" unicode="4" horiz-adv-x="1126" 
d="M31 307v174l542 953h338v-932h174v-195h-174v-307h-215v307h-665zM287 502h409v665h-41l-368 -655v-10z" />
    <glyph glyph-name="five" unicode="5" horiz-adv-x="1177" 
d="M92 389h215q19 -86 90 -145.5t187 -59.5q130 0 208 78t78 209q0 124 -78 200.5t-208 76.5q-80 0 -140.5 -29.5t-95.5 -73.5h-225l82 789h799v-205h-615l-41 -348h10q109 71 256 71q202 0 336.5 -136.5t134.5 -344.5q0 -216 -139.5 -353.5t-361.5 -137.5q-98 0 -179 26.5
t-134.5 68t-92.5 96.5t-59 109t-27 109z" />
    <glyph glyph-name="six" unicode="6" 
d="M584 184q123 0 204.5 82t81.5 205t-81.5 205t-204.5 82t-205 -82t-82 -205t82 -205t205 -82zM164 758l430 676h246l-318 -492h10l27 4q48 6 66 6q126 0 232 -64.5t167 -175t61 -241.5q0 -208 -143.5 -349.5t-357.5 -141.5t-358 141.5t-144 349.5q0 155 82 287z" />
    <glyph glyph-name="seven" unicode="7" horiz-adv-x="1044" 
d="M233 0l504 1229h-686v205h932v-185l-512 -1249h-238z" />
    <glyph glyph-name="eight" unicode="8" 
d="M307 737v11q-53 27 -92 69q-92 96 -92 238q0 167 126 283t335 116t334.5 -116t125.5 -283q0 -142 -92 -238q-39 -42 -92 -69v-11q60 -31 107 -78q108 -108 108 -260q0 -84 -34.5 -160t-96.5 -133.5t-155.5 -91.5t-204.5 -34q-148 0 -261.5 58t-172 153t-58.5 208
q0 153 107 260q49 49 108 78zM338 1044q0 -95 66 -155t180 -60t179.5 60t65.5 155t-65.5 155.5t-179.5 60.5t-180 -60.5t-66 -155.5zM307 410q0 -100 78 -168t199 -68t198.5 68t77.5 168t-77.5 167.5t-198.5 67.5t-199 -67.5t-78 -167.5z" />
    <glyph glyph-name="nine" unicode="9" 
d="M584 676q123 0 204.5 82t81.5 205t-81.5 204.5t-204.5 81.5t-205 -81.5t-82 -204.5t82 -205t205 -82zM328 0l317 492h-10l-27 -7q-32 -4 -65 -4q-126 0 -232 64.5t-167.5 175.5t-61.5 242q0 208 144 349.5t358 141.5t357.5 -141.5t143.5 -349.5q0 -157 -81 -287
l-431 -676h-245z" />
    <glyph glyph-name="colon" unicode=":" horiz-adv-x="481" 
d="M123 0v236h235v-236h-235zM123 788v236h235v-236h-235z" />
    <glyph glyph-name="semicolon" unicode=";" horiz-adv-x="481" 
d="M133 788v236h236v-236h-236zM92 -174l41 410h236l-113 -410h-164z" />
    <glyph glyph-name="less" unicode="&#x3c;" horiz-adv-x="1116" 
d="M113 492v204l891 369v-215l-635 -256l635 -256v-215z" />
    <glyph glyph-name="equal" unicode="=" horiz-adv-x="1095" 
d="M143 317v185h809v-185h-809zM143 686v184h809v-184h-809z" />
    <glyph glyph-name="greater" unicode="&#x3e;" horiz-adv-x="1116" 
d="M113 123v215l635 256l-635 256v215l891 -369v-204z" />
    <glyph glyph-name="question" unicode="?" horiz-adv-x="1054" 
d="M399 369v112q0 133 44 214t151 134q89 43 131.5 84.5t42.5 110.5q0 100 -70 162.5t-186 62.5q-118 0 -182 -57.5t-64 -147.5h-215q0 173 126 291.5t335 118.5q211 0 341 -115.5t130 -294.5q0 -251 -225 -358q-81 -36 -112.5 -86.5t-31.5 -118.5v-112h-215zM389 0v236h236
v-236h-236z" />
    <glyph glyph-name="at" unicode="@" horiz-adv-x="1914" 
d="M932 328q102 0 168.5 70.5t66.5 185.5t-66.5 185.5t-168.5 70.5t-169 -70.5t-67 -185.5t67 -185.5t169 -70.5zM952 -31h420v-174h-420q-185 0 -342.5 60.5t-266 166.5t-169.5 253.5t-61 318.5q0 237 109.5 424.5t303.5 291t437 103.5q188 0 349.5 -61t273 -167
t174.5 -251t63 -309q0 -231 -97.5 -346t-271.5 -115q-105 0 -182 61q-29 23 -53 62h-11q-32 -36 -73 -62q-96 -61 -213 -61q-178 0 -294 118t-116 302t116 302t294 118q96 0 182 -48q33 -19 63 -45h11l20 82h154v-542q0 -54 27 -83.5t75 -29.5q83 0 133.5 70.5t50.5 216.5
q0 266 -188.5 440t-486.5 174q-186 0 -338.5 -83.5t-240 -231.5t-87.5 -330q0 -132 49.5 -248t135.5 -199t208 -130.5t262 -47.5z" />
    <glyph glyph-name="A" unicode="A" horiz-adv-x="1372" 
d="M0 0l522 1434h328l522 -1434h-235l-123 338h-656l-122 -338h-236zM430 532h512l-235 656h-41z" />
    <glyph glyph-name="B" unicode="B" horiz-adv-x="1331" 
d="M154 0v1434h634q176 0 293 -115.5t117 -284.5q0 -135 -78 -233q-34 -43 -76 -74v-10q47 -26 86 -74q89 -106 89 -244q0 -169 -116 -284t-288 -115h-661zM369 809h409q85 0 145 62t60 153t-60 153t-145 62h-409v-430zM369 195h430q85 0 145 62t60 153t-60 153t-145 62
h-430v-430z" />
    <glyph glyph-name="C" unicode="C" horiz-adv-x="1495" 
d="M1198 492h225q-15 -70 -48 -139.5t-89 -137.5t-127.5 -119.5t-170 -83.5t-210.5 -32q-140 0 -266 54t-218.5 149t-147 234t-54.5 300t54.5 300t147 234t218.5 149t266 54q130 0 243 -42t192.5 -113.5t133 -160t76.5 -186.5h-225q-53 143 -166 220t-254 77
q-205 0 -338 -145t-133 -387t133 -387.5t338 -145.5q85 0 157.5 26t123.5 70.5t85.5 98t53.5 113.5z" />
    <glyph glyph-name="D" unicode="D" horiz-adv-x="1433" 
d="M369 205h286q203 0 337 143t134 369t-134 369t-337 143h-286v-1024zM154 0v1434h501q193 0 349.5 -91.5t246.5 -256t90 -369.5t-90 -369.5t-246.5 -256t-349.5 -91.5h-501z" />
    <glyph glyph-name="E" unicode="E" horiz-adv-x="1208" 
d="M154 0v1434h942v-205h-727v-410h686v-205h-686v-409h727v-205h-942z" />
    <glyph glyph-name="F" unicode="F" 
d="M154 0v1434h921v-205h-706v-410h665v-205h-665v-614h-215z" />
    <glyph glyph-name="G" unicode="G" horiz-adv-x="1566" 
d="M1260 0l-21 184h-10q-41 -51 -111 -102q-148 -102 -340 -102q-140 0 -266 54t-218.5 149t-147 234t-54.5 300t54.5 300t147 234t218.5 149t266 54q129 0 242.5 -41.5t193 -112t133 -156.5t76.5 -181h-225q-53 137 -165.5 211.5t-254.5 74.5q-205 0 -338 -145t-133 -387
t133 -387.5t338 -145.5q89 0 172 33t141 86.5t93 122t35 137.5v10h-400v175h615v-748h-174z" />
    <glyph glyph-name="H" unicode="H" horiz-adv-x="1464" 
d="M154 0v1434h215v-605h727v605h215v-1434h-215v625h-727v-625h-215z" />
    <glyph glyph-name="I" unicode="I" horiz-adv-x="522" 
d="M154 0v1434h215v-1434h-215z" />
    <glyph glyph-name="J" unicode="J" horiz-adv-x="808" 
d="M20 0v205h336q42 0 68.5 27.5t26.5 74.5v1127h215v-1168q0 -129 -63 -197.5t-204 -68.5h-379z" />
    <glyph glyph-name="K" unicode="K" horiz-adv-x="1208" 
d="M154 0v1434h215v-656l549 656h270l-594 -707l635 -727h-271l-589 676v-676h-215z" />
    <glyph glyph-name="L" unicode="L" horiz-adv-x="1105" 
d="M154 0v1434h215v-1229h696v-205h-911z" />
    <glyph glyph-name="M" unicode="M" horiz-adv-x="1843" 
d="M154 0v1434h368l379 -1127h41l379 1127h369v-1434h-215v1096h-41l-369 -1096h-287l-368 1096h-41v-1096h-215z" />
    <glyph glyph-name="N" unicode="N" horiz-adv-x="1464" 
d="M154 0v1434h317l584 -1117h41v1117h215v-1434h-318l-583 1116h-41v-1116h-215z" />
    <glyph glyph-name="O" unicode="O" horiz-adv-x="1556" 
d="M778 -20q-140 0 -266 54t-218.5 149t-147 234t-54.5 300t54.5 300t147 234t218.5 149t266 54t266 -54t218.5 -149t147 -234t54.5 -300t-54.5 -300t-147 -234t-218.5 -149t-266 -54zM778 1249q-205 0 -338 -145t-133 -387t133 -387.5t338 -145.5t338 145.5t133 387.5
t-133 387t-338 145z" />
    <glyph glyph-name="P" unicode="P" horiz-adv-x="1310" 
d="M369 717h419q89 0 152.5 72t63.5 184t-63.5 184t-152.5 72h-419v-512zM154 0v1434h645q180 0 300 -127.5t120 -333.5t-120 -333.5t-300 -127.5h-430v-512h-215z" />
    <glyph glyph-name="Q" unicode="Q" horiz-adv-x="1556" 
d="M1229 -61l-121 124q-151 -83 -330 -83q-140 0 -266 54t-218.5 149t-147 234t-54.5 300t54.5 300t147 234t218.5 149t266 54t266 -54t218.5 -149t147 -234t54.5 -300q0 -332 -209 -541l230 -237h-256zM958 219l-282 293h256l180 -186q137 143 137 391q0 242 -133 387
t-338 145t-338 -145t-133 -387t133 -387.5t338 -145.5q93 0 180 35z" />
    <glyph glyph-name="R" unicode="R" horiz-adv-x="1331" 
d="M154 0v1434h645q180 0 300 -127.5t120 -333.5t-120 -333.5t-300 -127.5h-51l512 -512h-277l-512 512h-102v-512h-215zM369 717h419q89 0 152.5 72t63.5 184t-63.5 184t-152.5 72h-419v-512z" />
    <glyph glyph-name="S" unicode="S" horiz-adv-x="1280" 
d="M82 440h215q0 -104 97 -180t251 -76q169 0 248.5 58.5t79.5 156.5q0 159 -246 205l-276 51q-167 30 -252.5 129t-85.5 250q0 181 139.5 300.5t372.5 119.5q131 0 235 -36t170.5 -99t101.5 -146t35 -180h-215q0 105 -89.5 180.5t-237.5 75.5q-140 0 -218.5 -62t-78.5 -153
q0 -151 215 -194l225 -41q217 -38 318.5 -134t101.5 -266q0 -185 -142 -302t-401 -117q-131 0 -238.5 36t-178 98t-108.5 146t-38 180z" />
    <glyph glyph-name="T" unicode="T" horiz-adv-x="1198" 
d="M492 0v1229h-451v205h1116v-205h-450v-1229h-215z" />
    <glyph glyph-name="U" unicode="U" horiz-adv-x="1433" 
d="M143 573v861h215v-861q0 -175 101.5 -282t257.5 -107t257 107t101 282v861h215v-861q0 -268 -159 -430.5t-414 -162.5t-414.5 162.5t-159.5 430.5z" />
    <glyph glyph-name="V" unicode="V" horiz-adv-x="1351" 
d="M512 0l-502 1434h236l409 -1188h41l410 1188h235l-501 -1434h-328z" />
    <glyph glyph-name="W" unicode="W" horiz-adv-x="2007" 
d="M379 0l-359 1434h236l276 -1127h41l297 1127h267l297 -1127h41l276 1127h236l-359 -1434h-328l-276 1075h-41l-276 -1075h-328z" />
    <glyph glyph-name="X" unicode="X" horiz-adv-x="1290" 
d="M0 0l512 737l-481 697h245l349 -502h41l348 502h246l-482 -697l512 -737h-246l-378 543h-41l-379 -543h-246z" />
    <glyph glyph-name="Y" unicode="Y" horiz-adv-x="1239" 
d="M512 0v512l-522 922h237l377 -666h41l367 666h237l-522 -922v-512h-215z" />
    <glyph glyph-name="Z" unicode="Z" horiz-adv-x="1208" 
d="M72 0v184l768 1045h-758v205h1044v-185l-768 -1044h779v-205h-1065z" />
    <glyph glyph-name="bracketleft" unicode="[" horiz-adv-x="696" 
d="M164 -410v1905h461v-184h-256v-1536h256v-185h-461z" />
    <glyph glyph-name="backslash" unicode="\" horiz-adv-x="768" 
d="M563 -410l-563 1905h205l563 -1905h-205z" />
    <glyph glyph-name="bracketright" unicode="]" horiz-adv-x="696" 
d="M72 -410v185h256v1536h-256v184h460v-1905h-460z" />
    <glyph glyph-name="asciicircum" unicode="^" horiz-adv-x="870" 
d="M102 860l226 574h215l225 -574h-184q-24 68 -72.5 187.5t-71.5 181.5h-10q-23 -62 -71 -181.5t-72 -187.5h-185z" />
    <glyph glyph-name="underscore" unicode="_" horiz-adv-x="778" 
d="M-41 -389v184h860v-184h-860z" />
    <glyph glyph-name="grave" unicode="`" horiz-adv-x="552" 
d="M307 1208l-246 297h226l205 -297h-185z" />
    <glyph glyph-name="a" unicode="a" horiz-adv-x="1095" 
d="M799 0l-21 113h-10q-30 -41 -74 -68q-97 -65 -233 -65q-167 0 -268 88t-101 229q0 159 105.5 248.5t314.5 89.5h256v20q0 100 -57.5 157.5t-157.5 57.5q-98 0 -152 -44t-63 -99h-205q8 135 121.5 226t298.5 91q199 0 309.5 -104.5t110.5 -284.5v-655h-174zM768 430v41
h-246q-112 0 -168.5 -45.5t-56.5 -118.5q0 -71 47 -112t137 -41q139 0 213 72.5t74 203.5z" />
    <glyph glyph-name="b" unicode="b" horiz-adv-x="1228" 
d="M143 0v1434h205v-533h10q20 23 28 31.5t41 34.5t62 39t80 25.5t107 12.5q205 0 338 -145t133 -387t-133 -387t-338 -145q-210 0 -318 143h-10l-20 -123h-185zM645 164q126 0 211.5 96t85.5 252t-85.5 252t-211.5 96t-211.5 -96t-85.5 -252t85.5 -252t211.5 -96z" />
    <glyph glyph-name="c" unicode="c" horiz-adv-x="1136" 
d="M860 358h205q-14 -64 -45.5 -125t-86 -120.5t-142.5 -96t-197 -36.5q-224 0 -368 148t-144 384t144 384t368 148q88 0 163.5 -25t126 -63.5t89.5 -89.5t60 -97.5t32 -92.5h-205q-29 80 -93.5 132t-172.5 52q-133 0 -220 -95.5t-87 -252.5t87 -252.5t220 -95.5
q111 0 178 59.5t88 134.5z" />
    <glyph glyph-name="d" unicode="d" horiz-adv-x="1228" 
d="M901 0l-20 123h-11q-108 -143 -317 -143q-205 0 -338 145t-133 387t133 387t338 145q67 0 122 -14.5t93 -39.5t57.5 -43t39.5 -40q3 -4 5 -6h11v533h204v-1434h-184zM584 164q126 0 211.5 96t85.5 252t-85.5 252t-211.5 96t-211.5 -96t-85.5 -252t85.5 -252t211.5 -96z
" />
    <glyph glyph-name="e" unicode="e" 
d="M287 594h604q-18 125 -97 200.5t-200 75.5q-126 0 -204.5 -74t-102.5 -202zM840 297h215q-16 -43 -41 -84.5t-66 -84.5t-90.5 -75t-118 -52.5t-145.5 -20.5q-224 0 -368 148t-144 384t144 384t368 148q208 0 349.5 -143.5t141.5 -357.5q0 -20 -6 -74l-4 -29h-788
q17 -131 100.5 -208.5t206.5 -77.5q87 0 153 42t93 101z" />
    <glyph glyph-name="f" unicode="f" horiz-adv-x="686" 
d="M215 0v829h-164v195h164v184q0 92 61.5 153.5t153.5 61.5h205v-184h-154q-61 0 -61 -61v-154h215v-195h-215v-829h-205z" />
    <glyph glyph-name="g" unicode="g" horiz-adv-x="1198" 
d="M573 246q124 0 205.5 85t81.5 222t-81.5 222t-205.5 85t-205 -85t-81 -222t81 -222t205 -85zM113 -61h204q8 -75 79 -130t188 -55q122 0 199 75t77 191v164h-10q-26 -26 -45 -41t-57.5 -37.5t-92.5 -33.5t-123 -11q-194 0 -322 136.5t-128 355.5t128 355t322 136
q204 0 318 -133h10l21 113h184v-1004q0 -205 -127 -327.5t-354 -122.5q-97 0 -177.5 25t-132 64t-88 89.5t-53.5 98t-20 92.5z" />
    <glyph glyph-name="h" unicode="h" horiz-adv-x="1187" 
d="M143 0v1434h205v-512h10q36 36 76 61q96 61 221 61q186 0 298 -115.5t112 -314.5v-614h-205v614q0 101 -71 173.5t-175 72.5q-114 0 -190 -72.5t-76 -173.5v-614h-205z" />
    <glyph glyph-name="i" unicode="i" horiz-adv-x="471" 
d="M133 0v1024h205v-1024h-205zM123 1219v215h225v-215h-225z" />
    <glyph glyph-name="j" unicode="j" horiz-adv-x="471" 
d="M-92 -410v185h164q61 0 61 71v1178h205v-1219q0 -101 -58.5 -158t-166.5 -57h-205zM123 1219v215h225v-215h-225z" />
    <glyph glyph-name="k" unicode="k" horiz-adv-x="1034" 
d="M143 0v1434h205v-881l430 471h246l-461 -502l481 -522h-245l-451 492v-492h-205z" />
    <glyph glyph-name="l" unicode="l" horiz-adv-x="491" 
d="M143 0v1434h205v-1434h-205z" />
    <glyph glyph-name="m" unicode="m" horiz-adv-x="1730" 
d="M133 0v1024h184l21 -102h10q27 31 72 61q92 61 194 61q128 0 215 -71q43 -39 62 -72h10q25 34 80 72q112 71 258 71q160 0 264.5 -111.5t104.5 -285.5v-647h-205v645q0 99 -56 157t-149 58q-94 0 -159.5 -61.5t-65.5 -153.5v-645h-205v645q0 99 -56 157t-149 58
q-94 0 -159.5 -61.5t-65.5 -153.5v-645h-205z" />
    <glyph glyph-name="n" unicode="n" horiz-adv-x="1177" 
d="M133 0v1024h184l21 -102h10q36 36 76 61q96 61 221 61q186 0 298 -115.5t112 -314.5v-614h-205v614q0 101 -71 173.5t-175 72.5q-114 0 -190 -72.5t-76 -173.5v-614h-205z" />
    <glyph glyph-name="o" unicode="o" horiz-adv-x="1187" 
d="M594 164q133 0 220 95.5t87 252.5t-87 252.5t-220 95.5t-220 -95.5t-87 -252.5t87 -252.5t220 -95.5zM594 -20q-224 0 -368 148t-144 384t144 384t368 148t368 -148t144 -384t-144 -384t-368 -148z" />
    <glyph glyph-name="p" unicode="p" horiz-adv-x="1218" 
d="M133 -410v1434h184l21 -123h10q20 23 28 31.5t41 34.5t62 39t80 25.5t107 12.5q205 0 338 -145t133 -387t-133 -387t-338 -145q-210 0 -318 143h-10v-533h-205zM635 164q126 0 211.5 96t85.5 252t-85.5 252t-211.5 96t-211.5 -96t-85.5 -252t85.5 -252t211.5 -96z" />
    <glyph glyph-name="q" unicode="q" horiz-adv-x="1218" 
d="M881 -410v533h-11q-108 -143 -317 -143q-205 0 -338 145t-133 387t133 387t338 145q67 0 122 -14.5t93 -39.5t57.5 -43t39.5 -40q3 -4 5 -6h11l20 123h184v-1434h-204zM584 164q126 0 211.5 96t85.5 252t-85.5 252t-211.5 96t-211.5 -96t-85.5 -252t85.5 -252t211.5 -96z
" />
    <glyph glyph-name="r" unicode="r" horiz-adv-x="737" 
d="M133 0v1024h174l21 -92h10q1 1 14.5 17t17.5 19t18.5 16t25.5 17t29.5 11t40.5 9.5t48 2.5h185v-184h-164q-215 0 -215 -213v-627h-205z" />
    <glyph glyph-name="s" unicode="s" horiz-adv-x="993" 
d="M61 307h205q0 -54 62 -103.5t174 -49.5q107 0 161 39.5t54 93.5q0 56 -35 88t-119 45l-184 31q-150 25 -223.5 96.5t-73.5 200.5q0 130 105.5 213t304.5 83q85 0 157 -22t119 -57t80.5 -78t48 -83.5t14.5 -76.5h-204q0 54 -54.5 98.5t-160.5 44.5q-102 0 -153.5 -35
t-51.5 -87q0 -46 41 -77.5t112 -45.5l185 -31q297 -49 297 -307q0 -63 -26 -117.5t-76 -97.5t-132 -67.5t-186 -24.5q-94 0 -171.5 23.5t-126 59t-82 80.5t-47.5 86.5t-14 77.5z" />
    <glyph glyph-name="t" unicode="t" horiz-adv-x="747" 
d="M215 215v614h-164v195h164v287h205v-287h235v-195h-235v-583q0 -62 61 -62h174v-184h-215q-108 0 -166.5 57t-58.5 158z" />
    <glyph glyph-name="u" unicode="u" horiz-adv-x="1187" 
d="M133 410v614h205v-614q0 -101 71 -173.5t175 -72.5q114 0 190 72.5t76 173.5v614h205v-1024h-185l-20 102h-10q-36 -36 -76 -61q-96 -61 -221 -61q-186 0 -298 115.5t-112 314.5z" />
    <glyph glyph-name="v" unicode="v" horiz-adv-x="1044" 
d="M369 0l-359 1024h215l277 -799h41l276 799h215l-358 -1024h-307z" />
    <glyph glyph-name="w" unicode="w" horiz-adv-x="1617" 
d="M297 0l-277 1024h216l194 -758h41l201 758h274l201 -758h41l194 758h215l-276 -1024h-297l-195 737h-41l-194 -737h-297z" />
    <glyph glyph-name="x" unicode="x" horiz-adv-x="1024" 
d="M10 0l348 532l-338 492h236l236 -348h40l236 348h236l-338 -492l348 -532h-236l-246 379h-40l-246 -379h-236z" />
    <glyph glyph-name="y" unicode="y" horiz-adv-x="1054" 
d="M123 -410v185h205q28 0 45.5 19.5t23.5 41.5l33 92l-420 1096h215l297 -778h41l266 778h215l-450 -1260q-33 -90 -89.5 -132t-166.5 -42h-215z" />
    <glyph glyph-name="z" unicode="z" horiz-adv-x="931" 
d="M61 0v184l533 645h-522v195h788v-184l-532 -645h542v-195h-809z" />
    <glyph glyph-name="braceleft" unicode="{" horiz-adv-x="706" 
d="M246 -154v471q0 113 -144 113v225q144 0 144 113v471q0 117 71.5 186.5t194.5 69.5h123v-174h-82q-102 0 -102 -102v-471q0 -106 -89 -158q-44 -24 -86 -27v-41q44 -3 86 -26q89 -52 89 -158v-471q0 -103 102 -103h82v-174h-123q-123 0 -194.5 69.5t-71.5 186.5z" />
    <glyph glyph-name="bar" unicode="|" horiz-adv-x="696" 
d="M246 -410v1905h205v-1905h-205z" />
    <glyph glyph-name="braceright" unicode="}" horiz-adv-x="706" 
d="M72 -410v174h82q102 0 102 103v471q0 108 86 158q42 23 88 26v41q-44 3 -88 27q-86 50 -86 158v471q0 102 -102 102h-82v174h123q123 0 194.5 -69.5t71.5 -186.5v-471q0 -56 33.5 -84.5t109.5 -28.5v-225q-76 0 -109.5 -28.5t-33.5 -84.5v-471q0 -117 -71.5 -186.5
t-194.5 -69.5h-123z" />
    <glyph glyph-name="asciitilde" unicode="~" horiz-adv-x="1187" 
d="M287 379h-205q0 188 83 283.5t234 95.5q55 0 103.5 -19t83 -46t65.5 -54.5t63.5 -46.5t63.5 -19q57 0 90 43t33 132h205q0 -188 -83.5 -283.5t-234.5 -95.5q-55 0 -103 19t-82.5 46t-65.5 54t-63.5 46t-63.5 19q-57 0 -90 -42.5t-33 -131.5z" />
    <glyph glyph-name="nbspace" unicode="&#xa0;" horiz-adv-x="481" 
 />
    <glyph glyph-name="exclamdown" unicode="&#xa1;" horiz-adv-x="563" 
d="M174 -410v584l31 481h153l31 -481v-584h-215zM164 788v236h235v-236h-235z" />
    <glyph glyph-name="cent" unicode="&#xa2;" horiz-adv-x="1136" 
d="M492 -225v215q-185 33 -297.5 173.5t-112.5 348.5t112.5 348.5t297.5 173.5v226h204v-226q67 -12 125 -41.5t98 -67t71 -82t48.5 -86t26.5 -81.5h-205q-29 80 -93.5 132t-172.5 52q-133 0 -220 -95.5t-87 -252.5t87 -252.5t220 -95.5q111 0 178 59.5t88 134.5h205
q-9 -43 -26.5 -86.5t-48.5 -90t-71 -84t-98 -67t-125 -40.5v-215h-204z" />
    <glyph glyph-name="sterling" unicode="&#xa3;" horiz-adv-x="1239" 
d="M72 0v205h61q113 0 113 112v287h-174v174h174v256q0 187 122.5 303.5t327.5 116.5t328 -117t123 -303h-215q0 94 -64.5 154.5t-171.5 60.5t-171 -60.5t-64 -154.5v-256h399v-174h-399v-287q0 -55 -31 -90q-8 -9 -31 -22h789v-205h-1116z" />
    <glyph glyph-name="currency" unicode="&#xa4;" horiz-adv-x="1187" 
d="M154 399l110 131q-49 87 -49 187q0 97 49 184l-110 133l122 113l107 -117q95 66 211 66t211 -66l106 117l123 -113l-110 -133q49 -87 49 -184q0 -100 -49 -187l110 -131l-123 -112l-106 116q-94 -65 -211 -65t-211 65l-107 -116zM594 492q91 0 158 66t67 159
q0 91 -67 158t-158 67q-93 0 -159 -67t-66 -158q0 -94 65.5 -159.5t159.5 -65.5z" />
    <glyph glyph-name="yen" unicode="&#xa5;" horiz-adv-x="1239" 
d="M164 266v174h348v144h-348v174h211l-365 676h238l356 -666h41l346 666h238l-367 -676h213v-174h-348v-144h348v-174h-348v-266h-215v266h-348z" />
    <glyph glyph-name="brokenbar" unicode="&#xa6;" horiz-adv-x="696" 
d="M246 727v768h205v-768h-205zM246 -410v768h205v-768h-205z" />
    <glyph glyph-name="section" unicode="&#xa7;" horiz-adv-x="1290" 
d="M143 82h215q0 -104 81 -175t216 -71q133 0 200 50.5t67 133.5q0 154 -205 195l-205 41q-195 39 -292 126t-97 232q0 106 65 199q27 41 68 68q-22 17 -47 53q-45 68 -45 151q0 160 125 264.5t346 104.5q231 0 366.5 -122.5t135.5 -307.5h-215q0 105 -76.5 175.5
t-210.5 70.5q-125 0 -190.5 -51.5t-65.5 -133.5q0 -67 50.5 -103t164.5 -60l194 -41q210 -43 294.5 -125.5t84.5 -233.5q0 -111 -61 -203q-22 -33 -62 -73q23 -20 46 -58q47 -80 47 -178q0 -154 -127 -256t-355 -102q-232 0 -372 123t-140 307zM553 440l174 -41
q84 -19 111 -28q24 -10 43 -13q15 13 34 39q37 55 37 123q0 130 -204 176l-185 41q-46 10 -106 29l-37 12q-24 -21 -41 -43q-41 -55 -41 -121t55 -108t160 -66z" />
    <glyph glyph-name="dieresis" unicode="&#xa8;" horiz-adv-x="696" 
d="M61 1229v205h205v-205h-205zM430 1229v205h205v-205h-205z" />
    <glyph glyph-name="copyright" unicode="&#xa9;" horiz-adv-x="1720" 
d="M1055 614h153q-7 -33 -22 -69t-44.5 -75.5t-67.5 -70.5t-94 -51t-120 -20q-155 0 -261.5 111t-106.5 278t106.5 278t261.5 111q80 0 145.5 -27t106 -70t64.5 -88.5t32 -91.5h-153q-52 134 -185 134q-95 0 -155 -66t-60 -180t60 -180t155 -66q139 0 185 143zM123 717
q0 155 56.5 292t154 234.5t234.5 154t292 56.5t292 -56.5t234.5 -154t154 -234.5t56.5 -292t-56.5 -292t-154 -234.5t-234.5 -154t-292 -56.5t-292 56.5t-234.5 154t-154 234.5t-56.5 292zM860 133q245 0 409.5 166.5t164.5 417.5t-164.5 417t-409.5 166q-163 0 -294 -75
t-205 -208.5t-74 -299.5q0 -252 163 -418t410 -166z" />
    <glyph glyph-name="ordfeminine" unicode="&#xaa;" horiz-adv-x="737" 
d="M522 788l-20 72h-10q-23 -31 -69.5 -56.5t-115.5 -25.5q-107 0 -171 60.5t-64 154.5q0 90 64.5 142.5t193.5 52.5h162v20q0 53 -33 83t-88 30q-97 0 -115 -72h-164q18 92 88.5 148.5t188.5 56.5q128 0 202 -67.5t74 -178.5v-420h-123zM492 1065v10h-154q-113 0 -113 -82
q0 -38 28 -60t75 -22q77 0 120.5 42t43.5 112z" />
    <glyph glyph-name="guillemotleft" unicode="&#xab;" horiz-adv-x="1085" 
d="M788 102l-286 410l286 410h216l-287 -410l287 -410h-216zM369 102l-287 410l287 410h215l-287 -410l287 -410h-215z" />
    <glyph glyph-name="logicalnot" unicode="&#xac;" horiz-adv-x="1105" 
d="M143 584v184h809v-451h-204v267h-605z" />
    <glyph glyph-name="uni00AD" unicode="&#xad;" horiz-adv-x="860" 
d="M92 492v184h676v-184h-676z" />
    <glyph glyph-name="registered" unicode="&#xae;" horiz-adv-x="1720" 
d="M584 348v748h327q115 0 191 -74t76 -182q0 -95 -67 -166.5t-148 -79.5l235 -246h-184l-236 246h-41v-246h-153zM123 717q0 155 56.5 292t154 234.5t234.5 154t292 56.5t292 -56.5t234.5 -154t154 -234.5t56.5 -292t-56.5 -292t-154 -234.5t-234.5 -154t-292 -56.5
t-292 56.5t-234.5 154t-154 234.5t-56.5 292zM860 133q245 0 409.5 166.5t164.5 417.5t-164.5 417t-409.5 166q-163 0 -294 -75t-205 -208.5t-74 -299.5q0 -252 163 -418t410 -166zM737 717h174q48 0 80.5 35t32.5 88t-32.5 88t-80.5 35h-174v-246z" />
    <glyph glyph-name="overscore" unicode="&#xaf;" horiz-adv-x="737" 
d="M61 1260v163h615v-163h-615z" />
    <glyph glyph-name="degree" unicode="&#xb0;" horiz-adv-x="778" 
d="M389 1044q60 0 96.5 39t36.5 95t-36.5 94.5t-96.5 38.5t-96.5 -38.5t-36.5 -94.5t36.5 -95t96.5 -39zM389 1454q121 0 199 -79.5t78 -196.5t-78 -197t-199 -80t-198.5 80t-77.5 197t77.5 196.5t198.5 79.5z" />
    <glyph glyph-name="plusminus" unicode="&#xb1;" horiz-adv-x="1116" 
d="M102 0v184h912v-184h-912zM461 317v369h-359v184h359v369h194v-369h359v-184h-359v-369h-194z" />
    <glyph glyph-name="uni00B2" unicode="&#xb2;" horiz-adv-x="696" 
d="M102 901v113l287 286q62 62 62 123q0 47 -28 75t-75 28q-53 0 -82.5 -34t-29.5 -89h-144q0 110 70 178t186 68q110 0 178 -63t68 -163q0 -64 -26 -109t-87 -106l-174 -174v-10h297v-123h-502z" />
    <glyph glyph-name="uni00B3" unicode="&#xb3;" horiz-adv-x="696" 
d="M82 1116h143q0 -40 31 -71t82 -31q54 0 83.5 27t29.5 75t-31.5 75.5t-91.5 27.5h-62v122h62q52 0 82 26.5t30 66.5q0 39 -28 65.5t-74 26.5t-74 -26.5t-28 -65.5h-144q0 88 71 151.5t175 63.5q114 0 180 -58t66 -147q0 -102 -92 -154v-10q102 -57 102 -164
q0 -96 -71.5 -160.5t-184.5 -64.5q-114 0 -185 63.5t-71 161.5z" />
    <glyph glyph-name="acute" unicode="&#xb4;" horiz-adv-x="552" 
d="M61 1208l205 297h226l-246 -297h-185z" />
    <glyph glyph-name="uni00B5" unicode="&#xb5;" horiz-adv-x="1187" 
d="M133 -410v1434h205v-614q0 -101 71 -173.5t175 -72.5q114 0 190 72.5t76 173.5v614h205v-1024h-185l-20 102h-10q-35 -35 -74 -61q-92 -61 -203 -61q-98 0 -166 40q-30 16 -59 41v-471h-205z" />
    <glyph glyph-name="paragraph" unicode="&#xb6;" horiz-adv-x="1146" 
d="M440 -205v901q-148 0 -248 105t-100 264t100 264t248 105h553v-1639h-194v1454h-164v-1454h-195z" />
    <glyph glyph-name="middot" unicode="&#xb7;" horiz-adv-x="481" 
d="M123 430v236h235v-236h-235z" />
    <glyph glyph-name="cedilla" unicode="&#xb8;" horiz-adv-x="450" 
d="M61 -440v133h82q45 0 69 18t24 43q0 62 -93 62h-51v82l41 92h154l-41 -92q55 -9 99 -51t44 -113q0 -81 -54.5 -127.5t-160.5 -46.5h-113z" />
    <glyph glyph-name="uni00B9" unicode="&#xb9;" horiz-adv-x="542" 
d="M246 901v512h-174v133h112q62 0 62 62v30h143v-737h-143z" />
    <glyph glyph-name="ordmasculine" unicode="&#xba;" horiz-adv-x="798" 
d="M399 778q-141 0 -229 92.5t-88 245.5t88 245.5t229 92.5t229.5 -93t88.5 -245t-88.5 -245t-229.5 -93zM563 1116q0 90 -46.5 142.5t-117.5 52.5t-117 -52.5t-46 -142.5t46 -142t117 -52t117.5 52t46.5 142z" />
    <glyph glyph-name="guillemotright" unicode="&#xbb;" horiz-adv-x="1085" 
d="M502 102l286 410l-286 410h215l287 -410l-287 -410h-215zM82 102l287 410l-287 410h215l287 -410l-287 -410h-215z" />
    <glyph glyph-name="onequarter" unicode="&#xbc;" horiz-adv-x="1382" 
d="M133 0l891 1434h164l-891 -1434h-164zM256 696v512h-174v133h113q61 0 61 62v31h143v-738h-143zM727 143v123l277 471h204v-461h103v-133h-103v-143h-143v143h-338zM901 276h164v267h-21l-143 -256v-11z" />
    <glyph glyph-name="onehalf" unicode="&#xbd;" horiz-adv-x="1443" 
d="M133 0l891 1434h164l-891 -1434h-164zM256 696v512h-174v133h113q61 0 61 62v31h143v-738h-143zM829 0v113l287 286q62 62 62 123q0 47 -28 75t-75 28q-53 0 -82.5 -34t-29.5 -89h-144q0 110 70 178t186 68q110 0 178 -63t68 -163q0 -64 -26 -109t-87 -106l-174 -174v-10
h297v-123h-502z" />
    <glyph glyph-name="threequarters" unicode="&#xbe;" horiz-adv-x="1495" 
d="M256 0l891 1434h164l-891 -1434h-164zM82 911h143q0 -40 31 -71t82 -31q54 0 83.5 27t29.5 75t-31.5 75.5t-91.5 27.5h-62v123h62q52 0 82 26t30 66q0 39 -28 65.5t-74 26.5t-74 -26.5t-28 -65.5h-144q0 88 71 151.5t175 63.5q114 0 180 -58t66 -147q0 -102 -92 -154v-10
q102 -57 102 -164q0 -96 -71.5 -160.5t-184.5 -64.5q-114 0 -185 63.5t-71 161.5zM840 143v123l276 471h205v-461h102v-133h-102v-143h-143v143h-338zM1014 276h164v267h-21l-143 -256v-11z" />
    <glyph glyph-name="questiondown" unicode="&#xbf;" horiz-adv-x="1044" 
d="M788 -20h216q0 -173 -126 -291.5t-335 -118.5q-214 0 -342.5 115t-128.5 295q0 251 225 358q81 36 112 86.5t31 118.5v112h215v-112q0 -133 -43.5 -214t-150.5 -134q-90 -42 -132 -83.5t-42 -111.5q0 -100 70 -162.5t186 -62.5q118 0 181.5 57.5t63.5 147.5zM430 788v236
h236v-236h-236z" />
    <glyph glyph-name="Agrave" unicode="&#xc0;" horiz-adv-x="1372" 
d="M0 0l522 1434h328l522 -1434h-235l-123 338h-656l-122 -338h-236zM430 532h512l-235 656h-41zM594 1577l-246 297h225l205 -297h-184z" />
    <glyph glyph-name="Aacute" unicode="&#xc1;" horiz-adv-x="1372" 
d="M0 0l522 1434h328l522 -1434h-235l-123 338h-656l-122 -338h-236zM430 532h512l-235 656h-41zM594 1577l205 297h225l-246 -297h-184z" />
    <glyph glyph-name="Acircumflex" unicode="&#xc2;" horiz-adv-x="1372" 
d="M0 0l522 1434h328l522 -1434h-235l-123 338h-656l-122 -338h-236zM430 532h512l-235 656h-41zM348 1577l246 297h184l246 -297h-195l-143 174l-143 -174h-195z" />
    <glyph glyph-name="Atilde" unicode="&#xc3;" horiz-adv-x="1372" 
d="M0 0l522 1434h328l522 -1434h-235l-123 338h-656l-122 -338h-236zM430 532h512l-235 656h-41zM512 1608h-154q0 113 59.5 174t155.5 61q43 0 84.5 -23t77 -46t64.5 -23q32 0 51.5 23t19.5 69h154q0 -113 -59.5 -174t-155.5 -61q-43 0 -84 23t-76.5 46t-64.5 23
q-32 0 -52 -23.5t-20 -68.5z" />
    <glyph glyph-name="Adieresis" unicode="&#xc4;" horiz-adv-x="1372" 
d="M0 0l522 1434h328l522 -1434h-235l-123 338h-656l-122 -338h-236zM430 532h512l-235 656h-41zM399 1628v205h205v-205h-205zM768 1628v205h205v-205h-205z" />
    <glyph glyph-name="Aring" unicode="&#xc5;" horiz-adv-x="1372" 
d="M0 0l522 1434h328l522 -1434h-235l-123 338h-656l-122 -338h-236zM430 532h512l-235 656h-41zM686 1546q-86 0 -140 54.5t-54 140.5t54 140t140 54t140.5 -54t54.5 -140t-54.5 -140.5t-140.5 -54.5zM686 1659q33 0 57.5 22.5t24.5 59.5t-24.5 59.5t-57.5 22.5
t-57.5 -22.5t-24.5 -59.5t24.5 -59.5t57.5 -22.5z" />
    <glyph glyph-name="AE" unicode="&#xc6;" horiz-adv-x="1925" 
d="M-31 0l625 1434h1218v-205h-727v-410h687v-205h-687v-409h727v-205h-942v338h-520l-145 -338h-236zM434 532h436v697h-133z" />
    <glyph glyph-name="Ccedilla" unicode="&#xc7;" horiz-adv-x="1495" 
d="M625 -440v133h82q45 0 68.5 18t23.5 43q0 62 -92 62h-52v82l39 88q-170 20 -306 114.5t-216 255.5t-80 361q0 161 54.5 300t147 234t218.5 149t266 54q130 0 243 -42t192.5 -113.5t133 -160t76.5 -186.5h-225q-53 143 -166 220t-254 77q-205 0 -338 -145t-133 -387
t133 -387.5t338 -145.5q85 0 157.5 26t123.5 70.5t85.5 98t53.5 113.5h225q-19 -85 -63 -166t-113 -155t-173 -124.5t-228 -62.5l-37 -86q55 -9 99 -51t44 -113q0 -81 -54.5 -127.5t-160.5 -46.5h-112z" />
    <glyph glyph-name="Egrave" unicode="&#xc8;" horiz-adv-x="1208" 
d="M154 0v1434h942v-205h-727v-410h686v-205h-686v-409h727v-205h-942zM532 1577l-245 297h225l205 -297h-185z" />
    <glyph glyph-name="Eacute" unicode="&#xc9;" horiz-adv-x="1208" 
d="M154 0v1434h942v-205h-727v-410h686v-205h-686v-409h727v-205h-942zM532 1577l205 297h226l-246 -297h-185z" />
    <glyph glyph-name="Ecircumflex" unicode="&#xca;" horiz-adv-x="1208" 
d="M154 0v1434h942v-205h-727v-410h686v-205h-686v-409h727v-205h-942zM287 1577l245 297h185l246 -297h-195l-143 174l-144 -174h-194z" />
    <glyph glyph-name="Edieresis" unicode="&#xcb;" horiz-adv-x="1208" 
d="M154 0v1434h942v-205h-727v-410h686v-205h-686v-409h727v-205h-942zM338 1628v205h205v-205h-205zM707 1628v205h204v-205h-204z" />
    <glyph glyph-name="Igrave" unicode="&#xcc;" horiz-adv-x="522" 
d="M154 0v1434h215v-1434h-215zM164 1577l-246 297h225l205 -297h-184z" />
    <glyph glyph-name="Iacute" unicode="&#xcd;" horiz-adv-x="522" 
d="M154 0v1434h215v-1434h-215zM174 1577l205 297h225l-246 -297h-184z" />
    <glyph glyph-name="Icircumflex" unicode="&#xce;" horiz-adv-x="522" 
d="M154 0v1434h215v-1434h-215zM-72 1577l246 297h184l246 -297h-194l-144 174l-143 -174h-195z" />
    <glyph glyph-name="Idieresis" unicode="&#xcf;" horiz-adv-x="522" 
d="M154 0v1434h215v-1434h-215zM-20 1628v205h204v-205h-204zM348 1628v205h205v-205h-205z" />
    <glyph glyph-name="Eth" unicode="&#xd0;" horiz-adv-x="1505" 
d="M225 0v625h-194v194h194v615h502q193 0 349.5 -91.5t246.5 -256t90 -369.5t-90 -369.5t-246.5 -256t-349.5 -91.5h-502zM440 205h287q203 0 337 143t134 369t-134 369t-337 143h-287v-410h348v-194h-348v-420z" />
    <glyph glyph-name="Ntilde" unicode="&#xd1;" horiz-adv-x="1464" 
d="M154 0v1434h317l584 -1117h41v1117h215v-1434h-318l-583 1116h-41v-1116h-215zM563 1608h-153q0 113 59.5 174t155.5 61q43 0 84 -23t76.5 -46t64.5 -23q32 0 52 23.5t20 68.5h153q0 -113 -59.5 -174t-155.5 -61q-43 0 -84 23t-76.5 46t-64.5 23q-32 0 -52 -23.5
t-20 -68.5z" />
    <glyph glyph-name="Ograve" unicode="&#xd2;" horiz-adv-x="1556" 
d="M778 -20q-140 0 -266 54t-218.5 149t-147 234t-54.5 300t54.5 300t147 234t218.5 149t266 54t266 -54t218.5 -149t147 -234t54.5 -300t-54.5 -300t-147 -234t-218.5 -149t-266 -54zM778 1249q-205 0 -338 -145t-133 -387t133 -387.5t338 -145.5t338 145.5t133 387.5
t-133 387t-338 145zM696 1577l-245 297h225l205 -297h-185z" />
    <glyph glyph-name="Oacute" unicode="&#xd3;" horiz-adv-x="1556" 
d="M778 -20q-140 0 -266 54t-218.5 149t-147 234t-54.5 300t54.5 300t147 234t218.5 149t266 54t266 -54t218.5 -149t147 -234t54.5 -300t-54.5 -300t-147 -234t-218.5 -149t-266 -54zM778 1249q-205 0 -338 -145t-133 -387t133 -387.5t338 -145.5t338 145.5t133 387.5
t-133 387t-338 145zM696 1577l205 297h225l-245 -297h-185z" />
    <glyph glyph-name="Ocircumflex" unicode="&#xd4;" horiz-adv-x="1556" 
d="M778 -20q-140 0 -266 54t-218.5 149t-147 234t-54.5 300t54.5 300t147 234t218.5 149t266 54t266 -54t218.5 -149t147 -234t54.5 -300t-54.5 -300t-147 -234t-218.5 -149t-266 -54zM778 1249q-205 0 -338 -145t-133 -387t133 -387.5t338 -145.5t338 145.5t133 387.5
t-133 387t-338 145zM440 1577l246 297h184l246 -297h-194l-144 174l-143 -174h-195z" />
    <glyph glyph-name="Otilde" unicode="&#xd5;" horiz-adv-x="1556" 
d="M778 -20q-140 0 -266 54t-218.5 149t-147 234t-54.5 300t54.5 300t147 234t218.5 149t266 54t266 -54t218.5 -149t147 -234t54.5 -300t-54.5 -300t-147 -234t-218.5 -149t-266 -54zM778 1249q-205 0 -338 -145t-133 -387t133 -387.5t338 -145.5t338 145.5t133 387.5
t-133 387t-338 145zM614 1608h-153q0 113 59.5 174t155.5 61q43 0 84 -23t76.5 -46t64.5 -23q32 0 52 23.5t20 68.5h153q0 -113 -59.5 -174t-155.5 -61q-43 0 -84 23t-76.5 46t-64.5 23q-32 0 -52 -23.5t-20 -68.5z" />
    <glyph glyph-name="Odieresis" unicode="&#xd6;" horiz-adv-x="1556" 
d="M778 -20q-140 0 -266 54t-218.5 149t-147 234t-54.5 300t54.5 300t147 234t218.5 149t266 54t266 -54t218.5 -149t147 -234t54.5 -300t-54.5 -300t-147 -234t-218.5 -149t-266 -54zM778 1249q-205 0 -338 -145t-133 -387t133 -387.5t338 -145.5t338 145.5t133 387.5
t-133 387t-338 145zM492 1628v205h204v-205h-204zM860 1628v205h205v-205h-205z" />
    <glyph glyph-name="multiply" unicode="&#xd7;" horiz-adv-x="1105" 
d="M143 328l277 276l-277 277l133 133l277 -277l276 277l134 -133l-277 -277l277 -276l-134 -133l-276 276l-277 -276z" />
    <glyph glyph-name="Oslash" unicode="&#xd8;" horiz-adv-x="1556" 
d="M246 -72l104 201q-122 101 -190 251t-68 337q0 161 54.5 300t147 234t218.5 149t266 54q130 0 246 -45l51 96h225l-102 -196q126 -101 196 -252.5t70 -339.5q0 -161 -54.5 -300t-147 -234t-218.5 -149t-266 -54q-142 0 -256 49l-51 -101h-225zM1098 1120l-480 -909
q70 -27 160 -27q205 0 338 145.5t133 387.5q0 258 -151 403zM451 319l477 906q-70 24 -150 24q-205 0 -338 -145t-133 -387q0 -251 144 -398z" />
    <glyph glyph-name="Ugrave" unicode="&#xd9;" horiz-adv-x="1433" 
d="M143 573v861h215v-861q0 -175 101.5 -282t257.5 -107t257 107t101 282v861h215v-861q0 -268 -159 -430.5t-414 -162.5t-414.5 162.5t-159.5 430.5zM625 1577l-246 297h225l205 -297h-184z" />
    <glyph glyph-name="Uacute" unicode="&#xda;" horiz-adv-x="1433" 
d="M143 573v861h215v-861q0 -175 101.5 -282t257.5 -107t257 107t101 282v861h215v-861q0 -268 -159 -430.5t-414 -162.5t-414.5 162.5t-159.5 430.5zM625 1577l204 297h226l-246 -297h-184z" />
    <glyph glyph-name="Ucircumflex" unicode="&#xdb;" horiz-adv-x="1433" 
d="M143 573v861h215v-861q0 -175 101.5 -282t257.5 -107t257 107t101 282v861h215v-861q0 -268 -159 -430.5t-414 -162.5t-414.5 162.5t-159.5 430.5zM379 1577l246 297h184l246 -297h-195l-143 174l-144 -174h-194z" />
    <glyph glyph-name="Udieresis" unicode="&#xdc;" horiz-adv-x="1433" 
d="M143 573v861h215v-861q0 -175 101.5 -282t257.5 -107t257 107t101 282v861h215v-861q0 -268 -159 -430.5t-414 -162.5t-414.5 162.5t-159.5 430.5zM430 1628v205h205v-205h-205zM799 1628v205h205v-205h-205z" />
    <glyph glyph-name="Yacute" unicode="&#xdd;" horiz-adv-x="1239" 
d="M512 0v512l-522 922h237l377 -666h41l367 666h237l-522 -922v-512h-215zM532 1577l205 297h226l-246 -297h-185z" />
    <glyph glyph-name="Thorn" unicode="&#xde;" horiz-adv-x="1433" 
d="M154 0v1434h215v-287h542q191 0 316 -122.5t125 -307.5t-125 -307.5t-316 -122.5h-542v-287h-215zM369 492h532q98 0 167 65.5t69 159.5q0 91 -69 158t-167 67h-532v-450z" />
    <glyph glyph-name="germandbls" unicode="&#xdf;" horiz-adv-x="1157" 
d="M133 0v1034q0 186 123 303t328 117q204 0 327 -115t123 -295q0 -145 -94 -239q-45 -45 -92 -64v-10q63 -24 113 -69q114 -102 114 -263q0 -181 -122 -290t-339 -109h-82v184h62q126 0 201 65t75 161t-74.5 160.5t-201.5 64.5h-72v194h72q107 0 171 60.5t64 154.5
q0 92 -70.5 159t-174.5 67q-108 0 -177 -67.5t-69 -168.5v-1034h-205z" />
    <glyph glyph-name="agrave" unicode="&#xe0;" horiz-adv-x="1095" 
d="M799 0l-21 113h-10q-30 -41 -74 -68q-97 -65 -233 -65q-167 0 -268 88t-101 229q0 159 105.5 248.5t314.5 89.5h256v20q0 100 -57.5 157.5t-157.5 57.5q-98 0 -152 -44t-63 -99h-205q8 135 121.5 226t298.5 91q199 0 309.5 -104.5t110.5 -284.5v-655h-174zM768 430v41
h-246q-112 0 -168.5 -45.5t-56.5 -118.5q0 -71 47 -112t137 -41q139 0 213 72.5t74 203.5zM461 1188l-246 297h225l205 -297h-184z" />
    <glyph glyph-name="aacute" unicode="&#xe1;" horiz-adv-x="1095" 
d="M799 0l-21 113h-10q-30 -41 -74 -68q-97 -65 -233 -65q-167 0 -268 88t-101 229q0 159 105.5 248.5t314.5 89.5h256v20q0 100 -57.5 157.5t-157.5 57.5q-98 0 -152 -44t-63 -99h-205q8 135 121.5 226t298.5 91q199 0 309.5 -104.5t110.5 -284.5v-655h-174zM768 430v41
h-246q-112 0 -168.5 -45.5t-56.5 -118.5q0 -71 47 -112t137 -41q139 0 213 72.5t74 203.5zM461 1188l205 297h225l-246 -297h-184z" />
    <glyph glyph-name="acircumflex" unicode="&#xe2;" horiz-adv-x="1095" 
d="M799 0l-21 113h-10q-30 -41 -74 -68q-97 -65 -233 -65q-167 0 -268 88t-101 229q0 159 105.5 248.5t314.5 89.5h256v20q0 100 -57.5 157.5t-157.5 57.5q-98 0 -152 -44t-63 -99h-205q8 135 121.5 226t298.5 91q199 0 309.5 -104.5t110.5 -284.5v-655h-174zM768 430v41
h-246q-112 0 -168.5 -45.5t-56.5 -118.5q0 -71 47 -112t137 -41q139 0 213 72.5t74 203.5zM215 1188l246 297h184l246 -297h-195l-143 174l-143 -174h-195z" />
    <glyph glyph-name="atilde" unicode="&#xe3;" horiz-adv-x="1095" 
d="M799 0l-21 113h-10q-30 -41 -74 -68q-97 -65 -233 -65q-167 0 -268 88t-101 229q0 159 105.5 248.5t314.5 89.5h256v20q0 100 -57.5 157.5t-157.5 57.5q-98 0 -152 -44t-63 -99h-205q8 135 121.5 226t298.5 91q199 0 309.5 -104.5t110.5 -284.5v-655h-174zM768 430v41
h-246q-112 0 -168.5 -45.5t-56.5 -118.5q0 -71 47 -112t137 -41q139 0 213 72.5t74 203.5zM379 1219h-154q0 113 59.5 174t155.5 61q43 0 84.5 -23t77 -46t64.5 -23q32 0 51.5 23t19.5 69h154q0 -113 -59.5 -174t-155.5 -61q-43 0 -84 23t-76.5 46t-64.5 23q-32 0 -52 -23.5
t-20 -68.5z" />
    <glyph glyph-name="adieresis" unicode="&#xe4;" horiz-adv-x="1095" 
d="M799 0l-21 113h-10q-30 -41 -74 -68q-97 -65 -233 -65q-167 0 -268 88t-101 229q0 159 105.5 248.5t314.5 89.5h256v20q0 100 -57.5 157.5t-157.5 57.5q-98 0 -152 -44t-63 -99h-205q8 135 121.5 226t298.5 91q199 0 309.5 -104.5t110.5 -284.5v-655h-174zM768 430v41
h-246q-112 0 -168.5 -45.5t-56.5 -118.5q0 -71 47 -112t137 -41q139 0 213 72.5t74 203.5zM266 1229v205h205v-205h-205zM635 1229v205h205v-205h-205z" />
    <glyph glyph-name="aring" unicode="&#xe5;" horiz-adv-x="1095" 
d="M799 0l-21 113h-10q-30 -41 -74 -68q-97 -65 -233 -65q-167 0 -268 88t-101 229q0 159 105.5 248.5t314.5 89.5h256v20q0 100 -57.5 157.5t-157.5 57.5q-98 0 -152 -44t-63 -99h-205q8 135 121.5 226t298.5 91q199 0 309.5 -104.5t110.5 -284.5v-655h-174zM768 430v41
h-246q-112 0 -168.5 -45.5t-56.5 -118.5q0 -71 47 -112t137 -41q139 0 213 72.5t74 203.5zM553 1157q-86 0 -140.5 54.5t-54.5 140.5t54.5 140t140.5 54t140.5 -54t54.5 -140t-54.5 -140.5t-140.5 -54.5zM553 1270q33 0 57.5 22.5t24.5 59.5t-24.5 59.5t-57.5 22.5
t-57.5 -22.5t-24.5 -59.5t24.5 -59.5t57.5 -22.5z" />
    <glyph glyph-name="ae" unicode="&#xe6;" horiz-adv-x="1843" 
d="M768 430v21h-236q-108 0 -171.5 -42t-63.5 -112q0 -63 52.5 -103t142.5 -40q136 0 206 74.5t70 201.5zM983 604h573q-17 132 -88.5 204.5t-187.5 72.5q-120 0 -200 -72.5t-97 -204.5zM338 727h-205q8 135 121.5 226t298.5 91q64 0 119 -12.5t92.5 -32t68 -46t48 -51.5
t30.5 -52q20 34 50.5 65.5t75 62t108 48.5t135.5 18q211 0 346 -135t135 -356q0 -20 -6 -74l-4 -28h-768q12 -129 95.5 -213t201.5 -84q90 0 151.5 46t84.5 97h215q-16 -44 -39 -84.5t-62 -84t-86.5 -75.5t-116 -52.5t-147.5 -20.5q-171 0 -303 102q-56 45 -96 102
q-35 -54 -95 -102q-132 -102 -315 -102q-164 0 -271.5 92.5t-107.5 224.5q0 144 110.5 230.5t319.5 86.5h246v41q0 100 -57.5 157.5t-157.5 57.5q-98 0 -152 -44t-63 -99z" />
    <glyph glyph-name="ccedilla" unicode="&#xe7;" horiz-adv-x="1136" 
d="M440 -440v133h82q45 0 68.5 18t23.5 43q0 62 -92 62h-51v82l39 88q-193 28 -310.5 170t-117.5 356q0 236 144 384t368 148q88 0 163.5 -25t126 -63.5t89.5 -89.5t60 -97.5t32 -92.5h-205q-29 80 -93.5 132t-172.5 52q-133 0 -220 -95.5t-87 -252.5t87 -252.5t220 -95.5
q111 0 178 59.5t88 134.5h205q-11 -57 -39 -114t-74.5 -112.5t-121.5 -95.5t-168 -52l-37 -86q55 -9 99 -51t44 -113q0 -81 -54.5 -127.5t-160.5 -46.5h-113z" />
    <glyph glyph-name="egrave" unicode="&#xe8;" 
d="M287 594h604q-18 125 -97 200.5t-200 75.5q-126 0 -204.5 -74t-102.5 -202zM840 297h215q-16 -43 -41 -84.5t-66 -84.5t-90.5 -75t-118 -52.5t-145.5 -20.5q-224 0 -368 148t-144 384t144 384t368 148q208 0 349.5 -143.5t141.5 -357.5q0 -20 -6 -74l-4 -29h-788
q17 -131 100.5 -208.5t206.5 -77.5q87 0 153 42t93 101zM492 1188l-246 297h225l205 -297h-184z" />
    <glyph glyph-name="eacute" unicode="&#xe9;" 
d="M287 594h604q-18 125 -97 200.5t-200 75.5q-126 0 -204.5 -74t-102.5 -202zM840 297h215q-16 -43 -41 -84.5t-66 -84.5t-90.5 -75t-118 -52.5t-145.5 -20.5q-224 0 -368 148t-144 384t144 384t368 148q208 0 349.5 -143.5t141.5 -357.5q0 -20 -6 -74l-4 -29h-788
q17 -131 100.5 -208.5t206.5 -77.5q87 0 153 42t93 101zM492 1188l204 297h226l-246 -297h-184z" />
    <glyph glyph-name="ecircumflex" unicode="&#xea;" 
d="M287 594h604q-18 125 -97 200.5t-200 75.5q-126 0 -204.5 -74t-102.5 -202zM840 297h215q-16 -43 -41 -84.5t-66 -84.5t-90.5 -75t-118 -52.5t-145.5 -20.5q-224 0 -368 148t-144 384t144 384t368 148q208 0 349.5 -143.5t141.5 -357.5q0 -20 -6 -74l-4 -29h-788
q17 -131 100.5 -208.5t206.5 -77.5q87 0 153 42t93 101zM246 1188l246 297h184l246 -297h-195l-143 174l-144 -174h-194z" />
    <glyph glyph-name="edieresis" unicode="&#xeb;" 
d="M287 594h604q-18 125 -97 200.5t-200 75.5q-126 0 -204.5 -74t-102.5 -202zM840 297h215q-16 -43 -41 -84.5t-66 -84.5t-90.5 -75t-118 -52.5t-145.5 -20.5q-224 0 -368 148t-144 384t144 384t368 148q208 0 349.5 -143.5t141.5 -357.5q0 -20 -6 -74l-4 -29h-788
q17 -131 100.5 -208.5t206.5 -77.5q87 0 153 42t93 101zM297 1229v205h205v-205h-205zM666 1229v205h204v-205h-204z" />
    <glyph glyph-name="igrave" unicode="&#xec;" horiz-adv-x="471" 
d="M133 0v1024h205v-1024h-205zM143 1188l-245 297h225l205 -297h-185z" />
    <glyph glyph-name="iacute" unicode="&#xed;" horiz-adv-x="471" 
d="M133 0v1024h205v-1024h-205zM143 1188l205 297h225l-245 -297h-185z" />
    <glyph glyph-name="icircumflex" unicode="&#xee;" horiz-adv-x="471" 
d="M133 0v1024h205v-1024h-205zM-102 1188l245 297h185l245 -297h-194l-143 174l-144 -174h-194z" />
    <glyph glyph-name="idieresis" unicode="&#xef;" horiz-adv-x="471" 
d="M133 0v1024h205v-1024h-205zM-51 1229v205h205v-205h-205zM317 1229v205h205v-205h-205z" />
    <glyph glyph-name="eth" unicode="&#xf0;" horiz-adv-x="1157" 
d="M369 1014l-72 123l205 112l-70 54q-80 61 -145 100l153 82q67 -39 142 -96l73 -58l236 123l82 -133l-205 -102q297 -312 297 -697q0 -250 -136.5 -396t-355.5 -146q-215 0 -353 135.5t-138 345.5q0 215 133 348t348 133q142 0 256 -92h10q-29 78 -87.5 158.5
t-116.5 138.5zM860 461q0 130 -81.5 213.5t-205.5 83.5t-205 -83.5t-81 -213.5t81 -213.5t205 -83.5t205.5 83.5t81.5 213.5z" />
    <glyph glyph-name="ntilde" unicode="&#xf1;" horiz-adv-x="1177" 
d="M133 0v1024h184l21 -102h10q36 36 76 61q96 61 221 61q186 0 298 -115.5t112 -314.5v-614h-205v614q0 101 -71 173.5t-175 72.5q-114 0 -190 -72.5t-76 -173.5v-614h-205zM440 1219h-153q0 113 59.5 174t155.5 61q43 0 84 -23t76.5 -46t64.5 -23q32 0 52 23.5t20 68.5
h153q0 -113 -59.5 -174t-155.5 -61q-43 0 -84 23t-76.5 46t-64.5 23q-32 0 -52 -23.5t-20 -68.5z" />
    <glyph glyph-name="ograve" unicode="&#xf2;" horiz-adv-x="1187" 
d="M594 164q133 0 220 95.5t87 252.5t-87 252.5t-220 95.5t-220 -95.5t-87 -252.5t87 -252.5t220 -95.5zM594 -20q-224 0 -368 148t-144 384t144 384t368 148t368 -148t144 -384t-144 -384t-368 -148zM502 1188l-246 297h225l205 -297h-184z" />
    <glyph glyph-name="oacute" unicode="&#xf3;" horiz-adv-x="1187" 
d="M594 164q133 0 220 95.5t87 252.5t-87 252.5t-220 95.5t-220 -95.5t-87 -252.5t87 -252.5t220 -95.5zM594 -20q-224 0 -368 148t-144 384t144 384t368 148t368 -148t144 -384t-144 -384t-368 -148zM502 1188l205 297h225l-246 -297h-184z" />
    <glyph glyph-name="ocircumflex" unicode="&#xf4;" horiz-adv-x="1187" 
d="M594 164q133 0 220 95.5t87 252.5t-87 252.5t-220 95.5t-220 -95.5t-87 -252.5t87 -252.5t220 -95.5zM594 -20q-224 0 -368 148t-144 384t144 384t368 148t368 -148t144 -384t-144 -384t-368 -148zM256 1188l246 297h184l246 -297h-195l-143 174l-143 -174h-195z" />
    <glyph glyph-name="otilde" unicode="&#xf5;" horiz-adv-x="1187" 
d="M594 164q133 0 220 95.5t87 252.5t-87 252.5t-220 95.5t-220 -95.5t-87 -252.5t87 -252.5t220 -95.5zM594 -20q-224 0 -368 148t-144 384t144 384t368 148t368 -148t144 -384t-144 -384t-368 -148zM420 1219h-154q0 113 59.5 174t155.5 61q43 0 84.5 -23t77 -46t64.5 -23
q32 0 51.5 23t19.5 69h154q0 -113 -59.5 -174t-155.5 -61q-43 0 -84 23t-76.5 46t-64.5 23q-32 0 -52 -23.5t-20 -68.5z" />
    <glyph glyph-name="odieresis" unicode="&#xf6;" horiz-adv-x="1187" 
d="M594 164q133 0 220 95.5t87 252.5t-87 252.5t-220 95.5t-220 -95.5t-87 -252.5t87 -252.5t220 -95.5zM594 -20q-224 0 -368 148t-144 384t144 384t368 148t368 -148t144 -384t-144 -384t-368 -148zM307 1229v205h205v-205h-205zM676 1229v205h205v-205h-205z" />
    <glyph glyph-name="divide" unicode="&#xf7;" horiz-adv-x="1075" 
d="M532 154q-49 0 -80.5 30t-31.5 82q0 53 31.5 83t80.5 30t81 -30.5t32 -82.5t-32 -82t-81 -30zM102 502v184h871v-184h-871zM420 922q0 52 31.5 82t80.5 30t81 -30t32 -82t-32 -82.5t-81 -30.5t-80.5 30t-31.5 83z" />
    <glyph glyph-name="oslash" unicode="&#xf8;" horiz-adv-x="1187" 
d="M174 -72l88 164q-180 150 -180 420q0 236 144 384t368 148q83 0 172 -26l43 78h195l-86 -160q89 -70 138.5 -179.5t49.5 -244.5q0 -236 -144 -384t-368 -148q-93 0 -182 28l-43 -80h-195zM819 758l-315 -582q44 -12 90 -12q133 0 220 95.5t87 252.5q0 151 -82 246z
M360 272l314 578q-45 10 -80 10q-133 0 -220 -95.5t-87 -252.5q0 -149 73 -240z" />
    <glyph glyph-name="ugrave" unicode="&#xf9;" horiz-adv-x="1187" 
d="M133 410v614h205v-614q0 -101 71 -173.5t175 -72.5q114 0 190 72.5t76 173.5v614h205v-1024h-185l-20 102h-10q-36 -36 -76 -61q-96 -61 -221 -61q-186 0 -298 115.5t-112 314.5zM502 1188l-246 297h225l205 -297h-184z" />
    <glyph glyph-name="uacute" unicode="&#xfa;" horiz-adv-x="1187" 
d="M133 410v614h205v-614q0 -101 71 -173.5t175 -72.5q114 0 190 72.5t76 173.5v614h205v-1024h-185l-20 102h-10q-36 -36 -76 -61q-96 -61 -221 -61q-186 0 -298 115.5t-112 314.5zM502 1188l205 297h225l-246 -297h-184z" />
    <glyph glyph-name="ucircumflex" unicode="&#xfb;" horiz-adv-x="1187" 
d="M133 410v614h205v-614q0 -101 71 -173.5t175 -72.5q114 0 190 72.5t76 173.5v614h205v-1024h-185l-20 102h-10q-36 -36 -76 -61q-96 -61 -221 -61q-186 0 -298 115.5t-112 314.5zM256 1188l246 297h184l246 -297h-195l-143 174l-143 -174h-195z" />
    <glyph glyph-name="udieresis" unicode="&#xfc;" horiz-adv-x="1187" 
d="M133 410v614h205v-614q0 -101 71 -173.5t175 -72.5q114 0 190 72.5t76 173.5v614h205v-1024h-185l-20 102h-10q-36 -36 -76 -61q-96 -61 -221 -61q-186 0 -298 115.5t-112 314.5zM307 1229v205h205v-205h-205zM676 1229v205h205v-205h-205z" />
    <glyph glyph-name="yacute" unicode="&#xfd;" horiz-adv-x="1054" 
d="M123 -410v185h205q28 0 45.5 19.5t23.5 41.5l33 92l-420 1096h215l297 -778h41l266 778h215l-450 -1260q-33 -90 -89.5 -132t-166.5 -42h-215zM451 1188l204 297h226l-246 -297h-184z" />
    <glyph glyph-name="thorn" unicode="&#xfe;" horiz-adv-x="1228" 
d="M143 -410v1844h205v-533h10q20 23 28 31.5t41 34.5t62 39t80 25.5t107 12.5q205 0 338 -145t133 -387t-133 -387t-338 -145q-210 0 -318 143h-10v-533h-205zM645 164q126 0 211.5 96t85.5 252t-85.5 252t-211.5 96t-211.5 -96t-85.5 -252t85.5 -252t211.5 -96z" />
    <glyph glyph-name="ydieresis" unicode="&#xff;" horiz-adv-x="1054" 
d="M123 -410v185h205q28 0 45.5 19.5t23.5 41.5l33 92l-420 1096h215l297 -778h41l266 778h215l-450 -1260q-33 -90 -89.5 -132t-166.5 -42h-215zM256 1229v205h205v-205h-205zM625 1229v205h204v-205h-204z" />
    <glyph glyph-name="Amacron" unicode="&#x100;" horiz-adv-x="1372" 
d="M0 0l522 1434h328l522 -1434h-235l-123 338h-656l-122 -338h-236zM430 532h512l-235 656h-41zM379 1638v164h614v-164h-614z" />
    <glyph glyph-name="amacron" unicode="&#x101;" horiz-adv-x="1095" 
d="M799 0l-21 113h-10q-30 -41 -74 -68q-97 -65 -233 -65q-167 0 -268 88t-101 229q0 159 105.5 248.5t314.5 89.5h256v20q0 100 -57.5 157.5t-157.5 57.5q-98 0 -152 -44t-63 -99h-205q8 135 121.5 226t298.5 91q199 0 309.5 -104.5t110.5 -284.5v-655h-174zM768 430v41
h-246q-112 0 -168.5 -45.5t-56.5 -118.5q0 -71 47 -112t137 -41q139 0 213 72.5t74 203.5zM246 1249v164h614v-164h-614z" />
    <glyph glyph-name="Abreve" unicode="&#x102;" horiz-adv-x="1372" 
d="M0 0l522 1434h328l522 -1434h-235l-123 338h-656l-122 -338h-236zM430 532h512l-235 656h-41zM379 1864h164q33 -133 143 -133t143 133h164q-8 -123 -92.5 -200t-214.5 -77t-214.5 77t-92.5 200z" />
    <glyph glyph-name="abreve" unicode="&#x103;" horiz-adv-x="1095" 
d="M799 0l-21 113h-10q-30 -41 -74 -68q-97 -65 -233 -65q-167 0 -268 88t-101 229q0 159 105.5 248.5t314.5 89.5h256v20q0 100 -57.5 157.5t-157.5 57.5q-98 0 -152 -44t-63 -99h-205q8 135 121.5 226t298.5 91q199 0 309.5 -104.5t110.5 -284.5v-655h-174zM768 430v41
h-246q-112 0 -168.5 -45.5t-56.5 -118.5q0 -71 47 -112t137 -41q139 0 213 72.5t74 203.5zM246 1464h164q33 -133 143 -133t143 133h164q-8 -123 -92.5 -199.5t-214.5 -76.5t-214.5 76.5t-92.5 199.5z" />
    <glyph glyph-name="Aogonek" unicode="&#x104;" horiz-adv-x="1372" 
d="M430 532h512l-235 656h-41zM0 0l522 1434h328l522 -1434h-72q-112 -55 -112 -143q0 -28 19.5 -50t62.5 -22h30v-133h-51q-225 0 -225 184q0 61 40 107t73 57l-123 338h-656l-122 -338h-236z" />
    <glyph glyph-name="aogonek" unicode="&#x105;" horiz-adv-x="1095" 
d="M768 430v41h-246q-112 0 -168.5 -45.5t-56.5 -118.5q0 -71 47 -112t137 -41q139 0 213 72.5t74 203.5zM973 -348h-51q-226 0 -226 184q0 61 40 107t73 57h-10l-21 113h-10q-30 -41 -74 -68q-97 -65 -233 -65q-167 0 -268 88t-101 229q0 159 105.5 248.5t314.5 89.5h256
v20q0 100 -57.5 157.5t-157.5 57.5q-98 0 -152 -44t-63 -99h-205q8 135 121.5 226t298.5 91q199 0 309.5 -104.5t110.5 -284.5v-655q-113 -56 -113 -143q0 -28 19.5 -50t62.5 -22h31v-133z" />
    <glyph glyph-name="Cacute" unicode="&#x106;" horiz-adv-x="1495" 
d="M1198 492h225q-15 -70 -48 -139.5t-89 -137.5t-127.5 -119.5t-170 -83.5t-210.5 -32q-140 0 -266 54t-218.5 149t-147 234t-54.5 300t54.5 300t147 234t218.5 149t266 54q130 0 243 -42t192.5 -113.5t133 -160t76.5 -186.5h-225q-53 143 -166 220t-254 77
q-205 0 -338 -145t-133 -387t133 -387.5t338 -145.5q85 0 157.5 26t123.5 70.5t85.5 98t53.5 113.5zM676 1577l205 297h225l-246 -297h-184z" />
    <glyph glyph-name="cacute" unicode="&#x107;" horiz-adv-x="1136" 
d="M860 358h205q-14 -64 -45.5 -125t-86 -120.5t-142.5 -96t-197 -36.5q-224 0 -368 148t-144 384t144 384t368 148q88 0 163.5 -25t126 -63.5t89.5 -89.5t60 -97.5t32 -92.5h-205q-29 80 -93.5 132t-172.5 52q-133 0 -220 -95.5t-87 -252.5t87 -252.5t220 -95.5
q111 0 178 59.5t88 134.5zM502 1188l205 297h225l-246 -297h-184z" />
    <glyph glyph-name="Ccircumflex" unicode="&#x108;" horiz-adv-x="1495" 
d="M1198 492h225q-15 -70 -48 -139.5t-89 -137.5t-127.5 -119.5t-170 -83.5t-210.5 -32q-140 0 -266 54t-218.5 149t-147 234t-54.5 300t54.5 300t147 234t218.5 149t266 54q130 0 243 -42t192.5 -113.5t133 -160t76.5 -186.5h-225q-53 143 -166 220t-254 77
q-205 0 -338 -145t-133 -387t133 -387.5t338 -145.5q85 0 157.5 26t123.5 70.5t85.5 98t53.5 113.5zM430 1577l246 297h184l246 -297h-195l-143 174l-143 -174h-195z" />
    <glyph glyph-name="ccircumflex" unicode="&#x109;" horiz-adv-x="1136" 
d="M860 358h205q-14 -64 -45.5 -125t-86 -120.5t-142.5 -96t-197 -36.5q-224 0 -368 148t-144 384t144 384t368 148q88 0 163.5 -25t126 -63.5t89.5 -89.5t60 -97.5t32 -92.5h-205q-29 80 -93.5 132t-172.5 52q-133 0 -220 -95.5t-87 -252.5t87 -252.5t220 -95.5
q111 0 178 59.5t88 134.5zM256 1188l246 297h184l246 -297h-195l-143 174l-143 -174h-195z" />
    <glyph glyph-name="Cdotaccent" unicode="&#x10a;" horiz-adv-x="1495" 
d="M1198 492h225q-15 -70 -48 -139.5t-89 -137.5t-127.5 -119.5t-170 -83.5t-210.5 -32q-140 0 -266 54t-218.5 149t-147 234t-54.5 300t54.5 300t147 234t218.5 149t266 54q130 0 243 -42t192.5 -113.5t133 -160t76.5 -186.5h-225q-53 143 -166 220t-254 77
q-205 0 -338 -145t-133 -387t133 -387.5t338 -145.5q85 0 157.5 26t123.5 70.5t85.5 98t53.5 113.5zM666 1628v205h204v-205h-204z" />
    <glyph glyph-name="cdotaccent" unicode="&#x10b;" horiz-adv-x="1136" 
d="M860 358h205q-14 -64 -45.5 -125t-86 -120.5t-142.5 -96t-197 -36.5q-224 0 -368 148t-144 384t144 384t368 148q88 0 163.5 -25t126 -63.5t89.5 -89.5t60 -97.5t32 -92.5h-205q-29 80 -93.5 132t-172.5 52q-133 0 -220 -95.5t-87 -252.5t87 -252.5t220 -95.5
q111 0 178 59.5t88 134.5zM502 1229v205h205v-205h-205z" />
    <glyph glyph-name="Ccaron" unicode="&#x10c;" horiz-adv-x="1495" 
d="M1198 492h225q-15 -70 -48 -139.5t-89 -137.5t-127.5 -119.5t-170 -83.5t-210.5 -32q-140 0 -266 54t-218.5 149t-147 234t-54.5 300t54.5 300t147 234t218.5 149t266 54q130 0 243 -42t192.5 -113.5t133 -160t76.5 -186.5h-225q-53 143 -166 220t-254 77
q-205 0 -338 -145t-133 -387t133 -387.5t338 -145.5q85 0 157.5 26t123.5 70.5t85.5 98t53.5 113.5zM676 1577l-246 297h195l143 -174l143 174h195l-246 -297h-184z" />
    <glyph glyph-name="ccaron" unicode="&#x10d;" horiz-adv-x="1136" 
d="M860 358h205q-14 -64 -45.5 -125t-86 -120.5t-142.5 -96t-197 -36.5q-224 0 -368 148t-144 384t144 384t368 148q88 0 163.5 -25t126 -63.5t89.5 -89.5t60 -97.5t32 -92.5h-205q-29 80 -93.5 132t-172.5 52q-133 0 -220 -95.5t-87 -252.5t87 -252.5t220 -95.5
q111 0 178 59.5t88 134.5zM502 1188l-246 297h195l143 -174l143 174h195l-246 -297h-184z" />
    <glyph glyph-name="Dcaron" unicode="&#x10e;" horiz-adv-x="1433" 
d="M369 205h286q203 0 337 143t134 369t-134 369t-337 143h-286v-1024zM154 0v1434h501q193 0 349.5 -91.5t246.5 -256t90 -369.5t-90 -369.5t-246.5 -256t-349.5 -91.5h-501zM614 1577l-245 297h194l144 -174l143 174h194l-245 -297h-185z" />
    <glyph glyph-name="dcaron" unicode="&#x10f;" horiz-adv-x="1382" 
d="M901 0l-20 123h-11q-108 -143 -317 -143q-205 0 -338 145t-133 387t133 387t338 145q67 0 122 -14.5t93 -39.5t57.5 -43t39.5 -40q3 -4 5 -6h11v533h204v-1434h-184zM584 164q126 0 211.5 96t85.5 252t-85.5 252t-211.5 96t-211.5 -96t-85.5 -252t85.5 -252t211.5 -96z
M1188 1096l72 338h204l-123 -338h-153z" />
    <glyph glyph-name="Dcroat" unicode="&#x110;" horiz-adv-x="1505" 
d="M225 0v625h-194v194h194v615h502q193 0 349.5 -91.5t246.5 -256t90 -369.5t-90 -369.5t-246.5 -256t-349.5 -91.5h-502zM440 205h287q203 0 337 143t134 369t-134 369t-337 143h-287v-410h348v-194h-348v-420z" />
    <glyph glyph-name="dslash" unicode="&#x111;" horiz-adv-x="1228" 
d="M881 0l-21 113h-10q-14 -20 -36 -39.5t-59 -42.5t-92 -37t-120 -14q-201 0 -331 133.5t-130 347.5t130 347.5t331 133.5q193 0 307 -133h10v297h-328v174h328v154h205v-154h164v-174h-164v-1106h-184zM573 164q124 0 205.5 83.5t81.5 213.5t-81.5 213.5t-205.5 83.5
t-205 -83.5t-81 -213.5t81 -213.5t205 -83.5z" />
    <glyph glyph-name="Emacron" unicode="&#x112;" horiz-adv-x="1208" 
d="M154 0v1434h942v-205h-727v-410h686v-205h-686v-409h727v-205h-942zM317 1638v164h615v-164h-615z" />
    <glyph glyph-name="emacron" unicode="&#x113;" 
d="M287 594h604q-18 125 -97 200.5t-200 75.5q-126 0 -204.5 -74t-102.5 -202zM840 297h215q-16 -43 -41 -84.5t-66 -84.5t-90.5 -75t-118 -52.5t-145.5 -20.5q-224 0 -368 148t-144 384t144 384t368 148q208 0 349.5 -143.5t141.5 -357.5q0 -20 -6 -74l-4 -29h-788
q17 -131 100.5 -208.5t206.5 -77.5q87 0 153 42t93 101zM276 1249v164h615v-164h-615z" />
    <glyph glyph-name="Ebreve" unicode="&#x114;" horiz-adv-x="1208" 
d="M154 0v1434h942v-205h-727v-410h686v-205h-686v-409h727v-205h-942zM317 1864h164q33 -133 144 -133q110 0 143 133h164q-8 -123 -92.5 -200t-214.5 -77t-215 77t-93 200z" />
    <glyph glyph-name="ebreve" unicode="&#x115;" 
d="M287 594h604q-18 125 -97 200.5t-200 75.5q-126 0 -204.5 -74t-102.5 -202zM840 297h215q-16 -43 -41 -84.5t-66 -84.5t-90.5 -75t-118 -52.5t-145.5 -20.5q-224 0 -368 148t-144 384t144 384t368 148q208 0 349.5 -143.5t141.5 -357.5q0 -20 -6 -74l-4 -29h-788
q17 -131 100.5 -208.5t206.5 -77.5q87 0 153 42t93 101zM276 1464h164q33 -133 144 -133q110 0 143 133h164q-8 -123 -92.5 -199.5t-214.5 -76.5t-215 76.5t-93 199.5z" />
    <glyph glyph-name="Edotaccent" unicode="&#x116;" horiz-adv-x="1208" 
d="M154 0v1434h942v-205h-727v-410h686v-205h-686v-409h727v-205h-942zM522 1628v205h205v-205h-205z" />
    <glyph glyph-name="edotaccent" unicode="&#x117;" 
d="M287 594h604q-18 125 -97 200.5t-200 75.5q-126 0 -204.5 -74t-102.5 -202zM840 297h215q-16 -43 -41 -84.5t-66 -84.5t-90.5 -75t-118 -52.5t-145.5 -20.5q-224 0 -368 148t-144 384t144 384t368 148q208 0 349.5 -143.5t141.5 -357.5q0 -20 -6 -74l-4 -29h-788
q17 -131 100.5 -208.5t206.5 -77.5q87 0 153 42t93 101zM492 1229v205h204v-205h-204z" />
    <glyph glyph-name="Eogonek" unicode="&#x118;" horiz-adv-x="1208" 
d="M154 0v1434h942v-205h-727v-410h686v-205h-686v-409h727v-205q-113 -56 -113 -143q0 -28 19.5 -50t62.5 -22h31v-133h-52q-225 0 -225 184q0 61 40 107t73 57h-778z" />
    <glyph glyph-name="eogonek" unicode="&#x119;" 
d="M727 -348h-51q-225 0 -225 184q0 84 79 148q-200 20 -324 164.5t-124 363.5q0 236 144 384t368 148q208 0 349.5 -143.5t141.5 -357.5q0 -20 -6 -74l-4 -29h-788q17 -131 100.5 -208.5t206.5 -77.5q87 0 153 42t93 101h215q-17 -46 -45.5 -90t-69.5 -87t-100 -77
t-127 -49q-41 -22 -70 -58t-29 -79q0 -28 19.5 -50t62.5 -22h31v-133zM287 594h604q-18 125 -97 200.5t-200 75.5q-126 0 -204.5 -74t-102.5 -202z" />
    <glyph glyph-name="Ecaron" unicode="&#x11a;" horiz-adv-x="1208" 
d="M154 0v1434h942v-205h-727v-410h686v-205h-686v-409h727v-205h-942zM532 1577l-245 297h194l144 -174l143 174h195l-246 -297h-185z" />
    <glyph glyph-name="ecaron" unicode="&#x11b;" 
d="M287 594h604q-18 125 -97 200.5t-200 75.5q-126 0 -204.5 -74t-102.5 -202zM840 297h215q-16 -43 -41 -84.5t-66 -84.5t-90.5 -75t-118 -52.5t-145.5 -20.5q-224 0 -368 148t-144 384t144 384t368 148q208 0 349.5 -143.5t141.5 -357.5q0 -20 -6 -74l-4 -29h-788
q17 -131 100.5 -208.5t206.5 -77.5q87 0 153 42t93 101zM492 1188l-246 297h194l144 -174l143 174h195l-246 -297h-184z" />
    <glyph glyph-name="Gcircumflex" unicode="&#x11c;" horiz-adv-x="1566" 
d="M1260 0l-21 184h-10q-41 -51 -111 -102q-148 -102 -340 -102q-140 0 -266 54t-218.5 149t-147 234t-54.5 300t54.5 300t147 234t218.5 149t266 54q129 0 242.5 -41.5t193 -112t133 -156.5t76.5 -181h-225q-53 137 -165.5 211.5t-254.5 74.5q-205 0 -338 -145t-133 -387
t133 -387.5t338 -145.5q89 0 172 33t141 86.5t93 122t35 137.5v10h-400v175h615v-748h-174zM440 1577l246 297h184l246 -297h-194l-144 174l-143 -174h-195z" />
    <glyph glyph-name="gcircumflex" unicode="&#x11d;" horiz-adv-x="1198" 
d="M573 246q124 0 205.5 85t81.5 222t-81.5 222t-205.5 85t-205 -85t-81 -222t81 -222t205 -85zM113 -61h204q8 -75 79 -130t188 -55q122 0 199 75t77 191v164h-10q-26 -26 -45 -41t-57.5 -37.5t-92.5 -33.5t-123 -11q-194 0 -322 136.5t-128 355.5t128 355t322 136
q204 0 318 -133h10l21 113h184v-1004q0 -205 -127 -327.5t-354 -122.5q-97 0 -177.5 25t-132 64t-88 89.5t-53.5 98t-20 92.5zM266 1188l246 297h184l246 -297h-194l-144 174l-143 -174h-195z" />
    <glyph glyph-name="Gbreve" unicode="&#x11e;" horiz-adv-x="1566" 
d="M1260 0l-21 184h-10q-41 -51 -111 -102q-148 -102 -340 -102q-140 0 -266 54t-218.5 149t-147 234t-54.5 300t54.5 300t147 234t218.5 149t266 54q129 0 242.5 -41.5t193 -112t133 -156.5t76.5 -181h-225q-53 137 -165.5 211.5t-254.5 74.5q-205 0 -338 -145t-133 -387
t133 -387.5t338 -145.5q89 0 172 33t141 86.5t93 122t35 137.5v10h-400v175h615v-748h-174zM471 1864h164q33 -133 143 -133q111 0 144 133h163q-8 -123 -92.5 -200t-214.5 -77t-214.5 77t-92.5 200z" />
    <glyph glyph-name="gbreve" unicode="&#x11f;" horiz-adv-x="1198" 
d="M573 246q124 0 205.5 85t81.5 222t-81.5 222t-205.5 85t-205 -85t-81 -222t81 -222t205 -85zM113 -61h204q8 -75 79 -130t188 -55q122 0 199 75t77 191v164h-10q-26 -26 -45 -41t-57.5 -37.5t-92.5 -33.5t-123 -11q-194 0 -322 136.5t-128 355.5t128 355t322 136
q204 0 318 -133h10l21 113h184v-1004q0 -205 -127 -327.5t-354 -122.5q-97 0 -177.5 25t-132 64t-88 89.5t-53.5 98t-20 92.5zM297 1464h164q33 -133 143 -133q111 0 144 133h163q-8 -123 -92.5 -199.5t-214.5 -76.5t-214.5 76.5t-92.5 199.5z" />
    <glyph glyph-name="Gdotaccent" unicode="&#x120;" horiz-adv-x="1566" 
d="M1260 0l-21 184h-10q-41 -51 -111 -102q-148 -102 -340 -102q-140 0 -266 54t-218.5 149t-147 234t-54.5 300t54.5 300t147 234t218.5 149t266 54q129 0 242.5 -41.5t193 -112t133 -156.5t76.5 -181h-225q-53 137 -165.5 211.5t-254.5 74.5q-205 0 -338 -145t-133 -387
t133 -387.5t338 -145.5q89 0 172 33t141 86.5t93 122t35 137.5v10h-400v175h615v-748h-174zM676 1628v205h205v-205h-205z" />
    <glyph glyph-name="gdotaccent" unicode="&#x121;" horiz-adv-x="1198" 
d="M573 246q124 0 205.5 85t81.5 222t-81.5 222t-205.5 85t-205 -85t-81 -222t81 -222t205 -85zM113 -61h204q8 -75 79 -130t188 -55q122 0 199 75t77 191v164h-10q-26 -26 -45 -41t-57.5 -37.5t-92.5 -33.5t-123 -11q-194 0 -322 136.5t-128 355.5t128 355t322 136
q204 0 318 -133h10l21 113h184v-1004q0 -205 -127 -327.5t-354 -122.5q-97 0 -177.5 25t-132 64t-88 89.5t-53.5 98t-20 92.5zM502 1229v205h205v-205h-205z" />
    <glyph glyph-name="Gcommaaccent" unicode="&#x122;" horiz-adv-x="1566" 
d="M1260 0l-21 184h-10q-41 -51 -111 -102q-148 -102 -340 -102q-140 0 -266 54t-218.5 149t-147 234t-54.5 300t54.5 300t147 234t218.5 149t266 54q129 0 242.5 -41.5t193 -112t133 -156.5t76.5 -181h-225q-53 137 -165.5 211.5t-254.5 74.5q-205 0 -338 -145t-133 -387
t133 -387.5t338 -145.5q89 0 172 33t141 86.5t93 122t35 137.5v10h-400v175h615v-748h-174zM625 -481l71 338h205l-123 -338h-153z" />
    <glyph glyph-name="gcommaaccent" unicode="&#x123;" horiz-adv-x="1198" 
d="M502 1188l71 358h164l-41 -358h-194zM573 246q124 0 205.5 85t81.5 222t-81.5 222t-205.5 85t-205 -85t-81 -222t81 -222t205 -85zM113 -61h204q8 -75 79 -130t188 -55q122 0 199 75t77 191v164h-10q-26 -26 -45 -41t-57.5 -37.5t-92.5 -33.5t-123 -11q-194 0 -322 136.5
t-128 355.5t128 355t322 136q204 0 318 -133h10l21 113h184v-1004q0 -205 -127 -327.5t-354 -122.5q-97 0 -177.5 25t-132 64t-88 89.5t-53.5 98t-20 92.5z" />
    <glyph glyph-name="Hcircumflex" unicode="&#x124;" horiz-adv-x="1464" 
d="M154 0v1434h215v-605h727v605h215v-1434h-215v625h-727v-625h-215zM399 1577l246 297h184l246 -297h-194l-144 174l-143 -174h-195z" />
    <glyph glyph-name="hcircumflex" unicode="&#x125;" horiz-adv-x="1187" 
d="M143 0v1434h205v-512h10q36 36 76 61q96 61 221 61q186 0 298 -115.5t112 -314.5v-614h-205v614q0 101 -71 173.5t-175 72.5q-114 0 -190 -72.5t-76 -173.5v-614h-205zM287 1577l245 297h185l246 -297h-195l-143 174l-144 -174h-194z" />
    <glyph glyph-name="Hbar" unicode="&#x126;" horiz-adv-x="1566" 
d="M205 0v1024h-185v205h185v205h215v-205h727v205h215v-205h184v-205h-184v-1024h-215v625h-727v-625h-215zM420 829h727v195h-727v-195z" />
    <glyph glyph-name="hbar" unicode="&#x127;" horiz-adv-x="1218" 
d="M164 0v1096h-164v184h164v154h205v-154h327v-184h-327v-277h10q39 39 76 62q96 61 221 61q186 0 297.5 -115.5t111.5 -314.5v-512h-204v512q0 101 -71 173.5t-175 72.5q-114 0 -190 -72.5t-76 -173.5v-512h-205z" />
    <glyph glyph-name="Imacron" unicode="&#x12a;" horiz-adv-x="522" 
d="M154 0v1434h215v-1434h-215zM-41 1638v164h614v-164h-614z" />
    <glyph glyph-name="imacron" unicode="&#x12b;" horiz-adv-x="471" 
d="M133 0v1024h205v-1024h-205zM-72 1249v164h615v-164h-615z" />
    <glyph glyph-name="Ibreve" unicode="&#x12c;" horiz-adv-x="522" 
d="M154 0v1434h215v-1434h-215zM-41 1864h164q33 -133 143 -133q111 0 144 133h163q-8 -123 -92.5 -200t-214.5 -77t-214.5 77t-92.5 200z" />
    <glyph glyph-name="ibreve" unicode="&#x12d;" horiz-adv-x="471" 
d="M133 0v1024h205v-1024h-205zM-72 1464h164q33 -133 144 -133q110 0 143 133h164q-8 -123 -92.5 -199.5t-214.5 -76.5t-215 76.5t-93 199.5z" />
    <glyph glyph-name="Iogonek" unicode="&#x12e;" horiz-adv-x="522" 
d="M317 -348h-51q-225 0 -225 184q0 61 40 107t73 57v1434h215v-1434h-52q-112 -55 -112 -143q0 -28 19.5 -50t62.5 -22h30v-133z" />
    <glyph glyph-name="iogonek" unicode="&#x12f;" horiz-adv-x="471" 
d="M123 1219v215h225v-215h-225zM297 -348h-51q-226 0 -226 184q0 61 40 107t73 57v1024h205v-1024h-41q-113 -56 -113 -143q0 -28 19.5 -50t62.5 -22h31v-133z" />
    <glyph glyph-name="Idot" unicode="&#x130;" horiz-adv-x="522" 
d="M154 0v1434h215v-1434h-215zM164 1628v205h205v-205h-205z" />
    <glyph glyph-name="dotlessi" unicode="&#x131;" horiz-adv-x="471" 
d="M133 0v1024h205v-1024h-205z" />
    <glyph glyph-name="uni0132" unicode="&#x132;" horiz-adv-x="1310" 
d="M154 0v1434h215v-1434h-215zM522 0v205h336q42 0 68 27.5t26 74.5v1127h215v-1168q0 -129 -62.5 -197.5t-203.5 -68.5h-379z" />
    <glyph glyph-name="uni0133" unicode="&#x133;" horiz-adv-x="921" 
d="M133 0v1024h205v-1024h-205zM123 1219v215h225v-215h-225zM358 -410v185h164q62 0 62 71v1178h204v-1219q0 -101 -58.5 -158t-166.5 -57h-205zM573 1219v215h226v-215h-226z" />
    <glyph glyph-name="Jcircumflex" unicode="&#x134;" horiz-adv-x="808" 
d="M20 0v205h336q42 0 68.5 27.5t26.5 74.5v1127h215v-1168q0 -129 -63 -197.5t-204 -68.5h-379zM215 1577l246 297h184l246 -297h-195l-143 174l-143 -174h-195z" />
    <glyph glyph-name="jcircumflex" unicode="&#x135;" horiz-adv-x="491" 
d="M-82 -410v185h164q61 0 61 71v1178h205v-1219q0 -101 -58.5 -158t-166.5 -57h-205zM-92 1188l246 297h184l246 -297h-195l-143 174l-144 -174h-194z" />
    <glyph glyph-name="Kcommaaccent" unicode="&#x136;" horiz-adv-x="1208" 
d="M154 0v1434h215v-656l549 656h270l-594 -707l635 -727h-271l-589 676v-676h-215zM481 -481l72 338h205l-123 -338h-154z" />
    <glyph glyph-name="kcommaaccent" unicode="&#x137;" horiz-adv-x="1034" 
d="M143 0v1434h205v-881l430 471h246l-461 -502l481 -522h-245l-451 492v-492h-205zM389 -481l72 338h205l-123 -338h-154z" />
    <glyph glyph-name="Lacute" unicode="&#x139;" horiz-adv-x="1105" 
d="M154 0v1434h215v-1229h696v-205h-911zM164 1577l205 297h225l-246 -297h-184z" />
    <glyph glyph-name="lacute" unicode="&#x13a;" horiz-adv-x="491" 
d="M143 0v1434h205v-1434h-205zM164 1577l205 297h225l-246 -297h-184z" />
    <glyph glyph-name="Lcommaaccent" unicode="&#x13b;" horiz-adv-x="1105" 
d="M154 0v1434h215v-1229h696v-205h-911zM440 -481l72 338h205l-123 -338h-154z" />
    <glyph glyph-name="lcommaaccent" unicode="&#x13c;" horiz-adv-x="491" 
d="M143 0v1434h205v-1434h-205zM72 -481l71 338h205l-123 -338h-153z" />
    <glyph glyph-name="Lcaron" unicode="&#x13d;" horiz-adv-x="1105" 
d="M154 0v1434h215v-1229h696v-205h-911zM481 1096l72 338h205l-123 -338h-154z" />
    <glyph glyph-name="lcaron" unicode="&#x13e;" horiz-adv-x="645" 
d="M143 0v1434h205v-1434h-205zM451 1096l71 338h205l-123 -338h-153z" />
    <glyph glyph-name="Ldot" unicode="&#x13f;" horiz-adv-x="1105" 
d="M686 635v235h236v-235h-236zM154 0v1434h215v-1229h696v-205h-911z" />
    <glyph glyph-name="ldot" unicode="&#x140;" horiz-adv-x="798" 
d="M522 614v236h236v-236h-236zM143 0v1434h205v-1434h-205z" />
    <glyph glyph-name="Lslash" unicode="&#x141;" horiz-adv-x="1157" 
d="M205 0v573l-164 -61v205l164 61v656h215v-574l328 123v-205l-328 -123v-450h696v-205h-911z" />
    <glyph glyph-name="lslash" unicode="&#x142;" horiz-adv-x="593" 
d="M195 0v594l-154 -62v195l154 61v646h204v-564l154 62v-195l-154 -61v-676h-204z" />
    <glyph glyph-name="Nacute" unicode="&#x143;" horiz-adv-x="1464" 
d="M154 0v1434h317l584 -1117h41v1117h215v-1434h-318l-583 1116h-41v-1116h-215zM645 1577l205 297h225l-246 -297h-184z" />
    <glyph glyph-name="nacute" unicode="&#x144;" horiz-adv-x="1177" 
d="M133 0v1024h184l21 -102h10q36 36 76 61q96 61 221 61q186 0 298 -115.5t112 -314.5v-614h-205v614q0 101 -71 173.5t-175 72.5q-114 0 -190 -72.5t-76 -173.5v-614h-205zM522 1188l205 297h225l-245 -297h-185z" />
    <glyph glyph-name="Ncommaaccent" unicode="&#x145;" horiz-adv-x="1464" 
d="M154 0v1434h317l584 -1117h41v1117h215v-1434h-318l-583 1116h-41v-1116h-215zM563 -481l72 338h205l-123 -338h-154z" />
    <glyph glyph-name="ncommaaccent" unicode="&#x146;" horiz-adv-x="1177" 
d="M133 0v1024h184l21 -102h10q36 36 76 61q96 61 221 61q186 0 298 -115.5t112 -314.5v-614h-205v614q0 101 -71 173.5t-175 72.5q-114 0 -190 -72.5t-76 -173.5v-614h-205zM430 -481l72 338h205l-123 -338h-154z" />
    <glyph glyph-name="Ncaron" unicode="&#x147;" horiz-adv-x="1464" 
d="M154 0v1434h317l584 -1117h41v1117h215v-1434h-318l-583 1116h-41v-1116h-215zM645 1577l-246 297h195l143 -174l144 174h194l-246 -297h-184z" />
    <glyph glyph-name="ncaron" unicode="&#x148;" horiz-adv-x="1177" 
d="M133 0v1024h184l21 -102h10q36 36 76 61q96 61 221 61q186 0 298 -115.5t112 -314.5v-614h-205v614q0 101 -71 173.5t-175 72.5q-114 0 -190 -72.5t-76 -173.5v-614h-205zM522 1188l-246 297h195l143 -174l144 174h194l-245 -297h-185z" />
    <glyph glyph-name="napostrophe" unicode="&#x149;" horiz-adv-x="1249" 
d="M205 0v1024h184l21 -102h10q36 36 76 61q96 61 221 61q186 0 297.5 -115.5t111.5 -314.5v-614h-204v614q0 101 -71 173.5t-175 72.5q-114 0 -190 -72.5t-76 -173.5v-614h-205zM20 1157l72 338h205l-123 -338h-154z" />
    <glyph glyph-name="Eng" unicode="&#x14a;" horiz-adv-x="1464" 
d="M154 0v1434h317l584 -1117h41v1117h215v-1598q0 -125 -69 -195.5t-198 -70.5h-245v205h194q47 0 75 27.5t28 74.5v123h-103l-583 1116h-41v-1116h-215z" />
    <glyph glyph-name="eng" unicode="&#x14b;" horiz-adv-x="1177" 
d="M133 0v1024h184l21 -102h10q36 36 76 61q96 61 221 61q186 0 298 -115.5t112 -314.5v-768q0 -124 -68.5 -190t-198.5 -66h-204v195h174q92 0 92 102v727q0 101 -71 173.5t-175 72.5q-114 0 -190 -72.5t-76 -173.5v-614h-205z" />
    <glyph glyph-name="Omacron" unicode="&#x14c;" horiz-adv-x="1556" 
d="M778 -20q-140 0 -266 54t-218.5 149t-147 234t-54.5 300t54.5 300t147 234t218.5 149t266 54t266 -54t218.5 -149t147 -234t54.5 -300t-54.5 -300t-147 -234t-218.5 -149t-266 -54zM778 1249q-205 0 -338 -145t-133 -387t133 -387.5t338 -145.5t338 145.5t133 387.5
t-133 387t-338 145zM471 1638v164h614v-164h-614z" />
    <glyph glyph-name="omacron" unicode="&#x14d;" horiz-adv-x="1187" 
d="M594 164q133 0 220 95.5t87 252.5t-87 252.5t-220 95.5t-220 -95.5t-87 -252.5t87 -252.5t220 -95.5zM594 -20q-224 0 -368 148t-144 384t144 384t368 148t368 -148t144 -384t-144 -384t-368 -148zM287 1249v164h614v-164h-614z" />
    <glyph glyph-name="Obreve" unicode="&#x14e;" horiz-adv-x="1556" 
d="M778 -20q-140 0 -266 54t-218.5 149t-147 234t-54.5 300t54.5 300t147 234t218.5 149t266 54t266 -54t218.5 -149t147 -234t54.5 -300t-54.5 -300t-147 -234t-218.5 -149t-266 -54zM778 1249q-205 0 -338 -145t-133 -387t133 -387.5t338 -145.5t338 145.5t133 387.5
t-133 387t-338 145zM471 1864h164q33 -133 143 -133q111 0 144 133h163q-8 -123 -92.5 -200t-214.5 -77t-214.5 77t-92.5 200z" />
    <glyph glyph-name="obreve" unicode="&#x14f;" horiz-adv-x="1187" 
d="M594 164q133 0 220 95.5t87 252.5t-87 252.5t-220 95.5t-220 -95.5t-87 -252.5t87 -252.5t220 -95.5zM594 -20q-224 0 -368 148t-144 384t144 384t368 148t368 -148t144 -384t-144 -384t-368 -148zM287 1464h164q33 -133 143 -133t143 133h164q-8 -123 -92.5 -199.5
t-214.5 -76.5t-214.5 76.5t-92.5 199.5z" />
    <glyph glyph-name="Ohungarumlaut" unicode="&#x150;" horiz-adv-x="1556" 
d="M778 -20q-140 0 -266 54t-218.5 149t-147 234t-54.5 300t54.5 300t147 234t218.5 149t266 54t266 -54t218.5 -149t147 -234t54.5 -300t-54.5 -300t-147 -234t-218.5 -149t-266 -54zM778 1249q-205 0 -338 -145t-133 -387t133 -387.5t338 -145.5t338 145.5t133 387.5
t-133 387t-338 145zM522 1577l205 297h205l-236 -297h-174zM870 1577l205 297h205l-236 -297h-174z" />
    <glyph glyph-name="ohungarumlaut" unicode="&#x151;" horiz-adv-x="1187" 
d="M594 164q133 0 220 95.5t87 252.5t-87 252.5t-220 95.5t-220 -95.5t-87 -252.5t87 -252.5t220 -95.5zM594 -20q-224 0 -368 148t-144 384t144 384t368 148t368 -148t144 -384t-144 -384t-368 -148zM338 1188l205 297h205l-236 -297h-174zM686 1188l205 297h205l-236 -297
h-174z" />
    <glyph glyph-name="OE" unicode="&#x152;" horiz-adv-x="2242" 
d="M1188 0v195q-146 -215 -430 -215q-137 0 -259.5 54t-212 149t-142 233.5t-52.5 300.5t52.5 300.5t142 233.5t212 149t259.5 54q282 0 430 -215v195h942v-205h-727v-410h686v-205h-686v-409h727v-205h-942zM1188 717v24q-5 157 -64.5 273.5t-154 175.5t-211.5 59
q-190 0 -320.5 -146.5t-130.5 -385.5q0 -120 36 -221t97.5 -169t143.5 -105.5t174 -37.5q185 0 307.5 143.5t122.5 389.5z" />
    <glyph glyph-name="oe" unicode="&#x153;" horiz-adv-x="1935" 
d="M1608 297h215q-16 -44 -39 -84.5t-62 -84t-86.5 -75.5t-116 -52.5t-147.5 -20.5q-141 0 -254.5 63t-154.5 141q-42 -78 -148.5 -141t-241.5 -63q-103 0 -193 39t-156 108t-104 168.5t-38 216.5t38 216.5t104 168.5t156 108t193 39q140 0 244.5 -64.5t145.5 -150.5
q40 84 153 149.5t256 65.5q214 0 347.5 -137.5t133.5 -353.5q0 -11 -6 -80l-4 -33h-768q17 -125 99.5 -205.5t197.5 -80.5q90 0 151.5 46t84.5 97zM1075 594h574q-18 133 -90 210t-187 77q-122 0 -201 -77.5t-96 -209.5zM573 164q119 0 203 96.5t84 251.5t-84 251.5
t-203 96.5t-202.5 -96.5t-83.5 -251.5t83.5 -251.5t202.5 -96.5z" />
    <glyph glyph-name="Racute" unicode="&#x154;" horiz-adv-x="1331" 
d="M154 0v1434h645q180 0 300 -127.5t120 -333.5t-120 -333.5t-300 -127.5h-51l512 -512h-277l-512 512h-102v-512h-215zM369 717h419q89 0 152.5 72t63.5 184t-63.5 184t-152.5 72h-419v-512zM573 1577l205 297h226l-246 -297h-185z" />
    <glyph glyph-name="racute" unicode="&#x155;" horiz-adv-x="737" 
d="M133 0v1024h174l21 -92h10q1 1 14.5 17t17.5 19t18.5 16t25.5 17t29.5 11t40.5 9.5t48 2.5h185v-184h-164q-215 0 -215 -213v-627h-205zM348 1188l205 297h225l-246 -297h-184z" />
    <glyph glyph-name="Rcommaaccent" unicode="&#x156;" horiz-adv-x="1331" 
d="M154 0v1434h645q180 0 300 -127.5t120 -333.5t-120 -333.5t-300 -127.5h-51l512 -512h-277l-512 512h-102v-512h-215zM369 717h419q89 0 152.5 72t63.5 184t-63.5 184t-152.5 72h-419v-512zM492 -481l71 338h205l-123 -338h-153z" />
    <glyph glyph-name="rcommaaccent" unicode="&#x157;" horiz-adv-x="737" 
d="M133 0v1024h174l21 -92h10q1 1 14.5 17t17.5 19t18.5 16t25.5 17t29.5 11t40.5 9.5t48 2.5h185v-184h-164q-215 0 -215 -213v-627h-205zM61 -481l72 338h205l-123 -338h-154z" />
    <glyph glyph-name="Rcaron" unicode="&#x158;" horiz-adv-x="1331" 
d="M154 0v1434h645q180 0 300 -127.5t120 -333.5t-120 -333.5t-300 -127.5h-51l512 -512h-277l-512 512h-102v-512h-215zM369 717h419q89 0 152.5 72t63.5 184t-63.5 184t-152.5 72h-419v-512zM573 1577l-245 297h194l144 -174l143 174h195l-246 -297h-185z" />
    <glyph glyph-name="rcaron" unicode="&#x159;" horiz-adv-x="737" 
d="M133 0v1024h174l21 -92h10q1 1 14.5 17t17.5 19t18.5 16t25.5 17t29.5 11t40.5 9.5t48 2.5h185v-184h-164q-215 0 -215 -213v-627h-205zM348 1188l-246 297h195l143 -174l144 174h194l-246 -297h-184z" />
    <glyph glyph-name="Sacute" unicode="&#x15a;" horiz-adv-x="1280" 
d="M82 440h215q0 -104 97 -180t251 -76q169 0 248.5 58.5t79.5 156.5q0 159 -246 205l-276 51q-167 30 -252.5 129t-85.5 250q0 181 139.5 300.5t372.5 119.5q131 0 235 -36t170.5 -99t101.5 -146t35 -180h-215q0 105 -89.5 180.5t-237.5 75.5q-140 0 -218.5 -62t-78.5 -153
q0 -151 215 -194l225 -41q217 -38 318.5 -134t101.5 -266q0 -185 -142 -302t-401 -117q-131 0 -238.5 36t-178 98t-108.5 146t-38 180zM543 1577l205 297h225l-246 -297h-184z" />
    <glyph glyph-name="sacute" unicode="&#x15b;" horiz-adv-x="993" 
d="M61 307h205q0 -54 62 -103.5t174 -49.5q107 0 161 39.5t54 93.5q0 56 -35 88t-119 45l-184 31q-150 25 -223.5 96.5t-73.5 200.5q0 130 105.5 213t304.5 83q85 0 157 -22t119 -57t80.5 -78t48 -83.5t14.5 -76.5h-204q0 54 -54.5 98.5t-160.5 44.5q-102 0 -153.5 -35
t-51.5 -87q0 -46 41 -77.5t112 -45.5l185 -31q297 -49 297 -307q0 -63 -26 -117.5t-76 -97.5t-132 -67.5t-186 -24.5q-94 0 -171.5 23.5t-126 59t-82 80.5t-47.5 86.5t-14 77.5zM410 1188l204 297h226l-246 -297h-184z" />
    <glyph glyph-name="Scircumflex" unicode="&#x15c;" horiz-adv-x="1280" 
d="M82 440h215q0 -104 97 -180t251 -76q169 0 248.5 58.5t79.5 156.5q0 159 -246 205l-276 51q-167 30 -252.5 129t-85.5 250q0 181 139.5 300.5t372.5 119.5q131 0 235 -36t170.5 -99t101.5 -146t35 -180h-215q0 105 -89.5 180.5t-237.5 75.5q-140 0 -218.5 -62t-78.5 -153
q0 -151 215 -194l225 -41q217 -38 318.5 -134t101.5 -266q0 -185 -142 -302t-401 -117q-131 0 -238.5 36t-178 98t-108.5 146t-38 180zM297 1577l246 297h184l246 -297h-195l-143 174l-143 -174h-195z" />
    <glyph glyph-name="scircumflex" unicode="&#x15d;" horiz-adv-x="993" 
d="M61 307h205q0 -54 62 -103.5t174 -49.5q107 0 161 39.5t54 93.5q0 56 -35 88t-119 45l-184 31q-150 25 -223.5 96.5t-73.5 200.5q0 130 105.5 213t304.5 83q85 0 157 -22t119 -57t80.5 -78t48 -83.5t14.5 -76.5h-204q0 54 -54.5 98.5t-160.5 44.5q-102 0 -153.5 -35
t-51.5 -87q0 -46 41 -77.5t112 -45.5l185 -31q297 -49 297 -307q0 -63 -26 -117.5t-76 -97.5t-132 -67.5t-186 -24.5q-94 0 -171.5 23.5t-126 59t-82 80.5t-47.5 86.5t-14 77.5zM164 1188l246 297h184l246 -297h-195l-143 174l-144 -174h-194z" />
    <glyph glyph-name="Scedilla" unicode="&#x15e;" horiz-adv-x="1280" 
d="M481 -440v133h82q45 0 68.5 18t23.5 43q0 62 -92 62h-51v82l39 88q-222 24 -345.5 148t-123.5 306h215q0 -104 97 -180t251 -76q169 0 248.5 58.5t79.5 156.5q0 159 -246 205l-276 51q-167 30 -252.5 129t-85.5 250q0 181 139.5 300.5t372.5 119.5q131 0 235 -36
t170.5 -99t101.5 -146t35 -180h-215q0 105 -89.5 180.5t-237.5 75.5q-140 0 -218.5 -62t-78.5 -153q0 -151 215 -194l225 -41q217 -38 318.5 -134t101.5 -266q0 -173 -127.5 -289t-358.5 -128l-36 -84q55 -9 99 -51t44 -113q0 -81 -54.5 -127.5t-160.5 -46.5h-113z" />
    <glyph glyph-name="scedilla" unicode="&#x15f;" horiz-adv-x="993" 
d="M348 -440v133h82q45 0 68.5 18t23.5 43q0 62 -92 62h-51v82l39 88q-94 12 -166.5 49t-112 85.5t-59 96.5t-19.5 90h205q0 -54 62 -103.5t174 -49.5q107 0 161 39.5t54 93.5q0 56 -35 88t-119 45l-184 31q-150 25 -223.5 96.5t-73.5 200.5q0 130 105.5 213t304.5 83
q85 0 157 -22t119 -57t80.5 -78t48 -83.5t14.5 -76.5h-204q0 54 -54.5 98.5t-160.5 44.5q-102 0 -153.5 -35t-51.5 -87q0 -46 41 -77.5t112 -45.5l185 -31q297 -49 297 -307q0 -121 -90 -203.5t-263 -99.5l-37 -86q55 -9 99.5 -51t44.5 -113q0 -81 -54.5 -127.5
t-160.5 -46.5h-113z" />
    <glyph glyph-name="Scaron" unicode="&#x160;" horiz-adv-x="1280" 
d="M82 440h215q0 -104 97 -180t251 -76q169 0 248.5 58.5t79.5 156.5q0 159 -246 205l-276 51q-167 30 -252.5 129t-85.5 250q0 181 139.5 300.5t372.5 119.5q131 0 235 -36t170.5 -99t101.5 -146t35 -180h-215q0 105 -89.5 180.5t-237.5 75.5q-140 0 -218.5 -62t-78.5 -153
q0 -151 215 -194l225 -41q217 -38 318.5 -134t101.5 -266q0 -185 -142 -302t-401 -117q-131 0 -238.5 36t-178 98t-108.5 146t-38 180zM543 1577l-246 297h195l143 -174l143 174h195l-246 -297h-184z" />
    <glyph glyph-name="scaron" unicode="&#x161;" horiz-adv-x="993" 
d="M61 307h205q0 -54 62 -103.5t174 -49.5q107 0 161 39.5t54 93.5q0 56 -35 88t-119 45l-184 31q-150 25 -223.5 96.5t-73.5 200.5q0 130 105.5 213t304.5 83q85 0 157 -22t119 -57t80.5 -78t48 -83.5t14.5 -76.5h-204q0 54 -54.5 98.5t-160.5 44.5q-102 0 -153.5 -35
t-51.5 -87q0 -46 41 -77.5t112 -45.5l185 -31q297 -49 297 -307q0 -63 -26 -117.5t-76 -97.5t-132 -67.5t-186 -24.5q-94 0 -171.5 23.5t-126 59t-82 80.5t-47.5 86.5t-14 77.5zM410 1188l-246 297h194l144 -174l143 174h195l-246 -297h-184z" />
    <glyph glyph-name="uni0162" unicode="&#x162;" horiz-adv-x="1193" 
d="M481 -430v133h82q45 0 68.5 18t23.5 43q0 62 -92 62h-51v82l41 92h-61v1229h-451v205h1116v-205h-450v-1229l-41 -92q55 -9 99 -51t44 -113q0 -81 -54.5 -127.5t-160.5 -46.5h-113z" />
    <glyph glyph-name="uni0163" unicode="&#x163;" horiz-adv-x="747" 
d="M297 -440v133h82q45 0 68.5 18t23.5 43q0 62 -92 62h-51v82l41 108q-154 38 -154 209v614h-164v195h164v287h205v-287h235v-195h-235v-583q0 -62 61 -62h174v-184h-133l-41 -102q55 -9 99.5 -51t44.5 -113q0 -81 -54.5 -127.5t-160.5 -46.5h-113z" />
    <glyph glyph-name="Tcaron" unicode="&#x164;" horiz-adv-x="1198" 
d="M492 0v1229h-451v205h1116v-205h-450v-1229h-215zM512 1577l-246 297h195l143 -174l144 174h194l-246 -297h-184z" />
    <glyph glyph-name="tcaron" unicode="&#x165;" horiz-adv-x="849" 
d="M215 215v614h-164v195h164v287h205v-287h235v-195h-235v-583q0 -62 61 -62h174v-184h-215q-108 0 -166.5 57t-58.5 158zM655 1106l72 338h205l-123 -338h-154z" />
    <glyph glyph-name="Tbar" unicode="&#x166;" horiz-adv-x="1198" 
d="M492 0v799h-308v205h308v225h-451v205h1116v-205h-450v-225h307v-205h-307v-799h-215z" />
    <glyph glyph-name="tbar" unicode="&#x167;" horiz-adv-x="747" 
d="M215 236v245h-164v185h164v174h-164v184h164v307h205v-307h235v-184h-235v-174h235v-185h-235v-235q0 -62 61 -62h174v-184h-215q-101 0 -163 64t-62 172z" />
    <glyph glyph-name="Umacron" unicode="&#x16a;" horiz-adv-x="1433" 
d="M143 573v861h215v-861q0 -175 101.5 -282t257.5 -107t257 107t101 282v861h215v-861q0 -268 -159 -430.5t-414 -162.5t-414.5 162.5t-159.5 430.5zM410 1638v164h614v-164h-614z" />
    <glyph glyph-name="umacron" unicode="&#x16b;" horiz-adv-x="1187" 
d="M133 410v614h205v-614q0 -101 71 -173.5t175 -72.5q114 0 190 72.5t76 173.5v614h205v-1024h-185l-20 102h-10q-36 -36 -76 -61q-96 -61 -221 -61q-186 0 -298 115.5t-112 314.5zM287 1249v164h614v-164h-614z" />
    <glyph glyph-name="Ubreve" unicode="&#x16c;" horiz-adv-x="1433" 
d="M143 573v861h215v-861q0 -175 101.5 -282t257.5 -107t257 107t101 282v861h215v-861q0 -268 -159 -430.5t-414 -162.5t-414.5 162.5t-159.5 430.5zM412 1864h163q33 -133 144 -133q110 0 143 133h164q-8 -123 -92.5 -200t-214.5 -77t-214.5 77t-92.5 200z" />
    <glyph glyph-name="ubreve" unicode="&#x16d;" horiz-adv-x="1187" 
d="M133 410v614h205v-614q0 -101 71 -173.5t175 -72.5q114 0 190 72.5t76 173.5v614h205v-1024h-185l-20 102h-10q-36 -36 -76 -61q-96 -61 -221 -61q-186 0 -298 115.5t-112 314.5zM287 1464h164q33 -133 143 -133t143 133h164q-8 -123 -92.5 -199.5t-214.5 -76.5
t-214.5 76.5t-92.5 199.5z" />
    <glyph glyph-name="Uring" unicode="&#x16e;" horiz-adv-x="1433" 
d="M143 573v861h215v-861q0 -175 101.5 -282t257.5 -107t257 107t101 282v861h215v-861q0 -268 -159 -430.5t-414 -162.5t-414.5 162.5t-159.5 430.5zM717 1546q-86 0 -140.5 54.5t-54.5 140.5t54.5 140t140.5 54t140 -54t54 -140t-54 -140.5t-140 -54.5zM717 1659
q33 0 57.5 22.5t24.5 59.5t-24.5 59.5t-57.5 22.5t-57.5 -22.5t-24.5 -59.5t24.5 -59.5t57.5 -22.5z" />
    <glyph glyph-name="uring" unicode="&#x16f;" horiz-adv-x="1187" 
d="M133 410v614h205v-614q0 -101 71 -173.5t175 -72.5q114 0 190 72.5t76 173.5v614h205v-1024h-185l-20 102h-10q-36 -36 -76 -61q-96 -61 -221 -61q-186 0 -298 115.5t-112 314.5zM594 1157q-86 0 -140.5 54.5t-54.5 140.5t54.5 140t140.5 54t140 -54t54 -140t-54 -140.5
t-140 -54.5zM594 1270q33 0 57.5 22.5t24.5 59.5t-24.5 59.5t-57.5 22.5t-57.5 -22.5t-24.5 -59.5t24.5 -59.5t57.5 -22.5z" />
    <glyph glyph-name="Uhungarumlaut" unicode="&#x170;" horiz-adv-x="1433" 
d="M143 573v861h215v-861q0 -175 101.5 -282t257.5 -107t257 107t101 282v861h215v-861q0 -268 -159 -430.5t-414 -162.5t-414.5 162.5t-159.5 430.5zM451 1577l204 297h205l-235 -297h-174zM799 1577l205 297h204l-235 -297h-174z" />
    <glyph glyph-name="uhungarumlaut" unicode="&#x171;" horiz-adv-x="1187" 
d="M133 410v614h205v-614q0 -101 71 -173.5t175 -72.5q114 0 190 72.5t76 173.5v614h205v-1024h-185l-20 102h-10q-36 -36 -76 -61q-96 -61 -221 -61q-186 0 -298 115.5t-112 314.5zM338 1188l205 297h205l-236 -297h-174zM686 1188l205 297h205l-236 -297h-174z" />
    <glyph glyph-name="Uogonek" unicode="&#x172;" horiz-adv-x="1433" 
d="M870 -348h-51q-225 0 -225 184q0 85 82 146q-238 12 -385.5 173.5t-147.5 417.5v861h215v-861q0 -175 101.5 -282t257.5 -107t257 107t101 282v861h215v-861q0 -225 -117.5 -380t-312.5 -197q-43 -23 -72.5 -59t-29.5 -80q0 -28 19.5 -50t62.5 -22h30v-133z" />
    <glyph glyph-name="uogonek" unicode="&#x173;" horiz-adv-x="1187" 
d="M133 410v614h205v-614q0 -101 71 -173.5t175 -72.5q114 0 190 72.5t76 173.5v614h205v-1024h-21q-112 -55 -112 -143q0 -28 19.5 -50t62.5 -22h30v-133h-51q-225 0 -225 184q0 61 39.5 107t72.5 57l-20 102h-10q-36 -36 -76 -61q-96 -61 -221 -61q-186 0 -298 115.5
t-112 314.5z" />
    <glyph glyph-name="Wcircumflex" unicode="&#x174;" horiz-adv-x="2007" 
d="M379 0l-359 1434h236l276 -1127h41l297 1127h267l297 -1127h41l276 1127h236l-359 -1434h-328l-276 1075h-41l-276 -1075h-328zM666 1577l245 297h185l245 -297h-194l-143 174l-144 -174h-194z" />
    <glyph glyph-name="wcircumflex" unicode="&#x175;" horiz-adv-x="1617" 
d="M297 0l-277 1024h216l194 -758h41l201 758h274l201 -758h41l194 758h215l-276 -1024h-297l-195 737h-41l-194 -737h-297zM471 1188l246 297h184l246 -297h-195l-143 174l-143 -174h-195z" />
    <glyph glyph-name="Ycircumflex" unicode="&#x176;" horiz-adv-x="1239" 
d="M512 0v512l-522 922h237l377 -666h41l367 666h237l-522 -922v-512h-215zM287 1577l245 297h185l246 -297h-195l-143 174l-144 -174h-194z" />
    <glyph glyph-name="ycircumflex" unicode="&#x177;" horiz-adv-x="1054" 
d="M123 -410v185h205q28 0 45.5 19.5t23.5 41.5l33 92l-420 1096h215l297 -778h41l266 778h215l-450 -1260q-33 -90 -89.5 -132t-166.5 -42h-215zM205 1188l246 297h184l246 -297h-195l-143 174l-144 -174h-194z" />
    <glyph glyph-name="Ydieresis" unicode="&#x178;" horiz-adv-x="1239" 
d="M512 0v512l-522 922h237l377 -666h41l367 666h237l-522 -922v-512h-215zM338 1628v205h205v-205h-205zM707 1628v205h204v-205h-204z" />
    <glyph glyph-name="Zacute" unicode="&#x179;" horiz-adv-x="1208" 
d="M72 0v184l768 1045h-758v205h1044v-185l-768 -1044h779v-205h-1065zM512 1577l205 297h225l-246 -297h-184z" />
    <glyph glyph-name="zacute" unicode="&#x17a;" horiz-adv-x="931" 
d="M61 0v184l533 645h-522v195h788v-184l-532 -645h542v-195h-809zM379 1188l205 297h225l-246 -297h-184z" />
    <glyph glyph-name="Zdotaccent" unicode="&#x17b;" horiz-adv-x="1208" 
d="M72 0v184l768 1045h-758v205h1044v-185l-768 -1044h779v-205h-1065zM502 1628v205h205v-205h-205z" />
    <glyph glyph-name="zdotaccent" unicode="&#x17c;" horiz-adv-x="931" 
d="M61 0v184l533 645h-522v195h788v-184l-532 -645h542v-195h-809zM369 1229v205h204v-205h-204z" />
    <glyph glyph-name="Zcaron" unicode="&#x17d;" horiz-adv-x="1208" 
d="M72 0v184l768 1045h-758v205h1044v-185l-768 -1044h779v-205h-1065zM512 1577l-246 297h195l143 -174l144 174h194l-246 -297h-184z" />
    <glyph glyph-name="zcaron" unicode="&#x17e;" horiz-adv-x="931" 
d="M61 0v184l533 645h-522v195h788v-184l-532 -645h542v-195h-809zM379 1188l-246 297h195l143 -174l143 174h195l-246 -297h-184z" />
    <glyph glyph-name="uni018F" unicode="&#x18f;" horiz-adv-x="1536" 
d="M1223 625h-916q7 -191 135.5 -316t315.5 -125q185 0 315 124t150 317zM92 676v133h1131q-20 193 -150 316.5t-315 123.5q-138 0 -246.5 -69t-163.5 -187h-235q69 209 245.5 335t399.5 126q140 0 266 -54t218.5 -149t147 -234t54.5 -300t-54.5 -300t-147 -234t-218.5 -149
t-266 -54q-192 0 -344.5 90t-237 249t-84.5 357z" />
    <glyph glyph-name="florin" unicode="&#x192;" horiz-adv-x="829" 
d="M-133 -410l41 185h123q44 0 65 24.5t33 71.5l174 805h-190l41 184h190l70 328q25 105 94.5 165t187.5 60h185l-41 -174h-123q-45 0 -71 -25.5t-32 -66.5l-61 -287h215l-41 -184h-215l-184 -850q-24 -112 -95.5 -174t-191.5 -62h-174z" />
    <glyph glyph-name="Aringacute" unicode="&#x1fa;" horiz-adv-x="1372" 
d="M668 1905l69 123h195l-123 -164q72 -53 72 -154q0 -86 -54.5 -140t-140.5 -54t-140 54t-54 140q0 78 49 133t127 62zM686 1628q33 0 57.5 22.5t24.5 59.5t-24.5 59.5t-57.5 22.5t-57.5 -22.5t-24.5 -59.5t24.5 -59.5t57.5 -22.5zM0 0l522 1434h328l522 -1434h-235
l-123 338h-656l-122 -338h-236zM430 532h512l-235 656h-41z" />
    <glyph glyph-name="aringacute" unicode="&#x1fb;" horiz-adv-x="1095" 
d="M535 1516l69 122h195l-123 -163q72 -53 72 -154q0 -86 -54.5 -140.5t-140.5 -54.5t-140.5 54.5t-54.5 140.5q0 78 49.5 133t127.5 62zM553 1239q33 0 57.5 22.5t24.5 59.5t-24.5 59.5t-57.5 22.5t-57.5 -22.5t-24.5 -59.5t24.5 -59.5t57.5 -22.5zM799 0l-21 113h-10
q-30 -41 -74 -68q-97 -65 -233 -65q-167 0 -268 88t-101 229q0 159 105.5 248.5t314.5 89.5h256v20q0 100 -57.5 157.5t-157.5 57.5q-98 0 -152 -44t-63 -99h-205q8 135 121.5 226t298.5 91q199 0 309.5 -104.5t110.5 -284.5v-655h-174zM768 430v41h-246
q-112 0 -168.5 -45.5t-56.5 -118.5q0 -71 47 -112t137 -41q139 0 213 72.5t74 203.5z" />
    <glyph glyph-name="AEacute" unicode="&#x1fc;" horiz-adv-x="1925" 
d="M-31 0l625 1434h1218v-205h-727v-410h687v-205h-687v-409h727v-205h-942v338h-520l-145 -338h-236zM434 532h436v697h-133zM881 1577l204 297h226l-246 -297h-184z" />
    <glyph glyph-name="aeacute" unicode="&#x1fd;" horiz-adv-x="1843" 
d="M768 430v21h-236q-108 0 -171.5 -42t-63.5 -112q0 -63 52.5 -103t142.5 -40q136 0 206 74.5t70 201.5zM983 604h573q-17 132 -88.5 204.5t-187.5 72.5q-120 0 -200 -72.5t-97 -204.5zM338 727h-205q8 135 121.5 226t298.5 91q64 0 119 -12.5t92.5 -32t68 -46t48 -51.5
t30.5 -52q20 34 50.5 65.5t75 62t108 48.5t135.5 18q211 0 346 -135t135 -356q0 -20 -6 -74l-4 -28h-768q12 -129 95.5 -213t201.5 -84q90 0 151.5 46t84.5 97h215q-16 -44 -39 -84.5t-62 -84t-86.5 -75.5t-116 -52.5t-147.5 -20.5q-171 0 -303 102q-56 45 -96 102
q-35 -54 -95 -102q-132 -102 -315 -102q-164 0 -271.5 92.5t-107.5 224.5q0 144 110.5 230.5t319.5 86.5h246v41q0 100 -57.5 157.5t-157.5 57.5q-98 0 -152 -44t-63 -99zM829 1188l205 297h226l-246 -297h-185z" />
    <glyph glyph-name="Oslashacute" unicode="&#x1fe;" horiz-adv-x="1556" 
d="M246 -72l104 201q-122 101 -190 251t-68 337q0 161 54.5 300t147 234t218.5 149t266 54q130 0 246 -45l51 96h225l-102 -196q126 -101 196 -252.5t70 -339.5q0 -161 -54.5 -300t-147 -234t-218.5 -149t-266 -54q-142 0 -256 49l-51 -101h-225zM1098 1120l-480 -909
q70 -27 160 -27q205 0 338 145.5t133 387.5q0 258 -151 403zM451 319l477 906q-70 24 -150 24q-205 0 -338 -145t-133 -387q0 -251 144 -398zM696 1577l205 297h225l-245 -297h-185z" />
    <glyph glyph-name="oslashacute" unicode="&#x1ff;" horiz-adv-x="1187" 
d="M174 -72l88 164q-180 150 -180 420q0 236 144 384t368 148q83 0 172 -26l43 78h195l-86 -160q89 -70 138.5 -179.5t49.5 -244.5q0 -236 -144 -384t-368 -148q-93 0 -182 28l-43 -80h-195zM819 758l-315 -582q44 -12 90 -12q133 0 220 95.5t87 252.5q0 151 -82 246z
M360 272l314 578q-45 10 -80 10q-133 0 -220 -95.5t-87 -252.5q0 -149 73 -240zM502 1188l205 297h225l-246 -297h-184z" />
    <glyph glyph-name="Scommaaccent" unicode="&#x218;" horiz-adv-x="1280" 
d="M82 440h215q0 -104 97 -180t251 -76q169 0 248.5 58.5t79.5 156.5q0 159 -246 205l-276 51q-167 30 -252.5 129t-85.5 250q0 181 139.5 300.5t372.5 119.5q131 0 235 -36t170.5 -99t101.5 -146t35 -180h-215q0 105 -89.5 180.5t-237.5 75.5q-140 0 -218.5 -62t-78.5 -153
q0 -151 215 -194l225 -41q217 -38 318.5 -134t101.5 -266q0 -185 -142 -302t-401 -117q-131 0 -238.5 36t-178 98t-108.5 146t-38 180zM471 -481l72 338h205l-123 -338h-154z" />
    <glyph glyph-name="scommaaccent" unicode="&#x219;" horiz-adv-x="993" 
d="M61 307h205q0 -54 62 -103.5t174 -49.5q107 0 161 39.5t54 93.5q0 56 -35 88t-119 45l-184 31q-150 25 -223.5 96.5t-73.5 200.5q0 130 105.5 213t304.5 83q85 0 157 -22t119 -57t80.5 -78t48 -83.5t14.5 -76.5h-204q0 54 -54.5 98.5t-160.5 44.5q-102 0 -153.5 -35
t-51.5 -87q0 -46 41 -77.5t112 -45.5l185 -31q297 -49 297 -307q0 -63 -26 -117.5t-76 -97.5t-132 -67.5t-186 -24.5q-94 0 -171.5 23.5t-126 59t-82 80.5t-47.5 86.5t-14 77.5zM328 -481l71 338h205l-123 -338h-153z" />
    <glyph glyph-name="uni021A" unicode="&#x21a;" horiz-adv-x="1198" 
d="M492 0v1229h-451v205h1116v-205h-450v-1229h-215zM430 -481l72 338h205l-123 -338h-154z" />
    <glyph glyph-name="uni021B" unicode="&#x21b;" horiz-adv-x="747" 
d="M215 215v614h-164v195h164v287h205v-287h235v-195h-235v-583q0 -62 61 -62h174v-184h-215q-108 0 -166.5 57t-58.5 158zM276 -481l72 338h205l-123 -338h-154z" />
    <glyph glyph-name="uni0232" unicode="&#x232;" horiz-adv-x="1239" 
d="M512 0v512l-522 922h237l377 -666h41l367 666h237l-522 -922v-512h-215zM317 1638v164h615v-164h-615z" />
    <glyph glyph-name="uni0233" unicode="&#x233;" horiz-adv-x="1054" 
d="M123 -410v185h205q28 0 45.5 19.5t23.5 41.5l33 92l-420 1096h215l297 -778h41l266 778h215l-450 -1260q-33 -90 -89.5 -132t-166.5 -42h-215zM236 1249v164h614v-164h-614z" />
    <glyph glyph-name="uni0244" unicode="&#x244;" horiz-adv-x="1556" 
d="M205 573v267h-185v204h185v390h215v-390h717v390h215v-390h184v-204h-184v-267q0 -268 -159.5 -430.5t-414.5 -162.5t-414 162.5t-159 430.5zM420 840v-267q0 -175 101 -282t257 -107t257.5 107t101.5 282v267h-717z" />
    <glyph glyph-name="uni0259" unicode="&#x259;" 
d="M881 430h-605q18 -125 97 -200.5t200 -75.5q127 0 205.5 74.5t102.5 201.5zM92 584h789q-17 130 -101 208t-207 78q-87 0 -152.5 -42t-92.5 -101h-215q16 43 41 84.5t66 84.5t90 75t118 52.5t145 20.5q224 0 368 -148t144 -384t-144 -384t-368 -148q-208 0 -349.5 143.5
t-141.5 357.5q0 38 4 74z" />
    <glyph glyph-name="uni0289" unicode="&#x289;" horiz-adv-x="1269" 
d="M174 410v235h-154v184h154v195h205v-195h512v195h205v-195h153v-184h-153v-645h-185l-20 102h-10q-36 -36 -76 -61q-96 -61 -221 -61q-186 0 -298 115.5t-112 314.5zM379 645v-235q0 -101 71 -173.5t175 -72.5q114 0 190 72.5t76 173.5v235h-512z" />
    <glyph glyph-name="uni02BC" unicode="&#x2bc;" horiz-adv-x="399" 
d="M61 1096l72 338h205l-123 -338h-154z" />
    <glyph glyph-name="circumflex" unicode="&#x2c6;" horiz-adv-x="798" 
d="M61 1208l246 297h185l245 -297h-194l-144 174l-143 -174h-195z" />
    <glyph glyph-name="caron" unicode="&#x2c7;" horiz-adv-x="798" 
d="M307 1208l-246 297h195l143 -174l144 174h194l-245 -297h-185z" />
    <glyph glyph-name="breve" unicode="&#x2d8;" horiz-adv-x="737" 
d="M61 1475h164q33 -134 144 -134q109 0 143 134h164q-8 -123 -92.5 -200t-214.5 -77t-215 77t-93 200z" />
    <glyph glyph-name="dotaccent" unicode="&#x2d9;" horiz-adv-x="327" 
d="M61 1229v205h205v-205h-205z" />
    <glyph glyph-name="ring" unicode="&#x2da;" horiz-adv-x="512" 
d="M256 1208q-86 0 -140.5 54.5t-54.5 140.5t54.5 140t140.5 54t140.5 -54t54.5 -140t-54.5 -140.5t-140.5 -54.5zM256 1321q33 0 57.5 22.5t24.5 59.5t-24.5 59.5t-57.5 22.5t-57.5 -22.5t-24.5 -59.5t24.5 -59.5t57.5 -22.5z" />
    <glyph glyph-name="ogonek" unicode="&#x2db;" horiz-adv-x="399" 
d="M338 -348h-51q-226 0 -226 184q0 61 40 107t73 57v20h164v-20q-113 -56 -113 -143q0 -28 19.5 -50t62.5 -22h31v-133z" />
    <glyph glyph-name="tilde" unicode="&#x2dc;" horiz-adv-x="788" 
d="M215 1219h-154q0 113 59.5 174t155.5 61q43 0 84.5 -23t77 -46t64.5 -23q32 0 51.5 23t19.5 69h154q0 -113 -59.5 -174t-155.5 -61q-43 0 -84 23t-76.5 46t-64.5 23q-32 0 -52 -23.5t-20 -68.5z" />
    <glyph glyph-name="hungarumlaut" unicode="&#x2dd;" horiz-adv-x="880" 
d="M61 1208l205 297h205l-235 -297h-175zM410 1208l204 297h205l-235 -297h-174z" />
    <glyph glyph-name="acutecomb" unicode="&#x301;" horiz-adv-x="0" 
d="M-819 1618l205 297h225l-246 -297h-184z" />
    <glyph glyph-name="uni0302" unicode="&#x302;" horiz-adv-x="0" 
d="M-1075 1608l246 297h184l246 -297h-195l-143 174l-144 -174h-194z" />
    <glyph glyph-name="uni0304" unicode="&#x304;" horiz-adv-x="0" 
d="M-1044 1659v164h614v-164h-614z" />
    <glyph glyph-name="uni0306" unicode="&#x306;" horiz-adv-x="0" 
d="M-1044 1874h163q33 -133 144 -133q110 0 143 133h164q-8 -123 -92.5 -200t-214.5 -77t-214.5 77t-92.5 200z" />
    <glyph glyph-name="uni0307" unicode="&#x307;" horiz-adv-x="0" 
d="M-829 1638v205h204v-205h-204z" />
    <glyph glyph-name="uni0308" unicode="&#x308;" horiz-adv-x="0" 
d="M-1014 1638v205h205v-205h-205zM-645 1638v205h205v-205h-205z" />
    <glyph glyph-name="uni030A" unicode="&#x30a;" horiz-adv-x="0" 
d="M-922 1792q0 86 54.5 140.5t140.5 54.5t140.5 -54.5t54.5 -140.5t-54.5 -140.5t-140.5 -54.5t-140.5 54.5t-54.5 140.5zM-727 1710q33 0 57.5 22.5t24.5 59.5t-24.5 59.5t-57.5 22.5t-57.5 -22.5t-24.5 -59.5t24.5 -59.5t57.5 -22.5z" />
    <glyph glyph-name="uni030C" unicode="&#x30c;" horiz-adv-x="0" 
d="M-829 1608l-246 297h194l144 -174l143 174h195l-246 -297h-184z" />
    <glyph glyph-name="uni0326" unicode="&#x326;" horiz-adv-x="399" 
d="M61 -512l72 338h205l-123 -338h-154z" />
    <glyph glyph-name="uni0400" unicode="&#x400;" horiz-adv-x="1208" 
d="M154 0v1434h942v-205h-727v-410h686v-205h-686v-409h727v-205h-942zM532 1577l-245 297h225l205 -297h-185z" />
    <glyph glyph-name="uni0401" unicode="&#x401;" horiz-adv-x="1208" 
d="M154 0v1434h942v-205h-727v-410h686v-205h-686v-409h727v-205h-942zM338 1628v205h205v-205h-205zM707 1628v205h204v-205h-204z" />
    <glyph glyph-name="uni0402" unicode="&#x402;" horiz-adv-x="1464" 
d="M379 0v1229h-379v205h973v-205h-379v-400q132 93 317 93q214 0 342.5 -126t128.5 -335t-132.5 -335t-348.5 -126h-113v205h103q125 0 200.5 75.5t75.5 180.5q0 117 -71.5 186.5t-194.5 69.5q-163 0 -307 -82v-635h-215z" />
    <glyph glyph-name="uni0403" unicode="&#x403;" horiz-adv-x="1116" 
d="M154 0v1434h921v-205h-706v-1229h-215zM522 1577l205 297h225l-245 -297h-185z" />
    <glyph glyph-name="uni0404" unicode="&#x404;" horiz-adv-x="1495" 
d="M315 819h637v-205h-637q29 -199 155 -314.5t308 -115.5q85 0 157.5 26t123.5 70.5t85.5 98t53.5 113.5h225q-15 -70 -48 -139.5t-89 -137.5t-127.5 -119.5t-170 -83.5t-210.5 -32q-140 0 -266 54t-218.5 149t-147 234t-54.5 300t54.5 300t147 234t218.5 149t266 54
q130 0 243 -42t192.5 -113.5t133 -160t76.5 -186.5h-225q-53 143 -166 220t-254 77q-182 0 -308 -115.5t-155 -314.5z" />
    <glyph glyph-name="uni0405" unicode="&#x405;" horiz-adv-x="1280" 
d="M82 440h215q0 -104 97 -180t251 -76q169 0 248.5 58.5t79.5 156.5q0 159 -246 205l-276 51q-167 30 -252.5 129t-85.5 250q0 181 139.5 300.5t372.5 119.5q131 0 235 -36t170.5 -99t101.5 -146t35 -180h-215q0 105 -89.5 180.5t-237.5 75.5q-140 0 -218.5 -62t-78.5 -153
q0 -151 215 -194l225 -41q217 -38 318.5 -134t101.5 -266q0 -185 -142 -302t-401 -117q-131 0 -238.5 36t-178 98t-108.5 146t-38 180z" />
    <glyph glyph-name="uni0406" unicode="&#x406;" horiz-adv-x="522" 
d="M154 0v1434h215v-1434h-215z" />
    <glyph glyph-name="uni0407" unicode="&#x407;" horiz-adv-x="522" 
d="M154 0v1434h215v-1434h-215zM-20 1628v205h204v-205h-204zM348 1628v205h205v-205h-205z" />
    <glyph glyph-name="uni0408" unicode="&#x408;" horiz-adv-x="808" 
d="M20 0v205h336q42 0 68.5 27.5t26.5 74.5v1127h215v-1168q0 -129 -63 -197.5t-204 -68.5h-379z" />
    <glyph glyph-name="uni0409" unicode="&#x409;" horiz-adv-x="2099" 
d="M10 -10v215h72q139 0 154 164l88 1065h895v-553h358q192 0 316 -124.5t124 -316.5t-124 -316t-316 -124h-573v1229h-480l-73 -891q-30 -348 -349 -348h-92zM1219 205h348q109 0 172 63t63 172t-63 172.5t-172 63.5h-348v-471z" />
    <glyph glyph-name="uni040A" unicode="&#x40a;" horiz-adv-x="2129" 
d="M154 0v1434h215v-574h665v574h215v-574h359q191 0 315.5 -122.5t124.5 -307.5t-124.5 -307.5t-315.5 -122.5h-574v655h-665v-655h-215zM1249 205h348q108 0 172 62t64 163t-64 163t-172 62h-348v-450z" />
    <glyph glyph-name="uni040B" unicode="&#x40b;" horiz-adv-x="1484" 
d="M379 0v1229h-379v205h973v-205h-379v-400q29 20 47 30t58.5 28t93.5 26.5t118 8.5q210 0 325.5 -119.5t115.5 -341.5v-461h-215v451q0 130 -66 198t-190 68q-89 0 -154 -21.5t-133 -60.5v-635h-215z" />
    <glyph glyph-name="uni040C" unicode="&#x40c;" horiz-adv-x="1208" 
d="M154 0v1434h215v-656l549 656h270l-594 -707l635 -727h-271l-589 676v-676h-215zM553 1577l205 297h225l-246 -297h-184z" />
    <glyph glyph-name="uni040D" unicode="&#x40d;" horiz-adv-x="1454" 
d="M154 0v1434h215v-1117h41l573 1117h317v-1434h-215v1116h-41l-573 -1116h-317zM635 1577l-246 297h225l205 -297h-184z" />
    <glyph glyph-name="uni040E" unicode="&#x40e;" horiz-adv-x="1280" 
d="M205 0v205h205q45 0 67 14.5t35 46.5l31 72l-533 1096h236l389 -809h41l358 809h236l-574 -1260q-78 -174 -286 -174h-205zM348 1864h164q33 -133 143 -133q111 0 144 133h164q-8 -123 -93 -200t-215 -77t-214.5 77t-92.5 200z" />
    <glyph glyph-name="uni040F" unicode="&#x40f;" horiz-adv-x="1423" 
d="M154 0v1434h215v-1229h686v1229h215v-1434h-451v-287h-215v287h-450z" />
    <glyph glyph-name="uni0410" unicode="&#x410;" horiz-adv-x="1372" 
d="M0 0l522 1434h328l522 -1434h-235l-123 338h-656l-122 -338h-236zM430 532h512l-235 656h-41z" />
    <glyph glyph-name="uni0411" unicode="&#x411;" horiz-adv-x="1320" 
d="M154 0v1434h993v-205h-778v-389h450q178 0 294 -118t116 -302t-116 -302t-294 -118h-665zM369 195h440q94 0 149.5 59t55.5 166t-55.5 166t-149.5 59h-440v-450z" />
    <glyph glyph-name="uni0412" unicode="&#x412;" horiz-adv-x="1331" 
d="M154 0v1434h634q176 0 293 -115.5t117 -284.5q0 -135 -78 -233q-34 -43 -76 -74v-10q47 -26 86 -74q89 -106 89 -244q0 -169 -116 -284t-288 -115h-661zM369 809h409q85 0 145 62t60 153t-60 153t-145 62h-409v-430zM369 195h430q85 0 145 62t60 153t-60 153t-145 62
h-430v-430z" />
    <glyph glyph-name="uni0413" unicode="&#x413;" horiz-adv-x="1116" 
d="M154 0v1434h921v-205h-706v-1229h-215z" />
    <glyph glyph-name="uni0414" unicode="&#x414;" horiz-adv-x="1413" 
d="M0 -287v492h20q92 0 130 60t55 237l78 932h925v-1229h154v-492h-215v287h-932v-287h-215zM348 205h645v1024h-512l-71 -860q-8 -80 -35 -129q-14 -25 -27 -35z" />
    <glyph glyph-name="uni0415" unicode="&#x415;" horiz-adv-x="1208" 
d="M154 0v1434h942v-205h-727v-410h686v-205h-686v-409h727v-205h-942z" />
    <glyph glyph-name="uni0416" unicode="&#x416;" horiz-adv-x="1689" 
d="M-10 0l522 727l-481 707h256l450 -666v666h215v-666l451 666h256l-481 -707l522 -727h-256l-492 686v-686h-215v686l-491 -686h-256z" />
    <glyph glyph-name="uni0417" unicode="&#x417;" horiz-adv-x="1239" 
d="M72 410h215q0 -98 81.5 -162t235.5 -64q160 0 244 64t84 162q0 94 -79 154.5t-208 60.5h-143v194h143q119 0 187.5 58t68.5 147q0 93 -76.5 159t-220.5 66q-142 0 -219.5 -64t-77.5 -161h-215q0 184 140 307t372 123q120 0 218 -34t161.5 -92t98 -133.5t34.5 -160.5
q0 -147 -102 -241q-52 -45 -103 -66v-10q59 -19 117 -64q119 -95 119 -254q0 -85 -36.5 -160.5t-104 -133.5t-171.5 -91.5t-231 -33.5q-248 0 -390 120.5t-142 309.5z" />
    <glyph glyph-name="uni0418" unicode="&#x418;" horiz-adv-x="1454" 
d="M154 0v1434h215v-1117h41l573 1117h317v-1434h-215v1116h-41l-573 -1116h-317z" />
    <glyph glyph-name="uni0419" unicode="&#x419;" horiz-adv-x="1454" 
d="M154 0v1434h215v-1117h41l573 1117h317v-1434h-215v1116h-41l-573 -1116h-317zM420 1864h164q33 -133 143 -133t143 133h164q-8 -123 -92.5 -200t-214.5 -77t-214.5 77t-92.5 200z" />
    <glyph glyph-name="uni041A" unicode="&#x41a;" horiz-adv-x="1208" 
d="M154 0v1434h215v-656l549 656h270l-594 -707l635 -727h-271l-589 676v-676h-215z" />
    <glyph glyph-name="uni041B" unicode="&#x41b;" horiz-adv-x="1402" 
d="M10 -10v215h72q139 0 154 164l88 1065h925v-1434h-215v1229h-510l-73 -891q-30 -348 -349 -348h-92z" />
    <glyph glyph-name="uni041C" unicode="&#x41c;" horiz-adv-x="1843" 
d="M154 0v1434h368l379 -1127h41l379 1127h369v-1434h-215v1096h-41l-369 -1096h-287l-368 1096h-41v-1096h-215z" />
    <glyph glyph-name="uni041D" unicode="&#x41d;" horiz-adv-x="1464" 
d="M154 0v1434h215v-605h727v605h215v-1434h-215v625h-727v-625h-215z" />
    <glyph glyph-name="uni041E" unicode="&#x41e;" horiz-adv-x="1556" 
d="M778 -20q-140 0 -266 54t-218.5 149t-147 234t-54.5 300t54.5 300t147 234t218.5 149t266 54t266 -54t218.5 -149t147 -234t54.5 -300t-54.5 -300t-147 -234t-218.5 -149t-266 -54zM778 1249q-205 0 -338 -145t-133 -387t133 -387.5t338 -145.5t338 145.5t133 387.5
t-133 387t-338 145z" />
    <glyph glyph-name="uni041F" unicode="&#x41f;" horiz-adv-x="1454" 
d="M154 0v1434h1146v-1434h-215v1229h-716v-1229h-215z" />
    <glyph glyph-name="uni0420" unicode="&#x420;" horiz-adv-x="1310" 
d="M369 717h419q89 0 152.5 72t63.5 184t-63.5 184t-152.5 72h-419v-512zM154 0v1434h645q180 0 300 -127.5t120 -333.5t-120 -333.5t-300 -127.5h-430v-512h-215z" />
    <glyph glyph-name="uni0421" unicode="&#x421;" horiz-adv-x="1495" 
d="M1198 492h225q-15 -70 -48 -139.5t-89 -137.5t-127.5 -119.5t-170 -83.5t-210.5 -32q-140 0 -266 54t-218.5 149t-147 234t-54.5 300t54.5 300t147 234t218.5 149t266 54q130 0 243 -42t192.5 -113.5t133 -160t76.5 -186.5h-225q-53 143 -166 220t-254 77
q-205 0 -338 -145t-133 -387t133 -387.5t338 -145.5q85 0 157.5 26t123.5 70.5t85.5 98t53.5 113.5z" />
    <glyph glyph-name="uni0422" unicode="&#x422;" horiz-adv-x="1198" 
d="M492 0v1229h-451v205h1116v-205h-450v-1229h-215z" />
    <glyph glyph-name="uni0423" unicode="&#x423;" horiz-adv-x="1280" 
d="M205 0v205h205q45 0 67 14.5t35 46.5l31 72l-533 1096h236l389 -809h41l358 809h236l-574 -1260q-78 -174 -286 -174h-205z" />
    <glyph glyph-name="uni0424" unicode="&#x424;" horiz-adv-x="1669" 
d="M942 1106v-737h10q196 0 313 105t117 263t-117 263.5t-313 105.5h-10zM727 -41v225q-154 0 -279 42t-206.5 116t-125.5 175t-44 220t44 220t125.5 175t206.5 116t279 42v185h215v-185q154 0 279 -42t206.5 -116t125.5 -175t44 -220t-44 -220t-125.5 -175t-206.5 -116
t-279 -42v-225h-215zM727 369v737h-10q-196 0 -313 -105.5t-117 -263.5t117 -263t313 -105h10z" />
    <glyph glyph-name="uni0425" unicode="&#x425;" horiz-adv-x="1290" 
d="M0 0l512 737l-481 697h245l349 -502h41l348 502h246l-482 -697l512 -737h-246l-378 543h-41l-379 -543h-246z" />
    <glyph glyph-name="uni0426" unicode="&#x426;" horiz-adv-x="1464" 
d="M154 0v1434h215v-1229h675v1229h216v-1229h153v-492h-215v287h-1044z" />
    <glyph glyph-name="uni0427" unicode="&#x427;" horiz-adv-x="1372" 
d="M1004 0v573q-46 -34 -101 -61q-124 -61 -268 -61q-502 0 -502 522v461h215v-451q0 -169 76 -248.5t231 -79.5q140 0 258 66q55 28 91 67v646h215v-1434h-215z" />
    <glyph glyph-name="uni0428" unicode="&#x428;" horiz-adv-x="1955" 
d="M154 0v1434h215v-1229h501v1229h215v-1229h502v1229h215v-1434h-1648z" />
    <glyph glyph-name="uni0429" unicode="&#x429;" horiz-adv-x="2007" 
d="M154 0v1434h215v-1229h501v1229h215v-1229h502v1229h215v-1229h154v-492h-215v287h-1587z" />
    <glyph glyph-name="uni042A" unicode="&#x42a;" horiz-adv-x="1443" 
d="M328 0v1229h-318v205h533v-512h379q186 0 313 -131.5t127 -329.5t-127 -329.5t-313 -131.5h-594zM543 205h368q102 0 169 70.5t67 185.5t-67 185.5t-169 70.5h-368v-512z" />
    <glyph glyph-name="uni042B" unicode="&#x42b;" horiz-adv-x="1689" 
d="M1321 0v1434h215v-1434h-215zM369 205h348q102 0 168.5 70.5t66.5 185.5t-66.5 185.5t-168.5 70.5h-348v-512zM154 0v1434h215v-512h358q186 0 313 -131.5t127 -329.5t-127 -329.5t-313 -131.5h-573z" />
    <glyph glyph-name="uni042C" unicode="&#x42c;" horiz-adv-x="1290" 
d="M369 205h389q102 0 168.5 70.5t66.5 185.5t-66.5 185.5t-168.5 70.5h-389v-512zM154 0v1434h215v-512h399q186 0 313 -131.5t127 -329.5t-127 -329.5t-313 -131.5h-614z" />
    <glyph glyph-name="uni042D" unicode="&#x42d;" horiz-adv-x="1495" 
d="M72 492h225q19 -60 53.5 -113.5t85.5 -98t123.5 -70.5t157.5 -26q182 0 308 115.5t155 314.5h-637v205h637q-29 199 -155 314.5t-308 115.5q-141 0 -255 -77.5t-165 -219.5h-225q23 98 76.5 186.5t133 160t192.5 113.5t243 42q140 0 266 -54t218.5 -149t147 -234
t54.5 -300t-54.5 -300t-147 -234t-218.5 -149t-266 -54q-112 0 -210.5 32t-170 83.5t-127.5 119.5t-89 137.5t-48 139.5z" />
    <glyph glyph-name="uni042E" unicode="&#x42e;" horiz-adv-x="1966" 
d="M154 0v1434h215v-615h204q3 82 31 169t83 170.5t129.5 149t179.5 106t223 40.5q133 0 253 -54t209 -149t141 -234t52 -300t-52 -300t-141 -234t-209 -149t-253 -54q-118 0 -223 40t-179.5 106t-129.5 149t-83 170t-31 169h-204v-614h-215zM1219 184q88 0 168 37.5
t140.5 105.5t96 169t35.5 221t-35.5 221t-96 168.5t-140.5 105t-168 37.5q-89 0 -168.5 -37.5t-140.5 -105t-96.5 -168.5t-35.5 -221t35.5 -221t96.5 -169t141 -105.5t168 -37.5z" />
    <glyph glyph-name="uni042F" unicode="&#x42f;" horiz-adv-x="1331" 
d="M72 0l501 512h-30q-186 0 -313.5 131.5t-127.5 329.5t127.5 329.5t313.5 131.5h635v-1434h-215v512h-113l-502 -512h-276zM543 717h420v512h-420q-96 0 -161 -71.5t-65 -184.5t65 -184.5t161 -71.5z" />
    <glyph glyph-name="uni0430" unicode="&#x430;" horiz-adv-x="1095" 
d="M799 0l-21 113h-10q-30 -41 -74 -68q-97 -65 -233 -65q-167 0 -268 88t-101 229q0 159 105.5 248.5t314.5 89.5h256v20q0 100 -57.5 157.5t-157.5 57.5q-98 0 -152 -44t-63 -99h-205q8 135 121.5 226t298.5 91q199 0 309.5 -104.5t110.5 -284.5v-655h-174zM768 430v41
h-246q-112 0 -168.5 -45.5t-56.5 -118.5q0 -71 47 -112t137 -41q139 0 213 72.5t74 203.5z" />
    <glyph glyph-name="uni0431" unicode="&#x431;" horiz-adv-x="1177" 
d="M92 543v41q0 275 76 440t221 246q24 12 46 22t49.5 18.5t41.5 13t49.5 11.5t44 8.5t54 9.5t53.5 9q57 8 90 41t33 92h184q0 -147 -54.5 -218t-160.5 -89q-7 -1 -39 -6.5t-40 -7t-36 -6.5t-38.5 -7.5t-34 -8t-35 -9t-31 -9.5t-31.5 -11.5t-26.5 -12t-26.5 -14.5
q-144 -90 -174 -277h10q116 133 308 133q202 0 336.5 -136.5t134.5 -344.5t-144 -349.5t-358 -141.5q-144 0 -257 67t-179 196t-66 300zM594 164q124 0 210.5 88.5t86.5 218.5t-86.5 218.5t-210.5 88.5t-210.5 -88.5t-86.5 -218.5t86.5 -218.5t210.5 -88.5z" />
    <glyph glyph-name="uni0432" unicode="&#x432;" horiz-adv-x="1095" 
d="M133 0v1024h553q145 0 226 -75.5t81 -200.5q0 -97 -61 -166q-30 -33 -62 -50v-10q32 -14 72 -49q72 -80 72 -186q0 -117 -89 -202t-218 -85h-574zM338 604h317q61 0 97 34t36 89t-36 89t-97 34h-317v-246zM338 174h328q61 0 102 39t41 94t-41 94t-102 39h-328v-266z" />
    <glyph glyph-name="uni0433" unicode="&#x433;" horiz-adv-x="860" 
d="M133 0v1024h686v-195h-481v-829h-205z" />
    <glyph glyph-name="uni0434" unicode="&#x434;" horiz-adv-x="1136" 
d="M0 -246v430h20q68 0 103 37.5t41 116.5l61 686h727v-840h144v-430h-205v246h-686v-246h-205zM307 184h441v656h-338l-45 -512q-8 -70 -33 -111q-11 -19 -25 -33z" />
    <glyph glyph-name="uni0435" unicode="&#x435;" 
d="M287 594h604q-18 125 -97 200.5t-200 75.5q-126 0 -204.5 -74t-102.5 -202zM840 297h215q-16 -43 -41 -84.5t-66 -84.5t-90.5 -75t-118 -52.5t-145.5 -20.5q-224 0 -368 148t-144 384t144 384t368 148q208 0 349.5 -143.5t141.5 -357.5q0 -20 -6 -74l-4 -29h-788
q17 -131 100.5 -208.5t206.5 -77.5q87 0 153 42t93 101z" />
    <glyph glyph-name="uni0436" unicode="&#x436;" horiz-adv-x="1392" 
d="M0 0l389 522l-369 502h236l338 -471v471h205v-471l338 471h235l-368 -502l389 -522h-236l-358 502v-502h-205v502l-358 -502h-236z" />
    <glyph glyph-name="uni0437" unicode="&#x437;" horiz-adv-x="993" 
d="M61 328h195q0 -66 62.5 -120t162.5 -54q110 0 168 42t58 101q0 64 -55 103.5t-160 39.5h-103v164h103q89 0 141.5 38.5t52.5 94.5q0 57 -54.5 95t-150.5 38q-103 0 -154 -43t-51 -110h-204q0 136 112 231.5t297 95.5q194 0 302 -86t108 -221q0 -102 -78 -168
q-36 -28 -76 -43v-10q174 -46 174 -229q0 -131 -112.5 -219t-317.5 -88q-198 0 -309 101t-111 247z" />
    <glyph glyph-name="uni0438" unicode="&#x438;" horiz-adv-x="1157" 
d="M133 0v1024h205v-737h41l348 737h297v-1024h-205v737h-41l-348 -737h-297z" />
    <glyph glyph-name="uni0439" unicode="&#x439;" horiz-adv-x="1157" 
d="M133 0v1024h205v-737h41l348 737h297v-1024h-205v737h-41l-348 -737h-297zM276 1464h164q33 -133 144 -133q110 0 143 133h164q-8 -123 -92.5 -199.5t-214.5 -76.5t-215 76.5t-93 199.5z" />
    <glyph glyph-name="uni043A" unicode="&#x43a;" horiz-adv-x="1024" 
d="M133 0v1024h205v-471l430 471h246l-461 -502l481 -522h-246l-450 492v-492h-205z" />
    <glyph glyph-name="uni043B" unicode="&#x43b;" horiz-adv-x="1126" 
d="M10 -10v194h51q130 0 144 164l61 676h727v-1024h-205v840h-331l-47 -523q-17 -170 -93.5 -248.5t-224.5 -78.5h-82z" />
    <glyph glyph-name="uni043C" unicode="&#x43c;" horiz-adv-x="1474" 
d="M133 0v1024h338l246 -748h41l246 748h337v-1024h-204v748h-41l-246 -748h-225l-246 748h-41v-748h-205z" />
    <glyph glyph-name="uni043D" unicode="&#x43d;" horiz-adv-x="1157" 
d="M133 0v1024h205v-410h481v410h205v-1024h-205v420h-481v-420h-205z" />
    <glyph glyph-name="uni043E" unicode="&#x43e;" horiz-adv-x="1187" 
d="M594 164q133 0 220 95.5t87 252.5t-87 252.5t-220 95.5t-220 -95.5t-87 -252.5t87 -252.5t220 -95.5zM594 -20q-224 0 -368 148t-144 384t144 384t368 148t368 -148t144 -384t-144 -384t-368 -148z" />
    <glyph glyph-name="uni043F" unicode="&#x43f;" horiz-adv-x="1157" 
d="M133 0v1024h891v-1024h-205v840h-481v-840h-205z" />
    <glyph glyph-name="uni0440" unicode="&#x440;" horiz-adv-x="1218" 
d="M133 -410v1434h184l21 -123h10q20 23 28 31.5t41 34.5t62 39t80 25.5t107 12.5q205 0 338 -145t133 -387t-133 -387t-338 -145q-210 0 -318 143h-10v-533h-205zM635 164q126 0 211.5 96t85.5 252t-85.5 252t-211.5 96t-211.5 -96t-85.5 -252t85.5 -252t211.5 -96z" />
    <glyph glyph-name="uni0441" unicode="&#x441;" horiz-adv-x="1136" 
d="M860 358h205q-14 -64 -45.5 -125t-86 -120.5t-142.5 -96t-197 -36.5q-224 0 -368 148t-144 384t144 384t368 148q88 0 163.5 -25t126 -63.5t89.5 -89.5t60 -97.5t32 -92.5h-205q-29 80 -93.5 132t-172.5 52q-133 0 -220 -95.5t-87 -252.5t87 -252.5t220 -95.5
q111 0 178 59.5t88 134.5z" />
    <glyph glyph-name="uni0442" unicode="&#x442;" horiz-adv-x="942" 
d="M369 0v829h-338v195h880v-195h-338v-829h-204z" />
    <glyph glyph-name="uni0443" unicode="&#x443;" horiz-adv-x="1054" 
d="M123 -410v185h205q28 0 45.5 19.5t23.5 41.5l33 92l-420 1096h215l297 -778h41l266 778h215l-450 -1260q-33 -90 -89.5 -132t-166.5 -42h-215z" />
    <glyph glyph-name="uni0444" unicode="&#x444;" horiz-adv-x="1495" 
d="M645 -410v410q-264 0 -413.5 139.5t-149.5 372.5t149.5 372.5t413.5 139.5v410h205v-410q264 0 413.5 -139.5t149.5 -372.5t-149.5 -372.5t-413.5 -139.5v-410h-205zM625 184h20v656h-20q-161 0 -249.5 -87t-88.5 -241t88.5 -241t249.5 -87zM850 184h20q161 0 249.5 87
t88.5 241t-88.5 241t-249.5 87h-20v-656z" />
    <glyph glyph-name="uni0445" unicode="&#x445;" horiz-adv-x="1024" 
d="M10 0l348 532l-338 492h236l236 -348h40l236 348h236l-338 -492l348 -532h-236l-246 379h-40l-246 -379h-236z" />
    <glyph glyph-name="uni0446" unicode="&#x446;" horiz-adv-x="1187" 
d="M133 0v1024h205v-840h461v840h205v-840h143v-430h-205v246h-809z" />
    <glyph glyph-name="uni0447" unicode="&#x447;" horiz-adv-x="1105" 
d="M768 0v379q-126 -82 -287 -82q-180 0 -274 100t-94 299v328h204v-317q0 -215 215 -215q135 0 236 81v451h205v-1024h-205z" />
    <glyph glyph-name="uni0448" unicode="&#x448;" horiz-adv-x="1617" 
d="M133 0v1024h205v-840h369v840h204v-840h369v840h205v-1024h-1352z" />
    <glyph glyph-name="uni0449" unicode="&#x449;" horiz-adv-x="1669" 
d="M133 0v1024h205v-840h369v840h204v-840h369v840h205v-840h143v-430h-205v246h-1290z" />
    <glyph glyph-name="uni044A" unicode="&#x44a;" horiz-adv-x="1177" 
d="M276 0v829h-256v195h461v-328h277q161 0 259.5 -97t98.5 -251t-98.5 -251t-259.5 -97h-482zM481 174h256q78 0 126 48t48 126t-48 126t-126 48h-256v-348z" />
    <glyph glyph-name="uni044B" unicode="&#x44b;" horiz-adv-x="1433" 
d="M1096 0v1024h204v-1024h-204zM133 0v1024h205v-328h266q161 0 260 -97t99 -251t-99 -251t-260 -97h-471zM338 174h246q78 0 126 48t48 126t-48 126t-126 48h-246v-348z" />
    <glyph glyph-name="uni044C" unicode="&#x44c;" horiz-adv-x="1054" 
d="M133 0v1024h205v-328h297q161 0 259.5 -97t98.5 -251t-98.5 -251t-259.5 -97h-502zM338 174h276q78 0 126 48t48 126t-48 126t-126 48h-276v-348z" />
    <glyph glyph-name="uni044D" unicode="&#x44d;" horiz-adv-x="1136" 
d="M72 348h204q21 -73 88 -128.5t179 -55.5t193 69.5t104 196.5h-410v174h410q-24 120 -105.5 188t-191.5 68q-197 0 -267 -174h-204q11 46 32 91.5t60 95t89.5 86.5t126 61t163.5 24q224 0 368 -148t144 -384t-144 -384t-368 -148q-109 0 -197 35t-142.5 92.5t-86 117.5
t-45.5 123z" />
    <glyph glyph-name="uni044E" unicode="&#x44e;" horiz-adv-x="1536" 
d="M133 0v1024h205v-410h141q7 63 29.5 123t63.5 116t95.5 98t131 67.5t164.5 25.5q218 0 354.5 -144.5t136.5 -387.5t-136.5 -387.5t-354.5 -144.5q-110 0 -200.5 38.5t-149 102t-93 140t-43.5 159.5h-139v-420h-205zM963 164q127 0 206.5 91.5t79.5 256.5t-79.5 256.5
t-206.5 91.5t-207 -91.5t-80 -256.5t80 -256.5t207 -91.5z" />
    <glyph glyph-name="uni044F" unicode="&#x44f;" horiz-adv-x="1075" 
d="M451 532h286v328h-286q-77 0 -126 -47t-49 -117t49 -117t126 -47zM51 0l359 369q-87 0 -163.5 40t-125.5 116t-49 171q0 140 99.5 234t258.5 94h512v-1024h-205v369h-82l-358 -369h-246z" />
    <glyph glyph-name="uni0450" unicode="&#x450;" 
d="M287 594h604q-18 125 -97 200.5t-200 75.5q-126 0 -204.5 -74t-102.5 -202zM840 297h215q-16 -43 -41 -84.5t-66 -84.5t-90.5 -75t-118 -52.5t-145.5 -20.5q-224 0 -368 148t-144 384t144 384t368 148q208 0 349.5 -143.5t141.5 -357.5q0 -20 -6 -74l-4 -29h-788
q17 -131 100.5 -208.5t206.5 -77.5q87 0 153 42t93 101zM492 1188l-246 297h225l205 -297h-184z" />
    <glyph glyph-name="uni0451" unicode="&#x451;" 
d="M287 594h604q-18 125 -97 200.5t-200 75.5q-126 0 -204.5 -74t-102.5 -202zM840 297h215q-16 -43 -41 -84.5t-66 -84.5t-90.5 -75t-118 -52.5t-145.5 -20.5q-224 0 -368 148t-144 384t144 384t368 148q208 0 349.5 -143.5t141.5 -357.5q0 -20 -6 -74l-4 -29h-788
q17 -131 100.5 -208.5t206.5 -77.5q87 0 153 42t93 101zM297 1229v205h205v-205h-205zM666 1229v205h204v-205h-204z" />
    <glyph glyph-name="uni0452" unicode="&#x452;" horiz-adv-x="1218" 
d="M164 0v1096h-164v184h164v154h205v-154h327v-184h-327v-277h10q39 39 76 62q96 61 221 61q186 0 297.5 -115.5t111.5 -314.5v-563q0 -171 -95 -265t-273 -94h-103v185h103q79 0 121.5 44.5t42.5 129.5v563q0 101 -71 173.5t-175 72.5q-114 0 -190 -72.5t-76 -173.5v-512
h-205z" />
    <glyph glyph-name="uni0453" unicode="&#x453;" horiz-adv-x="860" 
d="M133 0v1024h686v-195h-481v-829h-205zM389 1188l205 297h225l-246 -297h-184z" />
    <glyph glyph-name="uni0454" unicode="&#x454;" horiz-adv-x="1136" 
d="M297 604h410v-174h-410q23 -127 104 -196.5t193 -69.5t178.5 55.5t87.5 128.5h205q-14 -63 -45.5 -123t-86 -117.5t-142.5 -92.5t-197 -35q-224 0 -368 148t-144 384t144 384t368 148q88 0 163.5 -24t126 -61t89.5 -86.5t60 -95t32 -91.5h-205q-70 174 -266 174
q-110 0 -191.5 -68t-105.5 -188z" />
    <glyph glyph-name="uni0455" unicode="&#x455;" horiz-adv-x="993" 
d="M61 307h205q0 -54 62 -103.5t174 -49.5q107 0 161 39.5t54 93.5q0 56 -35 88t-119 45l-184 31q-150 25 -223.5 96.5t-73.5 200.5q0 130 105.5 213t304.5 83q85 0 157 -22t119 -57t80.5 -78t48 -83.5t14.5 -76.5h-204q0 54 -54.5 98.5t-160.5 44.5q-102 0 -153.5 -35
t-51.5 -87q0 -46 41 -77.5t112 -45.5l185 -31q297 -49 297 -307q0 -63 -26 -117.5t-76 -97.5t-132 -67.5t-186 -24.5q-94 0 -171.5 23.5t-126 59t-82 80.5t-47.5 86.5t-14 77.5z" />
    <glyph glyph-name="uni0456" unicode="&#x456;" horiz-adv-x="471" 
d="M133 0v1024h205v-1024h-205zM123 1219v215h225v-215h-225z" />
    <glyph glyph-name="uni0457" unicode="&#x457;" horiz-adv-x="471" 
d="M133 0v1024h205v-1024h-205zM-51 1229v205h205v-205h-205zM317 1229v205h205v-205h-205z" />
    <glyph glyph-name="uni0458" unicode="&#x458;" horiz-adv-x="471" 
d="M-92 -410v185h164q61 0 61 71v1178h205v-1219q0 -101 -58.5 -158t-166.5 -57h-205zM123 1219v215h225v-215h-225z" />
    <glyph glyph-name="uni0459" unicode="&#x459;" horiz-adv-x="1638" 
d="M10 -10v194h51q130 0 144 164l61 676h717v-369h246q160 0 254 -89t94 -238t-94 -238.5t-254 -89.5h-451v840h-321l-47 -523q-17 -170 -93.5 -248.5t-224.5 -78.5h-82zM983 174h225q77 0 120.5 42t43.5 112t-43.5 111.5t-120.5 41.5h-225v-307z" />
    <glyph glyph-name="uni045A" unicode="&#x45a;" horiz-adv-x="1648" 
d="M133 0v1024h205v-389h450v389h205v-389h256q152 0 245 -88.5t93 -229.5t-92.5 -229t-245.5 -88h-461v440h-450v-440h-205zM993 174h236q153 0 153 143q0 144 -153 144h-236v-287z" />
    <glyph glyph-name="uni045B" unicode="&#x45b;" horiz-adv-x="1218" 
d="M164 0v1096h-164v184h164v154h205v-154h327v-184h-327v-277h10q39 39 76 62q96 61 221 61q186 0 297.5 -115.5t111.5 -314.5v-512h-204v512q0 101 -71 173.5t-175 72.5q-114 0 -190 -72.5t-76 -173.5v-512h-205z" />
    <glyph glyph-name="uni045C" unicode="&#x45c;" horiz-adv-x="1024" 
d="M133 0v1024h205v-471l430 471h246l-461 -502l481 -522h-246l-450 492v-492h-205zM451 1188l204 297h226l-246 -297h-184z" />
    <glyph glyph-name="uni045D" unicode="&#x45d;" horiz-adv-x="1157" 
d="M133 0v1024h205v-737h41l348 737h297v-1024h-205v737h-41l-348 -737h-297zM492 1188l-246 297h225l205 -297h-184z" />
    <glyph glyph-name="uni045E" unicode="&#x45e;" horiz-adv-x="1054" 
d="M123 -410v185h205q28 0 45.5 19.5t23.5 41.5l33 92l-420 1096h215l297 -778h41l266 778h215l-450 -1260q-33 -90 -89.5 -132t-166.5 -42h-215zM236 1464h163q33 -133 144 -133q110 0 143 133h164q-8 -123 -92.5 -199.5t-214.5 -76.5t-214.5 76.5t-92.5 199.5z" />
    <glyph glyph-name="uni045F" unicode="&#x45f;" horiz-adv-x="1136" 
d="M133 0v1024h205v-840h461v840h205v-1024h-328v-246h-205v246h-338z" />
    <glyph glyph-name="uni0462" unicode="&#x462;" horiz-adv-x="1402" 
d="M287 0v1075h-287v195h287v164h215v-164h389v-195h-389v-215h389q192 0 311 -119t119 -311t-119 -311t-311 -119h-604zM502 205h379q109 0 167 58t58 167t-58 167t-167 58h-379v-450z" />
    <glyph glyph-name="uni0463" unicode="&#x463;" horiz-adv-x="1136" 
d="M236 0v881h-236v184h236v369h204v-369h297v-184h-297v-185h277q161 0 259.5 -97t98.5 -251t-98.5 -251t-259.5 -97h-481zM440 174h256q78 0 126 48t48 126t-48 126t-126 48h-256v-348z" />
    <glyph glyph-name="uni046A" unicode="&#x46a;" horiz-adv-x="1628" 
d="M82 0v133q0 276 130.5 448.5t371.5 227.5l-451 430v195h1362v-195l-451 -430q241 -55 371.5 -227.5t130.5 -448.5v-133h-215v133q0 240 -109.5 366t-299.5 126v-625h-215v625q-190 0 -300 -126t-110 -366v-133h-215zM410 1229l405 -389l404 389h-809z" />
    <glyph glyph-name="uni046B" unicode="&#x46b;" horiz-adv-x="1310" 
d="M369 850l280 -256h13l276 256h-569zM266 0h-205q0 230 108 382.5t282 190.5l-318 287v164h1045v-164l-318 -287q174 -38 281.5 -190t107.5 -383h-205q0 193 -78.5 297.5t-207.5 112.5v-410h-205v410q-129 -8 -208 -112.5t-79 -297.5z" />
    <glyph glyph-name="uni0472" unicode="&#x472;" horiz-adv-x="1556" 
d="M778 -20q-140 0 -266 54t-218.5 149t-147 234t-54.5 300t54.5 300t147 234t218.5 149t266 54t266 -54t218.5 -149t147 -234t54.5 -300t-54.5 -300t-147 -234t-218.5 -149t-266 -54zM311 635q24 -208 152 -329.5t315 -121.5q181 0 311 121t154 322q-80 -43 -209 -43
q-100 0 -264.5 46t-253.5 46q-135 0 -205 -41zM313 807q80 43 209 43q100 0 264.5 -46t253.5 -46q135 0 205 41q-25 206 -153 328t-314 122q-181 0 -311 -120.5t-154 -321.5z" />
    <glyph glyph-name="uni0473" unicode="&#x473;" horiz-adv-x="1187" 
d="M594 -20q-224 0 -368 148t-144 384t144 384t368 148t368 -148t144 -384t-144 -384t-368 -148zM895 594q-20 120 -105.5 193t-195.5 73q-109 0 -196.5 -73.5t-104.5 -192.5q16 2 43 10q45 10 104 10q56 0 154 -20.5t154 -20.5q23 0 46.5 2t40.5 5.5t30.5 6.5t21.5 5z
M293 430q17 -119 104.5 -192.5t196.5 -73.5q110 0 195.5 73t105.5 193q-27 -8 -43 -10q-52 -10 -104 -10q-56 0 -154 20.5t-154 20.5q-23 0 -46.5 -2t-40.5 -5.5t-30.5 -6.5t-21.5 -5z" />
    <glyph glyph-name="uni0474" unicode="&#x474;" horiz-adv-x="1413" 
d="M512 0l-502 1434h236l409 -1188h41l297 860q61 177 139.5 257.5t188.5 80.5q54 0 84 -10l29 -11v-215l-21 11q-23 10 -51 10q-49 0 -81 -30.5t-60 -113.5l-381 -1085h-328z" />
    <glyph glyph-name="uni0475" unicode="&#x475;" horiz-adv-x="1095" 
d="M369 0l-359 1024h215l277 -799h41l194 563q45 133 107 194.5t160 61.5q45 0 77 -16l25 -14v-174q-2 1 -16 10q-17 10 -46 10q-43 0 -62.5 -23t-39.5 -79l-266 -758h-307z" />
    <glyph glyph-name="uni048A" unicode="&#x48a;" horiz-adv-x="1495" 
d="M154 0v1434h215v-1117h41l573 1117h317v-1229h205v-31l-153 -461h-164l51 287h-154v1116h-41l-573 -1116h-317zM430 1874h164q33 -133 143 -133q111 0 144 133h163q-8 -123 -92.5 -200t-214.5 -77t-214.5 77t-92.5 200z" />
    <glyph glyph-name="uni048B" unicode="&#x48b;" horiz-adv-x="1208" 
d="M133 0v1024h205v-737h41l348 737h297v-840h184v-30l-143 -400h-143l41 246h-144v737h-41l-348 -737h-297zM276 1464h164q33 -133 144 -133q110 0 143 133h164q-8 -123 -92.5 -199.5t-214.5 -76.5t-215 76.5t-93 199.5z" />
    <glyph glyph-name="uni048C" unicode="&#x48c;" horiz-adv-x="1402" 
d="M287 0v1075h-287v195h287v164h215v-164h389v-195h-389v-215h389q192 0 311 -119t119 -311t-119 -311t-311 -119h-604zM502 205h379q109 0 167 58t58 167t-58 167t-167 58h-379v-450z" />
    <glyph glyph-name="uni048D" unicode="&#x48d;" horiz-adv-x="1136" 
d="M236 0v881h-236v184h236v369h204v-369h297v-184h-297v-185h277q161 0 259.5 -97t98.5 -251t-98.5 -251t-259.5 -97h-481zM440 174h256q78 0 126 48t48 126t-48 126t-126 48h-256v-348z" />
    <glyph glyph-name="uni048E" unicode="&#x48e;" horiz-adv-x="1310" 
d="M154 0v1434h645q180 0 300 -127.5t120 -333.5q0 -234 -158 -369l96 -133l-143 -82l-101 139q-62 -16 -114 -16h-430v-512h-215zM369 717h411l-94 133l143 82l105 -150q70 80 70 191q0 112 -63.5 184t-152.5 72h-419v-512z" />
    <glyph glyph-name="uni048F" unicode="&#x48f;" horiz-adv-x="1218" 
d="M133 -410v1434h184l21 -123h10q20 23 28 31.5t41 34.5t62 39t80 25.5t107 12.5q205 0 338 -145t133 -387q0 -253 -150 -403l98 -140l-133 -82l-92 133q-90 -40 -194 -40q-210 0 -318 143h-10v-533h-205zM745 186l-110 162l133 82l98 -145q66 95 66 227q0 156 -85.5 252
t-211.5 96t-211.5 -96t-85.5 -252t85.5 -252t211.5 -96q52 0 110 22z" />
    <glyph glyph-name="uni0490" unicode="&#x490;" horiz-adv-x="1116" 
d="M154 0v1434h706v286h215v-491h-706v-1229h-215z" />
    <glyph glyph-name="uni0491" unicode="&#x491;" horiz-adv-x="880" 
d="M133 0v1024h522v246h185v-441h-502v-829h-205z" />
    <glyph glyph-name="uni0492" unicode="&#x492;" 
d="M215 0v614h-195v205h195v615h901v-205h-686v-410h399v-205h-399v-614h-215z" />
    <glyph glyph-name="uni0493" unicode="&#x493;" horiz-adv-x="901" 
d="M174 0v410h-164v184h164v430h686v-195h-481v-235h348v-184h-348v-410h-205z" />
    <glyph glyph-name="uni0494" unicode="&#x494;" horiz-adv-x="1290" 
d="M154 0v1434h921v-205h-706v-481q41 21 80 34q113 37 227 37q231 0 376.5 -149.5t145.5 -393.5q0 -247 -150 -394.5t-403 -147.5v215q154 0 246 89.5t92 237.5q0 153 -90 245.5t-238 92.5q-109 0 -209 -47q-40 -19 -77 -45v-522h-215z" />
    <glyph glyph-name="uni0495" unicode="&#x495;" horiz-adv-x="1054" 
d="M133 0v1024h696v-184h-491v-318q30 17 63 31q86 31 162 31q196 0 313 -128.5t117 -363.5q0 -242 -118.5 -372t-321.5 -130v185q235 16 235 317q0 144 -66.5 220.5t-178.5 76.5q-80 0 -152 -37q-29 -15 -53 -35v-317h-205z" />
    <glyph glyph-name="uni0496" unicode="&#x496;" horiz-adv-x="1699" 
d="M-10 0l522 727l-481 707h256l450 -666v666h215v-666l451 666h256l-481 -707l374 -522h148v-492h-215v287h-41l-492 686v-686h-215v686l-491 -686h-256z" />
    <glyph glyph-name="uni0497" unicode="&#x497;" horiz-adv-x="1392" 
d="M0 0l389 522l-369 502h236l338 -471v471h205v-471l338 471h235l-368 -502l251 -338h138v-430h-205v246h-31l-358 502v-502h-205v502l-358 -502h-236z" />
    <glyph glyph-name="uni0498" unicode="&#x498;" horiz-adv-x="1239" 
d="M502 -287v273q-201 24 -315.5 140t-114.5 284h215q0 -98 81.5 -162t235.5 -64q160 0 244 64t84 162q0 94 -79 154.5t-208 60.5h-143v194h143q119 0 187.5 58t68.5 147q0 93 -76.5 159t-220.5 66q-142 0 -219.5 -64t-77.5 -161h-215q0 184 140 307t372 123q120 0 218 -34
t161.5 -92t98 -133.5t34.5 -160.5q0 -147 -102 -241q-52 -45 -103 -66v-10q59 -19 117 -64q119 -95 119 -254q0 -156 -114 -269t-316 -142v-275h-215z" />
    <glyph glyph-name="uni0499" unicode="&#x499;" horiz-adv-x="993" 
d="M379 -246v234q-150 24 -234 120t-84 220h195q0 -66 62.5 -120t162.5 -54q110 0 168 42t58 101q0 64 -55 103.5t-160 39.5h-103v164h103q89 0 141.5 38.5t52.5 94.5q0 57 -54.5 95t-150.5 38q-103 0 -154 -43t-51 -110h-204q0 136 112 231.5t297 95.5q194 0 302 -86
t108 -221q0 -102 -78 -168q-36 -28 -76 -43v-10q174 -46 174 -229q0 -114 -84 -196.5t-243 -104.5v-232h-205z" />
    <glyph glyph-name="uni049A" unicode="&#x49a;" horiz-adv-x="1208" 
d="M154 0v1434h215v-656l549 656h270l-594 -707l457 -522h147v-492h-215v287h-25l-589 676v-676h-215z" />
    <glyph glyph-name="uni049B" unicode="&#x49b;" horiz-adv-x="1034" 
d="M133 0v1024h205v-471l430 471h246l-461 -502l311 -338h170v-430h-205v246h-41l-450 492v-492h-205z" />
    <glyph glyph-name="uni049C" unicode="&#x49c;" horiz-adv-x="1331" 
d="M154 0v1434h215v-615h82v225h163v-225h64l362 615h271l-451 -707l492 -727h-271l-391 614h-76v-225h-163v225h-82v-614h-215z" />
    <glyph glyph-name="uni049D" unicode="&#x49d;" horiz-adv-x="1095" 
d="M133 0v1024h205v-410h72v174h133v-174h47l250 410h245l-317 -502l338 -522h-246l-282 451h-35v-185h-133v185h-72v-451h-205z" />
    <glyph glyph-name="uni049E" unicode="&#x49e;" horiz-adv-x="1259" 
d="M205 0v1106h-205v184h205v144h215v-144h153v-184h-153v-328l549 656h270l-594 -707l635 -727h-270l-590 676v-676h-215z" />
    <glyph glyph-name="uni049F" unicode="&#x49f;" horiz-adv-x="1054" 
d="M164 0v1106h-164v184h164v144h205v-144h235v-184h-235v-553l430 471h245l-460 -502l481 -522h-246l-450 492v-492h-205z" />
    <glyph glyph-name="uni04A0" unicode="&#x4a0;" horiz-adv-x="1300" 
d="M246 0v1229h-246v205h461v-656l549 656h270l-594 -707l635 -727h-270l-590 676v-676h-215z" />
    <glyph glyph-name="uni04A1" unicode="&#x4a1;" horiz-adv-x="1105" 
d="M215 0v840h-215v184h420v-471l430 471h246l-461 -502l481 -522h-246l-450 492v-492h-205z" />
    <glyph glyph-name="uni04A2" unicode="&#x4a2;" horiz-adv-x="1515" 
d="M154 0v1434h215v-605h727v605h215v-1229h153v-492h-215v287h-153v625h-727v-625h-215z" />
    <glyph glyph-name="uni04A3" unicode="&#x4a3;" horiz-adv-x="1208" 
d="M133 0v1024h205v-410h481v410h205v-840h143v-430h-204v246h-144v420h-481v-420h-205z" />
    <glyph glyph-name="uni04A4" unicode="&#x4a4;" horiz-adv-x="1976" 
d="M154 0v1434h215v-605h686v605h880v-205h-665v-1229h-215v625h-686v-625h-215z" />
    <glyph glyph-name="uni04A5" unicode="&#x4a5;" horiz-adv-x="1495" 
d="M133 0v1024h205v-410h450v410h666v-195h-461v-829h-205v420h-450v-420h-205z" />
    <glyph glyph-name="uni04A6" unicode="&#x4a6;" horiz-adv-x="2119" 
d="M154 0v1434h1065v-686q43 22 79 34q113 37 228 37q231 0 376.5 -149.5t145.5 -393.5q0 -247 -150 -394.5t-403 -147.5v205q154 0 246 91.5t92 245.5q0 153 -90 245.5t-238 92.5q-109 0 -209 -47q-40 -19 -77 -45v-522h-215v1229h-635v-1229h-215z" />
    <glyph glyph-name="uni04A7" unicode="&#x4a7;" horiz-adv-x="1658" 
d="M133 0v1024h819v-502q26 15 64 31q86 31 162 31q196 0 313 -128.5t117 -363.5q0 -229 -120.5 -365.5t-320.5 -136.5v185q111 8 173.5 89.5t62.5 227.5q0 140 -70.5 218.5t-175.5 78.5q-72 0 -149 -35q-31 -13 -56 -35v-319h-204v840h-410v-840h-205z" />
    <glyph glyph-name="uni04A8" unicode="&#x4a8;" horiz-adv-x="1669" 
d="M1495 184v-204q-266 0 -389 71q-144 -71 -338 -71q-141 0 -265.5 54t-215 149t-143 233.5t-52.5 300.5q0 158 53.5 297t142 234.5t206 150.5t243.5 55v-205q-84 0 -161.5 -37.5t-137 -105t-95.5 -169t-36 -220.5q0 -116 37.5 -216.5t100.5 -169.5t147 -108t176 -39
q85 0 133 11q-123 91 -194.5 242.5t-71.5 320.5q0 131 38 240.5t102.5 181.5t149.5 111.5t181 39.5t181 -39.5t149.5 -111.5t102.5 -181.5t38 -240.5q0 -168 -68.5 -313.5t-187.5 -239.5q26 -7 49 -10q64 -11 125 -11zM1106 276q112 64 184 190.5t72 281.5
q0 181 -74.5 279.5t-181.5 98.5t-181.5 -98.5t-74.5 -279.5q0 -155 72 -281.5t184 -190.5z" />
    <glyph glyph-name="uni04A9" unicode="&#x4a9;" horiz-adv-x="1259" 
d="M840 246q58 50 95.5 129.5t37.5 167.5q0 100 -41.5 157.5t-91.5 57.5t-91.5 -57.5t-41.5 -157.5q0 -88 37.5 -167.5t95.5 -129.5zM1137 164v-184q-181 0 -297 61q-100 -61 -236 -61q-104 0 -198 36t-166.5 102.5t-115 168.5t-42.5 225q0 120 39 221t105.5 168.5
t153.5 105t183 37.5v-184q-119 -8 -197.5 -102.5t-78.5 -245.5q0 -155 90 -251.5t217 -96.5q23 0 51 4l21 6q-164 164 -164 379q0 179 96.5 284t241.5 105q141 0 239.5 -105.5t98.5 -283.5q0 -215 -164 -379q31 -10 123 -10z" />
    <glyph glyph-name="uni04AA" unicode="&#x4aa;" horiz-adv-x="1495" 
d="M676 -287v275q-256 38 -420 235.5t-164 493.5q0 161 54.5 300t147 234t218.5 149t266 54q130 0 243 -42t192.5 -113.5t133 -160t76.5 -186.5h-225q-53 143 -166 220t-254 77q-205 0 -338 -145t-133 -387t133 -387.5t338 -145.5q85 0 157.5 26t123.5 70.5t85.5 98
t53.5 113.5h225q-19 -81 -60 -159t-104.5 -150.5t-158.5 -124.5t-209 -70v-275h-215z" />
    <glyph glyph-name="uni04AB" unicode="&#x4ab;" horiz-adv-x="1136" 
d="M492 -246v236q-185 33 -297.5 173.5t-112.5 348.5q0 236 144 384t368 148q88 0 163.5 -25t126 -63.5t89.5 -89.5t60 -97.5t32 -92.5h-205q-29 80 -93.5 132t-172.5 52q-133 0 -220 -95.5t-87 -252.5t87 -252.5t220 -95.5q111 0 178 59.5t88 134.5h205q-9 -43 -26.5 -86.5
t-48.5 -90t-71 -84t-98 -67t-125 -40.5v-236h-204z" />
    <glyph glyph-name="uni04AC" unicode="&#x4ac;" horiz-adv-x="1198" 
d="M645 -287v287h-153v1229h-451v205h1116v-205h-450v-1024h153v-492h-215z" />
    <glyph glyph-name="uni04AD" unicode="&#x4ad;" horiz-adv-x="942" 
d="M512 -246v246h-143v829h-338v195h880v-195h-338v-645h144v-430h-205z" />
    <glyph glyph-name="uni04AE" unicode="&#x4ae;" horiz-adv-x="1239" 
d="M512 0v512l-522 922h237l377 -666h41l367 666h237l-522 -922v-512h-215z" />
    <glyph glyph-name="uni04AF" unicode="&#x4af;" horiz-adv-x="1044" 
d="M420 -410v410h-41l-369 1024h215l279 -778h37l278 778h215l-368 -1024h-41v-410h-205z" />
    <glyph glyph-name="uni04B0" unicode="&#x4b0;" horiz-adv-x="1239" 
d="M512 0v512h-328v195h217l-411 727h237l377 -666h41l367 666h237l-411 -727h217v-195h-328v-512h-215z" />
    <glyph glyph-name="uni04B1" unicode="&#x4b1;" horiz-adv-x="1044" 
d="M420 -410v410h-246v184h137l-301 840h215l279 -778h37l278 778h215l-301 -840h137v-184h-245v-410h-205z" />
    <glyph glyph-name="uni04B2" unicode="&#x4b2;" horiz-adv-x="1290" 
d="M0 0l512 737l-481 697h245l349 -502h41l348 502h246l-482 -697l369 -532h143v-492h-215v287h-31l-378 543h-41l-379 -543h-246z" />
    <glyph glyph-name="uni04B3" unicode="&#x4b3;" horiz-adv-x="1024" 
d="M10 0l348 532l-338 492h236l236 -348h40l236 348h236l-338 -492l227 -348h131v-430h-205v246h-41l-246 379h-40l-246 -379h-236z" />
    <glyph glyph-name="uni04B4" unicode="&#x4b4;" horiz-adv-x="1720" 
d="M410 0v1229h-400v205h1004v-205h-389v-1024h675v1229h216v-1229h153v-492h-215v287h-1044z" />
    <glyph glyph-name="uni04B5" unicode="&#x4b5;" horiz-adv-x="1372" 
d="M317 0v840h-286v184h768v-184h-277v-656h461v840h205v-840h143v-430h-205v246h-809z" />
    <glyph glyph-name="uni04B6" unicode="&#x4b6;" horiz-adv-x="1423" 
d="M1157 -287v287h-153v573q-46 -34 -101 -61q-124 -61 -268 -61q-502 0 -502 522v461h215v-451q0 -169 76 -248.5t231 -79.5q140 0 258 66q55 28 91 67v646h215v-1229h153v-492h-215z" />
    <glyph glyph-name="uni04B7" unicode="&#x4b7;" horiz-adv-x="1157" 
d="M911 -246v246h-143v379q-126 -82 -287 -82q-180 0 -274 100t-94 299v328h204v-317q0 -215 215 -215q135 0 236 81v451h205v-840h143v-430h-205z" />
    <glyph glyph-name="uni04B8" unicode="&#x4b8;" horiz-adv-x="1372" 
d="M594 266v185q-461 21 -461 522v461h215v-451q0 -152 60.5 -230.5t185.5 -95.5v265h164v-256q97 17 182 73q34 19 64 49v646h215v-1434h-215v573q-28 -22 -66 -43q-85 -50 -180 -67v-197h-164z" />
    <glyph glyph-name="uni04B9" unicode="&#x4b9;" horiz-adv-x="1105" 
d="M481 184v113q-180 0 -274 100t-94 299v328h204v-317q0 -189 164 -213v202h133v-196q84 17 154 73v451h205v-1024h-205v379q-66 -46 -154 -68v-127h-133z" />
    <glyph glyph-name="uni04BA" unicode="&#x4ba;" horiz-adv-x="1372" 
d="M154 0v1434h215v-574q52 39 100 62q124 61 268 61q502 0 502 -522v-461h-215v451q0 169 -76 248t-231 79q-138 0 -258 -67q-49 -25 -90 -66v-645h-215z" />
    <glyph glyph-name="uni04BB" unicode="&#x4bb;" horiz-adv-x="1187" 
d="M143 0v1434h205v-512h10q36 36 76 61q96 61 221 61q186 0 298 -115.5t112 -314.5v-614h-205v614q0 101 -71 173.5t-175 72.5q-114 0 -190 -72.5t-76 -173.5v-614h-205z" />
    <glyph glyph-name="uni04BC" unicode="&#x4bc;" horiz-adv-x="1751" 
d="M528 809h916q-7 191 -135.5 315.5t-315.5 124.5q-184 0 -316 -124.5t-149 -315.5zM0 870v82h184v-41q0 -102 103 -102h24q15 137 72 256t145 205t208.5 135t256.5 49q192 0 344.5 -90t237 -249t84.5 -357v-133h-1131q17 -191 149 -316t316 -125q138 0 246.5 69t163.5 187
h235q-69 -209 -245.5 -334.5t-399.5 -125.5q-140 0 -261.5 50.5t-208.5 138.5t-142 205.5t-70 250.5h-55q-139 0 -197.5 57t-58.5 188z" />
    <glyph glyph-name="uni04BD" unicode="&#x4bd;" horiz-adv-x="1331" 
d="M0 666v41h164v-21q0 -53 16.5 -72.5t55.5 -19.5h14q25 203 165 326.5t343 123.5q208 0 349.5 -143.5t141.5 -357.5q0 -20 -6 -74l-4 -29h-788q17 -131 100.5 -208.5t206.5 -77.5q87 0 153 42t93 101h215q-16 -43 -41 -84.5t-66 -84.5t-90.5 -75t-118 -52.5t-145.5 -20.5
q-206 0 -345.5 125.5t-164.5 334.5h-43q-114 0 -159.5 51t-45.5 175zM451 594h604q-18 125 -97 200.5t-200 75.5q-126 0 -204.5 -74t-102.5 -202z" />
    <glyph glyph-name="uni04BE" unicode="&#x4be;" horiz-adv-x="1751" 
d="M881 -287v275q-236 36 -390.5 214t-179.5 423h-55q-139 0 -197.5 57t-58.5 188v82h184v-41q0 -102 103 -102h24q15 137 72 256t145 205t208.5 135t256.5 49q192 0 344.5 -90t237 -249t84.5 -357v-133h-1131q17 -191 149 -316t316 -125q138 0 246.5 69t163.5 187h235
q-61 -181 -203.5 -301t-328.5 -149v-277h-225zM528 809h916q-7 191 -135.5 315.5t-315.5 124.5q-184 0 -316 -124.5t-149 -315.5z" />
    <glyph glyph-name="uni04BF" unicode="&#x4bf;" horiz-adv-x="1331" 
d="M655 -246v236q-167 28 -277 148.5t-130 301.5h-43q-114 0 -159.5 51t-45.5 175v41h164v-21q0 -53 16.5 -72.5t55.5 -19.5h14q25 203 165 326.5t343 123.5q208 0 349.5 -143.5t141.5 -357.5q0 -20 -6 -74l-4 -29h-788q17 -131 100.5 -208.5t206.5 -77.5q87 0 153 42
t93 101h215q-17 -47 -46.5 -92t-73 -90t-105.5 -78.5t-134 -46.5v-236h-205zM451 594h604q-18 125 -97 200.5t-200 75.5q-126 0 -204.5 -74t-102.5 -202z" />
    <glyph glyph-name="uni04C0" unicode="&#x4c0;" horiz-adv-x="522" 
d="M154 0v1434h215v-1434h-215z" />
    <glyph glyph-name="uni04C1" unicode="&#x4c1;" horiz-adv-x="1689" 
d="M-10 0l522 727l-481 707h256l450 -666v666h215v-666l451 666h256l-481 -707l522 -727h-256l-492 686v-686h-215v686l-491 -686h-256zM532 1864h164q33 -133 144 -133q110 0 143 133h164q-8 -123 -92.5 -200t-214.5 -77t-215 77t-93 200z" />
    <glyph glyph-name="uni04C2" unicode="&#x4c2;" horiz-adv-x="1392" 
d="M0 0l389 522l-369 502h236l338 -471v471h205v-471l338 471h235l-368 -502l389 -522h-236l-358 502v-502h-205v502l-358 -502h-236zM389 1464h164q33 -133 143 -133q111 0 144 133h164q-8 -123 -93 -199.5t-215 -76.5t-214.5 76.5t-92.5 199.5z" />
    <glyph glyph-name="uni04C3" unicode="&#x4c3;" horiz-adv-x="1280" 
d="M154 0v1434h215v-656l549 656h270l-518 -619q6 0 12 2q2 0 17 1t28 1q212 0 341.5 -145.5t129.5 -376.5q0 -273 -148.5 -418t-414.5 -145v205q171 0 259.5 90t88.5 268q0 153 -90 245.5t-238 92.5q-109 0 -209 -47q-40 -19 -77 -45v-543h-215z" />
    <glyph glyph-name="uni04C4" unicode="&#x4c4;" horiz-adv-x="1095" 
d="M532 -420v195q142 0 219.5 85.5t77.5 252.5q0 145 -75.5 226t-200.5 81q-55 0 -108.5 -18t-76 -32t-30.5 -22v-348h-205v1024h205v-471l430 471h246l-400 -430q192 -18 306 -141t114 -340q0 -260 -130.5 -396.5t-371.5 -136.5z" />
    <glyph glyph-name="uni04C5" unicode="&#x4c5;" horiz-adv-x="1443" 
d="M10 -10v215h72q139 0 154 164l88 1065h925v-1229h205v-31l-154 -461h-163l51 287h-154v1229h-510l-73 -891q-30 -348 -349 -348h-92z" />
    <glyph glyph-name="uni04C6" unicode="&#x4c6;" horiz-adv-x="1177" 
d="M10 -10v194h51q130 0 144 164l61 676h727v-840h185v-30l-144 -400h-143l41 246h-144v840h-331l-47 -523q-17 -170 -93.5 -248.5t-224.5 -78.5h-82z" />
    <glyph glyph-name="uni04C7" unicode="&#x4c7;" horiz-adv-x="1464" 
d="M154 0v1434h215v-605h727v605h215v-1475q0 -200 -88 -289.5t-281 -89.5h-41v215h31q164 0 164 154v676h-727v-625h-215z" />
    <glyph glyph-name="uni04C8" unicode="&#x4c8;" horiz-adv-x="1157" 
d="M133 0v1024h205v-410h481v410h205v-1116q0 -328 -328 -328h-51v195h31q78 0 110.5 32.5t32.5 110.5v502h-481v-420h-205z" />
    <glyph glyph-name="uni04C9" unicode="&#x4c9;" horiz-adv-x="1505" 
d="M154 0v1434h215v-605h727v605h215v-1229h205v-31l-154 -461h-164l51 287h-153v625h-727v-625h-215z" />
    <glyph glyph-name="uni04CA" unicode="&#x4ca;" horiz-adv-x="1208" 
d="M133 0v1024h205v-410h481v410h205v-840h184v-30l-143 -400h-143l41 246h-144v420h-481v-420h-205z" />
    <glyph glyph-name="uni04CB" unicode="&#x4cb;" horiz-adv-x="1372" 
d="M850 -287v471h154v389q-46 -34 -101 -61q-124 -61 -268 -61q-502 0 -502 522v461h215v-451q0 -169 76 -248.5t231 -79.5q140 0 258 66q55 28 91 67v646h215v-1434h-154v-287h-215z" />
    <glyph glyph-name="uni04CC" unicode="&#x4cc;" horiz-adv-x="1105" 
d="M614 -246v410h154v215q-126 -82 -287 -82q-180 0 -274 100t-94 299v328h204v-317q0 -215 215 -215q135 0 236 81v451h205v-1024h-144v-246h-215z" />
    <glyph glyph-name="uni04CD" unicode="&#x4cd;" horiz-adv-x="1884" 
d="M154 0v1434h368l379 -1127h41l379 1127h369v-1229h204v-31l-153 -461h-164l51 287h-153v1096h-41l-369 -1096h-287l-368 1096h-41v-1096h-215z" />
    <glyph glyph-name="uni04CE" unicode="&#x4ce;" horiz-adv-x="1525" 
d="M133 0v1024h338l246 -748h41l246 748h337v-840h185v-30l-144 -400h-143l41 246h-143v748h-41l-246 -748h-225l-246 748h-41v-748h-205z" />
    <glyph glyph-name="uni04CF" unicode="&#x4cf;" horiz-adv-x="491" 
d="M143 0v1434h205v-1434h-205z" />
    <glyph glyph-name="uni04D0" unicode="&#x4d0;" horiz-adv-x="1372" 
d="M0 0l522 1434h328l522 -1434h-235l-123 338h-656l-122 -338h-236zM430 532h512l-235 656h-41zM379 1864h164q33 -133 143 -133t143 133h164q-8 -123 -92.5 -200t-214.5 -77t-214.5 77t-92.5 200z" />
    <glyph glyph-name="uni04D1" unicode="&#x4d1;" horiz-adv-x="1095" 
d="M799 0l-21 113h-10q-30 -41 -74 -68q-97 -65 -233 -65q-167 0 -268 88t-101 229q0 159 105.5 248.5t314.5 89.5h256v20q0 100 -57.5 157.5t-157.5 57.5q-98 0 -152 -44t-63 -99h-205q8 135 121.5 226t298.5 91q199 0 309.5 -104.5t110.5 -284.5v-655h-174zM768 430v41
h-246q-112 0 -168.5 -45.5t-56.5 -118.5q0 -71 47 -112t137 -41q139 0 213 72.5t74 203.5zM246 1464h164q33 -133 143 -133t143 133h164q-8 -123 -92.5 -199.5t-214.5 -76.5t-214.5 76.5t-92.5 199.5z" />
    <glyph glyph-name="uni04D2" unicode="&#x4d2;" horiz-adv-x="1372" 
d="M0 0l522 1434h328l522 -1434h-235l-123 338h-656l-122 -338h-236zM430 532h512l-235 656h-41zM399 1628v205h205v-205h-205zM768 1628v205h205v-205h-205z" />
    <glyph glyph-name="uni04D3" unicode="&#x4d3;" horiz-adv-x="1095" 
d="M799 0l-21 113h-10q-30 -41 -74 -68q-97 -65 -233 -65q-167 0 -268 88t-101 229q0 159 105.5 248.5t314.5 89.5h256v20q0 100 -57.5 157.5t-157.5 57.5q-98 0 -152 -44t-63 -99h-205q8 135 121.5 226t298.5 91q199 0 309.5 -104.5t110.5 -284.5v-655h-174zM768 430v41
h-246q-112 0 -168.5 -45.5t-56.5 -118.5q0 -71 47 -112t137 -41q139 0 213 72.5t74 203.5zM266 1229v205h205v-205h-205zM635 1229v205h205v-205h-205z" />
    <glyph glyph-name="uni04D6" unicode="&#x4d6;" horiz-adv-x="1208" 
d="M154 0v1434h942v-205h-727v-410h686v-205h-686v-409h727v-205h-942zM317 1864h164q33 -133 144 -133q110 0 143 133h164q-8 -123 -92.5 -200t-214.5 -77t-215 77t-93 200z" />
    <glyph glyph-name="uni04D7" unicode="&#x4d7;" 
d="M287 594h604q-18 125 -97 200.5t-200 75.5q-126 0 -204.5 -74t-102.5 -202zM840 297h215q-16 -43 -41 -84.5t-66 -84.5t-90.5 -75t-118 -52.5t-145.5 -20.5q-224 0 -368 148t-144 384t144 384t368 148q208 0 349.5 -143.5t141.5 -357.5q0 -20 -6 -74l-4 -29h-788
q17 -131 100.5 -208.5t206.5 -77.5q87 0 153 42t93 101zM276 1464h164q33 -133 144 -133q110 0 143 133h164q-8 -123 -92.5 -199.5t-214.5 -76.5t-215 76.5t-93 199.5z" />
    <glyph glyph-name="uni04D8" unicode="&#x4d8;" horiz-adv-x="1536" 
d="M1223 625h-916q7 -191 135.5 -316t315.5 -125q185 0 315 124t150 317zM92 676v133h1131q-20 193 -150 316.5t-315 123.5q-138 0 -246.5 -69t-163.5 -187h-235q69 209 245.5 335t399.5 126q140 0 266 -54t218.5 -149t147 -234t54.5 -300t-54.5 -300t-147 -234t-218.5 -149
t-266 -54q-192 0 -344.5 90t-237 249t-84.5 357z" />
    <glyph glyph-name="uni04D9" unicode="&#x4d9;" 
d="M881 430h-605q18 -125 97 -200.5t200 -75.5q127 0 205.5 74.5t102.5 201.5zM92 584h789q-17 130 -101 208t-207 78q-87 0 -152.5 -42t-92.5 -101h-215q16 43 41 84.5t66 84.5t90 75t118 52.5t145 20.5q224 0 368 -148t144 -384t-144 -384t-368 -148q-208 0 -349.5 143.5
t-141.5 357.5q0 38 4 74z" />
    <glyph glyph-name="uni04DA" unicode="&#x4da;" horiz-adv-x="1536" 
d="M1223 625h-916q7 -191 135.5 -316t315.5 -125q185 0 315 124t150 317zM92 676v133h1131q-20 193 -150 316.5t-315 123.5q-138 0 -246.5 -69t-163.5 -187h-235q69 209 245.5 335t399.5 126q140 0 266 -54t218.5 -149t147 -234t54.5 -300t-54.5 -300t-147 -234t-218.5 -149
t-266 -54q-192 0 -344.5 90t-237 249t-84.5 357zM481 1628v205h205v-205h-205zM850 1628v205h205v-205h-205z" />
    <glyph glyph-name="uni04DB" unicode="&#x4db;" 
d="M881 430h-605q18 -125 97 -200.5t200 -75.5q127 0 205.5 74.5t102.5 201.5zM92 584h789q-17 130 -101 208t-207 78q-87 0 -152.5 -42t-92.5 -101h-215q16 43 41 84.5t66 84.5t90 75t118 52.5t145 20.5q224 0 368 -148t144 -384t-144 -384t-368 -148q-208 0 -349.5 143.5
t-141.5 357.5q0 38 4 74zM287 1229v205h205v-205h-205zM655 1229v205h205v-205h-205z" />
    <glyph glyph-name="uni04DC" unicode="&#x4dc;" horiz-adv-x="1689" 
d="M-10 0l522 727l-481 707h256l450 -666v666h215v-666l451 666h256l-481 -707l522 -727h-256l-492 686v-686h-215v686l-491 -686h-256zM553 1628v205h205v-205h-205zM922 1628v205h204v-205h-204z" />
    <glyph glyph-name="uni04DD" unicode="&#x4dd;" horiz-adv-x="1392" 
d="M0 0l389 522l-369 502h236l338 -471v471h205v-471l338 471h235l-368 -502l389 -522h-236l-358 502v-502h-205v502l-358 -502h-236zM410 1229v205h204v-205h-204zM778 1229v205h205v-205h-205z" />
    <glyph glyph-name="uni04DE" unicode="&#x4de;" horiz-adv-x="1239" 
d="M72 410h215q0 -98 81.5 -162t235.5 -64q160 0 244 64t84 162q0 94 -79 154.5t-208 60.5h-143v194h143q119 0 187.5 58t68.5 147q0 93 -76.5 159t-220.5 66q-142 0 -219.5 -64t-77.5 -161h-215q0 184 140 307t372 123q120 0 218 -34t161.5 -92t98 -133.5t34.5 -160.5
q0 -147 -102 -241q-52 -45 -103 -66v-10q59 -19 117 -64q119 -95 119 -254q0 -85 -36.5 -160.5t-104 -133.5t-171.5 -91.5t-231 -33.5q-248 0 -390 120.5t-142 309.5zM328 1628v205h204v-205h-204zM696 1628v205h205v-205h-205z" />
    <glyph glyph-name="uni04DF" unicode="&#x4df;" horiz-adv-x="993" 
d="M61 328h195q0 -66 62.5 -120t162.5 -54q110 0 168 42t58 101q0 64 -55 103.5t-160 39.5h-103v164h103q89 0 141.5 38.5t52.5 94.5q0 57 -54.5 95t-150.5 38q-103 0 -154 -43t-51 -110h-204q0 136 112 231.5t297 95.5q194 0 302 -86t108 -221q0 -102 -78 -168
q-36 -28 -76 -43v-10q174 -46 174 -229q0 -131 -112.5 -219t-317.5 -88q-198 0 -309 101t-111 247zM205 1229v205h205v-205h-205zM573 1229v205h205v-205h-205z" />
    <glyph glyph-name="uni04E0" unicode="&#x4e0;" horiz-adv-x="1218" 
d="M61 389h215q0 -93 75.5 -149t242.5 -56q152 0 240 68t88 178q0 113 -81 179.5t-237 66.5h-287v184l471 369h-686v205h994v-185l-482 -379v-10h41q219 0 350.5 -123t131.5 -317q0 -197 -144 -318.5t-399 -121.5q-266 0 -399.5 111.5t-133.5 297.5z" />
    <glyph glyph-name="uni04E1" unicode="&#x4e1;" horiz-adv-x="1044" 
d="M51 -10h205q0 -102 70.5 -169t185.5 -67q117 0 186.5 71.5t69.5 194.5q0 125 -76 196t-221 71h-215v174l399 379h-553v184h830v-174l-400 -379v-10q192 0 316.5 -117t124.5 -324q0 -202 -126.5 -326t-334.5 -124t-334.5 122.5t-126.5 297.5z" />
    <glyph glyph-name="uni04E2" unicode="&#x4e2;" horiz-adv-x="1454" 
d="M154 0v1434h215v-1117h41l573 1117h317v-1434h-215v1116h-41l-573 -1116h-317zM420 1638v164h614v-164h-614z" />
    <glyph glyph-name="uni04E3" unicode="&#x4e3;" horiz-adv-x="1157" 
d="M133 0v1024h205v-737h41l348 737h297v-1024h-205v737h-41l-348 -737h-297zM276 1249v164h615v-164h-615z" />
    <glyph glyph-name="uni04E4" unicode="&#x4e4;" horiz-adv-x="1454" 
d="M154 0v1434h215v-1117h41l573 1117h317v-1434h-215v1116h-41l-573 -1116h-317zM440 1628v205h205v-205h-205zM809 1628v205h205v-205h-205z" />
    <glyph glyph-name="uni04E5" unicode="&#x4e5;" horiz-adv-x="1157" 
d="M133 0v1024h205v-737h41l348 737h297v-1024h-205v737h-41l-348 -737h-297zM297 1229v205h205v-205h-205zM666 1229v205h204v-205h-204z" />
    <glyph glyph-name="uni04E6" unicode="&#x4e6;" horiz-adv-x="1556" 
d="M778 -20q-140 0 -266 54t-218.5 149t-147 234t-54.5 300t54.5 300t147 234t218.5 149t266 54t266 -54t218.5 -149t147 -234t54.5 -300t-54.5 -300t-147 -234t-218.5 -149t-266 -54zM778 1249q-205 0 -338 -145t-133 -387t133 -387.5t338 -145.5t338 145.5t133 387.5
t-133 387t-338 145zM492 1628v205h204v-205h-204zM860 1628v205h205v-205h-205z" />
    <glyph glyph-name="uni04E7" unicode="&#x4e7;" horiz-adv-x="1187" 
d="M594 164q133 0 220 95.5t87 252.5t-87 252.5t-220 95.5t-220 -95.5t-87 -252.5t87 -252.5t220 -95.5zM594 -20q-224 0 -368 148t-144 384t144 384t368 148t368 -148t144 -384t-144 -384t-368 -148zM307 1229v205h205v-205h-205zM676 1229v205h205v-205h-205z" />
    <glyph glyph-name="uni04E8" unicode="&#x4e8;" horiz-adv-x="1556" 
d="M778 -20q-140 0 -266 54t-218.5 149t-147 234t-54.5 300t54.5 300t147 234t218.5 149t266 54t266 -54t218.5 -149t147 -234t54.5 -300t-54.5 -300t-147 -234t-218.5 -149t-266 -54zM311 799h934q-25 206 -153 328t-314 122t-314 -122t-153 -328zM1245 635h-934
q24 -208 152 -329.5t315 -121.5t315 121.5t152 329.5z" />
    <glyph glyph-name="uni04E9" unicode="&#x4e9;" horiz-adv-x="1187" 
d="M594 -20q-224 0 -368 148t-144 384t144 384t368 148t368 -148t144 -384t-144 -384t-368 -148zM293 594h600q-23 123 -104 194.5t-195 71.5q-116 0 -197 -71t-104 -195zM895 440h-604q20 -129 102.5 -202.5t200.5 -73.5t199.5 73.5t101.5 202.5z" />
    <glyph glyph-name="uni04EA" unicode="&#x4ea;" horiz-adv-x="1556" 
d="M778 -20q-140 0 -266 54t-218.5 149t-147 234t-54.5 300t54.5 300t147 234t218.5 149t266 54t266 -54t218.5 -149t147 -234t54.5 -300t-54.5 -300t-147 -234t-218.5 -149t-266 -54zM311 799h934q-25 206 -153 328t-314 122t-314 -122t-153 -328zM1245 635h-934
q24 -208 152 -329.5t315 -121.5t315 121.5t152 329.5zM492 1628v205h204v-205h-204zM860 1628v205h205v-205h-205z" />
    <glyph glyph-name="uni04EB" unicode="&#x4eb;" horiz-adv-x="1187" 
d="M594 -20q-224 0 -368 148t-144 384t144 384t368 148t368 -148t144 -384t-144 -384t-368 -148zM293 594h600q-23 123 -104 194.5t-195 71.5q-116 0 -197 -71t-104 -195zM895 440h-604q20 -129 102.5 -202.5t200.5 -73.5t199.5 73.5t101.5 202.5zM307 1229v205h205v-205
h-205zM676 1229v205h205v-205h-205z" />
    <glyph glyph-name="uni04EC" unicode="&#x4ec;" horiz-adv-x="1495" 
d="M72 492h225q19 -60 53.5 -113.5t85.5 -98t123.5 -70.5t157.5 -26q182 0 308 115.5t155 314.5h-637v205h637q-29 199 -155 314.5t-308 115.5q-141 0 -255 -77.5t-165 -219.5h-225q23 98 76.5 186.5t133 160t192.5 113.5t243 42q140 0 266 -54t218.5 -149t147 -234
t54.5 -300t-54.5 -300t-147 -234t-218.5 -149t-266 -54q-112 0 -210.5 32t-170 83.5t-127.5 119.5t-89 137.5t-48 139.5zM440 1628v205h205v-205h-205zM809 1628v205h205v-205h-205z" />
    <glyph glyph-name="uni04ED" unicode="&#x4ed;" horiz-adv-x="1136" 
d="M72 348h204q21 -73 88 -128.5t179 -55.5t193 69.5t104 196.5h-410v174h410q-24 120 -105.5 188t-191.5 68q-197 0 -267 -174h-204q11 46 32 91.5t60 95t89.5 86.5t126 61t163.5 24q224 0 368 -148t144 -384t-144 -384t-368 -148q-109 0 -197 35t-142.5 92.5t-86 117.5
t-45.5 123zM276 1229v205h205v-205h-205zM645 1229v205h205v-205h-205z" />
    <glyph glyph-name="uni04EE" unicode="&#x4ee;" horiz-adv-x="1280" 
d="M205 0v205h205q45 0 67 14.5t35 46.5l31 72l-533 1096h236l389 -809h41l358 809h236l-574 -1260q-78 -174 -286 -174h-205zM348 1638v164h615v-164h-615z" />
    <glyph glyph-name="uni04EF" unicode="&#x4ef;" horiz-adv-x="1054" 
d="M123 -410v185h205q28 0 45.5 19.5t23.5 41.5l33 92l-420 1096h215l297 -778h41l266 778h215l-450 -1260q-33 -90 -89.5 -132t-166.5 -42h-215zM236 1249v164h614v-164h-614z" />
    <glyph glyph-name="uni04F0" unicode="&#x4f0;" horiz-adv-x="1280" 
d="M205 0v205h205q45 0 67 14.5t35 46.5l31 72l-533 1096h236l389 -809h41l358 809h236l-574 -1260q-78 -174 -286 -174h-205zM369 1628v205h204v-205h-204zM737 1628v205h205v-205h-205z" />
    <glyph glyph-name="uni04F1" unicode="&#x4f1;" horiz-adv-x="1054" 
d="M123 -410v185h205q28 0 45.5 19.5t23.5 41.5l33 92l-420 1096h215l297 -778h41l266 778h215l-450 -1260q-33 -90 -89.5 -132t-166.5 -42h-215zM256 1229v205h205v-205h-205zM625 1229v205h204v-205h-204z" />
    <glyph glyph-name="uni04F2" unicode="&#x4f2;" horiz-adv-x="1280" 
d="M205 0v205h205q45 0 67 14.5t35 46.5l31 72l-533 1096h236l389 -809h41l358 809h236l-574 -1260q-78 -174 -286 -174h-205zM399 1577l205 297h205l-236 -297h-174zM748 1577l204 297h205l-235 -297h-174z" />
    <glyph glyph-name="uni04F3" unicode="&#x4f3;" horiz-adv-x="1054" 
d="M123 -410v185h205q28 0 45.5 19.5t23.5 41.5l33 92l-420 1096h215l297 -778h41l266 778h215l-450 -1260q-33 -90 -89.5 -132t-166.5 -42h-215zM287 1188l205 297h204l-235 -297h-174zM635 1188l205 297h204l-235 -297h-174z" />
    <glyph glyph-name="uni04F4" unicode="&#x4f4;" horiz-adv-x="1372" 
d="M1004 0v573q-46 -34 -101 -61q-124 -61 -268 -61q-502 0 -502 522v461h215v-451q0 -169 76 -248.5t231 -79.5q140 0 258 66q55 28 91 67v646h215v-1434h-215zM389 1628v205h205v-205h-205zM758 1628v205h205v-205h-205z" />
    <glyph glyph-name="uni04F5" unicode="&#x4f5;" horiz-adv-x="1105" 
d="M768 0v379q-126 -82 -287 -82q-180 0 -274 100t-94 299v328h204v-317q0 -215 215 -215q135 0 236 81v451h205v-1024h-205zM256 1229v205h205v-205h-205zM625 1229v205h204v-205h-204z" />
    <glyph glyph-name="uni04F6" unicode="&#x4f6;" horiz-adv-x="1116" 
d="M307 -287v287h-153v1434h921v-205h-706v-1024h153v-492h-215z" />
    <glyph glyph-name="uni04F7" unicode="&#x4f7;" horiz-adv-x="860" 
d="M276 -246v246h-143v1024h686v-195h-481v-645h143v-430h-205z" />
    <glyph glyph-name="uni04F8" unicode="&#x4f8;" horiz-adv-x="1689" 
d="M1321 0v1434h215v-1434h-215zM369 205h348q102 0 168.5 70.5t66.5 185.5t-66.5 185.5t-168.5 70.5h-348v-512zM154 0v1434h215v-512h358q186 0 313 -131.5t127 -329.5t-127 -329.5t-313 -131.5h-573zM563 1628v205h205v-205h-205zM932 1628v205h205v-205h-205z" />
    <glyph glyph-name="uni04F9" unicode="&#x4f9;" horiz-adv-x="1433" 
d="M1096 0v1024h204v-1024h-204zM133 0v1024h205v-328h266q161 0 260 -97t99 -251t-99 -251t-260 -97h-471zM338 174h246q78 0 126 48t48 126t-48 126t-126 48h-246v-348zM430 1229v205h205v-205h-205zM799 1229v205h205v-205h-205z" />
    <glyph glyph-name="uni04FA" unicode="&#x4fa;" 
d="M246 -430v205h41q82 0 82 112v113h-154v614h-195v205h195v615h901v-205h-686v-410h399v-205h-399v-409h154v-297q0 -190 -67 -264t-230 -74h-41z" />
    <glyph glyph-name="uni04FB" unicode="&#x4fb;" horiz-adv-x="901" 
d="M184 -379v184h41q92 0 92 123v72h-143v410h-164v184h164v430h686v-195h-481v-235h348v-184h-348v-246h143v-256q0 -161 -61 -224t-215 -63h-62z" />
    <glyph glyph-name="uni04FC" unicode="&#x4fc;" horiz-adv-x="1290" 
d="M0 0l512 737l-481 697h245l349 -502h41l348 502h246l-482 -697l369 -532q65 -94 99 -171t34 -167q0 -133 -85 -210t-243 -77h-61v215h41q133 0 133 103q0 17 -4 36t-14.5 41.5t-17.5 38t-24 42.5t-23.5 36.5t-27 39t-22.5 32.5l-266 379h-41l-379 -543h-246z" />
    <glyph glyph-name="uni04FD" unicode="&#x4fd;" horiz-adv-x="1024" 
d="M10 0l348 532l-338 492h236l236 -348h40l236 348h236l-338 -492l194 -296q2 -3 18.5 -28.5t21 -32.5t19.5 -32t21 -36.5t19 -36t18.5 -39.5t14 -38.5t12.5 -42t7 -40.5t3 -43q0 -134 -86 -210.5t-252 -76.5h-51v195h41q143 0 143 102q0 74 -123 266l-154 236h-40
l-246 -379h-236z" />
    <glyph glyph-name="uni04FE" unicode="&#x4fe;" horiz-adv-x="1290" 
d="M0 0l451 645h-267v184h267l-420 605h245l349 -502h41l348 502h246l-420 -605h266v-184h-266l450 -645h-246l-378 543h-41l-379 -543h-246z" />
    <glyph glyph-name="uni04FF" unicode="&#x4ff;" horiz-adv-x="1024" 
d="M10 0l295 451h-172v163h168l-281 410h236l236 -348h40l236 348h236l-283 -410h170v-163h-172l295 -451h-236l-246 379h-40l-246 -379h-236z" />
    <glyph glyph-name="uni0510" unicode="&#x510;" horiz-adv-x="1239" 
d="M328 717v10q-51 21 -103 66q-102 94 -102 241q0 85 34.5 160.5t98 133.5t161.5 92t218 34t219.5 -34t165 -91.5t101.5 -133.5t36 -161h-215q0 92 -80 153.5t-227 61.5q-144 0 -220.5 -66t-76.5 -159q0 -89 68.5 -147t187.5 -58h143v-194h-143q-129 0 -208 -60.5
t-79 -154.5q0 -99 83.5 -162.5t244.5 -63.5q160 0 244 61.5t84 153.5h215q0 -183 -144.5 -301t-398.5 -118q-128 0 -232 33.5t-171.5 91.5t-103.5 133.5t-36 160.5q0 161 117 254q57 44 119 64z" />
    <glyph glyph-name="uni0511" unicode="&#x511;" horiz-adv-x="1013" 
d="M256 516v10q-41 14 -78 43q-76 64 -76 168q0 135 108 221t302 86q185 0 302.5 -94.5t117.5 -222.5h-205q0 59 -56 101t-159 42q-96 0 -150.5 -38t-54.5 -95q0 -56 53 -94.5t142 -38.5h102v-164h-102q-105 0 -160 -39.5t-55 -103.5q0 -59 57.5 -101t167.5 -42
q108 0 172 51.5t64 111.5h194q0 -65 -29 -125t-82 -107.5t-136 -76t-183 -28.5q-205 0 -317.5 88t-112.5 219q0 183 174 229z" />
    <glyph glyph-name="uni0512" unicode="&#x512;" horiz-adv-x="1402" 
d="M10 -10v215h72q139 0 154 164l88 1065h925v-1475q0 -200 -87.5 -289.5t-280.5 -89.5h-41v215h30q164 0 164 154v1280h-510l-73 -891q-30 -348 -349 -348h-92z" />
    <glyph glyph-name="uni0513" unicode="&#x513;" horiz-adv-x="1126" 
d="M10 -10v194h51q130 0 144 164l61 676h727v-1116q0 -328 -327 -328h-52v195h31q78 0 110.5 32.5t32.5 110.5v922h-331l-47 -523q-17 -170 -93.5 -248.5t-224.5 -78.5h-82z" />
    <glyph glyph-name="Wgrave" unicode="&#x1e80;" horiz-adv-x="2007" 
d="M379 0l-359 1434h236l276 -1127h41l297 1127h267l297 -1127h41l276 1127h236l-359 -1434h-328l-276 1075h-41l-276 -1075h-328zM911 1577l-245 297h225l205 -297h-185z" />
    <glyph glyph-name="wgrave" unicode="&#x1e81;" horiz-adv-x="1617" 
d="M297 0l-277 1024h216l194 -758h41l201 758h274l201 -758h41l194 758h215l-276 -1024h-297l-195 737h-41l-194 -737h-297zM717 1188l-246 297h225l205 -297h-184z" />
    <glyph glyph-name="Wacute" unicode="&#x1e82;" horiz-adv-x="2007" 
d="M379 0l-359 1434h236l276 -1127h41l297 1127h267l297 -1127h41l276 1127h236l-359 -1434h-328l-276 1075h-41l-276 -1075h-328zM911 1577l205 297h225l-245 -297h-185z" />
    <glyph glyph-name="wacute" unicode="&#x1e83;" horiz-adv-x="1617" 
d="M297 0l-277 1024h216l194 -758h41l201 758h274l201 -758h41l194 758h215l-276 -1024h-297l-195 737h-41l-194 -737h-297zM717 1188l205 297h225l-246 -297h-184z" />
    <glyph glyph-name="Wdieresis" unicode="&#x1e84;" horiz-adv-x="2007" 
d="M379 0l-359 1434h236l276 -1127h41l297 1127h267l297 -1127h41l276 1127h236l-359 -1434h-328l-276 1075h-41l-276 -1075h-328zM717 1628v205h205v-205h-205zM1085 1628v205h205v-205h-205z" />
    <glyph glyph-name="wdieresis" unicode="&#x1e85;" horiz-adv-x="1617" 
d="M297 0l-277 1024h216l194 -758h41l201 758h274l201 -758h41l194 758h215l-276 -1024h-297l-195 737h-41l-194 -737h-297zM522 1229v205h205v-205h-205zM891 1229v205h205v-205h-205z" />
    <glyph glyph-name="uni1E9E" unicode="&#x1e9e;" horiz-adv-x="1392" 
d="M143 0v1036q0 185 109 291.5t301 106.5h686v-195l-369 -389v-10q82 0 158 -27.5t137.5 -78.5t98 -132.5t36.5 -181.5q0 -180 -130.5 -300t-340.5 -120h-194v205h184q120 0 193 65t73 160t-73 160t-193 65h-194v195l358 379h-399q-108 0 -167 -57t-59 -156v-1016h-215z
" />
    <glyph glyph-name="Ygrave" unicode="&#x1ef2;" horiz-adv-x="1239" 
d="M512 0v512l-522 922h237l377 -666h41l367 666h237l-522 -922v-512h-215zM532 1577l-245 297h225l205 -297h-185z" />
    <glyph glyph-name="ygrave" unicode="&#x1ef3;" horiz-adv-x="1054" 
d="M123 -410v185h205q28 0 45.5 19.5t23.5 41.5l33 92l-420 1096h215l297 -778h41l266 778h215l-450 -1260q-33 -90 -89.5 -132t-166.5 -42h-215zM451 1188l-246 297h225l205 -297h-184z" />
    <glyph glyph-name="endash" unicode="&#x2013;" horiz-adv-x="1136" 
d="M72 492v184h993v-184h-993z" />
    <glyph glyph-name="emdash" unicode="&#x2014;" horiz-adv-x="1525" 
d="M72 492v184h1382v-184h-1382z" />
    <glyph glyph-name="quoteleft" unicode="&#x2018;" horiz-adv-x="460" 
d="M92 1024l92 410h174l-41 -410h-225z" />
    <glyph glyph-name="quoteright" unicode="&#x2019;" horiz-adv-x="460" 
d="M102 1024l41 410h226l-93 -410h-174z" />
    <glyph glyph-name="quotesinglbase" unicode="&#x201a;" horiz-adv-x="481" 
d="M92 -174l41 410h236l-113 -410h-164z" />
    <glyph glyph-name="quotedblleft" unicode="&#x201c;" horiz-adv-x="798" 
d="M430 1024l92 410h174l-41 -410h-225zM92 1024l92 410h174l-41 -410h-225z" />
    <glyph glyph-name="quotedblright" unicode="&#x201d;" horiz-adv-x="798" 
d="M440 1024l41 410h226l-93 -410h-174zM102 1024l41 410h226l-93 -410h-174z" />
    <glyph glyph-name="quotedblbase" unicode="&#x201e;" horiz-adv-x="819" 
d="M430 -174l41 410h236l-113 -410h-164zM92 -174l41 410h236l-113 -410h-164z" />
    <glyph glyph-name="dagger" unicode="&#x2020;" horiz-adv-x="962" 
d="M379 0v922h-287v184h287v328h205v-328h286v-184h-286v-922h-205z" />
    <glyph glyph-name="daggerdbl" unicode="&#x2021;" horiz-adv-x="962" 
d="M379 0v379h-287v184h287v359h-287v184h287v328h205v-328h286v-184h-286v-359h286v-184h-286v-379h-205z" />
    <glyph glyph-name="bullet" unicode="&#x2022;" horiz-adv-x="942" 
d="M471 328q-94 0 -159.5 65.5t-65.5 159.5q0 91 66 158t159 67q91 0 158 -67t67 -158q0 -93 -67 -159t-158 -66z" />
    <glyph glyph-name="ellipsis" unicode="&#x2026;" horiz-adv-x="1464" 
d="M614 0v236h236v-236h-236zM1106 0v236h235v-236h-235zM123 0v236h235v-236h-235z" />
    <glyph glyph-name="perthousand" unicode="&#x2030;" horiz-adv-x="2375" 
d="M256 0l891 1434h205l-891 -1434h-205zM399 963q70 0 112 43t42 120t-42 120.5t-112 43.5t-111.5 -43.5t-41.5 -120.5t41.5 -120t111.5 -43zM72 1126q0 138 94.5 233t232.5 95t233 -95t95 -233t-95 -232.5t-233 -94.5t-232.5 94.5t-94.5 232.5zM1208 143q70 0 112 43.5
t42 120.5t-42 120.5t-112 43.5t-111.5 -43.5t-41.5 -120.5t41.5 -120.5t111.5 -43.5zM881 307q0 138 94.5 233t232.5 95t233 -95t95 -233t-95 -232.5t-233 -94.5t-232.5 94.5t-94.5 232.5zM1976 143q70 0 112 43.5t42 120.5t-42 120.5t-112 43.5t-111.5 -43.5t-41.5 -120.5
t41.5 -120.5t111.5 -43.5zM1649 307q0 138 94.5 233t232.5 95t233 -95t95 -233t-95 -232.5t-233 -94.5t-232.5 94.5t-94.5 232.5z" />
    <glyph glyph-name="guilsinglleft" unicode="&#x2039;" horiz-adv-x="665" 
d="M369 102l-287 410l287 410h215l-287 -410l287 -410h-215z" />
    <glyph glyph-name="guilsinglright" unicode="&#x203a;" horiz-adv-x="665" 
d="M82 102l287 410l-287 410h215l287 -410l-287 -410h-215z" />
    <glyph glyph-name="uni203D" unicode="&#x203d;" horiz-adv-x="1054" 
d="M563 813l31 16q89 43 131.5 84.5t42.5 110.5q0 88 -55.5 147.5t-149.5 73.5v-432zM399 369v862q-67 -24 -100 -73.5t-33 -113.5h-215q0 173 126 291.5t335 118.5q211 0 341 -115.5t130 -294.5q0 -251 -225 -358q-81 -36 -112.5 -86.5t-31.5 -118.5v-112h-215zM389 0v236
h236v-236h-236z" />
    <glyph glyph-name="fraction" unicode="&#x2044;" horiz-adv-x="256" 
d="M-399 0l891 1434h163l-891 -1434h-163z" />
    <glyph glyph-name="uni2070" unicode="&#x2070;" horiz-adv-x="737" 
d="M215 1270q0 -123 43.5 -184.5t110.5 -61.5t110 61.5t43 184.5t-43 184.5t-110 61.5t-110.5 -61.5t-43.5 -184.5zM666 1270q0 -178 -84.5 -278.5t-212.5 -100.5t-212.5 100.5t-84.5 278.5t84.5 278.5t212.5 100.5t212.5 -100.5t84.5 -278.5z" />
    <glyph glyph-name="uni2074" unicode="&#x2074;" horiz-adv-x="665" 
d="M20 1044v123l277 471h205v-460h102v-134h-102v-143h-144v143h-338zM195 1178h163v266h-20l-143 -256v-10z" />
    <glyph glyph-name="uni2075" unicode="&#x2075;" horiz-adv-x="696" 
d="M72 1116h143q9 -36 41 -64t82 -28q61 0 97 34t36 89q0 54 -34.5 88.5t-88.5 34.5q-86 0 -133 -62h-133l41 430h450v-133h-327l-17 -143h11q45 41 129 41q102 0 173.5 -71.5t71.5 -184.5q0 -118 -73.5 -187t-202.5 -69q-113 0 -180.5 60.5t-85.5 164.5z" />
    <glyph glyph-name="uni2076" unicode="&#x2076;" horiz-adv-x="706" 
d="M225 1147q0 -55 36 -89t97 -34t97.5 34t36.5 89t-36.5 89t-97.5 34t-97 -34t-36 -89zM133 1321l205 317h154l-164 -256l18 4q3 0 18.5 3.5t24.5 3.5q100 0 173 -69t73 -167q0 -116 -77.5 -191t-199.5 -75t-199 75t-77 191q0 95 51 164z" />
    <glyph glyph-name="uni2077" unicode="&#x2077;" horiz-adv-x="604" 
d="M174 901l256 604h-338v133h481v-133l-256 -604h-143z" />
    <glyph glyph-name="uni2078" unicode="&#x2078;" horiz-adv-x="696" 
d="M184 1280v10q-22 10 -47 35q-45 49 -45 119q0 80 75.5 142.5t180.5 62.5t180.5 -62.5t75.5 -142.5q0 -68 -47 -119q-25 -25 -45 -35v-10q32 -18 51 -37q51 -55 51 -137q0 -89 -73.5 -152t-192.5 -63t-192.5 63t-73.5 152q0 86 51 137q19 19 51 37zM236 1434
q0 -38 32.5 -65.5t79.5 -27.5t80 27.5t33 65.5t-33 65t-80 27t-79.5 -27t-32.5 -65zM225 1116q0 -40 35.5 -71t87.5 -31t87.5 31t35.5 71q0 47 -34 75t-89 28t-89 -28t-34 -75z" />
    <glyph glyph-name="uni2079" unicode="&#x2079;" horiz-adv-x="675" 
d="M215 1393q0 -55 36 -89t97 -34t97 34t36 89t-36 89t-97 34t-97 -34t-36 -89zM215 901l164 256l-19 -6q-28 -4 -43 -4q-100 0 -172.5 68.5t-72.5 166.5q0 116 77 191.5t199 75.5t199.5 -75.5t77.5 -191.5q0 -93 -52 -163l-204 -318h-154z" />
    <glyph glyph-name="uni2080" unicode="&#x2080;" horiz-adv-x="737" 
d="M215 164q0 -123 43.5 -184.5t110.5 -61.5t110 61.5t43 184.5t-43 184.5t-110 61.5t-110.5 -61.5t-43.5 -184.5zM666 164q0 -178 -84.5 -278.5t-212.5 -100.5t-212.5 100.5t-84.5 278.5t84.5 278.5t212.5 100.5t212.5 -100.5t84.5 -278.5z" />
    <glyph glyph-name="uni2081" unicode="&#x2081;" horiz-adv-x="542" 
d="M246 -205v512h-174v133h112q62 0 62 62v30h143v-737h-143z" />
    <glyph glyph-name="uni2082" unicode="&#x2082;" horiz-adv-x="696" 
d="M102 -205v113l287 287q62 62 62 122q0 47 -28 75t-75 28q-53 0 -82.5 -34t-29.5 -89h-144q0 110 70 178t186 68q110 0 178 -63t68 -163q0 -64 -26 -109t-87 -106l-174 -174v-10h297v-123h-502z" />
    <glyph glyph-name="uni2083" unicode="&#x2083;" horiz-adv-x="696" 
d="M82 10h143q0 -40 31 -71t82 -31q54 0 83.5 27t29.5 75t-31.5 75.5t-91.5 27.5h-62v123h62q52 0 82 26t30 66q0 39 -28 65.5t-74 26.5t-74 -26.5t-28 -65.5h-144q0 88 71 151.5t175 63.5q114 0 180 -58t66 -147q0 -102 -92 -154v-10q102 -57 102 -164q0 -96 -71.5 -160.5
t-184.5 -64.5q-114 0 -185 63.5t-71 161.5z" />
    <glyph glyph-name="uni2084" unicode="&#x2084;" horiz-adv-x="665" 
d="M20 -61v122l277 471h205v-460h102v-133h-102v-144h-144v144h-338zM195 72h163v266h-20l-143 -256v-10z" />
    <glyph glyph-name="uni2085" unicode="&#x2085;" horiz-adv-x="696" 
d="M72 10h143q9 -36 41 -64t82 -28q61 0 97 34t36 89q0 54 -34.5 88.5t-88.5 34.5q-86 0 -133 -62h-133l41 430h450v-133h-327l-17 -143h11q45 41 129 41q102 0 173.5 -71.5t71.5 -184.5q0 -118 -73.5 -187t-202.5 -69q-113 0 -180.5 60.5t-85.5 164.5z" />
    <glyph glyph-name="uni2086" unicode="&#x2086;" horiz-adv-x="706" 
d="M225 41q0 -55 36 -89t97 -34t97.5 34t36.5 89t-36.5 89t-97.5 34t-97 -34t-36 -89zM133 215l205 317h154l-164 -256l18 5q42 6 43 6q100 0 173 -69t73 -167q0 -116 -77.5 -191t-199.5 -75t-199 75t-77 191q0 95 51 164z" />
    <glyph glyph-name="uni2087" unicode="&#x2087;" horiz-adv-x="604" 
d="M174 -205l256 604h-338v133h481v-133l-256 -604h-143z" />
    <glyph glyph-name="uni2088" unicode="&#x2088;" horiz-adv-x="696" 
d="M184 174v10q-22 10 -47 35q-45 49 -45 119q0 80 75.5 142.5t180.5 62.5t180.5 -62.5t75.5 -142.5q0 -68 -47 -119q-25 -25 -45 -35v-10q32 -17 51 -37q51 -55 51 -137q0 -89 -73.5 -152t-192.5 -63t-192.5 63t-73.5 152q0 86 51 137q19 19 51 37zM236 328q0 -38 32.5 -65
t79.5 -27t80 27t33 65t-33 65t-80 27t-79.5 -27t-32.5 -65zM225 10q0 -40 35.5 -71t87.5 -31t87.5 31t35.5 71q0 47 -34 75t-89 28t-89 -28t-34 -75z" />
    <glyph glyph-name="uni2089" unicode="&#x2089;" horiz-adv-x="675" 
d="M215 287q0 -55 36 -89t97 -34t97 34t36 89t-36 89t-97 34t-97 -34t-36 -89zM215 -205l164 256l-19 -6q-28 -4 -43 -4q-100 0 -172.5 68.5t-72.5 166.5q0 116 77 191.5t199 75.5t199.5 -75.5t77.5 -191.5q0 -93 -52 -163l-204 -318h-154z" />
    <glyph glyph-name="uni20A9" unicode="&#x20a9;" horiz-adv-x="2007" 
d="M1323 614h174l43 205h-264zM510 614h174l45 205h-262zM881 614h243l-45 205h-153zM573 307h41l27 123h-94zM1393 307h41l24 123h-94zM967 1004h71l-14 71h-41zM420 0l-96 430h-263v184h222l-45 205h-177v185h136l-95 430h236l90 -430h344l98 430h267l96 -430h346l90 430
h236l-97 -430h138v-185h-179l-45 -205h224v-184h-265l-94 -430h-327l-95 430h-323l-94 -430h-328z" />
    <glyph glyph-name="Euro" unicode="&#x20ac;" horiz-adv-x="1454" 
d="M51 481v154h174v164h-174v153h195q12 59 44 123.5t91 133t134.5 122.5t184.5 88.5t232 34.5q268 0 430 -92v-205q-44 21 -56.5 27t-62.5 25t-86 27t-95 16t-120 8q-95 0 -176.5 -27.5t-136.5 -73.5t-91.5 -98t-56.5 -109h604v-153h-634v-164h634v-154h-604
q20 -57 56.5 -109t91.5 -97.5t136.5 -73t176.5 -27.5q230 0 420 102v-204q-162 -92 -430 -92q-123 0 -232 34.5t-184.5 88t-134.5 122t-91 133t-44 123.5h-195z" />
    <glyph glyph-name="uni20B4" unicode="&#x20b4;" horiz-adv-x="1320" 
d="M92 788v164h758q15 12 24 33q27 44 27 100q0 74 -63 129.5t-172 55.5q-117 0 -182.5 -50.5t-84.5 -134.5h-215q18 162 142.5 265.5t339.5 103.5q100 0 186 -30t143 -79.5t89 -114t32 -134.5q0 -65 -20 -111q-9 -21 -21 -33h154v-164h-1137zM92 481v164h1137v-164h-758
q-20 -16 -27 -32q-24 -39 -24 -101q0 -74 63 -129t172 -55q123 0 186 48.5t91 135.5h215q-18 -162 -145.5 -265t-346.5 -103q-100 0 -186 30t-143 79.5t-89 114t-32 134.5q0 65 20 111q8 19 21 32h-154z" />
    <glyph glyph-name="uni20B8" unicode="&#x20b8;" horiz-adv-x="1218" 
d="M502 0v881h-451v204h1116v-204h-450v-881h-215zM51 1229v205h1116v-205h-1116z" />
    <glyph glyph-name="uni20B9" unicode="&#x20b9;" 
d="M82 522v195h461q168 0 215 164h-676v194h676q-47 164 -215 164h-461v195h1024v-195h-195q14 -17 23 -39q18 -35 41 -125h131v-194h-131q-32 -170 -141 -264.5t-271 -94.5h-61l512 -522h-277l-512 522h-143z" />
    <glyph glyph-name="uni20BA" unicode="&#x20ba;" horiz-adv-x="1228" 
d="M246 0v559l-185 -72v179l185 71v144l-185 -72v184l185 72v369h215v-295l348 135v-187l-348 -135v-141l348 135v-176l-348 -135v-430q148 0 248.5 22t158 68t81.5 108t24 150h215q0 -111 -22.5 -195.5t-75.5 -153.5t-139 -113t-213.5 -67.5t-297.5 -23.5h-194z" />
    <glyph glyph-name="uni20BD" unicode="&#x20bd;" horiz-adv-x="1331" 
d="M225 0v266h-174v185h174v143h-174v205h174v635h615q185 0 297 -114.5t112 -305.5t-112 -305.5t-297 -114.5h-400v-143h441v-185h-441v-266h-215zM440 799h389q93 0 149 58t56 157t-56 157t-149 58h-389v-430z" />
    <glyph glyph-name="uni20BF" unicode="&#x20bf;" horiz-adv-x="1331" 
d="M154 0v1434h225v225h184v-225h133v225h185v-236q141 -29 229 -136.5t88 -252.5q0 -135 -78 -233q-34 -43 -76 -74v-10q47 -26 86 -74q89 -106 89 -244q0 -152 -95 -261t-243 -134v-229h-185v225h-133v-225h-184v225h-225zM369 195h430q85 0 145 62t60 153t-60 153
t-145 62h-430v-430zM369 809h409q85 0 145 62t60 153t-60 153t-145 62h-409v-430z" />
    <glyph glyph-name="uni2113" unicode="&#x2113;" horiz-adv-x="839" 
d="M41 451v153q77 0 135 14q42 14 49 17v522q0 145 68 221t188 76q126 0 201.5 -85t75.5 -243q0 -195 -101.5 -355t-267.5 -249v-246q0 -67 40 -105t103 -38q40 0 80 14l33 17v-154l-45 -16q-47 -14 -98 -14q-132 0 -204.5 74t-72.5 212v215q-9 -3 -27 -8t-26 -8
q-58 -14 -131 -14zM389 1137v-435q91 60 148 171t57 253q0 88 -31 131t-82 43q-92 0 -92 -163z" />
    <glyph glyph-name="uni2116" unicode="&#x2116;" horiz-adv-x="2211" 
d="M1475 0v176h634v-176h-634zM1628 635q0 -69 47.5 -116.5t116.5 -47.5t116.5 47.5t47.5 116.5t-47.5 116.5t-116.5 47.5t-116.5 -47.5t-47.5 -116.5zM154 0v1434h327l553 -1117h41v1117h215v-1434h-327l-553 1116h-41v-1116h-215zM1464 635q0 138 95 233t233 95t233 -95
t95 -233t-95 -233t-233 -95t-233 95t-95 233z" />
    <glyph glyph-name="uni2117" unicode="&#x2117;" horiz-adv-x="1720" 
d="M768 727h174q113 0 113 113q0 112 -113 112h-174v-225zM123 717q0 155 56.5 292t154 234.5t234.5 154t292 56.5t292 -56.5t234.5 -154t154 -234.5t56.5 -292t-56.5 -292t-154 -234.5t-234.5 -154t-292 -56.5t-292 56.5t-234.5 154t-154 234.5t-56.5 292zM860 133
q245 0 409.5 166.5t164.5 417.5t-164.5 417t-409.5 166q-163 0 -294 -75t-205 -208.5t-74 -299.5q0 -252 163 -418t410 -166zM614 348v737h338q116 0 186 -67.5t70 -177.5t-70 -178t-186 -68h-184v-246h-154z" />
    <glyph glyph-name="trademark" unicode="&#x2122;" horiz-adv-x="1556" 
d="M236 819v471h-195v144h532v-144h-194v-471h-143zM676 819v615h235l144 -430h20l144 430h235v-615h-143v430h-21l-143 -430h-164l-143 430h-21v-430h-143z" />
    <glyph glyph-name="uni2126" unicode="&#x2126;" horiz-adv-x="1679" 
d="M184 0v164h256q-90 57 -159 137q-158 190 -158 436q0 151 55 284.5t149.5 228t228 149.5t284.5 55q202 0 366 -93t257 -257.5t93 -366.5q0 -254 -159 -436q-70 -82 -158 -137h256v-164h-522v164q119 52 205 129q204 173 204 444q0 156 -71.5 283t-195.5 198.5t-275 71.5
t-275 -71.5t-196 -198.5t-72 -283q0 -146 58 -257t147 -187q86 -77 205 -129v-164h-523z" />
    <glyph glyph-name="estimated" unicode="&#x212e;" horiz-adv-x="1740" 
d="M451 778h860v441q-180 163 -430 163t-430 -163v-441zM451 707v-488q51 -48 116 -84q148 -84 334 -84q243 0 428 154q87 71 146 153l61 -51q-75 -98 -164 -164q-217 -163 -471 -163q-158 0 -299 58t-241.5 156.5t-159 235t-58.5 287.5q0 202 98.5 371.5t268 267.5
t371.5 98q151 0 287.5 -58t235 -156.5t156.5 -235t58 -287.5v-10h-1167z" />
    <glyph glyph-name="uni2150" unicode="&#x2150;" horiz-adv-x="1382" 
d="M133 0l891 1434h164l-891 -1434h-164zM256 696v512h-174v133h113q61 0 61 62v31h143v-738h-143zM932 0l256 604h-338v133h481v-133l-256 -604h-143z" />
    <glyph glyph-name="uni2151" unicode="&#x2151;" horiz-adv-x="1454" 
d="M133 0l891 1434h164l-891 -1434h-164zM256 696v512h-174v133h113q61 0 61 62v31h143v-738h-143zM952 492q0 -55 36 -89t97 -34t97.5 34t36.5 89q0 54 -36.5 88t-97.5 34t-97 -33.5t-36 -88.5zM952 0l164 256l-18 -6q-28 -4 -43 -4q-100 0 -173 68.5t-73 166.5
q0 116 77 191.5t199 75.5t199.5 -75.5t77.5 -191.5q0 -95 -51 -164l-205 -317h-154z" />
    <glyph glyph-name="uni2152" unicode="&#x2152;" horiz-adv-x="1935" 
d="M133 0l891 1434h164l-891 -1434h-164zM256 696v512h-174v133h113q61 0 61 62v31h143v-738h-143zM1004 0v512h-175v133h113q62 0 62 62v30h143v-737h-143zM1403 369q0 -123 43 -184.5t110 -61.5t110.5 61.5t43.5 184.5t-43.5 184t-110.5 61t-110 -61t-43 -184zM1853 369
q0 -178 -84.5 -278.5t-212.5 -100.5t-212 100.5t-84 278.5t84 278.5t212 100.5t212.5 -100.5t84.5 -278.5z" />
    <glyph glyph-name="onethird" unicode="&#x2153;" horiz-adv-x="1443" 
d="M133 0l891 1434h164l-891 -1434h-164zM256 696v512h-174v133h113q61 0 61 62v31h143v-738h-143zM819 215h144q0 -40 30.5 -71t81.5 -31q54 0 83.5 27t29.5 75t-31.5 75t-91.5 27h-61v123h61q52 0 82.5 26t30.5 66q0 39 -28.5 66t-74.5 27t-74 -27t-28 -66h-144
q0 88 71 152t175 64q114 0 180 -58t66 -147q0 -102 -92 -154v-10q102 -57 102 -164q0 -96 -71.5 -160.5t-184.5 -64.5q-114 0 -185 63.5t-71 161.5z" />
    <glyph glyph-name="twothirds" unicode="&#x2154;" horiz-adv-x="1587" 
d="M276 0l891 1434h164l-891 -1434h-164zM92 696v113l287 287q61 61 61 123q0 47 -27.5 74.5t-74.5 27.5q-53 0 -83 -34t-30 -89h-143q0 110 70 178t186 68q110 0 178 -62.5t68 -162.5q0 -64 -26 -109t-87 -106l-174 -175v-10h297v-123h-502zM963 215h143q0 -40 31 -71
t82 -31q53 0 82.5 27t29.5 75t-31.5 75t-91.5 27h-61v123h61q52 0 82.5 26t30.5 66q0 39 -28 66t-74 27t-74.5 -27t-28.5 -66h-143q0 88 71 152t175 64q114 0 179.5 -58t65.5 -147q0 -102 -92 -154v-10q103 -58 103 -164q0 -96 -71.5 -160.5t-184.5 -64.5q-114 0 -185 63.5
t-71 161.5z" />
    <glyph glyph-name="uni2155" unicode="&#x2155;" horiz-adv-x="1454" 
d="M133 0l891 1434h164l-891 -1434h-164zM256 696v512h-174v133h113q61 0 61 62v31h143v-738h-143zM829 215h144q9 -36 41 -64t82 -28q61 0 97 34t36 89q0 54 -34.5 88.5t-88.5 34.5q-86 0 -133 -62h-133l41 430h450v-133h-327l-17 -143h10q45 41 129 41q102 0 174 -71.5
t72 -184.5q0 -118 -73.5 -187t-202.5 -69q-113 0 -181 60.5t-86 164.5z" />
    <glyph glyph-name="uni2156" unicode="&#x2156;" horiz-adv-x="1587" 
d="M276 0l891 1434h164l-891 -1434h-164zM92 696v113l287 287q61 61 61 123q0 47 -27.5 74.5t-74.5 27.5q-53 0 -83 -34t-30 -89h-143q0 110 70 178t186 68q110 0 178 -62.5t68 -162.5q0 -64 -26 -109t-87 -106l-174 -175v-10h297v-123h-502zM963 215h143q9 -36 41 -64
t82 -28q61 0 97 34t36 89q0 54 -34.5 88.5t-88.5 34.5q-86 0 -133 -62h-133l41 430h450v-133h-327l-17 -143h10q45 41 130 41q102 0 173.5 -71.5t71.5 -184.5q0 -118 -73.5 -187t-202.5 -69q-113 0 -180.5 60.5t-85.5 164.5z" />
    <glyph glyph-name="uni2157" unicode="&#x2157;" horiz-adv-x="1576" 
d="M256 0l891 1434h164l-891 -1434h-164zM82 911h143q0 -40 31 -71t82 -31q54 0 83.5 27t29.5 75t-31.5 75.5t-91.5 27.5h-62v123h62q52 0 82 26t30 66q0 39 -28 65.5t-74 26.5t-74 -26.5t-28 -65.5h-144q0 88 71 151.5t175 63.5q114 0 180 -58t66 -147q0 -102 -92 -154v-10
q102 -57 102 -164q0 -96 -71.5 -160.5t-184.5 -64.5q-114 0 -185 63.5t-71 161.5zM952 215h144q9 -36 41 -64t82 -28q61 0 97 34t36 89q0 54 -34.5 88.5t-88.5 34.5q-86 0 -133 -62h-133l41 430h450v-133h-328l-16 -143h10q45 41 129 41q102 0 174 -71.5t72 -184.5
q0 -118 -73.5 -187t-202.5 -69q-113 0 -181 60.5t-86 164.5z" />
    <glyph glyph-name="uni2158" unicode="&#x2158;" horiz-adv-x="1556" 
d="M246 0l891 1434h163l-890 -1434h-164zM41 840v123l276 471h205v-461h103v-133h-103v-144h-143v144h-338zM215 973h164v266h-21l-143 -256v-10zM932 215h143q9 -36 41 -64t82 -28q61 0 97 34t36 89q0 54 -34.5 88.5t-88.5 34.5q-86 0 -133 -62h-133l41 430h451v-133h-328
l-16 -143h10q45 41 129 41q102 0 174 -71.5t72 -184.5q0 -118 -73.5 -187t-203.5 -69q-113 0 -180.5 60.5t-85.5 164.5z" />
    <glyph glyph-name="uni2159" unicode="&#x2159;" horiz-adv-x="1392" 
d="M133 0l891 1434h164l-891 -1434h-164zM256 696v512h-174v133h113q61 0 61 62v31h143v-738h-143zM891 246q0 -55 36 -89t97 -34t97 34t36 89t-36 89t-97 34t-97 -34t-36 -89zM799 420l205 317h153l-164 -256l19 4q3 0 18.5 3.5t24.5 3.5q100 0 172.5 -69t72.5 -167
q0 -116 -77 -191t-199 -75t-199 75t-77 191q0 95 51 164z" />
    <glyph glyph-name="uni215A" unicode="&#x215a;" horiz-adv-x="1546" 
d="M276 0l891 1434h164l-891 -1434h-164zM102 911h144q9 -36 41 -64t82 -28q61 0 97 34t36 89q0 54 -34.5 88.5t-88.5 34.5q-87 0 -133 -61h-133l41 430h450v-134h-328l-16 -143h10q45 41 129 41q102 0 174 -71.5t72 -184.5q0 -118 -73.5 -187t-202.5 -69q-113 0 -181 60.5
t-86 164.5zM1034 246q0 -55 36 -89t97 -34t97 34t36 89t-36 89t-97 34t-97 -34t-36 -89zM942 420l205 317h153l-163 -256l18 4q3 0 18.5 3.5t24.5 3.5q100 0 173 -69t73 -167q0 -116 -77.5 -191t-199.5 -75t-199 75t-77 191q0 95 51 164z" />
    <glyph glyph-name="oneeighth" unicode="&#x215b;" horiz-adv-x="1443" 
d="M133 0l891 1434h164l-891 -1434h-164zM256 696v512h-174v133h113q61 0 61 62v31h143v-738h-143zM911 379v10q-22 10 -47 35q-45 49 -45 119q0 80 75.5 142.5t180.5 62.5t180.5 -62.5t75.5 -142.5q0 -68 -47 -119q-25 -25 -45 -35v-10q31 -17 51 -37q51 -55 51 -137
q0 -89 -73.5 -152t-192.5 -63t-192.5 63t-73.5 152q0 86 51 137q20 20 51 37zM963 532q0 -38 32.5 -65t79.5 -27t80 27t33 65t-33 65.5t-80 27.5t-79.5 -27.5t-32.5 -65.5zM952 215q0 -40 35.5 -71t87.5 -31t87.5 31t35.5 71q0 47 -34 74.5t-89 27.5t-89 -27.5t-34 -74.5z
" />
    <glyph glyph-name="threeeighths" unicode="&#x215c;" horiz-adv-x="1566" 
d="M256 0l891 1434h164l-891 -1434h-164zM82 911h143q0 -40 31 -71t82 -31q54 0 83.5 27t29.5 75t-31.5 75.5t-91.5 27.5h-62v123h62q52 0 82 26t30 66q0 39 -28 65.5t-74 26.5t-74 -26.5t-28 -65.5h-144q0 88 71 151.5t175 63.5q114 0 180 -58t66 -147q0 -102 -92 -154v-10
q102 -57 102 -164q0 -96 -71.5 -160.5t-184.5 -64.5q-114 0 -185 63.5t-71 161.5zM1034 377v10q-22 10 -47 35q-45 49 -45 119q0 80 75.5 142t180.5 62t180.5 -62t75.5 -142q0 -68 -47 -119q-25 -25 -45 -35v-10q32 -18 51 -37q51 -55 51 -137q0 -89 -73.5 -152t-192.5 -63
t-192.5 63t-73.5 152q0 86 51 137q19 20 51 37zM1085 530q0 -38 33 -65t80 -27t80 27t33 65t-33 65.5t-80 27.5t-80 -27.5t-33 -65.5zM1075 213q0 -40 35.5 -71t87.5 -31t87.5 31t35.5 71q0 47 -34 74.5t-89 27.5t-89 -27.5t-34 -74.5z" />
    <glyph glyph-name="fiveeighths" unicode="&#x215d;" horiz-adv-x="1587" 
d="M276 0l891 1434h164l-891 -1434h-164zM102 911h144q9 -36 41 -64t82 -28q61 0 97 34t36 89q0 54 -34.5 88.5t-88.5 34.5q-87 0 -133 -61h-133l41 430h450v-134h-328l-16 -143h10q45 41 129 41q102 0 174 -71.5t72 -184.5q0 -118 -73.5 -187t-202.5 -69q-113 0 -181 60.5
t-86 164.5zM1055 377v10q-22 10 -47 35q-45 49 -45 119q0 80 75.5 142t180.5 62t180.5 -62t75.5 -142q0 -67 -48 -119q-25 -25 -45 -35v-10q34 -19 52 -37q51 -55 51 -137q0 -89 -73.5 -152t-192.5 -63t-193 63t-74 152q0 85 52 137q20 20 51 37zM1106 530q0 -38 33 -65
t80 -27t79.5 27t32.5 65t-32.5 65.5t-79.5 27.5t-80 -27.5t-33 -65.5zM1096 213q0 -40 35.5 -71t87.5 -31t87 31t35 71q0 47 -33.5 74.5t-88.5 27.5t-89 -27.5t-34 -74.5z" />
    <glyph glyph-name="seveneighths" unicode="&#x215e;" horiz-adv-x="1445" 
d="M143 0l891 1434h164l-891 -1434h-164zM184 696l256 604h-338v134h482v-134l-256 -604h-144zM913 377v10q-22 10 -47 35q-45 49 -45 119q0 80 75.5 142t180.5 62t180.5 -62t75.5 -142q0 -68 -47 -119q-25 -25 -45 -35v-10q32 -18 51 -37q51 -55 51 -137q0 -89 -73.5 -152
t-192.5 -63t-192.5 63t-73.5 152q0 86 51 137q20 20 51 37zM965 530q0 -38 32.5 -65t79.5 -27t80 27t33 65t-33 65.5t-80 27.5t-79.5 -27.5t-32.5 -65.5zM954 213q0 -40 35.5 -71t87.5 -31t87.5 31t35.5 71q0 47 -34 74.5t-89 27.5t-89 -27.5t-34 -74.5z" />
    <glyph glyph-name="uni215F" unicode="&#x215f;" horiz-adv-x="788" 
d="M133 0l891 1434h164l-891 -1434h-164zM256 696v512h-174v133h113q61 0 61 62v31h143v-738h-143z" />
    <glyph glyph-name="arrowleft" unicode="&#x2190;" horiz-adv-x="2048" 
d="M307 696v41l379 379h225v-20l-276 -277v-10h1106v-184h-1106v-11l276 -276v-21h-225z" />
    <glyph glyph-name="arrowup" unicode="&#x2191;" horiz-adv-x="2048" 
d="M926 0v1096h-11l-276 -277h-21v225l390 390h30l389 -390v-225h-20l-277 277h-10v-1096h-194z" />
    <glyph glyph-name="arrowright" unicode="&#x2192;" horiz-adv-x="2048" 
d="M307 625v184h1106v10l-276 277v20h225l379 -379v-41l-379 -379h-225v21l276 276v11h-1106z" />
    <glyph glyph-name="arrowdown" unicode="&#x2193;" horiz-adv-x="2048" 
d="M618 389v225h21l276 -276h11v1096h194v-1096h10l277 276h20v-225l-389 -389h-30z" />
    <glyph glyph-name="uni2196" unicode="&#x2196;" horiz-adv-x="2048" 
d="M481 696v543l21 21h542l154 -164l-10 -11h-389l-11 -10l779 -768l-133 -133l-779 768l-10 -10v-379l-10 -10z" />
    <glyph glyph-name="uni2197" unicode="&#x2197;" horiz-adv-x="2048" 
d="M481 307l779 768l-11 10h-389l-10 11l154 164h542l21 -21v-543l-154 -153l-10 10v379l-10 10l-779 -768z" />
    <glyph glyph-name="uni2198" unicode="&#x2198;" horiz-adv-x="2048" 
d="M1004 174l-154 164l10 10h389l11 10l-779 768l133 134l779 -768l10 10v379l10 10l154 -154v-542l-21 -21h-542z" />
    <glyph glyph-name="uni2199" unicode="&#x2199;" horiz-adv-x="2048" 
d="M481 195v542l154 154l10 -10v-379l10 -10l779 768l133 -134l-779 -768l11 -10h389l10 -10l-154 -164h-542z" />
    <glyph glyph-name="partialdiff" unicode="&#x2202;" horiz-adv-x="1177" 
d="M338 1198h-164q27 107 124.5 181.5t244.5 74.5q110 0 200 -44.5t158 -134.5t105.5 -237.5t37.5 -341.5q0 -371 -128.5 -543.5t-362.5 -172.5q-180 0 -310 132t-130 328q0 198 127 329.5t313 131.5q132 0 240 -61q47 -27 77 -62h11q-7 265 -101 393.5t-248 128.5
q-77 0 -117.5 -25t-76.5 -77zM563 133q136 0 221.5 119.5t85.5 341.5q-40 47 -79 76q-110 78 -228 78q-130 0 -208.5 -84t-78.5 -224q0 -135 84 -221t203 -86z" />
    <glyph glyph-name="emptyset" unicode="&#x2205;" horiz-adv-x="1740" 
d="M143 -10l189 221q-189 205 -189 506q0 155 56.5 292t153 234.5t231.5 154t286 56.5q228 0 414 -127l98 117h205l-184 -217q194 -207 194 -510q0 -155 -56.5 -292t-153 -234.5t-231.5 -154t-286 -56.5q-235 0 -419 129l-103 -119h-205zM1290 1096l-731 -858
q142 -95 311 -95q152 0 278.5 74t200.5 206t74 294q0 217 -133 379zM444 344l730 854q-133 92 -304 92q-152 0 -278.5 -74.5t-200.5 -206.5t-74 -292q0 -217 127 -373z" />
    <glyph glyph-name="uni2206" unicode="&#x2206;" horiz-adv-x="1413" 
d="M72 0l522 1434h225l522 -1434h-1269zM317 164h779l-389 1075z" />
    <glyph glyph-name="product" unicode="&#x220f;" horiz-adv-x="1515" 
d="M215 -225v1659h1085v-1659h-174v1495h-737v-1495h-174z" />
    <glyph glyph-name="summation" unicode="&#x2211;" horiz-adv-x="1239" 
d="M133 -225v143l471 737l-471 656v143h1004v-164h-779l461 -635l-461 -716h779v-164h-1004z" />
    <glyph glyph-name="minus" unicode="&#x2212;" horiz-adv-x="1116" 
d="M102 502v184h912v-184h-912z" />
    <glyph glyph-name="radical" unicode="&#x221a;" horiz-adv-x="1300" 
d="M461 -225l-164 522h-256v164h379l143 -481h41l492 1679h174l-574 -1884h-235z" />
    <glyph glyph-name="infinity" unicode="&#x221e;" horiz-adv-x="1658" 
d="M737 717q-56 81 -122.5 127.5t-133.5 46.5q-78 0 -126 -48t-48 -126t48 -126t126 -48q67 0 133.5 46.5t122.5 127.5zM829 604q-164 -205 -348 -205q-152 0 -245 88.5t-93 229.5t92.5 229t245.5 88q184 0 348 -205q164 205 349 205q153 0 245.5 -88t92.5 -229t-93 -229.5
t-245 -88.5q-185 0 -349 205zM922 717q56 -81 122.5 -127.5t133.5 -46.5q78 0 126 48t48 126t-48 126t-126 48q-67 0 -133.5 -46.5t-122.5 -127.5z" />
    <glyph glyph-name="integral" unicode="&#x222b;" horiz-adv-x="798" 
d="M102 -225v143h62q79 0 116 40t37 130v1253q0 169 73 243.5t235 74.5h71v-143h-61q-79 0 -116.5 -42t-37.5 -133v-1253q0 -165 -72.5 -239t-234.5 -74h-72z" />
    <glyph glyph-name="approxequal" unicode="&#x2248;" horiz-adv-x="1177" 
d="M287 604h-205q7 159 91 243.5t226 84.5q51 0 96.5 -16t78 -38.5t61.5 -45t60.5 -38.5t62.5 -16q61 0 93 37.5t40 116.5h205q-7 -159 -91.5 -243.5t-226.5 -84.5q-51 0 -96 16t-77.5 38.5t-61.5 45t-60.5 38.5t-62.5 16q-118 0 -133 -154zM287 195h-205q7 159 91 243
t226 84q62 0 117.5 -24t89 -52.5t74.5 -52.5t78 -24q61 0 93 37.5t40 115.5h205q-7 -159 -91.5 -243t-226.5 -84q-51 0 -96 16t-77.5 38.5t-61.5 44.5t-60.5 38t-62.5 16q-118 0 -133 -153z" />
    <glyph glyph-name="notequal" unicode="&#x2260;" horiz-adv-x="1095" 
d="M266 113l76 204h-199v185h267l69 184h-336v184h404l78 205h204l-77 -205h200v-184h-268l-70 -184h338v-185h-405l-76 -204h-205z" />
    <glyph glyph-name="lessequal" unicode="&#x2264;" horiz-adv-x="1116" 
d="M113 0v174h891v-174h-891zM113 573v205l891 307v-215l-594 -194l594 -195v-215z" />
    <glyph glyph-name="greaterequal" unicode="&#x2265;" horiz-adv-x="1116" 
d="M113 0v174h891v-174h-891zM113 266v215l594 195l-594 194v215l891 -307v-205z" />
    <glyph glyph-name="uni2318" unicode="&#x2318;" horiz-adv-x="1648" 
d="M686 573h277v287h-277v-287zM532 317v113h-122q-77 0 -120.5 -42t-43.5 -112q0 -55 41 -94t102 -39q64 0 103.5 45t39.5 129zM410 573h122v287h-122q-150 0 -234 76t-84 221q0 123 83 200t214 77q139 0 218 -85t79 -233v-112h277v112q0 148 79 233t218 85
q131 0 213.5 -77t82.5 -200q0 -145 -83.5 -221t-233.5 -76h-123v-287h123q150 0 233.5 -76t83.5 -221q0 -123 -82.5 -199.5t-213.5 -76.5q-139 0 -218 84.5t-79 232.5v113h-277v-113q0 -148 -79 -232.5t-218 -84.5q-131 0 -214 76.5t-83 199.5q0 145 84 221t234 76z
M1116 430v-113q0 -83 40 -128.5t104 -45.5q61 0 102 39t41 94q0 70 -43.5 112t-120.5 42h-123zM410 1004h122v112q0 84 -39.5 129t-103.5 45q-61 0 -102 -39t-41 -94q0 -70 43.5 -111.5t120.5 -41.5zM1116 1004h123q77 0 120.5 41.5t43.5 111.5q0 55 -41 94t-102 39
q-64 0 -104 -45.5t-40 -128.5v-112z" />
    <glyph glyph-name="uni2460" unicode="&#x2460;" horiz-adv-x="2048" 
d="M154 717q0 182 67 343t183 277t277 183t343 67t343 -67t277 -183t183 -277t67 -343t-67 -343.5t-183 -277t-277 -183t-343 -67.5t-343 67.5t-277 183t-183 277t-67 343.5zM1024 -10q147 0 280 56.5t228.5 153t152 231.5t56.5 286t-56.5 286t-152 231.5t-228.5 153
t-280 56.5t-280 -56.5t-228.5 -153t-152 -231.5t-56.5 -286t56.5 -286t152 -231.5t228.5 -153t280 -56.5zM983 348v512h-174v133h113q61 0 61 62v30h143v-737h-143z" />
    <glyph glyph-name="uni2461" unicode="&#x2461;" horiz-adv-x="2048" 
d="M154 717q0 182 67 343t183 277t277 183t343 67t343 -67t277 -183t183 -277t67 -343t-67 -343.5t-183 -277t-277 -183t-343 -67.5t-343 67.5t-277 183t-183 277t-67 343.5zM1024 -10q147 0 280 56.5t228.5 153t152 231.5t56.5 286t-56.5 286t-152 231.5t-228.5 153
t-280 56.5t-280 -56.5t-228.5 -153t-152 -231.5t-56.5 -286t56.5 -286t152 -231.5t228.5 -153t280 -56.5zM778 348v113l287 287q61 61 61 122q0 47 -27.5 75t-74.5 28q-53 0 -83 -34t-30 -89h-143q0 110 70 178t186 68q110 0 178 -63t68 -163q0 -64 -26 -109t-87 -106
l-174 -174v-10h297v-123h-502z" />
    <glyph glyph-name="uni2462" unicode="&#x2462;" horiz-adv-x="2048" 
d="M154 717q0 182 67 343t183 277t277 183t343 67t343 -67t277 -183t183 -277t67 -343t-67 -343.5t-183 -277t-277 -183t-343 -67.5t-343 67.5t-277 183t-183 277t-67 343.5zM1024 -10q147 0 280 56.5t228.5 153t152 231.5t56.5 286t-56.5 286t-152 231.5t-228.5 153
t-280 56.5t-280 -56.5t-228.5 -153t-152 -231.5t-56.5 -286t56.5 -286t152 -231.5t228.5 -153t280 -56.5zM768 563h143q0 -40 31 -71t82 -31q54 0 83.5 27t29.5 75t-31.5 75.5t-91.5 27.5h-62v122h62q52 0 82 26.5t30 66.5q0 39 -28 65.5t-74 26.5t-74 -26.5t-28 -65.5h-144
q0 88 71 151.5t175 63.5q114 0 180 -58t66 -147q0 -102 -92 -154v-10q102 -57 102 -164q0 -96 -71.5 -160.5t-184.5 -64.5q-114 0 -185 63.5t-71 161.5z" />
    <glyph glyph-name="uni2463" unicode="&#x2463;" horiz-adv-x="2048" 
d="M154 717q0 182 67 343t183 277t277 183t343 67t343 -67t277 -183t183 -277t67 -343t-67 -343.5t-183 -277t-277 -183t-343 -67.5t-343 67.5t-277 183t-183 277t-67 343.5zM1024 -10q147 0 280 56.5t228.5 153t152 231.5t56.5 286t-56.5 286t-152 231.5t-228.5 153
t-280 56.5t-280 -56.5t-228.5 -153t-152 -231.5t-56.5 -286t56.5 -286t152 -231.5t228.5 -153t280 -56.5zM696 492v122l277 471h205v-460h102v-133h-102v-144h-144v144h-338zM870 625h164v266h-20l-144 -256v-10z" />
    <glyph glyph-name="uni2464" unicode="&#x2464;" horiz-adv-x="2048" 
d="M154 717q0 182 67 343t183 277t277 183t343 67t343 -67t277 -183t183 -277t67 -343t-67 -343.5t-183 -277t-277 -183t-343 -67.5t-343 67.5t-277 183t-183 277t-67 343.5zM1024 -10q147 0 280 56.5t228.5 153t152 231.5t56.5 286t-56.5 286t-152 231.5t-228.5 153
t-280 56.5t-280 -56.5t-228.5 -153t-152 -231.5t-56.5 -286t56.5 -286t152 -231.5t228.5 -153t280 -56.5zM758 563h143q9 -36 41 -64t82 -28q61 0 97 34t36 89q0 54 -34.5 88.5t-88.5 34.5q-86 0 -133 -62h-133l41 430h451v-133h-328l-17 -143h11q45 41 129 41
q102 0 173.5 -71.5t71.5 -184.5q0 -118 -73.5 -187t-202.5 -69q-113 0 -180.5 60.5t-85.5 164.5z" />
    <glyph glyph-name="uni2465" unicode="&#x2465;" horiz-adv-x="2048" 
d="M154 717q0 182 67 343t183 277t277 183t343 67t343 -67t277 -183t183 -277t67 -343t-67 -343.5t-183 -277t-277 -183t-343 -67.5t-343 67.5t-277 183t-183 277t-67 343.5zM1024 -10q147 0 280 56.5t228.5 153t152 231.5t56.5 286t-56.5 286t-152 231.5t-228.5 153
t-280 56.5t-280 -56.5t-228.5 -153t-152 -231.5t-56.5 -286t56.5 -286t152 -231.5t228.5 -153t280 -56.5zM891 594q0 -55 36 -89t97 -34t97 34t36 89t-36 89t-97 34t-97 -34t-36 -89zM799 768l205 317h153l-164 -256l19 5q42 6 43 6q100 0 172.5 -69t72.5 -167
q0 -116 -77 -191t-199 -75t-199 75t-77 191q0 95 51 164z" />
    <glyph glyph-name="uni2466" unicode="&#x2466;" horiz-adv-x="2048" 
d="M154 717q0 182 67 343t183 277t277 183t343 67t343 -67t277 -183t183 -277t67 -343t-67 -343.5t-183 -277t-277 -183t-343 -67.5t-343 67.5t-277 183t-183 277t-67 343.5zM1024 -10q147 0 280 56.5t228.5 153t152 231.5t56.5 286t-56.5 286t-152 231.5t-228.5 153
t-280 56.5t-280 -56.5t-228.5 -153t-152 -231.5t-56.5 -286t56.5 -286t152 -231.5t228.5 -153t280 -56.5zM870 348l256 604h-338v133h482v-133l-256 -604h-144z" />
    <glyph glyph-name="uni2467" unicode="&#x2467;" horiz-adv-x="2048" 
d="M154 717q0 182 67 343t183 277t277 183t343 67t343 -67t277 -183t183 -277t67 -343t-67 -343.5t-183 -277t-277 -183t-343 -67.5t-343 67.5t-277 183t-183 277t-67 343.5zM1024 -10q147 0 280 56.5t228.5 153t152 231.5t56.5 286t-56.5 286t-152 231.5t-228.5 153
t-280 56.5t-280 -56.5t-228.5 -153t-152 -231.5t-56.5 -286t56.5 -286t152 -231.5t228.5 -153t280 -56.5zM860 727v10q-22 10 -47 35q-45 49 -45 119q0 80 75.5 142.5t180.5 62.5t180.5 -62.5t75.5 -142.5q0 -68 -47 -119q-25 -25 -45 -35v-10q32 -17 51 -37q51 -55 51 -137
q0 -89 -73.5 -152t-192.5 -63t-192.5 63t-73.5 152q0 86 51 137q20 20 51 37zM911 881q0 -38 33 -65.5t80 -27.5t80 27.5t33 65.5t-33 65t-80 27t-80 -27t-33 -65zM901 563q0 -40 35.5 -71t87.5 -31t87.5 31t35.5 71q0 47 -34 75t-89 28t-89 -28t-34 -75z" />
    <glyph glyph-name="uni2468" unicode="&#x2468;" horiz-adv-x="2048" 
d="M154 717q0 182 67 343t183 277t277 183t343 67t343 -67t277 -183t183 -277t67 -343t-67 -343.5t-183 -277t-277 -183t-343 -67.5t-343 67.5t-277 183t-183 277t-67 343.5zM1024 -10q147 0 280 56.5t228.5 153t152 231.5t56.5 286t-56.5 286t-152 231.5t-228.5 153
t-280 56.5t-280 -56.5t-228.5 -153t-152 -231.5t-56.5 -286t56.5 -286t152 -231.5t228.5 -153t280 -56.5zM891 840q0 -55 36 -89t97 -34t97 34t36 89t-36 89t-97 34t-97 -34t-36 -89zM891 348l164 256l-19 -6q-28 -4 -43 -4q-100 0 -172.5 68.5t-72.5 166.5q0 116 77 191.5
t199 75.5t199 -75.5t77 -191.5q0 -94 -51 -163l-205 -318h-153z" />
    <glyph glyph-name="uni2469" unicode="&#x2469;" horiz-adv-x="2048" 
d="M154 717q0 182 67 343t183 277t277 183t343 67t343 -67t277 -183t183 -277t67 -343t-67 -343.5t-183 -277t-277 -183t-343 -67.5t-343 67.5t-277 183t-183 277t-67 343.5zM1024 -10q147 0 280 56.5t228.5 153t152 231.5t56.5 286t-56.5 286t-152 231.5t-228.5 153
t-280 56.5t-280 -56.5t-228.5 -153t-152 -231.5t-56.5 -286t56.5 -286t152 -231.5t228.5 -153t280 -56.5zM1239 471q67 0 110.5 61.5t43.5 184.5t-43.5 184.5t-110.5 61.5t-110.5 -61.5t-43.5 -184.5t43.5 -184.5t110.5 -61.5zM1239 338q-128 0 -212.5 100.5t-84.5 278.5
t84.5 278.5t212.5 100.5t212.5 -100.5t84.5 -278.5t-84.5 -278.5t-212.5 -100.5zM676 348v512h-174v133h112q62 0 62 62v30h143v-737h-143z" />
    <glyph glyph-name="uni246A" unicode="&#x246a;" horiz-adv-x="2048" 
d="M154 717q0 182 67 343t183 277t277 183t343 67t343 -67t277 -183t183 -277t67 -343t-67 -343.5t-183 -277t-277 -183t-343 -67.5t-343 67.5t-277 183t-183 277t-67 343.5zM1024 -10q147 0 280 56.5t228.5 153t152 231.5t56.5 286t-56.5 286t-152 231.5t-228.5 153
t-280 56.5t-280 -56.5t-228.5 -153t-152 -231.5t-56.5 -286t56.5 -286t152 -231.5t228.5 -153t280 -56.5zM768 348v512h-174v133h113q61 0 61 62v30h143v-737h-143zM1208 348v512h-174v133h113q61 0 61 62v30h144v-737h-144z" />
    <glyph glyph-name="uni246B" unicode="&#x246b;" horiz-adv-x="2048" 
d="M154 717q0 182 67 343t183 277t277 183t343 67t343 -67t277 -183t183 -277t67 -343t-67 -343.5t-183 -277t-277 -183t-343 -67.5t-343 67.5t-277 183t-183 277t-67 343.5zM1024 -10q147 0 280 56.5t228.5 153t152 231.5t56.5 286t-56.5 286t-152 231.5t-228.5 153
t-280 56.5t-280 -56.5t-228.5 -153t-152 -231.5t-56.5 -286t56.5 -286t152 -231.5t228.5 -153t280 -56.5zM707 348v512h-175v133h113q62 0 62 62v30h143v-737h-143zM973 348v113l287 287q61 61 61 122q0 47 -27.5 75t-74.5 28q-53 0 -83 -34t-30 -89h-143q0 110 70 178
t186 68q110 0 177.5 -63t67.5 -163q0 -64 -26 -109.5t-86 -105.5l-174 -174v-10h297v-123h-502z" />
    <glyph glyph-name="uni246C" unicode="&#x246c;" horiz-adv-x="2048" 
d="M154 717q0 182 67 343t183 277t277 183t343 67t343 -67t277 -183t183 -277t67 -343t-67 -343.5t-183 -277t-277 -183t-343 -67.5t-343 67.5t-277 183t-183 277t-67 343.5zM1024 -10q147 0 280 56.5t228.5 153t152 231.5t56.5 286t-56.5 286t-152 231.5t-228.5 153
t-280 56.5t-280 -56.5t-228.5 -153t-152 -231.5t-56.5 -286t56.5 -286t152 -231.5t228.5 -153t280 -56.5zM707 348v512h-175v133h113q62 0 62 62v30h143v-737h-143zM963 563h143q0 -40 31 -71t82 -31q53 0 82.5 27t29.5 75t-31.5 75.5t-91.5 27.5h-61v122h61q52 0 82.5 26.5
t30.5 66.5q0 39 -28 65.5t-74 26.5t-74.5 -26.5t-28.5 -65.5h-143q0 88 71 151.5t175 63.5q114 0 179.5 -58t65.5 -147q0 -102 -92 -154v-10q103 -58 103 -164q0 -96 -71.5 -160.5t-184.5 -64.5q-114 0 -185 63.5t-71 161.5z" />
    <glyph glyph-name="uni246D" unicode="&#x246d;" horiz-adv-x="2048" 
d="M154 717q0 182 67 343t183 277t277 183t343 67t343 -67t277 -183t183 -277t67 -343t-67 -343.5t-183 -277t-277 -183t-343 -67.5t-343 67.5t-277 183t-183 277t-67 343.5zM1024 -10q147 0 280 56.5t228.5 153t152 231.5t56.5 286t-56.5 286t-152 231.5t-228.5 153
t-280 56.5t-280 -56.5t-228.5 -153t-152 -231.5t-56.5 -286t56.5 -286t152 -231.5t228.5 -153t280 -56.5zM686 348v512h-174v133h113q61 0 61 62v30h143v-737h-143zM932 492v122l276 471h205v-460h103v-133h-103v-144h-143v144h-338zM1106 625h164v266h-21l-143 -256v-10z
" />
    <glyph glyph-name="uni246E" unicode="&#x246e;" horiz-adv-x="2048" 
d="M154 717q0 182 67 343t183 277t277 183t343 67t343 -67t277 -183t183 -277t67 -343t-67 -343.5t-183 -277t-277 -183t-343 -67.5t-343 67.5t-277 183t-183 277t-67 343.5zM1024 -10q147 0 280 56.5t228.5 153t152 231.5t56.5 286t-56.5 286t-152 231.5t-228.5 153
t-280 56.5t-280 -56.5t-228.5 -153t-152 -231.5t-56.5 -286t56.5 -286t152 -231.5t228.5 -153t280 -56.5zM686 348v512h-174v133h113q61 0 61 62v30h143v-737h-143zM952 563h144q9 -36 41 -64t82 -28q61 0 97 34t36 89q0 54 -34.5 88.5t-88.5 34.5q-86 0 -133 -62h-133
l41 430h450v-133h-328l-16 -143h10q45 41 129 41q102 0 174 -71.5t72 -184.5q0 -118 -73.5 -187t-202.5 -69q-113 0 -181 60.5t-86 164.5z" />
    <glyph glyph-name="uni246F" unicode="&#x246f;" horiz-adv-x="2048" 
d="M154 717q0 182 67 343t183 277t277 183t343 67t343 -67t277 -183t183 -277t67 -343t-67 -343.5t-183 -277t-277 -183t-343 -67.5t-343 67.5t-277 183t-183 277t-67 343.5zM1024 -10q147 0 280 56.5t228.5 153t152 231.5t56.5 286t-56.5 286t-152 231.5t-228.5 153
t-280 56.5t-280 -56.5t-228.5 -153t-152 -231.5t-56.5 -286t56.5 -286t152 -231.5t228.5 -153t280 -56.5zM696 348v512h-174v133h113q61 0 61 62v30h144v-737h-144zM1096 594q0 -55 36 -89t97 -34t97 34t36 89t-36 89t-97 34t-97 -34t-36 -89zM1004 768l204 317h154
l-164 -256l19 5q42 6 43 6q100 0 172.5 -69t72.5 -167q0 -116 -77 -191t-199 -75t-199.5 75t-77.5 191q0 94 52 164z" />
    <glyph glyph-name="uni2470" unicode="&#x2470;" horiz-adv-x="2048" 
d="M154 717q0 182 67 343t183 277t277 183t343 67t343 -67t277 -183t183 -277t67 -343t-67 -343.5t-183 -277t-277 -183t-343 -67.5t-343 67.5t-277 183t-183 277t-67 343.5zM1024 -10q147 0 280 56.5t228.5 153t152 231.5t56.5 286t-56.5 286t-152 231.5t-228.5 153
t-280 56.5t-280 -56.5t-228.5 -153t-152 -231.5t-56.5 -286t56.5 -286t152 -231.5t228.5 -153t280 -56.5zM727 348v512h-174v133h113q61 0 61 62v30h143v-737h-143zM1065 348l256 604h-338v133h481v-133l-256 -604h-143z" />
    <glyph glyph-name="uni2471" unicode="&#x2471;" horiz-adv-x="2048" 
d="M154 717q0 182 67 343t183 277t277 183t343 67t343 -67t277 -183t183 -277t67 -343t-67 -343.5t-183 -277t-277 -183t-343 -67.5t-343 67.5t-277 183t-183 277t-67 343.5zM1024 -10q147 0 280 56.5t228.5 153t152 231.5t56.5 286t-56.5 286t-152 231.5t-228.5 153
t-280 56.5t-280 -56.5t-228.5 -153t-152 -231.5t-56.5 -286t56.5 -286t152 -231.5t228.5 -153t280 -56.5zM696 348v512h-174v133h113q61 0 61 62v30h144v-737h-144zM1055 727v10q-22 10 -47 35q-45 49 -45 119q0 80 75.5 142.5t180.5 62.5t180.5 -62.5t75.5 -142.5
q0 -67 -48 -119q-25 -25 -45 -35v-10q34 -19 52 -37q51 -55 51 -137q0 -89 -73.5 -152t-192.5 -63t-193 63t-74 152q0 85 52 137q20 20 51 37zM1106 881q0 -38 33 -65.5t80 -27.5t79.5 27.5t32.5 65.5t-32.5 65t-79.5 27t-80 -27t-33 -65zM1096 563q0 -40 35.5 -71t87.5 -31
t87 31t35 71q0 47 -34 75t-88 28q-55 0 -89 -28t-34 -75z" />
    <glyph glyph-name="uni2472" unicode="&#x2472;" horiz-adv-x="2048" 
d="M154 717q0 182 67 343t183 277t277 183t343 67t343 -67t277 -183t183 -277t67 -343t-67 -343.5t-183 -277t-277 -183t-343 -67.5t-343 67.5t-277 183t-183 277t-67 343.5zM1024 -10q147 0 280 56.5t228.5 153t152 231.5t56.5 286t-56.5 286t-152 231.5t-228.5 153
t-280 56.5t-280 -56.5t-228.5 -153t-152 -231.5t-56.5 -286t56.5 -286t152 -231.5t228.5 -153t280 -56.5zM707 348v512h-175v133h113q62 0 62 62v30h143v-737h-143zM1106 840q0 -55 36 -89t97 -34t97 34t36 89t-36 89t-97 34t-97 -34t-36 -89zM1106 348l164 256l-19 -6
q-28 -4 -43 -4q-100 0 -172.5 68.5t-72.5 166.5q0 116 77 191.5t199 75.5t199.5 -75.5t77.5 -191.5q0 -93 -52 -163l-204 -318h-154z" />
    </font>
</defs>
</svg>
