<?xml version="1.0" standalone="no"?>
<!DOCTYPE svg PUBLIC "-//W3C//DTD SVG 1.1//EN" "http://www.w3.org/Graphics/SVG/1.1/DTD/svg11.dtd" >
<svg xmlns="http://www.w3.org/2000/svg" xmlns:xlink="http://www.w3.org/1999/xlink" version="1.1">
<metadata>
Created by FontForge 20170731 at Sat Jul 29 01:07:16 2023
 By Aleksey,,,
Copyright (c) 2019 by TypeType. Designers Ivan Gladkikh, Pavel Emelyanov. Technical designers Marina Khodak, Nadezhda Polomoshnova, Kseniya Karataeva, Olexa Volochay, Nadyr Rakhimov. All rights reserved. |DCNT
</metadata>
<defs>
<font id="TTHoves-Regular" horiz-adv-x="1146" >
  <font-face 
    font-family="TT Hoves"
    font-weight="400"
    font-stretch="normal"
    units-per-em="2048"
    panose-1="2 0 5 3 3 0 0 2 0 4"
    ascent="1434"
    descent="-614"
    x-height="1024"
    cap-height="1434"
    bbox="-1044 -502 2945 1987"
    underline-thickness="102"
    underline-position="-307"
    unicode-range="U+000D-FB04"
  />
<missing-glyph horiz-adv-x="0" 
 />
    <glyph glyph-name="f_f" unicode="ff" horiz-adv-x="1126" 
d="M215 0v881h-164v143h164v195q0 79 49.5 126.5t134.5 47.5h185v-144h-154q-61 0 -61 -61v-164h338v195q0 79 49.5 126.5t134.5 47.5h184v-144h-153q-62 0 -62 -61v-164h215v-143h-215v-881h-153v881h-338v-881h-154z" />
    <glyph glyph-name="uniFB01" unicode="fi" horiz-adv-x="1013" 
d="M215 0v881h-164v143h164v195q0 79 49.5 126.5t134.5 47.5h164v-144h-133q-61 0 -61 -61v-164h491v-1024h-153v881h-338v-881h-154zM696 1219v174h174v-174h-174z" />
    <glyph glyph-name="uniFB02" unicode="fl" horiz-adv-x="1003" 
d="M215 0v881h-164v143h164v195q0 79 49.5 126.5t134.5 47.5h461v-1393h-153v1249h-277q-61 0 -61 -61v-164h194v-143h-194v-881h-154z" />
    <glyph glyph-name="f_f_i" unicode="ffi" horiz-adv-x="1505" 
d="M215 0v881h-164v143h164v195q0 79 49.5 126.5t134.5 47.5h185v-144h-154q-61 0 -61 -61v-164h338v195q0 79 49.5 126.5t134.5 47.5h164v-144h-133q-62 0 -62 -61v-164h492v-1024h-154v881h-338v-881h-153v881h-338v-881h-154zM1188 1219v174h174v-174h-174z" />
    <glyph glyph-name="f_f_l" unicode="ffl" horiz-adv-x="1495" 
d="M215 0v881h-164v143h164v195q0 79 49.5 126.5t134.5 47.5h185v-144h-154q-61 0 -61 -61v-164h338v195q0 79 49.5 126.5t134.5 47.5h461v-1393h-154v1249h-276q-62 0 -62 -61v-164h195v-143h-195v-881h-153v881h-338v-881h-154z" />
    <glyph glyph-name="f_f_j" unicode="ffj" horiz-adv-x="1505" 
d="M215 0v881h-164v143h164v195q0 79 49.5 126.5t134.5 47.5h185v-144h-154q-61 0 -61 -61v-164h338v195q0 79 49.5 126.5t134.5 47.5h164v-144h-133q-62 0 -62 -61v-164h492v-1229q0 -91 -61 -148t-154 -57h-154v144h133q82 0 82 82v1065h-338v-881h-153v881h-338v-881
h-154zM1188 1219v174h174v-174h-174z" />
    <glyph glyph-name="f_j" unicode="fj" horiz-adv-x="1013" 
d="M492 -410v144h133q82 0 82 82v1065h-338v-881h-154v881h-164v143h164v195q0 79 49.5 126.5t134.5 47.5h164v-144h-133q-61 0 -61 -61v-164h491v-1229q0 -91 -61 -148t-154 -57h-153zM696 1219v174h174v-174h-174z" />
    <glyph glyph-name=".notdef" horiz-adv-x="0" 
 />
    <glyph glyph-name=".null" horiz-adv-x="0" 
 />
    <glyph glyph-name="nonmarkingreturn" horiz-adv-x="682" 
 />
    <glyph glyph-name="NULL" horiz-adv-x="0" 
 />
    <glyph glyph-name="NULL" horiz-adv-x="0" 
 />
    <glyph glyph-name="CR" unicode="&#xd;" horiz-adv-x="0" 
 />
    <glyph glyph-name="space" unicode=" " horiz-adv-x="471" 
 />
    <glyph glyph-name="exclam" unicode="!" horiz-adv-x="512" 
d="M195 328l-21 491v615h164v-615l-21 -491h-122zM164 0v184h184v-184h-184z" />
    <glyph glyph-name="quotedbl" unicode="&#x22;" horiz-adv-x="686" 
d="M113 1004v430h153v-430h-153zM420 1004v430h153v-430h-153z" />
    <glyph glyph-name="numbersign" unicode="#" horiz-adv-x="1402" 
d="M236 0l81 379h-286l30 143h287l84 389h-289l31 144h289l80 379h153l-82 -379h318l82 379h153l-82 -379h287l-31 -144h-286l-84 -389h289l-31 -143h-289l-80 -379h-153l81 379h-317l-82 -379h-153zM502 522h317l82 389h-317z" />
    <glyph glyph-name="dollar" unicode="$" horiz-adv-x="1259" 
d="M543 -225v215q-204 24 -327.5 145t-123.5 285h164q0 -121 101 -204t278 -83q181 0 269.5 70.5t88.5 185.5q0 190 -245 236l-277 51q-348 65 -348 368q0 162 114.5 272.5t305.5 127.5v215h153v-215q202 -17 326.5 -134.5t124.5 -295.5h-164q0 121 -99 203.5t-270 82.5
q-156 0 -241.5 -71.5t-85.5 -184.5q0 -181 235 -225l226 -41q214 -38 311.5 -132t97.5 -257q0 -167 -123 -279.5t-338 -119.5v-215h-153z" />
    <glyph glyph-name="percent" unicode="%" horiz-adv-x="1566" 
d="M256 0l891 1434h164l-891 -1434h-164zM82 1137q0 137 93 227t224 90q132 0 225 -90t93 -227t-93.5 -227.5t-224.5 -90.5t-224 90.5t-93 227.5zM399 952q72 0 123 51t51 134t-51 133.5t-123 50.5t-123 -50.5t-51 -133.5t51 -134t123 -51zM850 297q0 137 93 227t224 90
q132 0 225 -90t93 -227t-93 -227t-225 -90q-131 0 -224 90t-93 227zM1167 113q72 0 123 50.5t51 133.5t-51 133.5t-123 50.5t-123 -50.5t-51 -133.5t51 -133.5t123 -50.5z" />
    <glyph glyph-name="ampersand" unicode="&#x26;" horiz-adv-x="1290" 
d="M297 696l82 62l-92 102q-41 46 -62 75t-41 78.5t-20 102.5q0 146 104 242t264 96q159 0 264 -100t105 -248q0 -163 -194 -297l-113 -82l328 -348q24 37 45 84q47 112 47 213h153q0 -155 -67 -301q-26 -60 -66 -109l256 -266h-205l-143 154q-47 -49 -113 -88
q-144 -86 -297 -86q-202 0 -321 105t-119 263q0 106 49.5 186.5t155.5 161.5zM502 840l102 71q133 94 133 195q0 86 -56.5 140t-148.5 54q-91 0 -147.5 -52.5t-56.5 -131.5q0 -47 17 -83.5t65 -90.5zM829 266l-348 379l-71 -51q-82 -57 -118 -109t-36 -127
q0 -96 74.5 -160.5t201.5 -64.5q94 0 162 33t135 100z" />
    <glyph glyph-name="quotesingle" unicode="'" horiz-adv-x="378" 
d="M113 1004v430h153v-430h-153z" />
    <glyph glyph-name="parenleft" unicode="(" horiz-adv-x="645" 
d="M594 -410h-164q-287 421 -287 953q0 531 287 952h164q-297 -419 -297 -952q0 -534 297 -953z" />
    <glyph glyph-name="parenright" unicode=")" horiz-adv-x="645" 
d="M215 -410h-164q297 419 297 953q0 533 -297 952h164q287 -421 287 -952q0 -532 -287 -953z" />
    <glyph glyph-name="asterisk" unicode="*" horiz-adv-x="942" 
d="M184 778l185 236l-287 82l41 133l287 -103l-11 308h144l-11 -308l287 103l41 -133l-287 -82l185 -236l-113 -92l-174 256l-174 -256z" />
    <glyph glyph-name="plus" unicode="+" horiz-adv-x="1095" 
d="M471 123v399h-369v144h369v399h154v-399h368v-144h-368v-399h-154z" />
    <glyph glyph-name="comma" unicode="," horiz-adv-x="430" 
d="M92 -164l41 348h184l-92 -348h-133z" />
    <glyph glyph-name="hyphen" unicode="-" horiz-adv-x="839" 
d="M92 512v143h656v-143h-656z" />
    <glyph glyph-name="period" unicode="." horiz-adv-x="430" 
d="M123 0v184h184v-184h-184z" />
    <glyph glyph-name="slash" unicode="/" horiz-adv-x="716" 
d="M0 -410l563 1905h154l-563 -1905h-154z" />
    <glyph glyph-name="zero" unicode="0" horiz-adv-x="1331" 
d="M113 717q0 176 44.5 318t121.5 232.5t176 138.5t211 48t211 -48t176 -138.5t121.5 -232.5t44.5 -318t-44.5 -318t-121.5 -232.5t-176 -138.5t-211 -48t-211 48t-176 138.5t-121.5 232.5t-44.5 318zM666 1300q-78 0 -147.5 -37.5t-124 -108t-86.5 -183.5t-32 -254t32 -254
t86.5 -184t124 -108.5t147.5 -37.5t147.5 37.5t123.5 108.5t86 184t32 254t-32 254t-86 183.5t-123.5 108t-147.5 37.5z" />
    <glyph glyph-name="one" unicode="1" horiz-adv-x="686" 
d="M358 0v1126h-307v144h246q61 0 61 61v103h164v-1434h-164z" />
    <glyph glyph-name="two" unicode="2" horiz-adv-x="1095" 
d="M113 0v133l583 625q67 72 95 128.5t28 137.5q0 123 -76.5 199.5t-199.5 76.5q-118 0 -197.5 -85.5t-79.5 -221.5h-164q0 200 124.5 330.5t316.5 130.5q193 0 316.5 -119.5t123.5 -310.5q0 -120 -43 -203t-131 -176l-461 -481v-10h666v-154h-901z" />
    <glyph glyph-name="three" unicode="3" horiz-adv-x="1126" 
d="M72 379h164q0 -104 83 -175t224 -71q136 0 221.5 73.5t85.5 182.5q0 118 -84.5 192t-222.5 74h-92v154h92q135 0 210.5 71.5t75.5 180.5q0 99 -79.5 169t-206.5 70q-121 0 -204 -70.5t-83 -164.5h-164q0 158 127.5 273.5t323.5 115.5q198 0 324 -113.5t126 -283.5
q0 -150 -112 -250q-52 -46 -113 -70v-10q70 -27 123 -74q123 -107 123 -264q0 -170 -133.5 -289.5t-337.5 -119.5q-106 0 -195 32t-149 86.5t-93.5 127t-33.5 153.5z" />
    <glyph glyph-name="four" unicode="4" horiz-adv-x="1105" 
d="M41 328v123l563 983h266v-963h185v-143h-185v-328h-163v328h-666zM246 471h461v748h-41l-420 -738v-10z" />
    <glyph glyph-name="five" unicode="5" horiz-adv-x="1157" 
d="M92 379h164q23 -116 106 -181t201 -65q138 0 233 96t95 238q0 148 -89 240t-229 92q-181 0 -276 -123h-174l82 758h768v-154h-631l-45 -420h10q105 92 287 92q91 0 175.5 -37t147.5 -100.5t100.5 -154.5t37.5 -193q0 -212 -138.5 -349.5t-353.5 -137.5q-184 0 -315.5 106
t-155.5 293z" />
    <glyph glyph-name="six" unicode="6" 
d="M164 737l450 697h185l-338 -533h10l39 10q46 11 94 11q127 0 232.5 -59t167 -165.5t61.5 -236.5q0 -200 -143 -340.5t-349 -140.5t-348.5 140.5t-142.5 340.5q0 73 24 148.5t58 127.5zM573 133q138 0 233 95t95 233t-95 232.5t-233 94.5t-232.5 -94.5t-94.5 -232.5
t94.5 -233t232.5 -95z" />
    <glyph glyph-name="seven" unicode="7" horiz-adv-x="1013" 
d="M266 0l504 1280h-719v154h901v-134l-512 -1300h-174z" />
    <glyph glyph-name="eight" unicode="8" 
d="M328 737v11q-57 31 -99 73q-96 96 -96 234q0 169 125 284t315 115t315.5 -115t125.5 -284q0 -135 -99 -234q-42 -42 -96 -73v-11q57 -25 113 -78q112 -112 112 -270q0 -80 -34 -154t-94 -130.5t-149.5 -90.5t-193.5 -34q-105 0 -195 33.5t-149.5 90t-93 130.5t-33.5 155
q0 161 113 270q53 53 113 78zM297 1055q0 -104 75 -175t201 -71t201.5 71t75.5 175t-75.5 174.5t-201.5 70.5t-201 -70.5t-75 -174.5zM266 399q0 -115 88 -190.5t219 -75.5t219.5 75.5t88.5 190.5t-88.5 191t-219.5 76t-219 -76t-88 -191z" />
    <glyph glyph-name="nine" unicode="9" 
d="M348 0l338 532h-10q-17 -7 -39 -10q-45 -10 -94 -10q-127 0 -232.5 59t-167 165.5t-61.5 236.5q0 200 142.5 340.5t348.5 140.5t349 -140.5t143 -340.5q0 -73 -24 -149t-58 -128l-451 -696h-184zM573 645q138 0 233 95t95 233t-95 232.5t-233 94.5t-232.5 -94.5
t-94.5 -232.5t94.5 -233t232.5 -95z" />
    <glyph glyph-name="colon" unicode=":" horiz-adv-x="430" 
d="M123 0v184h184v-184h-184zM123 840v184h184v-184h-184z" />
    <glyph glyph-name="semicolon" unicode=";" horiz-adv-x="430" 
d="M133 840v184h184v-184h-184zM92 -164l41 348h184l-92 -348h-133z" />
    <glyph glyph-name="less" unicode="&#x3c;" horiz-adv-x="1095" 
d="M113 522v144l870 378v-153l-707 -297l707 -297v-154z" />
    <glyph glyph-name="equal" unicode="=" horiz-adv-x="1075" 
d="M143 696v144h789v-144h-789zM143 348v144h789v-144h-789z" />
    <glyph glyph-name="greater" unicode="&#x3e;" horiz-adv-x="1095" 
d="M113 143v154l706 297l-706 297v153l870 -378v-144z" />
    <glyph glyph-name="question" unicode="?" horiz-adv-x="1034" 
d="M399 0v184h185v-184h-185zM410 328v123q0 121 50 193t175 134q153 76 153 256q0 115 -81.5 190.5t-204.5 75.5q-127 0 -207 -71t-80 -174h-164q0 170 126.5 284.5t324.5 114.5t324 -120t126 -300q0 -262 -235 -379q-86 -41 -115 -88t-29 -116v-123h-163z" />
    <glyph glyph-name="at" unicode="@" horiz-adv-x="1894" 
d="M922 307q118 0 192 79t74 208t-74 208t-192 79t-192.5 -79t-74.5 -208t74.5 -208t192.5 -79zM942 -41h420v-143h-420q-182 0 -336 60t-259.5 164.5t-164.5 250t-59 313.5q0 173 62 323.5t170.5 257t260.5 167.5t326 61q189 0 349 -61.5t269.5 -167.5t170.5 -250.5
t61 -308.5q0 -228 -96 -344.5t-252 -116.5q-109 0 -178 65q-33 29 -47 68h-11q-39 -46 -75 -68q-100 -65 -224 -65q-178 0 -292.5 119.5t-114.5 310.5t115.5 310.5t293.5 119.5q122 0 207 -61q40 -29 60 -62h10l20 103h133v-584q0 -53 27.5 -83t75.5 -30q194 0 194 318
q0 137 -50.5 256t-140.5 205t-220.5 135t-284.5 49q-192 0 -344 -85t-237 -237t-85 -344q0 -188 82.5 -334.5t234.5 -228.5t349 -82z" />
    <glyph glyph-name="A" unicode="A" horiz-adv-x="1331" 
d="M0 0l543 1434h245l543 -1434h-174l-133 369h-717l-133 -369h-174zM369 522h594l-277 738h-41z" />
    <glyph glyph-name="B" unicode="B" horiz-adv-x="1310" 
d="M164 0v1434h614q162 0 275.5 -116.5t113.5 -283.5q0 -136 -77 -233q-34 -43 -76 -74v-10q48 -26 86 -70q88 -100 88 -248q0 -168 -113.5 -283.5t-275.5 -115.5h-635zM328 788h450q92 0 159 71t67 175t-67 175t-159 71h-450v-492zM328 154h471q92 0 158.5 70.5t66.5 174.5
t-66.5 175t-158.5 71h-471v-491z" />
    <glyph glyph-name="C" unicode="C" horiz-adv-x="1495" 
d="M1249 471h174q-61 -228 -232.5 -359.5t-402.5 -131.5q-140 0 -266 54t-218.5 149t-147 234t-54.5 300t54.5 300t147 234t218.5 149t266 54q230 0 402 -130t233 -351h-174q-54 153 -176.5 240t-284.5 87q-143 0 -262 -72t-189.5 -206t-70.5 -305q0 -128 41.5 -238.5
t112 -185.5t166 -117.5t202.5 -42.5q162 0 284.5 89t176.5 249z" />
    <glyph glyph-name="D" unicode="D" horiz-adv-x="1433" 
d="M164 0v1434h481q197 0 353.5 -91.5t244.5 -255.5t88 -370t-88 -370t-244.5 -255.5t-353.5 -91.5h-481zM328 154h317q225 0 373.5 157t148.5 406t-148.5 406t-373.5 157h-317v-1126z" />
    <glyph glyph-name="E" unicode="E" horiz-adv-x="1198" 
d="M164 0v1434h921v-154h-757v-481h716v-154h-716v-491h757v-154h-921z" />
    <glyph glyph-name="F" unicode="F" horiz-adv-x="1157" 
d="M164 0v1434h901v-154h-737v-481h696v-154h-696v-645h-164z" />
    <glyph glyph-name="G" unicode="G" horiz-adv-x="1576" 
d="M1300 0l-20 205h-10q-48 -59 -125 -113q-161 -112 -357 -112q-140 0 -266 54t-218.5 149t-147 234t-54.5 300t54.5 300t147 234t218.5 149t266 54q217 0 392 -122.5t243 -327.5h-174q-61 137 -186.5 216.5t-274.5 79.5q-143 0 -262 -72t-189.5 -206t-70.5 -305
q0 -128 41.5 -238.5t112 -185.5t166 -117.5t202.5 -42.5q125 0 237 62.5t178.5 164.5t66.5 213v21h-430v143h594v-737h-134z" />
    <glyph glyph-name="H" unicode="H" horiz-adv-x="1454" 
d="M164 0v1434h164v-635h798v635h164v-1434h-164v645h-798v-645h-164z" />
    <glyph glyph-name="I" unicode="I" horiz-adv-x="491" 
d="M164 0v1434h164v-1434h-164z" />
    <glyph glyph-name="J" unicode="J" horiz-adv-x="788" 
d="M20 0v154h349q47 0 74.5 27.5t27.5 74.5v1178h164v-1198q0 -111 -62.5 -173.5t-183.5 -62.5h-369z" />
    <glyph glyph-name="K" unicode="K" horiz-adv-x="1177" 
d="M164 0v1434h164v-676l604 676h205l-635 -707l676 -727h-205l-645 696v-696h-164z" />
    <glyph glyph-name="L" unicode="L" horiz-adv-x="1085" 
d="M164 0v1434h164v-1280h716v-154h-880z" />
    <glyph glyph-name="M" unicode="M" horiz-adv-x="1843" 
d="M164 0v1434h297l440 -1250h41l440 1250h297v-1434h-163v1219h-41l-431 -1219h-245l-430 1219h-41v-1219h-164z" />
    <glyph glyph-name="N" unicode="N" horiz-adv-x="1454" 
d="M164 0v1434h276l645 -1239h41v1239h164v-1434h-276l-645 1239h-41v-1239h-164z" />
    <glyph glyph-name="O" unicode="O" horiz-adv-x="1576" 
d="M788 -20q-140 0 -266 54t-218.5 149t-147 234t-54.5 300t54.5 300t147 234t218.5 149t266 54t266 -54t219 -149t147.5 -234t54.5 -300t-54.5 -300t-147.5 -234t-219 -149t-266 -54zM788 133q107 0 202.5 42.5t166.5 117.5t112.5 185.5t41.5 238.5t-41.5 238t-112.5 185
t-166.5 117.5t-202.5 42.5q-143 0 -262 -72t-189.5 -206t-70.5 -305q0 -128 41.5 -238.5t112 -185.5t166 -117.5t202.5 -42.5z" />
    <glyph glyph-name="P" unicode="P" horiz-adv-x="1300" 
d="M164 0v1434h624q170 0 290 -126t120 -315t-120 -314.5t-290 -125.5h-460v-553h-164zM328 707h460q103 0 174.5 79.5t71.5 206.5t-71.5 207t-174.5 80h-460v-573z" />
    <glyph glyph-name="Q" unicode="Q" horiz-adv-x="1576" 
d="M1270 -20l-113 112q-44 -33 -100 -57q-112 -55 -269 -55q-140 0 -266 54t-218.5 149t-147 234t-54.5 300t54.5 300t147 234t218.5 149t266 54t266 -54t219 -149t147.5 -234t54.5 -300q0 -338 -205 -543l205 -194h-205zM696 532h205l256 -245q79 88 116.5 190.5
t37.5 239.5q0 128 -41.5 238t-112.5 185t-166.5 117.5t-202.5 42.5q-143 0 -262 -72t-189.5 -206t-70.5 -305q0 -128 41.5 -238.5t112 -185.5t166 -117.5t202.5 -42.5q106 0 189 31q33 11 67 31z" />
    <glyph glyph-name="R" unicode="R" horiz-adv-x="1310" 
d="M164 0v1434h624q170 0 290 -126t120 -315t-120 -314.5t-290 -125.5h-133l574 -553h-205l-573 553h-123v-553h-164zM328 707h460q103 0 174.5 79.5t71.5 206.5t-71.5 207t-174.5 80h-460v-573z" />
    <glyph glyph-name="S" unicode="S" horiz-adv-x="1259" 
d="M92 420h164q0 -121 101 -204t278 -83q181 0 269.5 70.5t88.5 185.5q0 190 -245 236l-277 51q-348 65 -348 368q0 180 133 295t358 115q241 0 387 -125.5t146 -314.5h-164q0 121 -99 203.5t-270 82.5q-156 0 -241.5 -71.5t-85.5 -184.5q0 -181 235 -225l226 -41
q214 -38 311.5 -132t97.5 -257q0 -182 -137.5 -295.5t-384.5 -113.5q-123 0 -226.5 35.5t-172 96t-106.5 140t-38 168.5z" />
    <glyph glyph-name="T" unicode="T" horiz-adv-x="1208" 
d="M522 0v1280h-471v154h1106v-154h-471v-1280h-164z" />
    <glyph glyph-name="U" unicode="U" horiz-adv-x="1413" 
d="M143 563v871h164v-871q0 -190 114.5 -310t285.5 -120q170 0 284.5 120.5t114.5 309.5v871h164v-871q0 -129 -43.5 -238.5t-118.5 -184.5t-178.5 -117.5t-222.5 -42.5q-159 0 -287 72t-202.5 206t-74.5 305z" />
    <glyph glyph-name="V" unicode="V" horiz-adv-x="1331" 
d="M543 0l-523 1434h175l450 -1260h41l451 1260h174l-523 -1434h-245z" />
    <glyph glyph-name="W" unicode="W" horiz-adv-x="2007" 
d="M389 0l-358 1434h174l307 -1260h41l328 1260h245l328 -1260h41l307 1260h174l-358 -1434h-287l-307 1198h-41l-307 -1198h-287z" />
    <glyph glyph-name="X" unicode="X" horiz-adv-x="1269" 
d="M20 0l502 737l-471 697h185l378 -564h41l379 564h185l-471 -697l501 -737h-184l-410 604h-41l-409 -604h-185z" />
    <glyph glyph-name="Y" unicode="Y" horiz-adv-x="1208" 
d="M522 0v543l-522 891h174l410 -707h41l409 707h174l-522 -891v-543h-164z" />
    <glyph glyph-name="Z" unicode="Z" horiz-adv-x="1177" 
d="M72 0v133l819 1147h-809v154h1014v-134l-820 -1146h830v-154h-1034z" />
    <glyph glyph-name="bracketleft" unicode="[" horiz-adv-x="645" 
d="M164 -410v1905h409v-143h-256v-1618h256v-144h-409z" />
    <glyph glyph-name="backslash" unicode="\" horiz-adv-x="716" 
d="M563 -410l-563 1905h154l563 -1905h-154z" />
    <glyph glyph-name="bracketright" unicode="]" horiz-adv-x="645" 
d="M72 -410v144h256v1618h-256v143h409v-1905h-409z" />
    <glyph glyph-name="asciicircum" unicode="^" horiz-adv-x="829" 
d="M113 881l225 553h154l225 -553h-144l-153 399h-10l-154 -399h-143z" />
    <glyph glyph-name="underscore" unicode="_" horiz-adv-x="737" 
d="M-41 -348v143h819v-143h-819z" />
    <glyph glyph-name="grave" unicode="`" horiz-adv-x="501" 
d="M297 1219l-236 286h185l194 -286h-143z" />
    <glyph glyph-name="a" unicode="a" horiz-adv-x="1085" 
d="M809 0l-21 123h-10q-29 -44 -73 -72q-93 -71 -244 -71q-160 0 -259.5 88.5t-99.5 228.5q0 154 101 241t309 87h276v30q0 117 -64 181.5t-181 64.5q-112 0 -180 -50.5t-76 -123.5h-154q8 131 117.5 224t292.5 93q187 0 293 -102t106 -287v-655h-133zM788 440v41h-276
q-131 0 -193.5 -51t-62.5 -133q0 -80 53.5 -127t151.5 -47q153 0 240 84.5t87 232.5z" />
    <glyph glyph-name="b" unicode="b" horiz-adv-x="1198" 
d="M154 0v1434h153v-553h10q129 163 328 163q203 0 337 -148.5t134 -383.5t-134 -383.5t-337 -148.5q-199 0 -328 163h-10l-20 -143h-133zM635 123q135 0 231.5 108.5t96.5 280.5t-96.5 280.5t-231.5 108.5t-231.5 -108.5t-96.5 -280.5t96.5 -280.5t231.5 -108.5z" />
    <glyph glyph-name="c" unicode="c" horiz-adv-x="1085" 
d="M870 338h154q-38 -169 -158.5 -263.5t-292.5 -94.5q-103 0 -193 39t-156 108t-104 168.5t-38 216.5t38 216.5t104 168.5t156 108t193 39q170 0 291.5 -93.5t159.5 -254.5h-154q-30 99 -108.5 152t-188.5 53q-143 0 -240 -108t-97 -281t97 -281t240 -108q111 0 189 54.5
t108 160.5z" />
    <glyph glyph-name="d" unicode="d" horiz-adv-x="1198" 
d="M911 0l-20 143h-10q-129 -163 -328 -163q-203 0 -337 148.5t-134 383.5t134 383.5t337 148.5q199 0 328 -163h10v553h153v-1434h-133zM563 123q135 0 231.5 108.5t96.5 280.5t-96.5 280.5t-231.5 108.5t-231 -108.5t-96 -280.5t96 -280.5t231 -108.5z" />
    <glyph glyph-name="e" unicode="e" horiz-adv-x="1126" 
d="M850 287h164q-54 -148 -167 -227.5t-274 -79.5q-103 0 -193 39t-156 108t-104 168.5t-38 216.5t38 216.5t104 168.5t156 108t193 39q202 0 336.5 -138.5t134.5 -352.5q0 -34 -6 -88l-4 -25h-798q17 -144 111.5 -230.5t225.5 -86.5q93 0 166 43t111 121zM236 584h655
q-7 139 -97 228t-221 89q-138 0 -228.5 -87.5t-108.5 -229.5z" />
    <glyph glyph-name="f" unicode="f" horiz-adv-x="634" 
d="M215 0v881h-164v143h164v195q0 79 49.5 126.5t134.5 47.5h185v-144h-154q-61 0 -61 -61v-164h215v-143h-215v-881h-154z" />
    <glyph glyph-name="g" unicode="g" horiz-adv-x="1187" 
d="M123 -82h153q8 -85 88.5 -145t219.5 -60q140 0 223.5 78.5t83.5 208.5v184h-10q-127 -143 -328 -143q-203 0 -337 140.5t-134 361.5t134 361t337 140q98 0 185.5 -41.5t142.5 -111.5h10l20 133h133v-1024q0 -194 -123.5 -312t-336.5 -118q-105 0 -192 29.5t-143.5 79
t-89 111.5t-36.5 128zM563 184q140 0 234 100t94 259t-94 258.5t-234 99.5t-233.5 -99.5t-93.5 -258.5t93.5 -259t233.5 -100z" />
    <glyph glyph-name="h" unicode="h" horiz-adv-x="1177" 
d="M154 0v1434h153v-523h10q33 41 76 66q104 67 232 67q178 0 293.5 -119.5t115.5 -310.5v-614h-153v614q0 122 -80.5 204.5t-196.5 82.5q-122 0 -209.5 -85.5t-87.5 -201.5v-614h-153z" />
    <glyph glyph-name="i" unicode="i" horiz-adv-x="460" 
d="M154 0v1024h153v-1024h-153zM143 1239v174h174v-174h-174z" />
    <glyph glyph-name="j" unicode="j" horiz-adv-x="460" 
d="M143 1239v174h174v-174h-174zM-61 -410v144h153q62 0 62 61v1229h153v-1260q0 -79 -49.5 -126.5t-134.5 -47.5h-184z" />
    <glyph glyph-name="k" unicode="k" horiz-adv-x="983" 
d="M154 0v1434h153v-881l461 471h195l-492 -502l512 -522h-195l-481 492v-492h-153z" />
    <glyph glyph-name="l" unicode="l" horiz-adv-x="460" 
d="M154 0v1434h153v-1434h-153z" />
    <glyph glyph-name="m" unicode="m" horiz-adv-x="1730" 
d="M143 0v1024h133l21 -113h10q31 39 72 66q95 67 194 67q134 0 230 -88q41 -38 67 -86h11q36 52 84 86q113 88 254 88q161 0 264.5 -111.5t103.5 -287.5v-645h-153v645q0 117 -63.5 186.5t-172.5 69.5q-101 0 -178.5 -75t-77.5 -181v-645h-154v645q0 117 -63.5 186.5
t-171.5 69.5q-101 0 -178.5 -75t-77.5 -181v-645h-154z" />
    <glyph glyph-name="n" unicode="n" horiz-adv-x="1167" 
d="M143 0v1024h133l21 -113h10q33 41 76 66q104 67 231 67q178 0 294 -119.5t116 -310.5v-614h-154v614q0 122 -80 204.5t-196 82.5q-122 0 -209.5 -85.5t-87.5 -201.5v-614h-154z" />
    <glyph glyph-name="o" unicode="o" 
d="M573 -20q-103 0 -193 39t-156 108t-104 168.5t-38 216.5t38 216.5t104 168.5t156 108t193 39q137 0 249 -66t177.5 -188.5t65.5 -277.5t-65.5 -277.5t-177.5 -188.5t-249 -66zM573 123q143 0 240.5 108t97.5 281t-97.5 281t-240.5 108t-240 -108t-97 -281t97 -281
t240 -108z" />
    <glyph glyph-name="p" unicode="p" horiz-adv-x="1187" 
d="M143 -410v1434h133l21 -143h10q129 163 328 163q203 0 337 -148.5t134 -383.5t-134 -383.5t-337 -148.5q-199 0 -328 163h-10v-553h-154zM625 123q135 0 231 108.5t96 280.5t-96 280.5t-231 108.5t-231.5 -108.5t-96.5 -280.5t96.5 -280.5t231.5 -108.5z" />
    <glyph glyph-name="q" unicode="q" horiz-adv-x="1187" 
d="M891 -410v553h-10q-129 -163 -328 -163q-203 0 -337 148.5t-134 383.5t134 383.5t337 148.5q199 0 328 -163h10l20 143h133v-1434h-153zM563 123q135 0 231.5 108.5t96.5 280.5t-96.5 280.5t-231.5 108.5t-231 -108.5t-96 -280.5t96 -280.5t231 -108.5z" />
    <glyph glyph-name="r" unicode="r" horiz-adv-x="696" 
d="M143 0v1024h133l21 -102h10q36 52 76.5 77t118.5 25h174v-143h-154q-109 0 -167 -58.5t-58 -167.5v-655h-154z" />
    <glyph glyph-name="s" unicode="s" horiz-adv-x="942" 
d="M61 297h154q0 -73 69 -123.5t187 -50.5t182 44t64 109q0 62 -41.5 99.5t-132.5 54.5l-174 31q-287 48 -287 287q0 129 98 212.5t281 83.5q178 0 288.5 -94t110.5 -223h-153q0 72 -66.5 123t-179.5 51q-111 0 -168 -43.5t-57 -109.5q0 -57 37 -92t126 -52l174 -31
q153 -29 225 -101.5t72 -195.5q0 -130 -103 -213t-296 -83q-185 0 -297.5 94t-112.5 223z" />
    <glyph glyph-name="t" unicode="t" horiz-adv-x="696" 
d="M215 174v707h-164v143h164v287h154v-287h235v-143h-235v-676q0 -62 61 -62h174v-143h-205q-85 0 -134.5 47.5t-49.5 126.5z" />
    <glyph glyph-name="u" unicode="u" horiz-adv-x="1167" 
d="M143 410v614h154v-614q0 -122 80 -204.5t196 -82.5q122 0 209.5 85.5t87.5 201.5v614h154v-1024h-133l-21 113h-10q-38 -45 -78 -68q-100 -65 -229 -65q-178 0 -294 119.5t-116 310.5z" />
    <glyph glyph-name="v" unicode="v" horiz-adv-x="1024" 
d="M389 0l-369 1024h164l308 -860h40l308 860h164l-369 -1024h-246z" />
    <glyph glyph-name="w" unicode="w" horiz-adv-x="1617" 
d="M307 0l-276 1024h164l225 -860h41l225 860h246l225 -860h41l225 860h164l-276 -1024h-267l-215 829h-41l-215 -829h-266z" />
    <glyph glyph-name="x" unicode="x" horiz-adv-x="983" 
d="M20 0l349 522l-338 502h184l256 -389h41l256 389h184l-338 -502l349 -522h-185l-266 410h-41l-266 -410h-185z" />
    <glyph glyph-name="y" unicode="y" horiz-adv-x="1013" 
d="M133 -410v144h195q51 0 71 61l41 123l-420 1106h164l318 -850h41l286 850h164l-461 -1290q-26 -76 -68.5 -110t-125.5 -34h-205z" />
    <glyph glyph-name="z" unicode="z" horiz-adv-x="880" 
d="M51 0v133l574 748h-564v143h758v-133l-573 -748h583v-143h-778z" />
    <glyph glyph-name="braceleft" unicode="{" horiz-adv-x="645" 
d="M246 -184v532q0 48 -36.5 80.5t-96.5 32.5v164q60 0 96.5 32t36.5 80v533q0 100 62.5 162.5t162.5 62.5h102v-133h-81q-93 0 -93 -92v-533q0 -103 -82 -149q-40 -22 -81 -25v-41q45 -6 81 -26q82 -46 82 -148v-532q0 -92 93 -92h81v-134h-102q-100 0 -162.5 63t-62.5 163
z" />
    <glyph glyph-name="bar" unicode="|" horiz-adv-x="645" 
d="M246 -410v1905h153v-1905h-153z" />
    <glyph glyph-name="braceright" unicode="}" horiz-adv-x="645" 
d="M72 -410v134h82q92 0 92 92v532q0 102 82 148q36 20 82 26v41q-42 3 -82 25q-82 46 -82 149v533q0 92 -92 92h-82v133h102q100 0 162.5 -62.5t62.5 -162.5v-533q0 -48 36.5 -80t96.5 -32v-164q-60 0 -96.5 -32.5t-36.5 -80.5v-532q0 -100 -62.5 -163t-162.5 -63h-102z
" />
    <glyph glyph-name="asciitilde" unicode="~" horiz-adv-x="1157" 
d="M246 399h-154q0 161 78.5 249.5t218.5 88.5q54 0 101.5 -21t81.5 -51t64.5 -60.5t64.5 -51.5t67 -21q143 0 143 195h154q0 -161 -78.5 -249.5t-218.5 -88.5q-53 0 -101 21t-82 51.5t-65 60.5t-64.5 51t-66.5 21q-143 0 -143 -195z" />
    <glyph glyph-name="nbspace" unicode="&#xa0;" horiz-adv-x="471" 
 />
    <glyph glyph-name="exclamdown" unicode="&#xa1;" horiz-adv-x="512" 
d="M174 -410v615l21 491h122l21 -491v-615h-164zM164 840v184h184v-184h-184z" />
    <glyph glyph-name="cent" unicode="&#xa2;" horiz-adv-x="1085" 
d="M492 -225v215q-181 30 -295.5 172t-114.5 350q0 211 114 350t296 172v215h153v-215q304 -48 379 -338h-154q-30 99 -108.5 152t-188.5 53q-143 0 -240 -108t-97 -281t97 -281t240 -108q111 0 189 54.5t108 160.5h154q-75 -300 -379 -348v-215h-153z" />
    <glyph glyph-name="sterling" unicode="&#xa3;" horiz-adv-x="1208" 
d="M72 0v154h51q123 0 123 122v338h-174v144h174v276q0 180 122 300t318 120t318 -114t122 -285h-163q0 104 -75.5 174.5t-201.5 70.5q-122 0 -199 -75t-77 -191v-276h399v-144h-399v-338q0 -60 -31 -100q-16 -16 -31 -22h809v-154h-1085z" />
    <glyph glyph-name="currency" unicode="&#xa4;" horiz-adv-x="1187" 
d="M594 492q91 0 158 66t67 159q0 91 -67 158t-158 67q-93 0 -159 -67t-66 -158q0 -94 65.5 -159.5t159.5 -65.5zM164 389l112 133q-17 24 -26 51q-25 59 -25 144q0 84 25 143q9 27 26 51l-112 133l112 103l113 -123q25 18 55 31q75 30 150 30q63 0 147 -30l58 -31l112 123
l113 -103l-113 -133q15 -21 25 -51q27 -64 27 -143q0 -80 -27 -144q-10 -30 -25 -51l113 -133l-113 -102l-112 123q-29 -20 -58 -31q-76 -31 -147 -31q-82 0 -150 31q-32 11 -55 31l-113 -123z" />
    <glyph glyph-name="yen" unicode="&#xa5;" horiz-adv-x="1187" 
d="M164 287v143h348v164h-348v143h246l-390 697h175l378 -697h41l379 697h174l-389 -697h246v-143h-348v-164h348v-143h-348v-287h-164v287h-348z" />
    <glyph glyph-name="brokenbar" unicode="&#xa6;" horiz-adv-x="645" 
d="M246 737v758h153v-758h-153zM246 -410v758h153v-758h-153z" />
    <glyph glyph-name="section" unicode="&#xa7;" horiz-adv-x="1269" 
d="M154 72h163q0 -121 85.5 -194t242.5 -73q147 0 222 57t75 148q0 171 -215 215l-205 41q-199 41 -294 129.5t-95 229.5q0 102 62 188q29 40 61 68q-28 28 -41 53q-41 62 -41 162q0 159 117.5 258.5t333.5 99.5q217 0 349 -119.5t132 -300.5h-164q0 120 -83.5 193
t-233.5 73q-140 0 -213.5 -57t-73.5 -147q0 -79 45 -120.5t160 -64.5l205 -41q201 -38 295 -124.5t94 -233.5q0 -105 -62 -199q-27 -40 -61 -67q21 -18 45 -58q47 -80 47 -178q0 -153 -123.5 -255.5t-337.5 -102.5q-224 0 -357.5 119t-133.5 301zM522 420l205 -41
q60 -8 113 -29q21 -7 51 -22q24 21 41 43q41 55 41 141q0 160 -225 205l-205 41q-123 27 -125 28q-17 5 -29 13q-22 -12 -47 -41q-45 -61 -45 -133q0 -160 225 -205z" />
    <glyph glyph-name="dieresis" unicode="&#xa8;" horiz-adv-x="655" 
d="M420 1239v174h174v-174h-174zM61 1239v174h175v-174h-175z" />
    <glyph glyph-name="copyright" unicode="&#xa9;" horiz-adv-x="1720" 
d="M123 717q0 155 56.5 292t154 234.5t234.5 154t292 56.5t292 -56.5t234.5 -154t154 -234.5t56.5 -292t-56.5 -292t-154 -234.5t-234.5 -154t-292 -56.5t-292 56.5t-234.5 154t-154 234.5t-56.5 292zM860 113q163 0 298.5 77t215.5 216.5t80 310.5t-80 310.5t-215.5 216.5
t-298.5 77t-298.5 -77t-215.5 -216.5t-80 -310.5t80 -310.5t215.5 -216.5t298.5 -77zM1075 594h133q-31 -122 -122.5 -194t-215.5 -72q-160 0 -264 110t-104 279q0 167 106.5 278t261.5 111q123 0 215 -69.5t123 -186.5h-133q-45 133 -205 133q-102 0 -168.5 -72.5
t-66.5 -193.5t66.5 -193.5t168.5 -72.5q81 0 131.5 33.5t73.5 109.5z" />
    <glyph glyph-name="ordfeminine" unicode="&#xaa;" horiz-adv-x="686" 
d="M512 809l-20 82h-11q-56 -92 -184 -92q-100 0 -162.5 56.5t-62.5 148.5q0 89 62.5 141.5t182.5 52.5h164v21q0 59 -38 90.5t-95 31.5q-96 0 -133 -81h-123q18 89 84 141.5t172 52.5q110 0 178 -63.5t68 -171.5v-410h-82zM481 1085v11h-164q-56 0 -89 -23t-33 -69
q0 -45 31 -69t81 -24q174 0 174 174z" />
    <glyph glyph-name="guillemotleft" unicode="&#xab;" horiz-adv-x="1013" 
d="M379 113l-287 399l287 399h164l-287 -399l287 -399h-164zM758 113l-287 399l287 399h164l-287 -399l287 -399h-164z" />
    <glyph glyph-name="logicalnot" unicode="&#xac;" horiz-adv-x="1075" 
d="M143 604v144h779v-410h-154v266h-625z" />
    <glyph glyph-name="uni00AD" unicode="&#xad;" horiz-adv-x="839" 
d="M92 512v143h656v-143h-656z" />
    <glyph glyph-name="registered" unicode="&#xae;" horiz-adv-x="1720" 
d="M584 338v768h338q107 0 181.5 -74.5t74.5 -181.5t-67 -177.5t-169 -78.5l256 -256h-164l-256 256h-61v-256h-133zM717 717h205q55 0 88.5 36t33.5 97t-33.5 97t-88.5 36h-205v-266zM123 717q0 155 56.5 292t154 234.5t234.5 154t292 56.5t292 -56.5t234.5 -154
t154 -234.5t56.5 -292t-56.5 -292t-154 -234.5t-234.5 -154t-292 -56.5t-292 56.5t-234.5 154t-154 234.5t-56.5 292zM860 113q163 0 298.5 77t215.5 216.5t80 310.5t-80 310.5t-215.5 216.5t-298.5 77t-298.5 -77t-215.5 -216.5t-80 -310.5t80 -310.5t215.5 -216.5
t298.5 -77z" />
    <glyph glyph-name="overscore" unicode="&#xaf;" horiz-adv-x="696" 
d="M61 1270v123h574v-123h-574z" />
    <glyph glyph-name="degree" unicode="&#xb0;" horiz-adv-x="757" 
d="M113 1188q0 117 74.5 191.5t191.5 74.5t191.5 -74.5t74.5 -191.5t-74.5 -191.5t-191.5 -74.5t-191.5 74.5t-74.5 191.5zM379 1044q61 0 102 41t41 103t-41 102.5t-102 40.5t-102 -40.5t-41 -102.5t41 -103t102 -41z" />
    <glyph glyph-name="plusminus" unicode="&#xb1;" horiz-adv-x="1095" 
d="M471 287v379h-369v143h369v379h154v-379h368v-143h-368v-379h-154zM113 0v143h870v-143h-870z" />
    <glyph glyph-name="uni00B2" unicode="&#xb2;" horiz-adv-x="686" 
d="M113 901v103l286 296q33 33 47.5 60t14.5 63q0 49 -30.5 81t-82.5 32q-56 0 -89.5 -31.5t-33.5 -91.5h-123q0 101 69 168.5t177 67.5t172 -62.5t64 -163.5q0 -64 -23 -105t-80 -99l-184 -195v-10h297v-113h-481z" />
    <glyph glyph-name="uni00B3" unicode="&#xb3;" horiz-adv-x="686" 
d="M92 1106h123q0 -40 35.5 -71t87.5 -31q55 0 89 29.5t34 82.5q0 54 -35.5 83.5t-97.5 29.5h-52v112h52q60 0 91.5 27.5t31.5 75.5q0 40 -30.5 66t-82.5 26t-82.5 -26t-30.5 -66h-123q0 88 64.5 146.5t171.5 58.5q106 0 170.5 -58.5t64.5 -146.5q0 -47 -27.5 -89t-74.5 -65
v-10q50 -18 81.5 -61.5t31.5 -102.5q0 -96 -66.5 -160.5t-179.5 -64.5q-106 0 -176 61.5t-70 153.5z" />
    <glyph glyph-name="acute" unicode="&#xb4;" horiz-adv-x="501" 
d="M61 1219l195 286h184l-235 -286h-144z" />
    <glyph glyph-name="uni00B5" unicode="&#xb5;" horiz-adv-x="1167" 
d="M143 -410v1434h154v-614q0 -122 80 -204.5t196 -82.5q122 0 209.5 85.5t87.5 201.5v614h154v-1024h-133l-21 113h-10q-38 -44 -76 -68q-97 -65 -221 -65q-127 0 -203 55q-37 24 -63 57v-502h-154z" />
    <glyph glyph-name="paragraph" unicode="&#xb6;" horiz-adv-x="1075" 
d="M420 -205v942q-140 0 -234 98t-94 250t94 250.5t234 98.5h491v-1639h-153v1495h-185v-1495h-153z" />
    <glyph glyph-name="middot" unicode="&#xb7;" horiz-adv-x="471" 
d="M143 451v184h185v-184h-185z" />
    <glyph glyph-name="cedilla" unicode="&#xb8;" horiz-adv-x="419" 
d="M61 -420v103h82q46 0 69.5 19.5t23.5 51.5t-24 52t-69 20h-51v72l41 92h123l-41 -92q60 -7 101.5 -53t41.5 -101q0 -71 -52 -117.5t-142 -46.5h-103z" />
    <glyph glyph-name="uni00B9" unicode="&#xb9;" horiz-adv-x="522" 
d="M246 901v533h-174v112h112q62 0 62 62v30h123v-737h-123z" />
    <glyph glyph-name="ordmasculine" unicode="&#xba;" horiz-adv-x="757" 
d="M379 799q-131 0 -214 90t-83 237t83 237.5t214 90.5t214 -90.5t83 -237.5t-83 -237t-214 -90zM379 911q72 0 123 59.5t51 155.5t-51 155.5t-123 59.5t-123 -59.5t-51 -155.5t51 -155.5t123 -59.5z" />
    <glyph glyph-name="guillemotright" unicode="&#xbb;" horiz-adv-x="1013" 
d="M92 113l287 399l-287 399h164l287 -399l-287 -399h-164zM471 113l287 399l-287 399h164l287 -399l-287 -399h-164z" />
    <glyph glyph-name="onequarter" unicode="&#xbc;" horiz-adv-x="1351" 
d="M113 0l891 1434h143l-891 -1434h-143zM256 696v533h-174v112h113q61 0 61 62v31h123v-738h-123zM707 154v102l276 481h184v-471h103v-112h-103v-154h-123v154h-337zM860 266h184v307h-20l-164 -297v-10z" />
    <glyph glyph-name="onehalf" unicode="&#xbd;" horiz-adv-x="1413" 
d="M113 0l891 1434h143l-891 -1434h-143zM256 696v533h-174v112h113q61 0 61 62v31h123v-738h-123zM809 0v102l287 297q33 33 47 60t14 63q0 49 -30.5 81t-82.5 32q-56 0 -89 -31.5t-33 -91.5h-123q0 101 68.5 168.5t176.5 67.5t172 -62.5t64 -163.5q0 -64 -23 -105.5
t-79 -99.5l-185 -194v-10h297v-113h-481z" />
    <glyph glyph-name="threequarters" unicode="&#xbe;" horiz-adv-x="1484" 
d="M246 0l891 1434h143l-891 -1434h-143zM82 901h123q0 -40 35.5 -71t87.5 -31q55 0 89 29.5t34 82.5t-36 83t-98 30h-51v113h51q60 0 91.5 27t31.5 75q0 40 -30 66t-82 26t-82.5 -26t-30.5 -66h-123q0 88 64.5 146.5t171.5 58.5q106 0 170.5 -58.5t64.5 -146.5
q0 -47 -27.5 -89t-74.5 -65v-10q49 -18 80.5 -61.5t31.5 -102.5q0 -96 -66 -160.5t-179 -64.5q-106 0 -176 61.5t-70 153.5zM840 154v102l276 481h184v-471h103v-112h-103v-154h-122v154h-338zM993 266h185v307h-21l-164 -297v-10z" />
    <glyph glyph-name="questiondown" unicode="&#xbf;" horiz-adv-x="1034" 
d="M451 840v184h184v-184h-184zM819 -31h164q0 -171 -126 -285t-325 -114q-198 0 -324 120t-126 300q0 262 235 379q86 41 115 88t29 116v123h164v-123q0 -121 -50.5 -193t-175.5 -134q-153 -75 -153 -256q0 -115 81.5 -190.5t204.5 -75.5q127 0 207 71t80 174z" />
    <glyph glyph-name="Agrave" unicode="&#xc0;" horiz-adv-x="1331" 
d="M0 0l543 1434h245l543 -1434h-174l-133 369h-717l-133 -369h-174zM369 522h594l-277 738h-41zM594 1577l-236 287h185l194 -287h-143z" />
    <glyph glyph-name="Aacute" unicode="&#xc1;" horiz-adv-x="1331" 
d="M0 0l543 1434h245l543 -1434h-174l-133 369h-717l-133 -369h-174zM369 522h594l-277 738h-41zM594 1577l194 287h185l-236 -287h-143z" />
    <glyph glyph-name="Acircumflex" unicode="&#xc2;" horiz-adv-x="1331" 
d="M0 0l543 1434h245l543 -1434h-174l-133 369h-717l-133 -369h-174zM369 522h594l-277 738h-41zM348 1577l236 276h164l235 -276h-164l-153 184l-154 -184h-164z" />
    <glyph glyph-name="Atilde" unicode="&#xc3;" horiz-adv-x="1331" 
d="M0 0l543 1434h245l543 -1434h-174l-133 369h-717l-133 -369h-174zM369 522h594l-277 738h-41zM471 1618h-123q0 91 59 148t146 57q44 0 87.5 -23t81 -46t66.5 -23q34 0 58 24t24 68h123q0 -91 -59 -148t-146 -57q-44 0 -87.5 23t-81 46t-66.5 23q-34 0 -58 -24t-24 -68z
" />
    <glyph glyph-name="Adieresis" unicode="&#xc4;" horiz-adv-x="1331" 
d="M0 0l543 1434h245l543 -1434h-174l-133 369h-717l-133 -369h-174zM369 522h594l-277 738h-41zM758 1638v174h174v-174h-174zM399 1638v174h174v-174h-174z" />
    <glyph glyph-name="Aring" unicode="&#xc5;" horiz-adv-x="1331" 
d="M0 0l543 1434h245l543 -1434h-174l-133 369h-717l-133 -369h-174zM369 522h594l-277 738h-41zM481 1741q0 78 53.5 131t131.5 53t131 -53t53 -131t-53 -131.5t-131 -53.5t-131.5 53.5t-53.5 131.5zM666 1659q33 0 57.5 22.5t24.5 59.5t-24.5 59.5t-57.5 22.5t-57.5 -22.5
t-24.5 -59.5t24.5 -59.5t57.5 -22.5z" />
    <glyph glyph-name="AE" unicode="&#xc6;" horiz-adv-x="1894" 
d="M-20 0l624 1434h1178v-154h-758v-481h717v-154h-717v-491h758v-154h-922v358h-553l-153 -358h-174zM379 512h481v768h-153z" />
    <glyph glyph-name="Ccedilla" unicode="&#xc7;" horiz-adv-x="1495" 
d="M645 -410v103h82q46 0 69 19.5t23 51.5t-23.5 52t-68.5 20h-51v72l31 72q-124 15 -233 72.5t-192 149.5t-131.5 225.5t-48.5 289.5q0 161 54.5 300t147 234t218.5 149t266 54q230 0 402 -130t233 -351h-174q-54 153 -176.5 240t-284.5 87q-143 0 -262 -72t-189.5 -206
t-70.5 -305q0 -128 41.5 -238.5t112 -185.5t166 -117.5t202.5 -42.5q162 0 284.5 89t176.5 249h174q-60 -227 -216.5 -352t-377.5 -139l-30 -72q60 -7 101.5 -53t41.5 -101q0 -71 -52 -117.5t-142 -46.5h-103z" />
    <glyph glyph-name="Egrave" unicode="&#xc8;" horiz-adv-x="1198" 
d="M164 0v1434h921v-154h-757v-481h716v-154h-716v-491h757v-154h-921zM553 1577l-236 287h185l194 -287h-143z" />
    <glyph glyph-name="Eacute" unicode="&#xc9;" horiz-adv-x="1198" 
d="M164 0v1434h921v-154h-757v-481h716v-154h-716v-491h757v-154h-921zM553 1577l195 287h184l-236 -287h-143z" />
    <glyph glyph-name="Ecircumflex" unicode="&#xca;" horiz-adv-x="1198" 
d="M164 0v1434h921v-154h-757v-481h716v-154h-716v-491h757v-154h-921zM307 1577l236 276h164l235 -276h-164l-153 184l-154 -184h-164z" />
    <glyph glyph-name="Edieresis" unicode="&#xcb;" horiz-adv-x="1198" 
d="M164 0v1434h921v-154h-757v-481h716v-154h-716v-491h757v-154h-921zM717 1638v174h174v-174h-174zM358 1638v174h174v-174h-174z" />
    <glyph glyph-name="Igrave" unicode="&#xcc;" horiz-adv-x="491" 
d="M164 0v1434h164v-1434h-164zM174 1577l-235 287h184l194 -287h-143z" />
    <glyph glyph-name="Iacute" unicode="&#xcd;" horiz-adv-x="491" 
d="M164 0v1434h164v-1434h-164zM174 1577l195 287h184l-236 -287h-143z" />
    <glyph glyph-name="Icircumflex" unicode="&#xce;" horiz-adv-x="491" 
d="M164 0v1434h164v-1434h-164zM-72 1577l236 276h164l235 -276h-164l-153 184l-154 -184h-164z" />
    <glyph glyph-name="Idieresis" unicode="&#xcf;" horiz-adv-x="491" 
d="M164 0v1434h164v-1434h-164zM338 1638v174h174v-174h-174zM-20 1638v174h174v-174h-174z" />
    <glyph glyph-name="Eth" unicode="&#xd0;" horiz-adv-x="1505" 
d="M236 0v645h-195v154h195v635h481q197 0 353.5 -91.5t244.5 -255.5t88 -370t-88 -370t-244.5 -255.5t-353.5 -91.5h-481zM399 154h318q225 0 373.5 157t148.5 406t-148.5 406t-373.5 157h-318v-481h379v-154h-379v-491z" />
    <glyph glyph-name="Ntilde" unicode="&#xd1;" horiz-adv-x="1454" 
d="M164 0v1434h276l645 -1239h41v1239h164v-1434h-276l-645 1239h-41v-1239h-164zM532 1618h-122q0 91 59 148t145 57q44 0 88 -23t81.5 -46t66.5 -23q34 0 58 24t24 68h123q0 -91 -59 -148t-146 -57q-44 0 -88 23t-81.5 46t-66.5 23q-34 0 -58 -24t-24 -68z" />
    <glyph glyph-name="Ograve" unicode="&#xd2;" horiz-adv-x="1576" 
d="M788 -20q-140 0 -266 54t-218.5 149t-147 234t-54.5 300t54.5 300t147 234t218.5 149t266 54t266 -54t219 -149t147.5 -234t54.5 -300t-54.5 -300t-147.5 -234t-219 -149t-266 -54zM788 133q107 0 202.5 42.5t166.5 117.5t112.5 185.5t41.5 238.5t-41.5 238t-112.5 185
t-166.5 117.5t-202.5 42.5q-143 0 -262 -72t-189.5 -206t-70.5 -305q0 -128 41.5 -238.5t112 -185.5t166 -117.5t202.5 -42.5zM717 1577l-236 287h185l194 -287h-143z" />
    <glyph glyph-name="Oacute" unicode="&#xd3;" horiz-adv-x="1576" 
d="M788 -20q-140 0 -266 54t-218.5 149t-147 234t-54.5 300t54.5 300t147 234t218.5 149t266 54t266 -54t219 -149t147.5 -234t54.5 -300t-54.5 -300t-147.5 -234t-219 -149t-266 -54zM788 133q107 0 202.5 42.5t166.5 117.5t112.5 185.5t41.5 238.5t-41.5 238t-112.5 185
t-166.5 117.5t-202.5 42.5q-143 0 -262 -72t-189.5 -206t-70.5 -305q0 -128 41.5 -238.5t112 -185.5t166 -117.5t202.5 -42.5zM717 1577l194 287h185l-236 -287h-143z" />
    <glyph glyph-name="Ocircumflex" unicode="&#xd4;" horiz-adv-x="1576" 
d="M788 -20q-140 0 -266 54t-218.5 149t-147 234t-54.5 300t54.5 300t147 234t218.5 149t266 54t266 -54t219 -149t147.5 -234t54.5 -300t-54.5 -300t-147.5 -234t-219 -149t-266 -54zM788 133q107 0 202.5 42.5t166.5 117.5t112.5 185.5t41.5 238.5t-41.5 238t-112.5 185
t-166.5 117.5t-202.5 42.5q-143 0 -262 -72t-189.5 -206t-70.5 -305q0 -128 41.5 -238.5t112 -185.5t166 -117.5t202.5 -42.5zM471 1577l236 276h163l236 -276h-164l-154 184l-153 -184h-164z" />
    <glyph glyph-name="Otilde" unicode="&#xd5;" horiz-adv-x="1576" 
d="M788 -20q-140 0 -266 54t-218.5 149t-147 234t-54.5 300t54.5 300t147 234t218.5 149t266 54t266 -54t219 -149t147.5 -234t54.5 -300t-54.5 -300t-147.5 -234t-219 -149t-266 -54zM788 133q107 0 202.5 42.5t166.5 117.5t112.5 185.5t41.5 238.5t-41.5 238t-112.5 185
t-166.5 117.5t-202.5 42.5q-143 0 -262 -72t-189.5 -206t-70.5 -305q0 -128 41.5 -238.5t112 -185.5t166 -117.5t202.5 -42.5zM594 1618h-123q0 91 59 148t146 57q44 0 87.5 -23t81 -46t66.5 -23q34 0 58 24t24 68h123q0 -91 -59 -148t-146 -57q-44 0 -87.5 23t-81 46
t-66.5 23q-34 0 -58 -24t-24 -68z" />
    <glyph glyph-name="Odieresis" unicode="&#xd6;" horiz-adv-x="1576" 
d="M788 -20q-140 0 -266 54t-218.5 149t-147 234t-54.5 300t54.5 300t147 234t218.5 149t266 54t266 -54t219 -149t147.5 -234t54.5 -300t-54.5 -300t-147.5 -234t-219 -149t-266 -54zM788 133q107 0 202.5 42.5t166.5 117.5t112.5 185.5t41.5 238.5t-41.5 238t-112.5 185
t-166.5 117.5t-202.5 42.5q-143 0 -262 -72t-189.5 -206t-70.5 -305q0 -128 41.5 -238.5t112 -185.5t166 -117.5t202.5 -42.5zM881 1638v174h174v-174h-174zM522 1638v174h174v-174h-174z" />
    <glyph glyph-name="multiply" unicode="&#xd7;" horiz-adv-x="1085" 
d="M154 317l286 287l-286 287l102 102l287 -286l286 286l103 -102l-287 -287l287 -287l-103 -102l-286 287l-287 -287z" />
    <glyph glyph-name="Oslash" unicode="&#xd8;" horiz-adv-x="1576" 
d="M1116 1178l-522 -1004q13 -7 51 -20q69 -21 143 -21q107 0 202.5 42.5t166.5 117.5t112.5 185.5t41.5 238.5q0 149 -53 269.5t-142 191.5zM461 256l522 1004q-13 7 -51 20q-66 20 -144 20q-143 0 -262 -72t-189.5 -206t-70.5 -305q0 -149 53 -269.5t142 -191.5zM287 -72
l92 185q-129 105 -203 258t-74 346q0 161 54.5 300t147 234t218.5 149t266 54q100 0 197 -29q45 -13 74 -26l57 106h174l-92 -184q129 -105 203 -258t74 -346q0 -161 -54.5 -300t-147.5 -234t-219 -149t-266 -54q-109 0 -196 26q-23 7 -74 29l-57 -107h-174z" />
    <glyph glyph-name="Ugrave" unicode="&#xd9;" horiz-adv-x="1413" 
d="M143 563v871h164v-871q0 -190 114.5 -310t285.5 -120q170 0 284.5 120.5t114.5 309.5v871h164v-871q0 -129 -43.5 -238.5t-118.5 -184.5t-178.5 -117.5t-222.5 -42.5q-159 0 -287 72t-202.5 206t-74.5 305zM635 1577l-236 287h185l194 -287h-143z" />
    <glyph glyph-name="Uacute" unicode="&#xda;" horiz-adv-x="1413" 
d="M143 563v871h164v-871q0 -190 114.5 -310t285.5 -120q170 0 284.5 120.5t114.5 309.5v871h164v-871q0 -129 -43.5 -238.5t-118.5 -184.5t-178.5 -117.5t-222.5 -42.5q-159 0 -287 72t-202.5 206t-74.5 305zM635 1577l194 287h185l-236 -287h-143z" />
    <glyph glyph-name="Ucircumflex" unicode="&#xdb;" horiz-adv-x="1413" 
d="M143 563v871h164v-871q0 -190 114.5 -310t285.5 -120q170 0 284.5 120.5t114.5 309.5v871h164v-871q0 -129 -43.5 -238.5t-118.5 -184.5t-178.5 -117.5t-222.5 -42.5q-159 0 -287 72t-202.5 206t-74.5 305zM389 1577l236 276h163l236 -276h-164l-153 184l-154 -184h-164z
" />
    <glyph glyph-name="Udieresis" unicode="&#xdc;" horiz-adv-x="1413" 
d="M143 563v871h164v-871q0 -190 114.5 -310t285.5 -120q170 0 284.5 120.5t114.5 309.5v871h164v-871q0 -129 -43.5 -238.5t-118.5 -184.5t-178.5 -117.5t-222.5 -42.5q-159 0 -287 72t-202.5 206t-74.5 305zM799 1638v174h174v-174h-174zM440 1638v174h174v-174h-174z" />
    <glyph glyph-name="Yacute" unicode="&#xdd;" horiz-adv-x="1208" 
d="M522 0v543l-522 891h174l410 -707h41l409 707h174l-522 -891v-543h-164zM532 1577l195 287h184l-235 -287h-144z" />
    <glyph glyph-name="Thorn" unicode="&#xde;" horiz-adv-x="1423" 
d="M164 0v1434h164v-308h594q177 0 293 -116t116 -293t-116 -293.5t-293 -116.5h-594v-307h-164zM328 461h594q110 0 177.5 70t67.5 186t-67.5 186t-177.5 70h-594v-512z" />
    <glyph glyph-name="germandbls" unicode="&#xdf;" horiz-adv-x="1126" 
d="M143 0v1055q0 178 114.5 288.5t305.5 110.5q196 0 313 -113.5t117 -285.5q0 -154 -98 -252q-46 -46 -96 -66v-10q69 -24 123 -68q122 -95 122 -260q0 -174 -127 -286.5t-344 -112.5h-71v143h71q149 0 233.5 72t84.5 184t-84.5 184t-233.5 72h-71v144h71q120 0 193.5 73
t73.5 183q0 109 -78 182.5t-199 73.5q-115 0 -190.5 -74t-75.5 -182v-1055h-154z" />
    <glyph glyph-name="agrave" unicode="&#xe0;" horiz-adv-x="1085" 
d="M809 0l-21 123h-10q-29 -44 -73 -72q-93 -71 -244 -71q-160 0 -259.5 88.5t-99.5 228.5q0 154 101 241t309 87h276v30q0 117 -64 181.5t-181 64.5q-112 0 -180 -50.5t-76 -123.5h-154q8 131 117.5 224t292.5 93q187 0 293 -102t106 -287v-655h-133zM788 440v41h-276
q-131 0 -193.5 -51t-62.5 -133q0 -80 53.5 -127t151.5 -47q153 0 240 84.5t87 232.5zM471 1188l-235 287h184l194 -287h-143z" />
    <glyph glyph-name="aacute" unicode="&#xe1;" horiz-adv-x="1085" 
d="M809 0l-21 123h-10q-29 -44 -73 -72q-93 -71 -244 -71q-160 0 -259.5 88.5t-99.5 228.5q0 154 101 241t309 87h276v30q0 117 -64 181.5t-181 64.5q-112 0 -180 -50.5t-76 -123.5h-154q8 131 117.5 224t292.5 93q187 0 293 -102t106 -287v-655h-133zM788 440v41h-276
q-131 0 -193.5 -51t-62.5 -133q0 -80 53.5 -127t151.5 -47q153 0 240 84.5t87 232.5zM471 1188l195 287h184l-236 -287h-143z" />
    <glyph glyph-name="acircumflex" unicode="&#xe2;" horiz-adv-x="1085" 
d="M809 0l-21 123h-10q-29 -44 -73 -72q-93 -71 -244 -71q-160 0 -259.5 88.5t-99.5 228.5q0 154 101 241t309 87h276v30q0 117 -64 181.5t-181 64.5q-112 0 -180 -50.5t-76 -123.5h-154q8 131 117.5 224t292.5 93q187 0 293 -102t106 -287v-655h-133zM788 440v41h-276
q-131 0 -193.5 -51t-62.5 -133q0 -80 53.5 -127t151.5 -47q153 0 240 84.5t87 232.5zM225 1188l236 276h164l235 -276h-164l-153 184l-154 -184h-164z" />
    <glyph glyph-name="atilde" unicode="&#xe3;" horiz-adv-x="1085" 
d="M809 0l-21 123h-10q-29 -44 -73 -72q-93 -71 -244 -71q-160 0 -259.5 88.5t-99.5 228.5q0 154 101 241t309 87h276v30q0 117 -64 181.5t-181 64.5q-112 0 -180 -50.5t-76 -123.5h-154q8 131 117.5 224t292.5 93q187 0 293 -102t106 -287v-655h-133zM788 440v41h-276
q-131 0 -193.5 -51t-62.5 -133q0 -80 53.5 -127t151.5 -47q153 0 240 84.5t87 232.5zM348 1229h-123q0 91 59 148t146 57q35 0 70.5 -14.5t59.5 -32t53 -32t53 -14.5q34 0 58 24.5t24 68.5h122q0 -91 -59 -148t-145 -57q-44 0 -88 23t-81.5 46t-66.5 23q-34 0 -58 -24
t-24 -68z" />
    <glyph glyph-name="adieresis" unicode="&#xe4;" horiz-adv-x="1085" 
d="M809 0l-21 123h-10q-29 -44 -73 -72q-93 -71 -244 -71q-160 0 -259.5 88.5t-99.5 228.5q0 154 101 241t309 87h276v30q0 117 -64 181.5t-181 64.5q-112 0 -180 -50.5t-76 -123.5h-154q8 131 117.5 224t292.5 93q187 0 293 -102t106 -287v-655h-133zM788 440v41h-276
q-131 0 -193.5 -51t-62.5 -133q0 -80 53.5 -127t151.5 -47q153 0 240 84.5t87 232.5zM635 1239v174h174v-174h-174zM276 1239v174h175v-174h-175z" />
    <glyph glyph-name="aring" unicode="&#xe5;" horiz-adv-x="1085" 
d="M809 0l-21 123h-10q-29 -44 -73 -72q-93 -71 -244 -71q-160 0 -259.5 88.5t-99.5 228.5q0 154 101 241t309 87h276v30q0 117 -64 181.5t-181 64.5q-112 0 -180 -50.5t-76 -123.5h-154q8 131 117.5 224t292.5 93q187 0 293 -102t106 -287v-655h-133zM788 440v41h-276
q-131 0 -193.5 -51t-62.5 -133q0 -80 53.5 -127t151.5 -47q153 0 240 84.5t87 232.5zM358 1352q0 78 53.5 131t131.5 53t131 -53t53 -131t-53 -131.5t-131 -53.5t-131.5 53.5t-53.5 131.5zM543 1270q33 0 57.5 22.5t24.5 59.5t-24.5 59.5t-57.5 22.5t-57.5 -22.5
t-24.5 -59.5t24.5 -59.5t57.5 -22.5z" />
    <glyph glyph-name="ae" unicode="&#xe6;" horiz-adv-x="1812" 
d="M287 727h-154q8 131 117.5 224t292.5 93q126 0 217 -59.5t131 -155.5q126 215 379 215q202 0 331.5 -135.5t129.5 -355.5q0 -22 -7 -78l-4 -24h-778q17 -148 107.5 -238t220.5 -90q91 0 159 42.5t107 121.5h164q-112 -307 -430 -307q-173 0 -303 112q-56 47 -97 113
q-38 -66 -94 -113q-130 -112 -315 -112q-159 0 -259 87.5t-100 219.5q0 146 101.5 231.5t308.5 85.5h276v51q0 117 -64 181.5t-181 64.5q-112 0 -180 -50.5t-76 -123.5zM942 594h635q-7 142 -93.5 224.5t-213.5 82.5q-133 0 -222 -81t-106 -226zM788 440v21h-276
q-127 0 -191.5 -46.5t-64.5 -127.5q0 -72 54 -118t151 -46q153 0 240 84.5t87 232.5z" />
    <glyph glyph-name="ccedilla" unicode="&#xe7;" horiz-adv-x="1085" 
d="M440 -410v103h82q46 0 69 19.5t23 51.5t-23.5 52t-68.5 20h-51v72l31 72q-185 31 -302.5 171t-117.5 361q0 117 38 216.5t104 168.5t156 108t193 39q170 0 291.5 -93.5t159.5 -254.5h-154q-30 99 -108.5 152t-188.5 53q-143 0 -240 -108t-97 -281t97 -281t240 -108
q111 0 189 54.5t108 160.5h154q-37 -164 -140.5 -252t-258.5 -106l-31 -72q60 -7 101.5 -53t41.5 -101q0 -71 -52 -117.5t-142 -46.5h-103z" />
    <glyph glyph-name="egrave" unicode="&#xe8;" horiz-adv-x="1126" 
d="M850 287h164q-54 -148 -167 -227.5t-274 -79.5q-103 0 -193 39t-156 108t-104 168.5t-38 216.5t38 216.5t104 168.5t156 108t193 39q202 0 336.5 -138.5t134.5 -352.5q0 -34 -6 -88l-4 -25h-798q17 -144 111.5 -230.5t225.5 -86.5q93 0 166 43t111 121zM236 584h655
q-7 139 -97 228t-221 89q-138 0 -228.5 -87.5t-108.5 -229.5zM492 1188l-236 287h184l195 -287h-143z" />
    <glyph glyph-name="eacute" unicode="&#xe9;" horiz-adv-x="1126" 
d="M850 287h164q-54 -148 -167 -227.5t-274 -79.5q-103 0 -193 39t-156 108t-104 168.5t-38 216.5t38 216.5t104 168.5t156 108t193 39q202 0 336.5 -138.5t134.5 -352.5q0 -34 -6 -88l-4 -25h-798q17 -144 111.5 -230.5t225.5 -86.5q93 0 166 43t111 121zM236 584h655
q-7 139 -97 228t-221 89q-138 0 -228.5 -87.5t-108.5 -229.5zM492 1188l194 287h184l-235 -287h-143z" />
    <glyph glyph-name="ecircumflex" unicode="&#xea;" horiz-adv-x="1126" 
d="M850 287h164q-54 -148 -167 -227.5t-274 -79.5q-103 0 -193 39t-156 108t-104 168.5t-38 216.5t38 216.5t104 168.5t156 108t193 39q202 0 336.5 -138.5t134.5 -352.5q0 -34 -6 -88l-4 -25h-798q17 -144 111.5 -230.5t225.5 -86.5q93 0 166 43t111 121zM236 584h655
q-7 139 -97 228t-221 89q-138 0 -228.5 -87.5t-108.5 -229.5zM246 1188l235 276h164l236 -276h-164l-154 184l-153 -184h-164z" />
    <glyph glyph-name="edieresis" unicode="&#xeb;" horiz-adv-x="1126" 
d="M850 287h164q-54 -148 -167 -227.5t-274 -79.5q-103 0 -193 39t-156 108t-104 168.5t-38 216.5t38 216.5t104 168.5t156 108t193 39q202 0 336.5 -138.5t134.5 -352.5q0 -34 -6 -88l-4 -25h-798q17 -144 111.5 -230.5t225.5 -86.5q93 0 166 43t111 121zM236 584h655
q-7 139 -97 228t-221 89q-138 0 -228.5 -87.5t-108.5 -229.5zM655 1239v174h174v-174h-174zM297 1239v174h174v-174h-174z" />
    <glyph glyph-name="igrave" unicode="&#xec;" horiz-adv-x="440" 
d="M143 0v1024h154v-1024h-154zM143 1188l-235 287h184l195 -287h-144z" />
    <glyph glyph-name="iacute" unicode="&#xed;" horiz-adv-x="440" 
d="M143 0v1024h154v-1024h-154zM154 1188l194 287h184l-235 -287h-143z" />
    <glyph glyph-name="icircumflex" unicode="&#xee;" horiz-adv-x="440" 
d="M143 0v1024h154v-1024h-154zM-92 1188l235 276h164l236 -276h-164l-154 184l-153 -184h-164z" />
    <glyph glyph-name="idieresis" unicode="&#xef;" horiz-adv-x="440" 
d="M143 0v1024h154v-1024h-154zM307 1239v174h174v-174h-174zM-51 1239v174h174v-174h-174z" />
    <glyph glyph-name="eth" unicode="&#xf0;" horiz-adv-x="1116" 
d="M348 1024l-61 113l215 112q-30 24 -86.5 62.5t-65.5 44.5q-69 44 -74 47l123 72l78 -52q80 -53 148 -112l235 123l62 -113l-205 -102q307 -328 307 -717q0 -241 -132.5 -381.5t-338.5 -140.5q-203 0 -337 134t-134 347t134 347t337 134q151 0 256 -92h10
q-59 151 -215 307zM553 123q141 0 229 92.5t88 245.5t-88 245.5t-229 92.5t-229 -92.5t-88 -245.5t88 -245.5t229 -92.5z" />
    <glyph glyph-name="ntilde" unicode="&#xf1;" horiz-adv-x="1167" 
d="M143 0v1024h133l21 -113h10q33 41 76 66q104 67 231 67q178 0 294 -119.5t116 -310.5v-614h-154v614q0 122 -80 204.5t-196 82.5q-122 0 -209.5 -85.5t-87.5 -201.5v-614h-154zM410 1229h-123q0 91 59 148t146 57q35 0 70.5 -14.5t59.5 -32t52.5 -32t52.5 -14.5
q33 0 57.5 24.5t24.5 68.5h123q0 -91 -59 -148t-146 -57q-44 0 -87.5 23t-81 46t-66.5 23q-34 0 -58 -24t-24 -68z" />
    <glyph glyph-name="ograve" unicode="&#xf2;" 
d="M573 -20q-103 0 -193 39t-156 108t-104 168.5t-38 216.5t38 216.5t104 168.5t156 108t193 39q137 0 249 -66t177.5 -188.5t65.5 -277.5t-65.5 -277.5t-177.5 -188.5t-249 -66zM573 123q143 0 240.5 108t97.5 281t-97.5 281t-240.5 108t-240 -108t-97 -281t97 -281
t240 -108zM502 1188l-236 287h185l194 -287h-143z" />
    <glyph glyph-name="oacute" unicode="&#xf3;" 
d="M573 -20q-103 0 -193 39t-156 108t-104 168.5t-38 216.5t38 216.5t104 168.5t156 108t193 39q137 0 249 -66t177.5 -188.5t65.5 -277.5t-65.5 -277.5t-177.5 -188.5t-249 -66zM573 123q143 0 240.5 108t97.5 281t-97.5 281t-240.5 108t-240 -108t-97 -281t97 -281
t240 -108zM502 1188l194 287h185l-236 -287h-143z" />
    <glyph glyph-name="ocircumflex" unicode="&#xf4;" 
d="M573 -20q-103 0 -193 39t-156 108t-104 168.5t-38 216.5t38 216.5t104 168.5t156 108t193 39q137 0 249 -66t177.5 -188.5t65.5 -277.5t-65.5 -277.5t-177.5 -188.5t-249 -66zM573 123q143 0 240.5 108t97.5 281t-97.5 281t-240.5 108t-240 -108t-97 -281t97 -281
t240 -108zM256 1188l236 276h163l236 -276h-164l-154 184l-153 -184h-164z" />
    <glyph glyph-name="otilde" unicode="&#xf5;" 
d="M573 -20q-103 0 -193 39t-156 108t-104 168.5t-38 216.5t38 216.5t104 168.5t156 108t193 39q137 0 249 -66t177.5 -188.5t65.5 -277.5t-65.5 -277.5t-177.5 -188.5t-249 -66zM573 123q143 0 240.5 108t97.5 281t-97.5 281t-240.5 108t-240 -108t-97 -281t97 -281
t240 -108zM379 1229h-123q0 91 59 148t146 57q35 0 70.5 -14.5t59.5 -32t52.5 -32t52.5 -14.5q34 0 58 24.5t24 68.5h123q0 -91 -59 -148t-146 -57q-44 0 -87.5 23t-81 46t-66.5 23q-34 0 -58 -24t-24 -68z" />
    <glyph glyph-name="odieresis" unicode="&#xf6;" 
d="M573 -20q-103 0 -193 39t-156 108t-104 168.5t-38 216.5t38 216.5t104 168.5t156 108t193 39q137 0 249 -66t177.5 -188.5t65.5 -277.5t-65.5 -277.5t-177.5 -188.5t-249 -66zM573 123q143 0 240.5 108t97.5 281t-97.5 281t-240.5 108t-240 -108t-97 -281t97 -281
t240 -108zM666 1239v174h174v-174h-174zM307 1239v174h174v-174h-174z" />
    <glyph glyph-name="divide" unicode="&#xf7;" horiz-adv-x="1085" 
d="M133 522v144h819v-144h-819zM451 922q0 38 27 65t65 27t65 -27t27 -65t-27 -65.5t-65 -27.5t-65 27.5t-27 65.5zM451 266q0 38 27 65t65 27t65 -27t27 -65t-27 -65t-65 -27t-65 27t-27 65z" />
    <glyph glyph-name="oslash" unicode="&#xf8;" 
d="M809 799l-358 -656q20 -8 34 -10q42 -10 88 -10q143 0 240.5 108t97.5 281q0 185 -102 287zM184 -72l82 154q-184 166 -184 430q0 117 38 216.5t104 168.5t156 108t193 39q64 0 138 -18l51 -18l47 88h154l-82 -154q184 -166 184 -430q0 -155 -65.5 -277.5t-177.5 -188.5
t-249 -66q-78 0 -137 18l-51 18l-47 -88h-154zM338 225l358 656l-34 10q-38 10 -89 10q-143 0 -240 -108t-97 -281q0 -185 102 -287z" />
    <glyph glyph-name="ugrave" unicode="&#xf9;" horiz-adv-x="1167" 
d="M143 410v614h154v-614q0 -122 80 -204.5t196 -82.5q122 0 209.5 85.5t87.5 201.5v614h154v-1024h-133l-21 113h-10q-38 -45 -78 -68q-100 -65 -229 -65q-178 0 -294 119.5t-116 310.5zM512 1188l-236 287h185l194 -287h-143z" />
    <glyph glyph-name="uacute" unicode="&#xfa;" horiz-adv-x="1167" 
d="M143 410v614h154v-614q0 -122 80 -204.5t196 -82.5q122 0 209.5 85.5t87.5 201.5v614h154v-1024h-133l-21 113h-10q-38 -45 -78 -68q-100 -65 -229 -65q-178 0 -294 119.5t-116 310.5zM512 1188l195 287h184l-236 -287h-143z" />
    <glyph glyph-name="ucircumflex" unicode="&#xfb;" horiz-adv-x="1167" 
d="M143 410v614h154v-614q0 -122 80 -204.5t196 -82.5q122 0 209.5 85.5t87.5 201.5v614h154v-1024h-133l-21 113h-10q-38 -45 -78 -68q-100 -65 -229 -65q-178 0 -294 119.5t-116 310.5zM266 1188l236 276h164l235 -276h-164l-153 184l-154 -184h-164z" />
    <glyph glyph-name="udieresis" unicode="&#xfc;" horiz-adv-x="1167" 
d="M143 410v614h154v-614q0 -122 80 -204.5t196 -82.5q122 0 209.5 85.5t87.5 201.5v614h154v-1024h-133l-21 113h-10q-38 -45 -78 -68q-100 -65 -229 -65q-178 0 -294 119.5t-116 310.5zM676 1239v174h174v-174h-174zM317 1239v174h175v-174h-175z" />
    <glyph glyph-name="yacute" unicode="&#xfd;" horiz-adv-x="1013" 
d="M133 -410v144h195q51 0 71 61l41 123l-420 1106h164l318 -850h41l286 850h164l-461 -1290q-26 -76 -68.5 -110t-125.5 -34h-205zM451 1188l194 287h184l-235 -287h-143z" />
    <glyph glyph-name="thorn" unicode="&#xfe;" horiz-adv-x="1187" 
d="M143 -410v1844h154v-553h10q129 163 328 163q203 0 337 -148.5t134 -383.5t-134 -383.5t-337 -148.5q-199 0 -328 163h-10v-553h-154zM625 123q135 0 231 108.5t96 280.5t-96 280.5t-231 108.5t-231.5 -108.5t-96.5 -280.5t96.5 -280.5t231.5 -108.5z" />
    <glyph glyph-name="ydieresis" unicode="&#xff;" horiz-adv-x="1013" 
d="M133 -410v144h195q51 0 71 61l41 123l-420 1106h164l318 -850h41l286 850h164l-461 -1290q-26 -76 -68.5 -110t-125.5 -34h-205zM614 1239v174h174v-174h-174zM256 1239v174h174v-174h-174z" />
    <glyph glyph-name="Amacron" unicode="&#x100;" horiz-adv-x="1331" 
d="M0 0l543 1434h245l543 -1434h-174l-133 369h-717l-133 -369h-174zM369 522h594l-277 738h-41zM379 1659v123h573v-123h-573z" />
    <glyph glyph-name="amacron" unicode="&#x101;" horiz-adv-x="1085" 
d="M809 0l-21 123h-10q-29 -44 -73 -72q-93 -71 -244 -71q-160 0 -259.5 88.5t-99.5 228.5q0 154 101 241t309 87h276v30q0 117 -64 181.5t-181 64.5q-112 0 -180 -50.5t-76 -123.5h-154q8 131 117.5 224t292.5 93q187 0 293 -102t106 -287v-655h-133zM788 440v41h-276
q-131 0 -193.5 -51t-62.5 -133q0 -80 53.5 -127t151.5 -47q153 0 240 84.5t87 232.5zM256 1270v123h573v-123h-573z" />
    <glyph glyph-name="Abreve" unicode="&#x102;" horiz-adv-x="1331" 
d="M0 0l543 1434h245l543 -1434h-174l-133 369h-717l-133 -369h-174zM369 522h594l-277 738h-41zM379 1853h133q7 -68 49 -105.5t105 -37.5t104.5 37.5t48.5 105.5h133q-7 -116 -87.5 -186t-198.5 -70q-119 0 -199.5 70t-87.5 186z" />
    <glyph glyph-name="abreve" unicode="&#x103;" horiz-adv-x="1085" 
d="M809 0l-21 123h-10q-29 -44 -73 -72q-93 -71 -244 -71q-160 0 -259.5 88.5t-99.5 228.5q0 154 101 241t309 87h276v30q0 117 -64 181.5t-181 64.5q-112 0 -180 -50.5t-76 -123.5h-154q8 131 117.5 224t292.5 93q187 0 293 -102t106 -287v-655h-133zM788 440v41h-276
q-131 0 -193.5 -51t-62.5 -133q0 -80 53.5 -127t151.5 -47q153 0 240 84.5t87 232.5zM256 1454h133q7 -68 49 -105.5t105 -37.5t104.5 37.5t48.5 105.5h133q-7 -116 -87.5 -186t-198.5 -70q-119 0 -199.5 70t-87.5 186z" />
    <glyph glyph-name="Aogonek" unicode="&#x104;" horiz-adv-x="1331" 
d="M0 0l543 1434h245l543 -1434h-41q-123 -62 -123 -143q0 -33 24.5 -57.5t68.5 -24.5h30v-113h-41q-98 0 -151.5 47t-53.5 127q0 56 34.5 100t78.5 64l-133 369h-717l-133 -369h-174zM369 522h594l-277 738h-41z" />
    <glyph glyph-name="aogonek" unicode="&#x105;" horiz-adv-x="1085" 
d="M942 -338h-41q-98 0 -151.5 47t-53.5 127q0 56 34.5 100t78.5 64l-21 123h-10q-29 -44 -73 -72q-93 -71 -244 -71q-160 0 -259.5 88.5t-99.5 228.5q0 154 101 241t309 87h276v30q0 117 -64 181.5t-181 64.5q-112 0 -180 -50.5t-76 -123.5h-154q8 131 117.5 224t292.5 93
q187 0 293 -102t106 -287v-655q-123 -62 -123 -143q0 -34 24 -58t68 -24h31v-113zM788 440v41h-276q-131 0 -193.5 -51t-62.5 -133q0 -80 53.5 -127t151.5 -47q153 0 240 84.5t87 232.5z" />
    <glyph glyph-name="Cacute" unicode="&#x106;" horiz-adv-x="1495" 
d="M1249 471h174q-61 -228 -232.5 -359.5t-402.5 -131.5q-140 0 -266 54t-218.5 149t-147 234t-54.5 300t54.5 300t147 234t218.5 149t266 54q230 0 402 -130t233 -351h-174q-54 153 -176.5 240t-284.5 87q-143 0 -262 -72t-189.5 -206t-70.5 -305q0 -128 41.5 -238.5
t112 -185.5t166 -117.5t202.5 -42.5q162 0 284.5 89t176.5 249zM696 1577l195 287h184l-235 -287h-144z" />
    <glyph glyph-name="cacute" unicode="&#x107;" horiz-adv-x="1085" 
d="M870 338h154q-38 -169 -158.5 -263.5t-292.5 -94.5q-103 0 -193 39t-156 108t-104 168.5t-38 216.5t38 216.5t104 168.5t156 108t193 39q170 0 291.5 -93.5t159.5 -254.5h-154q-30 99 -108.5 152t-188.5 53q-143 0 -240 -108t-97 -281t97 -281t240 -108q111 0 189 54.5
t108 160.5zM502 1188l194 287h185l-236 -287h-143z" />
    <glyph glyph-name="Ccircumflex" unicode="&#x108;" horiz-adv-x="1495" 
d="M1249 471h174q-61 -228 -232.5 -359.5t-402.5 -131.5q-140 0 -266 54t-218.5 149t-147 234t-54.5 300t54.5 300t147 234t218.5 149t266 54q230 0 402 -130t233 -351h-174q-54 153 -176.5 240t-284.5 87q-143 0 -262 -72t-189.5 -206t-70.5 -305q0 -128 41.5 -238.5
t112 -185.5t166 -117.5t202.5 -42.5q162 0 284.5 89t176.5 249zM451 1577l235 276h164l235 -276h-163l-154 184l-154 -184h-163z" />
    <glyph glyph-name="ccircumflex" unicode="&#x109;" horiz-adv-x="1085" 
d="M870 338h154q-38 -169 -158.5 -263.5t-292.5 -94.5q-103 0 -193 39t-156 108t-104 168.5t-38 216.5t38 216.5t104 168.5t156 108t193 39q170 0 291.5 -93.5t159.5 -254.5h-154q-30 99 -108.5 152t-188.5 53q-143 0 -240 -108t-97 -281t97 -281t240 -108q111 0 189 54.5
t108 160.5zM256 1188l236 276h163l236 -276h-164l-154 184l-153 -184h-164z" />
    <glyph glyph-name="Cdotaccent" unicode="&#x10a;" horiz-adv-x="1495" 
d="M1249 471h174q-61 -228 -232.5 -359.5t-402.5 -131.5q-140 0 -266 54t-218.5 149t-147 234t-54.5 300t54.5 300t147 234t218.5 149t266 54q230 0 402 -130t233 -351h-174q-54 153 -176.5 240t-284.5 87q-143 0 -262 -72t-189.5 -206t-70.5 -305q0 -128 41.5 -238.5
t112 -185.5t166 -117.5t202.5 -42.5q162 0 284.5 89t176.5 249zM686 1638v174h174v-174h-174z" />
    <glyph glyph-name="cdotaccent" unicode="&#x10b;" horiz-adv-x="1085" 
d="M870 338h154q-38 -169 -158.5 -263.5t-292.5 -94.5q-103 0 -193 39t-156 108t-104 168.5t-38 216.5t38 216.5t104 168.5t156 108t193 39q170 0 291.5 -93.5t159.5 -254.5h-154q-30 99 -108.5 152t-188.5 53q-143 0 -240 -108t-97 -281t97 -281t240 -108q111 0 189 54.5
t108 160.5zM492 1239v174h174v-174h-174z" />
    <glyph glyph-name="Ccaron" unicode="&#x10c;" horiz-adv-x="1495" 
d="M1249 471h174q-61 -228 -232.5 -359.5t-402.5 -131.5q-140 0 -266 54t-218.5 149t-147 234t-54.5 300t54.5 300t147 234t218.5 149t266 54q230 0 402 -130t233 -351h-174q-54 153 -176.5 240t-284.5 87q-143 0 -262 -72t-189.5 -206t-70.5 -305q0 -128 41.5 -238.5
t112 -185.5t166 -117.5t202.5 -42.5q162 0 284.5 89t176.5 249zM686 1577l-235 276h163l154 -184l154 184h163l-235 -276h-164z" />
    <glyph glyph-name="ccaron" unicode="&#x10d;" horiz-adv-x="1085" 
d="M870 338h154q-38 -169 -158.5 -263.5t-292.5 -94.5q-103 0 -193 39t-156 108t-104 168.5t-38 216.5t38 216.5t104 168.5t156 108t193 39q170 0 291.5 -93.5t159.5 -254.5h-154q-30 99 -108.5 152t-188.5 53q-143 0 -240 -108t-97 -281t97 -281t240 -108q111 0 189 54.5
t108 160.5zM492 1188l-236 276h164l153 -184l154 184h164l-236 -276h-163z" />
    <glyph glyph-name="Dcaron" unicode="&#x10e;" horiz-adv-x="1433" 
d="M164 0v1434h481q197 0 353.5 -91.5t244.5 -255.5t88 -370t-88 -370t-244.5 -255.5t-353.5 -91.5h-481zM328 154h317q225 0 373.5 157t148.5 406t-148.5 406t-373.5 157h-317v-1126zM625 1577l-236 276h164l154 -184l153 184h164l-236 -276h-163z" />
    <glyph glyph-name="dcaron" unicode="&#x10f;" horiz-adv-x="1310" 
d="M911 0l-20 143h-10q-129 -163 -328 -163q-203 0 -337 148.5t-134 383.5t134 383.5t337 148.5q199 0 328 -163h10v553h153v-1434h-133zM563 123q135 0 231.5 108.5t96.5 280.5t-96.5 280.5t-231.5 108.5t-231 -108.5t-96 -280.5t96 -280.5t231 -108.5zM1167 1106l62 328
h174l-113 -328h-123z" />
    <glyph glyph-name="Dcroat" unicode="&#x110;" horiz-adv-x="1505" 
d="M236 0v645h-195v154h195v635h481q197 0 353.5 -91.5t244.5 -255.5t88 -370t-88 -370t-244.5 -255.5t-353.5 -91.5h-481zM399 154h318q225 0 373.5 157t148.5 406t-148.5 406t-373.5 157h-318v-481h379v-154h-379v-491z" />
    <glyph glyph-name="dslash" unicode="&#x111;" horiz-adv-x="1198" 
d="M891 0l-21 123h-10q-65 -73 -138.5 -108t-178.5 -35q-195 0 -328 134.5t-133 346.5t133 346.5t328 134.5q105 0 178.5 -35t138.5 -108h10v327h-327v144h327v164h154v-164h174v-144h-174v-1126h-133zM553 123q141 0 229 92.5t88 245.5t-88 245.5t-229 92.5t-229 -92.5
t-88 -245.5t88 -245.5t229 -92.5z" />
    <glyph glyph-name="Emacron" unicode="&#x112;" horiz-adv-x="1198" 
d="M164 0v1434h921v-154h-757v-481h716v-154h-716v-491h757v-154h-921zM338 1659v123h573v-123h-573z" />
    <glyph glyph-name="emacron" unicode="&#x113;" horiz-adv-x="1126" 
d="M850 287h164q-54 -148 -167 -227.5t-274 -79.5q-103 0 -193 39t-156 108t-104 168.5t-38 216.5t38 216.5t104 168.5t156 108t193 39q202 0 336.5 -138.5t134.5 -352.5q0 -34 -6 -88l-4 -25h-798q17 -144 111.5 -230.5t225.5 -86.5q93 0 166 43t111 121zM236 584h655
q-7 139 -97 228t-221 89q-138 0 -228.5 -87.5t-108.5 -229.5zM276 1270v123h574v-123h-574z" />
    <glyph glyph-name="Ebreve" unicode="&#x114;" horiz-adv-x="1198" 
d="M164 0v1434h921v-154h-757v-481h716v-154h-716v-491h757v-154h-921zM338 1853h133q7 -68 49 -105.5t105 -37.5t104.5 37.5t48.5 105.5h133q-7 -116 -87.5 -186t-198.5 -70q-119 0 -199.5 70t-87.5 186z" />
    <glyph glyph-name="ebreve" unicode="&#x115;" horiz-adv-x="1126" 
d="M850 287h164q-54 -148 -167 -227.5t-274 -79.5q-103 0 -193 39t-156 108t-104 168.5t-38 216.5t38 216.5t104 168.5t156 108t193 39q202 0 336.5 -138.5t134.5 -352.5q0 -34 -6 -88l-4 -25h-798q17 -144 111.5 -230.5t225.5 -86.5q93 0 166 43t111 121zM236 584h655
q-7 139 -97 228t-221 89q-138 0 -228.5 -87.5t-108.5 -229.5zM276 1454h134q7 -68 48.5 -105.5t104.5 -37.5t105 37.5t49 105.5h133q-7 -116 -87.5 -186t-199.5 -70t-199.5 70t-87.5 186z" />
    <glyph glyph-name="Edotaccent" unicode="&#x116;" horiz-adv-x="1198" 
d="M164 0v1434h921v-154h-757v-481h716v-154h-716v-491h757v-154h-921zM543 1638v174h174v-174h-174z" />
    <glyph glyph-name="edotaccent" unicode="&#x117;" horiz-adv-x="1126" 
d="M850 287h164q-54 -148 -167 -227.5t-274 -79.5q-103 0 -193 39t-156 108t-104 168.5t-38 216.5t38 216.5t104 168.5t156 108t193 39q202 0 336.5 -138.5t134.5 -352.5q0 -34 -6 -88l-4 -25h-798q17 -144 111.5 -230.5t225.5 -86.5q93 0 166 43t111 121zM236 584h655
q-7 139 -97 228t-221 89q-138 0 -228.5 -87.5t-108.5 -229.5zM481 1239v174h174v-174h-174z" />
    <glyph glyph-name="Eogonek" unicode="&#x118;" horiz-adv-x="1198" 
d="M164 0v1434h921v-154h-757v-481h716v-154h-716v-491h757v-154q-122 -61 -122 -143q0 -34 24 -58t68 -24h30v-113h-41q-98 0 -151 47t-53 127q0 57 34 100.5t78 63.5h-788z" />
    <glyph glyph-name="eogonek" unicode="&#x119;" horiz-adv-x="1126" 
d="M696 -338h-41q-98 0 -151 47t-53 127q0 84 81 144q-197 18 -323.5 159.5t-126.5 372.5q0 117 38 216.5t104 168.5t156 108t193 39q202 0 336.5 -138.5t134.5 -352.5q0 -34 -6 -88l-4 -25h-798q17 -144 111.5 -230.5t225.5 -86.5q93 0 166 43t111 121h164
q-52 -135 -134 -204t-204 -93q-47 -23 -75 -59t-28 -74q0 -33 24.5 -57.5t68.5 -24.5h30v-113zM236 584h655q-7 139 -97 228t-221 89q-138 0 -228.5 -87.5t-108.5 -229.5z" />
    <glyph glyph-name="Ecaron" unicode="&#x11a;" horiz-adv-x="1198" 
d="M164 0v1434h921v-154h-757v-481h716v-154h-716v-491h757v-154h-921zM543 1577l-236 276h164l154 -184l153 184h164l-235 -276h-164z" />
    <glyph glyph-name="ecaron" unicode="&#x11b;" horiz-adv-x="1126" 
d="M850 287h164q-54 -148 -167 -227.5t-274 -79.5q-103 0 -193 39t-156 108t-104 168.5t-38 216.5t38 216.5t104 168.5t156 108t193 39q202 0 336.5 -138.5t134.5 -352.5q0 -34 -6 -88l-4 -25h-798q17 -144 111.5 -230.5t225.5 -86.5q93 0 166 43t111 121zM236 584h655
q-7 139 -97 228t-221 89q-138 0 -228.5 -87.5t-108.5 -229.5zM481 1188l-235 276h164l153 -184l154 184h164l-236 -276h-164z" />
    <glyph glyph-name="Gcircumflex" unicode="&#x11c;" horiz-adv-x="1576" 
d="M1300 0l-20 205h-10q-48 -59 -125 -113q-161 -112 -357 -112q-140 0 -266 54t-218.5 149t-147 234t-54.5 300t54.5 300t147 234t218.5 149t266 54q217 0 392 -122.5t243 -327.5h-174q-61 137 -186.5 216.5t-274.5 79.5q-143 0 -262 -72t-189.5 -206t-70.5 -305
q0 -128 41.5 -238.5t112 -185.5t166 -117.5t202.5 -42.5q125 0 237 62.5t178.5 164.5t66.5 213v21h-430v143h594v-737h-134zM461 1577l235 276h164l236 -276h-164l-154 184l-153 -184h-164z" />
    <glyph glyph-name="gcircumflex" unicode="&#x11d;" horiz-adv-x="1187" 
d="M123 -82h153q8 -85 88.5 -145t219.5 -60q140 0 223.5 78.5t83.5 208.5v184h-10q-127 -143 -328 -143q-203 0 -337 140.5t-134 361.5t134 361t337 140q98 0 185.5 -41.5t142.5 -111.5h10l20 133h133v-1024q0 -194 -123.5 -312t-336.5 -118q-105 0 -192 29.5t-143.5 79
t-89 111.5t-36.5 128zM563 184q140 0 234 100t94 259t-94 258.5t-234 99.5t-233.5 -99.5t-93.5 -258.5t93.5 -259t233.5 -100zM276 1188l236 276h164l235 -276h-163l-154 184l-154 -184h-164z" />
    <glyph glyph-name="Gbreve" unicode="&#x11e;" horiz-adv-x="1576" 
d="M1300 0l-20 205h-10q-48 -59 -125 -113q-161 -112 -357 -112q-140 0 -266 54t-218.5 149t-147 234t-54.5 300t54.5 300t147 234t218.5 149t266 54q217 0 392 -122.5t243 -327.5h-174q-61 137 -186.5 216.5t-274.5 79.5q-143 0 -262 -72t-189.5 -206t-70.5 -305
q0 -128 41.5 -238.5t112 -185.5t166 -117.5t202.5 -42.5q125 0 237 62.5t178.5 164.5t66.5 213v21h-430v143h594v-737h-134zM492 1853h133q7 -68 48.5 -105.5t104.5 -37.5t105 37.5t49 105.5h133q-7 -116 -87.5 -186t-199.5 -70q-118 0 -198.5 70t-87.5 186z" />
    <glyph glyph-name="gbreve" unicode="&#x11f;" horiz-adv-x="1187" 
d="M123 -82h153q8 -85 88.5 -145t219.5 -60q140 0 223.5 78.5t83.5 208.5v184h-10q-127 -143 -328 -143q-203 0 -337 140.5t-134 361.5t134 361t337 140q98 0 185.5 -41.5t142.5 -111.5h10l20 133h133v-1024q0 -194 -123.5 -312t-336.5 -118q-105 0 -192 29.5t-143.5 79
t-89 111.5t-36.5 128zM563 184q140 0 234 100t94 259t-94 258.5t-234 99.5t-233.5 -99.5t-93.5 -258.5t93.5 -259t233.5 -100zM307 1454h133q7 -68 49 -105.5t105 -37.5t105 37.5t49 105.5h133q-7 -116 -87.5 -186t-199.5 -70t-199.5 70t-87.5 186z" />
    <glyph glyph-name="Gdotaccent" unicode="&#x120;" horiz-adv-x="1576" 
d="M1300 0l-20 205h-10q-48 -59 -125 -113q-161 -112 -357 -112q-140 0 -266 54t-218.5 149t-147 234t-54.5 300t54.5 300t147 234t218.5 149t266 54q217 0 392 -122.5t243 -327.5h-174q-61 137 -186.5 216.5t-274.5 79.5q-143 0 -262 -72t-189.5 -206t-70.5 -305
q0 -128 41.5 -238.5t112 -185.5t166 -117.5t202.5 -42.5q125 0 237 62.5t178.5 164.5t66.5 213v21h-430v143h594v-737h-134zM696 1638v174h174v-174h-174z" />
    <glyph glyph-name="gdotaccent" unicode="&#x121;" horiz-adv-x="1187" 
d="M123 -82h153q8 -85 88.5 -145t219.5 -60q140 0 223.5 78.5t83.5 208.5v184h-10q-127 -143 -328 -143q-203 0 -337 140.5t-134 361.5t134 361t337 140q98 0 185.5 -41.5t142.5 -111.5h10l20 133h133v-1024q0 -194 -123.5 -312t-336.5 -118q-105 0 -192 29.5t-143.5 79
t-89 111.5t-36.5 128zM563 184q140 0 234 100t94 259t-94 258.5t-234 99.5t-233.5 -99.5t-93.5 -258.5t93.5 -259t233.5 -100zM512 1239v174h174v-174h-174z" />
    <glyph glyph-name="Gcommaaccent" unicode="&#x122;" horiz-adv-x="1576" 
d="M1300 0l-20 205h-10q-48 -59 -125 -113q-161 -112 -357 -112q-140 0 -266 54t-218.5 149t-147 234t-54.5 300t54.5 300t147 234t218.5 149t266 54q217 0 392 -122.5t243 -327.5h-174q-61 137 -186.5 216.5t-274.5 79.5q-143 0 -262 -72t-189.5 -206t-70.5 -305
q0 -128 41.5 -238.5t112 -185.5t166 -117.5t202.5 -42.5q125 0 237 62.5t178.5 164.5t66.5 213v21h-430v143h594v-737h-134zM645 -471l62 328h174l-113 -328h-123z" />
    <glyph glyph-name="gcommaaccent" unicode="&#x123;" horiz-adv-x="1187" 
d="M502 1188l82 348h133l-41 -348h-174zM123 -82h153q8 -85 88.5 -145t219.5 -60q140 0 223.5 78.5t83.5 208.5v184h-10q-127 -143 -328 -143q-203 0 -337 140.5t-134 361.5t134 361t337 140q98 0 185.5 -41.5t142.5 -111.5h10l20 133h133v-1024q0 -194 -123.5 -312
t-336.5 -118q-105 0 -192 29.5t-143.5 79t-89 111.5t-36.5 128zM563 184q140 0 234 100t94 259t-94 258.5t-234 99.5t-233.5 -99.5t-93.5 -258.5t93.5 -259t233.5 -100z" />
    <glyph glyph-name="Hcircumflex" unicode="&#x124;" horiz-adv-x="1454" 
d="M164 0v1434h164v-635h798v635h164v-1434h-164v645h-798v-645h-164zM410 1577l235 276h164l235 -276h-163l-154 184l-154 -184h-163z" />
    <glyph glyph-name="hcircumflex" unicode="&#x125;" horiz-adv-x="1177" 
d="M154 0v1434h153v-523h10q33 41 76 66q104 67 232 67q178 0 293.5 -119.5t115.5 -310.5v-614h-153v614q0 122 -80.5 204.5t-196.5 82.5q-122 0 -209.5 -85.5t-87.5 -201.5v-614h-153zM297 1577l235 276h164l236 -276h-164l-154 184l-153 -184h-164z" />
    <glyph glyph-name="Hbar" unicode="&#x126;" horiz-adv-x="1556" 
d="M215 0v1034h-195v154h195v246h164v-246h799v246h163v-246h195v-154h-195v-1034h-163v645h-799v-645h-164zM379 799h799v235h-799v-235z" />
    <glyph glyph-name="hbar" unicode="&#x127;" horiz-adv-x="1198" 
d="M174 0v1126h-174v144h174v164h154v-164h327v-144h-327v-317h10q31 39 76 65q105 68 231 68q178 0 294 -119.5t116 -310.5v-512h-154v512q0 122 -80 204.5t-196 82.5q-122 0 -209.5 -85.5t-87.5 -201.5v-512h-154z" />
    <glyph glyph-name="Imacron" unicode="&#x12a;" horiz-adv-x="491" 
d="M164 0v1434h164v-1434h-164zM-41 1659v123h573v-123h-573z" />
    <glyph glyph-name="imacron" unicode="&#x12b;" horiz-adv-x="440" 
d="M143 0v1024h154v-1024h-154zM-72 1270v123h574v-123h-574z" />
    <glyph glyph-name="Ibreve" unicode="&#x12c;" horiz-adv-x="491" 
d="M164 0v1434h164v-1434h-164zM-41 1853h133q7 -68 49 -105.5t105 -37.5t104.5 37.5t48.5 105.5h133q-7 -116 -87.5 -186t-198.5 -70q-119 0 -199.5 70t-87.5 186z" />
    <glyph glyph-name="ibreve" unicode="&#x12d;" horiz-adv-x="440" 
d="M143 0v1024h154v-1024h-154zM-72 1454h133q7 -68 49 -105.5t105 -37.5t105 37.5t49 105.5h133q-7 -116 -87.5 -186t-199.5 -70t-199.5 70t-87.5 186z" />
    <glyph glyph-name="Iogonek" unicode="&#x12e;" horiz-adv-x="491" 
d="M297 -338h-41q-98 0 -151.5 47t-53.5 127q0 56 34.5 100t78.5 64v1434h164v-1434h-31q-123 -62 -123 -143q0 -34 24 -58t68 -24h31v-113z" />
    <glyph glyph-name="iogonek" unicode="&#x12f;" horiz-adv-x="440" 
d="M276 -338h-40q-98 0 -151.5 47t-53.5 127q0 57 34 100.5t78 63.5v1024h154v-1024h-21q-122 -61 -122 -143q0 -34 24 -58t68 -24h30v-113zM133 1239v174h174v-174h-174z" />
    <glyph glyph-name="Idot" unicode="&#x130;" horiz-adv-x="491" 
d="M164 0v1434h164v-1434h-164zM164 1638v174h174v-174h-174z" />
    <glyph glyph-name="dotlessi" unicode="&#x131;" horiz-adv-x="440" 
d="M143 0v1024h154v-1024h-154z" />
    <glyph glyph-name="uni0132" unicode="&#x132;" horiz-adv-x="1218" 
d="M164 0v1434h164v-1434h-164zM451 0v154h348q47 0 74.5 27.5t27.5 74.5v1178h164v-1198q0 -111 -62.5 -173.5t-183.5 -62.5h-368z" />
    <glyph glyph-name="uni0133" unicode="&#x133;" horiz-adv-x="860" 
d="M154 0v1024h153v-1024h-153zM143 1239v174h174v-174h-174zM543 1239v174h174v-174h-174zM338 -410v144h154q61 0 61 61v1229h154v-1260q0 -79 -50 -126.5t-135 -47.5h-184z" />
    <glyph glyph-name="Jcircumflex" unicode="&#x134;" horiz-adv-x="788" 
d="M20 0v154h349q47 0 74.5 27.5t27.5 74.5v1178h164v-1198q0 -111 -62.5 -173.5t-183.5 -62.5h-369zM236 1577l235 276h164l235 -276h-163l-154 184l-154 -184h-163z" />
    <glyph glyph-name="jcircumflex" unicode="&#x135;" horiz-adv-x="450" 
d="M-61 -410v144h153q62 0 62 61v1229h153v-1260q0 -79 -49.5 -126.5t-134.5 -47.5h-184zM-92 1188l235 276h164l236 -276h-164l-154 184l-153 -184h-164z" />
    <glyph glyph-name="Kcommaaccent" unicode="&#x136;" horiz-adv-x="1177" 
d="M164 0v1434h164v-676l604 676h205l-635 -707l676 -727h-205l-645 696v-696h-164zM481 -471l62 328h174l-113 -328h-123z" />
    <glyph glyph-name="kcommaaccent" unicode="&#x137;" horiz-adv-x="983" 
d="M154 0v1434h153v-881l461 471h195l-492 -502l512 -522h-195l-481 492v-492h-153zM389 -471l62 328h174l-113 -328h-123z" />
    <glyph glyph-name="Lacute" unicode="&#x139;" horiz-adv-x="1085" 
d="M164 0v1434h164v-1280h716v-154h-880zM174 1577l195 287h184l-236 -287h-143z" />
    <glyph glyph-name="lacute" unicode="&#x13a;" horiz-adv-x="460" 
d="M154 0v1434h153v-1434h-153zM164 1577l194 287h185l-236 -287h-143z" />
    <glyph glyph-name="Lcommaaccent" unicode="&#x13b;" horiz-adv-x="1085" 
d="M164 0v1434h164v-1280h716v-154h-880zM461 -471l61 328h174l-112 -328h-123z" />
    <glyph glyph-name="lcommaaccent" unicode="&#x13c;" horiz-adv-x="460" 
d="M154 0v1434h153v-1434h-153zM82 -471l61 328h174l-112 -328h-123z" />
    <glyph glyph-name="Lcaron" unicode="&#x13d;" horiz-adv-x="1085" 
d="M164 0v1434h164v-1280h716v-154h-880zM492 1106l61 328h174l-113 -328h-122z" />
    <glyph glyph-name="lcaron" unicode="&#x13e;" horiz-adv-x="573" 
d="M154 0v1434h153v-1434h-153zM430 1106l62 328h174l-113 -328h-123z" />
    <glyph glyph-name="Ldot" unicode="&#x13f;" horiz-adv-x="1085" 
d="M686 666v184h184v-184h-184zM164 0v1434h164v-1280h716v-154h-880z" />
    <glyph glyph-name="ldot" unicode="&#x140;" horiz-adv-x="757" 
d="M522 645v184h185v-184h-185zM154 0v1434h153v-1434h-153z" />
    <glyph glyph-name="Lslash" unicode="&#x141;" horiz-adv-x="1126" 
d="M205 0v594l-164 -62v154l164 62v686h164v-625l327 123v-154l-327 -123v-501h716v-154h-880z" />
    <glyph glyph-name="lslash" unicode="&#x142;" horiz-adv-x="542" 
d="M195 0v625l-154 -62v144l154 61v666h153v-605l154 62v-143l-154 -62v-686h-153z" />
    <glyph glyph-name="Nacute" unicode="&#x143;" horiz-adv-x="1454" 
d="M164 0v1434h276l645 -1239h41v1239h164v-1434h-276l-645 1239h-41v-1239h-164zM655 1577l195 287h184l-235 -287h-144z" />
    <glyph glyph-name="nacute" unicode="&#x144;" horiz-adv-x="1167" 
d="M143 0v1024h133l21 -113h10q33 41 76 66q104 67 231 67q178 0 294 -119.5t116 -310.5v-614h-154v614q0 122 -80 204.5t-196 82.5q-122 0 -209.5 -85.5t-87.5 -201.5v-614h-154zM532 1188l195 287h184l-235 -287h-144z" />
    <glyph glyph-name="Ncommaaccent" unicode="&#x145;" horiz-adv-x="1454" 
d="M164 0v1434h276l645 -1239h41v1239h164v-1434h-276l-645 1239h-41v-1239h-164zM584 -471l61 328h174l-112 -328h-123z" />
    <glyph glyph-name="ncommaaccent" unicode="&#x146;" horiz-adv-x="1167" 
d="M143 0v1024h133l21 -113h10q33 41 76 66q104 67 231 67q178 0 294 -119.5t116 -310.5v-614h-154v614q0 122 -80 204.5t-196 82.5q-122 0 -209.5 -85.5t-87.5 -201.5v-614h-154zM440 -471l62 328h174l-113 -328h-123z" />
    <glyph glyph-name="Ncaron" unicode="&#x147;" horiz-adv-x="1454" 
d="M164 0v1434h276l645 -1239h41v1239h164v-1434h-276l-645 1239h-41v-1239h-164zM645 1577l-235 276h163l154 -184l154 184h163l-235 -276h-164z" />
    <glyph glyph-name="ncaron" unicode="&#x148;" horiz-adv-x="1167" 
d="M143 0v1024h133l21 -113h10q33 41 76 66q104 67 231 67q178 0 294 -119.5t116 -310.5v-614h-154v614q0 122 -80 204.5t-196 82.5q-122 0 -209.5 -85.5t-87.5 -201.5v-614h-154zM522 1188l-235 276h164l153 -184l154 184h164l-236 -276h-164z" />
    <glyph glyph-name="napostrophe" unicode="&#x149;" horiz-adv-x="1187" 
d="M164 0v1024h133l20 -113h11q34 42 75 66q104 67 232 67q178 0 293.5 -119.5t115.5 -310.5v-614h-153v614q0 122 -80.5 204.5t-196.5 82.5q-122 0 -209.5 -85.5t-87.5 -201.5v-614h-153zM20 1167l62 328h174l-113 -328h-123z" />
    <glyph glyph-name="Eng" unicode="&#x14a;" horiz-adv-x="1454" 
d="M164 0v1434h276l645 -1239h41v1239h164v-1608q0 -111 -62.5 -173.5t-183.5 -62.5h-204v154h184q47 0 74.5 27.5t27.5 74.5v154h-112l-645 1239h-41v-1239h-164z" />
    <glyph glyph-name="eng" unicode="&#x14b;" horiz-adv-x="1167" 
d="M143 0v1024h133l21 -113h10q33 41 76 66q104 67 231 67q178 0 294 -119.5t116 -310.5v-798q0 -110 -60 -168t-176 -58h-204v154h184q47 0 74.5 27.5t27.5 74.5v768q0 122 -80 204.5t-196 82.5q-122 0 -209.5 -85.5t-87.5 -201.5v-614h-154z" />
    <glyph glyph-name="Omacron" unicode="&#x14c;" horiz-adv-x="1576" 
d="M788 -20q-140 0 -266 54t-218.5 149t-147 234t-54.5 300t54.5 300t147 234t218.5 149t266 54t266 -54t219 -149t147.5 -234t54.5 -300t-54.5 -300t-147.5 -234t-219 -149t-266 -54zM788 133q107 0 202.5 42.5t166.5 117.5t112.5 185.5t41.5 238.5t-41.5 238t-112.5 185
t-166.5 117.5t-202.5 42.5q-143 0 -262 -72t-189.5 -206t-70.5 -305q0 -128 41.5 -238.5t112 -185.5t166 -117.5t202.5 -42.5zM502 1659v123h573v-123h-573z" />
    <glyph glyph-name="omacron" unicode="&#x14d;" 
d="M573 -20q-103 0 -193 39t-156 108t-104 168.5t-38 216.5t38 216.5t104 168.5t156 108t193 39q137 0 249 -66t177.5 -188.5t65.5 -277.5t-65.5 -277.5t-177.5 -188.5t-249 -66zM573 123q143 0 240.5 108t97.5 281t-97.5 281t-240.5 108t-240 -108t-97 -281t97 -281
t240 -108zM287 1270v123h573v-123h-573z" />
    <glyph glyph-name="Obreve" unicode="&#x14e;" horiz-adv-x="1576" 
d="M788 -20q-140 0 -266 54t-218.5 149t-147 234t-54.5 300t54.5 300t147 234t218.5 149t266 54t266 -54t219 -149t147.5 -234t54.5 -300t-54.5 -300t-147.5 -234t-219 -149t-266 -54zM788 133q107 0 202.5 42.5t166.5 117.5t112.5 185.5t41.5 238.5t-41.5 238t-112.5 185
t-166.5 117.5t-202.5 42.5q-143 0 -262 -72t-189.5 -206t-70.5 -305q0 -128 41.5 -238.5t112 -185.5t166 -117.5t202.5 -42.5zM502 1853h133q7 -68 48.5 -105.5t104.5 -37.5t105 37.5t49 105.5h133q-7 -116 -87.5 -186t-199.5 -70q-118 0 -198.5 70t-87.5 186z" />
    <glyph glyph-name="obreve" unicode="&#x14f;" 
d="M573 -20q-103 0 -193 39t-156 108t-104 168.5t-38 216.5t38 216.5t104 168.5t156 108t193 39q137 0 249 -66t177.5 -188.5t65.5 -277.5t-65.5 -277.5t-177.5 -188.5t-249 -66zM573 123q143 0 240.5 108t97.5 281t-97.5 281t-240.5 108t-240 -108t-97 -281t97 -281
t240 -108zM287 1454h133q7 -68 48.5 -105.5t104.5 -37.5t105 37.5t49 105.5h133q-7 -116 -87.5 -186t-199.5 -70q-118 0 -198.5 70t-87.5 186z" />
    <glyph glyph-name="Ohungarumlaut" unicode="&#x150;" horiz-adv-x="1576" 
d="M788 -20q-140 0 -266 54t-218.5 149t-147 234t-54.5 300t54.5 300t147 234t218.5 149t266 54t266 -54t219 -149t147.5 -234t54.5 -300t-54.5 -300t-147.5 -234t-219 -149t-266 -54zM788 133q107 0 202.5 42.5t166.5 117.5t112.5 185.5t41.5 238.5t-41.5 238t-112.5 185
t-166.5 117.5t-202.5 42.5q-143 0 -262 -72t-189.5 -206t-70.5 -305q0 -128 41.5 -238.5t112 -185.5t166 -117.5t202.5 -42.5zM553 1577l195 287h184l-236 -287h-143zM881 1577l194 287h185l-236 -287h-143z" />
    <glyph glyph-name="ohungarumlaut" unicode="&#x151;" 
d="M573 -20q-103 0 -193 39t-156 108t-104 168.5t-38 216.5t38 216.5t104 168.5t156 108t193 39q137 0 249 -66t177.5 -188.5t65.5 -277.5t-65.5 -277.5t-177.5 -188.5t-249 -66zM573 123q143 0 240.5 108t97.5 281t-97.5 281t-240.5 108t-240 -108t-97 -281t97 -281
t240 -108zM338 1188l194 287h185l-236 -287h-143zM666 1188l194 287h184l-235 -287h-143z" />
    <glyph glyph-name="OE" unicode="&#x152;" horiz-adv-x="2252" 
d="M1219 0v225h-11q-71 -113 -191 -179t-269 -66q-133 0 -251.5 54t-205.5 149t-138 233.5t-51 300.5t51 300.5t138 233.5t205.5 149t251.5 54q149 0 268.5 -66.5t191.5 -179.5h11v226h921v-154h-758v-481h717v-154h-717v-491h758v-154h-921zM748 133q205 0 338 160t133 424
t-133 423.5t-338 159.5t-343.5 -160.5t-138.5 -422.5t138.5 -423t343.5 -161z" />
    <glyph glyph-name="oe" unicode="&#x153;" horiz-adv-x="1904" 
d="M1628 287h164q-112 -307 -430 -307q-130 0 -239 63t-171 172q-62 -110 -166 -172.5t-233 -62.5q-203 0 -337 148.5t-134 383.5t134 383.5t337 148.5q130 0 233.5 -64t165.5 -181q61 116 170 180.5t240 64.5q136 0 242 -65t162.5 -176.5t56.5 -249.5q0 -30 -6 -84l-5 -29
h-778q17 -145 107 -231t221 -86q91 0 159 42.5t107 121.5zM553 123q133 0 225 108t92 281t-92 281t-225 108t-225 -108t-92 -281t92 -281t225 -108zM1034 584h635q-7 143 -94 230t-213 87q-131 0 -221 -86t-107 -231z" />
    <glyph glyph-name="Racute" unicode="&#x154;" horiz-adv-x="1310" 
d="M164 0v1434h624q170 0 290 -126t120 -315t-120 -314.5t-290 -125.5h-133l574 -553h-205l-573 553h-123v-553h-164zM328 707h460q103 0 174.5 79.5t71.5 206.5t-71.5 207t-174.5 80h-460v-573zM584 1577l194 287h185l-236 -287h-143z" />
    <glyph glyph-name="racute" unicode="&#x155;" horiz-adv-x="696" 
d="M143 0v1024h133l21 -102h10q36 52 76.5 77t118.5 25h174v-143h-154q-109 0 -167 -58.5t-58 -167.5v-655h-154zM358 1188l195 287h184l-235 -287h-144z" />
    <glyph glyph-name="Rcommaaccent" unicode="&#x156;" horiz-adv-x="1310" 
d="M164 0v1434h624q170 0 290 -126t120 -315t-120 -314.5t-290 -125.5h-133l574 -553h-205l-573 553h-123v-553h-164zM328 707h460q103 0 174.5 79.5t71.5 206.5t-71.5 207t-174.5 80h-460v-573zM512 -471l61 328h175l-113 -328h-123z" />
    <glyph glyph-name="rcommaaccent" unicode="&#x157;" horiz-adv-x="696" 
d="M143 0v1024h133l21 -102h10q36 52 76.5 77t118.5 25h174v-143h-154q-109 0 -167 -58.5t-58 -167.5v-655h-154zM82 -471l61 328h174l-112 -328h-123z" />
    <glyph glyph-name="Rcaron" unicode="&#x158;" horiz-adv-x="1310" 
d="M164 0v1434h624q170 0 290 -126t120 -315t-120 -314.5t-290 -125.5h-133l574 -553h-205l-573 553h-123v-553h-164zM328 707h460q103 0 174.5 79.5t71.5 206.5t-71.5 207t-174.5 80h-460v-573zM573 1577l-235 276h164l153 -184l154 184h164l-236 -276h-164z" />
    <glyph glyph-name="rcaron" unicode="&#x159;" horiz-adv-x="696" 
d="M143 0v1024h133l21 -102h10q36 52 76.5 77t118.5 25h174v-143h-154q-109 0 -167 -58.5t-58 -167.5v-655h-154zM348 1188l-235 276h163l154 -184l154 184h164l-236 -276h-164z" />
    <glyph glyph-name="Sacute" unicode="&#x15a;" horiz-adv-x="1259" 
d="M92 420h164q0 -121 101 -204t278 -83q181 0 269.5 70.5t88.5 185.5q0 190 -245 236l-277 51q-348 65 -348 368q0 180 133 295t358 115q241 0 387 -125.5t146 -314.5h-164q0 121 -99 203.5t-270 82.5q-156 0 -241.5 -71.5t-85.5 -184.5q0 -181 235 -225l226 -41
q214 -38 311.5 -132t97.5 -257q0 -182 -137.5 -295.5t-384.5 -113.5q-123 0 -226.5 35.5t-172 96t-106.5 140t-38 168.5zM553 1577l195 287h184l-236 -287h-143z" />
    <glyph glyph-name="sacute" unicode="&#x15b;" horiz-adv-x="942" 
d="M61 297h154q0 -73 69 -123.5t187 -50.5t182 44t64 109q0 62 -41.5 99.5t-132.5 54.5l-174 31q-287 48 -287 287q0 129 98 212.5t281 83.5q178 0 288.5 -94t110.5 -223h-153q0 72 -66.5 123t-179.5 51q-111 0 -168 -43.5t-57 -109.5q0 -57 37 -92t126 -52l174 -31
q153 -29 225 -101.5t72 -195.5q0 -130 -103 -213t-296 -83q-185 0 -297.5 94t-112.5 223zM399 1188l195 287h184l-235 -287h-144z" />
    <glyph glyph-name="Scircumflex" unicode="&#x15c;" horiz-adv-x="1259" 
d="M92 420h164q0 -121 101 -204t278 -83q181 0 269.5 70.5t88.5 185.5q0 190 -245 236l-277 51q-348 65 -348 368q0 180 133 295t358 115q241 0 387 -125.5t146 -314.5h-164q0 121 -99 203.5t-270 82.5q-156 0 -241.5 -71.5t-85.5 -184.5q0 -181 235 -225l226 -41
q214 -38 311.5 -132t97.5 -257q0 -182 -137.5 -295.5t-384.5 -113.5q-123 0 -226.5 35.5t-172 96t-106.5 140t-38 168.5zM307 1577l236 276h164l235 -276h-164l-153 184l-154 -184h-164z" />
    <glyph glyph-name="scircumflex" unicode="&#x15d;" horiz-adv-x="942" 
d="M61 297h154q0 -73 69 -123.5t187 -50.5t182 44t64 109q0 62 -41.5 99.5t-132.5 54.5l-174 31q-287 48 -287 287q0 129 98 212.5t281 83.5q178 0 288.5 -94t110.5 -223h-153q0 72 -66.5 123t-179.5 51q-111 0 -168 -43.5t-57 -109.5q0 -57 37 -92t126 -52l174 -31
q153 -29 225 -101.5t72 -195.5q0 -130 -103 -213t-296 -83q-185 0 -297.5 94t-112.5 223zM154 1188l235 276h164l235 -276h-163l-154 184l-154 -184h-163z" />
    <glyph glyph-name="Scedilla" unicode="&#x15e;" horiz-adv-x="1259" 
d="M492 -410v103h81q46 0 69.5 19.5t23.5 51.5t-24 52t-69 20h-51v72l31 72q-208 25 -334.5 147t-126.5 293h164q0 -121 101 -204t278 -83q181 0 269.5 70.5t88.5 185.5q0 190 -245 236l-277 51q-348 65 -348 368q0 180 133 295t358 115q241 0 387 -125.5t146 -314.5h-164
q0 121 -99 203.5t-270 82.5q-156 0 -241.5 -71.5t-85.5 -184.5q0 -181 235 -225l226 -41q214 -38 311.5 -132t97.5 -257q0 -180 -122 -286t-359 -123l-31 -72q60 -7 101.5 -53t41.5 -101q0 -71 -52 -117.5t-142 -46.5h-102z" />
    <glyph glyph-name="scedilla" unicode="&#x15f;" horiz-adv-x="942" 
d="M348 -410v103h82q46 0 69 19.5t23 51.5t-23.5 52t-68.5 20h-51v72l31 72q-158 17 -253.5 105t-95.5 212h154q0 -73 69 -123.5t187 -50.5t182 44t64 109q0 62 -41.5 99.5t-132.5 54.5l-174 31q-287 48 -287 287q0 129 98 212.5t281 83.5q178 0 288.5 -94t110.5 -223h-153
q0 72 -66.5 123t-179.5 51q-111 0 -168 -43.5t-57 -109.5q0 -57 37 -92t126 -52l174 -31q153 -29 225 -101.5t72 -195.5q0 -121 -86 -200t-252 -96l-30 -72q60 -7 101.5 -53t41.5 -101q0 -71 -52 -117.5t-142 -46.5h-103z" />
    <glyph glyph-name="Scaron" unicode="&#x160;" horiz-adv-x="1259" 
d="M92 420h164q0 -121 101 -204t278 -83q181 0 269.5 70.5t88.5 185.5q0 190 -245 236l-277 51q-348 65 -348 368q0 180 133 295t358 115q241 0 387 -125.5t146 -314.5h-164q0 121 -99 203.5t-270 82.5q-156 0 -241.5 -71.5t-85.5 -184.5q0 -181 235 -225l226 -41
q214 -38 311.5 -132t97.5 -257q0 -182 -137.5 -295.5t-384.5 -113.5q-123 0 -226.5 35.5t-172 96t-106.5 140t-38 168.5zM543 1577l-236 276h164l154 -184l153 184h164l-235 -276h-164z" />
    <glyph glyph-name="scaron" unicode="&#x161;" horiz-adv-x="942" 
d="M61 297h154q0 -73 69 -123.5t187 -50.5t182 44t64 109q0 62 -41.5 99.5t-132.5 54.5l-174 31q-287 48 -287 287q0 129 98 212.5t281 83.5q178 0 288.5 -94t110.5 -223h-153q0 72 -66.5 123t-179.5 51q-111 0 -168 -43.5t-57 -109.5q0 -57 37 -92t126 -52l174 -31
q153 -29 225 -101.5t72 -195.5q0 -130 -103 -213t-296 -83q-185 0 -297.5 94t-112.5 223zM389 1188l-235 276h163l154 -184l154 184h163l-235 -276h-164z" />
    <glyph glyph-name="uni0162" unicode="&#x162;" horiz-adv-x="1208" 
d="M492 -410v103h81q46 0 69.5 19.5t23.5 51.5t-24 52t-69 20h-51v72l41 92h-41v1280h-471v154h1106v-154h-471v-1280l-41 -92q60 -7 101.5 -53t41.5 -101q0 -71 -52 -117.5t-142 -46.5h-102z" />
    <glyph glyph-name="uni0163" unicode="&#x163;" horiz-adv-x="696" 
d="M276 -410v103h82q46 0 69.5 19.5t23.5 51.5t-24 52t-69 20h-51v72l41 92q-61 17 -97 64.5t-36 109.5v707h-164v143h164v287h154v-287h235v-143h-235v-676q0 -62 61 -62h174v-143h-133l-41 -92q60 -7 101.5 -53t41.5 -101q0 -71 -52 -117.5t-142 -46.5h-103z" />
    <glyph glyph-name="Tcaron" unicode="&#x164;" horiz-adv-x="1208" 
d="M522 0v1280h-471v154h1106v-154h-471v-1280h-164zM522 1577l-235 276h164l153 -184l154 184h164l-236 -276h-164z" />
    <glyph glyph-name="tcaron" unicode="&#x165;" horiz-adv-x="747" 
d="M215 174v707h-164v143h164v287h154v-287h235v-143h-235v-676q0 -62 61 -62h174v-143h-205q-85 0 -134.5 47.5t-49.5 126.5zM604 1106l62 328h174l-113 -328h-123z" />
    <glyph glyph-name="Tbar" unicode="&#x166;" horiz-adv-x="1208" 
d="M522 0v870h-317v154h317v256h-471v154h1106v-154h-471v-256h318v-154h-318v-870h-164z" />
    <glyph glyph-name="tbar" unicode="&#x167;" horiz-adv-x="696" 
d="M215 174v328h-164v143h164v236h-164v143h164v287h154v-287h235v-143h-235v-236h235v-143h-235v-297q0 -62 61 -62h174v-143h-205q-85 0 -134.5 47.5t-49.5 126.5z" />
    <glyph glyph-name="Umacron" unicode="&#x16a;" horiz-adv-x="1413" 
d="M143 563v871h164v-871q0 -190 114.5 -310t285.5 -120q170 0 284.5 120.5t114.5 309.5v871h164v-871q0 -129 -43.5 -238.5t-118.5 -184.5t-178.5 -117.5t-222.5 -42.5q-159 0 -287 72t-202.5 206t-74.5 305zM420 1659v123h573v-123h-573z" />
    <glyph glyph-name="umacron" unicode="&#x16b;" horiz-adv-x="1167" 
d="M143 410v614h154v-614q0 -122 80 -204.5t196 -82.5q122 0 209.5 85.5t87.5 201.5v614h154v-1024h-133l-21 113h-10q-38 -45 -78 -68q-100 -65 -229 -65q-178 0 -294 119.5t-116 310.5zM297 1270v123h573v-123h-573z" />
    <glyph glyph-name="Ubreve" unicode="&#x16c;" horiz-adv-x="1413" 
d="M143 563v871h164v-871q0 -190 114.5 -310t285.5 -120q170 0 284.5 120.5t114.5 309.5v871h164v-871q0 -129 -43.5 -238.5t-118.5 -184.5t-178.5 -117.5t-222.5 -42.5q-159 0 -287 72t-202.5 206t-74.5 305zM420 1853h133q7 -68 49 -105.5t105 -37.5t104.5 37.5
t48.5 105.5h133q-7 -116 -87.5 -186t-198.5 -70q-119 0 -199.5 70t-87.5 186z" />
    <glyph glyph-name="ubreve" unicode="&#x16d;" horiz-adv-x="1167" 
d="M143 410v614h154v-614q0 -122 80 -204.5t196 -82.5q122 0 209.5 85.5t87.5 201.5v614h154v-1024h-133l-21 113h-10q-38 -45 -78 -68q-100 -65 -229 -65q-178 0 -294 119.5t-116 310.5zM297 1454h133q7 -68 49 -105.5t105 -37.5t104.5 37.5t48.5 105.5h133
q-7 -116 -87.5 -186t-198.5 -70q-119 0 -199.5 70t-87.5 186z" />
    <glyph glyph-name="Uring" unicode="&#x16e;" horiz-adv-x="1413" 
d="M143 563v871h164v-871q0 -190 114.5 -310t285.5 -120q170 0 284.5 120.5t114.5 309.5v871h164v-871q0 -129 -43.5 -238.5t-118.5 -184.5t-178.5 -117.5t-222.5 -42.5q-159 0 -287 72t-202.5 206t-74.5 305zM522 1741q0 78 53.5 131t131.5 53t131 -53t53 -131t-53 -131.5
t-131 -53.5t-131.5 53.5t-53.5 131.5zM707 1659q32 0 56.5 22.5t24.5 59.5t-24.5 59.5t-56.5 22.5q-33 0 -57.5 -22.5t-24.5 -59.5t24.5 -59.5t57.5 -22.5z" />
    <glyph glyph-name="uring" unicode="&#x16f;" horiz-adv-x="1167" 
d="M143 410v614h154v-614q0 -122 80 -204.5t196 -82.5q122 0 209.5 85.5t87.5 201.5v614h154v-1024h-133l-21 113h-10q-38 -45 -78 -68q-100 -65 -229 -65q-178 0 -294 119.5t-116 310.5zM399 1352q0 78 53.5 131t131.5 53t131 -53t53 -131t-53 -131.5t-131 -53.5
t-131.5 53.5t-53.5 131.5zM584 1270q33 0 57.5 22.5t24.5 59.5t-24.5 59.5t-57.5 22.5t-57.5 -22.5t-24.5 -59.5t24.5 -59.5t57.5 -22.5z" />
    <glyph glyph-name="Uhungarumlaut" unicode="&#x170;" horiz-adv-x="1413" 
d="M143 563v871h164v-871q0 -190 114.5 -310t285.5 -120q170 0 284.5 120.5t114.5 309.5v871h164v-871q0 -129 -43.5 -238.5t-118.5 -184.5t-178.5 -117.5t-222.5 -42.5q-159 0 -287 72t-202.5 206t-74.5 305zM471 1577l195 287h184l-236 -287h-143zM799 1577l194 287h185
l-236 -287h-143z" />
    <glyph glyph-name="uhungarumlaut" unicode="&#x171;" horiz-adv-x="1163" 
d="M143 410v614h154v-614q0 -122 80 -204.5t196 -82.5q122 0 209.5 85.5t87.5 201.5v614h154v-1024h-133l-21 113h-10q-38 -45 -78 -68q-100 -65 -229 -65q-178 0 -294 119.5t-116 310.5zM348 1188l195 287h184l-235 -287h-144zM676 1188l194 287h185l-236 -287h-143z" />
    <glyph glyph-name="Uogonek" unicode="&#x172;" horiz-adv-x="1413" 
d="M840 -338h-41q-98 0 -151.5 47t-53.5 127q0 70 41 111q16 19 41 33q-237 18 -385 172.5t-148 410.5v871h164v-871q0 -190 114.5 -310t285.5 -120q170 0 284.5 120.5t114.5 309.5v871h164v-871q0 -119 -39 -222.5t-103 -175t-144 -117t-165 -58.5q-47 -23 -74.5 -59
t-27.5 -74q0 -34 24 -58t68 -24h31v-113z" />
    <glyph glyph-name="uogonek" unicode="&#x173;" horiz-adv-x="1167" 
d="M143 410v614h154v-614q0 -122 80 -204.5t196 -82.5q122 0 209.5 85.5t87.5 201.5v614h154v-1024q-123 -62 -123 -143q0 -34 24 -58t68 -24h31v-113h-41q-98 0 -151.5 47t-53.5 127q0 56 34.5 100t78.5 64l-21 113h-10q-38 -45 -78 -68q-100 -65 -229 -65
q-178 0 -294 119.5t-116 310.5z" />
    <glyph glyph-name="Wcircumflex" unicode="&#x174;" horiz-adv-x="2007" 
d="M389 0l-358 1434h174l307 -1260h41l328 1260h245l328 -1260h41l307 1260h174l-358 -1434h-287l-307 1198h-41l-307 -1198h-287zM686 1577l236 276h163l236 -276h-164l-153 184l-154 -184h-164z" />
    <glyph glyph-name="wcircumflex" unicode="&#x175;" horiz-adv-x="1617" 
d="M307 0l-276 1024h164l225 -860h41l225 860h246l225 -860h41l225 860h164l-276 -1024h-267l-215 829h-41l-215 -829h-266zM492 1188l235 276h164l235 -276h-163l-154 184l-154 -184h-163z" />
    <glyph glyph-name="Ycircumflex" unicode="&#x176;" horiz-adv-x="1208" 
d="M522 0v543l-522 891h174l410 -707h41l409 707h174l-522 -891v-543h-164zM287 1577l235 276h164l236 -276h-164l-154 184l-153 -184h-164z" />
    <glyph glyph-name="ycircumflex" unicode="&#x177;" horiz-adv-x="1013" 
d="M133 -410v144h195q51 0 71 61l41 123l-420 1106h164l318 -850h41l286 850h164l-461 -1290q-26 -76 -68.5 -110t-125.5 -34h-205zM205 1188l235 276h164l236 -276h-164l-154 184l-153 -184h-164z" />
    <glyph glyph-name="Ydieresis" unicode="&#x178;" horiz-adv-x="1208" 
d="M522 0v543l-522 891h174l410 -707h41l409 707h174l-522 -891v-543h-164zM696 1638v174h174v-174h-174zM338 1638v174h174v-174h-174z" />
    <glyph glyph-name="Zacute" unicode="&#x179;" horiz-adv-x="1177" 
d="M72 0v133l819 1147h-809v154h1014v-134l-820 -1146h830v-154h-1034zM512 1577l195 287h184l-236 -287h-143z" />
    <glyph glyph-name="zacute" unicode="&#x17a;" horiz-adv-x="880" 
d="M51 0v133l574 748h-564v143h758v-133l-573 -748h583v-143h-778zM369 1188l194 287h185l-236 -287h-143z" />
    <glyph glyph-name="Zdotaccent" unicode="&#x17b;" horiz-adv-x="1177" 
d="M72 0v133l819 1147h-809v154h1014v-134l-820 -1146h830v-154h-1034zM502 1638v174h174v-174h-174z" />
    <glyph glyph-name="zdotaccent" unicode="&#x17c;" horiz-adv-x="880" 
d="M51 0v133l574 748h-564v143h758v-133l-573 -748h583v-143h-778zM358 1239v174h174v-174h-174z" />
    <glyph glyph-name="Zcaron" unicode="&#x17d;" horiz-adv-x="1177" 
d="M72 0v133l819 1147h-809v154h1014v-134l-820 -1146h830v-154h-1034zM502 1577l-236 276h164l154 -184l153 184h164l-235 -276h-164z" />
    <glyph glyph-name="zcaron" unicode="&#x17e;" horiz-adv-x="880" 
d="M51 0v133l574 748h-564v143h758v-133l-573 -748h583v-143h-778zM358 1188l-235 276h164l153 -184l154 184h164l-236 -276h-164z" />
    <glyph glyph-name="uni018F" unicode="&#x18f;" horiz-adv-x="1546" 
d="M102 666v122h1178q-25 225 -169.5 368.5t-352.5 143.5q-149 0 -274.5 -79.5t-186.5 -216.5h-174q68 205 243 327.5t392 122.5q140 0 266 -54t218.5 -149t147 -234t54.5 -300t-54.5 -300t-147 -234t-218.5 -149t-266 -54q-141 0 -262.5 50t-208 139t-136 217.5
t-49.5 279.5zM1280 645h-1014q0 -228 138 -370t354 -142q208 0 352.5 143.5t169.5 368.5z" />
    <glyph glyph-name="florin" unicode="&#x192;" horiz-adv-x="768" 
d="M-143 -410l30 144h123q85 0 103 92l194 891h-194l30 143h195l72 328q21 96 86 150.5t170 54.5h153l-31 -144h-122q-85 0 -103 -92l-61 -297h205l-31 -143h-205l-205 -922q-21 -96 -86 -150.5t-170 -54.5h-153z" />
    <glyph glyph-name="Aringacute" unicode="&#x1fa;" horiz-adv-x="1331" 
d="M645 1884l62 103h143l-92 -123q92 -56 92 -164q0 -78 -53 -131t-131 -53t-131.5 53t-53.5 131q0 76 46.5 126t117.5 58zM666 1618q33 0 57.5 22.5t24.5 59.5t-24.5 59.5t-57.5 22.5t-57.5 -22.5t-24.5 -59.5t24.5 -59.5t57.5 -22.5zM0 0l543 1434h245l543 -1434h-174
l-133 369h-717l-133 -369h-174zM369 522h594l-277 738h-41z" />
    <glyph glyph-name="aringacute" unicode="&#x1fb;" horiz-adv-x="1085" 
d="M522 1495l62 102h143l-92 -122q92 -56 92 -164q0 -78 -53 -131.5t-131 -53.5t-131.5 53.5t-53.5 131.5q0 76 46.5 126t117.5 58zM543 1229q33 0 57.5 22.5t24.5 59.5t-24.5 59.5t-57.5 22.5t-57.5 -22.5t-24.5 -59.5t24.5 -59.5t57.5 -22.5zM809 0l-21 123h-10
q-29 -44 -73 -72q-93 -71 -244 -71q-160 0 -259.5 88.5t-99.5 228.5q0 154 101 241t309 87h276v30q0 117 -64 181.5t-181 64.5q-112 0 -180 -50.5t-76 -123.5h-154q8 131 117.5 224t292.5 93q187 0 293 -102t106 -287v-655h-133zM788 440v41h-276q-131 0 -193.5 -51
t-62.5 -133q0 -80 53.5 -127t151.5 -47q153 0 240 84.5t87 232.5z" />
    <glyph glyph-name="AEacute" unicode="&#x1fc;" horiz-adv-x="1894" 
d="M-20 0l624 1434h1178v-154h-758v-481h717v-154h-717v-491h758v-154h-922v358h-553l-153 -358h-174zM379 512h481v768h-153zM891 1577l194 287h185l-236 -287h-143z" />
    <glyph glyph-name="aeacute" unicode="&#x1fd;" horiz-adv-x="1812" 
d="M287 727h-154q8 131 117.5 224t292.5 93q126 0 217 -59.5t131 -155.5q126 215 379 215q202 0 331.5 -135.5t129.5 -355.5q0 -22 -7 -78l-4 -24h-778q17 -148 107.5 -238t220.5 -90q91 0 159 42.5t107 121.5h164q-112 -307 -430 -307q-173 0 -303 112q-56 47 -97 113
q-38 -66 -94 -113q-130 -112 -315 -112q-159 0 -259 87.5t-100 219.5q0 146 101.5 231.5t308.5 85.5h276v51q0 117 -64 181.5t-181 64.5q-112 0 -180 -50.5t-76 -123.5zM942 594h635q-7 142 -93.5 224.5t-213.5 82.5q-133 0 -222 -81t-106 -226zM788 440v21h-276
q-127 0 -191.5 -46.5t-64.5 -127.5q0 -72 54 -118t151 -46q153 0 240 84.5t87 232.5zM840 1188l194 287h185l-236 -287h-143z" />
    <glyph glyph-name="Oslashacute" unicode="&#x1fe;" horiz-adv-x="1576" 
d="M1116 1178l-522 -1004q13 -7 51 -20q69 -21 143 -21q107 0 202.5 42.5t166.5 117.5t112.5 185.5t41.5 238.5q0 149 -53 269.5t-142 191.5zM461 256l522 1004q-13 7 -51 20q-66 20 -144 20q-143 0 -262 -72t-189.5 -206t-70.5 -305q0 -149 53 -269.5t142 -191.5zM287 -72
l92 185q-129 105 -203 258t-74 346q0 161 54.5 300t147 234t218.5 149t266 54q100 0 197 -29q45 -13 74 -26l57 106h174l-92 -184q129 -105 203 -258t74 -346q0 -161 -54.5 -300t-147.5 -234t-219 -149t-266 -54q-109 0 -196 26q-23 7 -74 29l-57 -107h-174zM717 1577
l194 287h185l-236 -287h-143z" />
    <glyph glyph-name="oslashacute" unicode="&#x1ff;" 
d="M809 799l-358 -656q20 -8 34 -10q42 -10 88 -10q143 0 240.5 108t97.5 281q0 185 -102 287zM184 -72l82 154q-184 166 -184 430q0 117 38 216.5t104 168.5t156 108t193 39q64 0 138 -18l51 -18l47 88h154l-82 -154q184 -166 184 -430q0 -155 -65.5 -277.5t-177.5 -188.5
t-249 -66q-78 0 -137 18l-51 18l-47 -88h-154zM338 225l358 656l-34 10q-38 10 -89 10q-143 0 -240 -108t-97 -281q0 -185 102 -287zM502 1188l194 287h185l-236 -287h-143z" />
    <glyph glyph-name="Scommaaccent" unicode="&#x218;" horiz-adv-x="1259" 
d="M92 420h164q0 -121 101 -204t278 -83q181 0 269.5 70.5t88.5 185.5q0 190 -245 236l-277 51q-348 65 -348 368q0 180 133 295t358 115q241 0 387 -125.5t146 -314.5h-164q0 121 -99 203.5t-270 82.5q-156 0 -241.5 -71.5t-85.5 -184.5q0 -181 235 -225l226 -41
q214 -38 311.5 -132t97.5 -257q0 -182 -137.5 -295.5t-384.5 -113.5q-123 0 -226.5 35.5t-172 96t-106.5 140t-38 168.5zM481 -471l62 328h174l-113 -328h-123z" />
    <glyph glyph-name="scommaaccent" unicode="&#x219;" horiz-adv-x="942" 
d="M61 297h154q0 -73 69 -123.5t187 -50.5t182 44t64 109q0 62 -41.5 99.5t-132.5 54.5l-174 31q-287 48 -287 287q0 129 98 212.5t281 83.5q178 0 288.5 -94t110.5 -223h-153q0 72 -66.5 123t-179.5 51q-111 0 -168 -43.5t-57 -109.5q0 -57 37 -92t126 -52l174 -31
q153 -29 225 -101.5t72 -195.5q0 -130 -103 -213t-296 -83q-185 0 -297.5 94t-112.5 223zM328 -471l61 328h174l-112 -328h-123z" />
    <glyph glyph-name="uni021A" unicode="&#x21a;" horiz-adv-x="1208" 
d="M522 0v1280h-471v154h1106v-154h-471v-1280h-164zM461 -471l61 328h174l-112 -328h-123z" />
    <glyph glyph-name="uni021B" unicode="&#x21b;" horiz-adv-x="696" 
d="M215 174v707h-164v143h164v287h154v-287h235v-143h-235v-676q0 -62 61 -62h174v-143h-205q-85 0 -134.5 47.5t-49.5 126.5zM266 -471l62 328h174l-113 -328h-123z" />
    <glyph glyph-name="uni0232" unicode="&#x232;" horiz-adv-x="1208" 
d="M522 0v543l-522 891h174l410 -707h41l409 707h174l-522 -891v-543h-164zM317 1659v123h574v-123h-574z" />
    <glyph glyph-name="uni0233" unicode="&#x233;" horiz-adv-x="1013" 
d="M133 -410v144h195q51 0 71 61l41 123l-420 1106h164l318 -850h41l286 850h164l-461 -1290q-26 -76 -68.5 -110t-125.5 -34h-205zM236 1270v123h573v-123h-573z" />
    <glyph glyph-name="uni0244" unicode="&#x244;" horiz-adv-x="1556" 
d="M215 563v307h-195v154h195v410h164v-410h799v410h163v-410h195v-154h-195v-307q0 -129 -43.5 -238.5t-118.5 -184.5t-178.5 -117.5t-222.5 -42.5t-222.5 42.5t-178.5 117.5t-118.5 184.5t-43.5 238.5zM379 870v-307q0 -190 114 -310t285 -120q170 0 285 120.5t115 309.5
v307h-799z" />
    <glyph glyph-name="uni0259" unicode="&#x259;" horiz-adv-x="1126" 
d="M92 584h799q-17 144 -112 230.5t-226 86.5q-93 0 -166 -43t-111 -121h-163q54 149 167 228t273 79q103 0 193 -39t156 -108t104 -168.5t38 -216.5t-38 -216.5t-104 -168.5t-156 -108t-193 -39q-202 0 -336.5 138.5t-134.5 352.5q0 50 4 86zM891 440h-655
q7 -139 96.5 -228t220.5 -89q138 0 229 87.5t109 229.5z" />
    <glyph glyph-name="uni0289" unicode="&#x289;" horiz-adv-x="1249" 
d="M184 410v245h-164v144h164v225h154v-225h573v225h154v-225h164v-144h-164v-655h-133l-21 113h-10q-38 -45 -78 -68q-100 -65 -229 -65q-178 0 -294 119.5t-116 310.5zM338 655v-245q0 -122 80 -204.5t196 -82.5q122 0 209.5 85.5t87.5 201.5v245h-573z" />
    <glyph glyph-name="uni02BC" unicode="&#x2bc;" horiz-adv-x="358" 
d="M61 1106l62 328h174l-113 -328h-123z" />
    <glyph glyph-name="circumflex" unicode="&#x2c6;" horiz-adv-x="757" 
d="M61 1219l236 276h164l235 -276h-164l-153 184l-154 -184h-164z" />
    <glyph glyph-name="caron" unicode="&#x2c7;" horiz-adv-x="757" 
d="M297 1219l-236 276h164l154 -184l153 184h164l-235 -276h-164z" />
    <glyph glyph-name="breve" unicode="&#x2d8;" horiz-adv-x="696" 
d="M61 1454h134q7 -68 48.5 -105.5t104.5 -37.5t105 37.5t49 105.5h133q-7 -116 -87.5 -186t-199.5 -70t-199.5 70t-87.5 186z" />
    <glyph glyph-name="dotaccent" unicode="&#x2d9;" horiz-adv-x="296" 
d="M61 1239v174h175v-174h-175z" />
    <glyph glyph-name="ring" unicode="&#x2da;" horiz-adv-x="491" 
d="M61 1393q0 78 53.5 131t131.5 53t131 -53t53 -131t-53 -131.5t-131 -53.5t-131.5 53.5t-53.5 131.5zM246 1311q33 0 57.5 22.5t24.5 59.5t-24.5 59.5t-57.5 22.5t-57.5 -22.5t-24.5 -59.5t24.5 -59.5t57.5 -22.5z" />
    <glyph glyph-name="ogonek" unicode="&#x2db;" horiz-adv-x="368" 
d="M307 -338h-41q-98 0 -151.5 47t-53.5 127q0 56 34.5 100t78.5 64v20h133v-20q-123 -62 -123 -143q0 -34 24 -58t68 -24h31v-113z" />
    <glyph glyph-name="tilde" unicode="&#x2dc;" horiz-adv-x="768" 
d="M184 1229h-123q0 91 59 148t146 57q35 0 70.5 -14.5t59.5 -32t53 -32t53 -14.5q34 0 58 24.5t24 68.5h123q0 -91 -59 -148t-146 -57q-44 0 -88 23t-81.5 46t-66.5 23q-34 0 -58 -24t-24 -68z" />
    <glyph glyph-name="hungarumlaut" unicode="&#x2dd;" horiz-adv-x="829" 
d="M61 1219l195 286h184l-235 -286h-144zM389 1219l195 286h184l-236 -286h-143z" />
    <glyph glyph-name="acutecomb" unicode="&#x301;" horiz-adv-x="0" 
d="M-788 1628l194 287h184l-235 -287h-143z" />
    <glyph glyph-name="uni0302" unicode="&#x302;" horiz-adv-x="0" 
d="M-1044 1628l235 277h164l235 -277h-163l-154 184l-154 -184h-163z" />
    <glyph glyph-name="uni0304" unicode="&#x304;" horiz-adv-x="0" 
d="M-1024 1679v123h573v-123h-573z" />
    <glyph glyph-name="uni0306" unicode="&#x306;" horiz-adv-x="0" 
d="M-1024 1864h133q7 -68 49 -106t105 -38t104.5 38t48.5 106h133q-7 -116 -87.5 -186t-198.5 -70q-119 0 -199.5 70t-87.5 186z" />
    <glyph glyph-name="uni0307" unicode="&#x307;" horiz-adv-x="0" 
d="M-809 1649v174h174v-174h-174z" />
    <glyph glyph-name="uni0308" unicode="&#x308;" horiz-adv-x="0" 
d="M-625 1649v174h174v-174h-174zM-983 1649v174h174v-174h-174z" />
    <glyph glyph-name="uni030A" unicode="&#x30a;" horiz-adv-x="0" 
d="M-901 1802q0 78 53 131.5t131 53.5t131.5 -53.5t53.5 -131.5t-53.5 -131t-131.5 -53t-131 53t-53 131zM-717 1720q33 0 57.5 22.5t24.5 59.5t-24.5 59.5t-57.5 22.5t-57.5 -22.5t-24.5 -59.5t24.5 -59.5t57.5 -22.5z" />
    <glyph glyph-name="uni030C" unicode="&#x30c;" horiz-adv-x="0" 
d="M-809 1628l-235 277h163l154 -185l154 185h163l-235 -277h-164z" />
    <glyph glyph-name="uni0326" unicode="&#x326;" horiz-adv-x="358" 
d="M61 -502l62 328h174l-113 -328h-123z" />
    <glyph glyph-name="uni0400" unicode="&#x400;" horiz-adv-x="1198" 
d="M164 0v1434h921v-154h-757v-481h716v-154h-716v-491h757v-154h-921zM553 1577l-236 287h185l194 -287h-143z" />
    <glyph glyph-name="uni0401" unicode="&#x401;" horiz-adv-x="1198" 
d="M164 0v1434h921v-154h-757v-481h716v-154h-716v-491h757v-154h-921zM717 1638v174h174v-174h-174zM358 1638v174h174v-174h-174z" />
    <glyph glyph-name="uni0402" unicode="&#x402;" horiz-adv-x="1433" 
d="M379 0v1280h-379v154h922v-154h-379v-451q72 45 148.5 69t189.5 24q199 0 329.5 -130.5t130.5 -330.5q0 -209 -132.5 -335t-348.5 -126h-102v154h102q138 0 228 88t90 219q0 135 -86 221t-211 86q-105 0 -181 -21.5t-157 -70.5v-676h-164z" />
    <glyph glyph-name="uni0403" unicode="&#x403;" horiz-adv-x="1105" 
d="M164 0v1434h901v-154h-737v-1280h-164zM543 1577l194 287h185l-236 -287h-143z" />
    <glyph glyph-name="uni0404" unicode="&#x404;" horiz-adv-x="1495" 
d="M276 799h697v-154h-697q17 -226 163 -369t349 -143q161 0 284 87t177 241h174q-53 -219 -228.5 -350t-406.5 -131q-140 0 -266 54t-218.5 149t-147 234t-54.5 300t54.5 300t147 234t218.5 149t266 54q224 0 399 -129t236 -342h-174q-54 148 -177 232.5t-284 84.5
q-203 0 -349 -140.5t-163 -360.5z" />
    <glyph glyph-name="uni0405" unicode="&#x405;" horiz-adv-x="1259" 
d="M92 420h164q0 -121 101 -204t278 -83q181 0 269.5 70.5t88.5 185.5q0 190 -245 236l-277 51q-348 65 -348 368q0 180 133 295t358 115q241 0 387 -125.5t146 -314.5h-164q0 121 -99 203.5t-270 82.5q-156 0 -241.5 -71.5t-85.5 -184.5q0 -181 235 -225l226 -41
q214 -38 311.5 -132t97.5 -257q0 -182 -137.5 -295.5t-384.5 -113.5q-123 0 -226.5 35.5t-172 96t-106.5 140t-38 168.5z" />
    <glyph glyph-name="uni0406" unicode="&#x406;" horiz-adv-x="491" 
d="M164 0v1434h164v-1434h-164z" />
    <glyph glyph-name="uni0407" unicode="&#x407;" horiz-adv-x="491" 
d="M164 0v1434h164v-1434h-164zM338 1638v174h174v-174h-174zM-20 1638v174h174v-174h-174z" />
    <glyph glyph-name="uni0408" unicode="&#x408;" horiz-adv-x="788" 
d="M20 0v154h349q47 0 74.5 27.5t27.5 74.5v1178h164v-1198q0 -111 -62.5 -173.5t-183.5 -62.5h-369z" />
    <glyph glyph-name="uni0409" unicode="&#x409;" horiz-adv-x="2088" 
d="M20 -10v164h72q65 0 106 40t48 123l92 1117h850v-594h389q185 0 302.5 -118t117.5 -302t-117.5 -302t-302.5 -118h-553v1280h-532l-82 -963q-13 -169 -91 -248t-227 -79h-72zM1188 154h389q117 0 186.5 71.5t69.5 194.5t-69.5 194.5t-186.5 71.5h-389v-532z" />
    <glyph glyph-name="uni040A" unicode="&#x40a;" horiz-adv-x="2109" 
d="M164 0v1434h164v-615h716v615h164v-615h389q184 0 302 -115.5t118 -293.5t-118 -294t-302 -116h-553v666h-716v-666h-164zM1208 154h389q117 0 186.5 69.5t69.5 186.5t-69.5 186.5t-186.5 69.5h-389v-512z" />
    <glyph glyph-name="uni040B" unicode="&#x40b;" horiz-adv-x="1464" 
d="M379 0v1280h-379v154h922v-154h-379v-451q50 30 86.5 47t100.5 31.5t140 14.5q210 0 330.5 -122.5t120.5 -338.5v-461h-164v461q0 150 -76.5 228.5t-210.5 78.5q-101 0 -175.5 -21.5t-151.5 -70.5v-676h-164z" />
    <glyph glyph-name="uni040C" unicode="&#x40c;" horiz-adv-x="1177" 
d="M164 0v1434h164v-676l604 676h205l-635 -707l676 -727h-205l-645 696v-696h-164zM553 1577l195 287h184l-236 -287h-143z" />
    <glyph glyph-name="uni040D" unicode="&#x40d;" horiz-adv-x="1454" 
d="M164 0v1434h164v-1239h41l645 1239h276v-1434h-164v1239h-41l-645 -1239h-276zM655 1577l-235 287h184l195 -287h-144z" />
    <glyph glyph-name="uni040E" unicode="&#x40e;" horiz-adv-x="1249" 
d="M205 0v154h194q48 0 72 15t41 56l41 92l-533 1117h175l419 -891h41l400 891h174l-584 -1291q-32 -68 -87 -105.5t-148 -37.5h-205zM348 1853h133q7 -68 49 -105.5t105 -37.5t104.5 37.5t48.5 105.5h134q-7 -116 -87.5 -186t-199.5 -70t-199.5 70t-87.5 186z" />
    <glyph glyph-name="uni040F" unicode="&#x40f;" horiz-adv-x="1413" 
d="M164 0v1434h164v-1280h757v1280h164v-1434h-461v-287h-163v287h-461z" />
    <glyph glyph-name="uni0410" unicode="&#x410;" horiz-adv-x="1331" 
d="M0 0l543 1434h245l543 -1434h-174l-133 369h-717l-133 -369h-174zM369 522h594l-277 738h-41z" />
    <glyph glyph-name="uni0411" unicode="&#x411;" horiz-adv-x="1300" 
d="M164 0v1434h962v-154h-798v-461h481q165 0 277 -114t112 -295t-112 -295.5t-277 -114.5h-645zM328 154h481q100 0 162.5 70t62.5 186t-62.5 186t-162.5 70h-481v-512z" />
    <glyph glyph-name="uni0412" unicode="&#x412;" horiz-adv-x="1310" 
d="M164 0v1434h614q162 0 275.5 -116.5t113.5 -283.5q0 -136 -77 -233q-34 -43 -76 -74v-10q48 -26 86 -70q88 -100 88 -248q0 -168 -113.5 -283.5t-275.5 -115.5h-635zM328 788h450q92 0 159 71t67 175t-67 175t-159 71h-450v-492zM328 154h471q92 0 158.5 70.5t66.5 174.5
t-66.5 175t-158.5 71h-471v-491z" />
    <glyph glyph-name="uni0413" unicode="&#x413;" horiz-adv-x="1105" 
d="M164 0v1434h901v-154h-737v-1280h-164z" />
    <glyph glyph-name="uni0414" unicode="&#x414;" horiz-adv-x="1392" 
d="M0 -287v441h31q149 0 164 163l92 1117h891v-1280h153v-441h-164v287h-1003v-287h-164zM297 154h717v1126h-574l-82 -963q-7 -83 -34 -131q-14 -24 -27 -32z" />
    <glyph glyph-name="uni0415" unicode="&#x415;" horiz-adv-x="1198" 
d="M164 0v1434h921v-154h-757v-481h716v-154h-716v-491h757v-154h-921z" />
    <glyph glyph-name="uni0416" unicode="&#x416;" horiz-adv-x="1638" 
d="M0 0l563 727l-522 707h195l501 -676v676h164v-676l502 676h194l-522 -707l563 -727h-194l-543 707v-707h-164v707l-542 -707h-195z" />
    <glyph glyph-name="uni0417" unicode="&#x417;" horiz-adv-x="1218" 
d="M72 389h164q0 -107 94 -181.5t264 -74.5q161 0 259.5 75.5t98.5 180.5q0 103 -86.5 179.5t-220.5 76.5h-143v154h143q121 0 199 71.5t78 173.5q0 110 -89 183t-239 73q-148 0 -238 -75.5t-90 -180.5h-164q0 173 135 291.5t357 118.5q111 0 205 -34t155.5 -90.5t96 -130.5
t34.5 -155q0 -151 -112 -251q-56 -47 -113 -66v-10q71 -24 127 -68q129 -100 129 -260q0 -173 -141.5 -291t-380.5 -118t-380.5 118t-141.5 291z" />
    <glyph glyph-name="uni0418" unicode="&#x418;" horiz-adv-x="1454" 
d="M164 0v1434h164v-1239h41l645 1239h276v-1434h-164v1239h-41l-645 -1239h-276z" />
    <glyph glyph-name="uni0419" unicode="&#x419;" horiz-adv-x="1454" 
d="M164 0v1434h164v-1239h41l645 1239h276v-1434h-164v1239h-41l-645 -1239h-276zM440 1853h133q7 -68 49 -105.5t105 -37.5t105 37.5t49 105.5h133q-7 -116 -87.5 -186t-199.5 -70t-199.5 70t-87.5 186z" />
    <glyph glyph-name="uni041A" unicode="&#x41a;" horiz-adv-x="1177" 
d="M164 0v1434h164v-676l604 676h205l-635 -707l676 -727h-205l-645 696v-696h-164z" />
    <glyph glyph-name="uni041B" unicode="&#x41b;" horiz-adv-x="1392" 
d="M20 -10v164h72q65 0 106 40t48 123l92 1117h891v-1434h-164v1280h-573l-82 -963q-13 -169 -91 -248t-227 -79h-72z" />
    <glyph glyph-name="uni041C" unicode="&#x41c;" horiz-adv-x="1843" 
d="M164 0v1434h297l440 -1250h41l440 1250h297v-1434h-163v1219h-41l-431 -1219h-245l-430 1219h-41v-1219h-164z" />
    <glyph glyph-name="uni041D" unicode="&#x41d;" horiz-adv-x="1454" 
d="M164 0v1434h164v-635h798v635h164v-1434h-164v645h-798v-645h-164z" />
    <glyph glyph-name="uni041E" unicode="&#x41e;" horiz-adv-x="1576" 
d="M788 -20q-140 0 -266 54t-218.5 149t-147 234t-54.5 300t54.5 300t147 234t218.5 149t266 54t266 -54t219 -149t147.5 -234t54.5 -300t-54.5 -300t-147.5 -234t-219 -149t-266 -54zM788 133q107 0 202.5 42.5t166.5 117.5t112.5 185.5t41.5 238.5t-41.5 238t-112.5 185
t-166.5 117.5t-202.5 42.5q-143 0 -262 -72t-189.5 -206t-70.5 -305q0 -128 41.5 -238.5t112 -185.5t166 -117.5t202.5 -42.5z" />
    <glyph glyph-name="uni041F" unicode="&#x41f;" horiz-adv-x="1454" 
d="M164 0v1434h1126v-1434h-164v1280h-798v-1280h-164z" />
    <glyph glyph-name="uni0420" unicode="&#x420;" horiz-adv-x="1300" 
d="M164 0v1434h624q170 0 290 -126t120 -315t-120 -314.5t-290 -125.5h-460v-553h-164zM328 707h460q103 0 174.5 79.5t71.5 206.5t-71.5 207t-174.5 80h-460v-573z" />
    <glyph glyph-name="uni0421" unicode="&#x421;" horiz-adv-x="1495" 
d="M1249 471h174q-61 -228 -232.5 -359.5t-402.5 -131.5q-140 0 -266 54t-218.5 149t-147 234t-54.5 300t54.5 300t147 234t218.5 149t266 54q230 0 402 -130t233 -351h-174q-54 153 -176.5 240t-284.5 87q-143 0 -262 -72t-189.5 -206t-70.5 -305q0 -128 41.5 -238.5
t112 -185.5t166 -117.5t202.5 -42.5q162 0 284.5 89t176.5 249z" />
    <glyph glyph-name="uni0422" unicode="&#x422;" horiz-adv-x="1208" 
d="M522 0v1280h-471v154h1106v-154h-471v-1280h-164z" />
    <glyph glyph-name="uni0423" unicode="&#x423;" horiz-adv-x="1249" 
d="M205 0v154h194q48 0 72 15t41 56l41 92l-533 1117h175l419 -891h41l400 891h174l-584 -1291q-32 -68 -87 -105.5t-148 -37.5h-205z" />
    <glyph glyph-name="uni0424" unicode="&#x424;" horiz-adv-x="1638" 
d="M737 -41v225h-30q-285 0 -455 155.5t-170 397.5t170 397.5t455 155.5h30v185h164v-185h31q285 0 454.5 -155.5t169.5 -397.5t-169.5 -397.5t-454.5 -155.5h-31v-225h-164zM901 328h31q212 0 336.5 114.5t124.5 294.5t-125 295t-336 115h-31v-819zM707 328h30v819h-30
q-211 0 -336 -115t-125 -295t124.5 -294.5t336.5 -114.5z" />
    <glyph glyph-name="uni0425" unicode="&#x425;" horiz-adv-x="1269" 
d="M20 0l502 737l-471 697h185l378 -564h41l379 564h185l-471 -697l501 -737h-184l-410 604h-41l-409 -604h-185z" />
    <glyph glyph-name="uni0426" unicode="&#x426;" horiz-adv-x="1464" 
d="M164 0v1434h164v-1280h757v1280h164v-1280h154v-441h-164v287h-1075z" />
    <glyph glyph-name="uni0427" unicode="&#x427;" horiz-adv-x="1361" 
d="M1034 0v614q-49 -40 -110 -67q-144 -66 -289 -66q-257 0 -379.5 125t-122.5 387v441h164v-441q0 -185 83 -271.5t255 -86.5q169 0 295 72q55 28 104 71v656h164v-1434h-164z" />
    <glyph glyph-name="uni0428" unicode="&#x428;" horiz-adv-x="1945" 
d="M164 0v1434h164v-1280h563v1280h164v-1280h563v1280h164v-1434h-1618z" />
    <glyph glyph-name="uni0429" unicode="&#x429;" horiz-adv-x="1996" 
d="M164 0v1434h164v-1280h563v1280h164v-1280h563v1280h164v-1280h153v-441h-163v287h-1608z" />
    <glyph glyph-name="uni042A" unicode="&#x42a;" horiz-adv-x="1423" 
d="M338 0v1280h-318v154h482v-533h409q177 0 298.5 -130t121.5 -320t-121.5 -320.5t-298.5 -130.5h-573zM502 154h409q108 0 182 84t74 213t-74 213t-182 84h-409v-594z" />
    <glyph glyph-name="uni042B" unicode="&#x42b;" horiz-adv-x="1628" 
d="M1300 0v1434h164v-1434h-164zM164 0v1434h164v-533h389q177 0 298.5 -130t121.5 -320t-121.5 -320.5t-298.5 -130.5h-553zM328 154h389q108 0 182 84t74 213t-74 213t-182 84h-389v-594z" />
    <glyph glyph-name="uni042C" unicode="&#x42c;" horiz-adv-x="1269" 
d="M164 0v1434h164v-533h430q177 0 298.5 -130t121.5 -320t-121.5 -320.5t-298.5 -130.5h-594zM328 154h430q108 0 182 84t74 213t-74 213t-182 84h-430v-594z" />
    <glyph glyph-name="uni042D" unicode="&#x42d;" horiz-adv-x="1495" 
d="M72 461h174q54 -154 177 -241t284 -87q203 0 349 143t163 369h-697v154h697q-17 220 -163 360.5t-349 140.5q-161 0 -284 -84.5t-177 -232.5h-174q61 213 236 342t399 129q140 0 266 -54t218.5 -149t147 -234t54.5 -300t-54.5 -300t-147 -234t-218.5 -149t-266 -54
q-231 0 -406.5 131t-228.5 350z" />
    <glyph glyph-name="uni042E" unicode="&#x42e;" horiz-adv-x="1955" 
d="M164 0v1434h164v-635h225q29 296 209.5 475.5t435.5 179.5q133 0 251.5 -54t205.5 -149t137.5 -233.5t50.5 -300.5t-50.5 -300.5t-137.5 -233.5t-205.5 -149t-251.5 -54q-258 0 -439 184.5t-206 480.5h-225v-645h-164zM1198 133q205 0 343 161t138 423t-138 422.5
t-343 160.5t-343 -160.5t-138 -422.5t138 -423t343 -161z" />
    <glyph glyph-name="uni042F" unicode="&#x42f;" horiz-adv-x="1310" 
d="M82 0l553 553h-113q-170 0 -289.5 125.5t-119.5 314.5t119.5 315t289.5 126h625v-1434h-164v553h-143l-553 -553h-205zM522 707h461v573h-461q-103 0 -174.5 -80t-71.5 -207t71.5 -206.5t174.5 -79.5z" />
    <glyph glyph-name="uni0430" unicode="&#x430;" horiz-adv-x="1085" 
d="M809 0l-21 123h-10q-29 -44 -73 -72q-93 -71 -244 -71q-160 0 -259.5 88.5t-99.5 228.5q0 154 101 241t309 87h276v30q0 117 -64 181.5t-181 64.5q-112 0 -180 -50.5t-76 -123.5h-154q8 131 117.5 224t292.5 93q187 0 293 -102t106 -287v-655h-133zM788 440v41h-276
q-131 0 -193.5 -51t-62.5 -133q0 -80 53.5 -127t151.5 -47q153 0 240 84.5t87 232.5z" />
    <glyph glyph-name="uni0431" unicode="&#x431;" horiz-adv-x="1136" 
d="M92 512v61q0 269 64.5 426t222.5 250q43 25 92 41.5t81.5 22.5t98 14.5t97.5 13.5q112 15 112 144h133q0 -120 -56.5 -189.5t-158.5 -87.5q-30 -5 -90 -14t-87.5 -14t-70 -19t-79.5 -35q-174 -106 -205 -338h10q123 164 338 164q194 0 327.5 -137t133.5 -344
q0 -215 -136 -353t-346 -138q-212 0 -346.5 144.5t-134.5 387.5zM573 123q140 0 234 98t94 250t-94 250t-234 98t-233.5 -98t-93.5 -250t93.5 -250t233.5 -98z" />
    <glyph glyph-name="uni0432" unicode="&#x432;" horiz-adv-x="1064" 
d="M143 0v1024h533q130 0 208.5 -78t78.5 -209q0 -96 -62 -166q-29 -32 -61 -49v-10q30 -11 71 -47q72 -72 72 -174q0 -127 -81.5 -209t-205.5 -82h-553zM297 133h379q63 0 108 44t45 114q0 71 -44.5 115.5t-108.5 44.5h-379v-318zM297 584h358q63 0 108.5 43t45.5 110
t-45.5 110.5t-108.5 43.5h-358v-307z" />
    <glyph glyph-name="uni0433" unicode="&#x433;" horiz-adv-x="839" 
d="M143 0v1024h656v-143h-502v-881h-154z" />
    <glyph glyph-name="uni0434" unicode="&#x434;" horiz-adv-x="1095" 
d="M0 -246v389h20q70 0 104 33.5t40 110.5l61 737h686v-881h144v-389h-154v246h-747v-246h-154zM266 143h492v738h-389l-52 -594q-9 -83 -28 -115q-7 -17 -23 -29z" />
    <glyph glyph-name="uni0435" unicode="&#x435;" horiz-adv-x="1126" 
d="M850 287h164q-54 -148 -167 -227.5t-274 -79.5q-103 0 -193 39t-156 108t-104 168.5t-38 216.5t38 216.5t104 168.5t156 108t193 39q202 0 336.5 -138.5t134.5 -352.5q0 -34 -6 -88l-4 -25h-798q17 -144 111.5 -230.5t225.5 -86.5q93 0 166 43t111 121zM236 584h655
q-7 139 -97 228t-221 89q-138 0 -228.5 -87.5t-108.5 -229.5z" />
    <glyph glyph-name="uni0436" unicode="&#x436;" horiz-adv-x="1320" 
d="M0 0l420 522l-389 502h184l369 -481v481h153v-481l369 481h184l-389 -502l420 -522h-184l-400 502v-502h-153v502l-400 -502h-184z" />
    <glyph glyph-name="uni0437" unicode="&#x437;" horiz-adv-x="942" 
d="M61 317h154q0 -81 66.5 -137.5t179.5 -56.5q124 0 185 45t61 119q0 72 -61.5 118t-174.5 46h-92v133h92q105 0 160 45.5t55 118.5q0 66 -57 109.5t-168 43.5q-106 0 -165.5 -51.5t-59.5 -132.5h-154q0 139 106.5 233t272.5 94q178 0 278.5 -84.5t100.5 -214.5
q0 -106 -82 -176q-43 -34 -82 -47v-10q76 -19 130 -79t54 -148q0 -133 -106 -219t-293 -86q-180 0 -290 97t-110 240z" />
    <glyph glyph-name="uni0438" unicode="&#x438;" horiz-adv-x="1136" 
d="M143 0v1024h154v-840h41l389 840h266v-1024h-153v840h-41l-389 -840h-267z" />
    <glyph glyph-name="uni0439" unicode="&#x439;" horiz-adv-x="1136" 
d="M143 0v1024h154v-840h41l389 840h266v-1024h-153v840h-41l-389 -840h-267zM287 1454h133q7 -68 48.5 -105.5t104.5 -37.5t105 37.5t49 105.5h133q-7 -116 -87.5 -186t-199.5 -70q-118 0 -198.5 70t-87.5 186z" />
    <glyph glyph-name="uni043A" unicode="&#x43a;" horiz-adv-x="972" 
d="M143 0v1024h154v-471l461 471h194l-491 -502l512 -522h-195l-481 492v-492h-154z" />
    <glyph glyph-name="uni043B" unicode="&#x43b;" horiz-adv-x="1105" 
d="M20 -10v153h62q122 0 133 144l61 737h687v-1024h-154v881h-389l-51 -594q-13 -152 -84 -224.5t-203 -72.5h-62z" />
    <glyph glyph-name="uni043C" unicode="&#x43c;" horiz-adv-x="1454" 
d="M143 0v1024h287l277 -850h41l276 850h287v-1024h-154v840h-41l-276 -840h-226l-276 840h-41v-840h-154z" />
    <glyph glyph-name="uni043D" unicode="&#x43d;" horiz-adv-x="1136" 
d="M143 0v1024h154v-440h543v440h153v-1024h-153v440h-543v-440h-154z" />
    <glyph glyph-name="uni043E" unicode="&#x43e;" 
d="M573 -20q-103 0 -193 39t-156 108t-104 168.5t-38 216.5t38 216.5t104 168.5t156 108t193 39q137 0 249 -66t177.5 -188.5t65.5 -277.5t-65.5 -277.5t-177.5 -188.5t-249 -66zM573 123q143 0 240.5 108t97.5 281t-97.5 281t-240.5 108t-240 -108t-97 -281t97 -281
t240 -108z" />
    <glyph glyph-name="uni043F" unicode="&#x43f;" horiz-adv-x="1136" 
d="M143 0v1024h850v-1024h-153v881h-543v-881h-154z" />
    <glyph glyph-name="uni0440" unicode="&#x440;" horiz-adv-x="1187" 
d="M143 -410v1434h133l21 -143h10q129 163 328 163q203 0 337 -148.5t134 -383.5t-134 -383.5t-337 -148.5q-199 0 -328 163h-10v-553h-154zM625 123q135 0 231 108.5t96 280.5t-96 280.5t-231 108.5t-231.5 -108.5t-96.5 -280.5t96.5 -280.5t231.5 -108.5z" />
    <glyph glyph-name="uni0441" unicode="&#x441;" horiz-adv-x="1095" 
d="M870 338h154q-38 -169 -158.5 -263.5t-292.5 -94.5q-103 0 -193 39t-156 108t-104 168.5t-38 216.5t38 216.5t104 168.5t156 108t193 39q170 0 291.5 -93.5t159.5 -254.5h-154q-30 99 -108.5 152t-188.5 53q-143 0 -240 -108t-97 -281t97 -281t240 -108q111 0 189 54.5
t108 160.5z" />
    <glyph glyph-name="uni0442" unicode="&#x442;" horiz-adv-x="911" 
d="M379 0v881h-348v143h850v-143h-349v-881h-153z" />
    <glyph glyph-name="uni0443" unicode="&#x443;" horiz-adv-x="1013" 
d="M133 -410v144h195q51 0 71 61l41 123l-420 1106h164l318 -850h41l286 850h164l-461 -1290q-26 -76 -68.5 -110t-125.5 -34h-205z" />
    <glyph glyph-name="uni0444" unicode="&#x444;" horiz-adv-x="1423" 
d="M635 -410v410h-31q-237 0 -379.5 141t-142.5 371t142.5 371t379.5 141h31v410h153v-410h31q237 0 379.5 -141t142.5 -371t-142.5 -371t-379.5 -141h-31v-410h-153zM604 143h31v738h-31q-176 0 -272 -98.5t-96 -270.5t96 -270.5t272 -98.5zM788 143h31q177 0 273 98.5
t96 270.5t-96 270.5t-273 98.5h-31v-738z" />
    <glyph glyph-name="uni0445" unicode="&#x445;" horiz-adv-x="983" 
d="M20 0l349 522l-338 502h184l256 -389h41l256 389h184l-338 -502l349 -522h-185l-266 410h-41l-266 -410h-185z" />
    <glyph glyph-name="uni0446" unicode="&#x446;" horiz-adv-x="1157" 
d="M143 0v1024h154v-881h522v881h154v-881h143v-389h-153v246h-820z" />
    <glyph glyph-name="uni0447" unicode="&#x447;" horiz-adv-x="1075" 
d="M778 0v399q-66 -45 -136 -63.5t-161 -18.5q-368 0 -368 390v317h153v-317q0 -246 236 -246q85 0 149 22t127 70v471h154v-1024h-154z" />
    <glyph glyph-name="uni0448" unicode="&#x448;" horiz-adv-x="1587" 
d="M143 0v1024h154v-881h420v881h153v-881h420v881h154v-1024h-1301z" />
    <glyph glyph-name="uni0449" unicode="&#x449;" horiz-adv-x="1628" 
d="M143 0v1024h154v-881h420v881h153v-881h420v881h154v-881h143v-389h-153v246h-1291z" />
    <glyph glyph-name="uni044A" unicode="&#x44a;" 
d="M276 0v881h-256v143h410v-348h307q153 0 250.5 -95.5t97.5 -242.5t-97.5 -242.5t-250.5 -95.5h-461zM430 143h307q86 0 140.5 54.5t54.5 140.5t-54.5 140t-140.5 54h-307v-389z" />
    <glyph glyph-name="uni044B" unicode="&#x44b;" horiz-adv-x="1372" 
d="M1075 0v1024h154v-1024h-154zM143 0v1024h154v-348h276q153 0 251 -95.5t98 -242.5t-98 -242.5t-251 -95.5h-430zM297 143h276q86 0 140.5 54.5t54.5 140.5t-54.5 140t-140.5 54h-276v-389z" />
    <glyph glyph-name="uni044C" unicode="&#x44c;" horiz-adv-x="1024" 
d="M143 0v1024h154v-348h317q153 0 251 -95.5t98 -242.5t-98 -242.5t-251 -95.5h-471zM297 143h317q86 0 140.5 54.5t54.5 140.5t-54.5 140t-140.5 54h-317v-389z" />
    <glyph glyph-name="uni044D" unicode="&#x44d;" horiz-adv-x="1085" 
d="M61 328h154q30 -97 112 -151t185 -54q134 0 227.5 86t110.5 231h-461v144h461q-17 145 -110.5 231t-227.5 86q-102 0 -184.5 -52t-112.5 -142h-154q38 154 159.5 245.5t291.5 91.5q137 0 249 -66t177.5 -188.5t65.5 -277.5t-65.5 -277.5t-177.5 -188.5t-249 -66
q-170 0 -291.5 93.5t-159.5 254.5z" />
    <glyph glyph-name="uni044E" unicode="&#x44e;" horiz-adv-x="1474" 
d="M143 0v1024h154v-440h154q25 208 154.5 334t316.5 126q203 0 337 -148.5t134 -383.5t-134 -383.5t-337 -148.5q-187 0 -316.5 126t-154.5 334h-154v-440h-154zM922 123q133 0 225 108t92 281t-92 281t-225 108t-225.5 -108t-92.5 -281t92.5 -281t225.5 -108z" />
    <glyph glyph-name="uni044F" unicode="&#x44f;" horiz-adv-x="1044" 
d="M61 0l369 369h-10q-148 0 -243 90.5t-95 236.5t95 237t243 91h481v-1024h-153v369h-123l-369 -369h-195zM420 512h328v369h-328q-80 0 -132 -50.5t-52 -134.5t52 -134t132 -50z" />
    <glyph glyph-name="uni0450" unicode="&#x450;" horiz-adv-x="1126" 
d="M850 287h164q-54 -148 -167 -227.5t-274 -79.5q-103 0 -193 39t-156 108t-104 168.5t-38 216.5t38 216.5t104 168.5t156 108t193 39q202 0 336.5 -138.5t134.5 -352.5q0 -34 -6 -88l-4 -25h-798q17 -144 111.5 -230.5t225.5 -86.5q93 0 166 43t111 121zM236 584h655
q-7 139 -97 228t-221 89q-138 0 -228.5 -87.5t-108.5 -229.5zM492 1188l-236 287h184l195 -287h-143z" />
    <glyph glyph-name="uni0451" unicode="&#x451;" horiz-adv-x="1126" 
d="M850 287h164q-54 -148 -167 -227.5t-274 -79.5q-103 0 -193 39t-156 108t-104 168.5t-38 216.5t38 216.5t104 168.5t156 108t193 39q202 0 336.5 -138.5t134.5 -352.5q0 -34 -6 -88l-4 -25h-798q17 -144 111.5 -230.5t225.5 -86.5q93 0 166 43t111 121zM236 584h655
q-7 139 -97 228t-221 89q-138 0 -228.5 -87.5t-108.5 -229.5zM655 1239v174h174v-174h-174zM297 1239v174h174v-174h-174z" />
    <glyph glyph-name="uni0452" unicode="&#x452;" horiz-adv-x="1198" 
d="M174 0v1126h-174v144h174v164h154v-164h327v-144h-327v-317h10q31 39 76 65q105 68 231 68q178 0 294 -119.5t116 -310.5v-594q0 -154 -88.5 -241t-249.5 -87h-103v144h103q184 0 184 184v594q0 122 -80 204.5t-196 82.5q-122 0 -209.5 -85.5t-87.5 -201.5v-512h-154z
" />
    <glyph glyph-name="uni0453" unicode="&#x453;" horiz-adv-x="839" 
d="M143 0v1024h656v-143h-502v-881h-154zM399 1188l195 287h184l-235 -287h-144z" />
    <glyph glyph-name="uni0454" unicode="&#x454;" horiz-adv-x="1085" 
d="M236 584h460v-144h-460q17 -145 110.5 -231t226.5 -86q103 0 185 54t112 151h154q-38 -161 -159.5 -254.5t-291.5 -93.5q-103 0 -193 39t-156 108t-104 168.5t-38 216.5t38 216.5t104 168.5t156 108t193 39q170 0 291.5 -91.5t159.5 -245.5h-154q-30 90 -112.5 142
t-184.5 52q-133 0 -226.5 -86t-110.5 -231z" />
    <glyph glyph-name="uni0455" unicode="&#x455;" horiz-adv-x="942" 
d="M61 297h154q0 -73 69 -123.5t187 -50.5t182 44t64 109q0 62 -41.5 99.5t-132.5 54.5l-174 31q-287 48 -287 287q0 129 98 212.5t281 83.5q178 0 288.5 -94t110.5 -223h-153q0 72 -66.5 123t-179.5 51q-111 0 -168 -43.5t-57 -109.5q0 -57 37 -92t126 -52l174 -31
q153 -29 225 -101.5t72 -195.5q0 -130 -103 -213t-296 -83q-185 0 -297.5 94t-112.5 223z" />
    <glyph glyph-name="uni0456" unicode="&#x456;" horiz-adv-x="460" 
d="M154 0v1024h153v-1024h-153zM143 1239v174h174v-174h-174z" />
    <glyph glyph-name="uni0457" unicode="&#x457;" horiz-adv-x="460" 
d="M154 0v1024h153v-1024h-153zM317 1239v174h175v-174h-175zM-41 1239v174h174v-174h-174z" />
    <glyph glyph-name="uni0458" unicode="&#x458;" horiz-adv-x="460" 
d="M143 1239v174h174v-174h-174zM-61 -410v144h153q62 0 62 61v1229h153v-1260q0 -79 -49.5 -126.5t-134.5 -47.5h-184z" />
    <glyph glyph-name="uni0459" unicode="&#x459;" horiz-adv-x="1597" 
d="M20 -10v153h62q122 0 133 144l61 737h666v-410h277q140 0 228.5 -85t88.5 -222t-88.5 -222t-228.5 -85h-431v881h-368l-51 -594q-13 -152 -84 -224.5t-203 -72.5h-62zM942 143h277q71 0 117 44t46 120t-46 120t-117 44h-277v-328z" />
    <glyph glyph-name="uni045A" unicode="&#x45a;" horiz-adv-x="1607" 
d="M143 0v1024h154v-410h502v410h153v-410h277q140 0 228.5 -85t88.5 -222t-88.5 -222t-228.5 -85h-430v471h-502v-471h-154zM952 143h277q71 0 117.5 44t46.5 120t-46.5 120t-117.5 44h-277v-328z" />
    <glyph glyph-name="uni045B" unicode="&#x45b;" horiz-adv-x="1198" 
d="M174 0v1126h-174v144h174v164h154v-164h327v-144h-327v-317h10q31 39 76 65q105 68 231 68q178 0 294 -119.5t116 -310.5v-512h-154v512q0 122 -80 204.5t-196 82.5q-122 0 -209.5 -85.5t-87.5 -201.5v-512h-154z" />
    <glyph glyph-name="uni045C" unicode="&#x45c;" horiz-adv-x="972" 
d="M143 0v1024h154v-471l461 471h194l-491 -502l512 -522h-195l-481 492v-492h-154zM440 1188l195 287h184l-235 -287h-144z" />
    <glyph glyph-name="uni045D" unicode="&#x45d;" horiz-adv-x="1136" 
d="M143 0v1024h154v-840h41l389 840h266v-1024h-153v840h-41l-389 -840h-267zM492 1188l-236 287h184l195 -287h-143z" />
    <glyph glyph-name="uni045E" unicode="&#x45e;" horiz-adv-x="1013" 
d="M133 -410v144h195q51 0 71 61l41 123l-420 1106h164l318 -850h41l286 850h164l-461 -1290q-26 -76 -68.5 -110t-125.5 -34h-205zM225 1454h133q7 -68 49 -105.5t105 -37.5t105 37.5t49 105.5h133q-7 -116 -87.5 -186t-199.5 -70t-199.5 70t-87.5 186z" />
    <glyph glyph-name="uni045F" unicode="&#x45f;" horiz-adv-x="1116" 
d="M143 0v1024h154v-881h522v881h154v-1024h-338v-246h-154v246h-338z" />
    <glyph glyph-name="uni0462" unicode="&#x462;" horiz-adv-x="1392" 
d="M307 0v1096h-307v153h307v185h164v-185h389v-153h-389v-256h420q176 0 292.5 -121t116.5 -299t-116.5 -299t-292.5 -121h-584zM471 154h420q109 0 177.5 74.5t68.5 191.5q0 116 -70 191t-176 75h-420v-532z" />
    <glyph glyph-name="uni0463" unicode="&#x463;" horiz-adv-x="1105" 
d="M236 0v881h-236v143h236v410h153v-410h297v-143h-297v-205h307q153 0 250.5 -95.5t97.5 -242.5t-97.5 -242.5t-250.5 -95.5h-460zM389 143h307q86 0 140.5 54.5t54.5 140.5t-54.5 140t-140.5 54h-307v-389z" />
    <glyph glyph-name="uni046A" unicode="&#x46a;" horiz-adv-x="1597" 
d="M92 0v123q0 286 143 467t379 219l-481 471v154h1331v-154l-481 -471q234 -38 378 -220t144 -466v-123h-164v123q0 255 -127.5 399t-332.5 144v-666h-164v666q-205 0 -333 -144t-128 -399v-123h-164zM338 1280l461 -451l461 451h-922z" />
    <glyph glyph-name="uni046B" unicode="&#x46b;" horiz-adv-x="1259" 
d="M215 0h-154q0 231 109.5 380.5t286.5 182.5l-324 318v143h993v-143l-323 -318q175 -33 285 -183t110 -380h-154q0 200 -96 315t-241 115v-430h-154v430q-145 0 -241.5 -115t-96.5 -315zM625 573h10l307 308h-625z" />
    <glyph glyph-name="uni0472" unicode="&#x472;" horiz-adv-x="1576" 
d="M788 -20q-140 0 -266 54t-218.5 149t-147 234t-54.5 300t54.5 300t147 234t218.5 149t266 54t266 -54t219 -149t147.5 -234t54.5 -300t-54.5 -300t-147.5 -234t-219 -149t-266 -54zM270 797q93 43 232 43q105 0 293.5 -46t279.5 -46q134 0 232 43q-24 230 -169.5 369.5
t-349.5 139.5q-131 0 -242.5 -62t-185.5 -177.5t-90 -263.5zM270 643q25 -227 170 -368.5t348 -141.5q201 0 348 140t171 364q-93 -43 -232 -43q-106 0 -294.5 46t-278.5 46q-139 0 -232 -43z" />
    <glyph glyph-name="uni0473" unicode="&#x473;" 
d="M573 -20q-103 0 -193 39t-156 108t-104 168.5t-38 216.5t38 216.5t104 168.5t156 108t193 39q137 0 249 -66t177.5 -188.5t65.5 -277.5t-65.5 -277.5t-177.5 -188.5t-249 -66zM240 436q20 -142 113.5 -227.5t219.5 -85.5q129 0 221.5 87.5t112.5 235.5q-61 -26 -159 -26
q-62 0 -174.5 20.5t-174.5 20.5q-77 0 -159 -25zM240 578q61 26 159 26q62 0 174.5 -20.5t174.5 -20.5q82 0 159 25q-20 142 -114.5 227.5t-219.5 85.5q-129 0 -222.5 -88t-110.5 -235z" />
    <glyph glyph-name="uni0474" unicode="&#x474;" horiz-adv-x="1392" 
d="M543 0l-523 1434h175l450 -1260h41l348 973q56 154 122 220.5t165 66.5q41 0 70 -11l22 -10v-153l-20 10q-23 10 -52 10q-46 0 -77 -31.5t-56 -101.5l-420 -1147h-245z" />
    <glyph glyph-name="uni0475" unicode="&#x475;" horiz-adv-x="1064" 
d="M389 0l-369 1024h164l308 -860h40l226 624q45 124 102.5 180t143.5 56q40 0 63 -10q12 -8 18 -10v-138l-16 6q-15 9 -45 9q-37 0 -60.5 -23t-41.5 -70l-287 -788h-246z" />
    <glyph glyph-name="uni048A" unicode="&#x48a;" horiz-adv-x="1495" 
d="M164 0v1434h164v-1239h41l645 1239h276v-1280h205v-21l-143 -420h-123l51 287h-154v1239h-41l-645 -1239h-276zM440 1853h133q7 -68 49 -105.5t105 -37.5t105 37.5t49 105.5h133q-7 -116 -87.5 -186t-199.5 -70t-199.5 70t-87.5 186z" />
    <glyph glyph-name="uni048B" unicode="&#x48b;" horiz-adv-x="1177" 
d="M143 0v1024h154v-840h41l389 840h266v-881h185v-20l-123 -369h-113l41 246h-143v840h-41l-389 -840h-267zM287 1454h133q7 -68 48.5 -105.5t104.5 -37.5t105 37.5t49 105.5h133q-7 -116 -87.5 -186t-199.5 -70q-118 0 -198.5 70t-87.5 186z" />
    <glyph glyph-name="uni048C" unicode="&#x48c;" horiz-adv-x="1392" 
d="M307 0v1096h-307v153h307v185h164v-185h389v-153h-389v-256h420q176 0 292.5 -121t116.5 -299t-116.5 -299t-292.5 -121h-584zM471 154h420q109 0 177.5 74.5t68.5 191.5q0 116 -70 191t-176 75h-420v-532z" />
    <glyph glyph-name="uni048D" unicode="&#x48d;" horiz-adv-x="1105" 
d="M236 0v881h-236v143h236v410h153v-410h297v-143h-297v-205h307q153 0 250.5 -95.5t97.5 -242.5t-97.5 -242.5t-250.5 -95.5h-460zM389 143h307q86 0 140.5 54.5t54.5 140.5t-54.5 140t-140.5 54h-307v-389z" />
    <glyph glyph-name="uni048E" unicode="&#x48e;" horiz-adv-x="1300" 
d="M164 0v1434h624q170 0 290 -126t120 -315q0 -108 -41 -198.5t-115 -151.5l95 -131l-123 -82l-101 143q-56 -20 -125 -20h-460v-553h-164zM328 707h460q19 0 29 2l-100 141l123 82l110 -158q84 81 84 219q0 127 -71.5 207t-174.5 80h-460v-573z" />
    <glyph glyph-name="uni048F" unicode="&#x48f;" horiz-adv-x="1187" 
d="M143 -410v1434h133l21 -143h10q129 163 328 163q203 0 337 -148.5t134 -383.5q0 -244 -139 -389l108 -154l-112 -71l-101 141q-103 -59 -227 -59q-199 0 -328 163h-10v-553h-154zM774 164l-108 153l112 72l96 -135q78 110 78 258q0 172 -96 280.5t-231 108.5
t-231.5 -108.5t-96.5 -280.5t96.5 -280.5t231.5 -108.5q78 0 149 41z" />
    <glyph glyph-name="uni0490" unicode="&#x490;" horiz-adv-x="1105" 
d="M164 0v1434h747v286h154v-440h-737v-1280h-164z" />
    <glyph glyph-name="uni0491" unicode="&#x491;" horiz-adv-x="870" 
d="M143 0v1024h543v246h143v-389h-532v-881h-154z" />
    <glyph glyph-name="uni0492" unicode="&#x492;" horiz-adv-x="1136" 
d="M215 0v645h-195v154h195v635h881v-154h-717v-481h399v-154h-399v-645h-164z" />
    <glyph glyph-name="uni0493" unicode="&#x493;" horiz-adv-x="870" 
d="M174 0v440h-154v144h154v440h655v-143h-501v-297h358v-144h-358v-440h-154z" />
    <glyph glyph-name="uni0494" unicode="&#x494;" horiz-adv-x="1259" 
d="M164 0v1434h901v-154h-737v-553q43 26 86 41q98 41 241 41q230 0 371 -142.5t141 -379.5q0 -238 -142 -380.5t-380 -142.5v154q162 0 260.5 100t98.5 269t-98.5 268.5t-260.5 99.5q-119 0 -231 -51q-37 -16 -86 -51v-553h-164z" />
    <glyph glyph-name="uni0495" unicode="&#x495;" horiz-adv-x="1024" 
d="M553 -410v144q121 8 188.5 95t67.5 253q0 159 -76 248.5t-201 89.5q-99 0 -172 -41q-27 -13 -63 -41v-338h-154v1024h656v-143h-502v-389q30 20 65 34q88 37 181 37q187 0 303.5 -131t116.5 -350q0 -225 -115 -358.5t-295 -133.5z" />
    <glyph glyph-name="uni0496" unicode="&#x496;" horiz-adv-x="1648" 
d="M0 0l563 727l-522 707h195l501 -676v676h164v-676l502 676h194l-522 -707l441 -573h133v-441h-164v287h-41l-543 707v-707h-164v707l-542 -707h-195z" />
    <glyph glyph-name="uni0497" unicode="&#x497;" horiz-adv-x="1331" 
d="M0 0l420 522l-389 502h184l369 -481v481h153v-481l369 481h184l-389 -502l307 -379h123v-389h-153v246h-41l-400 502v-502h-153v502l-400 -502h-184z" />
    <glyph glyph-name="uni0498" unicode="&#x498;" horiz-adv-x="1218" 
d="M512 -287v271q-204 20 -322 133t-118 272h164q0 -107 94 -181.5t264 -74.5q161 0 259.5 75.5t98.5 180.5q0 103 -86.5 179.5t-220.5 76.5h-143v154h143q121 0 199 71.5t78 173.5q0 110 -89 183t-239 73q-148 0 -238 -75.5t-90 -180.5h-164q0 173 135 291.5t357 118.5
q111 0 205 -34t155.5 -90.5t96 -130.5t34.5 -155q0 -151 -112 -251q-56 -47 -113 -66v-10q71 -24 127 -68q129 -100 129 -260q0 -159 -118.5 -272t-321.5 -133v-271h-164z" />
    <glyph glyph-name="uni0499" unicode="&#x499;" horiz-adv-x="942" 
d="M389 -246v230q-151 20 -239.5 113t-88.5 220h154q0 -81 66.5 -137.5t179.5 -56.5q124 0 185 45t61 119q0 72 -61.5 118t-174.5 46h-92v133h92q105 0 160 45.5t55 118.5q0 66 -57 109.5t-168 43.5q-106 0 -165.5 -51.5t-59.5 -132.5h-154q0 139 106.5 233t272.5 94
q178 0 278.5 -84.5t100.5 -214.5q0 -106 -82 -176q-43 -34 -82 -47v-10q76 -19 130 -79t54 -148q0 -119 -83 -200t-234 -99v-232h-154z" />
    <glyph glyph-name="uni049A" unicode="&#x49a;" horiz-adv-x="1167" 
d="M164 0v1434h164v-676l604 676h205l-635 -707l532 -573h133v-441h-163v287h-31l-645 696v-696h-164z" />
    <glyph glyph-name="uni049B" unicode="&#x49b;" horiz-adv-x="952" 
d="M143 0v1024h154v-471l461 471h194l-491 -502l368 -379h123v-389h-153v246h-21l-481 492v-492h-154z" />
    <glyph glyph-name="uni049C" unicode="&#x49c;" horiz-adv-x="1300" 
d="M164 0v1434h164v-635h102v245h154v-245h71l410 635h195l-472 -707l512 -727h-194l-451 645h-71v-246h-154v246h-102v-645h-164z" />
    <glyph glyph-name="uni049D" unicode="&#x49d;" horiz-adv-x="1044" 
d="M143 0v1024h154v-430h80v184h133v-184h53l277 430h184l-328 -502l348 -522h-184l-297 451h-53v-185h-133v185h-80v-451h-154z" />
    <glyph glyph-name="uni049E" unicode="&#x49e;" horiz-adv-x="1218" 
d="M205 0v1116h-205v154h205v164h164v-164h174v-154h-174v-358l604 676h205l-635 -707l676 -727h-205l-645 696v-696h-164z" />
    <glyph glyph-name="uni049F" unicode="&#x49f;" horiz-adv-x="1003" 
d="M174 0v1126h-174v144h174v164h154v-164h245v-144h-245v-573l460 471h195l-491 -502l512 -522h-195l-481 492v-492h-154z" />
    <glyph glyph-name="uni04A0" unicode="&#x4a0;" horiz-adv-x="1259" 
d="M246 0v1280h-246v154h410v-676l604 676h205l-635 -707l676 -727h-205l-645 696v-696h-164z" />
    <glyph glyph-name="uni04A1" unicode="&#x4a1;" horiz-adv-x="1044" 
d="M215 0v881h-215v143h369v-471l460 471h195l-492 -502l512 -522h-194l-481 492v-492h-154z" />
    <glyph glyph-name="uni04A2" unicode="&#x4a2;" horiz-adv-x="1505" 
d="M164 0v1434h164v-635h798v635h164v-1280h154v-441h-164v287h-154v645h-798v-645h-164z" />
    <glyph glyph-name="uni04A3" unicode="&#x4a3;" horiz-adv-x="1177" 
d="M143 0v1024h154v-440h543v440h153v-881h144v-389h-154v246h-143v440h-543v-440h-154z" />
    <glyph glyph-name="uni04A4" unicode="&#x4a4;" horiz-adv-x="1986" 
d="M164 0v1434h164v-635h757v635h861v-154h-697v-1280h-164v645h-757v-645h-164z" />
    <glyph glyph-name="uni04A5" unicode="&#x4a5;" horiz-adv-x="1474" 
d="M143 0v1024h154v-440h512v440h625v-143h-471v-881h-154v440h-512v-440h-154z" />
    <glyph glyph-name="uni04A6" unicode="&#x4a6;" horiz-adv-x="2109" 
d="M164 0v1434h1024v-707q43 26 86 41q98 41 242 41q230 0 371 -142.5t141 -379.5q0 -238 -142.5 -380.5t-380.5 -142.5v154q162 0 260.5 100t98.5 269t-98.5 268.5t-260.5 99.5q-119 0 -231 -51q-37 -16 -86 -51v-553h-164v1280h-696v-1280h-164z" />
    <glyph glyph-name="uni04A7" unicode="&#x4a7;" horiz-adv-x="1628" 
d="M143 0v1024h768v-532q28 19 66 34q88 37 180 37q187 0 303.5 -131t116.5 -350q0 -225 -115 -358.5t-295 -133.5v144q121 8 188.5 95t67.5 253q0 159 -75.5 248.5t-200.5 89.5q-99 0 -172 -41q-29 -14 -64 -41v-338h-153v881h-461v-881h-154z" />
    <glyph glyph-name="uni04A8" unicode="&#x4a8;" horiz-adv-x="1617" 
d="M1423 133v-153q-197 0 -346 61q-140 -61 -309 -61q-137 0 -259.5 54t-212 149t-142 233.5t-52.5 300.5q0 161 52 300t140.5 234t206 149t247.5 54v-154q-94 0 -181.5 -42.5t-154 -117t-106.5 -185t-40 -238.5t41 -238.5t109.5 -185.5t160 -117.5t191.5 -42.5q62 0 123 12
q-134 103 -205.5 255t-71.5 337q0 264 127.5 419t323.5 155q90 0 171 -39.5t143.5 -111.5t99.5 -182t37 -241q0 -183 -68 -332.5t-193 -254.5q67 -17 168 -17zM1073 217q130 80 204.5 215t74.5 305q0 205 -82 312.5t-205 107.5t-205 -107.5t-82 -312.5q0 -172 77 -306.5
t218 -213.5z" />
    <glyph glyph-name="uni04A9" unicode="&#x4a9;" 
d="M1024 123v-143q-135 0 -246 51q-96 -51 -205 -51q-103 0 -193 39t-156 108t-104 168.5t-38 216.5q0 154 65 277t172 189t234 66v-143q-128 0 -222.5 -109t-94.5 -280q0 -173 97 -281t240 -108q38 0 62 8q-164 155 -164 401q0 178 84.5 278.5t212.5 100.5t212.5 -100.5
t84.5 -278.5q0 -232 -150 -395q46 -14 109 -14zM774 209q137 127 137 323q0 115 -42 175.5t-101 60.5t-101 -60.5t-42 -175.5q0 -203 149 -323z" />
    <glyph glyph-name="uni04AA" unicode="&#x4aa;" horiz-adv-x="1495" 
d="M707 -287v273q-127 15 -238 74t-192 152t-128 224t-47 281q0 161 54.5 300t147 234t218.5 149t266 54q230 0 402 -130t233 -351h-174q-54 153 -176.5 240t-284.5 87q-143 0 -262 -72t-189.5 -206t-70.5 -305q0 -128 41.5 -238.5t112 -185.5t166 -117.5t202.5 -42.5
q162 0 284.5 89t176.5 249h174q-57 -209 -203 -336.5t-350 -150.5v-271h-163z" />
    <glyph glyph-name="uni04AB" unicode="&#x4ab;" horiz-adv-x="1085" 
d="M502 -246v232q-183 25 -301.5 169t-118.5 357q0 117 38 216.5t104 168.5t156 108t193 39q170 0 291.5 -93.5t159.5 -254.5h-154q-30 99 -108.5 152t-188.5 53q-143 0 -240 -108t-97 -281t97 -281t240 -108q111 0 189 54.5t108 160.5h154q-35 -147 -131.5 -237.5
t-237.5 -114.5v-232h-153z" />
    <glyph glyph-name="uni04AC" unicode="&#x4ac;" horiz-adv-x="1208" 
d="M676 -287v287h-154v1280h-471v154h1106v-154h-471v-1126h154v-441h-164z" />
    <glyph glyph-name="uni04AD" unicode="&#x4ad;" horiz-adv-x="911" 
d="M522 -246v246h-143v881h-348v143h850v-143h-349v-738h144v-389h-154z" />
    <glyph glyph-name="uni04AE" unicode="&#x4ae;" horiz-adv-x="1208" 
d="M522 0v543l-522 891h174l410 -707h41l409 707h174l-522 -891v-543h-164z" />
    <glyph glyph-name="uni04AF" unicode="&#x4af;" horiz-adv-x="1013" 
d="M430 -410v410h-41l-369 1024h164l308 -850h30l307 850h164l-368 -1024h-41v-410h-154z" />
    <glyph glyph-name="uni04B0" unicode="&#x4b0;" horiz-adv-x="1208" 
d="M522 0v543h-317v153h227l-432 738h174l410 -707h41l409 707h174l-432 -738h228v-153h-318v-543h-164z" />
    <glyph glyph-name="uni04B1" unicode="&#x4b1;" horiz-adv-x="1013" 
d="M430 -410v410h-225v143h133l-318 881h164l308 -850h30l307 850h164l-317 -881h133v-143h-225v-410h-154z" />
    <glyph glyph-name="uni04B2" unicode="&#x4b2;" horiz-adv-x="1280" 
d="M20 0l502 737l-471 697h185l378 -564h41l379 564h185l-471 -697l399 -583h133v-441h-164v287h-51l-410 604h-41l-409 -604h-185z" />
    <glyph glyph-name="uni04B3" unicode="&#x4b3;" horiz-adv-x="993" 
d="M20 0l349 522l-338 502h184l256 -389h41l256 389h184l-338 -502l256 -379h123v-389h-153v246h-62l-266 410h-41l-266 -410h-185z" />
    <glyph glyph-name="uni04B4" unicode="&#x4b4;" horiz-adv-x="1730" 
d="M430 0v1280h-430v154h1004v-154h-410v-1126h758v1280h164v-1280h153v-441h-164v287h-1075z" />
    <glyph glyph-name="uni04B5" unicode="&#x4b5;" horiz-adv-x="1320" 
d="M307 0v881h-307v143h748v-143h-287v-738h522v881h154v-881h143v-389h-154v246h-819z" />
    <glyph glyph-name="uni04B6" unicode="&#x4b6;" horiz-adv-x="1413" 
d="M1188 -287v287h-154v614q-49 -40 -110 -67q-144 -66 -289 -66q-257 0 -379.5 125t-122.5 387v441h164v-441q0 -185 83 -271.5t255 -86.5q169 0 295 72q55 28 104 71v656h164v-1280h154v-441h-164z" />
    <glyph glyph-name="uni04B7" unicode="&#x4b7;" horiz-adv-x="1116" 
d="M922 -246v246h-144v399q-66 -45 -136 -63.5t-161 -18.5q-368 0 -368 390v317h153v-317q0 -246 236 -246q85 0 149 22t127 70v471h154v-881h143v-389h-153z" />
    <glyph glyph-name="uni04B8" unicode="&#x4b8;" horiz-adv-x="1361" 
d="M594 276v205q-235 11 -348 135.5t-113 376.5v441h164v-441q0 -172 73.5 -259.5t223.5 -98.5v287h154v-279q119 21 213 80q40 22 73 55v656h164v-1434h-164v614q-44 -32 -80 -49q-109 -58 -206 -73v-216h-154z" />
    <glyph glyph-name="uni04B9" unicode="&#x4b9;" horiz-adv-x="1075" 
d="M461 195v122q-348 9 -348 390v317h153v-317q0 -226 195 -244v203h133v-197q96 20 184 84v471h154v-1024h-154v399q-83 -58 -184 -73v-131h-133z" />
    <glyph glyph-name="uni04BA" unicode="&#x4ba;" horiz-adv-x="1361" 
d="M164 0v1434h164v-615q56 42 110 66q146 67 289 67q257 0 379.5 -125t122.5 -387v-440h-164v440q0 185 -83.5 272t-254.5 87q-155 0 -295 -72q-66 -39 -104 -72v-655h-164z" />
    <glyph glyph-name="uni04BB" unicode="&#x4bb;" horiz-adv-x="1177" 
d="M154 0v1434h153v-523h10q33 41 76 66q104 67 232 67q178 0 293.5 -119.5t115.5 -310.5v-614h-153v614q0 122 -80.5 204.5t-196.5 82.5q-122 0 -209.5 -85.5t-87.5 -201.5v-614h-153z" />
    <glyph glyph-name="uni04BC" unicode="&#x4bc;" horiz-adv-x="1720" 
d="M0 870v62h154v-41q0 -103 102 -103h20q16 192 109 344t244 237t334 85q188 0 337 -85.5t233.5 -242t84.5 -358.5v-123h-1178q25 -224 170 -368t353 -144q149 0 274 79.5t186 217.5h174q-68 -205 -242.5 -327.5t-391.5 -122.5q-278 0 -470 186.5t-217 478.5h-40
q-123 0 -179.5 54t-56.5 171zM440 788h1014q0 228 -137.5 370t-353.5 142q-208 0 -353 -144t-170 -368z" />
    <glyph glyph-name="uni04BD" unicode="&#x4bd;" horiz-adv-x="1290" 
d="M0 655v41h143v-20q0 -54 17.5 -73t64.5 -19h23q20 206 158 333t331 127q202 0 336.5 -138.5t134.5 -352.5q0 -34 -6 -88l-4 -25h-799q17 -145 110.5 -231t227.5 -86q93 0 166 43t111 121h164q-54 -148 -167 -227.5t-274 -79.5q-193 0 -331 127t-158 333h-43
q-109 0 -157 49.5t-48 165.5zM399 584h656q-7 139 -97 228t-221 89q-138 0 -229 -87.5t-109 -229.5z" />
    <glyph glyph-name="uni04BE" unicode="&#x4be;" horiz-adv-x="1720" 
d="M881 -287v271q-249 29 -417 211t-188 450h-40q-123 0 -179.5 54t-56.5 171v62h154v-41q0 -103 102 -103h20q16 192 109 344t244 237t334 85q188 0 337 -85.5t233.5 -242t84.5 -358.5v-123h-1178q25 -224 170 -368t353 -144q149 0 274 79.5t186 217.5h174
q-61 -185 -212.5 -304t-340.5 -140v-273h-163zM440 788h1014q0 228 -137.5 370t-353.5 142q-208 0 -353 -144t-170 -368z" />
    <glyph glyph-name="uni04BF" unicode="&#x4bf;" horiz-adv-x="1290" 
d="M666 -246v232q-167 21 -282.5 143.5t-135.5 310.5h-43q-109 0 -157 49.5t-48 165.5v41h143v-20q0 -54 17.5 -73t64.5 -19h23q20 206 158 333t331 127q202 0 336.5 -138.5t134.5 -352.5q0 -34 -6 -88l-4 -25h-799q17 -144 112 -230.5t226 -86.5q93 0 166 43t111 121h164
q-47 -129 -138.5 -205.5t-220.5 -95.5v-232h-153zM399 584h656q-7 139 -97 228t-221 89q-138 0 -229 -87.5t-109 -229.5z" />
    <glyph glyph-name="uni04C0" unicode="&#x4c0;" horiz-adv-x="491" 
d="M164 0v1434h164v-1434h-164z" />
    <glyph glyph-name="uni04C1" unicode="&#x4c1;" horiz-adv-x="1638" 
d="M0 0l563 727l-522 707h195l501 -676v676h164v-676l502 676h194l-522 -707l563 -727h-194l-543 707v-707h-164v707l-542 -707h-195zM532 1853h134q7 -68 48.5 -105.5t104.5 -37.5t105 37.5t49 105.5h133q-7 -116 -87.5 -186t-199.5 -70t-199.5 70t-87.5 186z" />
    <glyph glyph-name="uni04C2" unicode="&#x4c2;" horiz-adv-x="1320" 
d="M0 0l420 522l-389 502h184l369 -481v481h153v-481l369 481h184l-389 -502l420 -522h-184l-400 502v-502h-153v502l-400 -502h-184zM369 1454h133q7 -68 48.5 -105.5t104.5 -37.5t105 37.5t49 105.5h133q-7 -116 -87.5 -186t-199.5 -70q-118 0 -198.5 70t-87.5 186z" />
    <glyph glyph-name="uni04C3" unicode="&#x4c3;" horiz-adv-x="1259" 
d="M164 0v1434h164v-676l604 676h205l-543 -598q12 0 18 2q7 0 21 1t22 1q230 0 371 -143t141 -380q0 -267 -142 -415t-390 -148v154q173 0 271 105.5t98 303.5q0 169 -98.5 269t-260.5 100q-130 0 -231 -57q-41 -20 -86 -56v-573h-164z" />
    <glyph glyph-name="uni04C4" unicode="&#x4c4;" horiz-adv-x="1064" 
d="M512 -410v144q164 0 251 94.5t87 286.5q0 159 -87 247.5t-241 88.5q-84 0 -170 -31q-30 -13 -55 -31v-389h-154v1024h154v-471l461 471h194l-420 -430q215 0 343.5 -129.5t128.5 -349.5q0 -254 -129 -389.5t-363 -135.5z" />
    <glyph glyph-name="uni04C5" unicode="&#x4c5;" horiz-adv-x="1433" 
d="M20 -10v164h72q65 0 106 40t48 123l92 1117h891v-1280h205v-21l-144 -420h-123l52 287h-154v1280h-573l-82 -963q-13 -169 -91 -248t-227 -79h-72z" />
    <glyph glyph-name="uni04C6" unicode="&#x4c6;" 
d="M20 -10v153h62q122 0 133 144l61 737h687v-881h184v-20l-123 -369h-113l41 246h-143v881h-389l-51 -594q-13 -152 -84 -224.5t-203 -72.5h-62z" />
    <glyph glyph-name="uni04C7" unicode="&#x4c7;" horiz-adv-x="1454" 
d="M164 0v1434h164v-635h798v635h164v-1536q0 -308 -317 -308h-31v154h31q153 0 153 154v747h-798v-645h-164z" />
    <glyph glyph-name="uni04C8" unicode="&#x4c8;" horiz-adv-x="1136" 
d="M143 0v1024h154v-440h543v440h153v-1126q0 -308 -317 -308h-21v144h21q164 0 164 164v542h-543v-440h-154z" />
    <glyph glyph-name="uni04C9" unicode="&#x4c9;" horiz-adv-x="1495" 
d="M164 0v1434h164v-635h798v635h164v-1280h205v-21l-143 -420h-123l51 287h-154v645h-798v-645h-164z" />
    <glyph glyph-name="uni04CA" unicode="&#x4ca;" horiz-adv-x="1177" 
d="M143 0v1024h154v-440h543v440h153v-881h185v-20l-123 -369h-113l41 246h-143v440h-543v-440h-154z" />
    <glyph glyph-name="uni04CB" unicode="&#x4cb;" horiz-adv-x="1361" 
d="M881 -287v441h153v460q-49 -40 -110 -67q-144 -66 -289 -66q-257 0 -379.5 125t-122.5 387v441h164v-441q0 -185 83 -271.5t255 -86.5q169 0 295 72q55 28 104 71v656h164v-1434h-154v-287h-163z" />
    <glyph glyph-name="uni04CC" unicode="&#x4cc;" horiz-adv-x="1075" 
d="M635 -246v389h143v256q-66 -45 -136 -63.5t-161 -18.5q-368 0 -368 390v317h153v-317q0 -246 236 -246q85 0 149 22t127 70v471h154v-1024h-144v-246h-153z" />
    <glyph glyph-name="uni04CD" unicode="&#x4cd;" horiz-adv-x="1884" 
d="M164 0v1434h297l440 -1250h41l440 1250h297v-1280h205v-21l-143 -420h-123l51 287h-153v1219h-41l-431 -1219h-245l-430 1219h-41v-1219h-164z" />
    <glyph glyph-name="uni04CE" unicode="&#x4ce;" horiz-adv-x="1495" 
d="M143 0v1024h287l277 -850h41l276 850h287v-881h184v-20l-123 -369h-112l40 246h-143v840h-41l-276 -840h-226l-276 840h-41v-840h-154z" />
    <glyph glyph-name="uni04CF" unicode="&#x4cf;" horiz-adv-x="460" 
d="M154 0v1434h153v-1434h-153z" />
    <glyph glyph-name="uni04D0" unicode="&#x4d0;" horiz-adv-x="1331" 
d="M0 0l543 1434h245l543 -1434h-174l-133 369h-717l-133 -369h-174zM369 522h594l-277 738h-41zM379 1853h133q7 -68 49 -105.5t105 -37.5t104.5 37.5t48.5 105.5h133q-7 -116 -87.5 -186t-198.5 -70q-119 0 -199.5 70t-87.5 186z" />
    <glyph glyph-name="uni04D1" unicode="&#x4d1;" horiz-adv-x="1085" 
d="M809 0l-21 123h-10q-29 -44 -73 -72q-93 -71 -244 -71q-160 0 -259.5 88.5t-99.5 228.5q0 154 101 241t309 87h276v30q0 117 -64 181.5t-181 64.5q-112 0 -180 -50.5t-76 -123.5h-154q8 131 117.5 224t292.5 93q187 0 293 -102t106 -287v-655h-133zM788 440v41h-276
q-131 0 -193.5 -51t-62.5 -133q0 -80 53.5 -127t151.5 -47q153 0 240 84.5t87 232.5zM256 1454h133q7 -68 49 -105.5t105 -37.5t104.5 37.5t48.5 105.5h133q-7 -116 -87.5 -186t-198.5 -70q-119 0 -199.5 70t-87.5 186z" />
    <glyph glyph-name="uni04D2" unicode="&#x4d2;" horiz-adv-x="1331" 
d="M0 0l543 1434h245l543 -1434h-174l-133 369h-717l-133 -369h-174zM369 522h594l-277 738h-41zM758 1638v174h174v-174h-174zM399 1638v174h174v-174h-174z" />
    <glyph glyph-name="uni04D3" unicode="&#x4d3;" horiz-adv-x="1085" 
d="M809 0l-21 123h-10q-29 -44 -73 -72q-93 -71 -244 -71q-160 0 -259.5 88.5t-99.5 228.5q0 154 101 241t309 87h276v30q0 117 -64 181.5t-181 64.5q-112 0 -180 -50.5t-76 -123.5h-154q8 131 117.5 224t292.5 93q187 0 293 -102t106 -287v-655h-133zM788 440v41h-276
q-131 0 -193.5 -51t-62.5 -133q0 -80 53.5 -127t151.5 -47q153 0 240 84.5t87 232.5zM635 1239v174h174v-174h-174zM276 1239v174h175v-174h-175z" />
    <glyph glyph-name="uni04D6" unicode="&#x4d6;" horiz-adv-x="1198" 
d="M164 0v1434h921v-154h-757v-481h716v-154h-716v-491h757v-154h-921zM338 1853h133q7 -68 49 -105.5t105 -37.5t104.5 37.5t48.5 105.5h133q-7 -116 -87.5 -186t-198.5 -70q-119 0 -199.5 70t-87.5 186z" />
    <glyph glyph-name="uni04D7" unicode="&#x4d7;" horiz-adv-x="1126" 
d="M850 287h164q-54 -148 -167 -227.5t-274 -79.5q-103 0 -193 39t-156 108t-104 168.5t-38 216.5t38 216.5t104 168.5t156 108t193 39q202 0 336.5 -138.5t134.5 -352.5q0 -34 -6 -88l-4 -25h-798q17 -144 111.5 -230.5t225.5 -86.5q93 0 166 43t111 121zM236 584h655
q-7 139 -97 228t-221 89q-138 0 -228.5 -87.5t-108.5 -229.5zM276 1454h134q7 -68 48.5 -105.5t104.5 -37.5t105 37.5t49 105.5h133q-7 -116 -87.5 -186t-199.5 -70t-199.5 70t-87.5 186z" />
    <glyph glyph-name="uni04D8" unicode="&#x4d8;" horiz-adv-x="1546" 
d="M102 666v122h1178q-25 225 -169.5 368.5t-352.5 143.5q-149 0 -274.5 -79.5t-186.5 -216.5h-174q68 205 243 327.5t392 122.5q140 0 266 -54t218.5 -149t147 -234t54.5 -300t-54.5 -300t-147 -234t-218.5 -149t-266 -54q-141 0 -262.5 50t-208 139t-136 217.5
t-49.5 279.5zM1280 645h-1014q0 -228 138 -370t354 -142q208 0 352.5 143.5t169.5 368.5z" />
    <glyph glyph-name="uni04D9" unicode="&#x4d9;" horiz-adv-x="1126" 
d="M92 584h799q-17 144 -112 230.5t-226 86.5q-93 0 -166 -43t-111 -121h-163q54 149 167 228t273 79q103 0 193 -39t156 -108t104 -168.5t38 -216.5t-38 -216.5t-104 -168.5t-156 -108t-193 -39q-202 0 -336.5 138.5t-134.5 352.5q0 50 4 86zM891 440h-655
q7 -139 96.5 -228t220.5 -89q138 0 229 87.5t109 229.5z" />
    <glyph glyph-name="uni04DA" unicode="&#x4da;" horiz-adv-x="1546" 
d="M102 666v122h1178q-25 225 -169.5 368.5t-352.5 143.5q-149 0 -274.5 -79.5t-186.5 -216.5h-174q68 205 243 327.5t392 122.5q140 0 266 -54t218.5 -149t147 -234t54.5 -300t-54.5 -300t-147 -234t-218.5 -149t-266 -54q-141 0 -262.5 50t-208 139t-136 217.5
t-49.5 279.5zM1280 645h-1014q0 -228 138 -370t354 -142q208 0 352.5 143.5t169.5 368.5zM860 1638v174h174v-174h-174zM502 1638v174h174v-174h-174z" />
    <glyph glyph-name="uni04DB" unicode="&#x4db;" horiz-adv-x="1126" 
d="M92 584h799q-17 144 -112 230.5t-226 86.5q-93 0 -166 -43t-111 -121h-163q54 149 167 228t273 79q103 0 193 -39t156 -108t104 -168.5t38 -216.5t-38 -216.5t-104 -168.5t-156 -108t-193 -39q-202 0 -336.5 138.5t-134.5 352.5q0 50 4 86zM891 440h-655
q7 -139 96.5 -228t220.5 -89q138 0 229 87.5t109 229.5zM655 1239v174h174v-174h-174zM297 1239v174h174v-174h-174z" />
    <glyph glyph-name="uni04DC" unicode="&#x4dc;" horiz-adv-x="1638" 
d="M0 0l563 727l-522 707h195l501 -676v676h164v-676l502 676h194l-522 -707l563 -727h-194l-543 707v-707h-164v707l-542 -707h-195zM911 1638v174h174v-174h-174zM553 1638v174h174v-174h-174z" />
    <glyph glyph-name="uni04DD" unicode="&#x4dd;" horiz-adv-x="1320" 
d="M0 0l420 522l-389 502h184l369 -481v481h153v-481l369 481h184l-389 -502l420 -522h-184l-400 502v-502h-153v502l-400 -502h-184zM748 1239v174h174v-174h-174zM389 1239v174h174v-174h-174z" />
    <glyph glyph-name="uni04DE" unicode="&#x4de;" horiz-adv-x="1218" 
d="M72 389h164q0 -107 94 -181.5t264 -74.5q161 0 259.5 75.5t98.5 180.5q0 103 -86.5 179.5t-220.5 76.5h-143v154h143q121 0 199 71.5t78 173.5q0 110 -89 183t-239 73q-148 0 -238 -75.5t-90 -180.5h-164q0 173 135 291.5t357 118.5q111 0 205 -34t155.5 -90.5t96 -130.5
t34.5 -155q0 -151 -112 -251q-56 -47 -113 -66v-10q71 -24 127 -68q129 -100 129 -260q0 -173 -141.5 -291t-380.5 -118t-380.5 118t-141.5 291zM696 1638v174h174v-174h-174zM338 1638v174h174v-174h-174z" />
    <glyph glyph-name="uni04DF" unicode="&#x4df;" horiz-adv-x="942" 
d="M61 317h154q0 -81 66.5 -137.5t179.5 -56.5q124 0 185 45t61 119q0 72 -61.5 118t-174.5 46h-92v133h92q105 0 160 45.5t55 118.5q0 66 -57 109.5t-168 43.5q-106 0 -165.5 -51.5t-59.5 -132.5h-154q0 139 106.5 233t272.5 94q178 0 278.5 -84.5t100.5 -214.5
q0 -106 -82 -176q-43 -34 -82 -47v-10q76 -19 130 -79t54 -148q0 -133 -106 -219t-293 -86q-180 0 -290 97t-110 240zM563 1239v174h174v-174h-174zM205 1239v174h174v-174h-174z" />
    <glyph glyph-name="uni04E0" unicode="&#x4e0;" horiz-adv-x="1198" 
d="M61 369h164q0 -105 89 -170.5t270 -65.5q173 0 265.5 79.5t92.5 207.5t-92.5 207.5t-265.5 79.5h-277v153l533 420h-738v154h963v-154l-522 -410v-10h41q247 0 384.5 -121.5t137.5 -318.5t-137.5 -318.5t-384.5 -121.5q-260 0 -391.5 106t-131.5 283z" />
    <glyph glyph-name="uni04E1" unicode="&#x4e1;" horiz-adv-x="1003" 
d="M51 -31h154q0 -109 79.5 -182.5t207.5 -73.5q131 0 208.5 79t77.5 218q0 141 -82 219t-235 78h-205v144l451 430h-615v143h809v-143l-440 -420v-10q220 0 345.5 -119.5t125.5 -321.5q0 -200 -120 -320t-320 -120q-196 0 -318.5 113.5t-122.5 285.5z" />
    <glyph glyph-name="uni04E2" unicode="&#x4e2;" horiz-adv-x="1454" 
d="M164 0v1434h164v-1239h41l645 1239h276v-1434h-164v1239h-41l-645 -1239h-276zM440 1659v123h574v-123h-574z" />
    <glyph glyph-name="uni04E3" unicode="&#x4e3;" horiz-adv-x="1136" 
d="M143 0v1024h154v-840h41l389 840h266v-1024h-153v840h-41l-389 -840h-267zM287 1270v123h573v-123h-573z" />
    <glyph glyph-name="uni04E4" unicode="&#x4e4;" horiz-adv-x="1454" 
d="M164 0v1434h164v-1239h41l645 1239h276v-1434h-164v1239h-41l-645 -1239h-276zM819 1638v174h174v-174h-174zM461 1638v174h174v-174h-174z" />
    <glyph glyph-name="uni04E5" unicode="&#x4e5;" horiz-adv-x="1136" 
d="M143 0v1024h154v-840h41l389 840h266v-1024h-153v840h-41l-389 -840h-267zM666 1239v174h174v-174h-174zM307 1239v174h174v-174h-174z" />
    <glyph glyph-name="uni04E6" unicode="&#x4e6;" horiz-adv-x="1576" 
d="M788 -20q-140 0 -266 54t-218.5 149t-147 234t-54.5 300t54.5 300t147 234t218.5 149t266 54t266 -54t219 -149t147.5 -234t54.5 -300t-54.5 -300t-147.5 -234t-219 -149t-266 -54zM788 133q107 0 202.5 42.5t166.5 117.5t112.5 185.5t41.5 238.5t-41.5 238t-112.5 185
t-166.5 117.5t-202.5 42.5q-143 0 -262 -72t-189.5 -206t-70.5 -305q0 -128 41.5 -238.5t112 -185.5t166 -117.5t202.5 -42.5zM881 1638v174h174v-174h-174zM522 1638v174h174v-174h-174z" />
    <glyph glyph-name="uni04E7" unicode="&#x4e7;" 
d="M573 -20q-103 0 -193 39t-156 108t-104 168.5t-38 216.5t38 216.5t104 168.5t156 108t193 39q137 0 249 -66t177.5 -188.5t65.5 -277.5t-65.5 -277.5t-177.5 -188.5t-249 -66zM573 123q143 0 240.5 108t97.5 281t-97.5 281t-240.5 108t-240 -108t-97 -281t97 -281
t240 -108zM666 1239v174h174v-174h-174zM307 1239v174h174v-174h-174z" />
    <glyph glyph-name="uni04E8" unicode="&#x4e8;" horiz-adv-x="1576" 
d="M1311 645h-1045q29 -229 173 -370.5t349 -141.5q207 0 348.5 140.5t174.5 371.5zM788 -20q-140 0 -266 54t-218.5 149t-147 234t-54.5 300t54.5 300t147 234t218.5 149t266 54t266 -54t219 -149t147.5 -234t54.5 -300t-54.5 -300t-147.5 -234t-219 -149t-266 -54z
M266 788h1045q-33 231 -174.5 371.5t-348.5 140.5q-205 0 -349 -141.5t-173 -370.5z" />
    <glyph glyph-name="uni04E9" unicode="&#x4e9;" 
d="M246 584h655q-17 140 -107.5 228.5t-220.5 88.5t-220 -88t-107 -229zM573 -20q-103 0 -193 39t-156 108t-104 168.5t-38 216.5t38 216.5t104 168.5t156 108t193 39q137 0 249 -66t177.5 -188.5t65.5 -277.5t-65.5 -277.5t-177.5 -188.5t-249 -66zM901 440h-655
q17 -141 107 -229t220 -88t220.5 88.5t107.5 228.5z" />
    <glyph glyph-name="uni04EA" unicode="&#x4ea;" horiz-adv-x="1576" 
d="M1311 645h-1045q29 -229 173 -370.5t349 -141.5q207 0 348.5 140.5t174.5 371.5zM788 -20q-140 0 -266 54t-218.5 149t-147 234t-54.5 300t54.5 300t147 234t218.5 149t266 54t266 -54t219 -149t147.5 -234t54.5 -300t-54.5 -300t-147.5 -234t-219 -149t-266 -54z
M266 788h1045q-33 231 -174.5 371.5t-348.5 140.5q-205 0 -349 -141.5t-173 -370.5zM881 1638v174h174v-174h-174zM522 1638v174h174v-174h-174z" />
    <glyph glyph-name="uni04EB" unicode="&#x4eb;" 
d="M246 584h655q-17 140 -107.5 228.5t-220.5 88.5t-220 -88t-107 -229zM573 -20q-103 0 -193 39t-156 108t-104 168.5t-38 216.5t38 216.5t104 168.5t156 108t193 39q137 0 249 -66t177.5 -188.5t65.5 -277.5t-65.5 -277.5t-177.5 -188.5t-249 -66zM901 440h-655
q17 -141 107 -229t220 -88t220.5 88.5t107.5 228.5zM666 1239v174h174v-174h-174zM307 1239v174h174v-174h-174z" />
    <glyph glyph-name="uni04EC" unicode="&#x4ec;" horiz-adv-x="1495" 
d="M72 461h174q54 -154 177 -241t284 -87q203 0 349 143t163 369h-697v154h697q-17 220 -163 360.5t-349 140.5q-161 0 -284 -84.5t-177 -232.5h-174q61 213 236 342t399 129q140 0 266 -54t218.5 -149t147 -234t54.5 -300t-54.5 -300t-147 -234t-218.5 -149t-266 -54
q-231 0 -406.5 131t-228.5 350zM819 1638v174h174v-174h-174zM461 1638v174h174v-174h-174z" />
    <glyph glyph-name="uni04ED" unicode="&#x4ed;" horiz-adv-x="1085" 
d="M61 328h154q30 -97 112 -151t185 -54q134 0 227.5 86t110.5 231h-461v144h461q-17 145 -110.5 231t-227.5 86q-102 0 -184.5 -52t-112.5 -142h-154q38 154 159.5 245.5t291.5 91.5q137 0 249 -66t177.5 -188.5t65.5 -277.5t-65.5 -277.5t-177.5 -188.5t-249 -66
q-170 0 -291.5 93.5t-159.5 254.5zM625 1239v174h174v-174h-174zM266 1239v174h174v-174h-174z" />
    <glyph glyph-name="uni04EE" unicode="&#x4ee;" horiz-adv-x="1249" 
d="M205 0v154h194q48 0 72 15t41 56l41 92l-533 1117h175l419 -891h41l400 891h174l-584 -1291q-32 -68 -87 -105.5t-148 -37.5h-205zM348 1659v123h574v-123h-574z" />
    <glyph glyph-name="uni04EF" unicode="&#x4ef;" horiz-adv-x="1013" 
d="M133 -410v144h195q51 0 71 61l41 123l-420 1106h164l318 -850h41l286 850h164l-461 -1290q-26 -76 -68.5 -110t-125.5 -34h-205zM236 1270v123h573v-123h-573z" />
    <glyph glyph-name="uni04F0" unicode="&#x4f0;" horiz-adv-x="1249" 
d="M205 0v154h194q48 0 72 15t41 56l41 92l-533 1117h175l419 -891h41l400 891h174l-584 -1291q-32 -68 -87 -105.5t-148 -37.5h-205zM727 1638v174h174v-174h-174zM369 1638v174h174v-174h-174z" />
    <glyph glyph-name="uni04F1" unicode="&#x4f1;" horiz-adv-x="1013" 
d="M133 -410v144h195q51 0 71 61l41 123l-420 1106h164l318 -850h41l286 850h164l-461 -1290q-26 -76 -68.5 -110t-125.5 -34h-205zM614 1239v174h174v-174h-174zM256 1239v174h174v-174h-174z" />
    <glyph glyph-name="uni04F2" unicode="&#x4f2;" horiz-adv-x="1249" 
d="M205 0v154h194q48 0 72 15t41 56l41 92l-533 1117h175l419 -891h41l400 891h174l-584 -1291q-32 -68 -87 -105.5t-148 -37.5h-205zM399 1577l195 287h184l-235 -287h-144zM727 1577l195 287h184l-236 -287h-143z" />
    <glyph glyph-name="uni04F3" unicode="&#x4f3;" horiz-adv-x="1013" 
d="M133 -410v144h195q51 0 71 61l41 123l-420 1106h164l318 -850h41l286 850h164l-461 -1290q-26 -76 -68.5 -110t-125.5 -34h-205zM287 1188l194 287h185l-236 -287h-143zM614 1188l195 287h184l-235 -287h-144z" />
    <glyph glyph-name="uni04F4" unicode="&#x4f4;" horiz-adv-x="1361" 
d="M1034 0v614q-49 -40 -110 -67q-144 -66 -289 -66q-257 0 -379.5 125t-122.5 387v441h164v-441q0 -185 83 -271.5t255 -86.5q169 0 295 72q55 28 104 71v656h164v-1434h-164zM758 1638v174h174v-174h-174zM399 1638v174h174v-174h-174z" />
    <glyph glyph-name="uni04F5" unicode="&#x4f5;" horiz-adv-x="1075" 
d="M778 0v399q-66 -45 -136 -63.5t-161 -18.5q-368 0 -368 390v317h153v-317q0 -246 236 -246q85 0 149 22t127 70v471h154v-1024h-154zM614 1239v174h174v-174h-174zM256 1239v174h174v-174h-174z" />
    <glyph glyph-name="uni04F6" unicode="&#x4f6;" horiz-adv-x="1105" 
d="M317 -287v287h-153v1434h901v-154h-737v-1126h153v-441h-164z" />
    <glyph glyph-name="uni04F7" unicode="&#x4f7;" horiz-adv-x="839" 
d="M287 -246v246h-144v1024h656v-143h-502v-738h143v-389h-153z" />
    <glyph glyph-name="uni04F8" unicode="&#x4f8;" horiz-adv-x="1628" 
d="M1300 0v1434h164v-1434h-164zM164 0v1434h164v-533h389q177 0 298.5 -130t121.5 -320t-121.5 -320.5t-298.5 -130.5h-553zM328 154h389q108 0 182 84t74 213t-74 213t-182 84h-389v-594zM911 1638v174h174v-174h-174zM553 1638v174h174v-174h-174z" />
    <glyph glyph-name="uni04F9" unicode="&#x4f9;" horiz-adv-x="1372" 
d="M1075 0v1024h154v-1024h-154zM143 0v1024h154v-348h276q153 0 251 -95.5t98 -242.5t-98 -242.5t-251 -95.5h-430zM297 143h276q86 0 140.5 54.5t54.5 140.5t-54.5 140t-140.5 54h-276v-389zM778 1239v174h174v-174h-174zM420 1239v174h174v-174h-174z" />
    <glyph glyph-name="uni04FA" unicode="&#x4fa;" horiz-adv-x="1136" 
d="M246 -410v144h41q40 0 61 28.5t21 94.5v143h-154v645h-195v154h195v635h881v-154h-717v-481h399v-154h-399v-491h153v-297q0 -146 -56.5 -206.5t-188.5 -60.5h-41z" />
    <glyph glyph-name="uni04FB" unicode="&#x4fb;" horiz-adv-x="870" 
d="M195 -369v144h41q40 0 60.5 28.5t20.5 94.5v102h-143v440h-154v144h154v440h655v-143h-501v-297h358v-144h-358v-297h143v-245q0 -146 -55 -206.5t-180 -60.5h-41z" />
    <glyph glyph-name="uni04FC" unicode="&#x4fc;" horiz-adv-x="1269" 
d="M20 0l502 737l-471 697h185l378 -564h41l379 564h185l-471 -697l378 -553q43 -60 66 -110q68 -136 68 -228q0 -120 -78.5 -188t-229.5 -68h-41v154h41q68 0 106 34t38 89q-1 50 -39.5 129.5t-76.5 133.5l-38 54l-287 420h-41l-409 -604h-185z" />
    <glyph glyph-name="uni04FD" unicode="&#x4fd;" horiz-adv-x="983" 
d="M20 0l349 522l-338 502h184l256 -389h41l256 389h184l-338 -502l236 -348q36 -55 61 -106q62 -126 62 -222q0 -120 -78 -188t-229 -68h-41v144h41q68 0 105.5 35.5t37.5 97.5q0 32 -15 75.5t-36 82.5t-42.5 73.5t-35.5 55.5l-14 20l-154 236h-41l-266 -410h-185z" />
    <glyph glyph-name="uni04FE" unicode="&#x4fe;" horiz-adv-x="1269" 
d="M20 0l451 666h-266v143h266l-420 625h185l378 -564h41l379 564h185l-420 -625h266v-143h-266l450 -666h-184l-410 604h-41l-409 -604h-185z" />
    <glyph glyph-name="uni04FF" unicode="&#x4ff;" horiz-adv-x="983" 
d="M20 0l308 461h-164v123h164l-297 440h184l256 -389h41l256 389h184l-297 -440h164v-123h-164l308 -461h-185l-266 410h-41l-266 -410h-185z" />
    <glyph glyph-name="uni0510" unicode="&#x510;" horiz-adv-x="1218" 
d="M358 717v10q-59 19 -112 66q-113 97 -113 251q0 81 34.5 155t97 130.5t159 90.5t211.5 34q238 0 364.5 -107t126.5 -282h-163q0 105 -82.5 170t-245.5 65q-157 0 -247.5 -72t-90.5 -184q0 -102 77.5 -173.5t198.5 -71.5h144v-154h-144q-134 0 -220.5 -76.5t-86.5 -179.5
q0 -105 99.5 -180.5t269.5 -75.5q168 0 263 71t95 165h164q0 -77 -36.5 -147t-102 -124t-165 -86t-218.5 -32q-245 0 -389 117.5t-144 291.5q0 161 127 260q57 44 129 68z" />
    <glyph glyph-name="uni0511" unicode="&#x511;" horiz-adv-x="942" 
d="M266 512v10q-39 13 -82 47q-82 70 -82 176q0 130 102.5 214.5t287.5 84.5q164 0 271 -90.5t107 -216.5h-153q0 66 -61 115t-164 49q-117 0 -176.5 -43.5t-59.5 -109.5q0 -73 55 -118.5t160 -45.5h92v-133h-92q-113 0 -174 -46t-61 -118q0 -74 62 -119t194 -45
q117 0 181 50t64 124h154q0 -135 -107 -226t-292 -91q-193 0 -301.5 85.5t-108.5 219.5q0 88 54 148t130 79z" />
    <glyph glyph-name="uni0512" unicode="&#x512;" horiz-adv-x="1392" 
d="M20 -10v164h72q65 0 106 40t48 123l92 1117h891v-1536q0 -308 -318 -308h-30v154h30q154 0 154 154v1382h-573l-82 -963q-13 -169 -91 -248t-227 -79h-72z" />
    <glyph glyph-name="uni0513" unicode="&#x513;" horiz-adv-x="1105" 
d="M20 -10v153h62q122 0 133 144l61 737h687v-1126q0 -308 -318 -308h-20v144h20q164 0 164 164v983h-389l-51 -594q-13 -152 -84 -224.5t-203 -72.5h-62z" />
    <glyph glyph-name="Wgrave" unicode="&#x1e80;" horiz-adv-x="2007" 
d="M389 0l-358 1434h174l307 -1260h41l328 1260h245l328 -1260h41l307 1260h174l-358 -1434h-287l-307 1198h-41l-307 -1198h-287zM932 1577l-236 287h185l194 -287h-143z" />
    <glyph glyph-name="wgrave" unicode="&#x1e81;" horiz-adv-x="1617" 
d="M307 0l-276 1024h164l225 -860h41l225 860h246l225 -860h41l225 860h164l-276 -1024h-267l-215 829h-41l-215 -829h-266zM737 1188l-235 287h184l195 -287h-144z" />
    <glyph glyph-name="Wacute" unicode="&#x1e82;" horiz-adv-x="2007" 
d="M389 0l-358 1434h174l307 -1260h41l328 1260h245l328 -1260h41l307 1260h174l-358 -1434h-287l-307 1198h-41l-307 -1198h-287zM932 1577l194 287h185l-236 -287h-143z" />
    <glyph glyph-name="wacute" unicode="&#x1e83;" horiz-adv-x="1617" 
d="M307 0l-276 1024h164l225 -860h41l225 860h246l225 -860h41l225 860h164l-276 -1024h-267l-215 829h-41l-215 -829h-266zM737 1188l195 287h184l-235 -287h-144z" />
    <glyph glyph-name="Wdieresis" unicode="&#x1e84;" horiz-adv-x="2007" 
d="M389 0l-358 1434h174l307 -1260h41l328 1260h245l328 -1260h41l307 1260h174l-358 -1434h-287l-307 1198h-41l-307 -1198h-287zM1096 1638v174h174v-174h-174zM737 1638v174h174v-174h-174z" />
    <glyph glyph-name="wdieresis" unicode="&#x1e85;" horiz-adv-x="1617" 
d="M307 0l-276 1024h164l225 -860h41l225 860h246l225 -860h41l225 860h164l-276 -1024h-267l-215 829h-41l-215 -829h-266zM901 1239v174h174v-174h-174zM543 1239v174h174v-174h-174z" />
    <glyph glyph-name="uni1E9E" unicode="&#x1e9e;" horiz-adv-x="1382" 
d="M154 0v1034q0 186 108.5 293t300.5 107h656v-144l-410 -440v-10q210 0 340.5 -120t130.5 -300q0 -181 -131 -300.5t-348 -119.5h-187v154h185q150 0 233.5 73t83.5 193t-83.5 193t-233.5 73h-185v164l390 430h-441q-117 0 -181.5 -64.5t-64.5 -181.5v-1034h-163z" />
    <glyph glyph-name="Ygrave" unicode="&#x1ef2;" horiz-adv-x="1208" 
d="M522 0v543l-522 891h174l410 -707h41l409 707h174l-522 -891v-543h-164zM532 1577l-235 287h184l195 -287h-144z" />
    <glyph glyph-name="ygrave" unicode="&#x1ef3;" horiz-adv-x="1013" 
d="M133 -410v144h195q51 0 71 61l41 123l-420 1106h164l318 -850h41l286 850h164l-461 -1290q-26 -76 -68.5 -110t-125.5 -34h-205zM451 1188l-236 287h184l195 -287h-143z" />
    <glyph glyph-name="endash" unicode="&#x2013;" horiz-adv-x="1105" 
d="M72 512v143h962v-143h-962z" />
    <glyph glyph-name="emdash" unicode="&#x2014;" horiz-adv-x="1495" 
d="M72 512v143h1351v-143h-1351z" />
    <glyph glyph-name="quoteleft" unicode="&#x2018;" horiz-adv-x="419" 
d="M102 1085l82 349h133l-41 -349h-174z" />
    <glyph glyph-name="quoteright" unicode="&#x2019;" horiz-adv-x="419" 
d="M102 1085l41 349h174l-81 -349h-134z" />
    <glyph glyph-name="quotesinglbase" unicode="&#x201a;" horiz-adv-x="419" 
d="M92 -164l41 348h174l-82 -348h-133z" />
    <glyph glyph-name="quotedblleft" unicode="&#x201c;" horiz-adv-x="706" 
d="M102 1085l82 349h133l-41 -349h-174zM389 1085l82 349h133l-41 -349h-174z" />
    <glyph glyph-name="quotedblright" unicode="&#x201d;" horiz-adv-x="706" 
d="M102 1085l41 349h174l-81 -349h-134zM389 1085l41 349h174l-82 -349h-133z" />
    <glyph glyph-name="quotedblbase" unicode="&#x201e;" horiz-adv-x="706" 
d="M92 -164l41 348h174l-82 -348h-133zM379 -164l41 348h174l-82 -348h-133z" />
    <glyph glyph-name="dagger" unicode="&#x2020;" horiz-adv-x="931" 
d="M389 0v952h-297v144h297v338h154v-338h297v-144h-297v-952h-154z" />
    <glyph glyph-name="daggerdbl" unicode="&#x2021;" horiz-adv-x="931" 
d="M389 0v410h-297v143h297v399h-297v144h297v338h154v-338h297v-144h-297v-399h297v-143h-297v-410h-154z" />
    <glyph glyph-name="bullet" unicode="&#x2022;" horiz-adv-x="901" 
d="M246 553q0 86 59.5 145.5t145.5 59.5t145 -59.5t59 -145.5t-59 -145.5t-145 -59.5t-145.5 59.5t-59.5 145.5z" />
    <glyph glyph-name="ellipsis" unicode="&#x2026;" horiz-adv-x="1331" 
d="M123 0v184h184v-184h-184zM573 0v184h185v-184h-185zM1024 0v184h184v-184h-184z" />
    <glyph glyph-name="perthousand" unicode="&#x2030;" horiz-adv-x="2324" 
d="M256 0l891 1434h164l-891 -1434h-164zM82 1137q0 137 93 227t224 90q132 0 225 -90t93 -227t-93.5 -227.5t-224.5 -90.5t-224 90.5t-93 227.5zM399 952q72 0 123 51t51 134t-51 133.5t-123 50.5t-123 -50.5t-51 -133.5t51 -134t123 -51zM850 297q0 137 93 227t224 90
q132 0 225 -90t93 -227t-93 -227t-225 -90q-131 0 -224 90t-93 227zM1167 113q72 0 123 50.5t51 133.5t-51 133.5t-123 50.5t-123 -50.5t-51 -133.5t51 -133.5t123 -50.5zM1608 297q0 137 93 227t224 90q132 0 225 -90t93 -227t-93 -227t-225 -90q-131 0 -224 90t-93 227z
M1925 113q72 0 123 50.5t51 133.5t-51 133.5t-123 50.5t-123 -50.5t-51 -133.5t51 -133.5t123 -50.5z" />
    <glyph glyph-name="guilsinglleft" unicode="&#x2039;" horiz-adv-x="634" 
d="M379 113l-287 399l287 399h164l-287 -399l287 -399h-164z" />
    <glyph glyph-name="guilsinglright" unicode="&#x203a;" horiz-adv-x="634" 
d="M92 113l287 399l-287 399h164l287 -399l-287 -399h-164z" />
    <glyph glyph-name="uni203D" unicode="&#x203d;" horiz-adv-x="1034" 
d="M410 328v960q-90 -23 -142.5 -87.5t-52.5 -145.5h-164q0 170 126.5 284.5t324.5 114.5t324 -120t126 -300q0 -262 -235 -379q-81 -40 -111.5 -83.5t-32.5 -102.5v-141h-163zM573 1292v-549q10 8 32 19t30 16q153 76 153 256q0 98 -59 168t-156 90zM399 0v184h185v-184
h-185z" />
    <glyph glyph-name="fraction" unicode="&#x2044;" horiz-adv-x="337" 
d="M-348 0l891 1434h143l-891 -1434h-143z" />
    <glyph glyph-name="uni2070" unicode="&#x2070;" horiz-adv-x="716" 
d="M358 891q-127 0 -206.5 99t-79.5 280t79.5 280t206.5 99t207 -99t80 -280q0 -180 -80 -279.5t-207 -99.5zM358 1004q68 0 116 67.5t48 198.5q0 128 -48.5 197t-115.5 69t-115 -69t-48 -197q0 -131 47.5 -198.5t115.5 -67.5z" />
    <glyph glyph-name="uni2074" unicode="&#x2074;" horiz-adv-x="655" 
d="M31 1055v102l276 481h185v-471h102v-112h-102v-154h-123v154h-338zM184 1167h185v308h-21l-164 -297v-11z" />
    <glyph glyph-name="uni2075" unicode="&#x2075;" horiz-adv-x="686" 
d="M72 1106h123q33 -102 143 -102q62 0 102.5 41t40.5 102q0 67 -40 105t-103 38q-47 0 -79.5 -16.5t-63.5 -54.5h-113l41 419h440v-112h-327l-21 -164h10q31 24 58.5 32.5t74.5 8.5q102 0 174 -71.5t72 -184.5q0 -110 -73 -183t-193 -73q-114 0 -181 56.5t-85 158.5z" />
    <glyph glyph-name="uni2076" unicode="&#x2076;" horiz-adv-x="706" 
d="M133 1311l205 327h133l-164 -256h10l19 4q3 0 18.5 3.5t24.5 3.5q101 0 173.5 -69t72.5 -171q0 -113 -76 -187.5t-191 -74.5t-190.5 74t-75.5 182q0 97 41 164zM358 1004q62 0 103 41t41 102t-41 102t-103 41t-102.5 -41t-40.5 -102t40.5 -102t102.5 -41z" />
    <glyph glyph-name="uni2077" unicode="&#x2077;" horiz-adv-x="604" 
d="M184 901l262 625h-344v112h471v-102l-266 -635h-123z" />
    <glyph glyph-name="uni2078" unicode="&#x2078;" horiz-adv-x="696" 
d="M195 1280v10q-23 10 -48 35q-45 49 -45 119q0 87 69 146t177 59t177 -59t69 -146q0 -68 -47 -119q-25 -25 -45 -35v-10q32 -18 51 -37q51 -55 51 -137q0 -89 -71.5 -152t-184.5 -63t-184.5 63t-71.5 152q0 86 51 137q18 18 52 37zM225 1434q0 -51 35.5 -77t87.5 -26
t87.5 26t35.5 77t-35.5 76.5t-87.5 25.5t-87.5 -25.5t-35.5 -76.5zM215 1116q0 -48 36.5 -80t96.5 -32t96.5 32t36.5 80t-36.5 80.5t-96.5 32.5t-96.5 -32.5t-36.5 -80.5z" />
    <glyph glyph-name="uni2079" unicode="&#x2079;" horiz-adv-x="665" 
d="M236 901l163 256h-10l-18 -6q-28 -4 -43 -4q-101 0 -173.5 69t-72.5 170q0 113 75.5 188t190.5 75t190.5 -74t75.5 -182q0 -97 -41 -164l-204 -328h-133zM348 1249q62 0 103 41.5t41 102.5t-41 102t-103 41t-102.5 -41t-40.5 -102q0 -62 41 -103t102 -41z" />
    <glyph glyph-name="uni2080" unicode="&#x2080;" horiz-adv-x="716" 
d="M358 -215q-127 0 -206.5 99t-79.5 280t79.5 280t206.5 99t207 -99.5t80 -279.5t-80 -279.5t-207 -99.5zM358 -102q68 0 116 67.5t48 198.5q0 128 -48.5 197t-115.5 69t-115 -69t-48 -197q0 -131 47.5 -198.5t115.5 -67.5z" />
    <glyph glyph-name="uni2081" unicode="&#x2081;" horiz-adv-x="522" 
d="M246 -205v533h-174v112h112q62 0 62 62v30h123v-737h-123z" />
    <glyph glyph-name="uni2082" unicode="&#x2082;" horiz-adv-x="686" 
d="M113 -205v103l286 297q33 33 47.5 59.5t14.5 62.5q0 49 -30.5 81t-82.5 32q-56 0 -89.5 -31.5t-33.5 -91.5h-123q0 101 69 168.5t177 67.5t172 -62.5t64 -163.5q0 -64 -23 -105t-80 -99l-184 -195v-10h297v-113h-481z" />
    <glyph glyph-name="uni2083" unicode="&#x2083;" horiz-adv-x="686" 
d="M92 0h123q0 -40 35.5 -71t87.5 -31q55 0 89 29.5t34 82.5q0 54 -35.5 83.5t-97.5 29.5h-52v113h52q60 0 91.5 27t31.5 75q0 40 -30.5 66t-82.5 26t-82.5 -26t-30.5 -66h-123q0 88 64.5 146.5t171.5 58.5q106 0 170.5 -58.5t64.5 -146.5q0 -47 -27.5 -89t-74.5 -65v-10
q50 -18 81.5 -61.5t31.5 -102.5q0 -96 -66.5 -160.5t-179.5 -64.5q-106 0 -176 61.5t-70 153.5z" />
    <glyph glyph-name="uni2084" unicode="&#x2084;" horiz-adv-x="655" 
d="M31 -51v102l276 481h185v-471h102v-112h-102v-154h-123v154h-338zM184 61h185v308h-21l-164 -297v-11z" />
    <glyph glyph-name="uni2085" unicode="&#x2085;" horiz-adv-x="686" 
d="M72 0h123q33 -102 143 -102q62 0 102.5 41t40.5 102q0 67 -40 105t-103 38q-47 0 -79.5 -16.5t-63.5 -54.5h-113l41 419h440v-112h-327l-21 -164h10q31 24 58.5 32.5t74.5 8.5q102 0 174 -71.5t72 -184.5q0 -110 -73 -183t-193 -73q-114 0 -181 56.5t-85 158.5z" />
    <glyph glyph-name="uni2086" unicode="&#x2086;" horiz-adv-x="706" 
d="M133 205l205 327h133l-164 -256h10l19 5q42 6 43 6q101 0 173.5 -69t72.5 -171q0 -113 -76 -187.5t-191 -74.5t-190.5 74t-75.5 182q0 97 41 164zM358 -102q62 0 103 41t41 102t-41 102t-103 41t-102.5 -41t-40.5 -102t40.5 -102t102.5 -41z" />
    <glyph glyph-name="uni2087" unicode="&#x2087;" horiz-adv-x="604" 
d="M184 -205l262 625h-344v112h471v-102l-266 -635h-123z" />
    <glyph glyph-name="uni2088" unicode="&#x2088;" horiz-adv-x="696" 
d="M195 174v10q-23 10 -48 35q-45 49 -45 119q0 87 69 146t177 59t177 -59t69 -146q0 -68 -47 -119q-25 -25 -45 -35v-10q32 -17 51 -37q51 -55 51 -137q0 -89 -71.5 -152t-184.5 -63t-184.5 63t-71.5 152q0 86 51 137q18 18 52 37zM225 328q0 -51 35.5 -77t87.5 -26
t87.5 26t35.5 77t-35.5 76.5t-87.5 25.5t-87.5 -25.5t-35.5 -76.5zM215 10q0 -48 36.5 -80t96.5 -32t96.5 32t36.5 80t-36.5 80.5t-96.5 32.5t-96.5 -32.5t-36.5 -80.5z" />
    <glyph glyph-name="uni2089" unicode="&#x2089;" horiz-adv-x="665" 
d="M236 -205l163 256h-10l-18 -6q-28 -4 -43 -4q-101 0 -173.5 69t-72.5 171q0 113 75.5 187.5t190.5 74.5t190.5 -74t75.5 -182q0 -97 -41 -164l-204 -328h-133zM348 143q62 0 103 41.5t41 102.5t-41 102t-103 41t-102.5 -41t-40.5 -102q0 -62 41 -103t102 -41z" />
    <glyph glyph-name="uni20A9" unicode="&#x20a9;" horiz-adv-x="2027" 
d="M440 0l-102 461h-266v153h233l-45 205h-188v154h153l-102 461h174l98 -461h391l105 461h246l104 -461h391l99 461h174l-103 -461h154v-154h-189l-45 -205h234v-153h-266l-103 -461h-287l-104 461h-365l-104 -461h-287zM1323 614h233l43 205h-323zM471 614h234l47 205
h-324zM864 614h299l-45 205h-209zM563 174h41l66 287h-166zM1423 174h41l60 287h-166zM944 973h139l-49 225h-41z" />
    <glyph glyph-name="Euro" unicode="&#x20ac;" horiz-adv-x="1454" 
d="M51 492v143h185v164h-185v143h205q37 146 126.5 260t232.5 183t317 69q142 0 229.5 -24t200.5 -78v-154q-113 54 -200.5 78t-229.5 24q-192 0 -318.5 -97.5t-183.5 -260.5h645v-143h-665v-164h665v-143h-645q55 -164 183 -261.5t319 -97.5q141 0 228.5 24t201.5 79v-154
q-113 -54 -200.5 -78t-229.5 -24q-260 0 -440.5 144t-235.5 368h-205z" />
    <glyph glyph-name="uni20B4" unicode="&#x20b4;" horiz-adv-x="1310" 
d="M102 799v143h768q11 11 31 39q31 55 31 115q0 82 -76 143t-201 61q-139 0 -216 -56.5t-91 -147.5h-164q18 160 140 259t331 99q194 0 317.5 -102.5t123.5 -245.5q0 -61 -27 -121q-9 -24 -25 -43h164v-143h-1106zM102 492v143h1106v-143h-768q-15 -12 -30 -39
q-31 -52 -31 -115q0 -83 75.5 -144t200.5 -61q140 0 216 56.5t92 148.5h163q-18 -160 -140 -259t-331 -99q-194 0 -317 102.5t-123 245.5q0 66 25 121q8 21 26 43h-164z" />
    <glyph glyph-name="uni20B8" unicode="&#x20b8;" horiz-adv-x="1208" 
d="M522 0v963h-471v153h1106v-153h-471v-963h-164zM51 1280v154h1106v-154h-1106z" />
    <glyph glyph-name="uni20B9" unicode="&#x20b9;" horiz-adv-x="1126" 
d="M82 553v154h461q91 0 151 56.5t84 158.5h-696v153h696q-24 95 -84.5 150t-150.5 55h-461v154h983v-154h-215q33 -42 43 -59q41 -69 49 -146h123v-153h-123q-25 -164 -132.5 -266.5t-266.5 -102.5h-133l573 -553h-205l-573 553h-123z" />
    <glyph glyph-name="uni20BA" unicode="&#x20ba;" horiz-adv-x="1208" 
d="M256 0v580l-184 -68v154l184 67v164l-184 -68v154l184 68v383h164v-324l348 129v-154l-348 -129v-163l348 129v-154l-348 -129v-485q135 0 233 15.5t163.5 44t104.5 76t55.5 105.5t16.5 137h164q0 -135 -38 -231.5t-123.5 -165t-228 -102t-347.5 -33.5h-164z" />
    <glyph glyph-name="uni20BD" unicode="&#x20bd;" horiz-adv-x="1331" 
d="M236 0v287h-185v143h185v164h-185v154h185v686h604q169 0 284 -118.5t115 -301.5t-115 -301.5t-284 -118.5h-441v-164h441v-143h-441v-287h-163zM399 748h441q102 0 168.5 72.5t66.5 193.5t-66.5 193.5t-168.5 72.5h-441v-532z" />
    <glyph glyph-name="uni20BF" unicode="&#x20bf;" horiz-adv-x="1310" 
d="M164 0v1434h225v225h154v-225h153v225h154v-236q136 -26 226.5 -130t90.5 -259q0 -136 -77 -233q-34 -43 -76 -74v-10q48 -26 86 -70q88 -100 88 -248q0 -162 -95.5 -267.5t-242.5 -131.5v-225h-154v225h-153v-225h-154v225h-225zM328 788h450q90 0 158 67t68 179
q0 104 -67 175t-159 71h-450v-492zM328 154h471q92 0 158.5 70.5t66.5 174.5t-66.5 175t-158.5 71h-471v-491z" />
    <glyph glyph-name="uni2113" unicode="&#x2113;" horiz-adv-x="829" 
d="M41 451v143q77 0 135 14q42 14 49 17v532q0 145 68 221t188 76q126 0 196.5 -79.5t70.5 -237.5q0 -195 -102 -355.5t-267 -249.5v-266q0 -67 40 -105t103 -38q40 0 80 14l33 17v-144q-6 -3 -20.5 -8.5t-18.5 -7.5q-44 -14 -94 -14q-132 0 -204.5 74t-72.5 212v215
q-9 -3 -27 -8t-26 -8q-58 -14 -131 -14zM379 1143v-447q101 62 158 178t57 263q0 88 -31 131t-82 43q-50 0 -76 -38t-26 -130z" />
    <glyph glyph-name="uni2116" unicode="&#x2116;" horiz-adv-x="2181" 
d="M1454 0v143h614v-143h-614zM1444 604q0 137 93 227.5t224 90.5t224.5 -90.5t93.5 -227.5t-93 -227t-225 -90q-131 0 -224 90t-93 227zM1761 420q72 0 123 50.5t51 133.5t-51 133.5t-123 50.5t-123 -50.5t-51 -133.5t51 -133.5t123 -50.5zM164 0v1434h287l614 -1239h41
v1239h164v-1434h-287l-614 1239h-41v-1239h-164z" />
    <glyph glyph-name="uni2117" unicode="&#x2117;" horiz-adv-x="1720" 
d="M625 338v768h338q107 0 181.5 -74.5t74.5 -181.5t-74.5 -181.5t-181.5 -74.5h-205v-256h-133zM758 717h205q55 0 88.5 36t33.5 97t-33.5 97t-88.5 36h-205v-266zM123 717q0 155 56.5 292t154 234.5t234.5 154t292 56.5t292 -56.5t234.5 -154t154 -234.5t56.5 -292
t-56.5 -292t-154 -234.5t-234.5 -154t-292 -56.5t-292 56.5t-234.5 154t-154 234.5t-56.5 292zM860 113q163 0 298.5 77t215.5 216.5t80 310.5t-80 310.5t-215.5 216.5t-298.5 77t-298.5 -77t-215.5 -216.5t-80 -310.5t80 -310.5t215.5 -216.5t298.5 -77z" />
    <glyph glyph-name="trademark" unicode="&#x2122;" horiz-adv-x="1505" 
d="M236 819v502h-195v113h502v-113h-195v-502h-112zM655 819v615h205l154 -461h20l154 461h205v-615h-113v492h-20l-164 -492h-144l-164 492h-20v-492h-113z" />
    <glyph glyph-name="uni2126" unicode="&#x2126;" horiz-adv-x="1679" 
d="M184 0v154h267l-44 28q-147 107 -223 272q-60 131 -61 283q0 206 93.5 370t257 255.5t366.5 91.5t366.5 -91.5t256.5 -255.5t93 -370q-1 -278 -194 -477q-72 -73 -133 -106h266v-154h-512v154q121 52 205 131q205 181 205 452q0 245 -157 404t-396 159t-396 -159
t-157 -404q0 -271 205 -452q85 -79 204 -131v-154h-512z" />
    <glyph glyph-name="estimated" unicode="&#x212e;" horiz-adv-x="1740" 
d="M451 778h860v441q-180 163 -430 163t-430 -163v-441zM451 707v-488q51 -48 116 -84q148 -84 334 -84q243 0 428 154q87 71 146 153l61 -51q-75 -98 -164 -164q-217 -163 -471 -163q-158 0 -299 58t-241.5 156.5t-159 235t-58.5 287.5q0 202 98.5 371.5t268 267.5
t371.5 98q151 0 287.5 -58t235 -156.5t156.5 -235t58 -287.5v-10h-1167z" />
    <glyph glyph-name="uni2150" unicode="&#x2150;" horiz-adv-x="1320" 
d="M113 0l891 1434h143l-891 -1434h-143zM256 696v533h-174v112h113q61 0 61 62v31h123v-738h-123zM901 0l262 625h-344v112h471v-102l-266 -635h-123z" />
    <glyph glyph-name="uni2151" unicode="&#x2151;" horiz-adv-x="1361" 
d="M113 0l891 1434h143l-891 -1434h-143zM256 696v533h-174v112h113q61 0 61 62v31h123v-738h-123zM932 0l164 256h-11l-18 -6q-28 -4 -43 -4q-101 0 -173.5 69t-72.5 170q0 113 75.5 188t190.5 75t191 -74t76 -182q0 -97 -41 -164l-205 -328h-133zM1044 348q62 0 103 41
t41 103q0 61 -41 102t-103 41t-102.5 -40.5t-40.5 -102.5t41 -103t102 -41z" />
    <glyph glyph-name="uni2152" unicode="&#x2152;" horiz-adv-x="1894" 
d="M113 0l891 1434h143l-891 -1434h-143zM256 696v533h-174v112h113q61 0 61 62v31h123v-738h-123zM983 0v532h-174v113h113q61 0 61 62v30h123v-737h-123zM1536 -10q-127 0 -207 99.5t-80 279.5q0 181 80 280t207 99t207 -99t80 -280q0 -180 -80 -279.5t-207 -99.5z
M1536 102q68 0 116 68t48 199q0 128 -48.5 197t-115.5 69t-115.5 -69t-48.5 -197q0 -131 48 -199t116 -68z" />
    <glyph glyph-name="onethird" unicode="&#x2153;" horiz-adv-x="1413" 
d="M113 0l891 1434h143l-891 -1434h-143zM256 696v533h-174v112h113q61 0 61 62v31h123v-738h-123zM799 205h123q0 -40 35 -71.5t87 -31.5q55 0 89 30t34 83q0 54 -35.5 83.5t-97.5 29.5h-51v112h51q60 0 91.5 27.5t31.5 75.5q0 40 -30.5 66t-82.5 26t-82 -26t-30 -66h-123
q0 88 64.5 146.5t170.5 58.5q107 0 171.5 -58.5t64.5 -146.5q0 -47 -27.5 -89t-74.5 -65v-10q49 -18 80.5 -61.5t31.5 -102.5q0 -96 -66.5 -160.5t-179.5 -64.5q-106 0 -175.5 61.5t-69.5 153.5z" />
    <glyph glyph-name="twothirds" unicode="&#x2154;" horiz-adv-x="1566" 
d="M266 0l891 1434h143l-890 -1434h-144zM92 696v103l287 297q33 33 47 60t14 63q0 49 -30 80.5t-82 31.5q-56 0 -89.5 -31.5t-33.5 -91.5h-123q0 101 69 168.5t177 67.5t171.5 -62t63.5 -163q0 -64 -23 -105.5t-79 -99.5l-185 -195v-10h297v-113h-481zM952 205h123
q0 -40 35.5 -71.5t87.5 -31.5q55 0 89 30t34 83q0 54 -35.5 83.5t-97.5 29.5h-51v112h51q60 0 91.5 27.5t31.5 75.5q0 40 -30.5 66t-82.5 26t-82.5 -26t-30.5 -66h-122q0 88 64.5 146.5t170.5 58.5q107 0 171.5 -58.5t64.5 -146.5q0 -47 -28 -89t-75 -65v-10
q50 -18 81.5 -61.5t31.5 -102.5q0 -96 -66.5 -160.5t-179.5 -64.5q-106 0 -176 61.5t-70 153.5z" />
    <glyph glyph-name="uni2155" unicode="&#x2155;" horiz-adv-x="1413" 
d="M113 0l891 1434h143l-891 -1434h-143zM256 696v533h-174v112h113q61 0 61 62v31h123v-738h-123zM799 205h123q33 -103 143 -103q61 0 102 41t41 103q0 67 -40 105t-103 38q-47 0 -79.5 -16.5t-63.5 -55.5h-113l41 420h440v-112h-327l-21 -164h10q31 24 58.5 32.5
t74.5 8.5q102 0 174 -71.5t72 -184.5q0 -110 -73 -183t-193 -73q-114 0 -181 56.5t-85 158.5z" />
    <glyph glyph-name="uni2156" unicode="&#x2156;" horiz-adv-x="1566" 
d="M266 0l891 1434h143l-890 -1434h-144zM92 696v103l287 297q33 33 47 60t14 63q0 49 -30 80.5t-82 31.5q-56 0 -89.5 -31.5t-33.5 -91.5h-123q0 101 69 168.5t177 67.5t171.5 -62t63.5 -163q0 -64 -23 -105.5t-79 -99.5l-185 -195v-10h297v-113h-481zM952 205h123
q33 -103 144 -103q61 0 102 41t41 103q0 67 -40 105t-103 38q-47 0 -80 -16.5t-64 -55.5h-112l41 420h440v-112h-328l-20 -164h10q31 24 58.5 32.5t74.5 8.5q102 0 174 -71.5t72 -184.5q0 -110 -73 -183t-193 -73q-114 0 -181.5 56.5t-85.5 158.5z" />
    <glyph glyph-name="uni2157" unicode="&#x2157;" horiz-adv-x="1546" 
d="M246 0l891 1434h143l-891 -1434h-143zM82 901h123q0 -40 35.5 -71t87.5 -31q55 0 89 29.5t34 82.5t-36 83t-98 30h-51v113h51q60 0 91.5 27t31.5 75q0 40 -30 66t-82 26t-82.5 -26t-30.5 -66h-123q0 88 64.5 146.5t171.5 58.5q106 0 170.5 -58.5t64.5 -146.5
q0 -47 -27.5 -89t-74.5 -65v-10q49 -18 80.5 -61.5t31.5 -102.5q0 -96 -66 -160.5t-179 -64.5q-106 0 -176 61.5t-70 153.5zM932 205h123q33 -103 143 -103q61 0 102 41t41 103q0 67 -40 105t-103 38q-47 0 -79.5 -16.5t-63.5 -55.5h-113l41 420h440v-112h-327l-21 -164h10
q31 24 59 32.5t75 8.5q102 0 173.5 -71.5t71.5 -184.5q0 -110 -73 -183t-193 -73q-114 0 -181 56.5t-85 158.5z" />
    <glyph glyph-name="uni2158" unicode="&#x2158;" horiz-adv-x="1525" 
d="M225 0l891 1434h144l-891 -1434h-144zM31 850v102l276 482h185v-471h102v-113h-102v-154h-123v154h-338zM184 963h185v307h-21l-164 -297v-10zM911 205h123q33 -103 144 -103q61 0 102 41t41 103q0 67 -40 105t-103 38q-47 0 -80 -16.5t-64 -55.5h-112l41 420h440v-112
h-328l-20 -164h10q31 24 58.5 32.5t74.5 8.5q102 0 174 -71.5t72 -184.5q0 -110 -73 -183t-193 -73q-114 0 -181.5 56.5t-85.5 158.5z" />
    <glyph glyph-name="uni2159" unicode="&#x2159;" horiz-adv-x="1351" 
d="M113 0l891 1434h143l-891 -1434h-143zM256 696v533h-174v112h113q61 0 61 62v31h123v-738h-123zM768 410l205 327h133l-164 -256h10l19 4q3 0 18.5 3.5t24.5 3.5q101 0 173.5 -69t72.5 -171q0 -113 -76 -187.5t-191 -74.5t-190.5 74t-75.5 182q0 97 41 164zM993 102
q61 0 102.5 41t41.5 103q0 61 -41 102t-103 41q-61 0 -102 -40.5t-41 -102.5t41 -103t102 -41z" />
    <glyph glyph-name="uni215A" unicode="&#x215a;" horiz-adv-x="1515" 
d="M276 0l891 1434h144l-891 -1434h-144zM92 901h123q33 -102 143 -102q62 0 103 41t41 102q0 67 -40.5 105t-103.5 38q-47 0 -79.5 -16.5t-63.5 -54.5h-113l41 420h441v-113h-328l-20 -164h10q31 24 58.5 32.5t74.5 8.5q102 0 174 -71.5t72 -184.5q0 -110 -73.5 -183
t-193.5 -73q-114 0 -181 56.5t-85 158.5zM932 410l205 327h133l-164 -256h10l19 4q3 0 18.5 3.5t24.5 3.5q101 0 173 -69t72 -171q0 -113 -75.5 -187.5t-190.5 -74.5t-190.5 74t-75.5 182q0 97 41 164zM1157 102q61 0 102 41t41 103t-41 102.5t-102 40.5t-102 -40.5
t-41 -102.5t41 -103t102 -41z" />
    <glyph glyph-name="oneeighth" unicode="&#x215b;" horiz-adv-x="1392" 
d="M113 0l891 1434h143l-891 -1434h-143zM256 696v533h-174v112h113q61 0 61 62v31h123v-738h-123zM891 379v10q-22 10 -47 35q-45 49 -45 119q0 87 69 146t176 59q108 0 177 -59t69 -146q0 -68 -47 -119q-25 -25 -45 -35v-10q31 -17 51 -37q51 -55 51 -137
q0 -89 -71.5 -152t-184.5 -63t-184.5 63t-71.5 152q0 85 52 137q20 20 51 37zM922 532q0 -51 35 -76.5t87 -25.5t87.5 25.5t35.5 76.5t-35.5 77t-87.5 26t-87 -26t-35 -77zM911 215q0 -48 36.5 -80.5t96.5 -32.5t97 32.5t37 80.5t-37 80.5t-97 32.5t-96.5 -32.5t-36.5 -80.5
z" />
    <glyph glyph-name="threeeighths" unicode="&#x215c;" horiz-adv-x="1525" 
d="M246 0l891 1434h143l-891 -1434h-143zM82 901h123q0 -40 35.5 -71t87.5 -31q55 0 89 29.5t34 82.5t-36 83t-98 30h-51v113h51q60 0 91.5 27t31.5 75q0 40 -30 66t-82 26t-82.5 -26t-30.5 -66h-123q0 88 64.5 146.5t171.5 58.5q106 0 170.5 -58.5t64.5 -146.5
q0 -47 -27.5 -89t-74.5 -65v-10q49 -18 80.5 -61.5t31.5 -102.5q0 -96 -66 -160.5t-179 -64.5q-106 0 -176 61.5t-70 153.5zM1024 377v10q-22 10 -47 35q-45 49 -45 119q0 87 69 145.5t177 58.5t176.5 -58.5t68.5 -145.5q0 -68 -47 -119q-25 -25 -45 -35v-10q32 -18 51 -37
q52 -56 52 -137q0 -89 -71.5 -152t-184.5 -63t-184.5 63t-71.5 152q0 86 51 137q19 20 51 37zM1055 530q0 -51 35.5 -76.5t87.5 -25.5t87 25.5t35 76.5t-35 77t-87 26t-87.5 -26t-35.5 -77zM1044 213q0 -48 37 -80.5t97 -32.5t96.5 32.5t36.5 80.5t-36.5 80.5t-96.5 32.5
t-97 -32.5t-37 -80.5z" />
    <glyph glyph-name="fiveeighths" unicode="&#x215d;" horiz-adv-x="1556" 
d="M276 0l891 1434h144l-891 -1434h-144zM92 901h123q33 -102 143 -102q62 0 103 41t41 102q0 67 -40.5 105t-103.5 38q-47 0 -79.5 -16.5t-63.5 -54.5h-113l41 420h441v-113h-328l-20 -164h10q31 24 58.5 32.5t74.5 8.5q102 0 174 -71.5t72 -184.5q0 -110 -73.5 -183
t-193.5 -73q-114 0 -181 56.5t-85 158.5zM1055 377v10q-22 10 -47 35q-45 49 -45 119q0 87 68.5 145.5t176.5 58.5t177 -58.5t69 -145.5q0 -68 -47 -119q-25 -25 -45 -35v-10q32 -18 51 -37q51 -55 51 -137q0 -89 -71.5 -152t-184.5 -63t-184.5 63t-71.5 152q0 85 52 137
q20 20 51 37zM1085 530q0 -51 35.5 -76.5t87.5 -25.5t87.5 25.5t35.5 76.5t-35.5 77t-87.5 26t-87.5 -26t-35.5 -77zM1075 213q0 -48 36.5 -80.5t96.5 -32.5t96.5 32.5t36.5 80.5t-36.5 80.5t-96.5 32.5t-96.5 -32.5t-36.5 -80.5z" />
    <glyph glyph-name="seveneighths" unicode="&#x215e;" horiz-adv-x="1392" 
d="M113 0l891 1434h143l-891 -1434h-143zM164 696l262 625h-344v113h471v-103l-266 -635h-123zM891 377v10q-22 10 -47 35q-45 49 -45 119q0 87 68.5 145.5t176.5 58.5t177 -58.5t69 -145.5q0 -68 -47 -119q-25 -25 -45 -35v-10q31 -18 51 -37q51 -55 51 -137
q0 -89 -71.5 -152t-184.5 -63t-184.5 63t-71.5 152q0 85 52 137q20 20 51 37zM922 530q0 -51 35 -76.5t87 -25.5t87.5 25.5t35.5 76.5t-35.5 77t-87.5 26t-87 -26t-35 -77zM911 213q0 -48 36.5 -80.5t96.5 -32.5t97 32.5t37 80.5t-37 80.5t-97 32.5t-96.5 -32.5t-36.5 -80.5
z" />
    <glyph glyph-name="uni215F" unicode="&#x215f;" horiz-adv-x="737" 
d="M113 0l891 1434h143l-891 -1434h-143zM256 696v533h-174v112h113q61 0 61 62v31h123v-738h-123z" />
    <glyph glyph-name="arrowleft" unicode="&#x2190;" horiz-adv-x="2048" 
d="M307 696v41l369 369h174v-21l-287 -286v-11h1178v-143h-1178v-10l287 -287v-20h-174z" />
    <glyph glyph-name="arrowup" unicode="&#x2191;" horiz-adv-x="2048" 
d="M946 0v1167h-10l-287 -286h-20v174l379 379h30l379 -379v-174h-20l-287 286h-10v-1167h-154z" />
    <glyph glyph-name="arrowright" unicode="&#x2192;" horiz-adv-x="2048" 
d="M307 645v143h1178v11l-287 286v21h174l369 -369v-41l-369 -368h-174v20l287 287v10h-1178z" />
    <glyph glyph-name="arrowdown" unicode="&#x2193;" horiz-adv-x="2048" 
d="M1008 0l-379 379v174h20l287 -287h10v1168h154v-1168h10l287 287h20v-174l-379 -379h-30z" />
    <glyph glyph-name="uni2196" unicode="&#x2196;" horiz-adv-x="2048" 
d="M492 696v533l20 20h532l123 -123l-10 -10h-409l-11 -10l819 -819l-102 -103l-819 820l-10 -11v-409l-11 -11z" />
    <glyph glyph-name="uni2197" unicode="&#x2197;" horiz-adv-x="2048" 
d="M492 287l819 819l-11 10h-409l-10 10l123 123h532l20 -20v-533l-122 -123l-11 11v409l-10 11l-819 -820z" />
    <glyph glyph-name="uni2198" unicode="&#x2198;" horiz-adv-x="2048" 
d="M881 307l10 10h409l11 11l-819 819l102 102l819 -819l10 10v410l11 10l122 -123v-532l-20 -21h-532z" />
    <glyph glyph-name="uni2199" unicode="&#x2199;" horiz-adv-x="2048" 
d="M492 205v532l122 123l11 -10v-410l10 -10l819 819l102 -102l-819 -819l11 -11h409l10 -10l-123 -123h-532z" />
    <glyph glyph-name="partialdiff" unicode="&#x2202;" horiz-adv-x="1167" 
d="M328 1208h-154q23 100 123 173t246 73q107 0 194 -42.5t154.5 -131t105 -237t37.5 -347.5q0 -188 -36 -328t-102.5 -223.5t-154.5 -124t-198 -40.5q-180 0 -305 131t-125 329t127 329.5t313 131.5q128 0 240 -67q45 -26 77 -66h11q0 277 -95.5 410t-253.5 133
q-81 0 -125.5 -25.5t-78.5 -77.5zM553 123q138 0 227.5 118.5t89.5 352.5q-34 46 -79 82q-110 82 -228 82q-132 0 -214.5 -86t-82.5 -232q0 -137 84.5 -227t202.5 -90z" />
    <glyph glyph-name="emptyset" unicode="&#x2205;" horiz-adv-x="1720" 
d="M143 -10l187 219q-187 213 -187 508q0 212 93.5 381t257 262.5t366.5 93.5q236 0 420 -129l102 119h195l-186 -219q186 -208 186 -508q0 -212 -93.5 -381t-257 -262.5t-366.5 -93.5q-240 0 -420 129l-102 -119h-195zM1286 1104l-743 -875q137 -96 317 -96
q240 0 396.5 162t156.5 422q0 228 -127 387zM434 330l744 874q-134 96 -318 96q-240 0 -396.5 -161.5t-156.5 -421.5q0 -228 127 -387z" />
    <glyph glyph-name="uni2206" unicode="&#x2206;" horiz-adv-x="1392" 
d="M72 0l522 1434h205l522 -1434h-1249zM297 154h799l-400 1106z" />
    <glyph glyph-name="product" unicode="&#x220f;" horiz-adv-x="1525" 
d="M225 -225v1659h1075v-1659h-163v1505h-748v-1505h-164z" />
    <glyph glyph-name="summation" unicode="&#x2211;" horiz-adv-x="1228" 
d="M143 -225v133l471 747l-471 666v133h983v-154h-778l461 -645l-461 -727h778v-153h-983z" />
    <glyph glyph-name="minus" unicode="&#x2212;" horiz-adv-x="1095" 
d="M102 522v144h891v-144h-891z" />
    <glyph glyph-name="radical" unicode="&#x221a;" horiz-adv-x="1290" 
d="M461 -225l-164 522h-256v154h369l143 -502h41l502 1710h164l-574 -1884h-225z" />
    <glyph glyph-name="infinity" unicode="&#x221e;" horiz-adv-x="1638" 
d="M819 614q-163 -204 -348 -204q-145 0 -236.5 88t-91.5 219q0 132 91 219.5t237 87.5q184 0 348 -205q164 205 348 205q146 0 237 -87.5t91 -219.5t-91 -219.5t-237 -87.5q-185 0 -348 204zM727 717q-56 81 -122.5 127.5t-133.5 46.5q-85 0 -134.5 -47.5t-49.5 -126.5
t49.5 -126.5t134.5 -47.5q67 0 133.5 46.5t122.5 127.5zM911 717q56 -81 122.5 -127.5t133.5 -46.5q85 0 135 47.5t50 126.5t-50 126.5t-135 47.5q-67 0 -133.5 -46.5t-122.5 -127.5z" />
    <glyph glyph-name="integral" unicode="&#x222b;" horiz-adv-x="798" 
d="M113 -225v133h61q79 0 116.5 41.5t37.5 132.5v1270q0 167 68 237t229 70h61v-133h-61q-79 0 -116.5 -41.5t-37.5 -132.5v-1270q0 -167 -68 -237t-229 -70h-61z" />
    <glyph glyph-name="approxequal" unicode="&#x2248;" horiz-adv-x="1157" 
d="M246 604h-154q7 146 86 226.5t211 80.5q63 0 120 -25.5t92.5 -56t80.5 -56t86 -25.5q129 0 143 163h154q-7 -146 -86 -226.5t-211 -80.5q-51 0 -97.5 17t-81 41t-66 48t-66 41t-68.5 17q-129 0 -143 -164zM246 215h-154q7 146 86 226.5t211 80.5q51 0 97.5 -17t81 -41
t66 -48t66 -41t68.5 -17q129 0 143 164h154q-7 -146 -86 -226.5t-211 -80.5q-51 0 -97.5 17t-81 41t-66 48t-66 41t-68.5 17q-129 0 -143 -164z" />
    <glyph glyph-name="notequal" unicode="&#x2260;" horiz-adv-x="1075" 
d="M291 143l78 205h-226v144h277l82 204h-359v144h410l76 204h153l-75 -204h225v-144h-277l-82 -204h359v-144h-410l-78 -205h-153z" />
    <glyph glyph-name="lessequal" unicode="&#x2264;" horiz-adv-x="1095" 
d="M113 0v143h870v-143h-870zM113 584v143l870 317v-153l-686 -236l686 -235v-154z" />
    <glyph glyph-name="greaterequal" unicode="&#x2265;" horiz-adv-x="1095" 
d="M113 0v143h870v-143h-870zM113 266v154l686 235l-686 236v153l870 -317v-143z" />
    <glyph glyph-name="uni2318" unicode="&#x2318;" horiz-adv-x="1638" 
d="M676 563h287v307h-287v-307zM532 307v123h-133q-77 0 -120 -42t-43 -112q0 -62 41 -102.5t102 -40.5q71 0 112 45t41 129zM1106 430v-123q0 -84 41.5 -129t112.5 -45q62 0 102.5 40.5t40.5 102.5q0 70 -43.5 112t-120.5 42h-133zM399 1004h133v122q0 84 -41 129t-112 45
q-61 0 -102 -41t-41 -102q0 -70 43 -111.5t120 -41.5zM399 563h133v307h-133q-147 0 -227 78.5t-80 218.5q0 118 79 192.5t208 74.5q140 0 218.5 -80.5t78.5 -227.5v-122h287v122q0 147 78.5 227.5t218.5 80.5q129 0 207.5 -74.5t78.5 -192.5q0 -140 -80 -218.5t-227 -78.5
h-133v-307h133q147 0 227 -78.5t80 -218.5q0 -118 -78.5 -192t-207.5 -74q-140 0 -218.5 80t-78.5 227v123h-287v-123q0 -147 -78.5 -227t-218.5 -80q-129 0 -208 74t-79 192q0 140 80 218.5t227 78.5zM1106 1004h133q77 0 120.5 41.5t43.5 111.5q0 61 -40.5 102t-102.5 41
q-71 0 -112.5 -45t-41.5 -129v-122z" />
    <glyph glyph-name="uni2460" unicode="&#x2460;" horiz-adv-x="2048" 
d="M164 717q0 177 67 336.5t182 274.5t274.5 182t336.5 67t336.5 -67t274.5 -182t182 -274.5t67 -336.5t-67 -336.5t-182 -274.5t-274.5 -182t-336.5 -67t-336.5 67t-274.5 182t-182 274.5t-67 336.5zM287 717q0 -155 56.5 -292t154 -234.5t234.5 -154t292 -56.5t292 56.5
t234.5 154t154 234.5t56.5 292t-56.5 292t-154 234.5t-234.5 154t-292 56.5t-292 -56.5t-234.5 -154t-154 -234.5t-56.5 -292zM993 348v533h-174v112h113q61 0 61 62v30h123v-737h-123z" />
    <glyph glyph-name="uni2461" unicode="&#x2461;" horiz-adv-x="2048" 
d="M164 717q0 177 67 336.5t182 274.5t274.5 182t336.5 67t336.5 -67t274.5 -182t182 -274.5t67 -336.5t-67 -336.5t-182 -274.5t-274.5 -182t-336.5 -67t-336.5 67t-274.5 182t-182 274.5t-67 336.5zM287 717q0 -155 56.5 -292t154 -234.5t234.5 -154t292 -56.5t292 56.5
t234.5 154t154 234.5t56.5 292t-56.5 292t-154 234.5t-234.5 154t-292 56.5t-292 -56.5t-234.5 -154t-154 -234.5t-56.5 -292zM788 348v103l287 297q33 33 47.5 59.5t14.5 62.5q0 49 -30.5 81t-82.5 32q-56 0 -89.5 -31.5t-33.5 -91.5h-123q0 101 69 168.5t177 67.5
t172 -62.5t64 -163.5q0 -64 -23 -105t-80 -99l-184 -195v-10h297v-113h-482z" />
    <glyph glyph-name="uni2462" unicode="&#x2462;" horiz-adv-x="2048" 
d="M164 717q0 177 67 336.5t182 274.5t274.5 182t336.5 67t336.5 -67t274.5 -182t182 -274.5t67 -336.5t-67 -336.5t-182 -274.5t-274.5 -182t-336.5 -67t-336.5 67t-274.5 182t-182 274.5t-67 336.5zM287 717q0 -155 56.5 -292t154 -234.5t234.5 -154t292 -56.5t292 56.5
t234.5 154t154 234.5t56.5 292t-56.5 292t-154 234.5t-234.5 154t-292 56.5t-292 -56.5t-234.5 -154t-154 -234.5t-56.5 -292zM778 553h123q0 -40 35.5 -71t87.5 -31q55 0 89 29.5t34 82.5q0 54 -35.5 83.5t-97.5 29.5h-51v112h51q60 0 91.5 27.5t31.5 75.5q0 40 -30.5 66
t-82.5 26t-82.5 -26t-30.5 -66h-123q0 88 64.5 146.5t171.5 58.5t171.5 -58.5t64.5 -146.5q0 -47 -28 -89t-75 -65v-10q50 -18 81.5 -61.5t31.5 -102.5q0 -96 -66.5 -160.5t-179.5 -64.5q-106 0 -176 61.5t-70 153.5z" />
    <glyph glyph-name="uni2463" unicode="&#x2463;" horiz-adv-x="2048" 
d="M164 717q0 177 67 336.5t182 274.5t274.5 182t336.5 67t336.5 -67t274.5 -182t182 -274.5t67 -336.5t-67 -336.5t-182 -274.5t-274.5 -182t-336.5 -67t-336.5 67t-274.5 182t-182 274.5t-67 336.5zM287 717q0 -155 56.5 -292t154 -234.5t234.5 -154t292 -56.5t292 56.5
t234.5 154t154 234.5t56.5 292t-56.5 292t-154 234.5t-234.5 154t-292 56.5t-292 -56.5t-234.5 -154t-154 -234.5t-56.5 -292zM707 502v102l276 481h184v-471h103v-112h-103v-154h-123v154h-337zM860 614h184v308h-20l-164 -297v-11z" />
    <glyph glyph-name="uni2464" unicode="&#x2464;" horiz-adv-x="2048" 
d="M164 717q0 177 67 336.5t182 274.5t274.5 182t336.5 67t336.5 -67t274.5 -182t182 -274.5t67 -336.5t-67 -336.5t-182 -274.5t-274.5 -182t-336.5 -67t-336.5 67t-274.5 182t-182 274.5t-67 336.5zM287 717q0 -155 56.5 -292t154 -234.5t234.5 -154t292 -56.5t292 56.5
t234.5 154t154 234.5t56.5 292t-56.5 292t-154 234.5t-234.5 154t-292 56.5t-292 -56.5t-234.5 -154t-154 -234.5t-56.5 -292zM758 553h123q33 -102 143 -102q62 0 102.5 40.5t40.5 102.5q0 67 -40 105t-103 38q-47 0 -79.5 -16.5t-63.5 -54.5h-113l41 419h440v-112h-327
l-21 -164h10q31 24 58.5 32.5t74.5 8.5q102 0 174 -71.5t72 -184.5q0 -110 -73 -183t-193 -73q-114 0 -181 56.5t-85 158.5z" />
    <glyph glyph-name="uni2465" unicode="&#x2465;" horiz-adv-x="2048" 
d="M164 717q0 177 67 336.5t182 274.5t274.5 182t336.5 67t336.5 -67t274.5 -182t182 -274.5t67 -336.5t-67 -336.5t-182 -274.5t-274.5 -182t-336.5 -67t-336.5 67t-274.5 182t-182 274.5t-67 336.5zM287 717q0 -155 56.5 -292t154 -234.5t234.5 -154t292 -56.5t292 56.5
t234.5 154t154 234.5t56.5 292t-56.5 292t-154 234.5t-234.5 154t-292 56.5t-292 -56.5t-234.5 -154t-154 -234.5t-56.5 -292zM799 758l205 327h133l-164 -256h10l18 5q42 6 43 6q101 0 173.5 -69t72.5 -171q0 -113 -75.5 -187.5t-190.5 -74.5t-190.5 74t-75.5 182
q0 97 41 164zM1024 451q62 0 102.5 40.5t40.5 102.5t-40.5 102.5t-102.5 40.5t-102.5 -40.5t-40.5 -102.5t40.5 -102.5t102.5 -40.5z" />
    <glyph glyph-name="uni2466" unicode="&#x2466;" horiz-adv-x="2048" 
d="M164 717q0 177 67 336.5t182 274.5t274.5 182t336.5 67t336.5 -67t274.5 -182t182 -274.5t67 -336.5t-67 -336.5t-182 -274.5t-274.5 -182t-336.5 -67t-336.5 67t-274.5 182t-182 274.5t-67 336.5zM287 717q0 -155 56.5 -292t154 -234.5t234.5 -154t292 -56.5t292 56.5
t234.5 154t154 234.5t56.5 292t-56.5 292t-154 234.5t-234.5 154t-292 56.5t-292 -56.5t-234.5 -154t-154 -234.5t-56.5 -292zM870 348l263 625h-345v112h472v-102l-267 -635h-123z" />
    <glyph glyph-name="uni2467" unicode="&#x2467;" horiz-adv-x="2048" 
d="M164 717q0 177 67 336.5t182 274.5t274.5 182t336.5 67t336.5 -67t274.5 -182t182 -274.5t67 -336.5t-67 -336.5t-182 -274.5t-274.5 -182t-336.5 -67t-336.5 67t-274.5 182t-182 274.5t-67 336.5zM287 717q0 -155 56.5 -292t154 -234.5t234.5 -154t292 -56.5t292 56.5
t234.5 154t154 234.5t56.5 292t-56.5 292t-154 234.5t-234.5 154t-292 56.5t-292 -56.5t-234.5 -154t-154 -234.5t-56.5 -292zM870 727v10q-22 10 -47 35q-45 49 -45 119q0 87 69 146t177 59t177 -59t69 -146q0 -68 -47 -119q-25 -25 -45 -35v-10q32 -17 51 -37
q51 -55 51 -137q0 -89 -71.5 -152t-184.5 -63t-184.5 63t-71.5 152q0 86 51 137q19 20 51 37zM901 881q0 -51 35.5 -77t87.5 -26t87.5 26t35.5 77t-35.5 76.5t-87.5 25.5t-87.5 -25.5t-35.5 -76.5zM891 563q0 -48 36.5 -80t96.5 -32t96.5 32t36.5 80t-36.5 80.5t-96.5 32.5
t-96.5 -32.5t-36.5 -80.5z" />
    <glyph glyph-name="uni2468" unicode="&#x2468;" horiz-adv-x="2048" 
d="M164 717q0 177 67 336.5t182 274.5t274.5 182t336.5 67t336.5 -67t274.5 -182t182 -274.5t67 -336.5t-67 -336.5t-182 -274.5t-274.5 -182t-336.5 -67t-336.5 67t-274.5 182t-182 274.5t-67 336.5zM287 717q0 -155 56.5 -292t154 -234.5t234.5 -154t292 -56.5t292 56.5
t234.5 154t154 234.5t56.5 292t-56.5 292t-154 234.5t-234.5 154t-292 56.5t-292 -56.5t-234.5 -154t-154 -234.5t-56.5 -292zM911 348l164 256h-10l-18 -6q-28 -4 -43 -4q-101 0 -173.5 69t-72.5 171q0 113 75.5 187.5t190.5 74.5t190.5 -74t75.5 -182q0 -97 -41 -164
l-205 -328h-133zM1024 696q61 0 102 41t41 103t-40.5 102.5t-102.5 40.5t-102.5 -40.5t-40.5 -102.5t41 -103t102 -41z" />
    <glyph glyph-name="uni2469" unicode="&#x2469;" horiz-adv-x="2048" 
d="M164 717q0 177 67 336.5t182 274.5t274.5 182t336.5 67t336.5 -67t274.5 -182t182 -274.5t67 -336.5t-67 -336.5t-182 -274.5t-274.5 -182t-336.5 -67t-336.5 67t-274.5 182t-182 274.5t-67 336.5zM686 348v533h-174v112h113q61 0 61 62v30h123v-737h-123zM1229 338
q-127 0 -207 99t-80 280t80 280t207 99t207 -99t80 -280t-80 -280t-207 -99zM1229 451q68 0 116 67.5t48 198.5q0 128 -48.5 197t-115.5 69t-115.5 -69t-48.5 -197q0 -131 48 -198.5t116 -67.5zM287 717q0 -155 56.5 -292t154 -234.5t234.5 -154t292 -56.5t292 56.5
t234.5 154t154 234.5t56.5 292t-56.5 292t-154 234.5t-234.5 154t-292 56.5t-292 -56.5t-234.5 -154t-154 -234.5t-56.5 -292z" />
    <glyph glyph-name="uni246A" unicode="&#x246a;" horiz-adv-x="2048" 
d="M164 717q0 177 67 336.5t182 274.5t274.5 182t336.5 67t336.5 -67t274.5 -182t182 -274.5t67 -336.5t-67 -336.5t-182 -274.5t-274.5 -182t-336.5 -67t-336.5 67t-274.5 182t-182 274.5t-67 336.5zM778 348v533h-174v112h113q61 0 61 62v30h123v-737h-123zM1219 348v533
h-175v112h113q62 0 62 62v30h122v-737h-122zM287 717q0 -155 56.5 -292t154 -234.5t234.5 -154t292 -56.5t292 56.5t234.5 154t154 234.5t56.5 292t-56.5 292t-154 234.5t-234.5 154t-292 56.5t-292 -56.5t-234.5 -154t-154 -234.5t-56.5 -292z" />
    <glyph glyph-name="uni246B" unicode="&#x246b;" horiz-adv-x="2048" 
d="M164 717q0 177 67 336.5t182 274.5t274.5 182t336.5 67t336.5 -67t274.5 -182t182 -274.5t67 -336.5t-67 -336.5t-182 -274.5t-274.5 -182t-336.5 -67t-336.5 67t-274.5 182t-182 274.5t-67 336.5zM717 348v533h-174v112h112q62 0 62 62v30h123v-737h-123zM983 348v103
l287 297q33 33 47 59.5t14 62.5q0 49 -30 81t-82 32q-56 0 -89.5 -31.5t-33.5 -91.5h-123q0 101 69 168.5t177 67.5t171.5 -62.5t63.5 -163.5q0 -64 -23 -105t-79 -99l-185 -195v-10h297v-113h-481zM287 717q0 -155 56.5 -292t154 -234.5t234.5 -154t292 -56.5t292 56.5
t234.5 154t154 234.5t56.5 292t-56.5 292t-154 234.5t-234.5 154t-292 56.5t-292 -56.5t-234.5 -154t-154 -234.5t-56.5 -292z" />
    <glyph glyph-name="uni246C" unicode="&#x246c;" horiz-adv-x="2048" 
d="M164 717q0 177 67 336.5t182 274.5t274.5 182t336.5 67t336.5 -67t274.5 -182t182 -274.5t67 -336.5t-67 -336.5t-182 -274.5t-274.5 -182t-336.5 -67t-336.5 67t-274.5 182t-182 274.5t-67 336.5zM717 348v533h-174v112h112q62 0 62 62v30h123v-737h-123zM973 553h123
q0 -40 35.5 -71t87.5 -31q55 0 88.5 29.5t33.5 82.5q0 54 -35.5 83.5t-97.5 29.5h-51v112h51q60 0 91.5 27.5t31.5 75.5q0 40 -30 66t-82 26t-82.5 -26t-30.5 -66h-123q0 88 64.5 146.5t171.5 58.5q106 0 170.5 -58.5t64.5 -146.5q0 -47 -27.5 -89t-74.5 -65v-10
q49 -18 80.5 -61.5t31.5 -102.5q0 -96 -66 -160.5t-179 -64.5q-106 0 -176 61.5t-70 153.5zM287 717q0 -155 56.5 -292t154 -234.5t234.5 -154t292 -56.5t292 56.5t234.5 154t154 234.5t56.5 292t-56.5 292t-154 234.5t-234.5 154t-292 56.5t-292 -56.5t-234.5 -154
t-154 -234.5t-56.5 -292z" />
    <glyph glyph-name="uni246D" unicode="&#x246d;" horiz-adv-x="2048" 
d="M164 717q0 177 67 336.5t182 274.5t274.5 182t336.5 67t336.5 -67t274.5 -182t182 -274.5t67 -336.5t-67 -336.5t-182 -274.5t-274.5 -182t-336.5 -67t-336.5 67t-274.5 182t-182 274.5t-67 336.5zM696 348v533h-174v112h113q61 0 61 62v30h123v-737h-123zM942 502v102
l277 481h184v-471h102v-112h-102v-154h-123v154h-338zM1096 614h184v308h-20l-164 -297v-11zM287 717q0 -155 56.5 -292t154 -234.5t234.5 -154t292 -56.5t292 56.5t234.5 154t154 234.5t56.5 292t-56.5 292t-154 234.5t-234.5 154t-292 56.5t-292 -56.5t-234.5 -154
t-154 -234.5t-56.5 -292z" />
    </font>
</defs>
</svg>
