<?xml version="1.0" standalone="no"?>
<!DOCTYPE svg PUBLIC "-//W3C//DTD SVG 1.1//EN" "http://www.w3.org/Graphics/SVG/1.1/DTD/svg11.dtd" >
<svg xmlns="http://www.w3.org/2000/svg" xmlns:xlink="http://www.w3.org/1999/xlink" version="1.1">
<metadata>
Created by FontForge 20170731 at Sat Jul 29 01:07:11 2023
 By Aleksey,,,
Copyright (c) 2019 by TypeType. Designers Ivan Gladkikh, Pavel Emelyanov. Technical designers Marina Khodak, Nadezhda Polomoshnova, Kseniya Karataeva, Olexa Volochay, Nadyr Rakhimov. All rights reserved. |DCNT
</metadata>
<defs>
<font id="TTHoves-ExtraBoldItalic" horiz-adv-x="1228" >
  <font-face 
    font-family="TT Hoves ExtraBold"
    font-weight="800"
    font-style="italic"
    font-stretch="normal"
    units-per-em="2048"
    panose-1="2 0 9 3 4 0 0 9 0 4"
    ascent="1434"
    descent="-614"
    x-height="1065"
    cap-height="1434"
    bbox="-852 -532 3047 2120"
    underline-thickness="102"
    underline-position="-307"
    slope="-10"
    unicode-range="U+000D-FB04"
  />
<missing-glyph horiz-adv-x="0" 
 />
    <glyph glyph-name="f_f" unicode="ff" horiz-adv-x="1474" 
d="M205 0l129 737h-164l57 328h164l23 123q16 92 49 155.5t83.5 98t108.5 49t133 14.5h213l-51 -297h-102q-26 0 -40 -3t-26.5 -18.5t-17.5 -45.5l-14 -76h317l23 123q16 92 49 155.5t83.5 98t108.5 49t133 14.5h213l-51 -297h-102q-26 0 -40 -3t-26.5 -18.5t-17.5 -45.5
l-15 -76h226l-58 -328h-225l-129 -737h-358l129 737h-318l-129 -737h-358z" />
    <glyph glyph-name="uniFB01" unicode="fi" horiz-adv-x="1341" 
d="M205 0l129 737h-164l57 328h164l23 123q16 92 49 155.5t83.5 98t108.5 49t133 14.5h213l-51 -297h-102q-26 0 -40 -3t-26.5 -18.5t-17.5 -45.5l-14 -76h675l-186 -1065h-358l129 737h-318l-129 -737h-358zM1094 1208l49 287h358l-49 -287h-358z" />
    <glyph glyph-name="uniFB02" unicode="fl" horiz-adv-x="1363" 
d="M205 0l129 737h-164l57 328h164l23 123q16 92 49 155.5t83.5 98t108.5 49t133 14.5h715l-264 -1505h-358l213 1208h-246q-26 0 -40 -3t-26.5 -18.5t-17.5 -45.5l-14 -76h194l-57 -328h-195l-129 -737h-358z" />
    <glyph glyph-name="f_f_i" unicode="ffi" horiz-adv-x="2017" 
d="M205 0l129 737h-164l57 328h164l23 123q16 92 49 155.5t83.5 98t108.5 49t133 14.5h213l-51 -297h-102q-26 0 -40 -3t-26.5 -18.5t-17.5 -45.5l-14 -76h317l23 123q16 92 49 155.5t83.5 98t108.5 49t133 14.5h213l-51 -297h-102q-26 0 -40 -3t-26.5 -18.5t-17.5 -45.5
l-15 -76h676l-186 -1065h-359l130 737h-318l-129 -737h-358l129 737h-318l-129 -737h-358zM1769 1208l50 287h358l-49 -287h-359z" />
    <glyph glyph-name="f_f_l" unicode="ffl" horiz-adv-x="2039" 
d="M205 0l129 737h-164l57 328h164l23 123q16 92 49 155.5t83.5 98t108.5 49t133 14.5h213l-51 -297h-102q-26 0 -40 -3t-26.5 -18.5t-17.5 -45.5l-14 -76h317l23 123q16 92 49 155.5t83.5 98t108.5 49t133 14.5h715l-264 -1505h-359l213 1208h-245q-26 0 -40 -3
t-26.5 -18.5t-17.5 -45.5l-15 -76h195l-57 -328h-195l-129 -737h-358l129 737h-318l-129 -737h-358z" />
    <glyph glyph-name="f_f_j" unicode="ffj" horiz-adv-x="2017" 
d="M205 0l129 737h-164l57 328h164l23 123q16 92 49 155.5t83.5 98t108.5 49t133 14.5h213l-51 -297h-102q-26 0 -40 -3t-26.5 -18.5t-17.5 -45.5l-14 -76h317l23 123q16 92 49 155.5t83.5 98t108.5 49t133 14.5h213l-51 -297h-102q-26 0 -40 -3t-26.5 -18.5t-17.5 -45.5
l-15 -76h676l-203 -1157q-30 -158 -111 -238t-249 -80h-278l57 328h166q59 0 71 72l132 747h-318l-129 -737h-358l129 737h-318l-129 -737h-358zM1769 1208l50 287h358l-49 -287h-359z" />
    <glyph glyph-name="f_j" unicode="fj" horiz-adv-x="1341" 
d="M584 -410l57 328h166q60 0 72 72l131 747h-318l-129 -737h-358l129 737h-164l57 328h164l23 123q16 92 49 155.5t83.5 98t108.5 49t133 14.5h213l-51 -297h-102q-26 0 -40 -3t-26.5 -18.5t-17.5 -45.5l-14 -76h675l-202 -1157q-15 -77 -39.5 -132.5t-66 -99t-105 -65
t-150.5 -21.5h-278zM1094 1208l49 287h358l-49 -287h-358z" />
    <glyph glyph-name=".notdef" horiz-adv-x="0" 
 />
    <glyph glyph-name=".null" horiz-adv-x="0" 
 />
    <glyph glyph-name="nonmarkingreturn" horiz-adv-x="682" 
 />
    <glyph glyph-name="NULL" horiz-adv-x="0" 
 />
    <glyph glyph-name="NULL" horiz-adv-x="0" 
 />
    <glyph glyph-name="CR" unicode="&#xd;" horiz-adv-x="0" 
 />
    <glyph glyph-name="space" unicode=" " horiz-adv-x="573" 
 />
    <glyph glyph-name="exclam" unicode="!" horiz-adv-x="665" 
d="M285 512l20 410l90 512h379l-90 -512l-123 -410h-276zM143 0l66 379h379l-66 -379h-379z" />
    <glyph glyph-name="quotedbl" unicode="&#x22;" horiz-adv-x="1003" 
d="M715 922l90 512h317l-90 -512h-317zM274 922l91 512h317l-90 -512h-318z" />
    <glyph glyph-name="numbersign" unicode="#" horiz-adv-x="1536" 
d="M195 0l120 307h-241l119 307h241l80 205h-240l119 307h240l121 308h327l-120 -308h184l121 308h327l-120 -308h239l-119 -307h-239l-82 -205h239l-118 -307h-240l-119 -307h-327l118 307h-184l-119 -307h-327zM762 614h182l82 205h-184z" />
    <glyph glyph-name="dollar" unicode="$" horiz-adv-x="1310" 
d="M432 -225l41 241q-173 56 -255.5 179t-82.5 286h379q0 -73 62 -123.5t178 -50.5q102 0 152 36.5t50 88.5q0 40 -34 70.5t-129 50.5l-218 41q-153 29 -239 126t-86 230q0 199 127 336.5t350 161.5l37 211h348l-43 -240q163 -50 250.5 -158.5t87.5 -265.5q0 -5 -1 -14.5
t-1 -13.5v-15h-377q0 72 -58.5 123t-162.5 51q-82 0 -130 -39t-48 -86q0 -36 28.5 -61.5t108.5 -42.5l223 -43q167 -35 256.5 -132t89.5 -235q0 -208 -137 -345.5t-383 -157.5l-35 -209h-348z" />
    <glyph glyph-name="percent" unicode="%" horiz-adv-x="1740" 
d="M618 1208q-49 0 -82.5 -34t-33.5 -82q0 -37 25.5 -62.5t66.5 -25.5q49 0 83 34t34 82q0 36 -25.5 62t-67.5 26zM258 0l1143 1434h338l-1143 -1434h-338zM252 1069q0 80 34 152.5t89 122.5t125 80t141 30q134 0 227 -90.5t93 -220.5q0 -106 -58 -196t-147.5 -139.5
t-186.5 -49.5q-134 0 -225.5 90.5t-91.5 220.5zM1284 313q0 -37 25.5 -62.5t66.5 -25.5q49 0 83 34.5t34 82.5q0 37 -25.5 62.5t-66.5 25.5q-49 0 -83 -34.5t-34 -82.5zM1034 291q0 80 34 152.5t89 122.5t125 80t141 30q134 0 227 -90.5t93 -220.5q0 -80 -34 -152.5
t-89 -122.5t-125.5 -80t-142.5 -30q-134 0 -226 90.5t-92 220.5z" />
    <glyph glyph-name="ampersand" unicode="&#x26;" horiz-adv-x="1372" 
d="M1061 0l-76 96q-45 -29 -67.5 -42t-70 -34.5t-100.5 -30.5t-118 -9q-116 0 -207.5 28.5t-148 78t-86 112.5t-29.5 135q0 176 108 279q32 31 101 78l20 14l82 49l-49 67q-66 94 -66 230q0 74 33 146t91.5 129.5t146.5 92.5t190 35q192 0 302 -98t110 -252
q0 -66 -20.5 -123t-57.5 -99t-59.5 -61.5t-55.5 -42.5l-121 -78l144 -182q25 23 51 66.5t31 91.5h317q-28 -215 -219 -387l223 -289h-399zM741 922l64 30q21 13 25.5 15.5t23 16.5t25 24t13.5 28t7 39q0 36 -28 60t-72 24q-47 0 -82 -31.5t-35 -83.5q0 -14 3 -27t11.5 -28.5
t12 -21.5t17.5 -24.5t15 -20.5zM807 324l-166 213l-33 -21q-22 -12 -37.5 -23.5t-32.5 -29t-26.5 -40t-9.5 -48.5q0 -47 37 -78t110 -31q48 0 87.5 14.5t55.5 29.5z" />
    <glyph glyph-name="quotesingle" unicode="'" horiz-adv-x="563" 
d="M274 922l91 512h317l-90 -512h-318z" />
    <glyph glyph-name="parenleft" unicode="(" horiz-adv-x="808" 
d="M721 -410h-369q-56 103 -99.5 286.5t-43.5 383.5q0 166 33 330t81.5 290.5t116.5 250.5t125.5 205t122.5 159h369q-146 -200 -206 -298q-257 -419 -281 -868q-3 -50 -3 -100q0 -181 44.5 -348t109.5 -291z" />
    <glyph glyph-name="parenright" unicode=")" horiz-adv-x="808" 
d="M317 -410h-368q146 201 207 301q259 424 280 880q2 42 2 85q0 182 -44 348.5t-109 290.5h368q57 -109 100.5 -288.5t43.5 -381.5q0 -166 -33 -330t-81.5 -290.5t-117 -250.5t-126 -205t-122.5 -159z" />
    <glyph glyph-name="asterisk" unicode="*" horiz-adv-x="1044" 
d="M309 717l178 215l-270 72l72 239l270 -102l-20 293h256l-21 -293l273 102l71 -239l-272 -72l180 -215l-195 -154l-163 236l-164 -236z" />
    <glyph glyph-name="plus" unicode="+" horiz-adv-x="1136" 
d="M506 92v338h-307v328h307v338h338v-338h307v-328h-307v-338h-338z" />
    <glyph glyph-name="comma" unicode="," horiz-adv-x="604" 
d="M37 -195l164 584h379l-267 -584h-276z" />
    <glyph glyph-name="hyphen" unicode="-" horiz-adv-x="901" 
d="M174 420l57 328h717l-57 -328h-717z" />
    <glyph glyph-name="period" unicode="." horiz-adv-x="604" 
d="M113 0l67 389h379l-67 -389h-379z" />
    <glyph glyph-name="slash" unicode="/" horiz-adv-x="911" 
d="M-72 -410l897 1905h349l-900 -1905h-346z" />
    <glyph glyph-name="zero" unicode="0" horiz-adv-x="1398" 
d="M883 1085q-47 0 -97.5 -28.5t-97.5 -83.5t-77.5 -150t-30.5 -213q0 -129 57 -195.5t143 -66.5q47 0 97.5 28.5t97.5 83.5t77.5 150t30.5 213q0 129 -57 195.5t-143 66.5zM745 -20q-243 0 -393.5 157t-150.5 428q0 166 41 311t111 249.5t162 179.5t195 112t208 37
q243 0 393.5 -157.5t150.5 -428.5q0 -166 -41 -311t-111 -249t-162 -179t-195 -112t-208 -37z" />
    <glyph glyph-name="one" unicode="1" horiz-adv-x="839" 
d="M338 0l162 922h-277l66 368h217q60 0 72 72l12 72h379l-252 -1434h-379z" />
    <glyph glyph-name="two" unicode="2" horiz-adv-x="1187" 
d="M70 -4l59 332l680 497q102 71 102 142q0 50 -35 79t-106 29q-70 0 -113.5 -42t-54.5 -111h-379q12 108 58 203.5t118 169t176 116.5t224 43q230 0 360.5 -116t130.5 -306q0 -53 -8 -99t-19 -81t-35 -71t-43 -60t-57 -57.5t-63 -53t-74 -57.5l-252 -184l-2 -11h441
l-64 -362h-1044z" />
    <glyph glyph-name="three" unicode="3" horiz-adv-x="1208" 
d="M141 471h381q-7 -59 33.5 -101t128.5 -42q71 0 111.5 39t40.5 100q0 54 -45.5 85.5t-116.5 31.5h-80l51 297h119q74 0 117 30.5t43 89.5q0 46 -38 75.5t-108 29.5q-58 0 -96 -35t-49 -88h-379q13 94 55.5 178t111 149.5t168 104.5t216.5 39t213 -32t157.5 -86.5
t94.5 -125t33 -149.5q0 -70 -25 -130t-60.5 -95.5t-71 -61t-60.5 -35.5l-25 -10l-2 -10q41 -23 78 -66q77 -93 77 -233q0 -193 -152.5 -316.5t-402.5 -123.5q-238 0 -382 114.5t-144 294.5q0 18 8 82z" />
    <glyph glyph-name="four" unicode="4" horiz-adv-x="1218" 
d="M74 246l59 338l610 850h564l-148 -840h144l-62 -348h-143l-43 -246h-379l43 246h-645zM555 594h225l68 389h-21l-270 -379z" />
    <glyph glyph-name="five" unicode="5" horiz-adv-x="1218" 
d="M160 430h379q11 -31 30 -51q43 -51 123 -51q77 0 124.5 47t47.5 117q0 58 -42.5 95.5t-114.5 37.5q-47 0 -85.5 -22.5t-52.5 -49.5h-374l237 881h907l-61 -349h-565l-47 -163h10l33 14q46 16 98 16q205 0 323.5 -121t118.5 -303q0 -157 -74 -282.5t-204.5 -195.5
t-292.5 -70q-86 0 -160 16t-126 42t-94 62t-67.5 73.5t-42.5 79t-23.5 77t-6.5 67.5v19q0 8 2 14z" />
    <glyph glyph-name="six" unicode="6" horiz-adv-x="1218" 
d="M311 858l475 576h451l-387 -451q189 -25 302.5 -147t113.5 -299q0 -154 -82 -282.5t-220.5 -201.5t-299.5 -73q-227 0 -366.5 131t-139.5 327q0 236 153 420zM725 655q-79 0 -133.5 -53t-54.5 -127q0 -64 43.5 -105.5t117.5 -41.5q79 0 134 53t55 127q0 64 -44 105.5
t-118 41.5z" />
    <glyph glyph-name="seven" unicode="7" horiz-adv-x="1116" 
d="M123 0l657 1065h-540l65 369h1004l-62 -347l-672 -1087h-452z" />
    <glyph glyph-name="eight" unicode="8" horiz-adv-x="1208" 
d="M401 750l2 10q-42 25 -71 61q-70 82 -70 197q0 88 37.5 166.5t105.5 138.5t170.5 95.5t225.5 35.5t223 -32.5t163 -87.5t96.5 -124t33.5 -145q0 -58 -14.5 -108.5t-37.5 -85t-50 -62t-54.5 -44t-49.5 -27t-36.5 -14.5t-13.5 -3l-2 -10q44 -20 84 -60q84 -88 84 -223
q0 -133 -76 -236t-206 -157.5t-292 -54.5q-125 0 -226 33.5t-164.5 90t-97.5 129t-34 152.5q0 207 168 316q38 25 102 49zM641 993q0 -50 35.5 -81t105.5 -31q68 0 112 37t44 96q0 50 -35.5 81t-105.5 31q-68 0 -112 -37t-44 -96zM510 438q0 -58 40 -94.5t122 -36.5
q79 0 127.5 43t48.5 111q0 59 -38.5 96t-121.5 37q-77 0 -127.5 -44.5t-50.5 -111.5z" />
    <glyph glyph-name="nine" unicode="9" horiz-adv-x="1218" 
d="M240 0l387 451q-189 25 -302.5 147t-113.5 299q0 154 82 282.5t220.5 201.5t299.5 73q227 0 366.5 -131.5t139.5 -327.5q0 -235 -154 -420l-475 -575h-450zM590 926q0 -64 44 -106t118 -42q79 0 133.5 53t54.5 127q0 64 -44 106t-118 42q-79 0 -133.5 -53t-54.5 -127z
" />
    <glyph glyph-name="colon" unicode=":" horiz-adv-x="604" 
d="M233 686l68 389h379l-68 -389h-379zM113 0l67 389h379l-67 -389h-379z" />
    <glyph glyph-name="semicolon" unicode=";" horiz-adv-x="604" 
d="M254 686l68 389h378l-67 -389h-379zM37 -195l164 584h379l-267 -584h-276z" />
    <glyph glyph-name="less" unicode="&#x3c;" horiz-adv-x="1136" 
d="M199 430v348l942 359v-349l-533 -184l533 -184v-348z" />
    <glyph glyph-name="equal" unicode="=" horiz-adv-x="1136" 
d="M252 666v307h870v-307h-870zM252 215v307h870v-307h-870z" />
    <glyph glyph-name="greater" unicode="&#x3e;" horiz-adv-x="1136" 
d="M227 72v348l533 184l-533 184v349l942 -359v-348z" />
    <glyph glyph-name="question" unicode="?" horiz-adv-x="1116" 
d="M438 512l6 41q18 124 78.5 203t198.5 135q67 27 97 58t30 77q0 40 -29.5 65t-87.5 25q-56 0 -89.5 -32t-45.5 -80h-389q29 205 175.5 327.5t369.5 122.5q117 0 212.5 -31t155.5 -82.5t92.5 -117.5t32.5 -138t-22.5 -132.5t-64 -105t-88 -76t-105.5 -58.5
q-84 -38 -118.5 -70.5t-45.5 -103.5l-4 -27h-359zM338 0l65 379h379l-65 -379h-379z" />
    <glyph glyph-name="at" unicode="@" horiz-adv-x="1976" 
d="M1040 20h361l-47 -266h-350q-235 0 -420 90t-289.5 255.5t-104.5 379.5q0 199 79.5 378.5t212.5 307.5t314.5 203.5t379.5 75.5q195 0 357 -58.5t268 -157.5t164 -228t58 -271q0 -152 -56.5 -279.5t-168.5 -206.5t-260 -79q-137 0 -211 51q-28 17 -47 51h-12
q-34 -34 -64 -51q-81 -51 -200 -51q-158 0 -257.5 102.5t-99.5 257.5q0 104 37 195t98.5 152.5t141.5 97t166 35.5q89 0 157 -37q23 -13 49 -35h11l30 61h226l-78 -440q-11 -72 11.5 -97.5t68.5 -25.5q68 0 120 72t52 205q0 96 -39 181t-112 149.5t-185.5 102.5t-249.5 38
q-183 0 -337.5 -88t-245.5 -243.5t-91 -344.5q0 -219 157 -350.5t406 -131.5zM1063 430q66 0 114 49.5t48 128.5q0 57 -35 93t-92 36q-66 0 -115 -49.5t-49 -128.5q0 -57 36 -93t93 -36z" />
    <glyph glyph-name="A" unicode="A" horiz-adv-x="1474" 
d="M10 0l733 1434h533l229 -1434h-389l-39 246h-514l-123 -246h-430zM725 573h307l-57 431h-41z" />
    <glyph glyph-name="B" unicode="B" horiz-adv-x="1382" 
d="M123 0l252 1434h688q101 0 180 -28t126.5 -76.5t72 -110.5t24.5 -134q1 -72 -19.5 -134.5t-46 -98.5t-61 -67t-52 -40t-32.5 -17l-2 -1l-2 -10q35 -27 62 -68q63 -96 63 -205q0 -201 -133.5 -322.5t-339.5 -121.5h-780zM655 881h301q56 0 93.5 36.5t37.5 86.5
q0 42 -31.5 72t-90.5 30h-269zM598 553l-39 -225h313q50 0 87.5 36t37.5 85q0 46 -34 75t-84 29h-281z" />
    <glyph glyph-name="C" unicode="C" horiz-adv-x="1515" 
d="M1165 563h379q-11 -56 -43.5 -126.5t-94.5 -152t-141.5 -148.5t-194.5 -111.5t-243 -44.5q-137 0 -254.5 47t-200 130.5t-129 201.5t-46.5 255q0 144 43 276t118 233.5t173.5 176.5t214.5 114.5t235 39.5q120 0 220.5 -34.5t169.5 -90.5t119 -131.5t76 -154.5t33 -162
h-378q-7 34 -24.5 67t-49 65t-84 52t-119.5 20q-68 0 -134 -31t-118.5 -86t-84.5 -138t-32 -179q0 -137 81 -220t202 -83q55 0 104 17.5t81 42t59.5 57t40.5 55t22 43.5z" />
    <glyph glyph-name="D" unicode="D" horiz-adv-x="1429" 
d="M123 0l252 1434h504q178 0 322 -81.5t225 -224t81 -317.5q0 -170 -64.5 -322t-171.5 -258.5t-250.5 -168.5t-297.5 -62h-600zM565 369h201q67 0 131.5 28.5t116 78.5t83 127t31.5 167q0 126 -79.5 210.5t-200.5 84.5h-160z" />
    <glyph glyph-name="E" unicode="E" horiz-adv-x="1218" 
d="M123 0l252 1434h1003l-61 -349h-625l-37 -204h584l-57 -328h-584l-37 -205h625l-60 -348h-1003z" />
    <glyph glyph-name="F" unicode="F" horiz-adv-x="1208" 
d="M123 0l252 1434h1003l-61 -349h-625l-39 -225h564l-60 -328h-563l-92 -532h-379z" />
    <glyph glyph-name="G" unicode="G" horiz-adv-x="1556" 
d="M1174 0l6 123h-11q-125 -143 -362 -143q-171 0 -310 80.5t-219.5 226t-80.5 327.5q0 144 43 276t118 233.5t173.5 176.5t214.5 114.5t235 39.5q110 0 205 -29.5t164 -79.5t122.5 -118.5t86 -144.5t49.5 -160h-389q-85 163 -275 163q-68 0 -134 -31t-118.5 -86t-84.5 -138
t-32 -179q0 -137 81 -220t202 -83q116 0 190.5 48.5t110.5 115.5h-268l45 256h655l-135 -768h-282z" />
    <glyph glyph-name="H" unicode="H" horiz-adv-x="1474" 
d="M123 0l252 1434h379l-92 -523h471l92 523h379l-252 -1434h-379l92 532h-471l-92 -532h-379z" />
    <glyph glyph-name="I" unicode="I" horiz-adv-x="624" 
d="M123 0l252 1434h379l-252 -1434h-379z" />
    <glyph glyph-name="J" unicode="J" horiz-adv-x="890" 
d="M10 0l64 369h301q79 0 94 92l172 973h379l-193 -1096q-27 -160 -116.5 -249t-245.5 -89h-455z" />
    <glyph glyph-name="K" unicode="K" horiz-adv-x="1320" 
d="M123 0l252 1434h379l-105 -594l467 594h469l-577 -738l329 -696h-432l-295 625l-108 -625h-379z" />
    <glyph glyph-name="L" unicode="L" horiz-adv-x="1126" 
d="M123 0l252 1434h379l-189 -1065h625l-64 -369h-1003z" />
    <glyph glyph-name="M" unicode="M" horiz-adv-x="1904" 
d="M123 0l252 1434h543l108 -779h41l383 779h584l-252 -1434h-379l137 778h-41l-383 -778h-328l-108 778h-41l-137 -778h-379z" />
    <glyph glyph-name="N" unicode="N" horiz-adv-x="1495" 
d="M123 0l252 1434h440l256 -748h41l133 748h379l-252 -1434h-440l-256 748h-41l-133 -748h-379z" />
    <glyph glyph-name="O" unicode="O" horiz-adv-x="1536" 
d="M862 348q68 0 135 31t120 86t85.5 137.5t32.5 177.5q0 137 -81 221t-206 84q-68 0 -135 -31t-120 -86t-85.5 -137.5t-32.5 -177.5q0 -137 81 -221t206 -84zM825 -20q-277 0 -452.5 178t-175.5 454q0 182 65.5 341t174.5 267.5t252 171t296 62.5q277 0 453 -178.5
t176 -454.5q0 -146 -42.5 -278t-117.5 -233.5t-174 -176.5t-216 -114t-239 -39z" />
    <glyph glyph-name="P" unicode="P" horiz-adv-x="1372" 
d="M635 758h287q64 0 112.5 49.5t48.5 128.5q0 58 -35.5 93.5t-86.5 35.5h-273zM123 0l252 1434h647q196 0 322 -118t126 -317q0 -136 -44 -251.5t-119 -193.5t-176 -121.5t-213 -43.5h-349l-67 -389h-379z" />
    <glyph glyph-name="Q" unicode="Q" horiz-adv-x="1536" 
d="M1067 -174l-115 166q-62 -12 -127 -12q-277 0 -452.5 178t-175.5 454q0 182 65.5 341t174.5 267.5t252 171t296 62.5q277 0 453 -178.5t176 -454.5q0 -214 -86.5 -389t-237.5 -291l217 -315h-440zM778 365l-67 106h356l23 -33q66 58 105.5 146t39.5 196q0 137 -81 221
t-206 84q-68 0 -135 -31t-120 -86t-85.5 -137.5t-32.5 -177.5q0 -119 58.5 -197t157.5 -102q-13 8 -13 11z" />
    <glyph glyph-name="R" unicode="R" horiz-adv-x="1402" 
d="M123 0l252 1434h672q190 0 311 -118t121 -317q0 -99 -24.5 -184.5t-65.5 -147t-96.5 -110t-114.5 -78.5t-123 -47l286 -432h-460l-283 430h-20l-76 -430h-379zM690 1075l-53 -307h307q61 0 108.5 50t47.5 128q0 55 -32.5 92t-80.5 37h-297z" />
    <glyph glyph-name="S" unicode="S" horiz-adv-x="1310" 
d="M135 481h379q0 -73 62 -123.5t178 -50.5q102 0 152 36.5t50 88.5q0 40 -34 70.5t-129 50.5l-218 41q-153 29 -239 126t-86 230q0 143 66.5 256.5t195 180.5t299.5 67q281 0 438.5 -122t157.5 -337q0 -5 -1 -14.5t-1 -13.5v-15h-377q0 72 -58.5 123t-162.5 51
q-82 0 -130 -39t-48 -86q0 -36 28.5 -61.5t108.5 -42.5l223 -43q167 -35 256.5 -132t89.5 -235q0 -223 -158 -365t-438 -142q-128 0 -231 27t-172 73t-115 110.5t-66 136.5t-20 154z" />
    <glyph glyph-name="T" unicode="T" horiz-adv-x="1208" 
d="M399 0l187 1065h-379l65 369h1137l-66 -369h-378l-187 -1065h-379z" />
    <glyph glyph-name="U" unicode="U" horiz-adv-x="1454" 
d="M240 723l125 711h378l-143 -820q-4 -28 -4 -49q0 -97 58.5 -157t152.5 -60q101 0 171 71.5t91 184.5l145 830h379l-139 -795q-45 -301 -224.5 -480t-455.5 -179q-261 0 -411 145.5t-150 382.5q0 63 27 215z" />
    <glyph glyph-name="V" unicode="V" horiz-adv-x="1454" 
d="M451 0l-209 1434h389l131 -942h41l463 942h430l-713 -1434h-532z" />
    <glyph glyph-name="W" unicode="W" horiz-adv-x="2048" 
d="M358 0l-96 1434h389l51 -758h41l318 758h389l51 -758h41l318 758h430l-600 -1434h-461l-51 758h-41l-318 -758h-461z" />
    <glyph glyph-name="X" unicode="X" horiz-adv-x="1372" 
d="M-31 0l600 737l-317 697h420l159 -369h41l291 369h461l-563 -697l342 -737h-420l-184 410h-41l-328 -410h-461z" />
    <glyph glyph-name="Y" unicode="Y" horiz-adv-x="1331" 
d="M471 0l76 440l-346 994h399l172 -533h41l361 533h440l-688 -994l-76 -440h-379z" />
    <glyph glyph-name="Z" unicode="Z" horiz-adv-x="1280" 
d="M72 0l59 348l721 717h-584l66 369h1116l-61 -349l-721 -716h604l-64 -369h-1136z" />
    <glyph glyph-name="bracketleft" unicode="[" horiz-adv-x="798" 
d="M70 -410l336 1905h593l-57 -328h-246l-221 -1249h246l-57 -328h-594z" />
    <glyph glyph-name="backslash" unicode="\" horiz-adv-x="911" 
d="M510 -410l-227 1905h348l227 -1905h-348z" />
    <glyph glyph-name="bracketright" unicode="]" horiz-adv-x="798" 
d="M-10 -410l55 328h246l221 1249h-246l58 328h594l-336 -1905h-592z" />
    <glyph glyph-name="asciicircum" unicode="^" horiz-adv-x="972" 
d="M207 829l215 605h420l215 -605h-307l-113 318h-10l-113 -318h-307z" />
    <glyph glyph-name="underscore" unicode="_" horiz-adv-x="839" 
d="M-123 -532l57 327h920l-57 -327h-920z" />
    <glyph glyph-name="grave" unicode="`" horiz-adv-x="665" 
d="M530 1208l-202 308h338l151 -308h-287z" />
    <glyph glyph-name="a" unicode="a" horiz-adv-x="1167" 
d="M760 0l-6 82h-11q-36 -36 -63 -51q-81 -51 -201 -51q-174 0 -271 85t-97 211q0 92 37.5 165t100 116t136.5 65.5t154 22.5h292l5 21q9 55 -24 96t-114 41q-56 0 -88.5 -24.5t-40.5 -51.5h-338q10 67 46.5 129.5t95 114.5t147 83t191.5 31q138 0 239.5 -38.5t157 -104
t75 -149t3.5 -177.5l-109 -616h-317zM791 410l4 20h-201q-66 0 -100.5 -27.5t-34.5 -70.5q0 -38 32 -62t95 -24q75 0 131.5 44t73.5 120z" />
    <glyph glyph-name="b" unicode="b" horiz-adv-x="1300" 
d="M113 0l252 1434h358l-76 -430h10q30 23 62 40q70 41 172 41q197 0 321.5 -129.5t124.5 -334.5q0 -138 -48.5 -259.5t-127.5 -204t-182 -130t-211 -47.5q-127 0 -219 61q-38 25 -66 61h-10l-43 -102h-317zM745 307q90 0 162 74t72 184q0 84 -53.5 138.5t-128.5 54.5
q-95 0 -165.5 -73.5t-70.5 -184.5q0 -81 49.5 -137t134.5 -56z" />
    <glyph glyph-name="c" unicode="c" 
d="M879 430h368q-8 -44 -30.5 -97.5t-69.5 -117.5t-109.5 -115t-159 -85.5t-208.5 -34.5q-235 0 -377.5 135t-142.5 348q0 174 84.5 317.5t226 224t307.5 80.5q117 0 211 -34t149.5 -84.5t92 -114.5t50 -117.5t13.5 -99.5h-369q-38 123 -174 123q-90 0 -161.5 -74
t-71.5 -184q0 -85 52.5 -139t131.5 -54q74 0 121.5 40.5t65.5 82.5z" />
    <glyph glyph-name="d" unicode="d" horiz-adv-x="1300" 
d="M690 307q95 0 165.5 73.5t70.5 184.5q0 81 -50 137t-135 56q-90 0 -161.5 -74t-71.5 -184q0 -84 53.5 -138.5t128.5 -54.5zM870 0l-6 82h-10q-32 -32 -66 -51q-81 -51 -192 -51q-197 0 -321.5 129.5t-124.5 334.5q0 138 48.5 259.5t127.5 204t182 130t211 47.5
q113 0 209 -51q33 -17 67 -51h11l75 451h359l-252 -1434h-318z" />
    <glyph glyph-name="e" unicode="e" 
d="M864 328h338q-15 -28 -20 -37t-26 -43.5t-35 -51.5t-43.5 -50t-55.5 -52t-66 -43.5t-81 -38t-94 -23t-111 -9.5q-235 0 -377.5 135t-142.5 348q0 175 84.5 318.5t226 223.5t307.5 80q245 0 388 -147.5t112 -394.5q-8 -41 -19 -74l-10 -29h-747q0 -82 49.5 -133t144.5 -51
q69 0 129 35q27 15 49 37zM528 635h420q-1 88 -56.5 136t-137.5 48q-84 0 -143 -50t-83 -134z" />
    <glyph glyph-name="f" unicode="f" horiz-adv-x="839" 
d="M205 0l129 737h-164l57 328h164l23 123q16 92 49 155.5t83.5 98t108.5 49t133 14.5h265l-52 -297h-153q-26 0 -40 -3t-26.5 -18.5t-17.5 -45.5l-14 -76h225l-57 -328h-226l-129 -737h-358z" />
    <glyph glyph-name="g" unicode="g" horiz-adv-x="1239" 
d="M508 555q0 -67 45.5 -116.5t120.5 -49.5q84 0 145.5 57.5t61.5 151.5q0 73 -46.5 121.5t-119.5 48.5q-88 0 -147.5 -59t-59.5 -154zM68 -20h358q22 -103 180 -103q75 0 120.5 46.5t59.5 127.5l17 92h-10q-32 -25 -60 -37q-74 -34 -162 -34q-101 0 -182 37.5t-129.5 99
t-74 135t-25.5 150.5q0 130 45 243.5t118.5 188t165.5 117t187 42.5q119 0 211 -61q36 -24 65 -61h11l43 102h317l-178 -1014q-39 -225 -176 -348t-371 -123q-102 0 -187 18t-141 48.5t-97.5 67.5t-63.5 79t-32.5 78.5t-10.5 69.5q0 25 2 39z" />
    <glyph glyph-name="h" unicode="h" horiz-adv-x="1249" 
d="M113 0l252 1434h358l-80 -451h10q29 32 62 51q84 51 196 51q174 0 269.5 -98t95.5 -258q0 -60 -8 -96l-111 -633h-358l96 551q6 42 6 47q0 62 -41.5 100.5t-114.5 38.5q-75 0 -120 -50t-54 -114l-100 -573h-358z" />
    <glyph glyph-name="i" unicode="i" horiz-adv-x="563" 
d="M102 0l187 1065h358l-186 -1065h-359zM315 1208l50 287h358l-49 -287h-359z" />
    <glyph glyph-name="j" unicode="j" horiz-adv-x="563" 
d="M315 1208l50 287h358l-49 -287h-359zM-195 -410l58 328h166q59 0 71 72l189 1075h358l-203 -1157q-30 -158 -111 -238t-249 -80h-279z" />
    <glyph glyph-name="k" unicode="k" horiz-adv-x="1177" 
d="M113 0l252 1434h358l-148 -840l404 471h414l-469 -543l274 -522h-385l-256 492l-86 -492h-358z" />
    <glyph glyph-name="l" unicode="l" horiz-adv-x="583" 
d="M113 0l252 1434h358l-252 -1434h-358z" />
    <glyph glyph-name="m" unicode="m" horiz-adv-x="1761" 
d="M102 0l187 1065h317l6 -82h11q30 34 61 51q84 51 197 51q109 0 190 -61q39 -28 59 -61h11q30 34 73 61q96 61 220 61q157 0 255.5 -97t98.5 -255q0 -48 -10 -112l-109 -621h-358l104 594q2 14 2 31q0 54 -28.5 83t-79.5 29q-114 0 -140 -143l-104 -594h-358l104 594
q2 14 2 31q0 54 -28.5 83t-79.5 29q-114 0 -140 -143l-104 -594h-359z" />
    <glyph glyph-name="n" unicode="n" horiz-adv-x="1239" 
d="M102 0l187 1065h317l6 -82h11q30 34 61 51q84 51 197 51q176 0 280.5 -99t104.5 -257q0 -55 -9 -96l-110 -633h-359l97 551q6 42 6 47q0 62 -41.5 100.5t-114.5 38.5q-75 0 -120 -50t-54 -114l-100 -573h-359z" />
    <glyph glyph-name="o" unicode="o" horiz-adv-x="1249" 
d="M150 467q0 129 50 244.5t134 197t198 129t238 47.5q234 0 377 -137.5t143 -349.5q0 -129 -50 -244.5t-134 -197t-198 -129t-238 -47.5q-237 0 -378.5 137t-141.5 350zM745 758q-93 0 -165 -74t-72 -184q0 -85 53 -139t133 -54q93 0 165.5 74t72.5 184q0 86 -53.5 140.5
t-133.5 52.5z" />
    <glyph glyph-name="p" unicode="p" horiz-adv-x="1290" 
d="M29 -410l260 1475h317l6 -82h11q33 33 65 51q88 51 193 51q197 0 321.5 -129.5t124.5 -334.5q0 -138 -48.5 -259.5t-127.5 -204t-182 -130t-211 -47.5q-120 0 -209 51q-35 18 -68 51h-10l-84 -492h-358zM735 307q90 0 162 74t72 184q0 84 -54 138.5t-129 54.5
q-95 0 -165 -73.5t-70 -184.5q0 -81 49.5 -137t134.5 -56z" />
    <glyph glyph-name="q" unicode="q" horiz-adv-x="1290" 
d="M756 -410l84 471h-11q-36 -28 -61 -41q-71 -40 -172 -40q-197 0 -321.5 129.5t-124.5 334.5q0 138 48.5 259.5t127.5 204t182 130t211 47.5q127 0 219 -61q38 -25 66 -61h10l43 102h317l-260 -1475h-358zM690 307q95 0 165.5 73.5t70.5 184.5q0 81 -50 137t-135 56
q-90 0 -161.5 -74t-71.5 -184q0 -84 53.5 -138.5t128.5 -54.5z" />
    <glyph glyph-name="r" unicode="r" horiz-adv-x="870" 
d="M102 0l187 1065h317l6 -82h11q21 24 43 41q55 41 131 41h209l-58 -328h-198q-75 0 -124.5 -40.5t-68.5 -143.5l-96 -553h-359z" />
    <glyph glyph-name="s" unicode="s" horiz-adv-x="1085" 
d="M102 338h349v-21q0 -34 41.5 -63t119.5 -29q61 0 95 24.5t34 61.5q0 75 -88 88l-143 21q-85 12 -149.5 44.5t-101.5 77t-55 92.5t-18 97q0 153 129 253.5t351 100.5q223 0 354 -93t131 -236v-19h-348q0 40 -34.5 66t-100.5 26q-61 0 -92 -26t-31 -60q0 -21 19.5 -39
t53.5 -22l148 -20q170 -19 252 -106.5t82 -209.5q0 -120 -66 -203.5t-179 -123t-263 -39.5q-126 0 -222.5 28t-153.5 76.5t-85.5 108.5t-28.5 129v16z" />
    <glyph glyph-name="t" unicode="t" horiz-adv-x="901" 
d="M266 352l68 385h-164l57 328h164l58 328h358l-57 -328h235l-57 -328h-236l-57 -325q-4 -28 -4 -35q0 -49 69 -49h156l-57 -328h-228q-147 0 -231 66t-84 182q0 40 10 104z" />
    <glyph glyph-name="u" unicode="u" horiz-adv-x="1249" 
d="M178 432l111 633h358l-96 -551q-6 -42 -6 -47q0 -62 41 -100.5t114 -38.5q75 0 120 50t54 114l101 573h358l-186 -1065h-318l-6 82h-10q-30 -34 -61 -51q-77 -51 -197 -51q-176 0 -280.5 99t-104.5 257q0 60 8 96z" />
    <glyph glyph-name="v" unicode="v" horiz-adv-x="1146" 
d="M328 0l-152 1065h348l80 -625h41l301 625h377l-524 -1065h-471z" />
    <glyph glyph-name="w" unicode="w" horiz-adv-x="1679" 
d="M266 0l-80 1065h355l32 -512h41l224 512h327l43 -512h41l213 512h383l-452 -1065h-420l-39 481h-41l-207 -481h-420z" />
    <glyph glyph-name="x" unicode="x" horiz-adv-x="1105" 
d="M-20 0l442 543l-236 522h363l100 -277h41l199 277h403l-420 -522l254 -543h-362l-121 287h-41l-219 -287h-403z" />
    <glyph glyph-name="y" unicode="y" horiz-adv-x="1187" 
d="M49 -410l57 328h230q33 0 55 31l12 20l-227 1096h369l110 -594h41l299 594h389l-657 -1239q-61 -116 -136 -176t-196 -60h-346z" />
    <glyph glyph-name="z" unicode="z" horiz-adv-x="1054" 
d="M61 0l54 307l518 441h-430l55 317h911l-53 -307l-518 -441h451l-56 -317h-932z" />
    <glyph glyph-name="braceleft" unicode="{" horiz-adv-x="839" 
d="M715 -410h-170q-123 0 -203.5 56t-107.5 146t-5 198q43 204 43 243q0 63 -34 90t-105 35l66 369q100 0 140.5 31.5t59.5 103.5l60 295q31 158 137 248t260 90h195l-58 -328h-102q-101 0 -119 -102l-57 -295q-12 -63 -44 -110t-72 -71t-76 -35t-66 -11l-8 -41
q49 -3 88 -23q88 -47 88 -147q0 -28 -9 -81t-22.5 -120t-15.5 -76q-15 -78 16 -107.5t80 -29.5h98z" />
    <glyph glyph-name="bar" unicode="|" horiz-adv-x="839" 
d="M377 -410v1905h348v-1905h-348z" />
    <glyph glyph-name="braceright" unicode="}" horiz-adv-x="839" 
d="M0 -410l57 328h103q101 0 119 102l57 295q12 63 44 110t72 71t76 35.5t66 11.5l8 41q-54 3 -88 22q-88 43 -88 148q0 29 9 82.5t22.5 117t15.5 76.5q15 78 -16 107.5t-80 29.5h-98l57 328h170q123 0 203 -56t107 -145.5t5 -197.5q-3 -20 -14.5 -79.5t-20 -106t-8.5 -58.5
q0 -62 34.5 -89.5t105.5 -35.5l-66 -369q-99 0 -143 -32.5t-58 -102.5l-59 -295q-31 -158 -137 -248t-260 -90h-195z" />
    <glyph glyph-name="asciitilde" unicode="~" horiz-adv-x="1249" 
d="M487 328h-327q0 237 93.5 354t254.5 117q67 0 124 -19t89 -42.5t68.5 -42.5t66.5 -19q48 0 75 31.5t27 91.5h328q0 -237 -93.5 -354t-254.5 -117q-54 0 -101.5 12.5t-79.5 31t-60 36.5t-55 30.5t-52 12.5q-48 0 -75.5 -31.5t-27.5 -91.5z" />
    <glyph glyph-name="nbspace" unicode="&#xa0;" horiz-adv-x="573" 
 />
    <glyph glyph-name="exclamdown" unicode="&#xa1;" horiz-adv-x="665" 
d="M78 -369l90 512l123 410h276l-20 -410l-90 -512h-379zM264 686l66 379h379l-66 -379h-379z" />
    <glyph glyph-name="cent" unicode="&#xa2;" horiz-adv-x="1218" 
d="M403 -225l41 231q-140 68 -217 186.5t-77 270.5q0 226 141.5 397.5t341.5 204.5l39 225h358l-39 -225q76 -29 134 -85t89.5 -121.5t47.5 -120.5t20 -103h-369q-13 43 -56 83t-116 40q-91 0 -162 -72.5t-71 -183.5q0 -86 51.5 -140.5t130.5 -54.5q74 0 122.5 40.5
t66.5 82.5h368q-8 -36 -28 -81.5t-58 -100.5t-86.5 -102.5t-120 -86.5t-151.5 -55l-41 -229h-359z" />
    <glyph glyph-name="sterling" unicode="&#xa3;" horiz-adv-x="1290" 
d="M61 0l60 348h76q78 0 94 92l20 113h-153l51 287h153l33 184q15 84 55.5 160t104 137t156 97t202.5 36q226 0 354 -115t128 -301q0 -49 -4 -65h-367q0 4 1 13.5t1 12.5q0 45 -31 76t-90 31q-58 0 -94 -36.5t-47 -96.5l-23 -133h369l-51 -287h-369l-22 -113
q-4 -21 -11 -38.5t-14 -27t-14.5 -16t-11.5 -8.5t-5 -2h686l-59 -348h-1178z" />
    <glyph glyph-name="currency" unicode="&#xa4;" horiz-adv-x="1146" 
d="M264 399l105 119q-54 91 -54 199q0 107 54 198l-105 119l133 123l99 -113q94 62 209 62q113 0 208 -62l99 113l133 -123l-107 -119q56 -94 56 -198q0 -110 -56 -199l107 -119l-133 -123l-99 111q-95 -59 -208 -59q-120 0 -209 59l-99 -111zM500 717q0 -86 59.5 -145.5
t145.5 -59.5t145 59.5t59 145.5t-59 145.5t-145 59.5t-145.5 -59.5t-59.5 -145.5z" />
    <glyph glyph-name="yen" unicode="&#xa5;" horiz-adv-x="1331" 
d="M190 215l43 246h318l20 112h-317l43 246h119l-215 615h399l172 -533h41l361 533h440l-426 -615h123l-43 -246h-318l-20 -112h317l-43 -246h-317l-37 -215h-379l37 215h-318z" />
    <glyph glyph-name="brokenbar" unicode="&#xa6;" horiz-adv-x="839" 
d="M377 707v788h348v-788h-348zM377 -410v789h348v-789h-348z" />
    <glyph glyph-name="section" unicode="&#xa7;" horiz-adv-x="1341" 
d="M133 102h379q-2 -2 -2 -6v-12q0 -65 48.5 -100t137.5 -35q81 0 119.5 32.5t38.5 79.5q0 42 -33.5 69t-111.5 44l-185 41q-329 71 -329 332q0 62 20 119t51 96.5t63.5 66t61.5 37.5q-24 37 -35 57t-22.5 58.5t-11.5 79.5q0 76 37.5 147t104 125.5t167 87.5t217.5 33
q133 0 241.5 -32.5t176.5 -86.5t104.5 -121t36.5 -139q0 -38 -6 -61h-379v6q0 2 1 7t1 11q0 55 -48.5 87t-123.5 32q-74 0 -113 -31.5t-39 -76.5q0 -36 30 -58t106 -39l188 -41q167 -34 247.5 -124.5t80.5 -219.5q0 -62 -22 -117.5t-56 -93t-63 -60t-56 -36.5
q78 -105 78 -223q0 -75 -37.5 -144t-105 -123t-170.5 -86t-224 -32q-260 0 -415.5 103t-155.5 284q0 39 8 63zM682 481l227 -41q23 13 43.5 41t20.5 60q0 85 -109 104l-227 41q-64 -40 -64 -100q0 -81 109 -105z" />
    <glyph glyph-name="dieresis" unicode="&#xa8;" horiz-adv-x="839" 
d="M694 1219l51 286h297l-51 -286h-297zM274 1219l52 286h297l-52 -286h-297z" />
    <glyph glyph-name="copyright" unicode="&#xa9;" horiz-adv-x="1679" 
d="M451 717q0 -142 68 -259t188 -185t266 -68t266 68t188 185t68 259t-68 259t-188 185t-266 68t-266 -68t-188 -185t-68 -259zM1116 645h236q-3 -30 -17 -67.5t-44 -80.5t-70 -77.5t-102.5 -58t-135.5 -23.5q-161 0 -270 109t-109 270t109 270t270 109q73 0 135.5 -22.5
t102.5 -56t70 -75t44 -77.5t17 -66h-236q-3 11 -11 24.5t-23 30t-41 27t-58 10.5q-65 0 -109.5 -46t-44.5 -128t44.5 -128t109.5 -46q102 0 133 102zM215 717q0 155 57 292t156.5 234.5t241 154t303.5 56.5t303.5 -56.5t241 -154t156.5 -234.5t57 -292t-57 -292
t-156.5 -234.5t-241 -154t-303.5 -56.5t-303.5 56.5t-241 154t-156.5 234.5t-57 292z" />
    <glyph glyph-name="ordfeminine" unicode="&#xaa;" horiz-adv-x="768" 
d="M637 758l-12 51h-11q-15 -18 -41 -31q-58 -30 -133 -30q-103 0 -162 57.5t-59 138.5q0 105 81 164t194 59h184l6 31q7 34 -10.5 58t-67.5 24q-26 0 -43 -8t-23.5 -17t-15.5 -26h-225q27 100 102 162.5t201 62.5q153 0 238 -75t65 -212l-74 -409h-194zM649 1008l6 36h-112
q-40 0 -67 -17.5t-27 -55.5q0 -25 21 -42.5t60 -17.5q51 0 82 32t37 65z" />
    <glyph glyph-name="guillemotleft" unicode="&#xab;" horiz-adv-x="1310" 
d="M918 102l-232 430l383 431h367l-402 -451l219 -410h-335zM385 102l-231 430l383 431h366l-401 -451l219 -410h-336z" />
    <glyph glyph-name="logicalnot" unicode="&#xac;" horiz-adv-x="1146" 
d="M254 512v328h881v-574h-338v246h-543z" />
    <glyph glyph-name="uni00AD" unicode="&#xad;" horiz-adv-x="901" 
d="M174 420l57 328h717l-57 -328h-717z" />
    <glyph glyph-name="registered" unicode="&#xae;" horiz-adv-x="1679" 
d="M707 369v706h327q116 0 186 -68t70 -178q0 -116 -78 -182q-37 -29 -75 -43l163 -235h-229l-149 215h-11v-215h-204zM911 737h93q81 0 81 82t-81 82h-93v-164zM451 717q0 -142 68 -259t188 -185t266 -68t266 68t188 185t68 259t-68 259t-188 185t-266 68t-266 -68
t-188 -185t-68 -259zM215 717q0 155 57 292t156.5 234.5t241 154t303.5 56.5t303.5 -56.5t241 -154t156.5 -234.5t57 -292t-57 -292t-156.5 -234.5t-241 -154t-303.5 -56.5t-303.5 56.5t-241 154t-156.5 234.5t-57 292z" />
    <glyph glyph-name="overscore" unicode="&#xaf;" horiz-adv-x="829" 
d="M281 1249l43 246h706l-43 -246h-706z" />
    <glyph glyph-name="degree" unicode="&#xb0;" horiz-adv-x="819" 
d="M487 1147q0 -47 28 -75t75 -28t74.5 28t27.5 75t-27.5 74.5t-74.5 27.5t-75 -27.5t-28 -74.5zM283 1147q0 129 91 218t216 89t216 -89t91 -218t-91 -218t-216 -89t-216 89t-91 218z" />
    <glyph glyph-name="plusminus" unicode="&#xb1;" horiz-adv-x="1136" 
d="M532 420v317h-307v328h307v328h338v-328h308v-328h-308v-317h-338zM225 0v328h953v-328h-953z" />
    <glyph glyph-name="uni00B2" unicode="&#xb2;" horiz-adv-x="696" 
d="M240 901l28 164l334 266q8 6 24.5 19.5t21 17.5t12.5 13.5t10 18t2 19.5q0 23 -18 39.5t-54 16.5q-34 0 -58 -23t-32 -59h-195q19 112 93 184t198 72q121 0 189.5 -58.5t70.5 -152.5q0 -43 -8 -75t-29.5 -60.5t-38 -45t-53.5 -47.5q-3 -3 -5 -4.5t-4.5 -3.5t-4.5 -4
l-143 -113l-2 -10h235l-31 -174h-542z" />
    <glyph glyph-name="uni00B3" unicode="&#xb3;" horiz-adv-x="686" 
d="M250 1137h194v-9q0 -25 19.5 -44t52.5 -19t57.5 18.5t24.5 63.5q0 28 -21.5 44.5t-54.5 16.5h-53l25 144h61q33 0 59.5 18t26.5 51q0 54 -68 54q-58 0 -69 -62h-195q19 101 91 168.5t186 67.5q118 0 184 -56.5t66 -146.5q0 -28 -5.5 -52.5t-14 -41t-19.5 -30t-21 -21
t-19 -12.5t-13 -7l-5 -2l-2 -10q13 -8 27 -29q29 -48 29 -102q0 -103 -82 -175.5t-203 -72.5q-113 0 -187.5 59t-74.5 137q0 38 4 50z" />
    <glyph glyph-name="acute" unicode="&#xb4;" horiz-adv-x="665" 
d="M274 1208l258 308h338l-309 -308h-287z" />
    <glyph glyph-name="uni00B5" unicode="&#xb5;" horiz-adv-x="1249" 
d="M29 -410l260 1475h358l-98 -563q-4 -28 -4 -37q0 -63 41.5 -100t113.5 -37q71 0 116.5 44.5t57.5 119.5l101 573h358l-186 -1065h-318l-6 82h-10l-9 -9l-12 -12t-13.5 -12.5t-17 -14t-19 -13t-22 -13.5t-24 -11t-27.5 -9t-29.5 -5.5t-33.5 -2.5q-57 0 -104 14
q-6 2 -20 7.5t-21 8.5l-74 -420h-358z" />
    <glyph glyph-name="paragraph" unicode="&#xb6;" horiz-adv-x="1320" 
d="M586 -205v799q-170 0 -285 118.5t-115 301.5t115 301.5t285 118.5h727v-1639h-297v1342h-133v-1342h-297z" />
    <glyph glyph-name="middot" unicode="&#xb7;" horiz-adv-x="573" 
d="M162 348l67 389h379l-67 -389h-379z" />
    <glyph glyph-name="cedilla" unicode="&#xb8;" horiz-adv-x="542" 
d="M-27 -502l33 195h107q36 0 58 17t22 48q0 25 -20.5 41.5t-55.5 16.5h-58l17 92l51 82h246l-51 -82q22 -11 44.5 -29t45 -57t22.5 -86q0 -105 -77 -171.5t-203 -66.5h-181z" />
    <glyph glyph-name="uni00B9" unicode="&#xb9;" horiz-adv-x="563" 
d="M383 901l82 461h-154l33 184h102q30 0 42.5 12.5t17.5 38.5l8 41h195l-131 -737h-195z" />
    <glyph glyph-name="ordmasculine" unicode="&#xba;" horiz-adv-x="839" 
d="M236 1042q0 182 115.5 297t279.5 115q154 0 245 -84.5t91 -220.5q0 -184 -115.5 -298t-280.5 -114q-89 0 -162.5 30.5t-123 101.5t-49.5 173zM473 1073q0 -50 32.5 -80t82.5 -30q54 0 97.5 43.5t43.5 111.5q0 50 -32.5 80.5t-82.5 30.5q-59 0 -100 -46.5t-41 -109.5z" />
    <glyph glyph-name="guillemotright" unicode="&#xbb;" horiz-adv-x="1310" 
d="M598 102l401 451l-219 410h336l232 -431l-383 -430h-367zM66 102l401 451l-219 410h336l231 -431l-383 -430h-366z" />
    <glyph glyph-name="onequarter" unicode="&#xbc;" horiz-adv-x="1484" 
d="M154 0l1142 1434h226l-1143 -1434h-225zM358 696l82 461h-153l32 184h103q30 0 42 12.5t17 39.5l8 41h195l-131 -738h-195zM838 133l32 191l320 413h287l-78 -440h71l-28 -164h-72l-24 -133h-195l25 133h-338zM1075 297h129l35 205h-20l-142 -195z" />
    <glyph glyph-name="onehalf" unicode="&#xbd;" horiz-adv-x="1505" 
d="M154 0l1142 1434h226l-1143 -1434h-225zM358 696l82 461h-153l32 184h103q30 0 42 12.5t17 39.5l8 41h195l-131 -738h-195zM891 0l29 164l333 266q8 6 24.5 19.5t21 17.5t12.5 13.5t10 18t2 19.5q0 23 -18 39t-54 16q-34 0 -58 -22.5t-32 -58.5h-194q19 112 92.5 184
t197.5 72q121 0 190 -58.5t71 -152.5q0 -42 -8 -74t-30 -61t-37.5 -44t-53.5 -48q-10 -9 -15 -13l-143 -113l-2 -10h235l-30 -174h-543z" />
    <glyph glyph-name="threequarters" unicode="&#xbe;" horiz-adv-x="1556" 
d="M246 0l1143 1434h225l-1143 -1434h-225zM219 932h195v-8q0 -25 19 -44.5t52 -19.5t57.5 18.5t24.5 63.5q0 29 -21 45.5t-54 16.5h-54l25 143h61q33 0 59.5 18.5t26.5 51.5q0 53 -67 53q-59 0 -70 -62h-194q19 101 90.5 168.5t185.5 67.5q118 0 184 -56.5t66 -146.5
q0 -28 -5.5 -52.5t-14 -41t-19 -30t-20.5 -21t-19 -12.5t-13 -7l-5 -2l-2 -10q11 -7 26 -29q29 -48 29 -102q0 -103 -82 -175.5t-203 -72.5q-113 0 -187.5 59.5t-74.5 137.5q0 37 4 49zM930 133l33 191l319 413h287l-78 -440h72l-29 -164h-72l-24 -133h-195l25 133h-338z
M1167 297h129l35 205h-20l-142 -195z" />
    <glyph glyph-name="questiondown" unicode="&#xbf;" horiz-adv-x="1116" 
d="M705 61h389q-33 -207 -177.5 -328.5t-367.5 -121.5q-117 0 -212.5 31t-156 82.5t-93 117.5t-32.5 138t22.5 132.5t64.5 105t88 76t106 58.5q84 38 118.5 70.5t45.5 103.5l4 27h358l-6 -41q-18 -124 -78.5 -203t-197.5 -135q-67 -27 -97 -58t-30 -77q0 -40 29 -65t87 -25
q56 0 90 32t46 80zM518 686l66 379h379l-66 -379h-379z" />
    <glyph glyph-name="Agrave" unicode="&#xc0;" horiz-adv-x="1474" 
d="M10 0l733 1434h533l229 -1434h-389l-39 246h-514l-123 -246h-430zM725 573h307l-57 431h-41zM864 1577l-202 307h337l152 -307h-287z" />
    <glyph glyph-name="Aacute" unicode="&#xc1;" horiz-adv-x="1474" 
d="M10 0l733 1434h533l229 -1434h-389l-39 246h-514l-123 -246h-430zM725 573h307l-57 431h-41zM891 1577l258 307h338l-309 -307h-287z" />
    <glyph glyph-name="Acircumflex" unicode="&#xc2;" horiz-adv-x="1474" 
d="M10 0l733 1434h533l229 -1434h-389l-39 246h-514l-123 -246h-430zM725 573h307l-57 431h-41zM604 1577l309 307h287l203 -307h-277l-82 123l-122 -123h-318z" />
    <glyph glyph-name="Atilde" unicode="&#xc3;" horiz-adv-x="1474" 
d="M10 0l733 1434h533l229 -1434h-389l-39 246h-514l-123 -246h-430zM725 573h307l-57 431h-41zM874 1577h-215q24 143 97.5 215t177.5 72q43 0 76.5 -15.5t61 -31t56.5 -15.5q30 0 53.5 19t28.5 43h215q-25 -143 -97.5 -215t-176.5 -72q-43 0 -76.5 15.5t-61.5 30.5t-57 15
q-30 0 -53.5 -18.5t-28.5 -42.5z" />
    <glyph glyph-name="Adieresis" unicode="&#xc4;" horiz-adv-x="1474" 
d="M10 0l733 1434h533l229 -1434h-389l-39 246h-514l-123 -246h-430zM725 573h307l-57 431h-41zM1083 1587l52 287h297l-52 -287h-297zM664 1587l51 287h297l-51 -287h-297z" />
    <glyph glyph-name="Aring" unicode="&#xc5;" horiz-adv-x="1474" 
d="M10 0l733 1434h533l229 -1434h-389l-39 246h-514l-123 -246h-430zM725 573h307l-57 431h-41zM795 1720q0 99 77.5 172.5t182.5 73.5q93 0 154 -58t61 -145q0 -99 -76.5 -173t-181.5 -74q-97 0 -157 58t-60 146zM958 1731q0 -29 19.5 -45.5t50.5 -16.5q32 0 55 23t23 57
q0 29 -18.5 46t-49.5 17q-35 0 -57.5 -23t-22.5 -58z" />
    <glyph glyph-name="AE" unicode="&#xc6;" horiz-adv-x="1996" 
d="M-51 0l876 1434h1332l-62 -349h-625l-36 -204h583l-57 -328h-584l-37 -205h625l-59 -348h-1004l49 287h-409l-172 -287h-420zM741 614h267l84 471h-62z" />
    <glyph glyph-name="Ccedilla" unicode="&#xc7;" horiz-adv-x="1515" 
d="M487 -502l33 195h107q36 0 58 17t22 48q0 25 -20.5 41.5t-55.5 16.5h-58l17 92l57 94q-206 55 -328 218t-122 394q0 144 43 276t118 233.5t173.5 176.5t214.5 114.5t235 39.5q120 0 220.5 -34.5t169.5 -90.5t119 -131.5t76 -154.5t33 -162h-378q-7 34 -24.5 67t-49 65
t-84 52t-119.5 20q-68 0 -134 -31t-118.5 -86t-84.5 -138t-32 -179q0 -137 81 -220t202 -83q55 0 104 17.5t81 42t59.5 57t40.5 55t22 43.5h379q-11 -53 -41.5 -120t-87.5 -145.5t-130.5 -144t-179.5 -114t-224 -57.5l-45 -74q22 -11 44.5 -29t45 -57t22.5 -86
q0 -105 -77 -171.5t-203 -66.5h-181z" />
    <glyph glyph-name="Egrave" unicode="&#xc8;" horiz-adv-x="1218" 
d="M123 0l252 1434h1003l-61 -349h-625l-37 -204h584l-57 -328h-584l-37 -205h625l-60 -348h-1003zM758 1577l-203 307h338l151 -307h-286z" />
    <glyph glyph-name="Eacute" unicode="&#xc9;" horiz-adv-x="1218" 
d="M123 0l252 1434h1003l-61 -349h-625l-37 -204h584l-57 -328h-584l-37 -205h625l-60 -348h-1003zM743 1577l258 307h338l-309 -307h-287z" />
    <glyph glyph-name="Ecircumflex" unicode="&#xca;" horiz-adv-x="1218" 
d="M123 0l252 1434h1003l-61 -349h-625l-37 -204h584l-57 -328h-584l-37 -205h625l-60 -348h-1003zM492 1577l309 307h286l203 -307h-276l-82 123l-123 -123h-317z" />
    <glyph glyph-name="Edieresis" unicode="&#xcb;" horiz-adv-x="1218" 
d="M123 0l252 1434h1003l-61 -349h-625l-37 -204h584l-57 -328h-584l-37 -205h625l-60 -348h-1003zM961 1587l51 287h297l-52 -287h-296zM541 1587l51 287h297l-51 -287h-297z" />
    <glyph glyph-name="Igrave" unicode="&#xcc;" horiz-adv-x="624" 
d="M123 0l252 1434h379l-252 -1434h-379zM424 1577l-203 307h338l152 -307h-287z" />
    <glyph glyph-name="Iacute" unicode="&#xcd;" horiz-adv-x="624" 
d="M123 0l252 1434h379l-252 -1434h-379zM449 1577l258 307h337l-309 -307h-286z" />
    <glyph glyph-name="Icircumflex" unicode="&#xce;" horiz-adv-x="624" 
d="M123 0l252 1434h379l-252 -1434h-379zM168 1577l309 307h287l203 -307h-277l-82 123l-123 -123h-317z" />
    <glyph glyph-name="Idieresis" unicode="&#xcf;" horiz-adv-x="624" 
d="M123 0l252 1434h379l-252 -1434h-379zM653 1587l52 287h296l-51 -287h-297zM233 1587l52 287h297l-52 -287h-297z" />
    <glyph glyph-name="Eth" unicode="&#xd0;" horiz-adv-x="1484" 
d="M178 0l98 563h-153l53 307h154l100 564h504q134 0 251 -48t200 -130.5t130.5 -198t47.5 -246.5q0 -170 -64.5 -322t-172 -258.5t-251 -168.5t-297.5 -62h-600zM621 369h200q67 0 132 28.5t116.5 78.5t83 127t31.5 167q0 126 -80 210.5t-201 84.5h-160l-34 -195h235
l-53 -307h-236z" />
    <glyph glyph-name="Ntilde" unicode="&#xd1;" horiz-adv-x="1495" 
d="M123 0l252 1434h440l256 -748h41l133 748h379l-252 -1434h-440l-256 748h-41l-133 -748h-379zM864 1577h-215q24 143 97.5 215t177.5 72q43 0 76.5 -15.5t61 -31t56.5 -15.5q30 0 53.5 19t28.5 43h215q-25 -143 -97.5 -215t-176.5 -72q-43 0 -76.5 15.5t-61.5 30.5
t-57 15q-30 0 -53.5 -18.5t-28.5 -42.5z" />
    <glyph glyph-name="Ograve" unicode="&#xd2;" horiz-adv-x="1536" 
d="M862 348q68 0 135 31t120 86t85.5 137.5t32.5 177.5q0 137 -81 221t-206 84q-68 0 -135 -31t-120 -86t-85.5 -137.5t-32.5 -177.5q0 -137 81 -221t206 -84zM825 -20q-277 0 -452.5 178t-175.5 454q0 182 65.5 341t174.5 267.5t252 171t296 62.5q277 0 453 -178.5
t176 -454.5q0 -146 -42.5 -278t-117.5 -233.5t-174 -176.5t-216 -114t-239 -39zM850 1577l-203 307h338l152 -307h-287z" />
    <glyph glyph-name="Oacute" unicode="&#xd3;" horiz-adv-x="1536" 
d="M862 348q68 0 135 31t120 86t85.5 137.5t32.5 177.5q0 137 -81 221t-206 84q-68 0 -135 -31t-120 -86t-85.5 -137.5t-32.5 -177.5q0 -137 81 -221t206 -84zM825 -20q-277 0 -452.5 178t-175.5 454q0 182 65.5 341t174.5 267.5t252 171t296 62.5q277 0 453 -178.5
t176 -454.5q0 -146 -42.5 -278t-117.5 -233.5t-174 -176.5t-216 -114t-239 -39zM866 1577l258 307h338l-309 -307h-287z" />
    <glyph glyph-name="Ocircumflex" unicode="&#xd4;" horiz-adv-x="1536" 
d="M862 348q68 0 135 31t120 86t85.5 137.5t32.5 177.5q0 137 -81 221t-206 84q-68 0 -135 -31t-120 -86t-85.5 -137.5t-32.5 -177.5q0 -137 81 -221t206 -84zM825 -20q-277 0 -452.5 178t-175.5 454q0 182 65.5 341t174.5 267.5t252 171t296 62.5q277 0 453 -178.5
t176 -454.5q0 -146 -42.5 -278t-117.5 -233.5t-174 -176.5t-216 -114t-239 -39zM610 1577l310 307h286l203 -307h-276l-82 123l-123 -123h-318z" />
    <glyph glyph-name="Otilde" unicode="&#xd5;" horiz-adv-x="1536" 
d="M862 348q68 0 135 31t120 86t85.5 137.5t32.5 177.5q0 137 -81 221t-206 84q-68 0 -135 -31t-120 -86t-85.5 -137.5t-32.5 -177.5q0 -137 81 -221t206 -84zM825 -20q-277 0 -452.5 178t-175.5 454q0 182 65.5 341t174.5 267.5t252 171t296 62.5q277 0 453 -178.5
t176 -454.5q0 -146 -42.5 -278t-117.5 -233.5t-174 -176.5t-216 -114t-239 -39zM872 1567h-215q24 143 97.5 214.5t177.5 71.5q43 0 76.5 -15.5t61 -30.5t56.5 -15q30 0 53.5 18.5t28.5 42.5h215q-25 -143 -97.5 -214.5t-176.5 -71.5q-43 0 -76.5 15.5t-61.5 30.5t-57 15
q-30 0 -53.5 -18.5t-28.5 -42.5z" />
    <glyph glyph-name="Odieresis" unicode="&#xd6;" horiz-adv-x="1536" 
d="M862 348q68 0 135 31t120 86t85.5 137.5t32.5 177.5q0 137 -81 221t-206 84q-68 0 -135 -31t-120 -86t-85.5 -137.5t-32.5 -177.5q0 -137 81 -221t206 -84zM825 -20q-277 0 -452.5 178t-175.5 454q0 182 65.5 341t174.5 267.5t252 171t296 62.5q277 0 453 -178.5
t176 -454.5q0 -146 -42.5 -278t-117.5 -233.5t-174 -176.5t-216 -114t-239 -39zM1092 1587l51 287h297l-51 -287h-297zM672 1587l51 287h297l-51 -287h-297z" />
    <glyph glyph-name="multiply" unicode="&#xd7;" horiz-adv-x="1146" 
d="M223 348l236 246l-236 246l236 235l235 -246l236 246l235 -235l-235 -246l235 -246l-235 -235l-236 245l-235 -245z" />
    <glyph glyph-name="Oslash" unicode="&#xd8;" horiz-adv-x="1556" 
d="M172 -72l176 252q-151 171 -151 432q0 182 65.5 341t175.5 267.5t256 171t305 62.5q126 0 230 -37l61 88h379l-184 -256q149 -175 149 -428q0 -182 -65.5 -340.5t-176 -267.5t-256.5 -171t-305 -62q-128 0 -223 32l-57 -84h-379zM600 518l399 565q-14 2 -41 2
q-72 0 -141 -31t-123 -86t-86.5 -137.5t-32.5 -177.5q0 -74 25 -135zM1233 905l-395 -555q14 -2 34 -2q71 0 140 31t123 86t87 137.5t33 177.5q0 64 -22 125z" />
    <glyph glyph-name="Ugrave" unicode="&#xd9;" horiz-adv-x="1454" 
d="M240 723l125 711h378l-143 -820q-4 -28 -4 -49q0 -97 58.5 -157t152.5 -60q101 0 171 71.5t91 184.5l145 830h379l-139 -795q-45 -301 -224.5 -480t-455.5 -179q-261 0 -411 145.5t-150 382.5q0 63 27 215zM844 1577l-203 307h338l151 -307h-286z" />
    <glyph glyph-name="Uacute" unicode="&#xda;" horiz-adv-x="1454" 
d="M240 723l125 711h378l-143 -820q-4 -28 -4 -49q0 -97 58.5 -157t152.5 -60q101 0 171 71.5t91 184.5l145 830h379l-139 -795q-45 -301 -224.5 -480t-455.5 -179q-261 0 -411 145.5t-150 382.5q0 63 27 215zM838 1577l258 307h338l-310 -307h-286z" />
    <glyph glyph-name="Ucircumflex" unicode="&#xdb;" horiz-adv-x="1454" 
d="M240 723l125 711h378l-143 -820q-4 -28 -4 -49q0 -97 58.5 -157t152.5 -60q101 0 171 71.5t91 184.5l145 830h379l-139 -795q-45 -301 -224.5 -480t-455.5 -179q-261 0 -411 145.5t-150 382.5q0 63 27 215zM569 1577l310 307h286l203 -307h-276l-82 123l-123 -123h-318z
" />
    <glyph glyph-name="Udieresis" unicode="&#xdc;" horiz-adv-x="1454" 
d="M240 723l125 711h378l-143 -820q-4 -28 -4 -49q0 -97 58.5 -157t152.5 -60q101 0 171 71.5t91 184.5l145 830h379l-139 -795q-45 -301 -224.5 -480t-455.5 -179q-261 0 -411 145.5t-150 382.5q0 63 27 215zM1044 1587l52 287h297l-52 -287h-297zM625 1587l51 287h297
l-51 -287h-297z" />
    <glyph glyph-name="Yacute" unicode="&#xdd;" horiz-adv-x="1331" 
d="M471 0l76 440l-346 994h399l172 -533h41l361 533h440l-688 -994l-76 -440h-379zM737 1577l258 307h338l-309 -307h-287z" />
    <glyph glyph-name="Thorn" unicode="&#xde;" horiz-adv-x="1474" 
d="M123 0l252 1434h379l-39 -226h364q209 0 333 -113t124 -304q0 -168 -72 -298t-195 -199t-274 -69h-454l-39 -225h-379zM604 584h402q67 0 109 41t42 112q0 51 -33 82t-92 31h-381z" />
    <glyph glyph-name="germandbls" unicode="&#xdf;" horiz-adv-x="1259" 
d="M102 0l174 993q15 99 55 180.5t105.5 145.5t164.5 99.5t222 35.5q253 0 392 -110t139 -275q0 -180 -113 -285q-52 -46 -113 -67v-10q40 -24 70 -64q70 -94 70 -213q0 -91 -26.5 -164t-72.5 -122t-110 -82t-136.5 -47.5t-154.5 -14.5h-164l55 317h78q58 0 105 38.5
t47 113.5q0 55 -35 85t-100 30h-47l53 307h71q57 0 100.5 37t43.5 96q0 49 -41.5 81t-116.5 32q-139 0 -162 -144l-174 -993h-379z" />
    <glyph glyph-name="agrave" unicode="&#xe0;" horiz-adv-x="1167" 
d="M760 0l-6 82h-11q-36 -36 -63 -51q-81 -51 -201 -51q-174 0 -271 85t-97 211q0 92 37.5 165t100 116t136.5 65.5t154 22.5h292l5 21q9 55 -24 96t-114 41q-56 0 -88.5 -24.5t-40.5 -51.5h-338q10 67 46.5 129.5t95 114.5t147 83t191.5 31q138 0 239.5 -38.5t157 -104
t75 -149t3.5 -177.5l-109 -616h-317zM791 410l4 20h-201q-66 0 -100.5 -27.5t-34.5 -70.5q0 -38 32 -62t95 -24q75 0 131.5 44t73.5 120zM643 1198l-203 307h338l152 -307h-287z" />
    <glyph glyph-name="aacute" unicode="&#xe1;" horiz-adv-x="1167" 
d="M760 0l-6 82h-11q-36 -36 -63 -51q-81 -51 -201 -51q-174 0 -271 85t-97 211q0 92 37.5 165t100 116t136.5 65.5t154 22.5h292l5 21q9 55 -24 96t-114 41q-56 0 -88.5 -24.5t-40.5 -51.5h-338q10 67 46.5 129.5t95 114.5t147 83t191.5 31q138 0 239.5 -38.5t157 -104
t75 -149t3.5 -177.5l-109 -616h-317zM791 410l4 20h-201q-66 0 -100.5 -27.5t-34.5 -70.5q0 -38 32 -62t95 -24q75 0 131.5 44t73.5 120zM643 1198l258 307h338l-309 -307h-287z" />
    <glyph glyph-name="acircumflex" unicode="&#xe2;" horiz-adv-x="1167" 
d="M760 0l-6 82h-11q-36 -36 -63 -51q-81 -51 -201 -51q-174 0 -271 85t-97 211q0 92 37.5 165t100 116t136.5 65.5t154 22.5h292l5 21q9 55 -24 96t-114 41q-56 0 -88.5 -24.5t-40.5 -51.5h-338q10 67 46.5 129.5t95 114.5t147 83t191.5 31q138 0 239.5 -38.5t157 -104
t75 -149t3.5 -177.5l-109 -616h-317zM791 410l4 20h-201q-66 0 -100.5 -27.5t-34.5 -70.5q0 -38 32 -62t95 -24q75 0 131.5 44t73.5 120zM408 1198l309 307h287l202 -307h-276l-82 123l-123 -123h-317z" />
    <glyph glyph-name="atilde" unicode="&#xe3;" horiz-adv-x="1167" 
d="M760 0l-6 82h-11q-36 -36 -63 -51q-81 -51 -201 -51q-174 0 -271 85t-97 211q0 92 37.5 165t100 116t136.5 65.5t154 22.5h292l5 21q9 55 -24 96t-114 41q-56 0 -88.5 -24.5t-40.5 -51.5h-338q10 67 46.5 129.5t95 114.5t147 83t191.5 31q138 0 239.5 -38.5t157 -104
t75 -149t3.5 -177.5l-109 -616h-317zM791 410l4 20h-201q-66 0 -100.5 -27.5t-34.5 -70.5q0 -38 32 -62t95 -24q75 0 131.5 44t73.5 120zM664 1208h-215q24 143 97 215t177 72q43 0 76.5 -15.5t61.5 -30.5t57 -15q30 0 53 18.5t28 42.5h215q-25 -143 -97.5 -215t-176.5 -72
q-43 0 -76.5 15.5t-61.5 31t-57 15.5q-30 0 -53 -19t-28 -43z" />
    <glyph glyph-name="adieresis" unicode="&#xe4;" horiz-adv-x="1167" 
d="M760 0l-6 82h-11q-36 -36 -63 -51q-81 -51 -201 -51q-174 0 -271 85t-97 211q0 92 37.5 165t100 116t136.5 65.5t154 22.5h292l5 21q9 55 -24 96t-114 41q-56 0 -88.5 -24.5t-40.5 -51.5h-338q10 67 46.5 129.5t95 114.5t147 83t191.5 31q138 0 239.5 -38.5t157 -104
t75 -149t3.5 -177.5l-109 -616h-317zM791 410l4 20h-201q-66 0 -100.5 -27.5t-34.5 -70.5q0 -38 32 -62t95 -24q75 0 131.5 44t73.5 120zM862 1208l51 287h297l-51 -287h-297zM442 1208l52 287h297l-52 -287h-297z" />
    <glyph glyph-name="aring" unicode="&#xe5;" horiz-adv-x="1167" 
d="M760 0l-6 82h-11q-36 -36 -63 -51q-81 -51 -201 -51q-174 0 -271 85t-97 211q0 92 37.5 165t100 116t136.5 65.5t154 22.5h292l5 21q9 55 -24 96t-114 41q-56 0 -88.5 -24.5t-40.5 -51.5h-338q10 67 46.5 129.5t95 114.5t147 83t191.5 31q138 0 239.5 -38.5t157 -104
t75 -149t3.5 -177.5l-109 -616h-317zM791 410l4 20h-201q-66 0 -100.5 -27.5t-34.5 -70.5q0 -38 32 -62t95 -24q75 0 131.5 44t73.5 120zM573 1352q0 99 78 172t183 73q93 0 154 -57.5t61 -144.5q0 -99 -76.5 -173.5t-181.5 -74.5q-97 0 -157.5 58.5t-60.5 146.5zM737 1362
q0 -29 19.5 -45.5t50.5 -16.5q32 0 55 23t23 57q0 29 -18.5 46.5t-49.5 17.5q-35 0 -57.5 -23.5t-22.5 -58.5z" />
    <glyph glyph-name="ae" unicode="&#xe6;" horiz-adv-x="1843" 
d="M553 645h272l4 21q11 57 -24 97t-111 40q-33 0 -59.5 -9t-40.5 -23.5t-21 -24.5t-10 -19h-338q31 155 154.5 256.5t312.5 101.5q70 0 132 -18.5t103.5 -48t63 -49t35.5 -37.5q46 46 94 76q124 77 289 77q110 0 202 -37.5t156 -105t95.5 -168.5t21.5 -221q-1 -21 -16 -82
q-6 -14 -15 -41h-716q0 -73 48.5 -128.5t137.5 -55.5q77 0 125 41q25 21 39 41h338q-17 -37 -43.5 -76.5t-75.5 -90t-107 -89.5t-142 -65.5t-177 -26.5q-168 0 -281 77q-53 35 -79 80q-40 -43 -103 -80q-142 -77 -311 -77q-88 0 -158 19.5t-113.5 49.5t-72 70.5t-40 80
t-11.5 79.5q0 163 118.5 264.5t323.5 101.5zM1169 625h400q-2 79 -46.5 131.5t-125.5 52.5q-164 0 -228 -184zM784 410l4 20h-194q-66 0 -100.5 -27.5t-34.5 -70.5q0 -38 32 -62t95 -24q74 0 127.5 43.5t70.5 120.5z" />
    <glyph glyph-name="ccedilla" unicode="&#xe7;" 
d="M348 -502l33 195h106q36 0 58 17t22 48q0 25 -20.5 41.5t-54.5 16.5h-58l17 92l55 92q-165 39 -260.5 165.5t-95.5 297.5q0 174 84.5 317.5t226 224t307.5 80.5q117 0 211 -34t149.5 -84.5t92 -114.5t50 -117.5t13.5 -99.5h-369q-38 123 -174 123q-90 0 -161.5 -74
t-71.5 -184q0 -85 52.5 -139t131.5 -54q74 0 121.5 40.5t65.5 82.5h368q-7 -41 -27 -90t-61 -108.5t-96 -109.5t-139 -88.5t-181 -49.5l-47 -76q16 -8 32.5 -20t36 -33t32 -52t12.5 -67q0 -105 -77.5 -171.5t-203.5 -66.5h-180z" />
    <glyph glyph-name="egrave" unicode="&#xe8;" 
d="M864 328h338q-15 -28 -20 -37t-26 -43.5t-35 -51.5t-43.5 -50t-55.5 -52t-66 -43.5t-81 -38t-94 -23t-111 -9.5q-235 0 -377.5 135t-142.5 348q0 175 84.5 318.5t226 223.5t307.5 80q245 0 388 -147.5t112 -394.5q-8 -41 -19 -74l-10 -29h-747q0 -82 49.5 -133t144.5 -51
q69 0 129 35q27 15 49 37zM528 635h420q-1 88 -56.5 136t-137.5 48q-84 0 -143 -50t-83 -134zM653 1198l-202 307h337l152 -307h-287z" />
    <glyph glyph-name="eacute" unicode="&#xe9;" 
d="M864 328h338q-15 -28 -20 -37t-26 -43.5t-35 -51.5t-43.5 -50t-55.5 -52t-66 -43.5t-81 -38t-94 -23t-111 -9.5q-235 0 -377.5 135t-142.5 348q0 175 84.5 318.5t226 223.5t307.5 80q245 0 388 -147.5t112 -394.5q-8 -41 -19 -74l-10 -29h-747q0 -82 49.5 -133t144.5 -51
q69 0 129 35q27 15 49 37zM528 635h420q-1 88 -56.5 136t-137.5 48q-84 0 -143 -50t-83 -134zM645 1198l258 307h338l-309 -307h-287z" />
    <glyph glyph-name="ecircumflex" unicode="&#xea;" 
d="M864 328h338q-15 -28 -20 -37t-26 -43.5t-35 -51.5t-43.5 -50t-55.5 -52t-66 -43.5t-81 -38t-94 -23t-111 -9.5q-235 0 -377.5 135t-142.5 348q0 175 84.5 318.5t226 223.5t307.5 80q245 0 388 -147.5t112 -394.5q-8 -41 -19 -74l-10 -29h-747q0 -82 49.5 -133t144.5 -51
q69 0 129 35q27 15 49 37zM528 635h420q-1 88 -56.5 136t-137.5 48q-84 0 -143 -50t-83 -134zM410 1198l309 307h287l202 -307h-276l-82 123l-123 -123h-317z" />
    <glyph glyph-name="edieresis" unicode="&#xeb;" 
d="M864 328h338q-15 -28 -20 -37t-26 -43.5t-35 -51.5t-43.5 -50t-55.5 -52t-66 -43.5t-81 -38t-94 -23t-111 -9.5q-235 0 -377.5 135t-142.5 348q0 175 84.5 318.5t226 223.5t307.5 80q245 0 388 -147.5t112 -394.5q-8 -41 -19 -74l-10 -29h-747q0 -82 49.5 -133t144.5 -51
q69 0 129 35q27 15 49 37zM528 635h420q-1 88 -56.5 136t-137.5 48q-84 0 -143 -50t-83 -134zM874 1208l52 287h297l-52 -287h-297zM455 1208l51 287h297l-51 -287h-297z" />
    <glyph glyph-name="igrave" unicode="&#xec;" horiz-adv-x="563" 
d="M102 0l187 1065h358l-186 -1065h-359zM326 1198l-203 307h338l151 -307h-286z" />
    <glyph glyph-name="iacute" unicode="&#xed;" horiz-adv-x="563" 
d="M102 0l187 1065h358l-186 -1065h-359zM342 1198l258 307h338l-309 -307h-287z" />
    <glyph glyph-name="icircumflex" unicode="&#xee;" horiz-adv-x="563" 
d="M102 0l187 1065h358l-186 -1065h-359zM72 1198l309 307h287l202 -307h-276l-82 123l-123 -123h-317z" />
    <glyph glyph-name="idieresis" unicode="&#xef;" horiz-adv-x="563" 
d="M102 0l187 1065h358l-186 -1065h-359zM551 1208l51 287h297l-51 -287h-297zM131 1208l51 287h297l-51 -287h-297z" />
    <glyph glyph-name="eth" unicode="&#xf0;" horiz-adv-x="1239" 
d="M965 831h10q-34 155 -152 293l-280 -131l-43 82l-41 82q0 -1 30 12.5t83 38t114 54.5q-42 37 -174 131l246 112q32 -16 53 -30q43 -26 127 -97l188 88l80 39l84 -164l-215 -100q197 -232 197 -557q0 -323 -175.5 -513.5t-455.5 -190.5q-226 0 -367 128.5t-141 321.5
q0 147 71.5 265t191 182.5t261.5 64.5q126 0 230 -55q33 -17 78 -56zM492 440q0 -68 49 -110.5t139 -42.5q87 0 145 54.5t58 141.5q0 68 -49.5 110t-139.5 42q-87 0 -144.5 -54t-57.5 -141z" />
    <glyph glyph-name="ntilde" unicode="&#xf1;" horiz-adv-x="1239" 
d="M102 0l187 1065h317l6 -82h11q30 34 61 51q84 51 197 51q176 0 280.5 -99t104.5 -257q0 -55 -9 -96l-110 -633h-359l97 551q6 42 6 47q0 62 -41.5 100.5t-114.5 38.5q-75 0 -120 -50t-54 -114l-100 -573h-359zM707 1208h-215q24 143 97 215t177 72q43 0 76.5 -15.5
t61.5 -30.5t57 -15q30 0 53 18.5t28 42.5h215q-25 -143 -97.5 -215t-176.5 -72q-43 0 -76.5 15.5t-61.5 31t-57 15.5q-30 0 -53 -19t-28 -43z" />
    <glyph glyph-name="ograve" unicode="&#xf2;" horiz-adv-x="1249" 
d="M150 467q0 129 50 244.5t134 197t198 129t238 47.5q234 0 377 -137.5t143 -349.5q0 -129 -50 -244.5t-134 -197t-198 -129t-238 -47.5q-237 0 -378.5 137t-141.5 350zM745 758q-93 0 -165 -74t-72 -184q0 -85 53 -139t133 -54q93 0 165.5 74t72.5 184q0 86 -53.5 140.5
t-133.5 52.5zM655 1198l-202 307h338l151 -307h-287z" />
    <glyph glyph-name="oacute" unicode="&#xf3;" horiz-adv-x="1249" 
d="M150 467q0 129 50 244.5t134 197t198 129t238 47.5q234 0 377 -137.5t143 -349.5q0 -129 -50 -244.5t-134 -197t-198 -129t-238 -47.5q-237 0 -378.5 137t-141.5 350zM745 758q-93 0 -165 -74t-72 -184q0 -85 53 -139t133 -54q93 0 165.5 74t72.5 184q0 86 -53.5 140.5
t-133.5 52.5zM645 1198l258 307h338l-309 -307h-287z" />
    <glyph glyph-name="ocircumflex" unicode="&#xf4;" horiz-adv-x="1249" 
d="M150 467q0 129 50 244.5t134 197t198 129t238 47.5q234 0 377 -137.5t143 -349.5q0 -129 -50 -244.5t-134 -197t-198 -129t-238 -47.5q-237 0 -378.5 137t-141.5 350zM745 758q-93 0 -165 -74t-72 -184q0 -85 53 -139t133 -54q93 0 165.5 74t72.5 184q0 86 -53.5 140.5
t-133.5 52.5zM412 1198l309 307h287l202 -307h-276l-82 123l-123 -123h-317z" />
    <glyph glyph-name="otilde" unicode="&#xf5;" horiz-adv-x="1249" 
d="M150 467q0 129 50 244.5t134 197t198 129t238 47.5q234 0 377 -137.5t143 -349.5q0 -129 -50 -244.5t-134 -197t-198 -129t-238 -47.5q-237 0 -378.5 137t-141.5 350zM745 758q-93 0 -165 -74t-72 -184q0 -85 53 -139t133 -54q93 0 165.5 74t72.5 184q0 86 -53.5 140.5
t-133.5 52.5zM666 1208h-215q24 143 97 215t177 72q43 0 76.5 -15.5t61.5 -30.5t57 -15q30 0 53 18.5t28 42.5h216q-25 -143 -98 -215t-177 -72q-43 0 -76.5 15.5t-61 31t-56.5 15.5q-30 0 -53.5 -19t-28.5 -43z" />
    <glyph glyph-name="odieresis" unicode="&#xf6;" horiz-adv-x="1249" 
d="M150 467q0 129 50 244.5t134 197t198 129t238 47.5q234 0 377 -137.5t143 -349.5q0 -129 -50 -244.5t-134 -197t-198 -129t-238 -47.5q-237 0 -378.5 137t-141.5 350zM745 758q-93 0 -165 -74t-72 -184q0 -85 53 -139t133 -54q93 0 165.5 74t72.5 184q0 86 -53.5 140.5
t-133.5 52.5zM874 1208l52 287h297l-52 -287h-297zM455 1208l51 287h297l-51 -287h-297z" />
    <glyph glyph-name="divide" unicode="&#xf7;" horiz-adv-x="1126" 
d="M526 993q0 61 46 107.5t108 46.5t108 -46.5t46 -107.5t-46 -107t-108 -46t-108 46t-46 107zM209 440v308h942v-308h-942zM526 195q0 61 46 107t108 46t108 -46t46 -107t-46 -107.5t-108 -46.5t-108 46.5t-46 107.5z" />
    <glyph glyph-name="oslash" unicode="&#xf8;" horiz-adv-x="1249" 
d="M143 -72l140 197q-133 133 -133 342q0 129 50 244.5t134 197t198 129t238 47.5q95 0 178 -24l53 76h287l-137 -193q139 -136 139 -346q0 -129 -50 -244.5t-134 -197t-198 -129t-238 -47.5q-102 0 -185 24l-55 -76h-287zM664 256h26q116 0 208.5 87.5t92.5 229.5
q0 54 -24 111zM469 387l299 422h-18q-116 0 -208.5 -88t-92.5 -229q0 -66 20 -105z" />
    <glyph glyph-name="ugrave" unicode="&#xf9;" horiz-adv-x="1249" 
d="M178 432l111 633h358l-96 -551q-6 -42 -6 -47q0 -62 41 -100.5t114 -38.5q75 0 120 50t54 114l101 573h358l-186 -1065h-318l-6 82h-10q-30 -34 -61 -51q-77 -51 -197 -51q-176 0 -280.5 99t-104.5 257q0 60 8 96zM686 1198l-203 307h338l152 -307h-287z" />
    <glyph glyph-name="uacute" unicode="&#xfa;" horiz-adv-x="1249" 
d="M178 432l111 633h358l-96 -551q-6 -42 -6 -47q0 -62 41 -100.5t114 -38.5q75 0 120 50t54 114l101 573h358l-186 -1065h-318l-6 82h-10q-30 -34 -61 -51q-77 -51 -197 -51q-176 0 -280.5 99t-104.5 257q0 60 8 96zM676 1198l258 307h338l-309 -307h-287z" />
    <glyph glyph-name="ucircumflex" unicode="&#xfb;" horiz-adv-x="1249" 
d="M178 432l111 633h358l-96 -551q-6 -42 -6 -47q0 -62 41 -100.5t114 -38.5q75 0 120 50t54 114l101 573h358l-186 -1065h-318l-6 82h-10q-30 -34 -61 -51q-77 -51 -197 -51q-176 0 -280.5 99t-104.5 257q0 60 8 96zM420 1198l309 307h287l203 -307h-277l-82 123l-123 -123
h-317z" />
    <glyph glyph-name="udieresis" unicode="&#xfc;" horiz-adv-x="1249" 
d="M178 432l111 633h358l-96 -551q-6 -42 -6 -47q0 -62 41 -100.5t114 -38.5q75 0 120 50t54 114l101 573h358l-186 -1065h-318l-6 82h-10q-30 -34 -61 -51q-77 -51 -197 -51q-176 0 -280.5 99t-104.5 257q0 60 8 96zM881 1208l51 287h297l-51 -287h-297zM461 1208l51 287
h297l-51 -287h-297z" />
    <glyph glyph-name="yacute" unicode="&#xfd;" horiz-adv-x="1187" 
d="M49 -410l57 328h230q33 0 55 31l12 20l-227 1096h369l110 -594h41l299 594h389l-657 -1239q-61 -116 -136 -176t-196 -60h-346zM625 1198l258 307h338l-310 -307h-286z" />
    <glyph glyph-name="thorn" unicode="&#xfe;" horiz-adv-x="1300" 
d="M35 -410l325 1844h338l-75 -430h10q31 24 67 40q77 41 191 41q196 0 321 -131.5t125 -335.5q0 -138 -49 -259t-129 -203t-183 -129t-210 -47q-125 0 -207 40q-37 16 -72 41h-10l-84 -471h-358zM795 764q-93 0 -164.5 -74t-71.5 -186q0 -86 49 -139.5t133 -53.5
q93 0 164.5 74t71.5 186q0 86 -49 139.5t-133 53.5z" />
    <glyph glyph-name="ydieresis" unicode="&#xff;" horiz-adv-x="1187" 
d="M49 -410l57 328h230q33 0 55 31l12 20l-227 1096h369l110 -594h41l299 594h389l-657 -1239q-61 -116 -136 -176t-196 -60h-346zM838 1208l51 287h297l-51 -287h-297zM418 1208l51 287h297l-51 -287h-297z" />
    <glyph glyph-name="Amacron" unicode="&#x100;" horiz-adv-x="1474" 
d="M10 0l733 1434h533l229 -1434h-389l-39 246h-514l-123 -246h-430zM725 573h307l-57 431h-41zM674 1608l43 245h706l-43 -245h-706z" />
    <glyph glyph-name="amacron" unicode="&#x101;" horiz-adv-x="1167" 
d="M760 0l-6 82h-11q-36 -36 -63 -51q-81 -51 -201 -51q-174 0 -271 85t-97 211q0 92 37.5 165t100 116t136.5 65.5t154 22.5h292l5 21q9 55 -24 96t-114 41q-56 0 -88.5 -24.5t-40.5 -51.5h-338q10 67 46.5 129.5t95 114.5t147 83t191.5 31q138 0 239.5 -38.5t157 -104
t75 -149t3.5 -177.5l-109 -616h-317zM791 410l4 20h-201q-66 0 -100.5 -27.5t-34.5 -70.5q0 -38 32 -62t95 -24q75 0 131.5 44t73.5 120zM453 1239l43 246h706l-43 -246h-706z" />
    <glyph glyph-name="Abreve" unicode="&#x102;" horiz-adv-x="1474" 
d="M10 0l733 1434h533l229 -1434h-389l-39 246h-514l-123 -246h-430zM725 573h307l-57 431h-41zM690 1884h256q9 -92 96 -92q79 0 109 92h256q-29 -143 -129.5 -225t-237.5 -82q-165 0 -257.5 77t-92.5 212v18z" />
    <glyph glyph-name="abreve" unicode="&#x103;" horiz-adv-x="1167" 
d="M760 0l-6 82h-11q-36 -36 -63 -51q-81 -51 -201 -51q-174 0 -271 85t-97 211q0 92 37.5 165t100 116t136.5 65.5t154 22.5h292l5 21q9 55 -24 96t-114 41q-56 0 -88.5 -24.5t-40.5 -51.5h-338q10 67 46.5 129.5t95 114.5t147 83t191.5 31q138 0 239.5 -38.5t157 -104
t75 -149t3.5 -177.5l-109 -616h-317zM791 410l4 20h-201q-66 0 -100.5 -27.5t-34.5 -70.5q0 -38 32 -62t95 -24q75 0 131.5 44t73.5 120zM473 1505h256q9 -92 96 -92q79 0 109 92h256q-29 -143 -129.5 -225t-237.5 -82q-165 0 -257.5 77t-92.5 212v18z" />
    <glyph glyph-name="Aogonek" unicode="&#x104;" horiz-adv-x="1474" 
d="M725 573h307l-57 431h-41zM10 0l733 1434h533l229 -1434h-92q-139 -25 -139 -106q0 -36 25 -57t73 -21h25l-35 -195h-82q-141 0 -213 51t-72 146q1 33 13.5 64.5t30 52t35 36t30 23t12.5 6.5l-39 246h-514l-123 -246h-430z" />
    <glyph glyph-name="aogonek" unicode="&#x105;" horiz-adv-x="1167" 
d="M1006 -379h-82q-141 0 -213 51t-72 146q1 33 13.5 64.5t30 52t35 36t30 23t12.5 6.5l-6 82h-11q-36 -36 -63 -51q-81 -51 -201 -51q-174 0 -271 85t-97 211q0 92 37.5 165t100 116t136.5 65.5t154 22.5h292l5 21q9 55 -24 96t-114 41q-56 0 -88.5 -24.5t-40.5 -51.5h-338
q10 67 46.5 129.5t95 114.5t147 83t191.5 31q138 0 239.5 -38.5t157 -104t75 -149t3.5 -177.5l-109 -616q-159 -20 -159 -106q0 -36 25 -57t73 -21h24zM791 410l4 20h-201q-66 0 -100.5 -27.5t-34.5 -70.5q0 -38 32 -62t95 -24q75 0 131.5 44t73.5 120z" />
    <glyph glyph-name="Cacute" unicode="&#x106;" horiz-adv-x="1515" 
d="M1165 563h379q-11 -56 -43.5 -126.5t-94.5 -152t-141.5 -148.5t-194.5 -111.5t-243 -44.5q-137 0 -254.5 47t-200 130.5t-129 201.5t-46.5 255q0 144 43 276t118 233.5t173.5 176.5t214.5 114.5t235 39.5q120 0 220.5 -34.5t169.5 -90.5t119 -131.5t76 -154.5t33 -162
h-378q-7 34 -24.5 67t-49 65t-84 52t-119.5 20q-68 0 -134 -31t-118.5 -86t-84.5 -138t-32 -179q0 -137 81 -220t202 -83q55 0 104 17.5t81 42t59.5 57t40.5 55t22 43.5zM860 1577l258 307h338l-309 -307h-287z" />
    <glyph glyph-name="cacute" unicode="&#x107;" 
d="M879 430h368q-8 -44 -30.5 -97.5t-69.5 -117.5t-109.5 -115t-159 -85.5t-208.5 -34.5q-235 0 -377.5 135t-142.5 348q0 174 84.5 317.5t226 224t307.5 80.5q117 0 211 -34t149.5 -84.5t92 -114.5t50 -117.5t13.5 -99.5h-369q-38 123 -174 123q-90 0 -161.5 -74
t-71.5 -184q0 -85 52.5 -139t131.5 -54q74 0 121.5 40.5t65.5 82.5zM639 1198l258 307h338l-309 -307h-287z" />
    <glyph glyph-name="Ccircumflex" unicode="&#x108;" horiz-adv-x="1515" 
d="M1165 563h379q-11 -56 -43.5 -126.5t-94.5 -152t-141.5 -148.5t-194.5 -111.5t-243 -44.5q-137 0 -254.5 47t-200 130.5t-129 201.5t-46.5 255q0 144 43 276t118 233.5t173.5 176.5t214.5 114.5t235 39.5q120 0 220.5 -34.5t169.5 -90.5t119 -131.5t76 -154.5t33 -162
h-378q-7 34 -24.5 67t-49 65t-84 52t-119.5 20q-68 0 -134 -31t-118.5 -86t-84.5 -138t-32 -179q0 -137 81 -220t202 -83q55 0 104 17.5t81 42t59.5 57t40.5 55t22 43.5zM610 1577l310 307h286l203 -307h-276l-82 123l-123 -123h-318z" />
    <glyph glyph-name="ccircumflex" unicode="&#x109;" 
d="M879 430h368q-8 -44 -30.5 -97.5t-69.5 -117.5t-109.5 -115t-159 -85.5t-208.5 -34.5q-235 0 -377.5 135t-142.5 348q0 174 84.5 317.5t226 224t307.5 80.5q117 0 211 -34t149.5 -84.5t92 -114.5t50 -117.5t13.5 -99.5h-369q-38 123 -174 123q-90 0 -161.5 -74
t-71.5 -184q0 -85 52.5 -139t131.5 -54q74 0 121.5 40.5t65.5 82.5zM393 1198l309 307h287l203 -307h-277l-81 123l-123 -123h-318z" />
    <glyph glyph-name="Cdotaccent" unicode="&#x10a;" horiz-adv-x="1515" 
d="M1165 563h379q-11 -56 -43.5 -126.5t-94.5 -152t-141.5 -148.5t-194.5 -111.5t-243 -44.5q-137 0 -254.5 47t-200 130.5t-129 201.5t-46.5 255q0 144 43 276t118 233.5t173.5 176.5t214.5 114.5t235 39.5q120 0 220.5 -34.5t169.5 -90.5t119 -131.5t76 -154.5t33 -162
h-378q-7 34 -24.5 67t-49 65t-84 52t-119.5 20q-68 0 -134 -31t-118.5 -86t-84.5 -138t-32 -179q0 -137 81 -220t202 -83q55 0 104 17.5t81 42t59.5 57t40.5 55t22 43.5zM870 1587l52 287h297l-52 -287h-297z" />
    <glyph glyph-name="cdotaccent" unicode="&#x10b;" 
d="M879 430h368q-8 -44 -30.5 -97.5t-69.5 -117.5t-109.5 -115t-159 -85.5t-208.5 -34.5q-235 0 -377.5 135t-142.5 348q0 174 84.5 317.5t226 224t307.5 80.5q117 0 211 -34t149.5 -84.5t92 -114.5t50 -117.5t13.5 -99.5h-369q-38 123 -174 123q-90 0 -161.5 -74
t-71.5 -184q0 -85 52.5 -139t131.5 -54q74 0 121.5 40.5t65.5 82.5zM655 1208l52 287h297l-52 -287h-297z" />
    <glyph glyph-name="Ccaron" unicode="&#x10c;" horiz-adv-x="1515" 
d="M1165 563h379q-11 -56 -43.5 -126.5t-94.5 -152t-141.5 -148.5t-194.5 -111.5t-243 -44.5q-137 0 -254.5 47t-200 130.5t-129 201.5t-46.5 255q0 144 43 276t118 233.5t173.5 176.5t214.5 114.5t235 39.5q120 0 220.5 -34.5t169.5 -90.5t119 -131.5t76 -154.5t33 -162
h-378q-7 34 -24.5 67t-49 65t-84 52t-119.5 20q-68 0 -134 -31t-118.5 -86t-84.5 -138t-32 -179q0 -137 81 -220t202 -83q55 0 104 17.5t81 42t59.5 57t40.5 55t22 43.5zM868 1577l-202 307h276l80 -123l125 123h317l-309 -307h-287z" />
    <glyph glyph-name="ccaron" unicode="&#x10d;" 
d="M879 430h368q-8 -44 -30.5 -97.5t-69.5 -117.5t-109.5 -115t-159 -85.5t-208.5 -34.5q-235 0 -377.5 135t-142.5 348q0 174 84.5 317.5t226 224t307.5 80.5q117 0 211 -34t149.5 -84.5t92 -114.5t50 -117.5t13.5 -99.5h-369q-38 123 -174 123q-90 0 -161.5 -74
t-71.5 -184q0 -85 52.5 -139t131.5 -54q74 0 121.5 40.5t65.5 82.5zM662 1198l-203 307h276l80 -123l125 123h317l-309 -307h-286z" />
    <glyph glyph-name="Dcaron" unicode="&#x10e;" horiz-adv-x="1429" 
d="M123 0l252 1434h504q178 0 322 -81.5t225 -224t81 -317.5q0 -170 -64.5 -322t-171.5 -258.5t-250.5 -168.5t-297.5 -62h-600zM565 369h201q67 0 131.5 28.5t116 78.5t83 127t31.5 167q0 126 -79.5 210.5t-200.5 84.5h-160zM807 1577l-203 307h277l80 -123l124 123h318
l-309 -307h-287z" />
    <glyph glyph-name="dcaron" unicode="&#x10f;" horiz-adv-x="1576" 
d="M690 307q95 0 165.5 73.5t70.5 184.5q0 81 -50 137t-135 56q-90 0 -161.5 -74t-71.5 -184q0 -84 53.5 -138.5t128.5 -54.5zM870 0l-6 82h-10q-32 -32 -66 -51q-81 -51 -192 -51q-197 0 -321.5 129.5t-124.5 334.5q0 138 48.5 259.5t127.5 204t182 130t211 47.5
q113 0 209 -51q33 -17 67 -51h11l75 451h359l-252 -1434h-318zM1434 1065l153 369h322l-209 -369h-266z" />
    <glyph glyph-name="Dcroat" unicode="&#x110;" horiz-adv-x="1484" 
d="M178 0l98 563h-153l53 307h154l100 564h504q134 0 251 -48t200 -130.5t130.5 -198t47.5 -246.5q0 -170 -64.5 -322t-172 -258.5t-251 -168.5t-297.5 -62h-600zM621 369h200q67 0 132 28.5t116.5 78.5t83 127t31.5 167q0 126 -80 210.5t-201 84.5h-160l-34 -195h235
l-53 -307h-236z" />
    <glyph glyph-name="dslash" unicode="&#x111;" horiz-adv-x="1310" 
d="M850 0l-6 82h-10q-29 -32 -62 -51q-81 -51 -197 -51q-199 0 -320.5 120t-121.5 301q0 152 74 277.5t195 194.5t260 69q138 0 223 -61q38 -27 59 -62h10l37 225h-327l51 287h327l25 144h358l-24 -144h143l-51 -287h-143l-183 -1044h-317zM492 436q0 -83 51 -126.5
t133 -43.5q85 0 150 62t65 157q0 78 -50 124t-132 46q-88 0 -152.5 -61t-64.5 -158z" />
    <glyph glyph-name="Emacron" unicode="&#x112;" horiz-adv-x="1218" 
d="M123 0l252 1434h1003l-61 -349h-625l-37 -204h584l-57 -328h-584l-37 -205h625l-60 -348h-1003zM532 1608l43 245h707l-43 -245h-707z" />
    <glyph glyph-name="emacron" unicode="&#x113;" 
d="M864 328h338q-15 -28 -20 -37t-26 -43.5t-35 -51.5t-43.5 -50t-55.5 -52t-66 -43.5t-81 -38t-94 -23t-111 -9.5q-235 0 -377.5 135t-142.5 348q0 175 84.5 318.5t226 223.5t307.5 80q245 0 388 -147.5t112 -394.5q-8 -41 -19 -74l-10 -29h-747q0 -82 49.5 -133t144.5 -51
q69 0 129 35q27 15 49 37zM528 635h420q-1 88 -56.5 136t-137.5 48q-84 0 -143 -50t-83 -134zM471 1239l43 246h707l-43 -246h-707z" />
    <glyph glyph-name="Ebreve" unicode="&#x114;" horiz-adv-x="1218" 
d="M123 0l252 1434h1003l-61 -349h-625l-37 -204h584l-57 -328h-584l-37 -205h625l-60 -348h-1003zM565 1884h256q9 -92 97 -92q78 0 108 92h256q-29 -143 -129.5 -225t-237.5 -82q-165 0 -257.5 77t-92.5 212v18z" />
    <glyph glyph-name="ebreve" unicode="&#x115;" 
d="M864 328h338q-15 -28 -20 -37t-26 -43.5t-35 -51.5t-43.5 -50t-55.5 -52t-66 -43.5t-81 -38t-94 -23t-111 -9.5q-235 0 -377.5 135t-142.5 348q0 175 84.5 318.5t226 223.5t307.5 80q245 0 388 -147.5t112 -394.5q-8 -41 -19 -74l-10 -29h-747q0 -82 49.5 -133t144.5 -51
q69 0 129 35q27 15 49 37zM528 635h420q-1 88 -56.5 136t-137.5 48q-84 0 -143 -50t-83 -134zM481 1505h256q9 -92 97 -92q78 0 108 92h256q-29 -143 -129.5 -225t-237.5 -82q-165 0 -257.5 77t-92.5 212v18z" />
    <glyph glyph-name="Edotaccent" unicode="&#x116;" horiz-adv-x="1218" 
d="M123 0l252 1434h1003l-61 -349h-625l-37 -204h584l-57 -328h-584l-37 -205h625l-60 -348h-1003zM750 1587l51 287h297l-51 -287h-297z" />
    <glyph glyph-name="edotaccent" unicode="&#x117;" 
d="M864 328h338q-15 -28 -20 -37t-26 -43.5t-35 -51.5t-43.5 -50t-55.5 -52t-66 -43.5t-81 -38t-94 -23t-111 -9.5q-235 0 -377.5 135t-142.5 348q0 175 84.5 318.5t226 223.5t307.5 80q245 0 388 -147.5t112 -394.5q-8 -41 -19 -74l-10 -29h-747q0 -82 49.5 -133t144.5 -51
q69 0 129 35q27 15 49 37zM528 635h420q-1 88 -56.5 136t-137.5 48q-84 0 -143 -50t-83 -134zM655 1208l52 287h297l-52 -287h-297z" />
    <glyph glyph-name="Eogonek" unicode="&#x118;" horiz-adv-x="1218" 
d="M123 0l252 1434h1003l-61 -349h-625l-37 -204h584l-57 -328h-584l-37 -205h625l-60 -348q-139 -25 -139 -106q0 -36 25 -57t73 -21h25l-35 -195h-82q-141 0 -212.5 51t-71.5 146q1 33 13.5 64.5t30 52t35 36t29.5 23t12 6.5h-706z" />
    <glyph glyph-name="eogonek" unicode="&#x119;" 
d="M756 -379h-82q-141 0 -213 51t-72 146q1 33 13.5 64.5t30 52t35 36t30 23t12.5 6.5q-167 41 -263.5 166t-96.5 297q0 175 84.5 318.5t226 223.5t307.5 80q245 0 388 -147.5t112 -394.5q-8 -41 -19 -74l-10 -29h-747q0 -82 49.5 -133t144.5 -51q69 0 129 35q27 15 49 37
h338q-17 -33 -23.5 -45t-32.5 -52.5t-46.5 -63t-59 -58t-77.5 -56.5t-95 -41t-118 -28q-40 -10 -61 -34t-21 -56q0 -36 25 -57t73 -21h25zM528 635h420q-1 88 -56.5 136t-137.5 48q-84 0 -143 -50t-83 -134z" />
    <glyph glyph-name="Ecaron" unicode="&#x11a;" horiz-adv-x="1218" 
d="M123 0l252 1434h1003l-61 -349h-625l-37 -204h584l-57 -328h-584l-37 -205h625l-60 -348h-1003zM745 1577l-202 307h276l80 -123l125 123h317l-309 -307h-287z" />
    <glyph glyph-name="ecaron" unicode="&#x11b;" 
d="M864 328h338q-15 -28 -20 -37t-26 -43.5t-35 -51.5t-43.5 -50t-55.5 -52t-66 -43.5t-81 -38t-94 -23t-111 -9.5q-235 0 -377.5 135t-142.5 348q0 175 84.5 318.5t226 223.5t307.5 80q245 0 388 -147.5t112 -394.5q-8 -41 -19 -74l-10 -29h-747q0 -82 49.5 -133t144.5 -51
q69 0 129 35q27 15 49 37zM528 635h420q-1 88 -56.5 136t-137.5 48q-84 0 -143 -50t-83 -134zM657 1198l-202 307h276l80 -123l125 123h317l-309 -307h-287z" />
    <glyph glyph-name="Gcircumflex" unicode="&#x11c;" horiz-adv-x="1556" 
d="M1174 0l6 123h-11q-125 -143 -362 -143q-171 0 -310 80.5t-219.5 226t-80.5 327.5q0 144 43 276t118 233.5t173.5 176.5t214.5 114.5t235 39.5q110 0 205 -29.5t164 -79.5t122.5 -118.5t86 -144.5t49.5 -160h-389q-85 163 -275 163q-68 0 -134 -31t-118.5 -86t-84.5 -138
t-32 -179q0 -137 81 -220t202 -83q116 0 190.5 48.5t110.5 115.5h-268l45 256h655l-135 -768h-282zM614 1577l310 307h286l203 -307h-276l-82 123l-123 -123h-318z" />
    <glyph glyph-name="gcircumflex" unicode="&#x11d;" horiz-adv-x="1239" 
d="M508 555q0 -67 45.5 -116.5t120.5 -49.5q84 0 145.5 57.5t61.5 151.5q0 73 -46.5 121.5t-119.5 48.5q-88 0 -147.5 -59t-59.5 -154zM68 -20h358q22 -103 180 -103q75 0 120.5 46.5t59.5 127.5l17 92h-10q-32 -25 -60 -37q-74 -34 -162 -34q-101 0 -182 37.5t-129.5 99
t-74 135t-25.5 150.5q0 130 45 243.5t118.5 188t165.5 117t187 42.5q119 0 211 -61q36 -24 65 -61h11l43 102h317l-178 -1014q-39 -225 -176 -348t-371 -123q-102 0 -187 18t-141 48.5t-97.5 67.5t-63.5 79t-32.5 78.5t-10.5 69.5q0 25 2 39zM422 1198l309 307h287l203 -307
h-277l-82 123l-123 -123h-317z" />
    <glyph glyph-name="Gbreve" unicode="&#x11e;" horiz-adv-x="1556" 
d="M1174 0l6 123h-11q-125 -143 -362 -143q-171 0 -310 80.5t-219.5 226t-80.5 327.5q0 144 43 276t118 233.5t173.5 176.5t214.5 114.5t235 39.5q110 0 205 -29.5t164 -79.5t122.5 -118.5t86 -144.5t49.5 -160h-389q-85 163 -275 163q-68 0 -134 -31t-118.5 -86t-84.5 -138
t-32 -179q0 -137 81 -220t202 -83q116 0 190.5 48.5t110.5 115.5h-268l45 256h655l-135 -768h-282zM696 1884h256q9 -92 97 -92q78 0 108 92h256q-29 -143 -129 -225t-237 -82q-165 0 -258 77t-93 212v18z" />
    <glyph glyph-name="gbreve" unicode="&#x11f;" horiz-adv-x="1239" 
d="M508 555q0 -67 45.5 -116.5t120.5 -49.5q84 0 145.5 57.5t61.5 151.5q0 73 -46.5 121.5t-119.5 48.5q-88 0 -147.5 -59t-59.5 -154zM68 -20h358q22 -103 180 -103q75 0 120.5 46.5t59.5 127.5l17 92h-10q-32 -25 -60 -37q-74 -34 -162 -34q-101 0 -182 37.5t-129.5 99
t-74 135t-25.5 150.5q0 130 45 243.5t118.5 188t165.5 117t187 42.5q119 0 211 -61q36 -24 65 -61h11l43 102h317l-178 -1014q-39 -225 -176 -348t-371 -123q-102 0 -187 18t-141 48.5t-97.5 67.5t-63.5 79t-32.5 78.5t-10.5 69.5q0 25 2 39zM496 1505h256q9 -92 96 -92
q78 0 108 92h256q-29 -143 -129 -225t-237 -82q-165 0 -257.5 77t-92.5 212v18z" />
    <glyph glyph-name="Gdotaccent" unicode="&#x120;" horiz-adv-x="1556" 
d="M1174 0l6 123h-11q-125 -143 -362 -143q-171 0 -310 80.5t-219.5 226t-80.5 327.5q0 144 43 276t118 233.5t173.5 176.5t214.5 114.5t235 39.5q110 0 205 -29.5t164 -79.5t122.5 -118.5t86 -144.5t49.5 -160h-389q-85 163 -275 163q-68 0 -134 -31t-118.5 -86t-84.5 -138
t-32 -179q0 -137 81 -220t202 -83q116 0 190.5 48.5t110.5 115.5h-268l45 256h655l-135 -768h-282zM879 1587l51 287h297l-51 -287h-297z" />
    <glyph glyph-name="gdotaccent" unicode="&#x121;" horiz-adv-x="1239" 
d="M508 555q0 -67 45.5 -116.5t120.5 -49.5q84 0 145.5 57.5t61.5 151.5q0 73 -46.5 121.5t-119.5 48.5q-88 0 -147.5 -59t-59.5 -154zM68 -20h358q22 -103 180 -103q75 0 120.5 46.5t59.5 127.5l17 92h-10q-32 -25 -60 -37q-74 -34 -162 -34q-101 0 -182 37.5t-129.5 99
t-74 135t-25.5 150.5q0 130 45 243.5t118.5 188t165.5 117t187 42.5q119 0 211 -61q36 -24 65 -61h11l43 102h317l-178 -1014q-39 -225 -176 -348t-371 -123q-102 0 -187 18t-141 48.5t-97.5 67.5t-63.5 79t-32.5 78.5t-10.5 69.5q0 25 2 39zM670 1208l51 287h297l-51 -287
h-297z" />
    <glyph glyph-name="Gcommaaccent" unicode="&#x122;" horiz-adv-x="1556" 
d="M1174 0l6 123h-11q-125 -143 -362 -143q-171 0 -310 80.5t-219.5 226t-80.5 327.5q0 144 43 276t118 233.5t173.5 176.5t214.5 114.5t235 39.5q110 0 205 -29.5t164 -79.5t122.5 -118.5t86 -144.5t49.5 -160h-389q-85 163 -275 163q-68 0 -134 -31t-118.5 -86t-84.5 -138
t-32 -179q0 -137 81 -220t202 -83q116 0 190.5 48.5t110.5 115.5h-268l45 256h655l-135 -768h-282zM518 -502l150 369h321l-207 -369h-264z" />
    <glyph glyph-name="gcommaaccent" unicode="&#x123;" horiz-adv-x="1239" 
d="M647 1208l289 308h287l-238 -308h-338zM508 555q0 -67 45.5 -116.5t120.5 -49.5q84 0 145.5 57.5t61.5 151.5q0 73 -46.5 121.5t-119.5 48.5q-88 0 -147.5 -59t-59.5 -154zM68 -20h358q22 -103 180 -103q75 0 120.5 46.5t59.5 127.5l17 92h-10q-32 -25 -60 -37
q-74 -34 -162 -34q-101 0 -182 37.5t-129.5 99t-74 135t-25.5 150.5q0 130 45 243.5t118.5 188t165.5 117t187 42.5q119 0 211 -61q36 -24 65 -61h11l43 102h317l-178 -1014q-39 -225 -176 -348t-371 -123q-102 0 -187 18t-141 48.5t-97.5 67.5t-63.5 79t-32.5 78.5
t-10.5 69.5q0 25 2 39z" />
    <glyph glyph-name="Hcircumflex" unicode="&#x124;" horiz-adv-x="1474" 
d="M123 0l252 1434h379l-92 -523h471l92 523h379l-252 -1434h-379l92 532h-471l-92 -532h-379zM596 1577l309 307h287l203 -307h-277l-82 123l-123 -123h-317z" />
    <glyph glyph-name="hcircumflex" unicode="&#x125;" horiz-adv-x="1249" 
d="M113 0l252 1434h358l-80 -451h10q29 32 62 51q84 51 196 51q174 0 269.5 -98t95.5 -258q0 -60 -8 -96l-111 -633h-358l96 551q6 42 6 47q0 62 -41.5 100.5t-114.5 38.5q-75 0 -120 -50t-54 -114l-100 -573h-358zM502 1577l309 307h287l202 -307h-276l-82 123l-123 -123
h-317z" />
    <glyph glyph-name="Hbar" unicode="&#x126;" horiz-adv-x="1587" 
d="M184 0l178 1014h-153l53 307h154l20 113h379l-20 -113h471l20 113h379l-20 -113h163l-53 -307h-164l-178 -1014h-379l92 532h-471l-92 -532h-379zM721 901h471l20 113h-471z" />
    <glyph glyph-name="hbar" unicode="&#x127;" horiz-adv-x="1290" 
d="M154 0l182 1034h-143l53 307h143l23 134h358l-22 -134h327l-53 -307h-328l-35 -194h11q30 34 61 51q84 51 197 51q174 0 269 -98t95 -258q0 -61 -8 -97l-86 -489h-358l71 408q0 1 3.5 20t3.5 27q0 62 -41.5 100.5t-114.5 38.5q-75 0 -120 -50t-54 -114l-76 -430h-358z
" />
    <glyph glyph-name="Imacron" unicode="&#x12a;" horiz-adv-x="624" 
d="M123 0l252 1434h379l-252 -1434h-379zM238 1608l43 245h706l-43 -245h-706z" />
    <glyph glyph-name="imacron" unicode="&#x12b;" horiz-adv-x="563" 
d="M102 0l187 1065h358l-186 -1065h-359zM137 1239l43 246h707l-43 -246h-707z" />
    <glyph glyph-name="Ibreve" unicode="&#x12c;" horiz-adv-x="624" 
d="M123 0l252 1434h379l-252 -1434h-379zM252 1884h256q9 -92 96 -92q79 0 109 92h256q-29 -143 -129.5 -225t-237.5 -82q-165 0 -257.5 77t-92.5 212v18z" />
    <glyph glyph-name="ibreve" unicode="&#x12d;" horiz-adv-x="563" 
d="M102 0l187 1065h358l-186 -1065h-359zM164 1505h256q9 -92 96 -92q79 0 109 92h256q-29 -143 -129.5 -225t-237.5 -82q-165 0 -257.5 77t-92.5 212v18z" />
    <glyph glyph-name="Iogonek" unicode="&#x12e;" horiz-adv-x="624" 
d="M369 -379h-82q-141 0 -213 51t-72 146q1 33 13.5 64.5t30 52t35 36t30 23t12.5 6.5l252 1434h379l-252 -1434h-82q-139 -25 -139 -106q0 -36 25 -57t73 -21h24z" />
    <glyph glyph-name="iogonek" unicode="&#x12f;" horiz-adv-x="563" 
d="M348 -379h-82q-141 0 -212.5 51t-71.5 146q1 33 13.5 64.5t30 52t35 36t29.5 23t12 6.5l187 1065h358l-186 -1065h-62q-139 -25 -139 -106q0 -36 25 -57t73 -21h25zM315 1208l50 287h358l-49 -287h-359z" />
    <glyph glyph-name="Idot" unicode="&#x130;" horiz-adv-x="624" 
d="M123 0l252 1434h379l-252 -1434h-379zM438 1587l51 287h297l-51 -287h-297z" />
    <glyph glyph-name="dotlessi" unicode="&#x131;" horiz-adv-x="563" 
d="M102 0l187 1065h358l-186 -1065h-359z" />
    <glyph glyph-name="uni0132" unicode="&#x132;" horiz-adv-x="1515" 
d="M123 0l252 1434h379l-252 -1434h-379zM635 0l63 369h301q80 0 95 92l172 973h379l-193 -1096q-27 -160 -116.5 -249t-245.5 -89h-455z" />
    <glyph glyph-name="uni0133" unicode="&#x133;" horiz-adv-x="1136" 
d="M102 0l187 1065h358l-186 -1065h-359zM315 1208l50 287h358l-49 -287h-359zM889 1208l49 287h358l-49 -287h-358zM379 -410l57 328h166q60 0 72 72l188 1075h359l-203 -1157q-15 -77 -39.5 -132.5t-66 -99t-105 -65t-150.5 -21.5h-278z" />
    <glyph glyph-name="Jcircumflex" unicode="&#x134;" horiz-adv-x="890" 
d="M10 0l64 369h301q79 0 94 92l172 973h379l-193 -1096q-27 -160 -116.5 -249t-245.5 -89h-455zM430 1577l309 307h287l203 -307h-277l-82 123l-122 -123h-318z" />
    <glyph glyph-name="jcircumflex" unicode="&#x135;" horiz-adv-x="563" 
d="M-195 -410l58 328h166q59 0 71 72l189 1075h358l-203 -1157q-30 -158 -111 -238t-249 -80h-279zM72 1198l309 307h287l202 -307h-276l-82 123l-123 -123h-317z" />
    <glyph glyph-name="Kcommaaccent" unicode="&#x136;" horiz-adv-x="1320" 
d="M123 0l252 1434h379l-105 -594l467 594h469l-577 -738l329 -696h-432l-295 625l-108 -625h-379zM369 -502l149 369h322l-207 -369h-264z" />
    <glyph glyph-name="kcommaaccent" unicode="&#x137;" horiz-adv-x="1177" 
d="M113 0l252 1434h358l-148 -840l404 471h414l-469 -543l274 -522h-385l-256 492l-86 -492h-358zM309 -502l150 369h321l-207 -369h-264z" />
    <glyph glyph-name="Lacute" unicode="&#x139;" horiz-adv-x="1126" 
d="M123 0l252 1434h379l-189 -1065h625l-64 -369h-1003zM446 1577l259 307h337l-309 -307h-287z" />
    <glyph glyph-name="lacute" unicode="&#x13a;" horiz-adv-x="583" 
d="M113 0l252 1434h358l-252 -1434h-358zM420 1577l258 307h338l-309 -307h-287z" />
    <glyph glyph-name="Lcommaaccent" unicode="&#x13b;" horiz-adv-x="1126" 
d="M123 0l252 1434h379l-189 -1065h625l-64 -369h-1003zM330 -502l149 369h322l-207 -369h-264z" />
    <glyph glyph-name="lcommaaccent" unicode="&#x13c;" horiz-adv-x="583" 
d="M113 0l252 1434h358l-252 -1434h-358zM-51 -502l149 369h322l-207 -369h-264z" />
    <glyph glyph-name="Lcaron" unicode="&#x13d;" horiz-adv-x="1243" 
d="M123 0l252 1434h379l-189 -1065h625l-64 -369h-1003zM825 1065l154 369h321l-208 -369h-267z" />
    <glyph glyph-name="lcaron" unicode="&#x13e;" horiz-adv-x="870" 
d="M113 0l252 1434h358l-252 -1434h-358zM727 1065l154 369h321l-209 -369h-266z" />
    <glyph glyph-name="Ldot" unicode="&#x13f;" horiz-adv-x="1126" 
d="M809 676l68 389h378l-67 -389h-379zM123 0l252 1434h379l-189 -1065h625l-64 -369h-1003z" />
    <glyph glyph-name="ldot" unicode="&#x140;" horiz-adv-x="993" 
d="M700 584l68 389h379l-68 -389h-379zM113 0l252 1434h358l-252 -1434h-358z" />
    <glyph glyph-name="Lslash" unicode="&#x141;" horiz-adv-x="1187" 
d="M184 0l90 512l-176 -61l64 358l174 61l100 564h379l-74 -418l338 121l-61 -359l-340 -121l-51 -288h624l-63 -369h-1004z" />
    <glyph glyph-name="lslash" unicode="&#x142;" horiz-adv-x="706" 
d="M174 0l90 512l-166 -61l58 317l163 61l107 605h358l-82 -461l166 61l-57 -317l-164 -62l-115 -655h-358z" />
    <glyph glyph-name="Nacute" unicode="&#x143;" horiz-adv-x="1495" 
d="M123 0l252 1434h440l256 -748h41l133 748h379l-252 -1434h-440l-256 748h-41l-133 -748h-379zM858 1577l258 307h338l-309 -307h-287z" />
    <glyph glyph-name="nacute" unicode="&#x144;" horiz-adv-x="1239" 
d="M102 0l187 1065h317l6 -82h11q30 34 61 51q84 51 197 51q176 0 280.5 -99t104.5 -257q0 -55 -9 -96l-110 -633h-359l97 551q6 42 6 47q0 62 -41.5 100.5t-114.5 38.5q-75 0 -120 -50t-54 -114l-100 -573h-359zM694 1198l258 307h338l-309 -307h-287z" />
    <glyph glyph-name="Ncommaaccent" unicode="&#x145;" horiz-adv-x="1495" 
d="M123 0l252 1434h440l256 -748h41l133 748h379l-252 -1434h-440l-256 748h-41l-133 -748h-379zM457 -502l149 369h322l-207 -369h-264z" />
    <glyph glyph-name="ncommaaccent" unicode="&#x146;" horiz-adv-x="1239" 
d="M102 0l187 1065h317l6 -82h11q30 34 61 51q84 51 197 51q176 0 280.5 -99t104.5 -257q0 -55 -9 -96l-110 -633h-359l97 551q6 42 6 47q0 62 -41.5 100.5t-114.5 38.5q-75 0 -120 -50t-54 -114l-100 -573h-359zM299 -502l150 369h321l-207 -369h-264z" />
    <glyph glyph-name="Ncaron" unicode="&#x147;" horiz-adv-x="1495" 
d="M123 0l252 1434h440l256 -748h41l133 748h379l-252 -1434h-440l-256 748h-41l-133 -748h-379zM864 1577l-202 307h276l80 -123l125 123h317l-309 -307h-287z" />
    <glyph glyph-name="ncaron" unicode="&#x148;" horiz-adv-x="1239" 
d="M102 0l187 1065h317l6 -82h11q30 34 61 51q84 51 197 51q176 0 280.5 -99t104.5 -257q0 -55 -9 -96l-110 -633h-359l97 551q6 42 6 47q0 62 -41.5 100.5t-114.5 38.5q-75 0 -120 -50t-54 -114l-100 -573h-359zM702 1198l-202 307h276l80 -123l125 123h317l-309 -307h-287
z" />
    <glyph glyph-name="napostrophe" unicode="&#x149;" horiz-adv-x="1423" 
d="M287 0l186 1065h318l6 -82h10q30 34 61 51q84 51 197 51q176 0 280.5 -99t104.5 -257q0 -60 -8 -96l-111 -633h-358l96 551q6 42 6 47q0 62 -41 100.5t-114 38.5q-75 0 -120.5 -50t-54.5 -114l-100 -573h-358zM156 1096l153 368h322l-209 -368h-266z" />
    <glyph glyph-name="Eng" unicode="&#x14a;" horiz-adv-x="1495" 
d="M123 0l252 1434h440l256 -748h41l133 748h379l-278 -1577q-26 -163 -117 -256t-242 -93h-348l61 349h183q84 0 100 92l10 51h-61l-256 748h-41l-133 -748h-379z" />
    <glyph glyph-name="eng" unicode="&#x14b;" horiz-adv-x="1239" 
d="M475 -440l57 327h152q84 0 102 103l2 10l97 551q6 42 6 47q0 62 -41.5 100.5t-114.5 38.5q-75 0 -120 -50t-54 -114l-100 -573h-359l187 1065h317l6 -82h11q30 34 61 51q84 51 197 51q176 0 280.5 -99t104.5 -257q0 -55 -9 -96l-127 -715q-26 -168 -119.5 -263
t-262.5 -95h-273z" />
    <glyph glyph-name="Omacron" unicode="&#x14c;" horiz-adv-x="1536" 
d="M862 348q68 0 135 31t120 86t85.5 137.5t32.5 177.5q0 137 -81 221t-206 84q-68 0 -135 -31t-120 -86t-85.5 -137.5t-32.5 -177.5q0 -137 81 -221t206 -84zM825 -20q-277 0 -452.5 178t-175.5 454q0 182 65.5 341t174.5 267.5t252 171t296 62.5q277 0 453 -178.5
t176 -454.5q0 -146 -42.5 -278t-117.5 -233.5t-174 -176.5t-216 -114t-239 -39zM678 1608l43 245h706l-43 -245h-706z" />
    <glyph glyph-name="omacron" unicode="&#x14d;" horiz-adv-x="1249" 
d="M150 467q0 129 50 244.5t134 197t198 129t238 47.5q234 0 377 -137.5t143 -349.5q0 -129 -50 -244.5t-134 -197t-198 -129t-238 -47.5q-237 0 -378.5 137t-141.5 350zM745 758q-93 0 -165 -74t-72 -184q0 -85 53 -139t133 -54q93 0 165.5 74t72.5 184q0 86 -53.5 140.5
t-133.5 52.5zM471 1239l43 246h707l-43 -246h-707z" />
    <glyph glyph-name="Obreve" unicode="&#x14e;" horiz-adv-x="1536" 
d="M862 348q68 0 135 31t120 86t85.5 137.5t32.5 177.5q0 137 -81 221t-206 84q-68 0 -135 -31t-120 -86t-85.5 -137.5t-32.5 -177.5q0 -137 81 -221t206 -84zM825 -20q-277 0 -452.5 178t-175.5 454q0 182 65.5 341t174.5 267.5t252 171t296 62.5q277 0 453 -178.5
t176 -454.5q0 -146 -42.5 -278t-117.5 -233.5t-174 -176.5t-216 -114t-239 -39zM696 1884h256q9 -92 97 -92q78 0 108 92h256q-29 -143 -129 -225t-237 -82q-165 0 -258 77t-93 212v18z" />
    <glyph glyph-name="obreve" unicode="&#x14f;" horiz-adv-x="1249" 
d="M150 467q0 129 50 244.5t134 197t198 129t238 47.5q234 0 377 -137.5t143 -349.5q0 -129 -50 -244.5t-134 -197t-198 -129t-238 -47.5q-237 0 -378.5 137t-141.5 350zM745 758q-93 0 -165 -74t-72 -184q0 -85 53 -139t133 -54q93 0 165.5 74t72.5 184q0 86 -53.5 140.5
t-133.5 52.5zM481 1505h256q9 -92 97 -92q78 0 108 92h256q-29 -143 -129.5 -225t-237.5 -82q-165 0 -257.5 77t-92.5 212v18z" />
    <glyph glyph-name="Ohungarumlaut" unicode="&#x150;" horiz-adv-x="1536" 
d="M862 348q68 0 135 31t120 86t85.5 137.5t32.5 177.5q0 137 -81 221t-206 84q-68 0 -135 -31t-120 -86t-85.5 -137.5t-32.5 -177.5q0 -137 81 -221t206 -84zM825 -20q-277 0 -452.5 178t-175.5 454q0 182 65.5 341t174.5 267.5t252 171t296 62.5q277 0 453 -178.5
t176 -454.5q0 -146 -42.5 -278t-117.5 -233.5t-174 -176.5t-216 -114t-239 -39zM670 1577l258 307h307l-309 -307h-256zM1079 1577l258 307h308l-310 -307h-256z" />
    <glyph glyph-name="ohungarumlaut" unicode="&#x151;" horiz-adv-x="1249" 
d="M150 467q0 129 50 244.5t134 197t198 129t238 47.5q234 0 377 -137.5t143 -349.5q0 -129 -50 -244.5t-134 -197t-198 -129t-238 -47.5q-237 0 -378.5 137t-141.5 350zM745 758q-93 0 -165 -74t-72 -184q0 -85 53 -139t133 -54q93 0 165.5 74t72.5 184q0 86 -53.5 140.5
t-133.5 52.5zM465 1198l258 307h307l-309 -307h-256zM874 1198l259 307h307l-310 -307h-256z" />
    <glyph glyph-name="OE" unicode="&#x152;" horiz-adv-x="2193" 
d="M1118 0l15 92h-11q-29 -33 -75 -57q-90 -55 -238 -55q-133 0 -247.5 48.5t-194 132.5t-125 201.5t-45.5 251.5q0 144 42.5 276t118 233t174 176.5t214.5 115t235 39.5q60 0 119.5 -11.5t101.5 -27.5t75 -33t49.5 -28.5t16.5 -12.5h11l16 93h983l-61 -349h-635l-37 -204
h594l-57 -328h-594l-37 -205h635l-60 -348h-983zM950 1085q-95 0 -180.5 -54t-140 -155t-54.5 -225q0 -136 78.5 -219.5t210.5 -83.5q95 0 180.5 54t140 155t54.5 225q0 136 -78.5 219.5t-210.5 83.5z" />
    <glyph glyph-name="oe" unicode="&#x153;" horiz-adv-x="1916" 
d="M1561 328h337q-17 -37 -43.5 -76.5t-75.5 -90t-106.5 -89.5t-141.5 -65.5t-177 -26.5q-170 0 -291 75q-53 35 -90 78q-36 -45 -86 -78q-110 -75 -256 -75q-116 0 -210 41t-152 109t-88.5 152.5t-30.5 176.5q0 136 50 255t131.5 199t186.5 126t215 46q158 0 268 -75
q47 -33 82 -74q35 35 101 74q127 75 299 75q110 0 202 -37.5t156 -105t95.5 -168.5t21.5 -221q-1 -21 -16 -82q-6 -14 -15 -41h-717q0 -73 49 -128.5t138 -55.5q77 0 125 41q25 21 39 41zM1243 625h399q-2 79 -46.5 131.5t-125.5 52.5q-163 0 -227 -184zM713 758
q-85 0 -150 -75t-65 -198q0 -84 43 -131t116 -47q85 0 150 73.5t65 197.5q0 84 -43 132t-116 48z" />
    <glyph glyph-name="Racute" unicode="&#x154;" horiz-adv-x="1402" 
d="M123 0l252 1434h672q190 0 311 -118t121 -317q0 -99 -24.5 -184.5t-65.5 -147t-96.5 -110t-114.5 -78.5t-123 -47l286 -432h-460l-283 430h-20l-76 -430h-379zM690 1075l-53 -307h307q61 0 108.5 50t47.5 128q0 55 -32.5 92t-80.5 37h-297zM788 1577l259 307h337
l-309 -307h-287z" />
    <glyph glyph-name="racute" unicode="&#x155;" horiz-adv-x="870" 
d="M102 0l187 1065h317l6 -82h11q21 24 43 41q55 41 131 41h209l-58 -328h-198q-75 0 -124.5 -40.5t-68.5 -143.5l-96 -553h-359zM528 1198l258 307h338l-309 -307h-287z" />
    <glyph glyph-name="Rcommaaccent" unicode="&#x156;" horiz-adv-x="1402" 
d="M123 0l252 1434h672q190 0 311 -118t121 -317q0 -99 -24.5 -184.5t-65.5 -147t-96.5 -110t-114.5 -78.5t-123 -47l286 -432h-460l-283 430h-20l-76 -430h-379zM690 1075l-53 -307h307q61 0 108.5 50t47.5 128q0 55 -32.5 92t-80.5 37h-297zM383 -502l149 369h322
l-207 -369h-264z" />
    <glyph glyph-name="rcommaaccent" unicode="&#x157;" horiz-adv-x="870" 
d="M102 0l187 1065h317l6 -82h11q21 24 43 41q55 41 131 41h209l-58 -328h-198q-75 0 -124.5 -40.5t-68.5 -143.5l-96 -553h-359zM-49 -502l149 369h322l-207 -369h-264z" />
    <glyph glyph-name="Rcaron" unicode="&#x158;" horiz-adv-x="1402" 
d="M123 0l252 1434h672q190 0 311 -118t121 -317q0 -99 -24.5 -184.5t-65.5 -147t-96.5 -110t-114.5 -78.5t-123 -47l286 -432h-460l-283 430h-20l-76 -430h-379zM690 1075l-53 -307h307q61 0 108.5 50t47.5 128q0 55 -32.5 92t-80.5 37h-297zM793 1577l-203 307h276
l80 -123l125 123h318l-310 -307h-286z" />
    <glyph glyph-name="rcaron" unicode="&#x159;" horiz-adv-x="870" 
d="M102 0l187 1065h317l6 -82h11q21 24 43 41q55 41 131 41h209l-58 -328h-198q-75 0 -124.5 -40.5t-68.5 -143.5l-96 -553h-359zM541 1198l-203 307h276l80 -123l125 123h318l-310 -307h-286z" />
    <glyph glyph-name="Sacute" unicode="&#x15a;" horiz-adv-x="1310" 
d="M135 481h379q0 -73 62 -123.5t178 -50.5q102 0 152 36.5t50 88.5q0 40 -34 70.5t-129 50.5l-218 41q-153 29 -239 126t-86 230q0 143 66.5 256.5t195 180.5t299.5 67q281 0 438.5 -122t157.5 -337q0 -5 -1 -14.5t-1 -13.5v-15h-377q0 72 -58.5 123t-162.5 51
q-82 0 -130 -39t-48 -86q0 -36 28.5 -61.5t108.5 -42.5l223 -43q167 -35 256.5 -132t89.5 -235q0 -223 -158 -365t-438 -142q-128 0 -231 27t-172 73t-115 110.5t-66 136.5t-20 154zM737 1577l258 307h338l-309 -307h-287z" />
    <glyph glyph-name="sacute" unicode="&#x15b;" horiz-adv-x="1085" 
d="M102 338h349v-21q0 -34 41.5 -63t119.5 -29q61 0 95 24.5t34 61.5q0 75 -88 88l-143 21q-85 12 -149.5 44.5t-101.5 77t-55 92.5t-18 97q0 153 129 253.5t351 100.5q223 0 354 -93t131 -236v-19h-348q0 40 -34.5 66t-100.5 26q-61 0 -92 -26t-31 -60q0 -21 19.5 -39
t53.5 -22l148 -20q170 -19 252 -106.5t82 -209.5q0 -120 -66 -203.5t-179 -123t-263 -39.5q-126 0 -222.5 28t-153.5 76.5t-85.5 108.5t-28.5 129v16zM553 1198l258 307h338l-309 -307h-287z" />
    <glyph glyph-name="Scircumflex" unicode="&#x15c;" horiz-adv-x="1310" 
d="M135 481h379q0 -73 62 -123.5t178 -50.5q102 0 152 36.5t50 88.5q0 40 -34 70.5t-129 50.5l-218 41q-153 29 -239 126t-86 230q0 143 66.5 256.5t195 180.5t299.5 67q281 0 438.5 -122t157.5 -337q0 -5 -1 -14.5t-1 -13.5v-15h-377q0 72 -58.5 123t-162.5 51
q-82 0 -130 -39t-48 -86q0 -36 28.5 -61.5t108.5 -42.5l223 -43q167 -35 256.5 -132t89.5 -235q0 -223 -158 -365t-438 -142q-128 0 -231 27t-172 73t-115 110.5t-66 136.5t-20 154zM481 1577l310 307h286l203 -307h-276l-82 123l-123 -123h-318z" />
    <glyph glyph-name="scircumflex" unicode="&#x15d;" horiz-adv-x="1085" 
d="M102 338h349v-21q0 -34 41.5 -63t119.5 -29q61 0 95 24.5t34 61.5q0 75 -88 88l-143 21q-85 12 -149.5 44.5t-101.5 77t-55 92.5t-18 97q0 153 129 253.5t351 100.5q223 0 354 -93t131 -236v-19h-348q0 40 -34.5 66t-100.5 26q-61 0 -92 -26t-31 -60q0 -21 19.5 -39
t53.5 -22l148 -20q170 -19 252 -106.5t82 -209.5q0 -120 -66 -203.5t-179 -123t-263 -39.5q-126 0 -222.5 28t-153.5 76.5t-85.5 108.5t-28.5 129v16zM328 1198l309 307h287l202 -307h-276l-82 123l-123 -123h-317z" />
    <glyph glyph-name="Scedilla" unicode="&#x15e;" horiz-adv-x="1310" 
d="M375 -502l33 195h106q36 0 58 17t22 48q0 25 -20.5 41.5t-55.5 16.5h-57l16 92l58 92q-105 21 -184 68.5t-125 112.5t-68.5 140t-22.5 160h379q0 -73 62 -123.5t178 -50.5q102 0 152 36.5t50 88.5q0 40 -34 70.5t-129 50.5l-218 41q-153 29 -239 126t-86 230
q0 143 66.5 256.5t195 180.5t299.5 67q281 0 438.5 -122t157.5 -337q0 -5 -1 -14.5t-1 -13.5v-15h-377q0 72 -58.5 123t-162.5 51q-82 0 -130 -39t-48 -86q0 -36 28.5 -61.5t108.5 -42.5l223 -43q167 -35 256.5 -132t89.5 -235q0 -106 -37.5 -196.5t-108 -158.5t-178.5 -108
t-243 -44l-45 -72q16 -8 32.5 -20t36 -33t32 -52t12.5 -67q0 -105 -77.5 -171.5t-203.5 -66.5h-180z" />
    <glyph glyph-name="scedilla" unicode="&#x15f;" horiz-adv-x="1085" 
d="M285 -502l32 195h107q36 0 58 17t22 48q0 25 -20.5 41.5t-55.5 16.5h-57l16 92l51 84q-169 28 -252.5 119.5t-83.5 210.5v16h349v-21q0 -34 41.5 -63t119.5 -29q61 0 95 24.5t34 61.5q0 75 -88 88l-143 21q-85 12 -149.5 44.5t-101.5 77t-55 92.5t-18 97q0 153 129 253.5
t351 100.5q223 0 354 -93t131 -236v-19h-348q0 40 -34.5 66t-100.5 26q-61 0 -92 -26t-31 -60q0 -21 19.5 -39t53.5 -22l148 -20q170 -19 252 -106.5t82 -209.5q0 -161 -114 -252.5t-310 -109.5l-43 -76q22 -11 44.5 -29t45 -57t22.5 -86q0 -105 -77 -171.5t-203 -66.5h-180
z" />
    <glyph glyph-name="Scaron" unicode="&#x160;" horiz-adv-x="1310" 
d="M135 481h379q0 -73 62 -123.5t178 -50.5q102 0 152 36.5t50 88.5q0 40 -34 70.5t-129 50.5l-218 41q-153 29 -239 126t-86 230q0 143 66.5 256.5t195 180.5t299.5 67q281 0 438.5 -122t157.5 -337q0 -5 -1 -14.5t-1 -13.5v-15h-377q0 72 -58.5 123t-162.5 51
q-82 0 -130 -39t-48 -86q0 -36 28.5 -61.5t108.5 -42.5l223 -43q167 -35 256.5 -132t89.5 -235q0 -223 -158 -365t-438 -142q-128 0 -231 27t-172 73t-115 110.5t-66 136.5t-20 154zM745 1577l-202 307h276l80 -123l125 123h317l-309 -307h-287z" />
    <glyph glyph-name="scaron" unicode="&#x161;" horiz-adv-x="1085" 
d="M102 338h349v-21q0 -34 41.5 -63t119.5 -29q61 0 95 24.5t34 61.5q0 75 -88 88l-143 21q-85 12 -149.5 44.5t-101.5 77t-55 92.5t-18 97q0 153 129 253.5t351 100.5q223 0 354 -93t131 -236v-19h-348q0 40 -34.5 66t-100.5 26q-61 0 -92 -26t-31 -60q0 -21 19.5 -39
t53.5 -22l148 -20q170 -19 252 -106.5t82 -209.5q0 -120 -66 -203.5t-179 -123t-263 -39.5q-126 0 -222.5 28t-153.5 76.5t-85.5 108.5t-28.5 129v16zM561 1198l-203 307h277l80 -123l125 123h317l-309 -307h-287z" />
    <glyph glyph-name="uni0162" unicode="&#x162;" horiz-adv-x="1208" 
d="M373 -502l33 195h106q36 0 58 17t22 48q0 25 -20.5 41.5t-55.5 16.5h-57l16 92l57 92h-133l187 1065h-379l65 369h1137l-66 -369h-378l-187 -1065l-57 -92q16 -8 32.5 -20t36 -33t32 -52t12.5 -67q0 -105 -77.5 -171.5t-203.5 -66.5h-180z" />
    <glyph glyph-name="uni0163" unicode="&#x163;" horiz-adv-x="901" 
d="M240 -502l32 195h107q36 0 58 17t22 48q0 25 -20.5 41.5t-55.5 16.5h-57l16 92l74 117q-76 30 -118 87.5t-42 135.5q0 40 10 104l68 385h-164l57 328h164l58 328h358l-57 -328h235l-57 -328h-236l-57 -325q-4 -28 -4 -35q0 -49 69 -49h156l-57 -328h-154l-57 -92
q22 -11 44.5 -29t45 -57t22.5 -86q0 -105 -77 -171.5t-203 -66.5h-180z" />
    <glyph glyph-name="Tcaron" unicode="&#x164;" horiz-adv-x="1208" 
d="M399 0l187 1065h-379l65 369h1137l-66 -369h-378l-187 -1065h-379zM705 1577l-203 307h276l80 -123l125 123h317l-309 -307h-286z" />
    <glyph glyph-name="tcaron" unicode="&#x165;" horiz-adv-x="1075" 
d="M266 352l68 385h-164l57 328h164l58 328h358l-57 -328h235l-57 -328h-236l-57 -325q-4 -28 -4 -35q0 -49 69 -49h156l-57 -328h-228q-147 0 -231 66t-84 182q0 40 10 104zM909 1126l154 369h321l-208 -369h-267z" />
    <glyph glyph-name="Tbar" unicode="&#x166;" horiz-adv-x="1208" 
d="M399 0l107 614h-266l55 308h266l25 143h-379l65 369h1137l-66 -369h-378l-25 -143h266l-55 -308h-266l-107 -614h-379z" />
    <glyph glyph-name="tbar" unicode="&#x167;" horiz-adv-x="901" 
d="M121 461l47 266h164l12 72h-164l47 266h164l58 328h358l-57 -328h235l-47 -266h-236l-12 -72h236l-47 -266h-236l-8 -49q-4 -28 -4 -35q0 -49 69 -49h156l-57 -328h-228q-147 0 -231 66t-84 182q0 40 10 104l19 109h-164z" />
    <glyph glyph-name="Umacron" unicode="&#x16a;" horiz-adv-x="1454" 
d="M240 723l125 711h378l-143 -820q-4 -28 -4 -49q0 -97 58.5 -157t152.5 -60q101 0 171 71.5t91 184.5l145 830h379l-139 -795q-45 -301 -224.5 -480t-455.5 -179q-261 0 -411 145.5t-150 382.5q0 63 27 215zM635 1608l43 245h706l-43 -245h-706z" />
    <glyph glyph-name="umacron" unicode="&#x16b;" horiz-adv-x="1249" 
d="M178 432l111 633h358l-96 -551q-6 -42 -6 -47q0 -62 41 -100.5t114 -38.5q75 0 120 50t54 114l101 573h358l-186 -1065h-318l-6 82h-10q-30 -34 -61 -51q-77 -51 -197 -51q-176 0 -280.5 99t-104.5 257q0 60 8 96zM471 1239l43 246h707l-43 -246h-707z" />
    <glyph glyph-name="Ubreve" unicode="&#x16c;" horiz-adv-x="1454" 
d="M240 723l125 711h378l-143 -820q-4 -28 -4 -49q0 -97 58.5 -157t152.5 -60q101 0 171 71.5t91 184.5l145 830h379l-139 -795q-45 -301 -224.5 -480t-455.5 -179q-261 0 -411 145.5t-150 382.5q0 63 27 215zM666 1884h256q9 -92 96 -92q78 0 108 92h256
q-29 -143 -129 -225t-237 -82q-165 0 -257.5 77t-92.5 212v18z" />
    <glyph glyph-name="ubreve" unicode="&#x16d;" horiz-adv-x="1249" 
d="M178 432l111 633h358l-96 -551q-6 -42 -6 -47q0 -62 41 -100.5t114 -38.5q75 0 120 50t54 114l101 573h358l-186 -1065h-318l-6 82h-10q-30 -34 -61 -51q-77 -51 -197 -51q-176 0 -280.5 99t-104.5 257q0 60 8 96zM492 1505h256q9 -92 96 -92q78 0 108 92h256
q-29 -143 -129 -225t-237 -82q-165 0 -257.5 77t-92.5 212v18z" />
    <glyph glyph-name="Uring" unicode="&#x16e;" horiz-adv-x="1454" 
d="M240 723l125 711h378l-143 -820q-4 -28 -4 -49q0 -97 58.5 -157t152.5 -60q101 0 171 71.5t91 184.5l145 830h379l-139 -795q-45 -301 -224.5 -480t-455.5 -179q-261 0 -411 145.5t-150 382.5q0 63 27 215zM772 1720q0 99 77.5 172.5t182.5 73.5q93 0 154 -58t61 -145
q0 -99 -76.5 -173t-181.5 -74q-97 0 -157 58t-60 146zM936 1731q0 -29 19.5 -45.5t50.5 -16.5q32 0 54.5 22.5t22.5 57.5q0 29 -18 46t-49 17q-35 0 -57.5 -23t-22.5 -58z" />
    <glyph glyph-name="uring" unicode="&#x16f;" horiz-adv-x="1249" 
d="M178 432l111 633h358l-96 -551q-6 -42 -6 -47q0 -62 41 -100.5t114 -38.5q75 0 120 50t54 114l101 573h358l-186 -1065h-318l-6 82h-10q-30 -34 -61 -51q-77 -51 -197 -51q-176 0 -280.5 99t-104.5 257q0 60 8 96zM604 1352q0 99 77.5 172t182.5 73q93 0 154 -57.5
t61 -144.5q0 -99 -76.5 -173.5t-181.5 -74.5q-97 0 -157 58.5t-60 146.5zM768 1362q0 -29 19.5 -45.5t50.5 -16.5q32 0 54.5 23t22.5 57q0 29 -18 46.5t-49 17.5q-35 0 -57.5 -23.5t-22.5 -58.5z" />
    <glyph glyph-name="Uhungarumlaut" unicode="&#x170;" horiz-adv-x="1454" 
d="M240 723l125 711h378l-143 -820q-4 -28 -4 -49q0 -97 58.5 -157t152.5 -60q101 0 171 71.5t91 184.5l145 830h379l-139 -795q-45 -301 -224.5 -480t-455.5 -179q-261 0 -411 145.5t-150 382.5q0 63 27 215zM635 1577l258 307h307l-309 -307h-256zM1044 1577l259 307h307
l-310 -307h-256z" />
    <glyph glyph-name="uhungarumlaut" unicode="&#x171;" horiz-adv-x="1249" 
d="M178 432l111 633h358l-96 -551q-6 -42 -6 -47q0 -62 41 -100.5t114 -38.5q75 0 120 50t54 114l101 573h358l-186 -1065h-318l-6 82h-10q-30 -34 -61 -51q-77 -51 -197 -51q-176 0 -280.5 99t-104.5 257q0 60 8 96zM465 1198l258 307h307l-309 -307h-256zM874 1198
l259 307h307l-310 -307h-256z" />
    <glyph glyph-name="Uogonek" unicode="&#x172;" horiz-adv-x="1454" 
d="M856 -379h-82q-141 0 -213 51t-72 146q0 34 12.5 65t29.5 51t34.5 35t30.5 22l12 7q-188 41 -291.5 176.5t-103.5 333.5q0 63 27 215l125 711h378l-143 -820q-4 -28 -4 -49q0 -97 58.5 -157t152.5 -60q101 0 171 71.5t91 184.5l145 830h379l-139 -795
q-46 -278 -202 -454.5t-400 -200.5q-40 -10 -62 -34.5t-22 -55.5q0 -36 25 -57t73 -21h25z" />
    <glyph glyph-name="uogonek" unicode="&#x173;" horiz-adv-x="1249" 
d="M178 432l111 633h358l-96 -551q-6 -42 -6 -47q0 -62 41 -100.5t114 -38.5q75 0 120 50t54 114l101 573h358l-186 -1065q-160 -17 -160 -106q0 -36 25 -57t73 -21h25l-35 -195h-82q-141 0 -212.5 51t-71.5 146q1 33 13.5 64.5t30 52t35 36t29.5 23t12 6.5l-6 82h-10
q-30 -34 -61 -51q-77 -51 -197 -51q-176 0 -280.5 99t-104.5 257q0 60 8 96z" />
    <glyph glyph-name="Wcircumflex" unicode="&#x174;" horiz-adv-x="2048" 
d="M358 0l-96 1434h389l51 -758h41l318 758h389l51 -758h41l318 758h430l-600 -1434h-461l-51 758h-41l-318 -758h-461zM850 1577l309 307h287l203 -307h-277l-82 123l-123 -123h-317z" />
    <glyph glyph-name="wcircumflex" unicode="&#x175;" horiz-adv-x="1679" 
d="M266 0l-80 1065h355l32 -512h41l224 512h327l43 -512h41l213 512h383l-452 -1065h-420l-39 481h-41l-207 -481h-420zM598 1198l309 307h287l203 -307h-277l-82 123l-123 -123h-317z" />
    <glyph glyph-name="Ycircumflex" unicode="&#x176;" horiz-adv-x="1331" 
d="M471 0l76 440l-346 994h399l172 -533h41l361 533h440l-688 -994l-76 -440h-379zM492 1577l309 307h286l203 -307h-276l-82 123l-123 -123h-317z" />
    <glyph glyph-name="ycircumflex" unicode="&#x177;" horiz-adv-x="1187" 
d="M49 -410l57 328h230q33 0 55 31l12 20l-227 1096h369l110 -594h41l299 594h389l-657 -1239q-61 -116 -136 -176t-196 -60h-346zM369 1198l309 307h287l202 -307h-276l-82 123l-123 -123h-317z" />
    <glyph glyph-name="Ydieresis" unicode="&#x178;" horiz-adv-x="1331" 
d="M471 0l76 440l-346 994h399l172 -533h41l361 533h440l-688 -994l-76 -440h-379zM956 1587l52 287h297l-52 -287h-297zM537 1587l51 287h297l-51 -287h-297z" />
    <glyph glyph-name="Zacute" unicode="&#x179;" horiz-adv-x="1280" 
d="M72 0l59 348l721 717h-584l66 369h1116l-61 -349l-721 -716h604l-64 -369h-1136zM743 1577l258 307h338l-309 -307h-287z" />
    <glyph glyph-name="zacute" unicode="&#x17a;" horiz-adv-x="1054" 
d="M61 0l54 307l518 441h-430l55 317h911l-53 -307l-518 -441h451l-56 -317h-932zM571 1198l258 307h338l-309 -307h-287z" />
    <glyph glyph-name="Zdotaccent" unicode="&#x17b;" horiz-adv-x="1280" 
d="M72 0l59 348l721 717h-584l66 369h1116l-61 -349l-721 -716h604l-64 -369h-1136zM750 1587l51 287h297l-51 -287h-297z" />
    <glyph glyph-name="zdotaccent" unicode="&#x17c;" horiz-adv-x="1054" 
d="M61 0l54 307l518 441h-430l55 317h911l-53 -307l-518 -441h451l-56 -317h-932zM573 1208l52 287h297l-52 -287h-297z" />
    <glyph glyph-name="Zcaron" unicode="&#x17d;" horiz-adv-x="1280" 
d="M72 0l59 348l721 717h-584l66 369h1116l-61 -349l-721 -716h604l-64 -369h-1136zM762 1577l-203 307h277l79 -123l125 123h318l-309 -307h-287z" />
    <glyph glyph-name="zcaron" unicode="&#x17e;" horiz-adv-x="1054" 
d="M61 0l54 307l518 441h-430l55 317h911l-53 -307l-518 -441h451l-56 -317h-932zM573 1198l-202 307h276l80 -123l125 123h317l-309 -307h-287z" />
    <glyph glyph-name="uni018F" unicode="&#x18f;" horiz-adv-x="1525" 
d="M207 696l24 144h983q-8 82 -50 139t-98.5 81.5t-121.5 24.5q-58 0 -104 -12t-77.5 -34t-47.5 -37.5t-33 -38.5h-410q37 102 102 190t153 156t203.5 106.5t244.5 38.5q183 0 326.5 -81.5t223 -226t79.5 -327.5q0 -144 -43.5 -276.5t-119 -233t-173.5 -176t-212 -114.5
t-229 -39q-142 0 -264.5 54.5t-206 149t-124.5 228t-25 284.5zM1169 584h-583q16 -110 93 -173t173 -63q101 0 187 66.5t130 169.5z" />
    <glyph glyph-name="florin" unicode="&#x192;" horiz-adv-x="1013" 
d="M-102 -410l100 328h121q46 0 71 22t39 70l170 553h-217l101 328h217l88 297q49 159 145.5 238t261.5 79h267l-93 -297h-129q-45 0 -67.5 -21t-36.5 -71l-68 -225h211l-102 -328h-209l-207 -676q-88 -297 -399 -297h-264z" />
    <glyph glyph-name="Aringacute" unicode="&#x1fa;" horiz-adv-x="1474" 
d="M1047 1966l131 154h338l-273 -256q27 -50 27 -101q0 -99 -76.5 -173t-181.5 -74q-97 0 -157 58t-60 146q0 97 74.5 169t177.5 77zM958 1731q0 -29 19.5 -45.5t50.5 -16.5q32 0 55 23t23 57q0 29 -18.5 46t-49.5 17q-35 0 -57.5 -23t-22.5 -58zM10 0l733 1434h533
l229 -1434h-389l-39 246h-514l-123 -246h-430zM725 573h307l-57 431h-41z" />
    <glyph glyph-name="aringacute" unicode="&#x1fb;" horiz-adv-x="1167" 
d="M846 1597l131 154h338l-273 -256q27 -49 27 -100q0 -99 -76.5 -173.5t-181.5 -74.5q-97 0 -157 58.5t-60 146.5q0 96 74.5 168t177.5 77zM758 1362q0 -29 19 -45.5t50 -16.5q32 0 55 23t23 57q0 29 -18 46.5t-49 17.5q-35 0 -57.5 -23.5t-22.5 -58.5zM760 0l-6 82h-11
q-36 -36 -63 -51q-81 -51 -201 -51q-174 0 -271 85t-97 211q0 92 37.5 165t100 116t136.5 65.5t154 22.5h292l5 21q9 55 -24 96t-114 41q-56 0 -88.5 -24.5t-40.5 -51.5h-338q10 67 46.5 129.5t95 114.5t147 83t191.5 31q138 0 239.5 -38.5t157 -104t75 -149t3.5 -177.5
l-109 -616h-317zM791 410l4 20h-201q-66 0 -100.5 -27.5t-34.5 -70.5q0 -38 32 -62t95 -24q75 0 131.5 44t73.5 120z" />
    <glyph glyph-name="AEacute" unicode="&#x1fc;" horiz-adv-x="1996" 
d="M-51 0l876 1434h1332l-62 -349h-625l-36 -204h583l-57 -328h-584l-37 -205h625l-59 -348h-1004l49 287h-409l-172 -287h-420zM741 614h267l84 471h-62zM1229 1577l258 307h338l-309 -307h-287z" />
    <glyph glyph-name="aeacute" unicode="&#x1fd;" horiz-adv-x="1843" 
d="M553 645h272l4 21q11 57 -24 97t-111 40q-33 0 -59.5 -9t-40.5 -23.5t-21 -24.5t-10 -19h-338q31 155 154.5 256.5t312.5 101.5q70 0 132 -18.5t103.5 -48t63 -49t35.5 -37.5q46 46 94 76q124 77 289 77q110 0 202 -37.5t156 -105t95.5 -168.5t21.5 -221q-1 -21 -16 -82
q-6 -14 -15 -41h-716q0 -73 48.5 -128.5t137.5 -55.5q77 0 125 41q25 21 39 41h338q-17 -37 -43.5 -76.5t-75.5 -90t-107 -89.5t-142 -65.5t-177 -26.5q-168 0 -281 77q-53 35 -79 80q-40 -43 -103 -80q-142 -77 -311 -77q-88 0 -158 19.5t-113.5 49.5t-72 70.5t-40 80
t-11.5 79.5q0 163 118.5 264.5t323.5 101.5zM1169 625h400q-2 79 -46.5 131.5t-125.5 52.5q-164 0 -228 -184zM784 410l4 20h-194q-66 0 -100.5 -27.5t-34.5 -70.5q0 -38 32 -62t95 -24q74 0 127.5 43.5t70.5 120.5zM950 1198l258 307h338l-309 -307h-287z" />
    <glyph glyph-name="Oslashacute" unicode="&#x1fe;" horiz-adv-x="1556" 
d="M172 -72l176 252q-151 171 -151 432q0 182 65.5 341t175.5 267.5t256 171t305 62.5q126 0 230 -37l61 88h379l-184 -256q149 -175 149 -428q0 -182 -65.5 -340.5t-176 -267.5t-256.5 -171t-305 -62q-128 0 -223 32l-57 -84h-379zM600 518l399 565q-14 2 -41 2
q-72 0 -141 -31t-123 -86t-86.5 -137.5t-32.5 -177.5q0 -74 25 -135zM1233 905l-395 -555q14 -2 34 -2q71 0 140 31t123 86t87 137.5t33 177.5q0 64 -22 125zM870 1577l258 307h338l-309 -307h-287z" />
    <glyph glyph-name="oslashacute" unicode="&#x1ff;" horiz-adv-x="1249" 
d="M143 -72l140 197q-133 133 -133 342q0 129 50 244.5t134 197t198 129t238 47.5q95 0 178 -24l53 76h287l-137 -193q139 -136 139 -346q0 -129 -50 -244.5t-134 -197t-198 -129t-238 -47.5q-102 0 -185 24l-55 -76h-287zM664 256h26q116 0 208.5 87.5t92.5 229.5
q0 54 -24 111zM469 387l299 422h-18q-116 0 -208.5 -88t-92.5 -229q0 -66 20 -105zM645 1198l258 307h338l-309 -307h-287z" />
    <glyph glyph-name="Scommaaccent" unicode="&#x218;" horiz-adv-x="1310" 
d="M135 481h379q0 -73 62 -123.5t178 -50.5q102 0 152 36.5t50 88.5q0 40 -34 70.5t-129 50.5l-218 41q-153 29 -239 126t-86 230q0 143 66.5 256.5t195 180.5t299.5 67q281 0 438.5 -122t157.5 -337q0 -5 -1 -14.5t-1 -13.5v-15h-377q0 72 -58.5 123t-162.5 51
q-82 0 -130 -39t-48 -86q0 -36 28.5 -61.5t108.5 -42.5l223 -43q167 -35 256.5 -132t89.5 -235q0 -223 -158 -365t-438 -142q-128 0 -231 27t-172 73t-115 110.5t-66 136.5t-20 154zM395 -502l150 369h321l-207 -369h-264z" />
    <glyph glyph-name="scommaaccent" unicode="&#x219;" horiz-adv-x="1085" 
d="M102 338h349v-21q0 -34 41.5 -63t119.5 -29q61 0 95 24.5t34 61.5q0 75 -88 88l-143 21q-85 12 -149.5 44.5t-101.5 77t-55 92.5t-18 97q0 153 129 253.5t351 100.5q223 0 354 -93t131 -236v-19h-348q0 40 -34.5 66t-100.5 26q-61 0 -92 -26t-31 -60q0 -21 19.5 -39
t53.5 -22l148 -20q170 -19 252 -106.5t82 -209.5q0 -120 -66 -203.5t-179 -123t-263 -39.5q-126 0 -222.5 28t-153.5 76.5t-85.5 108.5t-28.5 129v16zM248 -502l149 369h322l-207 -369h-264z" />
    <glyph glyph-name="uni021A" unicode="&#x21a;" horiz-adv-x="1208" 
d="M399 0l187 1065h-379l65 369h1137l-66 -369h-378l-187 -1065h-379zM254 -502l149 369h322l-207 -369h-264z" />
    <glyph glyph-name="uni021B" unicode="&#x21b;" horiz-adv-x="901" 
d="M266 352l68 385h-164l57 328h164l58 328h358l-57 -328h235l-57 -328h-236l-57 -325q-4 -28 -4 -35q0 -49 69 -49h156l-57 -328h-228q-147 0 -231 66t-84 182q0 40 10 104zM193 -502l149 369h322l-207 -369h-264z" />
    <glyph glyph-name="uni0232" unicode="&#x232;" horiz-adv-x="1331" 
d="M471 0l76 440l-346 994h399l172 -533h41l361 533h440l-688 -994l-76 -440h-379zM553 1608l43 245h707l-43 -245h-707z" />
    <glyph glyph-name="uni0233" unicode="&#x233;" horiz-adv-x="1187" 
d="M49 -410l57 328h230q33 0 55 31l12 20l-227 1096h369l110 -594h41l299 594h389l-657 -1239q-61 -116 -136 -176t-196 -60h-346zM424 1239l43 246h707l-44 -246h-706z" />
    <glyph glyph-name="uni0244" unicode="&#x244;" horiz-adv-x="1576" 
d="M158 788l55 308h154l59 338h379l-60 -338h472l59 338h379l-60 -338h154l-55 -308h-152l-26 -149q-45 -301 -224.5 -480t-455.5 -179q-261 0 -411.5 145.5t-150.5 382.5q0 63 27 215l10 65h-153zM692 788l-30 -174q-5 -35 -5 -49q0 -97 58.5 -157t152.5 -60
q101 0 171 71.5t91 184.5l33 184h-471z" />
    <glyph glyph-name="uni0259" unicode="&#x259;" 
d="M180 625h748q0 82 -50 133t-145 51q-65 0 -129 -37q-23 -13 -49 -35h-338q14 27 19.5 37t26 43.5t35.5 51.5t44 50.5t55.5 51.5t66.5 43.5t81 38t94 23t111 9.5q234 0 377 -136.5t143 -346.5q0 -175 -85 -318.5t-226.5 -223.5t-307.5 -80q-245 0 -387.5 147.5
t-111.5 394.5q9 48 18 74zM891 430h-420q1 -88 56.5 -136t138.5 -48q84 0 142.5 50t82.5 134z" />
    <glyph glyph-name="uni0289" unicode="&#x289;" horiz-adv-x="1341" 
d="M219 432l31 182h-133l49 277h133l31 174h358l-31 -174h328l31 174h358l-31 -174h123l-49 -277h-123l-106 -614h-318l-6 82h-10q-30 -34 -61 -51q-77 -51 -197 -51q-176 0 -280.5 99t-104.5 257q0 60 8 96zM608 614l-16 -100q-6 -42 -6 -47q0 -62 41 -100.5t114 -38.5
q75 0 120 50t54 114l21 122h-328z" />
    <glyph glyph-name="uni02BC" unicode="&#x2bc;" horiz-adv-x="532" 
d="M248 1065l153 369h322l-209 -369h-266z" />
    <glyph glyph-name="circumflex" unicode="&#x2c6;" horiz-adv-x="921" 
d="M274 1208l310 308h286l203 -308h-276l-82 123l-123 -123h-318z" />
    <glyph glyph-name="caron" unicode="&#x2c7;" horiz-adv-x="921" 
d="M530 1208l-202 308h276l80 -123l125 123h317l-309 -308h-287z" />
    <glyph glyph-name="breve" unicode="&#x2d8;" horiz-adv-x="839" 
d="M303 1505h256q9 -92 96 -92q79 0 109 92h256q-29 -143 -129.5 -225t-237.5 -82q-165 0 -257.5 77t-92.5 212v18z" />
    <glyph glyph-name="dotaccent" unicode="&#x2d9;" horiz-adv-x="419" 
d="M276 1229l52 287h297l-52 -287h-297z" />
    <glyph glyph-name="ring" unicode="&#x2da;" horiz-adv-x="593" 
d="M289 1393q0 99 77.5 172t182.5 73q93 0 154 -57.5t61 -144.5q0 -99 -76.5 -173.5t-181.5 -74.5q-97 0 -157 58.5t-60 146.5zM453 1403q0 -29 19 -45.5t50 -16.5q32 0 55 23t23 57q0 29 -18.5 46.5t-49.5 17.5q-35 0 -57 -23t-22 -59z" />
    <glyph glyph-name="ogonek" unicode="&#x2db;" horiz-adv-x="522" 
d="M375 -379h-82q-141 0 -213 51t-72 146q1 33 13.5 64.5t30 52t35 36t30 23t12.5 6.5h297q-139 -25 -139 -106q0 -36 25 -57t73 -21h25z" />
    <glyph glyph-name="tilde" unicode="&#x2dc;" horiz-adv-x="839" 
d="M489 1208h-215q24 143 97.5 215t177.5 72q43 0 76.5 -15.5t61 -30.5t56.5 -15q30 0 53.5 18.5t28.5 42.5h215q-25 -143 -97.5 -215t-176.5 -72q-43 0 -76.5 15.5t-61.5 31t-57 15.5q-30 0 -53.5 -19t-28.5 -43z" />
    <glyph glyph-name="hungarumlaut" unicode="&#x2dd;" horiz-adv-x="1044" 
d="M274 1208l258 308h308l-310 -308h-256zM684 1208l258 308h307l-309 -308h-256z" />
    <glyph glyph-name="acutecomb" unicode="&#x301;" horiz-adv-x="0" 
d="M-594 1618l258 307h336l-307 -307h-287z" />
    <glyph glyph-name="uni0302" unicode="&#x302;" horiz-adv-x="0" 
d="M-852 1608l309 307h287l203 -307h-277l-82 123l-123 -123h-317z" />
    <glyph glyph-name="uni0304" unicode="&#x304;" horiz-adv-x="0" 
d="M-797 1628l43 246h707l-43 -246h-707z" />
    <glyph glyph-name="uni0306" unicode="&#x306;" horiz-adv-x="0" 
d="M-782 1894h256q9 -92 96 -92q78 0 108 92h256q-29 -143 -129 -225t-237 -82q-165 0 -257.5 77t-92.5 212v18z" />
    <glyph glyph-name="uni0307" unicode="&#x307;" horiz-adv-x="0" 
d="M-610 1587l51 287h297l-51 -287h-297z" />
    <glyph glyph-name="uni0308" unicode="&#x308;" horiz-adv-x="0" 
d="M-406 1587l52 287h297l-52 -287h-297zM-825 1587l51 287h297l-51 -287h-297z" />
    <glyph glyph-name="uni030A" unicode="&#x30a;" horiz-adv-x="0" 
d="M-678 1772q0 99 77.5 172t182.5 73q93 0 154 -57.5t61 -144.5q0 -99 -76.5 -173.5t-181.5 -74.5q-97 0 -157 58.5t-60 146.5zM-514 1782q0 -29 19.5 -45.5t50.5 -16.5q32 0 54.5 23t22.5 57q0 29 -18 46.5t-49 17.5q-35 0 -57.5 -23.5t-22.5 -58.5z" />
    <glyph glyph-name="uni030C" unicode="&#x30c;" horiz-adv-x="0" 
d="M-596 1608l-203 307h277l82 -123l123 123h317l-309 -307h-287z" />
    <glyph glyph-name="uni0326" unicode="&#x326;" horiz-adv-x="532" 
d="M-29 -522l150 368h321l-206 -368h-265z" />
    <glyph glyph-name="uni0400" unicode="&#x400;" horiz-adv-x="1218" 
d="M123 0l252 1434h1003l-61 -349h-625l-37 -204h584l-57 -328h-584l-37 -205h625l-60 -348h-1003zM758 1577l-203 307h338l151 -307h-286z" />
    <glyph glyph-name="uni0401" unicode="&#x401;" horiz-adv-x="1218" 
d="M123 0l252 1434h1003l-61 -349h-625l-37 -204h584l-57 -328h-584l-37 -205h625l-60 -348h-1003zM961 1587l51 287h297l-52 -287h-296zM541 1587l51 287h297l-51 -287h-297z" />
    <glyph glyph-name="uni0402" unicode="&#x402;" horiz-adv-x="1525" 
d="M367 0l188 1075h-358l63 359h1106l-63 -359h-369l-37 -215q27 15 70 31q104 31 215 31q178 0 288.5 -117.5t110.5 -298.5q0 -156 -70 -272t-190 -175t-272 -59h-58h-92l59 338h99q61 0 103 40t42 101q0 48 -38.5 76.5t-94.5 28.5q-92 0 -172 -37q-24 -11 -61 -35
l-91 -512h-378z" />
    <glyph glyph-name="uni0403" unicode="&#x403;" horiz-adv-x="1146" 
d="M123 0l252 1434h973l-66 -369h-594l-186 -1065h-379zM733 1577l258 307h338l-309 -307h-287z" />
    <glyph glyph-name="uni0404" unicode="&#x404;" horiz-adv-x="1515" 
d="M629 881h438l-57 -328h-422q29 -98 100 -151.5t170 -53.5q55 0 104 17.5t81 42t59.5 57t40.5 55t22 43.5h379q-11 -56 -43.5 -126.5t-94.5 -152t-141.5 -148.5t-194.5 -111.5t-243 -44.5q-137 0 -254.5 47t-200 130.5t-129 201.5t-46.5 255q0 144 43 276t118 233.5
t173.5 176.5t214.5 114.5t235 39.5q120 0 220.5 -34.5t169.5 -90.5t119 -131.5t76 -154.5t33 -162h-378q-7 34 -24.5 67t-49 65t-84 52t-119.5 20q-94 0 -178 -53.5t-137 -150.5z" />
    <glyph glyph-name="uni0405" unicode="&#x405;" horiz-adv-x="1310" 
d="M135 481h379q0 -73 62 -123.5t178 -50.5q102 0 152 36.5t50 88.5q0 40 -34 70.5t-129 50.5l-218 41q-153 29 -239 126t-86 230q0 143 66.5 256.5t195 180.5t299.5 67q281 0 438.5 -122t157.5 -337q0 -5 -1 -14.5t-1 -13.5v-15h-377q0 72 -58.5 123t-162.5 51
q-82 0 -130 -39t-48 -86q0 -36 28.5 -61.5t108.5 -42.5l223 -43q167 -35 256.5 -132t89.5 -235q0 -223 -158 -365t-438 -142q-128 0 -231 27t-172 73t-115 110.5t-66 136.5t-20 154z" />
    <glyph glyph-name="uni0406" unicode="&#x406;" horiz-adv-x="624" 
d="M123 0l252 1434h379l-252 -1434h-379z" />
    <glyph glyph-name="uni0407" unicode="&#x407;" horiz-adv-x="624" 
d="M123 0l252 1434h379l-252 -1434h-379zM653 1587l52 287h296l-51 -287h-297zM233 1587l52 287h297l-52 -287h-297z" />
    <glyph glyph-name="uni0408" unicode="&#x408;" horiz-adv-x="890" 
d="M10 0l64 369h301q79 0 94 92l172 973h379l-193 -1096q-27 -160 -116.5 -249t-245.5 -89h-455z" />
    <glyph glyph-name="uni0409" unicode="&#x409;" horiz-adv-x="2129" 
d="M-2 -20l61 368h66q67 0 108.5 41t65.5 123l240 922h1034l-76 -430h254q121 0 218.5 -47t157.5 -143.5t60 -227.5t-43 -242t-115.5 -185.5t-170 -116.5t-205.5 -42h-711l186 1065h-313l-174 -678q-47 -195 -156.5 -301t-300.5 -106h-186zM1384 369h271q69 0 111 41t42 112
q0 50 -35 81.5t-100 31.5h-241z" />
    <glyph glyph-name="uni040A" unicode="&#x40a;" horiz-adv-x="2125" 
d="M1382 358h283q60 0 99.5 40t39.5 100q0 45 -29.5 73.5t-82.5 32.5h-265zM123 0l252 1434h379l-84 -471h440l84 471h379l-84 -471h250q209 0 326.5 -108t117.5 -294q0 -170 -70 -298.5t-189 -195.5t-269 -67h-713l102 584h-440l-102 -584h-379z" />
    <glyph glyph-name="uni040B" unicode="&#x40b;" horiz-adv-x="1536" 
d="M367 0l188 1075h-358l63 359h1106l-63 -359h-369l-37 -215q27 15 70 31q104 31 204 31q178 0 277.5 -96.5t99.5 -272.5q0 -43 -10 -113l-76 -440h-379l72 408q14 78 -20.5 121.5t-112.5 43.5q-75 0 -141 -30q-23 -13 -45 -31l-91 -512h-378z" />
    <glyph glyph-name="uni040C" unicode="&#x40c;" horiz-adv-x="1320" 
d="M123 0l252 1434h379l-105 -594l467 594h469l-577 -738l329 -696h-432l-295 625l-108 -625h-379zM784 1577l258 307h338l-309 -307h-287z" />
    <glyph glyph-name="uni040D" unicode="&#x40d;" horiz-adv-x="1484" 
d="M123 0l252 1434h379l-127 -738h41l516 738h430l-252 -1434h-379l127 737h-41l-516 -737h-430zM879 1577l-203 307h338l151 -307h-286z" />
    <glyph glyph-name="uni040E" unicode="&#x40e;" horiz-adv-x="1310" 
d="M164 0l59 348h221q32 0 49 14t39 48l-331 1024h399l170 -543h41l342 543h440l-776 -1209q-34 -51 -63 -85t-73 -69.5t-103.5 -53t-133.5 -17.5h-280zM573 1884h256q9 -92 97 -92q78 0 108 92h256q-29 -143 -129 -225t-237 -82q-165 0 -258 77t-93 212v18z" />
    <glyph glyph-name="uni040F" unicode="&#x40f;" horiz-adv-x="1454" 
d="M123 0l252 1434h379l-189 -1065h451l188 1065h379l-252 -1434h-420l-51 -287h-368l51 287h-420z" />
    <glyph glyph-name="uni0410" unicode="&#x410;" horiz-adv-x="1474" 
d="M10 0l733 1434h533l229 -1434h-389l-39 246h-514l-123 -246h-430zM725 573h307l-57 431h-41z" />
    <glyph glyph-name="uni0411" unicode="&#x411;" horiz-adv-x="1361" 
d="M598 553l-39 -225h309q54 0 93.5 36t39.5 85q0 44 -31.5 74t-78.5 30h-293zM123 0l252 1434h1085l-57 -328h-707l-41 -225h326q173 0 286 -108t113 -275q0 -141 -66.5 -256t-179 -178.5t-245.5 -63.5h-766z" />
    <glyph glyph-name="uni0412" unicode="&#x412;" horiz-adv-x="1382" 
d="M123 0l252 1434h688q101 0 180 -28t126.5 -76.5t72 -110.5t24.5 -134q1 -72 -19.5 -134.5t-46 -98.5t-61 -67t-52 -40t-32.5 -17l-2 -1l-2 -10q35 -27 62 -68q63 -96 63 -205q0 -201 -133.5 -322.5t-339.5 -121.5h-780zM655 881h301q56 0 93.5 36.5t37.5 86.5
q0 42 -31.5 72t-90.5 30h-269zM598 553l-39 -225h313q50 0 87.5 36t37.5 85q0 46 -34 75t-84 29h-281z" />
    <glyph glyph-name="uni0413" unicode="&#x413;" horiz-adv-x="1146" 
d="M123 0l252 1434h973l-66 -369h-594l-186 -1065h-379z" />
    <glyph glyph-name="uni0414" unicode="&#x414;" horiz-adv-x="1505" 
d="M-39 -287l113 656q36 0 63 6t56 23.5t52 53.5t38 91l235 891h1045l-189 -1065h154l-115 -656h-379l51 287h-696l-51 -287h-377zM575 369h420l123 696h-323l-138 -522q-20 -82 -55 -140q-18 -25 -27 -34z" />
    <glyph glyph-name="uni0415" unicode="&#x415;" horiz-adv-x="1218" 
d="M123 0l252 1434h1003l-61 -349h-625l-37 -204h584l-57 -328h-584l-37 -205h625l-60 -348h-1003z" />
    <glyph glyph-name="uni0416" unicode="&#x416;" horiz-adv-x="1853" 
d="M-41 0l526 758l-202 676h436l166 -594l104 594h379l-104 -594l374 594h465l-481 -738l240 -696h-435l-202 625l-109 -625h-379l109 625l-420 -625h-467z" />
    <glyph glyph-name="uni0417" unicode="&#x417;" horiz-adv-x="1290" 
d="M133 481h379q0 -65 51 -109t164 -44q92 0 140 39t48 92q0 54 -37 89.5t-122 35.5h-164l49 286h186q177 0 177 123q0 51 -47 82t-146 31q-78 0 -131 -42t-64 -101h-378q15 101 58 187.5t113.5 155.5t178 108.5t239.5 39.5q135 0 242.5 -32t175 -88t102.5 -128t35 -155
q0 -203 -156 -304q-34 -22 -89 -42v-11q43 -18 77 -55q80 -84 80 -203q0 -195 -155 -325.5t-412 -130.5q-114 0 -206.5 19t-156.5 54.5t-110 81t-72 103.5t-37.5 117t-11.5 126z" />
    <glyph glyph-name="uni0418" unicode="&#x418;" horiz-adv-x="1484" 
d="M123 0l252 1434h379l-127 -738h41l516 738h430l-252 -1434h-379l127 737h-41l-516 -737h-430z" />
    <glyph glyph-name="uni0419" unicode="&#x419;" horiz-adv-x="1484" 
d="M123 0l252 1434h379l-127 -738h41l516 738h430l-252 -1434h-379l127 737h-41l-516 -737h-430zM696 1884h256q9 -92 97 -92q78 0 108 92h256q-29 -143 -129 -225t-237 -82q-165 0 -258 77t-93 212v18z" />
    <glyph glyph-name="uni041A" unicode="&#x41a;" horiz-adv-x="1320" 
d="M123 0l252 1434h379l-105 -594l467 594h469l-577 -738l329 -696h-432l-295 625l-108 -625h-379z" />
    <glyph glyph-name="uni041B" unicode="&#x41b;" horiz-adv-x="1443" 
d="M-2 -20l61 368h66q67 0 108.5 41t65.5 123l240 922h1034l-252 -1434h-379l186 1065h-313l-176 -680q-47 -195 -155.5 -300t-299.5 -105h-186z" />
    <glyph glyph-name="uni041C" unicode="&#x41c;" horiz-adv-x="1904" 
d="M123 0l252 1434h543l108 -779h41l383 779h584l-252 -1434h-379l137 778h-41l-383 -778h-328l-108 778h-41l-137 -778h-379z" />
    <glyph glyph-name="uni041D" unicode="&#x41d;" horiz-adv-x="1474" 
d="M123 0l252 1434h379l-92 -523h471l92 523h379l-252 -1434h-379l92 532h-471l-92 -532h-379z" />
    <glyph glyph-name="uni041E" unicode="&#x41e;" horiz-adv-x="1536" 
d="M862 348q68 0 135 31t120 86t85.5 137.5t32.5 177.5q0 137 -81 221t-206 84q-68 0 -135 -31t-120 -86t-85.5 -137.5t-32.5 -177.5q0 -137 81 -221t206 -84zM825 -20q-277 0 -452.5 178t-175.5 454q0 182 65.5 341t174.5 267.5t252 171t296 62.5q277 0 453 -178.5
t176 -454.5q0 -146 -42.5 -278t-117.5 -233.5t-174 -176.5t-216 -114t-239 -39z" />
    <glyph glyph-name="uni041F" unicode="&#x41f;" horiz-adv-x="1454" 
d="M123 0l252 1434h1208l-252 -1434h-379l187 1065h-451l-186 -1065h-379z" />
    <glyph glyph-name="uni0420" unicode="&#x420;" horiz-adv-x="1372" 
d="M635 758h287q64 0 112.5 49.5t48.5 128.5q0 58 -35.5 93.5t-86.5 35.5h-273zM123 0l252 1434h647q196 0 322 -118t126 -317q0 -136 -44 -251.5t-119 -193.5t-176 -121.5t-213 -43.5h-349l-67 -389h-379z" />
    <glyph glyph-name="uni0421" unicode="&#x421;" horiz-adv-x="1515" 
d="M1165 563h379q-11 -56 -43.5 -126.5t-94.5 -152t-141.5 -148.5t-194.5 -111.5t-243 -44.5q-137 0 -254.5 47t-200 130.5t-129 201.5t-46.5 255q0 144 43 276t118 233.5t173.5 176.5t214.5 114.5t235 39.5q120 0 220.5 -34.5t169.5 -90.5t119 -131.5t76 -154.5t33 -162
h-378q-7 34 -24.5 67t-49 65t-84 52t-119.5 20q-68 0 -134 -31t-118.5 -86t-84.5 -138t-32 -179q0 -137 81 -220t202 -83q55 0 104 17.5t81 42t59.5 57t40.5 55t22 43.5z" />
    <glyph glyph-name="uni0422" unicode="&#x422;" horiz-adv-x="1208" 
d="M399 0l187 1065h-379l65 369h1137l-66 -369h-378l-187 -1065h-379z" />
    <glyph glyph-name="uni0423" unicode="&#x423;" horiz-adv-x="1310" 
d="M164 0l59 348h221q32 0 49 14t39 48l-331 1024h399l170 -543h41l342 543h440l-776 -1209q-34 -51 -63 -85t-73 -69.5t-103.5 -53t-133.5 -17.5h-280z" />
    <glyph glyph-name="uni0424" unicode="&#x424;" horiz-adv-x="1792" 
d="M700 -41l39 225h-4q-65 0 -136 15.5t-146 53.5t-134 93t-97 142.5t-38 193.5q0 96 28.5 185t86 166t138.5 134.5t192.5 90t240.5 32.5h66l31 185h379l-31 -185h4q66 0 136.5 -15.5t145.5 -53t134 -92.5t97 -142.5t38 -193.5q0 -120 -46 -229t-130.5 -194t-216.5 -135.5
t-293 -50.5h-66l-39 -225h-379zM1255 963l-77 -451q155 0 234 66t79 186q0 95 -64.5 147t-171.5 52zM799 512l78 451q-155 0 -234.5 -66t-79.5 -186q0 -95 64.5 -147t171.5 -52z" />
    <glyph glyph-name="uni0425" unicode="&#x425;" horiz-adv-x="1372" 
d="M-31 0l600 737l-317 697h420l159 -369h41l291 369h461l-563 -697l342 -737h-420l-184 410h-41l-328 -410h-461z" />
    <glyph glyph-name="uni0426" unicode="&#x426;" horiz-adv-x="1515" 
d="M123 0l252 1434h379l-189 -1065h441l188 1065h379l-189 -1065h154l-115 -656h-379l52 287h-973z" />
    <glyph glyph-name="uni0427" unicode="&#x427;" horiz-adv-x="1392" 
d="M891 0l80 451q-44 -25 -82 -37q-99 -35 -215 -35q-434 0 -434 405q0 87 14 150l90 500h379l-84 -471q-4 -18 -4 -48q0 -80 51.5 -123.5t149.5 -43.5q89 0 151 34q29 16 47 37l109 615h379l-252 -1434h-379z" />
    <glyph glyph-name="uni0428" unicode="&#x428;" horiz-adv-x="1996" 
d="M123 0l252 1434h379l-189 -1065h307l189 1065h379l-189 -1065h308l188 1065h379l-252 -1434h-1751z" />
    <glyph glyph-name="uni0429" unicode="&#x429;" horiz-adv-x="2068" 
d="M123 0l252 1434h379l-189 -1065h307l189 1065h379l-189 -1065h308l188 1065h379l-189 -1065h154l-115 -656h-379l52 287h-1526z" />
    <glyph glyph-name="uni042A" unicode="&#x42a;" horiz-adv-x="1505" 
d="M307 0l187 1065h-318l66 369h696l-76 -430h254q203 0 325 -115t122 -307q0 -130 -42.5 -240t-115 -184.5t-172 -116t-211.5 -41.5h-715zM750 369h284q62 0 106 39t44 114q0 51 -35.5 82t-99.5 31h-252z" />
    <glyph glyph-name="uni042B" unicode="&#x42b;" horiz-adv-x="1884" 
d="M1382 0l252 1434h379l-252 -1434h-379zM123 0l252 1434h379l-76 -430h233q203 0 325 -115t122 -307q0 -130 -42.5 -240t-115 -184.5t-172 -116t-211.5 -41.5h-694zM565 369h264q62 0 106 39t44 114q0 51 -35.5 82t-99.5 31h-232z" />
    <glyph glyph-name="uni042C" unicode="&#x42c;" horiz-adv-x="1341" 
d="M123 0l252 1434h379l-76 -430h274q203 0 325 -115t122 -307q0 -130 -42.5 -240t-115 -184.5t-172 -116t-211.5 -41.5h-735zM565 369h305q62 0 106 39t44 114q0 51 -35.5 82t-99.5 31h-273z" />
    <glyph glyph-name="uni042D" unicode="&#x42d;" horiz-adv-x="1505" 
d="M182 563h379q7 -38 23 -71.5t45.5 -68t82.5 -55t122 -20.5q110 0 191 63.5t110 141.5h-422l57 328h422q-32 101 -103 152.5t-171 51.5q-62 0 -115.5 -20.5t-89.5 -53.5t-59.5 -65t-37.5 -65h-378q8 54 41.5 125t97 150t144.5 145t196 109.5t239 43.5q182 0 325.5 -81.5
t222.5 -226t79 -327.5q0 -120 -30.5 -232t-83.5 -203t-127 -167.5t-160 -128t-183.5 -80t-195.5 -28.5q-129 0 -236.5 39.5t-176 101t-116.5 140.5t-69 154.5t-23 147.5z" />
    <glyph glyph-name="uni042E" unicode="&#x42e;" horiz-adv-x="2015" 
d="M123 0l252 1434h379l-95 -533h144q86 235 273.5 384t426.5 149q258 0 424 -175t166 -450q0 -148 -42 -282.5t-115.5 -236.5t-169 -177.5t-206 -114.5t-223.5 -39q-118 0 -221.5 38.5t-183 110t-129.5 180.5t-58 244h-151l-92 -532h-379zM1372 328q60 0 119.5 30.5
t109.5 85t81.5 141.5t31.5 189q0 132 -69.5 211.5t-176.5 79.5q-60 0 -120.5 -30.5t-110.5 -85t-81.5 -142t-31.5 -191.5q0 -126 67.5 -207t180.5 -81z" />
    <glyph glyph-name="uni042F" unicode="&#x42f;" horiz-adv-x="1392" 
d="M41 0l428 444q-78 53 -125.5 104t-77.5 127.5t-30 176.5q0 128 45.5 238.5t121.5 185t176 116.5t207 42h736l-252 -1434h-379l76 430h-41l-414 -430h-471zM723 768h303l53 307h-293q-74 0 -123 -49.5t-49 -132.5q0 -53 30.5 -86.5t78.5 -38.5z" />
    <glyph glyph-name="uni0430" unicode="&#x430;" horiz-adv-x="1167" 
d="M760 0l-6 82h-11q-36 -36 -63 -51q-81 -51 -201 -51q-174 0 -271 85t-97 211q0 92 37.5 165t100 116t136.5 65.5t154 22.5h292l5 21q9 55 -24 96t-114 41q-56 0 -88.5 -24.5t-40.5 -51.5h-338q10 67 46.5 129.5t95 114.5t147 83t191.5 31q138 0 239.5 -38.5t157 -104
t75 -149t3.5 -177.5l-109 -616h-317zM791 410l4 20h-201q-66 0 -100.5 -27.5t-34.5 -70.5q0 -38 32 -62t95 -24q75 0 131.5 44t73.5 120z" />
    <glyph glyph-name="uni0431" unicode="&#x431;" horiz-adv-x="1239" 
d="M631 901h10q25 18 55 31q86 31 164 31q197 0 309.5 -114.5t112.5 -287.5q0 -118 -47 -225t-126 -185t-189.5 -124.5t-231.5 -46.5q-232 0 -375 139.5t-143 380.5q0 63 25 207q22 121 63 223t87 169t102.5 120.5t102.5 82t95 48.5q105 43 309 65q97 9 117 111h348
q-40 -214 -119.5 -305t-238.5 -103q-235 -20 -326.5 -66.5t-103.5 -150.5zM539 473q0 -73 48.5 -119.5t121.5 -46.5q80 0 142 61t62 146q0 72 -48 117t-122 45q-80 0 -142 -59.5t-62 -143.5z" />
    <glyph glyph-name="uni0432" unicode="&#x432;" horiz-adv-x="1157" 
d="M102 0l187 1065h620q129 0 216 -75.5t87 -186.5q-1 -183 -163 -266l-2 -11q33 -23 53 -49q53 -65 53 -149q0 -137 -101.5 -232.5t-263.5 -95.5h-686zM575 655h187q42 0 67 26.5t25 68.5q0 69 -90 69h-160zM504 246h196q95 0 95 94q0 32 -23.5 51t-69.5 19h-170z" />
    <glyph glyph-name="uni0433" unicode="&#x433;" horiz-adv-x="931" 
d="M102 0l187 1065h788l-57 -328h-430l-129 -737h-359z" />
    <glyph glyph-name="uni0434" unicode="&#x434;" horiz-adv-x="1239" 
d="M-33 -246l101 574h20q56 0 97.5 41t60.5 102l155 594h861l-129 -737h143l-102 -574h-359l45 246h-491l-45 -246h-357zM512 328h262l72 409h-184l-74 -266q-19 -66 -51 -119q-11 -17 -25 -24z" />
    <glyph glyph-name="uni0435" unicode="&#x435;" 
d="M864 328h338q-15 -28 -20 -37t-26 -43.5t-35 -51.5t-43.5 -50t-55.5 -52t-66 -43.5t-81 -38t-94 -23t-111 -9.5q-235 0 -377.5 135t-142.5 348q0 175 84.5 318.5t226 223.5t307.5 80q245 0 388 -147.5t112 -394.5q-8 -41 -19 -74l-10 -29h-747q0 -82 49.5 -133t144.5 -51
q69 0 129 35q27 15 49 37zM528 635h420q-1 88 -56.5 136t-137.5 48q-84 0 -143 -50t-83 -134z" />
    <glyph glyph-name="uni0436" unicode="&#x436;" horiz-adv-x="1587" 
d="M-51 0l397 584l-151 481h383l135 -481l84 481h358l-84 -481l303 481h424l-377 -563l168 -502h-381l-151 502l-88 -502h-359l88 502l-327 -502h-422z" />
    <glyph glyph-name="uni0437" unicode="&#x437;" horiz-adv-x="1095" 
d="M113 369h348v-11q0 -46 46 -74t111 -28q68 0 101 25t33 61q0 38 -31.5 63t-93.5 25h-123l39 225h147q56 0 85.5 25t29.5 59t-31.5 57t-93.5 23q-67 0 -105 -32t-43 -70h-348q18 149 155.5 258.5t334.5 109.5q228 0 353.5 -94t125.5 -235q0 -29 -6.5 -55.5t-17 -46.5
t-24 -37t-28.5 -29.5t-30.5 -22t-28.5 -16t-24 -10.5t-16 -5l-5 -2l-2 -10q37 -16 63 -39q66 -62 66 -155q0 -57 -30 -116.5t-87 -112t-152.5 -86t-212.5 -33.5q-236 0 -372.5 95t-136.5 234q0 43 4 60z" />
    <glyph glyph-name="uni0438" unicode="&#x438;" 
d="M102 0l187 1065h358l-78 -451h41l303 451h400l-187 -1065h-358l78 451h-41l-303 -451h-400z" />
    <glyph glyph-name="uni0439" unicode="&#x439;" 
d="M102 0l187 1065h358l-78 -451h41l303 451h400l-187 -1065h-358l78 451h-41l-303 -451h-400zM498 1505h256q9 -92 96 -92q78 0 108 92h256q-29 -143 -129 -225t-237 -82q-165 0 -257.5 77t-92.5 212v18z" />
    <glyph glyph-name="uni043A" unicode="&#x43a;" horiz-adv-x="1167" 
d="M102 0l187 1065h358l-82 -471l404 471h413l-469 -543l275 -522h-385l-256 492l-86 -492h-359z" />
    <glyph glyph-name="uni043B" unicode="&#x43b;" horiz-adv-x="1198" 
d="M-2 -20l55 327q10 -2 27 -2h33q60 0 94.5 37.5t54.5 108.5l160 614h860l-186 -1065h-359l129 737h-184l-98 -372q-50 -201 -143.5 -293t-258.5 -92h-184z" />
    <glyph glyph-name="uni043C" unicode="&#x43c;" horiz-adv-x="1597" 
d="M102 0l187 1065h481l78 -543h41l270 543h522l-186 -1065h-358l90 512h-41l-254 -512h-266l-74 512h-41l-90 -512h-359z" />
    <glyph glyph-name="uni043D" unicode="&#x43d;" horiz-adv-x="1208" 
d="M102 0l187 1065h358l-65 -369h286l66 369h358l-186 -1065h-358l63 369h-287l-63 -369h-359z" />
    <glyph glyph-name="uni043E" unicode="&#x43e;" horiz-adv-x="1249" 
d="M150 467q0 129 50 244.5t134 197t198 129t238 47.5q234 0 377 -137.5t143 -349.5q0 -129 -50 -244.5t-134 -197t-198 -129t-238 -47.5q-237 0 -378.5 137t-141.5 350zM745 758q-93 0 -165 -74t-72 -184q0 -85 53 -139t133 -54q93 0 165.5 74t72.5 184q0 86 -53.5 140.5
t-133.5 52.5z" />
    <glyph glyph-name="uni043F" unicode="&#x43f;" horiz-adv-x="1208" 
d="M102 0l187 1065h1003l-186 -1065h-358l129 737h-287l-129 -737h-359z" />
    <glyph glyph-name="uni0440" unicode="&#x440;" horiz-adv-x="1290" 
d="M29 -410l260 1475h317l6 -82h11q33 33 65 51q88 51 193 51q197 0 321.5 -129.5t124.5 -334.5q0 -138 -48.5 -259.5t-127.5 -204t-182 -130t-211 -47.5q-120 0 -209 51q-35 18 -68 51h-10l-84 -492h-358zM735 307q90 0 162 74t72 184q0 84 -54 138.5t-129 54.5
q-95 0 -165 -73.5t-70 -184.5q0 -81 49.5 -137t134.5 -56z" />
    <glyph glyph-name="uni0441" unicode="&#x441;" 
d="M879 430h368q-8 -44 -30.5 -97.5t-69.5 -117.5t-109.5 -115t-159 -85.5t-208.5 -34.5q-235 0 -377.5 135t-142.5 348q0 174 84.5 317.5t226 224t307.5 80.5q117 0 211 -34t149.5 -84.5t92 -114.5t50 -117.5t13.5 -99.5h-369q-38 123 -174 123q-90 0 -161.5 -74
t-71.5 -184q0 -85 52.5 -139t131.5 -54q74 0 121.5 40.5t65.5 82.5z" />
    <glyph glyph-name="uni0442" unicode="&#x442;" horiz-adv-x="1054" 
d="M338 0l129 737h-307l57 328h973l-57 -328h-308l-129 -737h-358z" />
    <glyph glyph-name="uni0443" unicode="&#x443;" horiz-adv-x="1187" 
d="M49 -410l57 328h230q33 0 55 31l12 20l-227 1096h369l110 -594h41l299 594h389l-657 -1239q-61 -116 -136 -176t-196 -60h-346z" />
    <glyph glyph-name="uni0444" unicode="&#x444;" horiz-adv-x="1628" 
d="M686 328l74 409h-23q-109 0 -169 -63.5t-60 -181.5q0 -77 53 -120.5t125 -43.5zM557 -410l74 410q-81 0 -163 28.5t-154.5 82.5t-118 145.5t-45.5 204.5q0 265 168.5 434.5t437.5 169.5h61l66 369h358l-65 -369h-2q81 0 163 -28.5t154.5 -82.5t118 -145.5t45.5 -204.5
q0 -265 -168.5 -434.5t-437.5 -169.5h-60l-74 -410h-358zM1118 737l-74 -409h23q109 0 169 63.5t60 181.5q0 77 -53 120.5t-125 43.5z" />
    <glyph glyph-name="uni0445" unicode="&#x445;" horiz-adv-x="1105" 
d="M-20 0l442 543l-236 522h363l100 -277h41l199 277h403l-420 -522l254 -543h-362l-121 287h-41l-219 -287h-403z" />
    <glyph glyph-name="uni0446" unicode="&#x446;" horiz-adv-x="1269" 
d="M102 0l187 1065h358l-129 -737h287l129 737h358l-129 -737h144l-103 -574h-358l45 246h-789z" />
    <glyph glyph-name="uni0447" unicode="&#x447;" horiz-adv-x="1177" 
d="M717 0l55 319q-33 -18 -65 -26q-79 -27 -172 -27q-167 0 -254.5 84t-87.5 244q0 61 12 111l63 360h359l-56 -313q-4 -28 -4 -35q0 -54 35 -83.5t98 -29.5q61 0 99 23q22 9 32 22l72 416h359l-187 -1065h-358z" />
    <glyph glyph-name="uni0448" unicode="&#x448;" horiz-adv-x="1689" 
d="M102 0l187 1065h358l-129 -737h205l129 737h358l-129 -737h205l129 737h359l-187 -1065h-1485z" />
    <glyph glyph-name="uni0449" unicode="&#x449;" horiz-adv-x="1751" 
d="M102 0l187 1065h358l-129 -737h205l129 737h358l-129 -737h205l129 737h359l-129 -737h143l-102 -574h-359l45 246h-1270z" />
    <glyph glyph-name="uni044A" unicode="&#x44a;" horiz-adv-x="1239" 
d="M256 0l129 737h-256l57 328h615l-53 -307h174q154 0 256 -96.5t102 -239.5q0 -178 -127.5 -300t-306.5 -122h-590zM659 266h138q51 0 88 37t37 88q0 48 -35 74.5t-80 26.5h-107z" />
    <glyph glyph-name="uni044B" unicode="&#x44b;" horiz-adv-x="1607" 
d="M506 266h135q51 0 88 37t37 88q0 48 -35 74.5t-80 26.5h-104zM102 0l187 1065h358l-53 -307h172q154 0 256 -96.5t102 -239.5q0 -178 -127.5 -300t-306.5 -122h-588zM1147 0l186 1065h359l-187 -1065h-358z" />
    <glyph glyph-name="uni044C" unicode="&#x44c;" horiz-adv-x="1105" 
d="M506 266h158q51 0 87.5 37t36.5 88q0 48 -34.5 74.5t-79.5 26.5h-127zM102 0l187 1065h358l-53 -307h194q155 0 257 -96.5t102 -239.5q0 -178 -127.5 -300t-306.5 -122h-611z" />
    <glyph glyph-name="uni044D" unicode="&#x44d;" 
d="M135 410h348q5 -56 52 -100t133 -44q54 0 101 27t68.5 54.5t32.5 51.5h-286l47 267h287q-5 20 -14 38t-28 42t-55 38.5t-84 14.5q-139 0 -209 -133h-348q7 44 34 97t76.5 110.5t113.5 104t154.5 77t189.5 30.5q236 0 379 -136.5t143 -348.5q0 -130 -50 -246t-134 -197.5
t-197.5 -129t-237.5 -47.5q-114 0 -205 30t-147 76t-93.5 105.5t-53 113.5t-17.5 105z" />
    <glyph glyph-name="uni044E" unicode="&#x44e;" horiz-adv-x="1679" 
d="M102 0l187 1065h358l-65 -369h92q49 163 196 276t351 113q226 0 362.5 -133t136.5 -340q0 -138 -49 -257.5t-131 -200.5t-191 -127.5t-227 -46.5q-208 0 -335 102t-169 287h-94l-63 -369h-359zM1362 578q0 81 -46.5 130.5t-121.5 49.5q-81 0 -149 -76t-68 -197
q0 -81 46 -129.5t122 -48.5q81 0 149 75t68 196z" />
    <glyph glyph-name="uni044F" unicode="&#x44f;" horiz-adv-x="1157" 
d="M20 0l334 365q-43 22 -90 69q-88 88 -88 215q0 171 125 293.5t301 122.5h639l-186 -1065h-359l60 348h-21l-315 -348h-400zM627 604h176l31 184h-189q-44 0 -77 -30.5t-33 -71.5q0 -34 25.5 -58t66.5 -24z" />
    <glyph glyph-name="uni0450" unicode="&#x450;" 
d="M864 328h338q-15 -28 -20 -37t-26 -43.5t-35 -51.5t-43.5 -50t-55.5 -52t-66 -43.5t-81 -38t-94 -23t-111 -9.5q-235 0 -377.5 135t-142.5 348q0 175 84.5 318.5t226 223.5t307.5 80q245 0 388 -147.5t112 -394.5q-8 -41 -19 -74l-10 -29h-747q0 -82 49.5 -133t144.5 -51
q69 0 129 35q27 15 49 37zM528 635h420q-1 88 -56.5 136t-137.5 48q-84 0 -143 -50t-83 -134zM653 1198l-202 307h337l152 -307h-287z" />
    <glyph glyph-name="uni0451" unicode="&#x451;" 
d="M864 328h338q-15 -28 -20 -37t-26 -43.5t-35 -51.5t-43.5 -50t-55.5 -52t-66 -43.5t-81 -38t-94 -23t-111 -9.5q-235 0 -377.5 135t-142.5 348q0 175 84.5 318.5t226 223.5t307.5 80q245 0 388 -147.5t112 -394.5q-8 -41 -19 -74l-10 -29h-747q0 -82 49.5 -133t144.5 -51
q69 0 129 35q27 15 49 37zM528 635h420q-1 88 -56.5 136t-137.5 48q-84 0 -143 -50t-83 -134zM872 1208l52 287h297l-52 -287h-297zM453 1208l51 287h297l-51 -287h-297z" />
    <glyph glyph-name="uni0452" unicode="&#x452;" horiz-adv-x="1290" 
d="M154 0l182 1034h-143l53 307h143l23 134h358l-22 -134h327l-53 -307h-328l-35 -194h11q30 34 61 51q84 51 197 51q174 0 269 -98t95 -258q0 -38 -6 -76l4 2l-88 -492q-34 -201 -147.5 -315.5t-311.5 -114.5h-172l58 328h94q105 0 121 102l67 388q0 1 3.5 20t3.5 27
q0 62 -41.5 100.5t-114.5 38.5q-75 0 -120 -50t-54 -114l-76 -430h-358z" />
    <glyph glyph-name="uni0453" unicode="&#x453;" horiz-adv-x="931" 
d="M102 0l187 1065h788l-57 -328h-430l-129 -737h-359zM543 1198l258 307h338l-310 -307h-286z" />
    <glyph glyph-name="uni0454" unicode="&#x454;" horiz-adv-x="1218" 
d="M788 399h-286q3 -17 14 -37.5t32 -43t59 -37.5t85 -15q78 0 128.5 42.5t72.5 101.5h348q-5 -44 -31.5 -99t-76.5 -113.5t-114.5 -107t-156 -79.5t-190.5 -31q-236 0 -379 136.5t-143 348.5q0 130 50 246t133.5 197.5t197 129t237.5 47.5q114 0 205 -30t145.5 -75
t92.5 -104.5t54 -109.5t21 -100h-348q-39 133 -186 133q-42 0 -79 -15t-61.5 -38t-40 -43t-22.5 -37h287z" />
    <glyph glyph-name="uni0455" unicode="&#x455;" horiz-adv-x="1085" 
d="M102 338h349v-21q0 -34 41.5 -63t119.5 -29q61 0 95 24.5t34 61.5q0 75 -88 88l-143 21q-85 12 -149.5 44.5t-101.5 77t-55 92.5t-18 97q0 153 129 253.5t351 100.5q223 0 354 -93t131 -236v-19h-348q0 40 -34.5 66t-100.5 26q-61 0 -92 -26t-31 -60q0 -21 19.5 -39
t53.5 -22l148 -20q170 -19 252 -106.5t82 -209.5q0 -120 -66 -203.5t-179 -123t-263 -39.5q-126 0 -222.5 28t-153.5 76.5t-85.5 108.5t-28.5 129v16z" />
    <glyph glyph-name="uni0456" unicode="&#x456;" horiz-adv-x="563" 
d="M102 0l187 1065h358l-186 -1065h-359zM315 1208l50 287h358l-49 -287h-359z" />
    <glyph glyph-name="uni0457" unicode="&#x457;" horiz-adv-x="563" 
d="M102 0l187 1065h358l-186 -1065h-359zM551 1208l51 287h297l-51 -287h-297zM131 1208l51 287h297l-51 -287h-297z" />
    <glyph glyph-name="uni0458" unicode="&#x458;" horiz-adv-x="563" 
d="M315 1208l50 287h358l-49 -287h-359zM-195 -410l58 328h166q59 0 71 72l189 1075h358l-203 -1157q-30 -158 -111 -238t-249 -80h-279z" />
    <glyph glyph-name="uni0459" unicode="&#x459;" horiz-adv-x="1714" 
d="M-2 -20l55 327q10 -2 27 -2h33q60 0 94.5 37.5t54.5 108.5l160 614h860l-53 -307h168q164 0 263 -98.5t99 -237.5q0 -179 -126 -300.5t-306 -121.5h-590l129 737h-184l-96 -368q-50 -202 -145 -295.5t-259 -93.5h-184zM1141 266h131q51 0 90 34t39 91q0 40 -29 70.5
t-74 30.5h-116z" />
    <glyph glyph-name="uni045A" unicode="&#x45a;" horiz-adv-x="1710" 
d="M1141 266h137q54 0 86.5 32.5t32.5 86.5q0 40 -32 63t-81 23h-106zM102 0l187 1065h358l-57 -328h276l58 328h358l-57 -328h168q160 0 261 -90t101 -233q0 -181 -122.5 -297.5t-303.5 -116.5h-592l72 410h-277l-71 -410h-359z" />
    <glyph glyph-name="uni045B" unicode="&#x45b;" horiz-adv-x="1290" 
d="M154 0l182 1034h-143l53 307h143l23 134h358l-22 -134h327l-53 -307h-328l-35 -194h11q30 34 61 51q84 51 197 51q174 0 269 -98t95 -258q0 -61 -8 -97l-86 -489h-358l71 408q0 1 3.5 20t3.5 27q0 62 -41.5 100.5t-114.5 38.5q-75 0 -120 -50t-54 -114l-76 -430h-358z
" />
    <glyph glyph-name="uni045C" unicode="&#x45c;" horiz-adv-x="1157" 
d="M102 0l187 1065h358l-82 -471l404 471h413l-469 -543l275 -522h-385l-256 492l-86 -492h-359zM645 1198l258 307h338l-309 -307h-287z" />
    <glyph glyph-name="uni045D" unicode="&#x45d;" 
d="M102 0l187 1065h358l-78 -451h41l303 451h400l-187 -1065h-358l78 451h-41l-303 -451h-400zM666 1198l-203 307h338l151 -307h-286z" />
    <glyph glyph-name="uni045E" unicode="&#x45e;" horiz-adv-x="1187" 
d="M49 -410l57 328h230q33 0 55 31l12 20l-227 1096h369l110 -594h41l299 594h389l-657 -1239q-61 -116 -136 -176t-196 -60h-346zM438 1505h256q9 -92 97 -92q78 0 108 92h256q-29 -143 -129.5 -225t-237.5 -82q-165 0 -257.5 77t-92.5 212v18z" />
    <glyph glyph-name="uni045F" unicode="&#x45f;" horiz-adv-x="1208" 
d="M102 0l187 1065h358l-129 -737h287l129 737h358l-186 -1065h-328l-45 -246h-348l45 246h-328z" />
    <glyph glyph-name="uni0462" unicode="&#x462;" horiz-adv-x="1423" 
d="M666 358h292q63 0 99.5 36.5t36.5 90.5q0 47 -34.5 73t-94.5 26h-258zM225 0l178 1014h-235l53 307h236l20 113h379l-20 -113h378l-53 -307h-379l-14 -82h260q195 0 320 -105t125 -286q0 -157 -70.5 -281.5t-190 -192t-264.5 -67.5h-723z" />
    <glyph glyph-name="uni0463" unicode="&#x463;" horiz-adv-x="1198" 
d="M618 266h121q50 0 92.5 35t42.5 90q0 39 -27 70t-73 31h-115zM215 0l154 881h-236l57 317h236l41 236h358l-41 -236h277l-57 -317h-277l-20 -123h165q157 0 259 -97t102 -239q0 -177 -127 -299.5t-307 -122.5h-584z" />
    <glyph glyph-name="uni046A" unicode="&#x46a;" horiz-adv-x="1730" 
d="M999 846l320 250h-549zM61 0l29 174q13 81 35.5 155.5t65.5 156.5t100.5 146t146 115t195.5 72l-293 307l55 308h1465l-56 -308l-403 -327q199 -80 279 -244t38 -381l-28 -174h-379l28 174q27 164 -31 261t-151 97l-92 -532h-379l92 532q-110 0 -194.5 -85.5
t-114.5 -272.5l-29 -174h-379z" />
    <glyph glyph-name="uni046B" unicode="&#x46b;" horiz-adv-x="1443" 
d="M649 778l174 -164h11l235 164h-420zM410 0h-349q32 239 153 401t300 203l-221 195l47 266h1178l-48 -266l-290 -215q151 -56 217 -204t26 -380h-348q16 91 17.5 151.5t-12.5 97.5t-36.5 56.5t-62.5 32.5l-59 -338h-359l60 338q-56 -8 -93.5 -39.5t-68 -104t-51.5 -194.5z
" />
    <glyph glyph-name="uni0472" unicode="&#x472;" horiz-adv-x="1536" 
d="M825 -20q-277 0 -452.5 178t-175.5 454q0 182 65.5 341t174.5 267.5t252 171t296 62.5q277 0 453 -178.5t176 -454.5q0 -146 -42.5 -278t-117.5 -233.5t-174 -176.5t-216 -114t-239 -39zM1214 602q-13 -6 -49 -20q-59 -19 -100 -19q-86 0 -187.5 31t-170.5 31
q-44 0 -97 -17q-4 -2 -41 -14q17 -120 96 -188t199 -68q112 0 208 70t142 194zM596 834l51 18q70 18 103 18q83 0 186 -30.5t172 -30.5q50 0 94 14q27 8 39 15q-17 122 -95.5 190t-195.5 68q-114 0 -211 -69t-143 -193z" />
    <glyph glyph-name="uni0473" unicode="&#x473;" horiz-adv-x="1249" 
d="M150 467q0 129 50 244.5t134 197t198 129t238 47.5q234 0 377 -137.5t143 -349.5q0 -129 -50 -244.5t-134 -197t-198 -129t-238 -47.5q-237 0 -378.5 137t-141.5 350zM526 623l35 6q69 6 78 6q42 0 95 -15.5t95 -15.5q52 0 76 8q12 2 29 11q-17 68 -68.5 107t-120.5 38
q-67 0 -127 -39t-92 -106zM909 440l-35 -6q-46 -4 -73 -4q-42 0 -95.5 15.5t-95.5 15.5q-35 0 -73 -10l-33 -9q17 -66 68 -105.5t120 -39.5q66 0 124 38.5t93 104.5z" />
    <glyph glyph-name="uni0474" unicode="&#x474;" horiz-adv-x="1495" 
d="M451 0l-209 1434h395l131 -942h41l303 614q170 348 451 348q65 0 135 -16l57 -15l-63 -358q-10 3 -25 10q-23 10 -53 10q-44 0 -83 -32.5t-89 -130.5l-459 -922h-532z" />
    <glyph glyph-name="uni0475" unicode="&#x475;" horiz-adv-x="1208" 
d="M328 0l-152 1065h348l80 -625h41l164 338q79 166 165 236.5t208 70.5q73 0 143 -16l57 -14l-53 -307l-20 4q-42 6 -52 6q-52 0 -85 -33.5t-72 -110.5l-301 -614h-471z" />
    <glyph glyph-name="uni048A" unicode="&#x48a;" horiz-adv-x="1536" 
d="M696 1884h256q9 -92 97 -92q78 0 108 92h256q-29 -143 -129 -225t-237 -82q-165 0 -258 77t-93 212v18zM123 0l252 1434h379l-127 -738h41l516 738h430l-189 -1065h205l-12 -72l-297 -584h-277l103 287h-164l127 737h-41l-516 -737h-430z" />
    <glyph glyph-name="uni048B" unicode="&#x48b;" horiz-adv-x="1290" 
d="M102 0l187 1065h358l-78 -451h41l303 451h400l-129 -737h184l-12 -62l-285 -512h-246l86 246h-143l78 451h-41l-303 -451h-400zM498 1505h256q9 -92 96 -92q78 0 108 92h256q-29 -143 -129 -225t-237 -82q-165 0 -257.5 77t-92.5 212v18z" />
    <glyph glyph-name="uni048C" unicode="&#x48c;" horiz-adv-x="1423" 
d="M666 358h292q63 0 99.5 36.5t36.5 90.5q0 47 -34.5 73t-94.5 26h-258zM225 0l178 1014h-235l53 307h236l20 113h379l-20 -113h378l-53 -307h-379l-14 -82h260q195 0 320 -105t125 -286q0 -157 -70.5 -281.5t-190 -192t-264.5 -67.5h-723z" />
    <glyph glyph-name="uni048D" unicode="&#x48d;" horiz-adv-x="1198" 
d="M618 266h121q50 0 92.5 35t42.5 90q0 39 -27 70t-73 31h-115zM215 0l154 881h-236l57 317h236l41 236h358l-41 -236h277l-57 -317h-277l-20 -123h165q157 0 259 -97t102 -239q0 -177 -127 -299.5t-307 -122.5h-584z" />
    <glyph glyph-name="uni048E" unicode="&#x48e;" horiz-adv-x="1372" 
d="M123 0l252 1434h647q196 0 322 -118t126 -317q0 -169 -65.5 -301t-179.5 -213l57 -116l-225 -123l-72 147q-15 -4 -67 -4h-349l-67 -389h-379zM635 758h174l-45 92l225 123l66 -139q28 48 28 102q0 58 -35.5 93.5t-86.5 35.5h-273z" />
    <glyph glyph-name="uni048F" unicode="&#x48f;" horiz-adv-x="1290" 
d="M29 -410l260 1475h317l6 -82h11q33 33 65 51q88 51 193 51q197 0 321.5 -129.5t124.5 -334.5q0 -165 -65.5 -299.5t-176.5 -223.5l72 -149l-205 -113l-75 160q-66 -16 -119 -16q-120 0 -209 51q-35 18 -68 51h-10l-84 -492h-358zM727 307l-57 123l202 113l58 -121
q39 62 39 143q0 84 -54 138.5t-129 54.5q-95 0 -165 -73.5t-70 -184.5q0 -81 47 -135t129 -58z" />
    <glyph glyph-name="uni0490" unicode="&#x490;" horiz-adv-x="1146" 
d="M123 0l252 1434h604l51 286h369l-117 -655h-594l-186 -1065h-379z" />
    <glyph glyph-name="uni0491" unicode="&#x491;" horiz-adv-x="931" 
d="M102 0l187 1065h450l45 256h338l-102 -584h-430l-129 -737h-359z" />
    <glyph glyph-name="uni0492" unicode="&#x492;" horiz-adv-x="1249" 
d="M225 0l92 532h-204l59 328h205l100 574h963l-62 -349h-583l-39 -225h379l-60 -328h-379l-92 -532h-379z" />
    <glyph glyph-name="uni0493" unicode="&#x493;" horiz-adv-x="1013" 
d="M174 0l57 328h-174l49 276h175l79 461h789l-53 -307h-430l-27 -154h307l-49 -276h-307l-58 -328h-358z" />
    <glyph glyph-name="uni0494" unicode="&#x494;" horiz-adv-x="1341" 
d="M123 0l252 1434h993l-65 -369h-615l-41 -240q16 7 55 17q88 18 166 18q224 0 362 -145t138 -367q0 -326 -183 -511t-495 -185h-88l72 368h37q127 0 200.5 64.5t73.5 185.5q0 95 -53.5 158.5t-163.5 63.5q-76 0 -135 -25q-21 -7 -53 -23l-78 -444h-379z" />
    <glyph glyph-name="uni0495" unicode="&#x495;" horiz-adv-x="1105" 
d="M467 -420l59 328q115 0 173.5 63.5t58.5 178.5q0 67 -38.5 107t-103.5 40q-48 0 -84 -16l-26 -15l-45 -266h-359l187 1065h798l-55 -317h-440l-27 -154q37 11 45 14q57 17 103 17q190 0 296.5 -109.5t106.5 -322.5q0 -134 -35.5 -244.5t-104 -193.5t-178 -129t-249.5 -46
h-82z" />
    <glyph glyph-name="uni0496" unicode="&#x496;" horiz-adv-x="1904" 
d="M-41 0l526 758l-202 676h436l166 -594l104 594h379l-104 -594l374 594h465l-481 -738l113 -327h223l-115 -656h-379l52 287h-89l-202 625l-109 -625h-379l109 625l-420 -625h-467z" />
    <glyph glyph-name="uni0497" unicode="&#x497;" horiz-adv-x="1638" 
d="M-51 0l397 584l-151 481h383l135 -481l84 481h358l-84 -481l303 481h424l-377 -563l58 -174h213l-103 -574h-358l43 246h-66l-151 502l-88 -502h-359l88 502l-327 -502h-422z" />
    <glyph glyph-name="uni0498" unicode="&#x498;" horiz-adv-x="1290" 
d="M418 -287l51 297q-94 27 -161.5 76.5t-104.5 114t-53.5 133t-16.5 147.5h379q0 -65 51 -109t164 -44q92 0 140 39t48 92q0 54 -37 89.5t-122 35.5h-164l49 286h186q177 0 177 123q0 51 -47 82t-146 31q-78 0 -131 -42t-64 -101h-378q15 101 58 187.5t113.5 155.5
t178 108.5t239.5 39.5q135 0 242.5 -32t175 -88t102.5 -128t35 -155q0 -203 -156 -304q-34 -22 -89 -42v-11q43 -18 77 -55q80 -84 80 -203q0 -170 -121 -294.5t-329 -153.5l-47 -275h-379z" />
    <glyph glyph-name="uni0499" unicode="&#x499;" horiz-adv-x="1095" 
d="M338 -246l47 256q-133 41 -204.5 120t-71.5 179q0 43 4 60h348v-11q0 -46 46 -74t111 -28q68 0 101 25t33 61q0 38 -31.5 63t-93.5 25h-123l39 225h147q56 0 85.5 25t29.5 59t-31.5 57t-93.5 23q-67 0 -105 -32t-43 -70h-348q18 149 155.5 258.5t334.5 109.5
q228 0 353.5 -94t125.5 -235q0 -29 -6.5 -55.5t-17 -46.5t-24 -37t-28.5 -29.5t-30.5 -22t-28.5 -16t-24 -10.5t-16 -5l-5 -2l-2 -10q37 -16 63 -39q66 -62 66 -155q0 -49 -23 -101t-65.5 -100.5t-113.5 -85.5t-159 -51l-43 -236h-358z" />
    <glyph glyph-name="uni049A" unicode="&#x49a;" horiz-adv-x="1361" 
d="M123 0l252 1434h379l-105 -594l467 594h469l-577 -738l155 -327h232l-64 -359l6 -10h-8l-49 -287h-379l49 287h-45l-295 625l-108 -625h-379z" />
    <glyph glyph-name="uni049B" unicode="&#x49b;" 
d="M102 0l187 1065h358l-82 -471l404 471h413l-469 -543l103 -194h260l-102 -574h-359l45 246h-57l-256 492l-86 -492h-359z" />
    <glyph glyph-name="uni049C" unicode="&#x49c;" horiz-adv-x="1454" 
d="M123 0l252 1434h379l-97 -543h52l28 164h164l-29 -164h31l346 543h467l-504 -738l261 -696h-435l-178 532h-51l-31 -174h-164l31 174h-51l-92 -532h-379z" />
    <glyph glyph-name="uni049D" unicode="&#x49d;" horiz-adv-x="1259" 
d="M102 0l187 1065h358l-72 -410h41l23 133h133l-22 -133h16l295 410h409l-403 -543l215 -522h-387l-168 430h-16l-25 -133h-133l25 133h-41l-76 -430h-359z" />
    <glyph glyph-name="uni049E" unicode="&#x49e;" horiz-adv-x="1372" 
d="M174 0l186 1065h-184l49 276h185l16 93h379l-17 -93h93l-50 -276h-92l-39 -225l467 594h469l-577 -738l330 -696h-433l-294 625l-109 -625h-379z" />
    <glyph glyph-name="uni049F" unicode="&#x49f;" horiz-adv-x="1208" 
d="M143 0l181 1034h-142l54 312h143l16 88h359l-17 -88h195l-53 -312h-195l-78 -440l404 471h413l-469 -543l275 -522h-385l-256 492l-86 -492h-359z" />
    <glyph glyph-name="uni04A0" unicode="&#x4a0;" horiz-adv-x="1423" 
d="M225 0l193 1096h-246l59 338h625l-104 -594l467 594h469l-578 -738l330 -696h-432l-295 625l-109 -625h-379z" />
    <glyph glyph-name="uni04A1" unicode="&#x4a1;" horiz-adv-x="1280" 
d="M215 0l131 748h-215l55 317h574l-82 -471l403 471h414l-469 -543l274 -522h-385l-256 492l-86 -492h-358z" />
    <glyph glyph-name="uni04A2" unicode="&#x4a2;" horiz-adv-x="1546" 
d="M123 0l252 1434h379l-92 -523h471l92 523h379l-189 -1065h154l-115 -656h-379l51 287h-153l92 532h-471l-92 -532h-379z" />
    <glyph glyph-name="uni04A3" unicode="&#x4a3;" horiz-adv-x="1269" 
d="M102 0l187 1065h358l-65 -369h286l66 369h358l-129 -737h144l-103 -574h-358l45 246h-143l63 369h-287l-63 -369h-359z" />
    <glyph glyph-name="uni04A4" unicode="&#x4a4;" horiz-adv-x="1925" 
d="M123 0l252 1434h379l-92 -523h440l92 523h932l-66 -369h-553l-186 -1065h-379l92 532h-440l-92 -532h-379z" />
    <glyph glyph-name="uni04A5" unicode="&#x4a5;" horiz-adv-x="1525" 
d="M102 0l187 1065h358l-65 -369h266l65 369h758l-57 -328h-400l-129 -737h-358l64 369h-267l-63 -369h-359z" />
    <glyph glyph-name="uni04A6" unicode="&#x4a6;" horiz-adv-x="2119" 
d="M123 0l252 1434h1167l-106 -609q16 7 55 17q88 18 166 18q224 0 362 -145t138 -367q0 -326 -183 -511t-495 -185h-88l71 368h37q127 0 201 64.5t74 185.5q0 95 -54 158.5t-164 63.5q-76 0 -135 -25q-21 -7 -53 -23l-78 -444h-379l187 1065h-400l-186 -1065h-389z" />
    <glyph glyph-name="uni04A7" unicode="&#x4a7;" horiz-adv-x="1710" 
d="M102 0l187 1065h973l-82 -471q37 12 41 14q53 17 96 17q87 0 160.5 -24.5t131 -73t90 -129t32.5 -185.5q0 -178 -65.5 -320t-196 -227.5t-306.5 -85.5h-82l60 328q115 0 173 63.5t58 178.5q0 71 -41.5 109t-109.5 38q-32 0 -60 -10.5t-39 -18.5l-47 -268h-358l129 737
h-256l-129 -737h-359z" />
    <glyph glyph-name="uni04A8" unicode="&#x4a8;" horiz-adv-x="1822" 
d="M1298 463q26 15 60 46.5t74.5 79.5t68 113.5t27.5 131.5t-30.5 118t-96.5 52q-24 0 -48 -7.5t-50.5 -27.5t-46.5 -50.5t-33 -82t-13 -117.5q0 -104 28 -167.5t60 -88.5zM1788 348l-64 -368q-128 0 -229.5 17t-147.5 35t-100 46q-7 -4 -19 -10.5t-50.5 -23.5t-78.5 -30
t-99 -23.5t-115 -10.5q-110 0 -210 23t-189.5 73.5t-155.5 123t-104 179t-38 235.5q0 156 47.5 293.5t127 236t182.5 169.5t215.5 106t224.5 35l-65 -369q-60 -6 -120 -35t-113 -78t-86.5 -128.5t-33.5 -175.5q0 -56 18 -111.5t52 -102.5t91.5 -76.5t129.5 -29.5q40 0 72 4
l24 6q-123 182 -123 357q0 173 82 324.5t222.5 242t304.5 90.5q204 0 335.5 -126.5t131.5 -340.5q0 -110 -34 -220.5t-94.5 -198t-136.5 -130.5l39 -4q70 -6 107 -4z" />
    <glyph glyph-name="uni04A9" unicode="&#x4a9;" horiz-adv-x="1505" 
d="M1077 379q32 21 77.5 92.5t45.5 132.5q0 42 -19.5 67t-47.5 25q-37 0 -70 -41.5t-33 -113.5q0 -48 16.5 -97t30.5 -65zM1477 307l-58 -327h-25q-67 0 -99 1.5t-79 9.5t-86 27.5t-83 53.5q-38 -25 -89 -47q-112 -45 -235 -45q-110 0 -208.5 29t-179 85.5t-128 151
t-47.5 215.5q0 118 37 221.5t98 176t139 124.5t160 77t160 25l-60 -337q-31 -7 -61.5 -23.5t-59.5 -45.5t-47 -76t-18 -105q0 -85 54.5 -138t135.5 -53q28 0 43 6q3 1 8.5 4.5t6.5 4.5q-20 20 -47 89.5t-27 155.5q0 129 62 234t169 164t236 59q192 0 297.5 -100.5
t105.5 -261.5q0 -139 -92 -254q-43 -56 -92 -91l35 -6q46 -4 74 -4z" />
    <glyph glyph-name="uni04AA" unicode="&#x4aa;" horiz-adv-x="1515" 
d="M535 -287l53 307q-182 67 -286.5 223t-104.5 371q0 144 43 276t118 233.5t173.5 176.5t214.5 114.5t235 39.5q120 0 220.5 -34.5t169.5 -90.5t119 -131.5t76 -154.5t33 -162h-378q-7 34 -24.5 67t-49 65t-84 52t-119.5 20q-68 0 -134 -31t-118.5 -86t-84.5 -138t-32 -179
q0 -137 81 -220t202 -83q55 0 104 17.5t81 42t59.5 57t40.5 55t22 43.5h379q-9 -49 -36 -111.5t-77.5 -135t-115.5 -136t-157.5 -115t-194.5 -71.5l-50 -281h-378z" />
    <glyph glyph-name="uni04AB" unicode="&#x4ab;" 
d="M401 -246l48 264q-141 54 -220 172t-79 273q0 174 84.5 317.5t226 224t307.5 80.5q117 0 211 -34t149.5 -84.5t92 -114.5t50 -117.5t13.5 -99.5h-369q-38 123 -174 123q-90 0 -161.5 -74t-71.5 -184q0 -85 52.5 -139t131.5 -54q74 0 121.5 40.5t65.5 82.5h368
q-5 -38 -23 -84.5t-54.5 -102.5t-85 -104t-122.5 -88t-159 -57l-43 -240h-359z" />
    <glyph glyph-name="uni04AC" unicode="&#x4ac;" horiz-adv-x="1208" 
d="M502 -287l51 287h-154l187 1065h-379l65 369h1137l-66 -369h-378l-123 -696h153l-114 -656h-379z" />
    <glyph glyph-name="uni04AD" unicode="&#x4ad;" horiz-adv-x="1054" 
d="M436 -246l45 246h-143l129 737h-307l57 328h973l-57 -328h-308l-71 -409h143l-102 -574h-359z" />
    <glyph glyph-name="uni04AE" unicode="&#x4ae;" horiz-adv-x="1331" 
d="M471 0l76 440l-346 994h399l172 -533h41l361 533h440l-688 -994l-76 -440h-379z" />
    <glyph glyph-name="uni04AF" unicode="&#x4af;" horiz-adv-x="1208" 
d="M348 -430l78 430h-57l-193 1065h365l104 -635h41l326 635h393l-565 -1065h-56l-77 -430h-359z" />
    <glyph glyph-name="uni04B0" unicode="&#x4b0;" horiz-adv-x="1331" 
d="M471 0l72 418h-348l57 319h192l-243 697h399l172 -533h41l361 533h440l-484 -697h197l-57 -319h-348l-72 -418h-379z" />
    <glyph glyph-name="uni04B1" unicode="&#x4b1;" horiz-adv-x="1208" 
d="M348 -430l78 430h-313l53 307h153l-143 758h365l104 -635h41l326 635h393l-410 -758h154l-53 -307h-312l-77 -430h-359z" />
    <glyph glyph-name="uni04B2" unicode="&#x4b2;" horiz-adv-x="1413" 
d="M-31 0l600 737l-317 697h420l159 -369h41l291 369h461l-563 -697l170 -368h235l-65 -367l2 -2h-2l-49 -287h-379l51 287h-41l-184 410h-41l-328 -410h-461z" />
    <glyph glyph-name="uni04B3" unicode="&#x4b3;" horiz-adv-x="1157" 
d="M-20 0l442 543l-236 522h363l100 -277h41l199 277h403l-420 -522l101 -215h241l-102 -574h-358l45 246h-35l-121 287h-41l-219 -287h-403z" />
    <glyph glyph-name="uni04B4" unicode="&#x4b4;" horiz-adv-x="1720" 
d="M338 0l186 1065h-317l65 369h983l-65 -369h-287l-123 -696h430l189 1065h379l-189 -1065h154l-115 -656h-379l51 287h-962z" />
    <glyph glyph-name="uni04B5" unicode="&#x4b5;" horiz-adv-x="1423" 
d="M256 0l129 737h-225l57 328h789l-58 -328h-205l-71 -409h286l129 737h359l-129 -737h143l-102 -574h-359l45 246h-788z" />
    <glyph glyph-name="uni04B6" unicode="&#x4b6;" horiz-adv-x="1464" 
d="M993 -287l49 287h-151l80 451q-44 -25 -82 -37q-99 -35 -215 -35q-434 0 -434 405q0 87 14 150l90 500h379l-84 -471q-4 -18 -4 -48q0 -80 51.5 -123.5t149.5 -43.5q89 0 151 34q29 16 47 37l109 615h379l-189 -1065h154l-115 -656h-379z" />
    <glyph glyph-name="uni04B7" unicode="&#x4b7;" horiz-adv-x="1239" 
d="M815 -246l45 246h-143l55 319q-33 -18 -65 -26q-79 -27 -172 -27q-167 0 -254.5 84t-87.5 244q0 61 12 111l63 360h359l-56 -313q-4 -28 -4 -35q0 -54 35 -83.5t98 -29.5q61 0 99 23q22 9 32 22l72 416h359l-129 -737h143l-102 -574h-359z" />
    <glyph glyph-name="uni04B8" unicode="&#x4b8;" horiz-adv-x="1392" 
d="M645 236l25 143q-430 0 -430 405q0 87 14 150l90 500h379l-84 -471q-4 -18 -4 -48q0 -115 102 -153l29 160h164l-31 -170q53 9 102 39q20 11 33 28l109 615h379l-252 -1434h-379l80 451q-12 -7 -35 -17q-28 -12 -98 -35l-29 -163h-164z" />
    <glyph glyph-name="uni04B9" unicode="&#x4b9;" horiz-adv-x="1177" 
d="M539 154l18 112h-12q-352 0 -352 328q0 61 12 111l63 360h359l-56 -313q-4 -28 -4 -35q0 -66 54 -94l28 165h133l-30 -178q25 6 59 25q2 2 20 14l72 416h359l-187 -1065h-358l55 319l-20 -10q-32 -14 -58 -20l-22 -135h-133z" />
    <glyph glyph-name="uni04BA" unicode="&#x4ba;" horiz-adv-x="1402" 
d="M123 0l252 1434h379l-80 -451q54 26 82 35q105 37 215 37q434 0 434 -406q0 -86 -14 -149l-91 -500h-378l84 471q4 18 4 47q0 80 -52 124t-149 44q-84 0 -152 -37q-27 -15 -47 -35l-108 -614h-379z" />
    <glyph glyph-name="uni04BB" unicode="&#x4bb;" horiz-adv-x="1249" 
d="M113 0l252 1434h358l-80 -451h10q29 32 62 51q84 51 196 51q174 0 269.5 -98t95.5 -258q0 -60 -8 -96l-111 -633h-358l96 551q6 42 6 47q0 62 -41.5 100.5t-114.5 38.5q-75 0 -120 -50t-54 -114l-100 -573h-358z" />
    <glyph glyph-name="uni04BC" unicode="&#x4bc;" horiz-adv-x="1822" 
d="M164 901l18 103h277l-10 -52q-10 -41 14 -71.5t67 -30.5q48 179 164 318t268.5 212.5t313.5 73.5q144 0 266 -55t204.5 -149.5t123 -228t26.5 -284.5l-24 -143h-983q8 -82 50 -139.5t98.5 -82t121.5 -24.5q58 0 104 12t77.5 34.5t47.5 38t33 38.5h410q-34 -96 -96.5 -182
t-149.5 -156t-205.5 -111.5t-251.5 -41.5q-271 0 -447 172.5t-181 441.5h-39q-149 0 -235 80t-62 227zM934 850h584q-19 111 -94.5 173t-172.5 62q-101 0 -187 -66t-130 -169z" />
    <glyph glyph-name="uni04BD" unicode="&#x4bd;" horiz-adv-x="1423" 
d="M100 662l15 75h215l-6 -30q-2 -10 -2 -23q0 -43 45 -49q57 201 222 325.5t374 124.5q245 0 387.5 -147.5t111.5 -394.5q-9 -48 -18 -74l-10 -29h-748q0 -82 50 -133t145 -51q69 0 129 35q27 15 49 37h338q-14 -27 -19.5 -37t-26 -43.5t-35.5 -51.5t-44 -50.5t-55.5 -51.5
t-66.5 -43.5t-81 -38t-94 -23t-111 -9.5q-227 0 -369.5 128t-150.5 332h-63q-80 0 -133.5 46t-53.5 122q0 16 6 54zM723 635h420q-1 88 -56.5 136t-138.5 48q-84 0 -142.5 -50t-82.5 -134z" />
    <glyph glyph-name="uni04BE" unicode="&#x4be;" horiz-adv-x="1822" 
d="M836 -287l53 307q-176 65 -280.5 217t-108.5 357h-39q-149 0 -235 80t-62 227l18 103h277l-10 -52q-10 -41 14 -71.5t67 -30.5q48 179 164 318t268.5 212.5t313.5 73.5q144 0 266 -55t204.5 -149.5t123 -228t26.5 -284.5l-24 -143h-983q8 -82 50 -139.5t98.5 -82
t121.5 -24.5q58 0 104 12t77.5 34.5t47.5 38t33 38.5h410q-61 -175 -210 -309.5t-357 -169.5l-50 -279h-378zM934 850h584q-19 111 -94.5 173t-172.5 62q-101 0 -187 -66t-130 -169z" />
    <glyph glyph-name="uni04BF" unicode="&#x4bf;" horiz-adv-x="1423" 
d="M596 -246l47 262q-136 55 -215.5 165.5t-83.5 258.5h-63q-80 0 -133.5 46t-53.5 122q0 16 6 54l15 75h215l-6 -30q-2 -10 -2 -23q0 -43 45 -49q57 201 222 325.5t374 124.5q245 0 387.5 -147.5t111.5 -394.5q-9 -48 -18 -74l-10 -29h-748q0 -82 50 -133t145 -51
q69 0 129 35q27 15 49 37h338q-15 -29 -22.5 -43t-31 -50t-43 -59t-54.5 -56t-70.5 -55t-85 -42.5t-103.5 -30.5l-43 -238h-348zM723 635h420q-1 88 -56.5 136t-138.5 48q-84 0 -142.5 -50t-82.5 -134z" />
    <glyph glyph-name="uni04C0" unicode="&#x4c0;" horiz-adv-x="624" 
d="M123 0l252 1434h379l-252 -1434h-379z" />
    <glyph glyph-name="uni04C1" unicode="&#x4c1;" horiz-adv-x="1853" 
d="M-41 0l526 758l-202 676h436l166 -594l104 594h379l-104 -594l374 594h465l-481 -738l240 -696h-435l-202 625l-109 -625h-379l109 625l-420 -625h-467zM864 1884h256q9 -92 97 -92q78 0 108 92h256q-29 -143 -129.5 -225t-237.5 -82q-165 0 -257.5 77t-92.5 212v18z" />
    <glyph glyph-name="uni04C2" unicode="&#x4c2;" horiz-adv-x="1587" 
d="M-51 0l397 584l-151 481h383l135 -481l84 481h358l-84 -481l303 481h424l-377 -563l168 -502h-381l-151 502l-88 -502h-359l88 502l-327 -502h-422zM653 1505h256q9 -92 97 -92q78 0 108 92h256q-29 -143 -129 -225t-237 -82q-165 0 -258 77t-93 212v18z" />
    <glyph glyph-name="uni04C3" unicode="&#x4c3;" horiz-adv-x="1361" 
d="M123 0l252 1434h379l-105 -594l467 594h469l-485 -621q130 -57 199 -170.5t69 -273.5q0 -161 -51 -296t-141 -227t-215 -143t-271 -51h-88l72 368h37q124 0 199 74t75 197q0 91 -61.5 146t-175.5 55q-108 0 -168 -48l-78 -444h-379z" />
    <glyph glyph-name="uni04C4" unicode="&#x4c4;" horiz-adv-x="1218" 
d="M526 -430l60 328q119 0 184.5 65t65.5 191q0 174 -164 174q-17 0 -32 -1t-28 -4t-22.5 -5.5t-20 -7.5t-16 -7.5t-14 -9t-11.5 -8.5t-11 -9t-9 -8l-47 -268h-359l187 1065h358l-82 -471l404 471h413l-399 -461q92 -39 155.5 -138t63.5 -257q0 -103 -20.5 -195.5
t-66 -174.5t-112.5 -141t-166 -93.5t-221 -34.5h-90z" />
    <glyph glyph-name="uni04C5" unicode="&#x4c5;" horiz-adv-x="1495" 
d="M-2 -20l61 368h66q67 0 108.5 41t65.5 123l240 922h1034l-189 -1065h205l-12 -72l-297 -584h-276l102 287h-164l186 1065h-313l-176 -680q-47 -195 -155.5 -300t-299.5 -105h-186z" />
    <glyph glyph-name="uni04C6" unicode="&#x4c6;" horiz-adv-x="1259" 
d="M-2 -20l55 327q10 -2 27 -2h33q60 0 94.5 37.5t54.5 108.5l160 614h860l-129 -737h184l-12 -62l-285 -512h-245l86 246h-144l129 737h-184l-98 -372q-50 -201 -143.5 -293t-258.5 -92h-184z" />
    <glyph glyph-name="uni04C7" unicode="&#x4c7;" horiz-adv-x="1474" 
d="M123 0l252 1434h379l-92 -523h471l92 523h379l-244 -1375q-14 -72 -32.5 -132.5t-57.5 -131.5t-92 -120t-138.5 -82t-193.5 -33h-156l66 379h59q76 0 118 41t54 102q7 28 78 450h-471l-92 -532h-379z" />
    <glyph glyph-name="uni04C8" unicode="&#x4c8;" horiz-adv-x="1208" 
d="M526 -440l58 327h49q97 0 115 113l63 369h-287l-63 -369h-359l187 1065h358l-65 -369h286l66 369h358l-186 -1065h-2l-4 -31q-29 -191 -138.5 -300t-273.5 -109h-162z" />
    <glyph glyph-name="uni04C9" unicode="&#x4c9;" horiz-adv-x="1525" 
d="M123 0l252 1434h379l-92 -523h471l92 523h379l-189 -1065h205l-12 -72l-297 -584h-277l103 287h-164l92 532h-471l-92 -532h-379z" />
    <glyph glyph-name="uni04CA" unicode="&#x4ca;" horiz-adv-x="1269" 
d="M102 0l187 1065h358l-65 -369h286l66 369h358l-129 -737h185l-13 -62l-284 -512h-246l86 246h-143l63 369h-287l-63 -369h-359z" />
    <glyph glyph-name="uni04CB" unicode="&#x4cb;" horiz-adv-x="1392" 
d="M666 -287l94 533h174l37 205q-44 -25 -82 -37q-99 -35 -215 -35q-434 0 -434 405q0 87 14 150l90 500h379l-84 -471q-4 -18 -4 -48q0 -80 51.5 -123.5t149.5 -43.5q89 0 151 34q29 16 47 37l109 615h379l-252 -1434h-174l-52 -287h-378z" />
    <glyph glyph-name="uni04CC" unicode="&#x4cc;" horiz-adv-x="1177" 
d="M508 -246l78 441h164l22 124q-33 -18 -65 -26q-79 -27 -172 -27q-167 0 -254.5 84t-87.5 244q0 61 12 111l63 360h359l-56 -313q-4 -28 -4 -35q0 -54 35 -83.5t98 -29.5q61 0 99 23q22 9 32 22l72 416h359l-187 -1065h-164l-45 -246h-358z" />
    <glyph glyph-name="uni04CD" unicode="&#x4cd;" horiz-adv-x="1955" 
d="M123 0l252 1434h543l108 -779h41l383 779h584l-189 -1065h205l-12 -72l-297 -584h-277l103 287h-164l137 778h-41l-383 -778h-328l-108 778h-41l-137 -778h-379z" />
    <glyph glyph-name="uni04CE" unicode="&#x4ce;" horiz-adv-x="1658" 
d="M102 0l187 1065h481l78 -543h41l270 543h522l-129 -737h185l-13 -62l-284 -512h-246l86 246h-143l90 512h-41l-254 -512h-266l-74 512h-41l-90 -512h-359z" />
    <glyph glyph-name="uni04CF" unicode="&#x4cf;" horiz-adv-x="583" 
d="M113 0l252 1434h358l-252 -1434h-358z" />
    <glyph glyph-name="uni04D0" unicode="&#x4d0;" horiz-adv-x="1474" 
d="M10 0l733 1434h533l229 -1434h-389l-39 246h-514l-123 -246h-430zM725 573h307l-57 431h-41zM690 1884h256q9 -92 96 -92q79 0 109 92h256q-29 -143 -129.5 -225t-237.5 -82q-165 0 -257.5 77t-92.5 212v18z" />
    <glyph glyph-name="uni04D1" unicode="&#x4d1;" horiz-adv-x="1167" 
d="M760 0l-6 82h-11q-36 -36 -63 -51q-81 -51 -201 -51q-174 0 -271 85t-97 211q0 92 37.5 165t100 116t136.5 65.5t154 22.5h292l5 21q9 55 -24 96t-114 41q-56 0 -88.5 -24.5t-40.5 -51.5h-338q10 67 46.5 129.5t95 114.5t147 83t191.5 31q138 0 239.5 -38.5t157 -104
t75 -149t3.5 -177.5l-109 -616h-317zM791 410l4 20h-201q-66 0 -100.5 -27.5t-34.5 -70.5q0 -38 32 -62t95 -24q75 0 131.5 44t73.5 120zM473 1505h256q9 -92 96 -92q79 0 109 92h256q-29 -143 -129.5 -225t-237.5 -82q-165 0 -257.5 77t-92.5 212v18z" />
    <glyph glyph-name="uni04D2" unicode="&#x4d2;" horiz-adv-x="1474" 
d="M10 0l733 1434h533l229 -1434h-389l-39 246h-514l-123 -246h-430zM725 573h307l-57 431h-41zM1083 1587l52 287h297l-52 -287h-297zM664 1587l51 287h297l-51 -287h-297z" />
    <glyph glyph-name="uni04D3" unicode="&#x4d3;" horiz-adv-x="1167" 
d="M760 0l-6 82h-11q-36 -36 -63 -51q-81 -51 -201 -51q-174 0 -271 85t-97 211q0 92 37.5 165t100 116t136.5 65.5t154 22.5h292l5 21q9 55 -24 96t-114 41q-56 0 -88.5 -24.5t-40.5 -51.5h-338q10 67 46.5 129.5t95 114.5t147 83t191.5 31q138 0 239.5 -38.5t157 -104
t75 -149t3.5 -177.5l-109 -616h-317zM791 410l4 20h-201q-66 0 -100.5 -27.5t-34.5 -70.5q0 -38 32 -62t95 -24q75 0 131.5 44t73.5 120zM862 1208l51 287h297l-51 -287h-297zM442 1208l52 287h297l-52 -287h-297z" />
    <glyph glyph-name="uni04D6" unicode="&#x4d6;" horiz-adv-x="1218" 
d="M123 0l252 1434h1003l-61 -349h-625l-37 -204h584l-57 -328h-584l-37 -205h625l-60 -348h-1003zM565 1884h256q9 -92 97 -92q78 0 108 92h256q-29 -143 -129.5 -225t-237.5 -82q-165 0 -257.5 77t-92.5 212v18z" />
    <glyph glyph-name="uni04D7" unicode="&#x4d7;" 
d="M864 328h338q-15 -28 -20 -37t-26 -43.5t-35 -51.5t-43.5 -50t-55.5 -52t-66 -43.5t-81 -38t-94 -23t-111 -9.5q-235 0 -377.5 135t-142.5 348q0 175 84.5 318.5t226 223.5t307.5 80q245 0 388 -147.5t112 -394.5q-8 -41 -19 -74l-10 -29h-747q0 -82 49.5 -133t144.5 -51
q69 0 129 35q27 15 49 37zM528 635h420q-1 88 -56.5 136t-137.5 48q-84 0 -143 -50t-83 -134zM481 1505h256q9 -92 97 -92q78 0 108 92h256q-29 -143 -129.5 -225t-237.5 -82q-165 0 -257.5 77t-92.5 212v18z" />
    <glyph glyph-name="uni04D8" unicode="&#x4d8;" horiz-adv-x="1525" 
d="M207 696l24 144h983q-8 82 -50 139t-98.5 81.5t-121.5 24.5q-58 0 -104 -12t-77.5 -34t-47.5 -37.5t-33 -38.5h-410q37 102 102 190t153 156t203.5 106.5t244.5 38.5q183 0 326.5 -81.5t223 -226t79.5 -327.5q0 -144 -43.5 -276.5t-119 -233t-173.5 -176t-212 -114.5
t-229 -39q-142 0 -264.5 54.5t-206 149t-124.5 228t-25 284.5zM1169 584h-583q16 -110 93 -173t173 -63q101 0 187 66.5t130 169.5z" />
    <glyph glyph-name="uni04D9" unicode="&#x4d9;" 
d="M180 625h748q0 82 -50 133t-145 51q-65 0 -129 -37q-23 -13 -49 -35h-338q14 27 19.5 37t26 43.5t35.5 51.5t44 50.5t55.5 51.5t66.5 43.5t81 38t94 23t111 9.5q234 0 377 -136.5t143 -346.5q0 -175 -85 -318.5t-226.5 -223.5t-307.5 -80q-245 0 -387.5 147.5
t-111.5 394.5q9 48 18 74zM891 430h-420q1 -88 56.5 -136t138.5 -48q84 0 142.5 50t82.5 134z" />
    <glyph glyph-name="uni04DA" unicode="&#x4da;" horiz-adv-x="1525" 
d="M207 696l24 144h983q-8 82 -50 139t-98.5 81.5t-121.5 24.5q-58 0 -104 -12t-77.5 -34t-47.5 -37.5t-33 -38.5h-410q37 102 102 190t153 156t203.5 106.5t244.5 38.5q183 0 326.5 -81.5t223 -226t79.5 -327.5q0 -144 -43.5 -276.5t-119 -233t-173.5 -176t-212 -114.5
t-229 -39q-142 0 -264.5 54.5t-206 149t-124.5 228t-25 284.5zM1169 584h-583q16 -110 93 -173t173 -63q101 0 187 66.5t130 169.5zM1094 1587l51 287h297l-51 -287h-297zM674 1587l51 287h297l-51 -287h-297z" />
    <glyph glyph-name="uni04DB" unicode="&#x4db;" 
d="M180 625h748q0 82 -50 133t-145 51q-65 0 -129 -37q-23 -13 -49 -35h-338q14 27 19.5 37t26 43.5t35.5 51.5t44 50.5t55.5 51.5t66.5 43.5t81 38t94 23t111 9.5q234 0 377 -136.5t143 -346.5q0 -175 -85 -318.5t-226.5 -223.5t-307.5 -80q-245 0 -387.5 147.5
t-111.5 394.5q9 48 18 74zM891 430h-420q1 -88 56.5 -136t138.5 -48q84 0 142.5 50t82.5 134zM870 1208l52 287h297l-52 -287h-297zM451 1208l51 287h297l-51 -287h-297z" />
    <glyph glyph-name="uni04DC" unicode="&#x4dc;" horiz-adv-x="1853" 
d="M-41 0l526 758l-202 676h436l166 -594l104 594h379l-104 -594l374 594h465l-481 -738l240 -696h-435l-202 625l-109 -625h-379l109 625l-420 -625h-467zM1257 1587l52 287h297l-52 -287h-297zM838 1587l51 287h297l-51 -287h-297z" />
    <glyph glyph-name="uni04DD" unicode="&#x4dd;" horiz-adv-x="1587" 
d="M-51 0l397 584l-151 481h383l135 -481l84 481h358l-84 -481l303 481h424l-377 -563l168 -502h-381l-151 502l-88 -502h-359l88 502l-327 -502h-422zM1044 1208l52 287h297l-52 -287h-297zM625 1208l51 287h297l-51 -287h-297z" />
    <glyph glyph-name="uni04DE" unicode="&#x4de;" horiz-adv-x="1290" 
d="M133 481h379q0 -65 51 -109t164 -44q92 0 140 39t48 92q0 54 -37 89.5t-122 35.5h-164l49 286h186q177 0 177 123q0 51 -47 82t-146 31q-78 0 -131 -42t-64 -101h-378q15 101 58 187.5t113.5 155.5t178 108.5t239.5 39.5q135 0 242.5 -32t175 -88t102.5 -128t35 -155
q0 -203 -156 -304q-34 -22 -89 -42v-11q43 -18 77 -55q80 -84 80 -203q0 -195 -155 -325.5t-412 -130.5q-114 0 -206.5 19t-156.5 54.5t-110 81t-72 103.5t-37.5 117t-11.5 126zM973 1587l51 287h297l-51 -287h-297zM553 1587l51 287h297l-51 -287h-297z" />
    <glyph glyph-name="uni04DF" unicode="&#x4df;" horiz-adv-x="1095" 
d="M113 369h348v-11q0 -46 46 -74t111 -28q68 0 101 25t33 61q0 38 -31.5 63t-93.5 25h-123l39 225h147q56 0 85.5 25t29.5 59t-31.5 57t-93.5 23q-67 0 -105 -32t-43 -70h-348q18 149 155.5 258.5t334.5 109.5q228 0 353.5 -94t125.5 -235q0 -29 -6.5 -55.5t-17 -46.5
t-24 -37t-28.5 -29.5t-30.5 -22t-28.5 -16t-24 -10.5t-16 -5l-5 -2l-2 -10q37 -16 63 -39q66 -62 66 -155q0 -57 -30 -116.5t-87 -112t-152.5 -86t-212.5 -33.5q-236 0 -372.5 95t-136.5 234q0 43 4 60zM801 1208l51 287h297l-51 -287h-297zM381 1208l51 287h297l-51 -287
h-297z" />
    <glyph glyph-name="uni04E0" unicode="&#x4e0;" horiz-adv-x="1269" 
d="M106 461h373v-8q0 -50 57.5 -87.5t170.5 -37.5q86 0 146 44t60 124q0 59 -45 94t-143 35h-266l43 245l315 215h-512l62 349h1050l-55 -312l-377 -252l-2 -10q150 -30 229.5 -121.5t79.5 -244.5q0 -226 -160 -370t-432 -144q-145 0 -261 33.5t-189 91.5t-111.5 132.5
t-38.5 159.5q0 22 6 64z" />
    <glyph glyph-name="uni04E1" unicode="&#x4e1;" horiz-adv-x="1095" 
d="M31 41h358q-2 -2 -2 -10v-21q0 -57 35 -90t102 -33q74 0 119 57.5t45 155.5q0 68 -52 107t-140 39h-211l43 246l321 256h-430l53 307h912l-45 -256l-369 -297l-2 -10q26 -6 56 -18t71.5 -40.5t73.5 -65.5t55 -98.5t23 -134.5q0 -253 -152.5 -409t-400.5 -156
q-115 0 -205.5 33.5t-146.5 92t-85.5 133t-29.5 159.5q0 33 4 53z" />
    <glyph glyph-name="uni04E2" unicode="&#x4e2;" horiz-adv-x="1484" 
d="M123 0l252 1434h379l-127 -738h41l516 738h430l-252 -1434h-379l127 737h-41l-516 -737h-430zM655 1608l43 245h707l-43 -245h-707z" />
    <glyph glyph-name="uni04E3" unicode="&#x4e3;" 
d="M102 0l187 1065h358l-78 -451h41l303 451h400l-187 -1065h-358l78 451h-41l-303 -451h-400zM459 1239l43 246h706l-43 -246h-706z" />
    <glyph glyph-name="uni04E4" unicode="&#x4e4;" horiz-adv-x="1484" 
d="M123 0l252 1434h379l-127 -738h41l516 738h430l-252 -1434h-379l127 737h-41l-516 -737h-430zM1065 1587l51 287h297l-51 -287h-297zM645 1587l51 287h297l-51 -287h-297z" />
    <glyph glyph-name="uni04E5" unicode="&#x4e5;" 
d="M102 0l187 1065h358l-78 -451h41l303 451h400l-187 -1065h-358l78 451h-41l-303 -451h-400zM870 1208l52 287h297l-52 -287h-297zM451 1208l51 287h297l-51 -287h-297z" />
    <glyph glyph-name="uni04E6" unicode="&#x4e6;" horiz-adv-x="1536" 
d="M862 348q68 0 135 31t120 86t85.5 137.5t32.5 177.5q0 137 -81 221t-206 84q-68 0 -135 -31t-120 -86t-85.5 -137.5t-32.5 -177.5q0 -137 81 -221t206 -84zM825 -20q-277 0 -452.5 178t-175.5 454q0 182 65.5 341t174.5 267.5t252 171t296 62.5q277 0 453 -178.5
t176 -454.5q0 -146 -42.5 -278t-117.5 -233.5t-174 -176.5t-216 -114t-239 -39zM1092 1587l51 287h297l-51 -287h-297zM672 1587l51 287h297l-51 -287h-297z" />
    <glyph glyph-name="uni04E7" unicode="&#x4e7;" horiz-adv-x="1249" 
d="M150 467q0 129 50 244.5t134 197t198 129t238 47.5q234 0 377 -137.5t143 -349.5q0 -129 -50 -244.5t-134 -197t-198 -129t-238 -47.5q-237 0 -378.5 137t-141.5 350zM745 758q-93 0 -165 -74t-72 -184q0 -85 53 -139t133 -54q93 0 165.5 74t72.5 184q0 86 -53.5 140.5
t-133.5 52.5zM874 1208l52 287h297l-52 -287h-297zM455 1208l51 287h297l-51 -287h-297z" />
    <glyph glyph-name="uni04E8" unicode="&#x4e8;" horiz-adv-x="1536" 
d="M825 -20q-277 0 -452.5 178t-175.5 454q0 182 65.5 341t174.5 267.5t252 171t296 62.5q277 0 453 -178.5t176 -454.5q0 -146 -42.5 -278t-117.5 -233.5t-174 -176.5t-216 -114t-239 -39zM602 850h637q-19 116 -96.5 181t-194.5 65q-107 0 -202 -66t-144 -180zM1208 584
h-639q20 -116 97.5 -181t195.5 -65q108 0 202.5 65.5t143.5 180.5z" />
    <glyph glyph-name="uni04E9" unicode="&#x4e9;" horiz-adv-x="1249" 
d="M150 467q0 129 50 244.5t134 197t198 129t238 47.5q234 0 377 -137.5t143 -349.5q0 -129 -50 -244.5t-134 -197t-198 -129t-238 -47.5q-237 0 -378.5 137t-141.5 350zM530 635h400q-19 62 -69 98t-116 35q-63 0 -121.5 -36t-93.5 -97zM905 430h-399q20 -62 70 -97.5
t116 -35.5q62 0 120 36t93 97z" />
    <glyph glyph-name="uni04EA" unicode="&#x4ea;" horiz-adv-x="1536" 
d="M825 -20q-277 0 -452.5 178t-175.5 454q0 182 65.5 341t174.5 267.5t252 171t296 62.5q277 0 453 -178.5t176 -454.5q0 -146 -42.5 -278t-117.5 -233.5t-174 -176.5t-216 -114t-239 -39zM602 850h637q-19 116 -96.5 181t-194.5 65q-107 0 -202 -66t-144 -180zM1208 584
h-639q20 -116 97.5 -181t195.5 -65q108 0 202.5 65.5t143.5 180.5zM1092 1587l51 287h297l-51 -287h-297zM672 1587l51 287h297l-51 -287h-297z" />
    <glyph glyph-name="uni04EB" unicode="&#x4eb;" horiz-adv-x="1249" 
d="M150 467q0 129 50 244.5t134 197t198 129t238 47.5q234 0 377 -137.5t143 -349.5q0 -129 -50 -244.5t-134 -197t-198 -129t-238 -47.5q-237 0 -378.5 137t-141.5 350zM530 635h400q-19 62 -69 98t-116 35q-63 0 -121.5 -36t-93.5 -97zM905 430h-399q20 -62 70 -97.5
t116 -35.5q62 0 120 36t93 97zM874 1208l52 287h297l-52 -287h-297zM455 1208l51 287h297l-51 -287h-297z" />
    <glyph glyph-name="uni04EC" unicode="&#x4ec;" horiz-adv-x="1505" 
d="M182 563h379q7 -38 23 -71.5t45.5 -68t82.5 -55t122 -20.5q110 0 191 63.5t110 141.5h-422l57 328h422q-32 101 -103 152.5t-171 51.5q-62 0 -115.5 -20.5t-89.5 -53.5t-59.5 -65t-37.5 -65h-378q8 54 41.5 125t97 150t144.5 145t196 109.5t239 43.5q182 0 325.5 -81.5
t222.5 -226t79 -327.5q0 -120 -30.5 -232t-83.5 -203t-127 -167.5t-160 -128t-183.5 -80t-195.5 -28.5q-129 0 -236.5 39.5t-176 101t-116.5 140.5t-69 154.5t-23 147.5zM1067 1587l51 287h297l-51 -287h-297zM647 1587l51 287h297l-51 -287h-297z" />
    <glyph glyph-name="uni04ED" unicode="&#x4ed;" 
d="M135 410h348q5 -56 52 -100t133 -44q54 0 101 27t68.5 54.5t32.5 51.5h-286l47 267h287q-5 20 -14 38t-28 42t-55 38.5t-84 14.5q-139 0 -209 -133h-348q7 44 34 97t76.5 110.5t113.5 104t154.5 77t189.5 30.5q236 0 379 -136.5t143 -348.5q0 -130 -50 -246t-134 -197.5
t-197.5 -129t-237.5 -47.5q-114 0 -205 30t-147 76t-93.5 105.5t-53 113.5t-17.5 105zM870 1208l52 287h297l-52 -287h-297zM451 1208l51 287h297l-51 -287h-297z" />
    <glyph glyph-name="uni04EE" unicode="&#x4ee;" horiz-adv-x="1310" 
d="M164 0l59 348h221q32 0 49 14t39 48l-331 1024h399l170 -543h41l342 543h440l-776 -1209q-34 -51 -63 -85t-73 -69.5t-103.5 -53t-133.5 -17.5h-280zM543 1608l43 245h706l-43 -245h-706z" />
    <glyph glyph-name="uni04EF" unicode="&#x4ef;" horiz-adv-x="1187" 
d="M49 -410l57 328h230q33 0 55 31l12 20l-227 1096h369l110 -594h41l299 594h389l-657 -1239q-61 -116 -136 -176t-196 -60h-346zM424 1239l43 246h707l-44 -246h-706z" />
    <glyph glyph-name="uni04F0" unicode="&#x4f0;" horiz-adv-x="1310" 
d="M164 0l59 348h221q32 0 49 14t39 48l-331 1024h399l170 -543h41l342 543h440l-776 -1209q-34 -51 -63 -85t-73 -69.5t-103.5 -53t-133.5 -17.5h-280zM950 1587l51 287h297l-51 -287h-297zM530 1587l52 287h297l-52 -287h-297z" />
    <glyph glyph-name="uni04F1" unicode="&#x4f1;" horiz-adv-x="1187" 
d="M49 -410l57 328h230q33 0 55 31l12 20l-227 1096h369l110 -594h41l299 594h389l-657 -1239q-61 -116 -136 -176t-196 -60h-346zM838 1208l51 287h297l-51 -287h-297zM418 1208l51 287h297l-51 -287h-297z" />
    <glyph glyph-name="uni04F2" unicode="&#x4f2;" horiz-adv-x="1310" 
d="M164 0l59 348h221q32 0 49 14t39 48l-331 1024h399l170 -543h41l342 543h440l-776 -1209q-34 -51 -63 -85t-73 -69.5t-103.5 -53t-133.5 -17.5h-280zM530 1577l258 307h308l-310 -307h-256zM940 1577l258 307h307l-309 -307h-256z" />
    <glyph glyph-name="uni04F3" unicode="&#x4f3;" horiz-adv-x="1187" 
d="M49 -410l57 328h230q33 0 55 31l12 20l-227 1096h369l110 -594h41l299 594h389l-657 -1239q-61 -116 -136 -176t-196 -60h-346zM418 1198l258 307h307l-309 -307h-256zM827 1198l258 307h308l-310 -307h-256z" />
    <glyph glyph-name="uni04F4" unicode="&#x4f4;" horiz-adv-x="1392" 
d="M891 0l80 451q-44 -25 -82 -37q-99 -35 -215 -35q-434 0 -434 405q0 87 14 150l90 500h379l-84 -471q-4 -18 -4 -48q0 -80 51.5 -123.5t149.5 -43.5q89 0 151 34q29 16 47 37l109 615h379l-252 -1434h-379zM1004 1587l51 287h297l-52 -287h-296zM584 1587l51 287h297
l-51 -287h-297z" />
    <glyph glyph-name="uni04F5" unicode="&#x4f5;" horiz-adv-x="1177" 
d="M717 0l55 319q-33 -18 -65 -26q-79 -27 -172 -27q-167 0 -254.5 84t-87.5 244q0 61 12 111l63 360h359l-56 -313q-4 -28 -4 -35q0 -54 35 -83.5t98 -29.5q61 0 99 23q22 9 32 22l72 416h359l-187 -1065h-358zM834 1208l51 287h297l-52 -287h-296zM414 1208l51 287h297
l-51 -287h-297z" />
    <glyph glyph-name="uni04F6" unicode="&#x4f6;" horiz-adv-x="1146" 
d="M225 -287l51 287h-153l252 1434h973l-66 -369h-594l-123 -696h154l-115 -656h-379z" />
    <glyph glyph-name="uni04F7" unicode="&#x4f7;" horiz-adv-x="931" 
d="M201 -246l45 246h-144l187 1065h788l-57 -328h-430l-72 -409h144l-103 -574h-358z" />
    <glyph glyph-name="uni04F8" unicode="&#x4f8;" horiz-adv-x="1884" 
d="M1382 0l252 1434h379l-252 -1434h-379zM123 0l252 1434h379l-76 -430h233q203 0 325 -115t122 -307q0 -130 -42.5 -240t-115 -184.5t-172 -116t-211.5 -41.5h-694zM565 369h264q62 0 106 39t44 114q0 51 -35.5 82t-99.5 31h-232zM1253 1587l52 287h297l-52 -287h-297z
M834 1587l51 287h297l-52 -287h-296z" />
    <glyph glyph-name="uni04F9" unicode="&#x4f9;" horiz-adv-x="1607" 
d="M506 266h135q51 0 88 37t37 88q0 48 -35 74.5t-80 26.5h-104zM102 0l187 1065h358l-53 -307h172q154 0 256 -96.5t102 -239.5q0 -178 -127.5 -300t-306.5 -122h-588zM1147 0l186 1065h359l-187 -1065h-358zM1049 1208l51 287h297l-51 -287h-297zM629 1208l51 287h297
l-51 -287h-297z" />
    <glyph glyph-name="uni04FA" unicode="&#x4fa;" horiz-adv-x="1249" 
d="M164 -461l59 338h45q49 0 72.5 25.5t34.5 79.5l4 18h-154l92 532h-204l59 328h205l100 574h963l-62 -349h-583l-39 -225h379l-60 -328h-379l-28 -163h153l-53 -308q-43 -262 -157.5 -392t-313.5 -130h-133z" />
    <glyph glyph-name="uni04FB" unicode="&#x4fb;" horiz-adv-x="1013" 
d="M106 -430l58 317h43q89 0 108 103l2 10h-143l57 328h-174l49 276h173l81 461h789l-53 -307h-430l-27 -154h307l-49 -276h-307l-21 -113h144l-45 -256q-34 -192 -123 -290.5t-262 -98.5h-177z" />
    <glyph glyph-name="uni04FC" unicode="&#x4fc;" horiz-adv-x="1382" 
d="M-31 0l600 737l-317 697h420l159 -369h41l291 369h461l-563 -697l268 -577q53 -97 53 -215q0 -167 -120.5 -276t-315.5 -109h-176l66 379h73q30 0 47 16.5t17 42.5q0 25 -29 88l-145 324h-41l-328 -410h-461z" />
    <glyph glyph-name="uni04FD" unicode="&#x4fd;" horiz-adv-x="1105" 
d="M-20 0l442 543l-236 522h363l100 -277h41l199 277h403l-420 -522l138 -297q71 -148 71 -248q0 -203 -103 -320.5t-310 -117.5h-142l58 327h49q112 0 112 107q0 9 -1 19t-2 17.5t-4.5 18.5t-5 17t-6.5 20t-7 19.5t-9.5 23t-9.5 23.5l-57 135h-41l-219 -287h-403z" />
    <glyph glyph-name="uni04FE" unicode="&#x4fe;" horiz-adv-x="1372" 
d="M-31 0l475 584h-208l51 297h217l-252 553h420l159 -369h41l291 369h461l-448 -553h217l-52 -297h-208l270 -584h-420l-184 410h-41l-328 -410h-461z" />
    <glyph glyph-name="uni04FF" unicode="&#x4ff;" horiz-adv-x="1105" 
d="M-20 0l333 410h-180l47 266h180l-174 389h363l100 -277h41l199 277h403l-313 -389h184l-47 -266h-182l192 -410h-362l-121 287h-41l-219 -287h-403z" />
    <glyph glyph-name="uni0510" unicode="&#x510;" horiz-adv-x="1331" 
d="M422 758l2 10q-39 26 -68 66q-65 85 -65 180q0 188 154.5 314t406.5 126q278 0 425.5 -120t147.5 -314q0 -34 -2 -57h-376q0 66 -49 104.5t-154 38.5q-84 0 -129 -35t-45 -94q0 -43 41.5 -75t136.5 -32h121l-49 -286h-207q-85 0 -134 -36t-49 -97q0 -57 54.5 -90
t165.5 -33q107 0 164 44t69 109h379q-17 -107 -59 -194t-114 -157.5t-185.5 -110t-258.5 -39.5q-146 0 -262 35t-186.5 94.5t-107.5 134.5t-37 159q0 209 164 310q44 27 106 45z" />
    <glyph glyph-name="uni0511" unicode="&#x511;" horiz-adv-x="1105" 
d="M338 567l2 11q-32 16 -53 43q-54 62 -54 139q0 136 125.5 230.5t339.5 94.5q235 0 369.5 -102t134.5 -256h-348q-5 42 -38 67t-116 25q-57 0 -87.5 -24.5t-30.5 -59.5q0 -33 32 -56.5t86 -23.5h111l-39 -225h-160q-64 0 -98.5 -25t-34.5 -65q0 -35 40 -59.5t124 -24.5
q123 0 156 102h348q-13 -76 -51 -142.5t-99.5 -120t-155.5 -84.5t-208 -31q-124 0 -223 30t-158 79.5t-90 108t-31 119.5q0 156 136 224q22 11 71 26z" />
    <glyph glyph-name="uni0512" unicode="&#x512;" horiz-adv-x="1443" 
d="M-2 -20l61 368h66q67 0 108.5 41t65.5 123l240 922h1034l-244 -1375q-14 -72 -32.5 -132.5t-57.5 -131.5t-92 -120t-138.5 -82t-193.5 -33h-156l66 379h59q76 0 118 41t54 102l172 983h-313l-176 -680q-47 -195 -155.5 -300t-299.5 -105h-186z" />
    <glyph glyph-name="uni0513" unicode="&#x513;" horiz-adv-x="1198" 
d="M-2 -20l55 327q10 -2 27 -2h33q60 0 94.5 37.5t54.5 108.5l160 614h860l-192 -1096q-29 -191 -138.5 -300t-273.5 -109h-162l57 327h50q96 0 114 113l129 737h-184l-98 -372q-50 -201 -143.5 -293t-258.5 -92h-184z" />
    <glyph glyph-name="Wgrave" unicode="&#x1e80;" horiz-adv-x="2048" 
d="M358 0l-96 1434h389l51 -758h41l318 758h389l51 -758h41l318 758h430l-600 -1434h-461l-51 758h-41l-318 -758h-461zM1116 1577l-203 307h338l152 -307h-287z" />
    <glyph glyph-name="wgrave" unicode="&#x1e81;" horiz-adv-x="1679" 
d="M266 0l-80 1065h355l32 -512h41l224 512h327l43 -512h41l213 512h383l-452 -1065h-420l-39 481h-41l-207 -481h-420zM858 1198l-203 307h338l152 -307h-287z" />
    <glyph glyph-name="Wacute" unicode="&#x1e82;" horiz-adv-x="2048" 
d="M358 0l-96 1434h389l51 -758h41l318 758h389l51 -758h41l318 758h430l-600 -1434h-461l-51 758h-41l-318 -758h-461zM1133 1577l258 307h338l-310 -307h-286z" />
    <glyph glyph-name="wacute" unicode="&#x1e83;" horiz-adv-x="1679" 
d="M266 0l-80 1065h355l32 -512h41l224 512h327l43 -512h41l213 512h383l-452 -1065h-420l-39 481h-41l-207 -481h-420zM870 1198l258 307h338l-309 -307h-287z" />
    <glyph glyph-name="Wdieresis" unicode="&#x1e84;" horiz-adv-x="2048" 
d="M358 0l-96 1434h389l51 -758h41l318 758h389l51 -758h41l318 758h430l-600 -1434h-461l-51 758h-41l-318 -758h-461zM1333 1587l51 287h297l-51 -287h-297zM913 1587l52 287h297l-52 -287h-297z" />
    <glyph glyph-name="wdieresis" unicode="&#x1e85;" horiz-adv-x="1679" 
d="M266 0l-80 1065h355l32 -512h41l224 512h327l43 -512h41l213 512h383l-452 -1065h-420l-39 481h-41l-207 -481h-420zM1079 1208l51 287h297l-51 -287h-297zM659 1208l52 287h297l-52 -287h-297z" />
    <glyph glyph-name="uni1E9E" unicode="&#x1e9e;" horiz-adv-x="1433" 
d="M113 0l182 1044q29 184 140.5 287t277.5 103h850l-58 -347l-272 -256l-2 -10q60 -31 106 -80q109 -109 109 -266q0 -115 -39.5 -207t-107.5 -150t-155 -88t-186 -30h-282l55 317h189q67 0 107 41t40 107q0 49 -31 78.5t-92 29.5h-168l49 277l281 256h-322
q-99 0 -120 -123l-172 -983h-379z" />
    <glyph glyph-name="Ygrave" unicode="&#x1ef2;" horiz-adv-x="1331" 
d="M471 0l76 440l-346 994h399l172 -533h41l361 533h440l-688 -994l-76 -440h-379zM752 1577l-203 307h338l151 -307h-286z" />
    <glyph glyph-name="ygrave" unicode="&#x1ef3;" horiz-adv-x="1187" 
d="M49 -410l57 328h230q33 0 55 31l12 20l-227 1096h369l110 -594h41l299 594h389l-657 -1239q-61 -116 -136 -176t-196 -60h-346zM633 1198l-203 307h338l152 -307h-287z" />
    <glyph glyph-name="endash" unicode="&#x2013;" horiz-adv-x="1218" 
d="M145 420l58 328h1075l-57 -328h-1076z" />
    <glyph glyph-name="emdash" unicode="&#x2014;" horiz-adv-x="1607" 
d="M145 420l58 328h1464l-57 -328h-1465z" />
    <glyph glyph-name="quoteleft" unicode="&#x2018;" horiz-adv-x="583" 
d="M201 850l266 584h276l-153 -584h-389z" />
    <glyph glyph-name="quoteright" unicode="&#x2019;" horiz-adv-x="583" 
d="M231 850l154 584h389l-266 -584h-277z" />
    <glyph glyph-name="quotesinglbase" unicode="&#x201a;" horiz-adv-x="604" 
d="M37 -195l164 584h379l-267 -584h-276z" />
    <glyph glyph-name="quotedblleft" unicode="&#x201c;" horiz-adv-x="1075" 
d="M692 850l266 584h277l-154 -584h-389zM201 850l266 584h276l-153 -584h-389z" />
    <glyph glyph-name="quotedblright" unicode="&#x201d;" horiz-adv-x="1075" 
d="M723 850l154 584h389l-267 -584h-276zM231 850l154 584h389l-266 -584h-277z" />
    <glyph glyph-name="quotedblbase" unicode="&#x201e;" horiz-adv-x="1105" 
d="M539 -195l163 584h379l-266 -584h-276zM37 -195l164 584h379l-267 -584h-276z" />
    <glyph glyph-name="dagger" unicode="&#x2020;" horiz-adv-x="1054" 
d="M354 0l148 840h-277l54 307h276l51 287h338l-51 -287h276l-53 -307h-276l-148 -840h-338z" />
    <glyph glyph-name="daggerdbl" unicode="&#x2021;" horiz-adv-x="1054" 
d="M354 0l54 307h-277l53 307h277l41 226h-277l54 307h276l51 287h338l-51 -287h276l-53 -307h-276l-41 -226h276l-53 -307h-277l-53 -307h-338z" />
    <glyph glyph-name="bullet" unicode="&#x2022;" horiz-adv-x="1105" 
d="M682 858q118 0 197 -78t79 -200q0 -92 -50 -170t-129 -121t-165 -43q-118 0 -197 78t-79 200q0 92 50 170t129 121t165 43z" />
    <glyph glyph-name="ellipsis" unicode="&#x2026;" horiz-adv-x="1812" 
d="M1321 0l68 389h378l-67 -389h-379zM717 0l67 389h379l-67 -389h-379zM113 0l67 389h379l-67 -389h-379z" />
    <glyph glyph-name="perthousand" unicode="&#x2030;" horiz-adv-x="2529" 
d="M502 1092q0 -37 25.5 -62.5t66.5 -25.5q49 0 83 34t34 82q0 36 -25.5 62t-67.5 26q-49 0 -82.5 -34t-33.5 -82zM258 0l1143 1434h338l-1143 -1434h-338zM252 1069q0 80 34 152.5t89 122.5t125 80t141 30q134 0 227 -90.5t93 -220.5q0 -106 -58 -196t-147.5 -139.5
t-186.5 -49.5q-134 0 -225.5 90.5t-91.5 220.5zM1284 313q0 -37 25.5 -62.5t66.5 -25.5q49 0 83 34.5t34 82.5q0 37 -25.5 62.5t-66.5 25.5q-49 0 -83 -34.5t-34 -82.5zM1034 291q0 80 34 152.5t89 122.5t125 80t141 30q134 0 227 -90.5t93 -220.5q0 -80 -34 -152.5
t-89 -122.5t-125.5 -80t-142.5 -30q-134 0 -226 90.5t-92 220.5zM2073 313q0 -37 25.5 -62.5t66.5 -25.5q49 0 82.5 34.5t33.5 82.5q0 37 -25.5 62.5t-66.5 25.5q-49 0 -82.5 -34.5t-33.5 -82.5zM1823 291q0 80 34 152.5t89 122.5t125 80t141 30q134 0 226.5 -90.5
t92.5 -220.5q0 -80 -34 -152.5t-89 -122.5t-125.5 -80t-142.5 -30q-134 0 -225.5 90.5t-91.5 220.5z" />
    <glyph glyph-name="guilsinglleft" unicode="&#x2039;" horiz-adv-x="778" 
d="M385 102l-231 430l383 431h366l-401 -451l219 -410h-336z" />
    <glyph glyph-name="guilsinglright" unicode="&#x203a;" horiz-adv-x="778" 
d="M66 102l401 451l-219 410h336l231 -431l-383 -430h-366z" />
    <glyph glyph-name="uni203D" unicode="&#x203d;" horiz-adv-x="1116" 
d="M438 512l86 492h-317q29 205 175.5 327.5t369.5 122.5q117 0 212.5 -31t155.5 -82.5t92.5 -117.5t32.5 -138t-22.5 -132.5t-64 -105t-88 -76t-105.5 -58.5q-84 -38 -118.5 -70.5t-45.5 -103.5l-4 -27h-359zM338 0l65 379h379l-65 -379h-379zM676 1106l-45 -258
q59 31 90 43q67 27 97 58t30 77q0 40 -29.5 65t-87.5 25q-25 0 -55 -10z" />
    <glyph glyph-name="fraction" unicode="&#x2044;" horiz-adv-x="296" 
d="M-389 0l1143 1434h225l-1143 -1434h-225z" />
    <glyph glyph-name="uni2070" unicode="&#x2070;" horiz-adv-x="737" 
d="M522 891q-123 0 -196.5 78t-73.5 217q0 109 31.5 199.5t82.5 146.5t114.5 86.5t129.5 30.5q123 0 197 -79t74 -218q0 -109 -31.5 -199t-83 -146t-114.5 -86t-130 -30zM535 1065q54 0 102.5 69t48.5 201q0 69 -24.5 104.5t-63.5 35.5q-53 0 -102.5 -69.5t-49.5 -201.5
q0 -69 25 -104t64 -35z" />
    <glyph glyph-name="uni2074" unicode="&#x2074;" horiz-adv-x="665" 
d="M203 1034l33 191l319 413h287l-78 -440h72l-29 -164h-72l-24 -133h-195l25 133h-338zM440 1198h129l35 205h-20l-142 -195z" />
    <glyph glyph-name="uni2075" unicode="&#x2075;" horiz-adv-x="675" 
d="M254 1116h195q3 -15 14 -26q25 -25 63 -25q32 0 62 27t30 67q0 34 -20.5 52t-52.5 18q-22 0 -39 -10.5t-26 -20.5l-9 -10h-195l121 450h461l-31 -174h-286l-27 -92h10l17 10q26 11 59 11q97 0 156 -60t59 -155q0 -128 -83.5 -209.5t-209.5 -81.5q-131 0 -199.5 63.5
t-68.5 165.5z" />
    <glyph glyph-name="uni2076" unicode="&#x2076;" horiz-adv-x="675" 
d="M322 1346l237 292h225l-184 -225q105 -20 160 -79t55 -146q0 -129 -89 -213t-218 -84q-125 0 -197.5 66t-72.5 167q0 118 84 222zM432 1145q0 -32 24.5 -56t61.5 -24q43 0 73 29t30 75q0 35 -24 57.5t-62 22.5q-43 0 -73 -29t-30 -75z" />
    <glyph glyph-name="uni2077" unicode="&#x2077;" horiz-adv-x="614" 
d="M301 901l332 553h-275l33 184h512l-29 -153l-348 -584h-225z" />
    <glyph glyph-name="uni2078" unicode="&#x2078;" horiz-adv-x="696" 
d="M383 1292l2 11q-19 13 -33 32q-33 47 -33 92q0 95 81 158.5t202 63.5q119 0 187.5 -60t68.5 -143q0 -114 -108 -168l-2 -10q21 -12 36 -33q37 -47 37 -113q0 -105 -80 -168t-211 -63q-136 0 -210 59.5t-74 149.5q0 31 7.5 59t20 46.5t27.5 34.5t29 25t26.5 15.5t19.5 9.5
zM514 1415q0 -24 19 -38.5t55 -14.5q33 0 54.5 19t21.5 51q0 24 -19 38.5t-55 14.5q-33 0 -54.5 -19t-21.5 -51zM530 1198q-36 0 -63 -20t-27 -58q0 -30 24.5 -47.5t72.5 -17.5q36 0 63 20t27 58q0 30 -24.5 47.5t-72.5 17.5z" />
    <glyph glyph-name="uni2079" unicode="&#x2079;" horiz-adv-x="675" 
d="M330 901l184 225q-104 20 -159.5 79.5t-55.5 146.5q0 129 89 213t218 84q125 0 198 -66.5t73 -167.5q0 -117 -84 -221l-238 -293h-225zM494 1370q0 -35 24 -57.5t62 -22.5q42 0 72 29.5t30 75.5q0 32 -24.5 56t-61.5 24q-42 0 -72 -29.5t-30 -75.5z" />
    <glyph glyph-name="uni2080" unicode="&#x2080;" horiz-adv-x="737" 
d="M358 -215q-123 0 -196.5 78t-73.5 217q0 109 31.5 199.5t82.5 146.5t114.5 86.5t129.5 30.5q123 0 197 -79t74 -218q0 -109 -31.5 -199t-83 -146t-114.5 -86t-130 -30zM371 -41q54 0 102.5 69t48.5 201q0 69 -24.5 104.5t-63.5 35.5q-53 0 -102 -69.5t-49 -201.5
q0 -69 24.5 -104t63.5 -35z" />
    <glyph glyph-name="uni2081" unicode="&#x2081;" horiz-adv-x="563" 
d="M199 -205l82 461h-154l33 184h102q30 0 42.5 13t17.5 39l8 40h194l-131 -737h-194z" />
    <glyph glyph-name="uni2082" unicode="&#x2082;" horiz-adv-x="696" 
d="M66 -205l28 164l334 266q8 6 24.5 19.5t21 17.5t12.5 13.5t10 18t2 19.5q0 23 -18 39.5t-54 16.5q-34 0 -58 -23t-32 -59h-195q19 112 93 184t198 72q121 0 189.5 -58.5t70.5 -152.5q0 -43 -8 -75t-29.5 -60.5t-38 -45t-53.5 -47.5q-3 -3 -5 -4.5t-4.5 -3.5t-4.5 -4
l-143 -112l-3 -11h236l-31 -174h-542z" />
    <glyph glyph-name="uni2083" unicode="&#x2083;" horiz-adv-x="686" 
d="M86 31h195v-8q0 -25 19 -44.5t52 -19.5t57.5 18.5t24.5 63.5q0 28 -21.5 44.5t-54.5 16.5h-53l25 144h61q33 0 59.5 18t26.5 51q0 54 -67 54q-59 0 -70 -62h-195q19 101 91 168.5t186 67.5q118 0 184 -56.5t66 -146.5q0 -28 -5.5 -52.5t-14 -41t-19.5 -30t-21 -21
t-19 -12.5t-13 -7l-5 -2l-2 -10q13 -8 27 -29q29 -48 29 -102q0 -103 -82 -175.5t-203 -72.5q-113 0 -187.5 59.5t-74.5 137.5q0 37 4 49z" />
    <glyph glyph-name="uni2084" unicode="&#x2084;" horiz-adv-x="665" 
d="M8 -72l33 191l319 413h287l-78 -440h72l-29 -164h-71l-25 -133h-194l24 133h-338zM246 92h129l35 205h-21l-141 -195z" />
    <glyph glyph-name="uni2085" unicode="&#x2085;" horiz-adv-x="675" 
d="M80 10h194q3 -14 15 -26q25 -25 63 -25q32 0 62 27t30 67q0 34 -20.5 52t-52.5 18q-22 0 -39 -10.5t-26 -20.5l-9 -10h-195l121 450h461l-31 -174h-286l-27 -92h10l17 10q26 11 59 11q97 0 156 -60t59 -155q0 -128 -83.5 -209.5t-209.5 -81.5q-131 0 -199.5 63.5
t-68.5 165.5z" />
    <glyph glyph-name="uni2086" unicode="&#x2086;" horiz-adv-x="675" 
d="M158 240l237 292h226l-185 -225q105 -20 160 -79t55 -146q0 -129 -89 -213t-218 -84q-125 0 -197.5 66t-72.5 167q0 118 84 222zM268 39q0 -32 24.5 -56t61.5 -24q43 0 73 29t30 75q0 35 -24 57.5t-62 22.5q-43 0 -73 -29t-30 -75z" />
    <glyph glyph-name="uni2087" unicode="&#x2087;" horiz-adv-x="614" 
d="M106 -205l332 553h-274l33 184h512l-29 -153l-348 -584h-226z" />
    <glyph glyph-name="uni2088" unicode="&#x2088;" horiz-adv-x="696" 
d="M219 186l2 11q-19 13 -33 32q-32 46 -32 93q0 95 80 158t202 63q119 0 187.5 -60t68.5 -143q0 -114 -108 -168l-2 -10q23 -13 37 -33q36 -46 36 -113q0 -105 -79.5 -168t-210.5 -63q-136 0 -210.5 59.5t-74.5 149.5q0 31 7.5 59t20 46.5t27.5 34.5t29 25t26.5 15.5
t19.5 9.5zM350 309q0 -24 19 -38.5t55 -14.5q33 0 54.5 19t21.5 51q0 24 -19 38.5t-55 14.5q-33 0 -54.5 -19t-21.5 -51zM367 92q-36 0 -63.5 -20t-27.5 -58q0 -30 24.5 -47.5t72.5 -17.5q36 0 63 20t27 58q0 65 -96 65z" />
    <glyph glyph-name="uni2089" unicode="&#x2089;" horiz-adv-x="675" 
d="M145 -205l185 225q-104 20 -159.5 79.5t-55.5 146.5q0 129 89 213t218 84q125 0 197.5 -66t72.5 -168q0 -117 -84 -221l-237 -293h-226zM309 264q0 -35 24 -57.5t62 -22.5q42 0 72.5 29.5t30.5 75.5q0 32 -24.5 56t-61.5 24q-42 0 -72.5 -29.5t-30.5 -75.5z" />
    <glyph glyph-name="uni20A9" unicode="&#x20a9;" horiz-adv-x="2048" 
d="M420 0l-21 369h-295l48 266h233l-10 184h-191l47 266h131l-18 349h379l2 -349h221l135 349h349l14 -349h219l125 349h420l-142 -349h132l-48 -266h-192l-76 -184h236l-47 -266h-295l-148 -369h-420l-14 369h-215l-139 -369h-420zM1464 645h41l62 174h-111zM727 645h51
l66 174h-119zM1081 635h105l-4 153h-41z" />
    <glyph glyph-name="Euro" unicode="&#x20ac;" horiz-adv-x="1433" 
d="M121 461l35 194h149l12 123h-139l33 195h168q67 131 172 239q242 242 571 242q196 0 353 -53q56 -18 114 -51l-59 -328q-53 36 -92 51q-124 53 -262 53q-151 0 -275 -77q-49 -31 -98 -76h473l-33 -195h-545l-16 -123h539l-35 -194h-447q0 -4 13 -19t43 -38.5t71.5 -44.5
t107 -36.5t140.5 -15.5q98 0 209 35q37 11 94 37l-55 -318q-27 -24 -66 -41q-82 -40 -247 -40q-122 0 -226 23t-173.5 54t-128.5 82.5t-90 88.5t-59 93t-34.5 74.5t-16.5 53.5l-4 12h-196z" />
    <glyph glyph-name="uni20B4" unicode="&#x20b4;" horiz-adv-x="1372" 
d="M217 768l33 195h719q10 8 20 24q23 37 23 68q0 54 -35 83t-96 29q-111 0 -148 -102h-373q100 389 527 389q234 0 365.5 -102.5t131.5 -266.5q0 -41 -22 -92q-9 -18 -21 -30h138l-33 -195h-1229zM164 471l33 195h1228l-32 -195h-719q-13 -8 -23 -25q-20 -32 -20 -67
q0 -55 35 -84t96 -29q109 0 147 103h373q-24 -86 -62.5 -152.5t-99 -122t-152.5 -85t-212 -29.5q-234 0 -366 102t-132 266q0 44 21 92q11 22 22 31h-137z" />
    <glyph glyph-name="uni20B8" unicode="&#x20b8;" horiz-adv-x="1259" 
d="M256 1106l57 328h1137l-57 -328h-1137zM440 0l111 635h-379l64 358h1136l-63 -358h-379l-111 -635h-379z" />
    <glyph glyph-name="uni20B9" unicode="&#x20b9;" horiz-adv-x="1259" 
d="M158 430l49 287h440q59 0 101 16t58 32.5t34 43.5h-617l43 246h617q-8 49 -40 70.5t-102 21.5h-458l51 287h1116l-51 -287h-166l10 -25q9 -25 12 -67h127l-43 -246h-122q-25 -68 -53 -119t-73 -102.5t-112 -89t-156 -58.5l293 -440h-461l-282 430h-215z" />
    <glyph glyph-name="uni20BA" unicode="&#x20ba;" horiz-adv-x="1361" 
d="M236 0l83 485l-184 -65l43 246l184 65l21 107l-186 -66l43 246l186 65l61 351h379l-37 -205l373 133l-43 -246l-373 -133l-18 -106l371 133l-43 -246l-371 -133l-47 -262h94q130 0 200.5 65.5t84.5 159.5h379q-19 -134 -71 -241t-140 -187t-220 -123t-300 -43h-469z" />
    <glyph glyph-name="uni20BD" unicode="&#x20bd;" horiz-adv-x="1392" 
d="M205 0l33 195h-154l47 266h154l20 112h-153l47 267h153l105 594h596q204 0 328 -104t124 -271q0 -222 -140 -354t-359 -132h-322l-20 -112h419l-47 -266h-420l-32 -195h-379zM729 840h236q64 0 112.5 49.5t48.5 128.5q0 58 -35.5 93.5t-86.5 35.5h-222z" />
    <glyph glyph-name="uni20BF" unicode="&#x20bf;" horiz-adv-x="1382" 
d="M307 -225l41 225h-225l252 1434h225l39 225h246l-39 -225h123l39 225h245l-41 -244q126 -34 190 -123t64 -207q1 -72 -19.5 -134.5t-46 -98.5t-61 -67t-52 -40t-32.5 -17l-2 -1l-2 -10q35 -27 62 -68q63 -96 63 -205q0 -185 -115 -304.5t-298 -137.5l-41 -227h-246
l41 225h-123l-41 -225h-246zM655 881h301q56 0 93.5 36.5t37.5 86.5q0 42 -31.5 72t-90.5 30h-269zM559 328h313q50 0 87.5 36t37.5 85q0 46 -34 75t-84 29h-281z" />
    <glyph glyph-name="uni2113" unicode="&#x2113;" horiz-adv-x="849" 
d="M168 430v184q71 0 129 15l45 16v512q0 144 72.5 220.5t193.5 76.5q134 0 210.5 -80t76.5 -237q0 -215 -95 -371.5t-263 -247.5v-221q0 -67 33 -100t89 -33q51 0 89 14q20 9 34 17v-185q-8 -3 -24 -8t-23 -8q-54 -14 -106 -14q-140 0 -213.5 73.5t-73.5 212.5v195l-51 -17
q-54 -14 -123 -14zM537 1106v-383q85 65 124 158t39 225q0 154 -82 154q-40 0 -60.5 -35.5t-20.5 -118.5z" />
    <glyph glyph-name="uni2116" unicode="&#x2116;" horiz-adv-x="2293" 
d="M123 0l252 1434h440l256 -748h41l133 748h379l-252 -1434h-440l-256 748h-41l-133 -748h-379zM1638 700q0 160 117.5 272.5t272.5 112.5q139 0 229 -90.5t90 -220.5q0 -160 -117 -272.5t-272 -112.5q-139 0 -229.5 90.5t-90.5 220.5zM1886 723q0 -41 26 -64.5t68 -23.5
q47 0 83 32.5t36 84.5q0 38 -25.5 63t-68.5 25q-47 0 -83 -32.5t-36 -84.5zM1546 0l47 276h635l-47 -276h-635z" />
    <glyph glyph-name="uni2117" unicode="&#x2117;" horiz-adv-x="1679" 
d="M215 717q0 155 57 292t156.5 234.5t241 154t303.5 56.5t303.5 -56.5t241 -154t156.5 -234.5t57 -292t-57 -292t-156.5 -234.5t-241 -154t-303.5 -56.5t-303.5 56.5t-241 154t-156.5 234.5t-57 292zM451 717q0 -142 68 -259t188 -185t266 -68t266 68t188 185t68 259
t-68 259t-188 185t-266 68t-266 -68t-188 -185t-68 -259zM727 369v706h328q115 0 190.5 -74t75.5 -182t-75.5 -182t-190.5 -74h-123v-194h-205zM932 737h92q39 0 65.5 22.5t26.5 59.5t-26.5 59.5t-65.5 22.5h-92v-164z" />
    <glyph glyph-name="trademark" unicode="&#x2122;" horiz-adv-x="1607" 
d="M397 788v431h-184v215h594v-215h-184v-431h-226zM879 788v646h317l92 -297h21l92 297h317v-646h-225v297h-20l-93 -297h-163l-93 297h-20v-297h-225z" />
    <glyph glyph-name="uni2126" unicode="&#x2126;" horiz-adv-x="1720" 
d="M307 0v195h246q-86 53 -154 133q-153 172 -153 409q0 203 93.5 366.5t262.5 257t381 93.5t381 -93.5t262.5 -257t93.5 -366.5q0 -228 -153 -409q-68 -80 -154 -133h246v-195h-563v184q116 49 209 127q211 179 211 426q0 230 -148 376.5t-385 146.5t-383.5 -146
t-146.5 -377q0 -249 209 -426q94 -79 208 -127v-184h-563z" />
    <glyph glyph-name="estimated" unicode="&#x212e;" horiz-adv-x="1740" 
d="M586 707v-488q51 -48 116 -84q148 -84 334 -84q243 0 428 154q87 71 146 153l61 -51q-75 -98 -164 -164q-217 -163 -471 -163q-158 0 -299 58t-241 156.5t-158.5 234.5t-58.5 288q0 151 58 287.5t156.5 235t235 156.5t287.5 58t287.5 -58t235 -156.5t156.5 -235
t58 -287.5v-10h-1167zM586 778h860v441q-180 163 -430 163t-430 -163v-441z" />
    <glyph glyph-name="uni2150" unicode="&#x2150;" horiz-adv-x="1515" 
d="M154 0l1142 1434h226l-1143 -1434h-225zM358 696l82 461h-153l32 184h103q30 0 42 12.5t17 39.5l8 41h195l-131 -738h-195zM1008 0l331 553h-274l33 184h512l-29 -153l-348 -584h-225z" />
    <glyph glyph-name="uni2151" unicode="&#x2151;" horiz-adv-x="1536" 
d="M154 0l1142 1434h226l-1143 -1434h-225zM358 696l82 461h-153l32 184h103q30 0 42 12.5t17 39.5l8 41h195l-131 -738h-195zM1006 0l184 225q-104 20 -159.5 79.5t-55.5 146.5q0 129 89 213t218 84q125 0 197.5 -66t72.5 -168q0 -117 -84 -221l-237 -293h-225zM1169 469
q0 -35 24 -57.5t62 -22.5q42 0 72.5 29.5t30.5 75.5q0 32 -24.5 55.5t-61.5 23.5q-43 0 -73 -29t-30 -75z" />
    <glyph glyph-name="uni2152" unicode="&#x2152;" horiz-adv-x="2017" 
d="M154 0l1142 1434h226l-1143 -1434h-225zM358 696l82 461h-153l32 184h103q30 0 42 12.5t17 39.5l8 41h195l-131 -738h-195zM1028 0l82 461h-154l33 184h103q30 0 42 12.5t17 38.5l8 41h195l-131 -737h-195zM1638 -10q-123 0 -196.5 78t-73.5 217q0 109 31.5 199.5
t82.5 146.5t114.5 86.5t129.5 30.5q123 0 197 -79t74 -218q0 -109 -31.5 -199t-83 -146t-114.5 -86t-130 -30zM1651 164q54 0 102.5 69t48.5 201q0 69 -24.5 104t-63.5 35q-53 0 -102 -69t-49 -201q0 -69 24.5 -104t63.5 -35z" />
    <glyph glyph-name="onethird" unicode="&#x2153;" horiz-adv-x="1521" 
d="M154 0l1142 1434h226l-1143 -1434h-225zM358 696l82 461h-153l32 184h103q30 0 42 12.5t17 39.5l8 41h195l-131 -738h-195zM936 236h194v-9q0 -25 19.5 -44t52.5 -19t57.5 18.5t24.5 63.5q0 28 -21.5 44.5t-54.5 16.5h-53l25 144h61q33 0 59.5 18t26.5 51q0 53 -67 53
q-59 0 -70 -61h-195q19 101 91 168.5t186 67.5q118 0 184 -56.5t66 -146.5q0 -28 -5.5 -52.5t-14 -41t-19.5 -30t-21 -21t-19 -12.5t-13 -7l-5 -2l-2 -10q13 -8 27 -29q29 -48 29 -102q0 -103 -82 -175.5t-203 -72.5q-113 0 -187.5 59t-74.5 137q0 38 4 50z" />
    <glyph glyph-name="twothirds" unicode="&#x2154;" horiz-adv-x="1660" 
d="M293 0l1143 1434h225l-1143 -1434h-225zM215 696l29 164l334 266q8 6 21 17t18 15t12.5 11.5t10 13t5 13.5t2.5 18q0 23 -18 39.5t-54 16.5q-34 0 -58 -23t-32 -59h-194q19 112 93 184t198 72q121 0 189.5 -58.5t70.5 -152.5q0 -42 -8 -74t-30 -61t-37.5 -44t-53.5 -48
q-3 -3 -5 -4.5t-5 -4t-5 -4.5l-143 -112l-2 -11h235l-30 -174h-543zM1075 236h195v-9q0 -25 19 -44t52 -19t57.5 18.5t24.5 63.5q0 29 -21 45t-54 16h-54l25 144h61q33 0 59.5 18t26.5 51q0 53 -67 53q-59 0 -70 -61h-194q19 101 90.5 168.5t185.5 67.5q118 0 184 -56.5
t66 -146.5q0 -28 -5.5 -52.5t-14 -41t-19 -30t-20.5 -21t-19 -12.5t-13 -7l-5 -2l-2 -10q11 -7 26 -29q29 -48 29 -102q0 -103 -82 -175.5t-203 -72.5q-113 0 -187.5 59t-74.5 137q0 38 4 50z" />
    <glyph glyph-name="uni2155" unicode="&#x2155;" horiz-adv-x="1525" 
d="M154 0l1142 1434h226l-1143 -1434h-225zM358 696l82 461h-153l32 184h103q30 0 42 12.5t17 39.5l8 41h195l-131 -738h-195zM950 215h195q3 -16 14 -27q24 -24 64 -24q32 0 62 27t30 67q0 34 -21 52t-53 18q-22 0 -39 -10t-26 -20l-9 -11h-194l121 450h460l-30 -174h-287
l-27 -92h11l16 10q26 11 59 11q97 0 156 -60.5t59 -155.5q0 -128 -83 -209t-209 -81q-131 0 -200 63.5t-69 165.5z" />
    <glyph glyph-name="uni2156" unicode="&#x2156;" horiz-adv-x="1669" 
d="M293 0l1143 1434h225l-1143 -1434h-225zM215 696l29 164l334 266q8 6 21 17t18 15t12.5 11.5t10 13t5 13.5t2.5 18q0 23 -18 39.5t-54 16.5q-34 0 -58 -23t-32 -59h-194q19 112 93 184t198 72q121 0 189.5 -58.5t70.5 -152.5q0 -42 -8 -74t-30 -61t-37.5 -44t-53.5 -48
q-3 -3 -5 -4.5t-5 -4t-5 -4.5l-143 -112l-2 -11h235l-30 -174h-543zM1090 215h194q3 -16 14 -27q24 -24 64 -24q32 0 62 27t30 67q0 34 -21 52t-53 18q-22 0 -39 -10t-25 -20l-9 -11h-195l121 450h461l-31 -174h-287l-26 -92h10l16 10q26 11 60 11q97 0 156 -60.5t59 -155.5
q0 -128 -83.5 -209t-209.5 -81q-131 0 -199.5 63.5t-68.5 165.5z" />
    <glyph glyph-name="uni2157" unicode="&#x2157;" horiz-adv-x="1622" 
d="M246 0l1143 1434h225l-1143 -1434h-225zM219 932h195v-8q0 -25 19 -44.5t52 -19.5t57.5 18.5t24.5 63.5q0 29 -21 45.5t-54 16.5h-54l25 143h61q33 0 59.5 18.5t26.5 51.5q0 53 -67 53q-59 0 -70 -62h-194q19 101 90.5 168.5t185.5 67.5q118 0 184 -56.5t66 -146.5
q0 -28 -5.5 -52.5t-14 -41t-19 -30t-20.5 -21t-19 -12.5t-13 -7l-5 -2l-2 -10q11 -7 26 -29q29 -48 29 -102q0 -103 -82 -175.5t-203 -72.5q-113 0 -187.5 59.5t-74.5 137.5q0 37 4 49zM1042 215h195q3 -16 14 -27q24 -24 64 -24q32 0 62 27t30 67q0 34 -21 52t-53 18
q-22 0 -39 -10t-26 -20l-8 -11h-195l121 450h461l-31 -174h-287l-26 -92h10l16 10q26 11 60 11q97 0 156 -60.5t59 -155.5q0 -128 -83.5 -209t-209.5 -81q-131 0 -200 63.5t-69 165.5z" />
    <glyph glyph-name="uni2158" unicode="&#x2158;" horiz-adv-x="1683" 
d="M307 0l1143 1434h225l-1143 -1434h-225zM213 829l33 191l319 414h287l-78 -441h72l-29 -164h-72l-24 -133h-195l25 133h-338zM451 993h129l34 205h-20l-141 -194zM1104 215h194q3 -15 15 -27q24 -24 63 -24q32 0 62 27t30 67q0 34 -20.5 52t-52.5 18q-22 0 -39 -10
t-26 -20l-9 -11h-195l121 450h461l-31 -174h-286l-27 -92h10l17 10q26 11 59 11q97 0 156 -60.5t59 -155.5q0 -128 -83.5 -209t-209.5 -81q-131 0 -199.5 63.5t-68.5 165.5z" />
    <glyph glyph-name="uni2159" unicode="&#x2159;" horiz-adv-x="1495" 
d="M154 0l1142 1434h226l-1143 -1434h-225zM358 696l82 461h-153l32 184h103q30 0 42 12.5t17 39.5l8 41h195l-131 -738h-195zM967 444l237 293h226l-185 -225q105 -20 160 -79t55 -146q0 -129 -89 -213t-218 -84q-125 0 -197.5 66t-72.5 167q0 117 84 221zM1077 244
q0 -32 24.5 -56t61.5 -24q43 0 73 29t30 75q0 35 -24 57.5t-62 22.5q-43 0 -73 -29t-30 -75z" />
    <glyph glyph-name="uni215A" unicode="&#x215a;" horiz-adv-x="1576" 
d="M256 0l1143 1434h225l-1143 -1434h-225zM223 911h195q3 -15 14 -26q25 -25 64 -25q32 0 62 27t30 67q0 34 -21 52t-53 18q-22 0 -39 -10t-26 -20l-9 -11h-194l121 451h460l-30 -174h-287l-27 -93h11l16 11q23 10 59 10q97 0 156 -60t59 -155q0 -128 -83 -209.5
t-209 -81.5q-131 0 -200 63.5t-69 165.5zM1069 444l238 293h225l-184 -225q105 -20 160 -79t55 -146q0 -129 -89.5 -213t-218.5 -84q-125 0 -197.5 66t-72.5 167q0 117 84 221zM1180 244q0 -32 24.5 -56t61.5 -24q42 0 72 29t30 75q0 35 -24 57.5t-62 22.5q-42 0 -72 -29
t-30 -75z" />
    </font>
</defs>
</svg>
