<?xml version="1.0" standalone="no"?>
<!DOCTYPE svg PUBLIC "-//W3C//DTD SVG 1.1//EN" "http://www.w3.org/Graphics/SVG/1.1/DTD/svg11.dtd" >
<svg xmlns="http://www.w3.org/2000/svg" xmlns:xlink="http://www.w3.org/1999/xlink" version="1.1">
<metadata>
Created by FontForge 20170731 at Sat Jul 29 01:07:19 2023
 By Aleksey,,,
Copyright (c) 2019 by TypeType. Designers Ivan Gladkikh, Pavel Emelyanov. Technical designers Marina Khodak, Nadezhda Polomoshnova, Kseniya Karataeva, Olexa Volochay, Nadyr Rakhimov. All rights reserved. |DCNT
</metadata>
<defs>
<font id="TTHoves-LightItalic" horiz-adv-x="1146" >
  <font-face 
    font-family="TT Hoves Light"
    font-weight="300"
    font-style="italic"
    font-stretch="normal"
    units-per-em="2048"
    panose-1="2 0 5 3 2 0 0 9 0 4"
    ascent="1434"
    descent="-614"
    x-height="1024"
    cap-height="1434"
    bbox="-756 -492 3099 1987"
    underline-thickness="102"
    underline-position="-307"
    slope="-10"
    unicode-range="U+000D-FB04"
  />
<missing-glyph horiz-adv-x="0" 
 />
    <glyph glyph-name="f_f" unicode="ff" horiz-adv-x="1126" 
d="M227 0l158 901h-164l23 123h164l34 205q13 73 65 118.5t140 45.5h182l-20 -123h-162q-74 0 -86 -72l-31 -174h359l35 205q13 73 64.5 118.5t139.5 45.5h183l-21 -123h-162q-74 0 -86 -72l-30 -174h235l-22 -123h-236l-158 -901h-122l157 901h-358l-158 -901h-123z" />
    <glyph glyph-name="uniFB01" unicode="fi" horiz-adv-x="1003" 
d="M227 0l158 901h-164l23 123h164l34 205q13 73 65 118.5t140 45.5h162l-21 -123h-141q-74 0 -86 -72l-31 -174h482l-181 -1024h-122l157 901h-358l-158 -901h-123zM918 1249l24 144h143l-24 -144h-143z" />
    <glyph glyph-name="uniFB02" unicode="fl" horiz-adv-x="1003" 
d="M227 0l158 901h-164l23 123h164l34 205q13 73 65 118.5t140 45.5h428l-244 -1393h-122l221 1270h-283q-74 0 -86 -72l-31 -174h215l-22 -123h-215l-158 -901h-123z" />
    <glyph glyph-name="f_f_i" unicode="ffi" horiz-adv-x="1484" 
d="M227 0l158 901h-164l23 123h164l34 205q13 73 65 118.5t140 45.5h182l-20 -123h-162q-74 0 -86 -72l-31 -174h359l35 205q13 73 64.5 118.5t139.5 45.5h162l-20 -123h-142q-74 0 -86 -72l-30 -174h481l-180 -1024h-123l158 901h-359l-158 -901h-122l157 901h-358
l-158 -901h-123zM1399 1249l24 144h144l-25 -144h-143z" />
    <glyph glyph-name="f_f_l" unicode="ffl" horiz-adv-x="1484" 
d="M227 0l158 901h-164l23 123h164l34 205q13 73 65 118.5t140 45.5h182l-20 -123h-162q-74 0 -86 -72l-31 -174h359l35 205q13 73 64.5 118.5t139.5 45.5h428l-245 -1393h-123l223 1270h-283q-74 0 -86 -72l-30 -174h215l-23 -123h-215l-158 -901h-122l157 901h-358
l-158 -901h-123z" />
    <glyph glyph-name="f_f_j" unicode="ffj" horiz-adv-x="1484" 
d="M1399 1249l24 144h144l-25 -144h-143zM227 0l158 901h-164l23 123h164l34 205q13 73 65 118.5t140 45.5h182l-20 -123h-162q-74 0 -86 -72l-31 -174h359l35 205q13 73 64.5 118.5t139.5 45.5h162l-20 -123h-142q-74 0 -86 -72l-30 -174h481l-225 -1270
q-28 -164 -193 -164h-192l22 123h172q62 0 74 72l197 1116h-359l-158 -901h-122l157 901h-358l-158 -901h-123z" />
    <glyph glyph-name="f_j" unicode="fj" horiz-adv-x="1003" 
d="M918 1249l24 144h143l-24 -144h-143zM401 -410l23 123h172q62 0 74 72l196 1116h-358l-158 -901h-123l158 901h-164l23 123h164l34 205q13 73 65 118.5t140 45.5h162l-21 -123h-141q-74 0 -86 -72l-31 -174h482l-226 -1270q-28 -164 -192 -164h-193z" />
    <glyph glyph-name=".notdef" horiz-adv-x="0" 
 />
    <glyph glyph-name=".null" horiz-adv-x="0" 
 />
    <glyph glyph-name="nonmarkingreturn" horiz-adv-x="682" 
 />
    <glyph glyph-name="NULL" horiz-adv-x="0" 
 />
    <glyph glyph-name="NULL" horiz-adv-x="0" 
 />
    <glyph glyph-name="CR" unicode="&#xd;" horiz-adv-x="0" 
 />
    <glyph glyph-name="space" unicode=" " horiz-adv-x="460" 
 />
    <glyph glyph-name="exclam" unicode="!" horiz-adv-x="512" 
d="M260 317l76 492l110 625h123l-110 -625l-97 -492h-102zM184 0l25 143h143l-24 -143h-144z" />
    <glyph glyph-name="quotedbl" unicode="&#x22;" horiz-adv-x="696" 
d="M610 1024l72 410h123l-72 -410h-123zM324 1024l71 410h123l-72 -410h-122z" />
    <glyph glyph-name="numbersign" unicode="#" horiz-adv-x="1392" 
d="M246 0l151 389h-299l47 123h301l160 410h-301l47 122h301l152 390h127l-152 -390h330l152 390h127l-154 -390h309l-47 -122h-309l-158 -410h307l-47 -123h-309l-152 -389h-127l152 389h-330l-151 -389h-127zM571 512h332l158 410h-330z" />
    <glyph glyph-name="dollar" unicode="$" horiz-adv-x="1280" 
d="M522 -225l37 219q-180 34 -277.5 141t-97.5 254q0 13 2 19q0 8 2 12h123q-2 -2 -2 -6q-2 -2 -2 -15q0 -123 111.5 -210t308.5 -87q180 0 274.5 81t94.5 216q0 87 -57 144t-179 92l-215 53q-150 37 -233.5 121t-83.5 205t58.5 219.5t170 158t256.5 62.5l37 205h123
l-37 -213q190 -24 292.5 -130.5t102.5 -260.5q0 -3 -1 -12t-1 -13q-2 -6 -2 -16h-121v6q0 3 1 7t1 7q0 129 -102 213t-287 84q-163 0 -265.5 -88.5t-102.5 -208.5q0 -85 58 -139.5t177 -85.5l195 -51q173 -49 255.5 -132t82.5 -206q0 -197 -135.5 -318.5t-376.5 -121.5h-27
l-35 -205h-123z" />
    <glyph glyph-name="percent" unicode="%" horiz-adv-x="1556" 
d="M258 0l1141 1434h135l-1141 -1434h-135zM565 932q94 0 154.5 64t60.5 171q0 78 -48 126t-126 48q-94 0 -154.5 -64t-60.5 -171q0 -78 48 -126t126 -48zM279 1096q0 158 97.5 258t239.5 100q123 0 200 -76.5t77 -199.5q0 -158 -98 -258.5t-240 -100.5q-123 0 -199.5 77
t-76.5 200zM1180 92q94 0 154.5 64.5t60.5 171.5q0 78 -48 126t-126 48q-94 0 -154.5 -64.5t-60.5 -171.5q0 -78 48 -126t126 -48zM893 256q0 158 97.5 258t240.5 100q123 0 199.5 -76.5t76.5 -199.5q0 -158 -97.5 -258t-240.5 -100q-123 0 -199.5 76.5t-76.5 199.5z" />
    <glyph glyph-name="ampersand" unicode="&#x26;" horiz-adv-x="1269" 
d="M393 655l144 95l-84 110q-82 110 -82 225q0 156 110.5 262.5t278.5 106.5q147 0 237 -83t90 -214q0 -111 -52.5 -185.5t-174.5 -152.5l-147 -96l284 -375q37 37 62 86q68 113 90 242h123q-30 -172 -119 -309q-42 -67 -86 -111l195 -256h-158l-123 162q-49 -48 -121 -92
q-146 -90 -305 -90q-179 0 -284 91.5t-105 225.5q0 114 55.5 196.5t171.5 161.5zM643 817l148 94q39 23 64 42t53.5 47t42.5 62.5t14 74.5q0 80 -55.5 137t-159.5 57q-115 0 -185.5 -66.5t-70.5 -168.5q0 -79 71 -174zM913 252l-307 403l-127 -82q-102 -64 -146 -123
t-44 -143q0 -90 73 -147.5t213 -57.5q42 0 84 9.5t72 21.5t64 32.5t50 32.5t41 32t27 22z" />
    <glyph glyph-name="quotesingle" unicode="'" horiz-adv-x="409" 
d="M324 1024l71 410h123l-72 -410h-122z" />
    <glyph glyph-name="parenleft" unicode="(" horiz-adv-x="665" 
d="M453 -410h-125q-63 156 -90 262q-48 190 -48 384q0 131 21.5 261.5t54.5 236.5t81.5 212.5t92.5 183t98.5 155t89 121.5t74.5 89h144q-55 -55 -111.5 -123t-136.5 -192.5t-139.5 -257.5t-102.5 -316.5t-43 -369.5q0 -352 140 -646z" />
    <glyph glyph-name="parenright" unicode=")" horiz-adv-x="665" 
d="M133 -410h-143q36 36 74.5 80t93 117.5t102.5 152t97.5 184t84.5 214.5t57.5 243t22.5 269q0 353 -139 645h125q64 -159 91 -271q46 -186 46 -374q0 -131 -21.5 -262t-54.5 -237.5t-81 -212.5t-92.5 -183.5t-99 -155t-89.5 -121t-74 -88.5z" />
    <glyph glyph-name="asterisk" unicode="*" horiz-adv-x="962" 
d="M379 768l184 250l-297 88l41 113l293 -103l-6 318h123l-6 -318l293 103l40 -113l-296 -88l184 -250l-92 -72l-185 256l-184 -256z" />
    <glyph glyph-name="plus" unicode="+" horiz-adv-x="1105" 
d="M606 133v410h-379v112h379v410h123v-410h379v-112h-379v-410h-123z" />
    <glyph glyph-name="comma" unicode="," horiz-adv-x="430" 
d="M72 -164l106 307h133l-137 -307h-102z" />
    <glyph glyph-name="hyphen" unicode="-" horiz-adv-x="860" 
d="M195 532l20 113h655l-20 -113h-655z" />
    <glyph glyph-name="period" unicode="." horiz-adv-x="430" 
d="M143 0l25 143h143l-24 -143h-144z" />
    <glyph glyph-name="slash" unicode="/" horiz-adv-x="686" 
d="M-72 -410l897 1905h127l-899 -1905h-125z" />
    <glyph glyph-name="zero" unicode="0" horiz-adv-x="1331" 
d="M881 1331q-91 0 -182.5 -53.5t-168 -149t-124.5 -244t-48 -321.5q0 -212 102 -336.5t247 -124.5q91 0 182.5 53.5t167.5 149t124 244t48 321.5q0 213 -101.5 337t-246.5 124zM236 543q0 167 37.5 314t101.5 254.5t147.5 186t178 117.5t190.5 39q129 0 232.5 -65
t166 -194.5t62.5 -303.5q0 -207 -57.5 -382.5t-151 -289t-210 -176.5t-237.5 -63q-96 0 -180 38t-146 108.5t-98 178t-36 238.5z" />
    <glyph glyph-name="one" unicode="1" horiz-adv-x="675" 
d="M369 0l200 1147h-307l23 123h245q63 0 72 61l19 103h122l-251 -1434h-123z" />
    <glyph glyph-name="two" unicode="2" horiz-adv-x="1105" 
d="M133 0l19 113l688 610q43 38 69 64.5t60.5 72.5t51.5 99.5t17 115.5q0 113 -79 184.5t-207 71.5q-132 0 -225.5 -89t-123.5 -249h-122q29 208 163 334.5t318 126.5q182 0 290.5 -103.5t108.5 -265.5q0 -67 -15 -127t-35 -100.5t-56 -85t-60 -67.5t-66 -60
q-12 -11 -18 -16l-559 -496l-2 -10h684l-20 -123h-881z" />
    <glyph glyph-name="three" unicode="3" horiz-adv-x="1136" 
d="M172 379h123q-2 -2 -2 -8v-23q0 -105 84.5 -175.5t232.5 -70.5q157 0 252.5 87.5t95.5 220.5q0 113 -72 189.5t-204 76.5h-113l21 123h143q144 0 241 84.5t97 201.5q0 106 -80 176t-227 70q-131 0 -226 -75t-112 -191h-123q25 172 153.5 280.5t317.5 108.5
q193 0 306.5 -103t113.5 -255q0 -190 -147 -299q-69 -50 -148 -70l-2 -10q52 -24 92 -64q92 -92 92 -233q0 -186 -136.5 -313t-344.5 -127q-188 0 -309 104.5t-121 253.5v29q0 10 2 12z" />
    <glyph glyph-name="four" unicode="4" horiz-adv-x="1105" 
d="M141 338l17 102l739 994h225l-172 -973h205l-20 -123h-205l-60 -338h-122l59 338h-666zM330 461h497l148 829h-37l-606 -819z" />
    <glyph glyph-name="five" unicode="5" horiz-adv-x="1157" 
d="M188 379h123q0 -47 21.5 -95.5t60 -89t100.5 -66.5t136 -26q164 0 281.5 118t117.5 292q0 137 -88.5 222t-228.5 85q-54 0 -106 -15.5t-91.5 -40t-62 -42.5t-39.5 -35h-144l213 748h748l-23 -123h-635l-135 -471h10q28 34 105.5 68t179.5 34q185 0 302.5 -118t117.5 -302
q0 -154 -73.5 -279.5t-195 -194t-264.5 -68.5q-100 0 -183 33.5t-136 89.5t-82 127t-29 149z" />
    <glyph glyph-name="six" unicode="6" 
d="M297 399q0 -133 90 -215t248 -82q164 0 276.5 113t112.5 287q0 133 -90 215t-248 82q-164 0 -276.5 -113t-112.5 -287zM328 778l555 656h151l-469 -553h10q45 13 48 14q62 16 114 16q177 0 293.5 -116t116.5 -293q0 -145 -73 -265.5t-195.5 -188.5t-264.5 -68
q-196 0 -318 119.5t-122 299.5q0 110 45 208t109 171z" />
    <glyph glyph-name="seven" unicode="7" horiz-adv-x="1003" 
d="M266 0l754 1311h-735l22 123h881l-19 -103l-766 -1331h-137z" />
    <glyph glyph-name="eight" unicode="8" horiz-adv-x="1167" 
d="M514 758l2 10q-47 20 -86 59q-84 84 -84 207q0 115 66.5 212.5t174.5 152.5t230 55q180 0 290 -103.5t110 -254.5q0 -185 -144 -295q-66 -50 -141 -74l-2 -10q54 -28 96 -70q98 -98 98 -237q0 -83 -37 -161t-101 -137.5t-158 -95.5t-201 -36q-98 0 -181 31.5t-137.5 84.5
t-85 121t-30.5 141q0 110 44.5 190t114.5 130q72 53 162 80zM469 1044q0 -103 81 -174t216 -71q137 0 232.5 84.5t95.5 201.5q0 103 -81.5 174.5t-215.5 71.5q-137 0 -232.5 -85t-95.5 -202zM315 369q0 -118 90.5 -192.5t237.5 -74.5q153 0 255.5 88.5t102.5 219.5
q0 118 -90 192t-237 74q-152 0 -255.5 -88.5t-103.5 -218.5z" />
    <glyph glyph-name="nine" unicode="9" 
d="M719 635q164 0 276.5 112.5t112.5 286.5q0 133 -90 215t-248 82q-164 0 -276.5 -112.5t-112.5 -286.5q0 -133 90 -215t248 -82zM371 0l469 553h-11q-8 -3 -24 -8t-23 -8q-58 -15 -114 -15q-177 0 -293.5 116.5t-116.5 293.5q0 145 73 265.5t195.5 188.5t264.5 68
q196 0 318 -120t122 -300q0 -110 -45 -208t-109 -171l-555 -655h-151z" />
    <glyph glyph-name="colon" unicode=":" horiz-adv-x="430" 
d="M143 0l25 143h143l-24 -143h-144zM297 881l27 143h143l-27 -143h-143z" />
    <glyph glyph-name="semicolon" unicode=";" horiz-adv-x="430" 
d="M297 881l27 143h143l-27 -143h-143zM72 -164l106 307h133l-137 -307h-102z" />
    <glyph glyph-name="less" unicode="&#x3c;" horiz-adv-x="1105" 
d="M227 539v110l860 375v-123l-716 -307l716 -307v-123z" />
    <glyph glyph-name="equal" unicode="=" horiz-adv-x="1085" 
d="M291 696v113h758v-113h-758zM291 379v113h758v-113h-758z" />
    <glyph glyph-name="greater" unicode="&#x3e;" horiz-adv-x="1105" 
d="M233 164v123l717 307l-717 307v123l861 -369v-123z" />
    <glyph glyph-name="question" unicode="?" horiz-adv-x="1044" 
d="M487 328l23 131q24 115 78.5 173.5t179.5 108.5q246 97 246 334q0 112 -80.5 184t-216.5 72q-141 0 -230.5 -77.5t-107.5 -198.5h-123q30 180 156.5 289.5t314.5 109.5q181 0 295.5 -106t114.5 -263q0 -164 -89 -277t-219 -163q-104 -44 -144.5 -87t-53.5 -112l-21 -118
h-123zM420 0l24 143h144l-25 -143h-143z" />
    <glyph glyph-name="at" unicode="@" horiz-adv-x="1894" 
d="M975 -70h371l-19 -114h-362q-217 0 -385 85t-260.5 239.5t-92.5 353.5q0 198 72 371t194 292t287.5 187.5t349.5 68.5q175 0 323 -55.5t245.5 -149t152 -215t54.5 -254.5q0 -111 -23.5 -206.5t-63 -162t-91.5 -114t-109 -70t-115 -22.5q-119 0 -176 72q-24 30 -33 71h-10
q-39 -46 -78 -71q-94 -72 -231 -72q-162 0 -264.5 99.5t-102.5 260.5q0 142 62.5 257.5t167.5 179t229 63.5q56 0 104.5 -13t80 -31t56.5 -41t36.5 -40t17.5 -31h10l45 136h99q-11 -62 -47 -265.5t-56 -312.5q-6 -27 -6 -51q0 -99 111 -99q105 0 186.5 121.5t81.5 323.5
q0 114 -45 217.5t-128.5 184t-213 128t-287.5 47.5q-155 0 -295 -58.5t-244 -161.5t-165.5 -252t-61.5 -320q0 -255 172.5 -415.5t456.5 -160.5zM727 543q0 -119 73.5 -191.5t196.5 -72.5q135 0 234.5 102.5t99.5 263.5q0 119 -74.5 191.5t-197.5 72.5q-134 0 -233 -102
t-99 -264z" />
    <glyph glyph-name="A" unicode="A" horiz-adv-x="1290" 
d="M20 0l795 1434h184l291 -1434h-119l-79 389h-730l-215 -389h-127zM428 512h639l-160 788h-41z" />
    <glyph glyph-name="B" unicode="B" horiz-adv-x="1300" 
d="M184 0l252 1434h578q140 0 239 -99.5t99 -240.5q0 -176 -123 -291q-51 -51 -123 -86l-2 -10q36 -18 72 -58q73 -77 73 -209q0 -194 -127 -317t-334 -123h-604zM328 123h481q147 0 232 83.5t85 223.5q0 109 -58 167t-167 58h-479zM444 778h457q145 0 236.5 85.5
t91.5 211.5q0 98 -69 167t-167 69h-456z" />
    <glyph glyph-name="C" unicode="C" horiz-adv-x="1505" 
d="M1389 471h133q-96 -225 -280 -358t-406 -133q-268 0 -436.5 173.5t-168.5 450.5q0 187 63.5 348.5t169.5 270t242.5 170t282.5 61.5q230 0 388 -137t196 -344h-133q-42 164 -164.5 261t-296.5 97q-119 0 -231.5 -52t-200 -143.5t-140.5 -228t-53 -293.5q0 -228 138 -370
t354 -142q172 0 314.5 96t228.5 273z" />
    <glyph glyph-name="D" unicode="D" horiz-adv-x="1443" 
d="M328 123h389q123 0 236 50.5t199 140t137.5 221t51.5 284.5q0 223 -134 357.5t-357 134.5h-313zM184 0l252 1434h424q275 0 439.5 -167t164.5 -438q0 -147 -40 -278t-111.5 -230.5t-166.5 -172.5t-207.5 -110.5t-231.5 -37.5h-523z" />
    <glyph glyph-name="E" unicode="E" horiz-adv-x="1218" 
d="M184 0l252 1434h905l-22 -123h-782l-95 -533h746l-21 -123h-745l-94 -532h782l-20 -123h-906z" />
    <glyph glyph-name="F" unicode="F" horiz-adv-x="1177" 
d="M184 0l252 1434h885l-21 -123h-763l-93 -533h723l-20 -123h-725l-115 -655h-123z" />
    <glyph glyph-name="G" unicode="G" horiz-adv-x="1576" 
d="M1317 0l20 215h-10q-55 -68 -127 -119q-165 -116 -364 -116q-268 0 -436.5 173.5t-168.5 450.5q0 187 63.5 348.5t169.5 270t242.5 170t282.5 61.5q227 0 387 -124t197 -326h-133q-44 148 -169.5 237.5t-291.5 89.5q-119 0 -231.5 -52t-200 -143.5t-140.5 -228
t-53 -293.5q0 -228 138 -370t354 -142q71 0 141.5 19.5t136 59t119.5 94.5t93.5 132t56.5 166l6 31h-461l20 123h594l-133 -727h-102z" />
    <glyph glyph-name="H" unicode="H" horiz-adv-x="1464" 
d="M184 0l252 1434h123l-115 -646h854l115 646h123l-252 -1434h-123l117 666h-854l-117 -666h-123z" />
    <glyph glyph-name="I" unicode="I" horiz-adv-x="491" 
d="M184 0l252 1434h123l-252 -1434h-123z" />
    <glyph glyph-name="J" unicode="J" horiz-adv-x="798" 
d="M31 0l20 123h348q66 0 99.5 28t44.5 85l211 1198h123l-213 -1209q-21 -119 -83.5 -172t-191.5 -53h-358z" />
    <glyph glyph-name="K" unicode="K" horiz-adv-x="1157" 
d="M184 0l252 1434h123l-119 -676l768 676h164l-805 -715l590 -719h-158l-569 696l-123 -696h-123z" />
    <glyph glyph-name="L" unicode="L" horiz-adv-x="1085" 
d="M184 0l252 1434h123l-231 -1311h737l-21 -123h-860z" />
    <glyph glyph-name="M" unicode="M" horiz-adv-x="1843" 
d="M184 0l252 1434h232l250 -1311h40l713 1311h240l-252 -1434h-123l225 1280h-41l-696 -1280h-205l-246 1280h-41l-225 -1280h-123z" />
    <glyph glyph-name="N" unicode="N" horiz-adv-x="1464" 
d="M184 0l252 1434h221l488 -1291h41l227 1291h123l-252 -1434h-221l-488 1290h-40l-228 -1290h-123z" />
    <glyph glyph-name="O" unicode="O" horiz-adv-x="1576" 
d="M1470 819q0 228 -137.5 370t-353.5 142q-119 0 -231.5 -52t-200 -143.5t-140.5 -228t-53 -293.5q0 -228 138 -370t354 -142q119 0 231.5 52t199.5 143.5t140 228t53 293.5zM1593 829q0 -182 -65.5 -343.5t-172 -270.5t-242.5 -172t-277 -63q-268 0 -436.5 173.5
t-168.5 450.5q0 147 42.5 281t116 236t169.5 178t207 115.5t223 39.5q268 0 436 -174t168 -451z" />
    <glyph glyph-name="P" unicode="P" horiz-adv-x="1310" 
d="M184 0l252 1434h598q149 0 248.5 -106.5t99.5 -272.5q0 -216 -139.5 -354t-361.5 -138h-475l-99 -563h-123zM428 686h473q161 0 260 98.5t99 259.5q0 130 -64 198.5t-182 68.5h-477z" />
    <glyph glyph-name="Q" unicode="Q" horiz-adv-x="1576" 
d="M1296 -20l-92 106q-169 -106 -368 -106q-268 0 -436.5 173.5t-168.5 450.5q0 187 63.5 348.5t169.5 270t242.5 170t282.5 61.5q268 0 436 -174t168 -451q0 -209 -78 -381.5t-212 -289.5l157 -178h-164zM1122 178l-307 354h164l246 -284q114 97 179.5 243.5t65.5 327.5
q0 228 -137.5 370t-353.5 142q-119 0 -231.5 -52t-200 -143.5t-140.5 -228t-53 -293.5q0 -228 138 -370t354 -142q145 0 276 76z" />
    <glyph glyph-name="R" unicode="R" horiz-adv-x="1320" 
d="M184 0l252 1434h598q149 0 248.5 -106.5t99.5 -272.5q0 -216 -139.5 -354t-361.5 -138h-148l496 -563h-164l-496 563h-163l-99 -563h-123zM428 686h473q161 0 260 98.5t99 259.5q0 130 -64 198.5t-182 68.5h-477z" />
    <glyph glyph-name="S" unicode="S" horiz-adv-x="1280" 
d="M188 420h123q-2 -2 -2 -6q-2 -2 -2 -15q0 -123 111.5 -210t308.5 -87q180 0 274.5 81t94.5 216q0 87 -57 144t-179 92l-215 53q-150 37 -233.5 121t-83.5 205q0 189 137.5 314.5t363.5 125.5q238 0 370 -112.5t132 -286.5q0 -3 -1 -12t-1 -13q-2 -6 -2 -16h-121v6
q0 3 1 7t1 7q0 129 -102 213t-287 84q-163 0 -265.5 -88.5t-102.5 -208.5q0 -85 58 -139.5t177 -85.5l195 -51q173 -49 255.5 -132t82.5 -206q0 -197 -135.5 -318.5t-376.5 -121.5q-244 0 -383.5 117t-139.5 292q0 13 2 19q0 8 2 12z" />
    <glyph glyph-name="T" unicode="T" horiz-adv-x="1228" 
d="M543 0l229 1311h-496l23 123h1114l-22 -123h-496l-229 -1311h-123z" />
    <glyph glyph-name="U" unicode="U" horiz-adv-x="1433" 
d="M272 614l144 820h123l-144 -820q-37 -226 65 -369t314 -143q104 0 188 37.5t141.5 107.5t95 161.5t56.5 205.5l144 820h123l-144 -820q-111 -634 -624 -634q-116 0 -215 42t-168 120t-97 200.5t-2 271.5z" />
    <glyph glyph-name="V" unicode="V" horiz-adv-x="1290" 
d="M522 0l-270 1434h125l246 -1311h39l700 1311h133l-768 -1434h-205z" />
    <glyph glyph-name="W" unicode="W" horiz-adv-x="1945" 
d="M389 0l-106 1434h125l94 -1311h43l563 1311h205l100 -1311h43l557 1311h133l-610 -1434h-236l-96 1260h-41l-538 -1260h-236z" />
    <glyph glyph-name="X" unicode="X" horiz-adv-x="1228" 
d="M20 0l633 745l-340 689h136l294 -594h41l504 594h154l-596 -705l364 -729h-135l-319 635h-41l-541 -635h-154z" />
    <glyph glyph-name="Y" unicode="Y" horiz-adv-x="1208" 
d="M522 0l94 539l-374 895h133l307 -738h39l567 738h142l-691 -895l-94 -539h-123z" />
    <glyph glyph-name="Z" unicode="Z" horiz-adv-x="1198" 
d="M102 0l19 113l1046 1198h-825l23 123h993l-21 -113l-1046 -1198h846l-21 -123h-1014z" />
    <glyph glyph-name="bracketleft" unicode="[" horiz-adv-x="665" 
d="M121 -410l336 1905h399l-20 -123h-277l-293 -1659h277l-23 -123h-399z" />
    <glyph glyph-name="backslash" unicode="\" horiz-adv-x="686" 
d="M489 -410l-227 1905h117l227 -1905h-117z" />
    <glyph glyph-name="bracketright" unicode="]" horiz-adv-x="665" 
d="M0 -410l20 123h277l293 1659h-277l21 123h399l-336 -1905h-397z" />
    <glyph glyph-name="asciicircum" unicode="^" horiz-adv-x="829" 
d="M297 881l225 553h113l225 -553h-112l-164 409h-11l-163 -409h-113z" />
    <glyph glyph-name="underscore" unicode="_" horiz-adv-x="716" 
d="M-76 -317l21 112h796l-20 -112h-797z" />
    <glyph glyph-name="grave" unicode="`" horiz-adv-x="450" 
d="M492 1229l-168 266h139l137 -266h-108z" />
    <glyph glyph-name="a" unicode="a" horiz-adv-x="1095" 
d="M901 430l14 72h-333q-135 0 -206 -61.5t-71 -164.5q0 -81 56 -127.5t169 -46.5q147 0 243.5 86.5t127.5 241.5zM848 0l4 143h-10q-41 -47 -90 -82q-113 -81 -242 -81q-150 0 -239 78.5t-89 197.5q0 164 105.5 261t294.5 97h354l4 21q10 38 10 72q0 102 -64 158.5
t-192 56.5q-119 0 -190 -52.5t-92 -142.5h-123q15 64 47 119t82 100.5t123.5 71.5t163.5 26q175 0 271.5 -87t96.5 -230q0 -54 -10 -92l-113 -635h-102z" />
    <glyph glyph-name="b" unicode="b" horiz-adv-x="1216" 
d="M788 922q-102 0 -193.5 -59t-148.5 -166t-57 -236q0 -170 84.5 -264.5t222.5 -94.5q102 0 193.5 59t149 166t57.5 236q0 170 -85 264.5t-223 94.5zM174 0l252 1434h123l-96 -543h10q19 24 43.5 46t67 48.5t106 42.5t139.5 16q184 0 292 -125t108 -335q0 -131 -43 -245
t-115.5 -192t-170 -122.5t-204.5 -44.5q-46 0 -88.5 9t-72 20t-59.5 33t-45.5 35t-36 39.5t-24.5 32.5t-18 29q-3 4 -4 6h-10l-52 -184h-102z" />
    <glyph glyph-name="c" unicode="c" horiz-adv-x="1105" 
d="M956 338h129q-67 -164 -195 -261t-286 -97q-193 0 -311.5 122t-118.5 328q0 127 46 242t121.5 196t174.5 128.5t201 47.5q176 0 278 -93t133 -255h-129q-26 104 -99.5 165t-192.5 61q-102 0 -196 -61t-154 -170.5t-60 -239.5q0 -158 88 -253.5t229 -95.5
q105 0 196.5 63.5t145.5 172.5z" />
    <glyph glyph-name="d" unicode="d" horiz-adv-x="1208" 
d="M942 0l6 154h-10q-15 -20 -43 -45t-73.5 -56.5t-111.5 -52t-137 -20.5q-171 0 -285 120t-114 310q0 134 46 254t122 202t174 130t201 48q79 0 143.5 -20.5t105 -54t61.5 -58t36 -51.5h10l101 574h122l-252 -1434h-102zM604 102q77 0 150.5 37.5t131 102t93 159.5
t35.5 203q0 147 -83.5 232.5t-223.5 85.5q-77 0 -150.5 -37.5t-131 -102t-93 -159.5t-35.5 -203q0 -147 83.5 -232.5t223.5 -85.5z" />
    <glyph glyph-name="e" unicode="e" horiz-adv-x="1136" 
d="M928 287h135q-12 -24 -29 -51.5t-45.5 -64.5t-66.5 -69t-84.5 -60.5t-107 -45t-126.5 -16.5q-193 0 -311.5 122t-118.5 328q0 127 46 242t121.5 196t174.5 128.5t201 47.5q192 0 306 -120t114 -320q0 -58 -9 -92l-12 -61h-819q0 -158 89 -253.5t230 -95.5q60 0 115 20.5
t94.5 53.5t63 59.5t39.5 51.5zM311 573h703q0 163 -80.5 256t-226.5 93q-141 0 -249 -101.5t-147 -247.5z" />
    <glyph glyph-name="f" unicode="f" horiz-adv-x="645" 
d="M225 0l158 901h-164l23 123h164l34 205q13 73 65 118.5t140 45.5h182l-20 -123h-162q-74 0 -86 -72l-31 -174h236l-23 -123h-235l-158 -901h-123z" />
    <glyph glyph-name="g" unicode="g" horiz-adv-x="1193" 
d="M305 451q0 -140 75 -213.5t222 -73.5q81 0 153.5 33.5t127 93.5t86.5 149t32 195q0 140 -74.5 213.5t-221.5 73.5q-166 0 -283 -131.5t-117 -339.5zM121 -82h123q0 -97 80 -161t227 -64q138 0 234.5 76.5t119.5 201.5l41 244h-10q-12 -20 -41 -46t-74.5 -56.5t-112 -51
t-137.5 -20.5q-179 0 -284 107t-105 292q0 131 43 245t115.5 192t170 122.5t204.5 44.5q231 0 336 -184h10l49 164h102l-186 -1063q-32 -179 -162.5 -285t-322.5 -106q-186 0 -303 102.5t-117 245.5z" />
    <glyph glyph-name="h" unicode="h" horiz-adv-x="1198" 
d="M174 0l252 1434h123l-96 -543h10q39 45 80 76q109 77 235 77q160 0 264.5 -104t104.5 -264q0 -34 -10 -92l-103 -584h-123l105 594q8 31 8 72q0 108 -75.5 182t-190.5 74q-127 0 -230.5 -94t-124.5 -214l-106 -614h-123z" />
    <glyph glyph-name="i" unicode="i" horiz-adv-x="471" 
d="M174 0l180 1024h123l-180 -1024h-123zM385 1260l25 143h143l-25 -143h-143z" />
    <glyph glyph-name="j" unicode="j" horiz-adv-x="471" 
d="M-133 -410l22 123h172q62 0 74 72l219 1239h123l-225 -1270q-28 -164 -193 -164h-192zM385 1260l25 143h143l-25 -143h-143z" />
    <glyph glyph-name="k" unicode="k" horiz-adv-x="983" 
d="M174 0l252 1434h123l-156 -881l582 471h178l-633 -510l457 -514h-162l-432 492l-86 -492h-123z" />
    <glyph glyph-name="l" unicode="l" horiz-adv-x="471" 
d="M174 0l252 1434h123l-252 -1434h-123z" />
    <glyph glyph-name="m" unicode="m" horiz-adv-x="1740" 
d="M164 0l180 1024h102l-2 -131h11q27 40 69 76q90 75 209 75q137 0 225 -96q39 -43 60 -94h10q31 55 82 94q112 96 262 96q143 0 235.5 -87.5t92.5 -239.5q0 -36 -10 -101l-109 -616h-123l111 625q8 31 8 77q0 106 -58.5 167t-168.5 61q-109 0 -192 -71.5t-107 -192.5
l-117 -666h-123l111 625q8 31 8 77q0 107 -57.5 167.5t-167.5 60.5q-111 0 -195 -71t-107 -193l-116 -666h-123z" />
    <glyph glyph-name="n" unicode="n" horiz-adv-x="1187" 
d="M164 0l180 1024h102l-4 -133h11q40 47 79 76q109 77 236 77q160 0 264.5 -104t104.5 -264q0 -28 -11 -92l-102 -584h-123l105 594q8 31 8 72q0 108 -75.5 182t-190.5 74q-127 0 -230.5 -94t-124.5 -214l-106 -614h-123z" />
    <glyph glyph-name="o" unicode="o" 
d="M176 430q0 127 46 242t121.5 196t174.5 128.5t201 47.5q193 0 311.5 -122t118.5 -328q0 -127 -46 -242t-121.5 -196t-174.5 -128.5t-201 -47.5q-193 0 -311.5 122t-118.5 328zM1026 573q0 158 -88 253.5t-229 95.5q-102 0 -196 -61t-154 -170.5t-60 -239.5
q0 -158 88 -253.5t229 -95.5q102 0 196 61t154 170.5t60 239.5z" />
    <glyph glyph-name="p" unicode="p" horiz-adv-x="1198" 
d="M684 102q102 0 193.5 59t148.5 166t57 236q0 170 -84.5 264.5t-222.5 94.5q-102 0 -193.5 -59t-148.5 -166t-57 -236q0 -170 84.5 -264.5t222.5 -94.5zM90 -410l252 1434h102l-4 -133h11q19 24 43.5 46t67 48.5t106 42.5t139.5 16q184 0 291.5 -125t107.5 -335
q0 -131 -43 -245t-115.5 -192t-169.5 -122.5t-204 -44.5q-46 0 -88.5 9t-72 20t-59.5 33t-45.5 35t-36 39.5t-24.5 32.5t-18 29q-3 4 -4 6h-11l-102 -594h-123z" />
    <glyph glyph-name="q" unicode="q" horiz-adv-x="1206" 
d="M850 -410l98 564h-10q-15 -20 -43 -45t-73.5 -56.5t-111.5 -52t-137 -20.5q-171 0 -285 120t-114 310q0 134 46 254t122 202t174 130t201 48q79 0 143.5 -20.5t105 -54t61.5 -58t36 -51.5h10l49 164h103l-252 -1434h-123zM604 102q77 0 150.5 37.5t131 102t93 159.5
t35.5 203q0 147 -83.5 232.5t-223.5 85.5q-77 0 -150.5 -37.5t-131 -102t-93 -159.5t-35.5 -203q0 -147 83.5 -232.5t223.5 -85.5z" />
    <glyph glyph-name="r" unicode="r" horiz-adv-x="696" 
d="M164 0l180 1024h102l-8 -102h11q82 102 206 102h201l-22 -123h-191q-94 0 -154.5 -57t-78.5 -148l-123 -696h-123z" />
    <glyph glyph-name="s" unicode="s" horiz-adv-x="983" 
d="M135 297h123q0 -81 78.5 -138t218.5 -57q119 0 182.5 51.5t63.5 133.5q0 49 -34 83.5t-110 57.5l-196 59q-110 36 -161.5 92.5t-51.5 147.5q0 135 98.5 226t269.5 91q177 0 283.5 -87.5t106.5 -208.5q0 -3 -1 -7.5t-1 -7.5v-6h-121v10q0 75 -73.5 130t-203.5 55
q-114 0 -174.5 -52.5t-60.5 -121.5q0 -105 133 -146l194 -59q226 -71 226 -236q0 -142 -104.5 -234.5t-284.5 -92.5q-185 0 -292.5 89t-107.5 218v10z" />
    <glyph glyph-name="t" unicode="t" horiz-adv-x="696" 
d="M258 195l125 706h-164l23 123h164l49 287h123l-50 -287h256l-22 -123h-256l-125 -706q-2 -4 -2 -15v-6q0 -51 61 -51h185l-21 -123h-194q-76 0 -117 39.5t-41 103.5q0 22 6 52z" />
    <glyph glyph-name="u" unicode="u" horiz-adv-x="1187" 
d="M244 446l102 578h123l-104 -588q-11 -49 -11 -78q0 -111 75.5 -183.5t197.5 -72.5q129 0 226.5 80.5t117.5 200.5l112 641h123l-180 -1024h-102l2 123h-11q-37 -44 -81 -72q-100 -71 -228 -71q-165 0 -270 101.5t-105 256.5q0 50 13 108z" />
    <glyph glyph-name="v" unicode="v" horiz-adv-x="983" 
d="M399 0l-198 1024h118l170 -891h41l486 891h127l-559 -1024h-185z" />
    <glyph glyph-name="w" unicode="w" horiz-adv-x="1556" 
d="M307 0l-96 1024h119l78 -891h41l393 891h205l77 -891h41l394 891h127l-457 -1024h-205l-84 870h-41l-389 -870h-203z" />
    <glyph glyph-name="x" unicode="x" horiz-adv-x="931" 
d="M10 0l441 530l-240 494h137l203 -420h41l350 420h152l-430 -510l249 -514h-137l-211 440h-41l-362 -440h-152z" />
    <glyph glyph-name="y" unicode="y" horiz-adv-x="962" 
d="M39 -410l22 123h177q29 0 47.5 13.5t36.5 44.5l92 172l-219 1081h116l174 -870h41l461 870h127l-696 -1313q-33 -62 -78 -91.5t-115 -29.5h-186z" />
    <glyph glyph-name="z" unicode="z" horiz-adv-x="911" 
d="M82 0l16 102l721 799h-569l22 123h738l-19 -102l-721 -799h590l-20 -123h-758z" />
    <glyph glyph-name="braceleft" unicode="{" horiz-adv-x="655" 
d="M246 -164l86 481q6 30 6 41q0 113 -123 113l25 143q65 0 110 34t56 89l98 553q19 111 76 158t178 47h88l-21 -123h-77q-108 0 -123 -92l-97 -543q-20 -115 -108 -162q-37 -19 -84 -22l-8 -41q34 -3 65 -20q68 -37 68 -113q0 -30 -6 -57l-86 -486q-7 -49 -7 -61
q0 -32 23 -47t76 -15h71l-22 -123h-80q-92 0 -143 43t-51 121q0 12 10 82z" />
    <glyph glyph-name="bar" unicode="|" horiz-adv-x="614" 
d="M367 -410v1905h122v-1905h-122z" />
    <glyph glyph-name="braceright" unicode="}" horiz-adv-x="655" 
d="M0 -410l20 123h78q108 0 123 92l96 543q21 117 109 160q38 21 84 24l8 41q-34 2 -67 21q-66 36 -66 113q0 30 6 57l86 485q6 42 6 62q0 32 -22.5 46.5t-75.5 14.5h-72l23 123h80q92 0 143 -43t51 -121q0 -12 -10 -82l-86 -481q-6 -30 -6 -41q0 -113 123 -113l-25 -143
q-65 0 -110 -34t-56 -89l-98 -553q-19 -111 -76 -158t-178 -47h-88z" />
    <glyph glyph-name="asciitilde" unicode="~" horiz-adv-x="1157" 
d="M328 410h-123q0 151 75 234t201 83q54 0 102.5 -21t83.5 -51t67.5 -60.5t70 -51.5t76.5 -21q71 0 112 49t41 146h123q0 -151 -75 -234.5t-201 -83.5q-54 0 -102.5 21t-83.5 51.5t-67.5 60.5t-70 51t-76.5 21q-71 0 -112 -48.5t-41 -145.5z" />
    <glyph glyph-name="nbspace" unicode="&#xa0;" horiz-adv-x="460" 
 />
    <glyph glyph-name="exclamdown" unicode="&#xa1;" horiz-adv-x="512" 
d="M121 -410l110 625l97 492h102l-76 -492l-110 -625h-123zM338 881l27 143h143l-27 -143h-143z" />
    <glyph glyph-name="cent" unicode="&#xa2;" horiz-adv-x="1105" 
d="M467 -225l39 215q-155 29 -243.5 145t-88.5 295q0 123 43 235t114.5 192t165 129.5t193.5 55.5l37 207h123l-39 -213q132 -24 211 -112.5t106 -227.5h-129q-26 104 -99.5 165t-192.5 61q-102 0 -196 -61t-154 -170.5t-60 -239.5q0 -158 88 -253.5t229 -95.5
q105 0 196.5 63.5t145.5 172.5h129q-67 -160 -186.5 -255.5t-271.5 -102.5l-37 -205h-123z" />
    <glyph glyph-name="sterling" unicode="&#xa3;" horiz-adv-x="1218" 
d="M92 0l21 123h51q114 0 135 123l66 379h-164l22 123h164l57 317q29 170 156.5 279.5t300.5 109.5q180 0 291 -99t111 -249q0 -5 -1.5 -16.5t-1.5 -16.5v-18h-122v12q0 4 1 14t1 15q0 103 -76.5 169t-212.5 66q-122 0 -214 -77t-112 -195l-55 -311h420l-23 -123h-420
l-65 -379q-10 -59 -43 -96q-21 -21 -31 -27h819l-20 -123h-1055z" />
    <glyph glyph-name="currency" unicode="&#xa4;" horiz-adv-x="1167" 
d="M444 717q0 -107 74.5 -181.5t181.5 -74.5t181.5 74.5t74.5 181.5t-74.5 181.5t-181.5 74.5t-181.5 -74.5t-74.5 -181.5zM281 379l116 127q-16 19 -32 55q-33 80 -33 156q0 75 33 155q16 38 32 56l-116 127l92 82l112 -123q31 23 58 35q78 36 157 36q80 0 158 -36
q25 -11 57 -35l113 123l92 -82l-116 -127q16 -18 32 -56q33 -80 33 -155q0 -76 -33 -156q-16 -36 -32 -55l116 -127l-92 -82l-113 123q-28 -24 -57 -37q-76 -35 -158 -35q-81 0 -157 35q-31 14 -58 37l-112 -123z" />
    <glyph glyph-name="yen" unicode="&#xa5;" horiz-adv-x="1167" 
d="M203 287l20 123h369l33 184h-369l20 123h269l-275 717h129l283 -717h41l528 717h146l-529 -717h269l-21 -123h-368l-33 -184h368l-20 -123h-371l-49 -287h-123l49 287h-366z" />
    <glyph glyph-name="brokenbar" unicode="&#xa6;" horiz-adv-x="614" 
d="M367 737v758h122v-758h-122zM367 -410v758h122v-758h-122z" />
    <glyph glyph-name="section" unicode="&#xa7;" horiz-adv-x="1269" 
d="M584 401l225 -47q33 -6 102 -32l41 -19q32 14 72 49q72 72 72 180q0 156 -215 201l-215 45q-1 0 -119 31l-25 10q-44 -21 -78 -55q-75 -75 -75 -170q0 -147 215 -193zM166 72h123q-2 -4 -2 -13v-18q0 -119 95.5 -192.5t262.5 -73.5q166 0 247 73t81 183q0 167 -205 211
l-215 45q-162 36 -234.5 110t-72.5 187q0 129 92 225q42 45 94 72q-13 15 -33 51q-30 62 -30 143q0 163 125 271t346 108q197 0 318.5 -107.5t121.5 -271.5q0 -5 -1 -14.5t-1 -13.5v-13h-123v8q0 2 1 10t1 13q0 111 -91.5 188.5t-246.5 77.5t-241 -68.5t-86 -177.5
q0 -79 50 -125t165 -69l194 -41q158 -32 238 -109t80 -188q0 -135 -93 -236q-36 -42 -90 -77q19 -23 29 -45q31 -69 31 -144q0 -175 -122.5 -287t-338.5 -112q-218 0 -344.5 106.5t-126.5 272.5v28q0 9 2 13z" />
    <glyph glyph-name="dieresis" unicode="&#xa8;" horiz-adv-x="614" 
d="M283 1260l24 143h144l-25 -143h-143zM631 1260l24 143h144l-25 -143h-143z" />
    <glyph glyph-name="copyright" unicode="&#xa9;" horiz-adv-x="1720" 
d="M1208 594h113q-10 -39 -33 -81t-61.5 -85.5t-100 -71.5t-133.5 -28q-156 0 -257 107t-101 282t101 282t257 107q58 0 110 -19t87.5 -47.5t64 -64.5t43.5 -67t23 -58h-113q-62 143 -215 143q-102 0 -173.5 -77.5t-71.5 -198.5t71.5 -199t173.5 -78q91 0 142.5 44.5
t72.5 109.5zM1597 717q0 177 -78 319.5t-219 223.5t-317 81t-317 -81t-219 -223.5t-78 -319.5q0 -133 46 -248.5t126.5 -198.5t195 -130.5t246.5 -47.5t246.5 47.5t195 130.5t126.5 198.5t46 248.5zM983 -20q-155 0 -290.5 56.5t-231 154t-150.5 234.5t-55 292t55 292
t150.5 234.5t231 154t290.5 56.5t290.5 -56.5t231 -154t150.5 -234.5t55 -292t-55 -292t-150.5 -234.5t-231 -154t-290.5 -56.5z" />
    <glyph glyph-name="ordfeminine" unicode="&#xaa;" horiz-adv-x="686" 
d="M664 809l-7 82h-10q-11 -26 -66.5 -59t-129.5 -33q-90 0 -147.5 52.5t-57.5 129.5q0 94 69 155.5t177 61.5h208q0 10 2 16l5 25q0 113 -144 113q-96 0 -137 -92h-113q27 90 96.5 142t174.5 52t165 -58t60 -147q0 -37 -4 -49l-70 -391h-71zM684 1085l2 11h-194
q-67 0 -100.5 -27t-33.5 -76q0 -43 32 -67.5t91 -24.5q78 0 132 49t71 135z" />
    <glyph glyph-name="guillemotleft" unicode="&#xab;" horiz-adv-x="1013" 
d="M784 123l-213 389l351 389h145l-362 -397l213 -381h-134zM416 123l-213 389l350 389h145l-362 -397l213 -381h-133z" />
    <glyph glyph-name="logicalnot" unicode="&#xac;" horiz-adv-x="1085" 
d="M285 635v113h768v-410h-123v297h-645z" />
    <glyph glyph-name="uni00AD" unicode="&#xad;" horiz-adv-x="860" 
d="M195 532l20 113h655l-20 -113h-655z" />
    <glyph glyph-name="registered" unicode="&#xae;" horiz-adv-x="1720" 
d="M696 338v768h328q121 0 198.5 -73.5t77.5 -182.5q0 -100 -68.5 -169.5t-176.5 -76.5l266 -266h-143l-267 266h-102v-266h-113zM809 717h215q164 0 164 133q0 63 -44 103t-120 40h-215v-276zM983 92q132 0 246.5 47.5t195 130.5t126.5 198.5t46 248.5q0 177 -78 319.5
t-219 223.5t-317 81t-317 -81t-219 -223.5t-78 -319.5q0 -133 46 -248.5t126.5 -198.5t195 -130.5t246.5 -47.5zM983 -20q-155 0 -290.5 56.5t-231 154t-150.5 234.5t-55 292t55 292t150.5 234.5t231 154t290.5 56.5t290.5 -56.5t231 -154t150.5 -234.5t55 -292t-55 -292
t-150.5 -234.5t-231 -154t-290.5 -56.5z" />
    <glyph glyph-name="overscore" unicode="&#xaf;" horiz-adv-x="696" 
d="M287 1280l18 102h574l-19 -102h-573z" />
    <glyph glyph-name="degree" unicode="&#xb0;" horiz-adv-x="778" 
d="M592 922q-117 0 -191.5 74.5t-74.5 191.5t74.5 191.5t191.5 74.5t191.5 -74.5t74.5 -191.5t-74.5 -191.5t-191.5 -74.5zM592 1341q-69 0 -111.5 -42t-42.5 -111t42.5 -111.5t111.5 -42.5t111 42.5t42 111.5t-42 111t-111 42z" />
    <glyph glyph-name="plusminus" unicode="&#xb1;" horiz-adv-x="1105" 
d="M236 0v113h860v-113h-860zM604 287v389h-379v112h379v400h123v-400h379v-112h-379v-389h-123z" />
    <glyph glyph-name="uni00B2" unicode="&#xb2;" horiz-adv-x="686" 
d="M260 901l16 92l340 297q53 46 77 78.5t24 75.5q0 48 -29.5 75t-83.5 27q-55 0 -96.5 -36t-54.5 -97h-113q23 108 98 172t176 64q99 0 157 -54t58 -141q0 -31 -7.5 -59t-15 -45.5t-27 -41t-28 -31.5t-35 -31t-30.5 -27l-233 -205l-2 -10h309l-19 -103h-481z" />
    <glyph glyph-name="uni00B3" unicode="&#xb3;" horiz-adv-x="686" 
d="M268 1085v21h113v-10q0 -48 31.5 -75.5t91.5 -27.5q66 0 104.5 38.5t38.5 94.5q0 48 -30 75.5t-89 27.5h-65l18 102h84q60 0 96.5 32.5t36.5 80.5q0 43 -27.5 72.5t-84.5 29.5q-112 0 -135 -102h-113q11 89 81.5 147t176.5 58q98 0 156.5 -52.5t58.5 -132.5
q0 -55 -41 -107t-100 -67l-2 -10q40 -18 66 -60t26 -94q0 -97 -79.5 -166t-186.5 -69q-97 0 -161.5 57.5t-64.5 136.5z" />
    <glyph glyph-name="acute" unicode="&#xb4;" horiz-adv-x="450" 
d="M272 1229l232 266h151l-262 -266h-121z" />
    <glyph glyph-name="uni00B5" unicode="&#xb5;" horiz-adv-x="1187" 
d="M90 -410l254 1434h123l-105 -588q-10 -45 -10 -78q0 -111 75.5 -183.5t197.5 -72.5q129 0 226.5 80.5t117.5 200.5l112 641h123l-180 -1024h-102l2 123h-11q-36 -42 -82 -72q-100 -71 -227 -71q-194 0 -299 133l-92 -523h-123z" />
    <glyph glyph-name="paragraph" unicode="&#xb6;" horiz-adv-x="1054" 
d="M537 -205v953q-133 0 -230.5 101t-97.5 247q0 145 94.5 241.5t233.5 96.5h430v-1639h-123v1516h-185v-1516h-122z" />
    <glyph glyph-name="middot" unicode="&#xb7;" horiz-adv-x="460" 
d="M240 471l24 143h144l-25 -143h-143z" />
    <glyph glyph-name="cedilla" unicode="&#xb8;" horiz-adv-x="399" 
d="M-10 -410l14 93h98q93 0 93 81q0 25 -22.5 43.5t-59.5 18.5h-52l13 72l57 92h111l-58 -92q113 -32 113 -134q0 -78 -54 -126t-141 -48h-112z" />
    <glyph glyph-name="uni00B9" unicode="&#xb9;" horiz-adv-x="522" 
d="M399 901l95 533h-185l19 102h123q62 0 71 61l8 41h113l-131 -737h-113z" />
    <glyph glyph-name="ordmasculine" unicode="&#xba;" horiz-adv-x="737" 
d="M582 1352q-80 0 -147.5 -78t-67.5 -189q0 -84 46 -134t117 -50q80 0 147.5 77.5t67.5 188.5q0 84 -46 134.5t-117 50.5zM520 799q-117 0 -186.5 71.5t-69.5 194.5q0 172 96.5 280.5t231.5 108.5q117 0 186.5 -71.5t69.5 -194.5q0 -172 -96.5 -280.5t-231.5 -108.5z" />
    <glyph glyph-name="guillemotright" unicode="&#xbb;" horiz-adv-x="1017" 
d="M506 123l364 397l-215 381h133l216 -389l-353 -389h-145zM133 123l365 397l-215 381h133l215 -389l-352 -389h-146z" />
    <glyph glyph-name="onequarter" unicode="&#xbc;" horiz-adv-x="1351" 
d="M123 0l1143 1434h127l-1143 -1434h-127zM383 696l94 533h-184l18 102h123q63 0 72 62l8 41h113l-131 -738h-113zM727 164l14 82l375 491h180l-84 -471h103l-19 -102h-102l-29 -164h-112l28 164h-354zM889 266h211l61 348h-16l-254 -338z" />
    <glyph glyph-name="onehalf" unicode="&#xbd;" horiz-adv-x="1392" 
d="M123 0l1143 1434h127l-1143 -1434h-127zM383 696l94 533h-184l18 102h123q63 0 72 62l8 41h113l-131 -738h-113zM809 0l16 92l340 297q53 46 77 78.5t24 75.5q0 48 -29.5 75t-83.5 27q-55 0 -97 -36t-55 -97h-112q23 108 98 172t176 64q99 0 157 -54t58 -141
q0 -26 -4 -49.5t-14 -44t-18.5 -35t-25.5 -32t-25.5 -26t-29 -26t-26.5 -23.5l-234 -204l-2 -11h310l-19 -102h-481z" />
    <glyph glyph-name="threequarters" unicode="&#xbe;" horiz-adv-x="1484" 
d="M256 0l1143 1434h127l-1143 -1434h-127zM236 881v20h112v-10q0 -48 31.5 -75.5t91.5 -27.5q66 0 104.5 38.5t38.5 95.5q0 48 -29.5 75t-88.5 27h-66l19 102h83q60 0 97 32.5t37 80.5q0 43 -28 72.5t-85 29.5q-112 0 -135 -102h-113q11 89 81.5 147t176.5 58
q98 0 156.5 -52t58.5 -132q0 -55 -41 -107.5t-100 -67.5l-2 -10q40 -18 66 -59.5t26 -93.5q0 -97 -79.5 -166.5t-186.5 -69.5q-97 0 -161 58t-64 137zM856 164l14 82l375 491h180l-84 -471h103l-19 -102h-102l-29 -164h-112l28 164h-354zM1018 266h211l61 348h-16l-254 -338
z" />
    <glyph glyph-name="questiondown" unicode="&#xbf;" horiz-adv-x="1044" 
d="M825 -31h123q-33 -181 -157 -290t-314 -109q-181 0 -295 106t-114 263q0 85 26 159t70.5 128t97.5 92t113 61q102 41 144.5 85.5t53.5 113.5l21 118h123l-23 -131q-24 -115 -78.5 -173.5t-179.5 -108.5q-246 -97 -246 -334q0 -112 80.5 -184t216.5 -72q141 0 230.5 77.5
t107.5 198.5zM616 881l25 143h143l-24 -143h-144z" />
    <glyph glyph-name="Agrave" unicode="&#xc0;" horiz-adv-x="1290" 
d="M20 0l795 1434h184l291 -1434h-119l-79 389h-730l-215 -389h-127zM428 512h639l-160 788h-41zM844 1587l-168 266h139l137 -266h-108z" />
    <glyph glyph-name="Aacute" unicode="&#xc1;" horiz-adv-x="1290" 
d="M20 0l795 1434h184l291 -1434h-119l-79 389h-730l-215 -389h-127zM428 512h639l-160 788h-41zM860 1587l232 266h151l-262 -266h-121z" />
    <glyph glyph-name="Acircumflex" unicode="&#xc2;" horiz-adv-x="1290" 
d="M20 0l795 1434h184l291 -1434h-119l-79 389h-730l-215 -389h-127zM428 512h639l-160 788h-41zM625 1587l278 266h131l185 -266h-129l-129 191l-199 -191h-137z" />
    <glyph glyph-name="Atilde" unicode="&#xc3;" horiz-adv-x="1290" 
d="M20 0l795 1434h184l291 -1434h-119l-79 389h-730l-215 -389h-127zM428 512h639l-160 788h-41zM717 1618h-103q18 94 77 149.5t149 55.5q35 0 67.5 -16t53.5 -35.5t49 -35.5t55 -16q39 0 67 28t35 75h103q-18 -94 -77 -149.5t-149 -55.5q-35 0 -67.5 16t-53.5 35t-49 35
t-55 16q-39 0 -67 -27.5t-35 -74.5z" />
    <glyph glyph-name="Adieresis" unicode="&#xc4;" horiz-adv-x="1290" 
d="M20 0l795 1434h184l291 -1434h-119l-79 389h-730l-215 -389h-127zM428 512h639l-160 788h-41zM696 1659l25 143h143l-24 -143h-144zM1044 1659l25 143h143l-24 -143h-144z" />
    <glyph glyph-name="Aring" unicode="&#xc5;" horiz-adv-x="1290" 
d="M20 0l795 1434h184l291 -1434h-119l-79 389h-730l-215 -389h-127zM428 512h639l-160 788h-41zM760 1731q0 86 61.5 145t143.5 59q77 0 125.5 -46.5t48.5 -116.5q0 -86 -62 -145.5t-143 -59.5q-77 0 -125.5 47t-48.5 117zM944 1659q43 0 73 30t30 74q0 36 -25.5 58
t-67.5 22q-43 0 -72.5 -30t-29.5 -74q0 -36 25 -58t67 -22z" />
    <glyph glyph-name="AE" unicode="&#xc6;" horiz-adv-x="1910" 
d="M-10 0l876 1434h1168l-23 -123h-788l-93 -533h748l-23 -123h-747l-94 -532h788l-20 -123h-912l68 389h-580l-237 -389h-131zM434 512h527l139 799h-178z" />
    <glyph glyph-name="Ccedilla" unicode="&#xc7;" horiz-adv-x="1505" 
d="M600 -410l14 93h99q92 0 92 81q0 25 -22.5 43.5t-59.5 18.5h-51l12 72l55 88q-228 29 -368 198.5t-140 419.5q0 187 63.5 348.5t169.5 270t242.5 170t282.5 61.5q230 0 388 -137t196 -344h-133q-42 164 -164.5 261t-296.5 97q-119 0 -231.5 -52t-200 -143.5t-140.5 -228
t-53 -293.5q0 -228 138 -370t354 -142q172 0 314.5 96t228.5 273h133q-96 -224 -276 -355.5t-400 -135.5l-51 -82q112 -31 112 -134q0 -78 -54 -126t-140 -48h-113z" />
    <glyph glyph-name="Egrave" unicode="&#xc8;" horiz-adv-x="1218" 
d="M184 0l252 1434h905l-22 -123h-782l-95 -533h746l-21 -123h-745l-94 -532h782l-20 -123h-906zM854 1587l-168 266h139l138 -266h-109z" />
    <glyph glyph-name="Eacute" unicode="&#xc9;" horiz-adv-x="1218" 
d="M184 0l252 1434h905l-22 -123h-782l-95 -533h746l-21 -123h-745l-94 -532h782l-20 -123h-906zM840 1587l231 266h152l-262 -266h-121z" />
    <glyph glyph-name="Ecircumflex" unicode="&#xca;" horiz-adv-x="1218" 
d="M184 0l252 1434h905l-22 -123h-782l-95 -533h746l-21 -123h-745l-94 -532h782l-20 -123h-906zM614 1587l279 266h131l184 -266h-129l-129 191l-198 -191h-138z" />
    <glyph glyph-name="Edieresis" unicode="&#xcb;" horiz-adv-x="1218" 
d="M184 0l252 1434h905l-22 -123h-782l-95 -533h746l-21 -123h-745l-94 -532h782l-20 -123h-906zM672 1659l24 143h144l-25 -143h-143zM1020 1659l24 143h144l-25 -143h-143z" />
    <glyph glyph-name="Igrave" unicode="&#xcc;" horiz-adv-x="491" 
d="M184 0l252 1434h123l-252 -1434h-123zM455 1587l-168 266h139l137 -266h-108z" />
    <glyph glyph-name="Iacute" unicode="&#xcd;" horiz-adv-x="491" 
d="M184 0l252 1434h123l-252 -1434h-123zM471 1587l231 266h152l-262 -266h-121z" />
    <glyph glyph-name="Icircumflex" unicode="&#xce;" horiz-adv-x="491" 
d="M184 0l252 1434h123l-252 -1434h-123zM225 1587l279 266h131l184 -266h-129l-129 191l-199 -191h-137z" />
    <glyph glyph-name="Idieresis" unicode="&#xcf;" horiz-adv-x="491" 
d="M184 0l252 1434h123l-252 -1434h-123zM287 1659l24 143h144l-25 -143h-143zM635 1659l24 143h144l-25 -143h-143z" />
    <glyph glyph-name="Eth" unicode="&#xd0;" horiz-adv-x="1495" 
d="M236 0l116 666h-194l20 112h193l116 656h424q275 0 440 -167.5t165 -437.5q0 -182 -62.5 -339.5t-167 -263.5t-242 -166t-286.5 -60h-522zM379 123h389q123 0 236 50.5t199.5 140t138 221.5t51.5 284q0 223 -134.5 357.5t-357.5 134.5h-313l-94 -533h401l-21 -112h-401z
" />
    <glyph glyph-name="Ntilde" unicode="&#xd1;" horiz-adv-x="1464" 
d="M184 0l252 1434h221l488 -1291h41l227 1291h123l-252 -1434h-221l-488 1290h-40l-228 -1290h-123zM809 1618h-102q18 95 76.5 150t148.5 55q35 0 67.5 -16t53.5 -35.5t49 -35.5t55 -16q39 0 67.5 28t35.5 75h102q-18 -95 -76.5 -150t-148.5 -55q-35 0 -67.5 16t-53.5 35
t-49.5 35t-55.5 16q-39 0 -67 -27.5t-35 -74.5z" />
    <glyph glyph-name="Ograve" unicode="&#xd2;" horiz-adv-x="1576" 
d="M1470 819q0 228 -137.5 370t-353.5 142q-119 0 -231.5 -52t-200 -143.5t-140.5 -228t-53 -293.5q0 -228 138 -370t354 -142q119 0 231.5 52t199.5 143.5t140 228t53 293.5zM1593 829q0 -182 -65.5 -343.5t-172 -270.5t-242.5 -172t-277 -63q-268 0 -436.5 173.5
t-168.5 450.5q0 147 42.5 281t116 236t169.5 178t207 115.5t223 39.5q268 0 436 -174t168 -451zM967 1587l-168 266h139l137 -266h-108z" />
    <glyph glyph-name="Oacute" unicode="&#xd3;" horiz-adv-x="1576" 
d="M1470 819q0 228 -137.5 370t-353.5 142q-119 0 -231.5 -52t-200 -143.5t-140.5 -228t-53 -293.5q0 -228 138 -370t354 -142q119 0 231.5 52t199.5 143.5t140 228t53 293.5zM1593 829q0 -182 -65.5 -343.5t-172 -270.5t-242.5 -172t-277 -63q-268 0 -436.5 173.5
t-168.5 450.5q0 147 42.5 281t116 236t169.5 178t207 115.5t223 39.5q268 0 436 -174t168 -451zM973 1587l231 266h152l-262 -266h-121z" />
    <glyph glyph-name="Ocircumflex" unicode="&#xd4;" horiz-adv-x="1576" 
d="M1470 819q0 228 -137.5 370t-353.5 142q-119 0 -231.5 -52t-200 -143.5t-140.5 -228t-53 -293.5q0 -228 138 -370t354 -142q119 0 231.5 52t199.5 143.5t140 228t53 293.5zM1593 829q0 -182 -65.5 -343.5t-172 -270.5t-242.5 -172t-277 -63q-268 0 -436.5 173.5
t-168.5 450.5q0 147 42.5 281t116 236t169.5 178t207 115.5t223 39.5q268 0 436 -174t168 -451zM748 1587l278 266h131l184 -266h-129l-129 191l-198 -191h-137z" />
    <glyph glyph-name="Otilde" unicode="&#xd5;" horiz-adv-x="1576" 
d="M1470 819q0 228 -137.5 370t-353.5 142q-119 0 -231.5 -52t-200 -143.5t-140.5 -228t-53 -293.5q0 -228 138 -370t354 -142q119 0 231.5 52t199.5 143.5t140 228t53 293.5zM1593 829q0 -182 -65.5 -343.5t-172 -270.5t-242.5 -172t-277 -63q-268 0 -436.5 173.5
t-168.5 450.5q0 147 42.5 281t116 236t169.5 178t207 115.5t223 39.5q268 0 436 -174t168 -451zM840 1618h-103q18 94 77 149.5t149 55.5q35 0 67.5 -16t53.5 -35.5t49 -35.5t55 -16q38 0 66.5 28t35.5 75h103q-18 -94 -77 -149.5t-149 -55.5q-35 0 -67.5 16t-53.5 35
t-49 35t-55 16q-39 0 -67 -27.5t-35 -74.5z" />
    <glyph glyph-name="Odieresis" unicode="&#xd6;" horiz-adv-x="1576" 
d="M1470 819q0 228 -137.5 370t-353.5 142q-119 0 -231.5 -52t-200 -143.5t-140.5 -228t-53 -293.5q0 -228 138 -370t354 -142q119 0 231.5 52t199.5 143.5t140 228t53 293.5zM1593 829q0 -182 -65.5 -343.5t-172 -270.5t-242.5 -172t-277 -63q-268 0 -436.5 173.5
t-168.5 450.5q0 147 42.5 281t116 236t169.5 178t207 115.5t223 39.5q268 0 436 -174t168 -451zM819 1659l25 143h143l-24 -143h-144zM1167 1659l25 143h143l-24 -143h-144z" />
    <glyph glyph-name="multiply" unicode="&#xd7;" horiz-adv-x="1085" 
d="M289 307l297 297l-297 297l82 82l297 -297l297 297l82 -82l-297 -297l297 -297l-82 -82l-297 297l-297 -297z" />
    <glyph glyph-name="Oslash" unicode="&#xd8;" horiz-adv-x="1576" 
d="M293 -72l137 195q-199 180 -199 481q0 147 42.5 281t116 236t169.5 178t207 115.5t223 39.5q175 0 316 -80l92 131h143l-141 -200q194 -178 194 -476q0 -182 -65.5 -343.5t-172 -270.5t-242.5 -172t-277 -63q-180 0 -312 75l-88 -127h-143zM504 231l727 1037
q-108 63 -252 63q-119 0 -231.5 -52t-200 -143.5t-140.5 -228t-53 -293.5q0 -242 150 -383zM1325 1198l-727 -1036q111 -60 248 -60q119 0 231.5 52t199.5 143.5t140 228t53 293.5q0 234 -145 379z" />
    <glyph glyph-name="Ugrave" unicode="&#xd9;" horiz-adv-x="1433" 
d="M272 614l144 820h123l-144 -820q-37 -226 65 -369t314 -143q104 0 188 37.5t141.5 107.5t95 161.5t56.5 205.5l144 820h123l-144 -820q-111 -634 -624 -634q-116 0 -215 42t-168 120t-97 200.5t-2 271.5zM936 1587l-168 266h139l137 -266h-108z" />
    <glyph glyph-name="Uacute" unicode="&#xda;" horiz-adv-x="1433" 
d="M272 614l144 820h123l-144 -820q-37 -226 65 -369t314 -143q104 0 188 37.5t141.5 107.5t95 161.5t56.5 205.5l144 820h123l-144 -820q-111 -634 -624 -634q-116 0 -215 42t-168 120t-97 200.5t-2 271.5zM901 1587l232 266h151l-262 -266h-121z" />
    <glyph glyph-name="Ucircumflex" unicode="&#xdb;" horiz-adv-x="1433" 
d="M272 614l144 820h123l-144 -820q-37 -226 65 -369t314 -143q104 0 188 37.5t141.5 107.5t95 161.5t56.5 205.5l144 820h123l-144 -820q-111 -634 -624 -634q-116 0 -215 42t-168 120t-97 200.5t-2 271.5zM676 1587l278 266h131l185 -266h-129l-129 191l-199 -191h-137z
" />
    <glyph glyph-name="Udieresis" unicode="&#xdc;" horiz-adv-x="1433" 
d="M272 614l144 820h123l-144 -820q-37 -226 65 -369t314 -143q104 0 188 37.5t141.5 107.5t95 161.5t56.5 205.5l144 820h123l-144 -820q-111 -634 -624 -634q-116 0 -215 42t-168 120t-97 200.5t-2 271.5zM737 1659l25 143h143l-24 -143h-144zM1085 1659l25 143h143
l-24 -143h-144z" />
    <glyph glyph-name="Yacute" unicode="&#xdd;" horiz-adv-x="1208" 
d="M522 0l94 539l-374 895h133l307 -738h39l567 738h142l-691 -895l-94 -539h-123zM778 1587l232 266h151l-262 -266h-121z" />
    <glyph glyph-name="Thorn" unicode="&#xde;" horiz-adv-x="1423" 
d="M385 451h645q126 0 213.5 87t87.5 210q0 108 -62 171.5t-167 63.5h-623zM184 0l252 1434h123l-57 -328h622q148 0 239 -92.5t91 -245.5q0 -184 -127 -312t-309 -128h-653l-58 -328h-123z" />
    <glyph glyph-name="germandbls" unicode="&#xdf;" horiz-adv-x="1136" 
d="M164 0l190 1092q29 163 152.5 262.5t292.5 99.5q181 0 285 -94t104 -244q0 -192 -139 -309q-62 -53 -138 -80v-10q55 -22 97 -58q98 -86 98 -219q0 -188 -137.5 -314t-360.5 -126h-96l20 123h103q157 0 252.5 87t95.5 220q0 103 -76 169.5t-211 66.5h-67l20 122h99
q129 0 223 94.5t94 223.5q0 104 -72 164.5t-215 60.5q-116 0 -199.5 -69.5t-103.5 -180.5l-188 -1081h-123z" />
    <glyph glyph-name="agrave" unicode="&#xe0;" horiz-adv-x="1095" 
d="M901 430l14 72h-333q-135 0 -206 -61.5t-71 -164.5q0 -81 56 -127.5t169 -46.5q147 0 243.5 86.5t127.5 241.5zM848 0l4 143h-10q-41 -47 -90 -82q-113 -81 -242 -81q-150 0 -239 78.5t-89 197.5q0 164 105.5 261t294.5 97h354l4 21q10 38 10 72q0 102 -64 158.5
t-192 56.5q-119 0 -190 -52.5t-92 -142.5h-123q15 64 47 119t82 100.5t123.5 71.5t163.5 26q175 0 271.5 -87t96.5 -230q0 -54 -10 -92l-113 -635h-102zM711 1198l-168 266h139l137 -266h-108z" />
    <glyph glyph-name="aacute" unicode="&#xe1;" horiz-adv-x="1095" 
d="M901 430l14 72h-333q-135 0 -206 -61.5t-71 -164.5q0 -81 56 -127.5t169 -46.5q147 0 243.5 86.5t127.5 241.5zM848 0l4 143h-10q-41 -47 -90 -82q-113 -81 -242 -81q-150 0 -239 78.5t-89 197.5q0 164 105.5 261t294.5 97h354l4 21q10 38 10 72q0 102 -64 158.5
t-192 56.5q-119 0 -190 -52.5t-92 -142.5h-123q15 64 47 119t82 100.5t123.5 71.5t163.5 26q175 0 271.5 -87t96.5 -230q0 -54 -10 -92l-113 -635h-102zM696 1198l232 266h151l-262 -266h-121z" />
    <glyph glyph-name="acircumflex" unicode="&#xe2;" horiz-adv-x="1095" 
d="M901 430l14 72h-333q-135 0 -206 -61.5t-71 -164.5q0 -81 56 -127.5t169 -46.5q147 0 243.5 86.5t127.5 241.5zM848 0l4 143h-10q-41 -47 -90 -82q-113 -81 -242 -81q-150 0 -239 78.5t-89 197.5q0 164 105.5 261t294.5 97h354l4 21q10 38 10 72q0 102 -64 158.5
t-192 56.5q-119 0 -190 -52.5t-92 -142.5h-123q15 64 47 119t82 100.5t123.5 71.5t163.5 26q175 0 271.5 -87t96.5 -230q0 -54 -10 -92l-113 -635h-102zM471 1198l279 266h131l184 -266h-129l-129 191l-199 -191h-137z" />
    <glyph glyph-name="atilde" unicode="&#xe3;" horiz-adv-x="1095" 
d="M901 430l14 72h-333q-135 0 -206 -61.5t-71 -164.5q0 -81 56 -127.5t169 -46.5q147 0 243.5 86.5t127.5 241.5zM848 0l4 143h-10q-41 -47 -90 -82q-113 -81 -242 -81q-150 0 -239 78.5t-89 197.5q0 164 105.5 261t294.5 97h354l4 21q10 38 10 72q0 102 -64 158.5
t-192 56.5q-119 0 -190 -52.5t-92 -142.5h-123q15 64 47 119t82 100.5t123.5 71.5t163.5 26q175 0 271.5 -87t96.5 -230q0 -54 -10 -92l-113 -635h-102zM563 1229h-102q18 95 76.5 150t148.5 55q35 0 67.5 -16t53.5 -35.5t49 -35.5t55 -16q39 0 67.5 28t35.5 75h102
q-18 -95 -76.5 -150t-148.5 -55q-35 0 -67.5 16t-53.5 35t-49 35t-55 16q-39 0 -67.5 -27.5t-35.5 -74.5z" />
    <glyph glyph-name="adieresis" unicode="&#xe4;" horiz-adv-x="1095" 
d="M901 430l14 72h-333q-135 0 -206 -61.5t-71 -164.5q0 -81 56 -127.5t169 -46.5q147 0 243.5 86.5t127.5 241.5zM848 0l4 143h-10q-41 -47 -90 -82q-113 -81 -242 -81q-150 0 -239 78.5t-89 197.5q0 164 105.5 261t294.5 97h354l4 21q10 38 10 72q0 102 -64 158.5
t-192 56.5q-119 0 -190 -52.5t-92 -142.5h-123q15 64 47 119t82 100.5t123.5 71.5t163.5 26q175 0 271.5 -87t96.5 -230q0 -54 -10 -92l-113 -635h-102zM532 1260l25 143h143l-24 -143h-144zM881 1260l24 143h144l-25 -143h-143z" />
    <glyph glyph-name="aring" unicode="&#xe5;" horiz-adv-x="1095" 
d="M901 430l14 72h-333q-135 0 -206 -61.5t-71 -164.5q0 -81 56 -127.5t169 -46.5q147 0 243.5 86.5t127.5 241.5zM848 0l4 143h-10q-41 -47 -90 -82q-113 -81 -242 -81q-150 0 -239 78.5t-89 197.5q0 164 105.5 261t294.5 97h354l4 21q10 38 10 72q0 102 -64 158.5
t-192 56.5q-119 0 -190 -52.5t-92 -142.5h-123q15 64 47 119t82 100.5t123.5 71.5t163.5 26q175 0 271.5 -87t96.5 -230q0 -54 -10 -92l-113 -635h-102zM604 1331q0 86 62 145.5t143 59.5q77 0 125.5 -47t48.5 -117q0 -86 -62 -145.5t-143 -59.5q-77 0 -125.5 47t-48.5 117z
M788 1260q43 0 73 30t30 74q0 36 -25 58t-67 22q-43 0 -73 -30.5t-30 -74.5q0 -36 25 -57.5t67 -21.5z" />
    <glyph glyph-name="ae" unicode="&#xe6;" horiz-adv-x="1843" 
d="M408 727h-123q29 136 140.5 226.5t279.5 90.5q67 0 124 -18.5t91 -43t62 -59.5t39 -57t21 -47q78 109 180.5 167t219.5 58q192 0 306 -120t114 -320q0 -48 -9 -82l-12 -61h-805q0 -167 76.5 -263t226.5 -96q192 0 314 185h135q-12 -24 -29 -51.5t-45.5 -64.5t-66.5 -69
t-84.5 -60.5t-107 -45t-126.5 -16.5q-136 0 -233 68t-146 188q-16 -27 -37.5 -54.5t-62.5 -66t-88 -66.5t-116.5 -48.5t-145.5 -20.5q-154 0 -241 77t-87 189q0 155 104 241t295 86h355l12 62q8 31 8 72q0 102 -67 158.5t-195 56.5q-113 0 -182.5 -52.5t-93.5 -142.5z
M1051 573h688q0 163 -80.5 256t-226.5 93q-140 0 -240.5 -100.5t-140.5 -248.5zM905 440l4 21h-348q-135 0 -200.5 -54.5t-65.5 -150.5q0 -72 56 -113t169 -41q153 0 253 88t132 250z" />
    <glyph glyph-name="ccedilla" unicode="&#xe7;" horiz-adv-x="1105" 
d="M389 -410l14 93h99q92 0 92 81q0 25 -22.5 43.5t-59.5 18.5h-51l12 72l53 88q-163 25 -257.5 142.5t-94.5 301.5q0 127 46 242t121.5 196t174.5 128.5t201 47.5q176 0 278 -93t133 -255h-129q-26 104 -99.5 165t-192.5 61q-102 0 -196 -61t-154 -170.5t-60 -239.5
q0 -158 88 -253.5t229 -95.5q105 0 196.5 63.5t145.5 172.5h129q-64 -155 -183 -250.5t-267 -105.5l-51 -84q112 -31 112 -134q0 -78 -54 -126t-140 -48h-113z" />
    <glyph glyph-name="egrave" unicode="&#xe8;" horiz-adv-x="1136" 
d="M928 287h135q-12 -24 -29 -51.5t-45.5 -64.5t-66.5 -69t-84.5 -60.5t-107 -45t-126.5 -16.5q-193 0 -311.5 122t-118.5 328q0 127 46 242t121.5 196t174.5 128.5t201 47.5q192 0 306 -120t114 -320q0 -58 -9 -92l-12 -61h-819q0 -158 89 -253.5t230 -95.5q60 0 115 20.5
t94.5 53.5t63 59.5t39.5 51.5zM311 573h703q0 163 -80.5 256t-226.5 93q-141 0 -249 -101.5t-147 -247.5zM700 1198l-168 266h140l137 -266h-109z" />
    <glyph glyph-name="eacute" unicode="&#xe9;" horiz-adv-x="1136" 
d="M928 287h135q-12 -24 -29 -51.5t-45.5 -64.5t-66.5 -69t-84.5 -60.5t-107 -45t-126.5 -16.5q-193 0 -311.5 122t-118.5 328q0 127 46 242t121.5 196t174.5 128.5t201 47.5q192 0 306 -120t114 -320q0 -58 -9 -92l-12 -61h-819q0 -158 89 -253.5t230 -95.5q60 0 115 20.5
t94.5 53.5t63 59.5t39.5 51.5zM311 573h703q0 163 -80.5 256t-226.5 93q-141 0 -249 -101.5t-147 -247.5zM696 1198l232 266h151l-262 -266h-121z" />
    <glyph glyph-name="ecircumflex" unicode="&#xea;" horiz-adv-x="1136" 
d="M928 287h135q-12 -24 -29 -51.5t-45.5 -64.5t-66.5 -69t-84.5 -60.5t-107 -45t-126.5 -16.5q-193 0 -311.5 122t-118.5 328q0 127 46 242t121.5 196t174.5 128.5t201 47.5q192 0 306 -120t114 -320q0 -58 -9 -92l-12 -61h-819q0 -158 89 -253.5t230 -95.5q60 0 115 20.5
t94.5 53.5t63 59.5t39.5 51.5zM311 573h703q0 163 -80.5 256t-226.5 93q-141 0 -249 -101.5t-147 -247.5zM471 1198l279 266h131l184 -266h-129l-129 191l-199 -191h-137z" />
    <glyph glyph-name="edieresis" unicode="&#xeb;" horiz-adv-x="1136" 
d="M928 287h135q-12 -24 -29 -51.5t-45.5 -64.5t-66.5 -69t-84.5 -60.5t-107 -45t-126.5 -16.5q-193 0 -311.5 122t-118.5 328q0 127 46 242t121.5 196t174.5 128.5t201 47.5q192 0 306 -120t114 -320q0 -58 -9 -92l-12 -61h-819q0 -158 89 -253.5t230 -95.5q60 0 115 20.5
t94.5 53.5t63 59.5t39.5 51.5zM311 573h703q0 163 -80.5 256t-226.5 93q-141 0 -249 -101.5t-147 -247.5zM522 1260l25 143h143l-24 -143h-144zM870 1260l25 143h143l-24 -143h-144z" />
    <glyph glyph-name="igrave" unicode="&#xec;" horiz-adv-x="450" 
d="M164 0l180 1024h123l-180 -1024h-123zM354 1198l-168 266h140l137 -266h-109z" />
    <glyph glyph-name="iacute" unicode="&#xed;" horiz-adv-x="450" 
d="M164 0l180 1024h123l-180 -1024h-123zM379 1198l231 266h152l-262 -266h-121z" />
    <glyph glyph-name="icircumflex" unicode="&#xee;" horiz-adv-x="450" 
d="M164 0l180 1024h123l-180 -1024h-123zM133 1198l279 266h131l184 -266h-129l-129 191l-199 -191h-137z" />
    <glyph glyph-name="idieresis" unicode="&#xef;" horiz-adv-x="450" 
d="M164 0l180 1024h123l-180 -1024h-123zM199 1260l24 143h144l-25 -143h-143zM547 1260l24 143h144l-25 -143h-143z" />
    <glyph glyph-name="eth" unicode="&#xf0;" horiz-adv-x="1116" 
d="M674 819q-153 0 -266 -117.5t-113 -302.5q0 -132 84.5 -214.5t222.5 -82.5q153 0 266 117.5t113 302.5q0 132 -84.5 214.5t-222.5 82.5zM530 1044l-41 93l254 112q-49 53 -135 129l-57 45l113 52q12 -8 34.5 -26.5t28.5 -23.5q52 -41 131 -127l256 125l31 -92l-221 -112
q90 -129 140 -269.5t50 -314.5q0 -150 -41 -274.5t-112 -207t-166 -128t-203 -45.5q-191 0 -305.5 112t-114.5 297q0 120 42.5 224.5t113.5 175.5t164 112t192 41q29 0 55 -3t48.5 -10t39.5 -12.5t35.5 -18t28.5 -18.5t25.5 -21.5t20 -20.5t19 -21.5t15.5 -17.5h10
q-22 99 -75 204.5t-99 167.5z" />
    <glyph glyph-name="ntilde" unicode="&#xf1;" horiz-adv-x="1187" 
d="M164 0l180 1024h102l-4 -133h11q40 47 79 76q109 77 236 77q160 0 264.5 -104t104.5 -264q0 -28 -11 -92l-102 -584h-123l105 594q8 31 8 72q0 108 -75.5 182t-190.5 74q-127 0 -230.5 -94t-124.5 -214l-106 -614h-123zM594 1229h-102q18 95 76.5 150t148.5 55
q35 0 67.5 -16t53.5 -35.5t49 -35.5t55 -16q38 0 66.5 28t35.5 75h103q-18 -95 -76.5 -150t-148.5 -55q-35 0 -67.5 16t-53.5 35t-49.5 35t-55.5 16q-39 0 -67 -27.5t-35 -74.5z" />
    <glyph glyph-name="ograve" unicode="&#xf2;" 
d="M176 430q0 127 46 242t121.5 196t174.5 128.5t201 47.5q193 0 311.5 -122t118.5 -328q0 -127 -46 -242t-121.5 -196t-174.5 -128.5t-201 -47.5q-193 0 -311.5 122t-118.5 328zM1026 573q0 158 -88 253.5t-229 95.5q-102 0 -196 -61t-154 -170.5t-60 -239.5
q0 -158 88 -253.5t229 -95.5q102 0 196 61t154 170.5t60 239.5zM700 1198l-168 266h140l137 -266h-109z" />
    <glyph glyph-name="oacute" unicode="&#xf3;" 
d="M176 430q0 127 46 242t121.5 196t174.5 128.5t201 47.5q193 0 311.5 -122t118.5 -328q0 -127 -46 -242t-121.5 -196t-174.5 -128.5t-201 -47.5q-193 0 -311.5 122t-118.5 328zM1026 573q0 158 -88 253.5t-229 95.5q-102 0 -196 -61t-154 -170.5t-60 -239.5
q0 -158 88 -253.5t229 -95.5q102 0 196 61t154 170.5t60 239.5zM696 1198l232 266h151l-262 -266h-121z" />
    <glyph glyph-name="ocircumflex" unicode="&#xf4;" 
d="M176 430q0 127 46 242t121.5 196t174.5 128.5t201 47.5q193 0 311.5 -122t118.5 -328q0 -127 -46 -242t-121.5 -196t-174.5 -128.5t-201 -47.5q-193 0 -311.5 122t-118.5 328zM1026 573q0 158 -88 253.5t-229 95.5q-102 0 -196 -61t-154 -170.5t-60 -239.5
q0 -158 88 -253.5t229 -95.5q102 0 196 61t154 170.5t60 239.5zM471 1198l279 266h131l184 -266h-129l-129 191l-199 -191h-137z" />
    <glyph glyph-name="otilde" unicode="&#xf5;" 
d="M176 430q0 127 46 242t121.5 196t174.5 128.5t201 47.5q193 0 311.5 -122t118.5 -328q0 -127 -46 -242t-121.5 -196t-174.5 -128.5t-201 -47.5q-193 0 -311.5 122t-118.5 328zM1026 573q0 158 -88 253.5t-229 95.5q-102 0 -196 -61t-154 -170.5t-60 -239.5
q0 -158 88 -253.5t229 -95.5q102 0 196 61t154 170.5t60 239.5zM573 1229h-102q18 95 76.5 150t148.5 55q35 0 67.5 -16t53.5 -35.5t49.5 -35.5t55.5 -16q38 0 66.5 28t35.5 75h102q-18 -95 -76.5 -150t-148.5 -55q-35 0 -67.5 16t-53.5 35t-49 35t-55 16q-39 0 -67.5 -27.5
t-35.5 -74.5z" />
    <glyph glyph-name="odieresis" unicode="&#xf6;" 
d="M176 430q0 127 46 242t121.5 196t174.5 128.5t201 47.5q193 0 311.5 -122t118.5 -328q0 -127 -46 -242t-121.5 -196t-174.5 -128.5t-201 -47.5q-193 0 -311.5 122t-118.5 328zM1026 573q0 158 -88 253.5t-229 95.5q-102 0 -196 -61t-154 -170.5t-60 -239.5
q0 -158 88 -253.5t229 -95.5q102 0 196 61t154 170.5t60 239.5zM528 1260l25 143h143l-24 -143h-144zM877 1260l24 143h143l-24 -143h-143z" />
    <glyph glyph-name="divide" unicode="&#xf7;" horiz-adv-x="1085" 
d="M258 543v112h819v-112h-819zM668 358q35 0 56 -21t21 -54q0 -35 -21 -56.5t-56 -21.5t-56.5 21.5t-21.5 56.5q0 33 21.5 54t56.5 21zM590 918q0 33 21.5 54t56.5 21t56 -21t21 -54q0 -35 -21 -56.5t-56 -21.5t-56.5 21.5t-21.5 56.5z" />
    <glyph glyph-name="oslash" unicode="&#xf8;" 
d="M176 -72l121 170q-121 121 -121 332q0 127 46 242t121.5 196t174.5 128.5t201 47.5q125 0 217 -51l74 103h139l-123 -170q123 -123 123 -332q0 -127 -46 -242t-121.5 -196t-174.5 -128.5t-201 -47.5q-123 0 -219 51l-72 -103h-139zM948 815l-485 -678q65 -35 153 -35
q102 0 196 61t154 170.5t60 239.5q0 148 -78 242zM377 209l483 678q-72 35 -151 35q-102 0 -196 -61t-154 -170.5t-60 -239.5q0 -148 78 -242z" />
    <glyph glyph-name="ugrave" unicode="&#xf9;" horiz-adv-x="1187" 
d="M244 446l102 578h123l-104 -588q-11 -49 -11 -78q0 -111 75.5 -183.5t197.5 -72.5q129 0 226.5 80.5t117.5 200.5l112 641h123l-180 -1024h-102l2 123h-11q-37 -44 -81 -72q-100 -71 -228 -71q-165 0 -270 101.5t-105 256.5q0 50 13 108zM737 1198l-168 266h140l137 -266
h-109z" />
    <glyph glyph-name="uacute" unicode="&#xfa;" horiz-adv-x="1187" 
d="M244 446l102 578h123l-104 -588q-11 -49 -11 -78q0 -111 75.5 -183.5t197.5 -72.5q129 0 226.5 80.5t117.5 200.5l112 641h123l-180 -1024h-102l2 123h-11q-37 -44 -81 -72q-100 -71 -228 -71q-165 0 -270 101.5t-105 256.5q0 50 13 108zM727 1198l231 266h152l-262 -266
h-121z" />
    <glyph glyph-name="ucircumflex" unicode="&#xfb;" horiz-adv-x="1187" 
d="M244 446l102 578h123l-104 -588q-11 -49 -11 -78q0 -111 75.5 -183.5t197.5 -72.5q129 0 226.5 80.5t117.5 200.5l112 641h123l-180 -1024h-102l2 123h-11q-37 -44 -81 -72q-100 -71 -228 -71q-165 0 -270 101.5t-105 256.5q0 50 13 108zM492 1198l278 266h131l184 -266
h-129l-129 191l-198 -191h-137z" />
    <glyph glyph-name="udieresis" unicode="&#xfc;" horiz-adv-x="1187" 
d="M244 446l102 578h123l-104 -588q-11 -49 -11 -78q0 -111 75.5 -183.5t197.5 -72.5q129 0 226.5 80.5t117.5 200.5l112 641h123l-180 -1024h-102l2 123h-11q-37 -44 -81 -72q-100 -71 -228 -71q-165 0 -270 101.5t-105 256.5q0 50 13 108zM563 1260l25 143h143l-24 -143
h-144zM911 1260l25 143h143l-24 -143h-144z" />
    <glyph glyph-name="yacute" unicode="&#xfd;" horiz-adv-x="962" 
d="M39 -410l22 123h177q29 0 47.5 13.5t36.5 44.5l92 172l-219 1081h116l174 -870h41l461 870h127l-696 -1313q-33 -62 -78 -91.5t-115 -29.5h-186zM594 1198l231 266h152l-262 -266h-121z" />
    <glyph glyph-name="thorn" unicode="&#xfe;" horiz-adv-x="1198" 
d="M684 102q102 0 193.5 59t148.5 166t57 236q0 170 -84.5 264.5t-222.5 94.5q-102 0 -193.5 -59t-148.5 -166t-57 -236q0 -170 84.5 -264.5t222.5 -94.5zM90 -410l324 1844h123l-97 -543h11q19 24 43.5 46t67 48.5t106 42.5t139.5 16q184 0 291.5 -125t107.5 -335
q0 -131 -43 -245t-115.5 -192t-169.5 -122.5t-204 -44.5q-46 0 -88.5 9t-72 20t-59.5 33t-45.5 35t-36 39.5t-24.5 32.5t-18 29q-3 4 -4 6h-11l-102 -594h-123z" />
    <glyph glyph-name="ydieresis" unicode="&#xff;" horiz-adv-x="962" 
d="M39 -410l22 123h177q29 0 47.5 13.5t36.5 44.5l92 172l-219 1081h116l174 -870h41l461 870h127l-696 -1313q-33 -62 -78 -91.5t-115 -29.5h-186zM422 1260l24 143h144l-25 -143h-143zM770 1260l25 143h143l-25 -143h-143z" />
    <glyph glyph-name="Amacron" unicode="&#x100;" horiz-adv-x="1290" 
d="M20 0l795 1434h184l291 -1434h-119l-79 389h-730l-215 -389h-127zM428 512h639l-160 788h-41zM651 1669l19 103h573l-18 -103h-574z" />
    <glyph glyph-name="amacron" unicode="&#x101;" horiz-adv-x="1095" 
d="M901 430l14 72h-333q-135 0 -206 -61.5t-71 -164.5q0 -81 56 -127.5t169 -46.5q147 0 243.5 86.5t127.5 241.5zM848 0l4 143h-10q-41 -47 -90 -82q-113 -81 -242 -81q-150 0 -239 78.5t-89 197.5q0 164 105.5 261t294.5 97h354l4 21q10 38 10 72q0 102 -64 158.5
t-192 56.5q-119 0 -190 -52.5t-92 -142.5h-123q15 64 47 119t82 100.5t123.5 71.5t163.5 26q175 0 271.5 -87t96.5 -230q0 -54 -10 -92l-113 -635h-102zM492 1280l18 102h573l-18 -102h-573z" />
    <glyph glyph-name="Abreve" unicode="&#x102;" horiz-adv-x="1290" 
d="M20 0l795 1434h184l291 -1434h-119l-79 389h-730l-215 -389h-127zM428 512h639l-160 788h-41zM676 1843h112q0 -143 154 -143q67 0 112.5 39.5t63.5 103.5h111q-23 -118 -99 -182t-198 -64q-116 0 -186 62.5t-70 163.5v20z" />
    <glyph glyph-name="abreve" unicode="&#x103;" horiz-adv-x="1095" 
d="M901 430l14 72h-333q-135 0 -206 -61.5t-71 -164.5q0 -81 56 -127.5t169 -46.5q147 0 243.5 86.5t127.5 241.5zM848 0l4 143h-10q-41 -47 -90 -82q-113 -81 -242 -81q-150 0 -239 78.5t-89 197.5q0 164 105.5 261t294.5 97h354l4 21q10 38 10 72q0 102 -64 158.5
t-192 56.5q-119 0 -190 -52.5t-92 -142.5h-123q15 64 47 119t82 100.5t123.5 71.5t163.5 26q175 0 271.5 -87t96.5 -230q0 -54 -10 -92l-113 -635h-102zM524 1454h113q0 -143 154 -143q67 0 112.5 39.5t63.5 103.5h110q-23 -118 -99 -182t-198 -64q-116 0 -186 62.5
t-70 163.5v20z" />
    <glyph glyph-name="Aogonek" unicode="&#x104;" horiz-adv-x="1290" 
d="M20 0l795 1434h184l291 -1434h-6q-69 -27 -111.5 -71t-42.5 -93q0 -61 80 -61h33l-18 -103h-47q-70 0 -110 43t-40 101q0 65 42.5 115t100.5 69l-79 389h-730l-215 -389h-127zM428 512h639l-160 788h-41z" />
    <glyph glyph-name="aogonek" unicode="&#x105;" horiz-adv-x="1095" 
d="M901 -328h-47q-70 0 -109.5 43t-39.5 101q0 65 42.5 115t100.5 69l4 143h-10q-41 -47 -90 -82q-113 -81 -242 -81q-150 0 -239 78.5t-89 197.5q0 164 105.5 261t294.5 97h354l4 21q10 38 10 72q0 102 -64 158.5t-192 56.5q-119 0 -190 -52.5t-92 -142.5h-123
q15 64 47 119t82 100.5t123.5 71.5t163.5 26q175 0 271.5 -87t96.5 -230q0 -54 -10 -92l-113 -635q-61 -23 -102 -70t-41 -94q0 -61 80 -61h33zM901 430l14 72h-333q-135 0 -206 -61.5t-71 -164.5q0 -81 56 -127.5t169 -46.5q147 0 243.5 86.5t127.5 241.5z" />
    <glyph glyph-name="Cacute" unicode="&#x106;" horiz-adv-x="1505" 
d="M1389 471h133q-96 -225 -280 -358t-406 -133q-268 0 -436.5 173.5t-168.5 450.5q0 187 63.5 348.5t169.5 270t242.5 170t282.5 61.5q230 0 388 -137t196 -344h-133q-42 164 -164.5 261t-296.5 97q-119 0 -231.5 -52t-200 -143.5t-140.5 -228t-53 -293.5q0 -228 138 -370
t354 -142q172 0 314.5 96t228.5 273zM965 1587l231 266h152l-263 -266h-120z" />
    <glyph glyph-name="cacute" unicode="&#x107;" horiz-adv-x="1105" 
d="M956 338h129q-67 -164 -195 -261t-286 -97q-193 0 -311.5 122t-118.5 328q0 127 46 242t121.5 196t174.5 128.5t201 47.5q176 0 278 -93t133 -255h-129q-26 104 -99.5 165t-192.5 61q-102 0 -196 -61t-154 -170.5t-60 -239.5q0 -158 88 -253.5t229 -95.5
q105 0 196.5 63.5t145.5 172.5zM696 1198l232 266h151l-262 -266h-121z" />
    <glyph glyph-name="Ccircumflex" unicode="&#x108;" horiz-adv-x="1505" 
d="M1389 471h133q-96 -225 -280 -358t-406 -133q-268 0 -436.5 173.5t-168.5 450.5q0 187 63.5 348.5t169.5 270t242.5 170t282.5 61.5q230 0 388 -137t196 -344h-133q-42 164 -164.5 261t-296.5 97q-119 0 -231.5 -52t-200 -143.5t-140.5 -228t-53 -293.5q0 -228 138 -370
t354 -142q172 0 314.5 96t228.5 273zM737 1587l279 266h131l184 -266h-129l-129 191l-199 -191h-137z" />
    <glyph glyph-name="ccircumflex" unicode="&#x109;" horiz-adv-x="1105" 
d="M956 338h129q-67 -164 -195 -261t-286 -97q-193 0 -311.5 122t-118.5 328q0 127 46 242t121.5 196t174.5 128.5t201 47.5q176 0 278 -93t133 -255h-129q-26 104 -99.5 165t-192.5 61q-102 0 -196 -61t-154 -170.5t-60 -239.5q0 -158 88 -253.5t229 -95.5
q105 0 196.5 63.5t145.5 172.5zM471 1198l279 266h131l184 -266h-129l-129 191l-199 -191h-137z" />
    <glyph glyph-name="Cdotaccent" unicode="&#x10a;" horiz-adv-x="1505" 
d="M1389 471h133q-96 -225 -280 -358t-406 -133q-268 0 -436.5 173.5t-168.5 450.5q0 187 63.5 348.5t169.5 270t242.5 170t282.5 61.5q230 0 388 -137t196 -344h-133q-42 164 -164.5 261t-296.5 97q-119 0 -231.5 -52t-200 -143.5t-140.5 -228t-53 -293.5q0 -228 138 -370
t354 -142q172 0 314.5 96t228.5 273zM958 1659l25 143h143l-24 -143h-144z" />
    <glyph glyph-name="cdotaccent" unicode="&#x10b;" horiz-adv-x="1105" 
d="M956 338h129q-67 -164 -195 -261t-286 -97q-193 0 -311.5 122t-118.5 328q0 127 46 242t121.5 196t174.5 128.5t201 47.5q176 0 278 -93t133 -255h-129q-26 104 -99.5 165t-192.5 61q-102 0 -196 -61t-154 -170.5t-60 -239.5q0 -158 88 -253.5t229 -95.5
q105 0 196.5 63.5t145.5 172.5zM686 1260l25 143h143l-25 -143h-143z" />
    <glyph glyph-name="Ccaron" unicode="&#x10c;" horiz-adv-x="1505" 
d="M1389 471h133q-96 -225 -280 -358t-406 -133q-268 0 -436.5 173.5t-168.5 450.5q0 187 63.5 348.5t169.5 270t242.5 170t282.5 61.5q230 0 388 -137t196 -344h-133q-42 164 -164.5 261t-296.5 97q-119 0 -231.5 -52t-200 -143.5t-140.5 -228t-53 -293.5q0 -228 138 -370
t354 -142q172 0 314.5 96t228.5 273zM963 1587l-185 266h129l131 -190l197 190h137l-278 -266h-131z" />
    <glyph glyph-name="ccaron" unicode="&#x10d;" horiz-adv-x="1105" 
d="M956 338h129q-67 -164 -195 -261t-286 -97q-193 0 -311.5 122t-118.5 328q0 127 46 242t121.5 196t174.5 128.5t201 47.5q176 0 278 -93t133 -255h-129q-26 104 -99.5 165t-192.5 61q-102 0 -196 -61t-154 -170.5t-60 -239.5q0 -158 88 -253.5t229 -95.5
q105 0 196.5 63.5t145.5 172.5zM696 1198l-184 266h129l131 -190l197 190h137l-279 -266h-131z" />
    <glyph glyph-name="Dcaron" unicode="&#x10e;" horiz-adv-x="1443" 
d="M328 123h389q123 0 236 50.5t199 140t137.5 221t51.5 284.5q0 223 -134 357.5t-357 134.5h-313zM184 0l252 1434h424q275 0 439.5 -167t164.5 -438q0 -147 -40 -278t-111.5 -230.5t-166.5 -172.5t-207.5 -110.5t-231.5 -37.5h-523zM881 1587l-185 266h129l131 -190
l197 190h137l-278 -266h-131z" />
    <glyph glyph-name="dcaron" unicode="&#x10f;" horiz-adv-x="1310" 
d="M942 0l6 154h-10q-15 -20 -43 -45t-73.5 -56.5t-111.5 -52t-137 -20.5q-171 0 -285 120t-114 310q0 134 46 254t122 202t174 130t201 48q79 0 143.5 -20.5t105 -54t61.5 -58t36 -51.5h10l101 574h122l-252 -1434h-102zM604 102q77 0 150.5 37.5t131 102t93 159.5
t35.5 203q0 147 -83.5 232.5t-223.5 85.5q-77 0 -150.5 -37.5t-131 -102t-93 -159.5t-35.5 -203q0 -147 83.5 -232.5t223.5 -85.5zM1362 1126l127 308h137l-168 -308h-96z" />
    <glyph glyph-name="Dcroat" unicode="&#x110;" horiz-adv-x="1495" 
d="M236 0l116 666h-194l20 112h193l116 656h424q275 0 440 -167.5t165 -437.5q0 -182 -62.5 -339.5t-167 -263.5t-242 -166t-286.5 -60h-522zM379 123h389q123 0 236 50.5t199.5 140t138 221.5t51.5 284q0 223 -134.5 357.5t-357.5 134.5h-313l-94 -533h401l-21 -112h-401z
" />
    <glyph glyph-name="dslash" unicode="&#x111;" horiz-adv-x="1187" 
d="M909 0l4 127h-10q-51 -57 -134 -102t-198 -45q-170 0 -284.5 116.5t-114.5 292.5q0 116 41 219.5t109.5 176t160.5 115t191 42.5q75 0 138.5 -22t104 -56.5t61.5 -59t34 -46.5h10l65 379h-348l23 123h348l31 174h123l-31 -174h174l-23 -123h-174l-198 -1137h-103z
M602 102q73 0 141.5 30t121 82.5t84.5 130t32 167.5q0 140 -83.5 223.5t-223.5 83.5q-98 0 -184 -50t-140.5 -145t-54.5 -214q0 -140 84 -224t223 -84z" />
    <glyph glyph-name="Emacron" unicode="&#x112;" horiz-adv-x="1218" 
d="M184 0l252 1434h905l-22 -123h-782l-95 -533h746l-21 -123h-745l-94 -532h782l-20 -123h-906zM637 1669l18 103h574l-19 -103h-573z" />
    <glyph glyph-name="emacron" unicode="&#x113;" horiz-adv-x="1136" 
d="M928 287h135q-12 -24 -29 -51.5t-45.5 -64.5t-66.5 -69t-84.5 -60.5t-107 -45t-126.5 -16.5q-193 0 -311.5 122t-118.5 328q0 127 46 242t121.5 196t174.5 128.5t201 47.5q192 0 306 -120t114 -320q0 -58 -9 -92l-12 -61h-819q0 -158 89 -253.5t230 -95.5q60 0 115 20.5
t94.5 53.5t63 59.5t39.5 51.5zM311 573h703q0 163 -80.5 256t-226.5 93q-141 0 -249 -101.5t-147 -247.5zM492 1280l18 102h573l-18 -102h-573z" />
    <glyph glyph-name="Ebreve" unicode="&#x114;" horiz-adv-x="1218" 
d="M184 0l252 1434h905l-22 -123h-782l-95 -533h746l-21 -123h-745l-94 -532h782l-20 -123h-906zM655 1853h113q0 -143 154 -143q67 0 112.5 39.5t63.5 103.5h110q-23 -118 -99 -181.5t-198 -63.5q-116 0 -186 62.5t-70 162.5v20z" />
    <glyph glyph-name="ebreve" unicode="&#x115;" horiz-adv-x="1136" 
d="M928 287h135q-12 -24 -29 -51.5t-45.5 -64.5t-66.5 -69t-84.5 -60.5t-107 -45t-126.5 -16.5q-193 0 -311.5 122t-118.5 328q0 127 46 242t121.5 196t174.5 128.5t201 47.5q192 0 306 -120t114 -320q0 -58 -9 -92l-12 -61h-819q0 -158 89 -253.5t230 -95.5q60 0 115 20.5
t94.5 53.5t63 59.5t39.5 51.5zM311 573h703q0 163 -80.5 256t-226.5 93q-141 0 -249 -101.5t-147 -247.5zM512 1454h113q0 -143 153 -143q67 0 112.5 39.5t63.5 103.5h111q-23 -118 -99 -182t-198 -64q-116 0 -186 62.5t-70 163.5v20z" />
    <glyph glyph-name="Edotaccent" unicode="&#x116;" horiz-adv-x="1218" 
d="M184 0l252 1434h905l-22 -123h-782l-95 -533h746l-21 -123h-745l-94 -532h782l-20 -123h-906zM846 1659l24 143h144l-25 -143h-143z" />
    <glyph glyph-name="edotaccent" unicode="&#x117;" horiz-adv-x="1136" 
d="M928 287h135q-12 -24 -29 -51.5t-45.5 -64.5t-66.5 -69t-84.5 -60.5t-107 -45t-126.5 -16.5q-193 0 -311.5 122t-118.5 328q0 127 46 242t121.5 196t174.5 128.5t201 47.5q192 0 306 -120t114 -320q0 -58 -9 -92l-12 -61h-819q0 -158 89 -253.5t230 -95.5q60 0 115 20.5
t94.5 53.5t63 59.5t39.5 51.5zM311 573h703q0 163 -80.5 256t-226.5 93q-141 0 -249 -101.5t-147 -247.5zM696 1260l25 143h143l-24 -143h-144z" />
    <glyph glyph-name="Eogonek" unicode="&#x118;" horiz-adv-x="1218" 
d="M184 0l252 1434h905l-22 -123h-782l-95 -533h746l-21 -123h-745l-94 -532h782l-20 -123q-69 -27 -111.5 -71t-42.5 -93q0 -61 80 -61h33l-19 -103h-47q-70 0 -109.5 43t-39.5 101q0 65 42.5 115t100.5 69h-793z" />
    <glyph glyph-name="eogonek" unicode="&#x119;" horiz-adv-x="1136" 
d="M627 -328h-47q-70 0 -110 43t-40 101q0 54 30 98.5t75 69.5q-167 24 -264 141t-97 305q0 127 46 242t121.5 196t174.5 128.5t201 47.5q192 0 306 -120t114 -320q0 -58 -9 -92l-12 -61h-819q0 -158 89 -253.5t230 -95.5q60 0 115 20.5t94.5 53.5t63 59.5t39.5 51.5h135
q-15 -30 -34 -60t-57.5 -73.5t-82 -77t-108 -60.5t-136.5 -34q-113 -65 -113 -146q0 -61 80 -61h33zM311 573h703q0 163 -80.5 256t-226.5 93q-141 0 -249 -101.5t-147 -247.5z" />
    <glyph glyph-name="Ecaron" unicode="&#x11a;" horiz-adv-x="1218" 
d="M184 0l252 1434h905l-22 -123h-782l-95 -533h746l-21 -123h-745l-94 -532h782l-20 -123h-906zM850 1587l-184 266h129l131 -190l196 190h138l-279 -266h-131z" />
    <glyph glyph-name="ecaron" unicode="&#x11b;" horiz-adv-x="1136" 
d="M928 287h135q-12 -24 -29 -51.5t-45.5 -64.5t-66.5 -69t-84.5 -60.5t-107 -45t-126.5 -16.5q-193 0 -311.5 122t-118.5 328q0 127 46 242t121.5 196t174.5 128.5t201 47.5q192 0 306 -120t114 -320q0 -58 -9 -92l-12 -61h-819q0 -158 89 -253.5t230 -95.5q60 0 115 20.5
t94.5 53.5t63 59.5t39.5 51.5zM311 573h703q0 163 -80.5 256t-226.5 93q-141 0 -249 -101.5t-147 -247.5zM696 1198l-184 266h129l131 -190l197 190h137l-279 -266h-131z" />
    <glyph glyph-name="Gcircumflex" unicode="&#x11c;" horiz-adv-x="1576" 
d="M1317 0l20 215h-10q-55 -68 -127 -119q-165 -116 -364 -116q-268 0 -436.5 173.5t-168.5 450.5q0 187 63.5 348.5t169.5 270t242.5 170t282.5 61.5q227 0 387 -124t197 -326h-133q-44 148 -169.5 237.5t-291.5 89.5q-119 0 -231.5 -52t-200 -143.5t-140.5 -228
t-53 -293.5q0 -228 138 -370t354 -142q71 0 141.5 19.5t136 59t119.5 94.5t93.5 132t56.5 166l6 31h-461l20 123h594l-133 -727h-102zM737 1587l279 266h131l184 -266h-129l-129 191l-199 -191h-137z" />
    <glyph glyph-name="gcircumflex" unicode="&#x11d;" horiz-adv-x="1193" 
d="M305 451q0 -140 75 -213.5t222 -73.5q81 0 153.5 33.5t127 93.5t86.5 149t32 195q0 140 -74.5 213.5t-221.5 73.5q-166 0 -283 -131.5t-117 -339.5zM121 -82h123q0 -97 80 -161t227 -64q138 0 234.5 76.5t119.5 201.5l41 244h-10q-12 -20 -41 -46t-74.5 -56.5t-112 -51
t-137.5 -20.5q-179 0 -284 107t-105 292q0 131 43 245t115.5 192t170 122.5t204.5 44.5q231 0 336 -184h10l49 164h102l-186 -1063q-32 -179 -162.5 -285t-322.5 -106q-186 0 -303 102.5t-117 245.5zM492 1198l278 266h131l184 -266h-129l-129 191l-198 -191h-137z" />
    <glyph glyph-name="Gbreve" unicode="&#x11e;" horiz-adv-x="1576" 
d="M1317 0l20 215h-10q-55 -68 -127 -119q-165 -116 -364 -116q-268 0 -436.5 173.5t-168.5 450.5q0 187 63.5 348.5t169.5 270t242.5 170t282.5 61.5q227 0 387 -124t197 -326h-133q-44 148 -169.5 237.5t-291.5 89.5q-119 0 -231.5 -52t-200 -143.5t-140.5 -228
t-53 -293.5q0 -228 138 -370t354 -142q71 0 141.5 19.5t136 59t119.5 94.5t93.5 132t56.5 166l6 31h-461l20 123h594l-133 -727h-102zM768 1853h113q0 -143 153 -143q67 0 112.5 39.5t63.5 103.5h111q-23 -118 -99 -181.5t-198 -63.5q-116 0 -186 62.5t-70 162.5v20z" />
    <glyph glyph-name="gbreve" unicode="&#x11f;" horiz-adv-x="1193" 
d="M305 451q0 -140 75 -213.5t222 -73.5q81 0 153.5 33.5t127 93.5t86.5 149t32 195q0 140 -74.5 213.5t-221.5 73.5q-166 0 -283 -131.5t-117 -339.5zM121 -82h123q0 -97 80 -161t227 -64q138 0 234.5 76.5t119.5 201.5l41 244h-10q-12 -20 -41 -46t-74.5 -56.5t-112 -51
t-137.5 -20.5q-179 0 -284 107t-105 292q0 131 43 245t115.5 192t170 122.5t204.5 44.5q231 0 336 -184h10l49 164h102l-186 -1063q-32 -179 -162.5 -285t-322.5 -106q-186 0 -303 102.5t-117 245.5zM532 1454h113q0 -143 154 -143q67 0 112.5 39.5t63.5 103.5h110
q-23 -118 -99 -182t-198 -64q-116 0 -186 62.5t-70 163.5v20z" />
    <glyph glyph-name="Gdotaccent" unicode="&#x120;" horiz-adv-x="1576" 
d="M1317 0l20 215h-10q-55 -68 -127 -119q-165 -116 -364 -116q-268 0 -436.5 173.5t-168.5 450.5q0 187 63.5 348.5t169.5 270t242.5 170t282.5 61.5q227 0 387 -124t197 -326h-133q-44 148 -169.5 237.5t-291.5 89.5q-119 0 -231.5 -52t-200 -143.5t-140.5 -228
t-53 -293.5q0 -228 138 -370t354 -142q71 0 141.5 19.5t136 59t119.5 94.5t93.5 132t56.5 166l6 31h-461l20 123h594l-133 -727h-102zM963 1659l24 143h143l-24 -143h-143z" />
    <glyph glyph-name="gdotaccent" unicode="&#x121;" horiz-adv-x="1193" 
d="M305 451q0 -140 75 -213.5t222 -73.5q81 0 153.5 33.5t127 93.5t86.5 149t32 195q0 140 -74.5 213.5t-221.5 73.5q-166 0 -283 -131.5t-117 -339.5zM121 -82h123q0 -97 80 -161t227 -64q138 0 234.5 76.5t119.5 201.5l41 244h-10q-12 -20 -41 -46t-74.5 -56.5t-112 -51
t-137.5 -20.5q-179 0 -284 107t-105 292q0 131 43 245t115.5 192t170 122.5t204.5 44.5q231 0 336 -184h10l49 164h102l-186 -1063q-32 -179 -162.5 -285t-322.5 -106q-186 0 -303 102.5t-117 245.5zM717 1260l24 143h144l-25 -143h-143z" />
    <glyph glyph-name="Gcommaaccent" unicode="&#x122;" horiz-adv-x="1576" 
d="M1317 0l20 215h-10q-55 -68 -127 -119q-165 -116 -364 -116q-268 0 -436.5 173.5t-168.5 450.5q0 187 63.5 348.5t169.5 270t242.5 170t282.5 61.5q227 0 387 -124t197 -326h-133q-44 148 -169.5 237.5t-291.5 89.5q-119 0 -231.5 -52t-200 -143.5t-140.5 -228
t-53 -293.5q0 -228 138 -370t354 -142q71 0 141.5 19.5t136 59t119.5 94.5t93.5 132t56.5 166l6 31h-461l20 123h594l-133 -727h-102zM645 -471l115 307h143l-168 -307h-90z" />
    <glyph glyph-name="gcommaaccent" unicode="&#x123;" horiz-adv-x="1193" 
d="M713 1198l168 307h90l-115 -307h-143zM305 451q0 -140 75 -213.5t222 -73.5q81 0 153.5 33.5t127 93.5t86.5 149t32 195q0 140 -74.5 213.5t-221.5 73.5q-166 0 -283 -131.5t-117 -339.5zM121 -82h123q0 -97 80 -161t227 -64q138 0 234.5 76.5t119.5 201.5l41 244h-10
q-12 -20 -41 -46t-74.5 -56.5t-112 -51t-137.5 -20.5q-179 0 -284 107t-105 292q0 131 43 245t115.5 192t170 122.5t204.5 44.5q231 0 336 -184h10l49 164h102l-186 -1063q-32 -179 -162.5 -285t-322.5 -106q-186 0 -303 102.5t-117 245.5z" />
    <glyph glyph-name="Hcircumflex" unicode="&#x124;" horiz-adv-x="1464" 
d="M184 0l252 1434h123l-115 -646h854l115 646h123l-252 -1434h-123l117 666h-854l-117 -666h-123zM707 1587l278 266h131l184 -266h-129l-129 191l-198 -191h-137z" />
    <glyph glyph-name="hcircumflex" unicode="&#x125;" horiz-adv-x="1198" 
d="M174 0l252 1434h123l-96 -543h10q39 45 80 76q109 77 235 77q160 0 264.5 -104t104.5 -264q0 -34 -10 -92l-103 -584h-123l105 594q8 31 8 72q0 108 -75.5 182t-190.5 74q-127 0 -230.5 -94t-124.5 -214l-106 -614h-123zM553 1587l278 266h132l184 -266h-129l-129 191
l-199 -191h-137z" />
    <glyph glyph-name="Hbar" unicode="&#x126;" horiz-adv-x="1536" 
d="M215 0l182 1044h-178l21 123h180l47 267h123l-49 -267h854l49 267h123l-47 -267h174l-21 -123h-176l-182 -1044h-123l117 666h-854l-117 -666h-123zM475 788h854l45 256h-854z" />
    <glyph glyph-name="hbar" unicode="&#x127;" horiz-adv-x="1177" 
d="M174 0l201 1147h-174l20 113h174l31 174h123l-31 -174h348l-20 -113h-348l-66 -379h10q39 45 80 76q110 78 236 78q160 0 264 -104.5t104 -264.5q0 -34 -10 -92l-82 -461h-123l84 471q9 34 9 72q0 108 -76 182t-191 74q-127 0 -230 -93.5t-124 -213.5l-86 -492h-123z" />
    <glyph glyph-name="Imacron" unicode="&#x12a;" horiz-adv-x="491" 
d="M184 0l252 1434h123l-252 -1434h-123zM248 1669l18 103h574l-19 -103h-573z" />
    <glyph glyph-name="imacron" unicode="&#x12b;" horiz-adv-x="450" 
d="M164 0l180 1024h123l-180 -1024h-123zM162 1280l18 102h574l-19 -102h-573z" />
    <glyph glyph-name="Ibreve" unicode="&#x12c;" horiz-adv-x="491" 
d="M184 0l252 1434h123l-252 -1434h-123zM268 1853h113q0 -143 154 -143q67 0 112.5 39.5t63.5 103.5h110q-23 -118 -99 -181.5t-198 -63.5q-116 0 -186 62.5t-70 162.5v20z" />
    <glyph glyph-name="ibreve" unicode="&#x12d;" horiz-adv-x="450" 
d="M164 0l180 1024h123l-180 -1024h-123zM186 1454h113q0 -143 154 -143q67 0 112.5 39.5t63.5 103.5h110q-23 -118 -99 -182t-198 -64q-116 0 -186 62.5t-70 163.5v20z" />
    <glyph glyph-name="Iogonek" unicode="&#x12e;" horiz-adv-x="491" 
d="M238 -328h-48q-70 0 -109.5 43t-39.5 101q0 65 42.5 115t100.5 69l252 1434h123l-252 -1434h-10q-69 -27 -111.5 -71t-42.5 -93q0 -61 80 -61h33z" />
    <glyph glyph-name="iogonek" unicode="&#x12f;" horiz-adv-x="450" 
d="M375 1260l24 143h144l-25 -143h-143zM217 -328h-47q-70 0 -110 43t-40 101q0 65 43 115t101 69l180 1024h123l-180 -1024h-11q-69 -27 -111 -71t-42 -93q0 -61 80 -61h33z" />
    <glyph glyph-name="Idot" unicode="&#x130;" horiz-adv-x="491" 
d="M184 0l252 1434h123l-252 -1434h-123zM463 1659l24 143h144l-25 -143h-143z" />
    <glyph glyph-name="dotlessi" unicode="&#x131;" horiz-adv-x="450" 
d="M164 0l180 1024h123l-180 -1024h-123z" />
    <glyph glyph-name="uni0132" unicode="&#x132;" horiz-adv-x="1187" 
d="M184 0l252 1434h123l-252 -1434h-123zM420 0l20 123h348q66 0 99.5 28t44.5 85l211 1198h123l-213 -1209q-21 -119 -83.5 -172t-191.5 -53h-358z" />
    <glyph glyph-name="uni0133" unicode="&#x133;" horiz-adv-x="870" 
d="M164 0l180 1024h123l-180 -1024h-123zM375 1260l24 143h144l-25 -143h-143zM276 -410l23 123h172q62 0 74 72l219 1239h123l-225 -1270q-28 -164 -193 -164h-193zM795 1260l24 143h144l-25 -143h-143z" />
    <glyph glyph-name="Jcircumflex" unicode="&#x134;" horiz-adv-x="798" 
d="M31 0l20 123h348q66 0 99.5 28t44.5 85l211 1198h123l-213 -1209q-21 -119 -83.5 -172t-191.5 -53h-358zM532 1587l279 266h131l184 -266h-129l-129 191l-198 -191h-138z" />
    <glyph glyph-name="jcircumflex" unicode="&#x135;" horiz-adv-x="450" 
d="M-145 -410l22 123h172q62 0 74 72l219 1239h123l-225 -1270q-28 -164 -193 -164h-192zM133 1198l279 266h131l184 -266h-129l-129 191l-199 -191h-137z" />
    <glyph glyph-name="Kcommaaccent" unicode="&#x136;" horiz-adv-x="1157" 
d="M184 0l252 1434h123l-119 -676l768 676h164l-805 -715l590 -719h-158l-569 696l-123 -696h-123zM438 -471l115 307h143l-168 -307h-90z" />
    <glyph glyph-name="kcommaaccent" unicode="&#x137;" horiz-adv-x="983" 
d="M174 0l252 1434h123l-156 -881l582 471h178l-633 -510l457 -514h-162l-432 492l-86 -492h-123zM356 -471l115 307h143l-168 -307h-90z" />
    <glyph glyph-name="Lacute" unicode="&#x139;" horiz-adv-x="1085" 
d="M184 0l252 1434h123l-231 -1311h737l-21 -123h-860zM471 1587l231 266h152l-262 -266h-121z" />
    <glyph glyph-name="lacute" unicode="&#x13a;" horiz-adv-x="471" 
d="M174 0l252 1434h123l-252 -1434h-123zM457 1587l231 266h152l-262 -266h-121z" />
    <glyph glyph-name="Lcommaaccent" unicode="&#x13b;" horiz-adv-x="1085" 
d="M184 0l252 1434h123l-231 -1311h737l-21 -123h-860zM440 -471l115 307h143l-168 -307h-90z" />
    <glyph glyph-name="lcommaaccent" unicode="&#x13c;" horiz-adv-x="471" 
d="M174 0l252 1434h123l-252 -1434h-123zM29 -471l114 307h144l-168 -307h-90z" />
    <glyph glyph-name="Lcaron" unicode="&#x13d;" horiz-adv-x="1085" 
d="M184 0l252 1434h123l-231 -1311h737l-21 -123h-860zM657 1126l127 308h138l-168 -308h-97z" />
    <glyph glyph-name="lcaron" unicode="&#x13e;" horiz-adv-x="552" 
d="M174 0l252 1434h123l-252 -1434h-123zM604 1126l127 308h137l-168 -308h-96z" />
    <glyph glyph-name="Ldot" unicode="&#x13f;" horiz-adv-x="1085" 
d="M840 707l24 143h144l-25 -143h-143zM184 0l252 1434h123l-231 -1311h737l-21 -123h-860z" />
    <glyph glyph-name="ldot" unicode="&#x140;" horiz-adv-x="706" 
d="M631 666l24 143h144l-25 -143h-143zM174 0l252 1434h123l-252 -1434h-123z" />
    <glyph glyph-name="Lslash" unicode="&#x141;" horiz-adv-x="1136" 
d="M225 0l109 618l-187 -65l23 123l184 65l123 693h123l-115 -646l373 134l-22 -123l-371 -133l-96 -543h737l-21 -123h-860z" />
    <glyph glyph-name="lslash" unicode="&#x142;" horiz-adv-x="542" 
d="M207 0l112 639l-178 -66l21 117l180 66l117 678h123l-111 -631l182 69l-20 -116l-182 -70l-121 -686h-123z" />
    <glyph glyph-name="Nacute" unicode="&#x143;" horiz-adv-x="1464" 
d="M184 0l252 1434h221l488 -1291h41l227 1291h123l-252 -1434h-221l-488 1290h-40l-228 -1290h-123zM928 1587l231 266h152l-262 -266h-121z" />
    <glyph glyph-name="nacute" unicode="&#x144;" horiz-adv-x="1187" 
d="M164 0l180 1024h102l-4 -133h11q40 47 79 76q109 77 236 77q160 0 264.5 -104t104.5 -264q0 -28 -11 -92l-102 -584h-123l105 594q8 31 8 72q0 108 -75.5 182t-190.5 74q-127 0 -230.5 -94t-124.5 -214l-106 -614h-123zM737 1198l232 266h151l-262 -266h-121z" />
    <glyph glyph-name="Ncommaaccent" unicode="&#x145;" horiz-adv-x="1464" 
d="M184 0l252 1434h221l488 -1291h41l227 1291h123l-252 -1434h-221l-488 1290h-40l-228 -1290h-123zM561 -471l115 307h143l-168 -307h-90z" />
    <glyph glyph-name="ncommaaccent" unicode="&#x146;" horiz-adv-x="1187" 
d="M164 0l180 1024h102l-4 -133h11q40 47 79 76q109 77 236 77q160 0 264.5 -104t104.5 -264q0 -28 -11 -92l-102 -584h-123l105 594q8 31 8 72q0 108 -75.5 182t-190.5 74q-127 0 -230.5 -94t-124.5 -214l-106 -614h-123zM410 -471l114 307h144l-168 -307h-90z" />
    <glyph glyph-name="Ncaron" unicode="&#x147;" horiz-adv-x="1464" 
d="M184 0l252 1434h221l488 -1291h41l227 1291h123l-252 -1434h-221l-488 1290h-40l-228 -1290h-123zM942 1587l-184 266h129l131 -190l196 190h138l-279 -266h-131z" />
    <glyph glyph-name="ncaron" unicode="&#x148;" horiz-adv-x="1187" 
d="M164 0l180 1024h102l-4 -133h11q40 47 79 76q109 77 236 77q160 0 264.5 -104t104.5 -264q0 -28 -11 -92l-102 -584h-123l105 594q8 31 8 72q0 108 -75.5 182t-190.5 74q-127 0 -230.5 -94t-124.5 -214l-106 -614h-123zM727 1198l-184 266h129l131 -190l196 190h138
l-279 -266h-131z" />
    <glyph glyph-name="napostrophe" unicode="&#x149;" horiz-adv-x="1198" 
d="M174 0l180 1024h103l-4 -133h10q39 45 80 76q109 77 235 77q160 0 264.5 -104t104.5 -264q0 -34 -10 -92l-103 -584h-123l105 594q8 31 8 72q0 108 -75.5 182t-190.5 74q-127 0 -230.5 -94t-124.5 -214l-106 -614h-123zM227 1167l127 308h138l-168 -308h-97z" />
    <glyph glyph-name="Eng" unicode="&#x14a;" horiz-adv-x="1464" 
d="M184 0l252 1434h221l488 -1291h41l227 1291h123l-285 -1618q-21 -119 -83.5 -172.5t-190.5 -53.5h-195l21 123h184q66 0 99 28t44 85l31 174h-98l-488 1290h-40l-228 -1290h-123z" />
    <glyph glyph-name="eng" unicode="&#x14b;" horiz-adv-x="1187" 
d="M553 -410l22 123h213q62 0 74 72l144 809q8 31 8 72q0 108 -75.5 182t-190.5 74q-127 0 -230.5 -94t-124.5 -214l-106 -614h-123l180 1024h102l-4 -133h11q40 47 79 76q109 77 236 77q160 0 264.5 -104t104.5 -264q0 -28 -11 -92l-147 -830q-28 -164 -193 -164h-233z" />
    <glyph glyph-name="Omacron" unicode="&#x14c;" horiz-adv-x="1576" 
d="M1470 819q0 228 -137.5 370t-353.5 142q-119 0 -231.5 -52t-200 -143.5t-140.5 -228t-53 -293.5q0 -228 138 -370t354 -142q119 0 231.5 52t199.5 143.5t140 228t53 293.5zM1593 829q0 -182 -65.5 -343.5t-172 -270.5t-242.5 -172t-277 -63q-268 0 -436.5 173.5
t-168.5 450.5q0 147 42.5 281t116 236t169.5 178t207 115.5t223 39.5q268 0 436 -174t168 -451zM768 1669l18 103h574l-19 -103h-573z" />
    <glyph glyph-name="omacron" unicode="&#x14d;" 
d="M176 430q0 127 46 242t121.5 196t174.5 128.5t201 47.5q193 0 311.5 -122t118.5 -328q0 -127 -46 -242t-121.5 -196t-174.5 -128.5t-201 -47.5q-193 0 -311.5 122t-118.5 328zM1026 573q0 158 -88 253.5t-229 95.5q-102 0 -196 -61t-154 -170.5t-60 -239.5
q0 -158 88 -253.5t229 -95.5q102 0 196 61t154 170.5t60 239.5zM494 1280l18 102h573l-18 -102h-573z" />
    <glyph glyph-name="Obreve" unicode="&#x14e;" horiz-adv-x="1576" 
d="M1470 819q0 228 -137.5 370t-353.5 142q-119 0 -231.5 -52t-200 -143.5t-140.5 -228t-53 -293.5q0 -228 138 -370t354 -142q119 0 231.5 52t199.5 143.5t140 228t53 293.5zM1593 829q0 -182 -65.5 -343.5t-172 -270.5t-242.5 -172t-277 -63q-268 0 -436.5 173.5
t-168.5 450.5q0 147 42.5 281t116 236t169.5 178t207 115.5t223 39.5q268 0 436 -174t168 -451zM778 1853h113q0 -143 153 -143q67 0 113 39.5t64 103.5h110q-23 -118 -99 -181.5t-198 -63.5q-116 0 -186 62.5t-70 162.5v20z" />
    <glyph glyph-name="obreve" unicode="&#x14f;" 
d="M176 430q0 127 46 242t121.5 196t174.5 128.5t201 47.5q193 0 311.5 -122t118.5 -328q0 -127 -46 -242t-121.5 -196t-174.5 -128.5t-201 -47.5q-193 0 -311.5 122t-118.5 328zM1026 573q0 158 -88 253.5t-229 95.5q-102 0 -196 -61t-154 -170.5t-60 -239.5
q0 -158 88 -253.5t229 -95.5q102 0 196 61t154 170.5t60 239.5zM512 1454h113q0 -143 153 -143q67 0 112.5 39.5t63.5 103.5h111q-23 -118 -99 -182t-198 -64q-116 0 -186 62.5t-70 163.5v20z" />
    <glyph glyph-name="Ohungarumlaut" unicode="&#x150;" horiz-adv-x="1576" 
d="M1470 819q0 228 -137.5 370t-353.5 142q-119 0 -231.5 -52t-200 -143.5t-140.5 -228t-53 -293.5q0 -228 138 -370t354 -142q119 0 231.5 52t199.5 143.5t140 228t53 293.5zM1593 829q0 -182 -65.5 -343.5t-172 -270.5t-242.5 -172t-277 -63q-268 0 -436.5 173.5
t-168.5 450.5q0 147 42.5 281t116 236t169.5 178t207 115.5t223 39.5q268 0 436 -174t168 -451zM829 1587l232 266h151l-262 -266h-121zM1126 1587l232 266h151l-262 -266h-121z" />
    <glyph glyph-name="ohungarumlaut" unicode="&#x151;" 
d="M176 430q0 127 46 242t121.5 196t174.5 128.5t201 47.5q193 0 311.5 -122t118.5 -328q0 -127 -46 -242t-121.5 -196t-174.5 -128.5t-201 -47.5q-193 0 -311.5 122t-118.5 328zM1026 573q0 158 -88 253.5t-229 95.5q-102 0 -196 -61t-154 -170.5t-60 -239.5
q0 -158 88 -253.5t229 -95.5q102 0 196 61t154 170.5t60 239.5zM553 1198l231 266h152l-262 -266h-121zM850 1198l231 266h152l-262 -266h-121z" />
    <glyph glyph-name="OE" unicode="&#x152;" horiz-adv-x="2318" 
d="M1284 0l41 236h-8q-80 -110 -220.5 -183t-283.5 -73q-167 0 -299.5 76t-208.5 219t-76 329q0 144 40 277t111 235.5t163.5 179.5t201.5 117.5t222 40.5q178 0 307.5 -92.5t193.5 -245.5h13l55 318h905l-22 -123h-783l-94 -533h746l-21 -123h-745l-95 -532h783l-21 -123
h-905zM823 102q119 0 225.5 52t186 144t126 227.5t46.5 293.5q0 233 -119.5 372.5t-331.5 139.5q-114 0 -223.5 -54t-193.5 -147t-135.5 -228.5t-51.5 -287.5q0 -233 133 -372.5t338 -139.5z" />
    <glyph glyph-name="oe" unicode="&#x153;" horiz-adv-x="1904" 
d="M1706 287h135q-12 -24 -29 -51.5t-45.5 -64.5t-66.5 -69t-84.5 -60.5t-107 -45t-126.5 -16.5q-266 0 -378 245q-26 -40 -60.5 -78t-86.5 -78t-123 -64.5t-150 -24.5q-186 0 -298 115.5t-112 314.5q0 142 42.5 262.5t115 201t166.5 125.5t198 45q76 0 141 -22t110.5 -59
t76.5 -77.5t51 -86.5q69 109 176 177t244 68q192 0 306 -120t114 -320q0 -51 -8 -82l-13 -61h-804q0 -167 76.5 -263t226.5 -96q191 0 313 185zM1104 573h688q0 163 -80.5 256t-226.5 93q-140 0 -240.5 -100.5t-140.5 -248.5zM594 102q73 0 143 35.5t124.5 98.5t88 156.5
t33.5 201.5q0 151 -82 239.5t-215 88.5q-73 0 -143 -35.5t-124.5 -98.5t-88 -156.5t-33.5 -201.5q0 -151 82 -239.5t215 -88.5z" />
    <glyph glyph-name="Racute" unicode="&#x154;" horiz-adv-x="1320" 
d="M184 0l252 1434h598q149 0 248.5 -106.5t99.5 -272.5q0 -216 -139.5 -354t-361.5 -138h-148l496 -563h-164l-496 563h-163l-99 -563h-123zM428 686h473q161 0 260 98.5t99 259.5q0 130 -64 198.5t-182 68.5h-477zM836 1587l231 266h152l-263 -266h-120z" />
    <glyph glyph-name="racute" unicode="&#x155;" horiz-adv-x="696" 
d="M164 0l180 1024h102l-8 -102h11q82 102 206 102h201l-22 -123h-191q-94 0 -154.5 -57t-78.5 -148l-123 -696h-123zM573 1198l232 266h151l-262 -266h-121z" />
    <glyph glyph-name="Rcommaaccent" unicode="&#x156;" horiz-adv-x="1320" 
d="M184 0l252 1434h598q149 0 248.5 -106.5t99.5 -272.5q0 -216 -139.5 -354t-361.5 -138h-148l496 -563h-164l-496 563h-163l-99 -563h-123zM428 686h473q161 0 260 98.5t99 259.5q0 130 -64 198.5t-182 68.5h-477zM500 -471l114 307h144l-168 -307h-90z" />
    <glyph glyph-name="rcommaaccent" unicode="&#x157;" horiz-adv-x="696" 
d="M164 0l180 1024h102l-8 -102h11q82 102 206 102h201l-22 -123h-191q-94 0 -154.5 -57t-78.5 -148l-123 -696h-123zM20 -471l115 307h144l-168 -307h-91z" />
    <glyph glyph-name="Rcaron" unicode="&#x158;" horiz-adv-x="1320" 
d="M184 0l252 1434h598q149 0 248.5 -106.5t99.5 -272.5q0 -216 -139.5 -354t-361.5 -138h-148l496 -563h-164l-496 563h-163l-99 -563h-123zM428 686h473q161 0 260 98.5t99 259.5q0 130 -64 198.5t-182 68.5h-477zM870 1587l-184 266h129l131 -190l197 190h137l-279 -266
h-131z" />
    <glyph glyph-name="rcaron" unicode="&#x159;" horiz-adv-x="696" 
d="M164 0l180 1024h102l-8 -102h11q82 102 206 102h201l-22 -123h-191q-94 0 -154.5 -57t-78.5 -148l-123 -696h-123zM563 1198l-184 266h129l131 -190l197 190h137l-279 -266h-131z" />
    <glyph glyph-name="Sacute" unicode="&#x15a;" horiz-adv-x="1280" 
d="M188 420h123q-2 -2 -2 -6q-2 -2 -2 -15q0 -123 111.5 -210t308.5 -87q180 0 274.5 81t94.5 216q0 87 -57 144t-179 92l-215 53q-150 37 -233.5 121t-83.5 205q0 189 137.5 314.5t363.5 125.5q238 0 370 -112.5t132 -286.5q0 -3 -1 -12t-1 -13q-2 -6 -2 -16h-121v6
q0 3 1 7t1 7q0 129 -102 213t-287 84q-163 0 -265.5 -88.5t-102.5 -208.5q0 -85 58 -139.5t177 -85.5l195 -51q173 -49 255.5 -132t82.5 -206q0 -197 -135.5 -318.5t-376.5 -121.5q-244 0 -383.5 117t-139.5 292q0 13 2 19q0 8 2 12zM819 1587l232 266h151l-262 -266h-121z
" />
    <glyph glyph-name="sacute" unicode="&#x15b;" horiz-adv-x="983" 
d="M135 297h123q0 -81 78.5 -138t218.5 -57q119 0 182.5 51.5t63.5 133.5q0 49 -34 83.5t-110 57.5l-196 59q-110 36 -161.5 92.5t-51.5 147.5q0 135 98.5 226t269.5 91q177 0 283.5 -87.5t106.5 -208.5q0 -3 -1 -7.5t-1 -7.5v-6h-121v10q0 75 -73.5 130t-203.5 55
q-114 0 -174.5 -52.5t-60.5 -121.5q0 -105 133 -146l194 -59q226 -71 226 -236q0 -142 -104.5 -234.5t-284.5 -92.5q-185 0 -292.5 89t-107.5 218v10zM604 1198l232 266h151l-262 -266h-121z" />
    <glyph glyph-name="Scircumflex" unicode="&#x15c;" horiz-adv-x="1280" 
d="M188 420h123q-2 -2 -2 -6q-2 -2 -2 -15q0 -123 111.5 -210t308.5 -87q180 0 274.5 81t94.5 216q0 87 -57 144t-179 92l-215 53q-150 37 -233.5 121t-83.5 205q0 189 137.5 314.5t363.5 125.5q238 0 370 -112.5t132 -286.5q0 -3 -1 -12t-1 -13q-2 -6 -2 -16h-121v6
q0 3 1 7t1 7q0 129 -102 213t-287 84q-163 0 -265.5 -88.5t-102.5 -208.5q0 -85 58 -139.5t177 -85.5l195 -51q173 -49 255.5 -132t82.5 -206q0 -197 -135.5 -318.5t-376.5 -121.5q-244 0 -383.5 117t-139.5 292q0 13 2 19q0 8 2 12zM584 1587l278 266h131l185 -266h-129
l-129 191l-199 -191h-137z" />
    <glyph glyph-name="scircumflex" unicode="&#x15d;" horiz-adv-x="983" 
d="M135 297h123q0 -81 78.5 -138t218.5 -57q119 0 182.5 51.5t63.5 133.5q0 49 -34 83.5t-110 57.5l-196 59q-110 36 -161.5 92.5t-51.5 147.5q0 135 98.5 226t269.5 91q177 0 283.5 -87.5t106.5 -208.5q0 -3 -1 -7.5t-1 -7.5v-6h-121v10q0 75 -73.5 130t-203.5 55
q-114 0 -174.5 -52.5t-60.5 -121.5q0 -105 133 -146l194 -59q226 -71 226 -236q0 -142 -104.5 -234.5t-284.5 -92.5q-185 0 -292.5 89t-107.5 218v10zM379 1198l278 266h131l185 -266h-129l-129 191l-199 -191h-137z" />
    <glyph glyph-name="Scedilla" unicode="&#x15e;" horiz-adv-x="1280" 
d="M451 -410l14 93h98q92 0 92 81q0 25 -22.5 43.5t-59.5 18.5h-51l13 72l55 90q-193 29 -299.5 138t-106.5 263q0 13 2 19q0 8 2 12h123q-2 -2 -2 -6q-2 -2 -2 -15q0 -123 111.5 -210t308.5 -87q180 0 274.5 81t94.5 216q0 87 -57 144t-179 92l-215 53q-150 37 -233.5 121
t-83.5 205q0 189 137.5 314.5t363.5 125.5q238 0 370 -112.5t132 -286.5q0 -3 -1 -12t-1 -13q-2 -6 -2 -16h-121v6q0 3 1 7t1 7q0 129 -102 213t-287 84q-163 0 -265.5 -88.5t-102.5 -208.5q0 -85 58 -139.5t177 -85.5l195 -51q173 -49 255.5 -132t82.5 -206
q0 -197 -135.5 -318.5t-376.5 -121.5h-11l-51 -82q113 -32 113 -134q0 -78 -54 -126t-141 -48h-112z" />
    <glyph glyph-name="scedilla" unicode="&#x15f;" horiz-adv-x="983" 
d="M307 -410l15 93h98q92 0 92 81q0 25 -22.5 43.5t-59.5 18.5h-51l12 72l53 88q-148 23 -228.5 105.5t-80.5 195.5v10h123q0 -81 78.5 -138t218.5 -57q119 0 182.5 51.5t63.5 133.5q0 49 -34 83.5t-110 57.5l-196 59q-110 36 -161.5 92.5t-51.5 147.5q0 135 98.5 226
t269.5 91q177 0 283.5 -87.5t106.5 -208.5q0 -3 -1 -7.5t-1 -7.5v-6h-121v10q0 75 -73.5 130t-203.5 55q-114 0 -174.5 -52.5t-60.5 -121.5q0 -105 133 -146l194 -59q226 -71 226 -236q0 -137 -100.5 -230t-270.5 -97l-51 -82q112 -31 112 -134q0 -78 -54 -126t-140 -48
h-113z" />
    <glyph glyph-name="Scaron" unicode="&#x160;" horiz-adv-x="1280" 
d="M188 420h123q-2 -2 -2 -6q-2 -2 -2 -15q0 -123 111.5 -210t308.5 -87q180 0 274.5 81t94.5 216q0 87 -57 144t-179 92l-215 53q-150 37 -233.5 121t-83.5 205q0 189 137.5 314.5t363.5 125.5q238 0 370 -112.5t132 -286.5q0 -3 -1 -12t-1 -13q-2 -6 -2 -16h-121v6
q0 3 1 7t1 7q0 129 -102 213t-287 84q-163 0 -265.5 -88.5t-102.5 -208.5q0 -85 58 -139.5t177 -85.5l195 -51q173 -49 255.5 -132t82.5 -206q0 -197 -135.5 -318.5t-376.5 -121.5q-244 0 -383.5 117t-139.5 292q0 13 2 19q0 8 2 12zM819 1587l-184 266h129l131 -190
l197 190h137l-279 -266h-131z" />
    <glyph glyph-name="scaron" unicode="&#x161;" horiz-adv-x="983" 
d="M135 297h123q0 -81 78.5 -138t218.5 -57q119 0 182.5 51.5t63.5 133.5q0 49 -34 83.5t-110 57.5l-196 59q-110 36 -161.5 92.5t-51.5 147.5q0 135 98.5 226t269.5 91q177 0 283.5 -87.5t106.5 -208.5q0 -3 -1 -7.5t-1 -7.5v-6h-121v10q0 75 -73.5 130t-203.5 55
q-114 0 -174.5 -52.5t-60.5 -121.5q0 -105 133 -146l194 -59q226 -71 226 -236q0 -142 -104.5 -234.5t-284.5 -92.5q-185 0 -292.5 89t-107.5 218v10zM604 1198l-184 266h129l131 -190l197 190h137l-279 -266h-131z" />
    <glyph glyph-name="uni0162" unicode="&#x162;" horiz-adv-x="1228" 
d="M408 -410l14 93h98q92 0 92 81q0 25 -22.5 43.5t-59.5 18.5h-51l13 72l63 102h-12l229 1311h-496l23 123h1114l-22 -123h-496l-229 -1311l-64 -102q113 -32 113 -134q0 -78 -54 -126t-141 -48h-112z" />
    <glyph glyph-name="uni0163" unicode="&#x163;" horiz-adv-x="696" 
d="M215 -410l14 93h99q92 0 92 81q0 25 -22.5 43.5t-59.5 18.5h-51l12 72l66 106q-55 10 -84 47t-29 92q0 22 6 52l125 706h-164l23 123h164l49 287h123l-50 -287h256l-22 -123h-256l-125 -706q-2 -4 -2 -15v-6q0 -51 61 -51h185l-21 -123h-133l-61 -102q112 -31 112 -134
q0 -78 -54 -126t-140 -48h-113z" />
    <glyph glyph-name="Tcaron" unicode="&#x164;" horiz-adv-x="1228" 
d="M543 0l229 1311h-496l23 123h1114l-22 -123h-496l-229 -1311h-123zM795 1587l-185 266h129l131 -190l197 190h137l-278 -266h-131z" />
    <glyph glyph-name="tcaron" unicode="&#x165;" horiz-adv-x="727" 
d="M258 195l125 706h-164l23 123h164l49 287h123l-50 -287h256l-22 -123h-256l-125 -706q-2 -4 -2 -15v-6q0 -51 61 -51h185l-21 -123h-194q-76 0 -117 39.5t-41 103.5q0 22 6 52zM750 1126l127 308h137l-168 -308h-96z" />
    <glyph glyph-name="Tbar" unicode="&#x166;" horiz-adv-x="1228" 
d="M543 0l153 881h-338l23 123h338l53 307h-491l22 123h1106l-23 -123h-491l-53 -307h338l-23 -123h-338l-153 -881h-123z" />
    <glyph glyph-name="tbar" unicode="&#x167;" horiz-adv-x="696" 
d="M260 195l55 317h-163l22 123h164l47 266h-164l23 123h164l49 287h123l-50 -287h256l-22 -123h-256l-47 -266h256l-23 -123h-256l-55 -317q-2 -4 -2 -15v-6q0 -51 61 -51h185l-21 -123h-194q-76 0 -117 39.5t-41 103.5q0 22 6 52z" />
    <glyph glyph-name="Umacron" unicode="&#x16a;" horiz-adv-x="1433" 
d="M272 614l144 820h123l-144 -820q-37 -226 65 -369t314 -143q104 0 188 37.5t141.5 107.5t95 161.5t56.5 205.5l144 820h123l-144 -820q-111 -634 -624 -634q-116 0 -215 42t-168 120t-97 200.5t-2 271.5zM707 1669l18 103h573l-18 -103h-573z" />
    <glyph glyph-name="umacron" unicode="&#x16b;" horiz-adv-x="1187" 
d="M244 446l102 578h123l-104 -588q-11 -49 -11 -78q0 -111 75.5 -183.5t197.5 -72.5q129 0 226.5 80.5t117.5 200.5l112 641h123l-180 -1024h-102l2 123h-11q-37 -44 -81 -72q-100 -71 -228 -71q-165 0 -270 101.5t-105 256.5q0 50 13 108zM512 1280l18 102h574l-19 -102
h-573z" />
    <glyph glyph-name="Ubreve" unicode="&#x16c;" horiz-adv-x="1433" 
d="M272 614l144 820h123l-144 -820q-37 -226 65 -369t314 -143q104 0 188 37.5t141.5 107.5t95 161.5t56.5 205.5l144 820h123l-144 -820q-111 -634 -624 -634q-116 0 -215 42t-168 120t-97 200.5t-2 271.5zM727 1853h113q0 -143 153 -143q67 0 112.5 39.5t63.5 103.5h111
q-23 -118 -99 -181.5t-198 -63.5q-116 0 -186 62.5t-70 162.5v20z" />
    <glyph glyph-name="ubreve" unicode="&#x16d;" horiz-adv-x="1187" 
d="M244 446l102 578h123l-104 -588q-11 -49 -11 -78q0 -111 75.5 -183.5t197.5 -72.5q129 0 226.5 80.5t117.5 200.5l112 641h123l-180 -1024h-102l2 123h-11q-37 -44 -81 -72q-100 -71 -228 -71q-165 0 -270 101.5t-105 256.5q0 50 13 108zM543 1454h112q0 -143 154 -143
q67 0 112.5 39.5t63.5 103.5h111q-23 -118 -99 -182t-198 -64q-116 0 -186 62.5t-70 163.5v20z" />
    <glyph glyph-name="Uring" unicode="&#x16e;" horiz-adv-x="1433" 
d="M272 614l144 820h123l-144 -820q-37 -226 65 -369t314 -143q104 0 188 37.5t141.5 107.5t95 161.5t56.5 205.5l144 820h123l-144 -820q-111 -634 -624 -634q-116 0 -215 42t-168 120t-97 200.5t-2 271.5zM799 1720q0 86 62 145.5t143 59.5q77 0 125.5 -47t48.5 -117
q0 -86 -62 -145.5t-143 -59.5q-77 0 -125.5 47t-48.5 117zM983 1649q43 0 72.5 30t29.5 74q0 36 -25 58t-67 22q-43 0 -72.5 -30t-29.5 -74q0 -36 25 -58t67 -22z" />
    <glyph glyph-name="uring" unicode="&#x16f;" horiz-adv-x="1187" 
d="M244 446l102 578h123l-104 -588q-11 -49 -11 -78q0 -111 75.5 -183.5t197.5 -72.5q129 0 226.5 80.5t117.5 200.5l112 641h123l-180 -1024h-102l2 123h-11q-37 -44 -81 -72q-100 -71 -228 -71q-165 0 -270 101.5t-105 256.5q0 50 13 108zM614 1331q0 86 62 145.5
t143 59.5q77 0 125.5 -47t48.5 -117q0 -86 -62 -145.5t-143 -59.5q-77 0 -125.5 47t-48.5 117zM799 1260q43 0 72.5 30t29.5 74q0 36 -25 58t-67 22q-43 0 -72.5 -30.5t-29.5 -74.5q0 -36 25 -57.5t67 -21.5z" />
    <glyph glyph-name="Uhungarumlaut" unicode="&#x170;" horiz-adv-x="1433" 
d="M272 614l144 820h123l-144 -820q-37 -226 65 -369t314 -143q104 0 188 37.5t141.5 107.5t95 161.5t56.5 205.5l144 820h123l-144 -820q-111 -634 -624 -634q-116 0 -215 42t-168 120t-97 200.5t-2 271.5zM748 1587l231 266h151l-262 -266h-120zM1044 1587l232 266h151
l-262 -266h-121z" />
    <glyph glyph-name="uhungarumlaut" unicode="&#x171;" horiz-adv-x="1187" 
d="M244 446l102 578h123l-104 -588q-11 -49 -11 -78q0 -111 75.5 -183.5t197.5 -72.5q129 0 226.5 80.5t117.5 200.5l112 641h123l-180 -1024h-102l2 123h-11q-37 -44 -81 -72q-100 -71 -228 -71q-165 0 -270 101.5t-105 256.5q0 50 13 108zM573 1198l232 266h151l-262 -266
h-121zM870 1198l232 266h151l-262 -266h-121z" />
    <glyph glyph-name="Uogonek" unicode="&#x172;" horiz-adv-x="1433" 
d="M780 -328h-47q-70 0 -109.5 43t-39.5 101q0 54 29.5 98.5t74.5 69.5q-106 10 -192 56t-145.5 125.5t-80.5 192t2 256.5l144 820h123l-144 -820q-37 -226 65 -369t314 -143q104 0 188 37.5t141.5 107.5t95 161.5t56.5 205.5l144 820h123l-144 -820q-110 -606 -581 -632
q-111 -64 -111 -146q0 -61 80 -61h33z" />
    <glyph glyph-name="uogonek" unicode="&#x173;" horiz-adv-x="1187" 
d="M977 -328h-47q-70 0 -110 43t-40 101q0 65 43 115t101 69l2 123h-11q-37 -44 -81 -72q-100 -71 -228 -71q-165 0 -270 101.5t-105 256.5q0 50 13 108l102 578h123l-104 -588q-11 -49 -11 -78q0 -111 75.5 -183.5t197.5 -72.5q129 0 226.5 80.5t117.5 200.5l112 641h123
l-180 -1024q-61 -23 -102 -70t-41 -94q0 -61 80 -61h32z" />
    <glyph glyph-name="Wcircumflex" unicode="&#x174;" horiz-adv-x="1945" 
d="M389 0l-106 1434h125l94 -1311h43l563 1311h205l100 -1311h43l557 1311h133l-610 -1434h-236l-96 1260h-41l-538 -1260h-236zM922 1587l278 266h131l185 -266h-130l-129 191l-198 -191h-137z" />
    <glyph glyph-name="wcircumflex" unicode="&#x175;" horiz-adv-x="1556" 
d="M307 0l-96 1024h119l78 -891h41l393 891h205l77 -891h41l394 891h127l-457 -1024h-205l-84 870h-41l-389 -870h-203zM666 1198l278 266h131l185 -266h-130l-129 191l-198 -191h-137z" />
    <glyph glyph-name="Ycircumflex" unicode="&#x176;" horiz-adv-x="1208" 
d="M522 0l94 539l-374 895h133l307 -738h39l567 738h142l-691 -895l-94 -539h-123zM553 1587l278 266h132l184 -266h-129l-129 191l-199 -191h-137z" />
    <glyph glyph-name="ycircumflex" unicode="&#x177;" horiz-adv-x="962" 
d="M39 -410l22 123h177q29 0 47.5 13.5t36.5 44.5l92 172l-219 1081h116l174 -870h41l461 870h127l-696 -1313q-33 -62 -78 -91.5t-115 -29.5h-186zM358 1198l279 266h131l184 -266h-129l-129 191l-198 -191h-138z" />
    <glyph glyph-name="Ydieresis" unicode="&#x178;" horiz-adv-x="1208" 
d="M522 0l94 539l-374 895h133l307 -738h39l567 738h142l-691 -895l-94 -539h-123zM614 1659l25 143h143l-24 -143h-144zM963 1659l24 143h143l-24 -143h-143z" />
    <glyph glyph-name="Zacute" unicode="&#x179;" horiz-adv-x="1198" 
d="M102 0l19 113l1046 1198h-825l23 123h993l-21 -113l-1046 -1198h846l-21 -123h-1014zM778 1587l232 266h151l-262 -266h-121z" />
    <glyph glyph-name="zacute" unicode="&#x17a;" horiz-adv-x="911" 
d="M82 0l16 102l721 799h-569l22 123h738l-19 -102l-721 -799h590l-20 -123h-758zM584 1198l231 266h152l-262 -266h-121z" />
    <glyph glyph-name="Zdotaccent" unicode="&#x17b;" horiz-adv-x="1198" 
d="M102 0l19 113l1046 1198h-825l23 123h993l-21 -113l-1046 -1198h846l-21 -123h-1014zM788 1659l25 143h143l-24 -143h-144z" />
    <glyph glyph-name="zdotaccent" unicode="&#x17c;" horiz-adv-x="911" 
d="M82 0l16 102l721 799h-569l22 123h738l-19 -102l-721 -799h590l-20 -123h-758zM594 1260l24 143h144l-25 -143h-143z" />
    <glyph glyph-name="Zcaron" unicode="&#x17d;" horiz-adv-x="1198" 
d="M102 0l19 113l1046 1198h-825l23 123h993l-21 -113l-1046 -1198h846l-21 -123h-1014zM799 1587l-185 266h129l131 -190l197 190h137l-278 -266h-131z" />
    <glyph glyph-name="zcaron" unicode="&#x17e;" horiz-adv-x="911" 
d="M82 0l16 102l721 799h-569l22 123h738l-19 -102l-721 -799h590l-20 -123h-758zM584 1198l-185 266h129l131 -190l197 190h137l-278 -266h-131z" />
    <glyph glyph-name="uni018F" unicode="&#x18f;" horiz-adv-x="1556" 
d="M238 707l10 71h1200q2 14 2 41q0 228 -138 370t-354 142q-155 0 -297 -87.5t-229 -239.5h-131q100 205 283.5 327.5t384.5 122.5q268 0 436 -174t168 -451q0 -147 -42.5 -280.5t-116 -235.5t-169.5 -178t-206.5 -115.5t-223.5 -39.5q-173 0 -306 78.5t-205.5 220.5
t-72.5 325q0 67 7 103zM1434 655h-1078q-2 -2 -2 -12v-29q0 -228 131.5 -370t339.5 -142q137 0 263.5 66.5t220 194.5t125.5 292z" />
    <glyph glyph-name="florin" unicode="&#x192;" horiz-adv-x="768" 
d="M-106 -410l36 123h123q36 0 63 20t38 52l286 942h-198l39 123h194l117 377q62 166 223 166h172l-37 -123h-137q-35 0 -61 -20t-37 -52l-107 -348h217l-39 -123h-217l-293 -971q-25 -79 -82 -122.5t-141 -43.5h-159z" />
    <glyph glyph-name="Aringacute" unicode="&#x1fa;" horiz-adv-x="1290" 
d="M973 1884h4l74 103h123l-115 -123q41 -20 64.5 -58.5t23.5 -85.5q0 -86 -61.5 -145t-143.5 -59q-77 0 -125.5 46.5t-48.5 116.5q0 86 62 145.5t143 59.5zM860 1688q0 -36 25 -58t67 -22q43 0 73 30t30 74q0 36 -25 58t-67 22q-43 0 -73 -30t-30 -74zM20 0l795 1434h184
l291 -1434h-119l-79 389h-730l-215 -389h-127zM428 512h639l-160 788h-41z" />
    <glyph glyph-name="aringacute" unicode="&#x1fb;" horiz-adv-x="1095" 
d="M809 1495h4l74 102h123l-115 -122q41 -20 64.5 -58.5t23.5 -85.5q0 -86 -62 -145.5t-143 -59.5q-77 0 -125.5 47t-48.5 117q0 86 62 145.5t143 59.5zM696 1298q0 -36 25 -57.5t67 -21.5q43 0 73 30t30 74q0 36 -25 58t-67 22q-43 0 -73 -30.5t-30 -74.5zM901 430l14 72
h-333q-135 0 -206 -61.5t-71 -164.5q0 -81 56 -127.5t169 -46.5q147 0 243.5 86.5t127.5 241.5zM848 0l4 143h-10q-41 -47 -90 -82q-113 -81 -242 -81q-150 0 -239 78.5t-89 197.5q0 164 105.5 261t294.5 97h354l4 21q10 38 10 72q0 102 -64 158.5t-192 56.5
q-119 0 -190 -52.5t-92 -142.5h-123q15 64 47 119t82 100.5t123.5 71.5t163.5 26q175 0 271.5 -87t96.5 -230q0 -54 -10 -92l-113 -635h-102z" />
    <glyph glyph-name="AEacute" unicode="&#x1fc;" horiz-adv-x="1910" 
d="M-10 0l876 1434h1168l-23 -123h-788l-93 -533h748l-23 -123h-747l-94 -532h788l-20 -123h-912l68 389h-580l-237 -389h-131zM434 512h527l139 799h-178zM1167 1587l232 266h151l-262 -266h-121z" />
    <glyph glyph-name="aeacute" unicode="&#x1fd;" horiz-adv-x="1843" 
d="M408 727h-123q29 136 140.5 226.5t279.5 90.5q67 0 124 -18.5t91 -43t62 -59.5t39 -57t21 -47q78 109 180.5 167t219.5 58q192 0 306 -120t114 -320q0 -48 -9 -82l-12 -61h-805q0 -167 76.5 -263t226.5 -96q192 0 314 185h135q-12 -24 -29 -51.5t-45.5 -64.5t-66.5 -69
t-84.5 -60.5t-107 -45t-126.5 -16.5q-136 0 -233 68t-146 188q-16 -27 -37.5 -54.5t-62.5 -66t-88 -66.5t-116.5 -48.5t-145.5 -20.5q-154 0 -241 77t-87 189q0 155 104 241t295 86h355l12 62q8 31 8 72q0 102 -67 158.5t-195 56.5q-113 0 -182.5 -52.5t-93.5 -142.5z
M1051 573h688q0 163 -80.5 256t-226.5 93q-140 0 -240.5 -100.5t-140.5 -248.5zM905 440l4 21h-348q-135 0 -200.5 -54.5t-65.5 -150.5q0 -72 56 -113t169 -41q153 0 253 88t132 250zM1034 1198l232 266h151l-262 -266h-121z" />
    <glyph glyph-name="Oslashacute" unicode="&#x1fe;" horiz-adv-x="1576" 
d="M293 -72l137 195q-199 180 -199 481q0 147 42.5 281t116 236t169.5 178t207 115.5t223 39.5q175 0 316 -80l92 131h143l-141 -200q194 -178 194 -476q0 -182 -65.5 -343.5t-172 -270.5t-242.5 -172t-277 -63q-180 0 -312 75l-88 -127h-143zM504 231l727 1037
q-108 63 -252 63q-119 0 -231.5 -52t-200 -143.5t-140.5 -228t-53 -293.5q0 -242 150 -383zM1325 1198l-727 -1036q111 -60 248 -60q119 0 231.5 52t199.5 143.5t140 228t53 293.5q0 234 -145 379zM973 1587l231 266h152l-262 -266h-121z" />
    <glyph glyph-name="oslashacute" unicode="&#x1ff;" 
d="M172 -72l121 170q-121 121 -121 332q0 127 46 242t121.5 196t174.5 128.5t201 47.5q125 0 217 -51l74 103h139l-123 -170q123 -123 123 -332q0 -127 -46 -242t-121.5 -196t-174.5 -128.5t-201 -47.5q-123 0 -219 51l-72 -103h-139zM944 815l-485 -678q65 -35 153 -35
q102 0 196 61t154 170.5t60 239.5q0 148 -78 242zM373 209l483 678q-72 35 -151 35q-102 0 -196 -61t-154 -170.5t-60 -239.5q0 -148 78 -242zM696 1198l232 266h151l-262 -266h-121z" />
    <glyph glyph-name="Scommaaccent" unicode="&#x218;" horiz-adv-x="1280" 
d="M188 420h123q-2 -2 -2 -6q-2 -2 -2 -15q0 -123 111.5 -210t308.5 -87q180 0 274.5 81t94.5 216q0 87 -57 144t-179 92l-215 53q-150 37 -233.5 121t-83.5 205q0 189 137.5 314.5t363.5 125.5q238 0 370 -112.5t132 -286.5q0 -3 -1 -12t-1 -13q-2 -6 -2 -16h-121v6
q0 3 1 7t1 7q0 129 -102 213t-287 84q-163 0 -265.5 -88.5t-102.5 -208.5q0 -85 58 -139.5t177 -85.5l195 -51q173 -49 255.5 -132t82.5 -206q0 -197 -135.5 -318.5t-376.5 -121.5q-244 0 -383.5 117t-139.5 292q0 13 2 19q0 8 2 12zM471 -471l115 307h143l-168 -307h-90z
" />
    <glyph glyph-name="scommaaccent" unicode="&#x219;" horiz-adv-x="983" 
d="M135 297h123q0 -81 78.5 -138t218.5 -57q119 0 182.5 51.5t63.5 133.5q0 49 -34 83.5t-110 57.5l-196 59q-110 36 -161.5 92.5t-51.5 147.5q0 135 98.5 226t269.5 91q177 0 283.5 -87.5t106.5 -208.5q0 -3 -1 -7.5t-1 -7.5v-6h-121v10q0 75 -73.5 130t-203.5 55
q-114 0 -174.5 -52.5t-60.5 -121.5q0 -105 133 -146l194 -59q226 -71 226 -236q0 -142 -104.5 -234.5t-284.5 -92.5q-185 0 -292.5 89t-107.5 218v10zM295 -471l115 307h143l-168 -307h-90z" />
    <glyph glyph-name="uni021A" unicode="&#x21a;" horiz-adv-x="1228" 
d="M543 0l229 1311h-496l23 123h1114l-22 -123h-496l-229 -1311h-123zM395 -471l115 307h143l-168 -307h-90z" />
    <glyph glyph-name="uni021B" unicode="&#x21b;" horiz-adv-x="696" 
d="M258 195l125 706h-164l23 123h164l49 287h123l-50 -287h256l-22 -123h-256l-125 -706q-2 -4 -2 -15v-6q0 -51 61 -51h185l-21 -123h-194q-76 0 -117 39.5t-41 103.5q0 22 6 52zM205 -471l114 307h144l-168 -307h-90z" />
    <glyph glyph-name="uni0232" unicode="&#x232;" horiz-adv-x="1208" 
d="M522 0l94 539l-374 895h133l307 -738h39l567 738h142l-691 -895l-94 -539h-123zM563 1669l19 103h573l-18 -103h-574z" />
    <glyph glyph-name="uni0233" unicode="&#x233;" horiz-adv-x="962" 
d="M39 -410l22 123h177q29 0 47.5 13.5t36.5 44.5l92 172l-219 1081h116l174 -870h41l461 870h127l-696 -1313q-33 -62 -78 -91.5t-115 -29.5h-186zM381 1280l18 102h574l-19 -102h-573z" />
    <glyph glyph-name="uni0244" unicode="&#x244;" horiz-adv-x="1536" 
d="M326 614l45 267h-187l21 123h188l76 430h123l-76 -430h860l76 430h123l-76 -430h180l-20 -123h-182l-45 -267q-111 -634 -625 -634q-93 0 -175 26.5t-147.5 78.5t-108.5 128.5t-57 177t7 223.5zM494 881l-45 -267q-37 -227 64.5 -369.5t313.5 -142.5q204 0 323.5 138
t158.5 374l45 267h-860z" />
    <glyph glyph-name="uni0259" unicode="&#x259;" horiz-adv-x="1136" 
d="M182 512l13 61h819q0 158 -89.5 253.5t-230.5 95.5q-184 0 -311 -185h-135q12 24 29 51.5t45.5 64.5t66.5 69t84.5 60.5t107 45t126.5 16.5q193 0 311.5 -122t118.5 -328q0 -127 -46 -242t-121.5 -196t-174.5 -128.5t-201 -47.5q-192 0 -306 120t-114 320q0 61 8 92z
M999 451h-702q0 -163 80.5 -256t226.5 -93q141 0 248.5 101.5t146.5 247.5z" />
    <glyph glyph-name="uni0289" unicode="&#x289;" horiz-adv-x="1218" 
d="M252 446l39 220h-144l21 122h143l43 236h123l-43 -236h615l43 236h122l-43 -236h154l-20 -122h-154l-117 -666h-102l2 123h-10q-36 -42 -82 -72q-100 -71 -228 -71q-165 0 -269.5 101.5t-104.5 256.5q0 54 12 108zM414 666l-41 -230q-11 -49 -11 -78q0 -111 75.5 -183.5
t197.5 -72.5q129 0 226.5 80.5t117.5 200.5l49 283h-614z" />
    <glyph glyph-name="uni02BC" unicode="&#x2bc;" horiz-adv-x="327" 
d="M258 1126l127 308h137l-168 -308h-96z" />
    <glyph glyph-name="circumflex" unicode="&#x2c6;" horiz-adv-x="716" 
d="M276 1229l279 266h131l184 -266h-129l-129 190l-198 -190h-138z" />
    <glyph glyph-name="caron" unicode="&#x2c7;" horiz-adv-x="716" 
d="M508 1229l-184 266h129l131 -190l196 190h138l-279 -266h-131z" />
    <glyph glyph-name="breve" unicode="&#x2d8;" horiz-adv-x="675" 
d="M299 1454h113q0 -143 153 -143q67 0 112.5 39.5t63.5 103.5h111q-23 -118 -99 -182t-198 -64q-116 0 -186 62.5t-70 163.5v20z" />
    <glyph glyph-name="dotaccent" unicode="&#x2d9;" horiz-adv-x="266" 
d="M283 1260l24 143h144l-25 -143h-143z" />
    <glyph glyph-name="ring" unicode="&#x2da;" horiz-adv-x="491" 
d="M289 1372q0 86 62 145.5t143 59.5q77 0 125.5 -47t48.5 -117q0 -86 -62 -145.5t-143 -59.5q-77 0 -125.5 47t-48.5 117zM473 1300q43 0 72.5 30.5t29.5 74.5q0 36 -25 58t-67 22q-43 0 -72.5 -30.5t-29.5 -74.5q0 -36 25 -58t67 -22z" />
    <glyph glyph-name="ogonek" unicode="&#x2db;" horiz-adv-x="348" 
d="M211 -328h-47q-70 0 -110 43t-40 101q0 65 43 115t101 69l2 20h112l-2 -20q-69 -27 -111 -71t-42 -93q0 -61 80 -61h32z" />
    <glyph glyph-name="tilde" unicode="&#x2dc;" horiz-adv-x="747" 
d="M379 1229h-103q18 94 77 149.5t149 55.5q35 0 67.5 -16t53.5 -35.5t49 -35.5t55 -16q39 0 67 28t35 75h103q-18 -95 -76.5 -150t-148.5 -55q-35 0 -67.5 16t-53.5 35t-49.5 35t-55.5 16q-39 0 -67 -27.5t-35 -74.5z" />
    <glyph glyph-name="hungarumlaut" unicode="&#x2dd;" horiz-adv-x="747" 
d="M272 1229l232 266h151l-262 -266h-121zM569 1229l232 266h151l-262 -266h-121z" />
    <glyph glyph-name="acutecomb" unicode="&#x301;" horiz-adv-x="0" 
d="M-512 1638l231 267h152l-262 -267h-121z" />
    <glyph glyph-name="uni0302" unicode="&#x302;" horiz-adv-x="0" 
d="M-756 1628l279 266h131l184 -266h-129l-129 191l-198 -191h-138z" />
    <glyph glyph-name="uni0304" unicode="&#x304;" horiz-adv-x="0" 
d="M-745 1690l18 102h573l-18 -102h-573z" />
    <glyph glyph-name="uni0306" unicode="&#x306;" horiz-adv-x="0" 
d="M-711 1864h113q0 -144 154 -144q66 0 111 39.5t63 104.5h112q-23 -118 -99 -182t-198 -64q-115 0 -185.5 66.5t-70.5 168.5v11z" />
    <glyph glyph-name="uni0307" unicode="&#x307;" horiz-adv-x="0" 
d="M-514 1669l25 143h143l-25 -143h-143z" />
    <glyph glyph-name="uni0308" unicode="&#x308;" horiz-adv-x="0" 
d="M-709 1669l25 143h143l-24 -143h-144zM-360 1669l24 143h143l-24 -143h-143z" />
    <glyph glyph-name="uni030A" unicode="&#x30a;" horiz-adv-x="0" 
d="M-631 1782q0 86 62 145.5t143 59.5q77 0 125.5 -47t48.5 -117q0 -86 -62 -145.5t-143 -59.5q-77 0 -125.5 47t-48.5 117zM-539 1790q0 -36 25.5 -58t67.5 -22q43 0 72.5 30.5t29.5 74.5q0 36 -25 57.5t-67 21.5q-43 0 -73 -30t-30 -74z" />
    <glyph glyph-name="uni030C" unicode="&#x30c;" horiz-adv-x="0" 
d="M-524 1628l-185 266h129l131 -190l197 190h137l-278 -266h-131z" />
    <glyph glyph-name="uni0326" unicode="&#x326;" horiz-adv-x="327" 
d="M-25 -492l115 308h143l-167 -308h-91z" />
    <glyph glyph-name="uni0400" unicode="&#x400;" horiz-adv-x="1218" 
d="M184 0l252 1434h905l-22 -123h-782l-95 -533h746l-21 -123h-745l-94 -532h782l-20 -123h-906zM854 1587l-168 266h139l138 -266h-109z" />
    <glyph glyph-name="uni0401" unicode="&#x401;" horiz-adv-x="1218" 
d="M184 0l252 1434h905l-22 -123h-782l-95 -533h746l-21 -123h-745l-94 -532h782l-20 -123h-906zM672 1659l24 143h144l-25 -143h-143zM1020 1659l24 143h144l-25 -143h-143z" />
    <glyph glyph-name="uni0402" unicode="&#x402;" horiz-adv-x="1433" 
d="M389 0l229 1311h-389l23 123h901l-23 -123h-389l-84 -471q120 71 295 71q205 0 328 -110.5t123 -288.5q0 -145 -70.5 -263t-190 -183.5t-261.5 -65.5h-133l20 123h123q162 0 275.5 109.5t113.5 269.5q0 131 -93.5 208.5t-254.5 77.5q-175 0 -295 -71l-125 -717h-123z" />
    <glyph glyph-name="uni0403" unicode="&#x403;" horiz-adv-x="1105" 
d="M184 0l252 1434h881l-23 -123h-757l-230 -1311h-123zM809 1587l231 266h152l-262 -266h-121z" />
    <glyph glyph-name="uni0404" unicode="&#x404;" horiz-adv-x="1505" 
d="M354 655v-41q0 -228 138 -370t354 -142q172 0 314.5 96t228.5 273h133q-96 -225 -280 -358t-406 -133q-268 0 -436.5 173.5t-168.5 450.5q0 187 63.5 348.5t169.5 270t242.5 170t282.5 61.5q230 0 388 -137t196 -344h-133q-42 164 -164.5 261t-296.5 97
q-102 0 -201.5 -39.5t-181.5 -110t-142.5 -175t-84.5 -228.5h747l-22 -123h-740z" />
    <glyph glyph-name="uni0405" unicode="&#x405;" horiz-adv-x="1280" 
d="M188 420h123q-2 -2 -2 -6q-2 -2 -2 -15q0 -123 111.5 -210t308.5 -87q180 0 274.5 81t94.5 216q0 87 -57 144t-179 92l-215 53q-150 37 -233.5 121t-83.5 205q0 189 137.5 314.5t363.5 125.5q238 0 370 -112.5t132 -286.5q0 -3 -1 -12t-1 -13q-2 -6 -2 -16h-121v6
q0 3 1 7t1 7q0 129 -102 213t-287 84q-163 0 -265.5 -88.5t-102.5 -208.5q0 -85 58 -139.5t177 -85.5l195 -51q173 -49 255.5 -132t82.5 -206q0 -197 -135.5 -318.5t-376.5 -121.5q-244 0 -383.5 117t-139.5 292q0 13 2 19q0 8 2 12z" />
    <glyph glyph-name="uni0406" unicode="&#x406;" horiz-adv-x="491" 
d="M184 0l252 1434h123l-252 -1434h-123z" />
    <glyph glyph-name="uni0407" unicode="&#x407;" horiz-adv-x="491" 
d="M184 0l252 1434h123l-252 -1434h-123zM293 1659l24 143h144l-25 -143h-143zM641 1659l25 143h143l-25 -143h-143z" />
    <glyph glyph-name="uni0408" unicode="&#x408;" horiz-adv-x="798" 
d="M31 0l20 123h348q66 0 99.5 28t44.5 85l211 1198h123l-213 -1209q-21 -119 -83.5 -172t-191.5 -53h-358z" />
    <glyph glyph-name="uni0409" unicode="&#x409;" horiz-adv-x="2088" 
d="M0 -10l20 123h66q156 0 205 192l297 1129h815l-105 -584h406q154 0 256 -102t102 -256q0 -209 -145.5 -350.5t-366.5 -141.5h-522l232 1315h-580l-270 -1024q-43 -161 -121 -231t-213 -70h-76zM1171 123h400q159 0 263.5 102t104.5 256q0 110 -70 178t-186 68h-405z" />
    <glyph glyph-name="uni040A" unicode="&#x40a;" horiz-adv-x="2129" 
d="M184 0l252 1434h123l-110 -625h768l110 625h123l-111 -625h443q140 0 233.5 -98t93.5 -250q0 -198 -127 -329.5t-313 -131.5h-594l121 686h-768l-121 -686h-123zM1219 123h460q125 0 216.5 96t91.5 232q0 108 -62.5 171.5t-163.5 63.5h-442z" />
    <glyph glyph-name="uni040B" unicode="&#x40b;" horiz-adv-x="1464" 
d="M389 0l229 1311h-389l23 123h901l-23 -123h-389l-84 -473q124 73 295 73q200 0 315 -105t115 -284q0 -60 -10 -112l-72 -410h-122l75 430q7 27 7 92q0 129 -86 197.5t-242 68.5q-171 0 -295 -73l-125 -715h-123z" />
    <glyph glyph-name="uni040C" unicode="&#x40c;" horiz-adv-x="1157" 
d="M184 0l252 1434h123l-119 -676l768 676h164l-805 -715l590 -719h-158l-569 696l-123 -696h-123zM809 1587l231 266h152l-262 -266h-121z" />
    <glyph glyph-name="uni040D" unicode="&#x40d;" horiz-adv-x="1464" 
d="M184 0l252 1434h119l-229 -1301h41l936 1301h229l-252 -1434h-123l227 1300h-41l-933 -1300h-226zM946 1587l-168 266h140l137 -266h-109z" />
    <glyph glyph-name="uni040E" unicode="&#x40e;" horiz-adv-x="1228" 
d="M184 0l21 123h194q72 0 107 61l90 148l-332 1102h127l279 -922h43l579 922h138l-834 -1328q-33 -53 -79 -79.5t-120 -26.5h-213zM594 1853h113q0 -143 153 -143q66 0 111 39t63 104h113q-23 -118 -99 -181.5t-198 -63.5q-116 0 -186 62.5t-70 162.5v20z" />
    <glyph glyph-name="uni040F" unicode="&#x40f;" horiz-adv-x="1433" 
d="M184 0l252 1434h123l-231 -1311h819l231 1311h123l-252 -1434h-471l-51 -287h-123l51 287h-471z" />
    <glyph glyph-name="uni0410" unicode="&#x410;" horiz-adv-x="1290" 
d="M20 0l795 1434h184l291 -1434h-119l-79 389h-730l-215 -389h-127zM428 512h639l-160 788h-41z" />
    <glyph glyph-name="uni0411" unicode="&#x411;" horiz-adv-x="1310" 
d="M184 0l252 1434h942l-22 -123h-819l-86 -492h491q147 0 242.5 -97.5t95.5 -250.5q0 -217 -130 -344t-351 -127h-615zM328 123h491q154 0 246 92t92 246q0 98 -68.5 166.5t-166.5 68.5h-494z" />
    <glyph glyph-name="uni0412" unicode="&#x412;" horiz-adv-x="1300" 
d="M184 0l252 1434h578q140 0 239 -99.5t99 -240.5q0 -176 -123 -291q-51 -51 -123 -86l-2 -10q36 -18 72 -58q73 -77 73 -209q0 -194 -127 -317t-334 -123h-604zM328 123h481q147 0 232 83.5t85 223.5q0 109 -58 167t-167 58h-479zM444 778h457q145 0 236.5 85.5
t91.5 211.5q0 98 -69 167t-167 69h-456z" />
    <glyph glyph-name="uni0413" unicode="&#x413;" horiz-adv-x="1105" 
d="M184 0l252 1434h881l-23 -123h-757l-230 -1311h-123z" />
    <glyph glyph-name="uni0414" unicode="&#x414;" horiz-adv-x="1382" 
d="M-49 -287l69 410h11q97 0 149 44.5t78 139.5l297 1127h854l-231 -1311h163l-71 -410h-123l51 287h-1075l-51 -287h-121zM276 123h779l209 1188h-619l-264 -1004q-30 -104 -68 -149q-21 -24 -37 -35z" />
    <glyph glyph-name="uni0415" unicode="&#x415;" horiz-adv-x="1218" 
d="M184 0l252 1434h905l-22 -123h-782l-95 -533h746l-21 -123h-745l-94 -532h782l-20 -123h-906z" />
    <glyph glyph-name="uni0416" unicode="&#x416;" horiz-adv-x="1638" 
d="M0 0l748 735l-443 699h150l432 -686l121 686h122l-120 -686l673 686h162l-704 -715l481 -719h-149l-472 707l-122 -707h-123l123 707l-717 -707h-162z" />
    <glyph glyph-name="uni0417" unicode="&#x417;" horiz-adv-x="1239" 
d="M156 389h118v-20q0 -113 99 -190t280 -77q191 0 300.5 89t109.5 219q0 102 -86 173.5t-221 71.5h-144l23 123h192q127 0 222.5 89t95.5 198q0 111 -91.5 188.5t-246.5 77.5q-163 0 -264 -74.5t-121 -212.5h-123q30 189 165 299.5t353 110.5q210 0 330.5 -106.5
t120.5 -272.5q0 -177 -144 -287q-66 -48 -143 -71v-10q54 -22 102 -64q103 -95 103 -233q0 -185 -145 -307.5t-398 -122.5q-230 0 -360.5 108.5t-130.5 269.5q0 19 2 23q0 6 2 8z" />
    <glyph glyph-name="uni0418" unicode="&#x418;" horiz-adv-x="1464" 
d="M184 0l252 1434h119l-229 -1301h41l936 1301h229l-252 -1434h-123l227 1300h-41l-933 -1300h-226z" />
    <glyph glyph-name="uni0419" unicode="&#x419;" horiz-adv-x="1464" 
d="M184 0l252 1434h119l-229 -1301h41l936 1301h229l-252 -1434h-123l227 1300h-41l-933 -1300h-226zM758 1853h112q0 -143 154 -143q66 0 111 39t63 104h113q-23 -118 -99 -181.5t-198 -63.5q-116 0 -186 62.5t-70 162.5v20z" />
    <glyph glyph-name="uni041A" unicode="&#x41a;" horiz-adv-x="1157" 
d="M184 0l252 1434h123l-119 -676l768 676h164l-805 -715l590 -719h-158l-569 696l-123 -696h-123z" />
    <glyph glyph-name="uni041B" unicode="&#x41b;" horiz-adv-x="1382" 
d="M0 -10l20 123h66q153 0 205 192l297 1129h856l-252 -1434h-123l229 1311h-620l-268 -1020q-42 -162 -121.5 -231.5t-212.5 -69.5h-76z" />
    <glyph glyph-name="uni041C" unicode="&#x41c;" horiz-adv-x="1843" 
d="M184 0l252 1434h232l250 -1311h40l713 1311h240l-252 -1434h-123l225 1280h-41l-696 -1280h-205l-246 1280h-41l-225 -1280h-123z" />
    <glyph glyph-name="uni041D" unicode="&#x41d;" horiz-adv-x="1464" 
d="M184 0l252 1434h123l-115 -646h854l115 646h123l-252 -1434h-123l117 666h-854l-117 -666h-123z" />
    <glyph glyph-name="uni041E" unicode="&#x41e;" horiz-adv-x="1576" 
d="M1470 819q0 228 -137.5 370t-353.5 142q-119 0 -231.5 -52t-200 -143.5t-140.5 -228t-53 -293.5q0 -228 138 -370t354 -142q119 0 231.5 52t199.5 143.5t140 228t53 293.5zM1593 829q0 -182 -65.5 -343.5t-172 -270.5t-242.5 -172t-277 -63q-268 0 -436.5 173.5
t-168.5 450.5q0 147 42.5 281t116 236t169.5 178t207 115.5t223 39.5q268 0 436 -174t168 -451z" />
    <glyph glyph-name="uni041F" unicode="&#x41f;" horiz-adv-x="1464" 
d="M184 0l252 1434h1096l-252 -1434h-123l229 1311h-849l-230 -1311h-123z" />
    <glyph glyph-name="uni0420" unicode="&#x420;" horiz-adv-x="1310" 
d="M184 0l252 1434h598q149 0 248.5 -106.5t99.5 -272.5q0 -216 -139.5 -354t-361.5 -138h-475l-99 -563h-123zM428 686h473q161 0 260 98.5t99 259.5q0 130 -64 198.5t-182 68.5h-477z" />
    <glyph glyph-name="uni0421" unicode="&#x421;" horiz-adv-x="1505" 
d="M1389 471h133q-96 -225 -280 -358t-406 -133q-268 0 -436.5 173.5t-168.5 450.5q0 187 63.5 348.5t169.5 270t242.5 170t282.5 61.5q230 0 388 -137t196 -344h-133q-42 164 -164.5 261t-296.5 97q-119 0 -231.5 -52t-200 -143.5t-140.5 -228t-53 -293.5q0 -228 138 -370
t354 -142q172 0 314.5 96t228.5 273z" />
    <glyph glyph-name="uni0422" unicode="&#x422;" horiz-adv-x="1228" 
d="M543 0l229 1311h-496l23 123h1114l-22 -123h-496l-229 -1311h-123z" />
    <glyph glyph-name="uni0423" unicode="&#x423;" horiz-adv-x="1228" 
d="M184 0l21 123h194q72 0 107 61l90 148l-332 1102h127l279 -922h43l579 922h138l-834 -1328q-33 -53 -79 -79.5t-120 -26.5h-213z" />
    <glyph glyph-name="uni0424" unicode="&#x424;" horiz-adv-x="1658" 
d="M770 -41l39 225h-21q-256 0 -404 134t-148 348q0 270 183.5 447t471.5 177h115l30 185h123l-31 -185h19q256 0 404.5 -133.5t148.5 -347.5q0 -279 -179.5 -452t-476.5 -173h-112l-39 -225h-123zM954 307h101q236 0 379 137.5t143 354.5q0 165 -117.5 266.5t-333.5 101.5
h-20zM809 307h22l152 860h-102q-236 0 -379.5 -137t-143.5 -354q0 -165 117.5 -267t333.5 -102z" />
    <glyph glyph-name="uni0425" unicode="&#x425;" horiz-adv-x="1228" 
d="M20 0l633 745l-340 689h136l294 -594h41l504 594h154l-596 -705l364 -729h-135l-319 635h-41l-541 -635h-154z" />
    <glyph glyph-name="uni0426" unicode="&#x426;" horiz-adv-x="1474" 
d="M184 0l252 1434h123l-231 -1311h819l231 1311h123l-231 -1311h164l-72 -410h-123l51 287h-1106z" />
    <glyph glyph-name="uni0427" unicode="&#x427;" horiz-adv-x="1382" 
d="M1079 0l105 600q-58 -34 -125 -55q-149 -53 -287 -53q-228 0 -339 99.5t-111 289.5q0 54 10 112l78 441h122l-77 -441q-11 -64 -11 -102q0 -142 85 -209.5t274 -67.5q158 0 293 58q58 22 110 59l125 703h123l-252 -1434h-123z" />
    <glyph glyph-name="uni0428" unicode="&#x428;" horiz-adv-x="1966" 
d="M184 0l252 1434h123l-231 -1311h614l232 1311h122l-231 -1311h614l232 1311h123l-252 -1434h-1598z" />
    <glyph glyph-name="uni0429" unicode="&#x429;" horiz-adv-x="2007" 
d="M184 0l252 1434h123l-231 -1311h614l232 1311h122l-231 -1311h614l232 1311h123l-232 -1311h164l-72 -410h-122l51 287h-1639z" />
    <glyph glyph-name="uni042A" unicode="&#x42a;" horiz-adv-x="1423" 
d="M352 0l230 1311h-332l22 123h455l-96 -543h418q155 0 256.5 -106.5t101.5 -272.5q0 -223 -144.5 -367.5t-367.5 -144.5h-543zM496 123h419q160 0 264.5 106t104.5 273q0 123 -69.5 194.5t-186.5 71.5h-418z" />
    <glyph glyph-name="uni042B" unicode="&#x42b;" horiz-adv-x="1628" 
d="M184 0l252 1434h123l-96 -543h397q155 0 257 -106.5t102 -272.5q0 -223 -144.5 -367.5t-367.5 -144.5h-523zM328 123h399q160 0 264.5 106t104.5 273q0 123 -69.5 194.5t-186.5 71.5h-398zM1321 0l252 1434h123l-252 -1434h-123z" />
    <glyph glyph-name="uni042C" unicode="&#x42c;" horiz-adv-x="1280" 
d="M184 0l252 1434h123l-96 -543h448q155 0 257 -106.5t102 -272.5q0 -223 -144.5 -367.5t-367.5 -144.5h-574zM328 123h450q160 0 264.5 106t104.5 273q0 123 -69.5 194.5t-186.5 71.5h-449z" />
    <glyph glyph-name="uni042D" unicode="&#x42d;" horiz-adv-x="1515" 
d="M203 461h129q45 -164 169 -261.5t300 -97.5q137 0 263.5 66.5t219.5 194t125 292.5h-731l22 123h723q2 14 2 41q0 228 -137.5 370t-353.5 142q-163 0 -310 -94t-233 -254h-131q98 213 286 342t398 129q268 0 436 -174t168 -451q0 -182 -65.5 -343.5t-172 -270.5
t-242.5 -172t-277 -63q-234 0 -391 131t-197 350z" />
    <glyph glyph-name="uni042E" unicode="&#x42e;" horiz-adv-x="1935" 
d="M184 0l252 1434h123l-115 -646h220q37 194 149 348t262 236t307 82q125 0 233 -46t185.5 -127.5t121.5 -198.5t44 -253q0 -146 -42 -280.5t-114 -236t-165.5 -177.5t-200.5 -115.5t-215 -39.5q-167 0 -300 78.5t-208.5 221t-75.5 324.5q0 39 2 62h-223l-117 -666h-123z
M1239 102q112 0 220 52t193.5 143.5t138 228t52.5 293.5q0 226 -134 369t-337 143q-112 0 -220 -52t-193.5 -143.5t-138 -228t-52.5 -293.5q0 -226 134 -369t337 -143z" />
    <glyph glyph-name="uni042F" unicode="&#x42f;" horiz-adv-x="1331" 
d="M102 0l662 563h-125q-102 0 -181 52t-120 138t-41 189q0 108 38 201.5t101.5 156.5t147.5 98.5t176 35.5h639l-252 -1434h-123l98 563h-186l-662 -563h-172zM662 686h483l108 625h-501q-137 0 -234.5 -101t-97.5 -258q0 -119 65.5 -192.5t176.5 -73.5z" />
    <glyph glyph-name="uni0430" unicode="&#x430;" horiz-adv-x="1095" 
d="M901 430l14 72h-333q-135 0 -206 -61.5t-71 -164.5q0 -81 56 -127.5t169 -46.5q147 0 243.5 86.5t127.5 241.5zM848 0l4 143h-10q-41 -47 -90 -82q-113 -81 -242 -81q-150 0 -239 78.5t-89 197.5q0 164 105.5 261t294.5 97h354l4 21q10 38 10 72q0 102 -64 158.5
t-192 56.5q-119 0 -190 -52.5t-92 -142.5h-123q15 64 47 119t82 100.5t123.5 71.5t163.5 26q175 0 271.5 -87t96.5 -230q0 -54 -10 -92l-113 -635h-102z" />
    <glyph glyph-name="uni0431" unicode="&#x431;" 
d="M203 543l10 51q61 307 164.5 460.5t288.5 215.5q107 36 327 61q63 7 95 41.5t49 112.5h123q-24 -136 -85.5 -197.5t-181.5 -79.5q-200 -24 -297 -61q-108 -40 -182 -118.5t-125 -229.5h10q143 143 336 143q191 0 305.5 -110.5t114.5 -288.5q0 -156 -73 -286t-195 -203.5
t-264 -73.5q-192 0 -311 119t-119 311q0 95 10 133zM715 819q-164 0 -276.5 -119t-112.5 -301q0 -133 85 -215t232 -82q161 0 271 121.5t110 304.5q0 133 -81 212t-228 79z" />
    <glyph glyph-name="uni0432" unicode="&#x432;" horiz-adv-x="1075" 
d="M164 0l180 1024h537q102 0 163.5 -69.5t61.5 -166.5q0 -161 -124 -240q-17 -11 -52 -26v-10q31 -18 53 -47q55 -67 55 -148q0 -142 -91.5 -229.5t-219.5 -87.5h-563zM305 113h416q81 0 137.5 54.5t56.5 139.5q0 64 -39.5 109t-103.5 45h-405zM387 573h412q71 0 127.5 56
t56.5 139q0 57 -37.5 100t-97.5 43h-402z" />
    <glyph glyph-name="uni0433" unicode="&#x433;" horiz-adv-x="839" 
d="M164 0l180 1024h635l-23 -123h-512l-157 -901h-123z" />
    <glyph glyph-name="uni0434" unicode="&#x434;" horiz-adv-x="1085" 
d="M-43 -246l63 369h11q78 0 120 32.5t62 110.5l197 758h661l-160 -901h154l-66 -369h-122l45 246h-799l-45 -246h-121zM246 123h542l138 778h-430l-164 -635q-17 -67 -53 -114q-11 -16 -33 -29z" />
    <glyph glyph-name="uni0435" unicode="&#x435;" horiz-adv-x="1136" 
d="M928 287h135q-12 -24 -29 -51.5t-45.5 -64.5t-66.5 -69t-84.5 -60.5t-107 -45t-126.5 -16.5q-193 0 -311.5 122t-118.5 328q0 127 46 242t121.5 196t174.5 128.5t201 47.5q192 0 306 -120t114 -320q0 -58 -9 -92l-12 -61h-819q0 -158 89 -253.5t230 -95.5q60 0 115 20.5
t94.5 53.5t63 59.5t39.5 51.5zM311 573h703q0 163 -80.5 256t-226.5 93q-141 0 -249 -101.5t-147 -247.5z" />
    <glyph glyph-name="uni0436" unicode="&#x436;" horiz-adv-x="1290" 
d="M-10 0l551 532l-324 492h145l316 -481l86 481h123l-86 -481l487 481h162l-520 -512l354 -512h-145l-344 502l-88 -502h-123l88 502l-520 -502h-162z" />
    <glyph glyph-name="uni0437" unicode="&#x437;" horiz-adv-x="942" 
d="M135 317h123q-2 -2 -2 -6v-14q0 -89 70.5 -142t205.5 -53q125 0 190.5 51.5t65.5 133.5q0 73 -61.5 123.5t-169.5 50.5h-84l21 112h131q105 0 170 51.5t65 123.5q0 74 -64.5 124t-181.5 50q-114 0 -181 -54.5t-85 -150.5h-123q17 146 130 236.5t270 90.5q172 0 265 -77.5
t93 -198.5q0 -132 -109 -209q-41 -30 -106 -47v-10q15 -5 36 -18.5t46.5 -37t43 -63.5t17.5 -86q0 -134 -105 -225.5t-284 -91.5q-185 0 -287 83.5t-102 212.5v29q0 10 2 12z" />
    <glyph glyph-name="uni0438" unicode="&#x438;" horiz-adv-x="1157" 
d="M164 0l180 1024h123l-158 -891h41l596 891h228l-181 -1024h-123l156 891h-41l-594 -891h-227z" />
    <glyph glyph-name="uni0439" unicode="&#x439;" horiz-adv-x="1157" 
d="M164 0l180 1024h123l-158 -891h41l596 891h228l-181 -1024h-123l156 891h-41l-594 -891h-227zM532 1454h113q0 -143 154 -143q67 0 112.5 39.5t63.5 103.5h110q-23 -118 -99 -182t-198 -64q-116 0 -186 62.5t-70 163.5v20z" />
    <glyph glyph-name="uni043A" unicode="&#x43a;" horiz-adv-x="972" 
d="M164 0l180 1024h123l-84 -471l582 471h178l-633 -510l457 -514h-162l-432 492l-86 -492h-123z" />
    <glyph glyph-name="uni043B" unicode="&#x43b;" horiz-adv-x="1095" 
d="M0 -10l18 123h74q57 0 96.5 35t61.5 118l196 758h666l-180 -1024h-123l158 901h-430l-168 -649q-68 -262 -287 -262h-82z" />
    <glyph glyph-name="uni043C" unicode="&#x43c;" horiz-adv-x="1474" 
d="M164 0l180 1024h236l155 -891h41l471 891h244l-180 -1024h-123l155 891h-40l-469 -891h-193l-158 891h-41l-155 -891h-123z" />
    <glyph glyph-name="uni043D" unicode="&#x43d;" horiz-adv-x="1157" 
d="M164 0l180 1024h123l-80 -451h584l80 451h123l-181 -1024h-123l78 451h-583l-78 -451h-123z" />
    <glyph glyph-name="uni043E" unicode="&#x43e;" 
d="M176 430q0 127 46 242t121.5 196t174.5 128.5t201 47.5q193 0 311.5 -122t118.5 -328q0 -127 -46 -242t-121.5 -196t-174.5 -128.5t-201 -47.5q-193 0 -311.5 122t-118.5 328zM1026 573q0 158 -88 253.5t-229 95.5q-102 0 -196 -61t-154 -170.5t-60 -239.5
q0 -158 88 -253.5t229 -95.5q102 0 196 61t154 170.5t60 239.5z" />
    <glyph glyph-name="uni043F" unicode="&#x43f;" horiz-adv-x="1157" 
d="M164 0l180 1024h830l-181 -1024h-123l158 901h-584l-157 -901h-123z" />
    <glyph glyph-name="uni0440" unicode="&#x440;" horiz-adv-x="1198" 
d="M684 102q102 0 193.5 59t148.5 166t57 236q0 170 -84.5 264.5t-222.5 94.5q-102 0 -193.5 -59t-148.5 -166t-57 -236q0 -170 84.5 -264.5t222.5 -94.5zM90 -410l252 1434h102l-4 -133h11q19 24 43.5 46t67 48.5t106 42.5t139.5 16q184 0 291.5 -125t107.5 -335
q0 -131 -43 -245t-115.5 -192t-169.5 -122.5t-204 -44.5q-46 0 -88.5 9t-72 20t-59.5 33t-45.5 35t-36 39.5t-24.5 32.5t-18 29q-3 4 -4 6h-11l-102 -594h-123z" />
    <glyph glyph-name="uni0441" unicode="&#x441;" horiz-adv-x="1105" 
d="M956 338h129q-67 -164 -195 -261t-286 -97q-193 0 -311.5 122t-118.5 328q0 127 46 242t121.5 196t174.5 128.5t201 47.5q176 0 278 -93t133 -255h-129q-26 104 -99.5 165t-192.5 61q-102 0 -196 -61t-154 -170.5t-60 -239.5q0 -158 88 -253.5t229 -95.5
q105 0 196.5 63.5t145.5 172.5z" />
    <glyph glyph-name="uni0442" unicode="&#x442;" horiz-adv-x="901" 
d="M389 0l158 901h-348l22 123h819l-22 -123h-348l-158 -901h-123z" />
    <glyph glyph-name="uni0443" unicode="&#x443;" horiz-adv-x="962" 
d="M39 -410l22 123h177q29 0 47.5 13.5t36.5 44.5l92 172l-219 1081h116l174 -870h41l461 870h127l-696 -1313q-33 -62 -78 -91.5t-115 -29.5h-186z" />
    <glyph glyph-name="uni0444" unicode="&#x444;" horiz-adv-x="1439" 
d="M625 123h53l137 778h-98q-180 0 -300 -126t-120 -324q0 -154 87 -241t241 -87zM584 -410l73 410h-53q-193 0 -311.5 120.5t-118.5 319.5q0 166 74 299.5t205.5 209t294.5 75.5h90l71 410h123l-71 -410h53q193 0 311.5 -120.5t118.5 -319.5q0 -251 -164.5 -417.5
t-409.5 -166.5h-90l-73 -410h-123zM803 123h98q180 0 300 126t120 324q0 154 -87 241t-241 87h-53z" />
    <glyph glyph-name="uni0445" unicode="&#x445;" horiz-adv-x="931" 
d="M10 0l441 530l-240 494h137l203 -420h41l350 420h152l-430 -510l249 -514h-137l-211 440h-41l-362 -440h-152z" />
    <glyph glyph-name="uni0446" unicode="&#x446;" horiz-adv-x="1167" 
d="M164 0l180 1024h123l-160 -901h563l160 901h123l-160 -901h154l-66 -369h-123l46 246h-840z" />
    <glyph glyph-name="uni0447" unicode="&#x447;" horiz-adv-x="1095" 
d="M809 0l70 389q-116 -61 -285 -61q-171 0 -256.5 78.5t-85.5 228.5q0 41 10 106l51 283h123l-53 -295q-8 -31 -8 -84q0 -96 59.5 -145t190.5 -49q174 0 276 67l88 506h123l-180 -1024h-123z" />
    <glyph glyph-name="uni0448" unicode="&#x448;" horiz-adv-x="1597" 
d="M164 0l180 1024h123l-160 -901h451l160 901h122l-159 -901h450l160 901h123l-180 -1024h-1270z" />
    <glyph glyph-name="uni0449" unicode="&#x449;" horiz-adv-x="1628" 
d="M164 0l180 1024h123l-160 -901h451l160 901h122l-159 -901h450l160 901h123l-160 -901h154l-66 -369h-123l45 246h-1300z" />
    <glyph glyph-name="uni044A" unicode="&#x44a;" 
d="M420 123h358q98 0 167 68.5t69 166.5q0 85 -47.5 135t-126.5 50h-346zM276 0l158 901h-256l23 123h379l-64 -358h334q124 0 205.5 -83.5t81.5 -213.5q0 -160 -106 -264.5t-273 -104.5h-482z" />
    <glyph glyph-name="uni044B" unicode="&#x44b;" horiz-adv-x="1372" 
d="M164 0l180 1024h123l-64 -358h293q124 0 205.5 -83.5t81.5 -213.5q0 -160 -106 -264.5t-273 -104.5h-440zM307 123h318q98 0 166.5 68.5t68.5 166.5q0 85 -47.5 135t-126.5 50h-305zM1085 0l181 1024h123l-181 -1024h-123z" />
    <glyph glyph-name="uni044C" unicode="&#x44c;" horiz-adv-x="1034" 
d="M164 0l180 1024h123l-64 -358h334q124 0 205.5 -83.5t81.5 -213.5q0 -160 -106 -264.5t-273 -104.5h-481zM307 123h359q98 0 166.5 68.5t68.5 166.5q0 85 -47.5 135t-126.5 50h-346z" />
    <glyph glyph-name="uni044D" unicode="&#x44d;" horiz-adv-x="1116" 
d="M150 328h133q5 -25 17 -51.5t35.5 -59t54.5 -57t79 -41.5t104 -17q137 0 249.5 92.5t156.5 256.5h-485l22 122h477v11q0 154 -89.5 246t-237.5 92q-64 0 -124.5 -25.5t-102 -63.5t-67 -70.5t-36.5 -55.5h-131q11 30 37 70.5t70 88t96.5 86.5t123.5 65.5t144 26.5
q205 0 322.5 -123t117.5 -327q0 -131 -46 -247t-122.5 -195.5t-177 -125.5t-207.5 -46q-90 0 -163.5 29t-115.5 69t-73 93t-42.5 88.5t-18.5 68.5z" />
    <glyph glyph-name="uni044E" unicode="&#x44e;" horiz-adv-x="1484" 
d="M164 0l180 1024h123l-80 -451h180q27 137 105 245.5t184 167t219 58.5q187 0 298.5 -119t111.5 -331q0 -130 -44 -246t-116.5 -196t-167 -126t-194.5 -46q-187 0 -298.5 119t-111.5 331v21h-188l-78 -451h-123zM973 102q73 0 143 35.5t124.5 96t88 150t33.5 189.5
q0 166 -81.5 257.5t-215.5 91.5q-73 0 -143 -35.5t-124.5 -96t-88 -150t-33.5 -189.5q0 -166 81.5 -257.5t215.5 -91.5z" />
    <glyph glyph-name="uni044F" unicode="&#x44f;" horiz-adv-x="1075" 
d="M92 0l445 379h-33q-118 0 -198.5 82.5t-80.5 204.5q0 154 104 256t259 102h504l-181 -1024h-123l66 379h-156l-444 -379h-162zM528 502h349l69 399h-371q-102 0 -164.5 -62.5t-62.5 -162.5q0 -78 49.5 -126t130.5 -48z" />
    <glyph glyph-name="uni0450" unicode="&#x450;" horiz-adv-x="1136" 
d="M928 287h135q-12 -24 -29 -51.5t-45.5 -64.5t-66.5 -69t-84.5 -60.5t-107 -45t-126.5 -16.5q-193 0 -311.5 122t-118.5 328q0 127 46 242t121.5 196t174.5 128.5t201 47.5q192 0 306 -120t114 -320q0 -58 -9 -92l-12 -61h-819q0 -158 89 -253.5t230 -95.5q60 0 115 20.5
t94.5 53.5t63 59.5t39.5 51.5zM311 573h703q0 163 -80.5 256t-226.5 93q-141 0 -249 -101.5t-147 -247.5zM700 1198l-168 266h140l137 -266h-109z" />
    <glyph glyph-name="uni0451" unicode="&#x451;" horiz-adv-x="1136" 
d="M928 287h135q-12 -24 -29 -51.5t-45.5 -64.5t-66.5 -69t-84.5 -60.5t-107 -45t-126.5 -16.5q-193 0 -311.5 122t-118.5 328q0 127 46 242t121.5 196t174.5 128.5t201 47.5q192 0 306 -120t114 -320q0 -58 -9 -92l-12 -61h-819q0 -158 89 -253.5t230 -95.5q60 0 115 20.5
t94.5 53.5t63 59.5t39.5 51.5zM311 573h703q0 163 -80.5 256t-226.5 93q-141 0 -249 -101.5t-147 -247.5zM528 1260l25 143h143l-24 -143h-144zM877 1260l24 143h143l-24 -143h-143z" />
    <glyph glyph-name="uni0452" unicode="&#x452;" horiz-adv-x="1177" 
d="M541 -410l22 123h236q61 0 73 72l123 686q9 34 9 72q0 108 -76 182t-191 74q-127 0 -230 -93.5t-124 -213.5l-86 -492h-123l201 1147h-174l20 113h174l31 174h123l-31 -174h348l-20 -113h-348l-66 -379h10q39 45 80 76q110 78 236 78q160 0 264 -104.5t104 -264.5
q0 -34 -10 -92l-127 -707q-28 -164 -192 -164h-256z" />
    <glyph glyph-name="uni0453" unicode="&#x453;" horiz-adv-x="839" 
d="M164 0l180 1024h635l-23 -123h-512l-157 -901h-123zM614 1198l232 266h151l-262 -266h-121z" />
    <glyph glyph-name="uni0454" unicode="&#x454;" horiz-adv-x="1105" 
d="M311 573h482l-23 -122h-473q0 -158 88 -253.5t229 -95.5q44 0 84.5 10.5t69.5 24.5t58 39t45 40.5t36 45t24 37t17 29.5h121q-12 -34 -32.5 -72t-61 -89.5t-89.5 -91t-123.5 -67.5t-158.5 -28q-193 0 -311.5 122t-118.5 328q0 127 46 242t121.5 196t174.5 128.5t201 47.5
q87 0 158 -27t112.5 -64.5t72 -87.5t42.5 -87t18 -71h-116q-6 19 -14 38.5t-31 54t-53.5 59.5t-82.5 44t-116 19q-132 0 -246 -98.5t-150 -250.5z" />
    <glyph glyph-name="uni0455" unicode="&#x455;" horiz-adv-x="983" 
d="M135 297h123q0 -81 78.5 -138t218.5 -57q119 0 182.5 51.5t63.5 133.5q0 49 -34 83.5t-110 57.5l-196 59q-110 36 -161.5 92.5t-51.5 147.5q0 135 98.5 226t269.5 91q177 0 283.5 -87.5t106.5 -208.5q0 -3 -1 -7.5t-1 -7.5v-6h-121v10q0 75 -73.5 130t-203.5 55
q-114 0 -174.5 -52.5t-60.5 -121.5q0 -105 133 -146l194 -59q226 -71 226 -236q0 -142 -104.5 -234.5t-284.5 -92.5q-185 0 -292.5 89t-107.5 218v10z" />
    <glyph glyph-name="uni0456" unicode="&#x456;" horiz-adv-x="471" 
d="M174 0l180 1024h123l-180 -1024h-123zM385 1260l25 143h143l-25 -143h-143z" />
    <glyph glyph-name="uni0457" unicode="&#x457;" horiz-adv-x="471" 
d="M174 0l180 1024h123l-180 -1024h-123zM211 1260l25 143h143l-25 -143h-143zM559 1260l25 143h143l-25 -143h-143z" />
    <glyph glyph-name="uni0458" unicode="&#x458;" horiz-adv-x="471" 
d="M-133 -410l22 123h172q62 0 74 72l219 1239h123l-225 -1270q-28 -164 -193 -164h-192zM385 1260l25 143h143l-25 -143h-143z" />
    <glyph glyph-name="uni0459" unicode="&#x459;" horiz-adv-x="1587" 
d="M995 481l-63 -358h317q92 0 148.5 56.5t56.5 148.5q0 70 -43.5 111.5t-120.5 41.5h-295zM0 -10l18 123h74q57 0 96.5 35t61.5 118l196 758h646l-74 -420h287q128 0 200 -71t72 -195q0 -147 -97.5 -242.5t-250.5 -95.5h-441l158 901h-409l-168 -649q-68 -262 -287 -262
h-82z" />
    <glyph glyph-name="uni045A" unicode="&#x45a;" horiz-adv-x="1628" 
d="M973 123h315q94 0 150.5 56.5t56.5 148.5q0 69 -43.5 111t-118.5 42h-297zM164 0l180 1024h123l-74 -420h543l74 420h123l-74 -420h287q118 0 195 -75t77 -191q0 -147 -97.5 -242.5t-250.5 -95.5h-441l84 481h-542l-84 -481h-123z" />
    <glyph glyph-name="uni045B" unicode="&#x45b;" horiz-adv-x="1177" 
d="M174 0l201 1147h-174l20 113h174l31 174h123l-31 -174h348l-20 -113h-348l-66 -379h10q39 45 80 76q110 78 236 78q160 0 264 -104.5t104 -264.5q0 -34 -10 -92l-82 -461h-123l84 471q9 34 9 72q0 108 -76 182t-191 74q-127 0 -230 -93.5t-124 -213.5l-86 -492h-123z" />
    <glyph glyph-name="uni045C" unicode="&#x45c;" horiz-adv-x="972" 
d="M164 0l180 1024h123l-84 -471l582 471h178l-633 -510l457 -514h-162l-432 492l-86 -492h-123zM666 1198l231 266h152l-263 -266h-120z" />
    <glyph glyph-name="uni045D" unicode="&#x45d;" horiz-adv-x="1157" 
d="M164 0l180 1024h123l-158 -891h41l596 891h228l-181 -1024h-123l156 891h-41l-594 -891h-227zM721 1198l-168 266h139l137 -266h-108z" />
    <glyph glyph-name="uni045E" unicode="&#x45e;" horiz-adv-x="962" 
d="M39 -410l22 123h177q29 0 47.5 13.5t36.5 44.5l92 172l-219 1081h116l174 -870h41l461 870h127l-696 -1313q-33 -62 -78 -91.5t-115 -29.5h-186zM410 1454h112q0 -143 154 -143q67 0 112.5 39.5t63.5 103.5h111q-23 -118 -99 -182t-198 -64q-116 0 -186 62.5t-70 163.5
v20z" />
    <glyph glyph-name="uni045F" unicode="&#x45f;" 
d="M164 0l180 1024h123l-160 -901h574l159 901h123l-180 -1024h-348l-45 -246h-123l45 246h-348z" />
    <glyph glyph-name="uni0462" unicode="&#x462;" horiz-adv-x="1372" 
d="M449 123h419q169 0 264 93t95 255q0 102 -70.5 169t-185.5 67h-420zM307 0l195 1114h-307l20 117h307l37 203h123l-37 -203h389l-20 -117h-389l-50 -285h416q153 0 256 -100t103 -248q0 -217 -136.5 -349t-365.5 -132h-541z" />
    <glyph glyph-name="uni0463" unicode="&#x463;" horiz-adv-x="1105" 
d="M225 0l158 901h-236l23 123h236l71 410h123l-72 -410h297l-22 -123h-297l-41 -235h334q124 0 205 -83.5t81 -213.5q0 -161 -106 -265t-272 -104h-482zM369 123h358q98 0 167 68.5t69 166.5q0 85 -48 135t-127 50h-346z" />
    <glyph glyph-name="uni046A" unicode="&#x46a;" horiz-adv-x="1576" 
d="M930 829l575 482h-983zM92 0l27 164q48 288 235 459t437 192l-426 504l20 115h1311l-21 -115l-606 -508q215 -47 331 -190t116 -365q0 -70 -19 -182l-12 -74h-123l14 90q17 117 17 156q0 205 -116 323.5t-306 126.5l-121 -696h-123l121 696q-115 0 -216 -35t-182 -102.5
t-136.5 -174t-75.5 -241.5l-23 -143h-123z" />
    <glyph glyph-name="uni046B" unicode="&#x46b;" horiz-adv-x="1249" 
d="M709 563h10l397 338h-686zM190 0h-118q38 246 172.5 391t337.5 162l-291 356l20 115h981l-20 -115l-424 -362q161 -36 248.5 -146.5t87.5 -287.5q0 -26 -4 -72l-4 -41h-123l4 31q4 36 4 61q0 162 -76 254t-225 105l-78 -451h-119l78 451q-371 0 -451 -451z" />
    <glyph glyph-name="uni0472" unicode="&#x472;" horiz-adv-x="1576" 
d="M1593 829q0 -182 -65.5 -343.5t-172 -270.5t-242.5 -172t-277 -63q-268 0 -436.5 173.5t-168.5 450.5q0 147 42.5 281t116 236t169.5 178t207 115.5t223 39.5q268 0 436 -174t168 -451zM367 764q112 55 274 55q105 0 288 -41t275 -41q173 0 264 41q2 14 2 41
q0 228 -137.5 370t-353.5 142q-215 0 -391 -157t-221 -410zM354 649v-35q0 -228 138 -370t354 -142q214 0 387.5 155.5t222.5 406.5q-89 -50 -262 -50q-105 0 -286 41t-277 41q-167 0 -277 -47z" />
    <glyph glyph-name="uni0473" unicode="&#x473;" 
d="M176 430q0 127 46 242t121.5 196t174.5 128.5t201 47.5q193 0 311.5 -122t118.5 -328q0 -127 -46 -242t-121.5 -196t-174.5 -128.5t-201 -47.5q-193 0 -311.5 122t-118.5 328zM1026 584q-4 156 -91.5 247t-225.5 91q-132 0 -247 -101.5t-151 -255.5q72 29 185 29
q70 0 174 -20.5t174 -20.5q122 0 182 31zM1012 457q-68 -27 -178 -27q-70 0 -174 20.5t-175 20.5q-113 0 -186 -31q4 -157 90 -247.5t227 -90.5q133 0 246 101t150 254z" />
    <glyph glyph-name="uni0474" unicode="&#x474;" horiz-adv-x="1351" 
d="M522 0l-270 1434h125l246 -1311h39l557 1046q75 141 144.5 203t141.5 62q35 0 80 -15l27 -14l-23 -123q-12 8 -18 14q-35 15 -66 15q-40 0 -78 -35.5t-81 -118.5l-619 -1157h-205z" />
    <glyph glyph-name="uni0475" unicode="&#x475;" horiz-adv-x="1034" 
d="M399 0l-198 1024h118l170 -891h41l367 674q117 217 250 217q34 0 67 -14l23 -15l-25 -114l-7 5q-7 4 -23.5 9.5t-34.5 5.5q-69 0 -127 -102l-436 -799h-185z" />
    <glyph glyph-name="uni048A" unicode="&#x48a;" horiz-adv-x="1464" 
d="M184 0l252 1434h119l-229 -1301h41l936 1301h229l-232 -1311h185l-6 -31l-189 -379h-92l113 287h-154l227 1300h-41l-933 -1300h-226zM758 1853h112q0 -143 154 -143q66 0 111 39t63 104h113q-23 -118 -99 -181.5t-198 -63.5q-116 0 -186 62.5t-70 162.5v20z" />
    <glyph glyph-name="uni048B" unicode="&#x48b;" horiz-adv-x="1177" 
d="M164 0l180 1024h123l-158 -891h41l596 891h228l-160 -901h174l-4 -21l-164 -348h-92l96 246h-154l156 891h-41l-594 -891h-227zM532 1454h113q0 -143 154 -143q67 0 112.5 39.5t63.5 103.5h110q-23 -118 -99 -182t-198 -64q-116 0 -186 62.5t-70 163.5v20z" />
    <glyph glyph-name="uni048C" unicode="&#x48c;" horiz-adv-x="1372" 
d="M449 123h419q169 0 264 93t95 255q0 102 -70.5 169t-185.5 67h-420zM307 0l195 1114h-307l20 117h307l37 203h123l-37 -203h389l-20 -117h-389l-50 -285h416q153 0 256 -100t103 -248q0 -217 -136.5 -349t-365.5 -132h-541z" />
    <glyph glyph-name="uni048D" unicode="&#x48d;" horiz-adv-x="1105" 
d="M225 0l158 901h-236l23 123h236l71 410h123l-72 -410h297l-22 -123h-297l-41 -235h334q124 0 205 -83.5t81 -213.5q0 -161 -106 -265t-272 -104h-482zM369 123h358q98 0 167 68.5t69 166.5q0 85 -48 135t-127 50h-346z" />
    <glyph glyph-name="uni048E" unicode="&#x48e;" horiz-adv-x="1310" 
d="M184 0l252 1434h598q149 0 248.5 -106.5t99.5 -272.5q0 -140 -60.5 -250.5t-170.5 -173.5l66 -119l-105 -61l-74 133q-70 -21 -157 -21h-475l-99 -563h-123zM428 686h473q39 0 80 6l-80 148l105 61l90 -168q78 44 121 125t43 186q0 130 -64 198.5t-182 68.5h-477z" />
    <glyph glyph-name="uni048F" unicode="&#x48f;" horiz-adv-x="1198" 
d="M90 -410l252 1434h102l-4 -133h11q19 24 43.5 46t67 48.5t106 42.5t139.5 16q184 0 291.5 -125t107.5 -335q0 -156 -56 -281t-155 -207l66 -116l-105 -62l-63 113q-105 -51 -219 -51q-46 0 -88.5 9t-72 20t-59.5 33t-45.5 35t-36 39.5t-24.5 32.5t-18 29q-3 4 -4 6h-11
l-102 -594h-123zM834 137l-89 162l105 61l84 -153q68 64 108.5 156.5t40.5 199.5q0 170 -84.5 264.5t-222.5 94.5q-102 0 -193.5 -59t-148.5 -166t-57 -236q0 -170 84.5 -264.5t222.5 -94.5q75 0 150 35z" />
    <glyph glyph-name="uni0490" unicode="&#x490;" horiz-adv-x="1105" 
d="M184 0l252 1434h752l51 286h123l-72 -409h-753l-230 -1311h-123z" />
    <glyph glyph-name="uni0491" unicode="&#x491;" horiz-adv-x="860" 
d="M164 0l180 1024h535l43 246h122l-65 -369h-535l-157 -901h-123z" />
    <glyph glyph-name="uni0492" unicode="&#x492;" horiz-adv-x="1126" 
d="M215 0l117 666h-174l20 122h174l115 646h860l-22 -123h-738l-92 -523h399l-20 -122h-399l-117 -666h-123z" />
    <glyph glyph-name="uni0493" unicode="&#x493;" horiz-adv-x="849" 
d="M174 0l78 451h-143l22 122h143l80 451h635l-22 -123h-512l-58 -328h369l-23 -122h-368l-78 -451h-123z" />
    <glyph glyph-name="uni0494" unicode="&#x494;" horiz-adv-x="1249" 
d="M184 0l252 1434h881l-23 -123h-757l-103 -586q46 24 92 37q117 37 222 37q213 0 336.5 -118t123.5 -312q0 -139 -42 -254t-115 -191.5t-172 -118t-213 -41.5h-64l23 123h41q182 0 300.5 125.5t118.5 335.5q0 153 -98.5 240.5t-269.5 87.5q-121 0 -219 -41
q-30 -11 -88 -41l-103 -594h-123z" />
    <glyph glyph-name="uni0495" unicode="&#x495;" horiz-adv-x="1013" 
d="M467 -410l22 123h17q61 0 121 29.5t110 83t81.5 139.5t31.5 189q0 130 -78 208t-209 78q-75 0 -147 -26q-32 -8 -62 -25l-67 -389h-123l180 1024h635l-23 -123h-512l-67 -389q33 18 59 25q72 26 158 26q169 0 274 -108t105 -291q0 -133 -42 -244.5t-110.5 -182
t-153.5 -109t-175 -38.5h-25z" />
    <glyph glyph-name="uni0496" unicode="&#x496;" horiz-adv-x="1658" 
d="M0 0l748 735l-443 699h150l432 -686l121 686h122l-120 -686l673 686h162l-704 -715l399 -596h148l-72 -410h-123l51 287h-71l-472 707l-122 -707h-123l123 707l-717 -707h-162z" />
    <glyph glyph-name="uni0497" unicode="&#x497;" horiz-adv-x="1320" 
d="M-10 0l551 532l-324 492h145l316 -481l86 481h123l-86 -481l487 481h162l-520 -512l268 -389h143l-65 -369h-123l45 246h-59l-344 502l-88 -502h-123l88 502l-520 -502h-162z" />
    <glyph glyph-name="uni0498" unicode="&#x498;" horiz-adv-x="1239" 
d="M512 -287l47 269v2q-192 20 -299.5 124.5t-107.5 249.5q0 19 2 23q0 6 2 8h118v-20q0 -113 99 -190t280 -77q191 0 300.5 89t109.5 219q0 102 -86 173.5t-221 71.5h-144l23 123h192q127 0 222.5 89t95.5 198q0 111 -91.5 188.5t-246.5 77.5q-163 0 -264 -74.5
t-121 -212.5h-123q30 189 165 299.5t353 110.5q210 0 330.5 -106.5t120.5 -272.5q0 -177 -144 -287q-66 -48 -143 -71v-10q54 -22 102 -64q103 -95 103 -233q0 -177 -134 -296.5t-370 -131.5l-47 -269h-123z" />
    <glyph glyph-name="uni0499" unicode="&#x499;" horiz-adv-x="942" 
d="M385 -246l41 234q-142 20 -217.5 98t-75.5 190v29q0 10 2 12h123q-2 -2 -2 -6v-14q0 -89 70.5 -142t205.5 -53q125 0 190.5 51.5t65.5 133.5q0 73 -61.5 123.5t-169.5 50.5h-84l21 112h131q105 0 170 51.5t65 123.5q0 74 -64.5 124t-181.5 50q-114 0 -181 -54.5
t-85 -150.5h-123q17 146 130 236.5t270 90.5q172 0 265 -77.5t93 -198.5q0 -132 -109 -209q-41 -30 -106 -47v-10q15 -5 36 -18.5t46.5 -37t43 -63.5t17.5 -86q0 -130 -98 -220t-266 -97l-39 -226h-123z" />
    <glyph glyph-name="uni049A" unicode="&#x49a;" horiz-adv-x="1181" 
d="M184 0l252 1434h123l-119 -676l768 676h164l-805 -715l490 -596h153l-71 -410h-123l51 287h-68l-569 696l-123 -696h-123z" />
    <glyph glyph-name="uni049B" unicode="&#x49b;" horiz-adv-x="972" 
d="M164 0l180 1024h123l-84 -471l582 471h178l-633 -510l346 -391h137l-65 -369h-123l45 246h-45l-432 492l-86 -492h-123z" />
    <glyph glyph-name="uni049C" unicode="&#x49c;" horiz-adv-x="1218" 
d="M184 0l252 1434h123l-115 -656h113l43 246h123l-43 -246h82l551 656h143l-602 -715l381 -719h-150l-346 655h-82l-39 -225h-122l39 225h-113l-115 -655h-123z" />
    <glyph glyph-name="uni049D" unicode="&#x49d;" horiz-adv-x="1013" 
d="M164 0l180 1024h123l-78 -440h82l31 174h112l-30 -174h63l383 440h160l-445 -510l265 -514h-150l-235 461h-64l-31 -174h-112l31 174h-82l-80 -461h-123z" />
    <glyph glyph-name="uni049E" unicode="&#x49e;" horiz-adv-x="1157" 
d="M184 0l197 1126h-184l22 123h184l33 185h123l-33 -185h164l-22 -123h-164l-64 -368l768 676h164l-805 -715l590 -719h-158l-569 696l-123 -696h-123z" />
    <glyph glyph-name="uni049F" unicode="&#x49f;" horiz-adv-x="983" 
d="M174 0l199 1137h-174l20 112h174l33 185h123l-33 -185h236l-21 -112h-235l-103 -584l582 471h178l-633 -510l457 -514h-162l-432 492l-86 -492h-123z" />
    <glyph glyph-name="uni04A0" unicode="&#x4a0;" horiz-adv-x="1198" 
d="M225 0l230 1311h-226l23 123h348l-119 -676l768 676h164l-805 -715l590 -719h-158l-569 696l-123 -696h-123z" />
    <glyph glyph-name="uni04A1" unicode="&#x4a1;" horiz-adv-x="1013" 
d="M205 0l157 901h-204l22 123h328l-84 -471l582 471h178l-633 -510l457 -514h-162l-432 492l-86 -492h-123z" />
    <glyph glyph-name="uni04A2" unicode="&#x4a2;" horiz-adv-x="1505" 
d="M184 0l252 1434h123l-115 -646h850l115 646h123l-232 -1311h164l-71 -410h-123l51 287h-164l117 666h-850l-117 -666h-123z" />
    <glyph glyph-name="uni04A3" unicode="&#x4a3;" horiz-adv-x="1187" 
d="M164 0l180 1024h123l-80 -451h584l80 451h123l-160 -901h153l-65 -369h-123l45 246h-154l78 451h-583l-78 -451h-123z" />
    <glyph glyph-name="uni04A4" unicode="&#x4a4;" horiz-adv-x="1986" 
d="M184 0l252 1434h123l-115 -646h809l115 646h830l-23 -123h-707l-229 -1311h-123l117 666h-809l-117 -666h-123z" />
    <glyph glyph-name="uni04A5" unicode="&#x4a5;" horiz-adv-x="1474" 
d="M164 0l180 1024h123l-80 -451h553l80 451h594l-23 -123h-471l-157 -901h-123l78 451h-553l-78 -451h-123z" />
    <glyph glyph-name="uni04A6" unicode="&#x4a6;" horiz-adv-x="2119" 
d="M184 0l252 1434h994l-125 -709q46 24 92 37q117 37 221 37q213 0 337 -118t124 -312q0 -277 -154 -441t-389 -164h-63l22 123h41q182 0 301 125.5t119 335.5q0 153 -99 240.5t-270 87.5q-121 0 -219 -41q-30 -11 -88 -41l-102 -594h-123l229 1311h-747l-230 -1311h-123z
" />
    <glyph glyph-name="uni04A7" unicode="&#x4a7;" horiz-adv-x="1638" 
d="M164 0l180 1024h748l-91 -512q32 18 60 25q72 26 158 26q169 0 273.5 -108t104.5 -291q0 -133 -42 -244.5t-110.5 -182t-153.5 -109t-175 -38.5h-24l22 123h16q61 0 121 29.5t110.5 83t82 139.5t31.5 189q0 130 -78 208t-209 78q-76 0 -148 -26q-30 -8 -61 -25l-68 -389
h-123l158 901h-502l-157 -901h-123z" />
    <glyph glyph-name="uni04A8" unicode="&#x4a8;" horiz-adv-x="1607" 
d="M1419 102l-20 -122q-187 0 -326 61q-1 0 -20.5 -8.5t-28 -11.5t-30 -11t-39 -12t-42.5 -9t-52 -7t-56 -2q-162 0 -295.5 77.5t-211 216t-77.5 310.5q0 158 43.5 298.5t117.5 243t171.5 178t207.5 113t222 37.5h37l-25 -123h-37q-84 0 -170 -31t-165.5 -93.5
t-141.5 -147.5t-99.5 -203.5t-37.5 -251.5q0 -221 134 -361.5t337 -140.5q70 0 133 21q-106 86 -165.5 213.5t-59.5 267.5q0 164 44.5 300t119.5 223.5t173 135.5t206 48q158 0 263 -119.5t105 -321.5q0 -244 -105 -436t-294 -311q65 -21 184 -21zM1092 174
q184 94 301.5 279t117.5 407q0 157 -73 242.5t-193 85.5q-74 0 -144.5 -38.5t-127.5 -108t-92 -178.5t-35 -238q0 -147 64.5 -264.5t181.5 -186.5z" />
    <glyph glyph-name="uni04A9" unicode="&#x4a9;" 
d="M1030 102l-20 -122q-140 0 -230 51q-97 -51 -194 -51q-178 0 -294 119.5t-116 310.5q0 142 43 262.5t117 201t172.5 125.5t208.5 45h28l-20 -122h-16q-173 0 -291.5 -135t-118.5 -357q0 -154 84.5 -241t232.5 -87q24 0 52 4l20 7q-60 53 -91.5 137.5t-31.5 179.5
q0 153 49 264t126.5 164t172.5 53q112 0 179 -75t67 -211q0 -328 -246 -512l27 -7q36 -4 90 -4zM801 174q105 65 170 176.5t65 253.5q0 84 -38.5 134t-94.5 50q-85 0 -150 -91.5t-65 -256.5q0 -167 113 -266z" />
    <glyph glyph-name="uni04AA" unicode="&#x4aa;" horiz-adv-x="1505" 
d="M682 -287l47 275q-226 32 -362 199.5t-136 416.5q0 187 63.5 348.5t169.5 270t242.5 170t282.5 61.5q230 0 388 -137t196 -344h-133q-42 164 -164.5 261t-296.5 97q-119 0 -231.5 -52t-200 -143.5t-140.5 -228t-53 -293.5q0 -228 138 -370t354 -142q172 0 314.5 96
t228.5 273h133q-89 -220 -272 -353t-400 -138l-45 -267h-123z" />
    <glyph glyph-name="uni04AB" unicode="&#x4ab;" horiz-adv-x="1105" 
d="M487 -246l41 232q-163 24 -258.5 140.5t-95.5 303.5q0 127 46 242t121.5 196t174.5 128.5t201 47.5q176 0 278 -93t133 -255h-129q-26 104 -99.5 165t-192.5 61q-102 0 -196 -61t-154 -170.5t-60 -239.5q0 -158 88 -253.5t229 -95.5q105 0 196.5 63.5t145.5 172.5h129
q-63 -152 -176.5 -247.5t-257.5 -108.5l-41 -228h-123z" />
    <glyph glyph-name="uni04AC" unicode="&#x4ac;" horiz-adv-x="1228" 
d="M655 -287l52 287h-164l229 1311h-491l22 123h1106l-23 -123h-491l-209 -1188h164l-72 -410h-123z" />
    <glyph glyph-name="uni04AD" unicode="&#x4ad;" horiz-adv-x="901" 
d="M498 -246l45 246h-154l158 901h-348l22 123h819l-22 -123h-348l-138 -778h154l-65 -369h-123z" />
    <glyph glyph-name="uni04AE" unicode="&#x4ae;" horiz-adv-x="1208" 
d="M522 0l94 539l-374 895h133l307 -738h39l567 738h142l-691 -895l-94 -539h-123z" />
    <glyph glyph-name="uni04AF" unicode="&#x4af;" horiz-adv-x="983" 
d="M346 -410l74 410h-29l-201 1024h119l172 -881h41l484 881h127l-562 -1024h-28l-74 -410h-123z" />
    <glyph glyph-name="uni04B0" unicode="&#x4b0;" horiz-adv-x="1208" 
d="M522 0l92 532h-307l23 123h237l-325 779h133l307 -738h39l567 738h142l-601 -779h238l-23 -123h-307l-92 -532h-123z" />
    <glyph glyph-name="uni04B1" unicode="&#x4b1;" horiz-adv-x="983" 
d="M346 -410l74 410h-215l20 123h142l-177 901h119l172 -881h41l484 881h127l-494 -901h139l-20 -123h-215l-74 -410h-123z" />
    <glyph glyph-name="uni04B2" unicode="&#x4b2;" horiz-adv-x="1259" 
d="M20 0l633 745l-340 689h136l294 -594h41l504 594h154l-596 -705l303 -606h139l-71 -410h-123l51 287h-70l-319 635h-41l-541 -635h-154z" />
    <glyph glyph-name="uni04B3" unicode="&#x4b3;" horiz-adv-x="962" 
d="M10 0l441 530l-240 494h137l203 -420h41l350 420h152l-430 -510l190 -391h137l-65 -369h-123l45 246h-72l-211 440h-41l-362 -440h-152z" />
    <glyph glyph-name="uni04B4" unicode="&#x4b4;" horiz-adv-x="1751" 
d="M453 0l229 1311h-451l23 123h1024l-23 -123h-450l-209 -1188h799l231 1311h123l-231 -1311h163l-71 -410h-123l51 287h-1085z" />
    <glyph glyph-name="uni04B5" unicode="&#x4b5;" horiz-adv-x="1341" 
d="M338 0l158 901h-318l23 123h727l-23 -123h-287l-137 -778h563l160 901h123l-160 -901h154l-66 -369h-122l45 246h-840z" />
    <glyph glyph-name="uni04B6" unicode="&#x4b6;" horiz-adv-x="1423" 
d="M1192 -287l51 287h-164l105 600q-58 -34 -125 -55q-149 -53 -287 -53q-228 0 -339 99.5t-111 289.5q0 54 10 112l78 441h122l-77 -441q-11 -64 -11 -102q0 -142 85 -209.5t274 -67.5q158 0 293 58q58 22 110 59l125 703h123l-231 -1311h163l-71 -410h-123z" />
    <glyph glyph-name="uni04B7" unicode="&#x4b7;" horiz-adv-x="1126" 
d="M918 -246l45 246h-154l70 389q-116 -61 -285 -61q-171 0 -256.5 78.5t-85.5 228.5q0 41 10 106l51 283h123l-53 -295q-8 -31 -8 -84q0 -96 59.5 -145t190.5 -49q174 0 276 67l88 506h123l-160 -901h154l-66 -369h-122z" />
    <glyph glyph-name="uni04B8" unicode="&#x4b8;" horiz-adv-x="1382" 
d="M666 276l39 218q-383 33 -383 387q0 54 10 112l78 441h122l-77 -441q-11 -64 -11 -102q0 -127 67 -194.5t214 -80.5l51 285h123l-51 -285q135 7 262 62q46 18 96 53l125 703h123l-252 -1434h-123l105 600q-68 -33 -107 -47q-137 -52 -250 -59l-39 -218h-122z" />
    <glyph glyph-name="uni04B9" unicode="&#x4b9;" horiz-adv-x="1095" 
d="M514 195l23 135q-141 12 -213 90.5t-72 214.5q0 41 10 106l51 283h123l-53 -295q-8 -31 -8 -84q0 -170 184 -192l35 192h113l-35 -194q139 10 229 67l88 506h123l-180 -1024h-123l70 389q-97 -51 -230 -59l-22 -135h-113z" />
    <glyph glyph-name="uni04BA" unicode="&#x4ba;" horiz-adv-x="1372" 
d="M184 0l252 1434h123l-104 -600q70 36 125 53q155 55 286 55q228 0 339.5 -99.5t111.5 -289.5q0 -55 -10 -113l-78 -440h-123l78 440q10 58 10 103q0 142 -84.5 209t-273.5 67q-158 0 -295 -59q-65 -25 -109 -58l-125 -702h-123z" />
    <glyph glyph-name="uni04BB" unicode="&#x4bb;" horiz-adv-x="1198" 
d="M174 0l252 1434h123l-96 -543h10q39 45 80 76q109 77 235 77q160 0 264.5 -104t104.5 -264q0 -34 -10 -92l-103 -584h-123l105 594q8 31 8 72q0 108 -75.5 182t-190.5 74q-127 0 -230.5 -94t-124.5 -214l-106 -614h-123z" />
    <glyph glyph-name="uni04BC" unicode="&#x4bc;" horiz-adv-x="1689" 
d="M356 655h-24q-96 0 -145.5 44t-49.5 114q0 44 4 59l11 50h118l-6 -31q-4 -28 -4 -41q0 -40 19 -56t71 -16h21q29 149 102 276.5t172.5 214.5t220.5 136t246 49q173 0 306 -79t205.5 -221t72.5 -325q0 -71 -6 -102l-11 -72h-1200q-2 -14 -2 -41q0 -228 138 -370t354 -142
q154 0 297.5 87.5t228.5 240.5h131q-100 -205 -283.5 -327.5t-384.5 -122.5q-268 0 -436 173.5t-168 450.5q0 33 2 51zM494 778h1077v13q0 4 1 13.5t1 14.5q0 228 -131.5 370t-339.5 142q-137 0 -263.5 -66.5t-219.5 -194t-125 -292.5z" />
    <glyph glyph-name="uni04BD" unicode="&#x4bd;" horiz-adv-x="1249" 
d="M285 430v21h-41q-68 0 -106 35.5t-38 97.5q0 31 6 61l7 31h120l-4 -21q-6 -30 -6 -41q0 -41 53 -41h25q46 205 195.5 338t330.5 133q192 0 306 -120t114 -320q0 -61 -8 -92l-12 -61h-819q0 -158 89 -253.5t230 -95.5q60 0 115 20.5t94 53.5t62.5 59.5t39.5 51.5h136
q-12 -24 -29 -51.5t-45.5 -64.5t-66.5 -69t-84.5 -60.5t-107 -45t-126.5 -16.5q-193 0 -311.5 122t-118.5 328zM422 573h702q0 163 -80.5 256t-226.5 93q-141 0 -248.5 -101.5t-146.5 -247.5z" />
    <glyph glyph-name="uni04BE" unicode="&#x4be;" horiz-adv-x="1689" 
d="M815 -287l47 273q-228 29 -368 198.5t-140 419.5q0 33 2 51h-24q-96 0 -145.5 44t-49.5 114q0 44 4 59l11 50h118l-6 -31q-4 -28 -4 -41q0 -40 19 -56t71 -16h21q29 149 102 276.5t172.5 214.5t220.5 136t246 49q173 0 306 -79t205.5 -221t72.5 -325q0 -71 -6 -102
l-11 -72h-1200q-2 -14 -2 -41q0 -228 138 -370t354 -142q154 0 297.5 87.5t228.5 240.5h131q-98 -198 -274 -320t-369 -130l-45 -267h-123zM494 778h1077v13q0 4 1 13.5t1 14.5q0 228 -131.5 370t-339.5 142q-137 0 -263.5 -66.5t-219.5 -194t-125 -292.5z" />
    <glyph glyph-name="uni04BF" unicode="&#x4bf;" horiz-adv-x="1249" 
d="M588 -246l41 234q-160 25 -252 141.5t-92 300.5v21h-41q-68 0 -106 35.5t-38 97.5q0 31 6 61l7 31h120l-4 -21q-6 -30 -6 -41q0 -41 53 -41h25q46 205 195.5 338t330.5 133q192 0 306 -120t114 -320q0 -61 -8 -92l-12 -61h-819q0 -158 89 -253.5t230 -95.5q60 0 115 20.5
t94 53.5t62.5 59.5t39.5 51.5h136q-15 -30 -34 -60t-58 -75t-83 -78.5t-109.5 -60t-137.5 -31.5l-41 -228h-123zM422 573h702q0 163 -80.5 256t-226.5 93q-141 0 -248.5 -101.5t-146.5 -247.5z" />
    <glyph glyph-name="uni04C0" unicode="&#x4c0;" horiz-adv-x="491" 
d="M184 0l252 1434h123l-252 -1434h-123z" />
    <glyph glyph-name="uni04C1" unicode="&#x4c1;" horiz-adv-x="1638" 
d="M0 0l748 735l-443 699h150l432 -686l121 686h122l-120 -686l673 686h162l-704 -715l481 -719h-149l-472 707l-122 -707h-123l123 707l-717 -707h-162zM842 1853h112q0 -143 154 -143q66 0 111 39t63 104h113q-23 -118 -99 -181.5t-198 -63.5q-116 0 -186 62.5t-70 162.5
v20z" />
    <glyph glyph-name="uni04C2" unicode="&#x4c2;" horiz-adv-x="1290" 
d="M-10 0l551 532l-324 492h145l316 -481l86 481h123l-86 -481l487 481h162l-520 -512l354 -512h-145l-344 502l-88 -502h-123l88 502l-520 -502h-162zM604 1454h113q0 -143 153 -143q67 0 113 39.5t64 103.5h110q-23 -118 -99 -182t-198 -64q-116 0 -186 62.5t-70 163.5v20
z" />
    <glyph glyph-name="uni04C3" unicode="&#x4c3;" horiz-adv-x="1249" 
d="M184 0l252 1434h123l-119 -676l768 676h164l-684 -600q6 0 12 2q20 4 37 4q211 0 341 -121.5t130 -308.5q0 -146 -43.5 -268.5t-118.5 -204.5t-177.5 -127.5t-219.5 -45.5h-45l21 123h30q181 0 305.5 139.5t124.5 352.5q0 161 -99.5 249.5t-278.5 88.5q-108 0 -209 -37
q-32 -11 -78 -35l-113 -645h-123z" />
    <glyph glyph-name="uni04C4" unicode="&#x4c4;" horiz-adv-x="1034" 
d="M420 -410l22 123h39q75 0 145 29.5t127.5 85t92.5 145.5t35 201q0 140 -80.5 218.5t-227.5 78.5q-78 0 -153 -27q-37 -10 -60 -24l-73 -420h-123l180 1024h123l-84 -471l582 471h178l-535 -430q173 0 284.5 -111.5t111.5 -287.5q0 -138 -43 -253.5t-116 -191.5
t-169.5 -118t-204.5 -42h-51z" />
    <glyph glyph-name="uni04C5" unicode="&#x4c5;" horiz-adv-x="1382" 
d="M0 -10l20 123h66q153 0 205 192l297 1129h856l-232 -1311h185l-6 -31l-189 -379h-92l113 287h-154l229 1311h-620l-268 -1020q-42 -162 -121.5 -231.5t-212.5 -69.5h-76z" />
    <glyph glyph-name="uni04C6" unicode="&#x4c6;" horiz-adv-x="1105" 
d="M0 -10l18 123h74q57 0 96.5 35t61.5 118l196 758h666l-160 -901h174l-4 -21l-164 -348h-92l97 246h-154l158 901h-430l-168 -649q-68 -262 -287 -262h-82z" />
    <glyph glyph-name="uni04C7" unicode="&#x4c7;" horiz-adv-x="1464" 
d="M184 0l252 1434h123l-115 -646h850l115 646h123l-279 -1581q-25 -135 -96.5 -199t-200.5 -64h-67l22 123h62q132 0 160 150l141 803h-850l-117 -666h-123z" />
    <glyph glyph-name="uni04C8" unicode="&#x4c8;" horiz-adv-x="1157" 
d="M164 0l180 1024h123l-80 -451h584l80 451h123l-205 -1161q-49 -273 -291 -273h-66l23 123h47q139 0 166 160l100 578h-583l-78 -451h-123z" />
    <glyph glyph-name="uni04C9" unicode="&#x4c9;" horiz-adv-x="1464" 
d="M184 0l252 1434h123l-115 -646h850l115 646h123l-232 -1311h185l-6 -31l-189 -379h-92l113 287h-154l117 666h-850l-117 -666h-123z" />
    <glyph glyph-name="uni04CA" unicode="&#x4ca;" horiz-adv-x="1167" 
d="M164 0l180 1024h123l-80 -451h584l80 451h123l-160 -901h174l-4 -21l-164 -348h-92l96 246h-154l78 451h-583l-78 -451h-123z" />
    <glyph glyph-name="uni04CB" unicode="&#x4cb;" horiz-adv-x="1382" 
d="M864 -287l72 410h164l84 477q-58 -34 -125 -55q-149 -53 -287 -53q-228 0 -339 99.5t-111 289.5q0 54 10 112l78 441h122l-77 -441q-11 -64 -11 -102q0 -142 85 -209.5t274 -67.5q158 0 293 58q58 22 110 59l125 703h123l-252 -1434h-164l-51 -287h-123z" />
    <glyph glyph-name="uni04CC" unicode="&#x4cc;" horiz-adv-x="1095" 
d="M610 -246l66 369h153l50 266q-116 -61 -285 -61q-171 0 -256.5 78.5t-85.5 228.5q0 41 10 106l51 283h123l-53 -295q-8 -31 -8 -84q0 -96 59.5 -145t190.5 -49q174 0 276 67l88 506h123l-180 -1024h-154l-45 -246h-123z" />
    <glyph glyph-name="uni04CD" unicode="&#x4cd;" horiz-adv-x="1843" 
d="M184 0l252 1434h232l250 -1311h40l713 1311h240l-232 -1311h185l-6 -31l-189 -379h-92l113 287h-154l225 1280h-41l-696 -1280h-205l-246 1280h-41l-225 -1280h-123z" />
    <glyph glyph-name="uni04CE" unicode="&#x4ce;" horiz-adv-x="1484" 
d="M164 0l180 1024h236l155 -891h41l471 891h244l-160 -901h174l-4 -21l-164 -348h-92l96 246h-153l155 891h-40l-469 -891h-193l-158 891h-41l-155 -891h-123z" />
    <glyph glyph-name="uni04CF" unicode="&#x4cf;" horiz-adv-x="471" 
d="M174 0l252 1434h123l-252 -1434h-123z" />
    <glyph glyph-name="uni04D0" unicode="&#x4d0;" horiz-adv-x="1290" 
d="M20 0l795 1434h184l291 -1434h-119l-79 389h-730l-215 -389h-127zM428 512h639l-160 788h-41zM676 1853h112q0 -143 154 -143q66 0 111 39t63 104h113q-23 -118 -99 -181.5t-198 -63.5q-116 0 -186 62.5t-70 162.5v20z" />
    <glyph glyph-name="uni04D1" unicode="&#x4d1;" horiz-adv-x="1095" 
d="M901 430l14 72h-333q-135 0 -206 -61.5t-71 -164.5q0 -81 56 -127.5t169 -46.5q147 0 243.5 86.5t127.5 241.5zM848 0l4 143h-10q-41 -47 -90 -82q-113 -81 -242 -81q-150 0 -239 78.5t-89 197.5q0 164 105.5 261t294.5 97h354l4 21q10 38 10 72q0 102 -64 158.5
t-192 56.5q-119 0 -190 -52.5t-92 -142.5h-123q15 64 47 119t82 100.5t123.5 71.5t163.5 26q175 0 271.5 -87t96.5 -230q0 -54 -10 -92l-113 -635h-102zM524 1454h113q0 -143 154 -143q67 0 112.5 39.5t63.5 103.5h110q-23 -118 -99 -182t-198 -64q-116 0 -186 62.5
t-70 163.5v20z" />
    <glyph glyph-name="uni04D2" unicode="&#x4d2;" horiz-adv-x="1290" 
d="M20 0l795 1434h184l291 -1434h-119l-79 389h-730l-215 -389h-127zM428 512h639l-160 788h-41zM696 1659l25 143h143l-24 -143h-144zM1044 1659l25 143h143l-24 -143h-144z" />
    <glyph glyph-name="uni04D3" unicode="&#x4d3;" horiz-adv-x="1095" 
d="M901 430l14 72h-333q-135 0 -206 -61.5t-71 -164.5q0 -81 56 -127.5t169 -46.5q147 0 243.5 86.5t127.5 241.5zM848 0l4 143h-10q-41 -47 -90 -82q-113 -81 -242 -81q-150 0 -239 78.5t-89 197.5q0 164 105.5 261t294.5 97h354l4 21q10 38 10 72q0 102 -64 158.5
t-192 56.5q-119 0 -190 -52.5t-92 -142.5h-123q15 64 47 119t82 100.5t123.5 71.5t163.5 26q175 0 271.5 -87t96.5 -230q0 -54 -10 -92l-113 -635h-102zM543 1260l24 143h144l-25 -143h-143zM891 1260l24 143h144l-25 -143h-143z" />
    <glyph glyph-name="uni04D6" unicode="&#x4d6;" horiz-adv-x="1218" 
d="M184 0l252 1434h905l-22 -123h-782l-95 -533h746l-21 -123h-745l-94 -532h782l-20 -123h-906zM655 1853h113q0 -143 154 -143q66 0 111 39t63 104h112q-23 -118 -99 -181.5t-198 -63.5q-116 0 -186 62.5t-70 162.5v20z" />
    <glyph glyph-name="uni04D7" unicode="&#x4d7;" horiz-adv-x="1136" 
d="M928 287h135q-12 -24 -29 -51.5t-45.5 -64.5t-66.5 -69t-84.5 -60.5t-107 -45t-126.5 -16.5q-193 0 -311.5 122t-118.5 328q0 127 46 242t121.5 196t174.5 128.5t201 47.5q192 0 306 -120t114 -320q0 -58 -9 -92l-12 -61h-819q0 -158 89 -253.5t230 -95.5q60 0 115 20.5
t94.5 53.5t63 59.5t39.5 51.5zM311 573h703q0 163 -80.5 256t-226.5 93q-141 0 -249 -101.5t-147 -247.5zM512 1454h113q0 -143 153 -143q67 0 112.5 39.5t63.5 103.5h111q-23 -118 -99 -182t-198 -64q-116 0 -186 62.5t-70 163.5v20z" />
    <glyph glyph-name="uni04D8" unicode="&#x4d8;" horiz-adv-x="1556" 
d="M238 707l10 71h1200q2 14 2 41q0 228 -138 370t-354 142q-155 0 -297 -87.5t-229 -239.5h-131q100 205 283.5 327.5t384.5 122.5q268 0 436 -174t168 -451q0 -147 -42.5 -280.5t-116 -235.5t-169.5 -178t-206.5 -115.5t-223.5 -39.5q-173 0 -306 78.5t-205.5 220.5
t-72.5 325q0 67 7 103zM1434 655h-1078q-2 -2 -2 -12v-29q0 -228 131.5 -370t339.5 -142q137 0 263.5 66.5t220 194.5t125.5 292z" />
    <glyph glyph-name="uni04D9" unicode="&#x4d9;" horiz-adv-x="1136" 
d="M182 512l13 61h819q0 158 -89.5 253.5t-230.5 95.5q-184 0 -311 -185h-135q12 24 29 51.5t45.5 64.5t66.5 69t84.5 60.5t107 45t126.5 16.5q193 0 311.5 -122t118.5 -328q0 -127 -46 -242t-121.5 -196t-174.5 -128.5t-201 -47.5q-192 0 -306 120t-114 320q0 61 8 92z
M999 451h-702q0 -163 80.5 -256t226.5 -93q141 0 248.5 101.5t146.5 247.5z" />
    <glyph glyph-name="uni04DA" unicode="&#x4da;" horiz-adv-x="1556" 
d="M238 707l10 71h1200q2 14 2 41q0 228 -138 370t-354 142q-155 0 -297 -87.5t-229 -239.5h-131q100 205 283.5 327.5t384.5 122.5q268 0 436 -174t168 -451q0 -147 -42.5 -280.5t-116 -235.5t-169.5 -178t-206.5 -115.5t-223.5 -39.5q-173 0 -306 78.5t-205.5 220.5
t-72.5 325q0 67 7 103zM1434 655h-1078q-2 -2 -2 -12v-29q0 -228 131.5 -370t339.5 -142q137 0 263.5 66.5t220 194.5t125.5 292zM805 1659l24 143h144l-25 -143h-143zM1153 1659l25 143h143l-25 -143h-143z" />
    <glyph glyph-name="uni04DB" unicode="&#x4db;" horiz-adv-x="1136" 
d="M182 512l13 61h819q0 158 -89.5 253.5t-230.5 95.5q-184 0 -311 -185h-135q12 24 29 51.5t45.5 64.5t66.5 69t84.5 60.5t107 45t126.5 16.5q193 0 311.5 -122t118.5 -328q0 -127 -46 -242t-121.5 -196t-174.5 -128.5t-201 -47.5q-192 0 -306 120t-114 320q0 61 8 92z
M999 451h-702q0 -163 80.5 -256t226.5 -93q141 0 248.5 101.5t146.5 247.5zM528 1260l25 143h143l-24 -143h-144zM877 1260l24 143h143l-24 -143h-143z" />
    <glyph glyph-name="uni04DC" unicode="&#x4dc;" horiz-adv-x="1638" 
d="M0 0l748 735l-443 699h150l432 -686l121 686h122l-120 -686l673 686h162l-704 -715l481 -719h-149l-472 707l-122 -707h-123l123 707l-717 -707h-162zM854 1659l25 143h143l-25 -143h-143zM1202 1659l25 143h143l-24 -143h-144z" />
    <glyph glyph-name="uni04DD" unicode="&#x4dd;" horiz-adv-x="1290" 
d="M-10 0l551 532l-324 492h145l316 -481l86 481h123l-86 -481l487 481h162l-520 -512l354 -512h-145l-344 502l-88 -502h-123l88 502l-520 -502h-162zM614 1260l25 143h143l-24 -143h-144zM963 1260l24 143h143l-24 -143h-143z" />
    <glyph glyph-name="uni04DE" unicode="&#x4de;" horiz-adv-x="1239" 
d="M156 389h118v-20q0 -113 99 -190t280 -77q191 0 300.5 89t109.5 219q0 102 -86 173.5t-221 71.5h-144l23 123h192q127 0 222.5 89t95.5 198q0 111 -91.5 188.5t-246.5 77.5q-163 0 -264 -74.5t-121 -212.5h-123q30 189 165 299.5t353 110.5q210 0 330.5 -106.5
t120.5 -272.5q0 -177 -144 -287q-66 -48 -143 -71v-10q54 -22 102 -64q103 -95 103 -233q0 -185 -145 -307.5t-398 -122.5q-230 0 -360.5 108.5t-130.5 269.5q0 19 2 23q0 6 2 8zM635 1659l24 143h144l-25 -143h-143zM983 1659l25 143h143l-25 -143h-143z" />
    <glyph glyph-name="uni04DF" unicode="&#x4df;" horiz-adv-x="942" 
d="M135 317h123q-2 -2 -2 -6v-14q0 -89 70.5 -142t205.5 -53q125 0 190.5 51.5t65.5 133.5q0 73 -61.5 123.5t-169.5 50.5h-84l21 112h131q105 0 170 51.5t65 123.5q0 74 -64.5 124t-181.5 50q-114 0 -181 -54.5t-85 -150.5h-123q17 146 130 236.5t270 90.5q172 0 265 -77.5
t93 -198.5q0 -132 -109 -209q-41 -30 -106 -47v-10q15 -5 36 -18.5t46.5 -37t43 -63.5t17.5 -86q0 -134 -105 -225.5t-284 -91.5q-185 0 -287 83.5t-102 212.5v29q0 10 2 12zM446 1260l25 143h143l-24 -143h-144zM795 1260l24 143h144l-25 -143h-143z" />
    <glyph glyph-name="uni04E0" unicode="&#x4e0;" horiz-adv-x="1198" 
d="M139 369h121v-11q0 -109 95 -182.5t284 -73.5q181 0 289 97t108 252q0 126 -84.5 201t-240.5 75h-252l22 123l619 461h-754l23 123h931l-22 -123l-606 -451l-2 -10h61q194 0 311 -107t117 -272q0 -217 -142.5 -354t-377.5 -137q-243 0 -372.5 98.5t-129.5 249.5v28
q0 11 2 13z" />
    <glyph glyph-name="uni04E1" unicode="&#x4e1;" horiz-adv-x="993" 
d="M315 317l21 123l534 461h-616l22 123h779l-23 -123l-522 -450l-2 -11q194 0 306 -102.5t112 -265.5q0 -219 -139.5 -360.5t-342.5 -141.5q-188 0 -298.5 100.5t-110.5 257.5q0 23 2 29q0 10 2 12h121q-2 -4 -2 -12v-18q0 -109 83 -177.5t214 -68.5q151 0 249.5 97
t98.5 261q0 121 -76.5 193.5t-220.5 72.5h-191z" />
    <glyph glyph-name="uni04E2" unicode="&#x4e2;" horiz-adv-x="1464" 
d="M184 0l252 1434h119l-229 -1301h41l936 1301h229l-252 -1434h-123l227 1300h-41l-933 -1300h-226zM717 1669l18 103h574l-19 -103h-573z" />
    <glyph glyph-name="uni04E3" unicode="&#x4e3;" horiz-adv-x="1157" 
d="M164 0l180 1024h123l-158 -891h41l596 891h228l-181 -1024h-123l156 891h-41l-594 -891h-227zM502 1280l18 102h574l-19 -102h-573z" />
    <glyph glyph-name="uni04E4" unicode="&#x4e4;" horiz-adv-x="1464" 
d="M184 0l252 1434h119l-229 -1301h41l936 1301h229l-252 -1434h-123l227 1300h-41l-933 -1300h-226zM758 1659l24 143h144l-25 -143h-143zM1106 1659l24 143h144l-25 -143h-143z" />
    <glyph glyph-name="uni04E5" unicode="&#x4e5;" horiz-adv-x="1157" 
d="M164 0l180 1024h123l-158 -891h41l596 891h228l-181 -1024h-123l156 891h-41l-594 -891h-227zM553 1260l25 143h143l-25 -143h-143zM901 1260l25 143h143l-25 -143h-143z" />
    <glyph glyph-name="uni04E6" unicode="&#x4e6;" horiz-adv-x="1576" 
d="M1470 819q0 228 -137.5 370t-353.5 142q-119 0 -231.5 -52t-200 -143.5t-140.5 -228t-53 -293.5q0 -228 138 -370t354 -142q119 0 231.5 52t199.5 143.5t140 228t53 293.5zM1593 829q0 -182 -65.5 -343.5t-172 -270.5t-242.5 -172t-277 -63q-268 0 -436.5 173.5
t-168.5 450.5q0 147 42.5 281t116 236t169.5 178t207 115.5t223 39.5q268 0 436 -174t168 -451zM819 1659l25 143h143l-24 -143h-144zM1167 1659l25 143h143l-24 -143h-144z" />
    <glyph glyph-name="uni04E7" unicode="&#x4e7;" 
d="M176 430q0 127 46 242t121.5 196t174.5 128.5t201 47.5q193 0 311.5 -122t118.5 -328q0 -127 -46 -242t-121.5 -196t-174.5 -128.5t-201 -47.5q-193 0 -311.5 122t-118.5 328zM1026 573q0 158 -88 253.5t-229 95.5q-102 0 -196 -61t-154 -170.5t-60 -239.5
q0 -158 88 -253.5t229 -95.5q102 0 196 61t154 170.5t60 239.5zM528 1260l25 143h143l-24 -143h-144zM877 1260l24 143h143l-24 -143h-143z" />
    <glyph glyph-name="uni04E8" unicode="&#x4e8;" horiz-adv-x="1576" 
d="M1593 829q0 -182 -65.5 -343.5t-172 -270.5t-242.5 -172t-277 -63q-268 0 -436.5 173.5t-168.5 450.5q0 147 42.5 281t116 236t169.5 178t207 115.5t223 39.5q268 0 436 -174t168 -451zM354 655v-41q0 -228 138 -370t354 -142q137 0 263.5 66.5t219.5 194t125 292.5
h-1100zM369 778h1099q2 14 2 41q0 228 -137.5 370t-353.5 142q-102 0 -201.5 -39.5t-181.5 -110t-142.5 -175t-84.5 -228.5z" />
    <glyph glyph-name="uni04E9" unicode="&#x4e9;" 
d="M176 430q0 127 46 242t121.5 196t174.5 128.5t201 47.5q193 0 311.5 -122t118.5 -328q0 -127 -46 -242t-121.5 -196t-174.5 -128.5t-201 -47.5q-193 0 -311.5 122t-118.5 328zM313 573h713q0 158 -88 253.5t-229 95.5q-132 0 -246 -98.5t-150 -250.5zM1010 451h-711
q0 -158 88 -253.5t229 -95.5q129 0 243.5 99t150.5 250z" />
    <glyph glyph-name="uni04EA" unicode="&#x4ea;" horiz-adv-x="1576" 
d="M1593 829q0 -182 -65.5 -343.5t-172 -270.5t-242.5 -172t-277 -63q-268 0 -436.5 173.5t-168.5 450.5q0 147 42.5 281t116 236t169.5 178t207 115.5t223 39.5q268 0 436 -174t168 -451zM354 655v-41q0 -228 138 -370t354 -142q137 0 263.5 66.5t219.5 194t125 292.5
h-1100zM369 778h1099q2 14 2 41q0 228 -137.5 370t-353.5 142q-102 0 -201.5 -39.5t-181.5 -110t-142.5 -175t-84.5 -228.5zM815 1659l25 143h143l-25 -143h-143zM1163 1659l25 143h143l-24 -143h-144z" />
    <glyph glyph-name="uni04EB" unicode="&#x4eb;" 
d="M176 430q0 127 46 242t121.5 196t174.5 128.5t201 47.5q193 0 311.5 -122t118.5 -328q0 -127 -46 -242t-121.5 -196t-174.5 -128.5t-201 -47.5q-193 0 -311.5 122t-118.5 328zM313 573h713q0 158 -88 253.5t-229 95.5q-132 0 -246 -98.5t-150 -250.5zM1010 451h-711
q0 -158 88 -253.5t229 -95.5q129 0 243.5 99t150.5 250zM528 1260l25 143h143l-24 -143h-144zM877 1260l24 143h143l-24 -143h-143z" />
    <glyph glyph-name="uni04EC" unicode="&#x4ec;" horiz-adv-x="1515" 
d="M203 461h129q45 -164 169 -261.5t300 -97.5q137 0 263.5 66.5t219.5 194t125 292.5h-731l22 123h723q2 14 2 41q0 228 -137.5 370t-353.5 142q-163 0 -310 -94t-233 -254h-131q98 213 286 342t398 129q268 0 436 -174t168 -451q0 -182 -65.5 -343.5t-172 -270.5
t-242.5 -172t-277 -63q-234 0 -391 131t-197 350zM764 1659l24 143h144l-25 -143h-143zM1112 1659l25 143h143l-25 -143h-143z" />
    <glyph glyph-name="uni04ED" unicode="&#x4ed;" horiz-adv-x="1095" 
d="M150 328h133q5 -25 17 -51.5t35.5 -59t54.5 -57t79 -41.5t104 -17q137 0 249.5 92.5t156.5 256.5h-485l22 122h477v11q0 154 -89.5 246t-237.5 92q-64 0 -124.5 -25.5t-102 -63.5t-67 -70.5t-36.5 -55.5h-131q11 30 37 70.5t70 88t96.5 86.5t123.5 65.5t144 26.5
q205 0 322.5 -123t117.5 -327q0 -131 -46 -247t-122.5 -195.5t-177 -125.5t-207.5 -46q-90 0 -163.5 29t-115.5 69t-73 93t-42.5 88.5t-18.5 68.5zM481 1260l25 143h143l-24 -143h-144zM829 1260l25 143h143l-24 -143h-144z" />
    <glyph glyph-name="uni04EE" unicode="&#x4ee;" horiz-adv-x="1228" 
d="M184 0l21 123h194q72 0 107 61l90 148l-332 1102h127l279 -922h43l579 922h138l-834 -1328q-33 -53 -79 -79.5t-120 -26.5h-213zM573 1669l19 103h573l-18 -103h-574z" />
    <glyph glyph-name="uni04EF" unicode="&#x4ef;" horiz-adv-x="962" 
d="M39 -410l22 123h177q29 0 47.5 13.5t36.5 44.5l92 172l-219 1081h116l174 -870h41l461 870h127l-696 -1313q-33 -62 -78 -91.5t-115 -29.5h-186zM381 1280l18 102h574l-19 -102h-573z" />
    <glyph glyph-name="uni04F0" unicode="&#x4f0;" horiz-adv-x="1228" 
d="M184 0l21 123h194q72 0 107 61l90 148l-332 1102h127l279 -922h43l579 922h138l-834 -1328q-33 -53 -79 -79.5t-120 -26.5h-213zM602 1659l25 143h143l-25 -143h-143zM950 1659l25 143h143l-24 -143h-144z" />
    <glyph glyph-name="uni04F1" unicode="&#x4f1;" horiz-adv-x="962" 
d="M39 -410l22 123h177q29 0 47.5 13.5t36.5 44.5l92 172l-219 1081h116l174 -870h41l461 870h127l-696 -1313q-33 -62 -78 -91.5t-115 -29.5h-186zM422 1260l24 143h144l-25 -143h-143zM770 1260l25 143h143l-25 -143h-143z" />
    <glyph glyph-name="uni04F2" unicode="&#x4f2;" horiz-adv-x="1228" 
d="M184 0l21 123h194q72 0 107 61l90 148l-332 1102h127l279 -922h43l579 922h138l-834 -1328q-33 -53 -79 -79.5t-120 -26.5h-213zM614 1587l232 266h151l-262 -266h-121zM911 1587l232 266h151l-262 -266h-121z" />
    <glyph glyph-name="uni04F3" unicode="&#x4f3;" horiz-adv-x="962" 
d="M39 -410l22 123h177q29 0 47.5 13.5t36.5 44.5l92 172l-219 1081h116l174 -870h41l461 870h127l-696 -1313q-33 -62 -78 -91.5t-115 -29.5h-186zM440 1198l232 266h151l-262 -266h-121zM737 1198l232 266h151l-262 -266h-121z" />
    <glyph glyph-name="uni04F4" unicode="&#x4f4;" horiz-adv-x="1382" 
d="M1079 0l105 600q-58 -34 -125 -55q-149 -53 -287 -53q-228 0 -339 99.5t-111 289.5q0 54 10 112l78 441h122l-77 -441q-11 -64 -11 -102q0 -142 85 -209.5t274 -67.5q158 0 293 58q58 22 110 59l125 703h123l-252 -1434h-123zM715 1659l24 143h144l-25 -143h-143z
M1063 1659l24 143h144l-25 -143h-143z" />
    <glyph glyph-name="uni04F5" unicode="&#x4f5;" horiz-adv-x="1095" 
d="M809 0l70 389q-116 -61 -285 -61q-171 0 -256.5 78.5t-85.5 228.5q0 41 10 106l51 283h123l-53 -295q-8 -31 -8 -84q0 -96 59.5 -145t190.5 -49q174 0 276 67l88 506h123l-180 -1024h-123zM508 1260l24 143h144l-25 -143h-143zM856 1260l25 143h143l-25 -143h-143z" />
    <glyph glyph-name="uni04F6" unicode="&#x4f6;" horiz-adv-x="1105" 
d="M297 -287l51 287h-164l252 1434h881l-23 -123h-757l-209 -1188h164l-72 -410h-123z" />
    <glyph glyph-name="uni04F7" unicode="&#x4f7;" horiz-adv-x="839" 
d="M272 -246l45 246h-153l180 1024h635l-23 -123h-512l-137 -778h154l-66 -369h-123z" />
    <glyph glyph-name="uni04F8" unicode="&#x4f8;" horiz-adv-x="1628" 
d="M184 0l252 1434h123l-96 -543h397q155 0 257 -106.5t102 -272.5q0 -223 -144.5 -367.5t-367.5 -144.5h-523zM328 123h399q160 0 264.5 106t104.5 273q0 123 -69.5 194.5t-186.5 71.5h-398zM1321 0l252 1434h123l-252 -1434h-123zM840 1659l24 143h144l-25 -143h-143z
M1188 1659l24 143h144l-25 -143h-143z" />
    <glyph glyph-name="uni04F9" unicode="&#x4f9;" horiz-adv-x="1372" 
d="M164 0l180 1024h123l-64 -358h293q124 0 205.5 -83.5t81.5 -213.5q0 -160 -106 -264.5t-273 -104.5h-440zM307 123h318q98 0 166.5 68.5t68.5 166.5q0 85 -47.5 135t-126.5 50h-305zM1085 0l181 1024h123l-181 -1024h-123zM645 1260l25 143h143l-25 -143h-143zM993 1260
l25 143h143l-24 -143h-144z" />
    <glyph glyph-name="uni04FA" unicode="&#x4fa;" horiz-adv-x="1126" 
d="M184 -399l23 123h31q46 0 73 27.5t39 94.5l29 154h-164l117 666h-174l20 122h174l115 646h860l-22 -123h-738l-92 -523h399l-20 -122h-399l-97 -543h164l-49 -277q-24 -138 -82.5 -191.5t-175.5 -53.5h-31z" />
    <glyph glyph-name="uni04FB" unicode="&#x4fb;" horiz-adv-x="849" 
d="M141 -358l21 122h31q49 0 75.5 28t38.5 95l21 113h-154l78 451h-143l22 122h143l80 451h635l-22 -123h-512l-58 -328h369l-23 -122h-368l-58 -328h154l-41 -236q-23 -129 -85 -187t-173 -58h-31z" />
    <glyph glyph-name="uni04FC" unicode="&#x4fc;" horiz-adv-x="1228" 
d="M20 0l633 745l-340 689h136l294 -594h41l504 594h154l-596 -705l280 -565q82 -167 82 -297q0 -277 -327 -277h-41l20 123h41q99 0 141.5 38.5t42.5 125.5q0 90 -104 307l-225 451h-41l-541 -635h-154z" />
    <glyph glyph-name="uni04FD" unicode="&#x4fd;" horiz-adv-x="931" 
d="M10 0l441 530l-240 494h137l203 -420h41l350 420h152l-430 -510l192 -395q62 -130 62 -232q0 -132 -79 -214.5t-212 -82.5h-80l22 123h62q77 0 120.5 47.5t43.5 126.5q0 43 -16.5 89.5t-65.5 154.5l-148 309h-41l-362 -440h-152z" />
    <glyph glyph-name="uni04FE" unicode="&#x4fe;" horiz-adv-x="1228" 
d="M20 0l574 676h-244l21 123h256l-314 635h136l294 -594h41l504 594h154l-537 -635h244l-21 -123h-256l338 -676h-135l-319 635h-41l-541 -635h-154z" />
    <glyph glyph-name="uni04FF" unicode="&#x4ff;" horiz-adv-x="931" 
d="M10 0l383 461h-153l20 112h170l-219 451h137l203 -420h41l350 420h152l-381 -451h161l-20 -112h-166l225 -461h-137l-211 440h-41l-362 -440h-152z" />
    <glyph glyph-name="uni0510" unicode="&#x510;" horiz-adv-x="1239" 
d="M516 727l4 10q-51 26 -88 66q-86 94 -86 211q0 121 67.5 222t185.5 159.5t259 58.5q220 0 345.5 -102.5t125.5 -255.5v-31h-123v20q0 107 -93 176.5t-275 69.5q-157 0 -263 -91t-106 -216q0 -98 68.5 -172t181.5 -74h164l-23 -123h-207q-145 0 -241.5 -80t-96.5 -196
q0 -114 108 -195.5t292 -81.5q92 0 165 25.5t117.5 67t70 85t34.5 89.5h123q-10 -72 -50.5 -140t-105.5 -124t-163 -90.5t-212 -34.5q-242 0 -371.5 107.5t-129.5 270.5q0 196 161 304q72 47 162 65z" />
    <glyph glyph-name="uni0511" unicode="&#x511;" horiz-adv-x="942" 
d="M377 528l2 11q-31 14 -62 41q-61 61 -61 147q0 132 107.5 224.5t271.5 92.5q168 0 267 -83t99 -203v-21h-124q0 78 -69 131.5t-183 53.5q-117 0 -181.5 -50t-64.5 -124q0 -73 55 -124t150 -51h90l-21 -112h-129q-121 0 -189.5 -52t-68.5 -133q0 -75 69.5 -124.5
t207.5 -49.5q231 0 276 195h119q-12 -62 -40.5 -116t-77 -100.5t-125.5 -73.5t-173 -27q-181 0 -280 80.5t-99 195.5q0 56 17 101.5t42 74t58.5 50t61 31t55.5 15.5z" />
    <glyph glyph-name="uni0512" unicode="&#x512;" horiz-adv-x="1382" 
d="M0 -10l20 123h66q153 0 205 192l297 1129h856l-279 -1581q-25 -135 -97.5 -199t-201.5 -64h-67l22 123h62q131 0 159 150l256 1448h-620l-268 -1020q-42 -162 -121.5 -231.5t-212.5 -69.5h-76z" />
    <glyph glyph-name="uni0513" unicode="&#x513;" horiz-adv-x="1095" 
d="M0 -10l18 123h74q57 0 96.5 35t61.5 118l196 758h666l-205 -1161q-49 -273 -291 -273h-65l22 123h48q138 0 165 160l181 1028h-430l-168 -649q-68 -262 -287 -262h-82z" />
    <glyph glyph-name="Wgrave" unicode="&#x1e80;" horiz-adv-x="1945" 
d="M389 0l-106 1434h125l94 -1311h43l563 1311h205l100 -1311h43l557 1311h133l-610 -1434h-236l-96 1260h-41l-538 -1260h-236zM1151 1587l-168 266h139l138 -266h-109z" />
    <glyph glyph-name="wgrave" unicode="&#x1e81;" horiz-adv-x="1556" 
d="M307 0l-96 1024h119l78 -891h41l393 891h205l77 -891h41l394 891h127l-457 -1024h-205l-84 870h-41l-389 -870h-203zM885 1198l-168 266h139l137 -266h-108z" />
    <glyph glyph-name="Wacute" unicode="&#x1e82;" horiz-adv-x="1945" 
d="M389 0l-106 1434h125l94 -1311h43l563 1311h205l100 -1311h43l557 1311h133l-610 -1434h-236l-96 1260h-41l-538 -1260h-236zM1163 1587l232 266h151l-262 -266h-121z" />
    <glyph glyph-name="wacute" unicode="&#x1e83;" horiz-adv-x="1556" 
d="M307 0l-96 1024h119l78 -891h41l393 891h205l77 -891h41l394 891h127l-457 -1024h-205l-84 870h-41l-389 -870h-203zM901 1198l232 266h151l-262 -266h-121z" />
    <glyph glyph-name="Wdieresis" unicode="&#x1e84;" horiz-adv-x="1945" 
d="M389 0l-106 1434h125l94 -1311h43l563 1311h205l100 -1311h43l557 1311h133l-610 -1434h-236l-96 1260h-41l-538 -1260h-236zM983 1659l25 143h143l-25 -143h-143zM1331 1659l25 143h143l-24 -143h-144z" />
    <glyph glyph-name="wdieresis" unicode="&#x1e85;" horiz-adv-x="1556" 
d="M307 0l-96 1024h119l78 -891h41l393 891h205l77 -891h41l394 891h127l-457 -1024h-205l-84 870h-41l-389 -870h-203zM727 1260l25 143h143l-25 -143h-143zM1075 1260l25 143h143l-24 -143h-144z" />
    <glyph glyph-name="uni1E9E" unicode="&#x1e9e;" horiz-adv-x="1382" 
d="M174 0l188 1069q29 167 142.5 266t279.5 99h686l-20 -113l-518 -481v-11q204 -17 312 -116.5t108 -251.5q0 -202 -138.5 -331.5t-353.5 -129.5h-246l21 123h237q159 0 258 92t99 236q0 112 -80.5 184t-216.5 72h-184l24 133l508 471h-506q-114 0 -191 -66t-100 -188
l-186 -1057h-123z" />
    <glyph glyph-name="Ygrave" unicode="&#x1ef2;" horiz-adv-x="1208" 
d="M522 0l94 539l-374 895h133l307 -738h39l567 738h142l-691 -895l-94 -539h-123zM803 1587l-168 266h139l137 -266h-108z" />
    <glyph glyph-name="ygrave" unicode="&#x1ef3;" horiz-adv-x="962" 
d="M39 -410l22 123h177q29 0 47.5 13.5t36.5 44.5l92 172l-219 1081h116l174 -870h41l461 870h127l-696 -1313q-33 -62 -78 -91.5t-115 -29.5h-186zM598 1198l-168 266h139l138 -266h-109z" />
    <glyph glyph-name="endash" unicode="&#x2013;" horiz-adv-x="1126" 
d="M174 532l21 113h962l-20 -113h-963z" />
    <glyph glyph-name="emdash" unicode="&#x2014;" horiz-adv-x="1495" 
d="M174 532l21 113h1331l-21 -113h-1331z" />
    <glyph glyph-name="quoteleft" unicode="&#x2018;" horiz-adv-x="409" 
d="M299 1116l137 318h103l-97 -318h-143z" />
    <glyph glyph-name="quoteright" unicode="&#x2019;" horiz-adv-x="409" 
d="M319 1116l97 318h143l-137 -318h-103z" />
    <glyph glyph-name="quotesinglbase" unicode="&#x201a;" horiz-adv-x="430" 
d="M72 -164l108 318h133l-139 -318h-102z" />
    <glyph glyph-name="quotedblleft" unicode="&#x201c;" horiz-adv-x="655" 
d="M545 1116l137 318h102l-96 -318h-143zM299 1116l137 318h103l-97 -318h-143z" />
    <glyph glyph-name="quotedblright" unicode="&#x201d;" horiz-adv-x="655" 
d="M565 1116l97 318h143l-137 -318h-103zM319 1116l97 318h143l-137 -318h-103z" />
    <glyph glyph-name="quotedblbase" unicode="&#x201e;" horiz-adv-x="675" 
d="M317 -164l109 318h133l-139 -318h-103zM72 -164l108 318h133l-139 -318h-102z" />
    <glyph glyph-name="dagger" unicode="&#x2020;" horiz-adv-x="942" 
d="M410 0l170 973h-308l21 112h307l62 349h122l-61 -349h307l-20 -112h-308l-170 -973h-122z" />
    <glyph glyph-name="daggerdbl" unicode="&#x2021;" horiz-adv-x="942" 
d="M410 0l73 420h-307l19 112h307l78 441h-308l21 112h307l62 349h122l-61 -349h307l-20 -112h-308l-77 -441h307l-19 -112h-307l-74 -420h-122z" />
    <glyph glyph-name="bullet" unicode="&#x2022;" horiz-adv-x="819" 
d="M489 389q-68 0 -110.5 40.5t-42.5 102.5q0 78 53 131.5t131 53.5q68 0 111 -41t43 -103q0 -78 -53.5 -131t-131.5 -53z" />
    <glyph glyph-name="ellipsis" unicode="&#x2026;" horiz-adv-x="1290" 
d="M573 0l25 143h143l-24 -143h-144zM1004 0l24 143h143l-24 -143h-143zM143 0l25 143h143l-24 -143h-144z" />
    <glyph glyph-name="perthousand" unicode="&#x2030;" horiz-adv-x="2314" 
d="M258 0l1141 1434h135l-1141 -1434h-135zM565 932q94 0 154.5 64t60.5 171q0 78 -48 126t-126 48q-94 0 -154.5 -64t-60.5 -171q0 -78 48 -126t126 -48zM279 1096q0 158 97.5 258t239.5 100q123 0 200 -76.5t77 -199.5q0 -158 -98 -258.5t-240 -100.5q-123 0 -199.5 77
t-76.5 200zM1180 92q94 0 154.5 64.5t60.5 171.5q0 78 -48 126t-126 48q-94 0 -154.5 -64.5t-60.5 -171.5q0 -78 48 -126t126 -48zM893 256q0 158 97.5 258t240.5 100q123 0 199.5 -76.5t76.5 -199.5q0 -158 -97.5 -258t-240.5 -100q-123 0 -199.5 76.5t-76.5 199.5z
M1927 92q94 0 154.5 64.5t60.5 171.5q0 78 -48 126t-126 48q-94 0 -154.5 -64.5t-60.5 -171.5q0 -78 48 -126t126 -48zM1640 256q0 158 97.5 258t240.5 100q123 0 200 -76.5t77 -199.5q0 -158 -97.5 -258t-240.5 -100q-123 0 -200 76.5t-77 199.5z" />
    <glyph glyph-name="guilsinglleft" unicode="&#x2039;" horiz-adv-x="645" 
d="M416 123l-213 389l350 389h145l-362 -397l213 -381h-133z" />
    <glyph glyph-name="guilsinglright" unicode="&#x203a;" horiz-adv-x="645" 
d="M133 123l365 397l-215 381h133l215 -389l-352 -389h-146z" />
    <glyph glyph-name="uni203D" unicode="&#x203d;" horiz-adv-x="1044" 
d="M420 0l24 143h144l-25 -143h-143zM487 328l23 131l154 868q-120 -17 -195.5 -91t-89.5 -181h-123q30 180 156.5 289.5t314.5 109.5q181 0 295.5 -106t114.5 -263q0 -164 -89 -277t-219 -163q-104 -44 -144.5 -87t-53.5 -112l-21 -118h-123zM786 1325l-112 -627
q65 32 94 43q246 97 246 334q0 93 -62 162t-166 88z" />
    <glyph glyph-name="fraction" unicode="&#x2044;" horiz-adv-x="256" 
d="M-379 0l1143 1434h127l-1143 -1434h-127z" />
    <glyph glyph-name="uni2070" unicode="&#x2070;" horiz-adv-x="716" 
d="M594 1546q-36 0 -73 -23t-69 -66t-52.5 -113.5t-20.5 -155.5q0 -96 39.5 -145.5t103.5 -49.5q84 0 149.5 96t65.5 263q0 96 -39 145t-104 49zM512 891q-111 0 -178.5 75t-67.5 212q0 107 29.5 198t78 149.5t108.5 91t122 32.5q111 0 178.5 -75t67.5 -212
q0 -107 -29.5 -198t-78 -149.5t-108.5 -91t-122 -32.5z" />
    <glyph glyph-name="uni2074" unicode="&#x2074;" horiz-adv-x="634" 
d="M209 1065l14 82l375 491h180l-84 -471h103l-19 -102h-102l-29 -164h-112l28 164h-354zM371 1167h211l61 349h-16l-254 -338z" />
    <glyph glyph-name="uni2075" unicode="&#x2075;" horiz-adv-x="686" 
d="M266 1106h113q16 -113 143 -113q71 0 122.5 49t51.5 125q0 60 -40 96.5t-103 36.5q-38 0 -80.5 -20t-73.5 -51h-102l115 409h440l-18 -102h-338l-52 -174h11q70 41 129 41q99 0 162 -63t63 -162q0 -122 -86.5 -204.5t-210.5 -82.5q-113 0 -179.5 62.5t-66.5 152.5z" />
    <glyph glyph-name="uni2076" unicode="&#x2076;" horiz-adv-x="696" 
d="M358 1331l256 307h131l-213 -256h11q1 1 10 4q28 7 41 7q86 0 150.5 -67.5t64.5 -158.5q0 -116 -82.5 -196t-204.5 -80q-108 0 -177 65t-69 160q0 114 82 215zM389 1126q0 -62 37.5 -97.5t105.5 -35.5q69 0 116.5 47.5t47.5 116.5q0 62 -37.5 97.5t-105.5 35.5
q-69 0 -116.5 -47.5t-47.5 -116.5z" />
    <glyph glyph-name="uni2077" unicode="&#x2077;" horiz-adv-x="614" 
d="M309 901l383 635h-344l19 102h471l-17 -92l-389 -645h-123z" />
    <glyph glyph-name="uni2078" unicode="&#x2078;" horiz-adv-x="716" 
d="M434 1290l2 10q-25 14 -39 31q-39 39 -39 92q0 92 76 159t184 67q102 0 167 -58t65 -137q0 -83 -66 -137q-29 -23 -65 -37l-2 -10q22 -12 41 -35q41 -45 41 -119q0 -95 -73.5 -160t-193.5 -65q-110 0 -177.5 60.5t-67.5 142.5q0 97 73 155q42 29 74 41zM471 1434
q0 -47 34 -75t89 -28q67 0 105 32t38 81q0 47 -34 74.5t-89 27.5q-67 0 -105 -31.5t-38 -80.5zM553 1235q-70 0 -112 -36.5t-42 -92.5q0 -52 33.5 -82.5t99.5 -30.5q71 0 112.5 37.5t41.5 95.5q0 50 -33.5 79.5t-99.5 29.5z" />
    <glyph glyph-name="uni2079" unicode="&#x2079;" horiz-adv-x="696" 
d="M371 901l213 256h-11q-4 -4 -10 -6q-16 -4 -41 -4q-87 0 -151 66t-64 159q0 116 82.5 196.5t204.5 80.5q108 0 177 -66.5t69 -159.5q0 -114 -82 -215l-256 -307h-131zM420 1382q0 -62 37.5 -97.5t105.5 -35.5q69 0 116.5 47.5t47.5 116.5q0 62 -37.5 97.5t-105.5 35.5
q-69 0 -116.5 -47.5t-47.5 -116.5z" />
    <glyph glyph-name="uni2080" unicode="&#x2080;" horiz-adv-x="716" 
d="M420 440q-36 0 -73 -23t-69 -66t-52.5 -113.5t-20.5 -155.5q0 -96 39.5 -145.5t103.5 -49.5q84 0 149.5 96t65.5 263q0 96 -39 145t-104 49zM338 -215q-111 0 -178.5 75t-67.5 212q0 107 29.5 198t78 149.5t108.5 91t122 32.5q111 0 178.5 -75t67.5 -212
q0 -107 -29.5 -198t-78 -149.5t-108.5 -91t-122 -32.5z" />
    <glyph glyph-name="uni2081" unicode="&#x2081;" horiz-adv-x="522" 
d="M225 -205l94 533h-184l19 102h122q63 0 72 62l8 40h113l-131 -737h-113z" />
    <glyph glyph-name="uni2082" unicode="&#x2082;" horiz-adv-x="686" 
d="M86 -205l16 92l340 297q53 46 77 78.5t24 75.5q0 48 -29.5 75t-83.5 27q-55 0 -96.5 -36t-54.5 -97h-113q23 108 98 172t176 64q99 0 157 -54t58 -141q0 -31 -7.5 -59t-15 -45.5t-27 -41t-28 -31.5t-35 -31t-30.5 -27l-233 -205l-3 -10h310l-19 -103h-481z" />
    <glyph glyph-name="uni2083" unicode="&#x2083;" horiz-adv-x="686" 
d="M94 -20v20h113v-10q0 -48 31.5 -75.5t91.5 -27.5q66 0 104.5 38.5t38.5 94.5q0 48 -30 75.5t-89 27.5h-65l18 102h84q60 0 96.5 32.5t36.5 80.5q0 43 -27.5 72.5t-84.5 29.5q-113 0 -136 -102h-112q11 89 81.5 147t176.5 58q98 0 156.5 -52.5t58.5 -132.5q0 -55 -41 -107
t-100 -67l-2 -10q40 -18 66 -60t26 -94q0 -97 -80 -166t-187 -69q-97 0 -161 58t-64 137z" />
    <glyph glyph-name="uni2084" unicode="&#x2084;" horiz-adv-x="634" 
d="M35 -41l14 82l375 491h180l-84 -471h103l-19 -102h-102l-29 -164h-113l29 164h-354zM197 61h211l61 349h-16l-254 -338z" />
    <glyph glyph-name="uni2085" unicode="&#x2085;" horiz-adv-x="686" 
d="M92 0h113q16 -113 143 -113q71 0 122.5 49t51.5 125q0 61 -40.5 97.5t-102.5 36.5q-37 0 -80 -20.5t-74 -51.5h-102l115 409h440l-19 -102h-337l-52 -174h11q70 41 129 41q99 0 162 -63t63 -162q0 -122 -86.5 -204.5t-210.5 -82.5q-113 0 -179.5 62.5t-66.5 152.5z" />
    <glyph glyph-name="uni2086" unicode="&#x2086;" horiz-adv-x="696" 
d="M184 225l256 307h131l-213 -256h11q3 2 10 5q24 6 41 6q86 0 150.5 -67.5t64.5 -158.5q0 -116 -82.5 -196t-204.5 -80q-108 0 -177 65t-69 160q0 114 82 215zM215 20q0 -62 37.5 -97.5t105.5 -35.5q69 0 116.5 47.5t47.5 116.5q0 62 -37.5 97.5t-105.5 35.5
q-69 0 -116.5 -47.5t-47.5 -116.5z" />
    <glyph glyph-name="uni2087" unicode="&#x2087;" horiz-adv-x="614" 
d="M135 -205l383 635h-344l19 102h471l-17 -92l-389 -645h-123z" />
    <glyph glyph-name="uni2088" unicode="&#x2088;" horiz-adv-x="716" 
d="M260 184l2 11q-27 15 -39 30q-39 39 -39 92q0 92 76 159t184 67q102 0 167 -58t65 -137q0 -83 -66 -137q-29 -23 -65 -37l-2 -10q22 -12 41 -35q41 -45 41 -119q0 -95 -73.5 -160t-193.5 -65q-110 0 -177.5 60.5t-67.5 142.5q0 97 73 155q42 29 74 41zM297 328
q0 -47 34 -75t89 -28q67 0 105 32t38 81q0 47 -34 74.5t-89 27.5q-67 0 -105 -31.5t-38 -80.5zM379 129q-70 0 -112 -36.5t-42 -92.5q0 -52 33.5 -82.5t99.5 -30.5q71 0 112.5 37.5t41.5 95.5q0 50 -33.5 79.5t-99.5 29.5z" />
    <glyph glyph-name="uni2089" unicode="&#x2089;" horiz-adv-x="696" 
d="M197 -205l213 256h-11q-4 -4 -10 -6q-16 -4 -41 -4q-87 0 -151 66t-64 159q0 116 82.5 196.5t204.5 80.5q108 0 177 -66.5t69 -159.5q0 -114 -82 -215l-256 -307h-131zM246 276q0 -62 37.5 -97.5t105.5 -35.5q69 0 116.5 47.5t47.5 116.5q0 62 -37.5 97.5t-105.5 35.5
q-69 0 -116.5 -47.5t-47.5 -116.5z" />
    <glyph glyph-name="uni20A9" unicode="&#x20a9;" horiz-adv-x="1925" 
d="M434 0l-18 471h-262l20 123h238l-11 246h-182l21 123h157l-18 471h125l14 -471h404l190 471h205l20 -471h402l186 471h133l-184 -471h149l-20 -123h-176l-96 -246h227l-21 -123h-256l-182 -471h-235l-21 471h-387l-186 -471h-236zM530 594h242l100 246h-350zM1356 594
h239l97 246h-349zM903 594h334l-10 246h-226zM547 143h43l133 328h-188zM1376 143h43l127 328h-186zM1049 963h172l-13 297h-41z" />
    <glyph glyph-name="Euro" unicode="&#x20ac;" horiz-adv-x="1454" 
d="M139 502l21 123h188v30q0 53 10 105l13 49h-178l22 123h188q94 232 286 377t437 145q156 0 271.5 -40t169.5 -83l-21 -119q-52 41 -169 80t-271 39q-191 0 -341.5 -111t-232.5 -288h687l-23 -123h-702l-13 -49q-10 -52 -10 -105v-30h692l-20 -123h-668
q39 -187 162 -293.5t336 -106.5q224 0 399 82l-20 -123q-190 -81 -389 -81q-259 0 -422 145.5t-193 376.5h-209z" />
    <glyph glyph-name="uni20B4" unicode="&#x20b4;" horiz-adv-x="1331" 
d="M211 502l20 123h1086l-21 -123h-794q-103 -103 -103 -205q0 -82 76.5 -138.5t210.5 -56.5q153 0 245.5 64.5t123.5 171.5h123q-39 -166 -170 -262t-342 -96q-184 0 -287 82t-103 204q0 142 89 236h-154zM260 809l21 123h794q103 103 103 205q0 82 -76.5 138t-210.5 56
q-153 0 -245.5 -64t-123.5 -171h-123q39 166 170 262t342 96q184 0 286.5 -82.5t102.5 -204.5q0 -142 -88 -235h154l-20 -123h-1086z" />
    <glyph glyph-name="uni20B8" unicode="&#x20b8;" horiz-adv-x="1228" 
d="M281 1311l22 123h1106l-23 -123h-1105zM543 0l178 1014h-492l21 123h1106l-21 -123h-491l-178 -1014h-123z" />
    <glyph glyph-name="uni20B9" unicode="&#x20b9;" horiz-adv-x="1157" 
d="M211 563l20 123h433q134 0 225.5 68.5t120.5 187.5h-736l23 123h723q-4 120 -68 183t-176 63h-434l23 123h958l-20 -123h-244q83 -103 86 -246h115l-23 -123h-104q-32 -171 -166 -275t-324 -104h-147l495 -563h-164l-495 563h-121z" />
    <glyph glyph-name="uni20BA" unicode="&#x20ba;" horiz-adv-x="1157" 
d="M256 0l106 606l-186 -63l23 123l184 63l31 174l-185 -63l21 123l186 63l72 408h123l-64 -365l371 129l-23 -123l-370 -129l-31 -176l371 131l-21 -123l-370 -127l-95 -528h144q130 0 219.5 22.5t146.5 72.5t87.5 117t47.5 167h123q-23 -132 -64 -222t-114 -155t-185 -95
t-272 -30h-276z" />
    <glyph glyph-name="uni20BD" unicode="&#x20bd;" horiz-adv-x="1331" 
d="M496 727h487q126 0 216.5 99t90.5 249q0 108 -62 172t-163 64h-467zM246 0l51 297h-184l22 123h184l33 184h-184l20 123h185l125 707h592q144 0 233.5 -94.5t89.5 -254.5q0 -136 -61 -247t-162 -172.5t-219 -61.5h-496l-33 -184h471l-22 -123h-471l-51 -297h-123z" />
    <glyph glyph-name="uni20BF" unicode="&#x20bf;" horiz-adv-x="1300" 
d="M369 -225l39 225h-224l252 1434h223l41 225h123l-41 -225h185l41 225h122l-40 -236q111 -25 186.5 -118.5t75.5 -210.5q0 -176 -123 -291q-51 -51 -123 -86l-2 -10q36 -18 72 -58q73 -77 73 -209q0 -182 -112 -301.5t-299 -136.5l-39 -227h-123l39 225h-185l-38 -225
h-123zM328 123h481q147 0 232 83.5t85 223.5q0 109 -58 167t-167 58h-479zM444 778h457q145 0 236.5 85.5t91.5 211.5q0 98 -69 167t-167 69h-456z" />
    <glyph glyph-name="uni2113" unicode="&#x2113;" horiz-adv-x="757" 
d="M330 266v238l-54 -12q-60 -11 -120 -11v113q69 0 123 14l51 17v532q0 152 60 224.5t165 72.5t170.5 -81t65.5 -236q0 -406 -338 -592v-279q0 -174 143 -174q40 0 80 14l33 17v-113q-6 -3 -35 -16q-38 -14 -88 -14q-256 0 -256 286zM453 1147v-461q95 60 155 172.5
t60 278.5q0 107 -31.5 155.5t-81.5 48.5q-43 0 -72.5 -46.5t-29.5 -147.5z" />
    <glyph glyph-name="uni2116" unicode="&#x2116;" horiz-adv-x="2170" 
d="M1454 0l21 123h614l-21 -123h-614zM184 0l252 1434h221l484 -1291h41l227 1291h123l-252 -1434h-221l-484 1290h-40l-228 -1290h-123zM1659 573q0 -81 52 -132.5t132 -51.5q93 0 164.5 73.5t71.5 172.5q0 81 -52.5 132.5t-132.5 51.5q-93 0 -164 -73.5t-71 -172.5z
M1546 573q0 139 107 244t252 105q123 0 204.5 -82t81.5 -205q0 -139 -106.5 -243.5t-251.5 -104.5q-123 0 -205 81.5t-82 204.5z" />
    <glyph glyph-name="uni2117" unicode="&#x2117;" horiz-adv-x="1740" 
d="M881 717h194q76 0 115 35t39 98q0 143 -154 143h-194v-276zM768 338v768h307q123 0 194.5 -69.5t71.5 -186.5q0 -110 -72 -178t-194 -68h-194v-266h-113zM993 1454q213 0 381.5 -93.5t262.5 -262t94 -381.5t-94 -381.5t-262.5 -262t-381.5 -93.5q-160 0 -297 55
t-233.5 151.5t-151.5 233.5t-55 297t55 297t151.5 233.5t233.5 151.5t297 55zM993 92q277 0 451 174t174 451t-174 450.5t-451 173.5t-450.5 -173.5t-173.5 -450.5t173.5 -451t450.5 -174z" />
    <glyph glyph-name="trademark" unicode="&#x2122;" horiz-adv-x="1484" 
d="M410 819v522h-195v93h481v-93h-194v-522h-92zM809 819v615h174l174 -492h21l172 492h176v-615h-92v512h-21l-182 -512h-127l-182 512h-21v-512h-92z" />
    <glyph glyph-name="uni2126" unicode="&#x2126;" horiz-adv-x="1658" 
d="M305 0v123h291l-12 7q-11 6 -31.5 19.5t-46.5 33t-55.5 48.5t-58.5 63.5t-55.5 81t-47 98t-33 117t-12.5 136.5q0 212 90.5 378t251.5 257.5t364 91.5t364 -91.5t252 -257.5t91 -378q-1 -300 -209 -498q-59 -57 -143 -106h290v-123h-501v123q120 47 219 129
q221 187 221 475q0 132 -44 245t-121.5 191.5t-185.5 123t-233 44.5t-233 -44.5t-185 -123t-121 -191.5t-44 -245q0 -290 219 -475q100 -83 221 -129v-123h-502z" />
    <glyph glyph-name="estimated" unicode="&#x212e;" horiz-adv-x="1740" 
d="M575 778h861v451q-181 164 -430 164q-122 0 -233 -42.5t-198 -121.5v-451zM575 707v-502q44 -42 117 -82q152 -82 334 -82q243 0 428 154q85 69 145 153l62 -41q-66 -94 -160 -164q-211 -163 -475 -163q-158 0 -299 58t-241.5 156.5t-159 235t-58.5 287.5
q0 202 98.5 371.5t268 267.5t371.5 98q151 0 287.5 -58t235 -156.5t156.5 -235t58 -287.5v-10h-1168z" />
    <glyph glyph-name="uni2150" unicode="&#x2150;" horiz-adv-x="1372" 
d="M123 0l1143 1434h127l-1143 -1434h-127zM383 696l94 533h-184l18 102h123q63 0 72 62l8 41h113l-131 -738h-113zM889 0l383 635h-344l18 102h471l-16 -92l-389 -645h-123z" />
    <glyph glyph-name="uni2151" unicode="&#x2151;" horiz-adv-x="1392" 
d="M123 0l1143 1434h127l-1143 -1434h-127zM383 696l94 533h-184l18 102h123q63 0 72 62l8 41h113l-131 -738h-113zM924 0l213 256h-11q-4 -4 -10 -6q-16 -4 -41 -4q-87 0 -151 66t-64 159q0 116 82.5 196.5t204.5 80.5q108 0 177 -66.5t69 -159.5q0 -114 -82 -215
l-256 -307h-131zM973 481q0 -62 37.5 -97.5t105.5 -35.5q69 0 116.5 47.5t47.5 116.5q0 62 -37.5 97.5t-105.5 35.5q-69 0 -116.5 -47.5t-47.5 -116.5z" />
    <glyph glyph-name="uni2152" unicode="&#x2152;" horiz-adv-x="1904" 
d="M123 0l1143 1434h127l-1143 -1434h-127zM383 696l94 533h-184l18 102h123q63 0 72 62l8 41h113l-131 -738h-113zM989 0l94 532h-184l19 103h122q63 0 72 61l8 41h113l-131 -737h-113zM1608 645q-36 0 -73 -23t-69 -66t-52.5 -113.5t-20.5 -155.5q0 -96 39.5 -145.5
t103.5 -49.5q84 0 149.5 96t65.5 263q0 96 -39 145t-104 49zM1526 -10q-112 0 -179 75t-67 211q0 107 29.5 198t78 150t108.5 91.5t122 32.5q111 0 178.5 -75t67.5 -212q0 -107 -29.5 -198t-78 -149.5t-108.5 -91t-122 -32.5z" />
    <glyph glyph-name="onethird" unicode="&#x2153;" horiz-adv-x="1392" 
d="M123 0l1143 1434h127l-1143 -1434h-127zM383 696l94 533h-184l18 102h123q63 0 72 62l8 41h113l-131 -738h-113zM829 184v21h113v-10q0 -48 31.5 -75.5t91.5 -27.5q67 0 105 38t38 95q0 49 -29.5 76t-88.5 27h-66l18 102h84q60 0 97 32.5t37 80.5q0 43 -28 72.5t-85 29.5
q-112 0 -135 -102h-113q11 89 81.5 147t176.5 58q98 0 156.5 -52.5t58.5 -132.5q0 -55 -41 -107t-100 -67l-2 -10q40 -18 66 -60t26 -94q0 -97 -79.5 -166t-186.5 -69q-97 0 -161.5 57.5t-64.5 136.5z" />
    <glyph glyph-name="twothirds" unicode="&#x2154;" horiz-adv-x="1546" 
d="M276 0l1143 1434h127l-1143 -1434h-127zM225 696l17 92l340 297q52 45 76 78t24 76q0 48 -29.5 75t-83.5 27q-55 0 -96.5 -36t-54.5 -97h-113q23 108 98.5 172t176.5 64q99 0 157 -54t58 -141q0 -31 -7.5 -58.5t-15.5 -45.5t-27.5 -41t-28.5 -32t-34.5 -31t-30.5 -27
l-233 -205l-2 -10h309l-18 -103h-482zM973 184v21h112v-10q0 -48 31.5 -75.5t91.5 -27.5q67 0 105.5 38.5t38.5 94.5q0 48 -30 75.5t-89 27.5h-66l19 102h84q60 0 96.5 32.5t36.5 80.5q0 43 -28 72.5t-85 29.5q-112 0 -135 -102h-113q11 89 81.5 147t176.5 58
q98 0 157 -52.5t59 -132.5q0 -55 -41.5 -107t-100.5 -67l-2 -10q40 -18 66 -60t26 -94q0 -97 -79.5 -166t-186.5 -69q-97 0 -161 57.5t-64 136.5z" />
    <glyph glyph-name="uni2155" unicode="&#x2155;" horiz-adv-x="1413" 
d="M123 0l1143 1434h127l-1143 -1434h-127zM383 696l94 533h-184l18 102h123q63 0 72 62l8 41h113l-131 -738h-113zM829 205h113q16 -113 143 -113q71 0 123 49t52 125q0 60 -40.5 96.5t-103.5 36.5q-38 0 -80 -20t-73 -51h-103l115 409h440l-18 -102h-338l-51 -174h10
q70 41 129 41q99 0 162 -63t63 -163q0 -122 -86.5 -204t-210.5 -82q-113 0 -179.5 62.5t-66.5 152.5z" />
    <glyph glyph-name="uni2156" unicode="&#x2156;" horiz-adv-x="1566" 
d="M276 0l1143 1434h127l-1143 -1434h-127zM225 696l17 92l340 297q52 45 76 78t24 76q0 48 -29.5 75t-83.5 27q-55 0 -96.5 -36t-54.5 -97h-113q23 108 98.5 172t176.5 64q99 0 157 -54t58 -141q0 -31 -7.5 -58.5t-15.5 -45.5t-27.5 -41t-28.5 -32t-34.5 -31t-30.5 -27
l-233 -205l-2 -10h309l-18 -103h-482zM983 205h113q16 -113 143 -113q71 0 122.5 49t51.5 125q0 60 -40 96.5t-103 36.5q-38 0 -80.5 -20t-73.5 -51h-102l114 409h441l-19 -102h-338l-51 -174h10q70 41 129 41q99 0 162.5 -63.5t63.5 -162.5q0 -122 -86.5 -204t-210.5 -82
q-113 0 -179.5 62.5t-66.5 152.5z" />
    <glyph glyph-name="uni2157" unicode="&#x2157;" horiz-adv-x="1546" 
d="M256 0l1143 1434h127l-1143 -1434h-127zM236 881v20h112v-10q0 -48 31.5 -75.5t91.5 -27.5q66 0 104.5 38.5t38.5 95.5q0 48 -29.5 75t-88.5 27h-66l19 102h83q60 0 97 32.5t37 80.5q0 43 -28 72.5t-85 29.5q-112 0 -135 -102h-113q11 89 81.5 147t176.5 58
q98 0 156.5 -52t58.5 -132q0 -55 -41 -107.5t-100 -67.5l-2 -10q40 -18 66 -59.5t26 -93.5q0 -97 -79.5 -166.5t-186.5 -69.5q-97 0 -161 58t-64 137zM961 205h112q16 -113 144 -113q71 0 122.5 49t51.5 125q0 60 -40.5 96.5t-103.5 36.5q-38 0 -80 -20t-73 -51h-103
l115 409h440l-18 -102h-338l-51 -174h10q70 41 129 41q98 0 161.5 -63t63.5 -163q0 -122 -86.5 -204t-210.5 -82q-113 0 -179 62.5t-66 152.5z" />
    <glyph glyph-name="uni2158" unicode="&#x2158;" horiz-adv-x="1536" 
d="M236 0l1142 1434h127l-1143 -1434h-126zM170 860l14 82l375 492h180l-84 -471h103l-19 -103h-102l-29 -164h-112l28 164h-354zM332 963h211l61 348h-16l-254 -338zM940 205h113q16 -113 143 -113q71 0 122.5 49t51.5 125q0 60 -40 96.5t-103 36.5q-38 0 -80.5 -20
t-73.5 -51h-102l114 409h441l-19 -102h-338l-51 -174h10q70 41 129 41q99 0 162.5 -63.5t63.5 -162.5q0 -122 -86.5 -204t-210.5 -82q-113 0 -179.5 62.5t-66.5 152.5z" />
    <glyph glyph-name="uni2159" unicode="&#x2159;" horiz-adv-x="1341" 
d="M123 0l1143 1434h127l-1143 -1434h-127zM383 696l94 533h-184l18 102h123q63 0 72 62l8 41h113l-131 -738h-113zM850 430l256 307h131l-213 -256h10q1 1 10 4q28 7 41 7q86 0 150.5 -67.5t64.5 -158.5q0 -116 -82 -196t-204 -80q-108 0 -177 65t-69 160q0 114 82 215z
M881 225q0 -62 37.5 -97.5t105.5 -35.5q69 0 116.5 47.5t47.5 116.5q0 62 -38 97.5t-106 35.5q-69 0 -116 -47.5t-47 -116.5z" />
    <glyph glyph-name="uni215A" unicode="&#x215a;" horiz-adv-x="1497" 
d="M276 0l1143 1434h127l-1143 -1434h-127zM223 901h113q16 -113 143 -113q71 0 122.5 49.5t51.5 125.5q0 60 -40 96.5t-103 36.5q-37 0 -80 -20.5t-74 -51.5h-102l115 410h440l-18 -103h-338l-52 -174h11q70 41 129 41q99 0 162 -63t63 -162q0 -122 -86.5 -204.5
t-210.5 -82.5q-113 0 -179.5 62.5t-66.5 152.5zM983 430l256 307h131l-213 -256h10q1 1 11 4q28 7 41 7q86 0 150.5 -67.5t64.5 -158.5q0 -116 -82.5 -196t-204.5 -80q-108 0 -177 65t-69 160q0 114 82 215zM1014 225q0 -62 37.5 -97.5t105.5 -35.5q69 0 116.5 47.5
t47.5 116.5q0 62 -37.5 97.5t-105.5 35.5q-69 0 -116.5 -47.5t-47.5 -116.5z" />
    </font>
</defs>
</svg>
